<?xml version="1.0" encoding="UTF-8" standalone="no"?>
<!-- Created with Inkscape (http://www.inkscape.org/) -->

<svg
   xmlns:dc="http://purl.org/dc/elements/1.1/"
   xmlns:cc="http://creativecommons.org/ns#"
   xmlns:rdf="http://www.w3.org/1999/02/22-rdf-syntax-ns#"
   xmlns:svg="http://www.w3.org/2000/svg"
   xmlns="http://www.w3.org/2000/svg"
   xmlns:xlink="http://www.w3.org/1999/xlink"
   xmlns:inkscape="http://www.inkscape.org/namespaces/inkscape"
   version="1.1"
   width="740"
   height="520"
   id="svg2"
   style="enable-background:new">
  <defs
     id="defs4">
    <filter
       color-interpolation-filters="sRGB"
       id="filter3050">
      <feBlend
         in2="BackgroundImage"
         mode="lighten"
         id="feBlend3052" />
    </filter>
  </defs>
  <metadata
     id="metadata7">
    <rdf:RDF>
      <cc:Work
         rdf:about="">
        <dc:format>image/svg+xml</dc:format>
        <dc:type
           rdf:resource="http://purl.org/dc/dcmitype/StillImage" />
        <dc:title />
      </cc:Work>
    </rdf:RDF>
  </metadata>
  <g
     id="layer1"
     style="display:none">
    <image
       xlink:href="pngs/coronal-0492.png"
       id="MRISLICE"
       height="520"
       width="740"
       y="0"
       x="0" />
  </g>
  <g
     id="layer3"
     style="display:inline">
    <path
       d="M 371.83266,239.2876 370.56425,381.34928 C 424.535,415.59298 394.52036,418.1713 443.30924,427.98069 485.937,443.467 509.05331,432.52418 532.84154,401.8671 L 570.14667,370.15775 C 601.28581,356.58621 635.719,276.76571 627.96962,227.15476 613.12188,139.95492 569.30075,131.15554 508.59321,101.56084 501.35502,105.51372 423.01085,43.449589 373.05126,102.80434 L 372.04463,215.54669"
       inkscape:connector-curvature="0"
       id="path2990"
       style="fill:none;stroke:#0000e9;stroke-width:1;stroke-miterlimit:4;stroke-opacity:1;stroke-dasharray:none;stroke-dashoffset:0" />
    <path
       d="M 573.25543,368.29249 C 550.16184,376.06878 531.51934,385.26371 532.21979,400.6236"
       inkscape:connector-curvature="0"
       id="path2992"
       style="fill:none;stroke:#0000e9;stroke-width:1;stroke-miterlimit:4;stroke-opacity:1;stroke-dasharray:none;stroke-dashoffset:0" />
    <path
       d="M 372.4295,216.58498 C 385.62241,214.35175 403.61265,212.66187 417.19566,188.60613 440.5618,158.63669 442.73948,166.80229 475.86017,182.42633 496.69559,195.48531 534.44752,209.01107 539.68082,240.21156 541.65997,263.39257 538.99275,294.37766 532.62172,322.39786 M 529.22875,325.40453 C 531.1942,301.31695 538.65128,265.18676 533.4633,242.69857"
       inkscape:connector-curvature="0"
       id="path2994"
       style="fill:none;stroke:#0000e9;stroke-width:1;stroke-miterlimit:4;stroke-opacity:1;stroke-dasharray:none;stroke-dashoffset:0" />
    <path
       d="M 393.96453,211.14007 C 395.51329,211.4231 396.88403,214.48359 399.76589,213.60186 412.20555,209.79582 429.16887,180.59096 440.06291,177.6916 448.58444,175.42366 447.21308,171.58968 450.21747,169.2941"
       inkscape:connector-curvature="0"
       id="path2996"
       style="fill:none;stroke:#0000e9;stroke-width:1;stroke-miterlimit:4;stroke-opacity:1;stroke-dasharray:none;stroke-dashoffset:0" />
    <path
       d="M 371.186,238.96805 C 384.12708,235.33986 401.44239,247.77122 408.49113,233.99404 412.28873,229.71657 416.53054,225.89349 420.02778,221.59316 424.59515,215.97698 429.76957,211.37896 435.57086,207.93692 448.86963,200.04646 465.4626,198.23071 485.58839,204.14994 501.9258,213.77196 523.26875,218.34114 533.4633,243.32031"
       inkscape:connector-curvature="0"
       id="path2998"
       style="fill:none;stroke:#0000e9;stroke-width:1;stroke-miterlimit:4;stroke-opacity:1;stroke-dasharray:none;stroke-dashoffset:0" />
    <path
       d="M 420.92617,222.18075 C 421.48461,224.83826 421.55424,227.66302 421.42425,230.34096 422.25185,238.48955 421.50425,246.44039 422.29661,254.21971 423.98491,270.79462 427.16249,286.59093 428.78366,301.86239 427.82468,303.60412 426.5706,298.89191 425.35321,297.98727 422.90189,294.16876 419.96384,290.38191 419.58047,285.68414 419.03211,281.70882 418.82632,274.30385 416.49238,267.28488 412.39663,254.96751 405.62604,241.89937 406.71936,236.75547 L 406.94198,236.28976 407.24812,235.85929"
       inkscape:connector-curvature="0"
       id="path3000"
       style="fill:none;stroke:#0000e9;stroke-width:1;stroke-miterlimit:4;stroke-opacity:1;stroke-dasharray:none;stroke-dashoffset:0" />
    <path
       d="M 533.74751,316.25847 C 532.11167,319.82176 531.91648,322.82941 529.2046,326.30737 526.3986,333.05372 521.70641,338.8723 516.09214,343.48486 509.90602,350.18332 505.56523,358.35276 501.91913,366.64019 499.78823,372.89001 498.21535,380.48209 502.29343,386.31025 505.07614,389.97881 510.21811,389.07432 513.96883,387.67741 518.01384,386.41677 523.05935,384.7361 526.7616,387.70641 530.52716,391.40618 530.70068,396.98609 532.32385,401.71248 531.99347,401.47045 532.24505,400.32481 531.59803,400.62359"
       inkscape:connector-curvature="0"
       id="path3004"
       style="fill:none;stroke:#0000e9;stroke-width:1;stroke-miterlimit:4;stroke-opacity:1;stroke-dasharray:none;stroke-dashoffset:0" />
    <path
       d="M 420.30442,288.08647 C 404.4422,305.33716 367.94171,334.94151 407.24762,383.83629 407.07938,391.73363 404.80959,401.28438 405.38236,408.70638"
       inkscape:connector-curvature="0"
       id="path3006"
       style="fill:none;stroke:#0000e9;stroke-width:1;stroke-miterlimit:4;stroke-opacity:1;stroke-dasharray:none;stroke-dashoffset:0" />
    <path
       d="M 506.1062,388.81031 C 498.97383,420.60402 430.94717,412.49419 406.62587,386.94505"
       inkscape:connector-curvature="0"
       id="path3008"
       style="fill:none;stroke:#0000e9;stroke-width:1;stroke-miterlimit:4;stroke-opacity:1;stroke-dasharray:none;stroke-dashoffset:0" />
    <path
       d="M 513.87811,345.75397 C 505.65468,344.33624 492.4104,364.78075 498.02343,376.99702"
       inkscape:connector-curvature="0"
       id="path3010"
       style="fill:none;stroke:#0000e9;stroke-width:1;stroke-miterlimit:4;stroke-opacity:1;stroke-dasharray:none;stroke-dashoffset:0" />
    <path
       d="M 498.64518,377.61877 C 472.85621,409.12495 426.02405,395.36284 406.00412,383.83629"
       inkscape:connector-curvature="0"
       id="path3032"
       style="fill:none;stroke:#0000e9;stroke-width:1;stroke-miterlimit:4;stroke-opacity:1;stroke-dasharray:none;stroke-dashoffset:0" />
    <path
       d="M 513.41179,345.13222 C 509.61529,344.28128 502.08985,351.3747 498.25224,345.98181 494.27629,343.31392 492.50904,338.50054 488.25393,337.6014 486.96247,341.1208 486.14778,344.82485 484.39937,348.21503 480.21452,357.73637 472.74302,367.17431 461.96773,369.131 450.55285,371.02425 439.44949,364.86804 431.76385,356.84712 415.72065,340.87554 410.06621,313.05012 416.10763,292.74961"
       inkscape:connector-curvature="0"
       id="path3034"
       style="fill:none;stroke:#0000e9;stroke-width:1;stroke-miterlimit:4;stroke-opacity:1;stroke-dasharray:none;stroke-dashoffset:0" />
    <path
       d="M 426.83281,295.23661 C 448.3798,304.14936 473.70486,296.27636 488.69715,339.69189"
       inkscape:connector-curvature="0"
       id="path3037"
       style="fill:none;stroke:#0000e9;stroke-width:1;stroke-miterlimit:4;stroke-opacity:1;stroke-dasharray:none;stroke-dashoffset:0" />
    <path
       d="M 456.36604,369.35986 C 456.50809,382.31516 456.63039,398.56652 456.36604,396.71695"
       inkscape:connector-curvature="0"
       id="path3043"
       style="fill:none;stroke:#0000e9;stroke-width:1;stroke-miterlimit:4;stroke-opacity:1;stroke-dasharray:none;stroke-dashoffset:0" />
    <path
       d="M 449.97678,317.76325 C 443.93738,318.41497 439.19698,323.36207 442.94246,331.17242 447.86344,336.80024 453.19109,338.8743 459.86879,338.64639"
       inkscape:connector-curvature="0"
       id="path3005"
       style="fill:none;stroke:#0000e9;stroke-width:1;stroke-miterlimit:4;stroke-opacity:1;stroke-dasharray:none;stroke-dashoffset:0" />
    <path
       d="M 459.64897,338.42657 C 470.62327,331.6404 455.50155,318.22431 449.97678,318.20289"
       inkscape:connector-curvature="0"
       id="path3007"
       style="fill:none;stroke:#0000e9;stroke-width:1;stroke-miterlimit:4;stroke-opacity:1;stroke-dasharray:none;stroke-dashoffset:0" />
    <path
       d="M 414.22313,295.08298 C 409.58138,299.25712 405.65363,304.2106 401.8787,309.17671 394.78619,318.66696 389.49413,330.1522 389.97773,342.24869 389.8527,354.40191 395.09089,365.89382 401.65208,375.84275 403.60851,378.78221 405.86828,381.58714 407.8016,384.4987 413.63292,387.89792 420.07243,390.18077 426.48331,392.28032 436.02054,395.13614 446.06169,397.08598 456.01829,396.63131 456.54802,393.99764 456.08319,390.96351 456.23997,388.18064 456.15517,382.08818 456.4098,375.92288 456.1124,369.87605 452.32937,368.83117 448.14303,368.28094 444.54326,366.4096 432.2743,360.51053 423.61808,348.91691 418.63369,336.46835 414.85469,326.79427 413.23327,316.37089 413.79106,305.98356 413.77666,302.4111 414.79435,298.9185 414.95175,295.38414 414.86075,295.10101 414.4822,294.96271 414.22313,295.08298 z"
       inkscape:connector-curvature="0"
       id="path3013"
       style="fill:#95c990;stroke:none" />
    <path
       d="M 489.00825,338.30447 C 488.33907,338.69435 489.05835,339.5087 488.16306,339.68398 486.26182,343.1036 485.45146,347.06638 483.47077,350.47721 479.17962,358.97136 472.24592,367.18909 462.50325,369.13662 460.56596,369.63623 458.40793,369.39358 456.51199,369.95553 456.38214,378.69916 456.63795,387.49835 456.648,396.26342 457.49058,397.33787 459.39355,396.50284 460.66024,396.61315 472.36122,395.41547 484.13903,391.41527 492.79705,383.22605 494.55824,381.42079 496.7922,379.86046 498.02366,377.64971 497.81375,376.41774 496.95094,375.25755 496.96473,373.89977 495.44279,364.34732 500.14101,354.87976 506.71847,348.24278 506.83297,346.49973 504.15837,348.15678 503.06568,348.03877 499.6105,348.89429 497.51583,345.29183 495.25936,343.359 493.31294,341.66746 491.74026,339.29024 489.32884,338.25589 489.22047,338.25789 489.11035,338.24389 489.00825,338.30449 z"
       inkscape:connector-curvature="0"
       id="path3015"
       style="fill:#d87090;stroke:none" />
    <path
       d="M 511.79935,346.03751 C 506.2592,347.77179 502.7314,353.04691 500.18246,357.97592 497.379,363.68231 495.5952,370.68095 498.15966,376.77538 499.05502,377.97107 500.07142,376.24307 499.76262,375.29871 500.40923,368.00502 504.21802,361.49007 507.5248,355.12092 508.93501,352.19346 511.26514,349.77349 512.66397,346.87299 512.77936,346.35959 512.30984,345.91468 511.79935,346.03751 z"
       inkscape:connector-curvature="0"
       id="path3017"
       style="fill:#a5c0bd;stroke:none" />
    <path
       d="M 567.04785,370.82987 C 559.75016,373.16672 552.73333,376.4637 546.15933,380.37886 539.81598,384.21745 533.80045,389.85525 532.55033,397.49721 532.49613,398.57443 531.77923,400.60201 533.14293,401.06257 537.0482,398.3561 540.52042,394.92742 544.25095,391.93315 552.0897,385.18589 560.08472,378.59191 567.74732,371.66535 567.97741,371.10754 567.59664,370.72394 567.04785,370.82987 z"
       inkscape:connector-curvature="0"
       id="path3019"
       style="fill:#6abbd5;stroke:none" />
    <path
       d="M 521.21307,386.24738 C 516.30894,386.69258 511.80403,389.04731 506.84476,389.06469 505.39037,389.81905 505.58942,391.97191 504.68316,393.22276 501.25218,401.24808 492.87719,405.65291 484.84057,407.69783 469.15057,411.5291 452.53276,409.2899 437.26567,404.71547 426.6854,401.25092 416.27854,396.26733 408.07362,388.60809 406.64343,388.37026 407.12835,390.75616 406.7496,391.71999 406.05886,397.60639 405.38347,403.56981 405.46031,409.47565 409.46606,414.58382 414.09832,419.57357 420.41907,421.72335 430.14328,425.56835 440.70869,426.62776 450.52192,430.18197 460.41323,433.20319 470.73508,435.25437 481.12887,434.55116 494.05801,434.15351 506.21475,428.24565 515.82738,419.83548 521.71653,414.77439 527.00452,408.96549 531.77314,402.84039 532.64852,401.22279 531.22319,399.35004 531.03481,397.6915 529.79071,393.63542 528.88665,388.27361 524.3024,386.67483 523.31295,386.35181 522.25554,386.2031 521.21307,386.24738 z"
       inkscape:connector-curvature="0"
       id="path3033"
       style="fill:#c7a1db;stroke:none" />
    <path
       d="M 539.44456,288.0872 C 546.57207,304.2998 554.87607,330.46898 527.57414,330.51296"
       inkscape:connector-curvature="0"
       id="path3018"
       style="fill:none;stroke:#0000e9;stroke-width:1;stroke-miterlimit:4;stroke-opacity:1;stroke-dasharray:none;stroke-dashoffset:0" />
    <path
       d="M 537.24633,329.63366 C 540.8036,339.85472 546.19084,349.53392 517.4623,367.0035"
       inkscape:connector-curvature="0"
       id="path3022"
       style="fill:none;stroke:#0000e9;stroke-width:1;stroke-miterlimit:4;stroke-opacity:1;stroke-dasharray:none;stroke-dashoffset:0" />
    <path
       d="M 513.06585,387.22718 C 515.44848,376.42985 525.55777,354.93479 508.6694,354.69344"
       inkscape:connector-curvature="0"
       id="path3024"
       style="fill:none;stroke:#0000e9;stroke-width:1;stroke-miterlimit:4;stroke-opacity:1;stroke-dasharray:none;stroke-dashoffset:0" />
    <path
       d="M 580.7712,340.18515 C 580.15815,339.25471 582.67018,338.64864 581.24974,339.67504 584.32528,338.03852 581.17644,331.78487 579.26872,333.54348 576.50038,335.84891 574.24351,338.71321 571.40863,340.97531 570.68935,344.88379 564.26465,348.62924 557.76729,350.62527 551.51509,353.47816 544.92058,355.6912 539.04372,359.29493 535.73268,361.70689 531.86415,363.58621 529.33302,366.89613 526.98306,370.49916 525.78536,374.72708 524.89144,378.88847 524.28947,382.18653 527.86133,381.45688 528.91719,379.27301 532.42089,374.92122 536.00988,370.62924 539.34928,366.13928 544.05304,360.98767 551.22342,359.6847 557.51952,357.44728 562.88997,355.92716 568.27633,353.95135 572.53288,350.21557 574.81528,348.21264 577.26597,346.36394 579.34954,344.15743 580.23471,343.03653 580.84791,341.63642 580.7712,340.18515 z"
       inkscape:connector-curvature="0"
       id="path3026"
       style="fill:none;stroke:#0000e9;stroke-width:1;stroke-miterlimit:4;stroke-opacity:1;stroke-dasharray:none;stroke-dashoffset:0" />
    <path
       d="M 498.63956,378.84249 C 494.24214,382.24243 490.48651,386.58824 485.49143,389.22911 474.16312,396.02608 460.62683,397.87845 447.61453,396.75179 434.09159,395.92347 421.04937,391.42739 408.86953,385.79438 407.25262,385.09188 407.08192,387.35093 408.23754,388.02008 417.79294,397.05675 430.31906,402.44203 442.88707,405.83945 457.90533,409.56337 474.23052,410.96998 489.1185,405.90815 496.46738,403.28672 503.09665,397.57852 505.57771,390.06719 505.18687,388.02665 502.35339,387.53659 501.64838,385.51961 500.03056,383.60921 500.39902,380.92804 499.18912,378.89746 499.08294,378.98476 498.78891,378.63216 498.63956,378.84246 z"
       inkscape:connector-curvature="0"
       id="path3035"
       style="fill:#8791c7;stroke:none" />
    <path
       d="M 508.92654,354.88183 C 506.36051,356.98907 505.38077,360.57944 503.78819,363.45491 500.63731,370.07089 498.21037,378.46951 502.02961,385.31352 503.69908,388.26479 507.42265,389.00187 510.47904,388.34982 513.31751,388.28702 512.97834,384.51561 514.00176,382.64834 515.89546,375.35474 519.23273,367.66515 517.19737,360.0614 516.06006,356.55305 512.27635,355.13705 508.92654,354.88183 z"
       inkscape:connector-curvature="0"
       id="path3042"
       style="fill:#7c797c;stroke:none" />
    <path
       d="M 580.12157,333.77887 C 576.59134,336.14409 573.37016,339.26477 570.9165,342.73664 567.6386,347.83201 561.03213,349.24424 555.78153,351.7923 546.69615,355.69239 537.01504,359.41546 530.04325,366.66982 527.2503,370.53849 525.74997,375.35815 525.12472,380.03778 526.01093,382.22105 528.19495,379.77975 528.95787,378.76006 534.78849,372.46159 538.94066,363.71149 547.46418,360.6247 556.86114,357.03134 567.36745,355.20287 574.81835,347.94368 577.39729,345.65981 580.53885,343.14732 580.5887,339.4393 583.04832,338.79961 582.416,334.8833 580.6024,333.80635 580.44539,333.76615 580.28226,333.74975 580.12153,333.77885 z"
       inkscape:connector-curvature="0"
       id="path3044"
       style="fill:#d5be93;stroke:none" />
    <path
       d="M 371.96319,238.50174 356.42386,238.60914 C 341.05419,239.02687 341.5416,239.43601 333.57,234.92666"
       inkscape:connector-curvature="0"
       id="path3027"
       style="fill:none;stroke:#0000e9;stroke-width:0.93800002;stroke-linecap:round;stroke-miterlimit:4;stroke-opacity:1;stroke-dasharray:none;stroke-dashoffset:0" />
    <path
       d="M 372.27407,216.58498 C 360.9297,216.15936 348.55619,216.82552 342.5854,207.10326"
       inkscape:connector-curvature="0"
       id="path3030"
       style="fill:none;stroke:#0000e9;stroke-width:0.93800002;stroke-linecap:round;stroke-miterlimit:4;stroke-opacity:1;stroke-dasharray:none;stroke-dashoffset:0" />
    <path
       d="M 342.58541,207.2587 333.57,234.46035"
       inkscape:connector-curvature="0"
       id="path3036"
       style="fill:none;stroke:#0000e9;stroke-width:0.93800002;stroke-linecap:round;stroke-miterlimit:4;stroke-opacity:1;stroke-dasharray:none;stroke-dashoffset:0" />
    <path
       d="M 448.80816,318.18663 C 445.49879,318.6913 442.1735,321.36839 441.87688,324.85 441.61893,327.75241 442.31306,330.91738 444.70957,332.79706 448.46293,336.61961 453.84786,338.60494 459.14669,338.54769 461.9355,337.10749 464.16014,333.90408 463.1928,330.68216 461.98386,326.02653 458.23669,322.48486 454.31746,319.97268 452.6503,318.99761 450.78462,318.11142 448.80816,318.18663 z"
       inkscape:connector-curvature="0"
       id="path3038"
       style="fill:#bfb879;stroke:none" />
    <path
       d="M 419.50277,289.49693 C 417.27009,291.01591 415.59775,293.51632 415.4095,296.33227 412.23361,311.00182 414.42102,326.66819 420.64549,340.23729 425.79359,351.04471 433.96027,360.89866 444.87803,366.16674 450.16098,368.55405 456.06289,370.05162 461.86599,368.88992 471.15574,367.28022 478.03768,359.66371 482.37745,351.74986 484.74299,347.38312 486.63281,342.67539 487.92464,337.89645 483.60239,326.43853 477.31803,314.97737 466.70851,308.23343 456.91481,301.81609 444.95257,300.81811 433.92098,297.71181 432.13177,297.47347 430.3656,296.27703 428.59413,296.47349 427.91901,298.15346 429.16341,300.31181 428.69303,302.12627 427.93248,302.94716 427.19903,301.04253 426.81806,300.55246 424.4864,296.96621 422.13609,293.40608 420.15365,289.66209 420.00204,289.44717 419.74304,289.42565 419.50276,289.49693 z M 449.79375,317.66036 C 452.43241,318.59976 455.09281,319.71023 457.17106,321.66993 460.64115,324.68937 464.59652,329.06181 463.37515,334.04936 462.64574,336.0504 461.08958,338.06401 459.08118,338.81936 452.64143,338.95729 445.9137,335.81443 442.40073,330.30913 440.36325,326.15156 441.87983,320.2763 446.45184,318.6027 447.52412,318.14438 448.63428,317.77542 449.79375,317.66036 z"
       inkscape:connector-curvature="0"
       id="path3031"
       style="fill:#8a7294;stroke:none" />
    <path
       d="M 420.11481,222.43514 C 417.30838,224.28049 415.42305,227.28387 412.96931,229.54854 410.75957,232.17009 407.55529,234.46223 406.76656,237.95951 407.655,245.59122 411.3821,252.52307 413.88713,259.70861 416.6285,266.36573 418.59613,273.2702 419.15141,280.47315 419.62311,284.38516 419.6854,288.52409 421.92177,291.92565 423.46294,294.7419 425.12942,297.61405 427.25524,299.99872 428.76591,300.22166 428.12697,298.02659 427.95471,297.16197 427.99141,296.4598 427.2674,295.84415 427.18724,295.355 428.17244,292.78985 426.79044,289.98879 426.69362,287.35373 424.47795,271.95864 421.69766,256.56793 421.66394,240.96219 421.39401,234.9329 421.48654,228.85271 420.7657,222.86259 420.6873,222.58319 420.41254,222.36443 420.11481,222.43514 z"
       inkscape:connector-curvature="0"
       id="path3039"
       style="fill:#a7b0c5;stroke:none" />
    <path
       d="M 442.14426,168.61472 C 436.40367,168.94197 431.57747,172.58258 427.79292,176.63197 422.33433,181.9611 417.69307,188.09083 413.62794,194.50476 408.92306,201.14321 402.8204,206.87641 395.58086,210.61214 394.4728,211.69002 396.55097,212.54002 397.28096,213.07971 399.33247,214.49469 401.61472,212.41228 403.46229,211.56675 410.74459,206.56864 416.21815,199.46924 422.24161,193.06639 427.19961,187.88575 431.67815,181.91552 438.04214,178.40679 441.67215,176.854 446.086,175.72392 447.9829,171.84978 448.58104,171.1444 449.23127,169.67564 447.79832,169.50849 445.96128,169.01277 444.0649,168.5696 442.14426,168.61472 z"
       inkscape:connector-curvature="0"
       id="path3046"
       style="fill:#b46a9f;stroke:none" />
    <path
       d="M 538.71856,289.03466 C 537.812,291.85645 537.76223,294.92943 537.23168,297.85022 536.0053,305.93554 534.6017,314.0974 532.78335,321.9943 531.22389,321.83211 531.16743,323.77283 530.434,324.70087 529.45078,326.32104 528.46295,327.95804 527.74804,329.71557 527.88774,330.95147 529.57524,330.22031 530.39147,330.26862 534.48341,329.93452 538.68338,328.84753 541.74799,325.97172 545.13701,323.10216 546.40303,318.51592 546.1994,314.21808 546.33159,305.78655 543.29457,297.73727 540.07871,290.08568 539.82392,289.61476 539.47351,288.43986 538.71856,289.03466 z"
       inkscape:connector-curvature="0"
       id="path3045"
       style="fill:#c7afc8;stroke:none" />
    <path
       d="M 449.53929,170.15874 C 447.83789,172.53232 446.40705,175.57257 443.41174,176.59541 440.34989,177.71005 437.12684,178.77704 434.61197,180.96439 427.68146,186.82493 422.06448,194.03489 415.83088,200.61103 411.50619,205.07655 407.33792,210.02013 401.70793,212.9055 400.01326,213.88496 397.76668,214.25155 396.19798,212.8112 395.31526,212.15007 394.22989,210.91154 392.98994,211.68461 386.54767,214.26629 379.63723,215.61716 372.76626,216.55506 366.88098,216.60916 360.94008,216.36114 355.15985,215.29108 350.98193,214.53404 346.98753,212.59421 344.12064,209.37647 343.64795,208.82869 342.39579,207.88958 342.11476,209.1223 339.20723,217.5161 336.5044,225.9817 333.71341,234.41564 333.99115,235.57768 335.68463,235.73565 336.5505,236.46274 339.54782,238.33571 343.11244,238.77243 346.5799,238.66096 357.11414,238.64376 367.65065,238.44395 378.17939,238.20758 384.89648,238.56823 391.48795,240.69702 398.25194,240.46763 401.62387,240.22511 405.1433,238.86559 407.06545,235.92692 409.67475,231.99806 413.35441,228.9227 416.42165,225.3617 421.56115,219.73857 426.45438,213.66939 432.89112,209.5211 440.70608,204.24582 450.01585,201.11337 459.46558,200.72197 465.61771,200.53153 471.80717,200.77527 477.81667,202.10997 481.78768,202.89145 485.70787,203.86378 489.21705,205.97866 497.47027,210.33064 506.10887,214.05889 513.87174,219.17232 522.21383,224.77447 529.00575,232.70543 533.01004,241.96517 534.14636,243.75679 534.02686,246.03144 534.5093,248.04689 536.2164,261.42814 534.99162,274.99406 533.59716,288.34768 532.42938,299.65124 530.71686,310.9077 529.71957,322.22101 529.75557,323.3303 531.22521,323.04551 531.38198,322.14541 532.66831,318.65292 534.2546,315.24075 534.7298,311.51084 537.37379,297.15483 539.23365,282.62384 539.8795,268.03471 540.04126,259.39783 540.28911,250.73109 539.7215,242.10939 538.49681,229.99191 531.25759,219.32672 522.23301,211.50927 509.3878,200.10761 493.51282,192.93311 478.80393,184.33254 469.85308,179.53911 460.75516,174.95976 451.51083,170.76323 450.86413,170.5675 450.23675,170.07334 449.53929,170.15872 z"
       inkscape:connector-curvature="0"
       id="path3047"
       style="fill:#73a0a6;stroke:none" />
    <path
       d="M 462.03483,200.87894 C 449.58458,200.84574 437.21605,205.47042 427.8827,213.70181 425.11396,216.08191 422.47023,218.76885 420.30976,221.66591 419.92234,222.39671 420.99562,222.36591 421.15471,222.72381 421.86873,230.50925 421.80959,238.35525 422.06147,246.16891 422.24167,258.58253 424.69991,270.80039 426.3593,283.06856 427.03158,287.08447 427.36309,291.18025 428.1959,295.15534 429.16881,296.43714 431.07846,296.4848 432.48416,297.06208 443.07464,300.13938 454.40532,301.01096 464.18462,306.39517 469.61438,308.96363 473.86193,313.41486 477.7178,317.90011 482.07321,323.66268 485.16123,330.25494 487.91894,336.88041 488.6248,338.04464 490.40471,337.93088 491.23002,339.04429 494.26503,341.74364 496.90809,344.94225 500.11222,347.40442 502.74794,348.6144 505.55488,346.95736 508.09932,346.26775 509.71324,345.76804 511.32933,344.94553 513.01993,345.00011 513.13218,346.07006 514.32873,345.44838 514.6735,344.85071 517.98772,341.47804 521.61224,338.31136 524.40459,334.46058 526.23761,331.60889 528.37538,328.75111 529.2181,325.4359 530.00692,314.58379 531.6573,303.77708 532.8445,292.94936 534.58861,277.97251 536.09432,262.77877 534.25501,247.73795 533.96527,245.11629 533.08669,242.62039 531.96589,240.25466 528.63084,233.55401 524.0239,227.43367 518.15329,222.75601 509.97469,215.97254 499.97617,211.99697 490.66772,207.03675 487.8166,205.51115 484.95272,203.84773 481.7434,203.27641 475.31983,201.58163 468.68564,200.73225 462.03483,200.87894 z"
       inkscape:connector-curvature="0"
       id="path3049"
       style="fill:#d0cf6e;stroke:none" />
    <path
       d="M 536.5959,329.50949 C 533.60335,330.08693 530.59845,330.591 527.53509,330.63608 526.13554,331.91033 525.39057,333.86253 524.12509,335.30181 520.03421,340.64661 514.42315,344.64146 510.84619,350.39314 510.10993,351.56693 509.1499,352.64488 508.62348,353.9304 508.68058,355.0058 510.2291,354.49847 510.94535,354.79595 514.20886,355.16514 517.31606,357.50069 517.93846,360.84794 518.48719,362.362 517.97536,364.06613 518.5361,365.53291 519.43563,366.14979 520.28853,364.82523 521.10528,364.53684 527.21056,360.39615 533.37637,355.93075 537.4065,349.65073 540.12591,345.46667 540.66868,340.07462 538.99663,335.38107 538.38395,333.48541 537.92832,331.50792 537.0905,329.70183 536.94987,329.58411 536.79213,329.46491 536.5959,329.50949 z"
       inkscape:connector-curvature="0"
       id="path3051"
       style="fill:#c9ca98;stroke:none" />
  </g>
</svg>
