<?xml version="1.0" encoding="UTF-8" standalone="no"?>
<!-- Created with Inkscape (http://www.inkscape.org/) -->

<svg
   xmlns:dc="http://purl.org/dc/elements/1.1/"
   xmlns:cc="http://creativecommons.org/ns#"
   xmlns:rdf="http://www.w3.org/1999/02/22-rdf-syntax-ns#"
   xmlns:svg="http://www.w3.org/2000/svg"
   xmlns="http://www.w3.org/2000/svg"
   xmlns:xlink="http://www.w3.org/1999/xlink"
   xmlns:inkscape="http://www.inkscape.org/namespaces/inkscape"
   version="1.1"
   width="740"
   height="520"
   id="svg2"
   style="display:inline;enable-background:new">
  <defs
     id="defs4">
    <filter
       color-interpolation-filters="sRGB"
       id="filter3050">
      <feBlend
         in2="BackgroundImage"
         mode="lighten"
         id="feBlend3052" />
    </filter>
  </defs>
  <metadata
     id="metadata7">
    <rdf:RDF>
      <cc:Work
         rdf:about="">
        <dc:format>image/svg+xml</dc:format>
        <dc:type
           rdf:resource="http://purl.org/dc/dcmitype/StillImage" />
        <dc:title />
      </cc:Work>
    </rdf:RDF>
  </metadata>
  <g
     id="g2223"
     style="display:none">
    <image
       xlink:href="pngs/coronal-0693.png"
       id="image2225"
       height="520"
       width="740"
       y="0"
       x="0" />
  </g>
  <g
     id="g2231"
     style="display:inline">
    <path
       d="M 540.41758,326.6351 C 531.85509,335.8007 513.60034,348.2315 502.95081,360.28761 491.15675,371.15403 468.00965,387.04431 480.10763,404.97586 494.27468,418.3315 513.96323,423.6092 530.46955,433.57646 550.38172,441.81474 570.32832,454.27005 592.73473,451.82747 609.07069,452.46877 619.25771,431.21355 628.70638,419.27616 639.30362,402.53238 649.44256,385.28963 654.88901,366.05179 662.86677,346.8932 668.91385,326.5753 681.78803,309.88202 691.766,294.17607 695.033,275.76376 692.55422,257.4787 691.12324,234.82076 688.98824,212.07838 682.60908,190.23473 673.67955,172.23524 665.73434,153.12956 652.00505,138.17969 634.30147,116.8669 614.11302,96.755553 588.22907,85.712235 564.16477,73.170816 538.398,64.191251 512.53796,56.24704 489.52613,49.669541 465.7387,46.219282 442.69645,40.005395 421.01362,35.555551 397.52932,38.656776 378.76204,50.577177 364.5645,63.914409 371.25254,83.564255 368.19225,100.31734 360.17521,119.72579 381.10706,128.71084 393.00594,115.49013 403.91509,101.89748 420.59335,87.638591 437.45025,100.2101 464.7515,99.574391 492.37786,105.42244 516.16925,118.96991 541.35027,129.12061 559.33214,150.00876 575.88917,170.61672 587.08311,181.62635 600.48804,200.26535 604.45805,209.12396"
       inkscape:connector-curvature="0"
       id="path2985"
       style="fill:none;stroke:#e20000;stroke-opacity:1" />
    <path
       d="M 366.32699,148.19225 C 379.54688,150.58288 392.39376,139.30081 401.12309,130.84622 412.4119,123.72823 424.28028,116.25602 437.14367,111.87805 452.6861,106.72255 469.27844,108.61169 484.47473,113.93817 499.75279,117.90614 513.8303,125.56469 526.73903,134.5137 540.70745,145.68802 551.90946,159.59122 565.35051,171.48097 580.38605,187.95243 594.8294,205.1823 606.62015,224.09063 613.95775,239.79395 617.8978,256.87636 619.40519,274.10252 618.49695,291.34321 614.08413,308.06031 611.68961,325.11389 611.83549,336.55364 608.33388,347.61207 608.07865,359.01173 614.34033,358.12956 614.50632,340.97067 615.9799,333.46497 616.14076,322.65214 617.78289,311.92516 618.75834,301.14326 623.81439,287.97344 622.17526,273.26654 622.23023,259.44164 621.92442,243.6662 617.67032,228.44643 609.37821,215.11233 608.61546,213.38809 605.65389,209.24185 605.0798,209.12395"
       inkscape:connector-curvature="0"
       id="path2234"
       style="opacity:0.6;fill:none;stroke:#e20000;stroke-opacity:1" />
    <path
       d="M 417.93241,94.721569 381.24904,49.955416"
       inkscape:connector-curvature="0"
       id="path2236"
       style="opacity:0.6;fill:none;stroke:#e20000;stroke-opacity:1" />
    <path
       d="M 615.64958,323.52634 665.38975,338.44839"
       inkscape:connector-curvature="0"
       id="path2238"
       style="fill:none;stroke:#0000e9;stroke-width:0.99000001;stroke-miterlimit:4;stroke-opacity:1;stroke-dasharray:none;stroke-dashoffset:0" />
    <path
       d="M 620.6236,290.57348 688.39458,296.791"
       inkscape:connector-curvature="0"
       id="path2240"
       style="fill:none;stroke:#0000e9;stroke-width:0.99000001;stroke-miterlimit:4;stroke-opacity:1;stroke-dasharray:none;stroke-dashoffset:0" />
    <path
       d="M 622.48885,258.86412 C 650.71495,255.01423 669.3407,251.42068 692.74684,247.67258"
       inkscape:connector-curvature="0"
       id="path2242"
       style="fill:none;stroke:#0000e9;stroke-width:0.99000001;stroke-miterlimit:4;stroke-opacity:1;stroke-dasharray:none;stroke-dashoffset:0" />
    <path
       d="M 620.6236,238.3463 689.01633,214.71972"
       inkscape:connector-curvature="0"
       id="path2244"
       style="fill:none;stroke:#0000e9;stroke-width:0.99000001;stroke-miterlimit:4;stroke-opacity:1;stroke-dasharray:none;stroke-dashoffset:0" />
    <path
       d="M 610.67556,215.34147 678.44654,178.03635"
       inkscape:connector-curvature="0"
       id="path2246"
       style="fill:none;stroke:#0000e9;stroke-width:0.99000001;stroke-miterlimit:4;stroke-opacity:1;stroke-dasharray:none;stroke-dashoffset:0" />
    <path
       d="M 592.023,187.98438 659.17223,144.46174"
       inkscape:connector-curvature="0"
       id="path2248"
       style="fill:none;stroke:#0000e9;stroke-width:0.99000001;stroke-miterlimit:4;stroke-opacity:1;stroke-dasharray:none;stroke-dashoffset:0" />
    <path
       d="M 498.76019,108.40011 518.0345,55.551186"
       inkscape:connector-curvature="0"
       id="path2250"
       style="fill:none;stroke:#0000e9;stroke-width:0.99000001;stroke-miterlimit:4;stroke-opacity:1;stroke-dasharray:none;stroke-dashoffset:0" />
    <path
       d="M 480.10762,102.80434 497.51668,50.577169"
       inkscape:connector-curvature="0"
       id="path2252"
       style="fill:none;stroke:#0000e9;stroke-width:0.99000001;stroke-miterlimit:4;stroke-opacity:1;stroke-dasharray:none;stroke-dashoffset:0" />
    <path
       d="M 455.23754,99.073832 467.05083,45.603152"
       inkscape:connector-curvature="0"
       id="path2254"
       style="fill:none;stroke:#0000e9;stroke-width:0.99000001;stroke-miterlimit:4;stroke-opacity:1;stroke-dasharray:none;stroke-dashoffset:0" />
    <path
       d="M 429.7457,96.586824 440.93724,38.763879"
       inkscape:connector-curvature="0"
       id="path2256"
       style="fill:none;stroke:#0000e9;stroke-width:0.99000001;stroke-miterlimit:4;stroke-opacity:1;stroke-dasharray:none;stroke-dashoffset:0" />
    <path
       d="M 503.7342,419.27616 C 506.3665,417.42358 503.54251,416.09973 503.7342,419.27616 506.71199,414.5939 508.84546,409.54985 511.82751,404.89568 514.67087,400.63478 519.07654,396.84376 524.59882,397.49325 530.28158,398.54842 535.54599,400.67802 540.81651,402.81634 545.09529,404.35245 549.1473,406.80916 553.56689,407.75926 558.85052,408.4338 563.96723,409.60223 569.0693,411.08455 574.54875,411.63972 580.07405,411.97517 585.68717,411.85492 592.19931,412.96647 598.29117,411.54082 602.22703,405.9373 606.74654,402.69918 608.15867,396.74444 611.41864,392.41134 614.10827,384.58166 616.38846,376.58366 619.61739,368.96012 621.13619,362.8308 622.19313,356.63863 623.06664,350.39607 624.40159,344.87548 625.88113,339.42665 627.67432,334.1629 629.46512,331.94756 629.17418,328.80066 631.19338,326.6351"
       inkscape:connector-curvature="0"
       id="path2258"
       style="fill:none;stroke:#0000e9;stroke-width:0.99000001;stroke-miterlimit:4;stroke-opacity:1;stroke-dasharray:none;stroke-dashoffset:0" />
    <path
       d="M 588.91424,411.19338 603.83629,446.63325"
       inkscape:connector-curvature="0"
       id="path2260"
       style="fill:none;stroke:#0000e9;stroke-width:0.99000001;stroke-miterlimit:4;stroke-opacity:1;stroke-dasharray:none;stroke-dashoffset:0" />
    <path
       d="M 585.80548,412.43689 C 585.391,413.02608 583.51403,414.87932 585.19466,414.74596 586.10037,414.29855 586.33226,411.53601 585.04112,413.12128 584.08503,414.45285 582.76317,415.68882 582.59304,417.38397 581.39404,418.35204 581.38904,419.79593 580.78555,421.01475 579.71145,422.37362 579.65213,424.10056 578.91632,425.6078 578.01258,427.09463 578.75714,428.73192 577.77091,430.1477 577.31179,431.03255 578.45527,432.16857 577.07013,432.60931 576.8023,433.6299 577.72859,434.8873 576.70513,435.87775 575.91512,437.22772 577.15314,438.83516 575.90331,440.10505 575.64427,441.26464 576.11549,442.45836 575.17837,443.46414 575.30556,444.62376 575.79177,445.92994 574.74221,446.90925 574.43808,447.48327 574.8838,448.54296 573.96726,448.84823 574.81198,449.50054 572.01399,450.73484 573.37041,450.36377"
       inkscape:connector-curvature="0"
       id="path2262"
       style="fill:none;stroke:#0000e9;stroke-width:0.99000001;stroke-miterlimit:4;stroke-opacity:1;stroke-dasharray:none;stroke-dashoffset:0" />
    <path
       d="M 545.39159,406.21937 C 536.82509,414.71234 527.04426,423.12447 529.22604,432.33295"
       inkscape:connector-curvature="0"
       id="path2264"
       style="fill:none;stroke:#0000e9;stroke-width:0.99000001;stroke-miterlimit:4;stroke-opacity:1;stroke-dasharray:none;stroke-dashoffset:0" />
    <path
       d="M 523.93775,397.97092 C 530.97812,398.99901 537.79297,401.79948 544.12526,404.92677 544.18156,407.58117 540.73743,409.46119 539.3707,411.62059 534.54598,417.11105 528.07109,423.09604 528.81461,431.15694 525.93828,431.70189 522.29355,428.19602 519.14738,427.25749 514.35165,424.64617 508.82526,422.76993 504.4497,419.71282 507.8204,412.65191 511.25292,404.88903 517.38992,399.81675 519.2634,398.433 521.62082,397.81077 523.93775,397.97092 z"
       inkscape:connector-curvature="0"
       id="path2266"
       style="fill:#d764c6;stroke:none" />
    <path
       d="M 547.19516,406.0537 C 558.67067,409.6216 570.5785,411.79581 582.59617,412.44609 585.87517,412.55526 582.42081,416.06421 582.11696,417.58065 576.61289,427.04867 577.00145,438.4153 573.79449,448.58543 572.0765,451.52923 568.23117,448.42152 565.84116,448.07367 553.42785,443.63387 541.46692,438.05486 529.41694,432.73075 528.16419,423.74918 535.68351,416.72923 541.32754,410.65965 543.18663,409.22721 544.60631,406.19355 547.19516,406.0537 z"
       inkscape:connector-curvature="0"
       id="path2268"
       style="fill:#9eae8b;stroke:none" />
    <path
       d="M 588.0365,412.21293 C 592.07105,418.28664 594.30853,425.64527 597.39354,432.3115 599.4532,437.57039 602.08741,442.72231 604.12433,447.8471 597.74773,452.84767 588.62034,451.57706 580.92758,451.32912 578.93505,450.84492 573.99962,451.69101 574.82427,448.31341 577.73082,437.31187 577.22918,424.73041 584.50028,415.39941 586.2363,415.1305 586.10472,412.14104 588.0365,412.21293 z"
       inkscape:connector-curvature="0"
       id="path2270"
       style="fill:#bc94c3;stroke:none" />
    <path
       d="M 626.00224,291.47645 C 646.15362,293.266 666.39271,294.74303 686.4482,297.20823 688.28688,299.21531 685.00283,301.98526 684.52026,304.03089 678.71079,314.10092 672.05417,323.63352 667.23217,334.28019 666.37703,336.20405 664.72067,339.01255 662.2404,337.12258 651.92656,333.75954 641.17961,331.37458 631.24827,327.11062 629.13034,326.87371 626.37475,326.57804 624.16447,325.70369 621.56549,324.55393 615.75635,324.42342 617.01738,320.13735 618.24338,310.86243 618.72919,301.26697 621.78598,292.37022 622.52327,290.71316 624.65509,291.52989 626.00224,291.47645 z"
       inkscape:connector-curvature="0"
       id="path2272"
       style="fill:#9b7d71;stroke:none" />
    <path
       d="M 647.7247,333.52243 C 653.30657,335.54757 659.51142,336.46159 664.58972,339.54566 663.67424,344.60441 660.81907,349.47622 659.16876,354.43523 653.26498,369.19025 648.74071,384.55959 640.68568,398.36177 631.3561,414.80978 621.22826,431.13979 608.14629,444.85492 606.99775,446.19074 603.90587,448.34672 603.54369,445.21026 599.1657,434.41094 594.42191,423.73757 590.17377,412.89297 591.62296,411.37679 594.50239,412.63245 596.21643,411.12487 608.78202,404.0269 612.62017,388.8446 617.41518,376.16218 622.89182,361.15856 623.20745,344.61997 629.86871,329.93453 631.47493,326.57955 636.38941,331.09049 639.27535,330.98959 642.0918,331.83387 644.90825,332.67815 647.7247,333.52243 z"
       inkscape:connector-curvature="0"
       id="path2274"
       style="fill:#d5be93;stroke:none" />
    <path
       d="M 677.21906,179.94967 C 682.81739,190.46365 686.02768,202.33256 687.18653,214.14603 685.73337,216.3045 682.01192,216.11849 679.79744,217.43845 660.16382,224.37702 640.47254,231.32426 620.71734,237.81147 617.71931,234.94872 617.46101,229.96234 615.45188,226.34792 614.15201,222.77237 611.98155,219.53359 610.80817,215.93357 621.88335,208.94239 633.9496,203.08114 645.43689,196.59079 655.84987,191.00165 666.16296,185.20581 676.67503,179.81366 L 1417.2191,179.94967 z"
       inkscape:connector-curvature="0"
       id="path2280"
       style="fill:#9970bd;stroke:none" />
    <path
       d="M 657.53673,146.49164 C 663.62163,152.64758 667.12611,160.96615 671.429,168.42783 672.95514,171.81699 675.3027,175.14643 675.99499,178.76445 658.62474,188.80305 640.65402,198.31383 623.03255,208.11033 618.68084,210.11688 614.49078,213.47153 610.01155,214.69007 606.45701,210.27353 602.83302,205.88726 600.09957,200.83411 597.66994,196.62596 594.38082,192.86034 592.15561,188.55705 609.52582,176.67198 627.66602,165.50257 645.33743,153.90187 649.3465,151.49547 653.18818,148.4759 657.30357,146.43335 L 657.53673,146.49165 z"
       inkscape:connector-curvature="0"
       id="path2282"
       style="fill:#e19179;stroke:none" />
    <path
       d="M 518.18654,58.494286 C 544.28782,66.579379 569.96031,76.437508 594.17241,89.222288 619.52182,101.55451 638.96356,122.78767 656.46809,144.33493 657.61352,146.44205 653.38996,147.01518 652.39964,148.36601 632.25492,161.42534 612.26774,174.76504 591.84473,187.37183 588.7342,186.27132 587.31376,182.17292 584.79173,180.00796 567.62655,161.0319 552.65199,139.2794 530.23558,126.08293 519.91022,119.44899 508.34081,115.08657 497.53271,109.41967 496.10961,108.23201 498.09704,107.83973 498.81508,107.6127 505.45997,92.869595 510.14666,77.240982 515.9988,62.143158 516.76208,61.207014 516.53614,58.224269 518.18654,58.494286 z"
       inkscape:connector-curvature="0"
       id="path2284"
       style="fill:#7edfd0;stroke:none" />
    <path
       d="M 498.67907,53.073385 C 504.38203,54.833899 510.72409,55.627781 516.04927,58.027971 513.20167,69.063699 508.57527,79.876374 504.79574,90.732711 502.24293,96.595833 500.81913,103.17442 497.35784,108.5259 494.60888,110.06415 491.46631,107.05612 488.64315,106.80424 485.60913,105.30599 481.16844,105.87099 478.88015,103.27987 479.49017,102.38723 480.74203,102.18644 480.82088,100.6236 486.92814,85.247546 491.00674,69.07592 497.43556,53.850575 497.70584,53.445306 498.11445,52.924407 498.67907,53.073385 z"
       inkscape:connector-curvature="0"
       id="path2286"
       style="fill:#b7bfb2;stroke:none" />
    <path
       d="M 481.48374,49.187434 C 486.20107,50.291395 491.01135,51.148643 495.64803,52.529351 495.73103,56.217184 493.42556,60.059225 492.60669,63.778155 488.14608,76.873869 484.37541,90.342684 479.1716,103.16329 477.12274,105.1908 473.87986,102.39115 471.41912,102.63868 466.07949,101.29741 460.39552,101.52428 455.21471,99.78251 459.40704,82.276761 463.22865,64.280379 467.16401,46.564417 471.62522,46.348004 476.49719,48.454118 481.11206,49.106474 L 481.48374,49.187434 z"
       inkscape:connector-curvature="0"
       id="path2288"
       style="fill:#cd8d77;stroke:none" />
    <path
       d="M 442.35221,40.638343 C 450.12574,42.230907 458.33715,43.567059 465.72621,46.272971 465.05863,54.843854 462.50417,63.404555 460.88984,71.916653 458.87755,81.076408 456.729,90.742296 455.15642,99.704791 449.94891,100.71812 444.2856,99.812493 438.97144,99.491064 435.85091,98.921134 432.35423,97.469274 430.38349,95.02222 433.76097,76.970995 437.28261,58.922614 441.14757,40.968649 441.33199,40.446533 441.95075,40.612249 442.35221,40.638343 z"
       inkscape:connector-curvature="0"
       id="path2290"
       style="fill:#b08fc6;stroke:none" />
    <path
       d="M 425.75921,38.656508 C 430.38149,38.991551 435.30228,38.582438 439.70977,40.09431 439.79117,44.865247 438.02747,50.024917 437.41796,54.913546 434.84236,68.092066 432.75043,81.54895 429.64516,94.517047 425.99472,95.588004 421.63401,95.597665 417.9873,94.517047 406.96392,80.09048 394.60804,66.635967 383.94638,51.965889 382.22001,49.94731 383.57509,47.186499 386.15272,46.870084 398.48566,41.02716 412.11279,38.25109 425.75921,38.656508 z"
       inkscape:connector-curvature="0"
       id="path2292"
       style="fill:#cce198;stroke:none" />
    <path
       d="M 380.42959,50.489227 C 384.01713,52.861682 386.18727,57.276905 389.27986,60.33731 398.5942,71.775313 408.17575,83.045993 417.05468,94.808493 415.7111,97.4182 411.79721,97.742185 409.65647,99.695792 401.99173,104.18775 396.48002,111.33096 390.1639,117.42473 385.29533,121.52802 377.79212,123.00979 372.42453,119.07625 366.46565,115.18236 365.78943,106.94044 368.34429,100.81229 370.43692,87.676617 368.07567,73.769165 372.24967,60.961864 374.21064,57.214431 375.98769,52.430812 379.98271,50.489227 380.12685,50.464987 380.28714,50.450327 380.42959,50.489227 z"
       inkscape:connector-curvature="0"
       id="path2294"
       style="fill:#6d70b9;stroke:none" />
    <path
       d="M 691.1759,248.43244 C 692.29246,249.21488 691.70718,251.09217 692.03262,252.29824 692.71138,260.83223 693.76894,269.42283 692.61044,277.97128 691.91377,284.24489 690.47759,290.42446 688.34887,296.35593 686.57261,296.94807 684.38975,296.07761 682.46414,296.12416 662.43925,294.16896 642.36685,292.62595 622.38486,290.27442 621.21322,289.67418 622.39286,287.88094 622.12256,286.82564 622.70503,277.69156 622.41147,268.5339 622.45287,259.39082 623.66837,258.40842 625.73554,258.83843 627.27682,258.36889 648.08109,255.34425 668.77561,251.60577 689.57295,248.54902 690.10612,248.51522 690.64041,248.39043 691.1759,248.43244 z"
       inkscape:connector-curvature="0"
       id="path9008"
       style="fill:#c1dfbe;stroke:none" />
    <path
       d="M 687.89227,215.63502 C 688.98976,218.90176 688.94845,222.56301 689.5414,225.98159 690.25865,233.1287 691.38813,240.28525 691.53535,247.46096 690.23556,248.42807 688.16381,248.07368 686.59818,248.5741 665.33261,252.01669 644.07461,255.7718 622.74431,258.64278 621.74186,257.25228 622.50105,255.18988 622.06323,253.56337 621.70945,248.51116 620.48956,243.56277 619.82013,238.60099 620.55439,237.89969 621.92252,238.14419 622.88178,237.56027 644.48487,230.43732 665.90566,222.74921 687.47453,215.53787 L 687.77733,215.60827 687.89227,215.63497 z"
       inkscape:connector-curvature="0"
       id="path9010"
       style="fill:#768e99;stroke:none" />
  </g>
</svg>
