<?xml version="1.0" encoding="UTF-8" standalone="no"?>
<!-- Created with Inkscape (http://www.inkscape.org/) -->

<svg
   xmlns:dc="http://purl.org/dc/elements/1.1/"
   xmlns:cc="http://creativecommons.org/ns#"
   xmlns:rdf="http://www.w3.org/1999/02/22-rdf-syntax-ns#"
   xmlns:svg="http://www.w3.org/2000/svg"
   xmlns="http://www.w3.org/2000/svg"
   xmlns:xlink="http://www.w3.org/1999/xlink"
   xmlns:inkscape="http://www.inkscape.org/namespaces/inkscape"
   version="1.1"
   width="740"
   height="520"
   id="svg2"
   style="display:inline;enable-background:new">
  <defs
     id="defs4">
    <filter
       color-interpolation-filters="sRGB"
       id="filter3050">
      <feBlend
         in2="BackgroundImage"
         mode="lighten"
         id="feBlend3052" />
    </filter>
  </defs>
  <metadata
     id="metadata7">
    <rdf:RDF>
      <cc:Work
         rdf:about="">
        <dc:format>image/svg+xml</dc:format>
        <dc:type
           rdf:resource="http://purl.org/dc/dcmitype/StillImage" />
        <dc:title />
      </cc:Work>
    </rdf:RDF>
  </metadata>
  <g
     id="g3600"
     style="display:none">
    <image
       xlink:href="pngs/coronal-0565.png"
       id="image3602"
       height="520"
       width="740"
       y="0"
       x="0" />
  </g>
  <g
     id="g3608"
     style="display:inline">
    <path
       d="M 583.94022,237.1028 C 586.37635,242.45164 580.92464,230.25948 578.96621,229.02002 577.37338,225.70271 573.14609,220.85957 571.50518,217.82848 569.08896,214.09263 567.09105,211.67437 564.66591,209.12395 562.29632,206.14996 558.38535,200.64277 555.96138,199.17592 553.64194,196.03614 550.47046,193.83112 545.39159,189.84964 542.98269,189.14265 536.5868,183.68023 535.48364,184.7214 530.81288,180.95864 526.25177,179.60415 520.52151,176.79284 516.10642,174.40295 512.73982,174.36701 511.19523,172.44058 505.11333,170.5418 501.51326,169.39971 495.65143,166.84481 489.23846,165.0752 480.90625,162.69472 474.51186,161.24904 468.32368,158.58263 462.43173,156.88683 455.85929,155.03152 450.65328,152.52391 446.09245,150.77536 442.18075,148.814 437.13404,146.36302 428.02633,145.81365 422.28468,148.19225 419.7386,150.72236 418.14803,155.7067 416.68891,160.00554 414.92684,161.81601 411.65728,163.42141 409.84964,164.97955 405.47403,166.34125 403.38585,169.91822 399.27985,171.19708 396.19904,173.226 392.51003,174.19221 389.33182,176.17109 382.01942,176.09749 377.45236,175.63624 374.23832,171.73915 371.23332,168.31759 368.09433,163.89376 369.53616,156.31007 369.10346,143.95129 368.96749,133.06008 369.43575,121.45691 368.16481,99.909991 366.53309,89.17185 371.92276,77.312509 374.48268,75.286608 376.88888,72.645061 381.24904,70.473236 384.25206,67.229024 391.2376,66.686263 395.86022,65.499219 405.56648,62.628764 419.05534,63.36483 429.7457,64.877467 438.35894,64.633958 445.66583,67.620485 454.30491,67.986227 463.28918,68.742633 471.6969,70.408976 480.10762,72.960244 489.99431,73.849596 498.64744,76.688437 508.08647,77.934261 515.05185,80.193306 517.294,81.210939 523.63027,82.908278 530.29093,85.160989 533.63779,88.156699 540.41758,89.747551 547.47562,92.219679 554.72076,95.37493 561.55715,97.208576 568.88389,100.19383 576.18672,102.17605 582.69672,107.15661 588.1808,110.24904 597.23479,114.98551 603.8121,119.63705 608.57815,123.2092 609.02963,124.84794 613.78432,130.16144 617.30784,134.65565 621.89088,139.81012 624.97586,144.46174 627.73905,149.45241 631.25615,154.10484 634.30214,159.38379 637.24786,164.80525 638.38454,166.24934 641.14142,171.81883 644.12544,178.89525 647.26265,185.77159 651.08945,192.33665 654.34261,200.09616 657.01518,207.26681 658.55048,215.34147 661.28344,221.76591 662.27615,228.98089 664.768,235.23754 666.91116,246.22078 669.45693,256.97301 668.39748,268.89905 669.90216,277.33577 666.9056,285.31338 664.14624,293.06049 661.22574,296.56233 660.77715,301.03698 657.92872,305.49553 656.26041,309.28269 653.78705,315.90941 651.7112,318.55232 649.71223,323.29771 645.47406,327.43017 643.00667,332.23087 638.99513,337.22676 637.86963,340.09863 634.30214,345.28766 632.11573,349.81432 630.05985,351.25259 625.59761,356.4792 623.18392,358.33959 620.83087,363.53952 619.38009,365.80548 616.23181,369.61799 614.40609,373.14515 611.29732,376.37527 608.28969,380.55565 606.48195,382.595 603.83629,385.70155 602.11661,388.08374 599.13451,390.90381 596.99702,392.54082 595.39956,395.08091 592.95191,396.28227 590.7795,398.75834 585.70928,402.137 582.14832,403.70852 578.45113,405.44675 575.79274,408.71044 567.22853,409.56944 563.8251,411.22425 560.00735,414.15293 545.84758,417.9977 542.07484,419.41408 535.86877,422.41923 545.40991,429.4773 539.17407,432.33295 534.44615,433.70949 529.90679,436.9294 524.87378,437.92872 521.05909,439.86799 513.96984,443.28638 510.4686,442.26704 504.10935,444.19865 489.95984,443.76363 480.4185,442.28094 473.59576,441.68579 468.25811,438.96642 462.07681,436.06342 457.79207,433.94079 453.98219,430.13515 451.68409,427.36165 444.62188,423.26697 437.2861,421.35481 429.7457,419.89786 419.41986,418.78991 409.13822,420.12155 399.9016,416.16735 393.4711,414.61869 387.84385,412.16753 381.87079,409.94983 379.83217,407.95614 375.21955,406.38231 373.78802,403.73231 370.82633,401.22728 367.84379,390.20636 369.43575,391.91902 369.34045,388.95435 369.07825,380.41637 368.91833,375.36151 368.46905,360.98461 368.01978,346.60772 367.5705,332.23082"
       inkscape:connector-curvature="0"
       id="path3610"
       style="fill:none;stroke:#e20000;stroke-opacity:1" />
    <path
       d="M 368.814,191.09314 C 375.5872,189.74872 390.5687,185.64525 400.51693,181.90931 413.02469,178.24102 424.54916,170.95468 437.43885,169.00951 451.63381,169.1674 464.81157,172.51906 478.81749,174.44573 491.47066,175.85474 504.45033,177.52093 516.24175,182.38935 531.40937,188.67073 546.24384,197.14259 557.20488,209.12395 569.07004,219.7985 576.30126,234.12748 584.30276,247.65913 587.27966,253.33415 591.95374,267.91432 593.07724,269.15731 590.72204,259.21845 587.82054,246.12321 585.18373,238.3463"
       inkscape:connector-curvature="0"
       id="path3612"
       style="opacity:0.6;fill:none;stroke:#e20000;stroke-opacity:1" />
    <path
       d="M 406.11913,181.76686 C 406.94813,182.38861 407.87339,182.89938 408.60613,183.63212 408.75268,183.77867 408.51343,184.0685 408.60613,184.25387 408.97918,184.99997 410.09834,185.37302 410.47139,186.11913 410.56409,186.3045 410.32484,186.59433 410.47139,186.74088 410.61794,186.88743 410.90777,186.64818 411.09314,186.74088 412.46787,187.42824 411.28609,187.12676 411.71489,187.98438 413.00869,190.57196 411.67199,187.31971 412.9584,188.60613 414.24483,189.89256 410.99257,188.55583 413.58015,189.84964 413.76552,189.94234 414.05535,189.70309 414.2019,189.84964 414.34845,189.99619 414.1092,190.28602 414.2019,190.47139 414.46406,190.9957 415.18325,191.19059 415.44541,191.71489 415.53811,191.90026 415.29886,192.1901 415.44541,192.33665 415.59196,192.48319 415.92061,192.1901 416.06716,192.33665 416.21371,192.48319 415.97446,192.77303 416.06716,192.9584 416.40107,193.62622 416.97675,193.53408 417.31066,194.2019 417.40336,194.38727 417.21796,194.63828 417.31066,194.82365 417.57282,195.34796 418.29201,195.54285 418.55417,196.06716 418.64687,196.25253 418.46147,196.50354 418.55417,196.68891 418.68524,196.95106 419.04484,197.04851 419.17592,197.31066 419.26862,197.49603 419.02937,197.78587 419.17592,197.93242 419.32247,198.07896 419.65112,197.78587 419.79767,197.93242 419.94422,198.07896 419.70497,198.3688 419.79767,198.55417 419.92875,198.81632 420.28835,198.91377 420.41942,199.17592 420.60479,199.54666 420.23405,200.04868 420.41942,200.41942 420.5505,200.68158 420.9101,200.77902 421.04118,201.04118 421.22655,201.41192 420.74808,201.99158 421.04118,202.28468 421.18772,202.43123 421.51638,202.13813 421.66293,202.28468 421.95602,202.57778 421.47756,203.15744 421.66293,203.52818 422.02506,204.25245 422.5443,204.66918 422.90643,205.39344 423.15513,205.89084 422.65773,206.76129 422.90643,207.2587 423.03751,207.52085 423.39711,207.61829 423.52818,207.88045 423.77688,208.37785 423.27948,209.2483 423.52818,209.7457 423.65926,210.00786 424.01886,210.1053 424.14994,210.36746 424.39864,210.86486 423.90124,211.73531 424.14994,212.23271 424.28101,212.49487 424.64061,212.59231 424.77169,212.85447 424.95706,213.22521 424.58632,213.72723 424.77169,214.09797 424.90277,214.36012 425.26236,214.45757 425.39344,214.71972 425.57881,215.09046 425.20807,215.59248 425.39344,215.96323 425.52452,216.22538 425.88412,216.32282 426.01519,216.58498 426.31356,217.18171 425.81616,218.47489 426.01519,219.07199 426.10789,219.35004 426.50587,219.43158 426.63694,219.69374 426.82232,220.06448 426.45157,220.5665 426.63694,220.93724 426.76802,221.1994 427.12762,221.29684 427.2587,221.55899 427.5074,222.0564 427.01,222.92685 427.2587,223.42425 427.38977,223.6864 427.74937,223.78385 427.88045,224.046 428.53963,225.36437 427.22127,228.94516 427.88045,230.26352 428.01153,230.52568 428.37112,230.62312 428.5022,230.88528 428.79666,231.47419 428.5022,237.24889 428.5022,238.3463 428.5022,238.7642 428.31873,239.84462 428.5022,240.21156 428.63328,240.47371 428.99288,240.57116 429.12395,240.83331 429.78313,242.15167 428.46477,245.73247 429.12395,247.05083 429.25503,247.31298 429.61463,247.41043 429.7457,247.67258 430.16021,248.50159 429.3312,249.95234 429.7457,250.78134 429.87678,251.0435 430.23638,251.14094 430.36746,251.4031 430.64551,251.95921 430.17084,252.67851 430.36746,253.26835 430.46016,253.54641 430.85813,253.62795 430.98921,253.8901 431.65241,255.21651 430.32601,257.53772 430.98921,258.86412 431.12029,259.12627 431.47988,259.22372 431.61096,259.48587 432.19126,260.64648 431.03066,262.67753 431.61096,263.83814 432.17783,264.97188 432.23271,264.25542 432.23271,265.70339 432.23271,266.6038 431.83869,268.64586 432.23271,269.43391 432.36379,269.69606 432.72339,269.7935 432.85447,270.05566 433.26897,270.88466 432.43996,272.33542 432.85447,273.16442 432.98554,273.42657 433.34514,273.52402 433.47622,273.78617 433.66159,274.15691 433.18312,274.73658 433.47622,275.02967 434.3684,275.92186 434.02002,274.48587 434.09797,274.40792 434.24452,274.26137 434.57317,274.55447 434.71972,274.40792 434.96198,274.16566 434.71972,272.30033 434.71972,271.92091 434.71972,270.4628 434.57317,272.21401 435.34147,270.67741 435.93436,269.49163 434.74859,266.26742 435.34147,265.08164 435.47255,264.81949 435.83215,264.72204 435.96323,264.45989 436.30766,263.77103 435.96323,257.03759 435.96323,255.75536 435.96323,254.59842 436.37441,250.36021 435.96323,249.53784 435.83215,249.27569 435.47255,249.17824 435.34147,248.91609 434.74859,247.73031 435.93436,244.5061 435.34147,243.32032 435.2104,243.05816 434.8508,242.96072 434.71972,242.69857 434.43474,242.1286 434.71972,239.14986 434.71972,238.3463 434.71972,234.61579 434.71972,230.88528 434.71972,227.15476 434.71972,225.70679 434.77462,226.42325 435.34147,225.28951 435.60342,224.76562 435.07193,221.82854 435.34147,221.55899 435.48802,221.41245 435.81668,221.70554 435.96323,221.55899 436.25064,221.27158 435.77553,220.06914 435.96323,219.69374 436.0943,219.43158 436.4539,219.33414 436.58498,219.07199 436.77035,218.70125 436.29188,218.12158 436.58498,217.82848 436.73153,217.68193 437.06018,217.97503 437.20673,217.82848 437.35328,217.68193 437.11403,217.3921 437.20673,217.20673 437.33781,216.94458 437.69741,216.84713 437.82848,216.58498 438.01385,216.21424 437.64311,215.71222 437.82848,215.34147 437.95956,215.07932 438.31916,214.98188 438.45023,214.71972 438.6356,214.34898 438.15714,213.76931 438.45023,213.47622 438.59678,213.32967 438.92544,213.62277 439.07199,213.47622 439.21853,213.32967 438.97929,213.03984 439.07199,212.85447 439.20306,212.59231 439.56266,212.49487 439.69374,212.23271 439.78644,212.04734 439.60104,211.79633 439.69374,211.61096 439.82482,211.34881 440.18441,211.25136 440.31549,210.98921 440.40819,210.80384 440.22279,210.55283 440.31549,210.36746 440.57764,209.84315 441.29684,209.64826 441.55899,209.12395 441.65169,208.93858 441.46629,208.68757 441.55899,208.5022 441.69007,208.24005 442.04967,208.1426 442.18075,207.88045 442.27345,207.69508 442.08805,207.44407 442.18075,207.2587 442.31182,206.99654 442.67142,206.8991 442.8025,206.63694 442.8952,206.45157 442.7098,206.20056 442.8025,206.01519 442.93358,205.75304 443.29317,205.65559 443.42425,205.39344 443.51695,205.20807 443.2777,204.91824 443.42425,204.77169 443.5708,204.62514 443.89945,204.91824 444.046,204.77169 444.19255,204.62514 443.9533,204.33531 444.046,204.14994 446.1081,202.08784 443.75291,204.73613 444.66776,202.90643 445.02989,202.18217 445.54913,201.76544 445.91126,201.04118 446.09663,200.67043 445.61816,200.09077 445.91126,199.79767 446.05781,199.65112 446.38646,199.94422 446.53301,199.79767 446.82043,199.51026 446.34531,198.30781 446.53301,197.93242 446.66409,197.67026 447.02369,197.57282 447.15476,197.31066 447.34013,196.93992 446.96939,196.4379 447.15476,196.06716 447.28584,195.80501 447.64544,195.70756 447.77652,195.44541 448.02522,194.94801 447.52781,194.07755 447.77652,193.58015 447.90759,193.318 448.26719,193.22055 448.39827,192.9584 448.58364,192.58766 448.10517,192.00799 448.39827,191.71489 448.54482,191.56835 448.87347,191.86144 449.02002,191.71489 449.31312,191.4218 448.72692,190.76449 449.02002,190.47139 449.16657,190.32484 449.49522,190.61794 449.64177,190.47139 449.78832,190.32484 449.54907,190.03501 449.64177,189.84964 449.77285,189.58748 450.13245,189.49004 450.26352,189.22789 450.35622,189.04252 450.11698,188.75268 450.26352,188.60613 450.41007,188.45959 450.73873,188.75268 450.88528,188.60613 451.17837,188.31304 450.69991,187.73337 450.88528,187.36263 451.01635,187.10048 451.37595,187.00303 451.50703,186.74088 451.59973,186.55551 451.41433,186.3045 451.50703,186.11913 451.76918,185.59482 452.48838,185.39993 452.75053,184.87562 452.84323,184.69025 452.60398,184.40042 452.75053,184.25387 452.89708,184.10732 453.22574,184.40042 453.37228,184.25387 453.78697,183.83918 452.9576,183.42505 453.37228,183.01036 453.51883,182.86382 453.84749,183.15691 453.99404,183.01036 454.14058,182.86382 453.84749,182.53516 453.99404,182.38861 454.14058,182.24206 454.46924,182.53516 454.61579,182.38861 454.76234,182.24206 454.46924,181.91341 454.61579,181.76686 454.76234,181.62031 455.09099,181.91341 455.23754,181.76686 455.38409,181.62031 455.09099,181.29166 455.23754,181.14511 455.38409,180.99856 455.71274,181.29166 455.85929,181.14511 456.00584,180.99856 455.71274,180.6699 455.85929,180.52336 456.00584,180.37681 456.3345,180.6699 456.48105,180.52336 456.62759,180.37681 456.3345,180.04815 456.48105,179.9016 456.62759,179.75506 456.95625,180.04815 457.1028,179.9016 457.24935,179.75506 457.0101,179.46522 457.1028,179.27985 457.46493,178.55559 457.98417,178.13886 458.3463,177.4146 458.534,177.0392 458.05889,175.83675 458.3463,175.54934 458.49285,175.40279 458.16204,171.51926 458.3086,171.37271"
       inkscape:connector-curvature="0"
       id="path3614"
       style="opacity:0.6;fill:none;stroke:#e20000;stroke-opacity:1" />
    <path
       d="M 371.30101,200.41942 C 371.92276,201.24843 372.33726,203.52818 373.16626,202.90643 373.99527,202.28468 371.30101,199.38317 371.30101,200.41942 371.92276,201.45568 372.54451,202.49193 373.16626,203.52818 373.37352,203.52818 373.64147,203.38164 373.78802,203.52818 374.07543,203.8156 373.60032,205.01804 373.78802,205.39344 374.15015,206.1177 374.66939,206.53443 375.03152,207.2587 375.12422,207.44407 374.88497,207.7339 375.03152,207.88045 375.17807,208.027 375.50672,207.7339 375.65327,207.88045 375.79982,208.027 375.56057,208.31683 375.65327,208.5022 375.78435,208.76435 376.14395,208.8618 376.27502,209.12395 376.36772,209.30932 376.12848,209.59916 376.27502,209.7457 376.42157,209.89225 376.75023,209.59916 376.89678,209.7457 377.18987,210.0388 376.60368,210.69611 376.89678,210.98921 377.04333,211.13576 377.37198,210.84266 377.51853,210.98921 377.66508,211.13576 377.42583,211.42559 377.51853,211.61096 377.64961,211.87311 378.0092,211.97056 378.14028,212.23271 378.23298,212.41808 377.99373,212.70792 378.14028,212.85447 378.28683,213.00101 378.61548,212.70792 378.76203,212.85447 378.90858,213.00101 378.61548,213.32967 378.76203,213.47622 378.90858,213.62277 379.23724,213.32967 379.38379,213.47622 379.53033,213.62277 379.29109,213.9126 379.38379,214.09797 379.64594,214.62228 380.21279,214.92697 380.62729,215.34147 381.13173,215.84591 381.85906,216.88999 382.49255,217.20673 382.67792,217.29943 382.96775,217.06018 383.1143,217.20673 383.26085,217.35328 382.96775,217.68193 383.1143,217.82848 383.26085,217.97503 383.5895,217.68193 383.73605,217.82848 383.8826,217.97503 383.5895,218.30369 383.73605,218.45023 383.8826,218.59678 384.21125,218.30369 384.3578,218.45023 384.50435,218.59678 384.21125,218.92544 384.3578,219.07199 384.50435,219.21853 384.83301,218.92544 384.97955,219.07199 385.1261,219.21853 384.97955,219.48649 384.97955,219.69374 385.1868,219.69374 385.45476,219.54719 385.60131,219.69374 385.74785,219.84029 385.45476,220.16894 385.60131,220.31549 386.88773,221.60192 385.55101,218.34966 386.84481,220.93724 386.93751,221.12261 386.69826,221.41245 386.84481,221.55899 386.99136,221.70554 387.32001,221.41245 387.46656,221.55899 387.61311,221.70554 387.37386,221.99538 387.46656,222.18075 388.76035,224.76833 387.42366,221.51607 388.71007,222.8025 388.85662,222.94905 388.56352,223.2777 388.71007,223.42425 388.85662,223.5708 389.18527,223.2777 389.33182,223.42425 389.47837,223.5708 389.18527,223.89945 389.33182,224.046 389.47837,224.19255 389.80702,223.89945 389.95357,224.046 390.10012,224.19255 389.80702,224.52121 389.95357,224.66776 390.10012,224.8143 390.42877,224.52121 390.57532,224.66776 390.72187,224.8143 390.42877,225.14296 390.57532,225.28951 390.72187,225.43606 391.05053,225.14296 391.19708,225.28951 391.34362,225.43606 391.05053,225.76471 391.19708,225.91126 391.34362,226.05781 391.67228,225.76471 391.81883,225.91126 391.96538,226.05781 391.67228,226.38646 391.81883,226.53301 391.96538,226.67956 392.29403,226.38646 392.44058,226.53301 392.58713,226.67956 392.29403,227.00822 392.44058,227.15476 392.58713,227.30131 392.85508,227.15476 393.06233,227.15476 393.06233,227.36201 392.96963,227.59115 393.06233,227.77652 394.35612,230.3641 393.01943,227.11184 394.30584,228.39827 394.45238,228.54482 394.15929,228.87347 394.30584,229.02002 394.45238,229.16657 394.78104,228.87347 394.92759,229.02002 395.07414,229.16657 394.83489,229.4564 394.92759,229.64177 395.18974,230.16608 395.64678,230.62312 396.17109,230.88528 396.35646,230.97798 396.6463,230.73873 396.79284,230.88528 396.93939,231.03182 396.70014,231.32166 396.79284,231.50703 397.0754,232.07214 400.58,235.57674 401.14511,235.85929 401.33048,235.95199 401.62031,235.71274 401.76686,235.85929 401.91341,236.00584 401.62031,236.3345 401.76686,236.48105 401.91341,236.62759 402.24206,236.3345 402.38861,236.48105 403.67504,237.76747 400.42278,236.43075 403.01036,237.72455 404.66837,237.72455 402.80311,237.5173 403.63212,238.3463 403.77867,238.49285 404.10732,238.19975 404.25387,238.3463 404.40042,238.49285 404.10732,238.82151 404.25387,238.96805 404.40042,239.1146 404.72907,238.82151 404.87562,238.96805 405.02217,239.1146 404.72907,239.44326 404.87562,239.58981 405.02217,239.73635 405.312,239.49711 405.49737,239.58981 406.83303,240.25763 405.40527,240.16548 406.74088,240.83331 406.92625,240.92601 407.17726,240.74061 407.36263,240.83331 407.88694,241.09546 408.08183,241.81466 408.60613,242.07681 408.7915,242.16951 409.04252,241.98411 409.22789,242.07681 409.97399,242.44987 410.34704,243.56902 411.09314,243.94207 411.27851,244.03477 411.56835,243.79552 411.71489,243.94207 411.86144,244.08862 411.56835,244.41727 411.71489,244.56382 411.86144,244.71037 412.1901,244.41727 412.33665,244.56382 413.62307,245.85025 410.37082,244.51352 412.9584,245.80733 413.14377,245.90003 413.4336,245.66078 413.58015,245.80733 414.86658,247.09375 411.61432,245.75703 414.2019,247.05083 414.38727,247.14353 414.67711,246.90428 414.82365,247.05083 414.9702,247.19738 414.67711,247.52603 414.82365,247.67258 414.9702,247.81913 415.29886,247.52603 415.44541,247.67258 415.59196,247.81913 415.29886,248.14779 415.44541,248.29433 415.59196,248.44088 415.88179,248.20163 416.06716,248.29433 416.70064,248.61108 417.42797,249.65515 417.93242,250.15959 418.13967,250.36684 418.42309,250.51919 418.55417,250.78134 418.64687,250.96671 418.40762,251.25655 418.55417,251.4031 418.70072,251.54964 419.02937,251.25655 419.17592,251.4031 419.32247,251.54964 419.02937,251.8783 419.17592,252.02485 419.32247,252.1714 419.65112,251.8783 419.79767,252.02485 419.94422,252.1714 419.70497,252.46123 419.79767,252.6466 420.05983,253.17091 420.77902,253.3658 421.04118,253.8901 421.13388,254.07547 420.89463,254.36531 421.04118,254.51186 421.18772,254.6584 421.51638,254.36531 421.66293,254.51186 421.95602,254.80495 421.36983,255.46226 421.66293,255.75536 421.80948,255.90191 422.13813,255.60881 422.28468,255.75536 422.69937,256.17005 421.86999,256.58418 422.28468,256.99886 422.43123,257.14541 422.75988,256.85232 422.90643,256.99886 423.05298,257.14541 422.81373,257.43525 422.90643,257.62062 423.03751,257.88277 423.39711,257.98021 423.52818,258.24237 423.71355,258.61311 423.23509,259.19278 423.52818,259.48587 423.67473,259.63242 424.00339,259.33932 424.14994,259.48587 424.46081,259.79675 423.83906,261.04025 424.14994,261.35113 424.29648,261.49768 424.62514,261.20458 424.77169,261.35113 424.95303,261.53247 424.95303,264.9003 424.77169,265.08164 424.62514,265.22819 424.29648,264.93509 424.14994,265.08164 423.83906,265.39252 424.46081,266.63602 424.14994,266.9469 424.00339,267.09345 423.67473,266.80035 423.52818,266.9469 423.38164,267.09345 423.67473,267.4221 423.52818,267.56865 423.38164,267.7152 423.05298,267.4221 422.90643,267.56865 422.75988,267.7152 423.05298,268.04385 422.90643,268.1904 422.61334,268.4835 421.95602,267.89731 421.66293,268.1904 421.51638,268.33695 421.80948,268.66561 421.66293,268.81215 421.35205,269.12303 420.10855,268.50128 419.79767,268.81215 419.65112,268.9587 419.94422,269.28736 419.79767,269.43391 419.38298,269.84859 418.96885,269.01922 418.55417,269.43391 418.40762,269.58045 418.70072,269.90911 418.55417,270.05566 418.26107,270.34875 417.60376,269.76256 417.31066,270.05566 417.16411,270.20221 417.31066,270.47016 417.31066,270.67741 417.10341,270.67741 416.83546,270.53086 416.68891,270.67741 416.54236,270.82396 416.83546,271.15261 416.68891,271.29916 416.41936,271.56871 413.48229,271.03722 412.9584,271.29916 412.69624,271.43024 412.5988,271.78984 412.33665,271.92091 411.9659,272.10629 411.46388,271.73554 411.09314,271.92091 410.83099,272.05199 410.73354,272.41159 410.47139,272.54267 409.97399,272.79137 409.10354,272.29397 408.60613,272.54267 408.34398,272.67374 408.24654,273.03334 407.98438,273.16442 407.36535,273.47393 403.95382,272.84272 403.63212,273.16442 403.48557,273.31097 403.77867,273.63962 403.63212,273.78617 403.21743,274.20086 402.8033,273.37148 402.38861,273.78617 402.24206,273.93272 402.53516,274.26137 402.38861,274.40792 402.14635,274.65018 400.28102,274.40792 399.9016,274.40792 399.1548,274.40792 397.44661,274.08104 396.79284,274.40792 396.53069,274.539 396.43325,274.8986 396.17109,275.02967 395.98572,275.12237 395.69589,274.88313 395.54934,275.02967 395.40279,275.17622 395.69589,275.50488 395.54934,275.65143 395.40279,275.79798 395.07414,275.50488 394.92759,275.65143 394.78104,275.79798 394.92759,276.06593 394.92759,276.27318 394.92759,277.07674 394.6426,280.05547 394.92759,280.62544 395.05866,280.8876 395.41826,280.98504 395.54934,281.2472 395.79804,281.7446 395.30064,282.61505 395.54934,283.11245 395.68042,283.37461 396.04002,283.47205 396.17109,283.7342 396.42927,284.25056 396.17109,285.63177 396.17109,286.22121 396.17109,286.47723 396.00651,287.92189 396.17109,288.08647 396.31764,288.23302 396.6463,287.93992 396.79284,288.08647 397.11454,288.40817 396.48333,291.8197 396.79284,292.43873 396.92392,292.70089 397.28352,292.79833 397.4146,293.06049 397.68396,293.59922 397.4146,298.89502 397.4146,299.89976 397.4146,300.3866 397.72484,302.69828 397.4146,303.00852 397.26805,303.15507 396.93939,302.86197 396.79284,303.00852 396.6463,303.15507 396.93939,303.48372 396.79284,303.63027 396.6463,303.77682 396.31764,303.48372 396.17109,303.63027 396.02454,303.77682 396.31764,304.10547 396.17109,304.25202 395.878,304.54512 395.22068,303.95893 394.92759,304.25202 394.78104,304.39857 395.07414,304.72723 394.92759,304.87378 394.53629,305.26508 389.72312,304.48247 389.33182,304.87378 389.18527,305.02032 389.47837,305.34898 389.33182,305.49553 389.18527,305.64208 388.91732,305.49553 388.71007,305.49553 388.50282,305.49553 388.23486,305.64208 388.08831,305.49553 387.94177,305.34898 388.23486,305.02032 388.08831,304.87378 387.8009,304.58636 386.59846,305.06147 386.22306,304.87378 385.4988,304.51164 385.08206,303.9924 384.3578,303.63027 383.9824,303.44257 382.77996,303.91768 382.49255,303.63027 382.346,303.48372 382.63909,303.15507 382.49255,303.00852 382.346,302.86197 382.05616,303.10122 381.87079,303.00852 381.34649,302.74637 381.1516,302.02717 380.62729,301.76501 380.44192,301.67231 380.15209,301.91156 380.00554,301.76501 379.85899,301.61847 380.15209,301.28981 380.00554,301.14326 379.85899,300.99671 379.53033,301.28981 379.38379,301.14326 379.09069,300.85017 379.67688,300.19286 379.38379,299.89976 379.23724,299.75321 378.90858,300.04631 378.76203,299.89976 378.61548,299.75321 378.90858,299.42455 378.76203,299.27801 378.61548,299.13146 378.28683,299.42455 378.14028,299.27801 377.99373,299.13146 378.23298,298.84163 378.14028,298.65625 378.0092,298.3941 377.64961,298.29666 377.51853,298.0345 377.42583,297.84913 377.66508,297.5593 377.51853,297.41275 377.37198,297.2662 377.04333,297.5593 376.89678,297.41275 376.75023,297.2662 376.98948,296.97637 376.89678,296.791 376.53465,296.06674 376.0154,295.65 375.65327,294.92574 375.39444,294.40808 376.04766,292.83312 375.65327,292.43873 375.50672,292.29219 375.17807,292.58528 375.03152,292.43873 374.73842,292.14564 375.21689,291.56597 375.03152,291.19523 374.66939,290.47097 374.15015,290.05423 373.78802,289.32997 373.60265,288.95923 373.97339,288.45721 373.78802,288.08647 373.65694,287.82432 373.29734,287.72687 373.16626,287.46472 373.07356,287.27935 373.31281,286.98951 373.16626,286.84296 373.01972,286.69642 372.69106,286.98951 372.54451,286.84296 372.25142,286.54987 372.83761,285.89256 372.54451,285.59946 372.39796,285.45291 372.06931,285.74601 371.92276,285.59946 371.63535,285.31205 372.11046,284.1096 371.92276,283.7342 371.79168,283.47205 371.43208,283.37461 371.30101,283.11245 371.03906,282.58856 371.57056,279.65149 371.30101,279.38194 371.15446,279.23539 370.8258,279.52849 370.67926,279.38194 370.39184,279.09453 370.86695,277.89208 370.67926,277.51668 368.61716,275.45459 370.97235,278.10288 370.0575,276.27318 369.92643,276.01103 369.56683,275.91358 369.43575,275.65143 369.25038,275.28069 369.85025,274.40792 369.43575,274.40792 368.43575,274.40792 369.5575,275.02967 370.0575,275.02967"
       inkscape:connector-curvature="0"
       id="path3616"
       style="opacity:0.6;fill:none;stroke:#e20000;stroke-opacity:1" />
    <path
       d="M 370.0575,306.11728 C 371.47168,306.71297 376.84093,305.4676 378.14028,306.11728 378.40243,306.24836 378.48398,306.64635 378.76203,306.73903 379.78395,307.07967 381.52699,306.25625 382.49255,306.73903 383.62629,307.3059 382.90983,307.36078 384.3578,307.36078 385.73228,307.36078 392.94539,306.99144 393.68408,307.36078 393.94624,307.49186 394.04368,307.85146 394.30584,307.98254 394.67658,308.16791 395.1786,307.79717 395.54934,307.98254 395.81149,308.11361 395.90894,308.47321 396.17109,308.60429 396.66849,308.85299 397.53895,308.35559 398.03635,308.60429 398.2985,308.73536 398.39595,309.09496 398.6581,309.22604 399.3213,309.55764 400.48191,308.89444 401.14511,309.22604 401.40726,309.35712 401.50471,309.71672 401.76686,309.84779 402.1376,310.03316 402.71727,309.5547 403.01036,309.84779 403.15691,309.99434 402.86382,310.323 403.01036,310.46954 403.40475,310.86393 404.97971,310.21071 405.49737,310.46954 405.75953,310.60062 405.85697,310.96022 406.11913,311.0913 406.48987,311.27667 406.99189,310.90593 407.36263,311.0913 407.62478,311.22237 407.72223,311.58197 407.98438,311.71305 408.64788,312.0448 408.56439,311.3813 409.22789,311.71305 409.49004,311.84413 409.58748,312.20372 409.84964,312.3348 410.22038,312.52017 410.80005,312.0417 411.09314,312.3348 411.23969,312.48135 410.94659,312.81 411.09314,312.95655 411.40402,313.26743 412.64752,312.64568 412.9584,312.95655 413.10495,313.1031 412.81185,313.43176 412.9584,313.5783 413.37309,313.99299 413.78722,313.16362 414.2019,313.5783 414.34845,313.72485 414.05535,314.05351 414.2019,314.20006 414.495,314.49315 415.15231,313.90696 415.44541,314.20006 415.59196,314.34661 415.29886,314.67526 415.44541,314.82181 415.7385,315.11491 416.31817,314.63644 416.68891,314.82181 416.95106,314.95289 417.04851,315.31248 417.31066,315.44356 417.49603,315.53626 417.74704,315.35086 417.93242,315.44356 418.26633,315.61052 418.84201,316.52011 419.17592,316.68707 419.36129,316.77977 419.6123,316.59437 419.79767,316.68707 420.32198,316.94922 420.51687,317.66842 421.04118,317.93057 421.22655,318.02327 421.45568,317.93057 421.66293,317.93057 421.87018,318.13782 422.02253,318.42124 422.28468,318.55232 422.65542,318.73769 423.23509,318.25922 423.52818,318.55232 423.67473,318.69887 423.38164,319.02753 423.52818,319.17407 423.67473,319.32062 423.96457,319.08137 424.14994,319.17407 424.41209,319.30515 424.50953,319.66475 424.77169,319.79583 424.95706,319.88853 425.24689,319.64928 425.39344,319.79583 425.53999,319.94237 425.24689,320.27103 425.39344,320.41758 425.68654,320.71067 426.34385,320.12448 426.63694,320.41758 426.78349,320.56413 426.4904,320.89278 426.63694,321.03933 426.78349,321.18588 427.07333,320.94663 427.2587,321.03933 427.52085,321.17041 427.61829,321.53001 427.88045,321.66108 428.06582,321.75378 428.35565,321.51453 428.5022,321.66108 428.64875,321.80763 428.35565,322.13629 428.5022,322.28283 428.81308,322.59371 430.05658,321.97196 430.36746,322.28283 430.51401,322.42938 430.22091,322.75804 430.36746,322.90459 430.67833,323.21546 431.92184,322.59371 432.23271,322.90459 432.37926,323.05113 432.08616,323.37979 432.23271,323.52634 432.52013,323.81375 433.72257,323.33864 434.09797,323.52634 434.36012,323.65742 434.45757,324.01701 434.71972,324.14809 435.37349,324.47498 437.08168,324.14809 437.82848,324.14809 440.93724,324.14809 444.046,324.14809 447.15476,324.14809 447.95832,324.14809 450.93706,323.86311 451.50703,324.14809 451.76918,324.27917 451.86663,324.63877 452.12878,324.76984 453.12358,325.26724 454.86449,324.27244 455.85929,324.76984 456.12145,324.90092 456.21889,325.26052 456.48105,325.39159 456.85179,325.57697 457.35381,325.20622 457.72455,325.39159 457.9867,325.52267 458.08415,325.88227 458.3463,326.01335 458.99861,326.3395 460.9588,325.51709 461.45506,326.01335 461.60161,326.15989 461.30851,326.48855 461.45506,326.6351 461.72461,326.90465 464.66169,326.37316 465.18557,326.6351 465.44773,326.76618 465.54517,327.12577 465.80733,327.25685 466.18272,327.44455 467.38517,326.96944 467.67258,327.25685 467.81913,327.4034 467.52603,327.73205 467.67258,327.8786 467.96568,328.1717 468.54535,327.69323 468.91609,327.8786 469.17824,328.00968 469.27569,328.36928 469.53784,328.50035 469.90858,328.68573 470.48825,328.20726 470.78134,328.50035 470.92789,328.6469 470.63479,328.97556 470.78134,329.12211 470.92789,329.26866 471.21772,329.02941 471.4031,329.12211 472.12736,329.48424 472.54409,330.00348 473.26835,330.36561 473.63909,330.55098 474.21876,330.07251 474.51186,330.36561 474.6584,330.51216 474.36531,330.84081 474.51186,330.98736 474.6584,331.13391 474.94824,330.89466 475.13361,330.98736 475.39576,331.11844 475.49321,331.47804 475.75536,331.60912 475.94073,331.70182 476.19174,331.51642 476.37711,331.60912 478.70438,332.77275 475.29334,331.68902 477.62062,332.85262 477.99136,333.03799 478.49338,332.66725 478.86412,332.85262 479.38843,333.11477 479.58332,333.83397 480.10762,334.09612 480.293,334.18882 480.58283,333.94958 480.72938,334.09612 480.87593,334.24267 480.58283,334.57133 480.72938,334.71788 481.14406,335.13256 481.55819,334.30319 481.97288,334.71788 482.11943,334.86442 481.82633,335.19308 481.97288,335.33963 482.11943,335.48618 482.40926,335.24693 482.59463,335.33963 482.85679,335.4707 482.95423,335.8303 483.21639,335.96138 483.58713,336.14675 484.16679,335.66828 484.45989,335.96138 484.60644,336.10793 484.31334,336.43658 484.45989,336.58313 484.60644,336.72968 484.89627,336.49043 485.08164,336.58313 485.3438,336.71421 485.44124,337.07381 485.70339,337.20488 485.88876,337.29758 486.1786,337.05834 486.32515,337.20488 486.47169,337.35143 486.1786,337.68009 486.32515,337.82664 486.47169,337.97318 486.76153,337.73394 486.9469,337.82664 487.20905,337.95771 487.3065,338.31731 487.56865,338.44839 487.75402,338.54109 488.04385,338.30184 488.1904,338.44839 488.33695,338.59494 488.04385,338.92359 488.1904,339.07014 488.33695,339.21669 488.66561,338.92359 488.81215,339.07014 488.9587,339.21669 488.66561,339.54534 488.81215,339.69189 488.9587,339.83844 489.24854,339.59919 489.43391,339.69189 489.69606,339.82297 489.7935,340.18257 490.05566,340.31364 490.24103,340.40634 490.53086,340.1671 490.67741,340.31364 490.82396,340.46019 490.53086,340.78885 490.67741,340.9354 490.82396,341.08195 491.11379,340.8427 491.29916,340.9354 491.56132,341.06647 491.65876,341.42607 491.92091,341.55715 492.10629,341.64985 492.39612,341.4106 492.54267,341.55715 492.68921,341.7037 492.39612,342.03235 492.54267,342.1789 492.83576,342.472 493.49307,341.8858 493.78617,342.1789 493.93272,342.32545 493.63962,342.6541 493.78617,342.80065 493.93272,342.9472 494.22255,342.70795 494.40792,342.80065 494.67008,342.93173 494.76752,343.29133 495.02967,343.42241 495.21505,343.51511 495.46606,343.32971 495.65143,343.42241 496.17573,343.68456 496.37062,344.40376 496.89493,344.66591 497.0803,344.75861 497.37013,344.51936 497.51668,344.66591 497.66323,344.81246 497.37013,345.14111 497.51668,345.28766 497.66323,345.43421 497.95306,345.19496 498.13844,345.28766 498.8627,345.64979 499.27943,346.16903 500.00369,346.53117 500.18906,346.62387 500.4789,346.38462 500.62544,346.53117 500.77199,346.67771 500.4789,347.00637 500.62544,347.15292 500.77199,347.29947 501.06183,347.06022 501.2472,347.15292 501.50935,347.28399 501.60679,347.64359 501.86895,347.77467 502.23969,347.96004 502.74171,347.5893 503.11245,347.77467 503.37461,347.90575 503.47205,348.26535 503.7342,348.39642 504.39741,348.72802 505.55801,348.06482 506.22121,348.39642 506.48337,348.5275 506.58081,348.8871 506.84296,349.01817 507.21836,349.20587 508.42081,348.73076 508.70822,349.01817 508.85477,349.16472 508.56167,349.49338 508.70822,349.63993 509.12272,350.05443 510.78073,349.22542 511.19523,349.63993 511.34178,349.78647 511.04868,350.11513 511.19523,350.26168 512.85757,351.92402 510.7764,348.59934 512.43873,350.26168 512.58528,350.40823 512.29219,350.73688 512.43873,350.88343 512.73183,351.17653 513.38914,350.59033 513.68224,350.88343 513.82879,351.02998 513.53569,351.35863 513.68224,351.50518 514.92899,352.75194 513.67924,350.25843 514.92574,351.50518 515.07229,351.65173 514.77919,351.98039 514.92574,352.12693 515.07229,352.27348 515.40095,351.98039 515.54749,352.12693 515.64439,352.22383 515.64439,354.51705 515.54749,354.61394 515.2544,354.90704 514.59709,354.32085 514.30399,354.61394 514.15744,354.76049 514.45054,355.08915 514.30399,355.2357 513.78151,355.75817 508.45682,354.73965 507.46472,355.2357 507.20256,355.36677 507.10512,355.72637 506.84296,355.85745 505.80163,356.37812 504.54203,354.42787 503.7342,355.2357 503.58766,355.38224 503.88075,355.7109 503.7342,355.85745 503.672,355.91965 501.93112,355.91965 501.86895,355.85745 501.7224,355.7109 502.0155,355.38224 501.86895,355.2357 501.37269,354.73944 499.41249,355.56185 498.76019,355.2357 498.49803,355.10462 498.40059,354.74502 498.13844,354.61394 497.64103,354.36524 496.77058,354.86264 496.27318,354.61394 496.01103,354.48287 495.91358,354.12327 495.65143,353.99219 495.28069,353.80682 494.77866,354.17756 494.40792,353.99219 493.68366,353.63006 493.26693,353.11082 492.54267,352.74869 492.3573,352.65599 492.10629,352.84139 491.92091,352.74869 491.65876,352.61761 491.56132,352.25801 491.29916,352.12693 490.92842,351.94156 490.4264,352.31231 490.05566,352.12693 489.7935,351.99586 489.69606,351.63626 489.43391,351.50518 489.24854,351.41248 488.99752,351.59788 488.81215,351.50518 488.55,351.37411 488.45256,351.01451 488.1904,350.88343 488.00503,350.79073 487.75402,350.97613 487.56865,350.88343 487.3065,350.75235 487.20905,350.39276 486.9469,350.26168 486.76153,350.16898 486.51052,350.35438 486.32515,350.26168 486.06299,350.1306 485.96555,349.771 485.70339,349.63993 485.51802,349.54723 485.26701,349.73263 485.08164,349.63993 484.55733,349.37777 484.36244,348.65858 483.83814,348.39642 483.65277,348.30372 483.40176,348.48912 483.21639,348.39642 481.15429,346.33433 483.80258,348.68952 481.97288,347.77467 481.44857,347.51252 481.25368,346.79332 480.72938,346.53117 480.54401,346.43847 480.293,346.62387 480.10762,346.53117 479.84547,346.40009 479.74803,346.04049 479.48587,345.90941 479.3005,345.81671 479.04949,346.00211 478.86412,345.90941 478.60197,345.77834 478.50452,345.41874 478.24237,345.28766 478.057,345.19496 477.80599,345.38036 477.62062,345.28766 477.35846,345.15658 477.26102,344.79699 476.99886,344.66591 476.81349,344.57321 476.52366,344.81246 476.37711,344.66591 476.23056,344.51936 476.52366,344.19071 476.37711,344.04416 476.23056,343.89761 475.94073,344.13686 475.75536,344.04416 475.49321,343.91308 475.39576,343.55348 475.13361,343.42241 474.94824,343.32971 474.69723,343.51511 474.51186,343.42241 474.2497,343.29133 474.15226,342.93173 473.8901,342.80065 473.70473,342.70795 473.45372,342.89335 473.26835,342.80065 473.0062,342.66958 472.90875,342.30998 472.6466,342.1789 472.16134,341.93627 470.64485,341.79978 470.15959,341.55715 469.89744,341.42607 469.79999,341.06647 469.53784,340.9354 469.35247,340.8427 469.10146,341.0281 468.91609,340.9354 468.65393,340.80432 468.55649,340.44472 468.29433,340.31364 468.10896,340.22094 467.85795,340.40634 467.67258,340.31364 466.94832,339.95151 466.53159,339.43227 465.80733,339.07014 465.62196,338.97744 465.33212,339.21669 465.18557,339.07014 465.03903,338.92359 465.33212,338.59494 465.18557,338.44839 464.89248,338.15529 464.31281,338.63376 463.94207,338.44839 463.67992,338.31731 463.58247,337.95771 463.32032,337.82664 462.94958,337.64127 462.44756,338.01201 462.07681,337.82664 461.81466,337.69556 461.71722,337.33596 461.45506,337.20488 460.79156,336.87313 460.87506,337.53663 460.21156,337.20488 459.9494,337.07381 459.85196,336.71421 459.58981,336.58313 459.0924,336.33443 458.22195,336.83183 457.72455,336.58313 457.4624,336.45206 457.36495,336.09246 457.1028,335.96138 456.73206,335.77601 456.23003,336.14675 455.85929,335.96138 455.59714,335.8303 455.49969,335.4707 455.23754,335.33963 454.74014,335.09093 453.86969,335.58833 453.37228,335.33963 453.11013,335.20855 453.01269,334.84895 452.75053,334.71788 451.92816,334.30669 447.68995,334.71788 446.53301,334.71788 445.94357,334.71788 444.56236,334.97605 444.046,334.71788 443.78385,334.5868 443.6864,334.2272 443.42425,334.09612 442.63621,333.7021 440.59415,334.09612 439.69374,334.09612 438.79333,334.09612 436.75127,334.49015 435.96323,334.09612 435.70107,333.96505 435.60363,333.60545 435.34147,333.47437 434.18087,332.89407 432.14981,334.05467 430.98921,333.47437 430.72706,333.34329 430.62961,332.9837 430.36746,332.85262 430.06675,332.70227 424.25062,332.81902 424.14994,332.85262 421.40539,333.76747 426.40886,333.47437 422.28468,333.47437 412.33665,333.47437 402.38861,333.47437 392.44058,333.47437 389.12457,333.47437 385.80856,333.47437 382.49255,333.47437 381.32111,333.47437 379.2242,333.83568 378.14028,333.47437 377.70064,333.32782 377.33642,332.99917 376.89678,332.85262 375.73532,332.46547 369.83187,332.85262 368.19225,332.85262 367.77775,332.85262 367.36324,332.85262 366.94874,332.85262 366.74149,332.85262 366.32699,332.64537 366.32699,332.85262 366.32699,333.05987 366.8022,332.70607 366.94874,332.85262 367.09529,332.99917 366.94874,333.26712 366.94874,333.47437 366.94874,333.68162 367.15599,334.09612 366.94874,334.09612 366.65565,334.09612 366.53424,333.68162 366.32699,333.47437"
       inkscape:connector-curvature="0"
       id="path3618"
       style="opacity:0.6;fill:none;stroke:#e20000;stroke-opacity:1" />
    <path
       d="M 420.7524,149.05859 370.0575,124.09478"
       inkscape:connector-curvature="0"
       id="path3620"
       style="opacity:0.6;fill:none;stroke:#e20000;stroke-opacity:1" />
    <path
       d="M 424.37623,147.78385 374.07679,75.962328"
       inkscape:connector-curvature="0"
       id="path3622"
       style="opacity:0.6;fill:none;stroke:#e20000;stroke-opacity:1" />
    <path
       d="M 427.95588,146.94874 424.04326,64.331146"
       inkscape:connector-curvature="0"
       id="path3624"
       style="opacity:0.6;fill:none;stroke:#e20000;stroke-opacity:1" />
    <path
       d="M 583.04669,232.47209 659.1053,215.32593"
       inkscape:connector-curvature="0"
       id="path3626"
       style="opacity:0.6;fill:none;stroke:#e20000;stroke-opacity:1" />
    <path
       d="M 479.33364,161.24958 501.75554,74.639491"
       inkscape:connector-curvature="0"
       id="path3628"
       style="fill:none;stroke:#0000e9;stroke-width:1;stroke-miterlimit:4;stroke-opacity:1;stroke-dasharray:none;stroke-dashoffset:0" />
    <path
       d="M 513.14312,172.68035 547.87508,90.906361"
       inkscape:connector-curvature="0"
       id="path3630"
       style="fill:none;stroke:#0000e9;stroke-width:1;stroke-miterlimit:4;stroke-opacity:1;stroke-dasharray:none;stroke-dashoffset:0" />
    <path
       d="M 593.15853,269.84193 C 600.79308,305.3241 593.67854,345.45922 557.54727,358.65024"
       inkscape:connector-curvature="0"
       id="path3632"
       style="fill:none;stroke:#0000e9;stroke-width:1;stroke-miterlimit:4;stroke-opacity:1;stroke-dasharray:none;stroke-dashoffset:0" />
    <path
       d="M 451.15315,152.45668 468.29931,68.484459"
       inkscape:connector-curvature="0"
       id="path3634"
       style="fill:none;stroke:#0000e9;stroke-width:1;stroke-miterlimit:4;stroke-opacity:1;stroke-dasharray:none;stroke-dashoffset:0" />
    <path
       d="M 594.91711,271.16086 669.65678,271.60051"
       inkscape:connector-curvature="0"
       id="path3636"
       style="fill:none;stroke:#0000e9;stroke-width:1;stroke-miterlimit:4;stroke-opacity:1;stroke-dasharray:none;stroke-dashoffset:0" />
    <path
       d="M 590.52066,324.79757 638.00233,340.18515"
       inkscape:connector-curvature="0"
       id="path3638"
       style="fill:none;stroke:#0000e9;stroke-width:1;stroke-miterlimit:4;stroke-opacity:1;stroke-dasharray:none;stroke-dashoffset:0" />
    <path
       d="M 450.71351,427.23488 C 452.79506,427.11361 451.95268,425.04577 450.8381,427.02129 453.25766,424.06301 456.53939,422.29123 460.23215,421.61386 464.41909,420.16475 468.52468,418.23725 472.92958,417.61268 477.18953,417.51318 481.25379,415.86763 485.55058,416.23207 490.65888,416.56998 495.63987,414.802 500.75877,415.36544 505.17696,415.36944 509.61719,415.62934 513.95656,414.64584 519.10202,414.00102 524.32956,414.84126 529.36502,415.89738 532.38136,417.9906 535.44568,420.01325 538.10802,422.54313 540.15515,424.80736 542.66058,427.14505 544.03441,429.72394 542.87725,429.01421 541.97635,427.96741 540.84076,427.2348"
       inkscape:connector-curvature="0"
       id="path3640"
       style="fill:none;stroke:#0000e9;stroke-width:1;stroke-miterlimit:4;stroke-opacity:1;stroke-dasharray:none;stroke-dashoffset:0" />
    <path
       d="M 597.11533,272.04015 C 618.89867,278.80657 613.6467,317.16274 593.14027,324.09752 M 602.81246,329.81291 C 600.82499,334.48499 599.06801,338.15039 596.86163,342.5112 585.92029,363.73897 560.20755,369.43638 544.4884,385.98985 534.29777,392.01776 528.09307,404.1705 529.44892,415.96977 L 528.97035,413.60588"
       inkscape:connector-curvature="0"
       id="path3642"
       style="fill:none;stroke:#0000e9;stroke-width:1;stroke-miterlimit:4;stroke-opacity:1;stroke-dasharray:none;stroke-dashoffset:0" />
    <path
       d="M 429.1709,392.94256 C 432.54893,392.95806 435.96406,390.36323 439.19481,392.3507 442.03159,393.38585 444.97513,393.88554 447.93114,394.39065 451.25388,395.0138 454.3308,396.65135 457.13285,398.55515 460.29879,400.07506 460.97486,403.74699 461.37306,406.89343 461.13991,410.8244 465.16311,417.43359 462.30498,420.42073 459.53875,421.72318 454.20174,422.86902 451.20578,421.31036 446.69059,420.19573 439.81514,418.38049 435.27362,417.53209 431.63863,416.46114 427.59962,417.04897 424.29401,414.886 421.42191,413.39909 418.62719,411.27848 418.38296,407.76628 417.25014,404.04844 420.18265,400.96849 422.64894,398.58674 424.95648,396.846 426.55607,394.25901 429.1709,392.94256 z"
       inkscape:connector-curvature="0"
       id="path3644"
       style="fill:none;stroke:#0000e9;stroke-width:1;stroke-miterlimit:4;stroke-opacity:1;stroke-dasharray:none;stroke-dashoffset:0" />
    <path
       d="M 459.94606,399.97688 C 486.87759,394.58535 509.17013,397.54401 530.28928,402.61475"
       inkscape:connector-curvature="0"
       id="path3646"
       style="fill:none;stroke:#0000e9;stroke-width:1;stroke-miterlimit:4;stroke-opacity:1;stroke-dasharray:none;stroke-dashoffset:0" />
    <path
       d="M 436.91843,391.9831 C 441.53131,393.33382 446.30263,394.13992 450.87716,395.63765 455.20177,397.46122 460.31827,399.97698 460.86535,405.25488 461.18762,409.73682 463.36558,414.08216 462.89871,418.58163 461.53066,421.44234 457.5628,421.68819 454.75153,421.59045 446.07332,420.2518 437.68191,417.50935 428.99108,416.1361 423.77863,415.32598 417.73313,411.28296 418.53577,405.33732 419.95487,400.54533 424.38385,397.53342 427.89197,394.29123 430.43913,392.49692 433.87697,392.19649 436.91843,391.9831 z"
       inkscape:connector-curvature="0"
       id="path3648"
       style="fill:#a4a7da;stroke:none" />
    <path
       d="M 489.7308,397.54735 C 503.13693,397.52715 516.53491,399.45954 529.47747,402.79562 531.35205,403.79493 529.30693,406.16155 529.60112,407.72789 529.11972,410.23316 529.10504,412.94405 528.88669,415.38046 527.2104,415.71348 525.35496,414.50503 523.54226,414.66604 514.48909,413.93929 505.41806,415.28996 496.35548,415.40342 485.62873,416.14795 474.53941,415.99924 464.35503,419.81813 462.87491,418.8842 463.75989,416.05345 463.08334,414.37047 461.97938,409.84566 461.5214,405.10984 460.06849,400.74852 461.33859,399.3471 464.20277,399.84816 466.05424,399.24376 473.89586,397.94519 481.77863,397.28894 489.7308,397.54735 z"
       inkscape:connector-curvature="0"
       id="path3650"
       style="fill:#aac7db;stroke:none" />
    <path
       d="M 519.81901,414.95455 C 525.03441,414.76216 530.34713,416.14629 534.23113,419.74943 537.52132,422.25596 542.02043,425.78221 540.71589,430.47952 539.14279,432.75555 535.86577,433.02006 533.58245,434.34403 527.04608,436.61811 520.88442,440.00568 514.22728,441.81412 508.26215,442.49344 502.30247,443.48857 496.25693,443.09964 485.48553,443.00374 474.35712,442.10875 464.68739,436.96525 459.89759,434.82557 455.46128,431.57949 452.47088,427.25088 451.80023,424.74086 455.36212,423.94144 456.9852,423.04392 466.86774,418.8436 477.43655,416.5305 488.1774,416.2316 498.71623,415.6953 509.26289,414.95116 519.81901,414.95455 z"
       inkscape:connector-curvature="0"
       id="path3652"
       style="fill:#c7a1db;stroke:none" />
    <path
       d="M 429.08725,64.900864 C 440.53433,65.99938 451.85465,68.145683 463.29187,69.365186 464.73997,69.66841 468.21571,69.555185 467.34467,71.98127 461.89116,98.593857 456.52985,125.28037 450.98707,151.84069 449.18871,152.62494 446.88726,150.24565 444.92533,149.8064 440.09879,147.403 434.75058,146.30358 429.34829,146.41382 427.06234,145.64503 428.39365,142.37766 427.85068,140.59031 426.5365,115.45711 425.62371,90.303169 424.20994,65.175642 425.03414,64.018841 427.74736,65.135252 429.08725,64.900864 z"
       inkscape:connector-curvature="0"
       id="path3664"
       style="fill:#dbc198;stroke:none" />
    <path
       d="M 414.08436,63.856707 C 417.35712,64.052299 420.75195,63.929587 423.93516,64.502436 424.93247,91.83039 426.66751,119.17646 427.53475,146.52373 426.08316,147.92326 423.83172,146.17304 422.9597,144.73767 408.48775,125.26398 394.93425,105.11862 380.93767,85.300743 378.96958,82.120904 376.23312,79.22671 374.73612,75.850775 376.03151,73.418932 379.16954,72.46716 381.23049,70.717366 387.15809,66.645042 394.62396,66.165775 401.46883,64.676328 405.63807,64.02183 409.86521,63.762878 414.08436,63.856707 z"
       inkscape:connector-curvature="0"
       id="path3666"
       style="fill:#b1daa9;stroke:none" />
    <path
       d="M 468.92806,70.574563 C 475.98912,71.955714 482.97574,73.735944 490.1394,74.763266 493.53939,75.459753 497.00612,75.97646 500.30773,77.031851 500.7135,79.382108 499.15524,81.905578 498.89718,84.306072 492.37315,110.08596 485.59439,135.8651 479.08112,161.60858 476.96696,162.60405 474.6275,160.47015 472.5414,160.11104 465.69509,157.34001 458.24399,156.10608 451.68573,152.66455 451.56514,148.99376 453.11307,145.11209 453.62879,141.36087 458.52536,117.82698 463.11506,94.184156 468.24112,70.725691 468.42076,70.548817 468.69501,70.543114 468.92806,70.574563 z"
       inkscape:connector-curvature="0"
       id="path6063"
       style="fill:#d7ab8f;stroke:none" />
    <path
       d="M 502.49222,77.224196 C 510.68275,78.521058 518.46368,81.654574 526.26403,84.370976 532.5849,87.218605 539.05605,89.591518 545.54553,92.028601 548.23544,93.211396 544.47148,96.639693 544.28143,98.729239 533.84375,123.26283 523.41738,147.80123 512.98875,172.33867 510.75857,172.72112 508.21167,170.96106 505.8818,170.43813 497.86366,167.29864 489.59055,164.91604 481.30682,162.62526 479.58463,162.43268 479.18361,160.78111 480.08967,159.4127 487.22915,132.08547 494.06049,104.6461 501.39311,77.389063 501.69338,77.131238 502.13146,77.219671 502.49222,77.224196 z"
       inkscape:connector-curvature="0"
       id="path6065"
       style="fill:#736cd4;stroke:none" />
    <path
       d="M 548.39392,93.353676 C 558.05603,96.120986 567.64285,99.515645 576.72864,103.80627 585.02966,108.86585 593.74506,113.39398 601.90697,118.77066 609.88561,124.5427 615.44051,132.87933 621.64012,140.41326 631.12469,153.70485 639.29761,167.98173 645.92794,182.92754 650.977,192.67391 655.61793,202.8121 657.93425,213.58288 658.53794,216.07235 655.06668,215.54222 653.57509,216.20307 629.77726,221.72598 605.85219,227.27052 582.05425,232.43266 579.2282,229.35219 577.2984,225.38333 574.68268,222.02637 567.89663,211.91785 560.0678,202.33483 551.25161,194.18354 546.13175,189.73078 540.25658,186.28343 534.17415,183.46719 527.61252,179.40666 520.18535,176.63381 513.33222,173.28665 521.0714,153.9722 529.56832,134.89384 537.65418,115.68169 540.96947,108.27023 543.83174,100.55114 547.45967,93.339937 547.76004,93.254907 548.09287,93.300507 548.39392,93.353677 z"
       inkscape:connector-curvature="0"
       id="path6067"
       style="fill:#bf9784;stroke:none" />
    <path
       d="M 657.72817,215.90475 C 659.81526,217.36672 659.77218,220.58128 660.73125,222.78159 663.98029,233.25168 666.84647,243.87234 667.78255,254.83582 668.30473,260.2544 668.76798,265.86523 667.78505,271.20387 643.82627,271.21737 619.80815,271.27447 595.83476,270.74592 594.42293,270.93658 593.03462,270.5303 593.17854,268.81118 590.66196,258.78362 588.88026,248.43324 585.31037,238.75256 584.03418,237.09336 582.95585,235.12026 582.34277,233.14709 591.53354,230.46871 601.16659,228.80106 610.50132,226.50955 626.26056,222.99198 641.98334,219.38786 657.72817,215.90475 z"
       inkscape:connector-curvature="0"
       id="path6069"
       style="fill:#e19179;stroke:none" />
    <path
       d="M 594.98256,271.36873 C 596.96371,271.33913 598.03347,273.05756 599.90109,273.48453 608.78148,278.32482 611.97708,289.42292 610.57623,298.9702 609.25058,309.45435 603.02641,320.23432 592.71564,323.9338 590.94488,323.52523 592.91212,321.00139 592.79804,319.85335 596.81289,305.96667 596.36445,291.23012 594.70775,276.98795 594.84163,275.1623 593.26799,273.12171 594.15819,271.50612 594.39182,271.32275 594.70441,271.3441 594.98252,271.36873 z"
       inkscape:connector-curvature="0"
       id="path6071"
       style="fill:#c7afc8;stroke:none" />
    <path
       d="M 637.60066,271.56108 C 647.92704,271.73679 658.38871,271.37199 668.62312,272.31672 668.37967,279.8755 666.29293,287.38467 663.1413,294.23028 657.54452,304.65761 653.93019,316.16179 646.88817,325.78856 643.66392,330.34915 640.79702,335.41716 637.25648,339.59609 622.77012,335.06497 608.19687,330.25163 593.73232,325.51378 592.4204,323.98332 595.45465,323.54849 596.32898,322.95834 603.9903,318.74586 608.46404,310.44785 610.49379,302.29502 612.17112,293.46431 611.42613,283.18449 604.83336,276.57578 603.26388,274.74441 600.91344,273.72906 599.24163,272.05568 601.12298,270.80918 604.38455,271.90165 606.77055,271.5336 617.04722,271.5458 627.32411,271.5058 637.60066,271.5611 z"
       inkscape:connector-curvature="0"
       id="path6073"
       style="fill:#cda392;stroke:none" />
    <path
       d="M 604.03651,329.7591 C 614.90508,332.48749 625.44526,336.52823 636.15808,339.84346 637.93082,340.71302 635.27778,342.75102 634.90784,343.9514 630.5113,351.56765 623.6879,357.22687 619.45361,364.95212 610.99421,377.23811 601.41459,388.98397 590.00908,398.60478 585.50931,402.15194 580.04049,404.21568 575.17106,407.13664 569.31755,409.33018 563.39085,411.20162 557.71063,413.77899 552.1965,416.18316 546.13186,417.25766 540.87874,420.11991 540.06591,420.93704 539.29315,423.34343 537.91113,421.91971 535.15721,419.7299 532.16246,417.61042 529.43422,415.54486 529.23516,404.76547 533.67771,393.57233 542.82966,387.44878 549.2235,381.76385 555.98729,376.49679 563.33959,372.02294 572.95332,365.77687 583.20139,360.40029 590.66696,351.66463 596.23683,345.76694 599.26399,337.97578 602.64888,330.73456 602.73688,330.04683 603.3633,329.62922 604.03651,329.7591 z"
       inkscape:connector-curvature="0"
       id="path6075"
       style="fill:#d5be93;stroke:none" />
    <path
       d="M 370.25195,124.51236 C 386.97839,132.61423 403.68522,140.84836 420.33627,149.12552 421.1063,150.36054 419.43947,151.77123 419.17024,153.00542 417.52246,155.98907 417.35285,160.17052 413.95591,161.84405 410.26636,164.39357 406.46209,166.42998 402.7835,168.9525 398.39883,171.5328 393.83234,173.83862 389.24161,176.00256 384.04176,175.77604 377.78546,175.89717 374.25336,171.36918 372.24182,168.96741 370.48504,166.1824 369.59874,163.19462 369.62884,150.38113 369.21445,137.53306 369.61104,124.73978 369.82823,124.67668 369.95395,124.28641 370.25196,124.51236 z"
       inkscape:connector-curvature="0"
       id="path3021"
       style="fill:#6a72bc;stroke:none" />
    <path
       d="M 374.12844,76.392125 C 390.48962,99.863991 407.1155,123.16598 423.23072,146.79962 423.53687,148.011 421.96302,147.94867 421.35966,148.57764 417.64061,147.76295 414.35559,145.47527 410.86211,143.98682 397.16039,137.37037 383.60495,130.28947 369.81778,123.97482 369.15974,121.38784 369.57941,118.44401 369.24363,115.71695 368.77217,104.56809 367.13707,93.02893 370.3196,82.144396 371.08287,80.018687 371.70662,77.423813 373.74596,76.185379 L 374.03696,76.342677 374.12846,76.392127 z"
       inkscape:connector-curvature="0"
       id="path1931"
       style="fill:#746bdb;stroke:none" />
  </g>
</svg>
