<?xml version="1.0" encoding="UTF-8" standalone="no"?>
<!-- Created with Inkscape (http://www.inkscape.org/) -->

<svg
   xmlns:dc="http://purl.org/dc/elements/1.1/"
   xmlns:cc="http://creativecommons.org/ns#"
   xmlns:rdf="http://www.w3.org/1999/02/22-rdf-syntax-ns#"
   xmlns:svg="http://www.w3.org/2000/svg"
   xmlns="http://www.w3.org/2000/svg"
   xmlns:xlink="http://www.w3.org/1999/xlink"
   xmlns:inkscape="http://www.inkscape.org/namespaces/inkscape"
   version="1.1"
   width="740"
   height="520"
   id="svg2"
   style="display:inline;enable-background:new">
  <defs
     id="defs4">
    <filter
       color-interpolation-filters="sRGB"
       id="filter3050">
      <feBlend
         in2="BackgroundImage"
         mode="lighten"
         id="feBlend3052" />
    </filter>
  </defs>
  <metadata
     id="metadata7">
    <rdf:RDF>
      <cc:Work
         rdf:about="">
        <dc:format>image/svg+xml</dc:format>
        <dc:type
           rdf:resource="http://purl.org/dc/dcmitype/StillImage" />
        <dc:title />
      </cc:Work>
    </rdf:RDF>
  </metadata>
  <g
     id="g5582"
     style="display:none">
    <image
       xlink:href="pngs/coronal-0363.png"
       id="image5584"
       height="520"
       width="740"
       y="0"
       x="0" />
  </g>
  <g
     id="g5590"
     style="display:inline">
    <path
       d="M 414.88244,207.85196 C 415.77374,199.94152 413.69666,190.11684 418.22424,181.69468 420.67497,173.83017 422.35949,167.04424 430.4308,164.36273 438.6832,160.94234 454.2781,159.37979 461.13742,164.72955 475.09958,173.77144 482.12402,183.63848 480.98012,199.77175 480.49632,208.21 467.76204,220.99605 464.49052,229.0706"
       inkscape:connector-curvature="0"
       id="path5592"
       style="fill:none;stroke:#0000e9;stroke-width:1;stroke-miterlimit:4;stroke-opacity:1;stroke-dasharray:none;stroke-dashoffset:0" />
    <path
       d="M 429.1709,164.54692 C 423.20092,149.08482 404.02715,136.63658 380.80993,132.67264"
       inkscape:connector-curvature="0"
       id="path5594"
       style="fill:none;stroke:#0000e9;stroke-width:1;stroke-miterlimit:4;stroke-opacity:1;stroke-dasharray:none;stroke-dashoffset:0" />
    <path
       d="M 422.3564,168.94337 C 402.5243,168.26103 381.93216,181.00656 371.57739,202.57622"
       inkscape:connector-curvature="0"
       id="path5596"
       style="fill:none;stroke:#0000e9;stroke-width:1;stroke-miterlimit:4;stroke-opacity:1;stroke-dasharray:none;stroke-dashoffset:0" />
    <path
       d="M 372.89632,146.30165 C 371.55579,165.30011 368.93761,183.34033 372.01703,205.65374 374.45349,212.22967 377.20687,217.22095 380.80994,217.9638 449.59175,187.92282 461.77517,231.89512 487.6437,257.97151 514.81319,241.68665 530.08277,218.127 533.80644,185.43007"
       inkscape:connector-curvature="0"
       id="path5598"
       style="fill:none;stroke:#0000e9;stroke-width:1;stroke-miterlimit:4;stroke-opacity:1;stroke-dasharray:none;stroke-dashoffset:0" />
    <path
       d="M 533.80644,185.43007 C 515.67858,101.54478 379.24367,101.43104 373.33597,147.18094"
       inkscape:connector-curvature="0"
       id="path5600"
       style="fill:none;stroke:#0000e9;stroke-width:1;stroke-miterlimit:4;stroke-opacity:1;stroke-dasharray:none;stroke-dashoffset:0" />
    <path
       d="M 436.68946,116.95301 C 446.3093,116.96311 455.84557,118.72634 465.15699,121.02285 484.66135,126.0329 503.45104,135.86932 516.66962,151.30893 525.09741,161.04265 530.94599,172.92183 533.69303,185.48956 532.1406,198.279 528.73086,210.91453 522.58416,222.28368 516.77557,233.23769 508.26581,242.5994 498.60689,250.29776 495.15307,252.891 491.62684,255.41525 487.87377,257.56388 486.67973,257.28595 486.09414,255.89481 485.1751,255.14214 478.18952,247.43434 472.0545,238.97488 465.37907,231.00453 464.86418,230.33011 463.89292,229.43457 464.78553,228.65035 469.12271,220.20495 475.90755,213.1746 479.83125,204.52091 481.67406,200.53319 481.05558,196.0187 480.8944,191.78198 480.15256,184.07841 476.13288,176.96795 470.48718,171.81248 466.63908,168.32776 462.48275,165.06486 457.77566,162.80291 452.865,160.77097 447.36196,161.21718 442.17128,161.48768 437.98492,161.78757 433.96733,163.01076 430.01922,164.30416 428.69453,164.48115 428.73688,162.6255 428.06973,161.87129 422.545,150.91562 412.05343,143.47641 401.0502,138.59734 395.01705,135.89074 388.64449,134.14346 382.20781,132.77336 381.17421,131.99913 382.74678,131.11831 383.27258,130.58201 392.81996,122.94295 404.94149,119.49282 416.85524,117.74703 423.41316,116.74004 430.07517,116.98179 436.68946,116.95301 z"
       inkscape:connector-curvature="0"
       id="path8688"
       style="fill:#7cccd0;stroke:none" />
    <path
       d="M 449.25369,161.48082 C 453.80545,161.43422 458.32867,162.79267 462.02061,165.47836 469.69301,170.64567 477.00614,177.47051 479.63339,186.62287 481.0824,191.23954 481.004,196.18698 480.72266,200.96644 479.33558,206.79622 475.46358,211.60664 472.22407,216.53286 469.39056,220.56655 466.54358,224.64761 464.24329,228.96673 463.01492,229.09224 462.31929,227.24238 461.32661,226.56119 454.33499,219.0196 445.74044,212.50587 435.72293,209.73853 430.02345,207.93727 424.00232,207.74351 418.0595,207.84235 417.01041,207.66524 414.66674,208.48062 415.05709,206.65491 415.60881,199.62563 414.65977,192.37902 416.76804,185.55139 418.05784,182.25085 419.27715,178.92997 420.39894,175.56393 421.98684,171.02196 424.87359,166.46939 429.6414,164.86059 435.83456,162.21298 442.55186,161.31929 449.25369,161.48082 z"
       inkscape:connector-curvature="0"
       id="path8690"
       style="fill:#84cdcd;stroke:none" />
    <path
       d="M 422.20178,169.14713 C 423.3772,169.58288 422.05791,170.88751 421.82942,171.64038 419.68149,175.98075 418.54879,180.76265 416.58943,185.1667 414.77246,191.05341 415.2698,197.3831 414.95011,203.49999 414.80463,204.97487 415.09736,206.55334 414.65912,207.95955 410.92776,208.65147 407.11595,209.0813 403.42604,210.07489 395.86245,211.84501 388.57383,214.62601 381.36974,217.51496 379.40787,218.07639 378.02496,216.02153 376.84665,214.81096 374.53423,211.80034 372.99457,208.16979 371.9998,204.50421 371.32804,201.92864 373.36943,199.79897 374.40643,197.63809 382.38092,184.23116 395.52271,173.53032 410.95353,170.16759 414.64161,169.35884 418.42965,169.0914 422.20178,169.14713 z"
       inkscape:connector-curvature="0"
       id="path8692"
       style="fill:#a9a2da;stroke:none" />
    <path
       d="M 381.91242,133.04127 C 394.09881,135.22765 406.0062,140.0109 415.80587,147.63238 420.43976,151.71192 425.00668,156.11318 427.70835,161.76572 427.98781,162.73444 429.26021,163.96294 428.50794,164.94302 426.31659,165.93702 424.70358,167.82043 422.90933,169.34634 422.3334,169.75507 422.08141,168.92007 421.769,168.81739 407.62626,168.68206 393.8752,175.04055 383.97326,184.93313 379.4418,189.27431 375.94288,194.49692 372.72796,199.84672 372.16229,200.77837 371.21552,199.77232 371.40216,198.9743 370.4475,188.78838 370.68293,178.49588 371.28622,168.28557 371.82614,161.29816 372.2262,154.28195 373.15387,147.35035 374.05818,145.29537 374.20195,142.90389 375.26847,140.87027 376.55686,138.10093 378.22054,135.35445 380.50419,133.33666 380.91493,133.05953 381.4299,133.01094 381.91242,133.04127 z"
       inkscape:connector-curvature="0"
       id="path8694"
       style="fill:#a78875;stroke:none" />
  </g>
</svg>
