<?xml version="1.0" encoding="UTF-8" standalone="no"?>
<!-- Created with Inkscape (http://www.inkscape.org/) -->

<svg
   xmlns:dc="http://purl.org/dc/elements/1.1/"
   xmlns:cc="http://creativecommons.org/ns#"
   xmlns:rdf="http://www.w3.org/1999/02/22-rdf-syntax-ns#"
   xmlns:svg="http://www.w3.org/2000/svg"
   xmlns="http://www.w3.org/2000/svg"
   xmlns:xlink="http://www.w3.org/1999/xlink"
   xmlns:inkscape="http://www.inkscape.org/namespaces/inkscape"
   version="1.1"
   width="740"
   height="520"
   id="svg2"
   style="enable-background:new">
  <defs
     id="defs4">
    <filter
       color-interpolation-filters="sRGB"
       id="filter3050">
      <feBlend
         in2="BackgroundImage"
         mode="lighten"
         id="feBlend3052" />
    </filter>
  </defs>
  <metadata
     id="metadata7">
    <rdf:RDF>
      <cc:Work
         rdf:about="">
        <dc:format>image/svg+xml</dc:format>
        <dc:type
           rdf:resource="http://purl.org/dc/dcmitype/StillImage" />
        <dc:title />
      </cc:Work>
    </rdf:RDF>
  </metadata>
  <g
     id="layer1"
     style="display:none">
    <image
       xlink:href="pngs/coronal-0524.png"
       id="MRISLICE"
       height="520"
       width="740"
       y="0"
       x="0" />
  </g>
  <g
     id="layer3"
     style="display:inline">
    <path
       d="M 371.7749,219.22887 369.74155,392.06327 C 382.88726,395.0891 395.19733,394.51975 412.22164,408.08462 435.15568,418.458 409.4496,420.74176 440.20048,432.95471 479.84195,430.46498 490.92189,474.13135 548.38535,403.73236 551.38285,397.85139 562.5605,388.85664 576.36419,378.86227 609.55497,376.87378 620.01664,344.28205 631.07838,326.01335 660.50544,257.00031 645.63723,213.08791 626.10436,171.81883 604.42155,125.07331 566.71349,115.72003 531.59804,100.31734 502.29871,93.956816 412.61457,43.730888 373.25871,93.104586 L 372.06024,194.97475"
       inkscape:connector-curvature="0"
       id="path2990"
       style="fill:none;stroke:#0000e9;stroke-width:1;stroke-miterlimit:4;stroke-opacity:1;stroke-dasharray:none;stroke-dashoffset:0" />
    <path
       d="M 579.47295,377.61877 C 571.58973,376.3233 539.6514,384.17118 546.52009,401.8671"
       inkscape:connector-curvature="0"
       id="path2992"
       style="fill:none;stroke:#0000e9;stroke-width:1;stroke-miterlimit:4;stroke-opacity:1;stroke-dasharray:none;stroke-dashoffset:0" />
    <path
       d="M 372.11863,195.28997 C 382.12609,195.12791 391.66287,195.84281 407.86937,184.25387 411.8861,180.82888 418.32653,176.44562 421.04615,172.64694 425.10429,166.97864 424.92219,162.07268 428.59016,159.25434 433.51294,155.47184 439.5092,157.25395 449.52676,161.24904 486.64102,173.65951 522.61349,187.56283 549.99307,214.57533 561.53306,221.35382 587.38712,267.23555 561.44214,326.01335"
       inkscape:connector-curvature="0"
       id="path2994"
       style="fill:none;stroke:#0000e9;stroke-width:1;stroke-miterlimit:4;stroke-opacity:1;stroke-dasharray:none;stroke-dashoffset:0" />
    <path
       d="M 559.57688,326.01334 C 578.34647,272.19223 563.87881,234.72292 532.84154,210.36745 510.65623,196.94661 457.02709,172.12228 430.8742,196.06716 412.33189,204.62619 393.783,215.0406 372.11863,218.91654 363.40591,219.35014 358.93576,216.60181 353.31063,214.71972"
       inkscape:connector-curvature="0"
       id="path2996"
       style="fill:none;stroke:#0000e9;stroke-width:1;stroke-miterlimit:4;stroke-opacity:1;stroke-dasharray:none;stroke-dashoffset:0" />
    <path
       d="M 432.11771,195.44541 C 425.19242,208.85526 420.10397,223.57715 424.65668,245.18557"
       inkscape:connector-curvature="0"
       id="path3045"
       style="fill:none;stroke:#0000e9;stroke-width:1;stroke-miterlimit:4;stroke-opacity:1;stroke-dasharray:none;stroke-dashoffset:0" />
    <path
       d="M 422.46875,236.75 421.5625,237.125 C 426.72243,250.1393 428.82074,278.70817 430.34375,296.0625 L 431.34375,295.9688 C 429.82216,278.63061 427.77714,250.13877 422.46875,236.75005 z"
       inkscape:connector-curvature="0"
       id="path3043"
       style="font-size:medium;font-style:normal;font-variant:normal;font-weight:normal;font-stretch:normal;text-indent:0;text-align:start;text-decoration:none;line-height:normal;letter-spacing:normal;word-spacing:normal;text-transform:none;direction:ltr;block-progression:tb;writing-mode:lr-tb;text-anchor:start;baseline-shift:baseline;color:#000000;fill:#a7b0c5;fill-opacity:1;stroke:none;stroke-width:1;marker:none;visibility:visible;display:inline;overflow:visible;enable-background:accumulate;font-family:Sans;-inkscape-font-specification:Sans" />
    <path
       d="M 430.84882,296.01604 C 431.5158,303.61611 432.07608,310.80168 432.52611,316.9263"
       inkscape:connector-curvature="0"
       id="path2998"
       style="fill:none;stroke:#0000e9;stroke-width:1;stroke-miterlimit:4;stroke-opacity:1;stroke-dasharray:none;stroke-dashoffset:0" />
    <path
       d="M 425.27843,245.80733 C 418.13197,234.24421 415.08578,224.32121 400.40835,209.7457"
       inkscape:connector-curvature="0"
       id="path3000"
       style="fill:none;stroke:#0000e9;stroke-width:1;stroke-miterlimit:4;stroke-opacity:1;stroke-dasharray:none;stroke-dashoffset:0" />
    <path
       d="M 561.44214,324.14809 C 545.91961,353.6817 525.58744,353.13334 521.65001,386.94505 529.01019,386.85535 538.82635,394.64907 547.83903,402.82183"
       inkscape:connector-curvature="0"
       id="path3002"
       style="fill:none;stroke:#0000e9;stroke-width:1;stroke-miterlimit:4;stroke-opacity:1;stroke-dasharray:none;stroke-dashoffset:0" />
    <path
       d="M 522.89351,386.94505 C 507.82438,428.00744 469.08021,406.65381 437.09172,403.11061 431.63707,406.0871 427.88042,412.4596 424.03493,418.65441"
       inkscape:connector-curvature="0"
       id="path3004"
       style="fill:none;stroke:#0000e9;stroke-width:1;stroke-miterlimit:4;stroke-opacity:1;stroke-dasharray:none;stroke-dashoffset:0" />
    <path
       d="M 431.49595,398.13659 C 427.58142,403.15708 424.48233,409.80843 419.06091,411.81514"
       inkscape:connector-curvature="0"
       id="path3006"
       style="fill:none;stroke:#0000e9;stroke-width:1;stroke-miterlimit:4;stroke-opacity:1;stroke-dasharray:none;stroke-dashoffset:0" />
    <path
       d="M 425.27843,386.94505 C 372.7296,346.66977 364.7664,373.93281 391.08207,396.89309"
       inkscape:connector-curvature="0"
       id="path3008"
       style="fill:none;stroke:#0000e9;stroke-width:1;stroke-miterlimit:4;stroke-opacity:1;stroke-dasharray:none;stroke-dashoffset:0" />
    <path
       d="M 436.46997,404.97586 C 389.34414,350.42862 407.79284,312.42667 458.85305,383.21454"
       inkscape:connector-curvature="0"
       id="path3010"
       style="fill:none;stroke:#0000e9;stroke-width:1;stroke-miterlimit:4;stroke-opacity:1;stroke-dasharray:none;stroke-dashoffset:0" />
    <path
       d="M 530.97629,361.45322 C 530.30692,358.66022 532.64193,361.19727 531.46469,360.0264 532.16303,356.28095 536.87496,347.33074 531.04657,347.01221 525.01343,349.94764 524.6835,357.67691 521.43049,362.84264 519.50846,367.52095 512.91656,376.6198 519.01581,379.6418 520.88623,378.99195 522.1957,377.15285 523.5153,375.75316"
       inkscape:connector-curvature="0"
       id="path3012"
       style="fill:none;stroke:#0000e9;stroke-width:1;stroke-miterlimit:4;stroke-opacity:1;stroke-dasharray:none;stroke-dashoffset:0" />
    <path
       d="M 442.06574,318.55232 C 439.50026,314.23097 430.18104,317.45056 427.16705,321.28185 423.21098,328.15283 428.62457,337.0039 435.2445,339.94059 441.02057,342.731 450.72191,340.20459 450.79429,332.69541 450.86899,326.89982 446.95633,321.38886 442.06574,318.55232 z"
       inkscape:connector-curvature="0"
       id="path3014"
       style="fill:none;stroke:#0000e9;stroke-width:1;stroke-miterlimit:4;stroke-opacity:1;stroke-dasharray:none;stroke-dashoffset:0" />
    <path
       d="M 430.25245,297.41275 C 412.85056,308.44521 393.81274,318.76639 413.46514,345.90941"
       inkscape:connector-curvature="0"
       id="path3016"
       style="fill:none;stroke:#0000e9;stroke-width:1;stroke-miterlimit:4;stroke-opacity:1;stroke-dasharray:none;stroke-dashoffset:0" />
    <path
       d="M 486.54311,348.76711 C 473.17243,331.52403 464.44719,328.02768 447.7876,322.29578"
       inkscape:connector-curvature="0"
       id="path3018"
       style="fill:none;stroke:#0000e9;stroke-width:1;stroke-miterlimit:4;stroke-opacity:1;stroke-dasharray:none;stroke-dashoffset:0" />
    <path
       d="M 518.25247,378.78684 C 489.28663,405.90486 474.04055,390.56732 457.60954,383.21454 455.95154,391.09007 452.63553,398.96559 447.66151,406.84112"
       inkscape:connector-curvature="0"
       id="path3020"
       style="fill:none;stroke:#0000e9;stroke-width:1;stroke-miterlimit:4;stroke-opacity:1;stroke-dasharray:none;stroke-dashoffset:0" />
    <path
       d="M 519.163,368.91424 C 498.85205,370.98713 493.16307,358.43805 485.58839,347.77467"
       inkscape:connector-curvature="0"
       id="path3022"
       style="fill:none;stroke:#0000e9;stroke-width:1;stroke-miterlimit:4;stroke-opacity:1;stroke-dasharray:none;stroke-dashoffset:0" />
    <path
       d="M 491.80591,355.2357 C 468.29798,374.65716 446.03503,353.03709 439.57873,340.31364 438.39721,346.11666 436.93197,351.91968 438.95698,357.7227"
       inkscape:connector-curvature="0"
       id="path3024"
       style="fill:none;stroke:#0000e9;stroke-width:1;stroke-miterlimit:4;stroke-opacity:1;stroke-dasharray:none;stroke-dashoffset:0" />
    <path
       d="M 478.12736,363.94022 C 476.59734,371.44996 476.13745,381.09998 476.2621,391.91907"
       inkscape:connector-curvature="0"
       id="path3026"
       style="fill:none;stroke:#0000e9;stroke-width:1;stroke-miterlimit:4;stroke-opacity:1;stroke-dasharray:none;stroke-dashoffset:0" />
    <path
       d="M 401.17617,188.50758 C 408.4441,194.42565 420.58682,181.30803 433.62302,168.46747 438.05421,164.10279 450.27208,166.14116 440.46192,158.19416"
       inkscape:connector-curvature="0"
       id="path3011"
       style="fill:none;stroke:#0000e9;stroke-width:1;stroke-miterlimit:4;stroke-opacity:1;stroke-dasharray:none;stroke-dashoffset:0" />
    <path
       d="M 436.82981,316.94116 C 432.22855,317.34105 426.38581,320.06977 426.31954,325.40433 425.70833,332.39002 431.44149,338.9606 438.06631,340.39348 439.09296,340.64671 439.48506,339.1868 440.07219,340.39348 442.46957,341.48034 445.25702,339.74659 447.29886,338.49751 451.53531,335.7571 450.99802,329.504 448.53536,325.72033 446.5271,322.39784 443.50642,319.58776 440.31949,317.46324 439.22536,316.99192 438.01494,316.87942 436.82981,316.94116 z"
       inkscape:connector-curvature="0"
       id="path3013"
       style="fill:#bfb879;stroke:none" />
    <path
       d="M 439.70124,343.03135 C 438.28486,344.95326 438.6596,348.057 438.32619,350.43637 438.43894,353.80885 438.0434,357.80012 440.60801,360.35612 446.91453,367.67563 453.56631,374.92846 458.8258,382.99784 461.24706,385.45451 465.03371,386.43531 467.96541,388.34309 470.52457,389.54904 472.92156,391.32135 475.55979,392.21665 476.36054,388.29934 475.89113,383.93413 476.24674,379.85163 476.49587,374.41376 476.75489,368.75213 478.29384,363.57102 476.9768,362.35778 474.51775,363.25765 472.79827,362.93903 461.6484,363.55691 451.96926,356.57948 444.9495,348.63683 443.15872,346.89513 442.10474,344.16305 439.9348,342.93518 L 439.70124,343.03138 z"
       inkscape:connector-curvature="0"
       id="path3017"
       style="fill:#95c990;stroke:none" />
    <path
       d="M 490.64512,356.64661 C 486.80258,358.95788 482.80145,361.42732 478.2801,362.51313 477.62465,365.66979 477.76234,369.24087 477.22533,372.55462 476.64123,378.89589 476.51494,385.26607 476.26048,391.62588 479.17804,393.31544 483.02314,393.70761 486.48223,393.92028 498.10647,394.15343 508.57007,387.32007 516.66661,379.61807 517.65895,378.19236 516.03709,376.58536 516.54296,374.96058 516.43838,373.06161 517.29894,371.29905 517.73825,369.56119 514.14739,369.04111 510.15256,369.49629 506.60151,368.196 500.33118,366.54775 495.50758,361.92033 491.56562,357.01756 491.31442,356.78097 491.01862,356.5438 490.64512,356.64661 z"
       inkscape:connector-curvature="0"
       id="path3021"
       style="fill:#d87090;stroke:none" />
    <path
       d="M 531.38098,347.34537 C 526.293,349.67811 525.06725,355.87686 522.8766,360.52099 521.54765,363.43264 519.91653,366.45926 518.86484,369.36884 517.25606,371.24701 516.68163,374.16143 516.98261,376.60925 517.18209,378.47027 519.67718,380.14231 520.93941,378.07931 524.45293,375.43981 524.92961,370.92035 527.01305,367.33909 529.55184,362.96397 532.01579,358.50712 533.07087,353.47293 533.63788,351.53301 534.54559,347.46623 531.38098,347.34537 z"
       inkscape:connector-curvature="0"
       id="path3023"
       style="fill:#a5c0bd;stroke:none" />
    <path
       d="M 574.65855,377.84575 C 565.63319,379.51407 555.7968,381.91116 549.36522,388.91931 547.01699,391.391 545.55571,394.61064 546.09536,398.08317 545.92962,399.90705 546.72225,402.71722 548.71949,402.6857 554.52204,394.67746 562.8192,389.02343 570.50815,382.868 572.10868,381.22566 574.91514,380.30986 575.82636,378.2167 575.61541,377.74053 575.07639,377.82676 574.65855,377.84575 z"
       inkscape:connector-curvature="0"
       id="path3027"
       style="fill:#6abbd5;stroke:none" />
    <path
       d="M 523.63224,387.50421 C 521.65363,388.42002 521.84069,391.34997 520.54789,392.93832 516.38108,401.21708 509.33841,408.39452 500.05627,410.59931 485.87691,414.16689 471.36459,409.77717 457.42443,407.12337 454.51616,406.91343 451.34729,404.96156 448.50788,406.07921 447.67586,406.94451 447.72197,406.25575 447.53242,405.50218 444.46489,403.91102 440.71759,403.8465 437.31067,403.68864 436.30433,403.76094 436.41721,405.23244 435.29105,404.81523 430.2304,408.42198 427.57951,414.4668 423.70915,419.17239 423.13605,424.09342 428.35111,426.59284 431.82884,428.80337 436.39684,431.62313 441.61221,433.15545 447.02408,432.9113 460.56578,433.64265 472.74182,440.62096 485.89145,443.27044 494.89149,444.7114 504.1508,442.60495 511.81331,437.78944 526.04268,429.19009 537.2646,416.49017 547.97759,403.86725 547.43525,401.81805 544.45818,400.67932 543.0041,399.00367 537.24409,394.45607 531.39854,389.17321 524.07188,387.49047 523.92529,387.49347 523.77779,387.48047 523.63224,387.50417 z"
       inkscape:connector-curvature="0"
       id="path3029"
       style="fill:#c7a1db;stroke:none" />
    <path
       d="M 415.72684,344.88611 C 410.97024,345.31527 408.82493,350.66549 409.7092,354.87429 410.7098,364.97475 415.24917,374.45821 420.81024,382.81924 421.86956,384.48269 424.06528,385.3172 425.17921,386.69361 422.90802,387.20488 424.80503,389.64536 425.62912,390.62842 428.76116,394.84736 431.78157,399.29702 435.4147,403.05665 439.56784,402.83193 443.59789,404.26116 447.68355,404.33437 450.45804,403.13754 451.04291,399.48677 452.54712,397.1077 454.82241,392.25382 456.62537,387.03508 457.56182,381.80256 447.95802,369.34185 438.05865,356.52906 424.69835,347.92241 421.98751,346.37679 418.95371,344.7251 415.72684,344.88611 z"
       inkscape:connector-curvature="0"
       id="path3031"
       style="fill:#8791c4;stroke:none" />
    <path
       d="M 384.07239,366.7035 C 379.89704,366.37436 376.05406,370.14689 376.88694,374.39729 378.16609,382.51862 383.55145,389.4552 389.48552,394.84078 393.06436,397.67427 397.76222,398.35063 401.57663,400.87735 407.15514,403.99991 412.28187,407.81286 417.91133,410.81914 420.05199,412.38736 422.08719,409.38964 423.57176,408.16753 426.18492,405.15969 429.041,401.88852 430.59234,398.30299 426.52668,393.49247 423.66893,387.80328 419.42261,383.16271 410.71707,376.67571 401.19087,370.78401 390.73576,367.63774 388.5757,367.03183 386.32659,366.63378 384.07239,366.7035 z"
       inkscape:connector-curvature="0"
       id="path3033"
       style="fill:#a4a7da;stroke:none" />
    <path
       d="M 429.9054,298.22877 C 421.74595,302.93707 413.28207,308.28424 408.00557,316.35039 403.2716,323.69979 405.97026,333.06056 410.04502,340.03664 411.28676,341.8473 412.23505,345.40071 415.14981,344.47394 421.9084,344.42944 427.58588,349.04465 432.65389,352.99353 434.22464,354.18379 435.58152,355.83988 437.36562,356.67409 438.77346,355.55562 437.54768,353.04841 437.90144,351.48078 437.73533,348.08779 438.62003,344.71093 438.83569,341.41016 431.879,339.87438 425.73773,333.55731 425.68755,326.20119 425.83522,322.48115 428.15752,319.15634 431.55407,317.7655 432.85352,315.28165 431.60697,312.15795 431.73261,309.45615 431.29595,305.77587 431.37745,301.92455 430.46869,298.35242 430.30656,298.19416 430.09865,298.20446 429.9054,298.22877 z"
       inkscape:connector-curvature="0"
       id="path3035"
       style="fill:#79a89f;stroke:none" />
    <path
       d="M 429.06732,197.26152 C 419.97663,201.38839 411.00567,205.88112 401.82307,209.83262 401.29669,211.46957 404.08299,212.58946 404.85898,213.98541 411.57008,221.23567 416.4473,229.78609 421.37353,238.24469 422.12618,239.54135 423.34695,238.29149 422.93977,237.14558 422.79004,227.62406 422.79413,217.87091 426.11123,208.8235 427.07376,205.04013 429.46098,201.62929 430.20765,197.86603 430.11885,197.32706 429.54514,197.13791 429.06732,197.26152 z"
       inkscape:connector-curvature="0"
       id="path3037"
       style="fill:#a7b0c5;stroke:none" />
    <path
       d="M 573.07742,266.98423 C 591.78429,264.70347 587.91484,279.29237 587.80553,291.38454 583.86124,285.88716 577.4349,288.68736 572.41795,289.62595"
       inkscape:connector-curvature="0"
       id="path3025"
       style="fill:none;stroke:#0000e9;stroke-width:1;stroke-miterlimit:4;stroke-opacity:1;stroke-dasharray:none;stroke-dashoffset:0" />
    <path
       d="M 588.24518,290.0656 C 584.28683,302.37334 581.49582,329.40165 562.08629,325.67686"
       inkscape:connector-curvature="0"
       id="path3028"
       style="fill:none;stroke:#0000e9;stroke-width:1;stroke-miterlimit:4;stroke-opacity:1;stroke-dasharray:none;stroke-dashoffset:0" />
    <path
       d="M 575.49546,323.03899 C 585.49786,333.81638 564.92637,352.1054 554.3925,358.2106 555.35421,351.30299 548.78545,350.67078 542.96173,349.41769"
       inkscape:connector-curvature="0"
       id="path3032"
       style="fill:none;stroke:#0000e9;stroke-width:1;stroke-miterlimit:4;stroke-opacity:1;stroke-dasharray:none;stroke-dashoffset:0" />
    <path
       d="M 553.51321,358.65024 C 542.59812,367.7789 533.84268,377.5246 531.09131,388.98575"
       inkscape:connector-curvature="0"
       id="path3034"
       style="fill:none;stroke:#0000e9;stroke-width:1;stroke-miterlimit:4;stroke-opacity:1;stroke-dasharray:none;stroke-dashoffset:0" />
    <path
       d="M 536.80669,376.67569 C 543.88296,369.90223 554.65337,363.98356 563.48425,359.86124 572.02234,356.68712 581.2929,354.90856 588.68842,349.26473 592.56755,346.47153 595.68586,342.80929 599.08066,339.47466 601.85877,336.56043 603.23612,332.36644 606.69051,330.13907 612.13493,330.29938 607.85003,337.81798 605.88631,340.16826 601.50339,345.77916 595.53365,350.03757 589.25207,353.31282 584.83839,355.42684 580.29198,357.31361 576.36554,360.2967 571.49302,363.72816 565.89085,365.77272 560.49376,368.17565 555.9655,370.89994 551.09113,373.08042 546.89142,376.32253 541.49249,379.70216 537.78063,385.00908 532.98584,389.09578 532.47085,389.6177 531.979,390.16354 531.53095,390.74433"
       inkscape:connector-curvature="0"
       id="path3036"
       style="fill:none;stroke:#0000e9;stroke-width:1;stroke-miterlimit:4;stroke-opacity:1;stroke-dasharray:none;stroke-dashoffset:0" />
    <path
       d="M 521.73322,378.64261 C 519.77557,379.65782 517.49192,379.64926 515.85297,381.29422 507.79454,387.95811 498.47447,394.40232 487.57872,394.29701 476.69835,394.70699 467.55708,387.86847 457.94346,383.94583 455.73563,390.76289 453.20463,397.60973 449.74133,403.93594 449.93254,405.60089 452.72455,405.10876 453.89048,405.80444 464.07171,407.95235 474.27754,410.68312 484.7066,411.37011 494.9553,412.02054 506.28876,410.07695 513.50361,402.17736 517.18386,398.14589 520.28589,393.30237 521.87061,388.08124 521.10974,385.14159 522.59486,381.99523 522.46138,378.97234 522.35431,378.64415 522.01058,378.59681 521.73322,378.64261 z"
       inkscape:connector-curvature="0"
       id="path3042"
       style="fill:#8791c7;stroke:none" />
    <path
       d="M 607.03811,330.73503 C 603.54879,332.31768 602.19447,336.55296 599.47105,339.10667 593.61266,345.81249 586.8058,352.25649 578.03527,355.08038 568.99857,358.38037 559.67382,361.19148 551.53292,366.4562 545.65848,370.12979 539.21966,373.66677 535.21109,379.46695 533.94266,382.26895 532.10619,385.12414 531.84506,388.20489 533.09745,389.63731 534.58146,386.9231 535.60784,386.2763 541.37039,380.22175 547.67006,374.66746 555.14628,370.93536 563.54939,366.33221 572.4697,362.67998 580.55976,357.4443 589.91307,352.57973 599.98683,347.79319 606.33743,338.97838 607.60745,336.86323 609.70031,334.14289 608.64557,331.5731 608.30612,331.0277 607.70068,330.62736 607.03811,330.73503 z"
       inkscape:connector-curvature="0"
       id="path3044"
       style="fill:#d5be93;stroke:none" />
    <path
       d="M 542.74001,349.43369 C 538.48338,352.00388 535.58128,356.38155 532.33966,360.08134 526.2062,367.48418 523.16268,377.00717 522.03548,386.44631 522.69156,387.56959 524.72142,386.70194 525.84115,387.49047 527.47795,387.69142 529.30358,389.43742 530.77342,388.74071 534.46323,376.5079 543.25514,366.5552 553.20906,358.8998 555.39895,358.29612 553.89364,355.05894 553.14036,353.70649 550.46856,350.79472 546.21219,350.61985 542.74,349.43369 z"
       inkscape:connector-curvature="0"
       id="path3050"
       style="fill:#7c797c;stroke:none" />
    <path
       d="M 372.58494,195.13453 C 366.47105,195.17603 360.35715,196.01957 354.24326,193.73559 L 353.77694,214.56428"
       inkscape:connector-curvature="0"
       id="path3038"
       style="fill:none;stroke:#0000e9;stroke-width:0.93800002;stroke-linecap:round;stroke-miterlimit:4;stroke-opacity:1;stroke-dasharray:none;stroke-dashoffset:0" />
    <path
       d="M 448.03359,322.94715 C 447.68936,324.08452 448.93633,325.03744 449.26278,326.08169 450.87617,329.49233 451.81084,333.90906 449.39374,337.18067 447.47233,339.87122 444.10347,340.79803 440.98553,341.28173 440.00481,342.09321 441.66195,343.2091 442.00178,344.10164 447.54398,352.20387 455.54139,359.03446 465.06138,361.87492 469.27903,363.03919 473.83832,363.10049 478.10806,362.17174 482.4166,361.03349 486.6261,359.15561 490.09526,356.33958 490.95989,354.96411 489.27147,353.63416 488.69724,352.50627 486.31187,348.97914 484.00175,345.38224 480.97262,342.37397 476.05608,336.96521 470.46372,332.05113 463.81998,328.88089 458.89644,326.35052 453.70445,324.37825 448.41141,322.78229 448.27325,322.77929 448.1689,322.93639 448.03359,322.94715 z"
       inkscape:connector-curvature="0"
       id="path3041"
       style="fill:#8a7294;stroke:none" />
    <path
       d="M 575.88389,266.90614 C 574.80552,267.11258 573.29622,266.69618 572.55407,267.51398 572.73771,274.58599 572.7921,281.71744 571.94082,288.75101 572.22747,289.94476 573.78944,288.98711 574.61304,288.99144 578.1291,288.37733 582.09101,287.21943 585.43243,289.02574 586.00148,289.44782 587.38733,290.71295 587.65814,289.41729 588.01275,284.61981 588.29966,279.73132 587.56884,274.95709 587.115,271.61167 584.82846,268.52308 581.49625,267.62738 579.69417,267.02658 577.77624,266.83663 575.8839,266.90609 z"
       inkscape:connector-curvature="0"
       id="path3046"
       style="fill:#d39ccd;stroke:none" />
    <path
       d="M 580.87112,288.29075 C 577.86516,288.44059 574.90469,289.08004 572.03013,289.92568 571.25878,290.86885 571.73265,292.27293 571.30883,293.38102 569.49488,304.22314 566.38545,314.87939 562.00759,324.9393 562.09389,326.11424 563.80329,325.66994 564.66603,325.85693 568.73459,326.07874 572.87907,324.57115 575.61342,321.514 581.09058,316.00321 583.14376,308.15003 585.18885,300.8651 585.92294,297.75045 587.01683,294.69142 587.5551,291.54688 586.84343,290.07363 585.23587,289.08983 583.72881,288.55179 582.80139,288.30447 581.8276,288.26386 580.87112,288.29075 z"
       inkscape:connector-curvature="0"
       id="path3048"
       style="fill:#bc90cc;stroke:none" />
    <path
       d="M 574.53748,323.00898 C 570.96655,326.04248 565.94616,326.60265 561.47864,325.70181 559.99393,325.99955 559.72248,327.94131 558.82551,328.94399 555.00919,335.1873 550.3791,340.87041 545.25915,346.09247 544.56901,347.01166 543.50404,347.72722 543.09598,348.81752 543.61168,349.8289 545.13506,349.57188 546.09106,349.97846 548.65389,350.67526 551.70037,351.1494 553.44825,353.38571 554.28875,354.39079 554.44253,355.67137 554.62293,356.88913 555.30326,357.94944 556.45017,356.63863 557.15358,356.27708 564.64971,351.03138 571.8463,344.71915 576.17241,336.5212 577.86532,333.20239 578.89105,329.065 577.01048,325.59189 576.47337,324.63477 575.79873,322.89795 574.53748,323.00898 z"
       inkscape:connector-curvature="0"
       id="path3051"
       style="fill:#c9ca98;stroke:none" />
    <path
       d="M 459.50845,186.22439 C 449.98467,186.31399 440.11062,188.68224 432.60767,194.7906 427.40712,204.78143 423.41269,215.66122 423.0866,227.02895 422.93822,232.97938 423.35608,238.99766 424.86579,244.76589 425.30246,245.26343 425.00907,245.61166 424.88639,246.12604 428.14028,262.23437 429.45127,278.70689 430.86374,295.06624 431.52242,302.18681 431.92398,309.3358 432.69009,316.44178 433.28765,317.50268 434.76564,316.63237 435.70578,316.61352 437.92301,316.25394 440.67002,316.33427 442.09437,318.31714 443.84128,319.58074 445.41278,320.9678 447.10221,322.3083 447.76267,322.56052 448.50674,322.2673 449.16991,322.66551 458.90903,325.94653 468.7667,329.95417 476.29052,337.18067 480.10324,340.85033 483.76688,344.69455 486.73209,349.06482 488.18068,351.38363 489.72765,353.73805 491.60254,355.70072 492.21827,357.67834 493.98409,359.06736 495.29225,360.60636 498.94708,364.70315 503.93795,367.55837 509.36008,368.50538 512.23726,369.10599 515.25557,368.97508 518.14837,368.88459 519.53398,366.78164 520.49319,364.24731 521.68037,361.96019 523.61216,358.31079 524.73392,354.27894 526.84971,350.74097 528.03313,349.13977 529.46456,347.21355 531.56903,346.99025 533.2113,347.1091 534.2162,348.73338 533.96647,350.29446 533.98277,352.68742 532.96657,354.86031 532.5651,357.17765 533.02171,358.4017 534.11161,356.99714 534.59159,356.52505 542.77273,347.71572 552.10207,339.75021 558.31868,329.32888 558.81051,328.21133 560.10674,327.08666 559.76127,325.79111 559.41423,325.01688 560.31931,323.92395 560.43612,323.03154 564.00758,312.04586 566.63965,300.68105 567.50759,289.14286 567.85505,280.26324 567.95407,271.26595 565.98814,262.54958 563.16289,248.00526 556.19129,234.35957 546.36583,223.31945 542.2774,218.69794 537.80101,214.39331 532.88568,210.6784 525.15215,205.7905 516.84079,201.86803 508.51314,198.10932 495.5777,192.54296 482.00371,188.08016 467.94508,186.60246 465.14724,186.31444 462.32451,186.18366 459.50844,186.22439 z"
       inkscape:connector-curvature="0"
       id="path3053"
       style="fill:#d0cf6e;stroke:none" />
    <path
       d="M 434.7612,157.40375 C 430.3156,157.26924 426.67474,160.70536 425.27955,164.72929 423.18791,169.50329 420.76146,174.32797 416.46754,177.53396 412.19287,181.26674 407.49042,184.65464 402.87698,187.92789 401.80317,188.84893 403.32509,189.83802 404.29535,189.60856 409.64091,190.20011 413.94123,186.16478 417.82632,183.10547 423.97467,178.05705 429.25543,171.95723 435.40238,167.03119 437.99747,165.59036 441.45304,165.51807 443.66003,163.40754 444.43634,161.59192 442.13612,160.28353 441.14387,159.09413 439.50618,157.4532 436.92126,157.47672 434.7612,157.40375 z"
       inkscape:connector-curvature="0"
       id="path3039"
       style="fill:#b46a9f;stroke:none" />
    <path
       d="M 442.74849,159.12522 C 442.06451,159.8667 443.23601,160.54783 443.5694,161.17506 444.24428,161.99438 444.53803,163.41175 443.5257,164.08467 441.30711,165.38809 438.71104,165.83977 436.35033,166.89389 434.24002,167.73705 432.8262,169.65875 431.14417,171.1001 425.81783,176.14823 420.77372,181.51495 414.87108,185.87749 411.57648,188.24818 407.67834,190.65888 403.45669,189.8048 402.41206,189.59404 401.41428,188.28655 400.36962,189.135 394.73568,192.26318 388.53399,194.43769 382.10339,195.00226 375.84169,195.5039 369.52954,195.23154 363.2469,195.24782 360.4367,195.24182 357.63744,194.92373 354.9746,194.06478 353.93741,194.02578 354.37689,195.45324 354.25224,196.08991 354.09211,202.21618 353.96028,208.34328 353.86225,214.47087 354.2156,215.35331 355.48486,215.25622 356.22819,215.70803 360.40384,217.28915 364.71065,218.80909 369.23604,218.76971 372.88547,219.10356 376.40562,217.90946 379.91236,217.0978 389.53978,214.64236 398.80134,210.96617 407.82401,206.82865 415.23502,203.40612 422.63162,199.92723 429.95979,196.33735 432.21316,195.07774 434.02315,193.16076 436.31012,191.93569 442.56747,188.19436 449.84935,186.36157 457.11192,186.13914 463.72035,185.94526 470.35195,186.32613 476.82283,187.68187 491.30083,190.55744 505.21852,195.97955 518.45486,202.42562 523.27717,204.86332 528.1578,207.33339 532.67445,210.25267 538.88296,214.78404 544.24489,220.34967 549.16097,226.25933 557.45204,236.49145 563.42347,248.7614 566.03155,261.70492 567.45537,268.53581 568.12914,275.52223 567.89907,282.50895 567.90927,288.05197 567.4608,293.56913 566.54034,299.03506 565.27624,307.22407 563.19399,315.27663 560.66283,323.1512 560.24022,323.90214 561.1077,324.8582 561.83833,324.29755 562.84314,322.98169 563.23669,321.28291 563.90523,319.77706 568.82407,306.97234 571.93235,293.43881 572.42073,279.69681 573.08305,262.09526 569.67425,244.13317 561.29429,228.5623 558.35266,223.36483 554.97044,218.18363 550.0423,214.66201 546.36377,211.29617 542.75225,207.84817 538.81211,204.75785 523.08461,192.14594 505.09814,182.61848 486.51075,174.9188 474.30113,169.78532 461.73438,165.56684 449.23281,161.19488 447.16085,160.50546 445.16363,159.50674 443.02538,159.04265 L 442.87643,159.08705 442.74851,159.12525 z"
       inkscape:connector-curvature="0"
       id="path3047"
       style="fill:#73a0a6;stroke:none" />
  </g>
</svg>
