<?xml version="1.0" encoding="UTF-8" standalone="no"?>
<!-- Created with Inkscape (http://www.inkscape.org/) -->

<svg
   xmlns:dc="http://purl.org/dc/elements/1.1/"
   xmlns:cc="http://creativecommons.org/ns#"
   xmlns:rdf="http://www.w3.org/1999/02/22-rdf-syntax-ns#"
   xmlns:svg="http://www.w3.org/2000/svg"
   xmlns="http://www.w3.org/2000/svg"
   xmlns:xlink="http://www.w3.org/1999/xlink"
   xmlns:inkscape="http://www.inkscape.org/namespaces/inkscape"
   version="1.1"
   width="740"
   height="520"
   id="svg2"
   style="display:inline;enable-background:new">
  <defs
     id="defs4">
    <filter
       color-interpolation-filters="sRGB"
       id="filter3050">
      <feBlend
         in2="BackgroundImage"
         mode="lighten"
         id="feBlend3052" />
    </filter>
  </defs>
  <metadata
     id="metadata7">
    <rdf:RDF>
      <cc:Work
         rdf:about="">
        <dc:format>image/svg+xml</dc:format>
        <dc:type
           rdf:resource="http://purl.org/dc/dcmitype/StillImage" />
        <dc:title />
      </cc:Work>
    </rdf:RDF>
  </metadata>
  <g
     id="g5405"
     style="display:none">
    <image
       xlink:href="pngs/coronal-0403.png"
       id="image5407"
       height="520"
       width="740"
       y="0"
       x="0" />
  </g>
  <g
     id="g5413"
     style="display:inline">
    <path
       d="M 387.19608,265.27022 C 402.8958,228.99768 411.50551,204.28897 426.04218,200.49236 440.37699,196.74848 460.7236,204.49178 482.20182,215.21893 511.09438,229.64912 539.28885,247.45823 555.08209,254.84484"
       inkscape:connector-curvature="0"
       id="path5415"
       style="fill:none;stroke:#0000e9;stroke-width:1;stroke-miterlimit:4;stroke-opacity:1;stroke-dasharray:none;stroke-dashoffset:0" />
    <path
       d="M 426.63047,199.4464 C 417.71938,168.15269 398.55668,141.34407 380.62729,113.99588"
       inkscape:connector-curvature="0"
       id="path5417"
       style="fill:none;stroke:#0000e9;stroke-width:1;stroke-miterlimit:4;stroke-opacity:1;stroke-dasharray:none;stroke-dashoffset:0" />
    <path
       d="M 495.2616,222.20957 C 500.0958,240.9063 496.71459,255.53305 496.40058,271.14513"
       inkscape:connector-curvature="0"
       id="path5419"
       style="fill:none;stroke:#0000e9;stroke-width:1;stroke-miterlimit:4;stroke-opacity:1;stroke-dasharray:none;stroke-dashoffset:0" />
    <path
       d="M 439.03427,199.93023 435.96323,251.4031"
       inkscape:connector-curvature="0"
       id="path5421"
       style="fill:none;stroke:#0000e9;stroke-width:1;stroke-miterlimit:4;stroke-opacity:1;stroke-dasharray:none;stroke-dashoffset:0" />
    <path
       d="M 426.55504,199.88604 367.57049,187.98438"
       inkscape:connector-curvature="0"
       id="path5423"
       style="fill:none;stroke:#0000e9;stroke-width:1;stroke-miterlimit:4;stroke-opacity:1;stroke-dasharray:none;stroke-dashoffset:0" />
    <path
       d="M 523.63027,289.95173 C 508.30083,318.56332 475.65204,331.13298 455.2092,355.49931 436.45774,372.77033 397.65239,391.98839 381.13779,362.12277 361.44866,325.99589 383.18606,283.97042 368.57326,246.90919 367.95261,208.61591 368.81806,170.32094 368.81401,132.0267 385.1821,100.72128 424.58004,89.373704 455.99655,104.11207 507.62842,117.86668 563.03997,153.45187 570.46991,210.6111 566.0367,238.85046 552.74684,268.58348 530.97959,287.61 L 527.30043,289.33688 523.63027,289.95173 z"
       inkscape:connector-curvature="0"
       id="path5425"
       style="fill:none;stroke:#0000e9;stroke-width:1;stroke-miterlimit:4;stroke-opacity:1;stroke-dasharray:none;stroke-dashoffset:0" />
    <path
       d="M 522.28009,289.91401 C 508.25662,282.52535 495.99039,270.61183 481.68313,263.57822 466.03619,254.63421 448.50609,244.6661 429.78347,248.90807 415.57422,253.53435 401.82889,259.32228 388.50245,266.06831 385.01098,269.12984 378.71229,269.79852 374.95613,272.36058"
       inkscape:connector-curvature="0"
       id="path5427"
       style="fill:none;stroke:#0000e9;stroke-width:1;stroke-miterlimit:4;stroke-opacity:1;stroke-dasharray:none;stroke-dashoffset:0" />
    <path
       d="M 428.79671,98.052383 C 438.76298,98.002273 448.27124,101.1735 457.46981,104.6608 473.68842,109.57266 489.60088,115.6085 504.3308,124.05751 529.99799,138.50443 553.11803,159.78149 564.18956,187.58589 567.01742,194.92499 569.32908,202.57143 570.0327,210.42293 568.21141,223.69846 564.00346,236.62331 558.67705,248.87811 557.53398,250.66572 557.14044,253.42608 555.2359,254.49735 544.74563,249.59646 534.7602,243.52325 524.57243,237.97323 503.29664,226.23914 482.32736,213.7219 459.61227,204.96894 451.15915,201.94057 442.41632,199.14244 433.31681,199.77278 431.14876,199.17772 427.05305,201.21352 426.49544,198.16294 417.50502,168.08719 399.18401,142.10477 382.41415,116.03662 382.04485,114.15475 384.85303,113.32741 385.87635,112.09355 398.02917,102.6598 413.38832,97.644778 428.79671,98.052383 z"
       inkscape:connector-curvature="0"
       id="path5892"
       style="fill:#7cccd0;stroke:none" />
    <path
       d="M 441.94484,200.54465 C 459.63035,203.82817 475.76254,212.33316 491.65545,220.41192 493.44886,221.21168 495.3986,222.21694 495.4579,224.45036 499.18922,239.59685 496.87705,255.30536 496.10363,270.64057 495.08683,272.15794 493.31675,269.6815 492.13509,269.35489 481.39282,263.00014 470.51173,256.55999 458.93988,251.85948 451.88502,249.12885 444.33767,247.49792 436.7378,247.90268 435.70706,246.5211 436.99975,244.02072 436.7408,242.20293 437.64046,228.38152 438.38842,214.55093 439.18349,200.72326 439.57218,199.65739 441.15051,200.70076 441.94501,200.54465 z"
       inkscape:connector-curvature="0"
       id="path5894"
       style="fill:#84cdcd;stroke:none" />
    <path
       d="M 496.85927,223.22759 C 516.28343,233.62975 535.30145,244.83379 554.72756,255.21178 555.93427,256.47268 553.57351,258.22154 553.19471,259.5447 546.86898,270.0059 539.45354,280.1061 529.92882,287.81421 527.52809,288.87437 524.69625,290.05721 522.1479,289.6329 513.05143,284.07966 504.15825,278.06986 495.74642,271.54734 496.26635,270.51714 497.1433,270.11143 496.74152,268.2667 497.58739,253.52592 499.08586,238.45925 495.99372,223.91454 495.95882,223.46919 496.3744,222.98209 496.85927,223.22759 z"
       inkscape:connector-curvature="0"
       id="path5896"
       style="fill:#6965d0;stroke:none" />
    <path
       d="M 381.77366,116.01876 C 395.15167,136.3397 409.05816,156.49206 418.94428,178.79871 421.86869,185.3311 424.32939,192.0677 426.32894,198.93995 426.17055,200.22251 424.52367,199.16277 423.74968,199.19293 405.50183,195.51639 387.24865,191.86116 369.01021,188.14117 368.13696,187.21405 368.86016,185.5676 368.63504,184.35614 368.75832,166.96068 368.73444,149.5457 368.94968,132.16243 372.07557,126.10205 376.26264,120.5472 381.23533,115.90834 381.42197,115.7127 381.59408,115.98644 381.77366,116.01876 z"
       inkscape:connector-curvature="0"
       id="path5922"
       style="fill:#a76986;stroke:none;display:inline;enable-background:new" />
    <path
       d="M 369.29873,188.61516 C 386.64642,191.85559 403.93983,195.44918 421.22881,199.01195 422.35303,199.33113 423.5997,199.37153 424.6528,199.86733 425.11292,201.00968 423.34668,201.18459 422.66752,201.6946 418.62675,203.89627 415.41707,207.22674 412.82669,210.99637 405.82491,221.07389 401.26422,232.52913 396.31461,243.69591 393.32031,250.74093 390.09962,257.86722 387.33105,264.90046 388.32801,265.07713 388.23112,266.33617 387.38605,266.67278 383.48625,269.14399 378.74802,269.97985 374.73939,272.29886 373.51645,272.23806 373.96609,270.4716 373.70467,269.66007 373.00762,262.10243 371.64592,254.6239 368.94235,247.52577 368.09304,245.23657 368.72226,242.70366 368.52797,240.30781 368.56727,223.21259 368.41264,206.11268 368.65992,189.02046 368.81947,188.7501 368.94673,188.53441 369.29878,188.61516 z"
       inkscape:connector-curvature="0"
       id="path5924"
       style="fill:#a78875;stroke:none;display:inline;enable-background:new" />
    <path
       d="M 436.2347,199.83298 C 437.03674,199.98412 438.89913,199.42233 438.75186,200.80154 437.98145,216.18272 437.1572,231.57014 436.08357,246.92996 435.78936,248.48512 433.75753,247.90003 432.64486,248.30501 425.65427,249.7315 418.98425,252.56405 412.33455,255.13443 404.19036,258.42836 396.24244,262.186 388.32025,265.95149 387.118,265.97589 387.62486,264.49325 388.00425,263.89065 393.224,251.5368 398.33397,239.12254 404.07878,227.00855 407.49453,220.20774 410.85116,213.19735 415.99728,207.50616 418.65476,204.63293 421.68458,201.91073 425.53896,200.82218 428.96671,199.58695 432.65194,199.83722 436.2347,199.83298 z"
       inkscape:connector-curvature="0"
       id="path5926"
       style="fill:#a9a2da;stroke:none;display:inline;enable-background:new" />
  </g>
</svg>
