<?xml version="1.0" encoding="UTF-8" standalone="no"?>
<!-- Created with Inkscape (http://www.inkscape.org/) -->

<svg
   xmlns:dc="http://purl.org/dc/elements/1.1/"
   xmlns:cc="http://creativecommons.org/ns#"
   xmlns:rdf="http://www.w3.org/1999/02/22-rdf-syntax-ns#"
   xmlns:svg="http://www.w3.org/2000/svg"
   xmlns="http://www.w3.org/2000/svg"
   xmlns:xlink="http://www.w3.org/1999/xlink"
   xmlns:inkscape="http://www.inkscape.org/namespaces/inkscape"
   version="1.1"
   width="740"
   height="520"
   id="svg2"
   style="enable-background:new">
  <defs
     id="defs4">
    <filter
       color-interpolation-filters="sRGB"
       id="filter3050">
      <feBlend
         in2="BackgroundImage"
         mode="lighten"
         id="feBlend3052" />
    </filter>
  </defs>
  <metadata
     id="metadata7">
    <rdf:RDF>
      <cc:Work
         rdf:about="">
        <dc:format>image/svg+xml</dc:format>
        <dc:type
           rdf:resource="http://purl.org/dc/dcmitype/StillImage" />
        <dc:title />
      </cc:Work>
    </rdf:RDF>
  </metadata>
  <g
     id="layer1"
     style="display:none">
    <image
       xlink:href="pngs/coronal-0688.png"
       id="MRISLICE"
       height="520"
       width="740"
       y="0"
       x="0" />
  </g>
  <g
     id="layer3"
     style="display:inline">
    <path
       d="M 361.42444,122.54589 361.31773,147.56964 M 373.31773,147.56964 372.4295,355.85745 C 373.95742,386.02933 377.84146,417.77195 369.9425,441.65924 379.90965,447.58198 383.58619,433.54212 400.40835,434.81996 438.78143,443.21971 438.12532,405.66252 479.99261,407.46287 515.84699,419.70451 564.75815,473.40202 607.4518,441.03748 622.78094,428.38778 630.78026,408.40826 641.64816,391.29732 654.36722,361.14108 667.55553,331.6105 685.17081,307.98254 717.956,210.53513 659.24717,142.40653 621.13034,107.15661 574.58471,71.659525 515.23306,52.919478 464.44881,44.9814 429.20829,39.135681 399.56904,29.851746 373.67301,64.255715 L 373.42444,122.54589"
       inkscape:connector-curvature="0"
       id="path2990"
       style="fill:none;stroke:#0000e9;stroke-width:1;stroke-miterlimit:4;stroke-opacity:1;stroke-dasharray:none;stroke-dashoffset:0" />
    <path
       d="M 433.98296,381.97104 C 431.92624,381.3756 431.07176,379.45891 428.31053,379.93959 425.17055,379.45859 422.88211,382.62506 424.24504,385.47256 425.7831,389.00733 427.82143,392.99825 431.65726,394.41959 434.34098,395.2887 436.80932,392.58561 436.24059,389.95921 436.26709,387.2575 435.29117,384.74226 434.09165,382.38251 L 433.98296,381.97104 433.98296,381.97104 z"
       inkscape:connector-curvature="0"
       id="path2992"
       style="fill:none;stroke:#0000e9;stroke-width:1;stroke-miterlimit:4;stroke-opacity:1;stroke-dasharray:none;stroke-dashoffset:0" />
    <path
       d="M 407.86937,322.90459 C 406.04376,322.57969 405.35796,320.84242 402.79847,322.12625 401.23048,322.71825 399.64419,323.84513 399.29975,325.58822 398.8595,326.5998 398.11229,327.65334 398.4614,328.81059 398.76113,330.16898 399.33929,331.46586 400.04952,332.65485 400.75383,333.61166 401.53641,334.5249 402.39937,335.33784 403.40654,336.09994 404.33494,337.14489 405.63092,337.3723 407.10569,337.53029 408.29719,336.49618 409.41445,335.69903 410.75515,334.77983 412.11199,333.65498 412.59667,332.03802 413.03244,331.12662 413.81861,330.18477 413.48876,329.10979 413.02074,326.78408 411.2662,324.92621 409.29674,323.71833 408.82733,323.43601 408.34413,323.17763 407.86937,322.90459 z"
       inkscape:connector-curvature="0"
       id="path2994"
       style="fill:none;stroke:#0000e9;stroke-width:1;stroke-miterlimit:4;stroke-opacity:1;stroke-dasharray:none;stroke-dashoffset:0" />
    <path
       d="M 361.70428,123.16673 C 366.12344,124.14682 381.93119,122.48731 385.35101,121.88147 407.92334,117.88266 412.23249,85.29773 444.55274,102.80434 489.88998,101.22831 537.79367,122.51418 574.56032,168.35059 598.40764,198.08066 618.49714,228.38922 620.53983,255.31572 620.3202,261.53915 623.24694,273.36829 620.15551,284.32645"
       inkscape:connector-curvature="0"
       id="path3808"
       style="fill:none;stroke:#0000e9;stroke-width:1;stroke-miterlimit:4;stroke-opacity:1;stroke-dasharray:none;stroke-dashoffset:0" />
    <path
       d="M 618.5,283.78125 C 611.81866,304.80306 608.62837,331.79296 608.28125,350.84375 608.23905,353.1616 606.40664,357.3086 604.0625,361.09375 601.71836,364.8789 598.94548,368.45119 597.40625,370.28125 L 600.09375,372.53125 C 601.7412,370.57253 604.55814,366.9309 607.03125,362.9375 609.50436,358.9441 611.71196,354.70873 611.78125,350.90625 612.12231,332.18788 615.2973,305.34284 621.8125,284.84375 620.80703,278.76512 619.71262,277.84486 618.5,283.78125 z"
       inkscape:connector-curvature="0"
       id="path2996"
       style="font-size:medium;font-style:normal;font-variant:normal;font-weight:normal;font-stretch:normal;text-indent:0;text-align:start;text-decoration:none;line-height:normal;letter-spacing:normal;word-spacing:normal;text-transform:none;direction:ltr;block-progression:tb;writing-mode:lr-tb;text-anchor:start;baseline-shift:baseline;color:#000000;fill:#73a0a6;fill-opacity:1;stroke:none;stroke-width:3.5;marker:none;visibility:visible;display:inline;overflow:visible;enable-background:accumulate;font-family:Sans;-inkscape-font-specification:Sans" />
    <path
       d="M 361.23797,146.48243 C 363.50842,147.2804 376.24635,147.70994 383.64947,144.35825 389.53045,141.69569 394.67079,138.60909 397.558,136.56162 426.50656,116.03267 445.41822,93.88164 517.33546,128.25846 524.2386,132.84903 530.8017,138.64695 538.26456,145.77201 561.36883,167.8305 591.32888,197.74959 610.56056,235.23754 615.48531,248.11379 620.36183,258.12465 618.7942,283.69649"
       inkscape:connector-curvature="0"
       id="path3804"
       style="fill:none;stroke:#0000e9;stroke-width:1;stroke-miterlimit:4;stroke-opacity:1;stroke-dasharray:none;stroke-dashoffset:0" />
    <path
       d="M 618.0625,283.03125 C 598.04412,305.1842 577.6588,329.47176 558.0625,349.34375 L 559.46875,350.75 C 579.15063,330.79123 599.54811,306.48895 619.53125,284.375 L 618.0625,283.03125 z"
       inkscape:connector-curvature="0"
       id="path2998"
       style="font-size:medium;font-style:normal;font-variant:normal;font-weight:normal;font-stretch:normal;text-indent:0;text-align:start;text-decoration:none;line-height:normal;letter-spacing:normal;word-spacing:normal;text-transform:none;direction:ltr;block-progression:tb;writing-mode:lr-tb;text-anchor:start;baseline-shift:baseline;color:#000000;fill:#73a0a6;fill-opacity:1;stroke:none;stroke-width:2;marker:none;visibility:visible;display:inline;overflow:visible;enable-background:accumulate;font-family:Sans;-inkscape-font-specification:Sans" />
    <path
       d="M 448.28326,418.65441 C 441.18161,408.70638 473.7751,395.64958 483.10138,363.31848 524.24852,321.75671 561.74208,290.76888 514.81073,350.88343 499.92219,367.28975 480.43108,379.0935 476.2621,406.21937"
       inkscape:connector-curvature="0"
       id="path3000"
       style="fill:none;stroke:#0000e9;stroke-width:1;stroke-miterlimit:4;stroke-opacity:1;stroke-dasharray:none;stroke-dashoffset:0" />
    <path
       d="M 566.41616,174.30584 C 566.19834,175.97126 562.89865,175.24247 565.19683,174.34384 566.73391,175.16875 562.1433,175.99001 562.35613,177.77156 560.14035,181.86234 558.14218,186.08826 557.10399,190.64426 555.83929,193.8623 555.13041,197.29189 556.43887,200.62768 556.91792,204.2893 557.12217,207.99125 557.39456,211.68558 557.16225,216.40792 556.40558,221.2299 554.71486,225.68813 553.67362,228.64206 550.33828,229.15779 547.90384,230.51536 544.85099,231.86835 540.96209,232.38466 537.9959,230.66697 536.4046,228.80257 531.42672,227.08421 532.3045,231.2494 533.18542,235.15355 536.09649,238.2285 538.60433,241.20667 541.41593,243.91474 545.44796,244.55045 548.80612,246.37737 552.77707,247.66056 556.51509,244.64905 558.36599,241.35911 560.42281,238.39763 561.73531,235.00447 563.53985,231.90501 565.23891,228.87017 566.56878,225.67604 567.72091,222.40203 569.28545,219.62534 569.1062,216.48444 568.94938,213.4326 568.90718,210.75307 568.91998,208.07313 568.90318,205.39341 566.94824,201.27511 567.51103,196.57538 568.35387,192.25977 568.8541,188.54001 567.03646,185.06596 566.81663,181.38464 566.32509,179.02843 566.34517,176.69519 566.41612,174.30584 z"
       inkscape:connector-curvature="0"
       id="path3002"
       style="fill:none;stroke:#0000e9;stroke-width:1;stroke-miterlimit:4;stroke-opacity:1;stroke-dasharray:none;stroke-dashoffset:0" />
    <path
       d="M 534.7068,235.23754 C 534.1711,230.40313 531.98843,225.82437 528.24735,222.66793 524.17315,218.53393 519.08077,215.56016 513.79647,213.24581 508.20313,213.07737 508.195,220.3854 509.54841,224.22482 512.96337,237.19246 525.38664,246.21737 526.52921,259.99637 526.86772,268.48644 519.93505,274.4966 515.58191,281.00144 508.49121,290.78545 500.16549,300.60345 488.55989,305.02063 483.68468,303.28191 481.90664,312.76979 487.70861,310.7623 493.9561,308.80236 500.89417,307.48535 505.47048,302.36406 513.3972,294.25905 524.54961,289.86124 531.46508,280.65023 535.8244,274.42282 544.85491,270.82516 548.53931,264.11968 551.05804,257.11495 543.54519,249.16614 539.75869,243.72111"
       inkscape:connector-curvature="0"
       id="path3004"
       style="fill:none;stroke:#0000e9;stroke-width:1;stroke-miterlimit:4;stroke-opacity:1;stroke-dasharray:none;stroke-dashoffset:0" />
    <path
       d="M 498.02343,307.36078 C 490.02181,318.06046 485.64467,322.46398 475.7573,331.9643 454.29739,346.19392 468.38339,361.15748 485.70162,357.57781 486.76721,357.17088 490.78928,355.82258 489.94022,358.34444"
       inkscape:connector-curvature="0"
       id="path3008"
       style="fill:none;stroke:#0000e9;stroke-width:1;stroke-miterlimit:4;stroke-opacity:1;stroke-dasharray:none;stroke-dashoffset:0" />
    <path
       d="M 568.28141,222.18075 C 572.25985,219.87806 575.92722,215.20272 581.05487,216.56102 585.59146,217.13388 586.39647,222.40394 585.20895,226.04811 583.08402,234.39489 579.40017,242.26968 577.74683,250.7524 576.77436,254.28138 576.61606,257.97667 576.1177,261.55189 574.52934,266.42903 573.60574,271.58994 574.40793,276.70295 574.46483,281.32247 573.63202,285.90452 573.52743,290.51444 572.68281,296.33718 569.59649,302.16751 564.30478,305.06564 553.08034,304.78195 545.23428,308.16084 536.987,318.22912"
       inkscape:connector-curvature="0"
       id="path3024"
       style="fill:none;stroke:#0000e9;stroke-width:1;stroke-miterlimit:4;stroke-opacity:1;stroke-dasharray:none;stroke-dashoffset:0" />
    <path
       d="M 573.79088,269.56723 C 569.26727,272.7721 559.41268,289.72859 554.70402,292.70439 549.5843,296.01557 544.63863,299.58256 539.7359,303.20532 537.741,304.7797 536.37165,307.00738 534.73755,308.93829 532.69895,311.28587 531.85826,314.30685 530.60271,317.09077 530.13206,317.32973 529.65195,321.66278 529.73277,319.79583"
       inkscape:connector-curvature="0"
       id="path3026"
       style="fill:none;stroke:#0000e9;stroke-width:1;stroke-miterlimit:4;stroke-opacity:1;stroke-dasharray:none;stroke-dashoffset:0" />
    <path
       d="M 562.68565,304.87378 C 563.48038,305.51321 561.66377,305.8335 561.96867,305.03749 548.3926,306.91573 541.50199,339.17759 559.09055,349.55351"
       inkscape:connector-curvature="0"
       id="path3028"
       style="fill:none;stroke:#0000e9;stroke-width:1;stroke-miterlimit:4;stroke-opacity:1;stroke-dasharray:none;stroke-dashoffset:0" />
    <path
       d="M 584.13609,324.61441 C 582.89768,316.83996 575.70648,306.44614 564.5509,303.63027"
       inkscape:connector-curvature="0"
       id="path3030"
       style="fill:none;stroke:#0000e9;stroke-width:1;stroke-miterlimit:4;stroke-opacity:1;stroke-dasharray:none;stroke-dashoffset:0" />
    <path
       d="M 605.50653,297.47714 C 598.98309,292.60179 582.34344,294.74951 571.39017,294.30399"
       inkscape:connector-curvature="0"
       id="path3032"
       style="fill:none;stroke:#0000e9;stroke-width:1;stroke-miterlimit:4;stroke-opacity:1;stroke-dasharray:none;stroke-dashoffset:0" />
    <path
       d="M 397.92133,115.86115 435.84821,99.073839"
       inkscape:connector-curvature="0"
       id="path3005"
       style="fill:none;stroke:#0000e9;stroke-width:1;stroke-miterlimit:4;stroke-opacity:1;stroke-dasharray:none;stroke-dashoffset:0" />
    <path
       d="M 554.83213,224.99813 C 560.56796,223.35884 561.55845,228.04667 564.06468,230.71351"
       inkscape:connector-curvature="0"
       id="path3016"
       style="fill:none;stroke:#0000e9;stroke-width:1;stroke-miterlimit:4;stroke-opacity:1;stroke-dasharray:none;stroke-dashoffset:0" />
    <path
       d="M 427.74061,380.26778 C 424.82175,380.25028 423.29895,383.64936 424.77301,386.02439 426.40448,389.35768 428.6313,393.33509 432.45306,394.36391 435.94028,394.32071 436.37619,389.90426 435.52931,387.32678 435.05406,384.13295 433.21713,380.78953 429.6778,380.36396 429.0412,380.24201 428.3863,380.19713 427.74061,380.26776 z"
       inkscape:connector-curvature="0"
       id="path3031"
       style="fill:#bfb195;stroke:none" />
    <path
       d="M 404.10969,322.06976 C 399.80063,322.78338 397.55508,328.12152 399.97428,331.74196 401.52953,333.99222 403.74808,337.39458 406.87121,336.92152 409.71962,335.3679 412.84244,332.80757 413.20485,329.37886 412.2576,325.49522 407.90766,322.53709 404.10969,322.06976 z"
       inkscape:connector-curvature="0"
       id="path3033"
       style="fill:#cc6bc8;stroke:none" />
    <path
       d="M 564.78624,175.86028 C 561.65585,178.18944 560.56241,182.37529 558.97468,185.80726 556.75586,191.11638 555.41657,196.96753 556.86611,202.68796 557.8613,209.55382 557.4977,216.57693 555.89717,223.30074 556.71872,225.13733 559.5896,224.36263 560.67831,226.13096 561.89744,226.95642 562.94452,229.79466 564.66259,228.98865 566.12294,225.53197 568.10877,222.03612 568.66559,218.34128 568.59329,211.83706 568.34493,205.28624 567.43785,198.8867 567.648,194.21044 568.74765,189.42442 567.22118,184.86648 566.39754,181.98075 566.78019,178.62918 565.54188,175.95646 565.31547,175.80835 565.04206,175.81101 564.78624,175.86026 z"
       inkscape:connector-curvature="0"
       id="path3039"
       style="fill:#a7b0c5;stroke:none" />
    <path
       d="M 556.63907,225.07306 C 554.40221,225.32026 553.90269,228.15543 551.76175,228.78257 547.29806,231.58605 540.99607,233.39128 536.44287,229.90916 535.35372,228.8489 532.19246,228.38225 532.48606,230.67853 533.80281,235.10322 536.70943,239.09032 540.23481,242.05435 544.09072,243.93359 548.28687,246.93781 552.77843,245.91499 557.99461,243.57312 559.93423,237.55416 562.71426,232.98347 564.86597,230.93427 562.53642,229.14398 561.22786,227.49111 560.09555,226.09654 558.56982,224.82534 556.63907,225.07306 z"
       inkscape:connector-curvature="0"
       id="path3041"
       style="fill:#b667d7;stroke:none" />
    <path
       d="M 426.45622,97.970958 C 418.16038,98.123906 411.63941,104.09659 405.88983,109.39565 405.20594,110.40641 403.03849,111.25757 403.68455,112.689 405.10819,113.10803 406.53435,111.53231 407.94128,111.23708 416.1147,107.47425 424.54307,104.18765 432.53773,100.0888 433.57163,99.77223 433.5498,98.228979 432.32401,98.262404 430.38271,98.034143 428.41243,97.946107 426.45622,97.970958 z"
       inkscape:connector-curvature="0"
       id="path3053"
       style="fill:#b46a9f;stroke:none" />
    <path
       d="M 535.25312,317.56602 C 528.53168,320.71438 523.13777,326.06707 517.49433,330.78797 508.56975,338.85114 499.51356,346.94278 491.38074,355.85235 490.59718,356.39338 491.01806,358.37867 489.67092,357.9799 487.25,359.10668 485.39268,361.27392 483.5797,363.18708 482.03,366.26205 481.3103,369.73377 479.63546,372.75623 474.99197,382.68782 467.88951,391.1492 460.24456,398.87953 456.22668,403.40827 451.32886,407.3121 448.34384,412.65523 447.91909,413.62016 446.91939,415.47567 448.19812,416.04572 455.35537,411.34052 463.49445,408.14751 472.0647,407.48555 473.49711,407.17929 475.30465,407.64156 476.51698,406.71944 476.0204,404.02526 477.2909,400.97352 477.90992,398.27144 481.06674,387.26542 487.76316,377.6679 495.88611,369.77664 504.61058,360.58855 514.24476,352.20265 521.52885,341.76063 526.58132,334.80878 532.0243,327.9978 535.81659,320.26675 536.18406,319.50305 536.71876,317.40394 535.25312,317.56602 z"
       inkscape:connector-curvature="0"
       id="path3034"
       style="fill:#85dbce;stroke:none" />
    <path
       d="M 619.45997,294.46206 C 634.3765,309.64477 631.45553,328.22358 621.98792,346.88974"
       inkscape:connector-curvature="0"
       id="path3021"
       style="fill:none;stroke:#0000e9;stroke-width:1;stroke-miterlimit:4;stroke-opacity:1;stroke-dasharray:none;stroke-dashoffset:0" />
    <path
       d="M 611.986,351.61592 C 617.00083,346.66718 623.35409,337.03392 621.65819,355.57273 618.86432,368.94961 613.96417,381.1208 604.29221,388.76594 601.04026,391.21831 593.81329,385.6611 600.99488,371.83959"
       inkscape:connector-curvature="0"
       id="path3023"
       style="fill:none;stroke:#0000e9;stroke-width:1;stroke-miterlimit:4;stroke-opacity:1;stroke-dasharray:none;stroke-dashoffset:0" />
    <path
       d="M 609.78777,439.1053 601.87416,402.17511"
       inkscape:connector-curvature="0"
       id="path3038"
       style="fill:none;stroke:#0000e9;stroke-width:1;stroke-miterlimit:4;stroke-opacity:1;stroke-dasharray:none;stroke-dashoffset:0" />
    <path
       d="M 571.53865,450.09643 C 577.84023,430.0193 582.06066,387.04956 590.44339,389.86505 597.16471,387.77305 598.49715,397.1166 601.43452,403.0544"
       inkscape:connector-curvature="0"
       id="path3046"
       style="fill:none;stroke:#0000e9;stroke-width:1;stroke-miterlimit:4;stroke-opacity:1;stroke-dasharray:none;stroke-dashoffset:0" />
    <path
       d="M 606.71026,424.15736 C 612.80895,418.55467 628.34781,388.67562 629.83975,385.23471 638.14556,364.43579 653.13121,344.64086 654.06503,341.28617 654.92456,337.37738 649.98559,338.53819 648.90189,340.83432 647.0229,343.40182 644.95021,345.40292 643.11033,348.01666 640.33044,351.26499 637.47456,354.48795 635.53887,358.33731 632.90204,361.48595 632.07711,365.64353 629.93203,369.10846 628.07005,372.68912 626.387,376.2855 624.53001,379.86089 623.0547,383.37303 621.66814,386.92303 619.45822,390.06066 617.79504,393.3375 615.74102,396.4309 613.89347,399.44548 612.22514,402.58634 610.16936,405.45531 608.56532,408.62865 607.54693,410.59704 605.80191,414.02904 605.39136,415.36446"
       inkscape:connector-curvature="0"
       id="path3048"
       style="fill:none;stroke:#0000e9;stroke-width:1;stroke-miterlimit:4;stroke-opacity:1;stroke-dasharray:none;stroke-dashoffset:0" />
    <path
       d="M 591.33763,389.94433 C 586.68799,389.7216 585.17488,395.12093 583.91862,398.61358 578.8574,415.26239 576.65254,432.63125 572.03446,449.37885 571.89449,451.46958 574.98178,450.84916 576.321,451.06874 585.61068,451.04374 594.91078,448.82405 602.74582,443.7992 604.84959,442.27928 607.85933,441.16767 608.96465,438.7312 607.77058,428.90361 605.16496,419.2631 603.12018,409.59357 602.51341,405.8506 601.25153,402.38923 599.47107,399.06697 597.84848,395.88314 596.88066,391.31523 593.15117,389.98555 592.55063,389.89075 591.94258,389.91015 591.33763,389.94435 z"
       inkscape:connector-curvature="0"
       id="path3052"
       style="fill:#9eae8b;stroke:none" />
    <path
       d="M 651.88501,338.97297 C 649.12659,340.22367 647.61427,343.36116 645.50025,345.44914 639.93057,351.9581 635.01477,358.89919 631.40524,366.6906 626.10464,376.82259 621.77254,387.54846 615.57707,397.21235 611.96553,403.39948 608.21006,409.67398 605.28263,416.15817 605.582,418.26377 605.67916,420.73145 606.99999,422.45059 609.10915,422.13725 609.87177,419.29444 611.2041,417.86179 620.2594,403.82336 627.94886,388.91536 634.89912,373.71871 640.42357,362.43081 647.82071,352.14495 653.72602,341.07503 654.22119,339.89185 653.14264,338.64583 651.88501,338.97297 z"
       inkscape:connector-curvature="0"
       id="path3058"
       style="fill:#d5be93;stroke:none" />
    <path
       d="M 512.78735,213.49229 C 509.24391,214.19803 508.80616,218.59815 509.22199,221.54593 510.68376,230.82929 517.18783,238.15627 521.72503,246.09542 525.34846,252.12608 528.28025,259.69591 525.4264,266.62295 521.96761,273.6958 516.62471,279.68483 511.99073,285.96527 505.86387,293.88984 498.3472,301.46886 488.70417,304.95785 487.24118,305.14288 485.36611,305.18306 484.75993,306.89112 483.79266,308.29268 484.34415,311.12606 486.47946,310.71878 491.02743,309.76232 495.55144,308.22234 499.78884,306.29851 504.67325,303.68232 508.03224,299.16004 512.65134,296.14646 519.66061,291.07363 527.05606,286.27798 532.33368,279.33973 537.07077,273.84124 544.19008,270.65463 548.07178,264.38853 550.02224,260.80984 547.95643,256.62444 546.26481,253.39129 544.46085,250.05966 541.67152,247.19136 539.95986,243.91929 541.13422,242.7314 538.83592,242.01663 538.35637,241.12931 536.09368,238.40295 533.47878,235.58851 532.42111,232.12543 532.35751,229.62081 532.31353,226.83753 530.2547,225.04328 525.56811,220.08033 519.88482,215.82815 513.42853,213.51172 513.218,213.47372 513.00005,213.47412 512.78735,213.49232 z"
       inkscape:connector-curvature="0"
       id="path3063"
       style="fill:#8678d2;stroke:none" />
    <path
       d="M 484.03401,309.84779 C 473.07702,319.02318 463.22832,328.38329 466.93583,340.00277"
       inkscape:connector-curvature="0"
       id="path3035"
       style="fill:none;stroke:#0000e9;stroke-width:1;stroke-linecap:round;stroke-miterlimit:4;stroke-opacity:1;stroke-dasharray:none;stroke-dashoffset:0" />
    <path
       d="M 494.91467,312.02392 C 510.45542,308.45974 521.5606,310.07613 518.54125,328.18948"
       inkscape:connector-curvature="0"
       id="path3037"
       style="fill:none;stroke:#0000e9;stroke-width:1;stroke-linecap:round;stroke-miterlimit:4;stroke-opacity:1;stroke-dasharray:none;stroke-dashoffset:0" />
    <path
       d="M 578.58426,216.5719 C 574.8743,217.23204 571.92588,219.99152 568.81886,221.969 566.76889,223.32202 566.79423,226.23364 565.49832,228.21033 562.80082,233.52258 560.42168,239.15678 556.71608,243.82213 554.42796,246.7965 550.09017,247.46164 546.88462,245.6971 544.92751,244.9614 543.07582,243.9 541.04598,243.41411 539.74756,244.07327 541.59013,245.46761 541.9106,246.28 545.03355,250.89942 549.17917,255.67782 549.12876,261.55178 548.8626,266.38315 544.27248,269.2012 541.03626,272.15071 536.5462,275.55008 532.45545,279.53402 528.88295,283.80856 521.49773,291.39532 511.65749,296.1734 504.25574,303.80178 501.71528,306.27255 497.53023,307.04658 496.04667,310.50505 496.04764,312.14489 498.33915,311.0586 499.27728,311.05499 503.84387,310.31499 508.74443,310.04776 513.16428,311.59311 517.48886,313.48303 519.53025,318.49334 518.99772,323.03706 519.02422,324.65401 518.80105,326.31768 519.07092,327.9141 520.25282,328.6743 521.17179,326.67051 522.18164,326.23412 524.48046,324.01419 527.43874,322.47299 529.5047,320.01591 531.02123,315.22741 532.85361,310.41553 536.33949,306.64544 541.93332,299.88059 550.41144,296.34394 556.8035,290.46326 562.79463,283.38902 567.94471,275.56722 574.08626,268.74079 574.82714,266.69012 575.04777,264.41219 575.62923,262.2833 576.72675,255.82493 577.59416,249.2886 579.66617,243.04884 581.53159,236.40287 584.3959,229.98912 585.46239,223.14888 585.91274,219.86571 583.2974,216.51341 579.88605,216.62048 579.45445,216.57128 579.01844,216.54478 578.58425,216.57188 z"
       inkscape:connector-curvature="0"
       id="path3040"
       style="fill:#9de082;stroke:none" />
    <path
       d="M 505.4701,310.7382 C 501.89871,311.05587 498.15881,311.21737 494.77402,312.36059 490.6861,316.61487 487.03562,321.22155 482.73892,325.32201 478.99886,329.27756 474.95279,332.77211 470.76474,336.19928 466.9284,339.55398 463.75349,345.10446 465.90141,350.22918 468.61508,356.03884 475.65316,358.19259 481.64922,357.92336 484.15319,357.55668 486.79158,357.33087 489.15882,356.5147 493.73632,353.02711 497.50456,348.54711 501.8195,344.72898 507.28964,339.46868 513.0154,334.37565 518.5042,329.16795 518.60691,324.26095 519.75481,318.55725 516.33133,314.42986 513.74646,311.25323 509.31312,310.67595 505.4701,310.7382 z"
       inkscape:connector-curvature="0"
       id="path3042"
       style="fill:#76bd94;stroke:none" />
    <path
       d="M 495.37634,308.71751 C 491.90864,309.33815 488.53026,311.32125 484.962,310.9325 483.88559,309.61546 482.42635,311.61983 481.52229,312.23518 475.52934,317.62345 469.04552,323.41601 466.78546,331.43089 466.56809,333.68783 465.89059,336.26254 466.84376,338.39646 467.99332,339.49868 468.93624,337.1715 469.80023,336.64849 473.77899,332.9449 478.19743,329.71898 481.92608,325.67711 486.89515,320.52492 491.84334,315.29105 496.00782,309.47527 496.1679,309.11646 495.77416,308.58407 495.37635,308.71751 z"
       inkscape:connector-curvature="0"
       id="path3044"
       style="fill:#d78578;stroke:none" />
    <path
       d="M 543.41134,311.40217 C 536.86116,319.91547 535.01053,342.27934 549.47342,308.13797"
       inkscape:connector-curvature="0"
       id="path3043"
       style="fill:none;stroke:#0000e9;stroke-width:1;stroke-linecap:round;stroke-miterlimit:4;stroke-opacity:1;stroke-dasharray:none;stroke-dashoffset:0" />
    <path
       d="M 573.2324,270.31987 C 571.21785,271.90242 569.86842,274.19408 568.23144,276.16577 564.27551,281.27769 560.76667,286.78723 556.28546,291.45031 552.61267,294.64758 548.24686,297.0377 544.37028,300.02988 541.11658,302.3483 537.90219,304.7202 535.60585,308.04328 533.11526,311.13732 531.51728,314.84705 530.25709,318.57092 530.11609,319.66321 531.45596,319.47732 531.95385,318.90065 533.25061,318.17143 534.72611,317.01544 536.26787,317.33442 537.31453,317.95284 538.12566,316.40606 538.87826,315.89183 540.87616,314.01321 542.55658,311.72609 544.95773,310.35505 549.57718,306.85803 555.34066,305.29969 561.04538,304.98044 562.23991,304.69287 563.72482,305.31494 564.72802,304.51601 564.89239,303.95618 564.94836,303.56331 565.64853,303.6642 567.95065,302.79764 569.27878,300.45707 570.56809,298.49407 571.07388,297.32772 572.25176,296.10638 571.92034,294.77513 571.40664,294.35638 571.86254,294.04745 572.34625,293.98514 573.34576,292.63103 573.1398,290.71726 573.44696,289.11582 574.01427,283.01234 574.58902,276.79424 573.91935,270.68395 573.81428,270.41745 573.52031,270.21201 573.2324,270.31987 z"
       inkscape:connector-curvature="0"
       id="path3045"
       style="fill:#78a9c2;stroke:none" />
    <path
       d="M 548.04898,308.76821 C 546.16563,309.6509 544.39715,310.94269 542.95872,312.45023 540.60624,315.97888 539.14925,320.14391 538.62409,324.34813 538.36373,325.13404 538.83453,326.86727 539.86746,325.98993 543.04025,322.33943 544.8599,317.75022 546.99947,313.4604 547.50188,312.02 548.60181,310.62005 548.5972,309.07973 548.5439,308.86472 548.24285,308.76518 548.04898,308.76821 z"
       inkscape:connector-curvature="0"
       id="path3047"
       style="fill:#b667d7;stroke:none" />
    <path
       d="M 567.06627,175.71684 C 566.03747,176.41107 566.66272,177.97305 566.62663,179.01418 566.92324,183.93387 569.07728,188.69601 568.2288,193.64367 567.51554,197.52712 567.6065,201.63367 568.92789,205.35854 569.27575,209.88947 569.10518,214.51593 568.93489,219.05624 568.86579,219.76268 568.27325,221.40693 569.53254,221.1102 572.83498,219.05679 576.05016,215.7336 580.29697,216.31532 582.59671,216.42969 584.73246,217.90608 585.35289,220.16909 586.57444,223.54995 584.89084,227.00918 584.07116,230.28259 581.14094,239.59076 577.53764,248.82405 576.57373,258.61743 576.17597,262.84809 574.40411,266.81996 574.39252,271.11272 574.29091,276.3649 574.46592,281.64675 573.9086,286.87055 573.79067,289.29834 573.24764,291.73681 573.09091,294.11877 574.80762,294.59014 576.75406,294.12077 578.55816,294.23246 585.96155,294.19636 593.50979,293.69412 600.77457,295.27337 602.54402,295.59175 604.07816,296.64224 605.70709,297.2375 609.48004,293.47841 612.83729,289.27679 616.45417,285.35524 617.35127,284.18539 618.99518,283.28952 618.77279,281.57515 619.22864,269.97439 618.68769,258.13022 614.84354,247.07813 612.39084,239.78009 609.37592,232.66875 605.37735,226.07682 594.9952,208.21704 582.33928,191.73177 568.38534,176.56865 567.99502,176.26181 567.6528,175.60647 567.0664,175.71684 z"
       inkscape:connector-curvature="0"
       id="path3812"
       style="fill:#d0cf6e;stroke:none" />
    <path
       d="M 572.74044,294.62711 C 571.45887,297.92945 569.57572,300.95868 567.04566,303.44062 566.66939,304.59414 568.50369,304.6623 569.16146,305.23122 575.80577,308.40939 580.77414,314.42162 583.4774,321.17069 584.48286,322.15599 585.21985,320.24374 585.94967,319.7219 592.11951,312.72983 598.47522,305.85458 604.40176,298.66635 605.12847,298.05089 604.98466,296.90652 603.97585,296.70169 597.73797,293.81473 590.63457,294.63365 583.94452,294.46224 580.27309,294.52294 576.55028,294.34159 572.91052,294.55154 L 572.74044,294.62714 z"
       inkscape:connector-curvature="0"
       id="path3814"
       style="fill:#d17697;stroke:none" />
    <path
       d="M 566.00151,304.23061 C 565.11077,304.99841 563.94654,305.03095 562.91025,305.37094 561.59884,305.62594 560.07397,305.39054 558.86414,306.20214 553.52232,309.41677 550.69964,315.54537 549.46953,321.44762 547.669,329.92376 548.9627,339.68019 555.09281,346.1755 556.20629,347.16915 557.26838,348.47283 558.67841,348.97521 560.57339,347.65836 562.00998,345.64466 563.70035,344.03758 570.35939,337.00231 576.91203,329.8809 583.3881,322.6751 583.49377,321.31991 582.56035,319.97481 582.06828,318.69279 579.11509,312.59349 574.03465,307.55462 567.78554,304.86447 567.20065,304.66729 566.64107,304.08054 566.00151,304.23061 z"
       inkscape:connector-curvature="0"
       id="path3816"
       style="fill:#a7c0ab;stroke:none" />
    <path
       d="M 619.01622,294.54483 C 618.30379,294.89535 618.41659,295.89452 618.15471,296.53786 614.52642,311.99391 612.46918,327.7912 611.60294,343.63685 611.52084,346.02127 611.32518,348.41377 611.36709,350.79536 611.44319,351.39854 612.26002,351.41226 612.54048,350.91342 614.60575,348.9203 616.36684,346.54847 618.79297,344.96663 619.51729,344.48346 620.58298,344.45942 621.11141,345.25171 621.32512,345.68121 621.78464,346.3093 622.29639,345.87683 623.29486,344.36818 623.89661,342.62592 624.651,340.98798 628.07372,332.99809 630.47049,324.26836 629.61416,315.50075 628.93788,308.20349 625.62801,301.28648 620.70268,295.90155 620.18159,295.4783 619.77269,294.52981 619.01622,294.54483 z"
       inkscape:connector-curvature="0"
       id="path3826"
       style="fill:#c9ca98;stroke:none" />
    <path
       d="M 619.90582,344.74337 C 618.37943,344.99108 617.35001,346.31963 616.25814,347.29537 614.92079,348.6021 613.64524,350.04145 612.32194,351.30027 611.86712,350.75896 611.14172,351.32087 611.22626,351.92539 610.70796,356.1284 608.40376,359.80989 606.2312,363.35288 604.50609,366.13347 602.50595,368.72965 600.55456,371.34877 600.30329,371.68056 600.55156,372.12252 600.85339,372.25554 599.19891,375.74207 597.72954,379.51646 598.092,383.44909 598.172,385.68665 599.30419,388.139 601.48537,389.01014 602.62671,389.49786 603.92522,389.09694 604.79302,388.25794 609.17294,384.61422 612.65625,379.95372 615.18249,374.85515 618.16447,368.87133 620.18896,362.43178 621.4961,355.88563 621.90264,353.10325 621.89354,350.26367 621.69531,347.46368 621.54203,346.49403 621.33732,345.20809 620.31799,344.78802 620.18542,344.74712 620.04398,344.73292 619.90582,344.74342 z"
       inkscape:connector-curvature="0"
       id="path3828"
       style="fill:#ca818c;stroke:none" />
    <path
       d="M 436.24132,99.433757 C 432.56797,100.40392 429.19087,102.31297 425.66285,103.72588 416.39987,107.89704 406.97673,111.79207 397.88915,116.29827 394.35039,118.74763 390.49044,120.99011 386.19488,121.77582 378.22087,123.18126 370.06806,123.55086 361.9619,123.52494 360.8964,124.29057 361.71982,126.12366 361.46043,127.32374 361.46043,133.57037 361.46043,139.81699 361.46043,146.06362 362.00267,147.03257 363.53844,146.57605 364.51047,146.79865 371.61483,147.03239 379.034,146.64743 385.45544,143.32271 396.60756,138.15499 405.85496,129.84474 416.07248,123.16022 424.72987,117.32774 434.33559,112.70468 444.7046,111.07625 450.72532,110.13032 456.88656,110.39216 462.96208,110.69371 473.72398,111.74953 484.21472,114.74055 494.37166,118.3857 502.10839,121.28205 509.7955,124.40872 517.15663,128.16182 525.56714,133.45846 532.69031,140.39828 539.92435,147.19289 562.91742,169.18207 584.94318,192.45216 601.77458,219.55305 606.35452,226.97125 610.78814,234.59148 613.61785,242.87541 616.86283,251.56378 618.91924,260.76946 619.0367,270.09144 619.23627,273.32121 618.84193,276.60553 619.29855,279.80504 619.78715,280.82933 621.17667,280.00214 621.06401,279.0494 621.74082,272.57205 621.199,266.0606 620.64437,259.596 620.31547,245.73827 615.62916,232.40512 609.42715,220.15069 599.53591,200.737 586.35535,183.24331 572.69618,166.35599 566.17185,158.20165 558.64131,150.91247 551.04365,143.76922 533.32558,128.09385 512.46245,115.75527 489.75686,108.95319 475.92568,104.65127 461.41156,102.7066 446.93033,102.85908 445.50029,102.83758 443.99159,103.07677 442.82913,102.07163 440.7204,101.09766 438.6063,99.977558 436.34436,99.426888 L 436.24132,99.433788 z"
       inkscape:connector-curvature="0"
       id="path3049"
       style="fill:#73a0a6;stroke:none" />
  </g>
</svg>
