<?xml version="1.0" encoding="UTF-8" standalone="no"?>
<!-- Created with Inkscape (http://www.inkscape.org/) -->

<svg
   xmlns:dc="http://purl.org/dc/elements/1.1/"
   xmlns:cc="http://creativecommons.org/ns#"
   xmlns:rdf="http://www.w3.org/1999/02/22-rdf-syntax-ns#"
   xmlns:svg="http://www.w3.org/2000/svg"
   xmlns="http://www.w3.org/2000/svg"
   xmlns:xlink="http://www.w3.org/1999/xlink"
   xmlns:inkscape="http://www.inkscape.org/namespaces/inkscape"
   version="1.1"
   width="740"
   height="520"
   id="svg2"
   style="display:inline;enable-background:new">
  <defs
     id="defs4">
    <filter
       color-interpolation-filters="sRGB"
       id="filter3050">
      <feBlend
         in2="BackgroundImage"
         mode="lighten"
         id="feBlend3052" />
    </filter>
  </defs>
  <metadata
     id="metadata7">
    <rdf:RDF>
      <cc:Work
         rdf:about="">
        <dc:format>image/svg+xml</dc:format>
        <dc:type
           rdf:resource="http://purl.org/dc/dcmitype/StillImage" />
        <dc:title />
      </cc:Work>
    </rdf:RDF>
  </metadata>
  <g
     id="g5611"
     style="display:none">
    <image
       xlink:href="pngs/coronal-0355.png"
       id="image5613"
       height="520"
       width="740"
       y="0"
       x="0" />
  </g>
  <g
     id="g5619"
     style="display:inline">
    <path
       d="M 415.44541,194.82365 C 417.13855,184.95425 418.51639,173.19707 426.77456,166.53796 436.56787,161.66204 448.97887,160.13209 459.48874,163.44781 470.76463,168.61653 477.5859,180.62235 480.89,192.104 483.62247,203.65552 474.36256,214.16184 468.33471,223.02115"
       inkscape:connector-curvature="0"
       id="path5621"
       style="fill:none;stroke:#0000e9;stroke-width:1;stroke-miterlimit:4;stroke-opacity:1;stroke-dasharray:none;stroke-dashoffset:0" />
    <path
       d="M 429.67351,164.90736 C 421.73451,148.53686 409.29388,141.77763 388.71007,133.2702"
       inkscape:connector-curvature="0"
       id="path5623"
       style="fill:none;stroke:#0000e9;stroke-width:1;stroke-miterlimit:4;stroke-opacity:1;stroke-dasharray:none;stroke-dashoffset:0" />
    <path
       d="M 423.52818,169.33182 C 406.98321,164.56828 387.68152,180.56958 374.40977,195.4454"
       inkscape:connector-curvature="0"
       id="path5625"
       style="fill:none;stroke:#0000e9;stroke-width:1;stroke-miterlimit:4;stroke-opacity:1;stroke-dasharray:none;stroke-dashoffset:0" />
    <path
       d="M 382.49255,204.77169 C 361.61865,194.21677 373.65038,136.78369 386.84482,134.51371 410.47515,112.5963 503.51774,107.57331 526.73904,188.60614 523.73364,213.72484 512.19406,239.91618 481.35114,246.42908"
       inkscape:connector-curvature="0"
       id="path5627"
       style="fill:none;stroke:#0000e9;stroke-width:1;stroke-miterlimit:4;stroke-opacity:1;stroke-dasharray:none;stroke-dashoffset:0" />
    <path
       d="M 482.59464,246.42908 C 460.2226,203.54094 429.88713,181.4896 382.49255,204.40748"
       inkscape:connector-curvature="0"
       id="path5629"
       style="fill:none;stroke:#0000e9;stroke-width:1;stroke-miterlimit:4;stroke-opacity:1;stroke-dasharray:none;stroke-dashoffset:0" />
    <path
       d="M 447.99691,161.77234 C 451.80397,161.85134 455.6724,162.2299 459.27507,163.52142 464.92406,165.88461 469.44559,170.35334 472.96394,175.26051 476.33933,180.01068 478.69387,185.41805 480.47282,190.94131 481.57027,194.26504 481.51127,197.89791 480.67834,201.27514 479.21538,207.28309 475.61064,212.44724 472.16214,217.46353 470.89818,219.21245 469.70251,221.03186 468.39446,222.73571 467.7026,223.21853 467.33482,222.10302 466.92569,221.73581 461.93451,215.61213 456.35772,209.92417 449.8437,205.38237 441.73873,199.6781 432.15122,196.03005 422.25087,195.31579 420.14229,195.1139 418.01759,195.18468 415.91303,195.10615 415.17183,194.84664 415.75277,193.95676 415.73757,193.41073 416.95579,186.52038 417.9688,179.40031 421.39005,173.18609 422.83722,170.64797 424.68308,168.25481 427.05271,166.51976 431.38688,164.33912 436.10863,162.96388 440.90076,162.22916 443.24868,161.88978 445.62491,161.74303 447.99691,161.77234 z"
       inkscape:connector-curvature="0"
       id="path6005"
       style="fill:#84cdcd;stroke:none" />
    <path
       d="M 417.81596,168.54218 C 419.55437,168.58528 421.30073,168.84257 422.97835,169.27378 423.70238,169.64564 423.05125,170.39659 422.72075,170.79537 419.59139,175.34723 417.96438,180.75922 416.95024,186.14204 416.34044,189.04288 415.91506,191.99478 415.32597,194.8891 414.93353,195.48389 414.01234,195.163 413.39743,195.33475 402.56085,196.14758 392.10438,199.74477 382.37644,204.40418 381.52921,204.40618 380.89232,203.65972 380.20913,203.2398 377.75906,201.27569 375.79299,198.65916 374.66548,195.72805 374.66448,194.9497 375.48614,194.48796 375.89939,193.90704 383.57445,185.70254 391.98185,177.89769 402.04369,172.70851 406.91412,170.21385 412.29013,168.47715 417.81596,168.54218 z"
       inkscape:connector-curvature="0"
       id="path6007"
       style="fill:#a9a2da;stroke:none" />
    <path
       d="M 388.65856,133.37401 C 393.31049,135.25623 397.93278,137.23395 402.43092,139.46783 409.0667,142.77908 415.53,146.68581 420.69426,152.07954 424.29008,155.78965 427.29014,160.07796 429.45968,164.76742 429.49808,165.55398 428.45314,165.58302 427.9453,165.92881 426.21618,166.49277 425.19071,168.10541 423.83625,169.19144 423.19059,169.39897 422.51153,168.91462 421.84489,168.87535 416.33978,167.80193 410.62311,168.86425 405.4972,170.97568 397.07436,174.47455 389.79424,180.21747 383.15269,186.38216 380.3015,189.03748 377.63633,191.88733 374.92995,194.68733 374.22884,195.13204 373.91797,194.16863 373.77731,193.66635 371.22797,186.63045 371.0712,179.00943 371.45744,171.61627 372.08007,163.04068 373.85358,154.51434 377.07175,146.53098 378.75131,142.56582 380.79389,138.5169 384.23119,135.78519 384.98227,135.16769 385.89285,134.8042 386.81067,134.54182 387.46056,134.2208 387.91369,133.3919 388.65856,133.37401 z"
       inkscape:connector-curvature="0"
       id="path6009"
       style="fill:#a78875;stroke:none" />
    <path
       d="M 436.37379,120.77886 C 443.18577,120.75106 449.97904,121.62387 456.64212,122.95992 471.9847,126.12427 486.70726,132.8634 498.58122,143.15888 509.56882,152.58612 517.89905,164.9102 523.17279,178.3552 524.50656,181.74397 525.71459,185.1915 526.66247,188.70404 525.23648,200.37152 522.06215,212.0052 515.91221,222.10686 510.83647,230.52317 503.4171,237.56338 494.55808,241.85989 490.84717,243.68016 486.94069,245.059 482.92809,246.00904 482.19666,246.02794 482.07122,245.10203 481.71199,244.63776 477.83647,237.40026 473.51652,230.3827 468.56406,223.82069 468.05091,223.11078 468.96466,222.44704 469.25809,221.85117 472.6917,216.77935 476.52597,211.9031 479.07432,206.28984 481.1748,201.57283 482.24908,196.07194 480.63369,191.06026 478.04869,182.73253 473.87339,174.59376 467.3559,168.64025 464.86677,166.39996 462.06555,164.4411 458.93308,163.22523 449.80424,160.55585 439.8637,161.41031 430.99844,164.6369 430.49425,164.83755 429.70131,165.14542 429.47723,164.40566 426.67391,158.69955 422.81241,153.49665 418.02204,149.32832 410.7874,142.99478 401.94832,138.88249 393.18138,135.1111 391.90664,134.52394 390.54473,134.07111 389.33159,133.38709 388.78413,132.79628 389.69693,132.29486 390.11791,131.9882 397.3886,127.00075 405.94187,124.27934 414.5231,122.56505 420.96755,121.32319 427.53231,120.65616 434.1,120.77543 434.85793,120.77525 435.61586,120.77468 436.37379,120.77843 z"
       inkscape:connector-curvature="0"
       id="path6011"
       style="fill:#7cccd0;stroke:none" />
  </g>
</svg>
