<?xml version="1.0" encoding="UTF-8" standalone="no"?>
<!-- Created with Inkscape (http://www.inkscape.org/) -->

<svg
   xmlns:dc="http://purl.org/dc/elements/1.1/"
   xmlns:cc="http://creativecommons.org/ns#"
   xmlns:rdf="http://www.w3.org/1999/02/22-rdf-syntax-ns#"
   xmlns:svg="http://www.w3.org/2000/svg"
   xmlns="http://www.w3.org/2000/svg"
   xmlns:xlink="http://www.w3.org/1999/xlink"
   xmlns:inkscape="http://www.inkscape.org/namespaces/inkscape"
   version="1.1"
   width="740"
   height="520"
   id="svg2"
   style="display:inline;enable-background:new">
  <defs
     id="defs4">
    <filter
       color-interpolation-filters="sRGB"
       id="filter3050">
      <feBlend
         in2="BackgroundImage"
         mode="lighten"
         id="feBlend3052" />
    </filter>
  </defs>
  <metadata
     id="metadata7">
    <rdf:RDF>
      <cc:Work
         rdf:about="">
        <dc:format>image/svg+xml</dc:format>
        <dc:type
           rdf:resource="http://purl.org/dc/dcmitype/StillImage" />
        <dc:title />
      </cc:Work>
    </rdf:RDF>
  </metadata>
  <g
     id="g1160"
     style="display:none">
    <image
       xlink:href="pngs/coronal-0781.png"
       id="image1162"
       height="520"
       width="740"
       y="0"
       x="0" />
  </g>
  <g
     id="g1168"
     style="display:inline">
    <path
       d="M 466.42908,153.78802 C 458.73427,154.60053 461.14876,145.63246 453.37229,141.97473 449.66199,138.71132 445.32631,136.21267 440.93725,133.2702 435.03229,129.19893 427.90162,126.2823 421.04118,124.56567 413.97166,122.6235 406.72581,121.10008 399.90161,117.7264 396.03639,115.63538 389.71212,112.87268 386.84482,109.64362 383.06522,105.95275 380.90062,103.71718 378.14029,97.830335 373.91406,88.854974 369.93729,81.575304 370.05751,71.716748 371.53963,67.786983 373.73769,64.739375 375.65328,61.768714 378.63488,59.639046 379.42229,54.927133 382.49255,52.442433 384.02407,49.453484 386.53451,48.778347 389.33182,46.224912 393.17452,44.677375 396.5894,40.407864 401.76686,39.385639 411.02771,36.573228 424.49597,37.771868 435.96323,37.520383 445.23489,39.490398 455.49832,39.847482 464.56383,42.4944 473.78121,44.483359 482.33642,46.058947 491.36908,48.845329 495.40232,49.490574 505.41437,52.830426 511.81699,54.307689 518.76335,57.305698 527.39674,58.440867 533.78678,62.483362 540.63622,64.282385 549.01838,68.364342 554.09613,70.473243 558.33113,72.900162 563.78303,74.977915 568.39642,76.069012 573.79419,78.641718 579.28365,81.347559 585.18373,84.151789 592.58221,89.432503 600.59603,96.108983 609.44089,99.758465 613.71786,102.337 620.00258,106.16205 624.63009,109.57693 628.61397,112.32167 634.97461,118.79743 639.89791,121.45691 646.61019,128.02979 655.97411,135.63804 660.41573,141.35298 664.31245,144.98716 669.22697,152.06936 672.85078,157.51854 676.27738,161.78419 678.17825,168.06075 681.5553,171.81883 685.09733,177.85003 687.43946,183.46624 690.25983,189.84964 692.57496,195.19104 693.40908,201.94011 696.47735,208.50221 698.99094,219.67482 699.98082,232.79336 697.72086,244.25295 696.12883,251.64291 697.28767,262.29855 693.36859,267.56865 688.16181,271.43361 689.77452,277.96879 692.12509,283.11246 694.46867,291.92745 691.2384,301.50382 688.39458,307.98254 685.68737,314.04458 685.9422,323.91444 679.9557,327.0346 682.54519,331.62046 676.86145,336.07296 676.25146,339.7455 673.94863,343.5323 671.68907,347.71357 669.65678,353.3745 667.30485,357.87589 665.83099,362.35314 663.63831,366.52534 661.13628,373.24007 657.24042,377.58467 653.87671,383.02587 652.42143,384.9973 650.54097,388.19151 648.55381,390.30469 646.37456,393.9505 643.72984,396.30171 641.51949,398.65795 639.51953,401.06332 636.41306,405.34435 634.04553,407.0112 629.41537,412.18527 625.12761,411.76328 618.65795,413.16624 612.21137,415.02558 608.77385,409.65704 604.14966,411.8473 601.3084,413.91899 597.16361,415.1027 593.59817,417.12304 587.60607,420.12049 580.00155,419.99129 572.93485,418.88162 570.92749,416.29581 566.11801,416.21143 562.38337,414.48517 560.05682,412.51533 559.04997,412.95513 555.78869,411.8473 554.31284,410.17265 550.6384,408.75822 549.52053,407.69201 545.395,405.95115 541.5524,403.45829 538.20289,400.41653 534.32864,397.99873 530.21564,394.571 526.77212,390.30469 525.66118,388.82174 524.29648,387.45804 522.81531,386.34788"
       inkscape:connector-curvature="0"
       id="path1170"
       style="fill:none;stroke:#e20000;stroke-opacity:1" />
    <path
       d="M 539.96147,130.91407 C 538.39935,128.86823 545.64444,132.97108 547.43544,134.43123 551.2989,135.80663 554.85059,137.77682 557.98692,139.70697 562.23627,142.20726 564.5946,142.94229 569.41769,144.98271 572.59699,146.45063 574.73602,147.84203 577.77095,149.37916 580.10355,151.80144 584.41535,154.15089 586.12421,155.97384 588.31179,158.26028 593.21063,160.47725 594.91711,163.44781 596.88955,166.05016 598.46343,167.43855 600.60149,170.52727 603.74095,174.34303 608.03847,177.9214 610.74433,181.9129 613.05063,184.57816 614.57628,187.49152 616.02008,189.82651 619.22051,193.32547 620.89948,196.81286 623.0544,199.05906 624.98386,201.96563 626.77589,205.29303 627.89049,208.73125 629.5274,212.09979 631.802,215.88618 632.28695,220.16203 634.34942,223.51475 634.17788,229.19406 635.80411,233.79103 636.95248,239.9705 638.7156,245.20402 638.44198,251.90122 638.35548,258.70239 638.3309,265.56051 637.12304,271.60051 637.22545,277.5053 635.39929,282.41305 633.60588,286.54844 631.53069,289.29504 630.76871,292.69493 628.76978,296.22063 627.24416,299.57718 625.89773,303.09704 623.93369,305.45318 623.09611,308.44479 620.7802,310.18374 619.53724,312.04786 618.12249,313.9574 616.49083,315.74848 615.58043,317.76324 613.93601,319.3764 612.39231,322.55597 611.18398,324.35792 609.42459,326.48855 606.88342,329.56013 604.5893,331.83189 602.61849,333.63112 601.03288,334.2771 599.75321,336.22834 597.57278,337.31687 596.69951,339.59129 593.59817,340.62479 591.28802,342.61459 587.55733,343.84491 585.68456,345.46089 581.90328,346.42598 579.19972,349.13441 576.01237,350.29698 573.34345,353.09573 569.17952,353.39228 567.21947,355.57272 565.2062,356.78105 561.54261,358.02999 559.30585,359.52953 557.21648,360.80303 552.98985,362.66939 552.71118,364.80527 553.9605,367.40728 559.82395,364.63433 561.94373,363.04669 564.63175,361.92082 566.69635,360.51949 569.85734,359.52953 573.42833,357.76963 575.99311,357.29758 578.65024,355.13308 581.58099,353.77373 583.98141,352.68588 585.68456,351.17627 588.50231,349.99622 589.74728,348.18559 593.03488,346.18905 594.75708,345.13591 597.68595,344.34552 598.87392,342.38337 600.86902,341.47361 601.66603,339.22732 604.14966,337.98692 605.83956,336.18366 608.19773,334.5986 610.30469,332.27153 612.64338,329.70588 613.5482,327.93083 615.58043,326.1165 616.83661,324.51847 618.35828,321.96548 619.53724,319.96147 621.50714,317.02461 622.51031,315.05283 624.37333,312.4875 625.57348,310.98895 626.19337,310.23843 627.45085,308.5307 628.70261,306.45679 629.9882,303.41998 630.96801,302.37566 632.21854,299.53481 634.06352,297.08883 634.92482,294.02241 637.42495,288.72135 638.95387,284.46082 641.07985,279.95376 643.85679,274.1755 643.76214,267.46495 644.65324,260.19594 644.43992,250.99505 643.93113,242.60817 641.95914,234.67032 641.42076,229.62894 639.90928,224.57731 638.44198,220.16203 636.65712,215.89124 635.4173,210.86138 632.72659,206.53303 631.51221,202.8729 629.22591,199.21524 627.45085,195.10225 625.4003,192.50535 623.6365,188.81425 621.73546,185.86971 619.42063,182.49264 616.97554,177.40296 614.2615,175.31822 612.76998,172.30018 610.37253,169.44348 608.10646,166.52532 606.03659,164.7448 601.97406,160.04133 600.6325,158.61171 598.29575,157.0774 595.95872,153.45431 593.15853,151.57739 590.99881,149.67969 589.11127,147.74292 587.0035,145.862 585.08199,144.26794 581.42979,141.91518 579.08989,140.58626 576.71478,138.39441 573.37326,136.30265 571.17627,134.43123 568.91557,133.15156 567.48089,131.477 564.5816,130.47442 562.21297,128.78099 558.04979,126.8229 554.9094,125.63833 550.54936,124.434 547.36176,122.3032 542.1597,120.80223 537.11399,119.40925 533.70506,116.88147 528.97034,116.40578 525.51114,114.58691 520.497,113.86385 516.22063,112.44897 510.94974,111.95315 506.58317,109.36644 501.71234,108.93181 497.75404,107.5718 492.92025,107.00208 489.84193,104.975 485.99841,103.9792 482.48095,101.35357 477.97151,100.57855 476.91147,99.684113 472.47684,97.953942 469.61825,97.061392 466.96721,95.155797 465.72022,94.422534 462.58393,92.664941 460.1342,90.875654 458.0553,88.674746 454.67032,86.949555 452.31903,84.528683 446.26343,83.184553 441.92061,84.751329 439.44397,87.97283 438.4742,89.020989 441.06683,90.800108 441.32706,92.318609 443.34985,94.968519 445.71141,98.109228 446.94239,101.17448 451.86217,101.57137 451.18538,105.06019 453.22517,110.45517 456.2224,114.91695 457.54961,120.36258 458.23661,124.13053 460.33495,125.83231 461.94606,127.83655 464.13655,129.16053 466.25145,130.56594 468.73896,131.79336 470.99027,130.89633 473.26565,128.66172 475.09222,127.39691 477.00831,124.33876 480.90861,121.8701 485.00583,120.12116 487.89518,121.40421 491.91387,118.38647 496.87625,119.04365 501.55007,120.51984 507.54941,121.28892 512.26383,123.00045 517.69209,123.90107 521.43012,125.48935 526.77212,126.51762 530.55296,128.1364 533.56594,129.47907 537.76324,130.47442 543.86193,131.71326 533.37945,129.86715 539.96147,130.91407 z"
       inkscape:connector-curvature="0"
       id="path1172"
       style="opacity:0.6;fill:none;stroke:#e20000;stroke-opacity:1" />
    <path
       d="M 624.81298,196.42119 C 623.80508,198.27414 622.87462,194.32041 621.73546,193.34367 619.98684,191.53245 618.68415,188.4513 616.89937,185.86971 615.21569,182.645 613.22229,180.90651 611.62362,177.51645 609.30736,175.17881 609.17845,174.80874 607.22717,173.12 605.44834,170.38837 602.65466,167.24299 601.07214,165.64603 600.167,162.93418 596.59217,161.01173 595.7964,159.05135 593.86685,157.46822 590.69067,154.23008 587.88279,152.45668 585.19564,149.02942 580.79415,146.24398 576.89166,144.10342 573.86227,142.60314 570.80249,140.32493 567.65911,139.26732 564.10396,137.25078 562.5089,135.45036 558.86621,133.99158 555.32961,131.79669 552.37837,130.61135 549.21461,128.68728 545.97991,127.63806 543.72806,126.3959 541.30099,125.17012 537.71095,123.62468 535.08503,123.09133 531.58762,121.27044 528.45232,119.93426 524.91092,118.76784 521.25322,117.75116 518.27993,116.86078 514.37469,115.15029 510.50525,114.6472 506.7866,113.25363 502.75098,112.62532 499.07447,111.13004 495.51391,110.70934 492.47337,109.03319 488.96264,108.49217 486.03465,107.14975 482.32805,106.93555 479.73009,105.41465 477.25159,104.81067 474.46134,103.74589 472.05963,102.75034 468.3311,101.9137 464.56299,99.313602 461.26499,96.621747 457.42122,93.76563 453.89622,90.536757 448.07564,91.785651 444.60381,93.556331 449.8724,96.263858 449.83422,98.380328 451.68029,100.42253 454.1066,103.2587 455.54961,105.41465 457.28146,107.05581 458.58511,109.88981 460.3857,111.13004 461.56677,114.20212 466.51919,114.82857 469.1786,113.32826 473.9734,112.01685 478.61494,111.60153 483.24725,112.88862 485.21498,114.2833 488.86118,114.48895 491.16086,115.52649 494.92176,115.78333 499.22726,116.33831 502.37181,117.28507 505.42363,118.01342 509.23885,118.76132 513.07442,118.96122 517.45549,120.94029 522.04379,121.42478 526.51045,122.18923 528.82554,122.22603 536.58601,122.92373 534.24608,123.00045 534.53377,123.69096 535.47905,123.47396 536.00466,123.4401"
       inkscape:connector-curvature="0"
       id="path1174"
       style="opacity:0.6;fill:none;stroke:#e20000;stroke-opacity:1" />
    <path
       d="M 439.69374,85.395286 389.95357,48.09016"
       inkscape:connector-curvature="0"
       id="path1176"
       style="fill:none;stroke:#0000e9;stroke-width:0.99000001;stroke-miterlimit:4;stroke-opacity:1;stroke-dasharray:none;stroke-dashoffset:0" />
    <path
       d="M 453.99404,86.63879 432.23271,35.655119"
       inkscape:connector-curvature="0"
       id="path1178"
       style="fill:none;stroke:#0000e9;stroke-width:0.99000001;stroke-miterlimit:4;stroke-opacity:1;stroke-dasharray:none;stroke-dashoffset:0" />
    <path
       d="M 459.58981,89.747551 472.6466,43.116144"
       inkscape:connector-curvature="0"
       id="path1180"
       style="fill:none;stroke:#0000e9;stroke-width:0.99000001;stroke-miterlimit:4;stroke-opacity:1;stroke-dasharray:none;stroke-dashoffset:0" />
    <path
       d="M 524.25202,113.99588 541.03933,63.012211"
       inkscape:connector-curvature="0"
       id="path1182"
       style="fill:none;stroke:#0000e9;stroke-width:0.99000001;stroke-miterlimit:4;stroke-opacity:1;stroke-dasharray:none;stroke-dashoffset:0" />
    <path
       d="M 568.39642,130.78319 590.7795,86.63879"
       inkscape:connector-curvature="0"
       id="path1184"
       style="fill:none;stroke:#0000e9;stroke-width:0.99000001;stroke-miterlimit:4;stroke-opacity:1;stroke-dasharray:none;stroke-dashoffset:0" />
    <path
       d="M 589.53599,148.19225 621.8671,107.15661"
       inkscape:connector-curvature="0"
       id="path1186"
       style="fill:none;stroke:#0000e9;stroke-width:0.99000001;stroke-miterlimit:4;stroke-opacity:1;stroke-dasharray:none;stroke-dashoffset:0" />
    <path
       d="M 608.81031,166.84481 655.44172,134.5137"
       inkscape:connector-curvature="0"
       id="path1188"
       style="fill:none;stroke:#0000e9;stroke-width:0.99000001;stroke-miterlimit:4;stroke-opacity:1;stroke-dasharray:none;stroke-dashoffset:0" />
    <path
       d="M 631.19338,202.28468 682.17705,171.81883"
       inkscape:connector-curvature="0"
       id="path1190"
       style="fill:none;stroke:#0000e9;stroke-width:0.99000001;stroke-miterlimit:4;stroke-opacity:1;stroke-dasharray:none;stroke-dashoffset:0" />
    <path
       d="M 640.51967,224.66776 695.8556,204.14994"
       inkscape:connector-curvature="0"
       id="path1192"
       style="fill:none;stroke:#0000e9;stroke-width:0.99000001;stroke-miterlimit:4;stroke-opacity:1;stroke-dasharray:none;stroke-dashoffset:0" />
    <path
       d="M 643.62842,251.4031 695.8556,250.78134"
       inkscape:connector-curvature="0"
       id="path1194"
       style="fill:none;stroke:#0000e9;stroke-width:0.99000001;stroke-miterlimit:4;stroke-opacity:1;stroke-dasharray:none;stroke-dashoffset:0" />
    <path
       d="M 643.62842,272.54267 689.01633,276.89493"
       inkscape:connector-curvature="0"
       id="path1196"
       style="fill:none;stroke:#0000e9;stroke-width:0.99000001;stroke-miterlimit:4;stroke-opacity:1;stroke-dasharray:none;stroke-dashoffset:0" />
    <path
       d="M 633.05864,298.0345 689.63808,306.73903"
       inkscape:connector-curvature="0"
       id="path1198"
       style="fill:none;stroke:#0000e9;stroke-width:0.99000001;stroke-miterlimit:4;stroke-opacity:1;stroke-dasharray:none;stroke-dashoffset:0" />
    <path
       d="M 616.27133,322.28283 670.98552,349.01817"
       inkscape:connector-curvature="0"
       id="path1200"
       style="fill:none;stroke:#0000e9;stroke-width:0.99000001;stroke-miterlimit:4;stroke-opacity:1;stroke-dasharray:none;stroke-dashoffset:0" />
    <path
       d="M 593.88826,345.28766 656.06347,379.48403"
       inkscape:connector-curvature="0"
       id="path1202"
       style="fill:none;stroke:#0000e9;stroke-width:0.99000001;stroke-miterlimit:4;stroke-opacity:1;stroke-dasharray:none;stroke-dashoffset:0" />
    <path
       d="M 371.30101,78.556013 450.26352,105.91311 412.9584,120.83516"
       inkscape:connector-curvature="0"
       id="path1204"
       style="fill:none;stroke:#0000e9;stroke-width:0.99000001;stroke-miterlimit:4;stroke-opacity:1;stroke-dasharray:none;stroke-dashoffset:0" />
    <path
       d="M 441.55899,132.64845 C 442.18075,131.81944 444.25325,130.78319 443.42425,130.16144 442.59525,129.53968 440.82625,133.38119 441.55899,132.64845 442.49736,131.71008 443.10764,130.47805 444.046,129.53968 445.33243,128.25326 443.9957,131.50552 445.28951,128.91793 445.38221,128.73256 445.14296,128.44273 445.28951,128.29618 445.43606,128.14963 445.76471,128.44273 445.91126,128.29618 446.05781,128.14963 445.76471,127.82098 445.91126,127.67443 446.05781,127.52788 446.38646,127.82098 446.53301,127.67443 446.67956,127.52788 446.44031,127.23805 446.53301,127.05268 446.86692,126.38485 447.4426,126.477 447.77652,125.80917 447.86922,125.6238 447.62997,125.33397 447.77652,125.18742 447.92306,125.04087 448.2129,125.28012 448.39827,125.18742 448.66042,125.05634 448.75787,124.69674 449.02002,124.56567 449.20539,124.47297 449.49522,124.71222 449.64177,124.56567 449.78832,124.41912 449.49522,124.09046 449.64177,123.94392 449.93487,123.65082 450.59218,124.23701 450.88528,123.94392 451.03182,123.79737 450.73873,123.46871 450.88528,123.32216 450.92228,123.28516 454.822,123.32216 455.23754,123.32216 455.65204,123.32216 456.18795,123.02907 456.48105,123.32216 456.62759,123.46871 456.3345,123.79737 456.48105,123.94392 456.62759,124.09046 456.95625,123.79737 457.1028,123.94392 457.24935,124.09046 456.95625,124.41912 457.1028,124.56567 457.24935,124.71222 457.578,124.41912 457.72455,124.56567 458.01765,124.85876 457.43145,125.51608 457.72455,125.80917 457.8711,125.95572 458.19975,125.66262 458.3463,125.80917 458.76099,126.22386 457.93161,126.63799 458.3463,127.05268 458.49285,127.19922 458.82151,126.90613 458.96805,127.05268 459.27893,127.36355 458.65718,128.60706 458.96805,128.91793 459.1146,129.06448 459.44326,128.77138 459.58981,128.91793 459.8829,129.21103 459.29671,129.86834 459.58981,130.16144 459.73635,130.30799 460.06501,130.01489 460.21156,130.16144 460.35811,130.30799 460.06501,130.63664 460.21156,130.78319 460.35811,130.92974 460.68676,130.63664 460.83331,130.78319 460.97986,130.92974 460.74061,131.21957 460.83331,131.40494 462.1271,133.99252 460.79041,130.74027 462.07681,132.02669 462.22336,132.17324 461.93027,132.5019 462.07681,132.64845 462.22336,132.79499 462.55202,132.5019 462.69857,132.64845 462.99166,132.94154 462.40547,133.59885 462.69857,133.89195 462.84511,134.0385 463.17377,133.7454 463.32032,133.89195 463.46687,134.0385 463.17377,134.36715 463.32032,134.5137 463.46687,134.66025 463.79552,134.36715 463.94207,134.5137 464.08862,134.66025 463.84937,134.95008 463.94207,135.13545 464.07315,135.39761 464.43275,135.49505 464.56382,135.75721 464.65652,135.94258 464.41727,136.23241 464.56382,136.37896 464.71037,136.52551 465.03903,136.23241 465.18557,136.37896 465.47867,136.67205 464.89248,137.32937 465.18557,137.62246 465.33212,137.76901 465.66078,137.47591 465.80733,137.62246 465.95387,137.76901 465.66078,138.09767 465.80733,138.24421 465.95387,138.39076 466.28253,138.09767 466.42908,138.24421 466.72218,138.53731 466.13598,139.19462 466.42908,139.48772 467.02585,140.08449 467.05083,138.93235 467.05083,140.73122 467.05083,141.14572 466.75773,141.68163 467.05083,141.97473 467.19738,142.12128 467.52603,141.82818 467.67258,141.97473 467.84674,142.14888 467.79977,144.82912 467.67258,145.08349 467.54151,145.34564 467.18191,145.44309 467.05083,145.70524 466.86313,146.08064 467.33824,147.28308 467.05083,147.5705 466.90428,147.71704 466.57563,147.42395 466.42908,147.5705 466.13598,147.86359 466.42908,148.3995 466.42908,148.814 466.42908,150.47201 466.63633,148.60675 465.80733,149.43575 465.51423,149.72885 466.10042,150.38616 465.80733,150.67926 465.51423,150.97235 464.85692,150.38616 464.56382,150.67926 464.41727,150.8258 464.71037,151.15446 464.56382,151.30101 464.41727,151.44756 464.08862,151.15446 463.94207,151.30101 463.79552,151.44756 464.08862,151.77621 463.94207,151.92276 463.79552,152.06931 463.50569,151.83006 463.32032,151.92276 461.54402,152.81091 463.94036,153.16626 461.45506,153.16626"
       inkscape:connector-curvature="0"
       id="path1206"
       style="fill:none;stroke:#0000e9;stroke-width:0.99000001;stroke-miterlimit:4;stroke-opacity:1;stroke-dasharray:none;stroke-dashoffset:0" />
    <path
       d="M 469.53784,130.78319 C 474.69649,128.33309 468.07899,131.38978 469.53784,133.89195 465.6921,138.43284 466.57066,146.90442 472.36872,147.5331 477.38326,148.94734 484.74754,149.57452 490.5414,149.88263 495.12877,152.28026 502.09009,149.40273 507.46472,151.16626 515.0948,153.86042 519.28466,155.46841 526.11728,158.00554 530.09718,158.75684 534.26407,159.85582 538.01772,161.85539 540.95222,162.4424 545.924,166.73511 547.82413,167.89519 553.49021,171.52144 561.3673,175.77135 567.74903,181.19753 572.55202,184.04579 577.72807,189.07225 582.06621,192.78554 587.12812,198.11514 593.46836,203.66436 596.99702,210.36746 601.19652,215.21425 601.94353,221.42008 604.45804,227.15476 605.38012,235.28716 608.18514,244.26363 605.0798,252.6466 604.34204,261.03631 602.38193,269.3084 598.24052,276.27318 595.63541,281.30057 594.14946,287.04934 590.7264,291.32412 589.24866,296.36198 584.60168,301.27232 581.45322,304.87378 576.03793,310.61037 573.01965,317.58174 566.53117,321.66108 561.29282,325.66659 555.74397,330.47262 549.74386,332.85262 546.69978,337.68304 544.30314,338.50404 541.57635,342.0166 539.16236,344.83844 538.41248,344.92627 535.88825,347.15569 533.63158,349.26771 526.90226,355.03396 525.49553,357.7227 521.79182,360.8535 520.75109,363.44139 518.0345,366.42723 515.02907,370.68408 514.20413,375.83696 516.16925,381.34928 518.2448,382.85294 520.65703,385.12402 522.38686,386.3233"
       inkscape:connector-curvature="0"
       id="path1208"
       style="fill:none;stroke:#0000e9;stroke-width:0.99000001;stroke-miterlimit:4;stroke-opacity:1;stroke-dasharray:none;stroke-dashoffset:0" />
    <path
       d="M 590.7795,237.1028 C 585.38243,289.23305 541.96338,329.2654 501.2472,370.15775"
       inkscape:connector-curvature="0"
       id="path1210"
       style="fill:none;stroke:#0000e9;stroke-width:0.99000001;stroke-miterlimit:4;stroke-opacity:1;stroke-dasharray:none;stroke-dashoffset:0" />
    <path
       d="M 584.56198,396.27133 C 585.39098,395.64958 586.21998,395.02783 587.04898,394.40608 587.04898,394.19883 586.90244,393.93087 587.04898,393.78432 587.19553,393.63778 587.52419,393.93087 587.67074,393.78432 587.81729,393.63778 587.52419,393.30912 587.67074,393.16257 587.81729,393.01602 588.14594,393.30912 588.29249,393.16257 588.43904,393.01602 588.14594,392.68737 588.29249,392.54082 588.43904,392.39427 588.76769,392.68737 588.91424,392.54082 589.06079,392.39427 588.76769,392.06562 588.91424,391.91907 589.06079,391.77252 589.38944,392.06562 589.53599,391.91907 589.68254,391.77252 589.38944,391.44386 589.53599,391.29732 589.68254,391.15077 590.0112,391.44386 590.15775,391.29732 590.30429,391.15077 590.0112,390.82211 590.15775,390.67556 590.45084,390.38247 591.03051,390.86094 591.40125,390.67556 591.6634,390.54449 591.76085,390.18489 592.023,390.05381 592.3984,389.86611 593.60084,390.34123 593.88826,390.05381 594.03481,389.90726 593.74171,389.57861 593.88826,389.43206 594.18135,389.13896 594.71726,389.43206 595.13176,389.43206 596.05393,389.43206 599.45092,389.10463 600.10578,389.43206 600.36793,389.56314 600.46538,389.92274 600.72753,390.05381 601.55653,390.46831 603.00729,389.63931 603.83629,390.05381 604.09845,390.18489 604.19589,390.54449 604.45804,390.67556 604.95545,390.92427 605.8259,390.42686 606.3233,390.67556 606.58545,390.80664 606.6829,391.16624 606.94505,391.29732 607.31579,391.48269 607.81781,391.11195 608.18856,391.29732 608.45071,391.42839 608.54815,391.78799 608.81031,391.91907 609.18105,392.10444 609.68307,391.7337 610.05381,391.91907 610.31597,392.05015 610.41341,392.40974 610.67556,392.54082 611.04631,392.72619 611.54833,392.35545 611.91907,392.54082 612.64333,392.90295 613.06006,393.42219 613.78432,393.78432 613.9697,393.87702 614.22071,393.69162 614.40608,393.78432 614.66823,393.9154 614.76568,394.275 615.02783,394.40608 615.2132,394.49878 615.46421,394.31338 615.64958,394.40608 619.25984,396.21121 613.28283,393.84445 616.89309,395.64958 617.07846,395.74228 617.30759,395.64958 617.51484,395.64958 617.72209,395.85683 617.87444,396.14026 618.13659,396.27133 618.32196,396.36403 618.61179,396.12478 618.75834,396.27133 618.90489,396.41788 618.61179,396.74654 618.75834,396.89309 618.90489,397.03963 619.19472,396.80039 619.38009,396.89309 621.44219,398.95518 618.7939,396.59999 620.6236,397.51484 621.14791,397.77699 621.4526,398.34384 621.8671,398.75834 622.74153,399.63277 623.87931,401.31883 624.97586,401.8671 625.16123,401.9598 625.45107,401.72055 625.59761,401.8671 625.74416,402.01365 625.45107,402.34231 625.59761,402.48885 625.74416,402.6354 626.07282,402.34231 626.21937,402.48885 626.36592,402.6354 626.07282,402.96406 626.21937,403.11061 626.36592,403.25715 626.69457,402.96406 626.84112,403.11061 626.98767,403.25715 626.69457,403.58581 626.84112,403.73236 626.98767,403.87891 627.31632,403.58581 627.46287,403.73236 628.7493,405.01879 625.49704,403.68206 628.08462,404.97586 629.74263,404.97586 627.87737,404.76861 628.70638,405.59761 628.85292,405.74416 629.18158,405.45107 629.32813,405.59761 629.47468,405.74416 629.23543,406.034 629.32813,406.21937 629.4592,406.48152 629.8188,406.57897 629.94988,406.84112 630.04258,407.02649 629.80333,407.31632 629.94988,407.46287 630.09643,407.60942 630.42508,407.31632 630.57163,407.46287 630.71818,407.60942 630.42508,407.93807 630.57163,408.08462 630.71818,408.23117 631.04684,407.93807 631.19338,408.08462 631.33993,408.23117 631.04684,408.55983 631.19338,408.70638 631.33993,408.85292 631.66859,408.55983 631.81514,408.70638 631.96168,408.85292 631.60788,409.32813 631.81514,409.32813 632.02239,409.32813 631.96168,408.85292 631.81514,408.70638 631.52204,408.41328 630.94237,408.89175 630.57163,408.70638 630.30948,408.5753 630.15713,408.29187 629.94988,408.08462"
       inkscape:connector-curvature="0"
       id="path1212"
       style="fill:none;stroke:#0000e9;stroke-width:0.99000001;stroke-miterlimit:4;stroke-opacity:1;stroke-dasharray:none;stroke-dashoffset:0" />
    <path
       d="M 564.66591,361.45322 C 581.29314,362.12349 589.62394,377.63632 600.72753,388.18856"
       inkscape:connector-curvature="0"
       id="path1214"
       style="fill:none;stroke:#0000e9;stroke-width:0.99000001;stroke-miterlimit:4;stroke-opacity:1;stroke-dasharray:none;stroke-dashoffset:0" />
    <path
       d="M 529.22604,391.91907 C 561.50413,363.41369 597.52685,402.48683 589.53599,416.78915"
       inkscape:connector-curvature="0"
       id="path1216"
       style="fill:none;stroke:#0000e9;stroke-width:0.99000001;stroke-miterlimit:4;stroke-opacity:1;stroke-dasharray:none;stroke-dashoffset:0" />
    <path
       d="M 554.64121,382.3494 C 570.03858,382.93089 584.97032,393.53876 589.5759,408.36584 589.96108,411.53469 590.85419,415.85946 588.42955,418.35273 583.37152,419.89878 577.57099,419.23073 572.47772,417.98357 567.78544,415.52552 562.56636,414.05632 557.69168,411.96035 554.70408,411.39589 552.6222,408.49209 549.68662,407.47207 542.72717,403.27432 535.76362,398.65683 529.84884,393.13291 530.48865,389.82421 534.78169,388.54817 537.29349,386.79484 542.58529,383.85415 548.54867,382.07973 554.64121,382.3494 z"
       inkscape:connector-curvature="0"
       id="path1218"
       style="fill:#d764c6;stroke:none" />
    <path
       d="M 597.87241,390.00472 C 610.55582,390.66344 622.18372,397.94129 629.58176,407.97725 630.57219,411.00175 625.74305,411.11282 623.90477,411.76985 619.18251,412.99955 614.32674,413.76492 609.70513,411.74665 606.30439,410.75088 602.93269,411.60542 600.12626,413.6119 596.80807,415.20961 593.47244,416.85758 590.02279,418.13904 588.70661,416.78613 591.40245,414.88895 590.74169,413.12616 590.76209,407.39149 588.30088,401.93512 584.93219,397.3492 587.6646,393.6138 592.6932,389.39764 597.87241,390.00475 z"
       inkscape:connector-curvature="0"
       id="path1220"
       style="fill:#81728f;stroke:none" />
    <path
       d="M 594.02532,346.28778 C 614.3816,356.79564 634.51702,367.87962 654.41299,379.26007 655.29975,381.70007 652.20299,383.98818 651.23992,386.10409 645.58902,393.66401 639.81083,401.36194 632.69052,407.53036 630.72057,407.9016 629.93154,405.74045 629.46518,404.47989 627.36755,403.97794 626.77351,401.29683 624.60775,400.80767 618.3679,394.90882 610.41149,390.74917 601.89437,389.55784 599.67142,389.68483 600.25421,386.78023 598.51359,385.82733 590.38848,376.49633 582.32351,365.78935 569.99071,361.81215 568.80905,359.84395 572.74814,359.0926 573.86677,358.09953 580.70887,354.68711 587.51304,350.82721 593.52014,346.30721 593.68852,346.30321 593.85732,346.23581 594.02532,346.28781 z"
       inkscape:connector-curvature="0"
       id="path1222"
       style="fill:#e1d672;stroke:none" />
    <path
       d="M 618.1765,323.90471 C 635.80159,332.02807 653.29106,340.59519 670.46196,349.6297 670.09892,353.46726 667.18775,357.06878 665.86105,360.76047 662.8074,366.80022 660.27003,373.1796 656.23938,378.65775 651.53705,377.28928 647.11885,373.78845 642.52272,371.62297 627.13651,363.05421 611.51741,354.80024 596.31803,345.95748 596.30693,343.81266 599.66344,343.2382 600.7352,341.50918 606.84313,336.1201 612.62321,330.20952 617.76847,323.94357 617.89569,323.88557 618.04195,323.86577 618.1765,323.90467 z"
       inkscape:connector-curvature="0"
       id="path1224"
       style="fill:#939f6c;stroke:none" />
    <path
       d="M 635.04152,298.64603 C 652.4704,301.48159 670.04092,303.97796 687.44357,306.78709 688.7477,308.50205 686.41727,311.55192 686.3555,313.6458 685.04745,318.51743 683.71494,323.72128 679.65224,327.01347 681.36064,330.78897 677.79048,334.50053 676.57871,337.95696 674.74102,341.40623 673.25566,345.20876 670.86999,348.28905 654.73352,341.16525 638.91744,332.82243 622.98387,325.08213 621.64436,323.99672 617.10022,323.52563 619.38114,321.06796 624.38212,314.0069 628.46701,306.21361 633.48714,299.17063 633.88976,298.75968 634.47052,298.55074 635.04152,298.64603 z"
       inkscape:connector-curvature="0"
       id="path1226"
       style="fill:#ba9676;stroke:none" />
    <path
       d="M 647.74858,273.46507 C 661.73529,274.53512 675.8318,275.61435 689.65856,277.7979 694.29082,286.4215 692.22177,297.00225 688.93966,305.6796 686.07347,306.97744 682.61491,304.74561 679.56847,304.87127 664.60035,302.49814 649.5895,300.36491 634.65293,297.81055 633.69877,295.81952 636.24773,293.34887 636.5591,291.25715 638.86935,285.58738 641.55077,279.89513 643.35746,274.12568 644.57307,273.20607 646.3087,273.49392 647.74858,273.46507 z"
       inkscape:connector-curvature="0"
       id="path1228"
       style="fill:#9b7d71;stroke:none" />
    <path
       d="M 696.65327,251.70375 C 695.58591,257.74512 695.98564,264.81282 691.13522,269.36539 688.99151,271.23171 691.13412,275.06322 688.66764,276.3601 674.02928,275.24213 659.27215,274.00608 644.73697,272.12442 642.73541,269.93919 645.06726,266.31171 644.52324,263.65304 645.01283,259.8121 644.06626,255.4697 645.22271,251.95633 662.19258,251.42799 679.16881,251.03725 696.1481,251.14028 L 696.56314,251.60322 696.65327,251.70375 z"
       inkscape:connector-curvature="0"
       id="path1230"
       style="fill:#c1dfbe;stroke:none" />
    <path
       d="M 694.88516,205.51922 C 698.84848,216.86576 698.51289,229.25372 697.85791,241.11453 697.00087,243.96684 697.99306,248.7725 695.50737,250.27032 678.65776,250.89627 661.789,250.53358 644.93127,250.59625 643.51291,246.45954 643.90366,241.45804 642.75992,237.03253 642.33513,233.02239 640.62337,228.85243 640.87045,224.96841 658.64295,218.32306 676.39301,211.60035 694.26341,205.22778 L 694.82638,205.49167 694.88516,205.51917 z"
       inkscape:connector-curvature="0"
       id="path1232"
       style="fill:#768e99;stroke:none" />
    <path
       d="M 681.71179,173.16869 C 686.99629,182.97451 691.92882,193.3466 694.06911,204.27572 676.46966,211.21203 658.5595,217.69912 640.73444,224.13293 638.40161,222.17497 638.67634,218.19691 637.03943,215.59049 635.83249,211.2978 633.08566,207.4392 631.8939,203.26537 635.12032,199.41605 640.43842,197.65537 644.52324,194.73571 656.67052,187.45557 668.85096,180.23097 681.01232,172.97439 L 681.61139,173.1408 681.71179,173.1687 z"
       inkscape:connector-curvature="0"
       id="path1234"
       style="fill:#9970bd;stroke:none" />
    <path
       d="M 654.72386,136.17444 C 665.06457,145.95756 673.46773,157.88985 679.78824,170.66225 681.33171,173.54776 676.33863,174.01657 674.96204,175.60794 660.54947,184.36131 646.0423,192.95747 631.58303,201.63327 629.43149,199.4982 628.53323,195.74125 626.54576,193.13152 621.48989,184.13149 615.36008,175.92502 609.45254,167.45634 611.93598,164.25159 616.51796,162.37636 619.78629,159.66887 631.34425,151.81919 642.63169,143.43606 654.49071,136.11615 L 654.72386,136.17445 z"
       inkscape:connector-curvature="0"
       id="path1236"
       style="fill:#dcbf8c;stroke:none" />
    <path
       d="M 624.33573,109.90541 C 633.89035,118.05308 644.95096,124.82789 652.70317,134.77549 653.00044,137.02268 649.2072,137.54712 648.03755,139.09814 635.13384,148.19582 622.12465,157.1426 609.16109,166.15454 604.60996,163.00863 600.82038,158.16958 596.60007,154.33585 594.9697,152.01527 591.51593,150.34761 590.79998,147.63799 600.69199,134.30888 611.20663,121.42443 621.42127,108.3316 622.59056,107.88653 623.36504,109.50818 624.33573,109.90541 z"
       inkscape:connector-curvature="0"
       id="path1238"
       style="fill:#ada5be;stroke:none" />
    <path
       d="M 591.03313,89.195231 C 600.53802,95.771458 611.03263,100.80761 620.66351,107.24547 619.43823,110.89584 615.63867,113.86763 613.43729,117.26622 605.53017,126.81181 598.51149,137.1944 590.02279,146.20213 587.53989,147.65095 585.56355,143.55577 583.31952,142.97679 578.36185,139.20366 572.59508,135.80755 568.4169,131.41608 575.77499,117.35815 582.42862,102.82383 590.4891,89.195231 590.66069,89.115981 590.86155,89.115981 591.03313,89.195231 z"
       inkscape:connector-curvature="0"
       id="path1240"
       style="fill:none;stroke:none" />
    <path
       d="M 591.03313,89.195231 C 600.53802,95.771458 611.03263,100.80761 620.66351,107.24547 619.43823,110.89584 615.63867,113.86763 613.43729,117.26622 605.53017,126.81181 598.51149,137.1944 590.02279,146.20213 587.53989,147.65095 585.56355,143.55577 583.31952,142.97679 578.36185,139.20366 572.59508,135.80755 568.4169,131.41608 575.77499,117.35815 582.42862,102.82383 590.4891,89.195231 590.66069,89.115981 590.86155,89.115981 591.03313,89.195231 z"
       inkscape:connector-curvature="0"
       id="path1242"
       style="fill:#dad3b7;stroke:none" />
    <path
       d="M 542.10902,65.840669 C 551.77722,69.986033 561.50254,74.069924 571.27308,78.003694 577.40885,80.983362 584.0006,83.450506 589.42046,87.679711 587.96263,92.804904 584.4642,97.691198 582.24148,102.72684 577.29036,112.18806 572.71088,121.9476 567.28998,131.10521 562.581,129.35166 558.14077,126.38152 553.25659,124.7679 544.0541,120.90768 534.58017,117.74135 525.12741,114.57049 524.83012,111.48744 527.00329,108.18037 527.6205,105.04184 532.04919,92.28346 535.516,79.045545 540.76836,66.598429 541.0879,66.18841 541.54027,65.731555 542.10902,65.840669 z"
       inkscape:connector-curvature="0"
       id="path1244"
       style="fill:#b478b6;stroke:none" />
    <path
       d="M 474.61006,45.245131 C 493.92331,49.027548 512.80705,55.02198 531.3398,61.562679 533.72098,62.970698 537.25431,63.173752 539.11683,65.141198 538.17444,72.849174 534.6857,80.265386 532.55995,87.772028 529.56356,96.382573 527.10083,105.27812 523.37874,113.57957 516.78226,112.91821 510.19606,110.34369 503.61489,108.97872 492.64395,106.21192 482.15114,101.7452 471.77668,97.280096 467.85871,95.007369 462.91066,93.483173 460.0766,89.875273 463.87232,75.009662 468.07654,60.185984 472.66708,45.556007 473.12585,45.023234 473.98686,45.23079 474.61006,45.245131 z"
       inkscape:connector-curvature="0"
       id="path1246"
       style="fill:#a39ccb;stroke:none" />
    <path
       d="M 435.63397,37.842395 C 447.38221,39.527515 459.19899,41.458137 470.70468,44.370792 471.71431,47.118457 469.62494,50.434701 469.33103,53.309351 466.18392,65.09001 462.95302,76.874163 459.41599,88.53462 457.31988,89.042818 454.9451,86.604497 453.97566,84.726388 446.72346,69.56728 440.36407,53.924347 434.07959,38.347569 434.27282,37.591992 435.10332,37.833253 435.63397,37.842395 z"
       inkscape:connector-curvature="0"
       id="path1248"
       style="fill:#abd9cd;stroke:none" />
    <path
       d="M 432.7778,37.822966 C 439.16287,53.27929 446.3177,68.572588 452.24641,84.124066 448.64461,84.489602 444.64459,83.438775 441.15202,84.842967 434.50427,82.090422 429.09431,76.542866 423.04349,72.524504 412.0141,64.011764 400.37884,55.986942 389.81862,47.071528 392.94027,43.602528 397.77521,41.684055 402.0205,39.746511 411.93726,37.585372 422.19321,37.545359 432.31148,37.512089 L 432.7778,37.822966 z"
       inkscape:connector-curvature="0"
       id="path1250"
       style="fill:#a36ed8;stroke:none" />
    <path
       d="M 389.66318,47.188106 C 394.0848,52.165825 400.4716,55.992705 405.68245,60.329824 416.63,68.93592 428.35412,76.674123 438.74273,85.911603 440.10579,87.628765 439.14488,90.182978 440.99658,91.818248 443.46327,96.287485 447.25233,100.00046 450.4783,103.80641 450.33594,106.43323 446.85593,103.89471 445.53682,103.76341 420.62045,95.293209 395.76599,86.642111 370.89404,78.042593 368.70812,69.739521 375.94706,63.036913 379.87058,56.533857 382.33846,52.919023 385.29781,48.891025 389.37173,47.110427 L 389.44943,47.110427 389.66316,47.188147 z"
       inkscape:connector-curvature="0"
       id="path1252"
       style="fill:#cce198;stroke:none" />
    <path
       d="M 451.31378,106.3517 C 453.83704,111.68576 456.38455,117.18561 457.86161,122.84756 453.99058,123.20349 448.76812,122.50477 446.41748,126.51979 444.4556,128.54827 442.47173,130.93778 440.21939,132.32928 432.29021,126.9443 422.76606,125.16453 414.00866,121.85665 413.89818,119.70394 418.1743,119.77851 419.66272,118.55359 429.98174,114.35839 440.33292,110.24299 450.6726,106.09912 L 451.25108,106.327 451.31378,106.3517 z"
       inkscape:connector-curvature="0"
       id="path1256"
       style="fill:#98d8de;stroke:none" />
    <path
       d="M 454.2671,123.3916 C 458.01717,124.3209 458.26974,129.314 460.73721,131.78525 464.1352,136.12703 468.99507,141.53251 466.17754,147.4262 465.77149,149.41098 462.84146,153.24726 460.9898,150.4961 457.27347,142.46435 448.74692,138.7751 442.27895,133.5145 441.82455,131.3604 445.13116,130.72967 445.83459,128.90965 447.85418,126.20924 450.56549,123.14029 454.2671,123.3916 z"
       inkscape:connector-curvature="0"
       id="path1258"
       style="fill:#d2a09a;stroke:none" />
    <path
       d="M 371.7799,79.072999 C 394.89329,86.724721 417.85451,94.900399 440.83325,102.9716 443.18554,103.98567 445.87733,104.4997 448.07083,105.78891 447.9315,107.18013 445.71166,107.05066 444.7872,107.81932 434.32531,112.19958 423.59712,116.27431 413.22357,120.66239 413.8882,121.35497 413.46561,122.70954 412.40752,122.10019 404.43818,119.71299 396.6845,116.3963 389.76214,111.78299 385.07599,107.95409 380.74186,103.35535 378.33119,97.672074 375.51972,91.840839 372.44685,85.983284 371.14844,79.597603 371.10944,79.275641 371.52736,79.068508 371.7799,79.072999 z"
       inkscape:connector-curvature="0"
       id="path9032"
       style="fill:#c68582;stroke:none" />
  </g>
</svg>
