<?xml version="1.0" encoding="UTF-8" standalone="no"?>
<!-- Created with Inkscape (http://www.inkscape.org/) -->

<svg
   xmlns:dc="http://purl.org/dc/elements/1.1/"
   xmlns:cc="http://creativecommons.org/ns#"
   xmlns:rdf="http://www.w3.org/1999/02/22-rdf-syntax-ns#"
   xmlns:svg="http://www.w3.org/2000/svg"
   xmlns="http://www.w3.org/2000/svg"
   xmlns:xlink="http://www.w3.org/1999/xlink"
   xmlns:inkscape="http://www.inkscape.org/namespaces/inkscape"
   version="1.1"
   width="740"
   height="520"
   id="svg2"
   style="display:inline;enable-background:new">
  <defs
     id="defs4">
    <filter
       color-interpolation-filters="sRGB"
       id="filter3050">
      <feBlend
         in2="BackgroundImage"
         mode="lighten"
         id="feBlend3052" />
    </filter>
  </defs>
  <metadata
     id="metadata7">
    <rdf:RDF>
      <cc:Work
         rdf:about="">
        <dc:format>image/svg+xml</dc:format>
        <dc:type
           rdf:resource="http://purl.org/dc/dcmitype/StillImage" />
        <dc:title />
      </cc:Work>
    </rdf:RDF>
  </metadata>
  <g
     id="g3519"
     style="display:none">
    <image
       xlink:href="pngs/coronal-0573.png"
       id="image3521"
       height="520"
       width="740"
       y="0"
       x="0" />
  </g>
  <g
     id="g3527"
     style="display:inline">
    <path
       d="M 421.69693,148.06023 370.6981,126.51762"
       inkscape:connector-curvature="0"
       id="path3766"
       style="opacity:0.6;fill:none;stroke:#e20000;stroke-opacity:1" />
    <path
       d="M 423.01587,146.30165 372.89632,73.320556"
       inkscape:connector-curvature="0"
       id="path3530"
       style="opacity:0.6;fill:none;stroke:#e20000;stroke-opacity:1" />
    <path
       d="M 425.21409,144.10342 C 424.98503,118.14301 424.23645,89.278263 423.01587,62.769072"
       inkscape:connector-curvature="0"
       id="path3770"
       style="opacity:0.6;fill:none;stroke:#e20000;stroke-opacity:1" />
    <path
       d="M 368.19225,399.38009 C 367.36315,400.00769 367.49493,399.03529 370.67926,404.35411 371.96325,408.95101 380.62462,409.38268 384.97955,411.81514 391.97904,413.3736 397.24406,416.23936 404.87562,416.78915 415.70765,418.23506 426.16409,421.24766 437.82848,420.51966 445.37108,421.03869 452.97722,423.18972 458.96805,428.60244 463.89553,430.50466 468.73209,436.85935 472.6466,439.79398 480.21657,442.34918 490.4016,443.17078 499.31377,444.18016 504.67841,443.97644 511.89394,443.29497 516.16925,440.41573 522.96517,438.57349 529.74241,434.7629 537.30882,433.57646 543.18139,430.77597 550.22572,428.54991 557.82664,426.11543 563.34881,423.07893 568.72259,420.78302 573.99219,416.78915 576.94415,414.71353 580.2839,413.73248 582.69672,411.19338 585.60047,409.02874 586.89926,407.26241 589.53599,403.73236 591.69151,402.27083 593.4783,400.07224 595.13176,398.13659 597.92353,396.61591 598.14569,393.03279 600.72753,391.29732 602.0619,387.09648 604.78833,384.86496 606.3233,381.34928 608.46938,379.35035 609.97985,376.7158 612.54082,375.13176 614.19028,372.57717 616.24669,371.70757 618.13659,368.91424 619.22596,366.45924 622.27544,365.62225 623.73236,363.31847 626.5252,360.89869 627.0892,356.85769 630.15888,354.49711 632.73795,351.87713 629.65154,353.3882 633.68039,347.77467 635.97708,345.30817 637.76002,342.72064 639.89791,339.69189 643.31295,337.08145 645.50109,331.28159 647.98069,328.50035 650.56624,322.50487 655.32058,317.37495 658.26169,311.97059 661.15905,307.13257 662.94848,301.74036 664.91886,296.86643 667.61175,293.45345 666.22064,287.49117 668.49851,281.86895 672.02797,268.99027 669.82129,254.96979 670.51463,241.63716 667.80814,233.38581 666.01702,222.80894 663.78203,214.20464 663.14962,207.85944 660.25786,203.22261 657.92872,198.55417 656.4527,194.04545 651.98542,188.25017 650.4677,182.38861 647.14907,175.86169 645.40007,169.87022 641.76317,163.73605 639.94411,158.64266 636.17357,154.61968 633.68039,150.0575 630.4621,145.69099 623.39057,137.19962 620.62637,135.31251 617.06847,131.39518 614.43533,129.09897 609.43206,125.80917 604.48949,122.17548 598.49568,118.1062 595.21891,115.98048 588.21338,111.32396 581.73678,108.31801 574.61394,104.04785 569.32189,100.95006 563.43722,99.160873 560.31364,97.208576 553.45457,94.893996 544.49332,90.031889 536.68707,87.882294 530.11195,85.752793 525.22028,84.101926 518.65625,82.286526 513.35616,80.750355 508.58063,79.659386 501.86895,76.069005 495.40302,74.348541 489.31603,71.332855 482.59463,69.851484 473.6505,68.311731 464.90592,65.550028 455.54841,64.877467 442.66744,63.496705 429.21116,62.994748 416.16593,62.575854 407.85273,60.538235 400.02544,64.470441 392.44058,64.877467 386.7963,65.963585 380.83355,66.938833 376.27502,69.851484 372.07049,72.219156 369.92112,77.05702 367.5705,82.286526 369.45268,78.721294 366.36846,102.01721 368.2579,108.74249 364.00868,117.18393 374.95027,127.71217 366.94874,133.00586 366.57833,142.61594 367.71201,151.60782 368.814,160.62729 371.03959,164.82386 372.31636,170.2697 376.89678,172.44058 382.91759,175.72334 391.61238,173.47977 398.03635,169.95357 400.48197,168.36789 407.01096,165.51537 408.65032,163.03886 413.23205,160.85637 412.27879,158.5122 415.41417,156.89678 418.59689,154.70347 417.31769,151.97363 419.79767,146.94874 425.66277,143.24577 436.48642,145.78189 443.42425,148.19225 449.14557,151.31088 454.99985,151.70351 460.21156,154.40977 466.75642,156.01924 472.02375,157.91691 478.86412,160.00554 484.60648,161.53227 491.0656,163.18293 495.65143,165.60131 502.58586,167.57443 509.56792,170.23621 515.54749,173.06233 520.72347,174.45558 526.56792,176.26682 530.46954,178.6581 534.63732,179.79148 537.8574,182.63136 542.28283,184.25387 545.01458,186.91586 548.17026,187.24141 550.98736,190.47139 553.61331,192.2926 555.23362,194.24537 558.62545,197.31344 559.36596,199.42742 562.22843,202.32484 564.04416,204.77169 565.65509,207.45932 567.75133,210.27837 570.26168,212.85447 570.66907,215.08814 576.33858,221.22324 574.61394,220.31549 574.67564,222.47512 581.45749,229.48372 584.80527,234.67032 587.28658,239.2153 589.30906,243.40282 592.21116,247.06834 594.46913,254.13954 597.76202,258.96601 598.43427,266.32476 599.23759,267.78729 601.66296,276.78455 599.31356,272.04015 596.54197,268.38704 593.85431,263.86359 592.71888,260.60938 590.19012,257.22619 587.69768,250.90269 585.24492,247.42002 583.14031,243.61232 579.53008,238.11725 577.77095,233.35138 576.79599,230.3253 574.25132,226.91351 572.93485,224.11883 570.1355,220.88267 569.1002,218.78718 566.58467,215.81273 565.4582,214.09224 562.72539,211.27841 560.18515,209.1709 556.15032,206.64066 552.28532,202.8854 549.19402,199.49871 547.63561,198.3964 545.19665,195.55393 543.0775,194.35952 540.55139,192.4806 535.98297,189.86165 533.36679,188.06793 527.96921,184.11246 523.9986,182.23429 517.97921,179.71468 510.82365,177.16244 503.97995,174.99 496.4366,173.99929 490.36273,173.47634 482.08541,171.22093 474.89399,170.92177 468.92878,168.8734 464.43204,170.51581 458.18748,168.2839 448.2551,166.67315 438.36681,166.80731 429.1709,170.04248 419.34551,172.08066 409.81435,176.47631 399.71468,178.39574 391.70969,181.66049 383.78592,183.5789 375.09455,184.55077 372.97139,185.53631 364.7117,186.84371 370.25845,186.30935"
       inkscape:connector-curvature="0"
       id="path3533"
       style="fill:none;stroke:#e20000;stroke-opacity:1" />
    <path
       d="M 477.53186,331.39224 C 478.11806,331.24569 479.43699,331.53879 479.29044,330.9526 479.14389,330.3664 476.92763,331.39224 477.53186,331.39224 478.27912,331.39224 478.993,331.07545 479.73009,330.9526 480.26278,330.8638 483.76316,330.77091 484.12654,330.9526 484.31191,331.0453 484.38081,331.29956 484.56618,331.39224 484.82834,331.52332 485.18332,331.26117 485.44547,331.39224 485.63084,331.48494 485.69975,331.7392 485.88512,331.83189 486.35407,332.06637 487.17475,331.59741 487.6437,331.83189 487.82907,331.92459 487.89797,332.17885 488.08334,332.27153 488.3455,332.40261 488.70048,332.14046 488.96264,332.27153 489.14801,332.36423 489.21691,332.61849 489.40228,332.71118 489.66443,332.84225 490.01942,332.5801 490.28157,332.71118 490.46694,332.80388 490.53585,333.05814 490.72122,333.15082 491.18809,333.38426 491.13364,332.91739 491.60051,333.15082 491.78588,333.24352 491.85478,333.49778 492.04015,333.59047 492.3023,333.72155 492.65729,333.45939 492.91944,333.59047 493.43157,333.84653 493.72625,334.21369 494.23838,334.46976 494.36945,334.53526 494.54694,334.40426 494.67802,334.46976 494.86339,334.56246 494.9323,334.81672 495.11767,334.9094 495.37982,335.04048 495.78971,334.70215 495.99696,334.9094 496.10058,335.01303 495.89333,335.24542 495.99696,335.34905 496.20421,335.5563 496.61409,335.21797 496.87625,335.34905 497.06162,335.44175 497.13052,335.69601 497.31589,335.78869 497.57805,335.91977 497.93303,335.65762 498.19518,335.78869 498.38055,335.88139 498.44946,336.13565 498.63483,336.22834 498.7659,336.29384 498.9434,336.16284 499.07447,336.22834 499.25984,336.32104 499.32875,336.5753 499.51412,336.66798 499.6452,336.73348 499.82269,336.60248 499.95376,336.66798 501.41188,338.1261 499.53926,336.46073 500.83305,337.10763 501.01842,337.20033 501.08733,337.45459 501.2727,337.54727 501.40378,337.61277 501.58127,337.48177 501.71234,337.54727 501.89771,337.63997 501.96662,337.89423 502.15199,337.98692 502.61886,338.22035 502.56441,337.75348 503.03128,337.98692 503.21665,338.07962 503.28555,338.33388 503.47092,338.42656 503.602,338.49206 503.76402,338.42656 503.91057,338.42656 504.05712,338.57311 504.16484,338.77352 504.35021,338.86621 504.48129,338.93171 504.65878,338.80071 504.78986,338.86621 504.97523,338.95891 505.04413,339.21317 505.2295,339.30585 505.49166,339.43693 505.84664,339.17478 506.10879,339.30585 507.56691,340.76397 505.69429,339.0986 506.98809,339.7455 507.35883,339.93087 507.49663,340.43942 507.86738,340.62479 507.99845,340.69029 508.17594,340.55929 508.30702,340.62479 508.49239,340.71749 508.5613,340.97175 508.74667,341.06444 508.87774,341.12994 509.08269,340.96081 509.18631,341.06444 509.28994,341.16806 509.08269,341.40046 509.18631,341.50408 509.28994,341.60771 509.49488,341.43858 509.62596,341.50408 509.9967,341.68945 510.1345,342.198 510.50525,342.38337 510.7674,342.51445 511.17729,342.17612 511.38454,342.38337 511.48816,342.487 511.28091,342.71939 511.38454,342.82302 511.48816,342.92664 511.6931,342.75752 511.82418,342.82302 512.33631,343.07908 512.63099,343.44624 513.14312,343.70231 513.27419,343.76781 513.47914,343.59868 513.58276,343.70231 513.68639,343.80593 513.47914,344.03833 513.58276,344.14195 513.68639,344.24558 513.91878,344.03833 514.02241,344.14195 514.12603,344.24558 513.91878,344.47797 514.02241,344.5816 514.22966,344.78885 514.63954,344.45052 514.9017,344.5816 515.27244,344.76697 515.41025,345.27552 515.78099,345.46089 516.04314,345.59196 516.45303,345.25364 516.66028,345.46089 516.7639,345.56451 516.55665,345.79691 516.66028,345.90053 516.7639,346.00416 516.96885,345.83503 517.09992,345.90053 517.28529,345.99323 517.3542,346.24749 517.53957,346.34018 517.67065,346.40568 517.87559,346.23655 517.97921,346.34018 518.08284,346.4438 517.87559,346.6762 517.97921,346.77982 518.08284,346.88345 518.28778,346.71432 518.41886,346.77982 518.60423,346.87252 518.67313,347.12678 518.8585,347.21947 518.98958,347.28497 519.19452,347.11584 519.29815,347.21947 519.40177,347.32309 519.29815,347.51256 519.29815,347.65911 519.4447,347.65911 519.63417,347.55549 519.73779,347.65911 519.84142,347.76274 519.63417,347.99513 519.73779,348.09876 519.94504,348.30601 520.40983,347.89151 520.61708,348.09876 520.72071,348.20238 520.55158,348.40733 520.61708,348.5384 520.70978,348.72377 520.91018,348.8315 521.05673,348.97805 521.34983,349.27114 521.56528,349.67197 521.93602,349.85734 522.0671,349.92284 522.27204,349.75371 522.37566,349.85734 522.47929,349.96096 522.27204,350.19336 522.37566,350.29698 522.47929,350.40061 522.71168,350.19336 522.81531,350.29698 523.02256,350.50423 522.60806,350.96902 522.81531,351.17627 522.91893,351.2799 523.15133,351.07265 523.25495,351.17627 523.35858,351.2799 523.15133,351.51229 523.25495,351.61592 523.35858,351.71954 523.59097,351.51229 523.6946,351.61592 523.79823,351.71954 523.6291,351.92449 523.6946,352.05556 523.7873,352.24093 524.04156,352.30984 524.13424,352.49521 524.36768,352.96208 523.90081,352.90763 524.13424,353.3745 524.22694,353.55987 524.4812,353.62877 524.57389,353.81414 524.80837,354.2831 524.33941,355.10377 524.57389,355.57272 524.66659,355.75809 524.92085,355.827 525.01354,356.01237 525.05864,356.10257 525.07554,357.2693 525.01354,357.3313 524.90991,357.43493 524.67752,357.22768 524.57389,357.3313 524.44147,357.46372 524.76664,358.55387 523.6946,359.08989 523.56352,359.15539 523.4015,359.08989 523.25495,359.08989 523.10841,359.23643 523.00068,359.43685 522.81531,359.52953 522.54986,359.66225 521.69961,359.3263 521.49637,359.52953 521.39275,359.63316 521.6,359.86555 521.49637,359.96918 521.14505,360.3205 520.1552,359.52953 519.73779,359.52953 519.10111,359.52953 517.65715,359.80815 517.09992,359.52953 516.91455,359.43683 516.84565,359.18257 516.66028,359.08989 516.29423,358.90686 515.18057,359.36876 514.9017,359.08989 514.79807,358.98626 515.00532,358.75387 514.9017,358.65024 514.62283,358.37137 513.50916,358.83326 513.14312,358.65024 512.95775,358.55754 512.88884,358.30328 512.70347,358.2106 512.44132,358.07952 512.08634,358.34167 511.82418,358.2106 511.31205,357.95453 511.01738,357.58737 510.50525,357.3313 510.24309,357.20023 509.88811,357.46238 509.62596,357.3313 509.11383,357.07524 508.81915,356.70808 508.30702,356.45201 507.9553,356.27616 507.3398,356.62787 506.98809,356.45201 506.80271,356.35931 506.73381,356.10505 506.54844,356.01237 506.41736,355.94687 506.23987,356.07787 506.10879,356.01237 505.92342,355.91967 505.85452,355.66541 505.66915,355.57272 505.53807,355.50722 505.36058,355.63822 505.2295,355.57272 505.04413,355.48002 504.97523,355.22576 504.78986,355.13308 504.32299,354.89964 504.37744,355.36651 503.91057,355.13308 503.7252,355.04038 503.65629,354.78612 503.47092,354.69343 503.33985,354.62793 503.1349,354.79706 503.03128,354.69343 502.92765,354.58981 503.1349,354.35741 503.03128,354.25379 502.82403,354.04654 502.41414,354.38487 502.15199,354.25379 501.96662,354.16109 501.89771,353.90683 501.71234,353.81414 501.58127,353.74864 501.37632,353.91777 501.2727,353.81414 501.16907,353.71052 501.37632,353.47812 501.2727,353.3745 501.16907,353.27087 500.96413,353.44 500.83305,353.3745 499.37493,351.91638 501.24755,353.58175 499.95376,352.93485 499.76839,352.84215 499.69949,352.58789 499.51412,352.49521 499.38304,352.42971 499.20555,352.56071 499.07447,352.49521 497.61635,351.03709 499.48897,352.70246 498.19518,352.05556 497.68305,351.7995 497.38838,351.43234 496.87625,351.17627 496.74517,351.11077 496.54023,351.2799 496.4366,351.17627 496.33298,351.07265 496.54023,350.84025 496.4366,350.73663 496.33298,350.633 496.12803,350.80213 495.99696,350.73663 495.53009,350.50319 495.58454,350.09077 495.11767,349.85734 494.98659,349.79184 494.8091,349.92284 494.67802,349.85734 494.49265,349.76464 494.42375,349.51038 494.23838,349.41769 494.1073,349.35219 493.90236,349.52132 493.79873,349.41769 493.69511,349.31407 493.90236,349.08167 493.79873,348.97805 493.69511,348.87442 493.46271,349.08167 493.35909,348.97805 493.25546,348.87442 493.46271,348.64203 493.35909,348.5384 493.25546,348.43478 493.05052,348.6039 492.91944,348.5384 492.73407,348.4457 492.66517,348.19144 492.4798,348.09876 492.34872,348.03326 492.14378,348.20238 492.04015,348.09876 491.93653,347.99513 492.14378,347.76274 492.04015,347.65911 491.74836,347.36732 491.45265,347.95091 491.16086,347.65911 491.05724,347.55549 491.26449,347.32309 491.16086,347.21947 491.05724,347.11584 490.85229,347.28497 490.72122,347.21947 490.53585,347.12677 490.46694,346.87251 490.28157,346.77982 490.15049,346.71432 489.94555,346.88345 489.84193,346.77982 489.7383,346.6762 489.94555,346.4438 489.84193,346.34018 489.63467,346.13293 489.16989,346.54743 488.96264,346.34018 488.85901,346.23655 489.06626,346.00416 488.96264,345.90053 488.85901,345.79691 488.65407,345.96603 488.52299,345.90053 488.33762,345.80783 488.26872,345.55357 488.08334,345.46089 487.82119,345.32981 487.46621,345.59196 487.20405,345.46089 487.01868,345.36819 486.94978,345.11393 486.76441,345.02124 486.63333,344.95574 486.42839,345.12487 486.32476,345.02124 486.22114,344.91762 486.42839,344.68522 486.32476,344.5816 486.03297,344.2898 485.73727,344.87339 485.44547,344.5816 485.34185,344.47797 485.5491,344.24558 485.44547,344.14195 485.34185,344.03833 485.13691,344.20745 485.00583,344.14195 484.63509,343.95658 484.49728,343.44803 484.12654,343.26266 483.99546,343.19716 483.79052,343.36629 483.68689,343.26266 483.58327,343.15904 483.79052,342.92664 483.68689,342.82302 483.58327,342.71939 483.35087,342.92664 483.24725,342.82302 483.14362,342.71939 483.35087,342.487 483.24725,342.38337 483.14362,342.27975 482.91123,342.487 482.8076,342.38337 482.70398,342.27975 482.91123,342.04735 482.8076,341.94373 482.70398,341.8401 482.47158,342.04735 482.36796,341.94373 482.26433,341.8401 482.47158,341.60771 482.36796,341.50408 482.26433,341.40046 482.03194,341.60771 481.92831,341.50408 481.92831,340.33169 482.07486,341.65063 481.48867,341.06444 481.38504,340.96081 481.59229,340.72842 481.48867,340.62479 481.38504,340.52116 481.15265,340.72842 481.04902,340.62479 480.9454,340.52116 481.11452,340.31622 481.04902,340.18515 480.60938,339.30585 479.29044,338.86621 478.8508,337.98692 478.7853,337.85584 478.95442,337.6509 478.8508,337.54727 478.74717,337.44365 478.51478,337.6509 478.41115,337.54727 478.30753,337.44365 478.47665,337.23871 478.41115,337.10763 478.31845,336.92226 478.06419,336.85335 477.97151,336.66798 477.90601,336.53691 478.07513,336.33196 477.97151,336.22834 477.86788,336.12471 477.63549,336.33196 477.53186,336.22834 477.32461,336.02109 477.66294,335.6112 477.53186,335.34905 477.43916,335.16368 477.1849,335.09477 477.09222,334.9094 476.75916,334.24329 477.52973,331.40288 477.53186,331.39224 z"
       inkscape:connector-curvature="0"
       id="path3535"
       style="opacity:0.6;fill:none;stroke:#e20000;stroke-opacity:1" />
    <path
       d="M 372.89632,312.04786 C 375.2411,312.04786 377.58587,312.04786 379.93064,312.04786 380.37029,312.04786 380.8325,311.90883 381.24958,312.04786 381.4462,312.11336 381.50385,312.39482 381.68923,312.4875 382.39266,312.83922 383.62366,312.13579 384.3271,312.4875 384.51247,312.5802 384.58137,312.83446 384.76674,312.92715 385.11846,313.10301 385.73396,312.75129 386.08568,312.92715 386.27105,313.01985 386.33995,313.27411 386.52532,313.36679 386.78748,313.49787 387.14246,313.23572 387.40461,313.36679 387.58998,313.45949 387.65889,313.71375 387.84426,313.80644 388.31321,314.04092 389.13388,313.57196 389.60284,313.80644 389.78821,313.89914 389.85711,314.1534 390.04248,314.24608 390.51144,314.48056 391.33211,314.01161 391.80106,314.24608 391.98643,314.33878 392.05534,314.59304 392.24071,314.68573 392.70966,314.92021 393.53033,314.45125 393.99929,314.68573 394.18466,314.77843 394.25356,315.03269 394.43893,315.12537 394.79065,315.30123 395.40615,314.94952 395.75787,315.12537 395.94324,315.21807 396.01214,315.47233 396.19751,315.56502 396.54923,315.74088 397.16473,315.38916 397.51645,315.56502 397.70182,315.65772 397.77072,315.91198 397.95609,316.00466 398.21825,316.13574 398.57323,315.87359 398.83539,316.00466 399.02076,316.09736 399.08966,316.35162 399.27503,316.44431 399.53718,316.57539 399.94707,316.23706 400.15432,316.44431 400.25795,316.54793 400.02324,316.81842 400.15432,316.88395 400.41647,317.01503 400.75555,316.79125 401.03361,316.88395 401.23023,316.94945 401.28789,317.23091 401.47326,317.3236 401.73541,317.45468 402.09039,317.19252 402.35255,317.3236 402.53792,317.4163 402.60682,317.67056 402.79219,317.76324 403.14391,317.9391 403.75941,317.58739 404.11113,317.76324 404.2965,317.85594 404.3654,318.1102 404.55077,318.20289 404.81293,318.33397 405.16791,318.07181 405.43006,318.20289 405.61543,318.29559 405.68434,318.54985 405.86971,318.64253 406.13186,318.77361 406.48684,318.51146 406.749,318.64253 407.26113,318.8986 407.5558,319.26576 408.06793,319.52182 409.1232,320.04946 407.89196,318.99419 408.94722,319.52182 409.45935,319.77789 409.75403,320.14505 410.26616,320.40111 410.52831,320.53219 410.88329,320.27004 411.14545,320.40111 411.51619,320.58649 411.654,321.09503 412.02474,321.2804 412.28689,321.41148 412.64188,321.14933 412.90403,321.2804 413.27477,321.46578 413.41258,321.97432 413.78332,322.1597 413.9144,322.2252 414.11934,322.05607 414.22296,322.1597 414.32659,322.26332 414.11934,322.49571 414.22296,322.59934 414.51609,322.89247 414.80912,322.30621 415.10225,322.59934 415.20588,322.70297 415.10225,322.89244 415.10225,323.03899 415.2488,323.03899 415.41082,322.97349 415.5419,323.03899 416.05403,323.29505 416.3487,323.66221 416.86084,323.91828 416.99191,323.98378 417.19685,323.81465 417.30048,323.91828 417.40411,324.0219 417.19685,324.2543 417.30048,324.35792 417.40411,324.46155 417.60905,324.29242 417.74013,324.35792 418.11087,324.54329 418.24867,325.05184 418.61942,325.23721 418.75049,325.30271 418.95544,325.13359 419.05906,325.23721 419.16269,325.34084 418.95544,325.57323 419.05906,325.67686 419.16269,325.78048 419.39508,325.57323 419.49871,325.67686 419.60233,325.78048 419.39508,326.01288 419.49871,326.1165 419.60233,326.22013 419.83473,326.01288 419.93835,326.1165 420.04198,326.22013 419.83473,326.45252 419.93835,326.55615 420.04198,326.65977 420.27437,326.45252 420.378,326.55615 420.58525,326.7634 420.17075,327.22819 420.378,327.43544 421.28764,328.34508 420.3424,326.04538 421.25729,327.87508 421.25729,329.04747 421.11074,327.72853 421.69693,328.31473 421.90418,328.52198 421.48968,328.98677 421.69693,329.19402 421.75203,329.24912 422.76744,329.00279 422.13658,329.63366 422.03295,329.73729 421.80056,329.53004 421.69693,329.63366 421.59331,329.73729 421.80056,329.96968 421.69693,330.07331 421.58112,330.18912 415.4437,330.07331 414.66261,330.07331 413.85416,330.07331 410.85966,330.37006 410.26616,330.07331 410.08079,329.98061 410.02313,329.6992 409.82651,329.63366 409.66743,329.58066 406.33116,329.62276 406.30935,329.63366 406.12398,329.72636 406.05508,329.98062 405.86971,330.07331 404.9318,330.54226 403.29046,329.60435 402.35255,330.07331 402.16718,330.16601 402.09827,330.42027 401.9129,330.51295 401.50348,330.71766 395.2508,330.63702 394.87858,330.51295 394.5677,330.40933 394.31016,330.17693 393.99929,330.07331 393.2997,329.84011 392.10534,330.07331 391.36142,330.07331 389.01664,330.07331 386.67187,330.07331 384.3271,330.07331 380.95648,330.07331 377.58587,330.07331 374.21526,330.07331 373.94697,330.07331 372.62798,329.902 372.45668,330.07331 372.35305,330.17693 372.5603,330.40933 372.45668,330.51295 372.36758,330.60205 370.34757,330.60205 370.25845,330.51295 370.15483,330.40933 370.32395,330.20438 370.25845,330.07331 369.9804,329.5172 369.37916,329.19402 368.93952,328.75437"
       inkscape:connector-curvature="0"
       id="path3537"
       style="opacity:0.6;fill:none;stroke:#e20000;stroke-opacity:1" />
    <path
       d="M 386.52532,275.11767 C 384.67227,275.47013 386.41986,276.64753 386.08568,277.31589 385.99298,277.50126 385.73872,277.57017 385.64603,277.75554 385.51495,278.01769 385.85328,278.42758 385.64603,278.63483 385.54241,278.73845 385.31001,278.5312 385.20639,278.63483 384.99914,278.84208 385.41364,279.30687 385.20639,279.51412 385.10276,279.61774 384.87037,279.41049 384.76674,279.51412 384.55949,279.72137 384.97399,280.18616 384.76674,280.39341 384.66312,280.49703 384.43072,280.28978 384.3271,280.39341 384.11985,280.60066 384.53435,281.06545 384.3271,281.2727 384.22347,281.37632 383.99108,281.16907 383.88745,281.2727 383.78383,281.37632 383.95295,281.58127 383.88745,281.71234 383.79475,281.89771 383.54049,281.96662 383.44781,282.15199 383.38231,282.28307 383.55143,282.48801 383.44781,282.59163 383.34418,282.69526 383.11179,282.48801 383.00816,282.59163 382.80091,282.79888 383.21541,283.26367 383.00816,283.47092 382.90454,283.57455 382.67214,283.3673 382.56852,283.47092 382.46489,283.57455 382.63402,283.77949 382.56852,283.91057 382.47582,284.09594 382.22156,284.16484 382.12887,284.35021 381.94585,284.71626 382.40774,285.82992 382.12887,286.10879 382.02525,286.21242 381.79285,286.00517 381.68923,286.10879 381.39613,286.40189 381.98232,287.57428 381.68923,287.86738 381.5856,287.971 381.35321,287.76375 381.24958,287.86738 381.04233,288.07463 381.45683,288.53942 381.24958,288.74667 381.14595,288.85029 380.91356,288.64304 380.80994,288.74667 380.60268,288.95392 381.01719,289.41871 380.80994,289.62596 380.70631,289.72958 380.47392,289.52233 380.37029,289.62596 380.26666,289.72958 380.47392,289.96198 380.37029,290.0656 380.26666,290.16923 380.03427,289.96198 379.93064,290.0656 379.72339,290.27285 380.06172,290.68274 379.93064,290.94489 379.83794,291.13026 379.58369,291.19917 379.491,291.38454 379.1979,291.97073 379.7841,292.99657 379.491,293.58276 379.3983,293.76813 379.14404,293.83704 379.05135,294.02241 378.84984,294.42544 379.05135,296.53172 379.05135,297.09992 379.05135,297.24647 378.94773,297.43594 379.05135,297.53957 379.15498,297.64319 379.38737,297.43594 379.491,297.53957 379.71037,297.75894 379.491,299.39355 379.491,299.73779 379.491,300.26587 379.25986,301.47373 379.491,301.93602 379.5837,302.12139 379.83796,302.19029 379.93064,302.37566 380.16127,302.83691 379.57974,304.22298 379.93064,304.57389 380.03427,304.67752 380.26666,304.47026 380.37029,304.57389 380.59011,304.79371 380.15047,305.673 380.37029,305.89283 380.47392,305.99645 380.70631,305.7892 380.80994,305.89283 381.01719,306.10008 380.60268,306.56487 380.80994,306.77212 380.91356,306.87574 381.14595,306.66849 381.24958,306.77212 381.45683,306.97937 381.04233,307.44416 381.24958,307.65141 381.35321,307.75503 381.5856,307.54778 381.68923,307.65141 381.79285,307.75503 381.5856,307.98743 381.68923,308.09105 381.79285,308.19468 382.02525,307.98743 382.12887,308.09105 382.2325,308.19468 382.02525,308.42707 382.12887,308.5307 382.2325,308.63432 382.46489,308.42707 382.56852,308.5307 382.67214,308.63432 382.50302,308.83926 382.56852,308.97034 382.75389,309.34108 383.26244,309.47889 383.44781,309.84963 383.51331,309.98071 383.34418,310.18565 383.44781,310.28928 383.55143,310.3929 383.75637,310.22378 383.88745,310.28928 384.07282,310.38198 384.14173,310.63624 384.3271,310.72892 384.45817,310.79442 384.66312,310.6253 384.76674,310.72892 384.87037,310.83255 384.66312,311.06494 384.76674,311.16857 384.87037,311.27219 385.10276,311.06494 385.20639,311.16857 385.31001,311.27219 385.10276,311.50459 385.20639,311.60821 385.31001,311.71184 385.51495,311.54271 385.64603,311.60821 385.8314,311.70091 385.90031,311.95517 386.08568,312.04786 386.34783,312.17893 386.75772,311.84061 386.96497,312.04786 386.96497,313.22024 386.81842,311.90131 387.40461,312.4875 387.50824,312.59113 387.30099,312.82352 387.40461,312.92715 387.61186,313.1344 388.02175,312.79607 388.2839,312.92715 388.46927,313.01985 388.53818,313.27411 388.72355,313.36679 388.9857,313.49787 389.39559,313.15954 389.60284,313.36679 389.70646,313.47042 389.49921,313.70281 389.60284,313.80644 389.70646,313.91006 389.89593,313.80644 390.04248,313.80644 390.57055,313.80644 391.77842,314.03758 392.24071,313.80644 392.42608,313.71374 392.49498,313.45948 392.68035,313.36679 392.9458,313.23407 393.79606,313.57002 393.99929,313.36679 394.10291,313.26317 393.89566,313.03077 393.99929,312.92715 394.36566,312.56078 395.83114,313.29352 396.19751,312.92715 396.30114,312.82352 396.09389,312.59113 396.19751,312.4875 396.40477,312.28025 396.86955,312.69475 397.0768,312.4875 397.18043,312.38388 396.97318,312.15148 397.0768,312.04786 397.18043,311.94423 397.41282,312.15148 397.51645,312.04786 397.62008,311.94423 397.41282,311.71184 397.51645,311.60821 397.62008,311.50459 397.85247,311.71184 397.95609,311.60821 398.05972,311.50459 397.89059,311.29964 397.95609,311.16857 398.14147,310.79783 398.65001,310.66002 398.83539,310.28928 398.90089,310.1582 398.73176,309.95326 398.83539,309.84963 398.93901,309.74601 399.14395,309.91513 399.27503,309.84963 401.10473,308.93478 398.80503,309.87993 399.71468,308.97034 399.8183,308.86672 400.02324,309.03584 400.15432,308.97034 400.57921,308.7579 401.70046,307.63665 401.9129,307.21176 401.9784,307.08068 401.80928,306.87574 401.9129,306.77212 402.01653,306.66849 402.24892,306.87574 402.35255,306.77212 402.45617,306.66849 402.24892,306.4361 402.35255,306.33247 402.45617,306.22885 402.68857,306.4361 402.79219,306.33247 402.99944,306.12522 402.58494,305.66043 402.79219,305.45318 402.89582,305.34956 403.12821,305.55681 403.23184,305.45318 403.33546,305.34956 403.16634,305.14461 403.23184,305.01354 403.32454,304.82816 403.5788,304.75926 403.67148,304.57389 403.73698,304.44281 403.56786,304.23787 403.67148,304.13424 403.77511,304.03062 403.96458,304.13424 404.11113,304.13424 404.11113,303.9877 404.0075,303.79823 404.11113,303.6946 404.21475,303.59097 404.44715,303.79823 404.55077,303.6946 404.77059,303.47478 404.33095,302.59549 404.55077,302.37566 404.6544,302.27204 404.88679,302.47929 404.99042,302.37566 405.21024,302.15584 404.77059,301.27655 404.99042,301.05673 405.09404,300.9531 405.32644,301.16035 405.43006,301.05673 405.78097,300.70582 405.19944,299.31975 405.43006,298.8585 405.52276,298.67313 405.77702,298.60423 405.86971,298.41886 406.08839,297.98149 405.98115,295.45279 405.86971,295.34134 405.76608,295.23772 405.53369,295.44497 405.43006,295.34134 405.22281,295.13409 405.56114,294.72421 405.43006,294.46205 405.33736,294.27668 405.0831,294.20778 404.99042,294.02241 404.92492,293.89133 405.09404,293.68639 404.99042,293.58276 404.88679,293.47914 404.6544,293.68639 404.55077,293.58276 404.55077,292.41038 404.69732,293.72931 404.11113,293.14312 404.0075,293.03949 404.21475,292.8071 404.11113,292.70347 403.90388,292.49622 403.43909,292.91072 403.23184,292.70347 403.12821,292.59985 403.33546,292.36745 403.23184,292.26383 403.02459,292.05658 402.5598,292.47108 402.35255,292.26383 402.24892,292.1602 402.45617,291.92781 402.35255,291.82418 401.98618,291.45781 400.52069,292.19055 400.15432,291.82418 400.0507,291.72056 400.25795,291.48816 400.15432,291.38454 400.0507,291.28091 399.8183,291.48816 399.71468,291.38454 399.61105,291.28091 399.71468,291.09144 399.71468,290.94489 399.56813,290.94489 399.37866,291.04852 399.27503,290.94489 399.1714,290.84127 399.37866,290.60887 399.27503,290.50525 399.1714,290.40162 398.93901,290.60887 398.83539,290.50525 398.83539,289.33286 398.98193,290.65179 398.39574,290.0656 398.29211,289.96198 398.49937,289.72958 398.39574,289.62596 398.29211,289.52233 398.05972,289.72958 397.95609,289.62596 397.74884,289.41871 398.16335,288.95392 397.95609,288.74667 397.85247,288.64304 397.62008,288.85029 397.51645,288.74667 397.29663,288.52684 397.73627,287.64755 397.51645,287.42773 397.41282,287.32411 397.18043,287.53136 397.0768,287.42773 396.85698,287.20791 397.29663,286.32862 397.0768,286.10879 396.97318,286.00517 396.74078,286.21242 396.63716,286.10879 396.27079,285.74242 397.00353,284.27694 396.63716,283.91057 396.53353,283.80694 396.30114,284.01419 396.19751,283.91057 395.99026,283.70332 396.32859,283.29343 396.19751,283.03128 395.94145,282.51915 395.57429,282.22447 395.31822,281.71234 395.25272,281.58127 395.42185,281.37632 395.31822,281.2727 395.2146,281.16907 394.9822,281.37632 394.87858,281.2727 394.77495,281.16907 394.94408,280.96413 394.87858,280.83305 394.78588,280.64768 394.53162,280.57878 394.43893,280.39341 394.37343,280.26233 394.54256,280.05739 394.43893,279.95376 394.33531,279.85014 394.10291,280.05739 393.99929,279.95376 393.79204,279.74651 394.13037,279.33663 393.99929,279.07447 393.90659,278.8891 393.65233,278.8202 393.55964,278.63483 393.49414,278.50375 393.66327,278.29881 393.55964,278.19518 393.45602,278.09156 393.22362,278.29881 393.12,278.19518 393.01637,278.09156 393.1855,277.88661 393.12,277.75554 392.90755,277.33065 391.78631,276.2094 391.36142,275.99696 391.23034,275.93146 391.0254,276.10058 390.92177,275.99696 390.81815,275.89333 391.0254,275.66094 390.92177,275.55731 390.81815,275.45369 390.58575,275.66094 390.48213,275.55731 390.3785,275.45369 390.58575,275.22129 390.48213,275.11767 390.3785,275.01404 390.17356,275.18317 390.04248,275.11767 389.85711,275.02497 389.78821,274.77071 389.60284,274.67802 389.34068,274.54694 388.9308,274.88527 388.72355,274.67802 388.61992,274.5744 388.82717,274.342 388.72355,274.23838 388.42891,273.94374 386.69095,275.03485 386.52532,275.11767 z"
       inkscape:connector-curvature="0"
       id="path3539"
       style="opacity:0.6;fill:none;stroke:#e20000;stroke-opacity:1" />
    <path
       d="M 405.86971,178.83539 C 406.7103,179.27826 408.42485,179.98886 408.94722,181.03361 409.01272,181.16469 408.88172,181.34218 408.94722,181.47326 409.86207,183.30295 408.91692,181.00326 409.82651,181.9129 409.93014,182.01653 409.76101,182.22147 409.82651,182.35255 410.12529,182.95009 410.84667,183.51358 411.14545,184.11113 411.21095,184.2422 411.07995,184.41969 411.14545,184.55077 411.37888,185.01764 411.7913,184.96319 412.02474,185.43006 412.09024,185.56114 411.95924,185.73863 412.02474,185.86971 412.21011,186.24045 412.71866,186.37826 412.90403,186.749 412.96953,186.88007 412.83853,187.05757 412.90403,187.18864 413.0894,187.55938 413.59795,187.69719 413.78332,188.06793 413.84882,188.19901 413.71782,188.3765 413.78332,188.50758 413.96869,188.87832 414.47724,189.01613 414.66261,189.38687 414.72811,189.51794 414.59711,189.69544 414.66261,189.82651 414.75531,190.01188 415.00957,190.08079 415.10225,190.26616 415.16775,190.39724 415.03675,190.57473 415.10225,190.7058 415.28763,191.07654 415.79617,191.21435 415.98154,191.58509 416.04704,191.71617 415.91604,191.89366 415.98154,192.02474 416.23761,192.53687 416.60477,192.83154 416.86084,193.34367 416.92634,193.47475 416.79534,193.65224 416.86084,193.78332 417.1169,194.29545 417.48406,194.59012 417.74013,195.10225 417.8712,195.36441 417.60905,195.71939 417.74013,195.98154 417.83283,196.16692 418.08709,196.23582 418.17977,196.42119 418.35133,196.76432 418.44785,197.83664 418.61942,198.17977 418.87548,198.6919 419.24264,198.98658 419.49871,199.49871 419.56421,199.62978 419.45231,199.79932 419.49871,199.93835 419.60233,200.24923 419.83473,200.50677 419.93835,200.81764 420.03105,201.0957 419.80727,201.43478 419.93835,201.69693 420.03105,201.8823 420.28531,201.95121 420.378,202.13658 420.4435,202.26765 420.3317,202.43719 420.378,202.57622 420.48162,202.8871 420.71402,203.14464 420.81764,203.45551 420.91034,203.73357 420.68656,204.07265 420.81764,204.3348 420.91034,204.52017 421.1646,204.58908 421.25729,204.77445 421.38836,205.0366 421.12621,205.39158 421.25729,205.65374 421.34999,205.83911 421.63139,205.89677 421.69693,206.09338 421.83596,206.51047 421.50032,207.01909 421.69693,207.41232 421.78963,207.59769 422.04389,207.66659 422.13658,207.85196 422.20208,207.98304 422.13658,208.14506 422.13658,208.29161 422.28313,208.43816 422.48354,208.54588 422.57622,208.73125 422.7073,208.99341 422.44514,209.34839 422.57622,209.61054 422.66892,209.79591 422.92318,209.86482 423.01587,210.05019 423.14694,210.31234 422.88479,210.66733 423.01587,210.92948 423.10857,211.11485 423.38997,211.17251 423.45551,211.36912 423.59454,211.78621 423.2589,212.29483 423.45551,212.68806 423.54821,212.87343 423.80247,212.94233 423.89516,213.1277 424.18825,213.7139 423.60206,214.73974 423.89516,215.32593 423.98786,215.5113 424.24212,215.5802 424.3348,215.76558 424.56928,216.23453 424.10032,217.0552 424.3348,217.52416 424.4275,217.70953 424.70891,217.76719 424.77445,217.9638 424.91518,218.38601 424.56347,219.30043 424.77445,219.72238 425.31772,220.80892 425.21409,219.57063 425.21409,220.60167 425.21409,221.02527 425.17279,224.95678 425.21409,224.99812 425.31772,225.10175 425.55011,224.8945 425.65374,224.99812 426.00465,225.34903 425.42311,226.7351 425.65374,227.19635 425.74644,227.38172 426.0007,227.45062 426.09338,227.63599 426.46539,228.38002 425.80666,230.29299 426.09338,231.15315 426.19701,231.46403 426.4294,231.72157 426.53303,232.03244 426.78271,232.78149 426.18294,233.97014 426.53303,234.67032 426.62573,234.85569 426.90713,234.91335 426.97267,235.10996 427.25751,235.96447 426.57075,237.38364 426.97267,238.18748 427.06537,238.37285 427.31963,238.44175 427.41232,238.62712 427.6468,239.09608 427.17784,239.91675 427.41232,240.3857 427.50502,240.57107 427.75928,240.63998 427.85196,240.82535 428.08259,241.2866 427.50106,242.67267 427.85196,243.02357 427.95559,243.1272 428.18798,242.91995 428.29161,243.02357 428.33871,243.07077 428.29161,247.39241 428.29161,247.85967 428.29161,248.89674 428.57037,254.33647 428.29161,254.89399 428.19891,255.07936 427.94465,255.14827 427.85196,255.33364 427.67611,255.68535 428.02782,256.30086 427.85196,256.65257 427.75926,256.83794 427.505,256.90685 427.41232,257.09222 427.17781,257.56122 427.64682,257.5025 427.41232,257.97151 427.31962,258.15688 427.06536,258.22578 426.97267,258.41115 426.8416,258.67331 427.10375,259.02829 426.97267,259.29044 426.87997,259.47581 426.62571,259.54472 426.53303,259.73009 426.46753,259.86116 426.59853,260.03866 426.53303,260.16973 426.44033,260.3551 426.18607,260.42401 426.09338,260.60938 426.02788,260.74045 426.15888,260.91795 426.09338,261.04902 426.00068,261.23439 425.74642,261.3033 425.65374,261.48867 425.52266,261.75082 425.78481,262.1058 425.65374,262.36796 425.56104,262.55333 425.30678,262.62223 425.21409,262.8076 425.08302,263.06976 425.42134,263.47964 425.21409,263.68689 425.11047,263.79052 424.87807,263.58327 424.77445,263.68689 424.57122,263.89013 424.90717,264.74038 424.77445,265.00583 424.68175,265.1912 424.42749,265.2601 424.3348,265.44547 424.20373,265.70763 424.54205,266.11751 424.3348,266.32476 424.23118,266.42839 423.99878,266.22114 423.89516,266.32476 423.79153,266.42839 423.96066,266.63333 423.89516,266.76441 423.80246,266.94978 423.5482,267.01868 423.45551,267.20405 423.39001,267.33513 423.52101,267.51262 423.45551,267.6437 423.36281,267.82907 423.10855,267.89797 423.01587,268.08334 422.88479,268.3455 423.22312,268.75538 423.01587,268.96264 422.91224,269.06626 422.67985,268.85901 422.57622,268.96264 422.36897,269.16989 422.78347,269.63467 422.57622,269.84193 422.4726,269.94555 422.2402,269.7383 422.13658,269.84193 421.92933,270.04918 422.34383,270.51397 422.13658,270.72122 422.03295,270.82484 421.80056,270.61759 421.69693,270.72122 421.48968,270.92847 421.90418,271.39326 421.69693,271.60051 421.59331,271.70413 421.36091,271.49688 421.25729,271.60051 421.15366,271.70413 421.32279,271.90907 421.25729,272.04015 419.79917,273.49827 421.46454,271.62565 420.81764,272.91944 420.63227,273.29018 420.12372,273.42799 419.93835,273.79873 419.87285,273.92981 420.04198,274.13475 419.93835,274.23838 419.83473,274.342 419.60233,274.13475 419.49871,274.23838 419.39508,274.342 419.60233,274.5744 419.49871,274.67802 419.39508,274.78165 419.16269,274.5744 419.05906,274.67802 418.95544,274.78165 419.16269,275.01404 419.05906,275.11767 418.14942,276.02731 419.09466,273.72761 418.17977,275.55731 418.17977,276.7297 418.32632,275.41076 417.74013,275.99696 417.6365,276.10058 417.84375,276.33298 417.74013,276.4366 417.6365,276.54023 417.40411,276.33298 417.30048,276.4366 417.09323,276.64385 417.50773,277.10864 417.30048,277.31589 417.19685,277.41952 416.96446,277.21227 416.86084,277.31589 416.75721,277.41952 416.96446,277.65191 416.86084,277.75554 416.75721,277.85916 416.52482,277.65191 416.42119,277.75554 416.31756,277.85916 416.52482,278.09156 416.42119,278.19518 416.31756,278.29881 416.08517,278.09156 415.98154,278.19518 415.87792,278.29881 416.04704,278.50375 415.98154,278.63483 415.88884,278.8202 415.63459,278.8891 415.5419,279.07447 415.4764,279.20555 415.64553,279.41049 415.5419,279.51412 415.43827,279.61774 415.20588,279.41049 415.10225,279.51412 414.98588,279.63049 415.10225,280.65202 415.10225,280.83305 415.10225,282.85837 413.99585,280.60593 415.10225,281.71234 415.20588,281.81597 414.99863,282.04836 415.10225,282.15199 415.73312,282.78286 415.48678,281.76746 415.5419,281.71234 415.64553,281.60872 415.85047,281.77784 415.98154,281.71234 416.16692,281.61964 416.23582,281.36538 416.42119,281.2727 416.55227,281.2072 416.75721,281.37632 416.86084,281.2727 417.77048,280.36306 415.47078,281.3083 417.30048,280.39341 417.43156,280.32791 417.6365,280.49703 417.74013,280.39341 417.84375,280.28978 417.6365,280.05739 417.74013,279.95376 417.84375,279.85014 418.04869,280.01926 418.17977,279.95376 418.36514,279.86106 418.43405,279.6068 418.61942,279.51412 418.75049,279.44862 418.95544,279.61774 419.05906,279.51412 419.16269,279.41049 418.95544,279.1781 419.05906,279.07447 419.16269,278.97085 419.36763,279.13997 419.49871,279.07447 419.68408,278.98177 419.75298,278.72751 419.93835,278.63483 420.2005,278.50375 420.55549,278.7659 420.81764,278.63483 421.32977,278.37876 421.62445,278.0116 422.13658,277.75554 422.48829,277.57968 423.1038,277.9314 423.45551,277.75554 423.96764,277.49947 424.26232,277.13231 424.77445,276.87625 425.21217,276.65739 427.62449,277.10372 427.85196,276.87625 427.95559,276.77262 427.74834,276.54023 427.85196,276.4366 428.05921,276.22935 428.524,276.64385 428.73125,276.4366 428.83488,276.33298 428.62763,276.10058 428.73125,275.99696 428.9385,275.78971 429.34839,276.12803 429.61054,275.99696 429.88183,275.86131 431.67312,274.07002 431.80877,273.79873 431.87427,273.66765 431.74327,273.49016 431.80877,273.35909 431.90147,273.17372 432.15573,273.10481 432.24841,272.91944 432.31391,272.78836 432.18291,272.61087 432.24841,272.4798 432.43379,272.10905 432.94233,271.97125 433.1277,271.60051 433.25878,271.33835 432.99663,270.98337 433.1277,270.72122 434.58582,269.2631 432.92045,271.13572 433.56735,269.84193 433.75272,269.47118 434.26127,269.33338 434.44664,268.96264 434.51214,268.83156 434.38114,268.65407 434.44664,268.52299 435.90476,267.06487 434.23939,268.93749 434.88629,267.6437 434.97899,267.45833 435.23324,267.38943 435.32593,267.20405 435.39143,267.07298 435.26043,266.89549 435.32593,266.76441 435.41863,266.57904 435.67289,266.51014 435.76558,266.32476 435.83108,266.19369 435.70008,266.0162 435.76558,265.88512 435.95095,265.51438 436.4595,265.37657 436.64487,265.00583 436.99658,264.3024 436.29315,263.07139 436.64487,262.36796 436.73757,262.18259 436.99183,262.11368 437.08451,261.92831 437.3761,261.34513 436.87657,260.3539 437.08451,259.73009 437.18814,259.41921 437.42053,259.16167 437.52416,258.8508 437.70001,258.32322 437.3483,257.61979 437.52416,257.09222 437.62778,256.78134 437.86018,256.5238 437.9638,256.21293 438.13966,255.68535 437.78794,254.98192 437.9638,254.45435 438.06743,254.14347 438.29982,253.88593 438.40345,253.57506 438.63682,252.87494 438.40345,251.7053 438.40345,250.93719 438.40345,250.09571 438.11234,247.12294 438.40345,246.54073 438.49615,246.35536 438.75041,246.28646 438.84309,246.10109 439.31205,245.16318 438.37414,243.52184 438.84309,242.58393 438.93579,242.39856 439.19005,242.32965 439.28274,242.14428 439.5615,241.58676 439.28274,236.14704 439.28274,235.10996 439.28274,234.84167 439.11143,233.52268 439.28274,233.35138 439.38636,233.24775 439.61876,233.45501 439.72238,233.35138 439.94986,233.1239 439.50352,230.71158 439.72238,230.27386 439.81508,230.08849 440.06934,230.01959 440.16203,229.83422 440.33788,229.4825 439.98617,228.867 440.16203,228.51528 440.25473,228.32991 440.50899,228.26101 440.60167,228.07564 440.77753,227.72392 440.42581,227.10842 440.60167,226.7567 440.83511,226.28983 441.24753,226.34428 441.48096,225.87741 441.54646,225.74634 441.41546,225.56884 441.48096,225.43777 441.57366,225.2524 441.82792,225.18349 441.92061,224.99812 441.98611,224.86705 441.85511,224.68955 441.92061,224.55848 442.17667,224.04635 442.54383,223.75167 442.7999,223.23954 442.8654,223.10847 442.7344,222.93097 442.7999,222.7999 444.25802,221.34178 442.59265,223.2144 443.23954,221.92061 443.33224,221.73524 443.5865,221.66633 443.67919,221.48096 443.74469,221.34989 443.61369,221.17239 443.67919,221.04132 443.77189,220.85595 444.02615,220.78704 444.11883,220.60167 444.24991,220.33952 443.98776,219.98454 444.11883,219.72238 444.3749,219.21025 444.74206,218.91558 444.99812,218.40345 445.17398,218.05173 444.82226,217.43623 444.99812,217.08451 445.09082,216.89914 445.34508,216.83024 445.43777,216.64487 445.56884,216.38271 445.30669,216.02773 445.43777,215.76558 445.69383,215.25344 446.06099,214.95877 446.31706,214.44664 446.44814,214.18449 446.18598,213.8295 446.31706,213.56735 446.40976,213.38198 446.66402,213.31308 446.7567,213.1277 446.8222,212.99663 446.7104,212.82709 446.7567,212.68806 446.86033,212.37718 447.09272,212.11965 447.19635,211.80877 447.28905,211.53071 447.06527,211.19163 447.19635,210.92948 447.45241,210.41735 447.81957,210.12267 448.07564,209.61054 448.20672,209.34839 447.94456,208.99341 448.07564,208.73125 448.16834,208.54588 448.4226,208.47698 448.51528,208.29161 448.69114,207.93989 448.33943,207.32439 448.51528,206.97267 448.60798,206.7873 448.86224,206.7184 448.95493,206.53303 449.13079,206.18131 448.77907,205.56581 448.95493,205.21409 449.04763,205.02872 449.30189,204.95982 449.39457,204.77445 449.52565,204.51229 449.2635,204.15731 449.39457,203.89516 449.48727,203.70979 449.74153,203.64088 449.83422,203.45551 450.06908,202.98579 449.59936,203.04595 449.83422,202.57622 449.92692,202.39085 450.18118,202.32195 450.27386,202.13658 450.44972,201.78486 450.09801,201.16936 450.27386,200.81764 450.36656,200.63227 450.62082,200.56337 450.71351,200.378 450.94837,199.90827 450.47865,199.96843 450.71351,199.49871 450.80621,199.31334 451.06047,199.24443 451.15315,199.05906 451.28423,198.79691 451.02208,198.44192 451.15315,198.17977 451.24585,197.9944 451.50011,197.9255 451.5928,197.74013 451.72388,197.47797 451.46172,197.12299 451.5928,196.86084 451.6855,196.67546 451.93976,196.60656 452.03244,196.42119 452.06804,196.35009 452.06804,193.41479 452.03244,193.34367 451.93974,193.1583 451.68549,193.0894 451.5928,192.90403 451.2917,192.30183 451.82978,191.99042 452.03244,191.58509 452.38416,190.88166 451.68073,189.65066 452.03244,188.94722 452.12514,188.76185 452.3794,188.69295 452.47209,188.50758 452.60317,188.24542 452.34101,187.89044 452.47209,187.62829 452.56479,187.44292 452.81905,187.37401 452.91174,187.18864 453.14236,186.72739 452.56083,185.34132 452.91174,184.99042 453.01536,184.88679 453.24775,185.09404 453.35138,184.99042 453.64448,184.69732 453.05828,183.52493 453.35138,183.23184 453.45501,183.12821 453.6874,183.33546 453.79103,183.23184 453.99828,183.02459 453.65995,182.6147 453.79103,182.35255 454.04709,181.84042 454.41425,181.54574 454.67032,181.03361 454.80139,180.77146 454.53924,180.41647 454.67032,180.15432 454.76302,179.96895 455.01728,179.90005 455.10996,179.71468 455.17546,179.5836 455.04446,179.40611 455.10996,179.27503 455.20266,179.08966 455.45692,179.02076 455.54961,178.83539 455.61511,178.70431 455.48411,178.52682 455.54961,178.39574 455.64231,178.21037 455.89657,178.14147 455.98925,177.95609 456.05475,177.82502 455.92375,177.64753 455.98925,177.51645 456.08195,177.33108 456.33621,177.26218 456.4289,177.0768 456.4944,176.94573 456.3634,176.76824 456.4289,176.63716 456.5216,176.45179 456.77586,176.38289 456.86854,176.19751 456.93404,176.06644 456.80304,175.88895 456.86854,175.75787 456.96124,175.5725 457.2155,175.50359 457.30819,175.31822 457.43926,175.05607 457.10094,174.64618 457.30819,174.43893 457.41181,174.33531 457.64421,174.54256 457.74783,174.43893 457.85146,174.33531 457.68233,174.13037 457.74783,173.99929 457.84053,173.81392 458.09479,173.74501 458.18748,173.55964 458.25298,173.42857 458.12198,173.25108 458.18748,173.12 458.28018,172.93463 458.53444,172.86572 458.62712,172.68035 458.69262,172.54928 458.56162,172.37179 458.62712,172.24071 458.71982,172.05534 458.97408,171.98643 459.06677,171.80106 459.13227,171.66999 459.00127,171.49249 459.06677,171.36142 459.25214,170.99068 459.76069,170.85287 459.94606,170.48213 460.01156,170.35105 459.84243,170.14611 459.94606,170.04248 460.04968,169.93886 460.28208,170.14611 460.3857,170.04248 460.48933,169.93886 460.28208,169.70646 460.3857,169.60284 460.59295,169.39559 461.05774,169.81009 461.26499,169.60284 461.36862,169.49921 461.16137,169.26682 461.26499,169.16319 461.33829,169.08989 462.73048,169.01664 462.14428,169.60284 462.04066,169.70646 461.85119,169.60284 461.70464,169.60284 461.55809,169.60284 461.26499,169.74939 461.26499,169.60284 461.26499,169.39559 461.55809,169.30974 461.70464,169.16319"
       inkscape:connector-curvature="0"
       id="path3541"
       style="opacity:0.6;fill:none;stroke:#e20000;stroke-opacity:1" />
    <path
       d="M 371.13774,187.18864 C 371.28429,187.77484 370.99119,189.09377 371.57739,188.94722 372.16358,188.80067 371.13774,186.58441 371.13774,187.18864 371.13774,187.9359 371.45454,188.64978 371.57739,189.38687 371.62559,189.67598 371.44631,190.004 371.57739,190.26616 371.67009,190.45153 371.92435,190.52043 372.01703,190.7058 372.14976,190.97125 371.8138,191.82151 372.01703,192.02474 372.12066,192.12836 372.35305,191.92111 372.45668,192.02474 372.66393,192.23199 372.3256,192.64188 372.45668,192.90403 372.54938,193.0894 372.80364,193.1583 372.89632,193.34367 373.1308,193.81263 372.66185,194.6333 372.89632,195.10225 372.98902,195.28763 373.24328,195.35653 373.33597,195.5419 373.51183,195.89362 373.16011,196.50912 373.33597,196.86084 373.42867,197.04621 373.68293,197.11511 373.77561,197.30048 373.95863,197.66652 373.49674,198.78019 373.77561,199.05906 373.87924,199.16269 374.11163,198.95544 374.21526,199.05906 374.41849,199.26229 374.08254,200.11255 374.21526,200.378 374.30796,200.56337 374.56222,200.63227 374.6549,200.81764 374.78598,201.07979 374.44765,201.48968 374.6549,201.69693 374.75853,201.80056 374.99092,201.59331 375.09455,201.69693 375.3018,201.90418 374.96347,202.31407 375.09455,202.57622 375.35061,203.08835 375.71777,203.38303 375.97384,203.89516 376.03934,204.02623 375.87021,204.23118 375.97384,204.3348 376.07746,204.43843 376.30986,204.23118 376.41348,204.3348 376.51711,204.43843 376.30986,204.67082 376.41348,204.77445 376.51711,204.87807 376.7495,204.67082 376.85313,204.77445 376.95675,204.87807 376.78763,205.08302 376.85313,205.21409 377.10919,205.72622 377.47635,206.0209 377.73242,206.53303 377.79792,206.6641 377.62879,206.86905 377.73242,206.97267 377.83604,207.0763 378.06844,206.86905 378.17206,206.97267 378.27569,207.0763 378.06844,207.30869 378.17206,207.41232 378.27569,207.51594 378.50808,207.30869 378.61171,207.41232 378.71533,207.51594 378.54621,207.72089 378.61171,207.85196 379.52656,209.68166 378.58141,207.38197 379.491,208.29161 379.59463,208.39523 379.38737,208.62763 379.491,208.73125 379.59463,208.83488 379.82702,208.62763 379.93064,208.73125 380.03427,208.83488 379.82702,209.06727 379.93064,209.1709 380.03427,209.27452 380.22374,209.1709 380.37029,209.1709 380.37029,209.31745 380.26666,209.50692 380.37029,209.61054 380.57754,209.81779 381.04233,209.40329 381.24958,209.61054 381.35321,209.71417 381.14595,209.94656 381.24958,210.05019 381.45683,210.25744 381.92162,209.84294 382.12887,210.05019 382.2325,210.15381 382.02525,210.38621 382.12887,210.48983 382.2325,210.59346 382.46489,210.38621 382.56852,210.48983 382.67214,210.59346 382.46489,210.82585 382.56852,210.92948 382.67214,211.0331 382.87708,210.86398 383.00816,210.92948 383.53573,211.19327 383.79952,211.98463 384.3271,212.24841 384.45817,212.31391 384.63566,212.18291 384.76674,212.24841 385.29432,212.5122 385.5581,213.30356 386.08568,213.56735 386.21675,213.63285 386.39424,213.50185 386.52532,213.56735 388.35502,214.4822 386.05533,213.53705 386.96497,214.44664 387.06859,214.55027 387.27354,214.38114 387.40461,214.44664 388.86273,215.90476 386.99011,214.23939 388.2839,214.88629 388.81148,215.15007 389.07526,215.94143 389.60284,216.20522 389.86499,216.3363 390.21997,216.07414 390.48213,216.20522 391.0097,216.46901 391.27349,217.26037 391.80106,217.52416 391.93214,217.58966 392.10963,217.45866 392.24071,217.52416 392.42608,217.61686 392.49498,217.87112 392.68035,217.9638 392.81143,218.0293 393.01637,217.86018 393.12,217.9638 393.22362,218.06743 393.01637,218.29982 393.12,218.40345 393.22362,218.50707 393.42857,218.33795 393.55964,218.40345 393.74501,218.49615 393.81392,218.75041 393.99929,218.84309 394.13037,218.90859 394.30786,218.77759 394.43893,218.84309 394.95106,219.09916 395.24574,219.46632 395.75787,219.72238 395.88895,219.78788 396.06644,219.65688 396.19751,219.72238 397.13125,220.18925 396.14311,220.1348 397.0768,220.60167 397.20788,220.66717 397.38537,220.53617 397.51645,220.60167 397.88719,220.78704 398.025,221.29559 398.39574,221.48096 398.52682,221.54646 398.70431,221.41546 398.83539,221.48096 399.02076,221.57366 399.08966,221.82792 399.27503,221.92061 399.40611,221.98611 399.5836,221.85511 399.71468,221.92061 401.72676,222.92665 397.84908,221.73839 401.03361,222.7999 401.17264,222.8462 401.32671,222.7999 401.47326,222.7999 401.6198,222.94645 401.72753,223.14686 401.9129,223.23954 402.04398,223.30504 402.22147,223.17404 402.35255,223.23954 402.53792,223.33224 402.60682,223.5865 402.79219,223.67919 402.92327,223.74469 403.10076,223.61369 403.23184,223.67919 403.74397,223.93525 404.03864,224.30241 404.55077,224.55848 404.81293,224.68955 405.22281,224.35123 405.43006,224.55848 406.01626,225.14467 404.69732,224.99812 405.86971,224.99812 406.89358,224.99812 406.38696,225.03692 407.18864,225.43777 407.31972,225.50327 407.52466,225.33414 407.62829,225.43777 407.73191,225.54139 407.52466,225.77379 407.62829,225.87741 407.90716,226.15629 409.02082,225.69439 409.38687,225.87741 409.57224,225.97011 409.64114,226.22437 409.82651,226.31706 410.08867,226.44814 410.44365,226.18598 410.7058,226.31706 410.89117,226.40976 410.96008,226.66402 411.14545,226.7567 411.4076,226.88778 411.81749,226.54945 412.02474,226.7567 412.12836,226.86033 411.92111,227.09272 412.02474,227.19635 412.23199,227.4036 412.69678,226.9891 412.90403,227.19635 413.00765,227.29997 412.8004,227.53237 412.90403,227.63599 413.11128,227.84324 413.52117,227.50492 413.78332,227.63599 413.96869,227.72869 414.03759,227.98295 414.22296,228.07564 414.69269,228.3105 414.63253,227.84078 415.10225,228.07564 415.28763,228.16834 415.35653,228.4226 415.5419,228.51528 415.80405,228.64636 416.15904,228.38421 416.42119,228.51528 416.60656,228.60798 416.67546,228.86224 416.86084,228.95493 417.12299,229.08601 417.47797,228.82385 417.74013,228.95493 417.9255,229.04763 417.9944,229.30189 418.17977,229.39457 418.44192,229.52565 418.79691,229.2635 419.05906,229.39457 419.24443,229.48727 419.31334,229.74153 419.49871,229.83422 419.76086,229.9653 420.17075,229.62697 420.378,229.83422 420.48162,229.93784 420.27437,230.17024 420.378,230.27386 420.58525,230.48112 421.05004,230.06661 421.25729,230.27386 421.36091,230.37749 421.15366,230.60988 421.25729,230.71351 421.46454,230.92076 421.92933,230.50626 422.13658,230.71351 422.2402,230.81713 422.03295,231.04953 422.13658,231.15315 422.3564,231.37298 423.23569,230.93333 423.45551,231.15315 423.55914,231.25678 423.35189,231.48917 423.45551,231.5928 423.55914,231.69643 423.76408,231.5273 423.89516,231.5928 424.08053,231.6855 424.14943,231.93976 424.3348,232.03244 424.59696,232.16352 425.00684,231.82519 425.21409,232.03244 425.31772,232.13607 425.11047,232.36846 425.21409,232.47209 425.24039,232.49839 426.09338,232.79002 426.09338,232.03244"
       inkscape:connector-curvature="0"
       id="path3543"
       style="opacity:0.6;fill:none;stroke:#e20000;stroke-opacity:1" />
    <path
       d="M 597.55498,272.04015 C 599.46621,275.66478 596.97673,280.41776 597.28531,284.64767 596.21151,290.33761 594.02875,295.9254 594.20148,301.77253 592.68546,306.76598 591.41142,311.89097 589.24947,316.57443 587.16261,321.48478 585.31198,326.27943 582.9035,331.20506 580.26318,337.58448 577.39625,344.20191 571.94345,348.70149 567.6091,354.07995 561.15129,358.62836 553.93438,357.82887 551.65828,358.24548 547.0444,356.25128 546.99578,356.45199"
       inkscape:connector-curvature="0"
       id="path3545"
       style="opacity:0.6;fill:none;stroke:#e20000;stroke-opacity:1" />
    <path
       d="M 444.11884,148.49987 461.26499,64.967299"
       inkscape:connector-curvature="0"
       id="path3547"
       style="fill:none;stroke:#0000e9;stroke-width:1;stroke-miterlimit:4;stroke-opacity:1;stroke-dasharray:none;stroke-dashoffset:0" />
    <path
       d="M 470.93718,157.73243 490.72121,72.88091"
       inkscape:connector-curvature="0"
       id="path3549"
       style="fill:none;stroke:#0000e9;stroke-width:1;stroke-miterlimit:4;stroke-opacity:1;stroke-dasharray:none;stroke-dashoffset:0" />
    <path
       d="M 506.1088,168.72355 531.60821,86.949555"
       inkscape:connector-curvature="0"
       id="path3551"
       style="fill:none;stroke:#0000e9;stroke-width:1;stroke-miterlimit:4;stroke-opacity:1;stroke-dasharray:none;stroke-dashoffset:0" />
    <path
       d="M 586.12421,236.42891 657.78636,195.98155"
       inkscape:connector-curvature="0"
       id="path3553"
       style="fill:none;stroke:#0000e9;stroke-width:1;stroke-miterlimit:4;stroke-opacity:1;stroke-dasharray:none;stroke-dashoffset:0" />
    <path
       d="M 598.21445,277.09607 668.99731,278.63482"
       inkscape:connector-curvature="0"
       id="path3555"
       style="fill:none;stroke:#0000e9;stroke-width:1;stroke-miterlimit:4;stroke-opacity:1;stroke-dasharray:none;stroke-dashoffset:0" />
    <path
       d="M 585.20172,327.52182 641.4763,342.03011"
       inkscape:connector-curvature="0"
       id="path3557"
       style="fill:none;stroke:#0000e9;stroke-width:1;stroke-miterlimit:4;stroke-opacity:1;stroke-dasharray:none;stroke-dashoffset:0" />
    <path
       d="M 566.34018,421.07985 C 564.3748,410.34753 565.66914,394.80118 554.10215,386.72073 548.03467,384.46394 533.6113,393.93651 532.6292,399.35147 530.41625,407.61572 527.6207,413.58486 529.08525,421.9855 529.85707,426.16129 530.34479,431.9735 532.14551,434.97404 532.06961,434.27089 531.81841,433.61626 531.60821,432.95027"
       inkscape:connector-curvature="0"
       id="path3559"
       style="fill:none;stroke:#0000e9;stroke-width:1;stroke-miterlimit:4;stroke-opacity:1;stroke-dasharray:none;stroke-dashoffset:0" />
    <path
       d="M 468.51914,434.70884 C 469.02382,424.26075 471.28784,422.41129 474.05586,417.35531 482.78182,415.80918 491.64057,414.86857 500.48298,415.11194 505.65908,415.61816 510.76693,416.49282 515.94374,416.58114 517.06935,415.63248 534.71211,418.08883 528.53066,416.24378"
       inkscape:connector-curvature="0"
       id="path3561"
       style="fill:none;stroke:#0000e9;stroke-width:1;stroke-miterlimit:4;stroke-opacity:1;stroke-dasharray:none;stroke-dashoffset:0" />
    <path
       d="M 442.36025,420.6402 C 439.91065,417.15806 438.0989,413.28432 436.38233,409.4034 435.64639,405.27502 437.33406,400.90895 440.56342,398.25736 444.95756,393.94774 451.06761,391.69035 457.17032,391.5054 460.81224,391.26908 464.51803,391.4952 467.97943,392.73204 471.3318,393.72162 474.73802,395.08102 477.15818,397.70185 480.58626,399.29121 482.88271,403.8629 480.8067,407.33848 479.00521,411.04721 476.8395,414.63216 473.98545,417.63135 474.6889,417.30621 475.00139,417.27725 475.33362,418.00231"
       inkscape:connector-curvature="0"
       id="path3563"
       style="fill:none;stroke:#0000e9;stroke-width:1;stroke-miterlimit:4;stroke-opacity:1;stroke-dasharray:none;stroke-dashoffset:0" />
    <path
       d="M 480.16973,401.29582 C 482.05939,400.35099 481.27293,400.41653 482.36796,400.41653"
       inkscape:connector-curvature="0"
       id="path3565"
       style="fill:none;stroke:#0000e9;stroke-width:1;stroke-miterlimit:4;stroke-opacity:1;stroke-dasharray:none;stroke-dashoffset:0" />
    <path
       d="M 531.16857,404.37333 480.16973,401.29582"
       inkscape:connector-curvature="0"
       id="path3567"
       style="fill:none;stroke:#0000e9;stroke-width:1;stroke-miterlimit:4;stroke-opacity:1;stroke-dasharray:none;stroke-dashoffset:0" />
    <path
       d="M 611.84344,277.97535 C 618.47103,298.68502 605.46846,334.71823 591.98359,352.15541 585.48066,358.79285 580.36798,367.20673 572.82231,372.6585 567.82185,378.11335 562.58601,383.87391 556.25354,387.70843"
       inkscape:connector-curvature="0"
       id="path3569"
       style="fill:none;stroke:#0000e9;stroke-width:1;stroke-miterlimit:4;stroke-opacity:1;stroke-dasharray:none;stroke-dashoffset:0" />
    <path
       d="M 373.00502,74.559318 C 389.51824,97.77996 405.73257,121.28091 421.70946,144.8888 421.92838,146.63371 419.15173,146.67243 418.02743,145.91922 402.0433,139.93363 386.56783,132.50762 370.58697,126.58857 369.1806,125.89129 369.92733,123.55244 369.25213,122.29943 367.88729,117.98403 367.39377,113.47933 368.08649,108.98903 368.46367,99.588282 367.55827,90.079167 368.80091,80.741827 369.74287,78.571653 370.4739,75.582514 372.64781,74.421929 L 373.00502,74.559318 z"
       inkscape:connector-curvature="0"
       id="path3591"
       style="fill:#746bdb;stroke:none" />
    <path
       d="M 371.80973,127.31673 C 387.47765,133.8476 403.16239,140.41602 418.75559,147.08702 419.49478,148.76424 417.83439,150.88913 417.57404,152.66502 417.24711,156.07483 413.70155,157.18261 412.13344,159.85047 405.97535,165.8073 398.2164,170.08836 390.14157,172.87536 384.11828,174.60525 375.98073,173.98447 372.68902,167.84652 369.71077,163.31541 368.39821,158.01992 368.18628,152.64627 367.72388,146.22855 366.62368,139.67927 367.52319,133.27942 368.88441,131.62415 370.00804,129.83848 370.4221,127.68768 370.56588,127.0096 371.30482,126.98214 371.80973,127.31673 z"
       inkscape:connector-curvature="0"
       id="path3593"
       style="fill:#6a72bc;stroke:none" />
    <path
       d="M 462.16852,66.123156 C 471.11394,67.674592 480.11105,69.331695 488.79453,71.948454 491.29074,72.536884 489.73728,75.293197 489.46773,76.949418 483.26892,103.49231 477.42305,130.13435 470.56299,156.51145 469.0273,157.4775 466.85411,155.70536 465.14251,155.56936 458.47809,153.3438 451.6958,151.36122 445.25592,148.55662 444.56303,146.12201 445.91934,143.35433 446.07934,140.84297 450.95143,115.99639 455.97822,91.13738 461.3854,66.425412 461.73662,66.223914 461.7596,66.043292 462.16852,66.123156 z"
       inkscape:connector-curvature="0"
       id="path6079"
       style="fill:#d7ab8f;stroke:none" />
    <path
       d="M 492.09187,73.239912 C 501.40275,75.79454 509.98833,80.357997 519.35636,82.763821 523.20321,84.071687 527.38884,84.850863 530.98672,86.649088 528.83959,95.732717 525.65616,104.64104 523.04733,113.63598 517.30918,131.82071 511.92115,150.16425 505.59722,168.13456 502.94115,168.28997 500.27048,166.43181 497.63409,165.81637 489.15433,162.58397 480.28052,160.42334 471.7995,157.28082 471.18631,155.32093 472.75158,152.74034 472.91815,150.55905 478.8757,124.9323 484.71268,99.265214 490.81415,73.679557 491.06938,73.220984 491.61973,73.142801 492.09187,73.239912 z"
       inkscape:connector-curvature="0"
       id="path6081"
       style="fill:#736cd4;stroke:none" />
    <path
       d="M 532.73156,87.0063 C 543.06548,89.799903 552.79745,94.610397 562.68566,98.6643 583.39302,108.41853 603.51765,119.98621 620.45834,135.50405 631.91394,145.97344 640.01487,159.50833 646.28541,173.5995 649.55529,180.5372 651.93371,187.82213 655.68107,194.49953 656.5553,195.59307 656.30427,196.9358 654.84628,197.2599 632.0996,210.23529 609.25973,223.04644 586.46444,235.93608 584.66479,235.2105 583.96919,232.53902 582.52971,231.12123 579.37631,227.06503 576.11019,223.08278 573.97577,218.44645 569.24601,210.93335 563.55053,203.97783 558.2722,196.79393 551.59949,189.56203 543.25002,184.1377 534.25036,180.11852 527.43392,176.36019 520.01054,174.25961 512.74145,171.58303 510.82853,170.49493 507.91003,170.22532 506.77876,168.27195 514.83944,141.21682 523.25327,114.24094 531.89349,87.363511 532.03354,87.008984 532.41464,86.958433 532.73156,87.0063 z"
       inkscape:connector-curvature="0"
       id="path6083"
       style="fill:#bf9784;stroke:none" />
    <path
       d="M 554.02687,386.7481 C 558.82384,390.7797 562.21723,396.26412 563.30064,402.45167 564.4735,408.53817 565.698,414.75487 565.74616,420.95799 564.25612,423.33919 560.898,423.88498 558.56599,425.25407 551.08825,428.28909 543.37278,430.73332 535.84248,433.63161 534.43741,434.03261 532.16064,435.01008 531.68741,432.91084 530.25762,428.18118 529.10529,423.16708 529.2144,418.19647 529.1829,417.103 531.20047,416.89018 529.69526,416.2318 528.16581,413.7843 530.17549,410.69403 530.43914,408.11284 531.91396,402.89662 532.69695,396.86228 537.48574,393.49221 542.11278,389.72007 547.87938,386.34442 554.02687,386.7481 z"
       inkscape:connector-curvature="0"
       id="path6093"
       style="fill:#b9abdd;stroke:none" />
    <path
       d="M 485.34606,401.80595 C 500.23665,402.83476 515.15173,403.50241 530.03874,404.58121 531.22902,405.79114 529.58075,407.91238 529.58493,409.41697 528.78024,411.4874 529.12845,413.97013 528.26642,416.01198 524.91956,417.14445 521.12909,416.17068 517.6325,416.31423 505.72353,415.5144 493.72329,414.15461 481.8289,415.97076 480.02906,416.17518 478.2291,416.63663 476.41577,416.60275 475.52421,415.146 477.81729,413.71593 478.25623,412.35556 480.22315,409.2634 482.12217,405.83834 481.62282,402.03951 482.11982,400.88578 484.36352,402.04251 485.34606,401.80595 z"
       inkscape:connector-curvature="0"
       id="path6095"
       style="fill:#aac7db;stroke:none" />
    <path
       d="M 604.87458,333.18009 C 615.8227,335.28427 626.58797,338.49678 637.39458,341.28605 638.49795,342.73322 635.82405,344.04861 635.35492,345.33084 633.13706,347.81716 631.75597,350.79975 630.29156,353.70602 626.6056,358.47097 623.56004,363.71997 618.95386,367.69961 612.5581,374.478 605.32588,380.87734 601.3162,389.37223 599.92319,392.0126 597.83062,394.39164 595.99924,396.7775 590.36321,402.72258 585.25302,409.46468 578.34474,413.95114 574.50678,415.91834 571.13148,418.79834 567.29866,420.66947 565.58699,419.58871 566.33542,416.7085 565.74995,414.97081 564.67863,405.86181 563.67768,395.95677 557.28299,388.83641 555.88356,387.09503 559.346,386.36448 560.16817,385.2643 568.52604,377.92434 576.66969,370.12817 583.97063,361.80397 590.26853,354.68402 596.35452,347.42794 600.73199,338.88163 602.06807,337.14028 602.5538,334.31059 604.40746,333.16635 604.56323,333.16935 604.71964,333.15735 604.87458,333.18005 z"
       inkscape:connector-curvature="0"
       id="path6117"
       style="fill:#d5be93;stroke:none" />
    <path
       d="M 600.86557,277.23948 C 604.43112,277.51547 608.04456,277.18158 611.58878,277.56234 612.02518,278.3566 612.01509,279.42975 612.3719,280.33073 614.90025,292.54021 612.6144,305.16717 609.0883,316.93806 607.45175,321.9386 605.85433,327.01539 603.44848,331.70051 602.58147,332.33756 601.3617,331.30934 600.37257,331.29246 595.55175,329.98971 590.61057,328.96258 585.85581,327.40024 584.59979,326.8092 585.81491,325.38402 586.0449,324.50741 589.26827,316.89315 592.65413,309.22591 594.27196,301.12057 594.56929,294.262 597.14263,287.73767 597.69423,280.90293 597.92481,279.66591 597.87475,278.29127 598.46126,277.17765 599.23304,277.01208 600.07622,277.24705 600.86557,277.23945 z"
       inkscape:connector-curvature="0"
       id="path6197"
       style="fill:#c7afc8;stroke:none" />
    <path
       d="M 656.89971,196.99737 C 658.42093,199.12967 659.30816,201.69473 660.50494,204.03244 662.20515,207.26947 663.15657,210.77328 663.76917,214.34961 665.89738,223.49364 667.71628,232.73 670.37758,241.72439 670.25105,251.9334 670.45923,262.1521 670.05728,272.35455 669.79869,274.37465 669.7081,276.51962 669.06552,278.42789 665.35123,278.58167 661.57267,278.26467 657.8349,278.26157 638.18587,277.86006 618.53787,277.35732 598.88716,277.06774 597.90291,276.52696 598.61088,275.04717 598.26204,274.09326 598.12524,273.46501 597.68533,272.05788 598.77725,272.1286 599.42927,272.34719 599.76777,273.31185 600.32288,273.47501 600.35938,270.14179 598.43656,267.07068 598.159,263.72039 597.00381,258.10621 594.39599,252.90287 592.45662,247.50715 590.90436,244.65593 588.81332,242.10916 587.38769,239.16896 587.11573,238.29646 585.73743,236.90114 586.9137,236.20135 610.0404,223.05074 633.2134,209.97116 656.43259,196.9905 656.5796,197.0284 656.75599,196.9457 656.89971,196.9975 z"
       inkscape:connector-curvature="0"
       id="path6199"
       style="fill:#e19179;stroke:none" />
    <path
       d="M 614.41213,277.62416 C 632.45518,277.92044 650.49775,278.27795 668.53657,278.77136 669.61301,279.46635 668.31426,280.99257 668.27143,282.04483 666.68101,286.46123 667.21254,291.35938 665.45218,295.71144 662.69547,301.43734 660.90977,307.65063 657.41492,313.02934 654.08464,318.42089 650.33901,323.53435 647.27786,329.10602 644.82324,332.82806 642.75929,336.8682 639.51999,340.00569 639.12701,340.55385 638.71808,341.36819 637.88506,340.92619 626.6741,338.10896 615.46344,335.23161 604.29342,332.3325 603.43402,331.6347 604.61785,330.52391 604.75204,329.68766 608.99467,319.45157 612.20629,308.67604 613.3405,297.60741 613.87622,291.24533 613.81278,284.70562 612.17956,278.51719 611.84599,277.11915 613.71566,277.75789 614.41213,277.62416 z"
       inkscape:connector-curvature="0"
       id="path6201"
       style="fill:#cda392;stroke:none" />
    <path
       d="M 412.11355,62.156838 C 415.32242,62.488178 418.52453,62.850595 421.76951,62.880791 423.41318,62.681332 422.79516,64.774686 423.04056,65.796927 424.0448,87.504516 424.50299,109.23518 424.91789,130.96114 424.95799,135.51594 425.09615,140.10141 425.14491,144.63838 424.57814,145.39942 423.13576,145.70389 422.36278,145.09177 405.88981,121.23208 389.48547,97.262439 373.15,73.285355 372.94897,72.118852 374.45571,71.565858 375.13201,70.851511 380.33599,67.092276 386.88014,66.049866 393.06455,64.966445 399.4556,64.211055 405.63507,62.094737 412.11355,62.156838 z"
       inkscape:connector-curvature="0"
       id="path6203"
       style="fill:#b1daa9;stroke:none" />
    <path
       d="M 428.15373,63.13917 C 438.94488,63.566628 449.7339,64.266349 460.4539,65.564088 461.29183,66.375174 460.27564,67.727741 460.30456,68.757843 454.99666,94.849326 449.72736,120.97994 444.26947,147.02209 444.26847,147.97862 443.32605,148.24472 442.59332,147.77773 437.05187,146.06666 431.27107,144.68581 425.44716,145.07116 424.65082,145.13236 424.48109,143.95798 425.24795,143.77283 425.30675,132.75035 424.92674,121.72524 424.73047,110.70347 424.37881,94.96053 423.77381,79.223817 423.18711,63.489512 423.95991,62.420528 425.79299,63.322464 426.99776,63.099924 427.38308,63.113004 427.7684,63.126084 428.15373,63.139174 z"
       inkscape:connector-curvature="0"
       id="path6205"
       style="fill:#dbc198;stroke:none" />
    <path
       d="M 461.5065,391.89203 C 466.38186,391.75008 471.07891,393.72588 475.13648,396.26372 477.98624,398.32783 481.52564,400.89165 481.38314,404.83224 480.06585,409.94093 476.45308,414.09526 473.37808,418.2582 470.75309,422.28582 468.96652,426.70825 468.64602,431.52617 468.28723,432.47297 468.82139,434.67356 467.41315,434.59862 463.90894,431.38371 459.8709,428.68819 455.8673,426.05944 451.93493,423.31517 447.21841,422.02208 442.68097,420.70709 440.02358,416.70606 437.53574,412.4215 436.34497,407.7467 436.24647,401.30567 441.76806,396.61502 447.12929,394.09391 450.48009,392.43892 454.19319,391.59109 457.95085,391.88722 459.13602,391.88222 460.32141,391.87392 461.5065,391.89222 z"
       inkscape:connector-curvature="0"
       id="path8948"
       style="fill:#a4a7da;stroke:none;display:inline;enable-background:new" />
    <path
       d="M 499.20023,415.39231 C 505.95929,415.64334 512.66189,416.8434 519.44587,416.64306 522.38467,416.81826 525.43797,416.65206 528.29628,417.18956 529.09169,422.88205 529.94433,428.64192 531.35647,434.1906 530.26244,435.75952 527.87729,435.798 526.2853,436.67761 521.61046,438.27461 516.98841,439.94874 512.48046,441.93336 506.16123,444.01391 499.38182,444.36599 492.82767,443.29121 486.42176,442.39315 479.86262,441.88482 473.70839,439.84466 471.56611,438.71689 469.54074,437.08985 468.16119,435.1038 468.41712,434.36128 468.88932,433.56769 468.83152,432.6265 469.27722,427.29992 470.84729,421.84133 474.39815,417.76274 476.16386,417.5287 477.95871,416.63558 479.84507,416.58214 486.25543,415.72733 492.7348,415.36927 499.20023,415.39231 z"
       inkscape:connector-curvature="0"
       id="path8950"
       style="fill:#c7a1db;stroke:none;display:inline;enable-background:new" />
  </g>
</svg>
