<?xml version="1.0" encoding="UTF-8" standalone="no"?>
<!-- Created with Inkscape (http://www.inkscape.org/) -->

<svg
   xmlns:dc="http://purl.org/dc/elements/1.1/"
   xmlns:cc="http://creativecommons.org/ns#"
   xmlns:rdf="http://www.w3.org/1999/02/22-rdf-syntax-ns#"
   xmlns:svg="http://www.w3.org/2000/svg"
   xmlns="http://www.w3.org/2000/svg"
   xmlns:xlink="http://www.w3.org/1999/xlink"
   xmlns:inkscape="http://www.inkscape.org/namespaces/inkscape"
   version="1.1"
   width="740"
   height="520"
   id="svg2"
   style="enable-background:new">
  <defs
     id="defs4">
    <filter
       color-interpolation-filters="sRGB"
       id="filter3050">
      <feBlend
         in2="BackgroundImage"
         mode="lighten"
         id="feBlend3052" />
    </filter>
  </defs>
  <metadata
     id="metadata7">
    <rdf:RDF>
      <cc:Work
         rdf:about="">
        <dc:format>image/svg+xml</dc:format>
        <dc:type
           rdf:resource="http://purl.org/dc/dcmitype/StillImage" />
        <dc:title />
      </cc:Work>
    </rdf:RDF>
  </metadata>
  <g
     id="layer1"
     style="display:none">
    <image
       xlink:href="pngs/coronal-0516.png"
       id="MRISLICE"
       height="520"
       width="740"
       y="0"
       x="0" />
  </g>
  <g
     id="layer3"
     style="display:inline">
    <path
       d="M 372.03348,225.29041 369.9425,389.43206 404.13886,403.73236 C 428.9099,416.30682 408.42582,426.86212 438.33523,431.7112 475.59146,436.28312 475.63193,445.68012 500.51044,442.28098 521.91202,437.10207 527.76222,422.46647 539.68082,407.46287 551.20393,392.20918 567.43397,384.01588 581.95996,373.26651 637.45124,352.04813 637.35395,271.52234 642.26991,250.15959 640.29941,190.41318 617.85214,153.299 584.44697,128.29618 548.74458,108.57976 512.3775,93.516135 475.0186,85.395286 450.97838,78.581793 406.16365,54.119705 373.67301,96.586824 L 372.37796,198.24858"
       inkscape:connector-curvature="0"
       id="path2990"
       style="fill:none;stroke:#0000e9;stroke-width:1;stroke-miterlimit:4;stroke-opacity:1;stroke-dasharray:none;stroke-dashoffset:0" />
    <path
       d="M 580.71646,373.88826 C 570.96894,378.23475 544.56288,380.02696 544.03308,398.13659"
       inkscape:connector-curvature="0"
       id="path2992"
       style="fill:none;stroke:#0000e9;stroke-width:1;stroke-miterlimit:4;stroke-opacity:1;stroke-dasharray:none;stroke-dashoffset:0" />
    <path
       d="M 448.28326,320.41758 C 447.1105,320.81125 446.86288,318.68622 445.6266,319.04526 444.31996,318.04358 442.7051,317.64136 441.08792,317.72501 439.27503,317.51563 437.56289,316.2194 435.70018,316.85015 433.63909,317.46679 431.87094,318.9768 430.7523,320.78902 429.62418,322.92866 429.99207,325.58355 431.24729,327.5778 431.94949,329.68132 432.09079,332.09221 433.67089,333.79271 434.50517,335.24043 435.29235,336.99966 437.03182,337.52249 438.40718,338.28856 439.72065,339.43429 441.38119,339.42624 445.27195,341.3363 450.52483,340.93388 453.54345,337.61941 455.0839,335.90275 455.17257,333.29701 454.22579,331.27096 452.87507,327.34161 450.44071,323.92648 448.28326,320.41758 z"
       inkscape:connector-curvature="0"
       id="path2994"
       style="fill:none;stroke:#0000e9;stroke-width:1;stroke-miterlimit:4;stroke-opacity:1;stroke-dasharray:none;stroke-dashoffset:0" />
    <path
       d="M 371.80775,197.31066 C 372.63676,197.10341 373.46576,196.89616 371.80775,197.31066 z"
       inkscape:connector-curvature="0"
       id="path2996"
       style="fill:none;stroke:#0000e9;stroke-width:1;stroke-miterlimit:4;stroke-opacity:1;stroke-dasharray:none;stroke-dashoffset:0" />
    <path
       d="M 371.80775,197.93242 C 388.50501,197.45504 404.76992,195.6806 416.5739,180.52336 432.73546,161.51471 424.05266,153.14447 447.03976,163.73605 483.36517,172.69929 512.36644,190.29564 539.42328,209.19939 557.55823,228.90379 563.91342,250.49596 563.06058,274.01986"
       inkscape:connector-curvature="0"
       id="path2998"
       style="fill:none;stroke:#0000e9;stroke-width:1;stroke-miterlimit:4;stroke-opacity:1;stroke-dasharray:none;stroke-dashoffset:0" />
    <path
       d="M 564.21875,266.43765 561.34375,266.68243 C 562.70183,286.17466 558.30464,306.25739 555.125,325.81549 L 557.96875,326.375 C 561.12599,306.95465 565.62613,286.63756 564.21875,266.43765 z"
       inkscape:connector-curvature="0"
       id="path3048"
       style="font-size:medium;font-style:normal;font-variant:normal;font-weight:normal;font-stretch:normal;text-indent:0;text-align:start;text-decoration:none;line-height:normal;letter-spacing:normal;word-spacing:normal;text-transform:none;direction:ltr;block-progression:tb;writing-mode:lr-tb;text-anchor:start;baseline-shift:baseline;color:#000000;fill:#73a0a6;fill-opacity:1;stroke:none;stroke-width:2.9000001;marker:none;visibility:visible;display:inline;overflow:visible;enable-background:accumulate;font-family:Sans;-inkscape-font-specification:Sans" />
    <path
       d="M 562.55687,273.58198 C 551.0516,207.06153 520.59495,211.72103 502.37569,198.55417 485.87419,191.63051 434.247,181.60302 426.52194,205.39344 408.42163,212.08089 386.48727,224.38396 372.4295,225.28951 363.46091,225.40131 354.71461,222.84555 346.16047,217.98393"
       inkscape:connector-curvature="0"
       id="path3000"
       style="fill:none;stroke:#0000e9;stroke-width:1;stroke-miterlimit:4;stroke-opacity:1;stroke-dasharray:none;stroke-dashoffset:0" />
    <path
       d="M 428.38719,204.14994 C 420.593,220.94538 420.73171,236.60755 422.52784,252.03294"
       inkscape:connector-curvature="0"
       id="path3059"
       style="fill:none;stroke:#0000e9;stroke-width:1;stroke-miterlimit:4;stroke-opacity:1;stroke-dasharray:none;stroke-dashoffset:0" />
    <path
       d="M 423.03125,251.96875 420.93214,250.55499 C 423.41032,270.19025 431.76272,288.8369 427.28125,305.375 L 428.25,305.625 C 432.84743,288.65894 425.48781,271.43271 423.03125,251.96875 z"
       inkscape:connector-curvature="0"
       id="path3004"
       style="font-size:medium;font-style:normal;font-variant:normal;font-weight:normal;font-stretch:normal;text-indent:0;text-align:start;text-decoration:none;line-height:normal;letter-spacing:normal;word-spacing:normal;text-transform:none;direction:ltr;block-progression:tb;writing-mode:lr-tb;text-anchor:start;baseline-shift:baseline;color:#000000;fill:#a7b0c5;fill-opacity:1;stroke:none;stroke-width:1;marker:none;visibility:visible;display:inline;overflow:visible;enable-background:accumulate;font-family:Sans;-inkscape-font-specification:Sans" />
    <path
       d="M 424.03493,256.99886 397.29959,215.34147"
       inkscape:connector-curvature="0"
       id="path3006"
       style="fill:none;stroke:#0000e9;stroke-width:1;stroke-miterlimit:4;stroke-opacity:1;stroke-dasharray:none;stroke-dashoffset:0" />
    <path
       d="M 556.32373,326.08878 C 554.48279,333.06856 544.96678,344.8147 527.24578,353.99219 L 517.29774,376.99701 C 529.28455,382.26985 538.25858,391.41647 545.27659,400.00185"
       inkscape:connector-curvature="0"
       id="path3008"
       style="fill:none;stroke:#0000e9;stroke-width:1;stroke-miterlimit:4;stroke-opacity:1;stroke-dasharray:none;stroke-dashoffset:0" />
    <path
       d="M 419.06091,420.51966 C 422.63973,411.36006 426.88239,404.19197 432.11771,400.00185 464.9093,415.23772 496.888,421.26092 524.75877,380.72753"
       inkscape:connector-curvature="0"
       id="path3010"
       style="fill:none;stroke:#0000e9;stroke-width:1;stroke-miterlimit:4;stroke-opacity:1;stroke-dasharray:none;stroke-dashoffset:0" />
    <path
       d="M 528.48928,353.99219 C 527.66918,352.37328 530.16608,350.85554 528.93386,353.30694 528.17562,353.59557 529.70238,350.18841 528.53534,349.63698 528.52634,345.5732 524.59706,347.92484 524.36509,350.51942 521.8202,353.61871 519.57718,357.0808 517.97203,360.78779 516.19397,363.59584 515.56581,366.89109 514.42085,369.97209 513.70966,372.74015 514.17959,375.63665 515.15695,378.23985 516.36631,378.53387 517.55471,379.83896 519.16296,378.24044"
       inkscape:connector-curvature="0"
       id="path3012"
       style="fill:none;stroke:#0000e9;stroke-width:1;stroke-miterlimit:4;stroke-opacity:1;stroke-dasharray:none;stroke-dashoffset:0" />
    <path
       d="M 519.163,357.10095 C 505.61492,361.47631 496.75091,351.79947 488.07539,341.55715 473.81548,314.72758 452.55519,304.23222 428.38719,300.52151"
       inkscape:connector-curvature="0"
       id="path3014"
       style="fill:none;stroke:#0000e9;stroke-width:1;stroke-miterlimit:4;stroke-opacity:1;stroke-dasharray:none;stroke-dashoffset:0" />
    <path
       d="M 429.6307,297.41275 C 419.1436,302.58221 410.23518,312.93892 409.90084,325.03225 410.59497,334.4764 418.91109,341.52183 419.01019,351.07601 418.25871,357.43784 413.24865,363.58406 415.99722,370.10745 418.94557,376.97506 426.57463,380.69222 428.69802,388.04486 430.78572,392.30424 433.01219,396.70555 433.25276,401.53445 433.0649,401.72573 432.60079,401.54845 432.73942,401.24533"
       inkscape:connector-curvature="0"
       id="path3050"
       style="fill:none;stroke:#0000e9;stroke-width:1;stroke-miterlimit:4;stroke-opacity:1;stroke-dasharray:none;stroke-dashoffset:0" />
    <path
       d="M 408.90558,372.76984 C 413.53677,379.21428 420.34437,384.81283 421.53641,393.09858 422.30244,399.09176 418.47474,406.32601 412.00366,406.90707 404.67655,406.98247 399.29153,401.11474 395.08063,395.82294 391.39608,391.69617 387.07131,388.14866 382.33201,385.29798 377.93442,375.19135 401.45921,361.70934 405.07149,367.67073"
       inkscape:connector-curvature="0"
       id="path3052"
       style="fill:none;stroke:#0000e9;stroke-width:1;stroke-miterlimit:4;stroke-opacity:1;stroke-dasharray:none;stroke-dashoffset:0" />
    <path
       d="M 518.23037,378.86228 C 516.09918,381.93219 514.70626,382.80337 511.06287,385.31572 506.46004,390.56795 498.78315,393.22374 492.03714,390.95793 486.59077,390.08004 479.90244,390.29714 476.26685,395.10624 474.05895,397.82446 469.73641,404.26684 467.8918,407.21393 463.77444,408.1329 467.73777,399.5081 466.41514,397.22685 463.61389,394.4905 459.83363,397.62567 456.73029,398.16368 451.89243,398.89228 452.92756,391.75589 448.99264,391.38839 444.78803,391.70184 444.0538,400.97841 444.37111,404.69014"
       inkscape:connector-curvature="0"
       id="path3054"
       style="fill:none;stroke:#0000e9;stroke-width:1;stroke-miterlimit:4;stroke-opacity:1;stroke-dasharray:none;stroke-dashoffset:0" />
    <path
       d="M 514.81073,378.24052 C 501.96844,385.4515 486.61574,388.10759 472.14683,385.17054 461.55952,383.17052 451.55841,378.88336 442.06574,373.88826 440.09139,366.43494 432.82741,362.3808 426.59238,358.84337 423.42951,357.07335 420.21973,355.37485 417.19566,353.37044"
       inkscape:connector-curvature="0"
       id="path3056"
       style="fill:none;stroke:#0000e9;stroke-width:1;stroke-miterlimit:4;stroke-opacity:1;stroke-dasharray:none;stroke-dashoffset:0" />
    <path
       d="M 410.97813,325.39159 C 412.34086,326.13457 409.26728,327.47147 410.05861,326.21709 411.3949,327.32242 409.27656,328.64008 409.38537,329.93657 409.20635,331.58867 409.96445,333.19214 409.72548,334.84602 409.82789,336.39218 410.47767,337.83725 410.64661,339.37406 411.17023,341.37002 412.13353,343.23316 412.45745,345.28563 412.97119,347.26069 413.64393,349.19189 414.28,351.12816 414.73648,352.3012 415.55557,353.33532 416.65338,353.96452 417.38158,354.50122 418.71216,355.96752 417.19563,356.4793"
       inkscape:connector-curvature="0"
       id="path3058"
       style="fill:none;stroke:#0000e9;stroke-width:1;stroke-miterlimit:4;stroke-opacity:1;stroke-dasharray:none;stroke-dashoffset:0" />
    <path
       d="M 489.3189,342.1789 C 483.25686,370.87587 466.34406,363.92034 448.90501,355.2357 410.30103,328.53997 428.53379,319.0229 426.52194,304.87378"
       inkscape:connector-curvature="0"
       id="path3146"
       style="fill:none;stroke:#0000e9;stroke-width:1;stroke-miterlimit:4;stroke-opacity:1;stroke-dasharray:none;stroke-dashoffset:0" />
    <path
       d="M 470.66634,362.69672 C 466.72101,366.21241 468.65229,375.60472 469.42283,383.83629"
       inkscape:connector-curvature="0"
       id="path3148"
       style="fill:none;stroke:#0000e9;stroke-width:1;stroke-miterlimit:4;stroke-opacity:1;stroke-dasharray:none;stroke-dashoffset:0" />
    <path
       d="M 426.37648,205.79857 C 417.73352,208.82722 409.17955,212.30698 400.71949,215.85347 399.72618,216.17859 398.19655,217.08953 399.44623,218.20592 406.5674,229.36225 413.55503,240.63011 421.04301,251.53621 422.3409,252.33074 422.275,250.15703 422.10355,249.40016 420.63724,235.05453 421.33618,220.04169 427.09538,206.70205 427.25297,206.2262 426.92585,205.66879 426.37648,205.79857 z"
       inkscape:connector-curvature="0"
       id="path3025"
       style="fill:#a7b0c5;stroke:none" />
    <path
       d="M 436.5771,317.08248 C 432.22683,317.32155 428.88022,322.43737 430.9619,326.44762 432.11318,330.13413 433.28283,334.21807 436.28565,336.83282 440.7256,339.68264 446.82599,341.85315 451.73231,338.83409 454.32718,337.32675 455.26751,333.85628 453.87929,331.20791 452.22205,327.31564 450.47684,323.24627 447.37033,320.2981 445.26072,318.86819 442.90893,317.80881 440.33676,317.70423 439.10759,317.42646 437.87267,316.96942 436.5771,317.08248 z"
       inkscape:connector-curvature="0"
       id="path3027"
       style="fill:#bfb879;stroke:none" />
    <path
       d="M 429.7184,301.09179 C 428.22726,301.48998 428.67957,303.70351 428.0863,304.82231 427.88736,305.43619 426.8466,305.3289 426.93994,306.23096 426.65367,312.80291 423.87433,319.02772 424.2645,325.64997 425.03444,334.13028 431.47692,340.56176 437.4297,346.0192 443.56686,351.60514 450.49982,356.4417 458.3231,359.36909 464.19603,361.61364 470.92006,364.14199 477.10756,361.52804 483.72369,358.73831 486.52334,351.47441 488.42539,345.08075 489.52044,342.64046 487.11218,340.64332 486.19231,338.5893 479.54515,327.21972 470.37203,317.13586 458.76732,310.75073 449.923,305.81967 440.08414,302.58279 430.05842,301.08208 429.9451,301.08608 429.83128,301.07508 429.7184,301.09208 z M 436.84912,316.6356 C 439.2296,316.95368 441.59443,317.56709 443.94097,318.13169 445.94866,318.9315 448.34602,319.57931 449.27497,321.73999 451.65258,325.78004 454.84683,329.86275 454.87021,334.73441 454.45813,338.78919 449.83748,340.81041 446.18517,340.58626 443.65057,340.53716 441.24708,339.76203 438.94753,338.8438 435.94153,337.67034 433.89904,335.13576 432.63195,332.24032 431.40884,328.97222 429.73407,325.69107 430.18471,322.09536 430.78545,319.25628 433.94535,316.74932 436.84912,316.6356 z"
       inkscape:connector-curvature="0"
       id="path3029"
       style="fill:#8a7294;stroke:none" />
    <path
       d="M 428.28059,298.43963 C 418.61055,303.69536 410.71074,313.53505 410.05549,324.81552 409.96559,325.84927 411.15878,325.44948 411.53215,325.82587 411.43705,326.68966 410.22317,327.29537 410.7161,328.34202 412.73814,335.65371 418.04002,341.79213 418.97374,349.4233 419.23253,351.06578 418.57213,352.84914 419.12918,354.3876 426.09086,358.71431 434.16585,361.87476 439.41384,368.33817 440.90899,369.97823 441.22429,372.47774 442.76338,373.97261 451.02768,378.07846 459.46112,382.10655 468.49047,384.17342 469.83507,383.51279 468.70415,381.48262 468.85963,380.35547 468.51715,375.24476 467.53405,369.8655 469.05393,364.87967 470.42337,363.24732 469.14993,362.32094 467.42183,362.53839 459.91167,361.07555 452.83267,357.65326 446.36969,353.59098 438.53622,347.82753 430.63077,341.62582 425.96845,332.92744 422.79665,327.08502 423.90973,320.10286 425.49793,313.96091 426.29919,311.12536 426.28812,308.09254 426.5222,305.23033 428.61482,305.15493 428.09543,302.29361 428.66841,300.95144 428.65651,300.21306 429.53504,298.47125 428.28059,298.43963 z"
       inkscape:connector-curvature="0"
       id="path3031"
       style="fill:#95c990;stroke:none" />
    <path
       d="M 416.88477,384.14717 C 419.57903,385.10683 422.27329,383.91274 424.96755,380.72753"
       inkscape:connector-curvature="0"
       id="path3033"
       style="fill:none;stroke:#0000e9;stroke-width:1;stroke-miterlimit:4;stroke-opacity:1;stroke-dasharray:none;stroke-dashoffset:0" />
    <path
       d="M 441.75486,374.51001 447.03975,392.8517"
       inkscape:connector-curvature="0"
       id="path3035"
       style="fill:none;stroke:#0000e9;stroke-width:1;stroke-miterlimit:4;stroke-opacity:1;stroke-dasharray:none;stroke-dashoffset:0" />
    <path
       d="M 418.28399,355.01907 C 416.7759,359.97964 413.85126,365.63023 416.54502,370.72803 419.63736,376.68733 425.83877,380.43977 428.36327,386.78206 430.47202,391.05512 432.25155,395.54054 433.52663,400.10581 435.20072,401.81874 437.93353,402.05677 439.99252,403.21692 441.21849,403.36498 444.0806,405.9204 444.16366,403.58491 444.29404,399.82024 444.61058,395.96099 446.37941,392.59621 446.01905,388.42065 444.18584,384.47822 443.28036,380.40404 442.45685,377.90793 442.01133,375.32713 441.49283,372.78758 438.84788,365.78632 431.83031,362.20077 425.76139,358.61655 423.34791,357.38692 421.09218,355.63839 418.58515,354.71791 L 418.36532,354.93773 418.28402,355.01903 z"
       inkscape:connector-curvature="0"
       id="path3039"
       style="fill:#8791c4;stroke:none" />
    <path
       d="M 524.46758,381.53097 C 515.77841,393.65758 504.51274,405.02944 489.90624,409.46573 475.43549,413.78199 459.76306,411.05529 445.88395,405.94445 441.8967,404.64666 438.22354,402.53171 434.18724,401.44647 433.37938,401.53317 432.69895,402.01744 432.11797,401.12587 430.57884,400.72934 429.77785,402.84931 428.75662,403.6226 424.59977,408.54825 421.63501,414.4489 419.44006,420.43905 420.7087,424.51292 424.11145,427.60089 428.12516,428.92985 436.52338,432.04268 445.6899,432.11446 454.3288,434.27107 462.09633,435.74529 469.50432,438.45992 477.05899,440.66542 482.42262,442.15039 487.95119,443.2829 493.54513,442.68612 501.83245,442.75332 509.80631,439.48352 516.5111,434.78792 525.0323,428.36061 530.60233,419.00553 537.06354,410.65542 539.50924,407.11789 542.44627,404.05055 544.96597,400.61099 544.76567,398.9075 542.87625,397.83433 541.96408,396.43359 536.80799,390.8019 531.31593,385.22555 524.7396,381.34639 L 524.48236,381.52094 524.46756,381.53094 z"
       inkscape:connector-curvature="0"
       id="path3041"
       style="fill:#c7a1db;stroke:none" />
    <path
       d="M 575.83014,375.87691 C 567.51976,378.1415 558.75012,380.03455 551.62066,385.09633 547.53007,388.12917 544.11585,392.96461 544.40251,398.25027 544.48681,399.78826 546.48506,400.15826 547.2684,398.88174 555.81921,390.19908 566.7048,384.05212 576.43246,376.75125 576.91421,376.27693 576.36556,375.71242 575.83014,375.87691 z"
       inkscape:connector-curvature="0"
       id="path3043"
       style="fill:#6abbd5;stroke:none" />
    <path
       d="M 526.88659,347.85921 C 524.76321,348.49213 524.30891,351.19127 522.98121,352.71665 518.96461,358.65279 515.29333,365.19916 514.36411,372.38927 514.41791,374.46163 514.23029,377.38295 516.34595,378.51936 517.1596,379.18044 518.64517,378.28351 517.59917,377.43129 516.87966,376.80054 518.05195,375.59808 518.12448,374.79239 521.23451,367.55411 524.12678,360.13202 527.82893,353.20239 528.77838,352.18538 529.31353,350.4117 528.24667,349.33587 528.28567,348.55003 527.74565,347.74449 526.88659,347.85921 z"
       inkscape:connector-curvature="0"
       id="path3045"
       style="fill:#a5c0bd;stroke:none" />
    <path
       d="M 401.35096,366.42434 C 395.47993,367.05671 390.23154,370.59037 386.11803,374.64312 383.6545,377.19947 381.16448,380.95367 382.38752,384.64944 383.97351,386.7102 386.67845,387.54671 388.49818,389.40973 393.04575,393.05815 396.67585,397.77506 400.89436,401.78649 403.6351,403.55295 406.62299,405.02033 409.61832,406.31362 414.40789,407.82877 418.91495,403.6541 420.53784,399.46463 422.41533,394.52377 420.83691,388.74743 417.73995,384.65916 416.80132,384.23584 416.84947,382.81355 416.02042,382.14301 412.55678,377.56284 408.86451,373.17578 406.0141,368.17301 405.49221,367.34581 404.54196,367.68237 403.97397,366.93922 403.15961,366.56409 402.24579,366.39192 401.35096,366.42434 z"
       inkscape:connector-curvature="0"
       id="path3047"
       style="fill:#a4a7da;stroke:none" />
    <path
       d="M 488.93057,344.66301 C 487.06108,351.23129 484.24595,358.62284 477.64188,361.68348 475.37045,362.85884 472.59544,362.68371 470.22943,363.42244 467.82606,366.94893 468.74609,371.35447 468.79155,375.34138 469.144,378.31945 468.90605,381.55013 470.00599,384.34828 474.09055,385.71169 478.58278,385.87801 482.88791,386.03867 493.74844,386.06497 504.874,383.82875 514.21839,378.17934 515.16731,377.25003 513.88986,375.93402 514.17949,374.80827 513.54845,369.97749 515.60268,365.42141 517.56998,361.15887 517.91066,360.07522 519.43579,358.63 518.46375,357.5838 516.75558,357.80436 514.9892,358.39607 513.1789,358.23963 505.88847,358.65264 499.69677,354.10538 494.83683,349.16865 493.02607,347.59877 491.53862,345.42347 489.37741,344.391 L 489.11186,344.55264 488.93053,344.66301 z"
       inkscape:connector-curvature="0"
       id="path3051"
       style="fill:#d87090;stroke:none" />
    <path
       d="M 564.83876,266.47271 C 570.67808,262.0927 575.19062,263.94346 581.3382,279.38194 582.02062,296.29719 582.4402,313.14985 566.10527,326.01335 L 557.40074,325.08072"
       inkscape:connector-curvature="0"
       id="path3026"
       style="fill:none;stroke:#0000e9;stroke-width:1;stroke-miterlimit:4;stroke-opacity:1;stroke-dasharray:none;stroke-dashoffset:0" />
    <path
       d="M 566.41615,325.70247 C 577.64904,341.25811 549.64939,352.16349 544.65483,354.92482 541.70696,350.72113 539.73651,348.54997 538.4373,347.77467"
       inkscape:connector-curvature="0"
       id="path3032"
       style="fill:none;stroke:#0000e9;stroke-width:1;stroke-miterlimit:4;stroke-opacity:1;stroke-dasharray:none;stroke-dashoffset:0" />
    <path
       d="M 544.9657,355.2357 C 534.17046,358.22775 528.87339,369.36145 522.8935,379.48403"
       inkscape:connector-curvature="0"
       id="path3034"
       style="fill:none;stroke:#0000e9;stroke-width:1;stroke-miterlimit:4;stroke-opacity:1;stroke-dasharray:none;stroke-dashoffset:0" />
    <path
       d="M 602.47777,328.18948 C 602.07115,324.84238 598.75375,327.25522 597.76337,330.07546 594.54307,334.96248 590.8922,341.00654 585.63894,344.19336 580.72408,347.71546 575.15056,350.16718 569.79,352.90933 565.07947,354.81678 558.9188,360.63591 556.377,359.44947 552.93633,360.73675 548.8484,362.02954 545.91174,364.19968 541.85399,366.35963 538.36305,369.20124 535.20062,372.61399 532.91008,375.16815 527.27363,377.96838 530.18373,381.45077 533.96463,381.83709 536.14348,377.91296 538.95911,376.02739 542.48897,372.83384 546.43997,370.16524 550.72825,368.10317 555.28553,365.57144 559.86329,363.09225 564.50928,360.73272 568.35542,359.31193 571.71496,356.60342 576.02823,354.47384 580.02627,353.12188 583.77289,351.15844 587.77822,349.81508 590.9619,348.6774 593.63967,346.5135 595.56295,343.75624 598.16634,340.96741 600.93117,338.03224 601.664,334.13851 602.21625,332.20958 602.57366,330.20234 602.47777,328.18948 z"
       inkscape:connector-curvature="0"
       id="path3036"
       style="fill:none;stroke:#0000e9;stroke-width:1;stroke-miterlimit:4;stroke-opacity:1;stroke-dasharray:none;stroke-dashoffset:0" />
    <path
       d="M 581.64907,293.68224 C 577.30784,289.85689 570.2395,288.51128 563.41406,290.48243"
       inkscape:connector-curvature="0"
       id="path3042"
       style="fill:none;stroke:#0000e9;stroke-width:1;stroke-miterlimit:4;stroke-opacity:1;stroke-dasharray:none;stroke-dashoffset:0" />
    <path
       d="M 600.93243,326.94308 C 598.4058,327.89264 597.80707,331.00584 596.17075,332.87264 592.97464,337.51495 589.60994,342.13222 584.63087,344.99332 576.88064,349.94007 568.33029,353.49659 560.57821,358.49453 558.05337,360.05828 554.90527,359.73514 552.33862,361.1783 545.6266,363.95931 539.69521,368.18682 534.6284,373.36076 533.06029,375.18281 530.6923,376.5575 529.75153,378.8108 529.40704,380.05006 530.19532,382.0555 531.7528,381.22981 536.96519,378.38261 540.7606,373.45277 546.01851,370.61665 555.71408,364.85699 565.99538,360.02171 575.80005,354.48475 581.0363,352.08203 586.76627,350.43287 591.7033,347.43175 595.08693,344.30733 598.30592,340.82608 600.53412,336.77453 601.61332,333.81848 602.69957,330.51184 602.0205,327.36082 601.80645,326.97601 601.33389,326.89023 600.93243,326.94308 z"
       inkscape:connector-curvature="0"
       id="path3044"
       style="fill:#d5be93;stroke:none" />
    <path
       d="M 519.05545,378.37363 C 516.07649,382.25566 511.88181,384.91369 508.22337,388.04965 503.61054,391.44906 497.53036,392.845 491.9656,391.1421 486.41226,390.14797 479.45491,390.75956 476.0477,395.85069 473.05733,399.49052 470.72414,403.61558 467.8192,407.29482 466.30063,408.00692 465.68032,405.8902 465.85679,404.75924 465.83349,402.25427 467.08569,399.46104 465.87619,397.11363 463.66259,395.36747 460.74345,397.26466 458.4346,397.76453 456.62153,398.50302 454.07103,398.63239 453.12056,396.55017 451.87597,394.94153 451.43405,392.0983 449.15689,391.6733 446.15591,392.03769 445.41341,395.67682 444.96006,398.15312 444.70258,400.44355 444.39162,402.84113 444.64919,405.09926 458.49687,410.3372 474.01363,413.62439 488.58957,409.45152 503.10433,405.3724 514.68131,394.57396 523.19396,382.48303 523.92539,381.69129 524.01798,380.35001 522.76651,380.02516 521.59176,379.5401 520.30494,378.07836 519.05542,378.37363 z"
       inkscape:connector-curvature="0"
       id="path3046"
       style="fill:#8791c7;stroke:none" />
    <path
       d="M 537.80516,347.78149 C 534.93843,349.94212 531.59523,351.46358 528.82862,353.64927 526.64264,353.75556 526.73757,356.71195 525.71097,358.10139 523.05189,364.33283 520.1011,370.52123 517.69272,376.80946 518.90135,377.89971 520.78882,378.40315 522.30022,379.16054 523.6139,378.93764 523.9463,376.89066 524.79155,375.91827 529.09263,368.71884 533.43402,360.64705 541.16651,356.57345 541.94715,355.86379 544.27569,355.87759 543.99354,354.48475 542.38193,351.94311 540.39488,349.54707 538.04804,347.70377 L 537.80516,347.78147 z"
       inkscape:connector-curvature="0"
       id="path3055"
       style="fill:#7c797c;stroke:none" />
    <path
       d="M 372.4295,197.93242 C 363.58342,200.29019 355.63424,198.76136 348.02573,195.75629 L 346.62679,218.13936"
       inkscape:connector-curvature="0"
       id="path3038"
       style="fill:none;stroke:#0000e9;stroke-width:0.93800002;stroke-linecap:round;stroke-miterlimit:4;stroke-opacity:1;stroke-dasharray:none;stroke-dashoffset:0" />
    <path
       d="M 558.28764,325.35096 C 557.65694,325.34796 557.74124,326.20029 557.06488,325.85243 555.90676,326.05693 556.27395,327.64353 555.62092,328.37456 552.57016,335.02579 547.1567,340.25941 541.6219,344.88009 540.68612,345.7521 539.42213,346.34748 538.69596,347.39504 540.14355,349.35316 542.06742,351.01556 543.47519,353.07059 543.99484,353.70365 544.6885,354.92564 545.64098,354.21641 553.11796,350.52234 561.11171,346.82298 566.31117,340.03786 568.72039,337.04659 569.71089,332.80147 568.13157,329.20473 567.58659,327.91117 567.1138,326.08095 565.38379,326.06538 563.02518,325.79985 560.65705,325.44574 558.28764,325.35096 z"
       inkscape:connector-curvature="0"
       id="path3824"
       style="fill:#c9ca98;stroke:none" />
    <path
       d="M 568.97651,289.73971 C 567.27034,289.88755 565.39251,289.85751 563.8519,290.64648 563.05169,291.89786 563.40792,293.61569 563.03518,295.0309 561.90506,304.88917 559.60276,314.56448 558.10217,324.36176 558.60232,325.43162 560.17849,325.06936 561.14534,325.37844 562.71617,325.42414 564.36823,325.99372 565.899,325.72878 570.23978,322.83229 573.56218,318.58826 576.1551,314.10566 579.46876,308.12689 581.01826,301.23767 581.20414,294.43841 581.09617,292.63914 578.92068,292.14477 577.63051,291.36746 574.92355,290.16954 571.92858,289.66832 568.97651,289.73971 z"
       inkscape:connector-curvature="0"
       id="path3826"
       style="fill:#bc90cc;stroke:none" />
    <path
       d="M 456.93021,190.61348 C 448.64588,190.79024 439.88861,191.96646 432.96536,196.86363 430.56521,198.70206 428.36835,201.06774 427.31599,203.90587 427.58186,204.42734 428.75877,204.32882 428.10597,205.09429 423.62998,215.05722 421.50029,226.01025 421.71914,236.92734 421.90109,243.03387 421.92396,249.23306 423.29735,255.20696 423.36975,255.88538 424.21739,256.49999 423.59961,257.10293 423.60261,259.46162 424.44192,261.78517 424.77337,264.13332 426.68538,274.25055 429.37773,284.31254 429.25775,294.67866 429.38021,296.30881 429.15835,297.89155 429.02648,299.49434 428.80113,300.83417 430.38954,300.6656 431.23678,300.87202 442.70848,302.97153 454.02751,306.81116 463.70067,313.43799 473.77231,320.17054 481.7267,329.7267 487.4956,340.26757 487.97933,341.19522 488.70033,342.12038 489.49829,342.69634 491.85735,345.95929 494.79462,348.83692 497.75538,351.56481 502.18088,355.47788 507.90995,358.50761 513.98733,357.91743 515.83402,357.78249 517.6667,357.4575 519.42851,357.01228 521.03086,355.38331 521.96577,353.21316 523.44027,351.46863 524.50805,350.05224 524.939,347.591 527.07421,347.42252 528.42345,347.23356 528.56875,348.994 528.89461,349.9024 529.16332,350.67117 528.75595,352.4115 530.06242,352.20367 534.29764,350.05021 538.181,347.21367 541.92597,344.29692 547.2764,339.77166 552.4827,334.6533 555.41758,328.19492 555.59626,327.39438 556.59303,326.14611 555.58932,325.55705 558.00878,310.07965 561.25269,294.65308 561.85991,278.96182 561.97697,274.61048 562.13882,270.19692 560.94376,265.96452 557.68859,251.29541 553.01591,236.38722 543.4348,224.53723 537.44623,217.01533 529.18852,211.67165 520.47855,207.82684 514.27307,205.03852 508.00013,202.37194 502.23686,198.77226 497.07067,196.42164 491.47063,195.1418 485.96739,193.79404 476.4492,191.68495 466.6897,190.48687 456.93021,190.61348 z"
       inkscape:connector-curvature="0"
       id="path3040"
       style="fill:#d0cf6e;stroke:none" />
    <path
       d="M 399.19776,194.00315 C 426.58288,191.22299 426.43904,167.94166 438.67201,168.24296 441.52575,167.36922 444.03735,166.23887 442.28299,161.90905"
       inkscape:connector-curvature="0"
       id="path3049"
       style="fill:none;stroke:#0000e9;stroke-width:1;stroke-linecap:round;stroke-miterlimit:4;stroke-opacity:1;stroke-dasharray:none;stroke-dashoffset:0" />
    <path
       d="M 433.16739,159.31624 C 430.09791,159.28214 428.5027,162.29619 427.1702,164.58992 422.27874,173.59554 416.51902,182.49083 408.29996,188.73811 406.78736,190.00169 404.88263,190.76619 403.40204,192.07667 402.90427,193.13865 404.47497,193.1774 405.09879,192.88726 411.69697,191.20784 417.8035,187.58632 422.25869,182.39761 426.02216,178.4388 428.80073,173.53847 432.99565,170.03946 434.56968,168.77416 436.53949,168.27547 438.51182,168.07479 440.34288,167.58355 442.83643,166.63902 442.70219,164.32407 442.53702,163.09144 442.51332,161.35074 440.90608,161.21836 438.43086,160.26997 435.85828,159.2727 433.16739,159.31624 z"
       inkscape:connector-curvature="0"
       id="path3053"
       style="fill:#b46a9f;stroke:none" />
    <path
       d="M 443.38914,162.44871 C 442.32999,163.31705 443.25301,165.05183 442.4755,166.13074 441.22524,167.88417 438.9074,168.29654 436.90437,168.53505 432.5971,169.47132 429.9908,173.41201 427.38046,176.60607 422.95602,182.62825 417.61674,188.3964 410.57117,191.29831 406.61691,193.10136 402.29574,193.67753 398.05073,194.31611 393.40431,195.64323 388.69419,196.80521 383.85416,197.24201 378.60975,197.88374 373.2727,197.71663 368.08096,198.82883 361.55034,199.62957 354.88692,198.53976 348.80361,196.15025 347.62268,196.27317 348.1623,198.00577 347.89684,198.85682 347.48234,205.14457 347.05972,211.43655 346.85269,217.73408 347.44222,218.93469 349.09083,219.18044 350.14834,219.87765 357.30609,223.30812 365.27196,225.47724 373.25804,225.08596 381.8298,224.02021 389.89059,220.66686 397.82404,217.41809 398.82439,216.88841 397.02612,215.96404 397.57674,215.62516 398.15303,216.39634 398.89613,217.4277 399.89998,216.52873 408.57941,212.72325 417.25627,208.90914 426.06437,205.41028 427.58874,203.05177 428.65479,200.26773 430.81116,198.34161 435.95157,193.42834 443.2272,191.66968 450.09272,190.78484 461.94189,189.79515 473.92178,190.89566 485.50746,193.48081 491.48583,194.88946 497.57984,196.15051 503.08321,198.91093 512.45315,204.89227 523.5061,207.80713 532.62377,214.21544 537.03572,217.21647 540.86919,221.11566 544.32891,225.21492 552.70759,236.07779 557.33855,249.28035 560.38142,262.51781 560.96013,263.89828 560.6804,265.8287 561.85975,266.87129 563.12199,267.31027 563.04801,265.52928 562.91863,264.76961 562.1613,251.87456 558.96481,239.02925 552.63836,227.72183 549.02568,221.20626 544.64824,215.07261 539.53403,209.63499 532.07482,204.07304 524.18057,199.07557 516.3136,194.11148 495.46994,181.18411 473.022,170.55127 449.20069,164.41337 447.28675,163.92067 445.49791,163.14588 443.65704,162.43497 L 443.43751,162.44627 443.38911,162.44827 z"
       inkscape:connector-curvature="0"
       id="path3057"
       style="fill:#73a0a6;stroke:none" />
    <path
       d="M 569.63461,264.64559 C 567.86848,264.53447 566.48067,265.81111 564.92903,266.31487 563.68075,266.28437 564.11126,268.03686 563.97418,268.82222 563.89608,275.78907 564.00328,282.77939 563.28723,289.70536 563.84791,290.816 565.3108,289.70471 566.27544,289.78776 570.88439,289.28089 575.81176,289.68896 579.82201,292.17833 580.42246,292.80723 581.56646,292.55406 581.32642,291.56695 581.38222,287.61661 581.40332,283.6538 581.31942,279.71027 579.19453,274.89414 577.37011,269.57134 573.33024,265.9851 572.28338,265.15735 570.99873,264.56459 569.63448,264.64556 z"
       inkscape:connector-curvature="0"
       id="path3060"
       style="fill:#d39ccd;stroke:none" />
  </g>
</svg>
