<?xml version="1.0" encoding="UTF-8" standalone="no"?>
<!-- Created with Inkscape (http://www.inkscape.org/) -->

<svg
   xmlns:dc="http://purl.org/dc/elements/1.1/"
   xmlns:cc="http://creativecommons.org/ns#"
   xmlns:rdf="http://www.w3.org/1999/02/22-rdf-syntax-ns#"
   xmlns:svg="http://www.w3.org/2000/svg"
   xmlns="http://www.w3.org/2000/svg"
   xmlns:xlink="http://www.w3.org/1999/xlink"
   xmlns:inkscape="http://www.inkscape.org/namespaces/inkscape"
   version="1.1"
   width="740"
   height="520"
   id="svg2"
   style="display:inline;enable-background:new">
  <defs
     id="defs4">
    <filter
       color-interpolation-filters="sRGB"
       id="filter3050">
      <feBlend
         in2="BackgroundImage"
         mode="lighten"
         id="feBlend3052" />
    </filter>
  </defs>
  <metadata
     id="metadata7">
    <rdf:RDF>
      <cc:Work
         rdf:about="">
        <dc:format>image/svg+xml</dc:format>
        <dc:type
           rdf:resource="http://purl.org/dc/dcmitype/StillImage" />
        <dc:title />
      </cc:Work>
    </rdf:RDF>
  </metadata>
  <g
     id="g21"
     style="display:none">
    <image
       xlink:href="pngs/coronal-0909.png"
       id="image23"
       height="520"
       width="740"
       y="0"
       x="0" />
  </g>
  <g
     id="g29"
     style="display:inline">
    <path
       d="M 513.06049,102.80434 C 513.88949,102.38984 514.68693,101.90507 515.54749,101.56084 515.83818,101.44457 521.54207,101.44937 521.76501,101.56084 522.02717,101.69192 522.12461,102.05152 522.38677,102.18259 523.40978,102.6941 526.1877,101.79156 527.36078,102.18259 527.63884,102.27529 527.72038,102.67327 527.98254,102.80434 528.64574,103.13595 529.80634,102.47274 530.46954,102.80434 530.7317,102.93542 530.82914,103.29502 531.0913,103.4261 531.5887,103.6748 532.45915,103.1774 532.95655,103.4261 533.21871,103.55717 533.31615,103.91677 533.5783,104.04785 533.94905,104.23322 534.45107,103.86248 534.82181,104.04785 535.08396,104.17893 535.18141,104.53852 535.44356,104.6696 535.8143,104.85497 536.31632,104.48423 536.68707,104.6696 536.94922,104.80068 537.04666,105.16028 537.30882,105.29135 537.67956,105.47672 538.18158,105.10598 538.55232,105.29135 538.81448,105.42243 538.91192,105.78203 539.17407,105.91311 539.67148,106.16181 540.54193,105.6644 541.03933,105.91311 541.30148,106.04418 541.39893,106.40378 541.66108,106.53486 542.49008,106.94936 543.94084,106.12036 544.76984,106.53486 545.032,106.66593 545.12944,107.02553 545.39159,107.15661 548.05133,108.48648 543.97536,105.82674 546.6351,107.15661 546.89725,107.28769 546.9947,107.64728 547.25685,107.77836 547.78074,108.04031 550.71782,107.50881 550.98736,107.77836 551.13391,107.92491 550.84081,108.25357 550.98736,108.40011 551.29824,108.71099 552.54174,108.08924 552.85262,108.40011 552.99917,108.54666 552.70607,108.87532 552.85262,109.02187 553.14572,109.31496 553.72538,108.8365 554.09612,109.02187 554.35828,109.15294 554.45572,109.51254 554.71788,109.64362 555.08862,109.82899 555.59064,109.45825 555.96138,109.64362 556.22353,109.77469 556.32098,110.13429 556.58313,110.26537 556.95387,110.45074 557.4559,110.08 557.82664,110.26537 558.08879,110.39645 558.18623,110.75605 558.44839,110.88712 558.63376,110.97982 558.88477,110.79442 559.07014,110.88712 561.13223,112.94921 558.48395,110.59403 560.31364,111.50887 560.5758,111.63995 560.67324,111.99955 560.9354,112.13063 561.12077,112.22333 561.37178,112.03793 561.55715,112.13063 563.61924,114.19272 560.97096,111.83753 562.80065,112.75238 563.06281,112.88346 563.16025,113.24305 563.42241,113.37413 565.41721,114.37153 562.6711,112.37673 564.66591,113.37413 565.39017,113.73626 565.8069,114.2555 566.53117,114.61763 566.71654,114.71033 566.96755,114.52493 567.15292,114.61763 568.48857,115.28546 567.06072,115.19331 568.39642,115.86114 568.58179,115.95384 568.81092,115.86114 569.01817,115.86114 569.22542,116.06839 569.37777,116.35181 569.63993,116.48289 569.8253,116.57559 570.07631,116.39019 570.26168,116.48289 570.78599,116.74504 570.98088,117.46424 571.50518,117.72639 571.69055,117.81909 571.94156,117.63369 572.12693,117.72639 572.8512,118.08853 573.26793,118.60777 573.99219,118.9699 574.17756,119.0626 574.42857,118.8772 574.61394,118.9699 574.8761,119.10098 574.97354,119.46057 575.2357,119.59165 575.42107,119.68435 575.67208,119.49895 575.85745,119.59165 576.1196,119.72273 576.21705,120.08233 576.4792,120.2134 576.66457,120.3061 576.9544,120.06685 577.10095,120.2134 577.2475,120.35995 576.9544,120.68861 577.10095,120.83516 577.2475,120.9817 577.53733,120.74246 577.7227,120.83516 579.7848,122.89725 577.13651,120.54206 578.96621,121.45691 579.49051,121.71906 579.6854,122.43826 580.20971,122.70041 580.39508,122.79311 580.64609,122.60771 580.83146,122.70041 581.57757,123.07346 581.95062,124.19262 582.69672,124.56567 582.88209,124.65837 583.1331,124.47297 583.31847,124.56567 583.84278,124.82782 584.03767,125.54702 584.56198,125.80917 584.74735,125.90187 584.99836,125.71647 585.18373,125.80917 585.92983,126.18222 586.30288,127.30138 587.04898,127.67443 587.23436,127.76713 587.46349,127.67443 587.67074,127.67443 587.87799,127.88168 588.03034,128.1651 588.29249,128.29618 588.47786,128.38888 588.76769,128.14963 588.91424,128.29618 589.06079,128.44273 588.82154,128.73256 588.91424,128.91793 590.20803,131.50552 588.87134,128.25326 590.15775,129.53968 590.30429,129.68623 590.0112,130.01489 590.15775,130.16144 591.44417,131.44786 590.10745,128.19561 591.40125,130.78319 591.49395,130.96856 591.2547,131.25839 591.40125,131.40494 591.69435,131.69804 592.35166,131.11184 592.64475,131.40494 592.7913,131.55149 592.64475,131.81944 592.64475,132.02669 592.852,132.02669 593.11996,131.88014 593.26651,132.02669 593.41305,132.17324 593.11996,132.5019 593.26651,132.64845 593.41305,132.79499 593.74171,132.5019 593.88826,132.64845 594.03481,132.79499 593.74171,133.12365 593.88826,133.2702 595.17469,134.55662 593.83796,131.30437 595.13176,133.89195 595.22446,134.07732 594.98521,134.36715 595.13176,134.5137 595.27831,134.66025 595.56814,134.421 595.75351,134.5137 596.27782,134.77586 596.47271,135.49505 596.99702,135.75721 597.18239,135.84991 597.47222,135.61066 597.61877,135.75721 597.76532,135.90375 597.47222,136.23241 597.61877,136.37896 597.76532,136.52551 598.05515,136.28626 598.24052,136.37896 598.98663,136.75201 599.35968,137.87116 600.10578,138.24421 600.29115,138.33691 600.54216,138.15151 600.72753,138.24421 602.21974,138.99032 602.96584,141.22862 604.45804,141.97473 604.64341,142.06743 604.89442,141.88203 605.0798,141.97473 605.34195,142.1058 605.43939,142.4654 605.70155,142.59648 605.88692,142.68918 606.13793,142.50378 606.3233,142.59648 606.84761,142.85863 607.0425,143.57783 607.5668,143.83998 607.75217,143.93268 608.04201,143.69343 608.18856,143.83998 608.3351,143.98653 608.04201,144.31519 608.18856,144.46174 608.3351,144.60828 608.62494,144.36904 608.81031,144.46174 609.33462,144.72389 609.5295,145.44309 610.05381,145.70524 610.23918,145.79794 610.49019,145.61254 610.67556,145.70524 612.03486,146.38489 610.55978,146.2691 611.91907,146.94874 612.10444,147.04144 612.35545,146.85604 612.54082,146.94874 613.06513,147.2109 613.26002,147.93009 613.78432,148.19225 613.9697,148.28495 614.25953,148.0457 614.40608,148.19225 614.55263,148.3388 614.25953,148.66745 614.40608,148.814 614.55263,148.96055 614.84246,148.7213 615.02783,148.814 616.02263,149.3114 616.52003,150.80361 617.51484,151.30101 617.70021,151.39371 617.99004,151.15446 618.13659,151.30101 619.42302,152.58744 616.17076,151.25071 618.75834,152.54451 618.94371,152.63721 619.23355,152.39796 619.38009,152.54451 619.52664,152.69106 619.23355,153.01972 619.38009,153.16626 619.52664,153.31281 619.81648,153.07356 620.00185,153.16626 620.264,153.29734 620.41635,153.58077 620.6236,153.78802 620.83085,153.99527 620.9832,154.27869 621.24535,154.40977 621.43072,154.50247 621.68173,154.31707 621.8671,154.40977 624.45469,155.70356 621.20243,154.36687 622.48885,155.65327 622.6354,155.79982 622.92524,155.56057 623.11061,155.65327 623.85671,156.02632 624.22976,157.14548 624.97586,157.51853 625.16123,157.61123 625.45107,157.37198 625.59761,157.51853 626.88404,158.80496 623.63178,157.46823 626.21937,158.76203 626.40474,158.85473 626.65575,158.66933 626.84112,158.76203 628.62869,159.65582 630.02757,162.84227 631.81514,163.73605 632.67275,164.16486 632.37128,162.98307 633.05864,164.3578 633.15134,164.54317 632.96594,164.79418 633.05864,164.97955 633.32079,165.50386 633.77784,165.9609 634.30214,166.22306 634.48751,166.31576 634.77735,166.07651 634.9239,166.22306 635.07044,166.36961 634.8312,166.65944 634.9239,166.84481 635.18605,167.36912 635.90525,167.56401 636.1674,168.08831 636.2601,168.27369 636.02085,168.56352 636.1674,168.71007 636.31395,168.85662 636.6426,168.56352 636.78915,168.71007 636.9357,168.85662 636.69645,169.14645 636.78915,169.33182 637.1622,170.07792 638.28136,170.45097 638.65441,171.19708 638.74711,171.38245 638.56171,171.63346 638.65441,171.81883 638.91656,172.34313 639.63576,172.53802 639.89791,173.06233 639.99061,173.2477 639.80521,173.49871 639.89791,173.68408 640.16007,174.20839 640.87926,174.40328 641.14142,174.92759 641.2341,175.11296 641.04873,175.36397 641.14142,175.54934 641.40357,176.07365 642.12277,176.26854 642.38492,176.79284 642.47761,176.97821 642.23837,177.26805 642.38492,177.4146 642.53147,177.56114 642.86013,177.26805 643.00667,177.4146 643.29977,177.70769 642.8213,178.28736 643.00667,178.6581 643.3688,179.38236 643.88805,179.79909 644.25018,180.52336 644.34287,180.70873 644.10363,180.99856 644.25018,181.14511 644.39673,181.29166 644.72538,180.99856 644.87193,181.14511 645.16503,181.43821 644.57883,182.09552 644.87193,182.38861 645.01848,182.53516 645.34713,182.24206 645.49368,182.38861 645.90748,182.80241 645.07989,183.21832 645.49368,183.63212 645.64023,183.77867 645.96889,183.48557 646.11543,183.63212 646.40853,183.92521 645.93006,184.50488 646.11543,184.87562 646.37759,185.39993 647.09678,185.59482 647.35894,186.11913 647.54431,186.48987 647.17357,186.99189 647.35894,187.36263 647.72107,188.08689 648.24031,188.50362 648.60244,189.22789 648.78781,189.59863 648.41707,190.10065 648.60244,190.47139 648.73352,190.73354 649.09312,190.83099 649.22419,191.09314 649.40957,191.46388 649.03882,191.9659 649.22419,192.33665 649.35527,192.5988 649.71487,192.69624 649.84595,192.9584 649.93864,193.14377 649.6994,193.4336 649.84595,193.58015 649.9925,193.7267 650.32115,193.4336 650.4677,193.58015 650.77857,193.89103 650.15682,195.13453 650.4677,195.44541 650.61425,195.59196 650.9429,195.29886 651.08945,195.44541 651.37686,195.73282 650.90175,196.93527 651.08945,197.31066 651.22053,197.57282 651.58013,197.67026 651.7112,197.93242 651.9599,198.42982 651.4625,199.30027 651.7112,199.79767 651.84228,200.05983 652.20188,200.15727 652.33296,200.41942 652.51833,200.79016 652.14758,201.29219 652.33296,201.66293 652.46403,201.92508 652.82363,202.02253 652.95471,202.28468 653.14008,202.65542 652.76934,203.15744 652.95471,203.52818 653.08578,203.79034 653.44538,203.88778 653.57646,204.14994 653.76183,204.52068 653.39109,205.0227 653.57646,205.39344 653.70754,205.65559 654.06713,205.75304 654.19821,206.01519 654.52981,206.67839 653.86661,207.839 654.19821,208.5022 654.32929,208.76435 654.68889,208.8618 654.81996,209.12395 655.00533,209.49469 654.63459,209.99672 654.81996,210.36746 654.95104,210.62961 655.31064,210.72706 655.44172,210.98921 655.77332,211.65241 655.11011,212.81302 655.44172,213.47622 655.57279,213.73837 655.93239,213.83582 656.06347,214.09797 656.3223,214.61563 655.66908,216.19059 656.06347,216.58498 656.21002,216.73153 656.53867,216.43843 656.68522,216.58498 656.97263,216.87239 656.49752,218.07484 656.68522,218.45023 656.8163,218.71239 657.1759,218.80983 657.30697,219.07199 657.55567,219.56939 657.05827,220.43984 657.30697,220.93724 657.43805,221.1994 657.79765,221.29684 657.92872,221.55899 658.26033,222.2222 657.59712,223.3828 657.92872,224.046 658.0598,224.30816 658.4194,224.4056 658.55048,224.66776 658.96498,225.49676 658.13597,226.94751 658.55048,227.77652 658.68155,228.03867 659.04115,228.13611 659.17223,228.39827 659.50383,229.06147 658.84063,230.22207 659.17223,230.88528 659.30331,231.14743 659.6629,231.24487 659.79398,231.50703 660.20848,232.33603 659.37948,233.78679 659.79398,234.61579 659.92506,234.87794 660.28466,234.97539 660.41573,235.23754 660.72525,235.85657 660.09403,239.26811 660.41573,239.58981 660.56228,239.73635 660.89094,239.44326 661.03748,239.58981 661.41082,239.96314 660.68063,243.8501 661.03748,244.56382 661.16856,244.82598 661.52816,244.92342 661.65924,245.18557 662.02858,245.92427 661.65924,253.13738 661.65924,254.51186 661.65924,255.55169 661.2898,259.36875 661.65924,260.10762 661.79031,260.36978 662.14991,260.46722 662.28099,260.72938 662.60842,261.38423 662.28099,264.78122 662.28099,265.70339 662.28099,266.11789 662.57409,266.6538 662.28099,266.9469 661.45199,267.7759 661.65924,265.91064 661.65924,267.56865 661.65924,267.98419 661.69627,271.88388 661.65924,271.92091 661.51269,272.06746 661.18403,271.77437 661.03748,271.92091 660.75007,272.20833 661.22518,273.41077 661.03748,273.78617 660.90641,274.04832 660.54681,274.14577 660.41573,274.40792 660.23036,274.77866 660.6011,275.28069 660.41573,275.65143 660.0536,276.37569 659.53436,276.79242 659.17223,277.51668 659.07954,277.70205 659.31878,277.99189 659.17223,278.13844 659.02568,278.28498 658.69702,277.99189 658.55048,278.13844 658.25738,278.43153 658.73585,279.0112 658.55048,279.38194 658.28832,279.90625 657.56913,280.10114 657.30697,280.62544 657.21428,280.81081 657.45352,281.10065 657.30697,281.2472 657.16042,281.39374 656.83177,281.10065 656.68522,281.2472 656.53867,281.39374 656.83177,281.7224 656.68522,281.86895 656.53867,282.0155 656.21002,281.7224 656.06347,281.86895 655.91692,282.0155 656.21002,282.34415 656.06347,282.4907 655.91692,282.63725 655.58826,282.34415 655.44172,282.4907 655.29517,282.63725 655.58826,282.9659 655.44172,283.11245 655.29517,283.259 654.96651,282.9659 654.81996,283.11245 654.67342,283.259 654.91265,283.54883 654.81996,283.7342 654.55781,284.25851 653.99096,284.56321 653.57646,284.97771 653.36921,285.18496 653.16196,285.39221 652.95471,285.59946 652.74746,285.59946 652.4795,285.45291 652.33296,285.59946 652.18641,285.74601 652.4795,286.07466 652.33296,286.22121 652.18641,286.36776 651.85775,286.07466 651.7112,286.22121 651.56465,286.36776 651.80389,286.65759 651.7112,286.84296 651.58013,287.10512 651.22053,287.20256 651.08945,287.46472 650.99676,287.65009 651.236,287.93992 651.08945,288.08647 650.9429,288.23302 650.61425,287.93992 650.4677,288.08647 650.4677,289.74447 650.67495,287.87922 649.84595,288.70822 649.6994,288.85477 649.9925,289.18342 649.84595,289.32997 648.55952,290.6164 649.89624,287.36414 648.60244,289.95173 648.50975,290.1371 648.74899,290.42693 648.60244,290.57348 647.33928,291.83664 648.62209,289.31032 647.35894,290.57348 647.21239,290.72003 647.50549,291.04868 647.35894,291.19523 647.21239,291.34178 646.88373,291.04868 646.73719,291.19523 646.59064,291.34178 646.88373,291.67043 646.73719,291.81698 646.59064,291.96353 646.26198,291.67043 646.11543,291.81698 644.82901,293.10341 648.08127,291.76668 645.49368,293.06049 643.83568,293.06049 645.70093,292.85323 644.87193,293.68224 644.72538,293.82879 644.39673,293.53569 644.25018,293.68224 644.10363,293.82879 644.39673,294.15744 644.25018,294.30399 644.10363,294.45054 643.77497,294.15744 643.62843,294.30399 643.48188,294.45054 643.62843,294.71849 643.62843,294.92574 643.42118,294.92574 643.15322,294.77919 643.00667,294.92574 642.86013,295.07229 643.15322,295.40095 643.00667,295.54749 642.86013,295.69404 642.53147,295.40095 642.38492,295.54749 642.23837,295.69404 642.53147,296.0227 642.38492,296.16925 642.23837,296.31579 641.90972,296.0227 641.76317,296.16925 641.61662,296.31579 641.85585,296.60563 641.76317,296.791 641.63209,297.05315 641.27249,297.1506 641.14142,297.41275 641.04873,297.59812 641.2341,297.84913 641.14142,298.0345 641.01034,298.29666 640.72692,298.449 640.51967,298.65625 640.31241,298.86351 640.02899,299.01585 639.89791,299.27801 639.80521,299.46338 640.04446,299.75321 639.89791,299.89976 639.75136,300.04631 639.42271,299.75321 639.27616,299.89976 639.12961,300.04631 639.42271,300.37496 639.27616,300.52151 639.12961,300.66806 638.80096,300.37496 638.65441,300.52151 638.50786,300.66806 638.80096,300.99671 638.65441,301.14326 638.50786,301.28981 638.1792,300.99671 638.03266,301.14326 637.88611,301.28981 638.1792,301.61847 638.03266,301.76501 637.88611,301.91156 637.55745,301.61847 637.4109,301.76501 637.26436,301.91156 637.55745,302.24022 637.4109,302.38677 637.11781,302.67986 636.4605,302.09367 636.1674,302.38677 636.02085,302.53332 636.31395,302.86197 636.1674,303.00852 635.8743,303.30162 635.21699,302.71542 634.9239,303.00852 634.9239,304.66652 635.13115,302.80127 634.30214,303.63027 634.1556,303.77682 634.44869,304.10547 634.30214,304.25202 633.90776,304.64641 632.3328,303.99319 631.81514,304.25202 631.09087,304.61415 630.67414,305.1334 629.94988,305.49553 629.43222,305.75436 627.85726,305.10114 627.46287,305.49553 627.31632,305.64208 627.60942,305.97073 627.46287,306.11728 627.17546,306.40469 625.97301,305.92958 625.59761,306.11728 625.33546,306.24836 625.23802,306.60795 624.97586,306.73903 624.60047,306.92673 623.39802,306.45162 623.11061,306.73903 622.96406,306.88558 623.25715,307.21424 623.11061,307.36078 622.40301,308.06838 621.95295,306.03143 621.24535,306.73903 621.0988,306.88558 621.3919,307.21424 621.24535,307.36078 620.66176,307.94438 619.68406,306.89102 619.38009,306.73903 619.00935,306.55366 618.42969,307.03213 618.13659,306.73903 617.99004,306.59248 618.28314,306.26383 618.13659,306.11728 617.64033,305.62102 615.68013,306.44343 615.02783,306.11728 614.76568,305.9862 614.66823,305.6266 614.40608,305.49553 613.16173,304.87336 606.32414,306.1177 605.0798,305.49553 604.35553,305.1334 603.9388,304.61415 603.21454,304.25202 603.02917,304.15932 602.73934,304.39857 602.59279,304.25202 602.44624,304.10547 602.73934,303.77682 602.59279,303.63027 602.44624,303.48372 602.11758,303.77682 601.97104,303.63027 601.82449,303.48372 602.11758,303.15507 601.97104,303.00852 601.82449,302.86197 601.49583,303.15507 601.34928,303.00852 601.20273,302.86197 601.49583,302.53332 601.34928,302.38677 601.20273,302.24022 600.87408,302.53332 600.72753,302.38677 600.58098,302.24022 600.82023,301.95039 600.72753,301.76501 600.59645,301.50286 600.23686,301.40542 600.10578,301.14326 600.01308,300.95789 600.25233,300.66806 600.10578,300.52151 599.95923,300.37496 599.63058,300.66806 599.48403,300.52151 599.33748,300.37496 599.63058,300.04631 599.48403,299.89976 599.33748,299.75321 599.00882,300.04631 598.86227,299.89976 598.56918,299.60666 599.15537,298.94935 598.86227,298.65625 598.03327,297.82725 598.24052,299.69251 598.24052,298.0345 598.24052,297.62 598.53362,297.08409 598.24052,296.791 598.09397,296.64445 597.76532,296.93755 597.61877,296.791 597.47222,296.64445 597.71147,296.35462 597.61877,296.16925 597.48769,295.90709 597.1281,295.80965 596.99702,295.54749 596.90432,295.36212 597.08972,295.11111 596.99702,294.92574 596.86594,294.66359 596.50634,294.56614 596.37527,294.30399 596.28257,294.11862 596.46797,293.86761 596.37527,293.68224 596.24419,293.42008 595.88459,293.32264 595.75351,293.06049 595.50481,292.56308 596.00221,291.69263 595.75351,291.19523 595.62244,290.93308 595.26284,290.83563 595.13176,290.57348 594.94639,290.20274 595.31713,289.70071 595.13176,289.32997 595.00069,289.06782 594.64109,288.97037 594.51001,288.70822 594.32464,288.33748 594.69538,287.83546 594.51001,287.46472 594.37893,287.20256 594.01933,287.10512 593.88826,286.84296 593.70289,286.47222 594.07363,285.9702 593.88826,285.59946 593.52613,284.8752 593.00688,284.45847 592.64475,283.7342 592.45938,283.36346 592.83012,282.86144 592.64475,282.4907 592.51368,282.22855 592.15408,282.1311 592.023,281.86895 591.83763,281.49821 592.20837,280.99619 592.023,280.62544 591.66087,279.90118 591.14163,279.48445 590.7795,278.76019 590.50144,278.20408 590.97611,277.48478 590.7795,276.89493 590.6868,276.61688 590.28882,276.53533 590.15775,276.27318 589.90904,275.77578 590.40645,274.90532 590.15775,274.40792 590.02667,274.14577 589.66707,274.04832 589.53599,273.78617 589.35062,273.41543 589.72136,272.91341 589.53599,272.54267 589.40492,272.28051 589.04532,272.18307 588.91424,271.92091 588.58033,271.25309 589.24815,271.34524 588.91424,270.67741 588.78316,270.41526 588.42357,270.31781 588.29249,270.05566 588.10712,269.68492 588.58559,269.10525 588.29249,268.81215 588.14594,268.66561 587.81729,268.9587 587.67074,268.81215 587.37764,268.51906 587.96383,267.86175 587.67074,267.56865 587.52419,267.4221 587.19553,267.7152 587.04898,267.56865 586.73811,267.25777 587.35986,266.01427 587.04898,265.70339 586.90244,265.55685 586.57378,265.84994 586.42723,265.70339 586.13414,265.4103 586.6126,264.83063 586.42723,264.45989 586.29616,264.19774 585.93656,264.10029 585.80548,263.83814 585.62011,263.4674 586.09858,262.88773 585.80548,262.59463 585.65893,262.44808 585.33028,262.74118 585.18373,262.59463 584.89063,262.30154 585.3691,261.72187 585.18373,261.35113 585.05265,261.08898 584.69305,260.99153 584.56198,260.72938 584.37661,260.35864 584.74735,259.85661 584.56198,259.48587 584.4309,259.22372 584.0713,259.12627 583.94022,258.86412 583.75485,258.49338 584.12559,257.99136 583.94022,257.62062 583.80915,257.35846 583.44955,257.26102 583.31847,256.99886 582.98672,256.33537 583.65022,256.41886 583.31847,255.75536 582.95634,255.0311 582.4371,254.61437 582.07497,253.8901 581.8896,253.51936 582.26034,253.01734 582.07497,252.6466 581.71284,251.92234 581.19359,251.50561 580.83146,250.78134 580.58276,250.28394 581.08016,249.41349 580.83146,248.91609 580.46933,248.19182 579.95009,247.77509 579.58796,247.05083 579.40259,246.68009 579.71904,246.20056 579.58796,245.80733 579.44141,245.36768 579.11276,245.00347 578.96621,244.56382 578.83513,244.17059 579.15158,243.69106 578.96621,243.32032 578.83513,243.05816 578.47553,242.96072 578.34446,242.69857 578.15908,242.32782 578.63755,241.74816 578.34446,241.45506 578.19791,241.30851 577.86925,241.60161 577.7227,241.45506 577.42961,241.16197 577.90807,240.5823 577.7227,240.21156 577.46055,239.68725 576.74135,239.49236 576.4792,238.96805 576.29383,238.59731 576.7723,238.01765 576.4792,237.72455 576.33265,237.578 576.004,237.8711 575.85745,237.72455 575.56435,237.43145 576.04282,236.85179 575.85745,236.48105 575.72637,236.21889 575.36677,236.12145 575.2357,235.85929 575.05032,235.48855 575.42107,234.98653 575.2357,234.61579 575.10462,234.35364 574.74502,234.25619 574.61394,233.99404 574.42857,233.6233 574.79931,233.12127 574.61394,232.75053 574.48287,232.48838 574.12327,232.39093 573.99219,232.12878 573.80682,231.75804 574.17756,231.25602 573.99219,230.88528 573.86111,230.62312 573.50152,230.52568 573.37044,230.26352 573.12174,229.76612 573.61914,228.89567 573.37044,228.39827 573.00831,227.67401 572.48907,227.25727 572.12693,226.53301 571.94156,226.16227 572.31231,225.66025 572.12693,225.28951 571.99586,225.02735 571.59787,224.94581 571.50518,224.66776 571.24303,223.88129 571.76734,222.96721 571.50518,222.18075 571.41248,221.90269 571.01451,221.82115 570.88343,221.55899 570.69806,221.18825 571.0688,220.68623 570.88343,220.31549 570.75235,220.05334 570.39276,219.95589 570.26168,219.69374 570.01298,219.19634 570.51038,218.32588 570.26168,217.82848 570.1306,217.56633 569.771,217.46888 569.63993,217.20673 569.45456,216.83599 569.93302,216.25632 569.63993,215.96323 569.49338,215.81668 569.16472,216.10977 569.01817,215.96323 568.72508,215.67013 569.20354,215.09046 569.01817,214.71972 568.65604,213.99546 568.1368,213.57873 567.77467,212.85447 567.44307,212.19126 568.10627,211.03066 567.77467,210.36746 567.64359,210.1053 567.28399,210.00786 567.15292,209.7457 566.96755,209.37496 567.44601,208.7953 567.15292,208.5022 567.00637,208.35565 566.67771,208.64875 566.53117,208.5022 566.22029,208.19132 566.84204,206.94782 566.53117,206.63694 566.38462,206.4904 566.05596,206.78349 565.90941,206.63694 565.61632,206.34385 566.09478,205.76418 565.90941,205.39344 565.77834,205.13129 565.41874,205.03384 565.28766,204.77169 565.03896,204.27429 565.53636,203.40383 565.28766,202.90643 565.15658,202.64428 564.79699,202.54683 564.66591,202.28468 564.57321,202.09931 564.75861,201.8483 564.66591,201.66293 564.30378,200.93867 563.78454,200.52193 563.42241,199.79767 563.09066,199.13417 563.75415,199.21767 563.42241,198.55417 563.29133,198.29201 562.93173,198.19457 562.80065,197.93242 562.70795,197.74704 562.89335,197.49603 562.80065,197.31066 562.66958,197.04851 562.30998,196.95106 562.1789,196.68891 562.0862,196.50354 562.2716,196.25253 562.1789,196.06716 562.04782,195.80501 561.68823,195.70756 561.55715,195.44541 561.37178,195.07467 561.85025,194.495 561.55715,194.2019 561.4106,194.05535 561.08195,194.34845 560.9354,194.2019 560.78885,194.05535 561.0281,193.76552 560.9354,193.58015 560.80432,193.318 560.44472,193.22055 560.31364,192.9584 560.12827,192.58766 560.60674,192.00799 560.31364,191.71489 560.1671,191.56835 559.83844,191.86144 559.69189,191.71489 559.54534,191.56835 559.78459,191.27851 559.69189,191.09314 559.32976,190.36888 558.81052,189.95215 558.44839,189.22789 558.35569,189.04252 558.54109,188.7915 558.44839,188.60613 558.18623,188.08183 557.46704,187.88694 557.20488,187.36263 557.11218,187.17726 557.29758,186.92625 557.20488,186.74088 555.14279,184.67879 557.49798,187.32707 556.58313,185.49737 556.32098,184.97307 555.66479,184.74161 555.33963,184.25387 554.94148,183.65664 553.9446,181.61534 553.47437,181.14511 553.14668,180.81742 552.55856,180.85105 552.23087,180.52336 551.90318,180.19566 551.88717,179.65059 551.60912,179.27985 548.25493,174.8076 552.2995,180.59199 549.12211,177.4146 548.79441,177.0869 548.82805,176.49878 548.50035,176.17109 547.74307,175.41381 547.11123,175.87985 546.6351,174.92759 546.5424,174.74222 546.7278,174.49121 546.6351,174.30584 546.37294,173.78153 545.65375,173.58664 545.39159,173.06233 545.29889,172.87696 545.53814,172.58713 545.39159,172.44058 545.24505,172.29403 544.91639,172.58713 544.76984,172.44058 544.62329,172.29403 544.86254,172.0042 544.76984,171.81883 544.63877,171.55667 544.27917,171.45923 544.14809,171.19708 544.05539,171.0117 544.24079,170.76069 544.14809,170.57532 543.78083,169.84081 542.7401,169.39596 542.28283,168.71007 542.02577,168.32447 541.91814,167.85216 541.66108,167.46656 541.33592,166.97882 540.74274,166.7108 540.41758,166.22306 539.75402,165.22773 539.26868,164.06944 538.55232,163.1143 538.02475,162.41087 537.17481,161.98066 536.68707,161.24904 536.43,160.86345 536.32238,160.39113 536.06531,160.00554 534.99472,158.39965 531.87889,156.60672 531.0913,155.03152 530.9986,154.84615 531.184,154.59514 531.0913,154.40977 530.82914,153.88546 530.3721,153.42842 529.84779,153.16626 529.66242,153.07356 529.41141,153.25896 529.22604,153.16626 528.73071,152.9186 527.66981,151.76455 527.36078,151.30101 527.10372,150.91541 526.99609,150.4431 526.73903,150.0575 526.20198,149.25193 523.18882,146.10627 522.38677,145.70524 522.2014,145.61254 521.91156,145.85179 521.76501,145.70524 521.61847,145.55869 521.85771,145.26886 521.76501,145.08349 521.39196,144.33738 520.27281,143.96433 519.89976,143.21823 519.80706,143.03286 519.99246,142.78185 519.89976,142.59648 519.76868,142.33433 519.40908,142.23688 519.27801,141.97473 519.18531,141.78936 519.37071,141.53835 519.27801,141.35297 517.21591,139.29088 519.5711,141.93917 518.65625,140.10947 518.3941,139.58516 517.6749,139.39027 517.41275,138.86597 517.32005,138.6806 517.50545,138.42958 517.41275,138.24421 517.1506,137.71991 516.4314,137.52502 516.16925,137.00071 516.07655,136.81534 516.31579,136.52551 516.16925,136.37896 516.0227,136.23241 515.69404,136.52551 515.54749,136.37896 515.40095,136.23241 515.64019,135.94258 515.54749,135.75721 515.41642,135.49505 515.05682,135.39761 514.92574,135.13545 514.83304,134.95008 515.07229,134.66025 514.92574,134.5137 514.77919,134.36715 514.45054,134.66025 514.30399,134.5137 514.15744,134.36715 514.45054,134.0385 514.30399,133.89195 514.15744,133.7454 513.82879,134.0385 513.68224,133.89195 513.53569,133.7454 513.82879,133.41675 513.68224,133.2702 513.53569,133.12365 513.20703,133.41675 513.06049,133.2702 512.91394,133.12365 513.20703,132.79499 513.06049,132.64845 512.91394,132.5019 512.58528,132.79499 512.43873,132.64845 512.29219,132.5019 512.53143,132.21206 512.43873,132.02669 512.17658,131.50239 511.71954,131.04534 511.19523,130.78319 511.00986,130.69049 510.72003,130.92974 510.57348,130.78319 509.28705,129.49676 512.53931,130.83349 509.95173,129.53968 509.76635,129.44698 509.47652,129.68623 509.32997,129.53968 509.18342,129.39314 509.42267,129.1033 509.32997,128.91793 508.83257,127.92313 507.34037,127.42573 506.84296,126.43092 506.75026,126.24555 506.98951,125.95572 506.84296,125.80917 506.69642,125.66262 506.40658,125.90187 506.22121,125.80917 505.69691,125.54702 505.23986,125.08998 504.97771,124.56567 504.88501,124.3803 505.12426,124.09046 504.97771,123.94392 504.83116,123.79737 504.5025,124.09046 504.35596,123.94392 504.20941,123.79737 504.5025,123.46871 504.35596,123.32216 504.20941,123.17562 503.91957,123.41486 503.7342,123.32216 503.2099,123.06001 502.75285,122.60297 502.4907,122.07866 502.398,121.89329 502.63725,121.60346 502.4907,121.45691 502.34415,121.31036 502.0155,121.60346 501.86895,121.45691 501.7224,121.31036 502.0155,120.9817 501.86895,120.83516 501.7224,120.68861 501.39374,120.9817 501.2472,120.83516 501.10065,120.68861 501.3399,120.39877 501.2472,120.2134 501.11612,119.95125 500.75652,119.8538 500.62544,119.59165 500.53274,119.40628 500.77199,119.11645 500.62544,118.9699 500.4789,118.82335 500.15024,119.11645 500.00369,118.9699 499.85714,118.82335 500.09639,118.53352 500.00369,118.34815 499.87261,118.08599 499.51302,117.98855 499.38194,117.72639 499.28924,117.54102 499.52849,117.25119 499.38194,117.10464 499.23539,116.95809 498.90674,117.25119 498.76019,117.10464 498.61364,116.95809 498.85289,116.66826 498.76019,116.48289 498.62911,116.22074 498.26951,116.12329 498.13844,115.86114 497.88973,115.36374 498.38714,114.49328 498.13844,113.99588 498.00736,113.73373 497.64776,113.63628 497.51668,113.37413 497.33322,113.00719 497.51668,111.92677 497.51668,111.50887 497.51668,110.78382 496.51564,110.02291 496.89493,109.64362 497.04148,109.49707 497.37013,109.79017 497.51668,109.64362 497.82756,109.33274 497.20581,108.08924 497.51668,107.77836 497.66323,107.63181 497.99189,107.92491 498.13844,107.77836 498.43153,107.48526 497.84534,106.82795 498.13844,106.53486 498.28498,106.38831 498.61364,106.68141 498.76019,106.53486 498.90674,106.38831 498.61364,106.05965 498.76019,105.91311 498.90674,105.76656 499.19657,106.00581 499.38194,105.91311 500.1062,105.55097 500.52293,105.03173 501.2472,104.6696 501.62259,104.4819 502.82504,104.95701 503.11245,104.6696 503.259,104.52305 502.9659,104.1944 503.11245,104.04785 503.42333,103.73697 504.66683,104.35872 504.97771,104.04785 505.12426,103.9013 504.83116,103.57265 504.97771,103.4261 505.39221,103.0116 507.05022,103.8406 507.46472,103.4261 507.61127,103.27955 507.31817,102.95089 507.46472,102.80434 507.6293,102.63976 509.07396,102.80434 509.32997,102.80434 510.57348,102.80434 511.81698,102.80434 513.06049,102.80434 z"
       inkscape:connector-curvature="0"
       id="path31"
       style="fill:none;stroke:#e20000;stroke-opacity:1" />
    <path
       d="M 646.12838,183.68925 C 612.71285,171.33666 571.48143,142.49464 560.9354,191.71489"
       inkscape:connector-curvature="0"
       id="path2992"
       style="fill:none;stroke:#0000e9;stroke-width:1;stroke-miterlimit:4;stroke-opacity:1;stroke-dasharray:none;stroke-dashoffset:0" />
    <path
       d="M 621.54707,154.45395 C 595.28244,148.5557 563.91424,138.81579 552.23087,179.9016"
       inkscape:connector-curvature="0"
       id="path34"
       style="fill:none;stroke:#0000e9;stroke-width:1;stroke-miterlimit:4;stroke-opacity:1;stroke-dasharray:none;stroke-dashoffset:0" />
    <path
       d="M 518.20734,101.87645 C 522.20726,102.22722 526.2813,102.15809 530.10523,103.26408 534.67003,104.13555 538.75298,106.56424 543.47319,106.8362 545.7738,107.65612 548.20766,107.84222 550.58995,108.18261 552.91345,109.73082 556.26282,109.44904 558.62438,111.23211 561.91758,112.92433 565.58611,114.09441 568.5467,116.1924 571.90488,117.89201 575.12835,119.95811 578.47993,121.71544 581.35058,123.81926 584.1115,125.75984 587.10797,127.7056 588.70829,128.4704 589.07301,130.69973 590.85869,131.18155 594.12983,133.72818 597.3242,136.38106 600.73697,138.71047 602.58468,140.16287 603.89127,142.33791 606.26001,143.1344 609.05909,145.41441 612.24411,147.29074 615.12161,149.53673 616.1496,149.94087 617.96335,152.26189 616.12455,152.65546 603.45855,150.65348 590.31325,146.93537 577.54569,150.20994 565.39927,153.14983 557.05991,164.25382 553.40642,175.6544 553.08727,176.76898 552.16847,179.4612 550.76855,177.72898 549.67287,175.78683 547.15809,175.54251 546.08358,173.49739 543.69188,169.11007 540.12767,165.37593 537.23573,161.26976 534.89212,158.59961 532.38048,156.04189 530.28384,153.20502 526.97576,151.38165 525.51625,147.48681 522.43892,145.3601 520.00141,143.49174 519.24815,140.45002 517.41048,138.07848 516.70668,136.49354 515.3849,135.41513 514.64896,133.87437 512.26956,130.95649 509.02795,128.43187 506.70787,125.58981 504.99337,125.33949 505.33051,122.74284 503.5067,122.59473 501.58856,120.41676 499.92229,117.84191 498.64313,115.24441 498.33841,113.46167 497.15082,111.89525 497.62645,109.91371 497.43946,108.56172 498.66535,108.01027 498.87669,106.82246 500.44951,104.69611 503.51191,105.1537 505.44389,103.89607 508.61811,103.02302 512.26706,103.42504 515.3359,102.0001 516.27557,101.78341 517.25101,101.84425 518.20734,101.87645 z"
       inkscape:connector-curvature="0"
       id="path6008"
       style="fill:#a6a5bc;stroke:none;display:inline;enable-background:new" />
    <path
       d="M 589.88323,149.48178 C 600.56033,149.59143 611.07338,152.09493 621.29038,154.92238 622.4977,155.75985 623.97764,156.40722 624.50528,157.86251 628.70915,160.8271 632.55827,164.47427 635.78493,168.48269 636.74499,169.91847 638.43262,170.87809 638.93114,172.60436 640.8784,175.40382 642.84373,178.31964 644.08323,181.49344 643.38074,183.05522 641.25274,180.96908 640.05773,180.88893 624.85988,175.09724 610.29495,166.94118 594.0736,164.36102 586.7458,163.28469 578.65789,163.77515 572.76455,168.68877 566.16554,173.77726 563.21798,181.93225 561.07274,189.73678 559.46614,191.25218 558.55077,188.33353 557.88508,187.30362 556.49761,184.64664 554.23775,182.42529 552.89808,179.78981 554.35935,172.90646 557.55608,166.32256 561.99324,160.85759 568.19212,153.26949 578.10151,149.0301 587.91857,149.48178 588.57365,149.48378 589.22818,149.45258 589.88323,149.48178 z"
       inkscape:connector-curvature="0"
       id="path6010"
       style="fill:#c1dfbe;stroke:none;display:inline;enable-background:new" />
    <path
       d="M 589.16881,164.48467 C 602.53495,164.80984 614.69446,171.15078 626.88143,175.95552 632.60576,178.603 638.72362,180.52278 644.27558,183.4581 646.19731,184.47077 647.27845,186.29136 647.7103,188.32168 648.82547,190.32032 648.94146,192.78011 650.29322,194.5454 650.77376,197.5061 652.06957,200.34174 652.71127,203.29709 653.8884,205.63879 653.88858,208.65178 654.89917,211.19927 655.60213,215.24854 656.70283,219.27126 657.79466,223.24599 658.33293,228.54456 660.1704,233.59111 660.1028,238.99078 662.03663,244.50261 661.07873,250.68415 661.31182,256.46667 661.05066,258.54289 661.73866,260.35934 662.1499,262.29197 662.65704,264.72409 661.00948,266.60464 661.22662,269.03673 661.23907,271.21268 660.7147,273.32958 660.00663,275.27524 659.59537,276.80487 658.16927,277.77517 657.91831,279.36943 655.46677,282.4672 652.66209,285.51575 649.52384,287.92878 648.6493,289.68921 646.63964,290.72029 645.33347,292.22905 644.66663,292.77616 643.63488,292.34912 643.71228,293.45182 642.34218,294.93574 641.39168,296.56633 640.34625,298.26044 638.73546,300.3355 636.56916,301.96219 634.31487,303.12401 633.30003,304.59458 631.03403,303.8619 629.75355,305.11615 626.10249,305.29042 622.3949,307.45342 618.67999,306.2977 614.30125,304.45109 609.23711,306.2839 604.78995,304.84137 601.50191,302.96598 599.29779,299.56155 597.98919,296.15838 595.53068,292.58809 595.41894,287.98748 593.27674,284.24675 592.93359,281.12003 590.54319,278.58291 590.474,275.33019 589.74786,273.0521 588.96798,270.78091 588.45438,268.43326 587.3286,267.37872 587.66428,265.51352 586.50346,264.46272 585.72374,261.71326 584.44514,259.13824 583.67071,256.37613 581.66552,251.51956 579.75345,246.54937 578.56237,241.42256 577.94483,240.1537 576.97578,238.84714 576.58396,237.60315 575.29209,235.70639 575.19421,233.19102 574.17966,231.11838 573.47727,227.14918 571.0774,223.71195 570.82736,219.56396 570.16793,215.89602 567.73856,212.7624 567.53002,208.95752 566.52473,206.65927 565.4631,204.42817 565.0158,201.96441 563.74034,199.6186 562.99136,197.10849 561.85585,194.68279 561.53723,193.69061 559.47831,192.05179 561.36125,191.35797 562.36837,185.84684 564.57641,180.40762 567.36516,175.53075 571.68146,168.41946 579.86514,163.64734 588.30326,164.47093 L 588.74284,164.47793 589.16881,164.48493 z"
       inkscape:connector-curvature="0"
       id="path6012"
       style="fill:#9681a3;stroke:none;display:inline;enable-background:new" />
  </g>
</svg>
