<?xml version="1.0" encoding="UTF-8" standalone="no"?>
<!-- Created with Inkscape (http://www.inkscape.org/) -->

<svg
   xmlns:dc="http://purl.org/dc/elements/1.1/"
   xmlns:cc="http://creativecommons.org/ns#"
   xmlns:rdf="http://www.w3.org/1999/02/22-rdf-syntax-ns#"
   xmlns:svg="http://www.w3.org/2000/svg"
   xmlns="http://www.w3.org/2000/svg"
   xmlns:xlink="http://www.w3.org/1999/xlink"
   xmlns:inkscape="http://www.inkscape.org/namespaces/inkscape"
   version="1.1"
   width="740"
   height="520"
   id="svg2"
   style="display:inline;enable-background:new">
  <defs
     id="defs4">
    <filter
       color-interpolation-filters="sRGB"
       id="filter3050">
      <feBlend
         in2="BackgroundImage"
         mode="lighten"
         id="feBlend3052" />
    </filter>
  </defs>
  <metadata
     id="metadata7">
    <rdf:RDF>
      <cc:Work
         rdf:about="">
        <dc:format>image/svg+xml</dc:format>
        <dc:type
           rdf:resource="http://purl.org/dc/dcmitype/StillImage" />
        <dc:title />
      </cc:Work>
    </rdf:RDF>
  </metadata>
  <g
     id="g1882"
     style="display:none">
    <image
       xlink:href="pngs/coronal-0725.png"
       id="image1884"
       height="520"
       width="740"
       y="0"
       x="0" />
  </g>
  <g
     id="g1890"
     style="display:inline">
    <path
       d="M 617.33901,247.42002 C 617.40791,252.90588 619.65527,265.49491 619.97688,273.35909 622.6397,280.24362 622.6081,288.08581 620.85617,295.78099 620.93407,304.40333 619.08648,311.42076 616.02008,319.08218 614.65363,328.03764 611.37007,335.02098 613.3822,345.02124 617.17911,342.89305 616.66161,334.85797 617.77866,330.07331 619.38252,325.07187 619.37464,318.32116 622.17511,313.36679 622.88083,310.07647 624.55557,305.85985 626.13191,301.93602 628.3108,289.62359 624.89021,278.07381 625.25262,265.00583 629.23266,255.69592 629.25982,242.22952 626.21937,232.12879 625.38044,224.4334 623.23329,218.44216 620.00185,212.23272 618.08683,205.27418 615.73507,199.74027 612.54082,194.20191 608.46426,184.19266 601.54693,175.01735 594.51001,166.84482 592.67242,164.75094 587.77756,160.16425 584.56198,153.92277 578.57692,147.16957 576.76882,143.95603 569.63993,139.62247 565.7136,136.47368 562.11851,135.74519 558.44839,129.53969 553.12761,126.04743 549.14687,123.89337 544.76985,121.45691 540.03029,118.09695 534.11345,115.91957 528.60429,113.37414 522.02357,111.64885 513.48235,109.02819 513.60452,107.54521 514.20525,105.93893 502.97597,104.53964 499.38194,102.80435 491.52209,101.56361 485.18674,98.939858 476.99887,98.452087 464.55204,96.503366 452.54064,96.921434 440.93725,94.721575 436.90801,93.116398 435.44819,90.100475 430.98921,89.125806 422.72715,88.570105 417.70951,91.165762 412.9584,94.721575 409.32641,96.388792 408.125,99.579971 405.49738,102.1826 404.05028,104.78022 402.15149,108.58383 399.90161,109.64362 396.53109,114.3194 393.6158,114.56517 389.33182,117.10465 383.5208,117.54078 376.75455,121.20621 371.48881,121.55731 368.90548,122.34102 370.65154,110.10308 370.05751,100.4606 369.8161,90.432636 370.49392,80.556112 370.05751,71.094996 370.43581,67.963345 371.42263,60.948621 373.16627,56.172946 376.98635,52.381447 379.38054,47.252106 384.97956,44.359656 389.30535,40.356472 396.30512,38.794047 403.63212,38.763887 412.89265,38.46818 424.01752,36.89241 434.09797,37.520383 445.39927,38.595148 456.8891,39.227926 467.67259,41.872648 475.85685,42.46857 482.68201,46.644452 490.67741,47.468416 497.51604,50.75045 505.39355,51.524355 512.43874,54.307689 519.65232,56.077786 526.87971,58.258999 533.89568,61.519376 535.64441,60.952991 543.67093,65.783564 547.87861,66.742731 556.56734,70.106689 564.97489,73.342876 573.37044,77.312516 581.43218,80.310112 588.82507,85.417899 596.46242,89.245146 602.0146,91.806247 607.67352,95.381295 612.54082,99.695591 616.17732,101.96414 618.07721,103.15927 620.00185,105.91311 623.88525,109.93606 629.33795,113.03369 633.68039,118.96991 639.43365,123.49504 643.94586,128.37364 647.98069,132.0267 654.60552,136.63733 658.29295,141.9171 663.52449,148.19225 666.11034,152.24791 669.76254,157.19961 673.47253,161.24905 676.85391,165.99943 679.37856,170.44861 681.5553,175.54935 684.6442,180.91542 686.02054,187.71354 689.01633,192.9584 690.79669,200.73843 694.31102,208.65616 695.36859,216.89586 696.68001,231.0807 697.14718,244.24372 696.43044,258.70615 699.53167,269.99306 694.19633,279.20429 692.88158,289.32998 690.5022,294.21515 686.99766,301.16317 684.66406,306.11728 683.64976,310.5183 679.99845,313.84482 678.44654,319.79583 675.26624,325.26137 673.73426,333.81697 669.74201,339.6919 667.04382,345.83121 664.03849,350.84567 662.28099,357.10095 659.51993,363.82878 658.11452,369.84928 655.44172,376.99702 653.01633,382.03438 650.8182,386.21757 649.2242,390.67557 646.36675,394.19724 644.8927,399.09975 642.38492,402.48886 641.04263,406.80935 637.99006,412.8043 635.54565,415.54565 633.45204,418.20711 630.18405,420.80896 628.70638,423.62843 626.11177,425.2988 625.21824,429.09204 622.48886,430.4677 621.0676,432.72831 617.565,435.00741 616.27134,437.30697 613.28212,438.80574 611.08168,441.91731 606.94505,443.52449 602.61247,447.83998 597.78125,444.87486 592.71888,445.69997 585.78815,446.98416 579.05889,443.45426 572.49521,442.18281 567.87282,439.78359 563.04915,437.82194 559.30585,433.82956 556.34992,432.23048 555.07832,431.49726 551.87904,428.35866 550.50076,426.0197 547.21253,424.5184 545.67686,422.83843 537.67289,417.39211 524.42127,412.77888 514.9017,407.89049 505.72169,404.31522 497.72963,400.16929 488.08334,399.09759 480.21669,396.38714 471.65064,397.45348 464.34251,393.82185 461.52762,389.95551 461.4109,379.1026 465.2218,375.35675 471.28145,370.29085 476.19914,364.63215 482.12346,361.77491 484.3667,359.9787 489.60065,357.8832 490.72122,355.57272 495.6881,352.41254 498.85839,349.68371 503.91057,346.77982 506.96367,343.86261 510.80259,343.50066 514.02241,339.7455 521.99707,333.28151 532.15224,328.14078 539.96147,319.96147 544.90012,316.39971 548.66336,311.55977 551.83189,308.09105 554.54867,304.94614 556.64544,302.75648 558.86621,298.8585 560.97602,295.31747 563.5016,293.41422 565.02124,288.74667 569.42444,283.00452 571.05466,276.32986 571.61592,269.40228 573.76031,267.52162 571.86915,271.94942 573.81414,272.4798"
       inkscape:connector-curvature="0"
       id="path1892"
       style="fill:none;stroke:#e20000;stroke-opacity:1" />
    <path
       d="M 369.37916,106.49217 401.9129,105.61288"
       inkscape:connector-curvature="0"
       id="path1894"
       style="opacity:0.6;fill:none;stroke:#e20000;stroke-opacity:1" />
    <path
       d="M 417.74013,91.785651 378.61171,47.821138"
       inkscape:connector-curvature="0"
       id="path1896"
       style="opacity:0.6;fill:none;stroke:#e20000;stroke-opacity:1" />
    <path
       d="M 461.70463,96.621747 468.73896,42.105752"
       inkscape:connector-curvature="0"
       id="path1898"
       style="opacity:0.6;fill:none;stroke:#e20000;stroke-opacity:1" />
    <path
       d="M 589.64137,161.24958 634.48517,120.36258"
       inkscape:connector-curvature="0"
       id="path1900"
       style="opacity:0.6;fill:none;stroke:#e20000;stroke-opacity:1" />
    <path
       d="M 433.56735,36.830011 433.56735,90.466716"
       inkscape:connector-curvature="0"
       id="path1902"
       style="fill:none;stroke:#0000e9;stroke-width:0.99000001;stroke-miterlimit:4;stroke-opacity:1;stroke-dasharray:none;stroke-dashoffset:0" />
    <path
       d="M 503.03128,51.3383 483.68689,99.699263"
       inkscape:connector-curvature="0"
       id="path1904"
       style="fill:none;stroke:#0000e9;stroke-width:0.99000001;stroke-miterlimit:4;stroke-opacity:1;stroke-dasharray:none;stroke-dashoffset:0" />
    <path
       d="M 545.23721,65.406944 526.33247,112.00933"
       inkscape:connector-curvature="0"
       id="path1906"
       style="fill:none;stroke:#0000e9;stroke-width:0.99000001;stroke-miterlimit:4;stroke-opacity:1;stroke-dasharray:none;stroke-dashoffset:0" />
    <path
       d="M 596.67569,89.14778 563.26266,133.99158"
       inkscape:connector-curvature="0"
       id="path1908"
       style="fill:none;stroke:#0000e9;stroke-width:0.99000001;stroke-miterlimit:4;stroke-opacity:1;stroke-dasharray:none;stroke-dashoffset:0" />
    <path
       d="M 676.25146,166.52532 612.06327,191.58509"
       inkscape:connector-curvature="0"
       id="path1910"
       style="fill:none;stroke:#0000e9;stroke-width:0.99000001;stroke-miterlimit:4;stroke-opacity:1;stroke-dasharray:none;stroke-dashoffset:0" />
    <path
       d="M 624.37333,223.67919 695.59584,210.05019"
       inkscape:connector-curvature="0"
       id="path1912"
       style="fill:none;stroke:#0000e9;stroke-width:0.99000001;stroke-miterlimit:4;stroke-opacity:1;stroke-dasharray:none;stroke-dashoffset:0" />
    <path
       d="M 628.33014,243.02357 697.79407,236.86854"
       inkscape:connector-curvature="0"
       id="path1914"
       style="fill:none;stroke:#0000e9;stroke-width:0.99000001;stroke-miterlimit:4;stroke-opacity:1;stroke-dasharray:none;stroke-dashoffset:0" />
    <path
       d="M 627.13997,261.08027 C 648.9629,266.21725 673.91738,268.82163 696.86144,272.33808"
       inkscape:connector-curvature="0"
       id="path1916"
       style="fill:none;stroke:#0000e9;stroke-width:0.99000001;stroke-miterlimit:4;stroke-opacity:1;stroke-dasharray:none;stroke-dashoffset:0" />
    <path
       d="M 626.88244,280.74847 C 649.09262,284.24066 669.29242,292.16887 691.40359,294.98628"
       inkscape:connector-curvature="0"
       id="path1918"
       style="fill:none;stroke:#0000e9;stroke-width:0.99000001;stroke-miterlimit:4;stroke-opacity:1;stroke-dasharray:none;stroke-dashoffset:0" />
    <path
       d="M 625.69227,302.81531 681.96684,312.04786"
       inkscape:connector-curvature="0"
       id="path1920"
       style="fill:none;stroke:#0000e9;stroke-width:0.99000001;stroke-miterlimit:4;stroke-opacity:1;stroke-dasharray:none;stroke-dashoffset:0" />
    <path
       d="M 619.97688,319.96147 672.7343,335.34905"
       inkscape:connector-curvature="0"
       id="path1922"
       style="fill:none;stroke:#0000e9;stroke-width:0.99000001;stroke-miterlimit:4;stroke-opacity:1;stroke-dasharray:none;stroke-dashoffset:0" />
    <path
       d="M 488.52299,397.77866 C 486.58759,349.27354 592.81851,388.61464 545.67686,421.95914"
       inkscape:connector-curvature="0"
       id="path1924"
       style="fill:none;stroke:#0000e9;stroke-width:0.99000001;stroke-miterlimit:4;stroke-opacity:1;stroke-dasharray:none;stroke-dashoffset:0" />
    <path
       d="M 631.8473,322.59934 C 634.86643,322.26185 631.97162,325.09317 633.24181,326.83791 632.61679,330.39282 632.35272,334.19422 631.62748,337.10763 630.97715,338.9442 630.9909,340.64705 629.64907,341.94373 629.20767,343.14517 626.7185,345.723 626.77657,346.07877 625.48468,346.5406 625.14737,348.35536 624.15351,348.97805 623.00073,350.63473 622.32407,351.10435 621.51564,352.05556 620.48049,352.99873 620.13743,355.05891 618.2183,356.45201 617.31508,357.32371 617.29159,357.95207 616.02008,358.65024 615.47275,359.4996 614.51927,360.41007 613.82185,361.50793 612.98602,362.03997 612.47803,363.61119 611.60933,364.13551 609.82685,366.80926 607.99979,369.80203 607.29057,372.8452 606.2102,376.33754 605.03576,378.51205 603.71001,381.95143 602.86552,382.52387 602.58812,383.91632 601.51179,384.5893 600.97227,385.61488 600.12055,386.68178 599.75321,387.66682 598.33384,389.42231 598.02035,391.63392 596.6174,393.13824 596.24085,394.91706 594.47372,396.63667 593.59817,398.65795 592.9099,400.87652 591.34515,403.96916 590.52066,406.57156 589.46649,410.62342 589.47249,414.0102 588.76208,418.00233 589.04985,422.49398 587.84216,426.37956 587.84605,430.77635 586.70617,434.40741 588.09562,439.29571 586.96334,442.39207 587.17084,443.77573 588.52829,447.586 587.00354,444.38104"
       inkscape:connector-curvature="0"
       id="path1926"
       style="fill:none;stroke:#0000e9;stroke-width:0.99000001;stroke-miterlimit:4;stroke-opacity:1;stroke-dasharray:none;stroke-dashoffset:0" />
    <path
       d="M 556.66798,405.25262 C 565.91266,397.6995 579.23049,402.31491 591.83959,404.81298"
       inkscape:connector-curvature="0"
       id="path1928"
       style="fill:none;stroke:#0000e9;stroke-width:0.99000001;stroke-miterlimit:4;stroke-opacity:1;stroke-dasharray:none;stroke-dashoffset:0" />
    <path
       d="M 597.99463,392.50291 622.17511,430.3124"
       inkscape:connector-curvature="0"
       id="path1930"
       style="fill:none;stroke:#0000e9;stroke-width:0.99000001;stroke-miterlimit:4;stroke-opacity:1;stroke-dasharray:none;stroke-dashoffset:0" />
    <path
       d="M 515.30705,375.49111 C 529.26059,376.48868 543.59947,381.95619 553.03963,392.56987 559.14943,399.41668 558.11504,410.79775 551.06503,416.59723 549.01406,418.14496 547.33952,421.14883 544.76256,421.53963 528.78825,413.87283 512.77173,405.79565 495.89673,400.40006 493.64325,399.36677 490.64309,399.98775 488.70772,398.63195 488.78582,391.20407 491.01714,382.79712 498.09229,379.12448 503.26888,376.21192 509.41282,375.25638 515.30705,375.49111 z"
       inkscape:connector-curvature="0"
       id="path1932"
       style="fill:#d764c6;stroke:none" />
    <path
       d="M 571.59893,401.72128 C 577.82554,402.12326 584.30418,403.08073 590.09605,405.12149 588.82255,417.39848 587.34943,429.85636 586.72638,442.30585 587.08913,444.28996 586.2946,445.9332 584.18941,444.87476 574.58011,443.01605 565.49155,439.00213 558.01873,432.62633 553.78837,429.76341 550.15585,426.20549 546.41797,422.74427 548.44649,419.13672 552.89579,416.88843 555.04478,413.00997 557.69441,409.90166 556.89225,403.94836 561.86462,402.9065 564.94599,401.72153 568.33387,401.64579 571.59893,401.72128 z"
       inkscape:connector-curvature="0"
       id="path1934"
       style="fill:#9eae8b;stroke:none" />
    <path
       d="M 597.86796,394.00767 C 603.9682,401.60808 608.78986,410.39909 614.20838,418.58631 616.44124,422.73103 619.80508,426.57098 621.28081,430.98249 617.45139,436.508 611.40899,440.27644 605.83415,443.94213 600.74885,446.74118 594.49087,445.35121 588.9497,445.18564 586.53877,444.60073 588.17545,440.9599 587.74586,439.22134 588.83001,424.76476 588.14198,409.28762 595.40038,396.24209 595.97328,395.38459 596.64177,393.94508 597.86796,394.00767 z"
       inkscape:connector-curvature="0"
       id="path1936"
       style="fill:#bc94c3;stroke:none" />
    <path
       d="M 628.37267,303.65932 C 645.83858,306.57753 663.54746,309.00623 680.85243,312.44157 679.57582,317.23382 676.75234,321.82958 675.16264,326.63946 673.67901,328.98188 673.54655,333.29876 670.65181,334.3389 658.23007,330.4995 645.39142,327.58833 633.32726,322.83648 632.08987,321.58544 629.96491,322.96025 628.43096,321.96214 625.98227,321.14098 622.63538,321.19119 620.81449,319.3197 622.17346,314.07415 623.48868,308.43664 626.44912,303.85361 626.98092,303.37293 627.73067,303.56112 628.37267,303.65932 z"
       inkscape:connector-curvature="0"
       id="path1940"
       style="fill:#ba9676;stroke:none" />
    <path
       d="M 692.86002,211.1154 C 695.42879,213.05615 694.56673,217.39628 695.3136,220.24139 695.80712,225.54856 696.05289,230.87604 696.29908,236.19921 692.78088,237.82311 688.04828,237.04461 684.10753,237.82462 665.77872,239.4336 647.46403,241.29128 629.111,242.57217 627.19462,237.69229 626.81307,231.84347 625.67211,226.55024 624.11527,223.41908 627.78329,223.40043 629.94259,223.01932 650.89391,218.96721 671.85251,214.7729 692.86002,211.1154 z"
       inkscape:connector-curvature="0"
       id="path1948"
       style="fill:#9970bd;stroke:none" />
    <path
       d="M 600.5104,91.816721 C 612.89555,99.292705 624.09677,108.98909 633.63813,119.75671 632.53172,122.6824 628.7784,124.49435 626.73154,126.96044 614.46592,138.17901 602.34552,149.74855 589.70746,160.44261 586.00472,156.5235 583.53712,151.30947 579.46282,147.58043 575.11502,142.55956 569.27417,139.31959 564.3322,135.10621 563.26461,132.78366 566.93769,130.87251 567.70816,128.79776 577.1892,115.83691 586.83437,102.99725 596.41072,90.106903 597.85002,89.685305 599.15594,91.435945 600.5104,91.816721 z"
       inkscape:connector-curvature="0"
       id="path1954"
       style="fill:#bf9784;stroke:none" />
    <path
       d="M 545.83508,66.73291 C 562.05324,72.354131 578.09698,79.101855 592.87451,87.891911 594.62703,88.602629 596.11829,90.425018 593.9363,91.888099 583.88977,105.93414 573.42168,119.67286 563.14699,133.55183 560.52602,132.675 558.88113,129.22851 556.09825,127.93748 547.14763,121.68465 537.05649,116.97106 527.31852,112.12081 531.12248,100.11029 536.42557,88.409003 541.00056,76.598237 542.53109,73.383518 543.44486,69.719943 545.38819,66.771769 L 545.67964,66.713479 545.83508,66.732909 z"
       inkscape:connector-curvature="0"
       id="path1956"
       style="fill:#dad3b7;stroke:none" />
    <path
       d="M 503.84738,52.082876 C 517.32757,55.882251 530.87072,59.84217 543.60066,65.722563 543.95997,68.845605 541.46824,72.096423 540.73745,75.19728 535.93177,87.201423 531.5335,99.498379 525.97787,111.1299 523.80573,112.7589 520.86943,110.32093 518.59456,109.88639 514.92341,108.4787 512.19704,105.42119 508.08307,104.95123 500.53028,102.60301 492.67034,101.32697 485.09767,99.122308 485.10767,95.816705 487.60699,92.352829 488.50551,89.013073 493.46925,76.721345 497.94931,64.126383 503.41993,52.102306 L 503.7308,52.063446 503.84738,52.082876 z"
       inkscape:connector-curvature="0"
       id="path1958"
       style="fill:#a6a5bc;stroke:none" />
    <path
       d="M 471.71057,42.931463 C 481.69521,45.61436 491.78905,48.318371 501.53524,51.480554 501.61354,55.222526 499.07461,58.881024 498.0978,62.531352 493.3627,74.646115 488.69803,86.853215 483.32956,98.675424 477.16784,98.573164 470.73343,97.048791 464.40498,96.926746 461.55905,95.277466 463.37055,90.98162 463.20034,88.358225 464.94692,73.2091 467.04206,58.102087 468.93212,42.970322 469.63043,42.056957 470.80659,42.973522 471.71057,42.931462 z"
       inkscape:connector-curvature="0"
       id="path1960"
       style="fill:#abd9cd;stroke:none" />
    <path
       d="M 435.39636,37.840867 C 446.201,39.188248 457.29502,39.779053 467.9412,42.30971 468.22095,47.882054 466.61354,53.796727 466.18992,59.480403 464.4512,71.62234 463.29237,84.007173 461.27679,96.013548 454.87456,96.660676 448.08012,95.515821 441.74989,94.167721 438.86879,93.190987 435.99049,91.648539 433.80312,89.601729 434.05078,72.700121 433.28392,55.734397 434.25001,38.870644 434.35541,38.335968 434.74673,37.669924 435.39636,37.840867 z"
       inkscape:connector-curvature="0"
       id="path1962"
       style="fill:#a36ed8;stroke:none" />
    <path
       d="M 433.56997,38.132314 C 433.56997,55.023246 433.56997,71.914177 433.56997,88.805109 430.09676,89.854334 425.67843,88.443385 421.98983,89.815456 419.93266,90.69393 417.43636,91.473763 416.19977,88.921688 404.11322,75.865753 391.9108,62.739656 380.68218,48.954686 381.81991,46.168334 385.47188,44.832897 387.75461,42.970322 395.45276,38.162367 405.00373,39.665971 413.65447,38.42376 420.20696,38.28994 427.23337,36.939329 433.50444,38.066785 L 433.56994,38.132315 z"
       inkscape:connector-curvature="0"
       id="path1964"
       style="fill:#cce198;stroke:none" />
    <path
       d="M 379.90499,50.275909 C 392.45136,63.586699 404.426,77.499284 416.64665,91.13668 415.03776,93.675847 411.14271,94.787328 409.20505,97.490209 406.72107,99.789414 404.91524,102.75819 402.85153,105.35926 392.41973,105.65419 381.83128,105.53468 371.4919,106.33075 369.40575,104.03069 370.94372,100.04717 370.42327,97.179333 370.95229,84.818547 369.77165,72.203036 372.26909,60.029645 373.58804,56.193689 376.2305,52.292071 379.61354,50.17876 L 379.90499,50.27591 z"
       inkscape:connector-curvature="0"
       id="path1966"
       style="fill:#6d70b9;stroke:none" />
    <path
       d="M 400.38395,106.13645 C 403.08331,106.07655 400.51037,109.05556 399.50961,109.69209 392.4925,117.16243 381.77318,118.52853 372.34681,121.07793 369.89804,120.88123 371.14443,116.8357 370.55928,115.22957 371.26631,112.54444 368.26331,106.26843 372.69572,106.74144 381.92399,106.52431 391.15142,106.03227 400.38395,106.13645 z"
       inkscape:connector-curvature="0"
       id="path1968"
       style="fill:#c68582;stroke:none" />
    <path
       d="M 627.4366,281.08414 C 647.75446,284.3813 667.34335,291.35501 687.6786,294.55654 690.32631,294.17873 689.6738,296.30283 688.56573,297.73425 686.24636,301.87295 684.70294,306.3545 682.52966,310.54936 681.57482,312.65474 679.02165,311.17452 677.34863,311.11987 660.47828,308.30109 643.57255,305.6785 626.72741,302.71917 625.79401,301.71657 626.77231,300.04192 626.66691,298.78582 627.12535,293.00347 626.73731,287.19295 626.47482,281.42416 626.64712,281.01802 627.07892,281.04364 627.4366,281.08414 z"
       inkscape:connector-curvature="0"
       id="path9012"
       style="fill:#9b7d71;stroke:none" />
    <path
       d="M 627.52403,261.31437 C 650.0378,266.40768 673.08807,268.76443 695.85847,272.50591 696.86502,273.39382 695.60144,275.02533 695.66417,276.16842 694.50414,280.6607 693.73267,285.27786 692.36681,289.70022 691.51242,291.27388 691.2065,293.69201 689.40779,294.47124 674.43736,292.43172 659.9433,287.90107 645.25296,284.44898 639.19622,282.80482 633.0066,281.83112 626.91199,280.45268 625.63844,279.1336 626.15233,276.88126 625.77535,275.19693 625.70215,270.64155 624.33591,265.53688 626.95085,261.44066 627.08002,261.27598 627.33645,261.23464 627.52403,261.31437 z"
       inkscape:connector-curvature="0"
       id="path9014"
       style="fill:#c1dfbe;stroke:none" />
    <path
       d="M 696.2665,237.35748 C 696.92685,240.11395 696.40526,243.14562 696.54823,245.99401 696.49629,251.85347 696.07492,257.76517 697.10198,263.55851 697.16744,266.24517 697.19383,269.02083 696.62595,271.64128 695.18089,272.58937 693.26462,271.35054 691.67172,271.43831 670.47805,268.24661 649.09833,265.83372 628.19436,261.09093 626.31439,260.70982 627.61814,258.66979 627.63089,257.42842 628.42126,252.85026 628.33849,248.18937 628.57324,243.56529 629.92316,242.50071 632.25169,243.09881 633.97468,242.6789 654.62222,240.85967 675.26609,238.98922 695.91676,237.21176 L 696.20373,237.33133 696.2665,237.35753 z"
       inkscape:connector-curvature="0"
       id="path9016"
       style="fill:#768e99;stroke:none" />
    <path
       d="M 634.01357,324.29591 C 646.36,327.83567 658.74573,331.37585 671.06611,335.04057 671.90153,336.15554 670.39761,337.60798 670.12376,338.73222 665.33341,347.772 661.71609,357.34594 658.60024,367.07768 656.62523,373.46239 654.13024,379.64252 651.1409,385.61622 649.10138,390.76878 646.02923,395.31362 643.55478,400.25443 641.084,404.58348 639.68588,409.47033 636.79581,413.5729 634.07396,417.06776 630.90706,420.28453 628.17493,423.73739 626.14711,425.5942 625.01801,428.45879 622.77346,430.0132 620.96878,428.60129 620.09499,426.13453 618.65435,424.33 611.67143,413.62208 604.81832,402.76375 597.83537,392.09604 598.31471,389.53543 600.19071,387.42579 601.46873,385.19848 606.32653,379.35796 606.91779,371.27484 611.28559,365.13927 614.40694,360.20353 619.03267,356.52634 622.20202,351.61797 625.11194,347.94377 628.4798,344.59726 630.74937,340.50033 632.1218,335.82791 633.17814,330.87596 633.22666,325.94744 633.11266,325.34453 632.99042,324.04051 634.01357,324.29591 z"
       inkscape:connector-curvature="0"
       id="path9020"
       style="fill:#d5be93;stroke:none" />
    <path
       d="M 635.46833,121.21682 C 649.48925,132.60467 661.90908,145.84187 672.28428,160.63708 673.24526,162.33332 677.50961,165.78427 673.71642,166.72171 653.43422,175.23615 632.92259,183.33179 612.25071,190.78699 609.26289,188.47765 608.46756,184.06632 605.8987,181.22921 601.29525,174.33763 595.9627,167.96506 590.56301,161.63575 593.33372,157.51018 598.26486,154.41443 601.84201,150.67327 612.91325,140.82098 623.5291,130.28505 635.15821,121.15479 L 635.22021,121.15479 635.4683,121.21679 z"
       inkscape:connector-curvature="0"
       id="path3027"
       style="fill:#ada5be;stroke:none" />
    <path
       d="M 675.90794,167.52802 C 679.53071,170.32202 680.35918,175.50824 682.69723,179.33458 687.23874,188.9491 690.941,199.19256 692.90249,209.60092 686.3568,211.90583 678.93025,212.56632 672.06245,214.21136 656.49852,217.13005 640.90176,220.56803 625.33776,223.06011 622.57672,218.77744 621.40721,213.41577 619.24464,208.71535 617.25541,203.22861 614.80319,197.85201 612.31273,192.48231 615.71123,189.72997 621.03061,188.91741 625.13699,186.87603 641.99322,180.45645 658.6728,173.34087 675.70119,167.50734 L 675.80456,167.50734 675.90794,167.52804 z"
       inkscape:connector-curvature="0"
       id="path3029"
       style="fill:#dcbf8c;stroke:none" />
  </g>
</svg>
