<?xml version="1.0" encoding="UTF-8" standalone="no"?>
<!-- Created with Inkscape (http://www.inkscape.org/) -->

<svg
   xmlns:dc="http://purl.org/dc/elements/1.1/"
   xmlns:cc="http://creativecommons.org/ns#"
   xmlns:rdf="http://www.w3.org/1999/02/22-rdf-syntax-ns#"
   xmlns:svg="http://www.w3.org/2000/svg"
   xmlns="http://www.w3.org/2000/svg"
   xmlns:xlink="http://www.w3.org/1999/xlink"
   xmlns:inkscape="http://www.inkscape.org/namespaces/inkscape"
   version="1.1"
   width="740"
   height="520"
   id="svg2"
   style="display:inline;enable-background:new">
  <defs
     id="defs4">
    <filter
       color-interpolation-filters="sRGB"
       id="filter3050">
      <feBlend
         in2="BackgroundImage"
         mode="lighten"
         id="feBlend3052" />
    </filter>
  </defs>
  <metadata
     id="metadata7">
    <rdf:RDF>
      <cc:Work
         rdf:about="">
        <dc:format>image/svg+xml</dc:format>
        <dc:type
           rdf:resource="http://purl.org/dc/dcmitype/StillImage" />
        <dc:title />
      </cc:Work>
    </rdf:RDF>
  </metadata>
  <g
     id="g3452"
     style="display:none">
    <image
       xlink:href="pngs/coronal-0581.png"
       id="image3454"
       height="520"
       width="740"
       y="0"
       x="0" />
  </g>
  <g
     id="g3460"
     style="display:inline">
    <path
       d="M 566.16695,204.26956 C 556.56335,195.5384 550.43102,187.016 541.16764,182.23133 518.11917,170.62143 493.75075,161.92044 468.85067,155.26844 454.25277,151.03847 438.89281,144.20331 424.18342,143.46189 416.01695,161.36747 397.45376,166.15546 380.4422,170.0982 362.48959,167.56996 369.06363,143.04084 367.01492,129.89287 372.52314,112.42447 362.14284,89.666836 372.54451,76.069005 386.15441,56.494516 412.77419,58.659902 433.60817,61.450736 469.33747,62.930331 504.8344,70.204531 537.88468,83.977798 563.19358,93.127085 587.69581,105.06659 610.05381,120.2134 621.62819,131.92431 635.4191,142.686 640.76087,158.97708 649.04857,176.32659 659.40695,193.07029 665.1472,211.51937 668.28267,229.78134 673.95542,247.76648 672.84125,266.59853 674.96793,286.11496 665.93119,304.26015 655.75666,320.04621 645.76994,333.41001 637.21315,347.7458 626.21937,360.20971 616.4255,378.35091 602.55691,393.75674 590.7795,410.57163 583.5414,422.49256 568.83755,425.01403 556.04357,432.20713 545.85959,436.07927 537.70317,435.2479 533.94992,425.08916 521.40219,430.49292 513.15971,447.53951 495.29647,441.69085 477.28645,442.87407 469.27373,425.68724 455.04745,419.14826 440.83311,414.76302 425.95563,414.94181 411.35005,415.4081 398.42436,415.3576 377.04826,409.01912 371.57739,401.73546"
       inkscape:connector-curvature="0"
       id="path3462"
       style="fill:none;stroke:#e20000;stroke-opacity:1" />
    <path
       d="M 565.02124,202.57622 C 566.6355,205.74413 575.66387,214.81766 579.13177,221.15775 584.66242,228.30355 588.1042,236.72265 592.3841,244.62657 597.15628,253.81542 601.31393,264.72022 599.28505,275.13896 596.80851,268.43951 593.82558,261.1384 591.83959,254.0147 586.03523,242.95617 581.46942,231.02758 573.08016,221.53352 566.56461,212.70542 559.85119,203.88416 550.89209,197.51059 540.37052,189.12084 528.2059,183.11072 516.06961,177.33028 501.34156,171.22575 485.25764,170.23803 469.64189,167.92696 458.07376,164.42374 445.61484,158.76106 433.50545,163.51304 420.9386,167.07788 409.23876,173.42696 396.20764,175.51005 387.96308,177.8878 377.87402,177.70972 372.0748,184.9136 373.53127,191.19136 377.72129,198.96311 382.98755,203.83907 392.82294,209.90502 403.47568,214.52291 414.74978,217.27193 417.57209,217.04129 422.17486,218.95483 423.89516,218.84309"
       inkscape:connector-curvature="0"
       id="path3464"
       style="opacity:0.6;fill:none;stroke:#e20000;stroke-opacity:1" />
    <path
       d="M 506.98809,341.94373 C 506.80337,342.8523 509.5981,342.14962 510.0656,342.38337 510.25097,342.47607 510.31988,342.73033 510.50525,342.82302 511.09144,343.11611 512.11728,342.52992 512.70347,342.82302 512.88884,342.91572 512.95775,343.16998 513.14312,343.26266 513.27419,343.32816 513.45169,343.19716 513.58276,343.26266 513.76813,343.35536 513.83704,343.60962 514.02241,343.70231 514.15348,343.76781 514.33098,343.63681 514.46205,343.70231 514.64742,343.79501 514.71633,344.04927 514.9017,344.14195 515.03277,344.20745 515.23772,344.03833 515.34134,344.14195 515.44497,344.24558 515.23772,344.47797 515.34134,344.5816 515.54859,344.78885 515.95848,344.45052 516.22063,344.5816 516.406,344.6743 516.47491,344.92856 516.66028,345.02124 516.92243,345.15232 517.33232,344.81399 517.53957,345.02124 517.64319,345.12487 517.43594,345.35726 517.53957,345.46089 517.74682,345.66814 518.21161,345.25364 518.41886,345.46089 518.52248,345.56451 518.31523,345.79691 518.41886,345.90053 518.62209,346.10376 519.47235,345.76781 519.73779,345.90053 519.92316,345.99323 519.99207,346.24749 520.17744,346.34018 520.30852,346.40568 520.48601,346.27468 520.61708,346.34018 520.80245,346.43288 520.87136,346.68714 521.05673,346.77982 521.18781,346.84532 521.3653,346.71432 521.49637,346.77982 522.0085,347.03589 522.30318,347.40305 522.81531,347.65911 523.07746,347.79019 523.48735,347.45186 523.6946,347.65911 523.79823,347.76274 523.59097,347.99513 523.6946,348.09876 523.90185,348.30601 524.31174,347.96768 524.57389,348.09876 525.08602,348.35482 525.38069,348.72198 525.89283,348.97805 526.0239,349.04355 526.20139,348.91255 526.33247,348.97805 526.8446,349.23411 527.13928,349.60127 527.65141,349.85734 527.78248,349.92284 527.95997,349.79184 528.09105,349.85734 528.27642,349.95004 528.34533,350.2043 528.5307,350.29698 528.79285,350.42806 529.14783,350.16591 529.40999,350.29698 529.59536,350.38968 529.66426,350.64394 529.84963,350.73663 529.98071,350.80213 530.1582,350.67113 530.28928,350.73663 530.47465,350.82933 530.54355,351.08359 530.72892,351.17627 530.86,351.24177 531.03749,351.11077 531.16857,351.17627 531.35394,351.26897 531.42284,351.52323 531.60821,351.61592 531.73929,351.68142 531.91678,351.55042 532.04786,351.61592 532.23323,351.70862 532.30213,351.96288 532.4875,352.05556 532.74966,352.18664 533.15954,351.84831 533.36679,352.05556 533.47042,352.15919 533.26317,352.39158 533.36679,352.49521 533.47042,352.59883 533.67536,352.42971 533.80644,352.49521 533.99181,352.58791 534.06071,352.84217 534.24608,352.93485 534.37716,353.00035 534.53918,352.93485 534.68573,352.93485 534.83228,353.0814 534.94,353.28181 535.12537,353.3745 535.25645,353.44 535.46139,353.27087 535.56502,353.3745 535.66864,353.47812 535.46139,353.71052 535.56502,353.81414 535.66864,353.91777 535.87359,353.74864 536.00466,353.81414 536.19003,353.90684 536.25894,354.1611 536.44431,354.25379 536.57539,354.31929 536.78033,354.15016 536.88395,354.25379 536.98758,354.35741 536.78033,354.58981 536.88395,354.69343 536.98758,354.79706 537.19252,354.62793 537.3236,354.69343 537.69434,354.8788 538.01752,355.20198 538.20289,355.57272 538.26839,355.7038 538.09926,355.90874 538.20289,356.01237 538.30651,356.11599 538.53891,355.90874 538.64253,356.01237 538.74616,356.11599 538.53891,356.34839 538.64253,356.45201 538.74616,356.55564 538.97855,356.34839 539.08218,356.45201 539.1858,356.55564 539.01668,356.76058 539.08218,356.89166 539.17488,357.07703 539.42914,357.14593 539.52182,357.3313 539.6529,357.59346 539.31457,358.00334 539.52182,358.2106 539.62545,358.31422 539.85784,358.10697 539.96147,358.2106 540.06509,358.31422 539.96147,358.50369 539.96147,358.65024 539.96147,358.79679 540.06509,358.98626 539.96147,359.08989 539.85784,359.19351 539.62545,358.98626 539.52182,359.08989 539.31457,359.29714 539.6529,359.70702 539.52182,359.96918 539.33645,360.33992 538.8279,360.47772 538.64253,360.84847 538.57703,360.97954 538.74616,361.18449 538.64253,361.28811 538.43528,361.49536 537.97049,361.08086 537.76324,361.28811 537.65962,361.39174 537.86687,361.62413 537.76324,361.72776 537.56001,361.93099 536.70975,361.59503 536.44431,361.72776 536.25894,361.82046 536.19003,362.07472 536.00466,362.1674 535.86319,362.2381 530.43075,362.2381 530.28928,362.1674 530.10391,362.0747 530.035,361.82044 529.84963,361.72776 529.22111,361.4135 524.38605,361.97957 524.13424,361.72776 524.03062,361.62413 524.23787,361.39174 524.13424,361.28811 523.85537,361.00924 522.74171,361.47113 522.37566,361.28811 522.19029,361.19541 522.12139,360.94115 521.93602,360.84847 521.67057,360.71574 520.82032,361.0517 520.61708,360.84847 520.51346,360.74484 520.72071,360.51245 520.61708,360.40882 520.41385,360.20559 519.56359,360.54154 519.29815,360.40882 518.78602,360.15276 518.49134,359.7856 517.97921,359.52953 517.84814,359.46403 517.64319,359.63316 517.53957,359.52953 517.43594,359.42591 517.64319,359.19351 517.53957,359.08989 517.33232,358.88263 516.86753,359.29714 516.66028,359.08989 516.55665,358.98626 516.7639,358.75387 516.66028,358.65024 516.45303,358.44299 515.98824,358.85749 515.78099,358.65024 515.67736,358.54661 515.88461,358.31422 515.78099,358.2106 515.67736,358.10697 515.47242,358.2761 515.34134,358.2106 514.9706,358.02522 514.83279,357.51668 514.46205,357.3313 514.1999,357.20023 513.79001,357.53856 513.58276,357.3313 513.47914,357.22768 513.68639,356.99529 513.58276,356.89166 513.47914,356.78803 513.27419,356.95716 513.14312,356.89166 512.77238,356.70629 512.63457,356.19774 512.26383,356.01237 512.13275,355.94687 511.97073,356.01237 511.82418,356.01237 511.67763,355.86582 511.56991,355.66541 511.38454,355.57272 511.25346,355.50722 511.04852,355.67635 510.94489,355.57272 510.84127,355.4691 511.04852,355.2367 510.94489,355.13308 510.84127,355.02945 510.63632,355.19858 510.50525,355.13308 509.99312,354.87701 509.69844,354.50985 509.18631,354.25379 509.05523,354.18829 508.85029,354.35741 508.74667,354.25379 508.64304,354.15016 508.85029,353.91777 508.74667,353.81414 508.64304,353.71052 508.45357,353.81414 508.30702,353.81414 508.30702,353.6676 508.41065,353.47812 508.30702,353.3745 508.2034,353.27087 507.99845,353.44 507.86738,353.3745 507.682,353.2818 507.6131,353.02754 507.42773,352.93485 507.29665,352.86935 507.09171,353.03848 506.98809,352.93485 506.88446,352.83123 507.09171,352.59883 506.98809,352.49521 506.88446,352.39158 506.67952,352.56071 506.54844,352.49521 506.1777,352.30984 506.03989,351.80129 505.66915,351.61592 505.53807,351.55042 505.33313,351.71954 505.2295,351.61592 505.12588,351.51229 505.33313,351.2799 505.2295,351.17627 505.12588,351.07265 504.89348,351.2799 504.78986,351.17627 504.68623,351.07265 504.85536,350.8677 504.78986,350.73663 504.64331,350.44353 503.76402,349.56424 503.47092,349.41769 503.33985,349.35219 503.1349,349.52132 503.03128,349.41769 502.92765,349.31407 503.09678,349.10912 503.03128,348.97805 502.84591,348.60731 502.33736,348.4695 502.15199,348.09876 502.08649,347.96768 502.25561,347.76274 502.15199,347.65911 502.04836,347.55549 501.81597,347.76274 501.71234,347.65911 501.50509,347.45186 501.91959,346.98707 501.71234,346.77982 501.12615,346.19363 501.2727,347.51256 501.2727,346.34018 501.2727,346.04708 501.47995,345.66814 501.2727,345.46089 501.0773,345.26549 500.44226,345.80283 500.83305,345.02124 500.92575,344.83587 501.18001,344.76697 501.2727,344.5816 501.3382,344.45052 501.16907,344.24558 501.2727,344.14195 501.37632,344.03833 501.60872,344.24558 501.71234,344.14195 501.81597,344.03833 501.60872,343.80593 501.71234,343.70231 501.91959,343.49506 502.38438,343.90956 502.59163,343.70231 502.69526,343.59868 502.48801,343.36629 502.59163,343.26266 502.79888,343.05541 503.26367,343.46991 503.47092,343.26266 503.57455,343.15904 503.3673,342.92664 503.47092,342.82302 503.67817,342.61577 504.14296,343.03027 504.35021,342.82302 504.45384,342.71939 504.24659,342.487 504.35021,342.38337 504.45384,342.27975 504.64531,342.40747 504.78986,342.38337 505.52695,342.26052 506.25534,342.09027 506.98809,341.94373 z"
       inkscape:connector-curvature="0"
       id="path3466"
       style="opacity:0.6;fill:none;stroke:#e20000;stroke-opacity:1" />
    <path
       d="M 598.87392,275.55731 C 599.10422,276.34125 599.70828,280.92291 599.31356,281.71234 599.22086,281.89771 598.93945,281.95537 598.87392,282.15199 598.74455,282.54008 598.87392,283.4487 598.87392,283.91057 598.87392,284.41859 599.08324,287.00907 598.87392,287.42773 598.78122,287.6131 598.52696,287.682 598.43427,287.86738 598.25841,288.21909 598.61013,288.83459 598.43427,289.18631 597.78737,290.4801 597.99463,288.50386 597.99463,290.50525 597.99463,291.34996 597.69835,293.8695 597.99463,294.46205 598.08733,294.64742 598.34159,294.71633 598.43427,294.9017 598.53573,295.10461 598.53573,296.45736 598.43427,296.66028 598.34157,296.84565 598.08731,296.91455 597.99463,297.09992 597.81877,297.45164 598.17048,298.06714 597.99463,298.41886 597.90193,298.60423 597.64767,298.67313 597.55498,298.8585 597.33612,299.29622 597.78246,301.70854 597.55498,301.93602 597.45136,302.03964 597.21896,301.83239 597.11534,301.93602 596.76443,302.28693 597.34596,303.673 597.11534,304.13424 597.02264,304.31962 596.76838,304.38852 596.67569,304.57389 596.49983,304.92561 596.85155,305.54111 596.67569,305.89283 596.58299,306.0782 596.32873,306.1471 596.23605,306.33247 596.02507,306.75442 596.37678,307.66884 596.23605,308.09105 596.17055,308.28767 595.88909,308.34533 595.7964,308.5307 595.62054,308.88241 595.97226,309.49792 595.7964,309.84963 595.7037,310.035 595.44944,310.10391 595.35675,310.28928 595.1809,310.64099 595.53261,311.2565 595.35675,311.60821 595.26405,311.79358 595.0098,311.86249 594.91711,312.04786 594.68263,312.51681 595.15159,313.33748 594.91711,313.80644 594.82441,313.99181 594.543,314.04947 594.47746,314.24608 594.33673,314.66829 594.68844,315.58271 594.47746,316.00466 594.38476,316.19003 594.1305,316.25894 594.03782,316.44431 593.86196,316.79602 594.21368,317.41153 594.03782,317.76324 593.78175,318.27537 593.41459,318.57005 593.15853,319.08218 593.02745,319.34433 593.28961,319.69932 593.15853,319.96147 593.06583,320.14684 592.81157,320.21574 592.71888,320.40111 592.58781,320.66327 592.84996,321.01825 592.71888,321.2804 592.62618,321.46578 592.37192,321.53468 592.27924,321.72005 592.21374,321.85113 592.34474,322.02862 592.27924,322.1597 590.82112,323.61781 592.48649,321.74519 591.83959,323.03899 591.65422,323.40973 591.14567,323.54753 590.9603,323.91828 590.8948,324.04935 591.0258,324.22684 590.9603,324.35792 590.8676,324.54329 590.61334,324.6122 590.52066,324.79757 590.45516,324.92864 590.58616,325.10613 590.52066,325.23721 590.26459,325.74934 589.89743,326.04402 589.64137,326.55615 589.57587,326.68722 589.70687,326.86471 589.64137,326.99579 589.54867,327.18116 589.29441,327.25007 589.20172,327.43544 589.13622,327.56651 589.30535,327.77146 589.20172,327.87508 589.0981,327.97871 588.8657,327.77146 588.76208,327.87508 588.65845,327.97871 588.82758,328.18365 588.76208,328.31473 588.50601,328.82686 588.13885,329.12153 587.88279,329.63366 587.81729,329.76474 587.94829,329.94223 587.88279,330.07331 587.619,330.60088 586.82764,330.86467 586.56385,331.39224 586.49835,331.52332 586.62935,331.70081 586.56385,331.83189 585.10573,333.29001 586.7711,331.41739 586.12421,332.71118 585.93884,333.08192 585.43029,333.21973 585.24492,333.59047 585.17942,333.72155 585.34854,333.92649 585.24492,334.03011 585.14129,334.13374 584.9089,333.92649 584.80527,334.03011 584.70165,334.13374 584.87077,334.33868 584.80527,334.46976 584.71257,334.65513 584.45831,334.72403 584.36563,334.9094 584.30013,335.04048 584.46925,335.24542 584.36563,335.34905 584.262,335.45267 584.02961,335.24542 583.92598,335.34905 583.71873,335.5563 584.05706,335.96619 583.92598,336.22834 583.83328,336.41371 583.57902,336.48261 583.48634,336.66798 583.42084,336.79906 583.55184,336.97655 583.48634,337.10763 583.30097,337.47837 582.79242,337.61618 582.60705,337.98692 582.54155,338.118 582.67255,338.29549 582.60705,338.42656 582.42168,338.79731 581.91313,338.93511 581.72776,339.30585 581.66226,339.43693 581.72776,339.59895 581.72776,339.7455 581.58121,339.89205 581.3808,339.99977 581.28811,340.18515 581.22261,340.31622 581.35361,340.49371 581.28811,340.62479 581.02432,341.15236 580.23296,341.41615 579.96918,341.94373 579.90368,342.0748 580.0728,342.27975 579.96918,342.38337 579.86555,342.487 579.63316,342.27975 579.52953,342.38337 579.32228,342.59062 579.73678,343.05541 579.52953,343.26266 579.42591,343.36629 579.19351,343.15904 579.08989,343.26266 578.98626,343.36629 579.19351,343.59868 579.08989,343.70231 578.98626,343.80593 578.75387,343.59868 578.65024,343.70231 578.44299,343.90956 578.85749,344.37435 578.65024,344.5816 578.54661,344.68522 578.31422,344.47797 578.2106,344.5816 578.10697,344.68522 578.31422,344.91762 578.2106,345.02124 578.10697,345.12487 577.87458,344.91762 577.77095,345.02124 577.66732,345.12487 577.83645,345.32981 577.77095,345.46089 577.67825,345.64626 577.42399,345.71516 577.3313,345.90053 577.2658,346.03161 577.43493,346.23655 577.3313,346.34018 577.22768,346.4438 576.99529,346.23655 576.89166,346.34018 576.78803,346.4438 576.95716,346.64875 576.89166,346.77982 576.79896,346.96519 576.5447,347.0341 576.45201,347.21947 576.38651,347.35054 576.51751,347.52804 576.45201,347.65911 576.26664,348.02985 575.75809,348.16766 575.57272,348.5384 575.50722,348.66948 575.67635,348.87442 575.57272,348.97805 575.4691,349.08167 575.2367,348.87442 575.13308,348.97805 575.02945,349.08167 575.19858,349.28662 575.13308,349.41769 574.86929,349.94527 574.07793,350.20905 573.81414,350.73663 573.74864,350.8677 573.91777,351.07265 573.81414,351.17627 573.71052,351.2799 573.50558,351.11077 573.3745,351.17627 573.00376,351.36164 572.86595,351.87019 572.49521,352.05556 572.36413,352.12106 572.18664,351.99006 572.05556,352.05556 570.22587,352.97041 572.52556,352.02526 571.61592,352.93485 571.51229,353.03848 571.30735,352.86935 571.17627,352.93485 570.80553,353.12022 570.66772,353.62877 570.29698,353.81414 570.16591,353.87964 569.98841,353.74864 569.85734,353.81414 569.4866,353.99951 569.34879,354.50806 568.97805,354.69343 568.84697,354.75893 568.66948,354.62793 568.5384,354.69343 568.35303,354.78613 568.28413,355.04039 568.09876,355.13308 567.96768,355.19858 567.79019,355.06758 567.65911,355.13308 567.28837,355.31845 567.17305,355.88129 566.77982,356.01237 566.50177,356.10507 566.17859,355.91967 565.90053,356.01237 565.70392,356.07787 565.64626,356.35933 565.46089,356.45201 565.32981,356.51751 565.15232,356.38651 565.02124,356.45201 563.56312,357.91013 565.43574,356.24476 564.14195,356.89166 563.95658,356.98436 563.89892,357.26577 563.70231,357.3313 563.42425,357.424 563.10107,357.2386 562.82302,357.3313 562.63267,357.3947 561.7115,358.10688 561.50408,358.2106 561.373,358.2761 561.19551,358.1451 561.06444,358.2106 560.5523,358.46666 560.25763,358.83382 559.7455,359.08989 559.61442,359.15539 559.43693,359.02439 559.30585,359.08989 559.12048,359.18259 559.01276,359.38298 558.86621,359.52953 558.57311,359.52953 558.26498,359.43683 557.98692,359.52953 557.7903,359.59503 557.73264,359.87649 557.54727,359.96918 557.28512,360.10025 556.93014,359.8381 556.66798,359.96918 556.48261,360.06188 556.41371,360.31614 556.22834,360.40882 556.09726,360.47432 555.91977,360.34332 555.78869,360.40882 555.60332,360.50152 555.53442,360.75578 555.34905,360.84847 555.21797,360.91397 555.04048,360.78297 554.9094,360.84847 553.45128,362.30659 555.3239,360.64122 554.03011,361.28811 553.84474,361.38081 553.77584,361.63507 553.59047,361.72776 553.45939,361.79326 553.2819,361.66226 553.15082,361.72776 552.96545,361.82046 552.89655,362.07472 552.71118,362.1674 552.44573,362.30012 551.59547,361.96417 551.39224,362.1674 551.28862,362.27103 551.49587,362.50342 551.39224,362.60705 551.18499,362.8143 550.77511,362.47597 550.51295,362.60705 550.32758,362.69975 550.25868,362.95401 550.07331,363.04669 549.72159,363.22255 549.10609,362.87083 548.75437,363.04669 548.569,363.13939 548.5001,363.39365 548.31473,363.48634 548.11181,363.58779 546.75906,363.58779 546.55615,363.48634 546.37078,363.39364 546.30187,363.13938 546.1165,363.04669 545.85435,362.91561 545.49936,363.17777 545.23721,363.04669 545.05184,362.95399 544.98294,362.69973 544.79757,362.60705 544.66649,362.54155 544.489,362.67255 544.35792,362.60705 544.17255,362.51435 544.10365,362.26009 543.91828,362.1674 543.55223,361.98438 542.43857,362.44627 542.1597,362.1674 542.05607,362.06378 542.26332,361.83138 542.1597,361.72776 537.77795,361.72775 541.66977,362.14226 539.96147,361.28811 539.83039,361.22261 539.6529,361.35361 539.52182,361.28811 539.33645,361.19541 539.26755,360.94115 539.08218,360.84847 538.82003,360.71739 538.46504,360.97954 538.20289,360.84847 538.01752,360.75577 537.97049,360.40882 537.76324,360.40882 537.6167,360.40882 537.76324,360.70192 537.76324,360.84847"
       inkscape:connector-curvature="0"
       id="path3468"
       style="opacity:0.6;fill:none;stroke:#e20000;stroke-opacity:1" />
    <path
       d="M 403.23184,285.2295 C 402.79219,285.8157 401.32671,286.54844 401.9129,286.98809 402.49909,287.42773 403.74996,284.71138 403.23184,285.2295 402.56831,285.89303 402.07398,286.70686 401.47326,287.42773 401.2079,287.74616 400.77934,287.93628 400.59397,288.30702 400.52847,288.4381 400.65947,288.61559 400.59397,288.74667 400.15432,289.62596 398.83539,290.0656 398.39574,290.94489 398.33024,291.07597 398.39574,291.23799 398.39574,291.38454 398.24919,291.53108 398.04878,291.63881 397.95609,291.82418 397.89059,291.95526 398.05972,292.1602 397.95609,292.26383 397.85247,292.36745 397.62008,292.1602 397.51645,292.26383 397.41282,292.36745 397.62008,292.59985 397.51645,292.70347 397.41282,292.8071 397.18043,292.59985 397.0768,292.70347 397.0768,293.87586 397.22335,292.55692 396.63716,293.14312 396.53353,293.24674 396.74078,293.47914 396.63716,293.58276 396.53353,293.68639 396.30114,293.47914 396.19751,293.58276 396.09389,293.68639 396.30114,293.91878 396.19751,294.02241 396.09389,294.12603 395.86149,293.91878 395.75787,294.02241 395.65424,294.12603 395.86149,294.35843 395.75787,294.46205 395.65424,294.56568 395.42185,294.35843 395.31822,294.46205 395.2146,294.56568 395.42185,294.79807 395.31822,294.9017 395.2146,295.00532 394.9822,294.79807 394.87858,294.9017 394.77495,295.00532 394.9822,295.23772 394.87858,295.34134 394.77495,295.44497 394.58548,295.34134 394.43893,295.34134 394.43893,295.48789 394.54256,295.67736 394.43893,295.78099 394.33531,295.88461 394.10291,295.67736 393.99929,295.78099 393.89566,295.88461 394.10291,296.11701 393.99929,296.22063 393.89566,296.32426 393.66327,296.11701 393.55964,296.22063 393.45602,296.32426 393.66327,296.55665 393.55964,296.66028 393.45602,296.7639 393.22362,296.55665 393.12,296.66028 393.01637,296.7639 393.22362,296.9963 393.12,297.09992 393.01637,297.20355 392.78398,296.9963 392.68035,297.09992 392.57673,297.20355 392.78398,297.43594 392.68035,297.53957 392.57673,297.64319 392.34433,297.43594 392.24071,297.53957 392.13708,297.64319 392.30621,297.84814 392.24071,297.97921 391.92978,298.60108 391.67235,298.23664 391.36142,298.8585 391.29592,298.98958 391.46504,299.19452 391.36142,299.29815 391.25779,299.40177 391.0254,299.19452 390.92177,299.29815 390.81815,299.40177 391.0254,299.63417 390.92177,299.73779 390.81815,299.84142 390.58575,299.63417 390.48213,299.73779 390.3785,299.84142 390.54763,300.04636 390.48213,300.17744 390.38943,300.36281 390.13517,300.43171 390.04248,300.61708 389.97698,300.74816 390.10798,300.92565 390.04248,301.05673 388.58436,302.51485 390.24973,300.64223 389.60284,301.93602 389.51014,302.12139 389.25588,302.19029 389.16319,302.37566 389.03212,302.63782 389.37044,303.0477 389.16319,303.25495 389.05957,303.35858 388.82717,303.15133 388.72355,303.25495 388.50372,303.47478 388.94337,304.35407 388.72355,304.57389 388.61992,304.67752 388.38753,304.47026 388.2839,304.57389 388.06408,304.79371 388.50372,305.673 388.2839,305.89283 388.18028,305.99645 387.94788,305.7892 387.84426,305.89283 387.74063,305.99645 387.90976,306.20139 387.84426,306.33247 387.75156,306.51784 387.4973,306.58675 387.40461,306.77212 387.27354,307.03427 387.61186,307.44416 387.40461,307.65141 387.30099,307.75503 387.06859,307.54778 386.96497,307.65141 386.76173,307.85464 387.09769,308.7049 386.96497,308.97034 386.87227,309.15571 386.61801,309.22462 386.52532,309.40999 386.39424,309.67214 386.6564,310.02712 386.52532,310.28928 386.43262,310.47465 386.17836,310.54355 386.08568,310.72892 386.01498,310.87039 386.01498,316.30284 386.08568,316.44431 386.34174,316.95644 386.7089,317.25111 386.96497,317.76324 387.03047,317.89432 386.89947,318.07181 386.96497,318.20289 387.05767,318.38826 387.31193,318.45716 387.40461,318.64253 387.47011,318.77361 387.30099,318.97855 387.40461,319.08218 387.50824,319.1858 387.74063,318.97855 387.84426,319.08218 387.94788,319.1858 387.74063,319.4182 387.84426,319.52182 388.06408,319.74165 388.94337,319.302 389.16319,319.52182 389.26682,319.62545 389.05957,319.85784 389.16319,319.96147 389.26682,320.06509 389.47176,319.89597 389.60284,319.96147 389.78821,320.05417 389.85711,320.30843 390.04248,320.40111 390.30793,320.53384 391.15819,320.19788 391.36142,320.40111 391.46504,320.50474 391.25779,320.73713 391.36142,320.84076 391.65451,321.13386 392.8269,320.54766 393.12,320.84076 393.22362,320.94438 393.01637,321.17678 393.12,321.2804 393.23638,321.39678 394.2579,321.2804 394.43893,321.2804 394.70722,321.2804 396.02621,321.45171 396.19751,321.2804 396.30114,321.17678 396.09389,320.94438 396.19751,320.84076 396.40477,320.63351 396.86955,321.04801 397.0768,320.84076 397.18043,320.73713 396.97318,320.50474 397.0768,320.40111 397.28406,320.19386 397.663,320.40111 397.95609,320.40111 399.12848,320.40111 397.80955,320.54766 398.39574,319.96147 398.60299,319.75422 399.06778,320.16872 399.27503,319.96147 399.37866,319.85784 399.1714,319.62545 399.27503,319.52182 399.48228,319.31457 399.94707,319.72907 400.15432,319.52182 400.74051,318.93563 399.42158,319.08218 400.59397,319.08218 401.76635,319.08218 400.44742,319.22873 401.03361,318.64253 401.24086,318.43528 401.70565,318.84978 401.9129,318.64253 402.01653,318.53891 401.80928,318.30651 401.9129,318.20289 402.01653,318.09926 402.206,318.20289 402.35255,318.20289 402.35255,318.05634 402.24892,317.86687 402.35255,317.76324 402.45617,317.65962 402.68857,317.86687 402.79219,317.76324 402.89582,317.65962 402.68857,317.42722 402.79219,317.3236 402.89582,317.21997 403.12821,317.42722 403.23184,317.3236 403.33546,317.21997 403.12821,316.98758 403.23184,316.88395 403.33546,316.78033 403.5404,316.94945 403.67148,316.88395 405.50118,315.9691 403.20149,316.91425 404.11113,316.00466 404.21475,315.90104 404.44715,316.10829 404.55077,316.00466 404.75802,315.79741 404.41969,315.38753 404.55077,315.12537 404.64347,314.94 404.89773,314.8711 404.99042,314.68573 405.17564,314.31528 404.79982,312.23846 404.99042,312.04786 405.09404,311.94423 405.32644,312.15148 405.43006,312.04786 405.70893,311.76898 405.24704,310.65532 405.43006,310.28928 405.52276,310.10391 405.77702,310.035 405.86971,309.84963 406.00029,309.58846 406.00029,307.91258 405.86971,307.65141 405.77701,307.46604 405.52275,307.39713 405.43006,307.21176 405.38496,307.12156 405.36806,305.95483 405.43006,305.89283 405.53369,305.7892 405.76608,305.99645 405.86971,305.89283 406.16949,305.59305 405.58423,302.50697 405.86971,301.93602 405.96241,301.75065 406.21667,301.68174 406.30935,301.49637 406.44208,301.23093 406.10612,300.38067 406.30935,300.17744 406.41298,300.07381 406.64537,300.28106 406.749,300.17744 406.96882,299.95762 406.52917,299.07833 406.749,298.8585 406.85262,298.75488 407.08502,298.96213 407.18864,298.8585 407.39589,298.65125 406.98139,298.18646 407.18864,297.97921 407.29227,297.87559 407.52466,298.08284 407.62829,297.97921 407.73191,297.87559 407.56279,297.67065 407.62829,297.53957 407.72099,297.3542 407.97525,297.28529 408.06793,297.09992 408.19901,296.83777 407.86068,296.42788 408.06793,296.22063 408.17156,296.11701 408.40395,296.32426 408.50758,296.22063 408.71483,296.01338 408.30033,295.54859 408.50758,295.34134 408.6112,295.23772 408.8436,295.44497 408.94722,295.34134 409.05085,295.23772 408.8436,295.00532 408.94722,294.9017 409.05085,294.79807 409.28324,295.00532 409.38687,294.9017 409.59412,294.69445 409.17962,294.22966 409.38687,294.02241 409.49049,293.91878 409.72289,294.12603 409.82651,294.02241 409.93014,293.91878 409.72289,293.68639 409.82651,293.58276 409.93014,293.47914 410.16253,293.68639 410.26616,293.58276 410.48598,293.36294 410.04634,292.48365 410.26616,292.26383 410.36978,292.1602 410.60218,292.36745 410.7058,292.26383 410.87711,292.09252 410.7058,290.77354 410.7058,290.50525 410.7058,289.33286 410.55926,290.65179 411.14545,290.0656 411.26183,289.94922 411.14545,288.9277 411.14545,288.74667 411.14545,288.47838 410.97415,287.15939 411.14545,286.98809 411.24907,286.88446 411.48147,287.09171 411.58509,286.98809 411.65359,286.91959 411.65359,285.29802 411.58509,285.2295 411.48147,285.12588 411.24907,285.33313 411.14545,285.2295 410.9382,285.02225 411.3527,284.55747 411.14545,284.35021 411.04182,284.24659 410.80943,284.45384 410.7058,284.35021 410.49855,284.14296 410.91305,283.67817 410.7058,283.47092 410.60218,283.3673 410.36978,283.57455 410.26616,283.47092 410.16253,283.3673 410.36978,283.1349 410.26616,283.03128 410.16253,282.92765 409.93014,283.1349 409.82651,283.03128 409.72289,282.92765 409.93014,282.69526 409.82651,282.59163 409.72289,282.48801 409.51794,282.65713 409.38687,282.59163 409.2015,282.49893 409.13259,282.24467 408.94722,282.15199 408.54419,281.95047 406.43791,282.15199 405.86971,282.15199 405.72316,282.15199 405.53369,282.04836 405.43006,282.15199 405.32644,282.25561 405.53369,282.48801 405.43006,282.59163 405.21024,282.81146 404.33095,282.37181 404.11113,282.59163 404.0075,282.69526 404.21475,282.92765 404.11113,283.03128 403.90388,283.23853 403.28932,282.74387 403.23184,283.03128 403.08813,283.74979 403.23184,284.49676 403.23184,285.2295 z"
       inkscape:connector-curvature="0"
       id="path3470"
       style="opacity:0.6;fill:none;stroke:#e20000;stroke-opacity:1" />
    <path
       d="M 461.70464,167.40461 C 461.18069,168.51703 460.75488,169.37459 460.3857,170.48213 459.99926,171.64147 460.7896,176.70865 460.3857,177.51645 460.293,177.70182 460.03874,177.77072 459.94606,177.95609 459.7702,178.30781 460.12192,178.92331 459.94606,179.27503 459.85336,179.4604 459.5991,179.5293 459.50641,179.71468 459.15466,180.41819 459.85817,179.89045 459.50641,180.59397 459.41371,180.77934 459.15945,180.84824 459.06677,181.03361 458.89091,181.38533 459.24262,182.00083 459.06677,182.35255 458.8107,182.86468 458.44354,183.15935 458.18748,183.67148 458.0564,183.93364 458.31855,184.28862 458.18748,184.55077 458.09478,184.73614 457.84052,184.80505 457.74783,184.99042 457.61675,185.25257 457.87891,185.60755 457.74783,185.86971 457.49177,186.38184 457.12461,186.67651 456.86854,187.18864 456.80304,187.31972 456.93404,187.49721 456.86854,187.62829 456.77584,187.81366 456.52158,187.88256 456.4289,188.06793 456.3634,188.19901 456.4289,188.36103 456.4289,188.50758 456.28235,188.65413 456.08194,188.76185 455.98925,188.94722 455.92375,189.0783 456.09288,189.28324 455.98925,189.38687 455.88563,189.49049 455.65323,189.28324 455.54961,189.38687 455.44598,189.49049 455.65323,189.72289 455.54961,189.82651 455.44598,189.93014 455.21359,189.72289 455.10996,189.82651 455.00634,189.93014 455.21359,190.16253 455.10996,190.26616 455.00634,190.36978 454.80139,190.20066 454.67032,190.26616 454.48495,190.35886 454.41604,190.61312 454.23067,190.7058 454.09959,190.7713 453.89465,190.60218 453.79103,190.7058 453.6874,190.80943 453.89465,191.04182 453.79103,191.14545 453.58377,191.3527 453.17389,191.01437 452.91174,191.14545 452.72636,191.23815 452.65746,191.49241 452.47209,191.58509 452.34101,191.65059 452.13607,191.48147 452.03244,191.58509 451.92882,191.68872 452.13607,191.92111 452.03244,192.02474 451.92882,192.12836 451.72388,191.95924 451.5928,192.02474 451.40743,192.11744 451.33853,192.3717 451.15315,192.46438 450.891,192.59546 450.48112,192.25713 450.27386,192.46438 450.17024,192.56801 450.37749,192.8004 450.27386,192.90403 450.06661,193.11128 449.60182,192.69678 449.39457,192.90403 449.29095,193.00765 449.4982,193.24005 449.39457,193.34367 449.18732,193.55092 448.77744,193.2126 448.51528,193.34367 448.32991,193.43637 448.26101,193.69063 448.07564,193.78332 447.81349,193.9144 447.4036,193.57607 447.19635,193.78332 447.09272,193.88694 447.29997,194.11934 447.19635,194.22296 447.09272,194.32659 446.88778,194.15746 446.7567,194.22296 446.57133,194.31566 446.50243,194.56992 446.31706,194.66261 446.18598,194.72811 445.98104,194.55898 445.87741,194.66261 445.77379,194.76623 445.98104,194.99863 445.87741,195.10225 445.67016,195.30951 445.20537,194.895 444.99812,195.10225 444.8945,195.20588 445.06362,195.41082 444.99812,195.5419 444.81275,195.91264 444.3042,196.05045 444.11883,196.42119 444.05333,196.55227 444.22246,196.75721 444.11883,196.86084 444.01521,196.96446 443.78281,196.75721 443.67919,196.86084 443.57556,196.96446 443.74469,197.1694 443.67919,197.30048 443.58649,197.48585 443.33223,197.55475 443.23954,197.74013 443.17404,197.8712 443.34317,198.07615 443.23954,198.17977 443.13592,198.2834 442.90352,198.07615 442.7999,198.17977 442.59265,198.38702 442.93097,198.79691 442.7999,199.05906 442.61453,199.4298 442.10598,199.56761 441.92061,199.93835 441.78953,200.2005 442.12786,200.61039 441.92061,200.81764 441.81698,200.92127 441.58459,200.71402 441.48096,200.81764 441.37734,200.92127 441.54646,201.12621 441.48096,201.25729 441.38826,201.44266 441.134,201.51156 441.04132,201.69693 440.91024,201.95909 441.24857,202.36897 441.04132,202.57622 440.93769,202.67985 440.7053,202.4726 440.60167,202.57622 440.39442,202.78347 440.73275,203.19336 440.60167,203.45551 440.50897,203.64088 440.25471,203.70979 440.16203,203.89516 439.98617,204.24687 440.33788,204.86238 440.16203,205.21409 440.06933,205.39946 439.81507,205.46837 439.72238,205.65374 439.4879,206.12269 439.95686,206.94336 439.72238,207.41232 439.62968,207.59769 439.37542,207.66659 439.28274,207.85196 439.15215,208.11314 439.15215,209.78901 439.28274,210.05019 439.37544,210.23556 439.6297,210.30446 439.72238,210.48983 440.0741,211.19327 439.37067,212.42427 439.72238,213.1277 439.81508,213.31308 440.06934,213.38198 440.16203,213.56735 440.51374,214.27078 439.81031,215.50179 440.16203,216.20522 440.25473,216.39059 440.50899,216.4595 440.60167,216.64487 440.77753,216.99658 440.42581,217.61208 440.60167,217.9638 440.85774,218.47593 441.2249,218.77061 441.48096,219.28274 441.54646,219.41381 441.41546,219.5913 441.48096,219.72238 441.57366,219.90775 441.82792,219.97666 441.92061,220.16203 442.05168,220.42418 441.71336,220.83407 441.92061,221.04132 442.02423,221.14494 442.25663,220.93769 442.36025,221.04132 442.5675,221.24857 442.22918,221.65845 442.36025,221.92061 442.45295,222.10598 442.70721,222.17488 442.7999,222.36025 442.8654,222.49133 442.69627,222.69627 442.7999,222.7999 442.90352,222.90352 443.13592,222.69627 443.23954,222.7999 443.44679,223.00715 443.10847,223.41703 443.23954,223.67919 443.33224,223.86456 443.5865,223.93346 443.67919,224.11883 443.74469,224.24991 443.61369,224.4274 443.67919,224.55848 443.77189,224.74385 444.02615,224.81275 444.11883,224.99812 444.24991,225.26028 443.98776,225.61526 444.11883,225.87741 444.21153,226.06278 444.46579,226.13169 444.55848,226.31706 444.7891,226.77831 444.20757,228.16438 444.55848,228.51528 444.6621,228.61891 444.8945,228.41166 444.99812,228.51528 445.2256,228.74276 444.77926,231.15508 444.99812,231.5928 445.09082,231.77817 445.34508,231.84707 445.43777,232.03244 445.59812,232.35314 445.53819,237.88621 445.43777,238.18748 445.33414,238.49835 445.10175,238.75589 444.99812,239.06677 444.82226,239.59434 445.17398,240.29777 444.99812,240.82535 444.93262,241.02196 444.65116,241.07962 444.55848,241.26499 444.324,241.73395 444.79296,242.55462 444.55848,243.02357 444.30241,243.5357 443.93525,243.83038 443.67919,244.34251 443.54811,244.60466 443.81026,244.95964 443.67919,245.2218 443.42312,245.73393 443.05596,246.0286 442.7999,246.54073 442.66717,246.80618 443.00313,247.65644 442.7999,247.85967 442.69627,247.96329 442.46388,247.75604 442.36025,247.85967 442.14043,248.07949 442.58007,248.95878 442.36025,249.1786 442.25663,249.28223 442.02423,249.07498 441.92061,249.1786 441.62751,249.4717 442.2137,250.64409 441.92061,250.93719 441.81698,251.04081 441.58459,250.83356 441.48096,250.93719 441.27773,251.14042 441.61369,251.99067 441.48096,252.25612 441.2249,252.76825 440.85774,253.06293 440.60167,253.57506 440.47059,253.83721 440.80892,254.2471 440.60167,254.45435 440.49805,254.55797 440.26565,254.35072 440.16203,254.45435 440.0584,254.55797 440.22753,254.76291 440.16203,254.89399 440.06933,255.07936 439.81507,255.14827 439.72238,255.33364 439.65688,255.46471 439.78788,255.6422 439.72238,255.77328 439.58674,256.04457 437.79545,257.83586 437.52416,257.97151 437.39308,258.03701 437.18814,257.86788 437.08451,257.97151 436.87726,258.17876 437.29176,258.64355 437.08451,258.8508 436.98089,258.95442 436.74849,258.74717 436.64487,258.8508 436.54124,258.95442 436.74849,259.18682 436.64487,259.29044 436.54124,259.39407 436.30885,259.18682 436.20522,259.29044 436.1016,259.39407 436.30885,259.62646 436.20522,259.73009 436.1016,259.83371 435.8692,259.62646 435.76558,259.73009 435.66195,259.83371 435.8692,260.06611 435.76558,260.16973 435.55832,260.37698 435.09354,259.96248 434.88629,260.16973 434.30009,260.75593 435.61903,260.60938 434.44664,260.60938 434.15354,260.60938 433.7746,260.40213 433.56735,260.60938 433.46372,260.713 433.67098,260.9454 433.56735,261.04902 433.36412,261.25226 432.51386,260.9163 432.24841,261.04902 432.06304,261.14172 431.99414,261.39598 431.80877,261.48867 431.54662,261.61974 431.19163,261.35759 430.92948,261.48867 430.74411,261.58137 430.6752,261.83563 430.48983,261.92831 430.35876,261.99381 430.15381,261.82469 430.05019,261.92831 429.94656,262.03194 430.15381,262.26433 430.05019,262.36796 429.84294,262.57521 429.37815,262.16071 429.1709,262.36796 429.06727,262.47158 429.27452,262.70398 429.1709,262.8076 428.95108,263.02743 428.07179,262.58778 427.85196,262.8076 427.74834,262.91123 427.95559,263.14362 427.85196,263.24725 427.64471,263.4545 427.17992,263.04 426.97267,263.24725 426.86905,263.35087 427.0763,263.58327 426.97267,263.68689 426.86905,263.79052 426.6641,263.62139 426.53303,263.68689 426.34766,263.77959 426.27875,264.03385 426.09338,264.12654 425.83123,264.25762 425.42134,263.91929 425.21409,264.12654 425.11047,264.23016 425.31772,264.46256 425.21409,264.56618 425.11047,264.66981 424.87807,264.46256 424.77445,264.56618 424.67082,264.66981 424.87807,264.9022 424.77445,265.00583 424.67082,265.10945 424.46588,264.94033 424.3348,265.00583 424.14943,265.09853 424.08053,265.35279 423.89516,265.44547 423.76408,265.51097 423.58659,265.37997 423.45551,265.44547 423.08477,265.63084 422.94696,266.13939 422.57622,266.32476 422.44514,266.39026 422.2402,266.22114 422.13658,266.32476 422.03295,266.42839 422.20208,266.63333 422.13658,266.76441 421.22173,268.59411 422.16688,266.29441 421.25729,267.20405 421.15366,267.30768 421.36091,267.54007 421.25729,267.6437 421.15366,267.74733 420.94872,267.5782 420.81764,267.6437 420.63227,267.7364 420.56337,267.99066 420.378,268.08334 420.24692,268.14884 420.06943,268.01784 419.93835,268.08334 419.56761,268.26872 419.4298,268.77726 419.05906,268.96264 418.92798,269.02814 418.75049,268.89714 418.61942,268.96264 418.09184,269.22642 417.82805,270.01778 417.30048,270.28157 417.1694,270.34707 416.99191,270.21607 416.86084,270.28157 416.67546,270.37427 416.60656,270.62853 416.42119,270.72122 416.29011,270.78672 416.08517,270.61759 415.98154,270.72122 415.87792,270.82484 416.08517,271.05724 415.98154,271.16086 415.77429,271.36811 415.30951,270.95361 415.10225,271.16086 414.99863,271.26449 415.20588,271.49688 415.10225,271.60051 414.99863,271.70413 414.76623,271.49688 414.66261,271.60051 414.55898,271.70413 414.76623,271.93653 414.66261,272.04015 414.55898,272.14378 414.32659,271.93653 414.22296,272.04015 414.11934,272.14378 414.32659,272.37617 414.22296,272.4798 414.11934,272.58342 413.9144,272.4143 413.78332,272.4798 413.25575,272.74358 412.99196,273.53494 412.46438,273.79873 412.33331,273.86423 412.12836,273.69511 412.02474,273.79873 412.02474,274.97112 412.17129,273.65218 411.58509,274.23838 411.48147,274.342 411.68872,274.5744 411.58509,274.67802 411.48147,274.78165 411.27653,274.61252 411.14545,274.67802 410.96008,274.77072 410.89117,275.02498 410.7058,275.11767 410.57473,275.18317 410.36978,275.01404 410.26616,275.11767 410.16253,275.22129 410.36978,275.45369 410.26616,275.55731 410.16253,275.66094 409.93014,275.45369 409.82651,275.55731 409.72289,275.66094 409.93014,275.89333 409.82651,275.99696 409.72289,276.10058 409.49049,275.89333 409.38687,275.99696 409.28324,276.10058 409.49049,276.33298 409.38687,276.4366 409.28324,276.54023 409.09377,276.4366 408.94722,276.4366 408.94722,276.58315 409.05085,276.77262 408.94722,276.87625 408.73997,277.0835 408.27518,276.669 408.06793,276.87625 408.06793,278.04863 408.21448,276.7297 407.62829,277.31589 407.52466,277.41952 407.73191,277.65191 407.62829,277.75554 407.59769,277.78614 404.448,277.75554 404.11113,277.75554 403.86029,277.75554 401.49587,277.77814 401.47326,277.75554 401.36963,277.65191 401.57688,277.41952 401.47326,277.31589 401.18016,277.0228 400.00777,277.60899 399.71468,277.31589 399.61105,277.21227 399.8183,276.97987 399.71468,276.87625 399.50742,276.669 399.09754,277.00732 398.83539,276.87625 398.65001,276.78355 398.58111,276.52929 398.39574,276.4366 398.26466,276.3711 398.08717,276.5021 397.95609,276.4366 397.58535,276.25123 397.44755,275.74268 397.0768,275.55731 396.94573,275.49181 396.76824,275.62281 396.63716,275.55731 396.45179,275.46461 396.38289,275.21035 396.19751,275.11767 396.06644,275.05217 395.88895,275.18317 395.75787,275.11767 395.38713,274.9323 395.24932,274.42375 394.87858,274.23838 394.7475,274.17288 394.57001,274.30388 394.43893,274.23838 394.06819,274.05301 393.93039,273.54446 393.55964,273.35909 393.42857,273.29359 393.25108,273.42459 393.12,273.35909 392.74926,273.17372 392.61145,272.66517 392.24071,272.4798 392.10963,272.4143 391.93214,272.5453 391.80106,272.4798 391.61569,272.3871 391.54679,272.13284 391.36142,272.04015 391.23034,271.97465 391.0254,272.14378 390.92177,272.04015 390.81815,271.93653 390.98727,271.73158 390.92177,271.60051 390.63482,271.02659 390.10764,271.22602 389.60284,270.72122 389.11189,270.23026 388.15219,269.57849 387.84426,268.96264 387.77876,268.83156 387.94788,268.62662 387.84426,268.52299 386.93462,267.61335 387.87986,269.91304 386.96497,268.08334 386.89947,267.95227 387.06859,267.74733 386.96497,267.6437 386.86134,267.54007 386.6564,267.7092 386.52532,267.6437 386.15458,267.45833 386.01677,266.94978 385.64603,266.76441 385.51495,266.69891 385.33746,266.82991 385.20639,266.76441 385.02102,266.67171 384.95211,266.41745 384.76674,266.32476 384.63566,266.25926 384.43072,266.42839 384.3271,266.32476 384.22347,266.22114 384.43072,265.98874 384.3271,265.88512 384.22347,265.78149 384.01853,265.95062 383.88745,265.88512 383.70208,265.79242 383.63318,265.53816 383.44781,265.44547 383.31673,265.37997 383.11179,265.5491 383.00816,265.44547 382.90454,265.34185 383.11179,265.10945 383.00816,265.00583 382.90454,264.9022 382.69959,265.07133 382.56852,265.00583 382.05639,264.74976 381.76171,264.3826 381.24958,264.12654 380.98743,263.99546 380.57754,264.33379 380.37029,264.12654 380.26666,264.02291 380.47392,263.79052 380.37029,263.68689 380.16389,263.48049 377.49917,263.89329 377.29277,263.68689 377.18915,263.58327 377.3964,263.35087 377.29277,263.24725 377.24877,263.20325 376.0178,263.20325 375.97384,263.24725 375.87021,263.35087 376.07746,263.58327 375.97384,263.68689 375.75402,263.90672 374.87473,263.46707 374.6549,263.68689 374.55128,263.79052 374.75853,264.02291 374.6549,264.12654 374.36181,264.41964 373.18942,263.83344 372.89632,264.12654 372.7927,264.23016 372.99995,264.46256 372.89632,264.56618 372.68907,264.77343 372.22428,264.35893 372.01703,264.56618 371.43084,265.15238 372.74977,265.00583 371.57739,265.00583 370.99023,265.00583 371.28525,265.00583 370.6981,265.00583 370.55155,265.00583 370.25845,264.85928 370.25845,265.00583 370.25845,265.15238 370.59447,264.9022 370.6981,265.00583 371.32897,265.6367 370.31357,265.39036 370.25845,265.44547 369.81772,265.88621 370.6981,266.5805 370.6981,266.76441 370.6981,267.2529 370.25845,266.81331 370.25845,266.32476"
       inkscape:connector-curvature="0"
       id="path3472"
       style="opacity:0.6;fill:none;stroke:#e20000;stroke-opacity:1" />
    <path
       d="M 402.79219,173.99929 C 403.08529,174.58548 403.08529,176.05097 403.67148,175.75787 404.25768,175.46477 402.79219,173.3439 402.79219,173.99929 403.08529,174.73203 403.37838,175.46477 403.67148,176.19751 403.81803,176.19751 404.0075,176.09389 404.11113,176.19751 404.21475,176.30114 404.0075,176.53353 404.11113,176.63716 404.21475,176.74078 404.41969,176.57166 404.55077,176.63716 405.2964,177.00997 406.54356,178.62994 407.18864,179.27503 407.48174,179.56813 407.69719,179.96895 408.06793,180.15432 408.19901,180.21982 408.40395,180.0507 408.50758,180.15432 408.6112,180.25795 408.44208,180.46289 408.50758,180.59397 408.72002,181.01886 409.84127,182.1401 410.26616,182.35255 410.39724,182.41805 410.60218,182.24892 410.7058,182.35255 410.91305,182.5598 410.49855,183.02459 410.7058,183.23184 410.80943,183.33546 411.04182,183.12821 411.14545,183.23184 411.24907,183.33546 411.04182,183.56786 411.14545,183.67148 411.24907,183.77511 411.48147,183.56786 411.58509,183.67148 411.58509,184.84387 411.43855,183.52493 412.02474,184.11113 412.12836,184.21475 411.92111,184.44715 412.02474,184.55077 412.12836,184.6544 412.36076,184.44715 412.46438,184.55077 412.67163,184.75802 412.25713,185.22281 412.46438,185.43006 412.56801,185.53369 412.8004,185.32644 412.90403,185.43006 413.00765,185.53369 412.8004,185.76608 412.90403,185.86971 413.00765,185.97333 413.24005,185.76608 413.34367,185.86971 413.4473,185.97333 413.27817,186.17828 413.34367,186.30935 413.52904,186.68009 414.03759,186.8179 414.22296,187.18864 414.28846,187.31972 414.15746,187.49721 414.22296,187.62829 414.47903,188.14042 414.84619,188.43509 415.10225,188.94722 415.23333,189.20938 414.895,189.61926 415.10225,189.82651 415.20588,189.93014 415.43827,189.72289 415.5419,189.82651 415.64553,189.93014 415.4764,190.13508 415.5419,190.26616 415.79797,190.77829 416.16512,191.07296 416.42119,191.58509 416.48669,191.71617 416.31756,191.92111 416.42119,192.02474 416.52482,192.12836 416.75721,191.92111 416.86084,192.02474 417.06809,192.23199 416.72976,192.64188 416.86084,192.90403 416.95354,193.0894 417.20779,193.1583 417.30048,193.34367 417.36598,193.47475 417.23498,193.65224 417.30048,193.78332 417.39318,193.96869 417.64744,194.03759 417.74013,194.22296 417.80563,194.35404 417.67463,194.53153 417.74013,194.66261 417.83283,194.84798 418.08709,194.91688 418.17977,195.10225 418.24527,195.23333 418.11427,195.41082 418.17977,195.5419 418.27247,195.72727 418.52673,195.79617 418.61942,195.98154 418.68492,196.11262 418.55392,196.29011 418.61942,196.42119 418.71212,196.60656 418.96638,196.67546 419.05906,196.86084 419.12456,196.99191 418.95544,197.19685 419.05906,197.30048 419.16269,197.40411 419.39508,197.19685 419.49871,197.30048 419.71853,197.5203 419.27888,198.39959 419.49871,198.61942 419.60233,198.72304 419.83473,198.51579 419.93835,198.61942 420.21722,198.89829 419.75533,200.01195 419.93835,200.378 420.33919,201.17968 420.378,200.67306 420.378,201.69693 420.378,202.04118 420.15862,203.67578 420.378,203.89516 420.48162,203.99878 420.71402,203.79153 420.81764,203.89516 420.98894,204.06646 420.81764,205.38545 420.81764,205.65374 420.81764,206.89983 421.25729,206.54749 421.25729,207.41232 421.25729,207.98052 421.05577,210.0868 421.25729,210.48983 421.34999,210.6752 421.60425,210.74411 421.69693,210.92948 421.82965,211.19493 421.4937,212.04518 421.69693,212.24841 421.80056,212.35204 422.03295,212.14479 422.13658,212.24841 422.34383,212.45567 422.0055,212.86555 422.13658,213.1277 422.22928,213.31308 422.48354,213.38198 422.57622,213.56735 422.64172,213.69843 422.4726,213.90337 422.57622,214.00699 422.67985,214.11062 422.91224,213.90337 423.01587,214.00699 423.22312,214.21425 422.88479,214.62413 423.01587,214.88629 423.27965,215.41386 424.07102,215.67765 424.3348,216.20522 424.4003,216.3363 424.23118,216.54124 424.3348,216.64487 424.43843,216.74849 424.67082,216.54124 424.77445,216.64487 424.87807,216.74849 424.67082,216.98089 424.77445,217.08451 424.87807,217.18814 425.11047,216.98089 425.21409,217.08451 425.31772,217.18814 425.14859,217.39308 425.21409,217.52416 425.47788,218.05173 426.26924,218.31552 426.53303,218.84309 426.59853,218.97417 426.4294,219.17911 426.53303,219.28274 426.63665,219.38636 426.86905,219.17911 426.97267,219.28274 427.0763,219.38636 426.86905,219.61876 426.97267,219.72238 427.0763,219.82601 427.30869,219.61876 427.41232,219.72238 427.51594,219.82601 427.30869,220.0584 427.41232,220.16203 427.51594,220.26565 427.74834,220.0584 427.85196,220.16203 427.95559,220.26565 427.74834,220.49805 427.85196,220.60167 427.95559,220.7053 428.18798,220.49805 428.29161,220.60167 428.39523,220.7053 428.18798,220.93769 428.29161,221.04132 428.39523,221.14494 428.60018,220.97582 428.73125,221.04132 428.91662,221.13402 428.98553,221.38828 429.1709,221.48096 429.30198,221.54646 429.50692,221.37734 429.61054,221.48096 429.71417,221.58459 429.50692,221.81698 429.61054,221.92061 429.71417,222.02423 429.91911,221.85511 430.05019,221.92061 430.42093,222.10598 430.55874,222.61453 430.92948,222.7999 431.06056,222.8654 431.2655,222.69627 431.36912,222.7999 431.47275,222.90352 431.2655,223.13592 431.36912,223.23954 431.47275,223.34317 431.67769,223.17404 431.80877,223.23954 431.99414,223.33224 432.06304,223.5865 432.24841,223.67919 432.37949,223.74469 432.58443,223.57556 432.68806,223.67919 432.79168,223.78281 432.58443,224.01521 432.68806,224.11883 432.79168,224.22246 432.99663,224.05333 433.1277,224.11883 433.31308,224.21153 433.38198,224.46579 433.56735,224.55848 433.69843,224.62398 433.90337,224.45485 434.00699,224.55848 434.11062,224.6621 433.90337,224.8945 434.00699,224.99812 434.11062,225.10175 434.34301,224.8945 434.44664,224.99812 434.55027,225.10175 434.34301,225.33414 434.44664,225.43777 434.65389,225.64502 435.11868,225.23052 435.32593,225.43777 435.42956,225.54139 435.2223,225.77379 435.32593,225.87741 435.53318,226.08466 435.94307,225.74634 436.20522,225.87741 436.71735,226.13348 437.01203,226.50064 437.52416,226.7567 437.65523,226.8222 437.83272,226.6912 437.9638,226.7567 438.14917,226.8494 438.21808,227.10366 438.40345,227.19635 438.6656,227.32743 439.02058,227.06527 439.28274,227.19635 439.46811,227.28905 439.53701,227.54331 439.72238,227.63599 439.85346,227.70149 440.0584,227.53237 440.16203,227.63599 440.26565,227.73962 440.0584,227.97201 440.16203,228.07564 440.4556,228.36922 440.74774,227.78206 441.04132,228.07564 441.14494,228.17926 440.93769,228.41166 441.04132,228.51528 441.24857,228.72253 441.65845,228.38421 441.92061,228.51528 442.10598,228.60798 442.17488,228.86224 442.36025,228.95493 442.49133,229.02043 442.69627,228.8513 442.7999,228.95493 442.90352,229.05855 442.69627,229.29095 442.7999,229.39457 443.00715,229.60182 443.47194,229.18732 443.67919,229.39457 443.78281,229.4982 443.57556,229.73059 443.67919,229.83422 443.78281,229.93784 444.01521,229.73059 444.11883,229.83422 444.22246,229.93784 444.01521,230.17024 444.11883,230.27386 444.32608,230.48112 444.79087,230.06661 444.99812,230.27386 445.10175,230.37749 444.8945,230.60988 444.99812,230.71351 445.10175,230.81713 445.33414,230.60988 445.43777,230.71351 445.54139,230.81713 445.33414,231.04953 445.43777,231.15315 445.54139,231.25678 445.77379,231.04953 445.87741,231.15315 445.98104,231.25678 445.77379,231.48917 445.87741,231.5928 445.98104,231.69643 446.31706,231.73935 446.31706,231.5928 446.31706,231.44625 445.98104,231.69643 445.87741,231.5928 445.77379,231.48917 445.98104,231.25678 445.87741,231.15315 445.77379,231.04953 445.43777,231.00661 445.43777,231.15315 445.43777,231.2997 445.73086,231.15315 445.87741,231.15315"
       inkscape:connector-curvature="0"
       id="path3474"
       style="opacity:0.6;fill:none;stroke:#e20000;stroke-opacity:1" />
    <path
       d="M 455.98925,265.88512 C 455.98925,263.1007 455.98925,260.31628 455.98925,257.53186 455.98925,257.00379 455.75811,255.79592 455.98925,255.33364 456.08195,255.14827 456.33621,255.07936 456.4289,254.89399 456.55997,254.63184 456.29782,254.27685 456.4289,254.0147 456.5216,253.82933 456.77586,253.76043 456.86854,253.57506 456.93404,253.44398 456.76492,253.23904 456.86854,253.13541 456.97217,253.03179 457.20456,253.23904 457.30819,253.13541 457.51544,252.92816 457.10094,252.46337 457.30819,252.25612 458.48057,252.25612 457.16164,252.40267 457.74783,251.81648 457.85146,251.71285 458.08385,251.9201 458.18748,251.81648 459.09712,250.90683 456.79742,251.85208 458.62712,250.93719 458.69822,250.90159 461.63352,250.90159 461.70464,250.93719 461.89001,251.02989 461.95891,251.28415 462.14428,251.37683 462.40644,251.50791 462.81632,251.16958 463.02357,251.37683 463.1272,251.48046 462.91995,251.71285 463.02357,251.81648 463.1272,251.9201 463.33214,251.75098 463.46322,251.81648 463.64859,251.90918 463.71749,252.16344 463.90286,252.25612 464.16502,252.3872 464.5749,252.04887 464.78215,252.25612 464.88578,252.35975 464.67853,252.59214 464.78215,252.69577 464.88578,252.79939 465.09072,252.63027 465.2218,252.69577 467.0515,253.61061 464.7518,252.66537 465.66144,253.57506 465.76507,253.67868 465.97001,253.50956 466.10109,253.57506 466.39419,253.7216 467.27348,254.60089 467.42002,254.89399 467.48552,255.02507 467.35452,255.20256 467.42002,255.33364 467.51272,255.51901 467.76698,255.58791 467.85967,255.77328 467.92517,255.90436 467.85967,256.06638 467.85967,256.21293 468.00622,256.50602 468.11754,256.81956 468.29931,257.09222 468.41428,257.26466 468.64627,257.34649 468.73896,257.53186 468.80446,257.66294 468.67346,257.84043 468.73896,257.97151 468.92433,258.34225 469.43288,258.48006 469.61825,258.8508 469.68375,258.98187 469.55275,259.15937 469.61825,259.29044 469.87432,259.80257 470.24147,260.09725 470.49754,260.60938 470.56304,260.74045 470.39391,260.9454 470.49754,261.04902 470.60117,261.15265 470.83356,260.9454 470.93719,261.04902 471.14444,261.25627 470.80611,261.66616 470.93719,261.92831 471.02989,262.11368 471.28415,262.18259 471.37683,262.36796 471.50791,262.63011 471.24575,262.98509 471.37683,263.24725 471.48054,263.45467 472.19267,264.37584 472.25612,264.56618 472.52225,265.36456 472.25612,267.5778 472.25612,268.52299 472.25612,269.11305 472.49149,272.00905 472.25612,272.4798 472.16342,272.66517 471.90916,272.73407 471.81648,272.91944 471.6854,273.1816 471.94755,273.53658 471.81648,273.79873 471.72378,273.9841 471.46952,274.05301 471.37683,274.23838 471.24575,274.50053 471.50791,274.85551 471.37683,275.11767 471.28413,275.30304 471.02987,275.37194 470.93719,275.55731 470.87169,275.68839 471.04081,275.89333 470.93719,275.99696 470.83356,276.10058 470.60117,275.89333 470.49754,275.99696 470.39391,276.10058 470.56304,276.30553 470.49754,276.4366 470.40484,276.62197 470.15058,276.69088 470.05789,276.87625 469.99239,277.00732 470.16152,277.21227 470.05789,277.31589 469.95427,277.41952 469.72188,277.21227 469.61825,277.31589 469.51462,277.41952 469.72188,277.65191 469.61825,277.75554 469.51462,277.85916 469.28223,277.65191 469.1786,277.75554 469.07498,277.85916 469.2441,278.06411 469.1786,278.19518 469.03206,278.48828 468.15277,279.36757 467.85967,279.51412 467.72859,279.57962 467.52365,279.41049 467.42002,279.51412 467.3164,279.61774 467.52365,279.85014 467.42002,279.95376 467.3164,280.05739 467.084,279.85014 466.98038,279.95376 466.87675,280.05739 467.084,280.28978 466.98038,280.39341 466.87675,280.49703 466.64436,280.28978 466.54073,280.39341 466.43711,280.49703 466.64436,280.72943 466.54073,280.83305 466.43711,280.93668 466.20471,280.72943 466.10109,280.83305 465.99746,280.93668 466.16659,281.14162 466.10109,281.2727 466.00839,281.45807 465.75413,281.52697 465.66144,281.71234 465.59594,281.84342 465.76507,282.04836 465.66144,282.15199 465.55782,282.25561 465.32542,282.04836 465.2218,282.15199 465.11817,282.25561 465.32542,282.48801 465.2218,282.59163 465.11817,282.69526 464.88578,282.48801 464.78215,282.59163 464.67853,282.69526 464.84765,282.9002 464.78215,283.03128 464.68945,283.21665 464.43519,283.28555 464.34251,283.47092 464.27701,283.602 464.40801,283.77949 464.34251,283.91057 464.24981,284.09594 463.99555,284.16484 463.90286,284.35021 463.83736,284.48129 463.96836,284.65878 463.90286,284.78986 462.44474,286.24798 464.11011,284.37536 463.46322,285.66915 463.37052,285.85452 463.11626,285.92342 463.02357,286.10879 462.8925,286.37095 463.23082,286.78083 463.02357,286.98809 462.91995,287.09171 462.68755,286.88446 462.58393,286.98809 462.37668,287.19534 462.715,287.60522 462.58393,287.86738 462.49123,288.05275 462.23697,288.12165 462.14428,288.30702 461.96842,288.65874 462.32014,289.27424 462.14428,289.62596 462.05158,289.81133 461.79732,289.88023 461.70464,290.0656 461.52878,290.41732 461.8805,291.03282 461.70464,291.38454 461.16137,292.47108 461.26499,291.23278 461.26499,292.26383 461.26499,292.55692 461.47224,292.93587 461.26499,293.14312 461.16137,293.24674 460.92897,293.03949 460.82535,293.14312 460.53225,293.43621 461.11844,294.6086 460.82535,294.9017 460.72172,295.00532 460.48933,294.79807 460.3857,294.9017 460.10683,295.18057 460.56872,296.29423 460.3857,296.66028 460.293,296.84565 460.03874,296.91455 459.94606,297.09992 459.64972,297.69259 459.94606,303.47169 459.94606,304.57389 459.94606,304.99069 460.12862,305.96735 459.94606,306.33247 459.29916,307.62626 459.50641,305.65002 459.50641,307.65141 459.50641,308.21961 459.70793,310.32589 459.50641,310.72892 459.41371,310.91429 459.15945,310.9832 459.06677,311.16857 458.84808,311.60594 458.95532,314.13464 459.06677,314.24608 459.17039,314.34971 459.40279,314.14246 459.50641,314.24608 459.61785,314.35753 459.7251,316.88623 459.50641,317.3236 459.41371,317.50897 459.15945,317.57787 459.06677,317.76324 458.88154,318.13369 459.25737,320.21052 459.06677,320.40111 458.96314,320.50474 458.73075,320.29749 458.62712,320.40111 458.41987,320.60837 458.83437,321.07315 458.62712,321.2804 458.58312,321.3244 457.35215,321.3244 457.30819,321.2804 457.20456,321.17678 457.41181,320.94438 457.30819,320.84076 457.20456,320.73713 456.97217,320.94438 456.86854,320.84076 456.76492,320.73713 456.97217,320.50474 456.86854,320.40111 456.76492,320.29749 456.53252,320.50474 456.4289,320.40111 456.32527,320.29749 456.53252,320.06509 456.4289,319.96147 456.32527,319.85784 456.1358,319.96147 455.98925,319.96147 455.98925,319.81492 456.09288,319.62545 455.98925,319.52182 455.88563,319.4182 455.65323,319.62545 455.54961,319.52182 455.44598,319.4182 455.61511,319.21326 455.54961,319.08218 455.45691,318.89681 455.20265,318.8279 455.10996,318.64253 455.04446,318.51146 455.17546,318.33397 455.10996,318.20289 453.65184,316.74477 455.31721,318.61739 454.67032,317.3236 454.41425,316.81147 454.04709,316.51679 453.79103,316.00466 453.72553,315.87359 453.85653,315.6961 453.79103,315.56502 453.69833,315.37965 453.44407,315.31074 453.35138,315.12537 453.2203,314.86322 453.48246,314.50824 453.35138,314.24608 453.09532,313.73395 452.72816,313.43928 452.47209,312.92715 452.34101,312.66499 452.60317,312.31001 452.47209,312.04786 452.37939,311.86249 452.12513,311.79358 452.03244,311.60821 451.90137,311.34606 452.16352,310.99108 452.03244,310.72892 451.77638,310.21679 451.40922,309.92212 451.15315,309.40999 450.91868,308.94103 451.38763,308.12036 451.15315,307.65141 451.06045,307.46604 450.80619,307.39713 450.71351,307.21176 450.36179,306.50833 451.06523,305.27732 450.71351,304.57389 450.62081,304.38852 450.36655,304.31962 450.27386,304.13424 450.09131,303.76913 450.27386,302.79246 450.27386,302.37566 450.27386,301.73898 450.55248,300.29502 450.27386,299.73779 450.18116,299.55242 449.9269,299.48352 449.83422,299.29815 449.7285,299.0867 449.7285,291.15634 449.83422,290.94489 449.92692,290.75952 450.18118,290.69062 450.27386,290.50525 450.56696,289.91905 449.98077,288.89321 450.27386,288.30702 450.36656,288.12165 450.62082,288.05275 450.71351,287.86738 450.89653,287.50133 450.43464,286.38767 450.71351,286.10879 450.81713,286.00517 451.04953,286.21242 451.15315,286.10879 451.38063,285.88132 450.93429,283.469 451.15315,283.03128 451.24585,282.84591 451.50011,282.777 451.5928,282.59163 451.76866,282.23992 451.41694,281.62441 451.5928,281.2727 451.84887,280.76057 452.21602,280.46589 452.47209,279.95376 452.53759,279.82269 452.40659,279.6452 452.47209,279.51412 452.56479,279.32875 452.81905,279.25984 452.91174,279.07447 453.04281,278.81232 452.70448,278.40243 452.91174,278.19518 453.01536,278.09156 453.24775,278.29881 453.35138,278.19518 453.55863,277.98793 453.2203,277.57805 453.35138,277.31589 453.44408,277.13052 453.69834,277.06162 453.79103,276.87625 453.9221,276.61409 453.65995,276.25911 453.79103,275.99696 453.88373,275.81159 454.13799,275.74268 454.23067,275.55731 454.36175,275.29516 454.09959,274.94018 454.23067,274.67802 454.32337,274.49265 454.57763,274.42375 454.67032,274.23838 455.02108,273.53686 454.30087,269.77173 454.67032,269.40228 454.77394,269.29865 455.00634,269.50591 455.10996,269.40228 455.28654,269.2257 455.02706,268.332 455.10996,268.08334 455.35952,267.33466 455.69615,266.61786 455.98925,265.88512 z"
       inkscape:connector-curvature="0"
       id="path3476"
       style="opacity:0.6;fill:none;stroke:#e20000;stroke-opacity:1" />
    <path
       d="M 368.814,117.10464 426.01519,144.46173 375.65327,71.71674"
       inkscape:connector-curvature="0"
       id="path3478"
       style="fill:none;stroke:#0000e9;stroke-width:1;stroke-miterlimit:4;stroke-opacity:1;stroke-dasharray:none;stroke-dashoffset:0" />
    <path
       d="M 425.39344,141.35297 423.52818,59.90345"
       inkscape:connector-curvature="0"
       id="path3480"
       style="fill:none;stroke:#0000e9;stroke-width:1;stroke-miterlimit:4;stroke-opacity:1;stroke-dasharray:none;stroke-dashoffset:0" />
    <path
       d="M 442.8025,147.5705 460.83331,62.390459"
       inkscape:connector-curvature="0"
       id="path3774"
       style="fill:none;stroke:#0000e9;stroke-width:1;stroke-miterlimit:4;stroke-opacity:1;stroke-dasharray:none;stroke-dashoffset:0" />
    <path
       d="M 470.78134,155.65327 492.54267,67.986227"
       inkscape:connector-curvature="0"
       id="path3483"
       style="fill:none;stroke:#0000e9;stroke-width:1;stroke-miterlimit:4;stroke-opacity:1;stroke-dasharray:none;stroke-dashoffset:0" />
    <path
       d="M 506.22121,166.84481 533.5783,79.799517"
       inkscape:connector-curvature="0"
       id="path3485"
       style="fill:none;stroke:#0000e9;stroke-width:1;stroke-miterlimit:4;stroke-opacity:1;stroke-dasharray:none;stroke-dashoffset:0" />
    <path
       d="M 561.66383,200.13065 625.59761,134.5137"
       inkscape:connector-curvature="0"
       id="path3487"
       style="fill:none;stroke:#0000e9;stroke-width:1;stroke-miterlimit:4;stroke-opacity:1;stroke-dasharray:none;stroke-dashoffset:0" />
    <path
       d="M 587.67074,233.99404 659.17223,194.82365"
       inkscape:connector-curvature="0"
       id="path3489"
       style="fill:none;stroke:#0000e9;stroke-width:1;stroke-miterlimit:4;stroke-opacity:1;stroke-dasharray:none;stroke-dashoffset:0" />
    <path
       d="M 600.19951,277.69879 672.85077,280.00369"
       inkscape:connector-curvature="0"
       id="path3491"
       style="fill:none;stroke:#0000e9;stroke-width:1;stroke-miterlimit:4;stroke-opacity:1;stroke-dasharray:none;stroke-dashoffset:0" />
    <path
       d="M 588.20312,326.85579 639.54565,342.26168"
       inkscape:connector-curvature="0"
       id="path3493"
       style="fill:none;stroke:#0000e9;stroke-width:1;stroke-miterlimit:4;stroke-opacity:1;stroke-dasharray:none;stroke-dashoffset:0" />
    <path
       d="M 610.98817,278.4752 C 614.13886,291.12638 614.43269,306.92219 610.04982,319.32496 605.80253,335.20732 596.98734,349.74755 585.02979,361.00912 576.01981,370.45432 566.12788,379.26147 554.93248,386.0172 554.65369,386.11934 554.37491,386.22148 554.09612,386.32362"
       inkscape:connector-curvature="0"
       id="path3495"
       style="fill:none;stroke:#0000e9;stroke-width:1;stroke-miterlimit:4;stroke-opacity:1;stroke-dasharray:none;stroke-dashoffset:0" />
    <path
       d="M 528.60429,427.98069 C 528.55849,425.90537 528.37352,421.24751 528.67229,419.03112 529.08852,416.172 529.11706,413.28368 529.39552,410.41499 529.81679,406.56425 531.25278,402.91307 533.19649,399.59155 535.2294,395.27495 537.94659,390.93571 542.32751,388.69645 545.48007,386.58582 549.03571,384.29124 553.01054,384.76712 556.71399,386.01845 558.26269,389.94523 560.02195,393.08266 564.54038,402.41423 565.64477,412.84427 567.67474,422.886 568.34021,423.76761 568.10138,425.56045 567.30911,423.82532 567.17914,423.57643 567.10623,423.28797 567.15293,423.00667"
       inkscape:connector-curvature="0"
       id="path3497"
       style="fill:none;stroke:#0000e9;stroke-width:1;stroke-miterlimit:4;stroke-opacity:1;stroke-dasharray:none;stroke-dashoffset:0" />
    <path
       d="M 468.91609,429.22419 C 470.33503,428.68468 468.88279,427.48717 469.91949,426.53376 470.41807,424.38014 470.42249,421.47448 472.81432,420.50576 476.07136,419.05734 479.72749,419.13695 483.13187,418.22311 485.77722,417.76905 488.47384,418.15411 491.05112,418.75515 494.56079,418.83875 498.09803,418.18935 501.58175,418.80085 507.73936,418.37332 513.97996,417.8742 519.84858,415.82784 522.15963,415.25929 524.94347,414.78632 527.02278,416.21364"
       inkscape:connector-curvature="0"
       id="path3499"
       style="fill:none;stroke:#0000e9;stroke-width:1;stroke-miterlimit:4;stroke-opacity:1;stroke-dasharray:none;stroke-dashoffset:0" />
    <path
       d="M 526.83938,415.84478 C 529.58961,415.10895 528.53799,417.85567 528.41935,419.44438 528.08317,422.37252 528.47455,425.40826 528.06214,428.2785 520.87171,433.50397 514.28505,440.6226 505.25555,442.44331 500.10329,443.15171 495.13336,441.11792 489.99162,441.19307 482.0372,439.92003 475.61181,434.56505 469.65803,429.50126 469.99507,426.76812 470.26459,423.24999 472.44703,421.18922 478.75783,417.99142 486.20006,418.98828 493.05536,418.63775 502.16452,418.50566 511.5191,419.02812 520.25067,416.05104 522.42261,415.58268 524.6397,415.8251 526.83938,415.84478 z"
       inkscape:connector-curvature="0"
       id="path3843"
       style="fill:none;stroke:none" />
    <path
       d="M 552.17393,385.00093 C 553.88128,384.63631 553.70665,386.93247 555.21022,386.85568 559.02705,390.05475 560.49227,395.22805 562.28576,399.7153 564.8397,408.15034 566.54047,416.94434 567.5615,425.65437 564.92287,428.29609 560.9222,429.2421 557.66512,431.01753 551.91278,433.71467 544.09118,435.87772 538.61362,431.43845 536.35567,429.81174 535.57268,426.97889 533.91491,424.98116 532.09277,425.23841 530.68074,426.98334 528.88647,427.33051 528.11266,424.08688 529.02516,420.38747 529.13241,416.98886 529.68305,411.36147 529.92672,405.46692 533.03562,400.55338 535.46486,395.24073 539.08867,390.3779 544.42171,387.70832 546.81964,386.46081 549.39843,385.02632 552.17393,385.00093 z"
       inkscape:connector-curvature="0"
       id="path3845"
       style="fill:#b9abdd;stroke:none" />
    <path
       d="M 625.49849,135.76337 C 632.21092,142.89622 637.69318,151.20354 641.25444,160.33734 646.64437,171.70737 652.7368,182.68904 657.93605,194.14 657.19766,195.90038 654.58767,196.3214 653.16407,197.52196 631.60403,209.78875 609.80313,221.70069 587.89509,233.35085 585.84043,232.81601 585.35878,229.88909 584.1207,228.40481 578.70614,219.22554 571.94395,210.84657 565.19841,202.6169 563.799,201.97299 561.07196,199.98212 563.41262,198.70497 583.87255,177.72703 604.3247,156.7415 624.77033,135.74963 L 625.18249,135.5985 625.49849,135.76337 z"
       inkscape:connector-curvature="0"
       id="path3853"
       style="fill:#70bb86;stroke:none" />
    <path
       d="M 533.5577,82.868566 C 559.66021,91.657858 584.64955,103.89365 607.65164,119.02938 613.89074,123.49582 618.84208,129.43785 624.35816,134.71921 623.82351,136.95418 620.87596,138.49102 619.44964,140.45856 600.35521,160.05303 581.27076,179.65722 562.18959,199.26461 559.86644,198.61008 558.20623,195.61362 556.1447,194.05344 551.04304,189.04335 545.88533,183.96148 539.17692,181.08803 529.04888,175.80179 518.38821,171.7605 507.93464,167.23921 505.5753,166.20672 508.08368,163.45822 508.13391,161.76348 516.30775,135.55792 524.43336,109.32953 532.82954,83.1983 532.92764,82.855697 533.28039,82.827324 533.5577,82.868566 z"
       inkscape:connector-curvature="0"
       id="path3855"
       style="fill:#7edfd0;stroke:none" />
    <path
       d="M 493.09661,69.857818 C 506.06625,72.915566 518.8953,76.967435 531.34574,81.755714 533.37695,82.727575 531.04988,85.335512 531.01684,86.882161 522.86173,113.0137 514.77459,139.19126 506.38214,165.23333 505.49334,167.7692 502.75847,165.13453 501.1423,164.99703 491.34173,161.66596 481.44473,158.63229 471.49905,155.76722 470.85633,153.55904 472.60556,150.75537 472.84916,148.33531 479.32058,122.30255 485.73157,96.254386 492.28602,70.242508 492.38112,69.852222 492.7872,69.812561 493.09661,69.857818 z"
       inkscape:connector-curvature="0"
       id="path3857"
       style="fill:#736cd4;stroke:none" />
    <path
       d="M 461.56582,64.101215 C 471.53314,65.510058 481.55815,67.122097 491.32429,69.45939 491.89117,71.702778 490.23876,74.253131 490.03823,76.61372 483.69253,102.59044 477.4179,128.59892 470.75715,154.4895 469.01822,156.05988 466.46893,153.70166 464.53342,153.61021 457.58937,151.41326 450.63064,149.25458 443.71897,146.96058 443.14211,144.40504 444.7319,141.51034 444.94173,138.84088 450.14778,114.04375 455.26806,89.224695 460.67279,64.472165 460.81243,64.053031 461.22802,64.060981 461.56582,64.101215 z"
       inkscape:connector-curvature="0"
       id="path3859"
       style="fill:#d7ab8f;stroke:none" />
    <path
       d="M 425.10275,60.707704 C 436.58155,62.010456 448.14957,62.487224 459.62863,63.812698 460.60785,65.484142 458.89637,67.984923 458.90772,69.931129 453.68003,94.961384 448.52553,120.05379 443.01829,144.99592 442.59061,147.61423 439.52184,145.5214 437.93139,145.45142 433.96773,144.14821 429.53894,144.35967 425.66604,142.92134 424.36734,142.51511 424.07076,140.80664 425.59734,140.87424 425.3846,126.78048 424.80935,112.63539 424.60047,98.519546 424.39249,86.054701 423.97998,73.582766 424.01736,61.119871 424.13507,60.626472 424.7236,60.683126 425.10274,60.707704 z"
       inkscape:connector-curvature="0"
       id="path3861"
       style="fill:#dbc198;stroke:none" />
    <path
       d="M 414.75735,60.13067 C 417.42112,60.342386 420.33788,59.850431 422.86331,60.76266 423.72146,69.550228 423.54652,78.548389 423.92993,87.415648 424.25493,104.48465 425.11288,121.56507 424.75928,138.6348 425.06012,139.98207 423.65872,140.80165 423.08313,139.30801 407.27277,117.25531 392.00833,94.77371 376.49449,72.495689 377.93747,69.846066 380.97484,67.985524 383.57002,66.29944 392.5386,61.046894 403.15226,59.811241 413.39718,60.120287 413.85057,60.123787 414.30396,60.127187 414.75735,60.130667 z"
       inkscape:connector-curvature="0"
       id="path3863"
       style="fill:#b1daa9;stroke:none" />
    <path
       d="M 376.15101,73.498629 C 392.25195,96.019948 408.05581,118.77869 423.57773,141.69858 423.25622,143.50475 421.03893,141.23216 420.0023,141.12797 403.03332,133.29252 386.22379,125.10719 369.35025,117.06471 368.13128,109.24833 368.47119,101.06206 368.33357,93.090315 368.08803,88.007216 368.56375,82.738491 371.50633,78.420565 372.78773,76.726132 373.64813,74.082384 375.7938,73.36124 L 376.15101,73.498629 z"
       inkscape:connector-curvature="0"
       id="path3865"
       style="fill:#746bdb;stroke:none" />
    <path
       d="M 369.94103,118.16383 C 387.83408,126.2964 405.49439,134.98539 423.26173,143.41594 423.69278,145.05055 421.81377,146.86813 421.03603,148.40317 414.01364,158.79925 402.02437,164.1878 390.28097,167.35712 385.53136,168.42489 380.14789,171.22444 375.57398,168.1185 369.56158,164.94052 368.1005,157.6798 368.00583,151.44106 367.76039,143.51803 367.22638,135.47239 367.82523,127.60246 368.70896,124.54827 368.26824,120.98773 369.57008,118.16383 L 369.89981,118.15013 369.94101,118.16383 z"
       inkscape:connector-curvature="0"
       id="path3867"
       style="fill:#6a72bc;stroke:none" />
    <path
       d="M 523.90749,415.66249 C 525.38647,416.19719 527.60734,415.50245 528.63368,416.55552 528.08794,420.57578 528.8791,424.9659 527.35596,428.76941 520.5757,433.65197 514.52444,440.49596 506.01943,442.19233 500.23698,443.00455 494.4254,441.59601 488.69467,440.92835 481.36708,439.34631 475.19039,434.4805 469.94105,429.37393 469.46528,426.78243 470.72358,424.01141 472.02937,421.80379 475.14014,419.06638 479.78803,419.36826 483.65249,418.46523 488.17606,418.08727 492.68475,419.28209 497.24027,418.86366 505.17142,418.98135 513.0818,418.13017 520.69259,415.95101 521.74873,415.74542 522.82889,415.59458 523.90749,415.66249 z"
       inkscape:connector-curvature="0"
       id="path3514"
       style="fill:#c7a1db;stroke:none" />
    <path
       d="M 658.45633,195.94212 C 660.70489,198.57572 661.31147,202.40165 662.7801,205.55919 666.59435,217.28909 668.40218,229.56183 670.78013,241.65147 672.71067,253.32208 672.87926,265.22908 672.68355,277.02659 673.37223,280.82339 669.12603,279.26678 666.83713,279.53266 644.48244,278.97505 622.11335,278.32948 599.79118,277.05664 598.35509,275.7215 600.18514,273.49777 599.81868,271.82212 600.80622,258.40179 593.32153,246.52325 587.7147,234.90567 589.01656,232.92991 592.12942,232.16303 594.17199,230.7153 615.42484,219.06519 636.67061,207.3874 658.04418,195.95586 L 658.41513,195.92836 658.45635,195.94206 z"
       inkscape:connector-curvature="0"
       id="path6111"
       style="fill:#e19179;stroke:none" />
    <path
       d="M 610.83727,278.52671 C 614.06764,292.80601 614.0083,308.012 609.00498,321.88278 607.70478,324.9375 607.31008,328.59642 605.24553,331.22916 603.05953,331.70453 600.7586,330.05607 598.56891,329.75165 595.72124,328.77333 592.60956,328.23396 589.94038,326.94262 591.95928,323.40155 593.82344,319.62318 594.58599,315.52292 595.85399,308.47426 598.35929,301.47969 598.37607,294.24402 597.88786,289.25343 599.59747,284.39438 599.47782,279.37272 599.85243,276.71549 604.10724,278.76873 606.06986,278.12828 607.58621,278.36102 609.57133,277.64074 610.83727,278.52671 z"
       inkscape:connector-curvature="0"
       id="path6119"
       style="fill:#c7afc8;stroke:none" />
    <path
       d="M 614.57425,278.36184 C 633.52317,278.93966 652.47818,279.49527 671.41212,280.42268 672.8535,281.32979 671.35242,283.67485 671.38398,285.00067 668.75532,296.85471 663.02074,307.76599 656.62612,317.99253 651.35068,325.74978 646.04194,333.60526 640.38966,341.06622 638.69335,343.04136 636.0872,340.40883 634.05148,340.37741 625.02389,337.4859 615.70272,335.31453 606.90794,331.8062 605.39062,330.68561 607.62708,328.72313 607.64984,327.27236 610.71716,318.28412 613.67974,309.03902 613.42018,299.39611 613.59507,292.49217 612.73492,285.61523 611.42804,278.85644 611.84621,277.77438 613.72856,278.62345 614.57425,278.36184 z"
       inkscape:connector-curvature="0"
       id="path6121"
       style="fill:#cda392;stroke:none" />
    <path
       d="M 606.13856,332.69923 C 617.02632,335.73368 627.96877,338.80403 638.65856,342.44012 638.74866,344.55729 636.36316,346.23086 635.46248,348.04583 630.78069,354.60499 625.23988,360.49937 621.47228,367.68223 611.45635,383.25581 599.79309,397.72571 588.81379,412.64595 583.79,419.1416 576.11439,422.80102 568.71377,425.86278 567.26397,425.6816 568.49474,423.77929 567.83448,422.85396 565.47828,411.37579 564.31653,399.13854 558.01116,389.08372 556.31735,387.2286 555.0658,384.93276 558.38901,384.002 571.28433,375.63406 582.08053,364.42239 592.44087,353.30759 597.9695,347.30804 601.77598,340.11475 605.52031,332.91905 605.7151,332.82645 605.90375,332.61848 606.13856,332.69923 z"
       inkscape:connector-curvature="0"
       id="path6123"
       style="fill:#d5be93;stroke:none" />
  </g>
</svg>
