<?xml version="1.0" encoding="UTF-8" standalone="no"?>
<!-- Created with Inkscape (http://www.inkscape.org/) -->

<svg
   xmlns:dc="http://purl.org/dc/elements/1.1/"
   xmlns:cc="http://creativecommons.org/ns#"
   xmlns:rdf="http://www.w3.org/1999/02/22-rdf-syntax-ns#"
   xmlns:svg="http://www.w3.org/2000/svg"
   xmlns="http://www.w3.org/2000/svg"
   xmlns:xlink="http://www.w3.org/1999/xlink"
   xmlns:inkscape="http://www.inkscape.org/namespaces/inkscape"
   version="1.1"
   width="740"
   height="520"
   id="svg2"
   style="enable-background:new">
  <defs
     id="defs4">
    <filter
       color-interpolation-filters="sRGB"
       id="filter3050">
      <feBlend
         in2="BackgroundImage"
         mode="lighten"
         id="feBlend3052" />
    </filter>
  </defs>
  <metadata
     id="metadata7">
    <rdf:RDF>
      <cc:Work
         rdf:about="">
        <dc:format>image/svg+xml</dc:format>
        <dc:type
           rdf:resource="http://purl.org/dc/dcmitype/StillImage" />
        <dc:title />
      </cc:Work>
    </rdf:RDF>
  </metadata>
  <g
     id="layer1"
     style="display:none">
    <image
       xlink:href="pngs/coronal-0452.png"
       id="MRISLICE"
       height="520"
       width="740"
       y="0"
       x="0" />
  </g>
  <g
     id="layer3"
     style="display:inline">
    <path
       d="M 373.2587,113.32826 C 381.61976,179.6599 371.93385,246.36357 372.01897,312.8033 373.60106,338.56556 375.58984,365.76272 389.27989,388.32372 398.24026,402.14219 415.18545,408.14021 431.12958,406.35281 454.08929,406.48086 477.50033,401.46815 497.17121,389.41319 504.44422,381.46606 500.68428,372.36115 513.39242,369.71813 523.98637,361.92399 530.49041,357.94169 542.39332,355.23975 537.24722,355.39824 555.54344,349.00946 552.50254,353.35414 558.24503,351.4084 564.63404,338.23799 572.5141,329.47194 576.07116,316.77755 586.38142,307.66491 591.32035,295.44767 605.02135,266.93368 608.72717,234.10794 603.63275,203.01586 580.96516,161.97185 547.29496,125.28672 503.20677,107.29245 472.8322,92.634449 437.51702,77.857276 403.62047,88.880227 391.24415,93.574734 380.84735,102.60281 373.2587,113.32826 z"
       inkscape:connector-curvature="0"
       id="path2992"
       style="fill:none;stroke:#0000e9;stroke-width:1;stroke-miterlimit:4;stroke-opacity:1;stroke-dasharray:none;stroke-dashoffset:0" />
    <path
       d="M 552.19427,352.93485 C 545.08351,364.78339 521.32232,377.16508 501.19544,384.5893"
       inkscape:connector-curvature="0"
       id="path2996"
       style="fill:none;stroke:#0000e9;stroke-width:1;stroke-miterlimit:4;stroke-opacity:1;stroke-dasharray:none;stroke-dashoffset:0" />
    <path
       d="M 502.07473,379.31356 C 497.208,373.95252 490.81608,371.64189 483.60963,370.9603 480.24702,379.49184 457.12037,375.44627 442.28299,376.67569 409.35079,375.18501 397.37973,365.90099 381.17232,370.08101"
       inkscape:connector-curvature="0"
       id="path3000"
       style="fill:none;stroke:#0000e9;stroke-width:1;stroke-miterlimit:4;stroke-opacity:1;stroke-dasharray:none;stroke-dashoffset:0" />
    <path
       d="M 483.60963,370.9603 C 462.93759,362.38009 453.01071,369.12601 442.72264,375.35675"
       inkscape:connector-curvature="0"
       id="path3002"
       style="fill:none;stroke:#0000e9;stroke-width:1;stroke-miterlimit:4;stroke-opacity:1;stroke-dasharray:none;stroke-dashoffset:0" />
    <path
       d="M 464.70489,305.89283 C 464.1187,305.89283 462.94631,306.47902 462.94631,305.89283 462.94631,305.30663 465.29109,305.89283 464.70489,305.89283 458.91318,305.89283 463.98257,305.3747 462.06702,306.33247 461.71531,306.50833 461.0998,306.15661 460.74809,306.33247 460.56272,306.42517 460.49381,306.67943 460.30844,306.77212 459.48777,307.18245 458.0516,306.36178 457.23093,306.77212 457.04556,306.86482 456.97665,307.11908 456.79128,307.21176 456.66021,307.27726 456.48271,307.14626 456.35164,307.21176 456.16627,307.30446 456.09736,307.55872 455.91199,307.65141 455.78091,307.71691 455.60342,307.58591 455.47235,307.65141 454.96022,307.90747 454.66554,308.27463 454.15341,308.5307 454.02233,308.5962 453.84484,308.4652 453.71377,308.5307 453.34302,308.71607 453.20522,309.22462 452.83448,309.40999 452.7034,309.47549 452.52591,309.34449 452.39483,309.40999 452.20946,309.50269 452.14056,309.75695 451.95519,309.84963 451.82411,309.91513 451.61917,309.74601 451.51554,309.84963 451.41192,309.95326 451.61917,310.18565 451.51554,310.28928 451.41192,310.3929 451.20697,310.22378 451.0759,310.28928 450.89052,310.38198 450.82162,310.63624 450.63625,310.72892 450.50517,310.79442 450.30023,310.6253 450.19661,310.72892 450.09298,310.83255 450.26211,311.03749 450.19661,311.16857 450.01123,311.53931 449.68806,311.86249 449.31731,312.04786 449.18624,312.11336 448.9813,311.94423 448.87767,312.04786 448.77404,312.15148 448.94317,312.35643 448.87767,312.4875 448.6923,312.85824 448.18375,312.99605 447.99838,313.36679 447.93288,313.49787 448.06388,313.67536 447.99838,313.80644 447.64666,314.50987 446.59152,314.86159 446.2398,315.56502 446.1743,315.6961 446.34342,315.90104 446.2398,316.00466 446.13617,316.10829 445.90378,315.90104 445.80015,316.00466 445.5929,316.21191 446.0074,316.6767 445.80015,316.88395 445.69653,316.98758 445.46413,316.78033 445.36051,316.88395 445.15728,317.08719 445.49323,317.93744 445.36051,318.20289 445.26781,318.38826 445.01355,318.45716 444.92086,318.64253 444.68743,319.1094 445.1543,319.05495 444.92086,319.52182 444.82816,319.70719 444.5739,319.7761 444.48122,319.96147 444.43612,320.05167 444.41922,321.2184 444.48122,321.2804 444.9032,321.70239 444.92086,320.8877 444.92086,322.1597 444.92086,322.87015 444.73039,326.61485 444.92086,326.99579 445.01356,327.18116 445.26782,327.25007 445.36051,327.43544 445.54353,327.80148 445.08164,328.91514 445.36051,329.19402 445.46413,329.29764 445.69653,329.09039 445.80015,329.19402 446.0074,329.40127 445.66908,329.81115 445.80015,330.07331 445.89285,330.25868 446.14711,330.32758 446.2398,330.51295 446.37088,330.77511 446.03255,331.18499 446.2398,331.39224 446.34342,331.49587 446.57582,331.28862 446.67944,331.39224 446.88669,331.59949 446.54837,332.00938 446.67944,332.27153 446.77214,332.4569 447.0264,332.52581 447.11909,332.71118 447.18459,332.84225 447.01546,333.0472 447.11909,333.15082 447.22271,333.25445 447.45511,333.0472 447.55873,333.15082 447.76599,333.35807 447.42766,333.76796 447.55873,334.03011 447.8148,334.54224 448.18196,334.83692 448.43802,335.34905 448.50352,335.48013 448.3344,335.68507 448.43802,335.78869 448.54165,335.89232 448.77404,335.68507 448.87767,335.78869 449.08492,335.99594 448.74659,336.40583 448.87767,336.66798 448.97037,336.85335 449.22463,336.92226 449.31731,337.10763 449.38281,337.23871 449.21369,337.44365 449.31731,337.54727 449.42094,337.6509 449.65333,337.44365 449.75696,337.54727 449.86059,337.6509 449.65333,337.88329 449.75696,337.98692 449.86059,338.09054 450.09298,337.88329 450.19661,337.98692 450.30023,338.09054 450.13111,338.29549 450.19661,338.42656 450.28931,338.61194 450.54356,338.68084 450.63625,338.86621 450.70175,338.99729 450.53262,339.20223 450.63625,339.30585 450.73988,339.40948 450.97227,339.20223 451.0759,339.30585 451.17952,339.40948 450.97227,339.64187 451.0759,339.7455 451.17952,339.84913 451.41192,339.64187 451.51554,339.7455 451.61917,339.84913 451.41192,340.08152 451.51554,340.18515 451.61917,340.28877 451.85156,340.08152 451.95519,340.18515 452.05881,340.28877 451.85156,340.52116 451.95519,340.62479 452.05881,340.72842 452.26375,340.55929 452.39483,340.62479 452.5802,340.71749 452.64911,340.97175 452.83448,341.06444 453.29676,341.29558 454.50463,341.06444 455.0327,341.06444 455.17925,341.06444 455.36872,341.16806 455.47235,341.06444 455.57597,340.96081 455.36872,340.72842 455.47235,340.62479 455.57597,340.52116 455.78091,340.69029 455.91199,340.62479 456.09736,340.53209 456.16627,340.27783 456.35164,340.18515 456.48271,340.11965 456.68766,340.28877 456.79128,340.18515 456.89491,340.08152 456.68766,339.84913 456.79128,339.7455 456.89491,339.64187 457.08438,339.7455 457.23093,339.7455 457.23093,339.59895 457.1273,339.40948 457.23093,339.30585 457.43818,339.0986 457.90297,339.51311 458.11022,339.30585 458.21384,339.20223 458.04472,338.99729 458.11022,338.86621 458.36628,338.35408 458.73344,338.0594 458.98951,337.54727 459.05501,337.4162 458.88588,337.21125 458.98951,337.10763 459.09313,337.004 459.32553,337.21125 459.42915,337.10763 459.53278,337.004 459.32553,336.77161 459.42915,336.66798 459.53278,336.56436 459.76517,336.77161 459.8688,336.66798 459.97242,336.56436 459.8033,336.35942 459.8688,336.22834 460.33425,335.29743 460.28263,336.27994 460.74809,335.34905 460.81359,335.21797 460.64446,335.01303 460.74809,334.9094 460.85171,334.80578 461.08411,335.01303 461.18773,334.9094 461.39498,334.70215 460.98048,334.23736 461.18773,334.03011 461.29136,333.92649 461.52375,334.13374 461.62738,334.03011 461.731,333.92649 461.52375,333.69409 461.62738,333.59047 461.731,333.48684 461.9634,333.69409 462.06702,333.59047 462.17065,333.48684 462.00152,333.2819 462.06702,333.15082 462.15972,332.96545 462.41398,332.89655 462.50667,332.71118 462.63775,332.44902 462.29942,332.03914 462.50667,331.83189 462.61029,331.72826 462.84269,331.93551 462.94631,331.83189 462.94631,330.6595 462.79977,331.97844 463.38596,331.39224 463.48958,331.28862 463.32046,331.08367 463.38596,330.9526 463.47866,330.76723 463.73292,330.69832 463.8256,330.51295 463.95668,330.2508 463.61835,329.84091 463.8256,329.63366 463.92923,329.53004 464.16162,329.73729 464.26525,329.63366 464.4725,329.42641 464.058,328.96162 464.26525,328.75437 464.36887,328.65075 464.60127,328.858 464.70489,328.75437 464.91214,328.54712 464.57382,328.13724 464.70489,327.87508 464.79759,327.68971 465.05185,327.62081 465.14454,327.43544 465.27562,327.17328 464.93729,326.7634 465.14454,326.55615 465.24816,326.45252 465.48056,326.65977 465.58418,326.55615 465.80401,326.33632 465.36436,325.45703 465.58418,325.23721 465.68781,325.13359 465.9202,325.34084 466.02383,325.23721 466.24365,325.01739 465.80401,324.1381 466.02383,323.91828 466.12745,323.81465 466.35985,324.0219 466.46347,323.91828 466.82985,323.5519 466.0971,322.08642 466.46347,321.72005 466.5671,321.61642 466.79949,321.82368 466.90312,321.72005 467.10635,321.51682 466.7704,320.66656 466.90312,320.40111 466.99582,320.21574 467.25008,320.14684 467.34276,319.96147 467.57339,319.50022 466.99186,318.11415 467.34276,317.76324 467.44639,317.65962 467.67878,317.86687 467.78241,317.76324 467.82951,317.71614 467.78241,313.3944 467.78241,312.92715 467.78241,312.74612 467.89879,311.72459 467.78241,311.60821 467.67878,311.50459 467.44639,311.71184 467.34276,311.60821 467.13953,311.40498 467.47549,310.55472 467.34276,310.28928 467.25006,310.10391 466.99581,310.035 466.90312,309.84963 466.77204,309.58748 467.11037,309.17759 466.90312,308.97034 466.79949,308.86672 466.5671,309.07397 466.46347,308.97034 466.35985,308.86672 466.52897,308.66177 466.46347,308.5307 466.37077,308.34533 466.13879,308.26349 466.02383,308.09105 465.54983,307.38005 465.14454,306.62557 464.70489,305.89283 z"
       inkscape:connector-curvature="0"
       id="path3004"
       style="fill:none;stroke:#0000e9;stroke-width:1;stroke-miterlimit:4;stroke-opacity:1;stroke-dasharray:none;stroke-dashoffset:0" />
    <path
       d="M 456.35164,341.94373 C 450.81844,352.69569 451.06083,361.22627 460.74809,366.12421"
       inkscape:connector-curvature="0"
       id="path3006"
       style="fill:none;stroke:#0000e9;stroke-width:1;stroke-miterlimit:4;stroke-opacity:1;stroke-dasharray:none;stroke-dashoffset:0" />
    <path
       d="M 439.61996,276.01984 C 435.86944,238.68434 471.99287,244.46693 482.30933,246.56704 483.28099,234.69068 485.26117,217.45256 480.97176,206.97267 468.95161,185.243 464.51397,184.438 441.85312,184.82414 423.0262,189.76594 425.06973,231.44022 422.22846,245.72915 421.12354,253.4062 420.07646,261.67699 422.25266,269.13672 422.64578,271.06397 432.14363,280.72512 432.9088,280.8422"
       inkscape:connector-curvature="0"
       id="path3008"
       style="fill:none;stroke:#0000e9;stroke-width:1;stroke-miterlimit:4;stroke-opacity:1;stroke-dasharray:none;stroke-dashoffset:0" />
    <path
       d="M 439.64512,282.59163 C 438.78201,281.20748 440.47006,281.72077 439.80061,281.73758"
       inkscape:connector-curvature="0"
       id="path3010"
       style="fill:none;stroke:#0000e9;stroke-width:1;stroke-miterlimit:4;stroke-opacity:1;stroke-dasharray:none;stroke-dashoffset:0" />
    <path
       d="M 459.18456,280.79266 C 450.65725,280.33706 446.87803,284.68486 438.32619,275.55731"
       inkscape:connector-curvature="0"
       id="path3016"
       style="fill:none;stroke:#0000e9;stroke-width:1;stroke-miterlimit:4;stroke-opacity:1;stroke-dasharray:none;stroke-dashoffset:0" />
    <path
       d="M 395.24096,368.76208 C 403.00571,361.97162 405.45649,354.2955 406.23209,346.34018 407.54435,322.94572 417.7166,306.63925 424.25754,287.42773 426.98149,281.2983 432.55888,280.87577 438.76583,281.71234 L 462.94631,305.01354"
       inkscape:connector-curvature="0"
       id="path3018"
       style="fill:none;stroke:#0000e9;stroke-width:1;stroke-miterlimit:4;stroke-opacity:1;stroke-dasharray:none;stroke-dashoffset:0" />
    <path
       d="M 432.17116,282.15199 C 426.36471,287.39561 430.92181,322.35537 436.56761,339.7455 443.04392,347.90707 449.27957,352.69943 454.59306,344.5816"
       inkscape:connector-curvature="0"
       id="path3022"
       style="fill:none;stroke:#0000e9;stroke-width:1;stroke-miterlimit:4;stroke-opacity:1;stroke-dasharray:none;stroke-dashoffset:0" />
    <path
       d="M 461.10377,306.66446 C 454.49912,307.05495 448.7264,312.05535 445.81236,317.66933 443.70234,325.02436 446.61062,333.05848 451.23923,338.82725 452.30753,340.22114 454.21761,341.73339 455.84177,340.11871 459.04697,337.89767 461.1492,334.32071 462.76618,330.84494 465.00052,328.32591 465.64807,324.3655 466.62681,321.13153 467.52555,317.66675 467.8813,313.76921 466.97028,310.26406 465.96736,308.57092 465.2964,305.45294 462.70524,306.5135 462.17142,306.5638 461.63759,306.61414 461.10377,306.66446 z"
       inkscape:connector-curvature="0"
       id="path3005"
       style="fill:#bfb879;stroke:none" />
    <path
       d="M 434.21672,281.87947 C 431.15776,281.82277 430.7378,285.75875 430.30113,288.04824 428.85729,302.05089 431.26439,316.15809 434.1755,329.82826 435.39175,334.72293 436.13235,340.23758 440.33916,343.54832 442.91379,346.3296 446.76638,349.46622 450.78585,347.89493 452.68023,346.30659 455.15656,344.54181 455.73185,342.01468 455.02343,340.34167 452.38218,341.8876 451.44531,340.14618 448.11506,336.51699 446.0308,331.74578 445.02924,326.99805 444.23684,322.32958 444.11798,317.01821 447.73581,313.4927 450.95103,308.9729 456.28249,306.802 461.52967,305.89508 462.96488,304.63795 459.92524,303.30097 459.43721,302.22422 452.65372,295.34956 445.66288,288.56877 438.57196,282.04433 437.12045,282.00683 435.66817,281.86646 434.21672,281.87947 z"
       inkscape:connector-curvature="0"
       id="path3007"
       style="fill:#8a7294;stroke:none" />
    <path
       d="M 430.57591,282.22294 C 428.18603,282.86538 425.607,284.78917 425.204,287.2926 424.50564,289.20005 423.11386,291.23951 422.45492,293.32226 415.95901,309.3117 408.48856,325.33966 406.84074,342.73664 406.05524,351.20237 404.1816,359.99363 398.10586,366.27325 397.16598,367.13406 395.37804,369.41452 397.86357,369.43754 412.54474,372.39509 427.28798,376.07003 442.32268,376.29326 443.15692,375.81766 442.99982,374.56761 444.19117,374.30112 448.91353,371.06736 454.31574,368.94916 459.67492,367.01949 460.60547,365.47341 457.81359,365.04029 457.14696,363.95572 452.59957,360.59963 452.05196,354.44285 453.10772,349.28256 453.55733,346.97586 450.81804,348.3732 449.72795,348.77422 444.60302,349.66072 440.93684,344.87659 437.85753,341.65746 434.63914,337.20414 434.39907,331.36134 432.96022,326.20711 430.1837,312.83519 428.46532,298.91209 430.27365,285.32793 430.30285,284.45315 432.11091,282.43004 430.57591,282.22294 z"
       inkscape:connector-curvature="0"
       id="path3013"
       style="fill:#95c990;stroke:none" />
    <path
       d="M 388.37272,369.50074 C 386.28413,369.85833 383.39239,369.01144 381.80552,370.66855 381.73782,373.83653 384.04971,376.63092 384.99657,379.60383 389.06127,389.2335 396.18037,397.84086 405.94554,402.01263 413.21202,405.63723 421.39861,406.52931 429.42458,406.16989 447.26264,406.13839 465.22078,403.58309 481.78357,396.77248 487.22997,394.29413 493.10281,392.21929 497.65201,388.25435 499.52158,385.733 501.04884,382.71809 501.98179,379.83982 497.58685,374.67516 490.69369,371.8379 484.05049,371.41045 480.37624,376.01511 474.08896,376.54232 468.56681,376.39171 454.8203,376.31891 440.99821,377.0967 427.30879,375.5596 415.37505,374.08235 403.7868,370.27595 391.7663,369.52064 390.63516,369.50324 389.50396,369.47294 388.37272,369.50074 z"
       inkscape:connector-curvature="0"
       id="path3011"
       style="fill:#c7a1db;stroke:none" />
    <path
       d="M 550.23082,352.10728 C 547.17211,352.70655 544.05929,353.84517 541.58905,355.55575 533.46116,357.77023 525.71371,361.30813 518.82984,366.22898 515.97015,368.3993 512.89084,370.26789 509.45374,371.30054 504.92468,373.59859 502.60255,378.73442 501.5676,383.41826 503.10222,384.31906 505.07403,382.48087 506.66474,382.20923 522.6449,375.19023 539.36393,367.77974 550.95898,354.31924 551.95849,353.46005 551.95419,351.71577 550.23082,352.10728 z"
       inkscape:connector-curvature="0"
       id="path3015"
       style="fill:#6abbd5;stroke:none" />
    <path
       d="M 395.43433,367.67074 C 395.55708,360.78922 393.00031,352.56793 389.83856,344.04416 385.07179,350.62284 380.30503,348.60721 375.53826,347.15292"
       inkscape:connector-curvature="0"
       id="path3012"
       style="fill:none;stroke:#0000e9;stroke-width:1;stroke-miterlimit:4;stroke-opacity:1;stroke-dasharray:none;stroke-dashoffset:0" />
    <path
       d="M 386.3382,347.5939 C 383.3077,350.25336 379.58758,347.5417 376.31244,348.58481 375.81786,352.28566 377.83089,356.24465 378.3582,359.9735 379.38628,363.19088 379.72593,367.08412 381.6362,369.72438 385.9186,368.74268 390.32612,368.53183 394.71242,368.98605 395.79423,365.67608 394.22463,361.47769 393.68486,357.90623 392.4615,353.96658 392.08476,348.99086 389.42753,346.00066 388.39775,346.53174 387.36797,347.06282 386.3382,347.5939 z"
       inkscape:connector-curvature="0"
       id="path3017"
       style="fill:#9993c0;stroke:none" />
    <path
       d="M 464.75968,305.49553 458.85304,282.4907 C 457.43138,275.18724 481.82152,268.09708 482.79049,246.73995"
       inkscape:connector-curvature="0"
       id="path3019"
       style="fill:none;stroke:#0000e9;stroke-width:1;stroke-miterlimit:4;stroke-opacity:1;stroke-dasharray:none;stroke-dashoffset:0" />
    <path
       d="M 475.01859,299.58889 C 481.35097,304.5236 495.42371,299.77609 503.30831,307.98254 506.23636,313.91125 502.1176,318.21378 494.29291,321.66109 487.85834,323.07077 486.20267,327.66639 482.16874,330.67649 472.36695,347.37074 474.13594,361.98664 472.84246,367.98162"
       inkscape:connector-curvature="0"
       id="path3021"
       style="fill:none;stroke:#0000e9;stroke-width:1;stroke-miterlimit:4;stroke-opacity:1;stroke-dasharray:none;stroke-dashoffset:0" />
    <path
       d="M 482.79049,330.67649 C 476.36572,331.39649 469.94095,334.21932 463.51618,330.36561"
       inkscape:connector-curvature="0"
       id="path3023"
       style="fill:none;stroke:#0000e9;stroke-width:1;stroke-miterlimit:4;stroke-opacity:1;stroke-dasharray:none;stroke-dashoffset:0" />
    <path
       d="M 526.62402,304.5629 C 525.08238,305.49304 526.96655,304.05005 525.32465,305.60306 523.27158,308.52909 525.79526,311.77061 528.70076,312.66768 531.62039,313.73271 534.16303,315.53049 537.10935,316.47732 541.52806,318.08676 545.86567,321.79214 545.94231,326.82391 545.3828,331.08319 540.68327,333.14802 536.88876,333.67191 529.85708,333.66591 522.82597,334.70563 515.99876,336.3452 510.49089,337.86438 505.89238,341.38329 500.78721,343.80472 496.06591,346.2546 491.48257,350.12102 490.20806,355.50039 489.39508,358.57498 492.41321,362.10664 495.60513,360.94917 499.12525,359.49357 500.94287,355.82033 503.93263,353.62131 507.16333,350.39952 510.39585,347.00359 514.68362,345.20327 520.26041,342.02013 526.84929,339.26966 533.33919,341.14533 538.12694,341.92213 543.09612,341.0426 547.58307,339.3369 551.40339,337.1392 553.48057,332.64297 553.94792,328.4193 553.14432,321.23107 548.51798,315.27638 543.56277,310.32488 540.9058,307.94945 539.20378,304.43068 535.7116,303.10998 532.93605,301.9675 529.26051,301.91049 526.94088,303.97296 L 526.62402,304.5629 526.62402,304.5629 z"
       inkscape:connector-curvature="0"
       id="path3025"
       style="fill:none;stroke:#0000e9;stroke-width:1;stroke-miterlimit:4;stroke-opacity:1;stroke-dasharray:none;stroke-dashoffset:0" />
    <path
       d="M 475.32947,299.27801 C 472.47075,302.42813 470.96939,306.89043 466.62494,308.60429"
       inkscape:connector-curvature="0"
       id="path3030"
       style="fill:none;stroke:#0000e9;stroke-width:1;stroke-miterlimit:4;stroke-opacity:1;stroke-dasharray:none;stroke-dashoffset:0" />
    <path
       d="M 464.94952,367.13634 C 457.31883,367.38421 450.13993,370.75502 443.96539,375.0151 442.86288,376.27994 445.19196,376.37075 446.01523,376.29747 455.85373,376.39297 465.73007,376.44431 475.53874,375.64657 478.4239,375.01004 481.67365,373.94644 483.21349,371.25545 481.5283,369.96151 479.08164,369.61606 477.04455,368.85587 473.13297,367.68744 469.04575,367.0034 464.94952,367.13634 z"
       inkscape:connector-curvature="0"
       id="path3032"
       style="fill:#8791c7;stroke:none" />
    <path
       d="M 530.97182,302.66842 C 528.256,302.67842 525.85733,304.8211 524.84174,307.18584 524.57814,310.23695 527.44957,312.28992 530.05936,313.0766 534.36279,315.34146 539.44635,316.55693 542.97941,319.9609 545.87053,322.59159 547.29504,327.71557 544.09662,330.66669 540.06315,334.52279 533.96461,333.63849 528.84903,334.35533 521.82456,335.1348 514.59714,336.14365 508.46246,339.88611 502.47355,343.32528 495.30984,345.95619 491.73344,352.29201 490.20735,354.58378 489.48806,358.2384 492.09289,360.05419 493.6543,361.3606 495.93685,361.08787 497.30006,359.61703 503.52687,354.13458 508.80256,347.36895 516.61037,344.04268 521.56069,341.35917 527.24755,339.76306 532.89289,340.7899 537.92171,341.62305 543.29629,341.04636 547.89514,338.83691 551.31043,336.43592 553.56801,332.17846 553.59777,327.97567 552.71155,320.49039 547.38181,314.68377 542.45064,309.41551 539.57496,306.5193 536.69568,302.43005 532.08927,302.6759 531.71695,302.6604 531.34428,302.6523 530.97182,302.6689 z"
       inkscape:connector-curvature="0"
       id="path3034"
       style="fill:#d5be93;stroke:none" />
    <path
       d="M 464.24422,331.09415 C 462.75843,331.41719 462.6289,333.07996 461.86408,334.0669 461.12986,334.5109 461.22107,335.57773 460.3777,336.03902 459.97843,337.34552 458.7201,338.08044 458.09471,339.32265 457.5154,340.39679 454.92363,340.42791 455.97687,342.04281 456.45093,342.92423 455.3211,344.07348 455.1759,344.98137 452.97285,350.03119 451.533,356.52905 455.1709,361.30741 456.49165,363.34808 458.77402,364.4462 460.45579,366.01913 460.43289,367.49713 462.61481,366.78143 463.50602,366.90047 466.43443,366.62327 469.38883,367.03355 472.26908,367.25292 473.49436,365.84763 472.91683,363.56493 473.32545,361.84287 473.98446,351.71954 476.04451,341.62831 480.77931,332.6291 481.51299,331.65399 480.40215,330.80413 479.42646,331.3927 474.54026,332.14962 469.14996,333.43243 464.51661,331.09415 464.42691,331.07835 464.33428,331.07835 464.24459,331.09415 z"
       inkscape:connector-curvature="0"
       id="path3044"
       style="fill:#7c797c;stroke:none" />
    <path
       d="M 475.30364,300.33685 C 473.23943,301.42459 472.45738,304.02073 470.8348,305.60231 469.83658,307.01739 468.09822,307.7683 466.96828,309.01223 468.5356,312.38582 467.67747,316.2613 467.48317,319.83461 466.63446,322.18529 466.65511,324.8593 465.35826,327.10718 464.95763,328.27698 463.62678,330.53818 465.46247,331.12329 470.57153,333.08044 476.11993,331.64525 481.288,330.71527 485.40774,328.2806 488.0178,323.64661 492.57669,321.98159 495.51584,321.32989 498.0546,319.40658 500.50403,317.71676 503.39834,315.70811 505.21468,311.4187 503.0299,308.22533 499.41103,304.01621 493.42653,303.20817 488.18682,302.70856 483.83652,302.35213 479.4186,302.0043 475.37164,300.32714 L 475.30364,300.33714 z"
       inkscape:connector-curvature="0"
       id="path3024"
       style="fill:#c9ca98;stroke:none" />
    <path
       d="M 466.60105,245.29236 C 458.07543,245.09812 448.70658,247.87708 443.67394,255.17239 440.70935,259.66175 439.48303,265.10438 439.70056,270.45389 439.90496,272.51753 439.1317,274.89328 439.94459,276.76977 442.55164,279.69562 446.42933,281.66135 450.42578,281.09168 453.22545,280.75158 456.24385,281.15368 458.90687,280.20763 461.38172,276.51584 465.17971,273.88897 468.4017,270.88201 474.42156,265.8608 479.85147,259.67026 481.7748,251.89134 482.02343,250.33829 483.02116,248.46215 482.18371,246.99246 479.65552,245.8277 476.66405,245.85025 473.91743,245.48027 471.48349,245.29863 469.04088,245.26728 466.60105,245.29236 z"
       inkscape:connector-curvature="0"
       id="path3028"
       style="fill:#c7afc8;stroke:none" />
    <path
       d="M 440.29317,278.43952 C 439.51127,279.65598 440.12354,281.49493 440.21547,282.84036 447.88589,290.07849 455.25462,297.67376 463.15229,304.64054 464.06022,305.33923 464.59241,303.90006 463.98777,303.22217 462.11607,295.89146 460.225,288.4999 458.42115,281.18883 456.78283,280.40527 454.76769,281.4318 453.00024,281.31512 449.10988,281.78537 444.95318,281.37712 441.73309,278.96532 441.26863,278.76558 440.84075,278.2871 440.29319,278.43952 z"
       inkscape:connector-curvature="0"
       id="path3031"
       style="fill:#d0cf6e;stroke:none" />
    <path
       d="M 441.30546,185.02127 C 435.15422,187.29823 431.54853,193.2977 429.48878,199.20421 424.01299,214.77834 424.65871,231.57602 422.1194,247.72846 421.42814,254.55371 420.62055,261.63328 422.2643,268.36519 423.77908,272.2626 427.32961,274.89185 430.03794,277.95222 431.67364,279.30618 432.81873,281.85876 435.32813,281.31792 436.85923,281.10389 438.9711,282.17564 440.18825,280.92653 440.67581,279.44066 440.75381,277.466 439.13904,276.67141 438.58871,276.27022 438.19034,275.67603 439.05164,275.44734 439.82197,273.64062 438.85538,271.52239 439.23226,269.59949 439.499,262.86593 441.39797,255.72638 446.72639,251.24758 452.56302,245.91272 460.93763,244.76392 468.61401,245.01063 473.0243,244.89728 477.39374,245.6272 481.74852,246.05984 482.85198,244.7672 482.26,242.67036 482.64318,241.08837 483.14173,231.23115 484.13102,221.18455 482.18569,211.4263 480.70698,205.44162 476.87599,200.40367 473.45202,195.38704 470.12477,190.53684 465.1481,186.63573 459.20029,185.79846 453.29974,184.80335 447.25699,185.02319 441.30549,185.02127 z"
       inkscape:connector-curvature="0"
       id="path3029"
       style="fill:#e075df;stroke:none" />
  </g>
</svg>
