<?xml version="1.0" encoding="UTF-8" standalone="no"?>
<!-- Created with Inkscape (http://www.inkscape.org/) -->

<svg
   xmlns:dc="http://purl.org/dc/elements/1.1/"
   xmlns:cc="http://creativecommons.org/ns#"
   xmlns:rdf="http://www.w3.org/1999/02/22-rdf-syntax-ns#"
   xmlns:svg="http://www.w3.org/2000/svg"
   xmlns="http://www.w3.org/2000/svg"
   xmlns:xlink="http://www.w3.org/1999/xlink"
   xmlns:inkscape="http://www.inkscape.org/namespaces/inkscape"
   version="1.1"
   width="740"
   height="520"
   id="svg2"
   style="display:inline;enable-background:new">
  <defs
     id="defs4">
    <filter
       color-interpolation-filters="sRGB"
       id="filter3050">
      <feBlend
         in2="BackgroundImage"
         mode="lighten"
         id="feBlend3052" />
    </filter>
  </defs>
  <metadata
     id="metadata7">
    <rdf:RDF>
      <cc:Work
         rdf:about="">
        <dc:format>image/svg+xml</dc:format>
        <dc:type
           rdf:resource="http://purl.org/dc/dcmitype/StillImage" />
        <dc:title />
      </cc:Work>
    </rdf:RDF>
  </metadata>
  <g
     id="g3304"
     style="display:none">
    <image
       xlink:href="pngs/coronal-0597.png"
       id="image3306"
       height="520"
       width="740"
       y="0"
       x="0" />
  </g>
  <g
     id="g3312"
     style="display:inline">
    <path
       d="M 372.54451,404.97586 C 376.6913,422.3328 403.46188,412.60122 417.24565,414.68769 433.87939,413.07071 453.08592,408.2166 466.97382,420.72074 480.47513,429.59598 495.01868,434.47741 510.81201,433.2127 528.55302,440.21489 547.22583,447.63033 566.30703,440.40015 581.97982,435.57307 593.75611,421.8123 600.75796,407.49086 611.19739,384.6013 623.82593,362.29437 640.20368,343.03194 649.71334,329.78641 666.00604,319.66501 668.59755,302.71612 674.92375,288.51945 681.63019,272.93699 678.04554,256.93045 675.15823,241.35679 673.58775,225.5441 668.85909,210.42237 663.93558,195.0442 656.2524,180.03704 649.52976,165.00332 640.00727,148.4821 628.70142,133.52037 612.77287,121.74299 599.01351,107.44247 579.60735,99.149164 562.69807,88.787901 517.92235,70.182801 470.09441,55.055577 421.04118,56.79466 401.7107,52.413652 381.41786,60.150684 368.26997,74.547784 365.95028,94.409332 364.6882,114.36035 366.99845,134.3369 368.36144,146.18604 364.65529,171.23742 383.84438,161.62549 403.75888,165.60872 410.64935,146.34989 422.90643,137.62243 440.47346,140.30885 458.17455,142.86204 474.73524,149.92609 493.68235,158.08867 513.75475,163.52634 531.62667,174.09816 548.23737,183.08873 565.13243,193.12038 576.38735,208.63157 590.0011,223.67916 600.69484,241.61003 607.33344,260.67868 610.85419,278.20385 605.82736,294.94776 599.75321,311.16854 595.99707,327.96825 587.05859,343.44799 573.53618,353.92331 563.58874,364.44055 537.08265,374.14988 529.3535,357.90619 542.61346,347.51672 565.2391,360.58856 578.01414,346.37984 588.29207,333.6471 595.83532,318.45826 599.60125,302.44032 605.53169,284.49013 605.46193,264.57992 595.95207,247.86051 586.7642,230.95014 576.12298,214.52147 560.80805,202.43217 545.74868,188.28926 527.93776,177.25273 508.0675,171.36081 489.1816,166.90064 469.739,166.64382 451.37597,158.9296 431.53722,153.64842 413.01517,163.11266 394.43893,168.28387 388.01415,169.30793 366.89568,173.406 383.88745,176.19748 397.97711,193.065 419.38362,194.60518 439.63175,198.4482 460.51968,200.39403 475.29726,233.36434 448.31458,238.52885 428.03068,235.85108 407.54963,231.98121 386.96497,233.791 380.33826,237.26522 368.94634,238.68111 364.54307,239.94603"
       inkscape:connector-curvature="0"
       id="path3314"
       style="fill:none;stroke:#e20000;stroke-opacity:1" />
    <path
       d="M 398.39574,319.08218 C 399.90126,319.54144 399.75466,317.74325 400.59397,317.3236 400.85612,317.19252 401.26601,317.53085 401.47326,317.3236 401.57688,317.21997 401.36963,316.98758 401.47326,316.88395 401.68051,316.6767 402.1453,317.0912 402.35255,316.88395 402.45617,316.78033 402.24892,316.54793 402.35255,316.44431 402.45617,316.34068 402.68857,316.54793 402.79219,316.44431 402.89582,316.34068 402.68857,316.10829 402.79219,316.00466 402.99944,315.79741 403.46423,316.21191 403.67148,316.00466 403.77511,315.90104 403.56786,315.66864 403.67148,315.56502 403.82281,315.41369 406.59767,315.41369 406.749,315.56502 406.85262,315.66864 406.64537,315.90104 406.749,316.00466 406.96882,316.22449 407.84811,315.78484 408.06793,316.00466 408.17156,316.10829 407.96431,316.34068 408.06793,316.44431 408.17156,316.54793 408.3765,316.37881 408.50758,316.44431 410.33728,317.35916 408.03758,316.41401 408.94722,317.3236 409.05085,317.42722 409.25579,317.2581 409.38687,317.3236 411.21657,318.23845 408.91687,317.2933 409.82651,318.20289 409.93014,318.30651 410.16253,318.09926 410.26616,318.20289 410.36978,318.30651 410.26616,318.49599 410.26616,318.64253 410.41271,318.64253 410.60218,318.53891 410.7058,318.64253 410.9989,318.93563 410.41271,320.10802 410.7058,320.40111 410.80943,320.50474 411.04182,320.29749 411.14545,320.40111 411.3527,320.60837 411.01437,321.01825 411.14545,321.2804 411.23815,321.46578 411.49241,321.53468 411.58509,321.72005 411.81662,322.1831 411.58509,324.58514 411.58509,325.23721 411.58509,325.38376 411.68872,325.57323 411.58509,325.67686 411.48147,325.78048 411.24907,325.57323 411.14545,325.67686 410.9382,325.88411 411.14545,326.26305 411.14545,326.55615 411.14545,327.58002 411.10665,327.0734 410.7058,327.87508 410.57473,328.13724 410.91305,328.54712 410.7058,328.75437 410.60218,328.858 410.36978,328.65075 410.26616,328.75437 410.16253,328.858 410.33166,329.06294 410.26616,329.19402 410.17346,329.37939 409.9192,329.44829 409.82651,329.63366 409.69544,329.89582 410.03376,330.3057 409.82651,330.51295 409.72289,330.61658 409.49049,330.40933 409.38687,330.51295 409.17962,330.7202 409.59412,331.18499 409.38687,331.39224 408.21448,331.39224 409.53342,331.24569 408.94722,331.83189 408.8436,331.93551 408.6112,331.72826 408.50758,331.83189 408.40395,331.93551 408.57308,332.14046 408.50758,332.27153 407.59273,334.10123 408.53788,331.80154 407.62829,332.71118 407.52466,332.8148 407.62829,333.00427 407.62829,333.15082 407.48174,333.15082 407.29227,333.0472 407.18864,333.15082 407.08502,333.25445 407.29227,333.48684 407.18864,333.59047 406.98139,333.79772 406.5166,333.38322 406.30935,333.59047 406.20573,333.69409 406.41298,333.92649 406.30935,334.03011 406.20573,334.13374 406.01626,334.03011 405.86971,334.03011 405.21763,334.03011 402.8156,334.26164 402.35255,334.03011 402.16718,333.93741 402.09827,333.68315 401.9129,333.59047 401.56118,333.41461 400.94568,333.76633 400.59397,333.59047 400.40859,333.49777 400.33969,333.24351 400.15432,333.15082 400.02324,333.08532 399.8183,333.25445 399.71468,333.15082 399.61105,333.0472 399.8183,332.8148 399.71468,332.71118 399.50742,332.50393 399.09754,332.84225 398.83539,332.71118 398.65001,332.61848 398.58111,332.36422 398.39574,332.27153 398.26466,332.20603 398.05972,332.37516 397.95609,332.27153 397.85247,332.16791 398.05972,331.93551 397.95609,331.83189 397.85247,331.72826 397.62008,331.93551 397.51645,331.83189 397.41282,331.72826 397.62008,331.49587 397.51645,331.39224 397.41282,331.28862 397.18043,331.49587 397.0768,331.39224 396.97318,331.28862 397.18043,331.05622 397.0768,330.9526 396.97318,330.84897 396.76824,331.0181 396.63716,330.9526 396.45179,330.8599 396.38289,330.60564 396.19751,330.51295 396.06644,330.44745 395.86149,330.61658 395.75787,330.51295 395.55062,330.3057 395.88895,329.89582 395.75787,329.63366 395.66517,329.44829 395.41091,329.37939 395.31822,329.19402 395.18849,328.93455 395.31822,328.17058 395.31822,327.87508 395.31822,327.53821 395.28762,324.38855 395.31822,324.35792 395.42185,324.2543 395.65424,324.46155 395.75787,324.35792 395.97769,324.1381 395.53805,323.25881 395.75787,323.03899 395.86149,322.93536 396.09389,323.14261 396.19751,323.03899 396.40477,322.83173 395.99026,322.36695 396.19751,322.1597 396.30114,322.05607 396.53353,322.26332 396.63716,322.1597 396.74078,322.05607 396.57166,321.85113 396.63716,321.72005 396.72986,321.53468 396.98412,321.46578 397.0768,321.2804 397.1423,321.14933 396.97318,320.94438 397.0768,320.84076 397.18043,320.73713 397.3699,320.84076 397.51645,320.84076 397.80955,320.25457 398.10264,319.66837 398.39574,319.08218 z"
       inkscape:connector-curvature="0"
       id="path3316"
       style="opacity:0.6;fill:none;stroke:#e20000;stroke-opacity:1" />
    <path
       d="M 462.58393,314.24608 C 463.02357,314.83228 463.46322,315.41847 463.90286,316.00466 463.90286,316.15121 463.83736,316.31323 463.90286,316.44431 463.99556,316.62968 464.24982,316.69858 464.34251,316.88395 464.47359,317.14611 464.21143,317.50109 464.34251,317.76324 464.43521,317.94861 464.68947,318.01752 464.78215,318.20289 465.07525,318.78908 464.48906,319.81492 464.78215,320.40111 464.87485,320.58649 465.12911,320.65539 465.2218,320.84076 465.35153,321.10022 465.2218,321.8642 465.2218,322.1597 465.2218,322.50394 465.00243,324.13855 465.2218,324.35792 465.32542,324.46155 465.55782,324.2543 465.66144,324.35792 465.78459,324.48107 465.75134,326.37628 465.66144,326.55615 465.56874,326.74152 465.31448,326.81042 465.2218,326.99579 465.08908,327.26124 465.42503,328.11149 465.2218,328.31473 465.11817,328.41835 464.88578,328.2111 464.78215,328.31473 464.67853,328.41835 464.84765,328.62329 464.78215,328.75437 464.68945,328.93974 464.43519,329.00865 464.34251,329.19402 464.27701,329.32509 464.44613,329.53004 464.34251,329.63366 464.23888,329.73729 464.00649,329.53004 463.90286,329.63366 463.90286,330.80605 464.04941,329.48711 463.46322,330.07331 463.35959,330.17693 463.56684,330.40933 463.46322,330.51295 463.24385,330.73232 461.60924,330.51295 461.26499,330.51295 460.23395,330.51295 461.47224,330.61658 460.3857,330.07331 460.12026,329.94058 459.27,330.27654 459.06677,330.07331 458.96314,329.96968 459.17039,329.73729 459.06677,329.63366 458.96314,329.53004 458.73075,329.73729 458.62712,329.63366 458.5235,329.53004 458.73075,329.29764 458.62712,329.19402 458.5235,329.09039 458.2911,329.29764 458.18748,329.19402 458.08385,329.09039 458.2911,328.858 458.18748,328.75437 457.27784,327.84473 458.22308,330.14442 457.30819,328.31473 457.24269,328.18365 457.41181,327.97871 457.30819,327.87508 457.20456,327.77146 456.99962,327.94058 456.86854,327.87508 455.03884,326.96023 457.33854,327.90538 456.4289,326.99579 456.32527,326.89217 456.09288,327.09942 455.98925,326.99579 455.45377,326.46031 455.78331,326.01353 455.10996,325.67686 454.97888,325.61136 454.77394,325.78048 454.67032,325.67686 454.56669,325.57323 454.73582,325.36829 454.67032,325.23721 454.57762,325.05184 454.32336,324.98294 454.23067,324.79757 454.14227,324.62068 453.83453,323.08249 453.79103,323.03899 453.6874,322.93536 453.45501,323.14261 453.35138,323.03899 453.14815,322.83575 453.4841,321.9855 453.35138,321.72005 453.25868,321.53468 453.00442,321.46578 452.91174,321.2804 452.84624,321.14933 452.91174,320.98731 452.91174,320.84076 452.76519,320.54766 452.65386,320.23413 452.47209,319.96147 452.35713,319.78903 452.12513,319.70719 452.03244,319.52182 451.86088,319.1787 451.76436,318.10637 451.5928,317.76324 451.5001,317.57787 451.24584,317.50897 451.15315,317.3236 451.02208,317.06144 451.28423,316.70646 451.15315,316.44431 451.06045,316.25894 450.80619,316.19003 450.71351,316.00466 450.58243,315.74251 450.84459,315.38753 450.71351,315.12537 450.45744,314.61324 450.09028,314.31857 449.83422,313.80644 449.7015,313.54099 450.03745,312.69073 449.83422,312.4875 449.73059,312.38388 449.4982,312.59113 449.39457,312.4875 449.18732,312.28025 449.52565,311.87037 449.39457,311.60821 449.13851,311.09608 448.77135,310.80141 448.51528,310.28928 448.38421,310.02712 448.72253,309.61724 448.51528,309.40999 448.41166,309.30636 448.17926,309.51361 448.07564,309.40999 447.87241,309.20675 448.20836,308.3565 448.07564,308.09105 447.98294,307.90568 447.72868,307.83678 447.63599,307.65141 447.45297,307.28536 447.91487,306.1717 447.63599,305.89283 447.53237,305.7892 447.29997,305.99645 447.19635,305.89283 446.86147,305.55795 447.51461,302.13289 447.19635,301.49637 447.10365,301.311 446.84939,301.2421 446.7567,301.05673 446.7038,300.9509 446.7038,296.76611 446.7567,296.66028 446.8494,296.47491 447.10366,296.406 447.19635,296.22063 447.38157,295.85019 447.00575,293.77336 447.19635,293.58276 447.29997,293.47914 447.53237,293.68639 447.63599,293.58276 447.84324,293.37551 447.50492,292.96563 447.63599,292.70347 447.72869,292.5181 447.98295,292.4492 448.07564,292.26383 448.20672,292.00167 447.86839,291.59179 448.07564,291.38454 448.17926,291.28091 448.41166,291.48816 448.51528,291.38454 448.70588,291.19394 448.33006,289.11711 448.51528,288.74667 448.60798,288.5613 448.86224,288.49239 448.95493,288.30702 449.13079,287.9553 448.77907,287.3398 448.95493,286.98809 449.04763,286.80271 449.30189,286.73381 449.39457,286.54844 449.80491,285.72777 448.98424,284.2916 449.39457,283.47092 449.48727,283.28555 449.74153,283.21665 449.83422,283.03128 449.9653,282.76913 449.70314,282.41414 449.83422,282.15199 449.92692,281.96662 450.18118,281.89771 450.27386,281.71234 450.33936,281.58127 450.20836,281.40378 450.27386,281.2727 450.45924,280.90196 450.96778,280.76415 451.15315,280.39341 451.45637,279.78698 450.62072,280.00016 451.5928,279.51412 451.72388,279.44862 451.92882,279.61774 452.03244,279.51412 452.13607,279.41049 451.96694,279.20555 452.03244,279.07447 452.21782,278.70373 452.72636,278.56592 452.91174,278.19518 452.97724,278.06411 452.80811,277.85916 452.91174,277.75554 453.01536,277.65191 453.24775,277.85916 453.35138,277.75554 453.45501,277.65191 453.28588,277.44697 453.35138,277.31589 453.53675,276.94515 453.85993,276.62197 454.23067,276.4366 454.36175,276.3711 454.56669,276.54023 454.67032,276.4366 454.77394,276.33298 454.60482,276.12803 454.67032,275.99696 454.85569,275.62622 455.17886,275.30304 455.54961,275.11767 455.68068,275.05217 455.88563,275.22129 455.98925,275.11767 456.09288,275.01404 455.92375,274.8091 455.98925,274.67802 456.17462,274.30728 456.68317,274.16947 456.86854,273.79873 456.93404,273.66765 456.80304,273.49016 456.86854,273.35909 457.13233,272.83151 457.92369,272.56773 458.18748,272.04015 458.25298,271.90907 458.12198,271.73158 458.18748,271.60051 458.37285,271.22976 458.8814,271.09196 459.06677,270.72122 459.13227,270.59014 458.96314,270.3852 459.06677,270.28157 459.97641,269.37193 459.03117,271.67162 459.94606,269.84193 460.01156,269.71085 459.88056,269.53336 459.94606,269.40228 460.13143,269.03154 460.63998,268.89373 460.82535,268.52299 460.89085,268.39191 460.75985,268.21442 460.82535,268.08334 461.01072,267.7126 461.51927,267.5748 461.70464,267.20405 461.77014,267.07298 461.60101,266.86803 461.70464,266.76441 461.80826,266.66078 462.04066,266.86803 462.14428,266.76441 462.24791,266.66078 462.04066,266.42839 462.14428,266.32476 462.24791,266.22114 462.4803,266.42839 462.58393,266.32476 462.68755,266.22114 462.4803,265.98874 462.58393,265.88512 462.68755,265.78149 462.91995,265.98874 463.02357,265.88512 463.02357,264.71273 462.87702,266.03167 463.46322,265.44547 463.56684,265.34185 463.35959,265.10945 463.46322,265.00583 463.56684,264.9022 463.79924,265.10945 463.90286,265.00583 464.00649,264.9022 463.79924,264.66981 463.90286,264.56618 464.00649,264.46256 464.23888,264.66981 464.34251,264.56618 464.44613,264.46256 464.23888,264.23016 464.34251,264.12654 464.44613,264.02291 464.65108,264.19204 464.78215,264.12654 464.96752,264.03384 465.03643,263.77958 465.2218,263.68689 465.35288,263.62139 465.55782,263.79052 465.66144,263.68689 465.76507,263.58327 465.55782,263.35087 465.66144,263.24725 465.76507,263.14362 465.99746,263.35087 466.10109,263.24725 466.20471,263.14362 465.99746,262.91123 466.10109,262.8076 466.20471,262.70398 466.43711,262.91123 466.54073,262.8076 466.64436,262.70398 466.43711,262.47158 466.54073,262.36796 466.64436,262.26433 466.87675,262.47158 466.98038,262.36796 467.084,262.26433 466.87675,262.03194 466.98038,261.92831 467.084,261.82469 467.3164,262.03194 467.42002,261.92831 467.52365,261.82469 467.35452,261.61974 467.42002,261.48867 467.51272,261.3033 467.76698,261.23439 467.85967,261.04902 467.92517,260.91795 467.79417,260.74045 467.85967,260.60938 468.11573,260.09725 468.48289,259.80257 468.73896,259.29044 468.87004,259.02829 468.60788,258.67331 468.73896,258.41115 468.83166,258.22578 469.08592,258.15688 469.1786,257.97151 469.41308,257.50255 468.94413,256.68188 469.1786,256.21293 469.2713,256.02756 469.52556,255.95865 469.61825,255.77328 469.79411,255.42157 469.44239,254.80606 469.61825,254.45435 469.71095,254.26898 469.96521,254.20007 470.05789,254.0147 470.28942,253.55165 470.05789,251.14961 470.05789,250.49754 470.05789,249.1786 470.05789,247.85967 470.05789,246.54073 470.05789,245.26874 470.07559,246.08343 470.49754,245.66144 470.60117,245.55782 470.64409,245.2218 470.49754,245.2218 470.35099,245.2218 470.60117,245.55782 470.49754,245.66144 470.20444,245.95454 469.7648,245.5149 470.05789,245.2218 470.16152,245.11817 470.39391,245.32542 470.49754,245.2218 470.60117,245.11817 470.39391,244.88578 470.49754,244.78215 470.60117,244.67853 470.83356,244.88578 470.93719,244.78215 471.04081,244.67853 470.83356,244.44613 470.93719,244.34251 471.04081,244.23888 471.2732,244.44613 471.37683,244.34251 471.48046,244.23888 471.2732,244.00649 471.37683,243.90286 471.58408,243.69561 472.04887,244.11011 472.25612,243.90286 472.35975,243.79924 472.1525,243.56684 472.25612,243.46322 472.35975,243.35959 472.56469,243.52872 472.69577,243.46322 472.88114,243.37052 472.95004,243.11626 473.13541,243.02357 473.26649,242.95807 473.47143,243.1272 473.57506,243.02357 473.67868,242.91995 473.47143,242.68755 473.57506,242.58393 473.78231,242.37668 474.2471,242.79118 474.45435,242.58393 474.55797,242.4803 474.35072,242.24791 474.45435,242.14428 474.55797,242.04066 474.79037,242.24791 474.89399,242.14428 474.99762,242.04066 474.79037,241.80826 474.89399,241.70464 474.99762,241.60101 475.23001,241.80826 475.33364,241.70464 475.43726,241.60101 475.23001,241.36862 475.33364,241.26499 475.43726,241.16137 475.66966,241.36862 475.77328,241.26499 475.87691,241.16137 475.66966,240.92897 475.77328,240.82535 475.87691,240.72172 476.1093,240.92897 476.21293,240.82535 476.31655,240.72172 476.14743,240.51678 476.21293,240.3857 476.30563,240.20033 476.55989,240.13143 476.65257,239.94606 476.71807,239.81498 476.54895,239.61004 476.65257,239.50641 476.7562,239.40279 476.98859,239.61004 477.09222,239.50641 477.20366,239.39497 477.3109,236.86627 477.09222,236.4289 476.99952,236.24353 476.74526,236.17462 476.65257,235.98925 476.55112,235.78634 476.55112,234.43358 476.65257,234.23067 476.74527,234.0453 476.99953,233.9764 477.09222,233.79103 477.15772,233.65995 476.98859,233.45501 477.09222,233.35138 477.19584,233.24775 477.42824,233.45501 477.53186,233.35138 477.63549,233.24775 477.42824,233.01536 477.53186,232.91174 477.63549,232.80811 477.84043,232.97724 477.97151,232.91174 478.15688,232.81904 478.22578,232.56478 478.41115,232.47209 479.19274,232.08129 478.6554,232.71634 478.8508,232.91174 479.05805,233.11899 479.52284,232.70448 479.73009,232.91174 479.83371,233.01536 479.62646,233.24775 479.73009,233.35138 479.83371,233.45501 480.06611,233.24775 480.16973,233.35138 480.27336,233.45501 480.10423,233.65995 480.16973,233.79103 480.26243,233.9764 480.51669,234.0453 480.60938,234.23067 480.67488,234.36175 480.54388,234.53924 480.60938,234.67032 480.71371,234.87898 481.58241,235.89551 481.92831,235.54961 482.03194,235.44598 481.82469,235.21359 481.92831,235.10996 482.03194,235.00634 482.26433,235.21359 482.36796,235.10996 482.47158,235.00634 482.26433,234.77394 482.36796,234.67032 482.47158,234.56669 482.70398,234.77394 482.8076,234.67032 483.01485,234.46306 482.60035,233.99828 482.8076,233.79103 482.91123,233.6874 483.14362,233.89465 483.24725,233.79103 483.4545,233.58377 483.04,233.11899 483.24725,232.91174 483.35087,232.80811 483.58327,233.01536 483.68689,232.91174 483.89414,232.70448 483.47964,232.2397 483.68689,232.03244 483.79052,231.92882 484.02291,232.13607 484.12654,232.03244 484.42012,231.73887 483.83296,231.44673 484.12654,231.15315 484.23016,231.04953 484.46256,231.25678 484.56618,231.15315 484.66981,231.04953 484.50068,230.84459 484.56618,230.71351 484.65888,230.52814 484.91314,230.45924 485.00583,230.27386 485.07133,230.14279 484.94033,229.9653 485.00583,229.83422 485.1912,229.46348 485.51438,229.1403 485.88512,228.95493 486.50529,228.64484 486.78774,229.62606 487.20405,229.83422 487.33513,229.89972 487.54007,229.73059 487.6437,229.83422 487.6988,229.88932 487.45248,230.90473 488.08334,230.27386 488.18697,230.17024 487.97972,229.93784 488.08334,229.83422 488.18697,229.73059 488.41936,229.93784 488.52299,229.83422 488.73024,229.62697 488.31574,229.16218 488.52299,228.95493 489.10918,228.36874 488.96264,229.68767 488.96264,228.51528 488.96264,228.22219 488.75538,227.84324 488.96264,227.63599 489.06626,227.53237 489.29865,227.73962 489.40228,227.63599 489.6221,227.41617 489.18246,226.53688 489.40228,226.31706 489.50591,226.21343 489.7383,226.42068 489.84193,226.31706 489.94555,226.21343 489.77643,226.00849 489.84193,225.87741 489.93463,225.69204 490.18889,225.62314 490.28157,225.43777 490.34707,225.30669 490.17795,225.10175 490.28157,224.99812 490.3852,224.8945 490.61759,225.10175 490.72122,224.99812 490.82484,224.8945 490.61759,224.6621 490.72122,224.55848 490.82484,224.45485 491.05724,224.6621 491.16086,224.55848 491.26449,224.45485 491.05724,224.22246 491.16086,224.11883 491.25596,224.02373 492.78067,224.04943 492.91944,224.11883 493.10481,224.21153 493.17372,224.46579 493.35909,224.55848 493.49016,224.62398 493.69511,224.45485 493.79873,224.55848 493.90236,224.6621 493.69511,224.8945 493.79873,224.99812 493.90236,225.10175 494.09183,224.99812 494.23838,224.99812 494.23838,225.14467 494.13475,225.33414 494.23838,225.43777 494.342,225.54139 494.5744,225.33414 494.67802,225.43777 494.78165,225.54139 494.61252,225.74634 494.67802,225.87741 495.07886,226.67909 495.11767,226.17248 495.11767,227.19635 495.11767,228.22739 495.01404,226.9891 495.55731,228.07564 495.73317,228.42735 495.38145,229.04286 495.55731,229.39457 495.65001,229.57994 495.90427,229.64885 495.99696,229.83422 496.09841,230.03713 496.09841,231.38989 495.99696,231.5928 495.90426,231.77817 495.65,231.84707 495.55731,232.03244 495.2056,232.73588 495.90903,233.96688 495.55731,234.67032 495.46461,234.85569 495.21035,234.92459 495.11767,235.10996 495.06797,235.20936 495.01767,239.30649 495.11767,239.50641 495.21037,239.69178 495.46463,239.76069 495.55731,239.94606 495.93809,240.70762 495.17653,244.89988 495.55731,245.66144 495.65001,245.84681 495.90427,245.91572 495.99696,246.10109 496.04396,246.19519 496.04396,249.96384 495.99696,250.05789 495.90426,250.24327 495.65,250.31217 495.55731,250.49754 495.42624,250.75969 495.68839,251.11468 495.55731,251.37683 495.46461,251.5622 495.21035,251.6311 495.11767,251.81648 494.8828,252.2862 495.35253,252.22604 495.11767,252.69577 495.02497,252.88114 494.77071,252.95004 494.67802,253.13541 494.54694,253.39756 494.88527,253.80745 494.67802,254.0147 494.5744,254.11833 494.342,253.91108 494.23838,254.0147 494.03113,254.22195 494.36945,254.63184 494.23838,254.89399 494.14568,255.07936 493.89142,255.14827 493.79873,255.33364 493.73323,255.46471 493.90236,255.66966 493.79873,255.77328 493.69511,255.87691 493.46271,255.66966 493.35909,255.77328 493.25546,255.87691 493.46271,256.1093 493.35909,256.21293 493.25546,256.31655 493.02307,256.1093 492.91944,256.21293 492.81582,256.31655 493.02307,256.54895 492.91944,256.65257 492.81582,256.7562 492.58342,256.54895 492.4798,256.65257 492.37617,256.7562 492.5453,256.96114 492.4798,257.09222 492.33325,257.38531 491.45396,258.2646 491.16086,258.41115 491.02978,258.47665 490.82484,258.30753 490.72122,258.41115 490.61759,258.51478 490.82484,258.74717 490.72122,258.8508 490.61759,258.95442 490.3852,258.74717 490.28157,258.8508 490.17795,258.95442 490.3852,259.18682 490.28157,259.29044 490.07432,259.49769 489.60953,259.08319 489.40228,259.29044 489.29865,259.39407 489.40228,259.58354 489.40228,259.73009 489.25573,259.73009 489.06626,259.62646 488.96264,259.73009 488.85901,259.83371 489.06626,260.06611 488.96264,260.16973 488.74281,260.38956 487.86352,259.94991 487.6437,260.16973 487.54007,260.27336 487.6437,260.46283 487.6437,260.60938 487.49715,260.60938 487.30768,260.50575 487.20405,260.60938 487.10043,260.713 487.30768,260.9454 487.20405,261.04902 486.9968,261.25627 486.53202,260.84177 486.32476,261.04902 486.22114,261.15265 486.42839,261.38504 486.32476,261.48867 486.11751,261.69592 485.70763,261.35759 485.44547,261.48867 485.2601,261.58137 485.1912,261.83563 485.00583,261.92831 484.87475,261.99381 484.66981,261.82469 484.56618,261.92831 484.46256,262.03194 484.66981,262.26433 484.56618,262.36796 484.46256,262.47158 484.25762,262.30246 484.12654,262.36796 483.7558,262.55333 483.61799,263.06188 483.24725,263.24725 483.11617,263.31275 482.91123,263.14362 482.8076,263.24725 482.70398,263.35087 482.8731,263.55582 482.8076,263.68689 481.89275,265.51659 482.8379,263.2169 481.92831,264.12654 481.82469,264.23016 482.03194,264.46256 481.92831,264.56618 481.82469,264.66981 481.59229,264.46256 481.48867,264.56618 481.38504,264.66981 481.59229,264.9022 481.48867,265.00583 480.57903,265.91547 481.52427,263.61578 480.60938,265.44547 480.54388,265.57655 480.713,265.78149 480.60938,265.88512 480.50575,265.98874 480.30081,265.81962 480.16973,265.88512 479.79899,266.07049 479.47581,266.39367 479.29044,266.76441 479.22494,266.89549 479.39407,267.10043 479.29044,267.20405 479.18682,267.30768 478.95442,267.10043 478.8508,267.20405 478.74717,267.30768 478.95442,267.54007 478.8508,267.6437 478.74717,267.74733 478.51478,267.54007 478.41115,267.6437 478.30753,267.74733 478.51478,267.97972 478.41115,268.08334 478.30753,268.18697 478.07513,267.97972 477.97151,268.08334 477.86788,268.18697 478.07513,268.41936 477.97151,268.52299 477.86788,268.62662 477.63549,268.41936 477.53186,268.52299 477.42824,268.62662 477.59736,268.83156 477.53186,268.96264 477.26807,269.49021 476.47671,269.754 476.21293,270.28157 476.14743,270.41265 476.31655,270.61759 476.21293,270.72122 476.1093,270.82484 475.87691,270.61759 475.77328,270.72122 475.66966,270.82484 475.87691,271.05724 475.77328,271.16086 475.66966,271.26449 475.43726,271.05724 475.33364,271.16086 474.424,272.0705 476.72369,271.12526 474.89399,272.04015 474.76291,272.10565 474.55797,271.93653 474.45435,272.04015 474.35072,272.14378 474.51985,272.34872 474.45435,272.4798 474.19056,273.00737 473.3992,273.27116 473.13541,273.79873 473.06991,273.92981 473.23904,274.13475 473.13541,274.23838 473.03179,274.342 472.79939,274.13475 472.69577,274.23838 472.59214,274.342 472.79939,274.5744 472.69577,274.67802 472.59214,274.78165 472.35975,274.5744 472.25612,274.67802 472.04887,274.88527 472.46337,275.35006 472.25612,275.55731 472.1525,275.66094 471.9201,275.45369 471.81648,275.55731 471.71285,275.66094 471.9201,275.89333 471.81648,275.99696 471.71285,276.10058 471.48046,275.89333 471.37683,275.99696 471.2732,276.10058 471.48046,276.33298 471.37683,276.4366 471.2732,276.54023 471.04081,276.33298 470.93719,276.4366 470.72993,276.64385 471.14444,277.10864 470.93719,277.31589 470.83356,277.41952 470.60117,277.21227 470.49754,277.31589 470.39391,277.41952 470.56304,277.62446 470.49754,277.75554 470.40484,277.94091 470.15058,278.00981 470.05789,278.19518 469.99239,278.32626 470.16152,278.5312 470.05789,278.63483 469.95427,278.73845 469.72188,278.5312 469.61825,278.63483 469.51462,278.73845 469.72188,278.97085 469.61825,279.07447 469.51462,279.1781 469.28223,278.97085 469.1786,279.07447 468.97135,279.28172 469.38586,279.74651 469.1786,279.95376 469.07498,280.05739 468.84258,279.85014 468.73896,279.95376 468.63533,280.05739 468.80446,280.26233 468.73896,280.39341 468.64626,280.57878 468.392,280.64768 468.29931,280.83305 468.23381,280.96413 468.40294,281.16907 468.29931,281.2727 468.19569,281.37632 467.96329,281.16907 467.85967,281.2727 467.65242,281.47995 468.06692,281.94474 467.85967,282.15199 467.75604,282.25561 467.52365,282.04836 467.42002,282.15199 467.21277,282.35924 467.62727,282.82403 467.42002,283.03128 467.3164,283.1349 467.084,282.92765 466.98038,283.03128 466.87675,283.1349 467.04588,283.33985 466.98038,283.47092 466.88768,283.65629 466.63342,283.7252 466.54073,283.91057 466.47523,284.04165 466.64436,284.24659 466.54073,284.35021 466.43711,284.45384 466.20471,284.24659 466.10109,284.35021 465.89384,284.55747 466.23217,284.96735 466.10109,285.2295 465.84502,285.74164 465.47786,286.03631 465.2218,286.54844 465.09072,286.81059 465.35288,287.16558 465.2218,287.42773 465.1291,287.6131 464.87484,287.682 464.78215,287.86738 464.6063,288.21909 464.95801,288.83459 464.78215,289.18631 464.68945,289.37168 464.43519,289.44059 464.34251,289.62596 464.04941,290.21215 464.63561,291.23799 464.34251,291.82418 464.24981,292.00955 463.99555,292.07846 463.90286,292.26383 463.66839,292.73278 464.13734,293.55345 463.90286,294.02241 463.81016,294.20778 463.5559,294.27668 463.46322,294.46205 463.33214,294.72421 463.59429,295.07919 463.46322,295.34134 463.37052,295.52671 463.11626,295.59562 463.02357,295.78099 462.79295,296.24224 463.37448,297.62831 463.02357,297.97921 462.91995,298.08284 462.68755,297.87559 462.58393,297.97921 462.30506,298.25809 462.76695,299.37175 462.58393,299.73779 462.49123,299.92316 462.23697,299.99207 462.14428,300.17744 461.85119,300.76363 462.43738,301.78947 462.14428,302.37566 462.05158,302.56104 461.79732,302.62994 461.70464,302.81531 461.65174,302.92114 461.65174,307.10593 461.70464,307.21176 461.79734,307.39713 462.0516,307.46604 462.14428,307.65141 462.36314,308.08913 461.91681,310.50145 462.14428,310.72892 462.24791,310.83255 462.4803,310.6253 462.58393,310.72892 462.79118,310.93617 462.58393,311.31512 462.58393,311.60821 462.58393,312.4875 462.58393,313.36679 462.58393,314.24608 z"
       inkscape:connector-curvature="0"
       id="path3318"
       style="opacity:0.6;fill:none;stroke:#e20000;stroke-opacity:1" />
    <path
       d="M 421.13767,137.00661 C 404.65786,125.5496 386.25797,115.69276 367.18094,106.29394"
       inkscape:connector-curvature="0"
       id="path3320"
       style="opacity:0.6;fill:none;stroke:#e20000;stroke-opacity:1" />
    <path
       d="M 424.77445,136.62945 425.52117,57.964221"
       inkscape:connector-curvature="0"
       id="path3322"
       style="opacity:0.6;fill:none;stroke:#e20000;stroke-opacity:1" />
    <path
       d="M 482.8508,151.57739 509.2295,68.484459"
       inkscape:connector-curvature="0"
       id="path3324"
       style="opacity:0.6;fill:none;stroke:#e20000;stroke-opacity:1;display:inline" />
    <path
       d="M 445.22442,141.46555 457.11313,58.918942"
       inkscape:connector-curvature="0"
       id="path3326"
       style="opacity:0.6;fill:none;stroke:#e20000;stroke-opacity:1;display:inline" />
    <path
       d="M 422.24326,137.69085 C 407.56535,114.76124 397.20785,87.168485 384.75379,62.062738"
       inkscape:connector-curvature="0"
       id="path3328"
       style="opacity:0.6;fill:none;stroke:#e20000;stroke-opacity:1;display:inline" />
    <path
       d="M 578.09098,209.67303 651.19168,166.52532"
       inkscape:connector-curvature="0"
       id="path3330"
       style="opacity:0.6;fill:none;stroke:#e20000;stroke-width:1;stroke-miterlimit:4;stroke-opacity:1;stroke-dasharray:none;stroke-dashoffset:0" />
    <path
       d="M 591.47538,227.9409 663.50175,196.17977"
       inkscape:connector-curvature="0"
       id="path3332"
       style="opacity:0.6;fill:none;stroke:#e20000;stroke-opacity:1" />
    <path
       d="M 608.10646,276.87625 678.96476,275.46894"
       inkscape:connector-curvature="0"
       id="path3334"
       style="opacity:0.6;fill:none;stroke:#e20000;stroke-opacity:1" />
    <path
       d="M 560.9354,87.882294 523.00852,169.95357"
       inkscape:connector-curvature="0"
       id="path3773"
       style="fill:none;stroke:#0000e9;stroke-width:1;stroke-miterlimit:4;stroke-opacity:1;stroke-dasharray:none;stroke-dashoffset:0" />
    <path
       d="M 595.44263,323.83721 645.80456,336.27226"
       inkscape:connector-curvature="0"
       id="path3775"
       style="fill:none;stroke:#0000e9;stroke-width:1;stroke-miterlimit:4;stroke-opacity:1;stroke-dasharray:none;stroke-dashoffset:0" />
    <path
       d="M 576.4792,434.50909 C 571.92742,423.66671 548.35437,355.82445 535.44355,440.72662"
       inkscape:connector-curvature="0"
       id="path3338"
       style="fill:none;stroke:#0000e9;stroke-width:1;stroke-miterlimit:4;stroke-opacity:1;stroke-dasharray:none;stroke-dashoffset:0" />
    <path
       d="M 614.40607,328.18947 C 599.63277,356.93882 580.26597,378.91853 557.20488,399.38009"
       inkscape:connector-curvature="0"
       id="path3340"
       style="fill:none;stroke:#0000e9;stroke-width:1;stroke-miterlimit:4;stroke-opacity:1;stroke-dasharray:none;stroke-dashoffset:0" />
    <path
       d="M 561.39783,89.271014 C 573.89944,95.083479 585.82842,102.37654 597.44385,109.79616 609.98468,118.9534 621.99848,129.04874 632.19071,140.78991 638.64738,148.75043 645.02752,157.11245 649.25917,166.46542 643.28119,171.168 636.04717,174.64183 629.57638,178.82933 612.36425,189.00101 595.24172,199.43366 577.8354,209.21088 573.73218,205.41524 570.71449,200.43736 566.26472,196.85929 553.86676,185.65944 538.86633,177.86023 524.36472,169.63247 524.41022,166.40693 527.14805,163.17386 528.1472,159.96776 538.91886,136.43297 549.59462,112.8449 560.77608,89.504171 560.90736,89.326459 561.17931,89.195153 561.39783,89.271014 z"
       inkscape:connector-curvature="0"
       id="path3350"
       style="fill:#7edfd0;stroke:none" />
    <path
       d="M 459.23619,59.154897 C 475.05433,61.259541 490.79369,64.629548 506.13961,69.005782 509.62303,69.704142 506.22331,73.790908 506.23561,75.877898 498.88356,101.23029 489.98797,126.20727 483.15425,151.65995 483.16225,153.91362 480.01396,151.41694 478.88465,151.23639 468.29841,146.66044 457.21774,143.72952 446.08228,140.9153 445.07264,138.32138 446.86328,134.87675 446.82061,131.99704 450.34083,107.86501 453.82644,83.722847 457.66241,59.640641 457.92473,59.04703 458.71123,59.14627 459.23622,59.154897 z"
       inkscape:connector-curvature="0"
       id="path3354"
       style="fill:#d7ab8f;stroke:none" />
    <path
       d="M 367.00315,106.91323 C 385.52983,115.6821 403.63398,125.70431 420.6487,137.14592 422.02639,139.00035 418.13917,140.51686 417.44317,142.12954 409.76872,149.2166 403.3776,159.51227 392.37841,161.51083 387.48176,161.72275 382.62661,161.80078 377.94211,163.1235 372.99473,164.25503 369.27816,159.56191 369.09067,155.01133 367.29239,139.37413 366.0213,123.55305 366.22596,107.807 366.26096,107.41717 366.46486,106.78623 367.00315,106.91323 z"
       inkscape:connector-curvature="0"
       id="path3360"
       style="fill:#6a72bc;stroke:none" />
    <path
       d="M 610.56223,326.43653 C 621.11816,320.10109 626.11028,295.10376 627.80591,277.68011"
       inkscape:connector-curvature="0"
       id="path3364"
       style="fill:none;stroke:#0000e9;stroke-width:1;stroke-miterlimit:4;stroke-opacity:1;stroke-dasharray:none;stroke-dashoffset:0" />
    <path
       d="M 627.57923,276.6442 C 627.35772,282.25974 626.34291,287.95119 625.34481,293.51894 623.29854,303.31684 620.93432,313.44982 615.13447,321.77951 613.93173,323.40152 612.29293,324.94891 610.80163,326.11235 611.28664,327.18298 610.01319,327.60681 609.20723,327.08917 605.03904,325.9777 600.73539,325.1537 596.68592,323.71277 596.20078,321.82712 597.64202,319.90999 597.99743,318.05872 601.24744,306.56049 605.99017,295.45885 607.70259,283.59033 608.18017,281.409 608.11158,279.06361 608.7518,276.96479 614.87516,276.78867 621.05216,276.99909 627.18092,276.48876 L 627.47052,276.60178 627.57923,276.64418 z"
       inkscape:connector-curvature="0"
       id="path6209"
       style="fill:#c7afc8;stroke:none" />
    <path
       d="M 677.68856,275.81843 C 677.34298,279.98083 675.71673,284.08061 674.3855,288.05918 672.03012,294.83497 668.71175,301.23013 667.01531,308.19982 663.63153,317.60492 656.15658,324.68415 649.56937,331.90289 648.08207,333.19601 646.89048,335.13193 645.03686,335.8758 633.70143,333.122 622.37727,330.29581 611.04451,327.521 610.0696,326.26283 612.74192,325.36292 613.36905,324.30565 619.64925,317.56897 622.17114,308.33778 624.39451,299.58905 625.93707,292.52864 627.28439,285.34957 627.81238,278.13057 627.358,277.60258 627.09584,276.75847 628.12326,276.66363 644.5151,276.30899 660.91439,275.95536 677.30968,275.64356 L 677.59194,275.77384 677.68856,275.81844 z"
       inkscape:connector-curvature="0"
       id="path6211"
       style="fill:#cda392;stroke:none" />
    <path
       d="M 384.90161,62.693472 C 395.95785,85.563868 405.52834,109.20089 418.13351,131.25137 418.50566,132.44648 420.29544,133.70028 419.61287,135.0013 418.11447,135.53131 416.94328,133.60696 415.67834,133.08747 400.97586,123.60067 385.55872,115.20433 369.87296,107.52139 368.75679,106.96752 367.57595,106.44526 366.37534,106.37156 365.51415,104.74763 366.35814,102.65066 366.20048,100.87294 366.76407,92.102791 367.36842,83.281725 368.54176,74.594196 373.11223,69.817155 378.33016,65.48993 384.21186,62.460315 384.50936,62.458715 384.72629,62.364855 384.90161,62.693472 z"
       inkscape:connector-curvature="0"
       id="path6213"
       style="fill:#746bdb;stroke:none" />
    <path
       d="M 412.73473,55.902774 C 416.86198,56.131534 420.94756,56.971935 425.09206,56.854832 426.26791,57.38804 425.21302,59.024293 425.51215,60.021647 425.01237,85.746904 424.86438,111.47766 424.65489,137.20657 424.14936,138.15805 422.47023,137.40273 421.88615,136.73055 407.94357,114.4118 398.33029,89.751048 386.92339,66.122067 386.56326,64.733184 385.07178,63.32482 385.43593,61.906567 390.59749,59.122366 396.33822,57.300961 402.14301,56.41708 405.65078,55.966427 409.20144,55.87144 412.73473,55.902774 z"
       inkscape:connector-curvature="0"
       id="path6215"
       style="fill:#b1daa9;stroke:none" />
    <path
       d="M 430.46438,56.806257 C 439.08281,57.12678 447.73744,57.423084 456.29624,58.486931 457.41915,59.338761 456.22034,61.138986 456.37394,62.343737 452.69571,88.205807 449.19517,114.10138 445.02696,139.88788 444.91567,141.88226 442.52886,140.42349 441.36445,140.46106 435.8556,139.40812 430.20264,138.90933 424.77145,137.56603 424.19271,136.86657 425.0417,135.81841 424.74225,134.91386 425.26315,109.41681 425.58559,83.911517 425.53887,58.409212 425.13561,57.355208 425.93681,56.64191 427.01553,56.815972 428.16469,56.784532 429.31489,56.792902 430.46431,56.806272 z"
       inkscape:connector-curvature="0"
       id="path6217"
       style="fill:#dbc198;stroke:none" />
    <path
       d="M 663.57284,196.86563 C 668.88047,208.83492 672.0535,221.64281 674.07975,234.55653 675.60626,243.84494 677.46908,253.09745 678.65321,262.43108 678.70742,266.6124 678.83906,270.85066 678.1063,274.98295 676.78849,275.91049 674.68855,275.17498 673.05468,275.43492 651.73271,275.77445 630.41583,276.42658 609.09182,276.63448 607.93225,275.50641 608.8843,273.18601 608.53807,271.61189 608.66665,265.34696 607.358,259.24117 604.76767,253.56858 601.25419,244.87199 596.99123,236.46631 591.81877,228.61385 592.2153,227.00001 594.9823,226.97584 596.2993,226.00395 618.58409,216.2531 640.77504,206.21427 663.16482,196.74905 L 663.46373,196.83445 663.57284,196.86565 z"
       inkscape:connector-curvature="0"
       id="path6219"
       style="fill:#e19179;stroke:none" />
    <path
       d="M 650.59377,167.76958 C 654.86076,177.00405 659.09669,186.26929 663.10653,195.62213 662.5013,197.15402 659.93524,197.20013 658.58788,198.15601 636.35162,207.92928 614.17841,217.86205 591.87706,227.47721 590.32297,227.10971 589.7871,225.07792 588.75858,223.98957 585.58573,219.33378 581.85762,215.01818 578.52882,210.46646 578.69262,209.03434 580.85072,208.84766 581.76387,207.91145 604.42103,194.36586 627.09564,180.82052 649.93316,167.58499 650.18708,167.4126 650.37665,167.68834 650.59377,167.76958 z"
       inkscape:connector-curvature="0"
       id="path6221"
       style="fill:#70bb86;stroke:none" />
    <path
       d="M 509.66977,69.882481 C 526.74988,74.867871 543.48284,81.070826 559.88597,87.923007 560.50301,89.209035 558.90866,90.603142 558.66224,91.928026 547.12312,117.54722 535.26338,143.03338 523.42604,168.50791 522.61722,169.84246 521.0468,168.0737 519.98755,167.87979 507.97911,162.20892 495.33247,157.99744 482.99272,153.08068 482.10095,152.0252 483.63048,150.56692 483.6604,149.37658 492.14937,123.00859 500.42118,96.569431 508.91201,70.203072 509.04779,69.892051 509.37106,69.816448 509.66977,69.882481 z"
       inkscape:connector-curvature="0"
       id="path6223"
       style="fill:#736cd4;stroke:none" />
    <path
       d="M 553.44307,398.88649 C 558.18868,399.67518 561.06248,404.17302 563.61454,407.81446 568.96516,416.07451 572.37487,425.38752 576.35074,434.33608 577.27289,435.72938 574.88498,436.3035 574.06775,436.87166 564.47205,441.81418 553.40384,444.40679 542.62279,442.66449 540.38697,442.25638 537.95375,442.25492 535.87857,441.30164 535.54517,438.94147 536.5146,436.44539 536.74038,434.05933 538.70862,424.07697 540.49399,413.72278 545.44772,404.72513 547.14272,401.89274 549.74643,398.58654 553.44307,398.88649 z"
       inkscape:connector-curvature="0"
       id="path5909"
       style="fill:#b9abdd;stroke:none" />
    <path
       d="M 614.88966,329.0851 C 624.77957,331.23184 634.69071,333.54622 644.42289,336.27411 645.15076,337.46216 643.24097,338.45863 642.7447,339.49133 629.99228,354.98553 618.46595,371.57516 609.34472,389.45712 602.74172,401.78528 598.11772,415.49054 588.12119,425.65124 584.8316,429.03473 581.42154,432.50226 577.33195,434.87039 575.94766,433.9834 575.8898,431.86767 575.06838,430.51813 571.00925,420.94839 567.19606,411.04178 560.47664,402.96674 559.50899,401.79559 558.14858,400.90746 557.40673,399.58596 561.802,395.38051 566.39883,391.32783 570.65916,386.91643 587.40506,370.50668 602.09193,351.77748 613.12299,330.99464 613.67326,330.42213 613.76269,328.74674 614.88966,329.0851 z"
       inkscape:connector-curvature="0"
       id="path5911"
       style="fill:#d5be93;stroke:none" />
  </g>
</svg>
