<?xml version="1.0" encoding="UTF-8" standalone="no"?>
<!-- Created with Inkscape (http://www.inkscape.org/) -->

<svg
   xmlns:dc="http://purl.org/dc/elements/1.1/"
   xmlns:cc="http://creativecommons.org/ns#"
   xmlns:rdf="http://www.w3.org/1999/02/22-rdf-syntax-ns#"
   xmlns:svg="http://www.w3.org/2000/svg"
   xmlns="http://www.w3.org/2000/svg"
   xmlns:xlink="http://www.w3.org/1999/xlink"
   xmlns:inkscape="http://www.inkscape.org/namespaces/inkscape"
   version="1.1"
   width="740"
   height="520"
   id="svg2"
   style="display:inline;enable-background:new">
  <defs
     id="defs4">
    <filter
       color-interpolation-filters="sRGB"
       id="filter3050">
      <feBlend
         in2="BackgroundImage"
         mode="lighten"
         id="feBlend3052" />
    </filter>
  </defs>
  <metadata
     id="metadata7">
    <rdf:RDF>
      <cc:Work
         rdf:about="">
        <dc:format>image/svg+xml</dc:format>
        <dc:type
           rdf:resource="http://purl.org/dc/dcmitype/StillImage" />
        <dc:title />
      </cc:Work>
    </rdf:RDF>
  </metadata>
  <g
     id="g2297"
     style="display:none">
    <image
       xlink:href="pngs/coronal-0685.png"
       id="image2299"
       height="520"
       width="740"
       y="0"
       x="0" />
  </g>
  <g
     id="g2305"
     style="display:inline">
    <path
       d="M 616.27133,232.75053 C 622.9404,244.81172 610.10702,218.25106 608.18856,214.09797 595.9214,193.30469 580.7367,174.41001 562.40042,158.62589 543.16984,137.16256 519.44596,118.73691 491.29916,110.88712 471.53309,101.93546 449.58298,105.05092 428.8716,101.49705 407.51036,90.719028 403.18509,122.91951 383.45132,122.42976 357.24723,128.70494 372.23858,100.96206 367.39761,86.817948 363.33537,70.766676 372.32915,55.915087 385.60131,47.468408 405.30539,31.225833 432.58532,40.076325 455.13723,43.685929 476.59205,49.475922 498.34106,54.152009 520.00682,59.097864 559.23435,74.296091 601.34493,87.190991 631.73845,117.93152 647.00497,132.2659 659.19983,149.33041 671.31135,166.26495 686.01142,191.36862 691.8379,220.42013 693.30395,249.26452 697.14243,271.23862 693.98503,295.59492 677.99161,312.28107 666.16006,327.8021 661.96401,347.30798 653.92139,364.77313 645.74344,394.32452 627.38171,419.53415 609.83881,444.08893 594.33359,458.40847 570.84955,452.50004 553.64912,444.32889 530.83119,433.06768 507.26618,423.32702 484.64602,411.62545 468.34724,399.22735 488.0915,380.90051 496.89493,370.15775 509.70155,357.36561 523.82495,346.20418 533.09819,330.22224 541.57688,310.6443 515.12205,332.24453 510.23012,338.28826 498.84751,351.79261 484.27904,363.7953 477.43013,380.53177 464.85176,395.50403 454.95873,411.79353 439.16429,424.64487 423.31007,435.96469 402.09555,438.3831 383.1143,436.06347 377.63918,447.07059 360.9978,441.93723 357.00071,438.55048"
       inkscape:connector-curvature="0"
       id="path2307"
       style="fill:none;stroke:#e20000;stroke-opacity:1" />
    <path
       d="M 367.5705,148.19225 C 373.20939,153.7498 386.52968,143.41372 392.62753,137.29756 401.05424,127.35598 412.58746,121.00154 424.14994,115.23939 434.65439,107.49594 449.70077,110.30127 461.92922,111.99808 477.74359,116.23207 493.27541,121.4868 508.21584,128.11951 523.01507,134.79691 532.55262,148.58698 544.15759,159.26797 554.88213,168.27725 565.35621,177.67894 574.41633,188.45345 587.76612,198.88945 597.30079,213.10315 606.3233,227.15476 611.62443,239.31612 617.40122,252.15822 615.25567,265.81257 615.15502,280.15458 613.17394,294.34696 611.14973,308.47526 610.51535,321.15664 609.30253,333.69989 607.00743,346.15815 608.20304,361.50673 613.38477,333.82271 613.82307,328.5805 614.48372,309.10173 619.05579,290.08215 620.29075,270.66361 621.80125,259.1836 623.90859,246.45466 618.13658,235.85929"
       inkscape:connector-curvature="0"
       id="path2309"
       style="opacity:0.6;fill:none;stroke:#e20000;stroke-opacity:1" />
    <path
       d="M 496.58405,111.198 517.72363,58.34907"
       inkscape:connector-curvature="0"
       id="path2311"
       style="opacity:0.6;fill:none;stroke:#e20000;stroke-opacity:1" />
    <path
       d="M 429.12395,38.763879 432.23271,102.18259"
       inkscape:connector-curvature="0"
       id="path2313"
       style="fill:none;stroke:#0000e9;stroke-width:0.99000001;stroke-miterlimit:4;stroke-opacity:1;stroke-dasharray:none;stroke-dashoffset:0" />
    <path
       d="M 373.16626,58.659946 420.41942,97.830328"
       inkscape:connector-curvature="0"
       id="path2315"
       style="fill:none;stroke:#0000e9;stroke-width:0.99000001;stroke-miterlimit:4;stroke-opacity:1;stroke-dasharray:none;stroke-dashoffset:0" />
    <path
       d="M 495.02967,53.064177 478.24237,105.91311"
       inkscape:connector-curvature="0"
       id="path2317"
       style="fill:none;stroke:#0000e9;stroke-width:0.99000001;stroke-miterlimit:4;stroke-opacity:1;stroke-dasharray:none;stroke-dashoffset:0" />
    <path
       d="M 460.21156,44.9814 456.48104,104.04785"
       inkscape:connector-curvature="0"
       id="path2319"
       style="fill:none;stroke:#0000e9;stroke-width:0.99000001;stroke-miterlimit:4;stroke-opacity:1;stroke-dasharray:none;stroke-dashoffset:0" />
    <path
       d="M 652.33295,141.97473 591.40125,187.98438"
       inkscape:connector-curvature="0"
       id="path2321"
       style="fill:none;stroke:#0000e9;stroke-width:0.99000001;stroke-miterlimit:4;stroke-opacity:1;stroke-dasharray:none;stroke-dashoffset:0" />
    <path
       d="M 680.3118,185.49737 613.78432,222.18075"
       inkscape:connector-curvature="0"
       id="path2323"
       style="fill:none;stroke:#0000e9;stroke-width:0.99000001;stroke-miterlimit:4;stroke-opacity:1;stroke-dasharray:none;stroke-dashoffset:0" />
    <path
       d="M 620.6236,260.72938 693.99035,250.15959"
       inkscape:connector-curvature="0"
       id="path2325"
       style="fill:none;stroke:#0000e9;stroke-width:0.99000001;stroke-miterlimit:4;stroke-opacity:1;stroke-dasharray:none;stroke-dashoffset:0" />
    <path
       d="M 617.51484,288.08647 C 639.86691,293.59899 663.91079,295.45306 687.77282,297.72362"
       inkscape:connector-curvature="0"
       id="path2327"
       style="fill:none;stroke:#0000e9;stroke-width:0.99000001;stroke-miterlimit:4;stroke-opacity:1;stroke-dasharray:none;stroke-dashoffset:0" />
    <path
       d="M 613.78432,317.30882 666.63325,332.23087"
       inkscape:connector-curvature="0"
       id="path2329"
       style="fill:none;stroke:#0000e9;stroke-width:0.99000001;stroke-miterlimit:4;stroke-opacity:1;stroke-dasharray:none;stroke-dashoffset:0" />
    <path
       d="M 628.08462,320.41758 C 625.22546,325.15095 622.33344,330.0519 621.65996,335.65296 620.76473,339.33252 619.91152,342.97086 619.19247,346.69837 618.04385,350.31878 617.0673,353.96238 616.32633,357.69556 614.95176,361.84034 614.17981,366.20735 613.21543,370.43321 610.48151,376.13497 609.03953,382.68212 604.43208,387.27819 601.78356,389.75272 599.78797,392.79829 597.29189,395.33667 594.31477,398.78159 593.24206,403.22574 592.40495,407.56379 591.94752,410.87577 587.96237,414.15069 586.85241,415.59582 L 587.19238,415.32345 588.29249,413.6804"
       inkscape:connector-curvature="0"
       id="path2331"
       style="fill:none;stroke:#0000e9;stroke-width:0.99000001;stroke-miterlimit:4;stroke-opacity:1;stroke-dasharray:none;stroke-dashoffset:0" />
    <path
       d="M 591.40125,450.36377 C 591.14088,411.26499 588.29477,385.74137 568.39642,449.74201"
       inkscape:connector-curvature="0"
       id="path2333"
       style="fill:none;stroke:#0000e9;stroke-width:0.99000001;stroke-miterlimit:4;stroke-opacity:1;stroke-dasharray:none;stroke-dashoffset:0" />
    <path
       d="M 509.32997,422.38492 C 510.61802,421.35263 509.83834,418.6857 509.05095,421.23183 509.40856,423.95605 510.23241,419.47614 510.98903,418.81111 512.66615,416.86097 513.78403,414.54635 515.14548,412.34165 516.16597,410.19258 517.36817,408.14101 519.09766,406.73769 519.58604,406.08852 519.64968,404.7217 520.10426,405.78829 520.77547,404.87555 521.78899,403.97687 522.00509,404.31476 522.96597,402.04377 525.77015,402.27706 527.85791,401.79227 529.64372,403.49964 532.03106,401.54244 533.61488,403.67682 534.92759,403.83846 535.29855,404.51578 536.79749,404.59102 537.83613,405.91007 540.25452,406.46453 542.01818,408.11918 544.29589,409.56458 546.59016,410.85369 549.13733,411.97999 552.12278,412.95765 554.52851,415.61779 557.82664,415.54565 559.79691,416.75279 562.91677,416.54411 564.45084,418.11929 566.93747,417.8693 568.94567,419.43606 571.70061,419.3614 573.81133,419.3997 575.71906,420.52752 578.02809,419.86552 580.73629,419.64455 575.43466,421.10115 577.10095,421.14144"
       inkscape:connector-curvature="0"
       id="path2335"
       style="fill:none;stroke:#0000e9;stroke-width:0.99000001;stroke-miterlimit:4;stroke-opacity:1;stroke-dasharray:none;stroke-dashoffset:0" />
    <path
       d="M 547.25685,411.81514 535.44356,434.81996"
       inkscape:connector-curvature="0"
       id="path2337"
       style="fill:none;stroke:#0000e9;stroke-width:0.99000001;stroke-miterlimit:4;stroke-opacity:1;stroke-dasharray:none;stroke-dashoffset:0" />
    <path
       d="M 527.9325,402.63406 C 534.99039,402.88519 540.64985,407.70621 546.31305,411.35802 546.18332,414.55986 543.41742,417.60852 542.2863,420.69804 539.62429,425.27116 537.74794,430.79678 534.54938,434.74854 526.76919,431.08407 518.51114,428.03914 511.08691,423.65706 508.37175,420.84244 512.85223,417.62501 513.86536,415.08854 516.59466,410.33801 519.97203,405.28719 524.99861,402.77007 525.96438,402.54617 526.94913,402.62008 527.9325,402.63406 z"
       inkscape:connector-curvature="0"
       id="path2339"
       style="fill:#82c1d2;stroke:none" />
    <path
       d="M 548.02287,412.25179 C 554.20836,414.60614 560.34083,417.1082 566.69486,418.78019 569.76985,420.00493 574.28028,418.84909 576.50688,421.65579 576.96741,426.94576 573.64566,431.84577 572.37579,436.89336 570.45779,440.70951 570.22557,445.84974 567.08345,448.87688 560.00155,447.27643 553.42475,443.47708 546.7405,440.65809 543.26145,438.60432 538.63214,437.55661 535.85984,434.86802 539.79981,427.37116 543.34646,419.59504 547.53712,412.27122 547.68902,412.20842 547.86781,412.18342 548.02287,412.25182 z"
       inkscape:connector-curvature="0"
       id="path2341"
       style="fill:#9eae8b;stroke:none" />
    <path
       d="M 586.33834,411.22201 C 588.57818,411.65214 586.73562,415.07964 587.40698,415.71029 590.13746,416.38706 589.28621,420.6431 589.94314,422.73737 590.81302,432.30166 590.57471,442.11494 591.70095,451.55818 589.26331,453.34232 585.48755,451.95059 582.60966,452.15168 578.35642,451.43356 573.34024,451.73512 569.62875,449.51806 570.65628,441.60791 574.19472,434.10659 576.7789,426.55209 577.95026,422.80637 580.13638,419.88374 581.40318,416.33204 582.60834,414.49447 583.84822,411.52567 586.33834,411.22201 z"
       inkscape:connector-curvature="0"
       id="path2343"
       style="fill:#bc94c3;stroke:none" />
    <path
       d="M 628.65634,322.03945 C 640.97,325.28879 653.25568,328.69619 665.47572,332.27893 666.28692,334.4567 663.92064,337.03925 663.58333,339.31159 658.60666,352.33586 653.38448,365.25899 648.86328,378.44402 639.02987,402.46597 624.04839,423.93066 608.6437,444.64119 604.22675,447.91558 599.05488,450.96174 593.58564,451.65533 590.59858,450.0123 592.15472,445.33748 591.50868,442.58188 591.48258,432.95476 590.40317,423.31285 589.52482,413.84503 591.39894,410.38552 593.20034,406.71871 594.05195,402.75064 596.88667,393.30827 606.4379,388.17179 609.86777,379.00748 616.49594,363.47913 618.54397,346.29952 623.71057,330.24114 625.10778,327.53401 625.70335,323.54996 628.5009,322.02002 L 628.65634,322.03942 z"
       inkscape:connector-curvature="0"
       id="path2345"
       style="fill:#d5be93;stroke:none" />
    <path
       d="M 679.6983,186.76951 C 682.7223,189.43679 682.91778,194.28821 684.49745,197.8639 689.12092,214.12227 692.15265,230.95299 692.65794,247.85665 692.80437,251.62798 687.97514,250.26088 685.66804,251.03973 664.77613,254.0155 643.89848,257.10191 623.02171,260.17512 621.30974,258.40173 622.50284,255.03188 622.06137,252.73358 622.69364,241.95781 616.63077,232.53544 612.97653,222.85056 616.0638,220.5718 620.27118,219.17536 623.64346,217.04107 642.34618,207.11895 660.69686,196.3733 679.504,186.75008 L 1419.5817,186.75008 2159.6983,186.76948 z"
       inkscape:connector-curvature="0"
       id="path2351"
       style="fill:#9970bd;stroke:none" />
    <path
       d="M 652.45779,142.79998 C 658.78804,148.55896 663.38126,156.2211 668.5091,163.12026 672.63411,169.69113 676.99428,176.55532 679.15427,184.02992 677.08883,187.55458 672.33442,188.70659 669.13223,191.07967 650.56919,201.57725 631.82004,211.74658 613.17083,222.0928 610.23919,219.11058 608.98036,214.22022 606.38984,210.66811 602.16968,203.04552 596.54164,196.34747 592.07012,188.90679 591.93506,186.55147 595.74118,185.91433 596.96737,184.19962 615.41787,170.42518 633.67749,156.2151 652.30235,142.76112 L 652.45779,142.80002 z"
       inkscape:connector-curvature="0"
       id="path2353"
       style="fill:#e19179;stroke:none" />
    <path
       d="M 461.79362,46.000955 C 472.11055,48.260282 482.46461,50.738458 492.64807,53.559128 495.98083,54.57788 492.2984,58.415739 492.31752,60.501536 487.42217,75.177923 483.40035,90.296931 477.76488,104.71767 476.22342,107.28466 472.7294,104.54949 470.45077,105.00021 465.95452,104.08698 460.79697,104.47603 456.70303,102.93013 458.23488,84.151172 459.25675,65.331162 460.41411,46.525558 460.53319,45.82335 461.29747,45.94096 461.79362,46.000955 z"
       inkscape:connector-curvature="0"
       id="path2359"
       style="fill:#cd8d77;stroke:none" />
    <path
       d="M 431.21119,39.880582 C 440.55812,41.341906 449.92882,42.876201 459.17061,44.951748 460.16426,50.684611 458.7907,57.004833 458.76275,62.953381 458.0324,76.351304 456.86224,89.733242 456.45044,103.14386 452.60855,104.18557 447.89052,102.76162 443.72395,102.81355 440.17365,102.17152 435.88747,102.79735 432.76557,101.16202 431.39486,80.876698 430.32028,60.493417 429.73453,40.172029 429.9504,39.569667 430.7897,39.87239 431.21119,39.880582 z"
       inkscape:connector-curvature="0"
       id="path2361"
       style="fill:#b08fc6;stroke:none" />
    <path
       d="M 416.328,38.598219 C 420.34595,38.78471 424.4132,38.757907 428.39388,39.27826 429.693,45.673138 429.22213,52.713544 429.8289,59.346806 430.43123,73.263487 431.3852,87.175058 431.58036,101.10373 429.21824,101.75545 425.96918,99.665469 423.16728,99.413345 419.27437,98.386068 417.27867,94.212814 413.91871,92.185477 400.99141,80.946042 387.32866,70.411066 374.55404,59.077178 375.27255,55.535694 379.39686,53.561904 381.68475,50.994401 391.18563,42.676191 403.56714,37.573398 416.328,38.598219 z"
       inkscape:connector-curvature="0"
       id="path2363"
       style="fill:#cce198;stroke:none" />
    <path
       d="M 374.02943,60.670418 C 388.81646,71.730844 402.98029,83.844172 417.08576,95.799411 418.30933,96.489711 420.21243,98.464029 417.90181,99.083039 408.86638,102.19599 403.5794,111.03963 396.2351,116.60901 390.30427,122.45041 381.41461,123.18029 373.54369,122.51532 367.5731,120.53471 367.82051,113.27055 367.97991,108.13743 368.25945,99.218653 368.80912,90.227465 367.03472,81.460253 366.50271,74.158865 368.47327,66.178986 373.46597,60.748137 373.63616,60.656067 373.84102,60.624569 374.02943,60.670417 z"
       inkscape:connector-curvature="0"
       id="path2365"
       style="fill:#6d70b9;stroke:none" />
    <path
       d="M 519.13515,59.089498 C 535.18441,64.941228 551.19193,71.027388 566.97527,77.553514 587.77289,86.218351 608.02698,96.851945 624.97,111.87091 634.66432,120.6517 643.74771,130.18552 651.84037,140.47102 653.1052,141.97717 650.65379,142.89297 649.76512,143.68515 630.24604,158.3625 610.84279,173.20567 591.23897,187.76304 589.80943,187.71114 589.23512,185.77847 588.1885,184.97487 580.83029,175.80195 572.34672,167.71271 563.89399,159.52674 553.74435,149.32559 543.76163,138.96171 531.94907,130.727 521.36525,123.01875 509.67826,116.97079 497.3544,112.49217 496.21915,112.23985 496.2265,111.15347 496.86129,110.39248 504.03313,93.454234 510.70191,76.247542 517.59049,59.167217 517.94868,58.560405 518.62212,59.047293 519.13515,59.089497 z"
       inkscape:connector-curvature="0"
       id="path9000"
       style="fill:#7edfd0;stroke:none" />
    <path
       d="M 495.74173,53.901754 C 502.77829,55.345712 509.81582,56.882122 516.79387,58.594039 517.62799,59.713586 516.04561,61.212993 515.87141,62.461311 509.37743,78.892631 502.72116,95.333042 496.28576,111.74413 494.98159,112.44197 493.45689,111.06614 492.11398,110.88825 487.69951,109.268 483.33711,107.64168 478.76013,106.53696 477.96514,105.07641 479.66198,103.09867 479.83226,101.4516 484.8705,85.696229 489.78102,69.896395 494.94511,54.183485 495.08286,53.850825 495.44666,53.836173 495.74173,53.901754 z"
       inkscape:connector-curvature="0"
       id="path9002"
       style="fill:#b7bfb2;stroke:none" />
    <path
       d="M 622.30714,289.33207 C 643.2768,293.93221 664.78141,295.54958 686.10474,297.80345 687.37983,297.72345 687.50854,299.11114 686.73306,299.85419 684.09589,304.82431 680.4543,309.07873 676.98247,313.45411 672.93135,319.01165 669.83443,325.21786 666.879,331.38777 665.61016,332.58214 663.79941,330.91594 662.35285,330.87124 651.02574,327.57386 639.56628,324.64148 628.36923,321.00257 623.91465,320.03324 619.34766,318.87843 615.05948,317.32915 614.9508,313.04402 616.0006,308.61768 616.39852,304.28677 617.1251,299.19454 617.62443,294.06111 618.54748,289.00177 619.33211,288.03435 621.2342,289.3836 622.30714,289.33207 z"
       inkscape:connector-curvature="0"
       id="path9004"
       style="fill:#9b7d71;stroke:none" />
    <path
       d="M 693.11888,250.71544 C 694.22084,253.05631 693.85243,255.9282 694.23171,258.47545 695.17511,271.73211 693.83733,285.56604 687.82707,297.53618 674.55369,296.34472 661.10341,295.08293 647.81656,293.37887 638.31451,292.15029 628.81666,290.532 619.52869,288.35087 618.18029,287.43682 619.31225,285.4221 619.14131,284.08889 620.01232,276.37358 620.52469,268.59723 621.76311,260.93549 624.62896,259.96716 627.88674,259.9536 630.90209,259.36286 651.54241,256.42521 672.17434,253.39897 692.83715,250.63772 L 693.11888,250.71542 z"
       inkscape:connector-curvature="0"
       id="path9006"
       style="fill:#c1dfbe;stroke:none" />
  </g>
</svg>
