<?xml version="1.0" encoding="UTF-8" standalone="no"?>
<!-- Created with Inkscape (http://www.inkscape.org/) -->

<svg
   xmlns:dc="http://purl.org/dc/elements/1.1/"
   xmlns:cc="http://creativecommons.org/ns#"
   xmlns:rdf="http://www.w3.org/1999/02/22-rdf-syntax-ns#"
   xmlns:svg="http://www.w3.org/2000/svg"
   xmlns="http://www.w3.org/2000/svg"
   xmlns:xlink="http://www.w3.org/1999/xlink"
   xmlns:inkscape="http://www.inkscape.org/namespaces/inkscape"
   version="1.1"
   width="740"
   height="520"
   id="svg2"
   style="display:inline;enable-background:new">
  <defs
     id="defs4">
    <filter
       color-interpolation-filters="sRGB"
       id="filter3050">
      <feBlend
         in2="BackgroundImage"
         mode="lighten"
         id="feBlend3052" />
    </filter>
  </defs>
  <metadata
     id="metadata7">
    <rdf:RDF>
      <cc:Work
         rdf:about="">
        <dc:format>image/svg+xml</dc:format>
        <dc:type
           rdf:resource="http://purl.org/dc/dcmitype/StillImage" />
        <dc:title />
      </cc:Work>
    </rdf:RDF>
  </metadata>
  <g
     id="g3754"
     style="display:none">
    <image
       xlink:href="pngs/coronal-0549.png"
       id="image3756"
       height="520"
       width="740"
       y="0"
       x="0" />
  </g>
  <g
     id="g3762"
     style="display:inline">
    <path
       d="M 565.90941,218.45023 C 551.7397,192.1947 523.13079,181.68563 496.03783,173.96233 471.33378,170.12516 436.07655,135.73087 416.41206,160.96205 413.86653,182.1896 360.70572,197.95271 370.0575,165.60131 372.59128,138.72932 364.27049,112.34465 366.42372,85.681633 382.79635,65.355003 409.80596,65.215304 433.61479,68.068017 467.86614,70.445301 500.78507,82.446634 533.64913,91.575746 567.64534,101.89036 597.42399,123.18639 622.51241,147.89972 641.9629,172.29362 652.26267,202.2641 657.85898,232.62739 664.57995,263.47409 656.20782,295.60502 640.51967,322.28283 636.52595,347.88867 616.55834,362.57385 600.72753,380.10578 586.21786,401.83994 548.20576,389.54744 546.67894,419.96176 525.30763,436.2807 497.78538,452.33118 470.15959,442.28099 440.73484,440.03369 429.43122,405.19804 397.96859,411.85308 380.43747,411.84128 362.13727,385.09445 376.89678,376.99702"
       inkscape:connector-curvature="0"
       id="path3764"
       style="fill:none;stroke:#e20000;stroke-opacity:1" />
    <path
       d="M 397.51645,317.76324 C 396.55151,313.33521 399.11044,317.04854 399.71468,316.44431 399.8183,316.34068 399.61105,316.10829 399.71468,316.00466 400.08105,315.63829 401.54653,316.37103 401.9129,316.00466 402.01653,315.90104 401.80928,315.66864 401.9129,315.56502 402.12015,315.35777 402.53004,315.6961 402.79219,315.56502 402.97756,315.47232 403.04647,315.21806 403.23184,315.12537 403.49399,314.9943 403.84897,315.25645 404.11113,315.12537 404.2965,315.03267 404.3654,314.77841 404.55077,314.68573 404.92122,314.50051 406.99804,314.87633 407.18864,314.68573 407.29227,314.5821 407.08502,314.34971 407.18864,314.24608 407.21484,314.21988 409.97232,314.24608 410.26616,314.24608 411.2972,314.24608 410.05891,314.34971 411.14545,313.80644 411.6085,313.57491 414.01054,313.80644 414.66261,313.80644 415.34831,313.80644 421.62154,313.73104 421.69693,313.80644 421.80056,313.91006 421.59331,314.14246 421.69693,314.24608 421.90418,314.45333 422.31407,314.11501 422.57622,314.24608 422.76159,314.33878 422.8305,314.59304 423.01587,314.68573 423.28131,314.81845 424.13157,314.4825 424.3348,314.68573 424.43843,314.78935 424.23118,315.02175 424.3348,315.12537 424.55462,315.3452 425.43392,314.90555 425.65374,315.12537 425.75736,315.229 425.55011,315.46139 425.65374,315.56502 425.86099,315.77227 426.32578,315.35777 426.53303,315.56502 426.63665,315.66864 426.4294,315.90104 426.53303,316.00466 426.74028,316.21191 427.15016,315.87359 427.41232,316.00466 427.92445,316.26073 428.21912,316.62789 428.73125,316.88395 428.86233,316.94945 429.06727,316.78033 429.1709,316.88395 429.27452,316.98758 429.06727,317.21997 429.1709,317.3236 429.37815,317.53085 429.84294,317.11635 430.05019,317.3236 430.15381,317.42722 429.94656,317.65962 430.05019,317.76324 430.15381,317.86687 430.35876,317.69774 430.48983,317.76324 430.91473,317.97569 432.03597,319.09693 432.24841,319.52182 432.31391,319.6529 432.14479,319.85784 432.24841,319.96147 432.35204,320.06509 432.58443,319.85784 432.68806,319.96147 432.79168,320.06509 432.62256,320.27004 432.68806,320.40111 432.94412,320.91325 433.31128,321.20792 433.56735,321.72005 433.70007,321.9855 433.36412,322.83575 433.56735,323.03899 433.67098,323.14261 433.90337,322.93536 434.00699,323.03899 434.1783,323.21029 434.00699,324.52928 434.00699,324.79757 434.00699,325.17769 434.04279,328.71862 434.00699,328.75437 433.90337,328.858 433.67098,328.65075 433.56735,328.75437 433.36412,328.9576 433.70007,329.80786 433.56735,330.07331 433.47465,330.25868 433.22039,330.32758 433.1277,330.51295 432.99663,330.77511 433.25878,331.13009 433.1277,331.39224 433.035,331.57761 432.78074,331.64652 432.68806,331.83189 432.55698,332.09404 432.81914,332.44902 432.68806,332.71118 432.59536,332.89655 432.3411,332.96545 432.24841,333.15082 432.18291,333.2819 432.35204,333.48684 432.24841,333.59047 432.14479,333.69409 431.91239,333.48684 431.80877,333.59047 431.70514,333.69409 431.91239,333.92649 431.80877,334.03011 431.70514,334.13374 431.47275,333.92649 431.36912,334.03011 431.2655,334.13374 431.47275,334.36613 431.36912,334.46976 431.16187,334.67701 430.69708,334.26251 430.48983,334.46976 430.38621,334.57338 430.59346,334.80578 430.48983,334.9094 430.28258,335.11665 429.8727,334.77833 429.61054,334.9094 429.42517,335.0021 429.35627,335.25636 429.1709,335.34905 428.70117,335.58391 428.76133,335.11419 428.29161,335.34905 428.10624,335.44175 428.03733,335.69601 427.85196,335.78869 427.38301,336.02317 426.56234,335.55422 426.09338,335.78869 425.90801,335.88139 425.83911,336.13565 425.65374,336.22834 424.81527,336.64757 422.5354,335.8091 421.69693,336.22834 421.51156,336.32104 421.44266,336.5753 421.25729,336.66798 420.32506,337.1341 417.79306,336.20187 416.86084,336.66798 416.67546,336.76068 416.60656,337.01494 416.42119,337.10763 415.98382,337.32632 413.45512,337.21907 413.34367,337.10763 413.24005,337.004 413.4473,336.77161 413.34367,336.66798 413.0648,336.38911 411.95114,336.85101 411.58509,336.66798 411.39972,336.57528 411.33082,336.32102 411.14545,336.22834 410.70773,336.00948 408.29541,336.45581 408.06793,336.22834 407.96431,336.12471 408.17156,335.89232 408.06793,335.78869 407.78906,335.50982 406.6754,335.97172 406.30935,335.78869 406.12398,335.69599 406.05508,335.44173 405.86971,335.34905 405.60755,335.21797 405.25257,335.48013 404.99042,335.34905 404.80505,335.25635 404.73614,335.00209 404.55077,334.9094 404.28862,334.77833 403.87873,335.11665 403.67148,334.9094 403.56786,334.80578 403.77511,334.57338 403.67148,334.46976 403.46825,334.26653 402.61799,334.60248 402.35255,334.46976 402.16718,334.37706 402.09827,334.1228 401.9129,334.03011 401.78182,333.96461 401.60433,334.09561 401.47326,334.03011 400.96113,333.77405 400.66645,333.40689 400.15432,333.15082 400.02324,333.08532 399.84575,333.21632 399.71468,333.15082 399.5293,333.05812 399.4604,332.80386 399.27503,332.71118 399.01288,332.5801 398.60299,332.91843 398.39574,332.71118 398.29211,332.60755 398.49937,332.37516 398.39574,332.27153 398.18849,332.06428 397.7237,332.47878 397.51645,332.27153 397.41282,332.16791 397.62008,331.93551 397.51645,331.83189 397.41282,331.72826 397.20788,331.89739 397.0768,331.83189 396.89143,331.73919 396.82253,331.48493 396.63716,331.39224 396.37501,331.26117 395.96512,331.59949 395.75787,331.39224 395.65424,331.28862 395.86149,331.05622 395.75787,330.9526 395.65424,330.84897 395.4493,331.0181 395.31822,330.9526 395.13285,330.8599 395.06395,330.60564 394.87858,330.51295 394.7475,330.44745 394.54256,330.61658 394.43893,330.51295 394.33531,330.40933 394.54256,330.17693 394.43893,330.07331 394.23168,329.86606 393.76689,330.28056 393.55964,330.07331 393.45602,329.96968 393.66327,329.73729 393.55964,329.63366 393.45602,329.53004 393.22362,329.73729 393.12,329.63366 393.01637,329.53004 393.22362,329.29764 393.12,329.19402 393.01637,329.09039 392.78398,329.29764 392.68035,329.19402 392.57673,329.09039 392.78398,328.858 392.68035,328.75437 392.57673,328.65075 392.34433,328.858 392.24071,328.75437 392.13708,328.65075 392.34433,328.41835 392.24071,328.31473 392.13708,328.2111 391.90469,328.41835 391.80106,328.31473 391.80106,327.14234 391.94761,328.46128 391.36142,327.87508 391.25779,327.77146 391.46504,327.53906 391.36142,327.43544 391.25779,327.33181 391.0254,327.53906 390.92177,327.43544 390.70195,327.21561 391.1416,326.33632 390.92177,326.1165 390.81815,326.01288 390.58575,326.22013 390.48213,326.1165 390.26276,325.89713 390.48213,324.26252 390.48213,323.91828 390.48213,323.64999 390.31083,322.331 390.48213,322.1597 390.58575,322.05607 390.81815,322.26332 390.92177,322.1597 391.0254,322.05607 390.85627,321.85113 390.92177,321.72005 391.01447,321.53468 391.26873,321.46578 391.36142,321.2804 391.42692,321.14933 391.25779,320.94438 391.36142,320.84076 391.46504,320.73713 391.69744,320.94438 391.80106,320.84076 391.90469,320.73713 391.73556,320.53219 391.80106,320.40111 391.98643,320.03037 392.30961,319.70719 392.68035,319.52182 392.94251,319.39075 393.35239,319.72907 393.55964,319.52182 393.66327,319.4182 393.45602,319.1858 393.55964,319.08218 393.83852,318.80331 394.95218,319.2652 395.31822,319.08218 396.08253,318.70003 396.78371,318.20289 397.51645,317.76324 z"
       inkscape:connector-curvature="0"
       id="path3767"
       style="opacity:0.6;fill:none;stroke:#e20000;stroke-opacity:1" />
    <path
       d="M 368.49987,202.57622 C 378.89866,199.58518 390.19696,196.90888 400.69644,193.06945 413.40005,189.61812 423.63451,179.8506 436.59325,177.4743 453.59598,173.71777 471.26218,176.36075 488.20686,179.28621 507.47057,183.52595 526.22607,190.89914 542.95407,201.43259 554.75698,210.44992 563.13172,222.74625 571.61592,234.67032 573.69615,239.2376 584.27305,258.68012 578.86384,243.00661 573.99502,234.66783 567.83734,223.83078 565.02124,216.20525"
       inkscape:connector-curvature="0"
       id="path3769"
       style="opacity:0.6;fill:none;stroke:#e20000;stroke-opacity:1" />
    <path
       d="M 579.96918,250.05789 C 579.97618,247.27997 578.59983,249.17786 580.45686,250.46292 583.84989,253.17837 584.4906,257.89167 585.95259,261.78477 586.98079,265.54496 587.52718,269.26823 587.95819,273.1067 588.56673,276.5581 586.88209,279.69377 586.47434,283.03301 586.1255,286.29389 587.29502,289.67835 586.27252,292.8476 585.91996,295.48217 585.04158,298.20901 584.98376,300.84892 583.90406,304.25906 581.05329,326.60886 577.92305,327.36953"
       inkscape:connector-curvature="0"
       id="path3771"
       style="opacity:0.6;fill:none;stroke:#e20000;stroke-opacity:1" />
    <path
       d="M 406.30935,191.58509 C 406.11618,192.79588 408.46193,193.69201 408.94722,194.66261 409.01272,194.79369 408.8436,194.99863 408.94722,195.10225 409.05085,195.20588 409.28324,194.99863 409.38687,195.10225 409.59412,195.30951 409.25579,195.71939 409.38687,195.98154 409.57224,196.35229 410.08079,196.49009 410.26616,196.86084 410.39724,197.12299 410.05891,197.53287 410.26616,197.74013 410.36978,197.84375 410.60218,197.6365 410.7058,197.74013 410.80943,197.84375 410.6403,198.04869 410.7058,198.17977 410.7985,198.36514 411.05276,198.43405 411.14545,198.61942 411.21095,198.75049 411.04182,198.95544 411.14545,199.05906 411.24907,199.16269 411.45402,198.99356 411.58509,199.05906 412.55717,199.5451 411.72153,199.33192 412.02474,199.93835 412.21011,200.30909 412.53329,200.63227 412.90403,200.81764 413.03511,200.88314 413.24005,200.71402 413.34367,200.81764 413.4473,200.92127 413.27817,201.12621 413.34367,201.25729 413.43637,201.44266 413.69063,201.51156 413.78332,201.69693 413.84882,201.82801 413.67969,202.03295 413.78332,202.13658 414.69296,203.04622 413.74772,200.74652 414.66261,202.57622 414.72811,202.7073 414.59711,202.88479 414.66261,203.01587 414.75531,203.20124 415.00957,203.27014 415.10225,203.45551 415.16775,203.58659 415.03675,203.76408 415.10225,203.89516 415.19495,204.08053 415.44921,204.14943 415.5419,204.3348 415.6074,204.46588 415.4764,204.64337 415.5419,204.77445 415.72727,205.14519 416.23582,205.283 416.42119,205.65374 416.48669,205.78481 416.35569,205.96231 416.42119,206.09338 416.51389,206.27875 416.76815,206.34766 416.86084,206.53303 416.92634,206.6641 416.79534,206.8416 416.86084,206.97267 417.12462,207.50025 417.91598,207.76403 418.17977,208.29161 418.24527,208.42269 418.07615,208.62763 418.17977,208.73125 418.2834,208.83488 418.48834,208.66575 418.61942,208.73125 418.80479,208.82395 418.91251,209.02435 419.05906,209.1709 419.56387,209.67571 419.36444,210.20288 419.93835,210.48983 420.06943,210.55533 420.24692,210.42433 420.378,210.48983 420.74874,210.6752 421.07192,210.99838 421.25729,211.36912 421.32279,211.5002 421.19179,211.67769 421.25729,211.80877 421.44266,212.17951 421.95121,212.31732 422.13658,212.68806 422.20208,212.81914 422.07108,212.99663 422.13658,213.1277 422.22928,213.31308 422.48354,213.38198 422.57622,213.56735 422.64172,213.69843 422.4726,213.90337 422.57622,214.00699 423.48586,214.91664 422.54062,212.61694 423.45551,214.44664 423.52101,214.57772 423.45551,214.73974 423.45551,214.88629 423.60206,215.03283 423.80247,215.14056 423.89516,215.32593 423.96066,215.45701 423.82966,215.6345 423.89516,215.76558 424.81001,217.59527 423.86486,215.29558 424.77445,216.20522 424.87807,216.30885 424.70895,216.51379 424.77445,216.64487 425.03051,217.157 425.39767,217.45167 425.65374,217.9638 425.71924,218.09488 425.55011,218.29982 425.65374,218.40345 425.75736,218.50707 425.98976,218.29982 426.09338,218.40345 426.19701,218.50707 426.02788,218.71201 426.09338,218.84309 426.27875,219.21383 426.7873,219.35164 426.97267,219.72238 427.03817,219.85346 426.90717,220.03095 426.97267,220.16203 427.06537,220.3474 427.31963,220.4163 427.41232,220.60167 427.54339,220.86383 427.20507,221.27371 427.41232,221.48096 427.51594,221.58459 427.74834,221.37734 427.85196,221.48096 427.95559,221.58459 427.78646,221.78953 427.85196,221.92061 427.94466,222.10598 428.19892,222.17488 428.29161,222.36025 428.35711,222.49133 428.22611,222.66882 428.29161,222.7999 428.47698,223.17064 428.98553,223.30845 429.1709,223.67919 429.30198,223.94134 428.96365,224.35123 429.1709,224.55848 429.27452,224.6621 429.50692,224.45485 429.61054,224.55848 429.71417,224.6621 429.54504,224.86705 429.61054,224.99812 429.70324,225.18349 429.9575,225.2524 430.05019,225.43777 430.11569,225.56884 429.98469,225.74634 430.05019,225.87741 431.50831,227.33553 429.84294,225.46291 430.48983,226.7567 430.58253,226.94207 430.83679,227.01098 430.92948,227.19635 431.06056,227.4585 430.7984,227.81349 430.92948,228.07564 431.02218,228.26101 431.27644,228.32991 431.36912,228.51528 431.5002,228.77744 431.23805,229.13242 431.36912,229.39457 431.46182,229.57994 431.71608,229.64885 431.80877,229.83422 432.04325,230.30317 431.57429,231.12385 431.80877,231.5928 431.90147,231.77817 432.15573,231.84707 432.24841,232.03244 432.37949,232.2946 432.11734,232.64958 432.24841,232.91174 432.34111,233.09711 432.59537,233.16601 432.68806,233.35138 432.87108,233.71742 432.40919,234.83109 432.68806,235.10996 432.79168,235.21359 433.02408,235.00634 433.1277,235.10996 433.39169,235.37395 432.87537,238.12245 433.1277,238.62712 433.2204,238.81249 433.47466,238.8814 433.56735,239.06677 433.62625,239.18446 433.62625,243.78517 433.56735,243.90286 433.47465,244.08823 433.22039,244.15714 433.1277,244.34251 432.7075,245.18293 433.54791,248.33819 433.1277,249.1786 433.035,249.36398 432.78074,249.43288 432.68806,249.61825 432.29534,250.4037 433.08033,256.30767 432.68806,257.09222 432.59536,257.27759 432.31395,257.33525 432.24841,257.53186 432.00528,258.26127 432.24841,261.42879 432.24841,262.36796 432.24841,262.8076 432.38744,263.26981 432.24841,263.68689 432.18291,263.88351 431.90145,263.94117 431.80877,264.12654 431.61215,264.51977 431.80877,265.00583 431.80877,265.44547 431.80877,266.0566 432.04075,268.05902 431.80877,268.52299 431.71607,268.70836 431.43466,268.76602 431.36912,268.96264 430.9728,270.1516 431.80917,274.67722 431.36912,275.55731 431.27642,275.74268 431.02216,275.81159 430.92948,275.99696 430.79975,276.25642 430.92948,277.02039 430.92948,277.31589 430.92948,279.80721 430.92948,282.29854 430.92948,284.78986 430.92948,284.97089 430.8131,285.99242 430.92948,286.10879 431.0331,286.21242 431.2655,286.00517 431.36912,286.10879 431.47275,286.21242 431.2655,286.44481 431.36912,286.54844 432.01514,287.19446 431.75627,285.3345 431.80877,285.2295 432.35204,284.14296 432.24841,285.38126 432.24841,284.35021 432.24841,283.78201 432.0469,281.67573 432.24841,281.2727 432.34111,281.08733 432.59537,281.01842 432.68806,280.83305 433.03978,280.12962 432.33634,278.89861 432.68806,278.19518 432.78076,278.00981 433.03502,277.94091 433.1277,277.75554 433.36218,277.28658 432.89323,276.46591 433.1277,275.99696 433.2204,275.81159 433.47466,275.74268 433.56735,275.55731 433.79797,275.09606 433.21644,273.70999 433.56735,273.35909 433.67098,273.25546 433.90337,273.46271 434.00699,273.35909 434.23447,273.13161 433.78814,270.71929 434.00699,270.28157 434.09969,270.0962 434.35395,270.0273 434.44664,269.84193 434.68112,269.37297 434.21216,268.5523 434.44664,268.08334 434.53934,267.89797 434.7936,267.82907 434.88629,267.6437 435.17938,267.05751 434.59319,266.03167 434.88629,265.44547 434.97899,265.2601 435.23324,265.1912 435.32593,265.00583 435.61903,264.41964 435.03283,263.3938 435.32593,262.8076 435.41863,262.62223 435.67289,262.55333 435.76558,262.36796 436.11729,261.66453 435.41386,260.43352 435.76558,259.73009 435.85828,259.54472 436.11254,259.47581 436.20522,259.29044 436.67418,258.35253 435.73627,256.71119 436.20522,255.77328 436.29792,255.58791 436.55218,255.51901 436.64487,255.33364 437.17244,254.27849 436.11729,252.43198 436.64487,251.37683 436.73757,251.19146 436.99183,251.12256 437.08451,250.93719 437.33479,250.43662 437.08451,245.3328 437.08451,244.34251 437.08451,243.27173 437.36512,240.34823 437.08451,239.50641 437.01901,239.3098 436.73755,239.25214 436.64487,239.06677 436.22277,238.22257 437.06721,235.95464 436.64487,235.10996 436.55217,234.92459 436.27076,234.86693 436.20522,234.67032 435.8734,233.67486 436.67031,232.08332 436.20522,231.15315 436.11252,230.96778 435.85826,230.89888 435.76558,230.71351 435.70008,230.58243 435.81188,230.41289 435.76558,230.27386 435.66195,229.96299 435.42956,229.70545 435.32593,229.39457 435.15988,228.89643 435.55887,228.10187 435.32593,227.63599 435.23323,227.45062 434.97897,227.38172 434.88629,227.19635 434.47595,226.37568 435.29662,224.9395 434.88629,224.11883 434.79359,223.93346 434.53933,223.86456 434.44664,223.67919 434.21216,223.21023 434.68112,222.38956 434.44664,221.92061 434.35394,221.73524 434.09968,221.66633 434.00699,221.48096 433.72838,220.92373 434.00699,219.47978 434.00699,218.84309 434.00699,216.64487 434.00699,214.44664 434.00699,212.24841 434.00699,211.21873 433.81039,204.28836 434.00699,203.89516 434.09969,203.70979 434.35395,203.64088 434.44664,203.45551 434.57936,203.19007 434.24341,202.33981 434.44664,202.13658 434.55027,202.03295 434.78266,202.2402 434.88629,202.13658 435.09354,201.92933 434.67903,201.46454 434.88629,201.25729 434.98991,201.15366 435.2223,201.36091 435.32593,201.25729 435.53318,201.05004 435.19485,200.64015 435.32593,200.378 435.41863,200.19263 435.67289,200.12372 435.76558,199.93835 435.83108,199.80727 435.66195,199.60233 435.76558,199.49871 435.8692,199.39508 436.1016,199.60233 436.20522,199.49871 436.41247,199.29146 435.99797,198.82667 436.20522,198.61942 436.30885,198.51579 436.54124,198.72304 436.64487,198.61942 436.74849,198.51579 436.57937,198.31085 436.64487,198.17977 436.73757,197.9944 436.99183,197.9255 437.08451,197.74013 437.15001,197.60905 436.98089,197.40411 437.08451,197.30048 437.99415,196.39084 437.04891,198.69053 437.9638,196.86084 437.9638,195.68845 437.81725,197.00738 438.40345,196.42119 438.50707,196.31756 438.29982,196.08517 438.40345,195.98154 438.50707,195.87792 438.73947,196.08517 438.84309,195.98154 438.94672,195.87792 438.73947,195.64553 438.84309,195.5419 438.94672,195.43827 439.15166,195.6074 439.28274,195.5419 439.65348,195.35653 439.79129,194.84798 440.16203,194.66261 440.2931,194.59711 440.49805,194.76623 440.60167,194.66261 440.7053,194.55898 440.49805,194.32659 440.60167,194.22296 440.7053,194.11934 440.93769,194.32659 441.04132,194.22296 441.14494,194.11934 440.93769,193.88694 441.04132,193.78332 441.14494,193.67969 441.34989,193.84882 441.48096,193.78332 441.99309,193.52725 442.28777,193.16009 442.7999,192.90403 442.93097,192.83853 443.10847,192.96953 443.23954,192.90403 443.61028,192.71866 443.74809,192.21011 444.11883,192.02474 444.24991,191.95924 444.45485,192.12836 444.55848,192.02474 444.6621,191.92111 444.45485,191.68872 444.55848,191.58509 444.76573,191.37784 445.23052,191.79234 445.43777,191.58509 445.54139,191.48147 445.33414,191.24907 445.43777,191.14545 445.54139,191.04182 445.77379,191.24907 445.87741,191.14545 445.98104,191.04182 445.77379,190.80943 445.87741,190.7058 445.98104,190.60218 446.21343,190.80943 446.31706,190.7058 446.42068,190.60218 446.21343,190.36978 446.31706,190.26616 446.42068,190.16253 446.65308,190.36978 446.7567,190.26616 446.86033,190.16253 446.65308,189.93014 446.7567,189.82651 446.86033,189.72289 447.09272,189.93014 447.19635,189.82651 447.29997,189.72289 447.09272,189.49049 447.19635,189.38687 447.29997,189.28324 447.53237,189.49049 447.63599,189.38687 447.73962,189.28324 447.53237,189.05085 447.63599,188.94722 447.73962,188.8436 447.97201,189.05085 448.07564,188.94722 448.28289,188.73997 447.94456,188.33009 448.07564,188.06793 448.16834,187.88256 448.4226,187.81366 448.51528,187.62829 448.64636,187.36613 448.30803,186.95625 448.51528,186.749 448.61891,186.64537 448.8513,186.85262 448.95493,186.749 449.05855,186.64537 448.8513,186.41298 448.95493,186.30935 449.05855,186.20573 449.29095,186.41298 449.39457,186.30935 449.68815,186.01577 449.101,185.72364 449.39457,185.43006 449.4982,185.32644 449.73059,185.53369 449.83422,185.43006 450.11309,185.15119 449.6512,184.03752 449.83422,183.67148 449.92692,183.48611 450.18118,183.41721 450.27386,183.23184 450.50449,182.77059 449.92296,181.38452 450.27386,181.03361 450.37749,180.92999 450.60988,181.13724 450.71351,181.03361 450.80261,180.94451 450.80261,178.9245 450.71351,178.83539 450.29153,178.4134 450.27386,179.22809 450.27386,177.95609 450.27386,177.70526 450.25126,175.34084 450.27386,175.31822 450.37749,175.2146 450.71351,175.46477 450.71351,175.31822 449.97451,175.0635 450.27386,176.31336 450.27386,175.31822 450.27386,174.23168 450.48112,174.64618 449.83422,173.99929"
       inkscape:connector-curvature="0"
       id="path3829"
       style="opacity:0.6;fill:none;stroke:#e20000;stroke-opacity:1" />
    <path
       d="M 420.81764,156.85313 368.93952,134.87087"
       inkscape:connector-curvature="0"
       id="path3831"
       style="opacity:0.6;fill:none;stroke:#e20000;stroke-opacity:1" />
    <path
       d="M 420.96574,155.18238 374.44102,78.631444"
       inkscape:connector-curvature="0"
       id="path3833"
       style="opacity:0.6;fill:none;stroke:#e20000;stroke-opacity:1" />
    <path
       d="M 428.29161,151.81881 426.97267,68.682685"
       inkscape:connector-curvature="0"
       id="path3835"
       style="opacity:0.6;fill:none;stroke:#e20000;stroke-opacity:1" />
    <path
       d="M 573.16624,234.54036 654.0382,213.17829"
       inkscape:connector-curvature="0"
       id="path3837"
       style="opacity:0.6;fill:none;stroke:#e20000;stroke-opacity:1" />
    <path
       d="M 579.96918,323.91828 636.6834,339.7455"
       inkscape:connector-curvature="0"
       id="path3839"
       style="fill:none;stroke:#0000e9;stroke-width:1;stroke-miterlimit:4;stroke-opacity:1;stroke-dasharray:none;stroke-dashoffset:0" />
    <path
       d="M 590.08101,270.28157 657.78636,271.6005"
       inkscape:connector-curvature="0"
       id="path3841"
       style="fill:none;stroke:#0000e9;stroke-width:1;stroke-miterlimit:4;stroke-opacity:1;stroke-dasharray:none;stroke-dashoffset:0" />
    <path
       d="M 521.49637,182.35255 555.78869,98.380328"
       inkscape:connector-curvature="0"
       id="path3844"
       style="fill:none;stroke:#0000e9;stroke-width:1;stroke-miterlimit:4;stroke-opacity:1;stroke-dasharray:none;stroke-dashoffset:0" />
    <path
       d="M 491.16086,171.80106 525.45318,86.949554"
       inkscape:connector-curvature="0"
       id="path3846"
       style="fill:none;stroke:#0000e9;stroke-width:1;stroke-miterlimit:4;stroke-opacity:1;stroke-dasharray:none;stroke-dashoffset:0" />
    <path
       d="M 492.04015,78.156652 470.49754,163.00816"
       inkscape:connector-curvature="0"
       id="path3848"
       style="fill:none;stroke:#0000e9;stroke-width:1;stroke-miterlimit:4;stroke-opacity:1;stroke-dasharray:none;stroke-dashoffset:0" />
    <path
       d="M 443.67919,431.63133 C 441.55659,424.47471 443.51079,413.48648 453.01695,414.01968 469.10481,411.95181 485.63257,420.87058 501.68471,417.87649 508.31308,418.24682 514.38646,413.52808 520.16788,410.21432 528.0541,406.47537 529.67931,401.57839 537.86903,398.50894 541.94781,397.02824 549.14394,409.76443 548.53456,410.52837"
       inkscape:connector-curvature="0"
       id="path3850"
       style="fill:none;stroke:#0000e9;stroke-width:1;stroke-miterlimit:4;stroke-opacity:1;stroke-dasharray:none;stroke-dashoffset:0" />
    <path
       d="M 544.79757,403.49405 C 532.19508,389.8245 540.61814,383.82251 550.98308,378.42682 563.37925,370.12026 582.58197,359.30709 588.36403,350.75469 593.67799,345.54646 600.76063,336.73667 602.47176,330.51347"
       inkscape:connector-curvature="0"
       id="path3852"
       style="fill:none;stroke:#0000e9;stroke-width:1;stroke-miterlimit:4;stroke-opacity:1;stroke-dasharray:none;stroke-dashoffset:0" />
    <path
       d="M 447.63599,417.12305 C 447.79617,415.0327 435.90575,415.69626 432.56431,415.14072 428.44771,409.32875 422.71651,406.65211 425.66517,404.53461 428.05035,401.7605 430.46058,399.19887 433.746,397.57326 437.19713,395.83373 440.912,394.56673 444.77878,394.16526 447.56323,394.93387 450.36763,393.18194 453.0568,394.14546 456.06316,394.28879 459.35319,394.42226 462.17253,395.84517 463.13872,396.61872 464.73104,397.68334 464.33312,397.08908 466.53713,398.98032 467.10427,402.39994 466.94856,405.17855 466.1837,407.90166 466.25301,410.82688 465.45821,413.52177 465.02847,412.88751 465.17988,412.11545 465.22173,411.40762"
       inkscape:connector-curvature="0"
       id="path3854"
       style="fill:none;stroke:#0000e9;stroke-width:1;stroke-miterlimit:4;stroke-opacity:1;stroke-dasharray:none;stroke-dashoffset:0" />
    <path
       d="M 465.66144,400.85617 C 468.23622,400.9697 464.78816,400.6163 468.55016,400.95297 473.46783,401.06953 478.37641,401.78328 483.25671,400.74261 493.64435,400.18769 504.50785,399.16193 513.71179,393.84797 517.43056,392.25925 521.08046,389.4939 525.27546,389.73086 529.82989,390.61252 532.99053,394.71831 535.30224,398.42963 537.00771,399.58382 534.08532,400.83432 535.12541,398.65778"
       inkscape:connector-curvature="0"
       id="path3856"
       style="fill:none;stroke:#0000e9;stroke-width:1;stroke-miterlimit:4;stroke-opacity:1;stroke-dasharray:none;stroke-dashoffset:0" />
    <path
       d="M 451.34703,394.34619 C 456.43139,394.5325 463.02448,394.68382 465.73167,399.7868 465.85681,401.43683 467.1977,402.72224 466.66592,404.52672 466.32497,406.91638 466.30755,409.93701 464.96229,411.82208 464.6552,414.0285 461.40056,413.01009 459.8942,413.43884 455.42017,413.72652 450.70118,413.34354 446.66206,415.47663 442.56611,415.79016 438.42366,414.93709 434.29705,415.10568 431.34884,414.75646 430.30396,411.25377 428.11009,409.64655 427.30208,408.31186 424.14923,406.63733 425.88883,404.89767 431.23119,397.69622 440.23828,394.13115 449.06637,394.34619 449.82648,394.32649 450.58692,394.32669 451.34703,394.34619 z"
       inkscape:connector-curvature="0"
       id="path3858"
       style="fill:#a4a7da;stroke:none" />
    <path
       d="M 370.68589,136.0959 C 386.83195,142.66572 402.92309,149.42676 418.89573,156.37453 419.69588,157.98662 417.06196,159.1072 416.65628,160.60611 415.3314,163.91568 414.2895,167.46777 411.6828,170.0997 404.77049,177.68536 394.87125,182.5201 384.68584,183.70122 379.15657,184.12564 372.11742,182.87366 370.01269,176.99663 368.1456,171.25991 370.88638,165.47393 370.57598,159.65813 370.96945,151.90881 370.16866,144.16753 369.98521,136.43937 370.23988,136.40457 370.37444,135.91847 370.68589,136.0959 z"
       inkscape:connector-curvature="0"
       id="path3880"
       style="fill:#6a72bc;stroke:none" />
    <path
       d="M 581.28811,323.96147 C 601.9504,325.29223 615.38656,277.06377 589.20173,271.20405"
       inkscape:connector-curvature="0"
       id="path3882"
       style="fill:none;stroke:#0000e9;stroke-width:1;stroke-miterlimit:4;stroke-opacity:1;stroke-dasharray:none;stroke-dashoffset:0" />
    <path
       d="M 492.53151,80.040672 C 502.93247,82.839496 513.32485,85.767842 523.60893,88.957225 524.22736,90.900032 522.15632,92.972565 521.81094,94.944321 511.83667,119.82299 502.07253,144.82511 491.5319,169.45201 490.97038,170.76688 489.97488,172.98047 488.21668,171.63834 482.3878,169.31351 476.53383,166.94855 470.96142,164.08159 470.60802,161.65076 472.15133,159.02177 472.4548,156.53268 478.86153,131.11539 485.2406,105.68703 491.87204,80.329189 492.10964,80.287519 492.25819,79.927798 492.53151,80.040672 z"
       inkscape:connector-curvature="0"
       id="path5999"
       style="fill:#d7ab8f;stroke:none" />
    <path
       d="M 525.40872,89.561737 C 534.92931,92.055857 544.50053,95.126264 553.35367,99.453752 555.64078,100.53541 553.09544,103.02953 552.84604,104.64274 542.43532,130.34619 532.03554,156.06036 521.39696,181.66739 519.71853,182.36031 517.75043,180.37245 515.96964,180.10051 507.91228,177.10029 499.50216,174.85106 491.33623,172.40736 498.00973,154.97001 505.33313,137.63362 512.25585,120.23482 516.49039,110.04867 520.35649,99.611836 524.84543,89.589215 525.01753,89.525365 525.23012,89.509215 525.40872,89.561735 z"
       inkscape:connector-curvature="0"
       id="path6001"
       style="fill:#736cd4;stroke:none" />
    <path
       d="M 555.96406,100.75895 C 563.74474,103.57683 570.68344,108.37056 577.8122,112.54657 593.4118,122.33889 607.87142,134.02005 620.95655,146.94857 629.35266,156.00908 635.21058,167.09118 640.66444,178.10901 645.73684,189.0014 649.91015,200.37169 652.83711,212.01664 651.58355,214.06751 648.41886,213.90152 646.37659,214.84162 622.51999,221.31391 598.62811,227.77682 574.66272,233.77908 572.20269,231.89935 571.45057,228.39319 569.82745,225.81548 566.21812,217.52937 561.43019,209.70352 554.94917,203.39709 545.9328,194.00702 534.34444,187.59351 522.35869,182.5192 522.02792,180.31374 523.99765,178.13822 524.48162,175.96324 534.64751,150.93229 544.65362,125.73126 555.20842,100.92382 555.41128,100.72554 555.70109,100.72594 555.96406,100.75895 z"
       inkscape:connector-curvature="0"
       id="path6003"
       style="fill:#bf9784;stroke:none" />
    <path
       d="M 588.6764,271.16265 C 594.6117,272.68594 599.94981,276.82918 601.77829,282.83812 605.53506,294.36547 602.14878,307.62614 594.55666,316.81705 591.26031,320.76076 586.31987,324.07833 581.03757,323.64529 579.88513,322.4563 581.66905,320.34227 581.60007,318.84714 583.86847,307.24655 586.77632,295.64675 586.85816,283.76275 587.25321,279.71413 588.48419,275.78709 588.01694,271.64351 587.96714,271.27358 588.3879,271.06757 588.6764,271.16265 z"
       inkscape:connector-curvature="0"
       id="path6015"
       style="fill:#c7afc8;stroke:none" />
    <path
       d="M 600.5743,270.70927 C 619.6905,271.03561 638.82311,271.27552 657.92051,272.0969 659.07754,273.58639 657.53637,275.94683 657.5633,277.68863 654.57688,292.56195 648.83326,306.75364 641.55747,320.03195 638.99858,325.48727 638.64505,331.76181 635.66348,337.0682 635.18272,338.73965 633.44012,339.17755 632.00627,338.21201 616.39583,333.73362 600.61823,329.63505 585.11803,324.89553 584.70627,323.25359 587.43703,323.53222 588.30545,322.71104 597.4389,317.54078 602.10206,306.97765 603.48695,296.96432 604.38026,288.53983 602.99777,278.3198 595.25945,273.3964 594.38807,272.6559 590.18555,271.38481 592.68817,270.69553 595.31689,270.69653 597.94562,270.68953 600.5743,270.70923 z"
       inkscape:connector-curvature="0"
       id="path6019"
       style="fill:#cda392;stroke:none" />
    <path
       d="M 652.83711,213.98131 C 654.69786,216.84369 654.80247,220.67451 655.80365,223.93161 658.07455,234.31678 660.21253,244.84737 659.65912,255.54149 659.37925,260.6435 659.94884,265.99891 658.6212,270.94283 657.05155,272.12163 654.61668,270.86283 652.7553,271.24796 631.95954,270.84254 611.0588,270.53566 590.32507,270.07728 590.36167,271.90145 587.52172,271.62072 587.75661,269.81016 586.39103,263.0574 585.35067,255.93369 581.05131,250.32072 580.19937,247.6724 580.0803,244.79939 578.59758,242.31138 577.54044,239.76061 575.72804,237.48596 574.92376,234.86445 576.21761,233.37377 578.99359,233.70414 580.78397,232.85259 604.70725,226.47602 628.62783,220.03235 652.61729,213.94009 L 652.83711,213.98129 z"
       inkscape:connector-curvature="0"
       id="path6021"
       style="fill:#e19179;stroke:none" />
    <path
       d="M 374.04715,79.217817 C 389.66483,103.88649 404.84346,128.92036 419.89389,153.94375 420.716,154.54505 420.91373,156.56784 419.44051,155.99085 402.97267,149.09735 386.56016,142.07742 370.15904,135.02527 368.8777,132.13597 369.21559,128.52283 368.59094,125.37757 367.05716,112.26172 365.9749,98.986667 366.57318,85.812493 368.92041,83.602887 370.83813,80.770969 373.59377,79.080428 L 374.01452,79.207928 374.04712,79.217828 z"
       inkscape:connector-curvature="0"
       id="path6165"
       style="fill:#746bdb;stroke:none" />
    <path
       d="M 420.51215,67.237487 C 422.55288,67.574222 425.47848,66.670868 426.95569,68.419033 426.87509,96.317284 428.00544,124.24277 427.76629,152.14395 426.01907,153.24499 423.84058,154.47229 421.77612,155.08408 419.26173,152.44124 417.74219,148.71502 415.59759,145.67871 401.89836,123.42194 388.39155,101.04747 374.80279,78.723216 376.62932,75.691354 380.60909,74.371987 383.72241,72.732527 392.8038,68.355387 402.96717,67.241144 412.94168,67.309904 415.46436,67.247514 417.98877,67.214404 420.51215,67.237484 z"
       inkscape:connector-curvature="0"
       id="path6167"
       style="fill:#b1daa9;stroke:none" />
    <path
       d="M 428.23341,67.718349 C 445.52514,69.275142 462.74171,71.863402 479.50929,76.387273 483.23393,77.646391 487.53915,77.863722 490.85536,79.987196 491.33065,82.278157 489.6985,84.733237 489.47008,87.065504 483.05869,112.21071 476.91278,137.46634 470.23326,162.51683 468.79292,164.04803 466.77013,161.4361 465.18616,161.24177 454.1593,156.17597 442.57978,150.45613 430.0772,151.93111 426.96785,152.47868 428.9985,147.94685 428.41202,146.18126 428.08041,120.30166 427.77788,94.397693 426.83204,68.542684 426.65458,67.704902 427.66945,67.645749 428.23341,67.718349 z"
       inkscape:connector-curvature="0"
       id="path6169"
       style="fill:#dbc198;stroke:none" />
    <path
       d="M 538.73134,398.62275 C 541.27866,398.95351 542.77868,401.4257 544.31621,403.22528 545.88431,405.46184 547.76155,407.68577 548.41041,410.38325 547.8743,413.0866 546.91501,415.67767 546.6974,418.462 546.88309,420.45248 544.68681,421.03298 543.48742,422.16058 530.21002,431.97742 515.57519,440.76952 499.19472,444.13318 493.18343,445.47977 486.95575,445.30498 480.85619,444.77861 475.8316,444.28514 471.18088,442.13668 466.16242,441.61866 457.73051,440.02406 450.16667,435.46532 443.48635,430.27032 442.54211,425.75613 442.96512,420.48799 446.05553,416.88176 446.47219,416.49661 447.06819,416.64141 447.55994,416.71689 446.68579,415.59509 448.42351,414.99668 449.21548,414.69727 452.80503,413.74468 456.6018,413.9675 460.28895,413.93417 462.16643,413.95957 464.12389,414.10019 465.90138,414.54614 476.15842,415.5669 486.16582,419.09212 496.57313,418.41546 501.84489,418.33476 507.25949,417.84679 511.90903,415.16644 516.10337,412.86432 520.24521,410.43782 524.31436,407.93606 528.23315,405.19419 531.51435,401.50388 535.96898,399.54523 536.81394,399.06696 537.73437,398.59532 538.73134,398.62275 z"
       inkscape:connector-curvature="0"
       id="path6177"
       style="fill:#c7a1db;stroke:none" />
    <path
       d="M 524.62835,389.9741 C 528.58505,390.08215 531.32929,393.41232 533.64108,396.21844 534.3465,397.20338 535.64275,398.83786 534.27994,399.84551 531.54559,401.9065 528.76482,403.9788 526.13852,406.21192 522.54832,409.13994 518.26485,411.0028 514.39287,413.50199 510.61388,415.75137 506.4794,417.74496 501.98828,417.81287 497.65015,418.32066 493.24115,418.68982 488.87971,418.03583 481.2026,417.05851 473.62932,415.39833 466.00442,414.11337 465.18575,413.34965 466.07392,412.06965 466.05252,411.12515 466.3563,408.22094 467.36348,405.34935 466.86503,402.42922 466.47392,401.40996 467.2762,400.65674 468.3057,401.04766 473.82541,401.36723 479.37681,401.57843 484.85422,400.74541 493.7955,400.14264 503.02907,399.28317 511.11009,395.19627 514.94589,393.53768 518.58699,391.3102 522.595,390.13897 523.26237,390.00247 523.94684,389.94258 524.62836,389.9741 z"
       inkscape:connector-curvature="0"
       id="path6179"
       style="fill:#aac7db;stroke:none" />
    <path
       d="M 603.31796,330.60827 C 613.58313,333.43175 623.87748,336.19925 634.07938,339.22944 634.78848,340.2258 633.54833,341.38995 633.20223,342.32681 625.75552,355.33326 614.32848,365.37611 604.20966,376.21823 600.60699,379.71757 598.00016,384.11143 593.7969,386.97215 583.77187,394.03847 571.03307,394.9128 560.061,399.88673 555.71845,401.83953 551.7843,404.86983 549.39274,409.01623 548.27316,409.73194 547.7721,407.91156 547.31563,407.2416 544.72201,402.20212 539.60248,398.48985 538.69013,392.63258 538.04338,388.68695 540.79376,385.22935 543.77352,383.02221 547.64413,380.16902 552.00903,378.05943 555.96662,375.34391 565.46556,369.11543 575.41139,363.31411 583.93923,355.8123 586.9313,353.04057 589.39911,349.75586 592.20748,346.84945 596.22647,342.13139 600.2668,337.06601 602.41119,331.1647 602.57125,330.82821 602.89571,330.45997 603.31796,330.60827 z"
       inkscape:connector-curvature="0"
       id="path6181"
       style="fill:#d5be93;stroke:none" />
  </g>
</svg>
