<?xml version="1.0" encoding="UTF-8" standalone="no"?>
<!-- Created with Inkscape (http://www.inkscape.org/) -->

<svg
   xmlns:dc="http://purl.org/dc/elements/1.1/"
   xmlns:cc="http://creativecommons.org/ns#"
   xmlns:rdf="http://www.w3.org/1999/02/22-rdf-syntax-ns#"
   xmlns:svg="http://www.w3.org/2000/svg"
   xmlns="http://www.w3.org/2000/svg"
   xmlns:xlink="http://www.w3.org/1999/xlink"
   xmlns:inkscape="http://www.inkscape.org/namespaces/inkscape"
   version="1.1"
   width="740"
   height="520"
   id="svg2"
   style="display:inline;enable-background:new">
  <defs
     id="defs4">
    <filter
       color-interpolation-filters="sRGB"
       id="filter3050">
      <feBlend
         in2="BackgroundImage"
         mode="lighten"
         id="feBlend3052" />
    </filter>
  </defs>
  <metadata
     id="metadata7">
    <rdf:RDF>
      <cc:Work
         rdf:about="">
        <dc:format>image/svg+xml</dc:format>
        <dc:type
           rdf:resource="http://purl.org/dc/dcmitype/StillImage" />
        <dc:title />
      </cc:Work>
    </rdf:RDF>
  </metadata>
  <g
     id="layer1"
     style="display:none">
    <image
       xlink:href="pngs/coronal-0917.png"
       id="MRISLICE"
       height="520"
       width="740"
       y="0"
       x="0" />
  </g>
  <g
     id="layer3"
     style="display:inline">
    <path
       d="M 529.84779,117.10464 C 529.58656,118.38957 533.53892,117.39582 534.20006,117.72639 534.46221,117.85747 534.55966,118.21707 534.82181,118.34815 535.31921,118.59685 536.18966,118.09945 536.68707,118.34815 536.94922,118.47922 537.04666,118.83882 537.30882,118.9699 537.97202,119.3015 539.13262,118.6383 539.79583,118.9699 540.05798,119.10098 540.15542,119.46057 540.41758,119.59165 541.57818,120.17195 543.60924,119.01135 544.76984,119.59165 545.032,119.72273 545.12944,120.08233 545.39159,120.2134 546.54085,120.78803 551.08161,119.63877 552.23087,120.2134 552.49302,120.34448 552.59047,120.70408 552.85262,120.83516 553.35002,121.08386 554.22047,120.58645 554.71788,120.83516 554.98003,120.96623 555.07747,121.32583 555.33963,121.45691 555.71503,121.64461 556.91747,121.16949 557.20488,121.45691 557.35143,121.60346 557.05834,121.93211 557.20488,122.07866 557.4923,122.36607 558.69474,121.89096 559.07014,122.07866 559.33229,122.20974 559.42974,122.56933 559.69189,122.70041 559.87726,122.79311 560.12827,122.60771 560.31364,122.70041 560.5758,122.83149 560.67324,123.19109 560.9354,123.32216 561.12077,123.41486 561.37178,123.22946 561.55715,123.32216 563.61924,125.38426 560.97096,123.02907 562.80065,123.94392 563.06281,124.07499 563.16025,124.43459 563.42241,124.56567 563.60778,124.65837 563.85879,124.47297 564.04416,124.56567 564.76842,124.9278 565.18515,125.44704 565.90941,125.80917 566.09478,125.90187 566.3458,125.71647 566.53117,125.80917 566.79332,125.94025 566.89076,126.29985 567.15292,126.43092 567.33829,126.52362 567.5893,126.33822 567.77467,126.43092 568.03682,126.562 568.13427,126.9216 568.39642,127.05268 568.58179,127.14538 568.87163,126.90613 569.01817,127.05268 569.16472,127.19922 568.87163,127.52788 569.01817,127.67443 569.16472,127.82098 569.45456,127.58173 569.63993,127.67443 569.90208,127.80551 569.99952,128.1651 570.26168,128.29618 570.44705,128.38888 570.69806,128.20348 570.88343,128.29618 571.14558,128.42726 571.24303,128.78686 571.50518,128.91793 571.69055,129.01063 571.94156,128.82523 572.12693,128.91793 572.38909,129.04901 572.48653,129.40861 572.74869,129.53968 572.93406,129.63238 573.22389,129.39314 573.37044,129.53968 573.51699,129.68623 573.22389,130.01489 573.37044,130.16144 573.66354,130.45453 574.32085,129.86834 574.61394,130.16144 574.76049,130.30799 574.46739,130.63664 574.61394,130.78319 574.76049,130.92974 575.05032,130.69049 575.2357,130.78319 577.29779,132.84528 574.6495,130.49009 576.4792,131.40494 577.00351,131.66709 577.1984,132.38629 577.7227,132.64845 577.90807,132.74115 578.15908,132.55575 578.34446,132.64845 578.60661,132.77952 578.70405,133.13912 578.96621,133.2702 579.15158,133.3629 579.40259,133.1775 579.58796,133.2702 580.11227,133.53235 580.30716,134.25155 580.83146,134.5137 581.01683,134.6064 581.26785,134.421 581.45322,134.5137 581.97752,134.77586 582.17241,135.49505 582.69672,135.75721 582.88209,135.84991 583.1331,135.66451 583.31847,135.75721 583.58063,135.88828 583.67807,136.24788 583.94022,136.37896 584.12559,136.47166 584.37661,136.28626 584.56198,136.37896 584.82413,136.51003 584.92157,136.86963 585.18373,137.00071 585.3691,137.09341 585.65893,136.85416 585.80548,137.00071 585.95203,137.14726 585.65893,137.47591 585.80548,137.62246 585.95203,137.76901 586.24186,137.52976 586.42723,137.62246 586.68939,137.75354 586.78683,138.11314 587.04898,138.24421 587.23436,138.33691 587.48537,138.15151 587.67074,138.24421 588.19504,138.50637 588.38993,139.22556 588.91424,139.48772 589.09961,139.58042 589.35062,139.39502 589.53599,139.48772 589.79815,139.6188 589.89559,139.97839 590.15775,140.10947 590.34312,140.20217 590.59413,140.01677 590.7795,140.10947 591.3038,140.37162 591.49869,141.09082 592.023,141.35297 592.39374,141.53835 592.89576,141.1676 593.26651,141.35297 593.52866,141.48405 593.6261,141.84365 593.88826,141.97473 594.07363,142.06743 594.36346,141.82818 594.51001,141.97473 595.79644,143.26115 592.54418,141.92443 595.13176,143.21823 595.31713,143.31093 595.56814,143.12553 595.75351,143.21823 596.47778,143.58036 596.89451,144.0996 597.61877,144.46174 597.80414,144.55444 598.09397,144.31519 598.24052,144.46174 598.38707,144.60828 598.09397,144.93694 598.24052,145.08349 598.53362,145.37658 599.11329,144.89812 599.48403,145.08349 600.00833,145.34564 600.20322,146.06484 600.72753,146.32699 600.9129,146.41969 601.16391,146.23429 601.34928,146.32699 601.61144,146.45807 601.70888,146.81767 601.97104,146.94874 602.15641,147.04144 602.40742,146.85604 602.59279,146.94874 603.11709,147.2109 603.31198,147.93009 603.83629,148.19225 604.02166,148.28495 604.3115,148.0457 604.45804,148.19225 604.60459,148.3388 604.3115,148.66745 604.45804,148.814 604.60459,148.96055 604.89442,148.7213 605.0798,148.814 605.6041,149.07615 605.79899,149.79535 606.3233,150.0575 606.50867,150.1502 606.75968,149.9648 606.94505,150.0575 607.69115,150.43056 608.06421,151.54971 608.81031,151.92276 608.99568,152.01546 609.28551,151.77621 609.43206,151.92276 609.57861,152.06931 609.33936,152.35914 609.43206,152.54451 610.11942,153.91924 609.81795,152.73746 610.67556,153.16626 613.26315,154.46006 610.01089,153.12336 611.29732,154.40977 611.44386,154.55632 611.7337,154.31707 611.91907,154.40977 612.18122,154.54085 612.33357,154.82427 612.54082,155.03152 612.74807,155.23877 612.90042,155.5222 613.16257,155.65327 613.34794,155.74597 613.63778,155.50672 613.78432,155.65327 613.93087,155.79982 613.63778,156.12848 613.78432,156.27502 613.93087,156.42157 614.25953,156.12848 614.40608,156.27502 614.55263,156.42157 614.40608,156.68953 614.40608,156.89678 614.61333,156.89678 614.84246,156.80408 615.02783,156.89678 615.50396,157.13484 618.52028,160.15116 618.75834,160.62729 618.85104,160.81266 618.61179,161.10249 618.75834,161.24904 618.90489,161.39559 619.23355,161.10249 619.38009,161.24904 619.52664,161.39559 619.23355,161.72425 619.38009,161.87079 619.52664,162.01734 619.81648,161.77809 620.00185,161.87079 620.264,162.00187 620.41635,162.2853 620.6236,162.49255 621.0381,162.90705 621.60495,163.21174 621.8671,163.73605 621.9598,163.92142 621.72055,164.21125 621.8671,164.3578 622.01365,164.50435 622.34231,164.21125 622.48885,164.3578 622.6354,164.50435 622.34231,164.83301 622.48885,164.97955 622.6354,165.1261 622.96406,164.83301 623.11061,164.97955 623.25715,165.1261 622.96406,165.45476 623.11061,165.60131 623.25715,165.74785 623.54699,165.50861 623.73236,165.60131 626.31994,166.8951 623.06768,165.55841 624.35411,166.84481 624.50066,166.99136 624.76861,166.84481 624.97586,166.84481 624.97586,167.05206 624.82931,167.32001 624.97586,167.46656 625.12241,167.61311 625.45107,167.32001 625.59761,167.46656 625.74416,167.61311 625.45107,167.94177 625.59761,168.08831 625.74416,168.23486 626.034,167.99561 626.21937,168.08831 628.80695,169.38211 625.55469,168.04541 626.84112,169.33182 626.98767,169.47837 627.31632,169.18527 627.46287,169.33182 627.60942,169.47837 627.31632,169.80702 627.46287,169.95357 627.60942,170.10012 627.93807,169.80702 628.08462,169.95357 628.23117,170.10012 628.08462,170.36807 628.08462,170.57532 628.29187,170.57532 628.521,170.48262 628.70638,170.57532 631.29396,171.86911 628.0417,170.53242 629.32813,171.81883 629.47468,171.96538 629.80333,171.67228 629.94988,171.81883 630.09643,171.96538 629.85718,172.25521 629.94988,172.44058 630.21203,172.96489 630.93123,173.15978 631.19338,173.68408 631.28608,173.86945 631.10068,174.12046 631.19338,174.30584 631.56643,175.05194 632.68559,175.42499 633.05864,176.17109 633.15134,176.35646 632.91209,176.6463 633.05864,176.79284 633.20519,176.93939 633.53384,176.6463 633.68039,176.79284 633.82694,176.93939 633.58769,177.22923 633.68039,177.4146 634.04252,178.13886 634.56177,178.55559 634.9239,179.27985 635.0166,179.46522 634.77735,179.75506 634.9239,179.9016 635.07044,180.04815 635.3991,179.75506 635.54565,179.9016 635.6922,180.04815 635.45295,180.33799 635.54565,180.52336 635.67673,180.78551 636.03632,180.88295 636.1674,181.14511 636.2601,181.33048 636.0747,181.58149 636.1674,181.76686 638.22949,183.82895 635.8743,181.18067 636.78915,183.01036 637.1183,183.66865 637.70351,183.59558 638.03266,184.25387 638.12536,184.43924 637.93996,184.69025 638.03266,184.87562 638.16373,185.13777 638.52333,185.23522 638.65441,185.49737 638.74711,185.68274 638.56171,185.93375 638.65441,186.11913 638.78549,186.38128 639.14508,186.47872 639.27616,186.74088 639.36886,186.92625 639.18346,187.17726 639.27616,187.36263 639.63829,188.08689 640.15753,188.50362 640.51967,189.22789 640.61236,189.41326 640.42698,189.66427 640.51967,189.84964 640.8818,190.5739 641.40104,190.99063 641.76317,191.71489 641.85585,191.90026 641.67048,192.15128 641.76317,192.33665 641.89425,192.5988 642.17767,192.75115 642.38492,192.9584 642.59217,193.16565 642.8756,193.318 643.00667,193.58015 643.19204,193.95089 642.8213,194.45291 643.00667,194.82365 643.13775,195.08581 643.49735,195.18325 643.62843,195.44541 643.8138,195.81615 643.44306,196.31817 643.62843,196.68891 643.99056,197.41317 644.5098,197.82991 644.87193,198.55417 645.0573,198.92491 644.68656,199.42693 644.87193,199.79767 645.00301,200.05983 645.36261,200.15727 645.49368,200.41942 645.68138,200.79482 645.20627,201.99727 645.49368,202.28468 645.64023,202.43123 645.96889,202.13813 646.11543,202.28468 646.42631,202.59556 645.80456,203.83906 646.11543,204.14994 646.26198,204.29648 646.59064,204.00339 646.73719,204.14994 647.03028,204.44303 646.55182,205.0227 646.73719,205.39344 647.09932,206.1177 647.61856,206.53443 647.98069,207.2587 648.31229,207.9219 647.64909,209.0825 647.98069,209.7457 648.11177,210.00786 648.47137,210.1053 648.60244,210.36746 648.78781,210.7382 648.41707,211.24022 648.60244,211.61096 648.73352,211.87311 649.09312,211.97056 649.22419,212.23271 649.4729,212.73012 648.97549,213.60057 649.22419,214.09797 649.35527,214.36012 649.71487,214.45757 649.84595,214.71972 650.03132,215.09046 649.66058,215.59248 649.84595,215.96323 649.97702,216.22538 650.33662,216.32282 650.4677,216.58498 650.72653,217.10264 650.07331,218.6776 650.4677,219.07199 650.61425,219.21853 650.9429,218.92544 651.08945,219.07199 651.7112,219.69374 650.4677,222.18075 651.08945,222.8025 651.236,222.94905 651.56465,222.65595 651.7112,222.8025 652.22933,223.32063 651.19308,225.39313 651.7112,225.91126 651.85775,226.05781 652.18641,225.76471 652.33296,225.91126 652.82921,226.40752 652.0068,228.36771 652.33296,229.02002 652.46403,229.28217 652.82363,229.37962 652.95471,229.64177 653.45211,230.63658 652.45731,232.37748 652.95471,233.37228 653.08578,233.63444 653.44538,233.73188 653.57646,233.99404 653.90334,234.64781 653.57646,236.35599 653.57646,237.1028 653.57646,237.35881 653.41188,238.80347 653.57646,238.96805 653.72301,239.1146 654.05166,238.82151 654.19821,238.96805 654.44047,239.21031 654.19821,241.07564 654.19821,241.45506 654.19821,241.9419 653.88797,244.25358 654.19821,244.56382 654.34476,244.71037 654.67342,244.41727 654.81996,244.56382 655.40356,245.14741 654.35019,246.12511 654.19821,246.42908 654.01474,246.79601 654.19821,247.87644 654.19821,248.29433 654.19821,248.67375 654.44047,250.53908 654.19821,250.78134 654.05166,250.92789 653.72301,250.63479 653.57646,250.78134 653.18516,251.17265 653.96776,255.98581 653.57646,256.37711 653.42991,256.52366 653.10126,256.23056 652.95471,256.37711 652.66281,256.66901 653.2466,260.43748 652.95471,260.72938 652.80816,260.87593 652.4795,260.58283 652.33296,260.72938 652.02208,261.04025 652.64383,262.28376 652.33296,262.59463 652.18641,262.74118 651.85775,262.44808 651.7112,262.59463 651.56465,262.74118 651.80389,263.03101 651.7112,263.21639 651.58013,263.47854 651.22053,263.57598 651.08945,263.83814 650.99676,264.02351 651.236,264.31334 651.08945,264.45989 650.9429,264.60644 650.61425,264.31334 650.4677,264.45989 650.32115,264.60644 650.61425,264.93509 650.4677,265.08164 650.32115,265.22819 649.9925,264.93509 649.84595,265.08164 649.6994,265.22819 649.9925,265.55685 649.84595,265.70339 649.6994,265.84994 649.37074,265.55685 649.22419,265.70339 649.07765,265.84994 649.37074,266.1786 649.22419,266.32515 649.07765,266.47169 648.78781,266.23245 648.60244,266.32515 648.34029,266.45622 648.24284,266.81582 647.98069,266.9469 647.79532,267.0396 647.50549,266.80035 647.35894,266.9469 647.21239,267.09345 647.50549,267.4221 647.35894,267.56865 647.06584,267.86175 646.48618,267.38328 646.11543,267.56865 645.85328,267.69973 645.75584,268.05932 645.49368,268.1904 645.12294,268.37577 644.54327,267.89731 644.25018,268.1904 644.10363,268.33695 644.25018,268.6049 644.25018,268.81215 644.04293,268.81215 643.77497,268.66561 643.62843,268.81215 643.48188,268.9587 643.77497,269.28736 643.62843,269.43391 643.48188,269.58045 643.19204,269.34121 643.00667,269.43391 642.74452,269.56498 642.64708,269.92458 642.38492,270.05566 642.19955,270.14836 641.90972,269.90911 641.76317,270.05566 641.61662,270.20221 641.76317,270.47016 641.76317,270.67741 641.55592,270.67741 641.28797,270.53086 641.14142,270.67741 640.99487,270.82396 641.28797,271.15261 641.14142,271.29916 640.99487,271.44571 640.66621,271.15261 640.51967,271.29916 640.22657,271.59226 640.81276,272.24957 640.51967,272.54267 640.37312,272.68921 640.04446,272.39612 639.89791,272.54267 639.73333,272.70725 639.89791,274.15191 639.89791,274.40792 639.89791,274.82242 640.19101,275.35833 639.89791,275.65143 639.75136,275.79798 639.42271,275.50488 639.27616,275.65143 639.23286,275.69473 639.27616,280.14904 639.27616,280.62544 639.27616,281.00486 639.51842,282.87019 639.27616,283.11245 639.12961,283.259 638.80096,282.9659 638.65441,283.11245 638.34353,283.42333 638.96528,284.66683 638.65441,284.97771 638.50786,285.12426 638.1792,284.83116 638.03266,284.97771 637.73956,285.27081 638.32575,285.92812 638.03266,286.22121 637.88611,286.36776 637.55745,286.07466 637.4109,286.22121 637.26436,286.36776 637.55745,286.69642 637.4109,286.84296 637.26436,286.98951 636.9357,286.69642 636.78915,286.84296 636.6426,286.98951 636.88185,287.27935 636.78915,287.46472 636.5819,287.87922 635.3384,289.12272 634.9239,289.32997 634.73853,289.42267 634.50939,289.32997 634.30214,289.32997 634.09489,289.53722 633.94255,289.82065 633.68039,289.95173 633.30965,290.1371 632.72998,289.65863 632.43689,289.95173 632.29034,290.09827 632.58344,290.42693 632.43689,290.57348 632.12601,290.88435 630.88251,290.2626 630.57163,290.57348 630.42508,290.72003 630.71818,291.04868 630.57163,291.19523 630.26076,291.50611 629.01725,290.88435 628.70638,291.19523 628.55983,291.34178 628.85292,291.67043 628.70638,291.81698 628.3955,292.12786 627.15199,291.50611 626.84112,291.81698 626.69457,291.96353 626.98767,292.29219 626.84112,292.43873 626.69457,292.58528 626.40474,292.34603 626.21937,292.43873 625.95721,292.56981 625.85977,292.92941 625.59761,293.06049 625.07995,293.31932 623.50499,292.6661 623.11061,293.06049 622.96406,293.20703 623.25715,293.53569 623.11061,293.68224 622.93645,293.85639 620.25621,293.80942 620.00185,293.68224 619.73969,293.55116 619.64225,293.19156 619.38009,293.06049 619.00935,292.87511 618.50733,293.24586 618.13659,293.06049 617.87444,292.92941 617.77699,292.56981 617.51484,292.43873 617.13944,292.25103 615.93699,292.72615 615.64958,292.43873 615.50303,292.29219 615.79613,291.96353 615.64958,291.81698 615.36217,291.52957 614.15972,292.00468 613.78432,291.81698 613.52217,291.6859 613.42473,291.32631 613.16257,291.19523 612.9772,291.10253 612.68737,291.34178 612.54082,291.19523 612.39427,291.04868 612.68737,290.72003 612.54082,290.57348 612.24772,290.28038 611.59041,290.86657 611.29732,290.57348 611.15077,290.42693 611.44386,290.09827 611.29732,289.95173 611.15077,289.80518 610.86094,290.04443 610.67556,289.95173 610.15126,289.68957 609.95637,288.97037 609.43206,288.70822 608.76713,288.37575 608.85349,289.04069 608.18856,288.70822 607.66425,288.44607 607.46936,287.72687 606.94505,287.46472 606.75968,287.37202 606.46985,287.61127 606.3233,287.46472 606.17675,287.31817 606.46985,286.98951 606.3233,286.84296 606.17675,286.69642 605.8481,286.98951 605.70155,286.84296 605.555,286.69642 605.8481,286.36776 605.70155,286.22121 605.555,286.07466 605.22634,286.36776 605.0798,286.22121 604.93325,286.07466 605.1725,285.78483 605.0798,285.59946 604.71766,284.8752 604.19842,284.45847 603.83629,283.7342 603.74359,283.54883 603.92899,283.29782 603.83629,283.11245 603.57414,282.58814 602.85494,282.39326 602.59279,281.86895 602.50009,281.68358 602.68549,281.43257 602.59279,281.2472 602.46171,280.98504 602.10211,280.8876 601.97104,280.62544 601.87834,280.44007 602.11758,280.15024 601.97104,280.00369 601.82449,279.85714 601.49583,280.15024 601.34928,280.00369 601.20273,279.85714 601.44198,279.56731 601.34928,279.38194 600.98715,278.65768 600.46791,278.24095 600.10578,277.51668 600.01308,277.33131 600.19848,277.0803 600.10578,276.89493 599.74365,276.17067 599.22441,275.75394 598.86227,275.02967 598.76957,274.8443 598.95497,274.59329 598.86227,274.40792 598.7312,274.14577 598.3716,274.04832 598.24052,273.78617 598.14782,273.6008 598.38707,273.31097 598.24052,273.16442 598.09397,273.01787 597.76532,273.31097 597.61877,273.16442 597.32567,272.87132 597.80414,272.29166 597.61877,271.92091 597.4721,271.62757 596.46499,270.32484 596.37527,270.05566 596.24419,269.66243 596.50634,269.20538 596.37527,268.81215 596.28257,268.5341 595.88459,268.45256 595.75351,268.1904 595.66081,268.00503 595.84621,267.75402 595.75351,267.56865 595.39138,266.84439 594.87214,266.42766 594.51001,265.70339 594.41731,265.51802 594.60271,265.26701 594.51001,265.08164 594.37893,264.81949 594.01933,264.72204 593.88826,264.45989 593.70289,264.08915 594.07363,263.58713 593.88826,263.21639 593.74159,262.92304 592.73448,261.62031 592.64475,261.35113 592.51368,260.9579 592.77583,260.50086 592.64475,260.10762 592.55205,259.82957 592.15408,259.74803 592.023,259.48587 591.9303,259.3005 592.1157,259.04949 592.023,258.86412 591.66087,258.13986 591.14163,257.72313 590.7795,256.99886 590.50144,256.44275 590.97611,255.72345 590.7795,255.13361 590.6868,254.85555 590.28882,254.77401 590.15775,254.51186 590.06505,254.32649 590.25045,254.07547 590.15775,253.8901 590.02667,253.62795 589.66707,253.53051 589.53599,253.26835 589.44329,253.08298 589.62869,252.83197 589.53599,252.6466 589.40492,252.38445 589.04532,252.287 588.91424,252.02485 588.82154,251.83948 589.00694,251.58847 588.91424,251.4031 588.65209,250.87879 587.93289,250.6839 587.67074,250.15959 587.57804,249.97422 587.76344,249.72321 587.67074,249.53784 587.53966,249.27569 587.18006,249.17824 587.04898,248.91609 586.95628,248.73072 587.14168,248.47971 587.04898,248.29433 586.91791,248.03218 586.55831,247.93474 586.42723,247.67258 586.24186,247.30184 586.6126,246.79982 586.42723,246.42908 586.29616,246.16692 585.93656,246.06948 585.80548,245.80733 585.71278,245.62196 585.95203,245.33212 585.80548,245.18557 585.65893,245.03903 585.33028,245.33212 585.18373,245.18557 584.89063,244.89248 585.3691,244.31281 585.18373,243.94207 585.05265,243.67992 584.69305,243.58247 584.56198,243.32032 584.37661,242.94958 584.74735,242.44756 584.56198,242.07681 584.4309,241.81466 584.0713,241.71722 583.94022,241.45506 583.60847,240.79156 584.27197,240.87506 583.94022,240.21156 583.80915,239.9494 583.44955,239.85196 583.31847,239.58981 583.06977,239.0924 583.56717,238.22195 583.31847,237.72455 583.1874,237.4624 582.8278,237.36495 582.69672,237.1028 582.63842,236.98618 582.63842,232.24539 582.69672,232.12878 582.8278,231.86663 583.1874,231.76918 583.31847,231.50703 583.73297,230.67803 582.90397,229.22727 583.31847,228.39827 583.44955,228.13611 583.80915,228.03867 583.94022,227.77652 584.19906,227.25885 583.54584,225.68389 583.94022,225.28951 584.08677,225.14296 584.41543,225.43606 584.56198,225.28951 584.85507,224.99641 584.56198,224.4605 584.56198,224.046 584.56198,223.00616 584.93141,219.18911 584.56198,218.45023 584.4309,218.18808 584.0713,218.09064 583.94022,217.82848 583.52572,216.99948 584.35473,215.54872 583.94022,214.71972 583.80915,214.45757 583.44955,214.36012 583.31847,214.09797 583.06977,213.60057 583.56717,212.73012 583.31847,212.23271 583.1874,211.97056 582.8278,211.87311 582.69672,211.61096 582.51135,211.24022 582.88209,210.7382 582.69672,210.36746 582.56564,210.1053 582.20604,210.00786 582.07497,209.7457 581.82627,209.2483 582.32367,208.37785 582.07497,207.88045 581.94389,207.61829 581.58429,207.52085 581.45322,207.2587 581.26785,206.88796 581.63859,206.38593 581.45322,206.01519 581.32214,205.75304 580.96254,205.65559 580.83146,205.39344 580.64609,205.0227 581.01683,204.52068 580.83146,204.14994 580.46933,203.42567 579.95009,203.00894 579.58796,202.28468 579.40259,201.91394 579.88106,201.33427 579.58796,201.04118 579.44141,200.89463 579.05889,201.22655 578.96621,201.04118 578.78084,200.67043 579.15158,200.16841 578.96621,199.79767 578.87351,199.6123 578.43714,199.98304 578.34446,199.79767 578.0664,199.24156 578.7841,198.37206 578.34446,197.93242 578.19791,197.78587 577.86925,198.07896 577.7227,197.93242 577.43529,197.645 577.9104,196.44256 577.7227,196.06716 577.59163,195.80501 577.23203,195.70756 577.10095,195.44541 577.00825,195.26004 577.10095,195.03091 577.10095,194.82365 576.8937,194.40915 576.73626,193.96574 576.4792,193.58015 576.0647,192.9584 575.68405,192.3127 575.2357,191.71489 574.70812,191.01146 573.85818,190.58125 573.37044,189.84964 573.11338,189.46404 573.02674,188.97688 572.74869,188.60613 572.22111,187.9027 571.37117,187.47249 570.88343,186.74088 570.62637,186.35528 570.51874,185.88297 570.26168,185.49737 569.93652,185.00963 569.28033,184.77818 569.01817,184.25387 568.92547,184.0685 569.11087,183.81749 569.01817,183.63212 568.8871,183.36996 568.5275,183.27252 568.39642,183.01036 568.21105,182.63962 568.68952,182.05996 568.39642,181.76686 568.24987,181.62031 567.92122,181.91341 567.77467,181.76686 567.62812,181.62031 567.86737,181.33048 567.77467,181.14511 567.64359,180.88295 567.28399,180.78551 567.15292,180.52336 567.06022,180.33799 567.24562,180.08698 567.15292,179.9016 567.02184,179.63945 566.66224,179.54201 566.53117,179.27985 566.43847,179.09448 566.62387,178.84347 566.53117,178.6581 565.10841,175.81259 566.78886,181.29645 565.28766,176.79284 565.22216,176.59623 565.38036,176.35646 565.28766,176.17109 564.82319,175.24215 563.1894,173.83983 562.80065,173.06233 562.70795,172.87696 562.89335,172.62595 562.80065,172.44058 562.5385,171.91627 561.88231,171.68482 561.55715,171.19708 560.35704,169.39691 561.48145,169.87789 559.69189,168.08831 558.80586,167.20228 559.21082,166.74496 558.44839,165.60131 558.12323,165.11356 557.46704,164.88211 557.20488,164.3578 557.11218,164.17243 557.20488,163.9433 557.20488,163.73605 556.99763,163.32155 556.8402,162.87814 556.58313,162.49255 556.25797,162.0048 555.60178,161.77335 555.33963,161.24904 555.24693,161.06367 555.43233,160.81266 555.33963,160.62729 555.07747,160.10298 554.35828,159.90809 554.09612,159.38379 554.00342,159.19841 554.18882,158.9474 554.09612,158.76203 553.83397,158.23773 553.11477,158.04284 552.85262,157.51853 552.75992,157.33316 552.94532,157.08215 552.85262,156.89678 552.72154,156.63462 552.36194,156.53718 552.23087,156.27502 552.13817,156.08965 552.32357,155.83864 552.23087,155.65327 550.93708,153.06569 552.27377,156.31795 550.98736,155.03152 550.84081,154.88497 551.08006,154.59514 550.98736,154.40977 550.72521,153.88546 550.00601,153.69057 549.74386,153.16626 549.65116,152.98089 549.83656,152.72988 549.74386,152.54451 549.48171,152.0202 548.76251,151.82532 548.50035,151.30101 548.40765,151.11564 548.59305,150.86463 548.50035,150.67926 547.97312,149.62478 545.68213,147.86103 544.76984,146.94874 542.70775,144.88665 545.06294,147.53494 544.14809,145.70524 543.84765,145.10435 542.26197,143.51867 541.66108,143.21823 541.47571,143.12553 541.18588,143.36478 541.03933,143.21823 540.89278,143.07168 541.18588,142.74303 541.03933,142.59648 540.89278,142.44993 540.56413,142.74303 540.41758,142.59648 540.27103,142.44993 540.51028,142.1601 540.41758,141.97473 540.15542,141.45042 539.69838,140.99338 539.17407,140.73122 538.9887,140.63852 538.69887,140.87777 538.55232,140.73122 538.40577,140.58467 538.64502,140.29484 538.55232,140.10947 538.05492,139.11467 536.56271,138.61727 536.06531,137.62246 535.97261,137.43709 536.21186,137.14726 536.06531,137.00071 535.91876,136.85416 535.59011,137.14726 535.44356,137.00071 535.29701,136.85416 535.59011,136.52551 535.44356,136.37896 535.29701,136.23241 534.96836,136.52551 534.82181,136.37896 533.53538,135.09253 536.78764,136.42926 534.20006,135.13545 534.01469,135.04275 533.72485,135.282 533.5783,135.13545 533.43176,134.98891 533.72485,134.66025 533.5783,134.5137 533.43176,134.36715 533.1031,134.66025 532.95655,134.5137 532.81,134.36715 533.1031,134.0385 532.95655,133.89195 532.81,133.7454 532.48135,134.0385 532.3348,133.89195 532.18825,133.7454 532.48135,133.41675 532.3348,133.2702 532.0417,132.9771 531.38439,133.56329 531.0913,133.2702 530.94475,133.12365 531.23784,132.79499 531.0913,132.64845 530.94475,132.5019 530.61609,132.79499 530.46954,132.64845 530.323,132.5019 530.61609,132.17324 530.46954,132.02669 530.323,131.88014 530.03316,132.11939 529.84779,132.02669 529.10169,131.65364 528.72864,130.53449 527.98254,130.16144 527.79717,130.06874 527.50733,130.30799 527.36078,130.16144 527.21424,130.01489 527.50733,129.68623 527.36078,129.53968 527.21424,129.39314 526.88558,129.68623 526.73903,129.53968 526.59248,129.39314 526.73903,129.12518 526.73903,128.91793 526.53178,128.91793 526.26383,129.06448 526.11728,128.91793 525.97073,128.77138 526.26383,128.44273 526.11728,128.29618 525.97073,128.14963 525.64208,128.44273 525.49553,128.29618 525.34898,128.14963 525.64208,127.82098 525.49553,127.67443 525.34898,127.52788 525.02032,127.82098 524.87378,127.67443 524.58068,127.38133 525.16687,126.72402 524.87378,126.43092 524.72723,126.28438 524.39857,126.57747 524.25202,126.43092 524.10547,126.28438 524.39857,125.95572 524.25202,125.80917 524.10547,125.66262 523.77682,125.95572 523.63027,125.80917 523.48372,125.66262 523.72297,125.37279 523.63027,125.18742 523.49919,124.92527 523.1396,124.82782 523.00852,124.56567 522.82315,124.19493 523.30162,123.61526 523.00852,123.32216 522.86197,123.17562 522.53332,123.46871 522.38677,123.32216 522.32457,123.25996 522.32457,121.51908 522.38677,121.45691 522.53332,121.31036 522.86197,121.60346 523.00852,121.45691 523.42321,121.04222 522.59383,120.62809 523.00852,120.2134 523.15507,120.06685 523.48372,120.35995 523.63027,120.2134 523.92337,119.92031 523.33717,119.263 523.63027,118.9699 523.77682,118.82335 524.10547,119.11645 524.25202,118.9699 524.39857,118.82335 524.10547,118.4947 524.25202,118.34815 524.39857,118.2016 524.72723,118.4947 524.87378,118.34815 525.02032,118.2016 524.78108,117.91177 524.87378,117.72639 525.56114,116.35167 525.25966,117.53345 526.11728,117.10464 528.46415,115.93121 522.9259,115.72026 529.84779,117.10464 z"
       inkscape:connector-curvature="0"
       id="path2984"
       style="fill:none;stroke:#e20000;stroke-opacity:1" />
    <path
       d="M 560.62479,170.48213 C 560.62479,169.89593 561.21098,168.72355 560.62479,168.72355 560.0386,168.72355 561.03929,170.89663 560.62479,170.48213 559.25344,169.11078 560.77347,167.70197 560.18515,166.52532 560.09245,166.33995 559.83819,166.27105 559.7455,166.08568 559.64404,165.88276 559.64404,164.53001 559.7455,164.3271 559.8382,164.14173 560.09246,164.07282 560.18515,163.88745 560.31488,163.62799 560.18515,162.86401 560.18515,162.56852 560.18515,159.93064 560.18515,157.29277 560.18515,154.6549 560.18515,154.47387 560.06877,153.45234 560.18515,153.33597 560.28877,153.23234 560.52116,153.43959 560.62479,153.33597 560.84461,153.11615 560.40497,152.23686 560.62479,152.01703 560.72842,151.91341 560.96081,152.12066 561.06444,152.01703 561.27169,151.80978 560.85718,151.34499 561.06444,151.13774 561.16806,151.03412 561.40046,151.24137 561.50408,151.13774 561.60771,151.03412 561.43858,150.82917 561.50408,150.6981 561.59678,150.51273 561.85104,150.44382 561.94373,150.25845 562.0748,149.9963 561.73647,149.58641 561.94373,149.37916 562.04735,149.27554 562.27975,149.48279 562.38337,149.37916 562.59062,149.17191 562.17612,148.70712 562.38337,148.49987 562.487,148.39625 562.71939,148.6035 562.82302,148.49987 562.92664,148.39625 562.71939,148.16385 562.82302,148.06023 562.92664,147.9566 563.15904,148.16385 563.26266,148.06023 563.46991,147.85298 563.05541,147.38819 563.26266,147.18094 563.36629,147.07731 563.59868,147.28456 563.70231,147.18094 563.80593,147.07731 563.59868,146.84492 563.70231,146.74129 563.80593,146.63767 564.01087,146.80679 564.14195,146.74129 564.32732,146.64859 564.39623,146.39433 564.5816,146.30165 564.71267,146.23615 564.91762,146.40527 565.02124,146.30165 565.12487,146.19802 564.91762,145.96563 565.02124,145.862 565.19254,145.6907 566.51153,145.862 566.77982,145.862 567.95221,145.862 566.63327,146.00855 567.21947,145.42236 567.32309,145.31873 567.51256,145.42236 567.65911,145.42236 567.80566,145.42236 567.99513,145.31873 568.09876,145.42236 568.20238,145.52598 567.99513,145.75838 568.09876,145.862 568.30199,146.06523 569.15225,145.72928 569.41769,145.862 569.60306,145.9547 569.67197,146.20896 569.85734,146.30165 570.12278,146.43437 570.97304,146.09841 571.17627,146.30165 571.2799,146.40527 571.07265,146.63767 571.17627,146.74129 571.38352,146.94854 571.84831,146.53404 572.05556,146.74129 572.15919,146.84492 571.95194,147.07731 572.05556,147.18094 572.26281,147.38819 572.6727,147.04986 572.93485,147.18094 573.12022,147.27364 573.18913,147.5279 573.3745,147.62058 573.63665,147.75166 573.99164,147.4895 574.25379,147.62058 574.76592,147.87665 575.06059,148.24381 575.57272,148.49987 575.83488,148.63095 576.18986,148.36879 576.45201,148.49987 576.63739,148.59257 576.70629,148.84683 576.89166,148.93952 577.02274,149.00502 577.20023,148.87402 577.3313,148.93952 577.51668,149.03222 577.58558,149.28648 577.77095,149.37916 577.90203,149.44466 578.07952,149.31366 578.2106,149.37916 578.39597,149.47186 578.46487,149.72612 578.65024,149.81881 578.91239,149.94988 579.26738,149.68773 579.52953,149.81881 579.7149,149.91151 579.7838,150.16577 579.96918,150.25845 580.23133,150.38953 580.58631,150.12738 580.84847,150.25845 581.3606,150.51452 581.65527,150.88168 582.1674,151.13774 582.29848,151.20324 582.47597,151.07224 582.60705,151.13774 584.61913,152.14378 580.74145,150.95552 583.92598,152.01703 584.06501,152.06333 584.23455,151.95153 584.36563,152.01703 584.73637,152.2024 584.87418,152.71095 585.24492,152.89632 585.37599,152.96182 585.53801,152.89632 585.68456,152.89632 585.97766,153.04287 586.2912,153.1542 586.56385,153.33597 586.7363,153.45093 586.81813,153.68293 587.0035,153.77561 587.13457,153.84111 587.31207,153.71011 587.44314,153.77561 589.45523,154.78165 585.57755,153.59339 588.76208,154.6549 588.90111,154.7012 589.07065,154.5894 589.20172,154.6549 589.38709,154.7476 589.456,155.00186 589.64137,155.09455 589.9845,155.26611 591.05682,155.36263 591.39995,155.53419 591.77069,155.71956 591.9085,156.22811 592.27924,156.41348 592.41032,156.47898 592.57986,156.36718 592.71888,156.41348 593.02976,156.51711 593.2873,156.7495 593.59817,156.85313 593.7372,156.89943 593.90674,156.78763 594.03782,156.85313 594.22319,156.94583 594.29209,157.20009 594.47746,157.29277 594.60854,157.35827 594.77808,157.24647 594.91711,157.29277 598.10164,158.35429 594.22396,157.16602 596.23605,158.17206 596.36712,158.23756 596.54461,158.10656 596.67569,158.17206 596.86106,158.26476 596.94289,158.49675 597.11534,158.61171 597.33674,159.58032 598.01977,158.8441 598.43427,159.05135 598.80501,159.23673 598.92033,159.79957 599.31356,159.93064 599.59162,160.02334 599.9148,159.83794 600.19285,159.93064 600.72043,160.1065 600.98421,161.07372 601.51179,161.24958 601.78984,161.34228 602.11302,161.15688 602.39108,161.24958 602.78431,161.38066 602.87714,161.99779 603.27037,162.12887 603.54842,162.22157 603.8716,162.03617 604.14966,162.12887 604.54289,162.25995 604.68406,162.77824 605.02895,163.00816 605.46859,163.30126 605.90824,163.59435 606.34788,163.88745 607.17123,164.43635 607.72276,164.21785 608.54611,164.76674 609.2646,165.24573 609.94824,166.12727 610.74433,166.52532 610.87541,166.59082 611.0529,166.45982 611.18398,166.52532 611.71155,166.78911 611.97534,167.58047 612.50291,167.84426 612.63399,167.90976 612.79601,167.84426 612.94256,167.84426 613.23566,167.99081 613.54919,168.10213 613.82185,168.2839 614.30685,168.60724 614.6214,169.34315 615.14079,169.60284 615.27186,169.66834 615.43388,169.60284 615.58043,169.60284 615.87353,169.74939 616.18706,169.86071 616.45972,170.04248 616.94472,170.36582 617.25927,171.10173 617.77866,171.36142 617.90973,171.42692 618.08722,171.29592 618.2183,171.36142 618.81585,171.66019 619.37933,172.38158 619.97688,172.68035 620.10796,172.74585 620.28545,172.61485 620.41653,172.68035 621.01408,172.97913 621.57756,173.70051 622.17511,173.99929 622.30618,174.06479 622.48368,173.93379 622.61475,173.99929 624.62684,175.00533 620.74916,173.81707 623.93369,174.87858 624.07272,174.92488 624.24226,174.81308 624.37333,174.87858 626.38542,175.88462 622.50774,174.69636 625.69227,175.75787 625.8313,175.80417 626.00084,175.69237 626.13191,175.75787 628.02821,176.70602 625.11491,175.68897 627.0112,176.63716 627.35433,176.80872 628.42666,176.90524 628.76978,177.0768 629.14053,177.26218 629.27833,177.77072 629.64907,177.95609 629.78015,178.02159 629.98509,177.85247 630.08872,177.95609 630.19234,178.05972 629.98509,178.29211 630.08872,178.39574 630.19234,178.49937 630.39729,178.33024 630.52836,178.39574 631.0405,178.65181 631.33517,179.01897 631.8473,179.27503 632.10945,179.40611 632.51934,179.06778 632.72659,179.27503 632.83022,179.37866 632.62296,179.61105 632.72659,179.71468 632.83022,179.8183 633.03516,179.64918 633.16624,179.71468 634.10282,180.18297 633.10894,180.12567 634.04553,180.59397 634.1766,180.65947 634.35409,180.52847 634.48517,180.59397 634.85591,180.77934 634.99372,181.28789 635.36446,181.47326 635.49554,181.53876 635.70048,181.36963 635.80411,181.47326 635.90773,181.57688 635.70048,181.80928 635.80411,181.9129 635.90773,182.01653 636.14013,181.80928 636.24375,181.9129 636.34738,182.01653 636.14013,182.24892 636.24375,182.35255 636.34738,182.45617 636.6834,182.49909 636.6834,182.35255 636.6834,182.206 636.3903,182.35255 636.24375,182.35255 635.66193,182.35255 635.94628,182.35255 635.36446,182.35255"
       inkscape:connector-curvature="0"
       id="path2990"
       style="opacity:0.6;fill:none;stroke:#e20000;stroke-opacity:1" />
    <path
       d="M 539.96147,141.90519 C 540.54766,141.6121 542.01315,141.6121 541.72005,141.0259 541.42695,140.43971 539.30609,141.90519 539.96147,141.90519 540.69421,141.6121 541.42695,141.319 542.1597,141.0259 542.1597,140.87936 542.05607,140.68988 542.1597,140.58626 542.36695,140.37901 542.83173,140.79351 543.03899,140.58626 543.14261,140.48263 542.93536,140.25024 543.03899,140.14661 543.24624,139.93936 543.71102,140.35387 543.91828,140.14661 544.0219,140.04299 543.81465,139.81059 543.91828,139.70697 544.0219,139.60334 544.22684,139.77247 544.35792,139.70697 544.54329,139.61427 544.6122,139.36001 544.79757,139.26732 544.92864,139.20182 545.13359,139.37095 545.23721,139.26732 545.34084,139.1637 545.13359,138.9313 545.23721,138.82768 545.34084,138.72405 545.57323,138.9313 545.67686,138.82768 545.78048,138.72405 545.57323,138.49166 545.67686,138.38803 545.78048,138.28441 546.01288,138.49166 546.1165,138.38803 546.22013,138.28441 546.01288,138.05201 546.1165,137.94839 546.22013,137.84476 546.45252,138.05201 546.55615,137.94839 546.65977,137.84476 546.45252,137.61237 546.55615,137.50874 546.65977,137.40512 546.86471,137.57424 546.99579,137.50874 547.50792,137.25268 547.8026,136.88552 548.31473,136.62945 548.78368,136.39498 549.60435,136.86393 550.07331,136.62945 550.25868,136.53675 550.32758,136.28249 550.51295,136.18981 550.67371,136.10941 553.86935,136.10941 554.03011,136.18981 554.21548,136.28251 554.28439,136.53677 554.46976,136.62945 555.29043,137.03979 556.7266,136.21912 557.54727,136.62945 557.73264,136.72215 557.80155,136.97641 557.98692,137.0691 558.44817,137.29972 559.83424,136.71819 560.18515,137.0691 560.28877,137.17272 560.08152,137.40512 560.18515,137.50874 560.47824,137.80184 561.65063,137.21565 561.94373,137.50874 562.04735,137.61237 561.81265,137.88285 561.94373,137.94839 562.64716,138.3001 563.87816,137.59667 564.5816,137.94839 564.76697,138.04109 564.83587,138.29535 565.02124,138.38803 565.37296,138.56389 565.98846,138.21218 566.34018,138.38803 566.52555,138.48073 566.59445,138.73499 566.77982,138.82768 567.24878,139.06216 568.06945,138.5932 568.5384,138.82768 568.72377,138.92038 568.79268,139.17464 568.97805,139.26732 569.32976,139.44318 569.94527,139.09147 570.29698,139.26732 570.48235,139.36002 570.55126,139.61428 570.73663,139.70697 571.20558,139.94145 572.02625,139.47249 572.49521,139.70697 572.68058,139.79967 572.74948,140.05393 572.93485,140.14661 573.19701,140.27769 573.55199,140.01554 573.81414,140.14661 573.99951,140.23931 574.06842,140.49357 574.25379,140.58626 574.51594,140.71734 574.87093,140.45518 575.13308,140.58626 575.64521,140.84232 575.93988,141.20948 576.45201,141.46555 576.80373,141.64141 577.41923,141.28969 577.77095,141.46555 578.85749,142.00882 577.61919,141.90519 578.65024,141.90519 578.83127,141.90519 579.8528,141.78882 579.96918,141.90519 580.0728,142.00882 579.86555,142.24121 579.96918,142.34484 580.26227,142.63794 581.43466,142.05174 581.72776,142.34484 581.83138,142.44847 581.62413,142.68086 581.72776,142.78449 581.93501,142.99174 582.34489,142.65341 582.60705,142.78449 583.11918,143.04055 583.41385,143.40771 583.92598,143.66378 584.18814,143.79485 584.59802,143.45652 584.80527,143.66378 584.9089,143.7674 584.70165,143.9998 584.80527,144.10342 585.02509,144.32324 585.90438,143.8836 586.12421,144.10342 586.22783,144.20705 586.02058,144.43944 586.12421,144.54307 586.33146,144.75032 586.74134,144.41199 587.0035,144.54307 587.18887,144.63577 587.25777,144.89003 587.44314,144.98271 587.7053,145.11379 588.11518,144.77546 588.32243,144.98271 588.42606,145.08634 588.21881,145.31873 588.32243,145.42236 588.52567,145.62559 589.37592,145.28963 589.64137,145.42236 589.82674,145.51506 589.89564,145.76932 590.08101,145.862 590.34317,145.99308 590.69815,145.73092 590.9603,145.862 591.47243,146.11807 591.76711,146.48523 592.27924,146.74129 592.74611,146.97473 592.69166,146.50786 593.15853,146.74129 593.3439,146.83399 593.4128,147.08825 593.59817,147.18094 593.86033,147.31201 594.21531,147.04986 594.47746,147.18094 594.9896,147.437 595.28427,147.80416 595.7964,148.06023 596.05855,148.1913 596.41354,147.92915 596.67569,148.06023 596.86106,148.15293 596.92996,148.40719 597.11534,148.49987 597.37749,148.63095 597.78737,148.29262 597.99463,148.49987 598.09825,148.6035 597.891,148.83589 597.99463,148.93952 598.43427,149.37916 600.19285,148.49987 600.6325,148.93952 600.73612,149.04314 600.52887,149.27554 600.6325,149.37916 600.99887,149.74553 602.46435,149.01279 602.83072,149.37916 602.93435,149.48279 602.7271,149.71518 602.83072,149.81881 602.9471,149.93518 603.96863,149.81881 604.14966,149.81881 605.32204,149.81881 604.00311,149.67226 604.5893,150.25845 604.94021,150.60936 606.32628,150.02783 606.78753,150.25845 607.08062,150.405 607.66682,151.02579 607.66682,150.6981 607.66682,150.55155 607.3308,150.59447 607.22717,150.6981 607.12355,150.80172 607.3308,151.03412 607.22717,151.13774 607.12355,151.24137 606.9186,151.07224 606.78753,151.13774 606.60216,151.23044 606.53325,151.4847 606.34788,151.57739 606.21681,151.64289 606.01186,151.47376 605.90824,151.57739 605.80461,151.68101 605.90824,151.87048 605.90824,152.01703"
       inkscape:connector-curvature="0"
       id="path2994"
       style="opacity:0.6;fill:none;stroke:#e20000;stroke-opacity:1" />
    <path
       d="M 567.85849,145.98167 C 572.87056,146.95976 577.51314,149.46757 582.20531,151.45042 587.4221,153.8806 592.83997,156.45631 597.72688,159.2672 601.41524,160.62757 604.6887,163.03707 608.19427,164.87168 614.16288,168.47498 619.56342,172.8626 625.896,175.97239 628.92361,177.74097 632.08919,179.27116 634.89063,181.38684 639.46465,186.01775 641.50346,192.52255 644.48039,198.20327 645.17037,199.82573 645.01555,201.80833 646.04662,203.09432 646.20075,205.38686 648.12513,207.51192 648.14868,209.99125 649.00946,212.88051 649.76751,215.82444 650.45681,218.75668 651.45423,221.14547 650.69959,224.09789 651.98183,226.46421 653.30445,231.31745 653.03075,236.45953 654.05475,241.31521 654.22282,244.86541 654.28898,248.54783 653.31451,251.93615 653.41185,253.48042 653.88063,255.22277 652.94356,256.48373 652.65039,259.8695 652.01822,263.56093 649.02797,265.66132 646.84687,267.71703 643.66646,267.83398 641.72935,270.1937 640.05295,271.26215 639.50886,273.11128 639.67177,274.9763 638.2164,278.52872 639.89421,283.26994 637.06138,286.48951 636.0537,287.48033 635.44008,289.03327 633.83273,289.49833 630.90468,290.5634 627.77346,291.25038 625.12226,292.8094 621.89277,293.96355 618.60669,292.99872 615.62868,291.8202 613.67855,291.71439 612.21828,290.19757 610.46285,289.42963 609.46231,288.25661 607.65249,288.53033 606.78082,287.09402 603.95411,284.06603 602.2105,280.31778 600.06769,276.85519 599.02091,275.07489 598.79285,273.07074 597.3834,271.59653 595.92805,268.17941 594.60125,264.66741 592.98695,261.29234 592.63717,259.21463 591.08294,257.47992 590.8162,255.3434 587.87634,249.66835 584.67736,243.94813 583.31476,237.6889 582.40064,236.0034 582.55648,233.4041 583.36966,231.67125 583.72697,230.11466 583.18552,228.18174 584.23522,226.72525 585.35948,221.90353 584.55533,216.69182 583.23228,212.03835 582.32346,209.22117 581.57121,206.32036 580.53945,203.50649 579.58837,202.12555 579.64337,200.1756 578.49235,199.11004 578.92863,197.20506 576.91632,195.46606 576.44525,193.64195 574.33415,189.33437 569.71831,186.50483 568.53164,181.71658 566.41659,179.18302 565.42118,175.7628 563.13225,173.30836 562.6436,171.55368 560.6005,170.57954 560.61803,168.54096 560.17794,163.11885 559.81467,157.41793 561.23628,152.1367 562.44555,149.2632 564.11445,145.64001 567.85844,145.98167 z"
       inkscape:connector-curvature="0"
       id="path2993"
       style="fill:#9681a3;stroke:none" />
    <path
       d="M 552.33352,136.47435 C 560.23449,137.1781 568.04826,138.9693 575.66219,141.09062 579.30089,142.12463 582.95693,143.41342 586.44723,144.73143 587.64908,144.95174 588.47045,145.93718 589.81326,145.89924 594.67796,147.76804 599.7659,149.15861 604.7612,150.57047 605.62073,151.2372 606.1692,151.82014 607.33037,151.57341 610.92534,153.11046 613.2005,156.5599 616.56292,158.44286 618.64665,161.0178 621.11357,163.38513 623.0889,165.88935 625.54031,167.1938 626.61308,170.17826 628.9829,171.45361 630.97065,173.36325 632.00961,175.88394 633.80525,177.99333 633.92407,179.90021 631.07908,179.06071 630.28809,178.11698 625.40132,175.27656 620.00772,172.90064 615.51876,169.46147 614.03858,169.03017 613.2528,167.48627 611.72683,167.08464 606.20596,163.0994 599.94863,159.94078 593.82547,156.84095 585.6454,152.82609 577.43894,148.50224 568.82021,145.6382 567.13162,145.44339 565.20011,145.36443 564.02533,146.57245 562.33959,147.11497 561.99729,149.34095 561.41494,150.76281 559.71754,151.4889 560.59329,154.22765 560.13684,155.72168 559.7747,158.71086 560.36566,162.02703 559.13428,164.80398 557.32009,165.49112 557.14584,162.53136 556.12546,161.67151 554.17046,159.34657 552.90838,156.47621 551.19319,154.07389 549.38425,153.34491 549.2629,150.82376 547.75846,149.64996 545.92732,147.0311 542.56798,145.14733 541.56221,141.98365 541.89878,140.439 544.09434,140.9287 544.62599,139.5656 546.57195,139.00437 547.59078,136.49855 549.94295,136.58426 550.73428,136.46501 551.53501,136.45015 552.33352,136.47435 z"
       inkscape:connector-curvature="0"
       id="path2995"
       style="fill:#c1dfbe;stroke:none" />
    <path
       d="M 527.36992,116.60788 C 530.87764,118.15872 534.93932,117.88704 538.47096,119.23201 543.10738,120.36254 547.99774,119.85966 552.62203,120.72956 554.34889,121.09126 556.19458,121.5239 557.67795,122.29579 563.47457,123.67829 568.20873,127.54407 573.4777,130.14071 575.60854,131.82839 578.43238,132.41501 580.50984,134.33355 582.16047,135.68994 584.56192,136.18649 585.82898,137.8345 588.5429,138.81022 590.77362,140.91112 593.27547,142.07982 594.77629,143.75404 597.55016,144.06363 599.36048,145.50995 600.53067,146.5854 603.9301,146.77831 603.38731,148.88058 601.48636,149.76425 599.08103,148.42387 597.09489,148.08373 592.25407,146.68804 587.61607,144.50918 582.90259,142.95911 579.77561,141.48406 576.10312,141.32288 572.88693,139.97777 565.56311,138.39091 558.17427,136.0214 550.58868,136.32322 548.04627,136.31622 545.89415,137.56472 544.1726,139.3183 542.42545,140.22922 540.02146,142.46983 538.57132,139.97491 536.41402,138.32115 535.76693,135.53748 533.36008,134.09752 530.17181,131.77562 526.69415,129.43579 524.69083,126.01904 522.82182,124.51144 522.08017,121.71703 523.94893,119.864 524.90739,118.75476 525.78745,116.82723 527.36992,116.60788 z"
       inkscape:connector-curvature="0"
       id="path2997"
       style="fill:#a6a5bc;stroke:none" />
  </g>
</svg>
