<?xml version="1.0" encoding="UTF-8" standalone="no"?>
<!-- Created with Inkscape (http://www.inkscape.org/) -->

<svg
   xmlns:dc="http://purl.org/dc/elements/1.1/"
   xmlns:cc="http://creativecommons.org/ns#"
   xmlns:rdf="http://www.w3.org/1999/02/22-rdf-syntax-ns#"
   xmlns:svg="http://www.w3.org/2000/svg"
   xmlns="http://www.w3.org/2000/svg"
   xmlns:xlink="http://www.w3.org/1999/xlink"
   xmlns:inkscape="http://www.inkscape.org/namespaces/inkscape"
   version="1.1"
   width="740"
   height="520"
   id="svg2"
   style="display:inline;enable-background:new">
  <defs
     id="defs4">
    <filter
       color-interpolation-filters="sRGB"
       id="filter3050">
      <feBlend
         in2="BackgroundImage"
         mode="lighten"
         id="feBlend3052" />
    </filter>
  </defs>
  <metadata
     id="metadata7">
    <rdf:RDF>
      <cc:Work
         rdf:about="">
        <dc:format>image/svg+xml</dc:format>
        <dc:type
           rdf:resource="http://purl.org/dc/dcmitype/StillImage" />
        <dc:title />
      </cc:Work>
    </rdf:RDF>
  </metadata>
  <g
     id="g360"
     style="display:none">
    <image
       xlink:href="pngs/coronal-0845.png"
       id="image362"
       height="520"
       width="740"
       y="0"
       x="0" />
  </g>
  <g
     id="g368"
     style="display:inline">
    <path
       d="M 595.82895,382.48611 C 580.89179,391.01558 549.77067,379.75809 548.13366,358.16283 534.64463,334.73849 534.89132,318.62497 554.71788,299.27801 M 526.11728,214.09797 C 514.53959,190.77686 499.91956,168.19939 486.14377,145.74003 469.27533,118.90176 445.41811,95.637891 415.44541,84.151789 394.50103,64.650538 433.82939,50.73476 450.24773,53.586712 469.88551,56.754831 490.76225,53.818883 509.23433,62.888776 539.60925,74.839448 570.41447,86.882577 597.07645,106.13479 629.27601,129.76551 657.00859,159.87039 677.95873,193.83166 688.10527,211.11347 698.03523,236.3685 678.99123,249.71511 696.7897,272.70603 685.81803,302.00565 675.95954,326.6351 666.66103,346.84069 646.61602,358.65855 627.83731,369.06811 617.85635,377.38398 605.55692,380.86758 593.26651,383.21454"
       inkscape:connector-curvature="0"
       id="path370"
       style="fill:none;stroke:#e20000;stroke-opacity:1" />
    <path
       d="M 500.39341,118.16436 C 508.74229,127.83429 516.49751,138.00423 525.10764,147.47028 531.26473,158.08057 535.9295,174.12322 550.41911,175.19257 563.41747,176.32987 579.15233,171.1933 589.76689,180.96145 606.23461,191.36476 620.29486,205.97636 629.46561,223.17883 636.37864,240.43924 637.19268,260.73846 630.42532,278.20205 629.00768,292.81574 618.99063,304.03274 611.88034,316.14308 618.21304,311.95153 624.87614,300.14308 629.39988,291.81347 639.06038,270.51475 643.27271,245.31449 634.92482,222.7999 630.96435,207.5817 619.19737,196.03373 608.87379,184.82592 593.17977,168.84992 574.03528,157.07803 555.34905,144.98271 539.87817,136.74492 524.20633,128.66043 508.74667,120.36258 506.53497,118.32445 503.35498,117.21433 500.39341,118.16436 z"
       inkscape:connector-curvature="0"
       id="path372"
       style="opacity:0.6;fill:none;stroke:#e20000;stroke-opacity:1" />
    <path
       d="M 553.59047,301.05673 C 566.84338,292.2679 569.9408,275.39049 571.45048,260.69376 572.74958,252.17347 578.10731,241.85572 571.65887,234.25149 564.26611,226.67716 554.65335,235.27939 546.05525,232.94935 537.7472,230.0177 534.43136,220.52249 528.10481,214.9134 526.96718,213.90245 525.65398,212.99241 524.13424,212.68805"
       inkscape:connector-curvature="0"
       id="path374"
       style="fill:none;stroke:#0000e9;stroke-width:1;stroke-miterlimit:4;stroke-opacity:1;stroke-dasharray:none" />
    <path
       d="M 547.43544,174.87858 C 542.6687,178.90176 536.69595,181.42989 532.87424,186.53774 528.06739,191.05414 523.70883,197.47705 525.38763,204.39425 525.60365,206.56723 525.7442,208.83036 525.01388,210.92953"
       inkscape:connector-curvature="0"
       id="path376"
       style="fill:none;stroke:#0000e9;stroke-width:1;stroke-miterlimit:4;stroke-opacity:1;stroke-dasharray:none" />
    <path
       d="M 551.39224,176.19751 C 570.25146,198.38262 591.85955,222.59107 592.45968,253.38915 592.44608,278.23292 582.10962,303.73791 561.05433,318.07179 554.11076,324.24422 543.55431,327.79184 539.08214,336.22834"
       inkscape:connector-curvature="0"
       id="path378"
       style="fill:none;stroke:#0000e9;stroke-width:1;stroke-miterlimit:4;stroke-opacity:1;stroke-dasharray:none" />
    <path
       d="M 542.194,345.10275 C 542.32911,345.07555 542.46423,345.04845 542.59934,345.02125"
       inkscape:connector-curvature="0"
       id="path380"
       style="fill:none;stroke:#0000e9;stroke-width:1;stroke-miterlimit:4;stroke-opacity:1;stroke-dasharray:none" />
    <path
       d="M 611.62362,316.44431 C 609.70316,321.04071 605.29194,323.97607 601.71466,327.22471 598.65055,329.6974 593.68071,332.94487 590.25184,334.88423"
       inkscape:connector-curvature="0"
       id="path382"
       style="fill:none;stroke:#0000e9;stroke-width:1;stroke-miterlimit:4;stroke-opacity:1;stroke-dasharray:none" />
    <path
       d="M 557.65684,297.47419 558.42656,296.22063"
       inkscape:connector-curvature="0"
       id="path384"
       style="fill:none;stroke:#0000e9;stroke-width:1;stroke-miterlimit:4;stroke-opacity:1;stroke-dasharray:none" />
    <path
       d="M 572.49521,155.53419 C 585.81247,145.3478 593.28928,127.96513 605.51278,113.4037"
       inkscape:connector-curvature="0"
       id="path386"
       style="fill:none;stroke:#0000e9;stroke-width:1;stroke-miterlimit:4;stroke-opacity:1;stroke-dasharray:none" />
    <path
       d="M 606.56123,181.94415 641.51949,143.66378"
       inkscape:connector-curvature="0"
       id="path388"
       style="fill:none;stroke:#0000e9;stroke-width:1;stroke-miterlimit:4;stroke-opacity:1;stroke-dasharray:none" />
    <path
       d="M 627.0112,206.53303 673.61359,184.99042"
       inkscape:connector-curvature="0"
       id="path390"
       style="fill:none;stroke:#0000e9;stroke-width:1;stroke-miterlimit:4;stroke-opacity:1;stroke-dasharray:none" />
    <path
       d="M 489.40228,56.614041 C 495.89667,78.900446 500.20984,99.955841 507.42773,118.604"
       inkscape:connector-curvature="0"
       id="path392"
       style="fill:none;stroke:#0000e9;stroke-width:1;stroke-miterlimit:4;stroke-opacity:1;stroke-dasharray:none" />
    <path
       d="M 503.91057,117.72471 C 482.66909,91.237583 447.16886,73.68908 416.85169,62.671549"
       inkscape:connector-curvature="0"
       id="path394"
       style="fill:none;stroke:#0000e9;stroke-width:1;stroke-miterlimit:4;stroke-opacity:1;stroke-dasharray:none" />
    <path
       d="M 501.2727,116.40578 C 484.83889,110.98222 469.93505,101.98872 450.27386,104.09571"
       inkscape:connector-curvature="0"
       id="path396"
       style="fill:none;stroke:#0000e9;stroke-width:1;stroke-miterlimit:4;stroke-opacity:1;stroke-dasharray:none" />
    <path
       d="M 474.26308,127.12106 508.74667,126.07797"
       inkscape:connector-curvature="0"
       id="path398"
       style="fill:none;stroke:#0000e9;stroke-width:1;stroke-miterlimit:4;stroke-opacity:1;stroke-dasharray:none" />
    <path
       d="M 501.75653,168.11473 C 511.38701,164.56655 522.7668,163.68184 532.92715,160.37029"
       inkscape:connector-curvature="0"
       id="path400"
       style="fill:none;stroke:#0000e9;stroke-width:1;stroke-miterlimit:4;stroke-opacity:1;stroke-dasharray:none" />
    <path
       d="M 596.67569,330.9526 608.10646,378.87392"
       inkscape:connector-curvature="0"
       id="path3039"
       style="fill:none;stroke:#0000e9;stroke-width:1;stroke-miterlimit:4;stroke-opacity:1;stroke-dasharray:none" />
    <path
       d="M 590.52066,334.03011 576.89166,384.07422"
       inkscape:connector-curvature="0"
       id="path403"
       style="fill:none;stroke:#0000e9;stroke-width:1;stroke-miterlimit:4;stroke-opacity:1;stroke-dasharray:none" />
    <path
       d="M 625.85228,298.15217 672.09045,333.35502"
       inkscape:connector-curvature="0"
       id="path3043"
       style="fill:none;stroke:#0000e9;stroke-width:1;stroke-miterlimit:4;stroke-opacity:1;stroke-dasharray:none" />
    <path
       d="M 639.1925,258.92623 690.19133,276.67205"
       inkscape:connector-curvature="0"
       id="path406"
       style="fill:none;stroke:#0000e9;stroke-width:1;stroke-miterlimit:4;stroke-opacity:1;stroke-dasharray:none" />
    <path
       d="M 636.24375,228.27984 C 659.9197,232.21282 671.70875,233.18122 687.11382,237.53448"
       inkscape:connector-curvature="0"
       id="path408"
       style="fill:none;stroke:#0000e9;stroke-width:1;stroke-miterlimit:4;stroke-opacity:1;stroke-dasharray:none" />
    <path
       d="M 559.7455,84.311684 543.67246,114.95735 533.80644,133.55194"
       inkscape:connector-curvature="0"
       id="path410"
       style="fill:none;stroke:#0000e9;stroke-width:1;stroke-miterlimit:4;stroke-opacity:1;stroke-dasharray:2, 4;stroke-dashoffset:0" />
    <path
       d="M 590.86278,334.58023 C 577.93364,336.5869 562.2917,340.99205 548.31473,355.57272"
       inkscape:connector-curvature="0"
       id="path412"
       style="fill:none;stroke:#0000e9;stroke-width:1;stroke-miterlimit:4;stroke-opacity:1;stroke-dasharray:none;stroke-dashoffset:0" />
    <path
       d="M 586.84847,345.98523 C 584.69366,355.30381 581.70959,364.59992 579.24018,373.91077 578.09214,376.78555 578.10118,380.45059 576.03594,382.81924 573.61885,383.01985 571.46876,381.20554 568.97414,381.33544 567.42378,380.84197 566.08878,380.23298 564.41283,380.11268 562.77362,379.27714 560.64994,378.54754 559.50803,377.32368 556.60553,375.53866 554.07392,372.70258 552.70727,369.54746 552.1539,367.86833 551.79451,366.07408 551.04487,364.54649 550.34827,362.37801 549.09466,360.16252 548.39326,357.95182 547.68202,357.21254 546.70487,355.00664 548.43446,355.27273 554.09167,350.30321 561.13201,345.90695 569.01416,346.15923 574.93499,345.99112 580.99688,345.63078 586.84846,345.98523 z"
       inkscape:connector-curvature="0"
       id="path414"
       style="fill:none;stroke:none" />
    <path
       d="M 596.32831,331.68302 C 598.08218,336.22045 598.77945,341.32772 600.12467,346.07341 602.64194,356.9366 605.54567,367.77352 607.74535,378.67009 606.39176,381.16571 602.83492,381.21963 600.32739,381.59946 598.31404,381.88683 596.20532,381.65616 594.58347,380.34624 593.8915,381.60975 592.29246,382.63822 591.39605,383.27263 590.84611,384.71067 588.73927,383.16279 587.63158,383.51993 584.22946,383.13014 580.67751,383.34476 577.36862,382.69559 579.16753,373.98666 582.05143,365.38673 584.30996,356.73405 586.42611,349.4741 588.23869,342.06449 590.54423,334.89792 592.46645,333.94046 594.15803,331.89589 596.32831,331.68302 z"
       inkscape:connector-curvature="0"
       id="path416"
       style="fill:none;stroke:none" />
    <path
       d="M 623.29779,303.40834 C 638.85421,313.59019 654.39626,323.92398 669.6254,334.58193 670.66001,336.71841 668.06573,338.7528 666.98811,340.39599 665.05686,342.68461 661.96542,343.77381 660.64015,346.576 657.68716,350.08535 654.03716,353.44207 649.63529,354.79187 648.20848,356.1943 646.34274,356.88526 645.03275,358.48763 644.07776,359.63167 642.35652,360.05612 641.43316,360.97438 639.26693,362.98654 636.39306,364.20338 633.73937,365.45326 632.62967,365.58533 632.07292,366.91164 630.85419,366.92332 629.61355,367.58543 627.72344,370.23581 626.74022,367.77747 618.56932,354.49067 610.47836,341.10591 602.8543,327.52013 603.47629,325.32783 606.04363,323.96751 607.47068,322.2136 609.45475,320.73913 610.58801,318.46095 612.56771,317.10604 614.63344,315.7703 615.315,313.01864 617.07078,311.28523 619.05365,308.78097 620.87165,305.92825 622.70702,303.43582 622.89317,303.36492 623.10378,303.33473 623.29779,303.40832 z"
       inkscape:connector-curvature="0"
       id="path418"
       style="fill:none;stroke:none" />
    <path
       d="M 639.11127,230.19369 C 652.20406,231.03113 664.90954,234.48357 677.33,238.53497 679.76066,239.56412 682.82369,239.70302 684.91681,241.26725 685.20927,243.49271 681.93944,242.95064 681.08365,244.39972 680.11178,244.79777 679.58958,245.28954 679.33881,246.21326 678.17424,247.66737 678.89433,250.16056 678.56943,251.95612 677.99658,254.07438 679.95547,255.54775 680.17688,257.38299 681.57644,258.12551 682.71543,259.38692 683.46048,260.73529 684.79504,261.68939 684.92765,263.59011 686.02966,264.76079 686.77031,267.4898 687.9331,270.06133 688.59883,272.78431 688.69261,274.77249 686.30102,274.49508 685.13663,273.75396 669.9938,269.15214 654.63813,264.99786 639.60588,260.18573 638.19319,257.56428 639.14111,254.16701 638.7318,251.28311 638.6465,244.43798 638.46139,237.55901 637.13287,230.82568 637.34156,229.931 638.47439,230.25603 639.11127,230.19369 z"
       inkscape:connector-curvature="0"
       id="path422"
       style="fill:none;stroke:none" />
    <path
       d="M 559.7455,83.432394 534.24608,132.67265"
       inkscape:connector-curvature="0"
       id="path430"
       style="fill:#dad3b7;fill-opacity:1;stroke:#0000e9;stroke-width:1;stroke-miterlimit:4;stroke-opacity:1;stroke-dasharray:none;stroke-dashoffset:0" />
    <path
       d="M 560.34611,84.904717 C 563.16939,85.844058 565.51982,87.72928 568.39711,88.531789 569.52487,89.423563 570.61943,90.198375 571.98297,90.620104 572.8523,92.065291 574.71653,91.673775 575.69247,92.859546 577.80819,94.085585 579.93778,95.217708 581.88872,96.651485 583.45208,97.165563 584.49859,98.563429 585.74935,99.385528 587.41355,100.37943 588.90813,101.77667 590.80527,102.49052 594.28739,104.65203 597.65823,106.93356 601.0545,109.04398 600.43671,122.41967 568.52593,149.75602 559.27447,147.26563 556.44601,145.47055 553.53706,144.12914 550.72887,142.40206 547.37571,140.7819 544.36317,138.64331 541.01303,137.07282 539.2985,135.72837 536.74969,135.51069 535.38251,133.78776 533.42604,133.45843 535.39391,131.19433 535.8034,130.28543 541.81213,119.17388 547.30396,107.72948 553.4217,96.706441 554.57978,95.375441 554.37861,93.284458 555.82601,92.021473 557.54885,89.846176 557.67021,86.360375 560.18124,84.890978 L 560.27744,84.890978 560.34614,84.904718 z"
       inkscape:connector-curvature="0"
       id="path3046"
       style="fill:none;stroke:none" />
    <path
       d="M 455.49075,104.22162 C 463.60051,104.23982 471.6796,105.60751 479.22461,108.57545 486.30448,111.14487 493.58804,113.50782 500.3895,116.62786 500.68181,119.31067 497.08297,118.55007 495.45736,118.75412 485.60804,118.79022 475.67618,119.00064 465.87736,118.67492 463.18783,115.95241 460.32319,113.15145 458.07366,110.17053 456.64082,109.83514 456.10552,108.65071 455.55944,107.51892 454.44409,106.60133 452.19457,106.99771 452.02854,105.04592 452.29649,103.69745 454.61444,104.44184 455.49075,104.22158 z"
       inkscape:connector-curvature="0"
       id="path3054"
       style="fill:none;stroke:none" />
    <path
       d="M 507.43757,127.4816 C 510.37064,128.65352 510.73583,132.55645 513.19212,134.35482 515.8952,137.86353 518.86812,140.98237 521.97333,144.03699 523.50657,146.31162 525.62797,148.28559 526.411,150.90644 527.09316,152.23713 528.49321,154.03688 527.82611,155.50898 519.08326,160.25746 510.49825,165.4378 501.59853,169.81118 499.41185,168.1966 498.77984,164.96411 497.20208,162.76312 496.2199,160.99548 494.93035,159.44731 494.28943,157.55607 492.12866,154.96012 490.41567,152.11386 488.5603,149.28525 486.57282,145.68684 484.39227,142.01075 482.19919,138.67881 480.43953,137.48693 483.03308,136.18406 484.14135,135.90735 491.61722,133.04812 499.03131,129.73961 506.72314,127.49534 506.96062,127.47704 507.19988,127.44754 507.43757,127.48164 z"
       inkscape:connector-curvature="0"
       id="path3058"
       style="fill:none;stroke:none" />
    <path
       d="M 532.59351,162.44713 C 534.65305,164.43391 535.45858,167.54776 537.64943,169.45397 539.58775,171.94176 542.58095,173.10806 545.19209,174.67476 545.57877,176.45731 543.20532,177.38376 541.94971,178.16444 540.95516,179.67308 538.49314,179.10999 538.08907,180.92596 536.94109,183.08568 534.61159,183.74612 532.9782,185.40484 531.97049,185.8617 531.67359,187.33212 530.64258,188.04272 529.70614,190.25135 527.26761,191.56455 526.50717,193.81306 525.57167,194.00254 526.18796,195.54866 525.18824,195.87389 524.42549,199.44878 525.63063,203.36024 524.4326,206.81007 522.6662,207.55591 522.33553,204.46023 521.24517,203.59516 519.70058,200.65858 517.38419,198.19306 516.05186,195.0633 515.15129,192.80132 513.48127,191.13873 512.71331,188.94948 511.07237,187.33899 510.9766,185.01573 509.29232,183.44018 508.33338,181.09268 507.16507,178.84731 505.76142,176.79055 512.56756,173.80979 520.03633,171.62222 526.08127,167.13209 528.42228,165.88327 529.97084,163.01761 532.59351,162.44713 z"
       inkscape:connector-curvature="0"
       id="path3060"
       style="fill:none;stroke:none" />
    <path
       d="M 563.46484,175.30675 C 569.54355,175.58998 575.80843,174.83952 581.76507,176.21351 586.24478,178.25884 589.74917,181.77273 594.01128,184.1155 599.62595,188.44934 605.46095,192.66216 610.32826,197.82482 613.18102,201.5169 616.6367,204.82973 619.39594,208.70604 623.95888,213.61313 627.30072,219.77507 630.16978,225.83282 634.8122,237.8284 634.6859,251.04171 634.00041,263.70289 633.25203,270.44704 630.14538,276.55432 629.02697,283.1982 626.63532,293.45049 620.7828,302.48744 614.58733,310.81362 613.76985,312.29573 612.41803,313.85417 611.78459,315.55354 610.51685,316.14974 610.39194,317.34816 609.94357,318.5074 608.12141,320.65531 606.25752,323.44581 603.82976,324.71739 603.76746,326.10893 601.85341,325.74158 601.57658,327.13544 599.92166,327.88927 598.56197,329.49419 596.7817,329.89696 596.49641,330.93157 595.27072,330.50923 594.92694,331.49067 593.79895,331.62771 593.31856,332.97317 591.98682,333.08439 589.44742,334.40503 586.5864,335.68164 584.54033,337.61823 586.16335,337.77392 587.85512,335.35574 589.26651,336.62903 589.00929,339.45348 588.07727,342.37309 586.87594,344.91359 578.84742,346.34139 570.45312,345.14805 562.37947,346.52104 557.07278,347.91289 552.66483,351.3424 548.55812,354.77813 547.48392,355.57255 546.95505,354.19407 546.81328,353.52789 545.03585,351.32021 544.18352,348.22557 544.03802,345.39445 545.53009,343.44932 548.45941,343.3788 550.28923,341.7399 553.93551,340.59162 557.45768,338.29057 559.72786,335.1727 557.43463,336.66408 555.49026,338.93335 552.84466,340.02254 549.57406,341.23623 546.27277,344.13889 542.60918,343.38857 541.32782,341.68634 540.93732,339.51783 540.02626,337.60449 539.73383,335.43561 540.65146,333.20039 542.60918,332.21884 546.15187,328.7624 550.55551,326.35073 554.12238,322.90386 558.89662,320.75357 562.97543,317.14346 566.93657,313.69948 569.13365,311.35809 572.25365,309.4167 573.82398,306.60951 574.4248,304.71671 576.59969,303.96787 577.76705,302.7214 578.02164,301.52344 579.42832,301.06085 579.69049,299.71258 582.36745,295.92704 584.18831,291.59472 586.40873,287.58569 589.38127,279.43101 590.9452,270.9475 592.4402,262.38396 592.9588,252.89744 593.08676,243.11768 589.61022,234.13122 586.00098,222.56684 580.29925,211.75783 572.72839,202.30452 568.11216,196.78905 564.55026,190.57881 559.43918,185.50322 556.98155,182.41467 553.81998,179.70748 552.00659,176.18604 552.62728,174.57489 555.3198,175.79866 556.65034,175.33422 558.92167,175.29632 561.19329,175.28452 563.46484,175.30672 z"
       inkscape:connector-curvature="0"
       id="path3066"
       style="fill:none;stroke:none" />
    <path
       d="M 549.08106,175.12368 C 550.14227,175.13848 551.68093,175.20188 551.69436,176.56148 556.14249,182.40667 561.17453,187.86436 565.67983,193.71158 577.45964,208.43404 588.34472,224.92246 591.35324,243.89692 593.72841,260.45027 590.5478,277.68819 582.9957,292.54739 577.81586,302.78772 569.92362,311.46344 560.64767,318.17659 553.97489,323.37796 546.26285,327.16468 540.57083,333.44702 539.54662,334.53231 538.82855,332.74711 539.02617,331.86349 538.85793,325.90163 540.12481,319.92718 543.00926,314.69731 545.50608,309.78959 549.05822,305.43174 552.91844,301.53365 556.83279,299.40379 560.00815,295.85776 562.55477,292.18294 568.80645,282.78763 570.14364,271.35702 571.77501,260.43972 572.85587,253.56876 575.80882,246.6913 574.50489,239.64017 573.48839,234.87946 569.32376,230.68726 564.23627,231.06193 558.30424,230.87716 552.60926,233.95586 546.68149,232.82033 540.48323,231.01938 536.95279,225.06311 533.05084,220.32773 530.76843,217.65664 528.45531,214.75612 525.60021,212.76882 524.49109,210.93708 526.02334,208.90625 525.61961,206.92047 525.34025,202.78456 524.69664,198.32649 526.94083,194.59229 531.46126,186.79688 538.65413,181.03356 546.11034,176.17277 546.97012,175.50224 547.95011,174.9735 549.08103,175.12368 z"
       inkscape:connector-curvature="0"
       id="path6462"
       style="fill:#7786bc;stroke:none" />
    <path
       d="M 531.96345,161.06625 C 535.24329,166.31702 539.02319,171.88105 545.02024,174.13276 546.27496,174.35885 546.28672,175.79915 545.19511,176.27003 540.73864,179.6258 535.82197,182.51825 532.21604,186.85925 528.31367,191.08106 524.31588,196.36896 525.05956,202.47078 525.01756,204.61218 525.50063,206.86037 524.96876,208.95088 523.69628,209.67503 523.32396,207.37299 522.64586,206.70042 515.75139,194.16419 508.56769,181.79671 501.10902,169.57648 500.35929,168.79593 500.81934,167.42869 501.97365,167.93467 507.07321,166.83683 512.17776,165.29912 517.35554,164.30079 522.13158,163.28564 526.90701,162.22108 531.63316,161.02739 L 531.94191,161.06369 531.96351,161.06669 z"
       inkscape:connector-curvature="0"
       id="path6466"
       style="fill:#c176ba;stroke:none" />
    <path
       d="M 507.25852,126.60758 C 512.83594,133.56669 518.68104,140.2583 524.38619,147.10328 527.07005,151.18241 529.3149,155.58699 531.20569,160.07533 530.8336,161.5035 528.65119,161.13587 527.54232,161.70279 519.0383,163.82849 510.2089,165.00605 501.96391,167.93467 501.14052,168.69891 500.11938,168.38135 499.78778,167.33234 491.55102,154.40162 483.93942,141.03993 474.57767,128.90029 473.8129,128.31264 474.04761,127.09477 475.13082,127.34595 485.70437,126.88816 496.28571,126.49736 506.86992,126.43271 L 507.15342,126.56029 507.25852,126.60759 z"
       inkscape:connector-curvature="0"
       id="path6468"
       style="fill:#d2a09a;stroke:none" />
    <path
       d="M 455.02163,104.05935 C 464.83006,103.8492 474.40201,106.41465 483.45707,109.94657 489.29197,112.22297 495.30316,114.23181 501.041,116.64983 501.92456,117.70491 499.45168,117.88112 500.64269,118.67053 502.25283,120.94762 504.54269,122.87778 505.80129,125.39322 505.08851,126.55294 503.15432,125.72952 501.99357,126.08891 492.81334,126.54034 483.56385,126.4461 474.42224,127.16133 473.07007,128.01377 472.26825,125.75689 471.34558,125.10492 465.39162,118.06834 458.69389,111.60283 451.87401,105.43887 450.94896,104.56759 452.20583,103.69202 453.12719,104.05426 453.7586,104.04196 454.39021,104.05226 455.02163,104.05926 z"
       inkscape:connector-curvature="0"
       id="path6470"
       style="fill:#98d8de;stroke:none" />
    <path
       d="M 416.87131,62.703123 C 427.08872,66.936737 437.46914,70.852094 447.3663,75.818207 467.22964,85.546681 486.2047,97.871533 500.9147,114.52228 501.6572,115.32387 500.77198,116.39806 499.85309,115.6943 487.95302,111.63277 476.46056,105.89646 463.92045,104.20508 459.10607,103.78077 454.23281,103.98632 449.43557,103.62218 439.58478,95.748909 428.66893,89.423154 417.03646,84.571311 413.55806,82.70083 411.02244,79.156076 409.9446,75.400467 408.66375,70.276024 412.21545,65.260024 416.3467,62.683694 416.5185,62.640344 416.70313,62.640534 416.87131,62.703124 z"
       inkscape:connector-curvature="0"
       id="path6472"
       style="fill:#cce198;stroke:none" />
    <path
       d="M 447.16229,53.561424 C 453.82069,53.932098 460.40689,55.149028 467.0841,55.374018 474.43827,55.927785 481.87532,56.090755 489.14999,57.282222 490.52665,60.277982 491.05428,63.771623 492.07396,66.965983 496.78832,83.993776 500.82428,101.2587 506.89907,117.83505 506.33305,118.93816 504.60877,118.01149 503.93603,117.32987 497.03988,109.26616 489.32035,101.79732 480.71748,95.500547 462.14862,81.627232 440.97894,71.739626 419.44575,63.383165 418.72247,63.068332 416.71929,62.449405 417.86222,61.430475 426.48128,55.949479 436.95168,53.302134 447.16229,53.561424 z"
       inkscape:connector-curvature="0"
       id="path6474"
       style="fill:#a36ed8;stroke:none" />
    <path
       d="M 491.23869,57.544524 C 502.08113,59.148946 511.8755,64.368766 522.0421,68.170499 534.04475,73.097357 546.11848,77.909249 557.81474,83.531819 559.64829,84.192543 557.75604,86.050011 557.44582,87.131788 549.73717,102.45696 541.94709,117.77761 533.75099,132.83482 532.14804,133.15011 530.72491,131.43827 529.20999,130.98226 522.21214,127.26309 515.09877,123.72956 508.26887,119.71973 506.82772,118.76767 507.26728,116.75647 506.43787,115.37436 500.00918,97.432272 495.81355,78.725385 490.65579,60.361838 490.56499,59.506177 489.31181,57.115212 491.23869,57.544524 z"
       inkscape:connector-curvature="0"
       id="path6476"
       style="fill:#a39ccb;stroke:none" />
    <path
       d="M 560.21431,84.98905 C 566.3683,87.443687 572.11204,90.929995 577.94772,94.092534 587.52402,99.562991 596.52895,105.84766 605.26219,112.56958 605.54127,114.08324 603.43924,115.21453 602.77148,116.56689 594.25163,127.57247 587.56734,140.05866 578.04111,150.31188 576.10599,152.08882 574.32717,154.29992 571.86245,155.29561 564.58595,150.97699 557.63949,146.00928 550.14187,142.06086 544.931,139.11676 539.41491,136.60463 534.31702,133.53485 535.00763,131.0432 536.78288,128.66734 537.87981,126.21899 539.52379,122.88092 541.29643,119.56827 543.07727,116.33896 543.92373,113.90457 545.78578,112.00805 546.4289,109.5094 546.94098,108.31545 547.72966,107.2932 548.49817,106.27434 548.74761,104.01695 550.56745,102.3252 551.49035,100.34827 551.67889,97.996549 554.13512,96.575939 554.3951,94.257043 554.83426,93.001132 555.64303,91.909082 556.45465,90.953985 557.27788,88.83381 558.15361,86.316229 560.0103,84.979335 560.0783,84.981935 560.14714,84.972535 560.21431,84.989035 z"
       inkscape:connector-curvature="0"
       id="path6478"
       style="fill:#b478b6;stroke:none" />
    <path
       d="M 606.41826,113.59936 C 617.91643,122.64173 628.65547,132.7018 638.77852,143.24917 640.84806,144.59797 639.21619,146.12238 637.94136,147.29734 627.46124,158.6849 617.17263,170.27765 606.46684,181.43835 604.93212,181.48545 604.02155,179.58168 602.80433,178.84447 593.77116,170.47852 583.59537,163.42465 573.43626,156.51969 572.78317,155.35567 574.55877,154.48066 575.12665,153.62465 585.43081,144.12381 592.16819,131.62097 600.40725,120.37783 602.26558,118.12242 603.6704,115.24865 606.09767,113.59936 606.19207,113.55046 606.32272,113.59836 606.41826,113.59936 z"
       inkscape:connector-curvature="0"
       id="path6480"
       style="fill:#dad3b7;stroke:none" />
    <path
       d="M 640.88665,145.45444 C 652.11419,157.86309 662.82666,170.90479 671.89653,184.95513 671.55319,186.38916 669.29456,186.45276 668.1846,187.2865 654.63892,193.50175 641.19954,199.97801 627.48983,205.81297 625.90242,205.12803 625.25115,202.96927 624.00853,201.71826 618.97532,195.05362 612.85347,189.25772 607.47719,182.86643 606.4065,181.19951 609.04439,180.09308 609.69799,178.84284 619.8015,167.67776 629.99756,156.58219 640.14832,145.45444 640.43075,145.31236 640.61259,145.22577 640.88665,145.45444 z"
       inkscape:connector-curvature="0"
       id="path6482"
       style="fill:#768e99;stroke:none" />
    <path
       d="M 672.60572,185.88776 C 680.26596,197.4298 687.36344,210.00299 689.32502,223.9215 689.8218,228.36147 689.73015,233.07517 688.13009,237.26974 687.26371,238.23611 686.1131,236.74136 685.09905,236.852 669.41041,232.67085 653.1501,231.24298 637.263,228.03089 635.77936,226.1063 635.51182,223.37189 634.56989,221.12045 633.01163,216.02654 630.42864,211.38255 627.83957,206.8136 628.76026,205.33986 631.09173,205.12695 632.56519,204.15805 645.76467,198.05476 658.95346,191.92283 672.17826,185.87804 L 672.48906,185.88504 672.60572,185.88804 z"
       inkscape:connector-curvature="0"
       id="path6484"
       style="fill:#c1dfbe;stroke:none" />
    <path
       d="M 638.09848,228.82751 C 651.29179,230.81606 664.53995,232.6862 677.59545,235.397 680.86988,236.18192 684.28339,236.84041 687.45977,237.7652 688.16561,239.12581 686.67393,240.62796 686.13854,241.83573 684.2921,244.86097 681.49125,247.41646 678.9301,249.61735 682.41702,255.08105 685.7518,260.83206 687.00317,267.279 687.34561,269.83775 688.44944,272.49891 687.95522,275.07033 686.86415,275.9656 685.32917,274.41769 684.09732,274.32792 669.14779,269.1817 654.21865,263.97651 639.28369,258.78819 638.5691,257.55349 639.58227,255.81459 639.32419,254.35842 639.60962,245.98423 639.33619,237.48396 637.20466,229.39098 637.12006,228.93985 637.7463,228.70206 638.09843,228.82751 z"
       inkscape:connector-curvature="0"
       id="path6486"
       style="fill:#9b7d71;stroke:none" />
    <path
       d="M 639.84715,259.42937 C 655.85771,264.89438 671.83457,270.46934 687.8095,276.04181 688.56009,277.64314 687.97382,279.78712 688.11181,281.60817 687.46199,296.17086 682.2108,309.99021 677.00154,323.44507 675.56573,326.49311 674.51677,329.94519 672.35313,332.57268 670.88291,333.10967 669.89115,330.97791 668.64997,330.48327 654.59721,319.74023 640.41901,309.13445 626.45034,298.2986 626.2326,296.75198 627.91939,295.3504 628.46132,293.8589 633.92519,283.26918 636.98914,271.59683 638.93396,259.88597 639.11615,259.56093 639.47061,259.35739 639.84715,259.42937 z"
       inkscape:connector-curvature="0"
       id="path6488"
       style="fill:#ba9676;stroke:none" />
    <path
       d="M 626.41148,299.03693 C 641.52089,310.21132 656.47609,321.63619 671.31364,333.15557 672.17948,334.26833 670.33874,335.40671 669.95356,336.39063 660.41047,349.42015 646.41598,358.20884 632.62073,366.15466 626.8117,369.08401 622.07103,373.67817 616.02693,376.199 613.64935,377.09769 611.33679,378.64499 608.77898,378.82521 607.42666,378.01198 607.87964,375.87744 607.24577,374.58488 603.85712,360.10876 600.21486,345.65261 597.02398,331.15431 600.52171,328.10876 604.49828,325.53812 607.67156,322.10752 609.54999,320.44377 610.68807,318.1906 612.17919,316.21283 617.98273,311.79605 621.45982,305.16862 625.60515,299.29923 625.78311,299.06372 626.12457,298.86487 626.41148,299.03693 z"
       inkscape:connector-curvature="0"
       id="path6490"
       style="fill:#e1d672;stroke:none" />
    <path
       d="M 596.14964,331.88292 C 597.50988,332.6062 597.03456,334.76048 597.6795,335.99528 601.08562,350.23838 604.60809,364.48213 607.80749,378.7572 606.98944,380.34136 604.64463,380.06889 603.19291,380.74808 600.00754,381.66614 596.65338,382.1122 593.52662,383.14833 589.06101,385.61125 583.69083,385.04555 578.76973,384.80957 577.52846,384.99981 577.03811,383.85329 577.63308,382.83745 581.58153,366.89565 586.09257,351.09697 590.34986,335.23456 592.0927,333.99441 593.96419,332.47964 596.03306,331.87321 L 596.14964,331.88321 z"
       inkscape:connector-curvature="0"
       id="path6494"
       style="fill:#9ac497;stroke:none" />
    <path
       d="M 571.22127,175.09453 C 577.753,174.96795 584.47547,176.67264 589.54177,180.92252 602.58671,189.61505 614.37794,200.30377 623.18431,213.26772 627.83801,219.76276 631.36361,227.07833 632.94959,234.93817 636.06416,248.88184 635.47909,263.80797 630.62091,277.23474 629.69278,282.0613 628.73887,286.99328 626.4892,291.43989 621.91825,300.83082 615.77818,309.42267 610.33336,318.26267 605.17288,325.05914 598.03427,330.08408 590.68988,334.2825 584.36366,335.73128 577.85437,336.89727 571.82203,339.52285 562.9781,343.03621 554.82061,348.4954 548.23587,355.39293 546.78947,356.37533 546.14963,353.96546 545.57399,353.0905 544.2368,350.46008 542.93508,347.61822 542.12521,344.87171 540.91636,342.2243 540.09277,339.31266 539.61877,336.4392 540.30416,333.2098 543.41717,331.24003 545.73984,329.18331 554.80129,322.31373 564.96307,316.76846 572.55826,308.18262 584.4185,295.34276 590.7768,278.11045 592.27367,260.80951 592.83742,252.39186 592.33787,243.86517 589.90297,235.76394 584.91899,217.6878 573.32377,202.46813 561.68931,188.11259 558.65785,184.20616 555.12392,180.66402 552.24811,176.6392 552.0077,175.0549 554.3584,175.7901 555.2392,175.53774 560.56359,175.33048 565.89084,175.00836 571.22127,175.09453 z"
       inkscape:connector-curvature="0"
       id="path6500"
       style="fill:#9799b4;stroke:none" />
    <path
       d="M 589.19379,335.12769 C 590.64886,335.6825 589.06434,337.54639 589.11609,338.56676 584.9118,353.69783 580.94822,368.94021 576.67133,384.02267 574.95246,384.53065 573.08728,383.45613 571.38644,383.09004 561.88975,379.92555 552.71571,373.20175 549.41139,363.41741 548.78101,360.82318 548.08684,358.23699 547.29355,355.72323 547.62043,354.84307 548.7297,355.73963 549.19766,354.85861 557.86308,346.37735 568.64742,339.93559 580.47878,337.01 583.3568,336.32034 586.23641,335.33825 589.19381,335.12769 z"
       inkscape:connector-curvature="0"
       id="path6502"
       style="fill:#9681a3;stroke:none" />
  </g>
</svg>
