<?xml version="1.0" encoding="UTF-8" standalone="no"?>
<!-- Created with Inkscape (http://www.inkscape.org/) -->

<svg
   xmlns:dc="http://purl.org/dc/elements/1.1/"
   xmlns:cc="http://creativecommons.org/ns#"
   xmlns:rdf="http://www.w3.org/1999/02/22-rdf-syntax-ns#"
   xmlns:svg="http://www.w3.org/2000/svg"
   xmlns="http://www.w3.org/2000/svg"
   xmlns:xlink="http://www.w3.org/1999/xlink"
   xmlns:inkscape="http://www.inkscape.org/namespaces/inkscape"
   version="1.1"
   width="740"
   height="520"
   id="svg2"
   style="enable-background:new">
  <defs
     id="defs4">
    <filter
       color-interpolation-filters="sRGB"
       id="filter3050">
      <feBlend
         in2="BackgroundImage"
         mode="lighten"
         id="feBlend3052" />
    </filter>
  </defs>
  <metadata
     id="metadata7">
    <rdf:RDF>
      <cc:Work
         rdf:about="">
        <dc:format>image/svg+xml</dc:format>
        <dc:type
           rdf:resource="http://purl.org/dc/dcmitype/StillImage" />
        <dc:title />
      </cc:Work>
    </rdf:RDF>
  </metadata>
  <g
     id="layer1"
     style="display:none">
    <image
       xlink:href="pngs/coronal-0732.png"
       id="MRISLICE"
       height="520"
       width="740"
       y="0"
       x="0" />
  </g>
  <g
     id="layer3"
     style="display:inline">
    <path
       d="M 400.51671,254.89399 C 395.42436,248.86599 387.52823,256.89117 387.7886,262.95472 385.85279,269.27763 388.65438,282.05661 397.47809,278.91883 404.17718,275.69436 402.89438,267.2678 402.85876,261.13602 402.57638,258.91347 401.85549,256.71132 400.51671,254.89399 z"
       inkscape:connector-curvature="0"
       id="path2990"
       style="fill:none;stroke:#0000e9;stroke-width:1;stroke-miterlimit:4;stroke-opacity:1;stroke-dasharray:none;stroke-dashoffset:0" />
    <path
       d="M 405.04729,340.7747 C 405.6861,331.0519 392.05606,330.70617 392.1507,341.53124 396.36975,356.13231 406.91431,355.75023 405.44215,342.22738 L 405.30053,341.49782 405.04732,340.7747 z"
       inkscape:connector-curvature="0"
       id="path2992"
       style="fill:none;stroke:#0000e9;stroke-width:0.72407591;stroke-miterlimit:4;stroke-opacity:1;stroke-dasharray:none;stroke-dashoffset:0" />
    <path
       d="M 424.25754,376.67569 C 417.32116,370.88216 411.83989,383.06292 416.64298,388.21814 419.74404,395.53215 431.05387,392.15656 428.15001,384.27705 427.58044,381.4512 426.16536,378.8226 424.25754,376.67569 z"
       inkscape:connector-curvature="0"
       id="path2994"
       style="fill:none;stroke:#0000e9;stroke-width:1;stroke-miterlimit:4;stroke-opacity:1;stroke-dasharray:none;stroke-dashoffset:0" />
    <path
       d="M 495.04041,316.88395 C 501.62155,308.4789 513.77968,304.86193 520.21141,296.26827 525.11748,287.46824 536.37812,288.83843 532.60514,300.07274 529.32147,310.68949 522.35547,319.77578 516.97623,329.42419 504.81866,347.2835 488.6682,364.37459 467.52859,370.94008 457.0559,376.03631 450.43975,364.12582 458.35067,356.72551 463.09768,350.03046 466.04245,337.64992 476.63366,343.78002 485.59924,345.44948 492.14596,335.63017 498.84783,330.83348 503.06617,326.48262 504.4711,314.70901 495.04041,316.88395 z"
       inkscape:connector-curvature="0"
       id="path2996"
       style="fill:none;stroke:#0000e9;stroke-width:1;stroke-miterlimit:4;stroke-opacity:1;stroke-dasharray:none;stroke-dashoffset:0" />
    <path
       d="M 494.60076,316.88395 467.91118,342.80092"
       inkscape:connector-curvature="0"
       id="path2998"
       style="fill:none;stroke:#0000e9;stroke-width:1;stroke-miterlimit:4;stroke-opacity:1;stroke-dasharray:none;stroke-dashoffset:0" />
    <path
       d="M 604.0724,210.05019 C 612.4694,221.69324 612.47602,236.4453 612.91603,250.14709 616.34227,265.40273 608.59508,275.96056 594.50177,286.01044 583.01085,290.06724 572.14014,294.7691 562.97848,303.47692 556.23399,310.10078 549.54359,318.19436 538.85716,319.06713 535.0324,318.56102 538.85616,320.54294 539.00492,318.64253"
       inkscape:connector-curvature="0"
       id="path3000"
       style="fill:none;stroke:#0000e9;stroke-width:1;stroke-miterlimit:4;stroke-opacity:1;stroke-dasharray:none;stroke-dashoffset:0" />
    <path
       d="M 594.40021,286.75264 C 589.47599,292.994 587.98087,301.40395 582.1796,307.03049 573.37121,321.44081 560.41357,332.52619 549.15379,344.91103 544.54893,347.60369 540.55708,352.16314 534.87019,352.33101 520.98983,348.02769 522.40973,347.49967 519.42553,336.3745"
       inkscape:connector-curvature="0"
       id="path3002"
       style="fill:none;stroke:#0000e9;stroke-width:1;stroke-miterlimit:4;stroke-opacity:1;stroke-dasharray:none;stroke-dashoffset:0" />
    <path
       d="M 603.63275,211.36912 C 610.14665,245.20708 595.63474,302.08434 564.50434,247.85967 560.73346,274.70165 546.74813,295.41496 537.68598,319.08218 525.39895,337.06323 518.74241,337.02674 512.18657,336.66798"
       inkscape:connector-curvature="0"
       id="path3004"
       style="fill:none;stroke:#0000e9;stroke-width:1;stroke-miterlimit:4;stroke-opacity:1;stroke-dasharray:none;stroke-dashoffset:0" />
    <path
       d="M 535.48776,213.56735 C 537.09634,216.21088 534.61374,212.41379 536.21039,215.71158 538.35765,222.51504 543.34643,227.83094 548.6504,232.3684 552.19784,237.9729 556.46928,244.46483 554.15347,251.38478 552.49577,259.51398 549.98675,267.57299 545.52201,274.60682 541.91229,282.36121 536.72745,289.33801 533.62235,297.32171 L 533.72916,296.66028"
       inkscape:connector-curvature="0"
       id="path3006"
       style="fill:none;stroke:#0000e9;stroke-width:1;stroke-miterlimit:4;stroke-opacity:1;stroke-dasharray:none;stroke-dashoffset:0" />
    <path
       d="M 499.8765,229.83422 C 499.19596,217.15816 483.56352,216.1084 479.2286,206.80542 488.09937,202.94487 494.95943,212.71294 500.31327,218.39446 508.25975,224.51766 513.30336,233.47294 518.94122,241.54216 525.0362,252.4158 515.11438,259.21164 509.15421,265.0734 496.38165,275.36152 482.78506,283.52671 467.13523,287.12834 457.22852,288.48649 448.01869,294.86345 437.90489,293.68403 429.2808,286.368 450.80505,285.34514 456.38707,283.53159 475.23311,279.43506 498.24803,276.57972 505.17106,256.17606 512.79232,247.56413 503.43794,235.20201 494.49278,232.23257 490.62336,228.63637 468.50495,226.01191 479.24274,221.70549 485.25031,219.63723 499.09757,234.2854 500.7558,226.75669"
       inkscape:connector-curvature="0"
       id="path3008"
       style="fill:none;stroke:#0000e9;stroke-width:1;stroke-miterlimit:4;stroke-opacity:1;stroke-dasharray:none;stroke-dashoffset:0" />
    <path
       d="M 535.9274,214.44664 C 535.79936,211.59589 529.79241,204.20238 524.50829,200.81106 519.74666,194.2611 510.04192,190.44752 501.47467,189.62351 487.73316,185.05575 472.98814,186.7623 458.90615,183.89374 449.26533,184.08076 441.7436,177.68049 432.61046,175.75458 425.10955,173.96215 418.0896,169.09583 410.03745,171.06578 401.02622,167.64022 393.40244,177.99265 385.44938,172.26713 379.01809,166.90178 367.86681,174.03544 363.10513,168.48919 363.33335,168.34322 363.40559,168.03839 363.58652,167.84426"
       inkscape:connector-curvature="0"
       id="path3010"
       style="fill:none;stroke:#0000e9;stroke-width:1;stroke-miterlimit:4;stroke-opacity:1;stroke-dasharray:none;stroke-dashoffset:0" />
    <path
       d="M 565.38363,248.73896 C 564.85863,239.50615 558.29079,232.43039 552.5691,225.92122 547.90415,218.48105 543.66609,210.58479 536.89228,205.01694 530.98117,198.63935 523.67896,194.19747 516.79633,188.90864 508.63055,183.57468 497.55101,182.73859 488.03688,182.20904 480.76409,180.667 473.27233,181.01998 466.29987,178.69639 451.66175,176.55725 438.48693,166.45468 423.56651,165.74136 416.30322,163.66667 408.72487,169.19446 401.6625,165.35092 395.27411,163.59501 388.38985,152.41345 384.33219,162.72547 377.40585,163.96608 369.64512,165.85249 362.86131,164.27907 L 364.02616,163.88745"
       inkscape:connector-curvature="0"
       id="path3012"
       style="fill:none;stroke:#0000e9;stroke-width:1;stroke-miterlimit:4;stroke-opacity:1;stroke-dasharray:none;stroke-dashoffset:0" />
    <path
       d="M 373.25871,126.95726 C 414.87845,125.49178 406.697,84.432959 445.36051,92.225296 490.17973,102.56224 540.95926,102.61819 587.36588,153.77561 626.63982,187.1346 626.88022,246.58014 626.49429,274.4582 626.02938,277.58321 626.19637,278.20905 625.67344,281.53627"
       inkscape:connector-curvature="0"
       id="path3028"
       style="fill:none;stroke:#0000e9;stroke-width:1;stroke-miterlimit:4;stroke-opacity:1;stroke-dasharray:none;stroke-dashoffset:0" />
    <path
       d="M 622.90625,272.90625 C 622.83915,273.33333 622.83645,273.59244 622.84375,274 622.85075,274.40756 622.87785,274.88889 622.90625,275.4375 622.96305,276.53472 623.06779,277.88063 623.15625,279.21875 623.24475,280.55687 623.32346,281.91298 623.375,282.96875 623.4008,283.49663 623.4022,283.94023 623.4062,284.28125 623.4102,284.62227 623.3812,284.92452 623.4062,284.78125 620.14887,303.48079 614.00356,324.87524 610.49995,333.78125 L 613.68745,335.03125 C 617.37044,325.66928 623.44452,304.35072 626.74995,285.375 626.82675,284.93436 626.81735,284.66253 626.81245,284.25 626.80745,283.83747 626.80845,283.33254 626.78125,282.78125 626.72745,281.67867 626.6198,280.33946 626.53125,279 626.44265,277.66054 626.36709,276.33645 626.3125,275.28125 626.2852,274.75365 626.2562,274.27903 626.25,273.9375 626.244,273.59597 626.2713,273.30185 626.25,273.4375 L 622.90625,272.90625 z"
       inkscape:connector-curvature="0"
       id="path3071"
       style="font-size:medium;font-style:normal;font-variant:normal;font-weight:normal;font-stretch:normal;text-indent:0;text-align:start;text-decoration:none;line-height:normal;letter-spacing:normal;word-spacing:normal;text-transform:none;direction:ltr;block-progression:tb;writing-mode:lr-tb;text-anchor:start;baseline-shift:baseline;color:#000000;fill:#73a0a6;fill-opacity:1;stroke:none;stroke-width:3.4000001;marker:none;visibility:visible;display:inline;overflow:visible;enable-background:accumulate;font-family:Sans;-inkscape-font-specification:Sans" />
    <path
       d="M 461.62737,96.621747 C 420.15419,99.951567 410.77509,122.93885 395.24096,119.4833"
       inkscape:connector-curvature="0"
       id="path3073"
       style="fill:none;stroke:#0000e9;stroke-width:1;stroke-miterlimit:4;stroke-opacity:1;stroke-dasharray:none;stroke-dashoffset:0" />
    <path
       d="M 371.93977,138.82768 C 441.98321,157.12836 427.90021,101.53229 477.67442,107.8327 498.38168,105.2276 584.17735,135.83934 604.51204,210.48983"
       inkscape:connector-curvature="0"
       id="path3075"
       style="fill:none;stroke:#0000e9;stroke-width:1;stroke-miterlimit:4;stroke-opacity:1;stroke-dasharray:none;stroke-dashoffset:0" />
    <path
       d="M 612.42566,232.03244 C 614.92482,236.88333 615.79002,242.2982 617.28959,247.50105 618.43965,255.5041 623.50264,275.00659 624.87913,282.97489"
       inkscape:connector-curvature="0"
       id="path3077"
       style="fill:none;stroke:#0000e9;stroke-width:1;stroke-miterlimit:4;stroke-opacity:1;stroke-dasharray:none;stroke-dashoffset:0" />
    <path
       d="M 373.05126,62.390459 368.07724,418.65441 C 424.47281,428.67256 444.82036,408.47296 443.931,402.48885 451.46841,380.4005 462.6274,387.12439 476.2621,391.29732 503.82644,397.67782 531.39079,416.66838 558.95513,432.33295 587.7434,454.76173 607.59495,443.997 624.86085,423.62843 650.77475,396.02868 661.86705,356.57166 680.19679,322.90459 715.0088,236.60401 691.2364,193.82329 669.62701,149.43575 624.4492,95.439842 566.76275,72.715516 508.59321,51.198921 471.13853,44.430731 407.43207,11.410661 373.05126,62.390459 z"
       inkscape:connector-curvature="0"
       id="path3086"
       style="fill:none;stroke:#0000e9;stroke-width:1;stroke-miterlimit:4;stroke-opacity:1;stroke-dasharray:none;stroke-dashoffset:0" />
    <path
       d="M 436.80316,91.593303 C 431.53711,91.48249 426.14989,92.515926 421.76453,95.537543 413.40981,101.20612 408.26469,110.23087 400.71076,116.76768 400.20962,117.53948 398.07616,118.55243 399.24545,119.49443 404.07275,119.46893 408.25852,116.45703 412.36613,114.25395 422.8921,107.61907 433.92636,101.44588 446.24602,98.89889 450.51475,97.757533 454.93067,97.362769 459.26395,96.586749 460.45383,95.646552 458.38167,95.008485 457.61243,94.983795 450.70342,93.743403 443.88077,91.495302 436.80316,91.593303 z"
       inkscape:connector-curvature="0"
       id="path3013"
       style="fill:#b46a9f;stroke:none" />
    <path
       d="M 396.05897,252.91854 C 391.59436,253.70751 388.52668,258.17209 387.93956,262.46317 387.03293,267.75121 387.19214,274.23613 391.49298,278.05092 394.66117,280.3448 399.48575,278.65882 401.0427,275.18504 403.51842,270.12083 403.07352,264.12881 402.09191,258.72804 401.40028,256.00847 399.18229,252.81652 396.05897,252.91854 z"
       inkscape:connector-curvature="0"
       id="path3015"
       style="fill:#749699;stroke:none" />
    <path
       d="M 527.9287,290.81627 C 523.34585,291.1102 521.09717,295.65428 518.32069,298.62703 512.34306,304.63197 504.58979,308.28798 498.20118,313.81138 497.41119,314.30113 495.90254,315.79009 497.47256,316.30811 499.75689,316.66981 501.88156,318.32885 502.0677,320.76724 502.66531,325.43655 500.42497,330.24873 496.60794,332.96912 492.06118,336.82845 487.78775,341.5176 482.05505,343.54862 479.2831,344.35894 476.30059,344.06142 473.73912,342.78114 470.50006,341.63206 466.89373,343.22472 465.16088,346.06477 462.08907,350.37269 459.8097,355.23849 456.49522,359.38387 453.89098,363.18894 455.05047,369.04919 459.26395,371.1583 463.20528,373.28813 467.41338,370.66133 471.19174,369.45004 484.91856,364.13222 496.70548,354.52136 506.00222,343.2086 506.89753,342.33463 506.98227,340.78936 508.29494,340.47872 512.85801,335.60602 516.1974,329.70992 519.87621,324.15737 525.05713,315.57235 530.82634,306.99923 533.0873,297.1018 533.72645,293.87244 531.44393,290.43875 527.9287,290.81627 z"
       inkscape:connector-curvature="0"
       id="path3017"
       style="fill:#76bd94;stroke:none" />
    <path
       d="M 420.3073,375.46199 C 416.4765,375.97926 414.90409,380.46078 415.05155,383.87507 415.57874,386.90198 417.40355,389.91999 420.09357,391.4721 423.3915,393.18835 428.58238,390.91577 428.25407,386.80896 428.08959,382.9183 426.34853,378.91965 423.38692,376.36547 422.50162,375.72909 421.40347,375.38161 420.3073,375.46199 z"
       inkscape:connector-curvature="0"
       id="path3023"
       style="fill:#bfb195;stroke:none" />
    <path
       d="M 494.88841,316.97843 C 489.45667,321.81648 484.35413,327.1653 479.0593,332.21032 476.18014,335.07875 473.15502,337.88608 470.41663,340.83817 470.45893,342.32893 472.74975,341.88769 473.75855,342.40226 475.97208,343.40987 478.43205,344.09891 480.89898,343.49033 486.78434,342.15415 490.89385,337.23358 495.36007,333.53255 497.96511,331.41734 500.65435,329.02156 501.30994,325.55667 501.86497,322.89532 502.4108,318.99071 499.55155,317.45446 498.10015,316.75884 496.44172,317.003 494.88841,316.97843 z"
       inkscape:connector-curvature="0"
       id="path3025"
       style="fill:#e089d3;stroke:none" />
    <path
       d="M 388.5008,158.71338 C 386.26439,158.9773 385.36296,161.36663 384.25539,162.9005 380.17931,163.81859 373.82334,164.0694 369.83007,165.19321 369.80547,166.83121 369.55945,168.61573 369.93693,170.20608 374.39871,170.34393 381.60923,169.05941 385.48918,172.03248 388.42751,174.23839 392.3508,174.10851 395.64123,172.86796 399.85047,171.56733 404.08832,169.66331 408.60052,170.48317 412.11115,170.8458 415.7586,170.31854 419.18671,171.05704 425.7203,173.53647 432.51686,175.34709 439.06673,177.65739 445.54004,180.21414 452.00043,183.68986 459.13766,183.81662 473.22304,186.19592 487.8001,185.3785 501.59386,189.38324 509.03147,190.53794 516.65421,192.75483 522.23421,198.08144 527.08574,202.95562 533.18706,207.03643 535.8949,213.53443 537.16484,220.84712 542.76024,226.34864 547.70819,231.4098 552.3371,236.75017 556.13289,243.99375 554.36288,251.21844 552.79552,259.08616 550.23607,266.65567 546.31859,273.64535 541.15783,283.60695 534.76878,293.11102 531.36679,303.86941 527.56548,313.23254 521.76781,321.56372 516.54822,330.17924 515.49401,332.16529 513.67763,333.78568 512.94836,335.90301 513.47423,337.24447 515.47271,336.29243 516.55258,336.44705 523.43143,335.7805 528.58833,330.53335 532.63374,325.41221 534.32536,323.36464 536.08658,321.27094 537.23555,318.90198 540.01936,313.65217 542.01149,307.96338 544.62071,302.60131 552.06754,285.94649 560.74152,269.48259 563.75716,251.29615 564.01809,248.79418 565.41071,246.25292 564.25262,243.76713 562.01811,236.45137 556.34844,231.03247 551.92445,225.0757 547.68108,218.42252 543.64666,211.55483 537.7832,206.17417 531.3434,199.49326 523.76186,194.0425 516.05712,188.91693 508.18143,183.72719 498.52403,183.10993 489.38309,182.42449 480.62216,181.26924 471.78593,180.53512 463.22762,178.25971 449.50938,175.03138 437.1841,166.78673 422.90527,165.75341 416.05318,164.65524 409.09003,168.38532 402.39307,165.87325 397.81676,164.27841 394.3813,160.49808 389.84145,158.82996 389.40749,158.72345 388.9482,158.68326 388.5008,158.71338 z"
       inkscape:connector-curvature="0"
       id="path3027"
       style="fill:#85dbce;stroke:none" />
    <path
       d="M 624.07625,296.44046 C 646.43853,302.3262 631.22538,350.03334 613.52477,333.59046"
       inkscape:connector-curvature="0"
       id="path3018"
       style="fill:none;stroke:#0000e9;stroke-width:1;stroke-miterlimit:4;stroke-opacity:1;stroke-dasharray:none;stroke-dashoffset:0" />
    <path
       d="M 672.21739,303.25495 C 666.13292,307.14897 664.70694,314.6615 661.87274,321.10599 659.02588,328.4099 655.00367,335.26792 650.99719,342.08246 645.43845,352.27526 637.88111,361.35229 633.60791,372.24342 632.53555,376.61591 629.63569,380.85597 630.33245,385.26691 632.48837,389.88108 635.58598,384.18143 636.47045,381.73416 640.23716,373.64695 642.03387,364.34956 648.41288,357.72378 654.77201,349.82515 658.47235,340.29043 662.53483,331.27868 665.77877,326.13877 668.75272,320.80062 671.4317,315.35486 672.87544,311.52289 673.32123,307.23367 672.21739,303.25495 z"
       inkscape:connector-curvature="0"
       id="path3020"
       style="fill:none;stroke:#0000e9;stroke-width:1;stroke-miterlimit:4;stroke-opacity:1;stroke-dasharray:none;stroke-dashoffset:0" />
    <path
       d="M 671.52444,304.46366 C 666.29135,307.7368 665.14888,314.55149 662.66254,319.78125 655.98801,336.23324 645.49033,350.66323 636.83369,366.0552 634.09176,371.84851 631.15925,377.89521 630.63744,384.35543 630.36951,386.06165 632.80355,387.82317 633.76991,385.81175 639.55798,376.43403 641.28512,364.81933 648.94193,356.55451 656.68215,346.08705 660.48141,333.35215 667.37973,322.41915 669.98972,317.71118 672.86729,312.80914 672.4312,307.21145 672.29197,306.4285 672.8042,304.47852 671.52444,304.46366 z"
       inkscape:connector-curvature="0"
       id="path3031"
       style="fill:#d5be93;stroke:none" />
    <path
       d="M 482.99312,206.11028 C 481.93495,206.23701 480.5667,206.05678 479.78235,206.9069 479.52226,207.85943 480.5499,208.59795 480.9813,209.35562 483.337,212.26812 486.73017,214.05728 489.74017,216.20366 493.16811,218.51232 496.88479,220.91923 498.68278,224.80054 499.21501,225.61919 499.23779,227.18922 500.48475,227.21585 500.95864,227.19215 500.41535,227.8874 500.27588,228.13391 499.99506,228.4863 499.94786,229.03199 499.863,229.38713 499.44236,228.88437 498.66341,228.88905 498.01232,228.9111 495.3357,228.64612 493.01788,227.00248 490.66617,225.84205 487.6321,224.27502 484.71337,222.23777 481.29301,221.6638 479.64776,221.40124 478.02604,222.26272 476.80474,223.28618 476.03328,224.0654 476.87184,225.12216 477.66451,225.47203 481.15757,227.36029 485.08104,228.2372 488.80583,229.56877 492.14066,230.61972 495.23192,232.35388 498.29405,233.98712 502.82357,236.81142 506.71116,241.33226 507.79034,246.6456 508.4071,249.83391 507.66919,253.25947 505.62392,255.80188 504.37069,258.06442 503.61474,260.58196 502.13684,262.72947 497.99384,269.46108 490.99399,273.84529 483.73145,276.65486 474.35833,280.25527 464.32562,281.78538 454.55941,284.04842 449.40261,285.18765 444.05704,285.6852 439.0997,287.57826 437.81846,288.18282 436.09756,289.03337 436.01683,290.64428 436.23838,291.87822 437.07006,293.19582 438.30954,293.60246 441.53226,293.99613 444.7905,293.37806 447.92727,292.6844 454.37406,290.83804 460.58428,288.16049 467.20347,286.97074 479.92168,284.05816 491.70323,277.91068 502.1779,270.24198 507.61118,266.23516 512.96997,261.9747 517.27996,256.74297 519.79404,253.65351 521.50631,249.4991 520.42939,245.49439 519.59216,241.96887 517.08801,239.18073 515.19756,236.1696 510.98203,229.94065 506.61616,223.67617 500.76163,218.86591 496.75554,215.02996 493.46808,210.21839 488.49659,207.48494 486.81472,206.55563 484.93189,205.97773 482.99312,206.11028 z"
       inkscape:connector-curvature="0"
       id="path3022"
       style="fill:#667eab;stroke:none" />
    <path
       d="M 593.1029,286.72716 C 588.27182,288.25253 583.60921,290.39618 579.04372,292.58207 571.2763,296.26505 564.67818,301.88718 558.6562,307.94348 554.27351,312.20726 549.56845,316.53414 543.57135,318.23719 541.46721,319.11122 538.76673,318.75422 536.97258,320.36688 532.70843,326.10456 528.23255,332.19109 521.68853,335.42937 520.92085,335.80443 519.45478,335.97781 519.81269,337.1833 520.68743,340.44936 521.17073,344.04418 523.23367,346.82115 525.73981,349.60291 529.6442,350.32235 533.0092,351.59015 535.878,352.83343 538.9465,351.49835 541.38964,349.93988 545.84664,347.32675 549.97316,344.10324 553.40634,340.20106 562.32348,330.78503 571.828,321.81508 579.28843,311.16181 580.89976,308.63562 582.70978,306.25911 584.57104,303.92827 588.1007,298.70469 590.3082,292.6839 593.6662,287.40036 593.7684,287.08196 593.46616,286.64296 593.1029,286.72716 z"
       inkscape:connector-curvature="0"
       id="path3047"
       style="fill:#a7b0c5;stroke:none" />
    <path
       d="M 398.47201,333.49853 C 393.76507,333.77325 390.8995,339.47166 392.8293,343.6027 394.22181,346.99974 396.14539,350.75712 399.72912,352.23153 402.21782,353.11078 404.36265,350.81895 405.07355,348.64568 405.74046,346.1487 405.3313,343.47759 405.21923,340.92621 405.12753,338.33444 404.27352,335.43014 401.76248,334.21295 400.75524,333.68783 399.6074,333.42372 398.47201,333.49853 z"
       inkscape:connector-curvature="0"
       id="path3024"
       style="fill:#cc6bc8;stroke:none" />
    <path
       d="M 624.52898,296.82526 C 623.65158,297.24824 623.86351,298.82304 623.45735,299.68982 620.83675,311.07293 617.71459,322.34706 613.92942,333.39823 614.30101,334.56405 615.81378,335.05139 616.80772,335.72011 620.11924,337.8313 624.61242,336.77884 627.29701,334.13858 631.5642,330.12077 633.91459,324.36309 634.73699,318.63578 635.00965,314.8637 635.22667,310.96445 634.29735,307.26683 633.0467,303.11339 630.40034,299.10707 626.22614,297.41842 625.67999,297.23465 625.08717,296.76422 624.52898,296.82526 z"
       inkscape:connector-curvature="0"
       id="path3798"
       style="fill:#c9ca98;stroke:none" />
    <path
       d="M 604.48666,211.98062 C 603.48899,212.67635 604.42416,214.19178 604.36662,215.19331 605.81456,226.60444 605.53834,238.34013 603.0338,249.5779 601.42939,256.03306 599.3595,262.87373 594.41604,267.58886 591.6221,270.2664 587.23079,271.17259 583.70656,269.50543 577.44604,266.87684 573.25406,261.14745 569.38301,255.77448 567.93637,253.86588 566.86686,251.6628 565.31703,249.85192 564.12204,249.40853 564.24117,251.34537 563.94314,252.05015 561.14789,267.75052 554.33277,282.27826 547.68974,296.66784 544.46778,303.7348 541.0576,310.75686 538.2926,318.00379 538.2696,319.34344 540.05679,318.84029 540.88925,318.6976 546.27917,317.65535 551.05146,314.67611 555.00598,310.97633 561.43051,305.15115 567.3307,298.51518 575.09227,294.44843 580.82181,291.22828 586.91483,288.6218 593.09711,286.34934 596.98383,284.55554 600.04777,281.47502 603.20914,278.67465 608.64377,273.45755 613.06771,266.59572 613.48128,258.88586 613.85134,254.6912 612.70236,250.59236 612.71967,246.40419 612.2227,236.02676 611.87587,225.21838 607.23144,215.71044 606.47965,214.4583 606.10287,212.67232 604.74083,211.96001 604.65613,211.94711 604.56872,211.95101 604.48666,211.98061 z"
       inkscape:connector-curvature="0"
       id="path3800"
       style="fill:#d5aeb8;stroke:none" />
    <path
       d="M 461.98669,95.873093 C 461.2927,95.978692 461.54508,97.034566 460.71584,96.807339 447.3879,97.981812 434.26355,101.80415 422.63962,108.47366 416.19296,112.01736 410.24103,116.61187 403.30433,119.12387 401.17549,119.98227 398.82813,119.65262 396.61696,120.10853 393.54662,121.91847 390.36838,123.64658 386.95605,124.71875 382.64306,126.12297 370.05762,126.87065 365.52872,127.01233 364.2587,126.64261 364.33177,128.36535 364.29388,129.16858 364.22018,132.22931 363.84844,135.34295 364.25788,138.38128 364.98977,139.41579 374.59001,139.17425 375.67887,139.61778 382.33397,141.02956 389.06196,142.39147 395.90251,142.24225 401.0106,142.39178 406.1604,142.08457 411.07627,140.61126 419.74252,138.36308 427.12631,132.89574 433.37613,126.66102 440.23812,120.186 446.84759,112.88275 455.94805,109.63062 464.1702,106.44765 473.18996,107.36342 481.8241,107.72071 490.91253,108.10352 499.68605,110.84151 508.2135,113.84027 530.0269,121.94877 550.4218,134.22694 567.3811,150.16931 583.44784,165.24878 596.22124,184.01658 602.97539,205.07682 603.86392,208.17751 604.87308,211.28013 606.65054,213.99337 609.5664,219.4605 611.07256,225.5307 611.98812,231.60665 612.34581,232.25107 613.0556,232.59 613.19714,233.42019 617.09007,243.25059 618.37502,253.80367 620.85969,264.06274 622.10901,269.38897 623.17082,274.78056 624.49053,280.07753 625.23302,281.02176 625.94687,279.6096 625.85754,278.89598 626.61131,272.81526 626.21024,266.65492 626.25667,260.54091 626.24557,250.93184 625.62798,241.34862 624.32937,231.83033 622.01783,214.28986 617.59038,196.82964 609.05237,181.24392 603.74908,171.09911 596.46792,162.05476 587.96563,154.42146 582.28148,148.59097 576.6198,142.71172 570.30757,137.54504 554.94256,124.55256 536.96357,114.7576 517.8285,108.54724 499.738,102.53782 480.89942,99.301158 462.18592,95.859354 462.11932,95.860076 462.05238,95.855354 461.9867,95.873094 z"
       inkscape:connector-curvature="0"
       id="path3802"
       style="fill:#73a0a6;stroke:none" />
  </g>
</svg>
