<?xml version="1.0" encoding="UTF-8" standalone="no"?>
<!-- Created with Inkscape (http://www.inkscape.org/) -->

<svg
   xmlns:dc="http://purl.org/dc/elements/1.1/"
   xmlns:cc="http://creativecommons.org/ns#"
   xmlns:rdf="http://www.w3.org/1999/02/22-rdf-syntax-ns#"
   xmlns:svg="http://www.w3.org/2000/svg"
   xmlns="http://www.w3.org/2000/svg"
   xmlns:xlink="http://www.w3.org/1999/xlink"
   xmlns:inkscape="http://www.inkscape.org/namespaces/inkscape"
   version="1.1"
   width="740"
   height="520"
   id="svg2"
   style="display:inline;enable-background:new">
  <defs
     id="defs4">
    <filter
       color-interpolation-filters="sRGB"
       id="filter3050">
      <feBlend
         in2="BackgroundImage"
         mode="lighten"
         id="feBlend3052" />
    </filter>
  </defs>
  <metadata
     id="metadata7">
    <rdf:RDF>
      <cc:Work
         rdf:about="">
        <dc:format>image/svg+xml</dc:format>
        <dc:type
           rdf:resource="http://purl.org/dc/dcmitype/StillImage" />
        <dc:title />
      </cc:Work>
    </rdf:RDF>
  </metadata>
  <g
     id="g4374"
     style="display:none">
    <image
       xlink:href="pngs/coronal-0491.png"
       id="image4376"
       height="520"
       width="740"
       y="0"
       x="0" />
  </g>
  <g
     id="g4382"
     style="display:inline">
    <path
       d="M 367.5705,100.93909 369.43575,196.06716 C 369.85025,197.10341 370.26475,198.13967 370.67926,199.17592 370.88651,199.38317 371.16993,199.53552 371.30101,199.79767 371.48638,200.16841 371.00791,200.74808 371.30101,201.04118 371.44756,201.18772 371.77621,200.89463 371.92276,201.04118 372.21017,201.32859 371.73506,202.53103 371.92276,202.90643 372.05384,203.16859 372.41344,203.26603 372.54451,203.52818 372.8714,204.18195 372.54451,205.89014 372.54451,206.63694 372.54451,206.8442 372.69106,207.11215 372.54451,207.2587 372.39796,207.40524 372.06931,207.11215 371.92276,207.2587 371.77621,207.40524 371.92276,207.6732 371.92276,207.88045 371.71551,207.88045 371.44756,207.7339 371.30101,207.88045 371.15446,208.027 371.44756,208.35565 371.30101,208.5022 371.15446,208.64875 370.8258,208.35565 370.67926,208.5022 370.26457,208.91689 371.09394,209.33102 370.67926,209.7457 369.02125,209.7457 370.88651,209.53845 370.0575,210.36746 369.91096,210.51401 369.5823,210.22091 369.43575,210.36746 369.40375,210.39946 369.43575,213.74324 369.43575,214.09797 369.43575,215.54872 369.43575,216.99948 369.43575,218.45023 369.43575,218.86474 369.02125,219.69374 369.43575,219.69374 369.643,219.69374 369.43575,219.27924 369.43575,219.07199 369.43575,218.65748 369.43575,218.24298 369.43575,217.82848"
       inkscape:connector-curvature="0"
       id="path4384"
       style="fill:none;stroke:#0000e9;stroke-width:1;stroke-miterlimit:4;stroke-opacity:1;stroke-dasharray:none;stroke-dashoffset:0" />
    <path
       d="M 368.19225,217.20673 C 376.91792,216.91716 384.12721,212.57652 391.81883,209.12395 399.73261,205.63056 404.82051,198.49025 411.00736,192.8376 417.96384,186.34218 420.67563,174.91126 430.15597,171.84228 438.15993,171.11834 446.52445,170.05837 454.02537,173.75492 465.51412,179.04808 477.3137,183.72165 488.24263,190.17821 496.21056,194.83798 504.14114,199.52659 512.17539,204.03715 519.99778,209.09411 528.46596,213.88622 533.5653,221.9222 540.42799,228.9355 544.29678,237.8742 546.21775,247.40144 547.11913,257.78014 544.55992,267.90981 543.75304,278.21834 541.58992,289.86487 538.56026,301.21171 535.11276,312.52743 536.04594,319.07275 527.62956,331.36885 528.13508,318.51749 528.52653,311.34517 530.77189,304.45846 531.7102,297.31737 533.20598,287.92979 533.81503,278.45725 534.39407,269.00372 533.61365,258.90455 532.68281,248.43937 528.95371,238.97095 524.70587,230.31304 517.45768,224.44446 510.01267,218.36342 502.5246,212.03472 494.53138,205.53635 484.53154,203.7328 475.79689,201.46537 467.20886,198.56076 458.00508,200.3861 448.71725,200.9485 439.41497,202.77382 431.70325,208.11394 426.35162,214.92053 424.72093,224.84622 417.33849,230.11072 409.08028,235.39013 399.60932,241.75519 389.30855,239.02368 383.05551,238.50652 373.0037,236.41329 368.93995,237.40465 L 369.91907,237.77231 370.67926,237.72451"
       inkscape:connector-curvature="0"
       id="path4386"
       style="fill:none;stroke:#0000e9;stroke-width:1;stroke-miterlimit:4;stroke-opacity:1;stroke-dasharray:none;stroke-dashoffset:0" />
    <path
       d="M 423.52818,220.31549 C 424.35719,220.52274 425.25089,220.55509 426.01519,220.93724 426.06489,220.96214 426.06489,222.70302 426.01519,222.8025 425.88412,223.06465 425.52452,223.1621 425.39344,223.42425 425.14474,223.92165 425.64214,224.79211 425.39344,225.28951 424.62514,226.82611 424.77169,225.07489 424.77169,226.53301 424.77169,228.14242 424.3363,236.85378 424.77169,237.72455 424.90277,237.9867 425.30075,238.06825 425.39344,238.3463 425.82265,239.63393 425.39344,241.93479 425.39344,243.32032 425.39344,244.04299 425.46844,250.70635 425.39344,250.78134 425.24689,250.92789 424.91824,250.63479 424.77169,250.78134 424.60711,250.94592 424.77169,252.39058 424.77169,252.6466 424.77169,253.39341 425.09857,255.10159 424.77169,255.75536 424.64061,256.01751 424.28101,256.11496 424.14994,256.37711 424.08344,256.51013 424.08344,261.83987 424.14994,261.97288 424.91824,263.50948 424.77169,261.75827 424.77169,263.21639 424.77169,264.77513 425.19077,272.94801 424.77169,273.78617 424.64061,274.04832 424.28101,274.14577 424.14994,274.40792 423.96526,274.77728 423.96526,277.14733 424.14994,277.51668 424.28101,277.77884 424.64061,277.87628 424.77169,278.13844 425.14112,278.87731 424.77169,282.69437 424.77169,283.7342 424.77169,285.19232 424.62514,283.44111 425.39344,284.97771 425.70295,285.59674 425.07174,289.00827 425.39344,289.32997 425.53999,289.47652 425.86864,289.18342 426.01519,289.32997 426.28474,289.59952 425.75325,292.5366 426.01519,293.06049 426.14627,293.32264 426.50587,293.42008 426.63694,293.68224 426.94646,294.30127 426.31525,297.7128 426.63694,298.0345 426.78349,298.18105 427.11215,297.88795 427.2587,298.0345 427.2957,298.0715 427.2587,301.97122 427.2587,302.38677 427.2587,302.8736 427.56894,305.18529 427.2587,305.49553 427.11215,305.64208 426.78349,305.34898 426.63694,305.49553 425.80794,306.32453 427.6732,306.11728 426.01519,306.11728 425.80794,306.11728 425.53999,306.26383 425.39344,306.11728 425.24689,305.97073 425.53999,305.64208 425.39344,305.49553 425.24689,305.34898 424.95706,305.58823 424.77169,305.49553 422.1841,304.20174 425.43636,305.53843 424.14994,304.25202 424.00339,304.10547 423.67473,304.39857 423.52818,304.25202 423.38164,304.10547 423.62088,303.81564 423.52818,303.63027 423.26603,303.10596 422.54683,302.91107 422.28468,302.38677 422.09931,302.01603 422.57778,301.43636 422.28468,301.14326 422.13813,300.99671 421.80948,301.28981 421.66293,301.14326 421.26854,300.74888 421.92176,299.17392 421.66293,298.65625 421.53185,298.3941 421.17225,298.29666 421.04118,298.0345 420.70726,297.36668 421.37509,297.45882 421.04118,296.791 420.9101,296.52884 420.5505,296.4314 420.41942,296.16925 420.00492,295.34024 420.83392,293.88949 420.41942,293.06049 420.28835,292.79833 419.89036,292.71679 419.79767,292.43873 419.60106,291.84889 420.07573,291.12959 419.79767,290.57348 419.66659,290.31132 419.307,290.21388 419.17592,289.95173 418.51272,288.62532 419.83912,286.30411 419.17592,284.97771 419.04484,284.71555 418.68524,284.61811 418.55417,284.35596 418.14298,283.53358 418.55417,279.29538 418.55417,278.13844 418.55417,276.68032 418.70072,278.43153 417.93242,276.89493 417.67424,276.37858 417.93242,274.99736 417.93242,274.40792 417.93242,273.66112 418.2593,271.95293 417.93242,271.29916 417.57028,270.5749 417.05104,270.15817 416.68891,269.43391 416.44021,268.9365 416.93761,268.06605 416.68891,267.56865 416.32678,266.84439 415.80754,266.42766 415.44541,265.70339 415.26004,265.33265 415.63078,264.83063 415.44541,264.45989 415.31433,264.19774 414.95473,264.10029 414.82365,263.83814 414.63596,263.46274 415.11107,262.26029 414.82365,261.97288 414.67711,261.82633 414.34845,262.11943 414.2019,261.97288 414.05535,261.82633 414.34845,261.49768 414.2019,261.35113 414.05535,261.20458 413.7267,261.49768 413.58015,261.35113 413.28705,261.05803 413.87325,260.40072 413.58015,260.10762 413.4336,259.96108 413.10495,260.25417 412.9584,260.10762 412.6653,259.81453 413.14377,259.23486 412.9584,258.86412 412.59627,258.13986 412.07703,257.72313 411.71489,256.99886 411.52952,256.62812 412.00799,256.04846 411.71489,255.75536 411.56835,255.60881 411.23969,255.90191 411.09314,255.75536 410.80005,255.46226 411.38624,254.80495 411.09314,254.51186 410.94659,254.36531 410.61794,254.6584 410.47139,254.51186 410.32484,254.36531 410.61794,254.03665 410.47139,253.8901 410.32484,253.74356 409.99619,254.03665 409.84964,253.8901 409.55654,253.59701 410.03501,253.01734 409.84964,252.6466 409.71856,252.38445 409.35896,252.287 409.22789,252.02485 409.04252,251.65411 409.52098,251.07444 409.22789,250.78134 409.08134,250.63479 408.75268,250.92789 408.60613,250.78134 408.31304,250.48825 408.89923,249.83094 408.60613,249.53784 408.45959,249.39129 408.13093,249.68439 407.98438,249.53784 407.69128,249.24474 408.27748,248.58743 407.98438,248.29433 407.83783,248.14779 407.50918,248.44088 407.36263,248.29433 407.06953,248.00124 407.65573,247.34393 407.36263,247.05083 407.21608,246.90428 406.88743,247.19738 406.74088,247.05083 406.43,246.73995 407.05175,245.49645 406.74088,245.18557 405.91187,244.35657 406.11913,246.22183 406.11913,244.56382 406.11913,242.90582 406.32638,244.77107 405.49737,243.94207 405.20428,243.64897 405.68274,243.06931 405.49737,242.69857 405.3663,242.43641 405.0067,242.33897 404.87562,242.07681 404.78292,241.89144 405.02217,241.60161 404.87562,241.45506 404.72907,241.30851 404.40042,241.60161 404.25387,241.45506 403.83918,241.04037 404.66856,240.62624 404.25387,240.21156 404.10732,240.06501 403.77867,240.35811 403.63212,240.21156 403.48557,240.06501 403.72482,239.77518 403.63212,239.58981 403.50104,239.32765 403.14144,239.23021 403.01036,238.96805 402.91766,238.78268 403.10306,238.53167 403.01036,238.3463 402.87929,238.08415 402.51969,237.9867 402.38861,237.72455 402.29591,237.53918 402.59586,237.1028 402.38861,237.1028 401.69778,237.1028 402.31951,237.72455 403.01036,237.72455"
       inkscape:connector-curvature="0"
       id="path4390"
       style="fill:none;stroke:#0000e9;stroke-width:1;stroke-miterlimit:4;stroke-opacity:1;stroke-dasharray:none;stroke-dashoffset:0" />
    <path
       d="M 366.94874,104.6696 C 368.20743,102.42007 367.16736,103.02313 370.67926,98.45208 373.53989,97.331313 373.71559,92.366313 378.14028,91.612807 380.1304,88.836163 383.58092,87.519913 386.22306,85.395286 391.65289,83.112632 396.14633,79.6074 401.14511,77.934261 411.56962,77.317697 422.25009,75.034227 432.60211,77.24872 476.20972,85.025455 519.33798,106.75487 555.96138,124.56567 595.18785,143.20735 608.99536,159.38836 625.59761,198.55417 627.75999,206.35645 628.87288,214.42592 629.44793,222.90677 630.18827,234.72418 629.75395,245.74675 629.50493,257.07819 627.8883,265.63089 626.95609,274.19584 624.97586,282.4907 622.84052,288.2735 621.30057,294.21094 618.75834,299.27801 616.43963,303.75243 615.29179,308.68326 613.16257,312.3348 611.7559,318.42879 608.79887,322.51657 606.3233,327.8786 605.2635,332.40785 602.27399,336.28453 600.72753,339.69189 597.87964,342.9233 596.85369,347.62454 593.88826,349.63993 592.33561,351.55119 590.2503,355.3382 587.67074,357.10095 586.3996,359.83946 582.15329,361.58708 580.20971,363.94022 575.65365,366.21976 572.38975,372.4754 567.15292,373.26651 560.41132,374.14749 554.97891,376.47144 549.12211,378.24052 546.29855,381.21005 539.00385,382.71589 536.06531,386.3233 536.09501,391.93856 536.23292,401.22592 531.0913,404.35411 528.5728,408.36952 527.26327,411.06446 523.45321,414.30491 522.41459,416.70022 516.19129,421.07473 513.68224,422.38492 510.10073,426.31176 505.63206,428.64019 500.62544,431.08945 495.00221,432.43891 487.43934,433.07279 482.59463,435.44172 475.11414,436.26642 469.94185,433.84803 465.18557,432.95471 459.91688,433.07469 458.03895,430.07602 456.48105,431.7112 447.31555,428.55041 437.49246,429.77119 429.12395,425.49368 422.742,424.62208 418.16132,421.16829 412.9584,419.27616 408.63708,417.5591 408.2589,413.48604 404.87562,411.19338 404.05433,405.22341 397.05804,398.96347 392.75146,397.51484 388.63585,396.28115 385.84838,393.55268 381.87079,391.91907 380.65431,389.34099 377.16806,387.70485 374.40977,385.0798 372.18016,383.71311 370.60633,381.01317 368.19225,379.48403 369.54438,378.92868 369.44047,381.88853 371.30101,380.10578"
       inkscape:connector-curvature="0"
       id="path4392"
       style="fill:none;stroke:#0000e9;stroke-width:1;stroke-miterlimit:4;stroke-opacity:1;stroke-dasharray:none;stroke-dashoffset:0" />
    <path
       d="M 429.7457,172.44058 370.67926,95.34332"
       inkscape:connector-curvature="0"
       id="path4394"
       style="fill:none;stroke:#0000e9;stroke-width:1;stroke-miterlimit:4;stroke-opacity:1;stroke-dasharray:none;stroke-dashoffset:0" />
    <path
       d="M 423.52818,176.17109 368.74003,145.13946"
       inkscape:connector-curvature="0"
       id="path4396"
       style="fill:none;stroke:#0000e9;stroke-width:1;stroke-miterlimit:4;stroke-opacity:1;stroke-dasharray:none;stroke-dashoffset:0" />
    <path
       d="M 436.58498,170.57532 442.18075,79.177765"
       inkscape:connector-curvature="0"
       id="path4398"
       style="fill:none;stroke:#0000e9;stroke-width:1;stroke-miterlimit:4;stroke-opacity:1;stroke-dasharray:none;stroke-dashoffset:0" />
    <path
       d="M 479.09803,184.25387 C 492.57733,165.58634 512.07251,135.8779 528.60429,111.50887"
       inkscape:connector-curvature="0"
       id="path4400"
       style="fill:none;stroke:#0000e9;stroke-width:1;stroke-miterlimit:4;stroke-opacity:1;stroke-dasharray:none;stroke-dashoffset:0" />
    <path
       d="M 501.86895,197.31066 C 519.72216,173.8504 538.83481,149.85934 557.82664,125.80917"
       inkscape:connector-curvature="0"
       id="path4402"
       style="fill:none;stroke:#0000e9;stroke-width:1;stroke-miterlimit:4;stroke-opacity:1;stroke-dasharray:none;stroke-dashoffset:0" />
    <path
       d="M 541.66108,234.61579 628.08462,206.63694"
       inkscape:connector-curvature="0"
       id="path4404"
       style="fill:none;stroke:#0000e9;stroke-width:1;stroke-miterlimit:4;stroke-opacity:1;stroke-dasharray:none;stroke-dashoffset:0" />
    <path
       d="M 544.76984,260.72938 628.08462,264.45989"
       inkscape:connector-curvature="0"
       id="path4406"
       style="fill:none;stroke:#0000e9;stroke-width:1;stroke-miterlimit:4;stroke-opacity:1;stroke-dasharray:none;stroke-dashoffset:0" />
    <path
       d="M 551.04963,260.9281 C 551.34791,262.89102 550.51438,265.85217 550.98733,266.32515 551.13388,266.47169 551.46254,266.1786 551.60909,266.32515 551.75563,266.47169 551.51639,266.76153 551.60909,266.9469 551.74016,267.20905 552.09976,267.3065 552.23084,267.56865 552.56475,268.23648 551.89692,268.14433 552.23084,268.81215 552.36191,269.07431 552.72151,269.17175 552.85259,269.43391 553.10129,269.93131 552.60389,270.80176 552.85259,271.29916 552.98367,271.56132 553.34326,271.65876 553.47434,271.92091 553.65971,272.29166 553.28897,272.79368 553.47434,273.16442 553.83647,273.88868 554.35571,274.30541 554.71785,275.02967 555.04945,275.69288 554.38624,276.85348 554.71785,277.51668 554.84892,277.77884 555.20852,277.87628 555.3396,278.13844 555.59843,278.6561 554.94521,280.23106 555.3396,280.62544 555.48615,280.77199 555.8148,280.4789 555.96135,280.62544 556.00465,280.66874 555.96135,285.12305 555.96135,285.59946 555.96135,286.7564 556.37254,290.99461 555.96135,291.81698 555.83027,292.07914 555.47067,292.17658 555.3396,292.43873 555.008,293.10194 555.6712,294.26254 555.3396,294.92574 555.20852,295.1879 554.84892,295.28534 554.71785,295.54749 554.46915,296.0449 554.96655,296.91535 554.71785,297.41275 554.58677,297.6749 554.22717,297.77235 554.09609,298.0345 553.91072,298.40524 554.28146,298.90727 554.09609,299.27801 553.96502,299.54016 553.60542,299.6376 553.47434,299.89976 553.28897,300.2705 553.76744,300.85017 553.47434,301.14326 553.32779,301.28981 552.99914,300.99671 552.85259,301.14326 552.55949,301.43636 553.03796,302.01603 552.85259,302.38677 552.72151,302.64892 552.36191,302.74637 552.23084,303.00852 551.98214,303.50592 552.47954,304.37637 552.23084,304.87378 552.09976,305.13593 551.74016,305.23337 551.60909,305.49553 551.36038,305.99293 551.85779,306.86338 551.60909,307.36078 551.47801,307.62294 551.11841,307.72038 550.98733,307.98254 550.89463,308.16791 550.98733,308.39704 550.98733,308.60429 550.78008,308.81154 550.49666,308.96389 550.36558,309.22604 550.03311,309.89098 550.69805,309.80461 550.36558,310.46954 550.00345,311.19381 549.48421,311.61054 549.12208,312.3348 549.02938,312.52017 549.26863,312.81 549.12208,312.95655 548.97553,313.1031 548.64687,312.81 548.50032,312.95655 548.20723,313.24965 548.79342,313.90696 548.50032,314.20006 548.35378,314.34661 548.02512,314.05351 547.87857,314.20006 547.58548,314.49315 548.17167,315.15046 547.87857,315.44356 547.73202,315.59011 547.40337,315.29701 547.25682,315.44356 547.11027,315.59011 547.34952,315.87994 547.25682,316.06531 547.12574,316.32747 546.76615,316.42491 546.63507,316.68707 546.54237,316.87244 546.78162,317.16227 546.63507,317.30882 546.48852,317.45537 546.15986,317.16227 546.01332,317.30882 545.86677,317.45537 546.15986,317.78402 546.01332,317.93057 545.86677,318.07712 545.53811,317.78402 545.39156,317.93057 545.24502,318.07712 545.48426,318.36695 545.39156,318.55232 545.12941,319.07663 544.67237,319.53367 544.14806,319.79583 542.49005,319.79583 544.35531,319.58857 543.52631,320.41758 543.37976,320.56413 543.0511,320.27103 542.90456,320.41758 542.75801,320.56413 543.0511,320.89278 542.90456,321.03933 542.75801,321.18588 542.42935,320.89278 542.2828,321.03933 542.13626,321.18588 542.42935,321.51453 542.2828,321.66108 542.13626,321.80763 541.8076,321.51453 541.66105,321.66108 541.5145,321.80763 541.8076,322.13629 541.66105,322.28283 541.36796,322.57593 540.71064,321.98974 540.41755,322.28283 540.271,322.42938 540.5641,322.75804 540.41755,322.90459 540.271,323.05113 539.98117,322.81189 539.7958,322.90459 539.53364,323.03566 539.4362,323.39526 539.17404,323.52634 538.79865,323.71404 537.5962,323.23892 537.30879,323.52634 537.16224,323.67289 537.45534,324.00154 537.30879,324.14809 537.12745,324.32943 533.75961,324.32943 533.57827,324.14809 533.43173,324.00154 533.72482,323.67289 533.57827,323.52634 533.43173,323.37979 533.10307,323.67289 532.95652,323.52634 532.80997,323.37979 533.10307,323.05113 532.95652,322.90459 532.80997,322.75804 532.48132,323.05113 532.33477,322.90459 532.18822,322.75804 532.48132,322.42938 532.33477,322.28283 532.04167,321.98974 531.38436,322.57593 531.09127,322.28283 530.94472,322.13629 530.88402,321.66108 531.09127,321.66108 531.38436,321.66108 531.50577,322.07558 531.71302,322.28283"
       inkscape:connector-curvature="0"
       id="path4408"
       style="fill:none;stroke:#0000e9;stroke-width:1;stroke-miterlimit:4;stroke-opacity:1;stroke-dasharray:none;stroke-dashoffset:0" />
    <path
       d="M 544.14809,319.79583 C 544.97709,320.00308 545.8061,320.21033 544.14809,319.79583 z"
       inkscape:connector-curvature="0"
       id="path4410"
       style="fill:none;stroke:#0000e9;stroke-width:1;stroke-miterlimit:4;stroke-opacity:1;stroke-dasharray:none;stroke-dashoffset:0" />
    <path
       d="M 545.39159,319.79583 C 562.5934,331.07989 579.79521,342.68435 596.99702,345.90941"
       inkscape:connector-curvature="0"
       id="path4412"
       style="fill:none;stroke:#0000e9;stroke-width:1;stroke-miterlimit:4;stroke-opacity:1;stroke-dasharray:none;stroke-dashoffset:0" />
    <path
       d="M 527.36078,323.52634 C 527.15353,324.35534 525.91003,325.8061 526.73903,326.01335 527.56803,326.2206 527.96502,322.9221 527.36078,323.52634 526.5716,324.31553 526.47021,325.57629 526.11728,326.6351 526.05178,326.83171 526.26383,327.1103 526.11728,327.25685 525.97073,327.4034 525.64208,327.1103 525.49553,327.25685 525.20811,327.54426 525.68323,328.74671 525.49553,329.12211 525.36445,329.38426 525.00485,329.48171 524.87378,329.74386 524.78108,329.92923 525.02032,330.21906 524.87378,330.36561 524.72723,330.51216 524.39857,330.21906 524.25202,330.36561 524.10547,330.51216 524.39857,330.84081 524.25202,330.98736 524.10547,331.13391 523.77682,330.84081 523.63027,330.98736 523.33717,331.28046 523.92337,331.93777 523.63027,332.23087 523.48372,332.37742 523.15507,332.08432 523.00852,332.23087 522.86197,332.37742 523.10122,332.66725 523.00852,332.85262 522.63547,333.59872 521.51631,333.97177 521.14326,334.71788 521.05056,334.90325 521.28981,335.19308 521.14326,335.33963 520.99671,335.48618 520.70688,335.24693 520.52151,335.33963 517.93393,336.63342 521.18619,335.29673 519.89976,336.58313 519.75321,336.72968 519.42455,336.43658 519.27801,336.58313 519.13146,336.72968 519.42455,337.05834 519.27801,337.20488 519.13146,337.35143 518.8028,337.05834 518.65625,337.20488 518.50971,337.35143 518.8028,337.68009 518.65625,337.82664 518.50971,337.97318 518.18105,337.68009 518.0345,337.82664 517.88795,337.97318 518.1272,338.26302 518.0345,338.44839 517.90343,338.71054 517.54383,338.80799 517.41275,339.07014 517.32005,339.25551 517.5593,339.54534 517.41275,339.69189 517.2662,339.83844 516.93755,339.54534 516.791,339.69189 516.64445,339.83844 516.93755,340.1671 516.791,340.31364 516.64445,340.46019 516.31579,340.1671 516.16925,340.31364 516.0227,340.46019 516.31579,340.78885 516.16925,340.9354 516.0227,341.08195 515.69404,340.78885 515.54749,340.9354 515.40095,341.08195 515.69404,341.4106 515.54749,341.55715 515.40095,341.7037 515.07229,341.4106 514.92574,341.55715 514.77919,341.7037 515.07229,342.03235 514.92574,342.1789 514.77919,342.32545 514.45054,342.03235 514.30399,342.1789 514.15744,342.32545 514.45054,342.6541 514.30399,342.80065 514.15744,342.9472 513.82879,342.6541 513.68224,342.80065 513.53569,342.9472 513.82879,343.27586 513.68224,343.42241 513.53569,343.56895 513.20703,343.27586 513.06049,343.42241 512.91394,343.56895 513.20703,343.89761 513.06049,344.04416 512.91394,344.19071 512.58528,343.89761 512.43873,344.04416 512.29219,344.19071 512.58528,344.51936 512.43873,344.66591 511.15231,345.95234 512.48903,342.70008 511.19523,345.28766 511.10253,345.47303 511.28793,345.72404 511.19523,345.90941 510.82218,346.65552 509.70302,347.02857 509.32997,347.77467 509.23727,347.96004 509.47652,348.24987 509.32997,348.39642 509.18342,348.54297 508.85477,348.24987 508.70822,348.39642 508.56167,348.54297 508.85477,348.87163 508.70822,349.01817 508.56167,349.16472 508.23302,348.87163 508.08647,349.01817 507.93992,349.16472 508.23302,349.49338 508.08647,349.63993 507.93992,349.78647 507.61127,349.49338 507.46472,349.63993 507.31817,349.78647 507.55742,350.07631 507.46472,350.26168 507.20256,350.78599 506.48337,350.98088 506.22121,351.50518 506.12851,351.69055 506.31391,351.94156 506.22121,352.12693 506.09014,352.38909 505.73054,352.48653 505.59946,352.74869 505.50676,352.93406 505.74601,353.22389 505.59946,353.37044 505.45291,353.51699 505.12426,353.22389 504.97771,353.37044 504.68461,353.66354 505.16308,354.2432 504.97771,354.61394 504.84663,354.8761 504.48703,354.97354 504.35596,355.2357 504.26326,355.42107 504.44866,355.67208 504.35596,355.85745 504.22488,356.1196 503.86528,356.21705 503.7342,356.4792 503.6415,356.66457 503.8269,356.91558 503.7342,357.10095 503.60313,357.3631 503.24353,357.46055 503.11245,357.7227 502.92475,358.0981 503.39987,359.30055 503.11245,359.58796 502.9659,359.73451 502.63725,359.44141 502.4907,359.58796 502.1976,359.88106 502.7838,360.53837 502.4907,360.83146 502.34415,360.97801 502.0155,360.68492 501.86895,360.83146 501.37269,361.32772 502.1951,363.28792 501.86895,363.94022 501.73787,364.20238 501.37827,364.29982 501.2472,364.56198 500.98902,365.07833 501.2472,366.45954 501.2472,367.04898 501.2472,367.77166 501.1722,374.43502 501.2472,374.51001 501.39374,374.65656 501.7224,374.36346 501.86895,374.51001 502.16204,374.80311 501.57585,375.46042 501.86895,375.75351 502.0155,375.90006 502.34415,375.60697 502.4907,375.75351 502.63725,375.90006 502.34415,376.22872 502.4907,376.37527 502.63725,376.52181 502.9659,376.22872 503.11245,376.37527 503.259,376.52181 502.9659,376.85047 503.11245,376.99702 503.259,377.14357 503.58766,376.85047 503.7342,376.99702 505.02063,378.28345 501.76837,376.94672 504.35596,378.24052 504.7267,378.42589 505.30636,377.94743 505.59946,378.24052 505.74601,378.38707 505.45291,378.71573 505.59946,378.86227 505.89256,379.15537 506.54987,378.56918 506.84296,378.86227 506.98951,379.00882 506.69642,379.33748 506.84296,379.48403 506.98951,379.63058 507.31817,379.33748 507.46472,379.48403 507.61127,379.63058 507.31817,379.95923 507.46472,380.10578 507.59921,380.24027 509.75547,380.20388 509.95173,380.10578 511.25811,379.45259 509.93963,378.87436 510.57348,378.24052 510.72003,378.09397 511.04868,378.38707 511.19523,378.24052 511.50611,377.92965 510.88435,376.68614 511.19523,376.37527 511.34178,376.22872 511.67043,376.52181 511.81698,376.37527 512.1044,376.08785 511.62928,374.88541 511.81698,374.51001 511.94806,374.24786 512.30766,374.15041 512.43873,373.88826 512.53143,373.70289 512.29219,373.41305 512.43873,373.26651 512.58528,373.11996 512.91394,373.41305 513.06049,373.26651 513.35358,372.97341 512.87511,372.39374 513.06049,372.023 513.42262,371.29874 513.94186,370.88201 514.30399,370.15775 514.49169,369.78235 514.01658,368.5799 514.30399,368.29249 514.45054,368.14594 514.77919,368.43904 514.92574,368.29249 515.07229,368.14594 514.83304,367.85611 514.92574,367.67074 515.28787,366.94647 515.80712,366.52974 516.16925,365.80548 516.26195,365.62011 516.0227,365.33028 516.16925,365.18373 516.31579,365.03718 516.64445,365.33028 516.791,365.18373 517.20658,364.76814 516.37541,364.35581 516.791,363.94022 516.93755,363.79368 517.2662,364.08677 517.41275,363.94022 517.70585,363.64713 517.11965,362.98982 517.41275,362.69672 517.5593,362.55017 517.88795,362.84327 518.0345,362.69672 518.34538,362.38584 517.72363,361.14234 518.0345,360.83146 518.18105,360.68492 518.50971,360.97801 518.65625,360.83146 518.94367,360.54405 518.46856,359.34161 518.65625,358.96621 518.78733,358.70405 519.14693,358.60661 519.27801,358.34446 519.46338,357.97371 519.09264,357.47169 519.27801,357.10095 519.40908,356.8388 519.76868,356.74135 519.89976,356.4792 520.14846,355.9818 519.65106,355.11134 519.89976,354.61394 520.03084,354.35179 520.39043,354.25434 520.52151,353.99219 520.70688,353.62145 520.33614,353.11943 520.52151,352.74869 520.65259,352.48653 521.01219,352.38909 521.14326,352.12693 521.23596,351.94156 520.99671,351.65173 521.14326,351.50518 521.28981,351.35863 521.61847,351.65173 521.76501,351.50518 521.91156,351.35863 521.76501,351.09068 521.76501,350.88343 521.97227,350.88343 522.24022,351.02998 522.38677,350.88343 522.53332,350.73688 522.24022,350.40823 522.38677,350.26168 522.53332,350.11513 522.86197,350.40823 523.00852,350.26168 523.15507,350.11513 522.86197,349.78647 523.00852,349.63993 523.30162,349.34683 523.95893,349.93302 524.25202,349.63993 524.39857,349.49338 524.10547,349.16472 524.25202,349.01817 524.39857,348.87163 524.72723,349.16472 524.87378,349.01817 526.1602,347.73175 522.90794,349.06847 525.49553,347.77467 525.86627,347.5893 526.44593,348.06777 526.73903,347.77467 526.88558,347.62812 526.59248,347.29947 526.73903,347.15292 526.88558,347.00637 527.21424,347.29947 527.36078,347.15292 527.50733,347.00637 527.21424,346.67771 527.36078,346.53117 527.50733,346.38462 527.83599,346.67771 527.98254,346.53117 528.12908,346.38462 527.83599,346.05596 527.98254,345.90941 528.12908,345.76287 528.41892,346.00211 528.60429,345.90941 529.1286,345.64726 529.32348,344.92806 529.84779,344.66591 530.03316,344.57321 530.323,344.81246 530.46954,344.66591 530.61609,344.51936 530.323,344.19071 530.46954,344.04416 530.61609,343.89761 530.94475,344.19071 531.0913,344.04416 531.23784,343.89761 530.94475,343.56895 531.0913,343.42241 531.23784,343.27586 531.5665,343.56895 531.71305,343.42241 531.8596,343.27586 531.5665,342.9472 531.71305,342.80065 531.8596,342.6541 532.18825,342.9472 532.3348,342.80065 532.48135,342.6541 532.18825,342.32545 532.3348,342.1789 532.48135,342.03235 532.77118,342.2716 532.95655,342.1789 533.70266,341.80585 534.07571,340.6867 534.82181,340.31364 535.00718,340.22094 535.29701,340.46019 535.44356,340.31364 535.59011,340.1671 535.29701,339.83844 535.44356,339.69189 535.59011,339.54534 535.87994,339.78459 536.06531,339.69189 536.32747,339.56082 536.42491,339.20122 536.68707,339.07014 536.87244,338.97744 537.16227,339.21669 537.30882,339.07014 537.45537,338.92359 537.21612,338.63376 537.30882,338.44839 537.57097,337.92408 538.02801,337.46704 538.55232,337.20488 538.73769,337.11218 539.02753,337.35143 539.17407,337.20488 539.32062,337.05834 539.02753,336.72968 539.17407,336.58313 539.32062,336.43658 539.64928,336.72968 539.79583,336.58313 539.94237,336.43658 539.64928,336.10793 539.79583,335.96138 539.94237,335.81483 540.27103,336.10793 540.41758,335.96138 540.56413,335.81483 540.32488,335.525 540.41758,335.33963 540.79063,334.59353 541.90978,334.22047 542.28283,333.47437 542.37553,333.289 542.19013,333.03799 542.28283,332.85262 542.41391,332.59047 542.77351,332.49302 542.90459,332.23087 542.99729,332.0455 542.75804,331.75566 542.90459,331.60912 543.05113,331.46257 543.37979,331.75566 543.52634,331.60912 543.81943,331.31602 543.34097,330.73635 543.52634,330.36561 545.58843,328.30352 543.23324,330.9518 544.14809,329.12211 544.51022,328.39785 545.02946,327.98111 545.39159,327.25685 545.57697,326.88611 545.20622,326.38409 545.39159,326.01335 545.52267,325.75119 545.88227,325.65375 546.01335,325.39159 546.19872,325.02085 545.72025,324.44119 546.01335,324.14809 546.84235,323.31909 546.6351,325.18434 546.6351,323.52634 546.6351,321.86833 546.42785,323.73359 547.25685,322.90459 547.42143,322.74 547.25685,321.29535 547.25685,321.03933 547.25685,320.20816 547.25685,320.62699 547.25685,319.79583 547.25685,319.58857 547.4641,319.17407 547.25685,319.17407 546.84235,319.17407 547.54995,320.12448 547.25685,320.41758 547.1103,320.56413 546.78165,320.27103 546.6351,320.41758 546.48855,320.56413 546.6351,320.83208 546.6351,321.03933 546.6351,321.24658 546.42785,321.66108 546.6351,321.66108 546.9282,321.66108 547.0496,321.24658 547.25685,321.03933"
       inkscape:connector-curvature="0"
       id="path4414"
       style="fill:none;stroke:#0000e9;stroke-width:1;stroke-miterlimit:4;stroke-opacity:1;stroke-dasharray:none;stroke-dashoffset:0" />
    <path
       d="M 521.14326,351.50518 C 520.96113,348.1258 522.00727,344.41143 513.06049,343.42241"
       inkscape:connector-curvature="0"
       id="path4416"
       style="fill:none;stroke:#0000e9;stroke-width:1;stroke-miterlimit:4;stroke-opacity:1;stroke-dasharray:none;stroke-dashoffset:0" />
    <path
       d="M 370.0575,294.30399 C 369.57028,296.4383 372.51088,296.10198 373.16626,297.41275 373.25896,297.59812 373.07356,297.84913 373.16626,298.0345 374.58902,300.88002 372.90857,295.39615 374.40977,299.89976 374.54085,300.29299 374.2244,300.77252 374.40977,301.14326 374.54085,301.40542 374.90044,301.50286 375.03152,301.76501 375.28022,302.26242 374.78282,303.13287 375.03152,303.63027 375.1626,303.89242 375.5222,303.98987 375.65327,304.25202 375.90197,304.74942 375.40457,305.61988 375.65327,306.11728 375.78435,306.37943 376.14395,306.47688 376.27502,306.73903 377.27243,308.73384 375.27762,305.98773 376.27502,307.98254 376.4061,308.24469 376.7657,308.34213 376.89678,308.60429 377.08215,308.97503 376.71141,309.47705 376.89678,309.84779 377.02785,310.10995 377.38745,310.20739 377.51853,310.46954 377.76723,310.96695 377.26983,311.8374 377.51853,312.3348 377.64961,312.59695 378.0092,312.6944 378.14028,312.95655 378.47188,313.61975 377.80868,314.78036 378.14028,315.44356 378.27136,315.70571 378.63096,315.80316 378.76203,316.06531 378.9474,316.43605 378.57666,316.93808 378.76203,317.30882 378.89311,317.57097 379.25271,317.66842 379.38379,317.93057 379.96409,319.09117 378.80348,321.12223 379.38379,322.28283 379.51486,322.54499 379.87446,322.64243 380.00554,322.90459 380.33714,323.56779 379.67394,324.72839 380.00554,325.39159 380.13661,325.65375 380.49621,325.75119 380.62729,326.01335 381.22018,327.19912 380.0344,330.42334 380.62729,331.60912 380.75837,331.87127 381.11796,331.96871 381.24904,332.23087 381.50787,332.74853 380.85466,334.32349 381.24904,334.71788 381.39559,334.86442 381.72425,334.57133 381.87079,334.71788 382.38892,335.236 381.35267,337.30851 381.87079,337.82664 382.01734,337.97318 382.346,337.68009 382.49255,337.82664 382.77996,338.11405 382.30485,339.3165 382.49255,339.69189 382.62362,339.95405 382.98322,340.05149 383.1143,340.31364 383.29967,340.68439 382.92893,341.18641 383.1143,341.55715 383.24537,341.8193 383.60497,341.91675 383.73605,342.1789 383.92142,342.54964 383.44295,343.12931 383.73605,343.42241 383.8826,343.56895 384.21125,343.27586 384.3578,343.42241 384.6509,343.7155 384.17243,344.29517 384.3578,344.66591 384.48888,344.92806 384.84848,345.02551 384.97955,345.28766 385.07225,345.47303 384.88685,345.72404 384.97955,345.90941 385.11063,346.17157 385.47023,346.26901 385.60131,346.53117 385.69401,346.71654 385.50861,346.96755 385.60131,347.15292 385.73238,347.41507 386.09198,347.51252 386.22306,347.77467 386.40843,348.14541 385.92996,348.72508 386.22306,349.01817 386.36961,349.16472 386.69826,348.87163 386.84481,349.01817 386.99136,349.16472 386.84481,349.43268 386.84481,349.63993 386.84481,349.84718 386.69826,350.11513 386.84481,350.26168 386.99136,350.40823 387.32001,350.11513 387.46656,350.26168 387.75966,350.55478 387.17347,351.21209 387.46656,351.50518 387.61311,351.65173 387.94177,351.35863 388.08831,351.50518 388.23486,351.65173 387.99561,351.94156 388.08831,352.12693 390.15041,354.18903 387.79522,351.54074 388.71007,353.37044 389.0722,354.0947 389.59144,354.51143 389.95357,355.2357 390.13894,355.60644 389.66047,356.1861 389.95357,356.4792 390.10012,356.62575 390.42877,356.33265 390.57532,356.4792 390.8862,356.79008 390.26445,358.03358 390.57532,358.34446 390.72187,358.491 391.05053,358.19791 391.19708,358.34446 391.49017,358.63755 391.0117,359.21722 391.19708,359.58796 391.32815,359.85011 391.68775,359.94756 391.81883,360.20971 392.15043,360.87291 391.48723,362.03352 391.81883,362.69672 391.9499,362.95887 392.3095,363.05632 392.44058,363.31847 392.62595,363.68921 392.14748,364.26888 392.44058,364.56198 392.58713,364.70852 392.91578,364.41543 393.06233,364.56198 393.58046,365.0801 392.5442,367.15261 393.06233,367.67074 393.65911,368.26751 393.68408,367.11537 393.68408,368.91424 393.68408,370.71311 393.70908,369.56097 394.30584,370.15775 394.72034,370.57225 393.89133,372.23025 394.30584,372.64475 394.45238,372.7913 394.78104,372.49821 394.92759,372.64475 395.02449,372.74165 395.02449,375.03487 394.92759,375.13176 394.78104,375.27831 394.45238,374.98521 394.30584,375.13176 394.06358,375.37402 394.30584,377.23935 394.30584,377.61877 394.30584,378.03327 394.59893,378.56918 394.30584,378.86227 394.15929,379.00882 393.83063,378.71573 393.68408,378.86227 393.26958,379.27678 394.09858,380.93478 393.68408,381.34928 393.53754,381.49583 393.20888,381.20273 393.06233,381.34928 392.91578,381.49583 393.20888,381.82449 393.06233,381.97104 392.91578,382.11758 392.58713,381.82449 392.44058,381.97104 392.44058,383.62904 392.64783,381.76378 391.81883,382.59279 391.67228,382.73934 391.96538,383.06799 391.81883,383.21454 391.67228,383.36109 391.34362,383.06799 391.19708,383.21454 391.05053,383.36109 391.34362,383.68974 391.19708,383.83629 391.05053,383.98284 390.72187,383.68974 390.57532,383.83629 390.42877,383.98284 390.72187,384.3115 390.57532,384.45804 390.42877,384.60459 390.10012,384.3115 389.95357,384.45804 389.80702,384.60459 390.10012,384.93325 389.95357,385.0798 389.66047,385.37289 389.00316,384.7867 388.71007,385.0798 388.56352,385.22634 388.85662,385.555 388.71007,385.70155 388.58404,385.82758 385.72734,385.82758 385.60131,385.70155 385.45476,385.555 385.74785,385.22634 385.60131,385.0798 385.55801,385.0365 381.1037,385.0798 380.62729,385.0798 380.21279,385.0798 379.67688,384.7867 379.38379,385.0798 379.23724,385.22634 379.17653,385.70155 379.38379,385.70155 379.67558,385.70155 379.40269,384.43918 378.76203,385.0798 378.61548,385.22634 378.90858,385.555 378.76203,385.70155 378.72503,385.73855 374.82531,385.70155 374.40977,385.70155"
       inkscape:connector-curvature="0"
       id="path4418"
       style="fill:none;stroke:#0000e9;stroke-width:1;stroke-miterlimit:4;stroke-opacity:1;stroke-dasharray:none;stroke-dashoffset:0" />
    <path
       d="M 397.4146,401.8671 C 397.20735,401.0381 397.62185,399.17284 396.79284,399.38009 395.96384,399.58734 397.4146,402.72162 397.4146,401.8671 397.4146,401.10839 396.19582,396.22188 396.79284,395.02783 396.92392,394.76568 397.28352,394.66823 397.4146,394.40608 397.59997,394.03534 397.1215,393.45567 397.4146,393.16257 397.56114,393.01602 397.8898,393.30912 398.03635,393.16257 398.87845,392.32047 397.19424,392.76117 398.03635,391.91907 398.1829,391.77252 398.51155,392.06562 398.6581,391.91907 398.9512,391.62597 398.365,390.96866 398.6581,390.67556 398.80465,390.52902 399.0726,390.67556 399.27985,390.67556 399.27985,390.46831 399.1333,390.20036 399.27985,390.05381 399.4264,389.90726 399.75506,390.20036 399.9016,390.05381 400.04815,389.90726 399.8089,389.61743 399.9016,389.43206 400.16376,388.90775 400.6208,388.45071 401.14511,388.18856 401.33048,388.09586 401.58149,388.28126 401.76686,388.18856 402.02901,388.05748 402.12646,387.69788 402.38861,387.5668 403.04238,387.23992 404.75057,387.5668 405.49737,387.5668 405.70462,387.5668 405.97258,387.42026 406.11913,387.5668 406.26567,387.71335 405.97258,388.04201 406.11913,388.18856 406.40654,388.47597 407.60898,388.00086 407.98438,388.18856 408.24654,388.31963 408.34398,388.67923 408.60613,388.81031 408.97688,388.99568 409.4789,388.62494 409.84964,388.81031 410.11179,388.94138 410.20924,389.30098 410.47139,389.43206 410.65676,389.52476 410.90777,389.33936 411.09314,389.43206 411.50764,389.63931 412.75115,390.88282 412.9584,391.29732 413.0511,391.48269 412.81185,391.77252 412.9584,391.91907 413.10495,392.06562 413.4336,391.77252 413.58015,391.91907 413.7267,392.06562 413.4336,392.39427 413.58015,392.54082 413.7267,392.68737 414.05535,392.39427 414.2019,392.54082 415.48833,393.82725 412.23607,392.49052 414.82365,393.78432 415.00903,393.87702 415.29886,393.63778 415.44541,393.78432 415.59196,393.93087 415.29886,394.25953 415.44541,394.40608 415.59196,394.55263 415.85991,394.40608 416.06716,394.40608 416.06716,394.61333 415.92061,394.88128 416.06716,395.02783 416.21371,395.17438 416.50354,394.93513 416.68891,395.02783 418.751,397.08992 416.10272,394.73473 417.93242,395.64958 418.19457,395.78066 418.29201,396.14026 418.55417,396.27133 418.73954,396.36403 418.99055,396.17863 419.17592,396.27133 419.43807,396.40241 419.53552,396.76201 419.79767,396.89309 419.98304,396.98579 420.23405,396.80039 420.41942,396.89309 420.68158,397.02416 420.77902,397.38376 421.04118,397.51484 421.22655,397.60754 421.47756,397.42214 421.66293,397.51484 421.92508,397.64591 422.02253,398.00551 422.28468,398.13659 422.78208,398.38529 423.65253,397.88789 424.14994,398.13659 424.41209,398.26767 424.50953,398.62726 424.77169,398.75834 425.14243,398.94371 425.64445,398.57297 426.01519,398.75834 426.27735,398.88942 426.37479,399.24902 426.63694,399.38009 427.00769,399.56546 427.50971,399.19472 427.88045,399.38009 428.1426,399.51117 428.24005,399.87077 428.5022,400.00185 428.9996,400.25055 429.87006,399.75314 430.36746,400.00185 430.62961,400.13292 430.72706,400.49252 430.98921,400.6236 431.98401,401.121 433.72492,400.1262 434.71972,400.6236 434.98188,400.75467 435.13422,401.0381 435.34147,401.24535 435.75598,401.24535 436.19175,401.11427 436.58498,401.24535 436.86303,401.33805 436.92867,401.77442 437.20673,401.8671 438.13936,402.17798 439.38286,401.55623 440.31549,401.8671 440.59355,401.9598 440.67509,402.35778 440.93724,402.48885 441.93205,402.98626 443.67295,401.99145 444.66776,402.48885 446.20436,403.25715 444.45314,403.11061 445.91126,403.11061 446.83343,403.11061 450.23042,402.78318 450.88528,403.11061 451.14743,403.24168 451.24487,403.60128 451.50703,403.73236 452.55924,404.25846 455.26459,403.32687 456.48105,403.73236 456.92069,403.87891 457.2849,404.20756 457.72455,404.35411 458.37777,404.57185 459.51725,404.35411 460.21156,404.35411 460.56629,404.35411 463.91009,404.32211 463.94207,404.35411 464.08862,404.50066 463.79552,404.82931 463.94207,404.97586 464.51726,405.55105 471.44966,404.40067 472.02485,404.97586 472.1714,405.12241 471.8783,405.45107 472.02485,405.59761 472.60844,406.18121 473.58614,405.12785 473.8901,404.97586 475.07588,404.38297 478.3001,405.56875 479.48587,404.97586 479.74803,404.84479 479.84547,404.48519 480.10762,404.35411 480.60503,404.10541 481.47548,404.60281 481.97288,404.35411 482.23503,404.22303 482.33248,403.86344 482.59463,403.73236 483.09203,403.48366 483.96249,403.98106 484.45989,403.73236 484.72204,403.60128 484.80359,403.20329 485.08164,403.11061 485.67874,402.91157 486.97192,403.40897 487.56865,403.11061 487.8308,402.97953 487.91235,402.58154 488.1904,402.48885 488.78025,402.29224 489.49955,402.76691 490.05566,402.48885 490.31781,402.35778 490.41526,401.99818 490.67741,401.8671 490.86278,401.7744 491.11379,401.9598 491.29916,401.8671 491.56132,401.73603 491.65876,401.37643 491.92091,401.24535 492.10629,401.15265 492.3573,401.33805 492.54267,401.24535 493.26693,400.88322 493.68366,400.36398 494.40792,400.00185 494.77866,399.81648 495.35833,400.29494 495.65143,400.00185 495.79798,399.8553 495.50488,399.52664 495.65143,399.38009 495.94452,399.087 496.52419,399.56546 496.89493,399.38009 497.61919,399.01796 498.03593,398.49872 498.76019,398.13659 499.13093,397.95122 499.63295,398.32196 500.00369,398.13659 500.26585,398.00551 500.36329,397.64591 500.62544,397.51484 501.00084,397.32714 502.20329,397.80225 502.4907,397.51484 502.63725,397.36829 502.34415,397.03963 502.4907,396.89309 502.77811,396.60567 503.98056,397.08078 504.35596,396.89309 504.61811,396.76201 504.71555,396.40241 504.97771,396.27133 505.34845,396.08596 505.85047,396.4567 506.22121,396.27133 506.48337,396.14026 506.58081,395.78066 506.84296,395.64958 507.21371,395.46421 507.71573,395.83495 508.08647,395.64958 508.34862,395.5185 508.44607,395.15891 508.70822,395.02783 509.07896,394.84246 509.58098,395.2132 509.95173,395.02783 510.21388,394.89675 510.31132,394.53715 510.57348,394.40608 510.75885,394.31338 511.00986,394.49878 511.19523,394.40608 511.45738,394.275 511.55483,393.9154 511.81698,393.78432 512.00235,393.69162 512.25336,393.87702 512.43873,393.78432 512.70089,393.65325 512.79833,393.29365 513.06049,393.16257 513.24586,393.06987 513.49687,393.25527 513.68224,393.16257 513.94439,393.0315 514.04184,392.6719 514.30399,392.54082 514.48936,392.44812 514.74037,392.63352 514.92574,392.54082 515.1879,392.40974 515.28534,392.05015 515.54749,391.91907 515.73286,391.82637 516.0227,392.06562 516.16925,391.91907 516.31579,391.77252 516.0227,391.44386 516.16925,391.29732 516.46234,391.00422 517.11965,391.59041 517.41275,391.29732 517.5593,391.15077 517.2662,390.82211 517.41275,390.67556 517.70585,390.38247 518.36316,390.96866 518.65625,390.67556 518.8028,390.52902 518.50971,390.20036 518.65625,390.05381 518.8028,389.90726 519.13146,390.20036 519.27801,390.05381 519.42455,389.90726 519.13146,389.57861 519.27801,389.43206 519.42455,389.28551 519.71439,389.52476 519.89976,389.43206 520.16191,389.30098 520.25936,388.94138 520.52151,388.81031 521.17382,388.48416 523.13401,389.30657 523.63027,388.81031 523.77682,388.66376 523.48372,388.3351 523.63027,388.18856 523.66727,388.15156 527.56699,388.18856 527.98254,388.18856 528.39704,388.18856 528.93294,387.89546 529.22604,388.18856 529.37259,388.3351 529.07949,388.66376 529.22604,388.81031 529.62042,389.20469 531.19538,388.55148 531.71305,388.81031 531.9752,388.94138 532.07265,389.30098 532.3348,389.43206 532.52017,389.52476 532.77118,389.33936 532.95655,389.43206 533.21871,389.56314 533.31615,389.92274 533.5783,390.05381 533.76368,390.14651 534.01469,389.96111 534.20006,390.05381 534.72436,390.31597 535.18141,390.77301 535.44356,391.29732 535.53626,391.48269 535.29701,391.77252 535.44356,391.91907 535.59011,392.06562 535.91876,391.77252 536.06531,391.91907 536.21186,392.06562 535.91876,392.39427 536.06531,392.54082 536.21186,392.68737 536.54052,392.39427 536.68707,392.54082 536.83361,392.68737 536.54052,393.01602 536.68707,393.16257 536.83361,393.30912 537.16227,393.01602 537.30882,393.16257 537.45537,393.30912 537.10157,393.78432 537.30882,393.78432 537.77224,393.78432 537.10157,392.74807 536.68707,392.54082 536.03585,392.21521 534.31624,393.16257 535.44356,393.16257 535.73666,393.16257 535.85806,392.74807 536.06531,392.54082"
       inkscape:connector-curvature="0"
       id="path4420"
       style="fill:none;stroke:#0000e9;stroke-width:1;stroke-miterlimit:4;stroke-opacity:1;stroke-dasharray:none;stroke-dashoffset:0" />
    <path
       d="M 409.84964,389.43206 C 410.67864,389.22481 412.5439,389.63931 412.33665,388.81031 412.1294,387.98131 408.99512,389.43206 409.84964,389.43206 416.82336,389.43206 411.21891,389.36916 413.58015,388.18856 414.31885,387.81921 421.53195,388.18856 422.90643,388.18856 423.39327,388.18856 425.70495,387.87832 426.01519,388.18856 426.16174,388.3351 425.86864,388.66376 426.01519,388.81031 426.51145,389.30657 428.47165,388.48416 429.12395,388.81031 429.38611,388.94138 429.48355,389.30098 429.7457,389.43206 430.40891,389.76366 431.56951,389.10046 432.23271,389.43206 432.49487,389.56314 432.59231,389.92274 432.85447,390.05381 433.35187,390.30251 434.22232,389.80511 434.71972,390.05381 434.98188,390.18489 435.07932,390.54449 435.34147,390.67556 436.33628,391.17297 438.07718,390.17816 439.07199,390.67556 439.33414,390.80664 439.43158,391.16624 439.69374,391.29732 440.19114,391.54602 441.06159,391.04862 441.55899,391.29732 441.82115,391.42839 441.91859,391.78799 442.18075,391.91907 443.50715,392.58227 445.82836,391.25587 447.15476,391.91907 447.41692,392.05015 447.51436,392.40974 447.77652,392.54082 448.98614,393.14563 452.16925,391.9393 453.37228,392.54082 453.63444,392.6719 453.71598,393.06989 453.99404,393.16257 454.7128,393.40216 460.66467,393.42604 461.45506,393.16257 461.73312,393.06987 461.81466,392.6719 462.07681,392.54082 462.44756,392.35545 462.94958,392.72619 463.32032,392.54082 463.58247,392.40974 463.67992,392.05015 463.94207,391.91907 464.31281,391.7337 464.89248,392.21217 465.18557,391.91907 465.33212,391.77252 465.03903,391.44386 465.18557,391.29732 465.47299,391.0099 466.67543,391.48502 467.05083,391.29732 467.31298,391.16624 467.41043,390.80664 467.67258,390.67556 468.04332,390.49019 468.54535,390.86094 468.91609,390.67556 469.17824,390.54449 469.27569,390.18489 469.53784,390.05381 469.90858,389.86844 470.4106,390.23918 470.78134,390.05381 471.0435,389.92274 471.14094,389.56314 471.4031,389.43206 471.77849,389.24436 472.98094,389.71947 473.26835,389.43206 473.4149,389.28551 473.1218,388.95686 473.26835,388.81031 473.55577,388.52289 474.75821,388.99801 475.13361,388.81031 475.39576,388.67923 475.49321,388.31963 475.75536,388.18856 476.25276,387.93986 477.12321,388.43726 477.62062,388.18856 477.88277,388.05748 477.98021,387.69788 478.24237,387.5668 478.73977,387.3181 479.61022,387.8155 480.10762,387.5668 480.36978,387.43573 480.46722,387.07613 480.72938,386.94505 481.39258,386.61345 482.55318,387.27665 483.21639,386.94505 483.47854,386.81397 483.57598,386.45438 483.83814,386.3233 484.20888,386.13793 484.7109,386.50867 485.08164,386.3233 485.3438,386.19222 485.44124,385.83262 485.70339,385.70155 486.07413,385.51618 486.6538,385.99464 486.9469,385.70155 487.09345,385.555 486.80035,385.22634 486.9469,385.0798 487.23999,384.7867 487.81966,385.26517 488.1904,385.0798 488.45256,384.94872 488.55,384.58912 488.81215,384.45804 489.1829,384.27267 489.76256,384.75114 490.05566,384.45804 490.20221,384.3115 489.90911,383.98284 490.05566,383.83629 490.20221,383.68974 490.49204,383.92899 490.67741,383.83629 490.93956,383.70521 491.03701,383.34562 491.29916,383.21454 491.6699,383.02917 492.24957,383.50764 492.54267,383.21454 492.68921,383.06799 492.39612,382.73934 492.54267,382.59279 492.83576,382.29969 493.41543,382.77816 493.78617,382.59279 494.04832,382.46171 494.14577,382.10211 494.40792,381.97104 494.77866,381.78566 495.35833,382.26413 495.65143,381.97104 495.79798,381.82449 495.50488,381.49583 495.65143,381.34928 496.4826,380.51811 496.06376,382.18045 496.89493,381.34928 497.04148,381.20273 496.74838,380.87408 496.89493,380.72753 497.18803,380.43443 497.76769,380.9129 498.13844,380.72753 498.8627,380.3654 499.27943,379.84616 500.00369,379.48403 500.37443,379.29866 500.9541,379.77712 501.2472,379.48403 501.39374,379.33748 501.10065,379.00882 501.2472,378.86227 501.41178,378.69769 502.85644,378.86227 503.11245,378.86227 503.77325,378.86227 509.88504,378.79557 509.95173,378.86227 510.09827,379.00882 509.80518,379.33748 509.95173,379.48403 510.24482,379.77712 510.90213,379.19093 511.19523,379.48403 511.34178,379.63058 511.04868,379.95923 511.19523,380.10578 511.34178,380.25233 511.63161,380.01308 511.81698,380.10578 512.41787,380.40622 514.00355,381.9919 514.30399,382.59279 514.39669,382.77816 514.15744,383.06799 514.30399,383.21454 514.45054,383.36109 514.77919,383.06799 514.92574,383.21454 515.07229,383.36109 514.83304,383.65092 514.92574,383.83629 515.05682,384.09845 515.41642,384.19589 515.54749,384.45804 515.73286,384.82878 515.36212,385.33081 515.54749,385.70155 515.67857,385.9637 516.03817,386.06115 516.16925,386.3233 516.53868,387.06217 516.16925,390.87923 516.16925,391.91907 516.16925,392.33357 516.16925,392.74807 516.16925,393.16257 516.16925,393.36982 515.962,393.78432 516.16925,393.78432 517.08409,393.78432 516.791,392.16188 516.791,391.91907"
       inkscape:connector-curvature="0"
       id="path4422"
       style="fill:none;stroke:#0000e9;stroke-width:1;stroke-miterlimit:4;stroke-opacity:1;stroke-dasharray:none;stroke-dashoffset:0" />
    <path
       d="M 427.2587,302.38677 C 442.59135,301.69934 486.88308,312.72467 501.2472,367.67074"
       inkscape:connector-curvature="0"
       id="path4424"
       style="fill:none;stroke:#0000e9;stroke-width:1;stroke-miterlimit:4;stroke-opacity:1;stroke-dasharray:none;stroke-dashoffset:0" />
    <path
       d="M 419.79767,291.19523 C 380.41908,325.6188 378.92508,366.6152 429.74571,388.81031"
       inkscape:connector-curvature="0"
       id="path4426"
       style="fill:none;stroke:#0000e9;stroke-width:1;stroke-miterlimit:4;stroke-opacity:1;stroke-dasharray:none;stroke-dashoffset:0" />
    <path
       d="M 422.28468,304.87378 C 395.71707,382.07324 495.0983,370.13482 489.43391,337.82664"
       inkscape:connector-curvature="0"
       id="path4428"
       style="fill:none;stroke:#0000e9;stroke-width:1;stroke-miterlimit:4;stroke-opacity:1;stroke-dasharray:none;stroke-dashoffset:0" />
    <path
       d="M 430.36746,173.06234 C 430.16021,173.89134 428.91671,175.34209 429.74571,175.54935 430.57471,175.7566 430.9717,172.4581 430.36746,173.06234 428.60215,174.82765 429.66947,176.86909 429.12396,177.4146 428.97741,177.56115 428.64875,177.26805 428.50221,177.4146 428.20911,177.7077 428.68758,178.28736 428.50221,178.65811 428.24005,179.18241 427.52086,179.3773 427.2587,179.90161 427.166,180.08698 427.3514,180.33799 427.2587,180.52336 427.12763,180.78552 426.76803,180.88296 426.63695,181.14511 426.54425,181.33049 426.7835,181.62032 426.63695,181.76687 426.4904,181.91341 426.16175,181.62032 426.0152,181.76687 425.86865,181.91341 426.16175,182.24207 426.0152,182.38862 425.86865,182.53517 425.53999,182.24207 425.39345,182.38862 425.2469,182.53517 425.48615,182.825 425.39345,183.01037 425.26237,183.27252 424.90277,183.36997 424.77169,183.63212 424.67899,183.81749 424.91824,184.10733 424.77169,184.25387 424.62515,184.40042 424.29649,184.10733 424.14994,184.25387 424.00339,184.40042 424.24264,184.69026 424.14994,184.87563 423.88779,185.39993 423.16859,185.59482 422.90644,186.11913 422.81374,186.3045 422.99914,186.55551 422.90644,186.74088 421.61265,189.32847 422.94934,186.07621 421.66293,187.36264 421.36984,187.65573 421.95603,188.31304 421.66293,188.60614 421.51638,188.75269 421.18773,188.45959 421.04118,188.60614 420.89463,188.75269 421.18773,189.08134 421.04118,189.22789 420.89463,189.37444 420.62668,189.22789 420.41943,189.22789 420.41943,189.43514 420.56598,189.7031 420.41943,189.84964 420.27288,189.99619 419.94423,189.7031 419.79768,189.84964 419.65113,189.99619 419.94423,190.32485 419.79768,190.4714 419.65113,190.61794 419.38318,190.4714 419.17592,190.4714 419.17592,190.67865 419.32247,190.9466 419.17592,191.09315 419.02938,191.2397 418.70072,190.9466 418.55417,191.09315 418.40762,191.2397 418.70072,191.56835 418.55417,191.7149 418.40762,191.86145 418.07897,191.56835 417.93242,191.7149 417.78587,191.86145 418.07897,192.1901 417.93242,192.33665 417.78587,192.4832 417.45722,192.1901 417.31067,192.33665 417.16412,192.4832 417.40337,192.77303 417.31067,192.9584 416.68892,194.20191 414.82366,194.82366 414.20191,196.06716 414.10921,196.25254 414.34846,196.54237 414.20191,196.68892 414.05536,196.83546 413.7267,196.54237 413.58016,196.68892 413.43361,196.83546 413.7267,197.16412 413.58016,197.31067 413.43361,197.45722 413.10495,197.16412 412.9584,197.31067 412.81186,197.45722 413.10495,197.78587 412.9584,197.93242 412.81186,198.07897 412.4832,197.78587 412.33665,197.93242 412.1901,198.07897 412.4832,198.40762 412.33665,198.55417 412.1901,198.70072 411.86145,198.40762 411.7149,198.55417 411.56835,198.70072 411.86145,199.02938 411.7149,199.17592 411.56835,199.32247 411.2397,199.02938 411.09315,199.17592 410.9466,199.32247 411.2397,199.65113 411.09315,199.79768 410.9466,199.94423 410.61794,199.65113 410.4714,199.79768 410.32485,199.94423 410.61794,200.27288 410.4714,200.41943 410.32485,200.56598 409.99619,200.27288 409.84964,200.41943 409.7031,200.56598 409.99619,200.89463 409.84964,201.04118 408.19164,201.04118 410.05689,200.83393 409.22789,201.66293 409.08134,201.80948 408.75269,201.51638 408.60614,201.66293 408.45959,201.80948 408.75269,202.13814 408.60614,202.28469 408.45959,202.43123 408.16976,202.19199 407.98439,202.28469 407.46008,202.54684 407.26519,203.26604 406.74088,203.52819 406.55551,203.62089 406.26568,203.38164 406.11913,203.52819 406.11913,205.18619 406.32638,203.32094 405.49738,204.14994 405.35083,204.29649 405.64393,204.62515 405.49738,204.77169 405.35083,204.91824 405.02218,204.62515 404.87563,204.77169 404.72908,204.91824 405.02218,205.2469 404.87563,205.39345 404.58253,205.68654 403.92522,205.10035 403.63212,205.39345 403.48557,205.53999 403.77867,205.86865 403.63212,206.0152 403.33903,206.30829 402.68172,205.7221 402.38862,206.0152 402.24207,206.16175 402.53517,206.4904 402.38862,206.63695 402.24207,206.7835 401.91341,206.4904 401.76687,206.63695 401.62032,206.7835 401.91341,207.11215 401.76687,207.2587 401.62032,207.40525 401.29166,207.11215 401.14511,207.2587 400.99857,207.40525 401.29166,207.73391 401.14511,207.88045 400.99857,208.027 400.70873,207.78775 400.52336,207.88045 400.26121,208.01153 400.16376,208.37113 399.90161,208.50221 399.71624,208.59491 399.42641,208.35566 399.27986,208.50221 399.13331,208.64875 399.42641,208.97741 399.27986,209.12396 399.13331,209.27051 398.80465,208.97741 398.65811,209.12396 398.51156,209.27051 398.80465,209.59916 398.65811,209.74571 398.51156,209.89226 398.22172,209.65301 398.03635,209.74571 397.7742,209.87679 397.67676,210.23639 397.4146,210.36746 397.22923,210.46016 396.9394,210.22091 396.79285,210.36746 396.6463,210.51401 396.9394,210.84267 396.79285,210.98921 396.6463,211.13576 396.35647,210.89651 396.1711,210.98921 394.10901,213.05131 396.75729,210.69612 394.92759,211.61097 394.40329,211.87312 394.2084,212.59232 393.68409,212.85447 393.49872,212.94717 393.24771,212.76177 393.06234,212.85447 392.80018,212.98555 392.70274,213.34515 392.44059,213.47622 392.06984,213.66159 391.49018,213.18313 391.19708,213.47622 391.05053,213.62277 391.34363,213.95143 391.19708,214.09797 390.90398,214.39107 390.32432,213.9126 389.95358,214.09797 389.69142,214.22905 389.59398,214.58865 389.33182,214.71973 388.96489,214.90319 387.88447,214.71973 387.46657,214.71973 386.929,214.71973 381.92136,214.77033 381.8708,214.71973 381.72425,214.57318 382.01735,214.24452 381.8708,214.09797 381.55992,213.7871 380.31642,214.40885 380.00554,214.09797 379.859,213.95143 379.79829,213.47622 380.00554,213.47622 380.29864,213.47622 380.42004,213.89072 380.6273,214.09797"
       inkscape:connector-curvature="0"
       id="path4430"
       style="fill:none;stroke:#0000e9;stroke-width:1;stroke-miterlimit:4;stroke-opacity:1;stroke-dasharray:none;stroke-dashoffset:0" />
    <path
       d="M 428.96752,172.97439 C 430.59816,174.89977 427.96262,177.7484 427.23827,179.69708 422.35753,187.41475 416.137,194.36658 409.32404,200.38977 407.93582,200.62225 408.26117,202.7808 406.70102,203.18765 399.89033,207.21954 393.92253,215.04868 385.27,214.10717 382.88203,213.56094 385.74864,211.64453 387.05754,211.9699 398.17388,207.90488 406.08681,198.62626 413.6763,190.092 416.98658,185.36706 420.84271,181.16388 423.70205,176.12201 424.92392,174.41307 426.83166,173.08824 428.96752,172.97439 z"
       inkscape:connector-curvature="0"
       id="path4432"
       style="fill:#b46a9f;stroke:none" />
    <path
       d="M 424.98442,76.719393 C 430.52229,76.902517 435.89751,78.452481 441.3637,79.264691 442.15044,84.614535 440.94192,90.594752 440.90246,96.178546 439.3178,120.92243 438.12483,145.7561 436.03995,170.42909 434.12847,172.08163 430.92451,170.93559 428.71493,170.81769 410.12704,146.56446 391.53276,122.31613 372.93211,98.072692 374.68393,92.2587 381.55146,89.941912 385.9889,86.356551 388.19982,84.895542 390.67904,84.325431 392.59502,82.4706 401.77073,76.717609 412.92183,77.446586 423.31346,76.699964 423.87066,76.693464 424.4275,76.701964 424.98442,76.719394 z"
       inkscape:connector-curvature="0"
       id="path4438"
       style="fill:#b1daa9;stroke:none" />
    <path
       d="M 548.46491,260.95957 C 551.83326,261.23676 550.18017,265.54893 551.69025,267.56568 555.93026,277.82303 557.41183,289.61035 553.29676,300.17508 551.2384,306.98576 548.98226,314.34719 543.99607,319.5597 540.96546,321.32112 537.93964,325.14667 533.93145,323.63995 532.36454,321.4782 534.58677,318.29082 534.6115,315.84862 539.159,299.3614 543.9054,282.79667 545.31729,265.70043 545.66036,263.91464 545.5984,260.26915 548.46491,260.95957 z"
       inkscape:connector-curvature="0"
       id="path4448"
       style="fill:#c7afc8;stroke:none" />
    <path
       d="M 423.84248,224.82023 C 425.35631,227.35434 424.14416,231.1597 424.64845,234.10758 425.25614,251.95648 423.85777,269.86571 425.31914,287.67548 425.65691,293.27867 427.75004,299.03137 426.81523,304.63765 425.22892,306.76517 422.97048,303.19898 422.6184,301.72319 417.49803,288.41292 420.44082,273.2072 413.71958,260.39611 410.03479,253.26713 407.52089,245.48505 403.30523,238.79022 404.46732,236.10637 408.62177,237.17438 410.12507,234.86541 413.23285,232.79389 416.60693,230.94208 419.76223,229.15306 420.30121,227.51321 421.88084,225.12646 423.84248,224.82023 z"
       inkscape:connector-curvature="0"
       id="path4450"
       style="fill:#a7b0c5;stroke:none" />
    <path
       d="M 404.41272,387.91357 C 406.9963,387.66436 408.67931,389.50229 410.99941,389.91484 413.35319,392.17767 415.08146,395.15814 418.38272,396.19065 433.4291,403.0304 450.32791,403.32501 466.52654,404.9247 478.36458,406.37245 489.92023,402.75427 500.62886,398.07533 505.48329,396.61044 510.19166,394.69801 514.92916,392.94588 515.78699,393.25208 516.87023,394.44073 516.96928,392.65443 520.07315,387.30016 527.44224,388.34451 532.53251,389.54567 534.37106,389.8697 535.43138,391.76852 535.01952,393.29561 537.42013,394.53646 534.88675,397.86678 534.18404,399.53256 528.69445,408.80053 521.65984,417.31769 512.55873,423.23686 506.80006,428.70056 499.22376,431.63298 491.39973,432.71858 484.74705,434.43194 477.73748,436.51771 470.95963,434.05923 466.76707,432.72638 462.27019,433.06551 458.34972,430.89218 442.51022,429.71153 426.39348,426.32646 412.43721,418.47657 405.87949,413.81332 403.75035,405.43046 397.96205,400.11546 395.29168,396.3776 398.83937,391.92608 400.99309,388.8462 401.83413,387.84214 403.22119,387.87734 404.41272,387.91357 z"
       inkscape:connector-curvature="0"
       id="path4454"
       style="fill:#c7a1db;stroke:none" />
    <path
       d="M 505.13656,378.99532 C 506.87511,379.52818 508.36407,380.64761 510.40202,380.25825 515.07242,381.35298 516.47859,387.59676 515.9395,391.64408 507.90626,395.90996 498.97539,397.73508 490.71273,401.47786 482.50738,404.41673 473.72474,405.85053 465.01737,404.53329 449.36164,403.00223 432.9688,402.46641 418.47986,395.82148 416.55674,394.35387 413.07812,392.77479 413.19497,390.03141 414.2876,389.66451 414.09033,388.24786 415.62369,388.4576 428.58045,387.60126 440.93564,392.71375 453.8322,392.95284 458.46606,394.04859 462.86722,392.98784 467.19825,391.27716 476.67689,388.25187 486.47498,386.33546 495.47997,382.08465 498.5869,380.84072 501.61338,378.80764 505.13656,378.99532 z"
       inkscape:connector-curvature="0"
       id="path4456"
       style="fill:#aac7db;stroke:none" />
    <path
       d="M 419.47078,292.59121 C 421.11642,294.39216 420.26542,297.5232 421.47205,299.74135 421.34164,301.65283 423.94938,303.27683 422.85156,305.04568 419.67985,308.75818 419.76595,314.29171 418.66317,318.94341 416.97958,330.47835 417.51621,343.88857 426.44606,352.4737 435.17551,361.38187 448.51531,364.06493 460.58414,362.28573 472.34668,361.21628 484.85318,355.5287 489.78706,344.19663 491.51736,342.16701 492.70426,346.21692 493.40099,347.2471 497.40395,355.84242 501.15742,364.99338 501.44491,374.48761 501.5861,376.04129 504.34425,378.08519 501.63921,378.83988 490.2317,384.28768 478.04549,387.7162 465.99809,391.23838 456.94192,394.90174 447.06896,391.69555 437.81143,390.59554 426.32755,388.92813 416.47139,381.85021 407.56034,374.83735 397.89666,366.71743 390.58633,354.64633 391.55023,341.61247 391.09869,327.00212 399.19259,313.76918 408.41765,303.08255 411.95658,299.5614 414.9883,295.01643 419.31534,292.55235 L 419.47078,292.59125 z"
       inkscape:connector-curvature="0"
       id="path4460"
       style="fill:#95c990;stroke:none" />
    <path
       d="M 514.92916,344.02176 C 519.14277,344.15574 522.4775,348.51618 520.52493,352.53199 518.3917,361.47347 513.88194,369.71785 510.32431,378.06269 505.61947,380.77052 500.42426,374.90667 501.42548,370.19364 501.33058,360.35806 505.64008,350.44332 513.31649,344.23549 513.82673,344.03005 514.37721,343.90544 514.92916,344.02176 z"
       inkscape:connector-curvature="0"
       id="path4462"
       style="fill:#7c797c;stroke:none" />
    <path
       d="M 544.94812,320.10374 C 547.89412,321.19546 545.50346,325.37794 544.88982,327.35103 540.84226,337.45493 530.82615,343.24332 522.77876,349.73411 520.54952,349.69631 521.23179,345.90063 518.97053,345.26526 517.41437,344.35046 513.51621,343.43047 516.11824,341.30937 520.00437,336.57097 524.11198,331.96567 526.95615,326.51555 528.21083,324.79308 530.61363,325.47994 532.31877,324.41714 536.65454,324.35744 541.02116,323.47447 544.19034,320.25917 544.43028,320.18947 544.69116,320.03262 544.9481,320.10374 z"
       inkscape:connector-curvature="0"
       id="path4464"
       style="fill:#c9ca98;stroke:none" />
    <path
       d="M 368.81401,294.30399 C 367.985,294.51124 366.11975,294.09674 366.327,294.92575 366.53425,295.75475 369.41824,293.69976 368.81401,294.30399 368.02482,295.09318 366.66228,294.97328 365.70525,295.5475 365.52753,295.65413 365.85179,296.0227 365.70525,296.16925 365.5587,296.3158 365.23004,296.0227 365.08349,296.16925 364.7904,296.46235 365.37659,297.11966 365.08349,297.41275 364.93695,297.5593 364.60829,297.26621 364.46174,297.41275 364.31519,297.5593 364.60829,297.88796 364.46174,298.03451 364.31519,298.18105 363.98654,297.88796 363.83999,298.03451 363.69344,298.18105 363.98654,298.50971 363.83999,298.65626 363.69344,298.80281 363.36479,298.50971 363.21824,298.65626 362.92514,298.94935 363.40361,299.52902 363.21824,299.89976 363.08716,300.16192 362.72756,300.25936 362.59649,300.52151 362.26488,301.18472 362.92809,302.34532 362.59649,303.00852 362.46541,303.27068 362.10581,303.36812 361.97473,303.63027 361.89153,303.79672 361.89153,310.3031 361.97473,310.46955 362.10581,310.7317 362.46541,310.82915 362.59649,311.0913 362.64679,311.19187 362.64679,315.34299 362.59649,315.44356 362.46541,315.70572 362.10581,315.80316 361.97473,316.06532 361.66522,316.68435 362.29643,320.09588 361.97473,320.41758 361.82818,320.56413 361.49953,320.27103 361.35298,320.41758 360.93848,320.83208 361.76748,322.49009 361.35298,322.90459 361.20643,323.05114 360.87778,322.75804 360.73123,322.90459 360.42035,323.21547 361.0421,324.45897 360.73123,324.76985 360.58468,324.91639 360.25603,324.6233 360.10948,324.76985 359.7986,325.08072 360.42035,326.32423 360.10948,326.6351 359.96293,326.78165 359.63427,326.48855 359.48772,326.6351 359.17685,326.94598 359.7986,328.18948 359.48772,328.50036 359.34118,328.64691 359.01252,328.35381 358.86597,328.50036 358.45147,328.91486 359.28047,330.57287 358.86597,330.98737 358.71942,331.13391 358.39077,330.84082 358.24422,330.98737 357.95112,331.28046 358.53732,331.93777 358.24422,332.23087 358.09767,332.37742 357.76902,332.08432 357.62247,332.23087 357.31159,332.54175 357.93334,333.78525 357.62247,334.09613 357.47592,334.24268 357.14726,333.94958 357.00072,334.09613 356.48259,334.61425 357.51884,336.68676 357.00072,337.20489 356.85417,337.35144 356.52551,337.05834 356.37896,337.20489 356.06809,337.51576 356.68984,338.75927 356.37896,339.07014 356.23242,339.21669 355.90376,338.9236 355.75721,339.07014 355.46412,339.36324 355.94258,339.94291 355.75721,340.31365 355.62614,340.5758 355.26654,340.67325 355.13546,340.9354 354.95009,341.30614 355.32083,341.80816 355.13546,342.1789 355.00438,342.44106 354.64478,342.5385 354.51371,342.80066 354.32834,343.1714 354.69908,343.67342 354.51371,344.04416 354.38263,344.30631 354.02303,344.40376 353.89196,344.66591 353.70659,345.03665 354.07733,345.53868 353.89196,345.90942 353.76088,346.17157 353.40128,346.26901 353.2702,346.53117 353.1775,346.71654 353.41675,347.00637 353.2702,347.15292 353.12366,347.29947 352.795,347.00637 352.64845,347.15292 352.33758,347.4638 352.95933,348.7073 352.64845,349.01818 352.5019,349.16473 352.17325,348.87163 352.0267,349.01818 351.60931,349.43557 352.44409,349.84429 352.0267,350.26168 351.88015,350.40823 351.5515,350.11513 351.40495,350.26168 351.11185,350.55478 351.69804,351.21209 351.40495,351.50519 351.2584,351.65173 350.92974,351.35864 350.7832,351.50519 350.4901,351.79828 350.96857,352.37795 350.7832,352.74869 350.65212,353.01084 350.29252,353.10829 350.16144,353.37044 350.06874,353.55581 350.30799,353.84565 350.16144,353.99219 350.0149,354.13874 349.68624,353.84565 349.53969,353.99219 349.24659,354.28529 349.83279,354.9426 349.53969,355.2357 349.39314,355.38225 349.06449,355.08915 348.91794,355.2357 348.62484,355.52879 349.10331,356.10846 348.91794,356.4792 348.78686,356.74136 348.42726,356.8388 348.29619,357.10095 348.20349,357.28632 348.44274,357.57616 348.29619,357.72271 348.14964,357.86925 347.82098,357.57616 347.67444,357.72271 347.38134,358.0158 347.96753,358.67311 347.67444,358.96621 347.52789,359.11276 347.19923,358.81966 347.05268,358.96621 346.75959,359.25931 347.23805,359.83897 347.05268,360.20971 346.92161,360.47187 346.56201,360.56931 346.43093,360.83147 346.24556,361.20221 346.72403,361.78187 346.43093,362.07497 346.28438,362.22152 345.95573,361.92842 345.80918,362.07497 345.4983,362.38585 346.12005,363.62935 345.80918,363.94023 345.66263,364.08678 345.33398,363.79368 345.18743,363.94023 344.89433,364.23332 345.3728,364.81299 345.18743,365.18373 345.05635,365.44588 344.69675,365.54333 344.56567,365.80548 344.3803,366.17622 344.85877,366.75589 344.56567,367.04899 344.41913,367.19554 344.09047,366.90244 343.94392,367.04899 343.54954,367.44337 344.20275,369.01833 343.94392,369.536 343.81285,369.79815 343.45325,369.89559 343.32217,370.15775 343.1387,370.52468 343.32217,371.60511 343.32217,372.023 343.32217,372.43855 343.28517,376.33824 343.32217,376.37527 343.46872,376.52182 343.79737,376.22872 343.94392,376.37527 344.2548,376.68614 343.63305,377.92965 343.94392,378.24052 344.09047,378.38707 344.41913,378.09398 344.56567,378.24052 346.22801,379.90286 342.90334,377.82169 344.56567,379.48403 344.71222,379.63058 345.04088,379.33748 345.18743,379.48403 345.48052,379.77713 345.00206,380.35679 345.18743,380.72753 345.3185,380.98969 345.6781,381.08713 345.80918,381.34929 345.90188,381.53466 345.66263,381.82449 345.80918,381.97104 345.95573,382.11759 346.28438,381.82449 346.43093,381.97104 346.72403,382.26413 346.13783,382.92144 346.43093,383.21454 346.57748,383.36109 346.90613,383.06799 347.05268,383.21454 347.19923,383.36109 346.90613,383.68975 347.05268,383.83629 347.36356,384.14717 348.60706,383.52542 348.91794,383.83629 349.06449,383.98284 348.77139,384.3115 348.91794,384.45805 349.22882,384.76892 350.47232,384.14717 350.7832,384.45805 350.92974,384.60459 350.63665,384.93325 350.7832,385.0798 351.07629,385.37289 351.7336,384.7867 352.0267,385.0798 352.17325,385.22635 352.0267,385.4943 352.0267,385.70155 352.23395,385.70155 352.46308,385.60885 352.64845,385.70155 352.91061,385.83263 353.00805,386.19223 353.2702,386.3233 353.45557,386.416 353.74541,386.17675 353.89196,386.3233 354.0385,386.46985 353.74541,386.79851 353.89196,386.94505 354.0385,387.0916 354.32834,386.85235 354.51371,386.94505 354.77586,387.07613 354.87331,387.43573 355.13546,387.56681 355.32083,387.65951 355.61066,387.42026 355.75721,387.56681 355.90376,387.71335 355.61066,388.04201 355.75721,388.18856 355.81941,388.25076 357.56029,388.25076 357.62247,388.18856 357.76902,388.04201 357.47592,387.71335 357.62247,387.56681 357.76902,387.42026 358.05885,387.65951 358.24422,387.56681 360.8318,386.27301 357.57955,387.60971 358.86597,386.3233 359.01252,386.17675 359.34118,386.46985 359.48772,386.3233 359.63427,386.17675 359.39502,385.88692 359.48772,385.70155 359.6188,385.4394 359.9784,385.34195 360.10948,385.0798 360.20218,384.89443 359.96293,384.60459 360.10948,384.45805 360.25603,384.3115 360.58468,384.60459 360.73123,384.45805 360.87778,384.3115 360.58468,383.98284 360.73123,383.83629 360.87778,383.68975 361.20643,383.98284 361.35298,383.83629 361.49953,383.68975 361.20643,383.36109 361.35298,383.21454 361.49953,383.06799 361.82818,383.36109 361.97473,383.21454 362.12128,383.06799 361.82818,382.73934 361.97473,382.59279 362.12128,382.44624 362.44994,382.73934 362.59649,382.59279 362.74303,382.44624 362.44994,382.11759 362.59649,381.97104 362.74303,381.82449 363.07169,382.11759 363.21824,381.97104 363.36479,381.82449 363.07169,381.49583 363.21824,381.34929 363.36479,381.20274 363.69344,381.49583 363.83999,381.34929 363.98654,381.20274 363.69344,380.87408 363.83999,380.72753 364.13309,380.43444 364.7904,381.02063 365.08349,380.72753 365.23004,380.58098 364.93695,380.25233 365.08349,380.10578 365.23004,379.95923 365.51987,380.19848 365.70525,380.10578 365.9674,379.9747 366.06484,379.61511 366.327,379.48403 366.69774,379.29866 367.27741,379.77713 367.5705,379.48403 367.71705,379.33748 367.42395,379.00883 367.5705,378.86228 367.71705,378.71573 367.985,378.86228 368.19225,378.86228 368.3995,378.86228 368.66746,378.71573 368.81401,378.86228 368.89191,378.94018 368.54358,380.37621 369.43576,379.48403 370.3161,378.60369 368.9582,378.93438 368.81401,378.86228 368.55185,378.7312 368.45441,378.3716 368.19225,378.24052 367.6759,377.98235 366.29469,378.24052 365.70525,378.24052"
       inkscape:connector-curvature="0"
       id="path4466"
       style="fill:none;stroke:#0000e9;stroke-width:1;stroke-miterlimit:4;stroke-opacity:1;stroke-dasharray:none;stroke-dashoffset:0" />
    <path
       d="M 368.72027,294.8062 C 371.02529,295.85417 373.47332,297.43662 374.04402,300.16881 377.78589,311.59983 379.83002,323.50744 381.52448,335.37552 383.61148,346.86118 391.63631,356.27258 393.19429,367.94579 394.71164,373.42072 395.33509,380.64168 389.85984,384.1442 385.75177,386.01631 380.74843,385.02499 376.3173,385.11569 373.171,384.72466 371.57572,381.63872 370.08035,379.32562 368.84465,378.28171 366.07963,377.18995 365.74752,379.55878 361.88229,381.40253 359.91052,385.74473 356.67382,388.04958 353.88615,385.61079 350.03257,384.7814 347.09495,382.72583 343.48981,378.00831 342.33808,371.54148 345.03772,366.08701 349.22064,354.82143 355.46214,344.33567 358.24133,332.53461 360.69707,325.46324 362.91514,318.28005 362.32788,310.69973 362.33918,305.65287 361.84434,299.8602 366.05839,296.20514 366.74995,295.45914 367.6416,294.70691 368.72027,294.8062 z"
       inkscape:connector-curvature="0"
       id="path4468"
       style="fill:#6ea26f;stroke:none" />
    <path
       d="M 548.63978,322.43531 C 563.23035,331.01941 577.48464,341.3281 594.14426,345.40127 597.00416,345.58212 594.63656,349.19344 593.48365,350.10327 588.97366,356.12667 583.48453,361.11959 577.22094,365.23905 575.8853,366.80454 575.32651,368.99619 573.16013,369.88276 565.29597,374.53675 555.71646,374.63512 547.76544,379.18961 543.84323,381.52873 538.57012,382.82774 535.97158,386.65064 536.47847,389.03411 533.94722,390.22992 532.0662,389.0405 527.2338,387.60337 521.7,387.89026 517.33845,390.43944 515.234,389.50084 516.94766,386.22921 515.53148,384.59108 514.45112,381.66911 510.03016,379.70376 511.87869,376.10028 514.4934,368.85894 518.69508,362.24464 520.38892,354.68869 522.88911,348.76963 529.50331,346.50537 533.61697,341.98685 538.81559,337.724 543.83492,332.90662 545.84189,326.26297 546.68126,325.10576 547.00218,322.63554 548.63978,322.43531 z"
       inkscape:connector-curvature="0"
       id="path4470"
       style="fill:#d5be93;stroke:none" />
    <path
       d="M 468.7291,200.0473 C 474.0957,200.1101 478.62332,203.3738 483.94259,204.08868 491.38352,205.29602 498.21008,208.85256 503.72208,213.90071 508.58043,217.69163 513.58236,220.98295 517.76979,225.59742 519.44546,227.55291 521.81911,228.37376 522.86039,230.74631 527.04359,235.2784 529.94666,240.7974 531.00145,247.02844 536.06231,267.81455 532.95427,289.39418 528.98679,310.07127 527.83326,318.62145 527.15586,327.97395 520.82026,334.48175 515.24946,340.78126 508.93109,346.64735 504.55756,353.81436 503.32048,356.27693 502.78482,359.70274 500.47731,361.33367 497.70632,358.5177 497.24708,353.85784 495.18416,350.44738 493.27768,346.5021 491.15386,342.21204 489.61608,338.30942 486.48191,336.38169 485.18417,332.22561 482.30138,329.82387 470.48297,315.56992 453.39732,305.54596 435.07676,302.75297 431.97882,302.06527 426.65418,303.54106 427.50975,298.58691 423.31745,277.10785 426.3704,255.17137 424.96863,233.48743 424.06705,229.16111 425.79675,225.10531 426.2168,220.99257 426.35515,217.44417 428.41539,214.16365 429.67529,210.90853 433.47797,205.75826 440.07051,203.79285 446.00191,202.22916 453.47255,200.74511 461.10045,199.90605 468.7291,200.0473 z"
       inkscape:connector-curvature="0"
       id="path4472"
       style="fill:#d0cf6e;stroke:none" />
    <path
       d="M 556.69924,261.62795 C 580.18757,262.58305 603.70529,263.52368 627.15152,265.04759 628.34266,267.64601 626.40192,271.0782 626.27215,273.90001 623.60767,289.71189 615.91269,304.00177 610.46137,318.90686 606.1553,327.58945 602.54871,336.91359 596.74396,344.67072 593.38416,345.82926 589.78254,343.19688 586.52391,342.4363 573.11046,336.98316 560.34449,329.64469 548.69418,321.06357 547.74093,320.17436 547.08747,318.98764 547.17866,317.83823 549.44721,312.46472 552.34496,307.31297 553.58623,301.5587 557.55493,291.02577 556.97066,279.1952 552.755,268.85582 552.33064,266.78033 549.82645,262.79059 552.89101,261.7251 554.10918,261.50389 555.43025,261.59162 556.69924,261.628 z"
       inkscape:connector-curvature="0"
       id="path4474"
       style="fill:#cda392;stroke:none" />
    <path
       d="M 457.96765,322.81916 C 455.33492,321.16382 452.08547,318.46381 448.96604,318.25595 442.74095,317.84114 437.68928,322.76179 443.67918,333.59047 456.05969,346.75911 466.55353,331.67027 457.96765,322.81916 z"
       inkscape:connector-curvature="0"
       id="path8910"
       style="fill:none;stroke:#0000e9;stroke-width:1;stroke-linecap:round;stroke-miterlimit:4;stroke-opacity:1;stroke-dasharray:none;stroke-dashoffset:0" />
    <path
       d="M 448.81043,318.51554 C 451.93446,318.49794 454.41967,320.7791 456.90845,322.36841 459.79064,324.24902 461.1776,327.93145 460.90067,331.27898 460.47125,334.41361 458.43222,337.32554 455.33641,338.29957 451.30354,339.49704 447.22391,336.96421 444.55824,334.11607 441.88994,330.93381 440.43589,326.38091 441.63185,322.31434 442.65422,319.74063 445.45143,318.24049 448.17157,318.50867 448.38453,318.51067 448.59748,318.51367 448.81043,318.51567 z"
       inkscape:connector-curvature="0"
       id="path8912"
       style="fill:#bfb879;stroke:none" />
    <path
       d="M 430.9842,302.64022 C 441.86504,303.32235 452.37851,307.23523 461.78683,312.60093 473.12148,319.28934 482.78559,328.93423 489.58266,340.20349 489.64866,345.52814 486.53802,350.34821 482.49674,353.59726 475.27556,359.50127 465.85215,362.05107 456.67597,362.62683 449.35283,362.78328 441.86578,361.85063 435.27194,358.50334 427.39704,354.93918 421.43172,347.66801 419.25741,339.32534 417.61108,334.31908 418.19132,328.98606 418.16072,323.80519 418.48417,317.97296 420.1909,312.31012 421.79973,306.72755 422.04146,305.93132 422.45265,304.37265 423.59953,305.02393 424.65631,305.24966 425.11401,306.5702 426.29236,306.30164 426.81534,306.34774 427.21564,306.4076 427.12356,305.80704 427.92219,304.909 426.80477,303.07697 427.96164,302.50284 428.96915,302.54864 429.97668,302.59444 430.9842,302.64022 z M 448.83791,318.22015 C 445.95887,317.91021 442.66684,319.17052 441.52881,321.99835 440.1206,325.80068 441.62061,329.91915 443.44539,333.31234 445.25854,335.64219 447.83649,337.46648 450.61023,338.45069 453.18993,339.06824 456.14929,338.95482 458.18037,337.02185 462.72895,333.11607 461.81984,324.99379 456.77447,321.92429 454.36229,320.37802 451.81769,318.27556 448.83791,318.22015 z"
       inkscape:connector-curvature="0"
       id="path8914"
       style="fill:#8a7294;stroke:none" />
    <path
       d="M 369.37462,145.83725 C 386.60154,155.27714 403.6346,165.07475 420.67193,174.85314 421.32567,175.35985 423.18389,175.81324 422.39107,176.94686 419.1653,181.35438 416.42299,186.13917 412.95439,190.36727 408.57711,195.26759 403.8189,199.86598 398.98577,204.31397 394.27256,208.27477 388.46288,210.56276 382.89736,213.04162 382.02872,213.3067 380.98637,214.0155 380.13433,213.42172 379.5104,213.43892 380.27357,214.34475 379.48378,214.48892 376.61757,215.63294 373.58162,216.5636 370.5076,216.87915 368.98714,216.53971 369.67859,214.46554 369.52081,213.37786 369.40494,212.0498 369.59941,210.65206 370.72689,209.79616 371.03651,209.18143 371.31025,208.59453 371.75023,208.10764 372.41358,207.96853 372.69136,207.08897 372.75896,206.43375 372.96703,205.04986 372.69666,203.70523 372.17419,202.45733 372.12319,201.7011 372.17719,201.02764 371.53825,200.55684 371.41726,199.38864 370.43488,198.60815 370.15674,197.45757 368.96504,194.95723 369.68163,192.08662 369.40453,189.41092 369.15144,175.04281 368.7725,160.67454 368.6802,146.30506 368.7413,145.96307 369.03347,145.7316 369.37462,145.83725 z"
       inkscape:connector-curvature="0"
       id="path2322"
       style="fill:#6a72bc;stroke:none" />
    <path
       d="M 372.03677,98.010597 C 373.55263,98.706843 374.21962,100.53711 375.36018,101.69083 393.14203,124.86454 410.92244,148.05361 428.59107,171.30386 428.90186,172.58064 427.04519,172.91274 426.35777,173.59828 425.21239,174.14675 424.44481,175.5899 423.15273,175.69692 405.02161,165.58898 386.96874,155.3356 368.95943,145.01857 368.35394,143.51494 368.74349,141.69301 368.53498,140.07776 368.19429,127.83341 367.89348,115.56979 367.75335,103.33198 368.74354,101.41753 369.80338,99.31456 371.6055,98.061764 371.74089,98.003434 371.89187,97.992764 372.03677,98.010594 z"
       inkscape:connector-curvature="0"
       id="path2324"
       style="fill:#746bdb;stroke:none" />
    <path
       d="M 442.94782,79.550637 C 471.36085,85.951465 498.35208,97.356759 524.63646,109.68087 525.66091,110.39676 527.3977,110.62982 527.89257,111.85172 525.91585,115.45061 523.38068,118.79164 521.16956,122.27613 508.12081,141.76887 495.03442,161.23819 481.63335,180.49029 480.71404,181.86203 479.69252,183.29238 479.03527,184.72102 477.44766,184.68992 476.07833,183.44077 474.59342,182.92817 466.76185,179.36278 458.9742,175.68137 451.02492,172.4336 446.56675,170.82323 441.68005,171.37655 437.02705,170.97168 436.4064,169.67017 437.08315,167.97181 436.97585,166.52014 438.7256,137.6781 440.45345,108.83442 442.26799,79.996522 442.36459,79.660155 442.61375,79.500469 442.94778,79.550637 z"
       inkscape:connector-curvature="0"
       id="path5889"
       style="fill:#dbc198;stroke:none" />
    <path
       d="M 529.00947,111.93943 C 535.96134,114.84957 542.6649,118.35902 549.4915,121.56328 552.06809,122.86951 554.76328,123.98014 557.22449,125.47679 557.57586,126.58013 556.06933,127.33885 555.63427,128.27682 538.45162,150.14569 521.19031,171.95392 504.19341,193.96765 503.1205,195.03318 502.40761,196.67388 501.02836,197.33737 494.15063,193.65452 487.49329,189.43085 480.59075,185.81746 479.79878,185.52237 478.61338,184.58701 479.58933,183.77077 489.21929,170.35619 498.31841,156.59711 507.61881,142.9442 514.55406,132.68197 521.41804,122.3688 528.39547,112.13679 528.52802,111.93292 528.79177,111.89841 529.00947,111.93943 z"
       inkscape:connector-curvature="0"
       id="path5891"
       style="fill:#736cd4;stroke:none" />
    <path
       d="M 558.43788,125.91537 C 573.29517,133.26405 587.98501,141.77482 599.23271,154.145 608.54061,164.10685 615.16171,176.15123 620.91411,188.41789 623.63061,194.151 626.36238,200.00529 627.19189,206.36472 626.53424,207.51742 624.65085,207.34984 623.51089,207.97347 596.58425,216.70213 569.66432,225.45491 542.72226,234.13385 541.57478,233.99765 541.3973,232.37646 540.7706,231.5828 538.80418,227.66637 535.887,224.3899 533.129,221.02459 527.05548,212.50505 517.70162,207.40886 508.95188,202.03226 506.71673,200.60852 504.18198,199.53709 502.16135,197.83442 502.16335,196.54231 503.63978,195.64693 504.20168,194.52572 521.8084,171.50379 539.86998,148.8177 557.81657,126.05425 558.03148,125.98645 558.18738,125.74085 558.43788,125.91537 z"
       inkscape:connector-curvature="0"
       id="path5897"
       style="fill:#bf9784;stroke:none" />
    <path
       d="M 627.08812,207.0955 C 627.75115,207.33938 627.61143,208.21901 627.78525,208.77038 629.44828,218.44693 629.79762,228.29045 629.8128,238.09196 629.7661,244.35915 629.62813,250.62807 629.47232,256.89176 629.04567,259.2355 628.70894,261.59931 628.25365,263.93527 627.94135,264.64394 627.04126,264.29264 626.45503,264.3349 599.9173,263.16818 573.38009,261.98685 546.84466,260.76946 546.34792,260.82616 545.78348,260.4788 545.98683,259.92087 546.42854,255.88118 546.5976,251.77468 546.25285,247.72118 545.90156,245.15443 545.12927,242.65777 544.36371,240.19819 543.79521,238.40604 543.07606,236.65739 542.39027,234.91351 542.29697,234.18859 543.25596,234.22423 543.7248,233.99546 571.42889,225.0286 599.1304,216.05246 626.83744,207.0955 626.92154,207.0785 627.00398,207.0814 627.08812,207.0955 z"
       inkscape:connector-curvature="0"
       id="path5997"
       style="fill:#e19179;stroke:none" />
  </g>
</svg>
