<?xml version="1.0" encoding="UTF-8" standalone="no"?>
<!-- Created with Inkscape (http://www.inkscape.org/) -->

<svg
   xmlns:dc="http://purl.org/dc/elements/1.1/"
   xmlns:cc="http://creativecommons.org/ns#"
   xmlns:rdf="http://www.w3.org/1999/02/22-rdf-syntax-ns#"
   xmlns:svg="http://www.w3.org/2000/svg"
   xmlns="http://www.w3.org/2000/svg"
   xmlns:xlink="http://www.w3.org/1999/xlink"
   xmlns:inkscape="http://www.inkscape.org/namespaces/inkscape"
   version="1.1"
   width="740"
   height="520"
   id="svg2"
   style="display:inline;enable-background:new">
  <defs
     id="defs4">
    <filter
       color-interpolation-filters="sRGB"
       id="filter3050">
      <feBlend
         in2="BackgroundImage"
         mode="lighten"
         id="feBlend3052" />
    </filter>
  </defs>
  <metadata
     id="metadata7">
    <rdf:RDF>
      <cc:Work
         rdf:about="">
        <dc:format>image/svg+xml</dc:format>
        <dc:type
           rdf:resource="http://purl.org/dc/dcmitype/StillImage" />
        <dc:title />
      </cc:Work>
    </rdf:RDF>
  </metadata>
  <g
     id="g4820"
     style="display:none">
    <image
       xlink:href="pngs/coronal-0459.png"
       id="image4822"
       height="520"
       width="740"
       y="0"
       x="0" />
  </g>
  <g
     id="g4828"
     style="display:inline">
    <path
       d="M 370.0575,111.50887 C 366.01596,171.58555 368.92575,236.87573 371.30101,301.76501"
       inkscape:connector-curvature="0"
       id="path4830"
       style="fill:none;stroke:#0000e9;stroke-width:1;stroke-miterlimit:4;stroke-opacity:1;stroke-dasharray:none;stroke-dashoffset:0" />
    <path
       d="M 368.814,112.13063 C 377.643,98.632311 391.01324,87.416781 407.69145,86.083688 426.54008,83.327046 445.12255,84.490159 463.27241,90.355909 486.61956,95.650659 507.48119,107.73496 528.41382,118.81361 543.9514,129.3753 557.95753,142.01571 572.96052,153.29169 595.1038,171.61409 610.56932,198.38813 611.71373,227.49076 612.07755,249.816 608.65909,272.55564 598.33697,292.56951 589.17384,312.12103 576.65763,329.86504 565.59179,348.33021 553.82257,365.24943 533.44942,371.17574 516.70935,381.36497 499.95084,394.33086 483.56375,411.28451 460.82983,411.688 442.81848,412.16222 423.24775,415.53738 407.12694,405.05964 391.49364,396.87948 378.82544,381.95589 377.63361,363.79852 372.63232,346.92882 374.51618,329.47 374.57257,312.28908 376.12859,309.19966 370.8875,302.58439 370.63507,299.12714"
       inkscape:connector-curvature="0"
       id="path4832"
       style="fill:none;stroke:#0000e9;stroke-width:1;stroke-miterlimit:4;stroke-opacity:1;stroke-dasharray:none;stroke-dashoffset:0" />
    <path
       d="M 450.88528,314.20006 C 451.74812,314.97591 450.0819,313.34216 447.99728,313.63392 446.42284,314.59767 452.87166,314.04199 453.46735,313.7896 455.43896,313.38231 457.40326,312.74063 459.44051,312.96664 461.77003,312.98424 464.10064,312.83155 466.42908,312.95664 467.52741,314.01949 468.88681,314.8092 470.13095,315.66477 472.11905,316.69738 474.41336,317.93035 475.14306,320.19789 475.57023,322.43493 473.01356,323.20085 472.09213,324.70043 471.12866,326.29218 469.43818,327.23188 468.22153,328.57362 467.05539,330.67088 465.36955,332.51748 464.74171,334.87565 463.69528,337.44717 461.81505,339.642 461.1589,342.37525 460.56327,344.61785 457.95818,344.34095 456.85587,342.70163 455.49512,341.04881 454.27054,339.29379 452.76298,337.7723 450.97108,336.15733 449.59564,334.14444 448.3245,332.10881 448.6332,329.87792 447.03043,328.08009 446.52521,326.04027 446.38985,324.17747 446.47761,322.29611 446.35347,320.43907 446.56853,318.81922 447.82294,317.39245 447.51089,315.70025 446.30503,314.02822 448.79474,313.45821 449.98078,313.92523"
       inkscape:connector-curvature="0"
       id="path4834"
       style="fill:none;stroke:#0000e9;stroke-width:1;stroke-miterlimit:4;stroke-opacity:1;stroke-dasharray:none;stroke-dashoffset:0" />
    <path
       d="M 437.20673,183.63212 C 443.51701,184.13366 450.28426,181.54902 456.13138,185.11489 463.3843,188.58518 471.12934,191.03326 477.96564,195.36296 483.37605,199.66222 488.99594,205.11715 489.14173,212.5323 489.47125,219.07666 490.39744,225.57431 491.60476,232.00765 492.9987,237.98993 497.51033,245.14048 493.20446,250.86323 489.80877,254.75968 485.70326,258.06364 482.35382,261.9101 477.70365,267.81342 474.67205,275.56986 476.85852,283.08184 478.71929,288.34567 478.08841,293.89513 478.50445,299.33828 480.18187,307.63924 469.43615,303.86217 470.07663,297.73401 467.05393,293.55026 463.94103,288.79802 459.22115,286.50989 454.18708,283.86071 449.11641,280.42163 443.12425,281.21405 436.89705,281.70562 429.92358,280.96575 426.53245,274.94961 423.12165,272.07645 416.54787,273.33676 416.24026,267.06838 415.55843,261.03246 415.77495,254.88035 416.76546,248.85483 417.49726,241.45275 418.69339,234.10773 419.93022,226.77603 419.42366,220.3855 422.66287,214.4886 423.29955,208.20502 425.23045,201.05991 427.33738,193.27612 433.39381,188.45639 434.87415,187.02376 436.22014,185.45019 437.20673,183.63212 z"
       inkscape:connector-curvature="0"
       id="path4836"
       style="fill:none;stroke:#0000e9;stroke-width:1;stroke-miterlimit:4;stroke-opacity:1;stroke-dasharray:none;stroke-dashoffset:0" />
    <path
       d="M 440.31549,182.38861 453.37228,86.63879"
       inkscape:connector-curvature="0"
       id="path4838"
       style="fill:none;stroke:#0000e9;stroke-width:1;stroke-miterlimit:4;stroke-opacity:1;stroke-dasharray:none;stroke-dashoffset:0" />
    <path
       d="M 434.71973,187.98439 375.65327,102.80434"
       inkscape:connector-curvature="0"
       id="path4840"
       style="fill:none;stroke:#0000e9;stroke-width:1;stroke-miterlimit:4;stroke-opacity:1;stroke-dasharray:none;stroke-dashoffset:0" />
    <path
       d="M 428.5022,193.58015 C 408.61411,175.51744 390.2775,151.24878 368.814,139.48772"
       inkscape:connector-curvature="0"
       id="path4842"
       style="fill:none;stroke:#0000e9;stroke-width:1;stroke-miterlimit:4;stroke-opacity:1;stroke-dasharray:none;stroke-dashoffset:0" />
    <path
       d="M 421.66293,219.07199 369.43575,213.47622"
       inkscape:connector-curvature="0"
       id="path4844"
       style="fill:none;stroke:#0000e9;stroke-width:1;stroke-miterlimit:4;stroke-opacity:1;stroke-dasharray:none;stroke-dashoffset:0" />
    <path
       d="M 416.68891,247.05083 368.19225,243.32032"
       inkscape:connector-curvature="0"
       id="path4846"
       style="fill:none;stroke:#0000e9;stroke-width:1;stroke-miterlimit:4;stroke-opacity:1;stroke-dasharray:none;stroke-dashoffset:0" />
    <path
       d="M 482.59463,199.79767 C 505.59461,179.06775 522.40708,152.15033 542.28283,128.29618"
       inkscape:connector-curvature="0"
       id="path4848"
       style="fill:none;stroke:#0000e9;stroke-width:1;stroke-miterlimit:4;stroke-opacity:1;stroke-dasharray:none;stroke-dashoffset:0" />
    <path
       d="M 486.9469,206.63694 554.407,139.17684"
       inkscape:connector-curvature="0"
       id="path4850"
       style="fill:none;stroke:#0000e9;stroke-width:1;stroke-miterlimit:4;stroke-opacity:1;stroke-dasharray:none;stroke-dashoffset:0" />
    <path
       d="M 495.65143,243.32032 609.43206,243.94207"
       inkscape:connector-curvature="0"
       id="path4852"
       style="fill:none;stroke:#0000e9;stroke-width:1;stroke-miterlimit:4;stroke-opacity:1;stroke-dasharray:none;stroke-dashoffset:0" />
    <path
       d="M 419.79767,273.16442 C 419.21505,272.74 416.78305,273.75606 418.32602,273.75299 420.16052,273.30788 417.39278,274.0153 416.91696,274.33465 415.50393,275.07043 414.6108,276.48681 414.14367,277.96446 413.49902,279.643 413.08933,281.40098 412.41303,283.06995 411.61863,285.77406 410.2175,288.42831 410.47378,291.32358 409.59266,293.16109 409.03984,295.14766 408.06026,296.93655 407.49848,298.31845 408.51411,299.83969 407.7251,301.15527 406.90093,302.53323 407.00502,304.48136 407.97279,305.75083 409.15184,306.22708 410.20227,304.7377 411.00297,303.98272 412.1213,302.47791 413.21713,300.93934 414.69884,299.75887 416.19186,298.67095 416.61052,296.79749 417.80291,295.4688 418.99035,294.23594 419.68146,292.69993 420.92738,291.50114 421.30616,290.54365 420.98798,289.57681 422.39763,289.85996 422.86003,288.88305 423.94915,288.22349 424.51369,287.22376 425.22611,286.16946 426.17289,285.31446 427.2444,284.63906 428.8951,283.53493 429.14048,281.58449 429.38472,279.82524 429.90486,278.8776 430.17212,277.52745 429.1011,277.07015 L 429.124,276.89498"
       inkscape:connector-curvature="0"
       id="path4854"
       style="fill:none;stroke:#0000e9;stroke-width:1;stroke-miterlimit:4;stroke-opacity:1;stroke-dasharray:none;stroke-dashoffset:0" />
    <path
       d="M 375.15131,273.48646 C 376.387,271.29005 379.35659,272.08252 381.22462,272.90047 384.02102,273.93428 387.05469,273.09698 389.67986,271.96736 392.57464,271.19141 395.17135,273.27169 397.20288,275.06091 398.90711,276.97997 398.82401,279.72554 399.27218,282.11058 399.4859,284.60643 399.43899,287.17781 398.8559,289.61582 398.05899,291.72293 396.41189,293.32244 395.14335,295.13811 392.67362,296.82584 391.15466,299.47309 389.20009,301.66869 386.58891,303.32712 385.04437,306.08514 382.7844,308.12532 381.48201,309.47953 380.25282,311.00755 378.42094,311.6594 377.06879,312.2887 375.55907,312.74011 374.44106,313.76056"
       inkscape:connector-curvature="0"
       id="path4856"
       style="fill:none;stroke:#0000e9;stroke-width:1;stroke-miterlimit:4;stroke-opacity:1;stroke-dasharray:none;stroke-dashoffset:0" />
    <path
       d="M 477.62062,303.00852 C 531.36981,303.47902 548.19444,319.15374 575.85745,330.36561"
       inkscape:connector-curvature="0"
       id="path4858"
       style="fill:none;stroke:#0000e9;stroke-width:1;stroke-miterlimit:4;stroke-opacity:1;stroke-dasharray:none;stroke-dashoffset:0" />
    <path
       d="M 495.65143,244.56382 C 495.31623,247.94391 499.47947,244.43486 500.1366,247.09962 502.64638,247.26124 503.47017,249.10437 504.37308,250.5332 506.00014,251.73546 505.7672,253.12388 506.97697,254.62588 507.41359,256.31342 507.90867,258.74436 507.4829,261.07458 506.61107,263.42613 504.98208,264.40764 504.23098,266.26689 503.27181,268.50553 500.7598,268.95966 499.77633,270.65794 497.94231,271.45938 497.03856,272.9528 495.74894,273.86973 494.65107,275.73185 492.68162,274.9973 491.6786,276.94803 490.57566,277.71868 489.80523,278.85279 488.67474,279.78938 487.99177,280.4126 487.80191,281.91241 487.06054,281.24856 486.20349,282.55708 485.04745,283.32668 484.08784,284.42256 482.97277,285.43188 481.93426,286.54662 481.67011,287.26984 480.28545,287.83315 480.09254,289.55552 478.8645,290.34627 477.82579,290.60414 477.99449,293.0631 477.04501,292.20936 477.36526,291.78956 477.82164,291.50161 478.24237,291.19523"
       inkscape:connector-curvature="0"
       id="path4860"
       style="fill:none;stroke:#0000e9;stroke-width:1;stroke-miterlimit:4;stroke-opacity:1;stroke-dasharray:none;stroke-dashoffset:0" />
    <path
       d="M 503.7342,265.08164 C 548.65786,280.45384 562.15403,305.25429 574.61394,330.36561"
       inkscape:connector-curvature="0"
       id="path4862"
       style="fill:none;stroke:#0000e9;stroke-width:1;stroke-miterlimit:4;stroke-opacity:1;stroke-dasharray:none;stroke-dashoffset:0" />
    <path
       d="M 527.98254,309.8478 C 527.46545,313.08775 529.02908,317.28547 527.2278,319.8307 527.85871,323.14838 526.03309,325.76077 523.65481,328.10858 522.51911,329.23198 521.31103,329.85756 520.51979,330.95639 517.56674,331.88878 515.43623,333.72472 512.84159,334.47113 510.23017,336.73577 506.13329,336.64269 503.0815,338.43865 500.80492,340.14501 498.3544,340.81854 496.08138,341.93573 493.24563,342.70853 491.15783,345.77948 488.30633,347.31448 486.32365,348.58517 484.30866,350.09974 483.40658,352.46642 482.04227,354.84021 484.20649,358.93502 484.35476,359.61457 484.71551,360.21912 485.51642,361.75835 486.32034,361.63428 487.35121,362.85114 490.45597,365.27629 491.29916,365.80548 491.89395,365.68279 494.03365,367.58948 495.69265,367.18735 495.89383,368.98609 496.64582,366.34939 497.19758,368.29599 499.5268,370.77008 501.93276,372.78824 503.98778,375.38533 506.12462,378.27416 507.94507,380.20673 509.33688,382.73495 509.8482,384.03883 512.25194,387.19104 509.95173,385.0798"
       inkscape:connector-curvature="0"
       id="path4864"
       style="fill:none;stroke:#0000e9;stroke-width:1;stroke-miterlimit:4;stroke-opacity:1;stroke-dasharray:none;stroke-dashoffset:0" />
    <path
       d="M 385.60131,388.18856 C 387.72014,388.56251 388.14866,384.7947 386.25168,387.54095 389.85492,385.74738 390.31684,381.27503 393.79849,379.1814 396.95419,376.95243 403.10125,375.78432 404.22878,380.84069 404.54274,385.73216 409.23962,388.05491 413.33542,389.43273 419.18061,391.92979 425.60987,391.32346 431.77806,391.51755 436.89823,390.76332 442.08074,390.97239 447.17354,390.14599 451.90355,389.17784 456.78824,389.24178 461.36719,387.52299 466.72718,386.99817 471.58855,384.51884 476.81296,383.37939 482.30276,382.53716 487.93322,380.89747 492.40978,377.53641 494.85137,375.14844 497.88172,372.14602 500.35621,370.62538 500.01031,372.0122 500.05704,371.09967 500.00374,370.7795"
       inkscape:connector-curvature="0"
       id="path4866"
       style="fill:none;stroke:#0000e9;stroke-width:1;stroke-miterlimit:4;stroke-opacity:1;stroke-dasharray:none;stroke-dashoffset:0" />
    <path
       d="M 401.14511,380.10578 C 405.12955,377.34519 410.22393,379.97206 414.46515,377.97455 418.70968,378.13068 422.73058,379.9497 427.02568,380.08711 431.11476,380.23637 435.09509,380.14971 439.12028,380.34879 443.76764,379.62167 448.44462,378.44058 452.66814,376.38758 457.10428,373.84829 462.47384,374.16111 467.15338,372.24584 471.25648,370.80938 474.94349,368.37472 479.24443,367.46898 482.53486,365.82144 486.22643,365.15652 489.35561,367.62652 492.81868,368.95767 494.90317,372.74382 495.16421,376.32995"
       inkscape:connector-curvature="0"
       id="path4868"
       style="fill:none;stroke:#0000e9;stroke-width:1;stroke-miterlimit:4;stroke-opacity:1;stroke-dasharray:none;stroke-dashoffset:0" />
    <path
       d="M 434.00962,84.277567 C 440.09836,85.109063 446.43289,86.31389 451.98214,88.979567 453.50869,91.558982 451.36271,95.060096 451.57109,97.923955 447.96124,126.19509 443.57385,154.37909 440.51858,182.68926 440.61168,185.44861 437.44976,181.44375 436.88522,183.62189 436.43041,185.08357 434.36425,187.35817 433.31014,185.0014 414.6397,158.77651 395.98414,132.45642 378.3628,105.53372 377.2023,103.99347 376.11263,101.72575 378.4017,100.52084 383.73689,95.335768 390.52559,91.655563 397.11256,88.338386 406.82008,85.942295 416.92083,86.875312 426.65917,84.754614 429.08274,84.401831 431.54914,84.167272 434.00966,84.277567 z"
       inkscape:connector-curvature="0"
       id="path4870"
       style="fill:#b1daa9;stroke:none" />
    <path
       d="M 455.75151,89.154435 C 461.84439,90.189297 468.07911,91.222663 473.68517,93.837006 483.22331,96.901007 492.82664,100.20886 501.59751,105.22614 511.86066,110.30919 522.3082,115.14772 531.89671,121.38839 535.26531,123.14427 538.24837,125.73591 540.77611,128.42197 540.08796,132.29012 536.19191,134.94488 534.19878,138.2212 517.77425,158.79459 502.90847,181.00095 483.22518,198.62166 479.32416,197.0603 476.10111,193.55326 472.14565,191.91725 466.06925,189.12572 459.79868,186.60156 453.69196,183.73847 449.60986,181.93719 444.58135,184.14137 440.69345,182.20352 442.3455,167.55469 444.71432,152.80902 446.55353,138.11517 448.9268,121.87832 450.64719,105.43182 453.67253,89.348733 454.27548,88.952426 455.08032,89.162802 455.75151,89.154435 z"
       inkscape:connector-curvature="0"
       id="path4872"
       style="fill:#dbc198;stroke:none" />
    <path
       d="M 376.03123,104.09591 C 395.58864,131.47752 414.52237,159.31168 433.75703,186.92495 432.80278,189.25319 430.45758,191.15898 428.647,192.98703 425.12062,190.97973 422.46902,187.04713 419.28186,184.34079 404.46579,170.04744 391.05536,154.14697 373.99111,142.52797 370.57774,140.83933 367.28162,138.86498 368.96972,134.53211 369.78765,126.84827 369.23126,118.85108 370.86292,111.34321 372.69365,109.09997 373.24701,105.55718 375.6815,103.94048 L 376.03123,104.09591 z"
       inkscape:connector-curvature="0"
       id="path4874"
       style="fill:#746bdb;stroke:none" />
    <path
       d="M 369.872,140.721 C 383.53747,147.72504 393.64416,159.88026 404.71668,170.29585 412.41952,178.2035 420.66006,185.72012 427.79209,194.09453 424.9071,201.30732 422.69505,208.89622 421.28313,216.65247 420.82586,220.04143 416.26611,217.85381 414.20904,218.06923 399.27041,216.46141 384.32868,214.88272 369.38626,213.31055 367.78289,206.79775 368.53926,199.50319 368.27876,192.67616 368.44922,175.45979 368.0325,158.09806 369.09481,140.97359 369.33162,140.74842 369.5547,140.63936 369.872,140.721 z"
       inkscape:connector-curvature="0"
       id="path4876"
       style="fill:#a76986;stroke:none" />
    <path
       d="M 370.84349,213.89345 C 386.99793,215.56979 403.27258,217.15273 419.34015,219.06176 420.84209,222.30754 419.14902,226.40334 419.0787,229.87808 417.92526,235.3638 417.85981,241.28602 416.51286,246.51027 401.05963,245.97941 385.48925,244.41691 370.08573,243.19351 368.69705,239.69995 369.71485,235.28418 369.18154,231.47894 369.36172,225.77474 368.08716,219.7662 369.36683,214.20432 369.70786,213.74541 370.34802,213.79599 370.84349,213.89345 z"
       inkscape:connector-curvature="0"
       id="path4878"
       style="fill:#bc777a;stroke:none" />
    <path
       d="M 391.30302,272.49358 C 396.47041,272.63556 399.22788,278.25238 398.88062,282.86907 399.85543,287.96491 397.58381,292.84901 393.71553,296.11301 388.336,301.20592 383.98187,307.71197 377.54675,311.50852 374.55016,312.4947 374.29132,307.7732 373.31107,306.0099 372.18461,304.52946 373.25787,302.44578 374.3797,302.12395 371.94365,302.51365 370.03014,298.64065 372.30072,297.46081 373.83316,297.32997 372.84807,294.11662 373.37279,292.99341 374.03838,286.77471 374.10871,280.05117 376.82785,274.35884 380.53193,272.3609 385.23986,274.24117 389.18518,272.70731 389.8749,272.55112 390.59385,272.44949 391.30302,272.49358 z"
       inkscape:connector-curvature="0"
       id="path4880"
       style="fill:none;stroke:none" />
    <path
       d="M 499.97363,372.40137 C 504.42908,375.87413 507.83848,380.88581 510.44626,385.92448 506.67625,390.13742 500.96935,392.8724 496.52084,396.61197 490.65953,401.64471 483.8895,405.87532 476.48305,408.2104 473.68715,409.04594 470.98083,410.2378 467.99225,410.38654 463.49112,412.60704 457.89732,410.96971 453.01209,411.41002 449.21131,411.39942 445.15577,411.03312 441.72323,412.3878 439.61066,412.3634 437.32881,411.65705 435.50571,412.79582 426.65751,411.0107 416.55247,411.48977 409.08124,405.54853 405.66291,400.79622 398.69808,401.6726 395.28797,396.72277 392.88174,393.91394 388.87342,391.82436 387.74737,388.23662 389.50949,384.15117 392.68489,379.98953 396.93765,378.30801 398.71957,377.61327 402.16501,377.73579 401.96995,379.60981 404.73617,379.76466 403.78888,383.99949 405.75876,385.4193 413.07276,391.56859 423.10157,392.03223 432.25987,391.43005 447.61351,391.09047 462.73732,388.5374 477.35693,383.78661 483.22942,382.63249 489.01429,380.77918 493.87268,377.23938 494.97679,376.85553 496.00594,377.65319 495.48535,376.05416 495.95965,374.15896 498.22274,372.80865 499.97363,372.40137 z"
       inkscape:connector-curvature="0"
       id="path4886"
       style="fill:none;stroke:none" />
    <path
       d="M 486.02306,366.78617 C 489.34336,367.11161 492.15195,370.03404 493.58124,372.90654 495.49681,376.78236 490.04668,378.44899 487.57744,379.92068 481.39176,382.78139 474.47276,383.19963 468.24484,385.73018 466.45921,385.74238 465.28877,387.47252 463.30968,386.62395 461.87396,387.62791 459.93187,387.61764 458.25795,388.06175 454.59895,388.90047 450.78525,389.03588 447.18299,389.98529 442.85249,390.31971 438.46221,390.25148 434.33992,391.28709 424.60062,391.21329 413.17348,391.72368 405.70047,384.40896 404.03889,382.99128 403.44491,379.18647 406.55538,379.31836 412.76316,377.94813 419.08296,378.70197 425.18851,379.97897 435.02697,381.32123 445.36035,380.76012 454.22216,376.04784 460.57745,373.93936 467.43837,373.33388 473.33544,369.93379 475.55607,369.01284 477.75207,368.64978 479.70839,367.40792 481.76355,366.88242 483.90395,366.70458 486.02306,366.78617 z"
       inkscape:connector-curvature="0"
       id="path4888"
       style="fill:none;stroke:none" />
    <path
       d="M 422.41005,273.27077 C 425.37777,274.00653 428.17446,276.71248 429.13275,279.56601 428.15402,285.55062 421.67643,288.51251 418.87384,293.57486 415.84977,297.71826 412.90587,302.20946 408.73151,305.25214 406.56473,304.69441 408.02386,301.24471 408.03204,299.63695 408.63133,295.61199 410.86824,292.18424 411.12137,288.19282 412.72629,283.8133 413.35777,278.56184 416.50341,275.01945 418.216,273.85308 420.35212,273.26829 422.41005,273.27077 z"
       inkscape:connector-curvature="0"
       id="path4890"
       style="fill:#a7b0c5;stroke:none" />
    <path
       d="M 534.90832,312.46058 C 548.7116,317.59305 561.8389,324.37168 575.24449,330.4331 576.10856,332.85391 573.08319,335.26389 572.36888,337.4861 564.10038,351.22552 552.57918,363.66785 537.4804,369.88154 528.76775,374.82032 518.46852,377.5633 511.55376,385.12786 509.51996,384.56635 509.31987,381.08097 507.60952,379.72639 504.97166,376.42889 502.29762,372.92378 499.81819,369.66177 497.36943,368.97248 495.98894,366.2115 493.21207,366.16442 488.21356,363.83604 482.04503,358.95711 483.71092,352.73846 486.76144,348.11762 492.04902,345.23629 496.61228,342.24639 505.35931,337.52646 515.20668,335.061 523.36705,329.24789 527.84469,325.43083 528.21086,319.18849 527.95136,313.66561 526.7243,307.34449 531.94426,312.13959 534.90832,312.46058 z"
       inkscape:connector-curvature="0"
       id="path4892"
       style="fill:#d5be93;stroke:none" />
    <path
       d="M 463.17367,313.37378 C 467.83993,313.70235 471.93455,316.91862 474.79267,320.38792 474.54997,323.33434 470.76244,324.74472 469.48853,327.30468 465.11667,332.01379 463.41512,338.48548 459.46259,343.41218 456.61609,343.44838 455.28937,339.58859 453.22564,338.08843 450.33226,335.29629 448.38642,331.82553 447.47443,327.94609 445.79282,323.77899 447.13992,318.90933 447.74645,314.67557 449.09293,313.40573 452.17257,314.96891 450.89407,316.91 452.65864,314.61776 455.19535,313.23985 458.21799,313.53113 459.86705,313.42064 461.52027,313.31265 463.17367,313.37378 z"
       inkscape:connector-curvature="0"
       id="path4894"
       style="fill:none;stroke:none" />
    <path
       d="M 398.65811,276.27318 421.66293,271.92092"
       inkscape:connector-curvature="0"
       id="path4896"
       style="fill:#bfb879;fill-opacity:1;stroke:#0000e9;stroke-width:1;stroke-miterlimit:4;stroke-opacity:1;stroke-dasharray:none;stroke-dashoffset:0" />
    <path
       d="M 370.05751,275.65143 378.14029,272.54267"
       inkscape:connector-curvature="0"
       id="path4898"
       style="fill:#bfb879;fill-opacity:1;stroke:#0000e9;stroke-width:1;stroke-miterlimit:4;stroke-opacity:1;stroke-dasharray:none;stroke-dashoffset:0" />
    <path
       d="M 373.54423,243.87356 C 387.51012,245.25844 401.69361,245.62896 415.55135,247.39034 417.67829,249.37005 415.37522,252.89968 415.8428,255.45369 415.62649,260.97461 415.66622,266.65348 417.66919,271.79411 415.16612,273.68537 411.05119,273.29775 408.01705,274.34875 403.8733,275.04954 398.6041,277.12677 395.32498,273.40678 392.83524,271.10667 389.40964,271.28255 386.63988,272.80446 384.2905,273.64855 381.7585,273.27988 379.70346,272.35757 376.67214,272.48664 373.93444,274.29161 371.03779,275.00002 369.43998,264.87394 369.93841,254.32239 369.3474,244.02899 370.24898,242.85173 372.28078,244.06629 373.54423,243.87356 z"
       inkscape:connector-curvature="0"
       id="path4900"
       style="fill:#68b88b;stroke:none" />
    <path
       d="M 466.43821,313.17945 C 468.7597,315.20734 471.65791,316.33609 473.9053,318.42772 474.82233,319.45136 475.64588,321.24689 474.2213,322.24714 470.79961,326.07313 466.61955,329.45038 464.74832,334.36485 463.22656,337.20521 462.00716,340.16959 460.57169,343.04784 459.75213,344.36496 457.9509,343.77312 457.17818,342.72498 454.79936,339.84337 452.23107,337.20238 449.94465,334.2412 448.94111,333.0663 448.43202,331.63178 448.1998,330.16075 447.45696,327.99692 446.44622,325.87195 446.55606,323.51898 446.29706,321.48876 446.58176,319.46739 447.3686,317.58278 447.76825,316.52747 447.25531,315.37364 447.55408,314.32665 449.59566,314.05143 451.75546,314.34595 453.80853,313.81982 457.88892,312.83167 462.1845,313.0436 466.34402,313.14734 L 466.43822,313.17944 z"
       inkscape:connector-curvature="0"
       id="path4902"
       style="fill:#bfb879;stroke:none" />
    <path
       d="M 391.12562,271.98333 C 393.63843,272.27704 395.92025,273.8979 397.54857,275.77527 399.39346,279.35179 399.18833,283.58844 399.05241,287.50784 398.88319,290.578 396.62091,292.98736 394.72522,295.20896 391.83434,297.86629 389.61487,301.14852 386.70309,303.81966 384.10224,306.19762 382.01101,309.15739 379.08347,311.1461 377.91853,311.71729 376.76333,312.38648 375.51822,312.74668 374.38762,312.23467 375.1132,310.63463 374.75571,309.67603 374.14809,306.67369 372.31408,304.06004 371.38842,301.17867 371.14501,292.7337 370.60073,284.28202 370.65465,275.8371 371.75336,274.80841 373.49081,274.62076 374.82984,273.92957 376.17147,273.51068 377.42426,272.72855 378.73313,272.33368 381.02898,272.77658 383.29784,273.93707 385.67472,273.26363 387.56864,273.12547 389.22733,271.95643 391.12562,271.98333 z"
       inkscape:connector-curvature="0"
       id="path4904"
       style="fill:#c6bdae;stroke:none" />
    <path
       d="M 499.82101,371.64279 C 501.77323,372.55344 502.92559,374.61388 504.36191,376.14199 506.44687,378.93272 508.83269,381.63083 510.19389,384.86649 510.27859,385.65858 510.14959,386.46687 509.36955,386.94793 503.11767,392.21192 496.69631,397.34137 489.84563,401.82003 481.46173,407.08846 471.97086,411.18941 461.93162,411.45701 449.06272,412.04858 436.02957,413.42647 423.24471,411.21526 414.86971,409.79419 407.42293,405.42791 400.45908,400.77467 395.58531,397.36385 390.93647,393.35392 387.51229,388.47295 386.85169,386.90075 388.8076,385.95524 389.37391,384.73597 391.0085,382.11425 392.87921,379.3766 395.90677,378.2512 397.9065,377.45821 400.55629,376.89451 402.42588,378.2649 402.99044,379.09038 401.72036,379.45439 401.42981,379.87235 402.11113,379.94915 403.2566,378.87406 403.77916,379.96855 404.39026,381.87392 404.62551,384.04397 406.21775,385.44521 409.03418,388.27363 413.0255,389.63227 416.78304,390.6643 422.24549,391.45402 427.83533,391.84032 433.34395,391.45749 439.74046,390.91799 446.14456,390.55447 452.48458,389.4704 457.11806,389.00446 461.54525,387.66553 466.07825,386.67314 471.12515,385.17277 476.14653,383.51317 481.34903,382.57244 485.9648,381.56 490.35877,379.41707 493.96136,376.42392 494.40059,375.93682 495.41803,376.16996 495.23908,375.34541 496.19229,373.8558 497.72811,372.71297 499.18902,371.75956 499.38469,371.66416 499.60376,371.61775 499.82101,371.64278 z"
       inkscape:connector-curvature="0"
       id="path4906"
       style="fill:#c7a1db;stroke:none" />
    <path
       d="M 485.38142,366.21592 C 487.74683,366.50397 489.86085,367.89324 491.68758,369.35526 493.13158,370.7289 494.45882,372.60596 494.57962,374.62413 494.05979,376.29885 492.2913,377.22162 491.01437,378.27868 485.83577,381.84881 479.44137,382.53634 473.53848,384.1658 469.20116,385.55476 464.77278,386.86188 460.29477,387.77414 454.42923,389.14577 448.40563,389.83825 442.4284,390.53794 438.57331,390.74261 434.74651,391.2297 430.90665,391.3878 424.76225,391.3186 418.36598,391.52901 412.62702,389.00877 409.36849,387.77493 405.67495,385.94526 404.69967,382.28357 404.52205,381.25999 403.70122,380.00806 404.23222,379.11504 407.65552,378.68118 411.33086,379.27746 414.64664,378.14129 419.04248,378.39865 423.2613,380.19114 427.69836,380.13692 432.62442,380.13892 437.64858,380.8842 442.50228,379.83804 446.81687,378.98439 450.87693,377.30853 454.90166,375.57122 459.86086,373.86828 465.24643,373.54955 469.96919,371.19898 474.2477,369.3187 478.58272,367.45056 483.12137,366.31896 483.8691,366.20459 484.62546,366.19193 485.38142,366.21592 z"
       inkscape:connector-curvature="0"
       id="path4908"
       style="fill:#aac7db;stroke:none" />
    <path
       d="M 424.11499,204.33481 C 423.18084,226.32725 423.07124,248.41131 417.08067,269.84193"
       inkscape:connector-curvature="0"
       id="path4910"
       style="fill:none;stroke:#0000e9;stroke-width:1;stroke-miterlimit:4;stroke-opacity:1;stroke-dasharray:none;stroke-dashoffset:0" />
    <path
       d="M 423.2156,214.24984 C 423.97748,215.05572 423.40025,216.56069 423.50235,217.6153 422.7427,234.15642 421.83238,250.84224 417.71316,266.94543 417.34431,267.8403 416.22839,267.22899 416.33927,266.41648 415.28637,256.54572 417.15428,246.69742 418.43066,236.93759 419.25077,231.8878 419.94664,226.82044 420.33576,221.73314 420.43953,220.83074 420.69444,219.85917 421.26467,219.18211 421.18987,217.52229 421.59461,215.7316 422.45996,214.31166 422.66411,214.12704 422.97304,214.05636 423.2156,214.24986 z"
       inkscape:connector-curvature="0"
       id="path4912"
       style="fill:#b46a9f;stroke:none" />
    <path
       d="M 449.01727,183.45407 C 453.41304,183.23552 457.11408,185.91825 461.05493,187.4318 468.05278,190.62782 475.68144,193.05153 481.36394,198.45988 483.6037,200.58185 485.85126,202.95127 487.07405,205.80041 487.28317,206.87783 488.3556,207.62844 488.42733,208.80236 489.48943,214.25734 489.36328,219.85587 490.37139,225.33027 490.93011,229.81033 491.94608,234.16733 493.48207,238.39988 494.52667,241.81456 495.61237,245.76213 494.03968,249.18789 491.60115,252.92022 487.99854,255.71402 485.01971,259.01248 480.40068,263.42386 476.86004,269.34664 476.22718,275.80015 475.83534,278.9712 476.43607,282.13009 477.2696,285.19263 477.63783,287.10663 478.17193,289.08819 478.01324,291.02287 477.76678,291.50882 476.86159,292.00018 476.921,292.52041 477.54175,292.65119 478.29582,293.01559 478.14015,293.83224 478.12655,296.6349 478.78362,299.49625 478.28802,302.26816 477.83644,304.00724 475.78149,304.18872 474.35869,303.64892 471.75949,302.82004 470.29838,300.16122 469.9485,297.61067 468.03866,294.2894 465.45679,291.31378 462.65314,288.68038 459.40569,286.18268 455.60552,284.39361 451.92305,282.63526 447.74433,280.47439 442.91565,281.36135 438.36974,281.09978 435.54898,281.09078 432.69014,280.2491 430.31861,278.74715 429.74856,278.23091 429.89256,276.96412 428.78673,277.16031 427.4354,276.67732 427.09746,274.96363 425.77103,274.37131 424.46675,273.31235 422.5754,273.32257 421.37458,272.15934 421.12314,271.51678 420.11303,272.2594 419.57479,271.81587 418.61463,271.39232 417.32845,270.56335 417.33936,269.45217 420.54316,257.48063 422.12622,245.15009 422.87276,232.80044 423.53171,223.95576 423.66933,215.07701 424.26662,206.23318 424.79812,201.95745 426.60638,197.89161 428.71116,194.15668 430.30847,191.58329 432.45638,189.29724 434.79063,187.42462 435.58862,186.25997 436.37717,185.06856 437.26363,184.00363 441.13691,183.47728 445.10591,183.47684 449.01727,183.45407 z"
       inkscape:connector-curvature="0"
       id="path4914"
       style="fill:#e075df;stroke:none" />
    <path
       d="M 497.33015,246.15846 C 498.43814,246.06586 499.54178,246.33275 500.24279,247.23009 502.55563,247.43777 503.59848,249.80544 504.98272,251.32429 506.85203,254.39614 508.424,258.3907 506.91304,261.91699 506.21913,263.16695 505.31305,264.51823 504.12404,265.22119 504.13204,265.81856 504.15624,266.47067 503.547,266.89734 501.24563,269.57547 498.14584,271.32435 495.69522,273.7874 494.01186,275.20597 491.98899,276.14302 490.48572,277.78456 489.3009,278.68769 488.54359,279.96974 487.47248,280.93851 486.42702,281.24014 485.9944,282.56641 485.10939,283.19169 483.05249,285.19732 481.16212,287.38788 479.28409,289.51159 478.13862,289.94041 478.00954,288.17294 477.9995,287.40953 477.30116,283.97844 476.04621,280.62858 476.39205,277.05726 476.58303,270.33391 480.16989,264.20791 484.86957,259.58392 487.90252,256.21815 491.50806,253.31964 494.10837,249.59318 494.81289,248.57544 494.67651,247.1944 495.33113,246.17906 495.97684,246.0353 496.67058,246.18806 497.33015,246.15846 z"
       inkscape:connector-curvature="0"
       id="path4916"
       style="fill:#c7afc8;stroke:none" />
    <path
       d="M 505.0995,265.78449 C 513.69063,268.59123 521.92539,272.55416 529.76084,277.03666 541.69754,284.12851 552.12945,293.74602 560.05514,305.14647 565.02312,312.27502 569.39799,319.8316 572.99719,327.73323 573.48717,328.62996 572.28488,328.99686 571.69199,328.44766 557.05804,322.02716 543.00462,313.96846 527.55828,309.58234 511.90393,304.85215 495.49776,303.20044 479.18105,302.95511 478.18396,302.3184 478.89956,300.73333 478.64565,299.68545 478.61715,296.79955 478.32589,293.87763 478.41371,291.01641 481.27881,287.8557 484.00632,284.41772 487.30761,281.67354 488.41088,280.6341 489.2543,279.23411 490.46069,278.23194 491.82565,276.74905 493.50369,275.66571 495.16063,274.57225 496.74943,273.2086 498.32244,271.73931 500.02297,270.51067 501.5913,269.01184 503.56585,267.85728 504.67359,265.92875 504.822,265.92375 504.94279,265.73674 505.0995,265.78449 z"
       inkscape:connector-curvature="0"
       id="path4918"
       style="fill:#84cdcd;stroke:none" />
    <path
       d="M 610.4632,243.13177 C 611.44071,243.41966 610.7786,244.84069 610.8838,245.5696 609.4739,259.8491 606.60427,274.14479 600.51623,287.20619 593.85305,302.05658 585.5266,316.09221 576.72044,329.76247 575.91262,330.56374 574.5293,329.65519 574.19935,328.75953 570.73829,322.26918 567.48039,315.65532 563.46239,309.47697 557.38206,299.82451 549.84808,291.03985 540.77945,284.12868 530.32172,275.88288 518.25572,270.01159 505.80705,265.50559 504.95631,264.68705 506.42794,263.79182 506.73443,263.05319 508.45435,260.50398 507.93692,257.04908 506.99212,254.30929 506.33498,252.42345 505.14695,250.85967 503.91795,249.32115 503.17246,247.97003 501.87084,247.12675 500.42827,246.69702 499.53947,245.36191 497.62012,245.99183 496.27912,245.67347 495.82446,245.3783 496.13897,244.73627 495.48226,244.66366 494.81226,243.7932 496.23075,243.51715 496.84242,243.62637 512.60218,243.54957 528.36397,243.82123 544.12462,243.86049 565.59149,243.94569 587.05991,244.18927 608.52601,244.14158 609.4603,244.3306 609.47375,243.04435 610.4632,243.13177 z"
       inkscape:connector-curvature="0"
       id="path4920"
       style="fill:#cda392;stroke:none" />
    <path
       d="M 542.3584,129.31803 C 546.21682,132.49047 550.43111,135.34486 553.97739,138.82889 553.15492,140.72024 551.03782,141.91299 549.75022,143.54692 529.29427,164.11419 508.85438,184.71048 488.1591,205.03578 486.70142,205.23396 486.29402,203.09655 485.3462,202.29291 484.72572,201.10694 482.15458,199.76929 484.10835,198.62728 498.97358,184.92484 511.11001,168.69508 523.40629,152.69578 529.4041,144.85849 535.38863,137.0255 541.65893,129.40546 541.90331,129.36076 542.0907,129.03958 542.3584,129.31806 z"
       inkscape:connector-curvature="0"
       id="path5903"
       style="fill:#b5acba;stroke:none" />
    <path
       d="M 555.24033,139.70323 C 561.69314,144.67492 568.17652,149.65759 574.41749,154.87787 583.25839,162.8665 591.44062,171.68211 597.45694,182.01521 606.9489,197.70653 612.29312,216.09614 611.45505,234.53005 611.23347,237.41592 611.63862,240.50835 610.72199,243.26382 608.05133,243.82533 605.1053,243.39362 602.33805,243.55639 566.68744,243.59389 531.03362,243.57889 495.38697,242.9918 494.37737,242.02424 494.56105,240.15443 493.90766,238.85577 490.52407,229.42091 490.08023,219.3647 488.79325,209.49992 488.76215,207.90786 487.10205,205.97174 488.98969,204.88497 510.70315,183.27972 532.16661,161.40286 554.17169,140.11126 554.4795,139.79611 554.75819,139.51492 555.24033,139.70323 z"
       inkscape:connector-curvature="0"
       id="path5907"
       style="fill:#bf9784;stroke:none" />
  </g>
</svg>
