<?xml version="1.0" encoding="UTF-8" standalone="no"?>
<!-- Created with Inkscape (http://www.inkscape.org/) -->

<svg
   xmlns:dc="http://purl.org/dc/elements/1.1/"
   xmlns:cc="http://creativecommons.org/ns#"
   xmlns:rdf="http://www.w3.org/1999/02/22-rdf-syntax-ns#"
   xmlns:svg="http://www.w3.org/2000/svg"
   xmlns="http://www.w3.org/2000/svg"
   xmlns:xlink="http://www.w3.org/1999/xlink"
   xmlns:inkscape="http://www.inkscape.org/namespaces/inkscape"
   version="1.1"
   width="740"
   height="520"
   id="svg2"
   style="enable-background:new">
  <defs
     id="defs4">
    <filter
       color-interpolation-filters="sRGB"
       id="filter3050">
      <feBlend
         in2="BackgroundImage"
         mode="lighten"
         id="feBlend3052" />
    </filter>
  </defs>
  <metadata
     id="metadata7">
    <rdf:RDF>
      <cc:Work
         rdf:about="">
        <dc:format>image/svg+xml</dc:format>
        <dc:type
           rdf:resource="http://purl.org/dc/dcmitype/StillImage" />
        <dc:title />
      </cc:Work>
    </rdf:RDF>
  </metadata>
  <g
     id="layer1"
     style="display:none">
    <image
       xlink:href="pngs/coronal-0632.png"
       id="MRISLICE"
       height="520"
       width="740"
       y="0"
       x="0" />
  </g>
  <g
     id="layer3"
     style="display:inline">
    <path
       d="M 374.70857,158.61111 375.53826,339.07014 C 380.57014,347.24408 378.0442,383.78274 373.56179,413.08918 M 371.80775,423.62843 C 398.34732,431.05018 422.53649,429.54042 440.82223,405.59761 449.60947,393.61696 460.43239,397.9218 472.53159,412.43689 500.07951,439.61958 530.05604,461.94503 578.8512,446.63325 618.00961,421.50801 636.61338,351.46939 670.24876,322.90459 704.70182,273.99343 678.27514,200.21218 642.26991,138.86597 603.53763,88.664103 547.1683,73.736333 492.42766,55.551186 445.79618,50.516119 394.00923,38.809272 374.29476,68.60798 L 374.65096,146.0825"
       inkscape:connector-curvature="0"
       id="path2990"
       style="fill:none;stroke:#0000e9;stroke-width:1;stroke-miterlimit:4;stroke-opacity:1;stroke-dasharray:none;stroke-dashoffset:0" />
    <path
       d="M 423.41318,350.26168 C 422.01074,350.15855 420.88006,349.19871 419.53948,348.87647 418.45069,348.18563 416.84952,347.49183 415.74087,348.51099 414.54037,349.6515 414.2959,351.39021 413.98355,352.9341 413.78601,355.64037 414.68347,358.25466 415.39367,360.82402 416.96394,364.71716 419.98994,367.77719 423.05587,370.54144 424.55901,371.76747 426.36269,372.97812 428.37733,372.89853 430.18573,372.42035 430.88817,370.37812 431.00056,368.69795 431.33176,364.92181 429.65088,361.40158 428.51235,357.89969 427.3798,355.02147 425.39281,352.59524 423.41318,350.26168 z"
       inkscape:connector-curvature="0"
       id="path2992"
       style="fill:none;stroke:#0000e9;stroke-width:1;stroke-miterlimit:4;stroke-opacity:1;stroke-dasharray:none;stroke-dashoffset:0" />
    <path
       d="M 356.89106,145.15892 C 359.53138,144.97339 367.69569,145.33079 374.81128,145.49966 M 374.81128,145.49966 C 379.6562,145.61464 384.01493,145.64223 385.81269,145.35152 390.90815,144.52755 398.42165,140.10746 403.51711,133.89195 413.00082,123.9396 417.07938,114.91838 437.71347,122.07866 442.62039,123.10604 447.4505,124.2557 452.20596,125.52221 504.439,139.43331 552.97054,165.41295 584.74222,207.22098 604.47837,234.32475 617.40467,251.1917 616.15645,275.10587 615.85722,280.83863 614.74343,286.97637 612.71362,293.75719 609.86063,303.28797 605.19797,314.08922 598.44394,326.82209 597.70531,328.21457 594.52361,330.50945 593.73459,331.94901"
       inkscape:connector-curvature="0"
       id="path2994"
       style="fill:none;stroke:#0000e9;stroke-width:1;stroke-miterlimit:4;stroke-opacity:1;stroke-dasharray:none;stroke-dashoffset:0" />
    <path
       d="M 592.8067,329.80524 C 593.09577,329.21659 593.38282,328.63357 593.66779,328.05602 615.40181,284.00662 624.21734,272.31409 588.3973,220.20882 566.95537,189.01852 538.97667,175.39676 518.05374,167.58686 516.05996,166.84264 513.90771,166.59624 512.27637,165.50236 496.36656,154.8342 489.65383,152.68045 478.74911,147.5705 461.89128,139.67093 446.10238,138.69854 433.5217,140.38272 427.13156,141.23816 421.91497,144.09719 416.44185,145.93396 402.66398,150.55782 391.43964,157.06189 380.99581,159.25736 378.94372,159.68875 357.79721,159.07455 355.79195,159.12625 L 357.21166,144.98271"
       inkscape:connector-curvature="0"
       id="path2996"
       style="fill:none;stroke:#0000e9;stroke-width:1;stroke-miterlimit:4;stroke-opacity:1;stroke-dasharray:none;stroke-dashoffset:0" />
    <path
       d="M 469.0392,144.67509 C 475.91642,151.49363 471.62767,158.8507 472.8127,168.0987 471.91171,176.50802 481.82103,186.7631 489.01034,191.58217 494.36176,195.74779 501.56784,199.57129 502.58259,206.78221 503.07378,211.3862 500.68773,214.81083 496.42869,215.9317 491.64267,218.15607 486.23586,221.46788 485.34049,227.13433 485.954,236.90767 499.64872,238.63209 511.25798,229.28662 518.53142,221.33043 520.91016,208.65006 517.4701,198.7511 515.41765,191.82025 511.38501,185.11063 513.54602,177.85869 514.14296,172.86094 512.37964,169.1303 511.57737,164.26313"
       inkscape:connector-curvature="0"
       id="path2998"
       style="fill:none;stroke:#0000e9;stroke-width:1;stroke-miterlimit:4;stroke-opacity:1;stroke-dasharray:none;stroke-dashoffset:0" />
    <path
       d="M 499.77554,214.79516 C 506.14806,214.73516 516.40359,216.16246 514.18898,224.35688"
       inkscape:connector-curvature="0"
       id="path3012"
       style="fill:none;stroke:#0000e9;stroke-width:1;stroke-miterlimit:4;stroke-opacity:1;stroke-dasharray:none;stroke-dashoffset:0" />
    <path
       d="M 456.98779,398.75834 C 457.8428,395.29282 455.59936,390.60826 451.62931,390.6956 444.83149,392.46117 439.2166,396.93679 433.52292,400.82641 429.45861,404.00942 426.64957,408.83717 421.70911,410.81579"
       inkscape:connector-curvature="0"
       id="path3014"
       style="fill:none;stroke:#0000e9;stroke-width:1;stroke-miterlimit:4;stroke-opacity:1;stroke-dasharray:none;stroke-dashoffset:0" />
    <path
       d="M 424.65668,408.70638 420.30442,421.14142"
       inkscape:connector-curvature="0"
       id="path3034"
       style="fill:none;stroke:#0000e9;stroke-width:1;stroke-miterlimit:4;stroke-opacity:1;stroke-dasharray:none;stroke-dashoffset:0" />
    <path
       d="M 489.3189,220.31549 C 483.95674,222.22539 477.83141,213.24276 473.63887,219.93992 467.50545,227.1095 464.00231,236.06287 459.97832,244.45027 459.04315,250.22794 460.45569,257.81344 471.03793,251.19827 476.94943,251.22757 481.0801,258.21714 478.56948,263.48551 475.64642,272.89113 466.22119,277.81102 461.24486,285.90633 455.49387,293.64648 447.68766,299.64216 439.06228,303.85371 435.02962,306.11175 427.71676,309.30689 428.80205,314.68154 430.18629,320.25739 438.36859,322.08766 443.37969,322.31729 449.39195,323.04893 461.12177,321.24041 466.36492,319.94538"
       inkscape:connector-curvature="0"
       id="path3036"
       style="fill:none;stroke:#0000e9;stroke-width:1;stroke-miterlimit:4;stroke-opacity:1;stroke-dasharray:none;stroke-dashoffset:0" />
    <path
       d="M 519.79762,207.18583 C 529.69559,186.02737 530.32159,222.74955 541.74944,227.80231 543.57449,234.27207 540.47775,236.87939 537.13107,241.37984 532.81204,246.82796 524.3159,248.82931 520.52311,254.71095 515.89298,260.36047 514.75351,268.70237 512.47641,275.65366 510.05663,281.31697 507.04396,286.8245 505.3243,292.60905 503.61722,298.902 501.47621,304.99052 499.77798,311.29739 497.2231,317.60808 490.88712,331.33503 486.78841,336.88231 M 478.33457,346.42778 C 473.97829,348.88203 466.88285,349.39881 462.88488,346.30978 M 486.51553,336.88418 C 479.55143,343.34761 466.40343,331.33983 466.12976,326.38773 465.4719,321.12671 467.30277,316.18419 470.04458,310.46954 473.73935,306.76647 476.44537,302.1431 479.66841,298.1145 483.88059,291.89424 488.34219,285.81621 492.41118,279.51802 497.27675,274.77132 500.65774,268.78693 503.64152,262.6983 505.82278,257.10379 508.75065,251.93568 510.05003,245.99053 509.53844,233.47085 484.20717,245.67426 486.75535,232.46175"
       inkscape:connector-curvature="0"
       id="path3059"
       style="fill:none;stroke:#0000e9;stroke-width:1;stroke-miterlimit:4;stroke-opacity:1;stroke-dasharray:none;stroke-dashoffset:0" />
    <path
       d="M 533.4633,245.80733 C 556.04508,301.8888 568.69633,351.29821 486.83189,337.20488"
       inkscape:connector-curvature="0"
       id="path3071"
       style="fill:none;stroke:#0000e9;stroke-width:1;stroke-miterlimit:4;stroke-opacity:1;stroke-dasharray:none;stroke-dashoffset:0" />
    <path
       d="M 478.74911,346.53117 C 492.37488,409.98274 442.49798,390.31959 428.38719,371.40125"
       inkscape:connector-curvature="0"
       id="path3073"
       style="fill:none;stroke:#0000e9;stroke-width:1;stroke-miterlimit:4;stroke-opacity:1;stroke-dasharray:none;stroke-dashoffset:0" />
    <path
       d="M 462.58356,347.15292 429.00895,371.40125"
       inkscape:connector-curvature="0"
       id="path3075"
       style="fill:none;stroke:#0000e9;stroke-width:1;stroke-miterlimit:4;stroke-opacity:1;stroke-dasharray:none;stroke-dashoffset:0" />
    <path
       d="M 399.16484,137.62247 C 415.33385,123.55361 435.59946,133.80875 452.01376,125.80918"
       inkscape:connector-curvature="0"
       id="path3008"
       style="fill:none;stroke:#0000e9;stroke-width:1;stroke-miterlimit:4;stroke-opacity:1;stroke-dasharray:none;stroke-dashoffset:0" />
    <path
       d="M 424.53735,119.87867 C 418.84875,119.67865 414.19101,123.26406 410.31758,127.0229 409.23549,128.43095 406.74212,129.52691 406.84163,131.50179 408.38171,132.75175 410.42573,130.62575 412.15859,130.67745 423.92357,128.37048 436.26903,130.3362 447.85228,127.10533 448.86725,127.11543 450.65635,125.72149 449.00635,125.12693 442.39249,123.45235 435.79744,121.52654 429.12614,120.16718 427.60828,119.95456 426.07099,119.82421 424.53735,119.87867 z"
       inkscape:connector-curvature="0"
       id="path3013"
       style="fill:#b46a9f;stroke:none" />
    <path
       d="M 532.53892,245.82325 C 526.20693,249.34423 519.77573,253.93587 517.32778,261.09544 514.43342,269.08829 512.4026,277.4019 508.55556,285.02908 502.49653,299.43151 500.39571,315.56268 491.55575,328.73758 490.17278,331.3536 488.50137,333.97997 487.69512,336.78858 493.23021,338.38428 499.25257,338.50783 505.00614,339.22036 516.11155,339.37972 528.00189,339.45301 537.81466,333.51872 546.54609,328.59801 550.07142,318.14986 550.1522,308.59633 549.82621,291.04333 543.88531,274.22726 537.88922,257.92878 536.32835,253.91742 534.90503,249.82319 533.11595,245.91943 533.01179,246.10134 532.67089,245.7631 532.53892,245.82323 z"
       inkscape:connector-curvature="0"
       id="path3023"
       style="fill:#78a9c2;stroke:none" />
    <path
       d="M 451.41066,391.15344 C 444.89539,392.74944 439.48215,397.18205 434.12711,401.03172 430.69945,403.84181 427.22485,406.81218 424.4579,410.22482 423.39042,413.88599 421.41286,417.44018 420.8828,421.1867 422.14439,422.50866 423.92477,420.1876 425.13795,419.72193 432.48234,415.42817 437.76993,408.63926 443.37339,402.52926 446.52811,398.92702 451.82723,397.58447 456.39788,399.10827 457.67161,397.98929 456.82948,395.36706 456.04067,393.91496 455.10349,392.31107 453.34563,390.97868 451.41066,391.15344 z"
       inkscape:connector-curvature="0"
       id="path3035"
       style="fill:#85dbce;stroke:none" />
    <path
       d="M 477.34972,346.73555 C 473.37077,348.25833 468.51816,349.22127 464.50421,347.48376 462.13661,346.16768 460.25797,349.85916 458.14163,350.67618 449.06354,357.54937 439.38358,363.69615 430.71986,371.06716 429.06584,373.67464 432.83718,375.58742 434.31945,377.13975 443.28259,384.59276 454.70035,390.99554 466.77076,389.14756 474.94177,387.9724 479.57878,379.6463 480.32542,372.04716 481.32501,363.89983 480.38062,355.49091 478.64118,347.57362 478.44381,347.0551 477.92715,346.63088 477.34972,346.73555 z"
       inkscape:connector-curvature="0"
       id="path3037"
       style="fill:#aac7db;stroke:none" />
    <path
       d="M 416.70617,348.54908 C 414.1923,349.39915 414.29226,352.95573 414.32934,355.14376 415.20071,362.5022 420.27493,369.14738 426.81801,372.42731 429.63373,371.80532 431.34238,368.74908 430.46676,365.98798 429.23611,359.44872 426.80533,351.54536 419.78369,349.20855 418.79743,348.86542 417.77581,348.39937 416.70617,348.54908 z"
       inkscape:connector-curvature="0"
       id="path3039"
       style="fill:#bfb195;stroke:none" />
    <path
       d="M 422.93861,411.8473 C 407.00457,416.74128 390.87736,419.51044 373.84223,412.29241 M 373.84223,412.29241 C 373.50154,412.14806 373.16049,411.99971 372.81907,411.8473"
       inkscape:connector-curvature="0"
       id="path3020"
       style="fill:none;stroke:#0000e9;stroke-width:1;stroke-miterlimit:4;stroke-opacity:1;stroke-dasharray:none;stroke-dashoffset:0" />
    <path
       d="M 556.59073,451.41536 C 556.23077,437.4283 549.03914,419.79767 564.94399,414.48517 585.84792,404.10059 585.09615,425.36664 592.20199,435.14849"
       inkscape:connector-curvature="0"
       id="path3022"
       style="fill:none;stroke:#0000e9;stroke-width:1;stroke-miterlimit:4;stroke-opacity:1;stroke-dasharray:none;stroke-dashoffset:0" />
    <path
       d="M 617.26176,274.67802 C 626.49314,283.96989 638.13145,291.8176 624.73573,314.68573 617.23352,330.37707 608.64337,335.18906 598.79666,327.43543"
       inkscape:connector-curvature="0"
       id="path3026"
       style="fill:none;stroke:#0000e9;stroke-width:1;stroke-miterlimit:4;stroke-opacity:1;stroke-dasharray:none;stroke-dashoffset:0" />
    <path
       d="M 614.18424,329.63366 C 613.79333,337.94786 615.25728,345.89109 603.63276,356.45201 596.27593,368.29458 590.58359,356.83425 584.28838,353.81414"
       inkscape:connector-curvature="0"
       id="path3028"
       style="fill:none;stroke:#0000e9;stroke-width:1;stroke-miterlimit:4;stroke-opacity:1;stroke-dasharray:none;stroke-dashoffset:0" />
    <path
       d="M 595.71915,362.1674 C 593.65044,374.76997 586.61221,397.29157 571.97831,403.49404 559.24217,400.76271 582.10293,372.2139 584.28838,354.25379"
       inkscape:connector-curvature="0"
       id="path3030"
       style="fill:none;stroke:#0000e9;stroke-width:1;stroke-miterlimit:4;stroke-opacity:1;stroke-dasharray:none;stroke-dashoffset:0" />
    <path
       d="M 582.52979,416.24375 C 591.80702,399.47647 587.18306,397.27234 618.5807,357.3313 633.17625,343.8657 644.57812,334.10889 623.41679,362.1674 607.88256,380.33974 593.54331,415.30235 584.72802,420.6402"
       inkscape:connector-curvature="0"
       id="path3038"
       style="fill:none;stroke:#0000e9;stroke-width:1;stroke-miterlimit:4;stroke-opacity:1;stroke-dasharray:none;stroke-dashoffset:0" />
    <path
       d="M 631.77005,294.0224 C 624.54616,297.79769 618.03889,297.27325 611.98602,294.0224"
       inkscape:connector-curvature="0"
       id="path3040"
       style="fill:none;stroke:#0000e9;stroke-width:1;stroke-miterlimit:4;stroke-opacity:1;stroke-dasharray:none;stroke-dashoffset:0" />
    <path
       d="M 633.03912,345.50669 C 628.08345,348.7127 623.75811,352.98339 619.54751,357.12981 611.20489,366.85675 603.66767,377.29081 596.83271,388.11989 591.38673,396.79894 587.62432,406.52516 583.31801,415.69878 584.06346,416.681 584.50966,420.20539 586.36804,419.07856 592.04204,412.78414 595.91364,404.96896 600.33369,397.72849 608.52964,383.33354 617.08906,369.29953 627.33747,356.30547 629.55312,352.95248 632.48879,349.85507 633.8772,346.06999 633.8877,345.63495 633.41835,345.40248 633.03912,345.50669 z"
       inkscape:connector-curvature="0"
       id="path3054"
       style="fill:#d5be93;stroke:none" />
    <path
       d="M 573.86564,412.08545 C 568.66186,412.75636 563.55861,414.89331 559.39856,418.07562 553.7879,423.23053 554.9511,431.70842 555.49671,438.53285 556.01811,442.62152 556.42631,446.80597 556.73321,450.85666 564.49662,450.29586 572.31614,448.52381 579.58102,445.66335 584.01432,442.89204 588.0501,439.42423 591.685,435.66142 590.81395,432.57191 588.71334,429.63419 587.68445,426.44825 585.15035,420.31095 582.14475,411.37331 573.86564,412.08545 z"
       inkscape:connector-curvature="0"
       id="path3056"
       style="fill:#b9abdd;stroke:none" />
    <path
       d="M 373.82845,412.12601 C 361.89472,413.45935 350.32768,419.11569 339.94296,417.56634"
       inkscape:connector-curvature="0"
       id="path3049"
       style="fill:none;stroke:#0000e9;stroke-width:0.93800002;stroke-linecap:round;stroke-miterlimit:4;stroke-opacity:1;stroke-dasharray:none;stroke-dashoffset:0" />
    <path
       d="M 372.11863,424.09474 C 361.93796,428.11282 350.93086,427.99877 339.94296,427.98069"
       inkscape:connector-curvature="0"
       id="path3051"
       style="fill:none;stroke:#0000e9;stroke-width:0.93800002;stroke-linecap:round;stroke-miterlimit:4;stroke-opacity:1;stroke-dasharray:none;stroke-dashoffset:0" />
    <path
       d="M 339.94296,417.10003 340.0984,427.82525"
       inkscape:connector-curvature="0"
       id="path3053"
       style="fill:none;stroke:#0000e9;stroke-width:0.93800002;stroke-linecap:round;stroke-miterlimit:4;stroke-opacity:1;stroke-dasharray:none;stroke-dashoffset:0" />
    <path
       d="M 422.46955,412.14148 C 418.23638,413.23151 414.01335,414.52709 409.68833,415.29955 401.10562,416.99876 392.12276,417.40027 383.55661,415.4494 380.50887,414.82194 377.61345,413.79092 374.67721,412.79724 374.05286,412.66813 373.41587,412.66257 372.85082,412.38921 369.63312,412.58436 366.51025,413.55502 363.36862,414.2328 357.17185,415.64284 351.03507,417.62782 344.6534,417.83634 343.13763,417.93884 341.56844,417.59858 340.09225,417.87814 339.73058,419.06804 340.12245,420.40786 340.05335,421.65722 340.15874,423.60477 340.07205,425.58399 340.19572,427.51305 340.6988,428.24804 341.87795,427.70195 342.65694,427.86989 352.33074,427.91859 362.29372,427.75587 371.43726,424.25109 371.98114,424.09883 372.16575,423.33682 372.7921,423.79964 383.67967,426.6805 395.11787,428.52487 406.35739,426.80611 411.56479,426.03228 416.69977,424.50402 421.37659,422.08468 422.17516,421.53596 421.31949,420.69408 420.5994,420.80717 420.16361,420.73727 420.72084,420.0577 420.7033,419.7761 421.45968,417.39274 422.45303,415.06653 423.0524,412.64182 423.0113,412.3241 422.78,412.13904 422.46951,412.1415 z"
       inkscape:connector-curvature="0"
       id="path3055"
       style="fill:#cf958a;stroke:none" />
    <path
       d="M 500.23689,214.97486 C 497.36037,215.17681 494.82482,216.87288 492.37997,218.27608 489.30981,220.31927 486.12317,223.12612 485.55687,226.96893 485.52517,230.4815 488.06797,233.65992 491.40964,234.62837 497.04165,236.43008 503.15021,234.36207 507.99914,231.39816 510.65887,229.80604 513.18436,227.53065 514.17502,224.5234 514.57517,222.06424 514.21212,219.13472 511.94244,217.68142 508.55594,215.40107 504.21283,215.00756 500.23689,214.97486 z"
       inkscape:connector-curvature="0"
       id="path3057"
       style="fill:#b667d7;stroke:none" />
    <path
       d="M 477.21048,217.6196 C 474.93064,217.75725 473.84696,220.14025 472.4765,221.62895 467.23209,228.56672 463.87398,236.63485 460.07119,244.4036 460.14589,246.99663 459.37777,250.08291 461.29395,252.22791 462.95357,254.40738 466.08625,253.5181 468.19088,252.56452 469.64604,251.89935 471.07941,250.69338 472.77281,251.34175 477.685,252.53774 480.84818,258.58739 478.74924,263.25339 477.53307,267.31697 475.00417,270.79899 472.09046,273.79869 468.21886,277.96086 464.03751,281.97504 460.77187,286.66449 455.66421,293.34291 448.90909,298.61439 441.57175,302.65658 437.573,305.06903 432.85581,306.78665 429.8868,310.52898 428.16736,312.84868 428.82688,316.25052 431.07522,317.98921 435.33734,321.76217 441.38542,322.2499 446.83375,322.34444 453.04086,322.26104 459.21565,321.26308 465.28258,320.0214 466.98557,319.9314 466.71578,317.76421 467.34594,316.60158 468.41488,313.43803 469.7692,310.26786 472.14193,307.88541 479.15203,298.89974 485.52513,289.37686 491.99629,280.02722 494.33768,277.10839 496.96079,274.37459 498.85837,271.09743 502.95853,264.2913 506.18412,256.9562 508.90599,249.50897 509.55062,247.51214 510.57564,245.20569 509.16718,243.27701 507.33371,240.12885 503.28788,239.97273 500.05829,239.74611 496.29103,239.35702 492.24403,239.85129 488.74429,238.20736 486.59091,237.12187 486.12437,234.45718 486.69033,232.30649 486.65723,230.97261 485.5618,229.92573 485.50191,228.56264 484.79759,225.91752 486.53657,223.48868 487.88206,221.38862 487.62635,220.33384 485.96444,220.67346 485.11722,220.1613 482.49506,219.32456 480.03516,217.63435 477.21048,217.6196 z"
       inkscape:connector-curvature="0"
       id="path3060"
       style="fill:#8678d2;stroke:none" />
    <path
       d="M 592.5,331.53125 A 1.30013,1.30013 0 0 0 591.78125,331.78125 C 577.90985,341.29609 566.40838,353.62468 554.0625,364.53125 A 1.30013,1.30013 0 1 0 555.78125,366.46875 C 568.25179,355.45206 579.68968,343.23896 593.25,333.9375 A 1.30013,1.30013 0 0 0 592.5,331.53125 z"
       inkscape:connector-curvature="0"
       id="path3042"
       style="font-size:medium;font-style:normal;font-variant:normal;font-weight:normal;font-stretch:normal;text-indent:0;text-align:start;text-decoration:none;line-height:normal;letter-spacing:normal;word-spacing:normal;text-transform:none;direction:ltr;block-progression:tb;writing-mode:lr-tb;text-anchor:start;baseline-shift:baseline;color:#000000;fill:#73a0a6;fill-opacity:1;stroke:none;stroke-width:2.5999999;marker:none;visibility:visible;display:inline;overflow:visible;enable-background:accumulate;font-family:Sans;-inkscape-font-specification:Sans" />
    <path
       d="M 577.60769,342.95609 C 569.99253,332.92043 567.20925,310.9681 549.0071,321.35021"
       inkscape:connector-curvature="0"
       id="path3069"
       style="fill:none;stroke:#0000e9;stroke-width:1;stroke-linecap:round;stroke-miterlimit:4;stroke-opacity:1;stroke-dasharray:none;stroke-dashoffset:0" />
    <path
       d="M 554.60287,364.2511 C 541.85838,362.9578 535.75533,352.46864 533.77417,336.27226"
       inkscape:connector-curvature="0"
       id="path3839"
       style="fill:none;stroke:#0000e9;stroke-width:1;stroke-linecap:round;stroke-miterlimit:4;stroke-opacity:1;stroke-dasharray:none;stroke-dashoffset:0" />
    <path
       d="M 557.2324,318.75613 C 554.24218,318.79733 551.57794,320.23362 548.89704,321.35486 547.93004,321.37746 548.02285,322.56219 547.57096,323.14725 545.152,328.50587 540.71826,332.87387 535.42529,335.34551 534.59505,335.6798 533.49796,336.13127 533.99906,337.2332 534.99979,344.31741 536.8207,351.67786 541.47293,357.33627 544.41638,360.97663 548.77381,363.34712 553.40668,363.98457 554.39609,364.42818 555.3652,363.88029 556.07633,363.20169 562.24219,357.77634 568.1415,352.01383 574.22189,346.49469 575.29037,345.49971 576.41361,344.5563 577.43449,343.51449 577.63494,342.58071 576.58449,341.90801 576.25622,341.09852 573.01888,335.74197 570.75162,329.75658 567.18043,324.56562 565.05395,321.52793 561.8459,318.81728 557.96102,318.75613 557.7182,318.74913 557.47522,318.74913 557.2324,318.75613 z"
       inkscape:connector-curvature="0"
       id="path3841"
       style="fill:#a7c0ab;stroke:none" />
    <path
       d="M 592.68518,330.98736 C 585.96424,330.3369 579.14471,330.57377 572.01193,333.62981"
       inkscape:connector-curvature="0"
       id="path3843"
       style="fill:none;stroke:#0000e9;stroke-width:1;stroke-linecap:round;stroke-miterlimit:4;stroke-opacity:1;stroke-dasharray:none;stroke-dashoffset:0" />
    <path
       d="M 587.38252,330.85115 C 582.46714,330.78555 577.47862,331.49739 572.9365,333.38187 572.18177,334.07199 573.34213,334.98218 573.52263,335.73282 574.80807,338.14455 575.9185,340.74798 577.76479,342.80044 578.65588,343.03832 579.19575,341.92656 579.88787,341.52573 583.84594,338.12329 587.957,334.95371 592.22053,331.95864 592.87435,331.13207 591.59473,330.90648 590.99645,330.93372 589.7946,330.84682 588.58703,330.84402 587.38252,330.85112 z"
       inkscape:connector-curvature="0"
       id="path3845"
       style="fill:#d17697;stroke:none" />
    <path
       d="M 597.5,322.71875 C 597.12081,322.78925 595.92833,322.82136 595.77009,323.17309 587.41419,340.70293 580.72798,358.87201 567,371.625 566.46687,372.02848 566.38985,372.90863 566.8448,373.39858 567.29975,373.88852 568.18319,373.87682 568.625,373.37498 582.8509,360.15943 591.00302,342.12992 599.32528,324.67064 599.72045,323.88042 598.37017,322.56571 597.5,322.71873 z"
       inkscape:connector-curvature="0"
       id="path3063"
       style="font-size:medium;font-style:normal;font-variant:normal;font-weight:normal;font-stretch:normal;text-indent:0;text-align:start;text-decoration:none;line-height:normal;letter-spacing:normal;word-spacing:normal;text-transform:none;direction:ltr;block-progression:tb;writing-mode:lr-tb;text-anchor:start;baseline-shift:baseline;color:#000000;fill:#73a0a6;fill-opacity:1;stroke:none;stroke-width:0;marker:none;visibility:visible;display:inline;overflow:visible;enable-background:accumulate;font-family:Sans;-inkscape-font-specification:Sans" />
    <path
       d="M 584.60796,354.30273 C 584.04314,354.61883 584.24379,355.40333 584.06636,355.92997 582.68137,362.92463 579.61634,369.42271 576.64956,375.86971 574.34442,380.88161 571.88642,385.84996 569.90398,391.00814 569.01842,393.52611 568.16898,396.13337 568.20821,398.83077 568.22181,400.41484 568.92237,402.09191 570.38295,402.85283 570.92104,403.09239 571.50711,403.48397 572.11463,403.36043 575.3706,401.98598 578.19886,399.73492 580.59601,397.15602 584.62258,392.88776 587.5028,387.68222 589.81602,382.32647 592.55715,375.80844 594.55639,368.9701 595.68535,361.98963 595.53503,361.31406 594.67232,361.38672 594.17711,361.06672 591.78549,359.88549 589.88048,357.94402 587.80543,356.29526 586.87759,355.59916 586.03462,354.74934 584.96255,354.28573 584.84338,354.24593 584.72593,354.27573 584.60796,354.30273 z"
       inkscape:connector-curvature="0"
       id="path3837"
       style="fill:#ca818c;stroke:none" />
    <path
       d="M 598.14321,327.43624 C 597.38056,328.08113 596.72646,328.85778 596.37949,329.80543 592.62366,337.62855 588.82094,345.44182 584.32137,352.86493 583.95002,353.31316 584.34487,353.87321 584.80712,354.038 588.23476,356.00958 590.77987,359.25241 594.33255,361.04 595.86056,361.8239 597.75859,361.87757 599.26861,361.0186 601.06148,360.03167 602.30101,358.30819 603.45239,356.678 605.00173,354.97552 606.7478,353.44958 608.1576,351.61732 611.15792,347.9539 613.1879,343.47446 613.71921,338.75292 614.04472,335.8375 614.02859,332.89246 614.14361,329.96209 614.11161,329.38774 613.42852,329.36353 613.07208,329.674 610.59936,331.06066 607.61371,331.47421 604.8711,330.70661 602.60537,330.11622 600.57082,328.87398 598.73096,327.44351 598.52284,327.33937 598.35423,327.33553 598.14321,327.43651 z"
       inkscape:connector-curvature="0"
       id="path3840"
       style="fill:#c9ca98;stroke:none" />
    <path
       d="M 612.72524,294.64368 C 612.2152,294.92906 612.24662,295.63283 612.01363,296.11062 609.4197,304.1507 605.95913,311.90454 602.23803,319.49919 601.05965,321.93296 599.76931,324.30988 598.56824,326.73191 598.40096,327.36821 599.19616,327.61516 599.57825,327.96776 601.94102,329.64783 604.71491,331.00098 607.67108,331.03075 609.90681,331.00255 612.10059,330.27828 613.94355,329.01794 617.62014,326.54564 620.2131,322.81253 622.39621,319.02687 623.67979,316.79544 624.77461,314.46189 626.04658,312.22443 628.08175,308.31133 629.87158,304.18203 630.50997,299.78428 630.70739,298.29355 630.76677,296.77832 630.76077,295.28075 630.66737,294.67961 629.96843,294.85123 629.60076,295.08077 626.99554,296.12158 624.19254,296.76289 621.36662,296.66437 618.48078,296.67137 615.67696,295.78506 613.05798,294.64368 612.95001,294.62618 612.83518,294.64768 612.72524,294.64368 z"
       inkscape:connector-curvature="0"
       id="path3842"
       style="fill:#bc90cc;stroke:none" />
    <path
       d="M 616.63548,274.60917 C 616.02723,274.91196 616.21971,275.72588 616.11902,276.27942 615.68465,282.24108 614.40902,288.10813 612.75439,293.83249 612.64756,294.50635 613.50988,294.68068 613.96875,294.92298 616.97833,296.20469 620.2906,296.88607 623.56219,296.5065 625.84116,296.31501 628.06799,295.65363 630.15373,294.73111 630.68653,294.54008 630.64032,293.92241 630.51418,293.47666 629.97395,290.0713 628.37232,286.92602 626.27862,284.21452 624.34713,281.65221 621.96967,279.48429 619.738,277.19406 618.83622,276.33946 618.00483,275.39514 617.02165,274.63589 616.89131,274.60219 616.76865,274.55709 616.63548,274.60919 z"
       inkscape:connector-curvature="0"
       id="path3844"
       style="fill:#d39ccd;stroke:none" />
    <path
       d="M 470.25313,144.49581 C 469.43835,145.25522 470.81942,146.31038 471.11182,147.10621 474.16986,151.74566 472.81569,157.50216 472.81835,162.70656 472.89505,167.3174 472.51436,172.28585 474.97951,176.40616 478.66588,183.31994 484.81137,188.45502 491.07955,192.97133 495.27585,196.20339 500.20789,199.30902 502.15488,204.5005 502.63569,206.55341 502.73232,208.78951 502.29914,210.84101 502.00013,211.9845 501.06775,212.85567 500.74664,213.946 501.10981,215.2887 502.93468,214.64524 503.93302,214.90864 507.46856,215.32911 511.57621,216.06544 513.74365,219.20114 514.44166,220.04517 514.20709,221.42748 515.14502,222.05883 516.30546,222.01603 516.40168,220.38955 516.87043,219.57905 519.10573,213.5647 519.40157,206.82611 517.86832,200.60667 516.21182,194.12034 512.55332,188.00468 512.92619,181.13749 513.14274,178.63212 513.84386,176.10075 513.35209,173.55361 512.92286,170.76514 512.34728,167.95141 511.56916,165.26164 502.2429,158.73037 491.98432,153.6309 481.58826,149.01164 477.90785,147.45076 474.29804,145.57698 470.47983,144.44086 L 470.26619,144.49266 470.25309,144.49566 z"
       inkscape:connector-curvature="0"
       id="path3041"
       style="fill:#a7b0c5;stroke:none" />
    <path
       d="M 452.28951,125.79716 C 446.67595,128.67624 440.31273,129.11969 434.09278,129.31812 425.27414,129.75599 416.07232,129.08639 407.74109,132.52235 404.35959,133.72616 401.56788,136.07777 399.05123,138.50565 395.01165,141.89666 390.20078,144.95544 384.86581,145.51249 376.1254,145.86645 367.37509,145.30589 358.63285,145.1973 356.87948,144.66067 357.17637,146.71899 357.02712,147.8168 356.74918,151.41099 356.15275,155.0076 356.15836,158.60568 356.96917,159.39894 358.34595,158.8493 359.38688,159.05083 366.50529,159.13273 373.64441,159.27919 380.75123,159.17717 392.25345,156.3836 402.74698,150.64543 413.85491,146.72839 421.19403,144.26129 428.19964,140.5466 436.01855,140.01917 449.91457,138.68897 464.16033,140.88745 476.86761,146.62589 488.09712,151.55896 499.32416,156.67647 509.5229,163.54088 510.18427,164.11744 511.22977,164.30438 511.8202,164.80192 513.39265,166.4224 515.89501,166.60509 517.89346,167.47051 530.25243,171.90828 542.15943,177.77924 553.11282,185.05862 567.23563,194.56732 579.45247,206.80717 588.96811,220.87869 595.81079,230.9555 602.33312,241.32349 607.34694,252.42119 611.55758,262.08256 613.88636,272.85838 612.09364,283.38245 610.4189,293.68848 605.79192,303.20078 601.43224,312.63259 599.88863,316.01957 598.03489,319.30524 596.56438,322.69606 596.80608,323.60033 598.17392,322.88677 598.70506,323.69241 599.31016,324.47084 600.13059,323.74181 600.28954,322.98866 604.74295,314.0614 609.02586,304.95029 612.04556,295.44522 613.94459,289.26681 615.48444,282.9253 615.86489,276.43918 616.82275,265.44891 614.2552,254.35273 609.27976,244.56836 602.94887,232.0984 594.45916,220.95065 586.31267,209.62334 570.5445,188.04466 549.90056,170.32791 526.99498,156.64819 503.89267,142.76906 478.6239,132.77853 452.63298,125.76968 L 452.41386,125.78718 452.28951,125.79718 z"
       inkscape:connector-curvature="0"
       id="path3043"
       style="fill:#73a0a6;stroke:none" />
    <path
       d="M 525.06176,200.86656 C 522.85327,201.59051 521.71311,203.93534 520.65157,205.84692 520.40703,206.48448 520.04529,206.89772 519.46316,207.10403 518.74704,208.84347 519.18481,210.88842 518.80369,212.72324 517.94268,218.82947 515.51298,224.95611 511.15798,229.43663 506.56981,233.21778 500.71715,235.66668 494.71938,235.51609 492.18219,235.49219 489.77578,234.48728 487.80184,232.96753 486.57366,232.56979 486.71456,234.32239 486.82637,235.04897 487.19016,237.95031 490.48136,238.91034 492.97252,239.06846 497.57673,239.68176 502.39612,239.12186 506.82336,240.72314 509.27893,241.75587 510.58317,244.58626 509.85279,247.10486 508.54478,252.236 506.11297,256.99001 504.08088,261.87679 501.22695,268.24288 497.52663,274.30821 492.77532,279.39817 489.23242,284.28544 485.9801,289.39407 482.4605,294.30324 478.62849,299.74368 474.75932,305.24358 470.4702,310.31072 468.61825,313.46882 467.24327,316.93635 466.52083,320.50238 466.23949,322.85445 465.94674,325.34029 466.55463,327.65609 468.73557,332.23683 472.9447,335.68517 477.51828,337.71297 480.71602,339.14582 485.07662,338.84824 487.25917,335.82387 490.60119,331.033 493.00715,325.63724 495.59182,320.40882 497.84836,315.68674 499.95808,310.88284 501.24739,305.79641 503.6833,298.08071 505.58197,290.16341 509.08343,282.83977 511.32517,278.19333 513.16865,273.37308 514.45635,268.36927 515.92862,263.14106 517.59179,257.73656 521.2561,253.58963 525.82476,248.10783 533.43613,246.18937 537.73593,240.36593 540.00563,237.62433 542.37174,234.43371 542.07742,230.66626 542.09192,229.27985 541.79297,227.72216 540.36006,227.12162 536.18689,223.96521 534.53279,218.72124 532.53006,214.10084 530.75582,210.02608 529.68557,205.57163 527.05392,201.9382 526.55989,201.34513 525.87706,200.79778 525.06178,200.86656 z"
       inkscape:connector-curvature="0"
       id="path3044"
       style="fill:#9de082;stroke:none" />
    <path
       d="M 512.841,166.23077 C 511.74514,166.57545 512.72949,168.07776 512.70361,168.88925 513.63972,172.41289 514.13145,176.07715 513.3122,179.6805 512.29639,185.39238 515.04576,190.83128 516.69108,196.14478 517.78887,199.20549 518.7313,202.34995 518.99603,205.59275 519.39419,206.77613 520.5442,205.64625 520.78896,204.96763 521.8877,203.28186 523.02963,200.82387 525.28158,200.61239 527.4123,200.87263 528.19373,203.27653 529.08039,204.9058 532.22823,211.50045 533.79922,218.95349 538.34729,224.77913 539.27293,226.06499 540.67575,226.81747 541.78201,227.86352 543.01026,230.98153 542.25256,234.75285 540.23639,237.44641 538.33703,240.23316 536.11485,242.88614 533.4947,245.01003 533.5756,246.51264 534.61004,247.99711 535.04733,249.49162 540.44476,263.32223 545.66562,277.29899 548.69269,291.85936 550.48524,301.16672 551.54498,311.03337 548.78199,320.25769 549.09955,321.51159 550.54823,320.30819 551.28164,320.08744 555.15301,318.27539 560.13838,317.77708 563.6681,320.57368 567.79536,323.6901 569.74125,328.67252 572.3923,332.93183 573.55309,333.29363 574.78554,332.28388 575.96043,332.10109 581.23675,330.22742 586.97194,331.11622 592.45798,330.58935 593.17418,330.23352 592.79188,329.19571 593.35537,328.6319 598.81225,316.80326 605.21245,305.34067 609.49423,292.99282 612.76831,283.48067 613.45635,272.99044 610.79858,263.2349 607.05759,249.2773 599.22334,236.90198 591.37948,224.93026 583.67703,212.99469 574.34602,202.06027 563.33564,193.05004 549.05162,181.31572 532.4317,172.58829 514.91902,166.76873 514.24262,166.56867 513.55176,166.27903 512.841,166.23077 z"
       inkscape:connector-curvature="0"
       id="path3046"
       style="fill:#d0cf6e;stroke:none" />
  </g>
</svg>
