<?xml version="1.0" encoding="UTF-8" standalone="no"?>
<!-- Created with Inkscape (http://www.inkscape.org/) -->

<svg
   xmlns:dc="http://purl.org/dc/elements/1.1/"
   xmlns:cc="http://creativecommons.org/ns#"
   xmlns:rdf="http://www.w3.org/1999/02/22-rdf-syntax-ns#"
   xmlns:svg="http://www.w3.org/2000/svg"
   xmlns="http://www.w3.org/2000/svg"
   xmlns:xlink="http://www.w3.org/1999/xlink"
   xmlns:inkscape="http://www.inkscape.org/namespaces/inkscape"
   version="1.1"
   width="740"
   height="520"
   id="svg2"
   style="display:inline;enable-background:new">
  <defs
     id="defs4">
    <filter
       color-interpolation-filters="sRGB"
       id="filter3050">
      <feBlend
         in2="BackgroundImage"
         mode="lighten"
         id="feBlend3052" />
    </filter>
  </defs>
  <metadata
     id="metadata7">
    <rdf:RDF>
      <cc:Work
         rdf:about="">
        <dc:format>image/svg+xml</dc:format>
        <dc:type
           rdf:resource="http://purl.org/dc/dcmitype/StillImage" />
        <dc:title />
      </cc:Work>
    </rdf:RDF>
  </metadata>
  <g
     id="g3138"
     style="display:none">
    <image
       xlink:href="pngs/coronal-0613.png"
       id="image3140"
       height="520"
       width="740"
       y="0"
       x="0" />
  </g>
  <g
     id="g3146"
     style="display:inline">
    <path
       d="M 366.32699,74.8255 C 374.36605,58.573208 393.06946,52.871795 410.54734,55.213469 428.85969,54.87894 447.1835,53.57686 465.31367,57.173234 508.92878,60.67858 549.68433,78.689966 587.7241,99.172044 605.9515,108.39489 620.1403,123.33635 634.73538,137.21426 648.13377,155.47003 660.67161,174.89316 665.34416,197.38814 677.60095,228.13154 680.66113,262.40982 677.26075,295.1494 670.06754,314.23978 655.2263,328.66281 643.90404,345.1692 632.96742,360.23379 626.81961,378.29386 616.39845,393.73847 607.71827,410.70586 598.65825,429.14686 582.37701,440.07592 570.62524,456.63964 550.89991,443.98204 534.88006,444.44193 517.0981,447.39859 501.40795,441.10797 488.81215,428.60244 474.23644,418.08479 456.41127,407.41485 437.61517,412.07373 417.00076,414.52747 396.08597,420.82938 375.18416,418.00873 372.46154,415.30549 367.29149,416.43055 365.70524,412.43689"
       inkscape:connector-curvature="0"
       id="path3148"
       style="fill:none;stroke:#e20000;stroke-opacity:1" />
    <path
       d="M 362.34484,170.04248 C 377.0807,167.88594 392.20725,168.38161 406.80114,165.40421 419.75892,162.50968 428.72799,150.56716 442.58631,152.8823 466.68977,153.21608 488.41434,165.4651 511.82418,169.60284 524.21877,173.76232 536.15449,179.20875 547.45874,185.85356 557.78112,194.27824 568.42096,202.49232 578.07867,211.85147 585.93428,223.39328 593.62951,235.24573 600.81398,247.17754 605.4816,261.15092 610.536,275.91339 606.43291,290.7906 601.17645,301.16018 598.75272,312.71471 593.15853,323.03899 585.365,334.65904 579.08008,348.82799 565.46089,354.69343 556.7336,357.4619 571.42502,367.17506 573.3727,357.46699 588.8984,344.33856 596.85183,324.97162 606.71383,307.6022 614.91071,291.1299 616.06883,271.29107 609.41798,254.03453 603.53866,239.36322 594.85652,225.67488 585.22039,213.08299 575.51243,202.57367 565.0918,192.86945 554.56302,183.27843 541.18214,175.46639 528.89487,165.76786 514.4598,159.88563 491.53605,149.94503 467.89308,141.26505 443.30201,136.49833 431.61961,130.69364 415.62281,128.65741 408.67699,142.26349 400.95119,153.73279 381.10017,156.93431 369.70798,151.37149 368.5651,125.78506 368.04615,99.905879 367.18094,74.199846"
       inkscape:connector-curvature="0"
       id="path3150"
       style="fill:none;stroke:#e20000;stroke-opacity:1" />
    <path
       d="M 367.18094,179.27503 C 367.36631,179.36773 367.43521,179.62199 367.62058,179.71468 367.75166,179.78018 367.9566,179.61105 368.06023,179.71468 368.16385,179.8183 367.9566,180.0507 368.06023,180.15432 368.18845,180.28255 370.56987,180.28255 370.6981,180.15432 370.80172,180.0507 370.59447,179.8183 370.6981,179.71468 370.90535,179.50742 371.37014,179.92193 371.57739,179.71468 371.68101,179.61105 371.47376,179.37866 371.57739,179.27503 371.78464,179.06778 372.24943,179.48228 372.45668,179.27503 372.5603,179.1714 372.35305,178.93901 372.45668,178.83539 372.5603,178.73176 372.76525,178.90089 372.89632,178.83539 373.08169,178.74269 373.1506,178.48843 373.33597,178.39574 373.59812,178.26466 374.00801,178.60299 374.21526,178.39574 374.31888,178.29211 374.11163,178.05972 374.21526,177.95609 374.50884,177.66252 374.80097,178.24967 375.09455,177.95609 375.19817,177.85247 374.99092,177.62008 375.09455,177.51645 375.3018,177.3092 375.76659,177.7237 375.97384,177.51645 376.07746,177.41282 375.87021,177.18043 375.97384,177.0768 376.18109,176.86955 376.59098,177.20788 376.85313,177.0768 377.0385,176.9841 377.1074,176.72984 377.29277,176.63716 377.55493,176.50608 377.96481,176.84441 378.17206,176.63716 378.27569,176.53353 378.06844,176.30114 378.17206,176.19751 378.3753,175.99428 379.22555,176.33024 379.491,176.19751 379.67637,176.10481 379.74527,175.85055 379.93064,175.75787 380.1928,175.62679 380.54778,175.88895 380.80994,175.75787 380.99531,175.66517 381.06421,175.41091 381.24958,175.31822 381.51173,175.18715 381.86672,175.4493 382.12887,175.31822 382.31424,175.22552 382.38314,174.97126 382.56852,174.87858 382.83067,174.7475 383.24056,175.08583 383.44781,174.87858 383.55143,174.77495 383.44781,174.58548 383.44781,174.43893 383.59435,174.43893 383.78383,174.54256 383.88745,174.43893 383.99108,174.33531 383.78383,174.10291 383.88745,173.99929 383.99108,173.89566 384.19602,174.06479 384.3271,173.99929 384.69784,173.81392 384.83565,173.30537 385.20639,173.12 385.33746,173.0545 385.54241,173.22362 385.64603,173.12 385.74966,173.01637 385.54241,172.78398 385.64603,172.68035 385.74966,172.57673 385.9546,172.74585 386.08568,172.68035 386.37877,172.53381 387.25806,171.65451 387.40461,171.36142 387.47011,171.23034 387.30099,171.0254 387.40461,170.92177 387.50824,170.81815 387.71318,170.98727 387.84426,170.92177 388.02963,170.82907 388.09853,170.57481 388.2839,170.48213 388.41498,170.41663 388.61992,170.58575 388.72355,170.48213 389.63319,169.57249 387.33349,170.51773 389.16319,169.60284 389.29427,169.53734 389.49921,169.70646 389.60284,169.60284 389.70646,169.49921 389.49921,169.26682 389.60284,169.16319 389.70646,169.05957 389.93886,169.26682 390.04248,169.16319 390.14611,169.05957 389.93886,168.82717 390.04248,168.72355 390.14611,168.61992 390.3785,168.82717 390.48213,168.72355 390.58575,168.61992 390.3785,168.38753 390.48213,168.2839 390.58575,168.18028 390.81815,168.38753 390.92177,168.2839 391.0254,168.18028 390.81815,167.94788 390.92177,167.84426 391.0254,167.74063 391.25779,167.94788 391.36142,167.84426 391.46504,167.74063 391.50797,167.40461 391.36142,167.40461 391.21487,167.40461 391.46504,167.74063 391.36142,167.84426 391.03797,168.16771 390.56797,167.49046 390.48213,167.40461"
       inkscape:connector-curvature="0"
       id="path3152"
       style="opacity:0.6;fill:none;stroke:#e20000;stroke-opacity:1" />
    <path
       d="M 421.69693,159.05135 C 422.28313,158.90481 423.60206,159.1979 423.45551,158.61171 423.30896,158.02552 421.26967,158.62411 421.69693,159.05135 422.21506,159.56948 423.17239,158.93089 423.89516,159.05135 424.99298,159.23432 423.94266,159.53852 424.3348,159.93064 424.43843,160.03427 424.67082,159.82702 424.77445,159.93064 424.87807,160.03427 424.77445,160.22374 424.77445,160.37029 424.921,160.37029 425.11047,160.26666 425.21409,160.37029 425.31772,160.47392 425.14859,160.67886 425.21409,160.80994 425.30679,160.99531 425.56105,161.06421 425.65374,161.24958 425.71924,161.38066 425.55011,161.5856 425.65374,161.68923 425.75736,161.79285 425.98976,161.5856 426.09338,161.68923 426.30063,161.89648 425.96231,162.30636 426.09338,162.56852 426.18608,162.75389 426.44034,162.82279 426.53303,163.00816 426.59853,163.13924 426.4294,163.34418 426.53303,163.44781 426.63665,163.55143 426.86905,163.34418 426.97267,163.44781 427.26577,163.7409 426.67958,164.91329 426.97267,165.20639 427.0763,165.31001 427.30869,165.10276 427.41232,165.20639 427.61957,165.41364 427.20507,165.87843 427.41232,166.08568 427.51594,166.1893 427.74834,165.98205 427.85196,166.08568 428.07179,166.3055 427.63214,167.18479 427.85196,167.40461 427.95559,167.50824 428.18798,167.30099 428.29161,167.40461 428.49886,167.61186 428.08436,168.07665 428.29161,168.2839 428.39523,168.38753 428.62763,168.18028 428.73125,168.2839 428.9385,168.49115 428.524,168.95594 428.73125,169.16319 428.83488,169.26682 429.06727,169.05957 429.1709,169.16319 429.39072,169.38302 428.95108,170.26231 429.1709,170.48213 429.27452,170.58575 429.50692,170.3785 429.61054,170.48213 429.71417,170.58575 429.50692,170.81815 429.61054,170.92177 429.71417,171.0254 429.94656,170.81815 430.05019,170.92177 430.25744,171.12902 429.84294,171.59381 430.05019,171.80106 430.15381,171.90469 430.38621,171.69744 430.48983,171.80106 430.59346,171.90469 430.38621,172.13708 430.48983,172.24071 430.59346,172.34433 430.82585,172.13708 430.92948,172.24071 431.0331,172.34433 430.82585,172.57673 430.92948,172.68035 431.0331,172.78398 431.2655,172.57673 431.36912,172.68035 431.47275,172.78398 431.30362,172.98892 431.36912,173.12 431.55449,173.49074 432.06304,173.62855 432.24841,173.99929 432.31391,174.13037 432.14479,174.33531 432.24841,174.43893 432.35204,174.54256 432.58443,174.33531 432.68806,174.43893 432.79168,174.54256 432.58443,174.77495 432.68806,174.87858 432.79168,174.9822 433.02408,174.77495 433.1277,174.87858 433.23133,174.9822 433.0622,175.18715 433.1277,175.31822 433.27425,175.61132 434.15354,176.49061 434.44664,176.63716 434.57772,176.70266 434.78266,176.53353 434.88629,176.63716 434.98991,176.74078 434.78266,176.97318 434.88629,177.0768 434.98991,177.18043 435.2223,176.97318 435.32593,177.0768 435.42956,177.18043 435.2223,177.41282 435.32593,177.51645 435.42956,177.62008 435.6345,177.45095 435.76558,177.51645 435.95095,177.60915 436.01985,177.86341 436.20522,177.95609 436.3363,178.02159 436.54124,177.85247 436.64487,177.95609 436.74849,178.05972 436.54124,178.29211 436.64487,178.39574 436.74849,178.49937 436.95343,178.33024 437.08451,178.39574 437.45525,178.58111 437.59306,179.08966 437.9638,179.27503 438.09488,179.34053 438.27237,179.20953 438.40345,179.27503 438.58882,179.36773 438.65772,179.62199 438.84309,179.71468 438.97417,179.78018 439.17911,179.61105 439.28274,179.71468 439.38636,179.8183 439.17911,180.0507 439.28274,180.15432 439.38636,180.25795 439.5913,180.08882 439.72238,180.15432 439.90775,180.24702 439.97666,180.50128 440.16203,180.59397 440.2931,180.65947 440.49805,180.49034 440.60167,180.59397 440.7053,180.69759 440.49805,180.92999 440.60167,181.03361 440.7053,181.13724 440.91024,180.96811 441.04132,181.03361 441.41206,181.21898 441.54987,181.72753 441.92061,181.9129 442.05168,181.9784 442.25663,181.80928 442.36025,181.9129 442.46388,182.01653 442.25663,182.24892 442.36025,182.35255 442.5675,182.5598 442.97739,182.22147 443.23954,182.35255 443.61028,182.53792 443.74809,183.04647 444.11883,183.23184 444.24991,183.29734 444.45485,183.12821 444.55848,183.23184 444.6621,183.33546 444.45485,183.56786 444.55848,183.67148 444.76573,183.87873 445.23052,183.46423 445.43777,183.67148 445.54139,183.77511 445.33414,184.0075 445.43777,184.11113 445.64502,184.31838 446.10981,183.90388 446.31706,184.11113 446.42068,184.21475 446.21343,184.44715 446.31706,184.55077 446.42068,184.6544 446.62563,184.48527 446.7567,184.55077 446.94207,184.64347 447.01098,184.89773 447.19635,184.99042 447.32743,185.05592 447.53237,184.88679 447.63599,184.99042 447.73962,185.09404 447.53237,185.32644 447.63599,185.43006 447.84324,185.63731 448.30803,185.22281 448.51528,185.43006 448.61891,185.53369 448.41166,185.76608 448.51528,185.86971 448.61891,185.97333 448.82385,185.80421 448.95493,185.86971 449.1403,185.96241 449.2092,186.21667 449.39457,186.30935 449.52565,186.37485 449.73059,186.20573 449.83422,186.30935 449.93784,186.41298 449.73059,186.64537 449.83422,186.749 449.93784,186.85262 450.17024,186.64537 450.27386,186.749 450.37749,186.85262 450.17024,187.08502 450.27386,187.18864 450.37749,187.29227 450.60988,187.08502 450.71351,187.18864 450.81713,187.29227 450.60988,187.52466 450.71351,187.62829 450.92076,187.83554 451.38555,187.42104 451.5928,187.62829 451.69643,187.73191 451.48917,187.96431 451.5928,188.06793 451.69643,188.17156 451.90137,188.00243 452.03244,188.06793 452.21782,188.16063 452.28672,188.41489 452.47209,188.50758 452.60317,188.57308 452.80811,188.40395 452.91174,188.50758 453.01536,188.6112 452.80811,188.8436 452.91174,188.94722 453.01536,189.05085 453.2203,188.88172 453.35138,188.94722 453.53675,189.03992 453.60565,189.29418 453.79103,189.38687 453.9221,189.45237 454.09959,189.32137 454.23067,189.38687 455.68879,190.84499 453.81617,189.17962 455.10996,189.82651 455.29533,189.91921 455.36424,190.17347 455.54961,190.26616 455.68068,190.33166 455.85817,190.20066 455.98925,190.26616 456.17462,190.35886 456.24353,190.61312 456.4289,190.7058 456.55997,190.7713 456.73746,190.6403 456.86854,190.7058 457.05391,190.7985 457.12282,191.05276 457.30819,191.14545 457.43926,191.21095 457.61675,191.07995 457.74783,191.14545 457.9332,191.23815 458.00211,191.49241 458.18748,191.58509 458.44963,191.71617 458.85952,191.37784 459.06677,191.58509 459.17039,191.68872 458.96314,191.92111 459.06677,192.02474 459.27402,192.23199 459.6839,191.89366 459.94606,192.02474 460.13143,192.11744 460.20033,192.3717 460.3857,192.46438 460.51678,192.52988 460.72172,192.36076 460.82535,192.46438 460.92897,192.56801 460.72172,192.8004 460.82535,192.90403 461.0326,193.11128 461.49739,192.69678 461.70464,192.90403 461.80826,193.00765 461.60101,193.24005 461.70464,193.34367 461.80826,193.4473 462.01321,193.27817 462.14428,193.34367 462.65641,193.59974 462.95109,193.9669 463.46322,194.22296 463.72537,194.35404 464.08035,194.09189 464.34251,194.22296 464.52788,194.31566 464.59678,194.56992 464.78215,194.66261 464.91323,194.72811 465.11817,194.55898 465.2218,194.66261 465.32542,194.76623 465.11817,194.99863 465.2218,195.10225 465.42905,195.30951 465.83894,194.97118 466.10109,195.10225 466.28646,195.19495 466.35536,195.44921 466.54073,195.5419 466.67181,195.6074 466.8493,195.4764 466.98038,195.5419 467.16575,195.6346 467.23465,195.88886 467.42002,195.98154 467.5511,196.04704 467.75604,195.87792 467.85967,195.98154 467.96329,196.08517 467.75604,196.31756 467.85967,196.42119 467.96329,196.52482 468.19569,196.31756 468.29931,196.42119 468.40294,196.52482 468.19569,196.75721 468.29931,196.86084 468.40294,196.96446 468.60788,196.79534 468.73896,196.86084 468.92433,196.95354 468.99323,197.20779 469.1786,197.30048 469.30968,197.36598 469.51462,197.19685 469.61825,197.30048 469.72188,197.40411 469.51462,197.6365 469.61825,197.74013 469.72188,197.84375 469.92682,197.67463 470.05789,197.74013 470.42864,197.9255 470.56644,198.43405 470.93719,198.61942 471.06826,198.68492 471.2732,198.51579 471.37683,198.61942 471.48046,198.72304 471.2732,198.95544 471.37683,199.05906 471.48046,199.16269 471.71285,198.95544 471.81648,199.05906 471.9201,199.16269 471.71285,199.39508 471.81648,199.49871 471.9201,199.60233 472.1525,199.39508 472.25612,199.49871 472.35975,199.60233 472.1525,199.83473 472.25612,199.93835 472.35975,200.04198 472.59214,199.83473 472.69577,199.93835 472.79939,200.04198 472.59214,200.27437 472.69577,200.378 472.79939,200.48162 473.03179,200.27437 473.13541,200.378 473.23904,200.48162 473.03179,200.71402 473.13541,200.81764 473.23904,200.92127 473.47143,200.71402 473.57506,200.81764 473.67868,200.92127 473.47143,201.15366 473.57506,201.25729 473.67868,201.36091 473.91108,201.15366 474.0147,201.25729 474.11833,201.36091 473.91108,201.59331 474.0147,201.69693 474.11833,201.80056 474.35072,201.59331 474.45435,201.69693 474.45435,202.86932 474.3078,201.55038 474.89399,202.13658 474.99762,202.2402 474.82849,202.44514 474.89399,202.57622 475.12743,203.04309 475.53985,202.98864 475.77328,203.45551 475.83878,203.58659 475.66966,203.79153 475.77328,203.89516 475.87691,203.99878 476.1093,203.79153 476.21293,203.89516 476.31655,203.99878 476.1093,204.23118 476.21293,204.3348 476.31655,204.43843 476.54895,204.23118 476.65257,204.3348 476.85982,204.54205 476.44532,205.00684 476.65257,205.21409 476.7562,205.31772 476.98859,205.11047 477.09222,205.21409 477.19584,205.31772 477.02672,205.52266 477.09222,205.65374 477.34828,206.16587 477.71544,206.46054 477.97151,206.97267 478.03701,207.10375 477.86788,207.30869 477.97151,207.41232 478.07513,207.51594 478.30753,207.30869 478.41115,207.41232 478.6184,207.61957 478.2039,208.08436 478.41115,208.29161 478.51478,208.39523 478.74717,208.18798 478.8508,208.29161 479.05805,208.49886 478.64355,208.96365 478.8508,209.1709 478.95442,209.27452 479.18682,209.06727 479.29044,209.1709 479.51027,209.39072 479.07062,210.27001 479.29044,210.48983 479.71243,210.91182 479.73009,210.09713 479.73009,211.36912 479.73009,211.63741 479.55879,212.9564 479.73009,213.1277 479.83371,213.23133 480.06611,213.02408 480.16973,213.1277 480.28611,213.24408 480.16973,214.26561 480.16973,214.44664 480.16973,215.09871 480.40126,217.50075 480.16973,217.9638 480.07703,218.14917 479.82277,218.21808 479.73009,218.40345 479.59901,218.6656 479.86116,219.02058 479.73009,219.28274 479.63739,219.46811 479.38313,219.53701 479.29044,219.72238 479.22494,219.85346 479.39407,220.0584 479.29044,220.16203 479.18682,220.26565 478.95442,220.0584 478.8508,220.16203 478.55722,220.4556 479.14438,220.74774 478.8508,221.04132 478.74717,221.14494 478.51478,220.93769 478.41115,221.04132 478.30753,221.14494 478.51478,221.37734 478.41115,221.48096 478.30753,221.58459 478.07513,221.37734 477.97151,221.48096 477.86788,221.58459 478.07513,221.81698 477.97151,221.92061 477.86788,222.02423 477.63549,221.81698 477.53186,221.92061 477.42824,222.02423 477.63549,222.25663 477.53186,222.36025 477.42824,222.46388 477.19584,222.25663 477.09222,222.36025 476.98859,222.46388 477.19584,222.69627 477.09222,222.7999 476.98859,222.90352 476.7562,222.69627 476.65257,222.7999 476.54895,222.90352 476.71807,223.10847 476.65257,223.23954 476.4672,223.61028 476.14402,223.93346 475.77328,224.11883 475.6422,224.18433 475.43726,224.01521 475.33364,224.11883 475.23001,224.22246 475.43726,224.45485 475.33364,224.55848 475.23001,224.6621 474.99762,224.45485 474.89399,224.55848 474.79037,224.6621 474.99762,224.8945 474.89399,224.99812 474.79037,225.10175 474.58542,224.93262 474.45435,224.99812 474.26898,225.09082 474.20007,225.34508 474.0147,225.43777 473.42851,225.73086 472.40267,225.14467 471.81648,225.43777 471.6311,225.53047 471.5622,225.78473 471.37683,225.87741 471.11138,226.01014 470.26113,225.67418 470.05789,225.87741 469.95427,225.98104 470.16152,226.21343 470.05789,226.31706 469.94152,226.43344 468.91999,226.31706 468.73896,226.31706 467.96298,226.31706 463.87964,226.52527 463.46322,226.31706 463.27785,226.22436 463.20894,225.9701 463.02357,225.87741 462.43738,225.58432 461.41154,226.17051 460.82535,225.87741 460.63998,225.78471 460.57107,225.53045 460.3857,225.43777 460.25463,225.37227 460.07713,225.50327 459.94606,225.43777 459.76069,225.34507 459.69178,225.09081 459.50641,224.99812 459.24426,224.86705 458.88928,225.1292 458.62712,224.99812 458.44175,224.90542 458.37285,224.65116 458.18748,224.55848 457.83576,224.38262 457.22026,224.73434 456.86854,224.55848 456.35641,224.30241 456.06174,223.93525 455.54961,223.67919 455.28745,223.54811 454.93247,223.81026 454.67032,223.67919 454.48495,223.58649 454.41604,223.33223 454.23067,223.23954 453.87895,223.06368 453.26345,223.4154 452.91174,223.23954 452.72636,223.14684 452.65746,222.89258 452.47209,222.7999 452.20994,222.66882 451.85495,222.93097 451.5928,222.7999 451.40743,222.7072 451.33853,222.45294 451.15315,222.36025 451.02208,222.29475 450.84459,222.42575 450.71351,222.36025 450.20138,222.10419 449.9067,221.73703 449.39457,221.48096 449.13242,221.34989 448.77744,221.61204 448.51528,221.48096 448.32991,221.38826 448.26101,221.134 448.07564,221.04132 447.94456,220.97582 447.76707,221.10682 447.63599,221.04132 446.6353,220.04062 447.72709,220.92512 446.7567,220.60167 445.85404,220.30078 445.48243,219.51372 444.55848,219.28274 444.27413,219.21164 443.96353,219.35384 443.67919,219.28274 442.88346,219.54772 442.86152,218.57054 442.36025,218.40345 442.0822,218.31075 441.76531,218.47455 441.48096,218.40345 440.84515,218.24449 440.3582,217.68311 439.72238,217.52416 439.43804,217.45306 439.12744,217.59526 438.84309,217.52416 438.04736,217.78914 438.02543,216.81196 437.52416,216.64487 437.2461,216.55217 436.92921,216.71597 436.64487,216.64487 436.00905,216.48591 435.50804,215.97283 434.88629,215.76558 434.74726,215.71928 434.58567,215.81188 434.44664,215.76558 432.8528,215.23429 434.13375,215.55698 433.1277,214.88629 433.1778,214.05341 432.10187,214.59319 431.80877,214.44664 431.6234,214.35394 431.55449,214.09968 431.36912,214.00699 431.23805,213.94149 431.06056,214.07249 430.92948,214.00699 430.74411,213.91429 430.6752,213.66004 430.48983,213.56735 430.35876,213.50185 430.19674,213.56735 430.05019,213.56735 429.75709,213.4208 429.44355,213.30948 429.1709,213.1277 428.99158,213.00816 428.01548,212.33017 427.85196,212.24841 427.58981,212.11734 427.17992,212.45567 426.97267,212.24841 426.86905,212.14479 427.0763,211.91239 426.97267,211.80877 426.75285,211.58895 425.87356,212.02859 425.65374,211.80877 425.55011,211.70514 425.75736,211.47275 425.65374,211.36912 425.53736,211.25275 424.51583,211.36912 424.3348,211.36912 424.04171,211.36912 423.66276,211.57637 423.45551,211.36912 423.35189,211.2655 423.55914,211.0331 423.45551,210.92948 423.39351,210.86748 422.22676,210.88438 422.13658,210.92948 421.95121,211.02218 421.8823,211.27644 421.69693,211.36912 420.9935,211.72084 419.76249,211.01741 419.05906,211.36912 418.87369,211.46182 418.80479,211.71608 418.61942,211.80877 418.25337,211.99179 417.13971,211.5299 416.86084,211.80877 416.75721,211.91239 416.96446,212.14479 416.86084,212.24841 416.65358,212.45567 416.1888,212.04116 415.98154,212.24841 415.87792,212.35204 416.08517,212.58443 415.98154,212.68806 415.76172,212.90788 414.88243,212.46824 414.66261,212.68806 414.55898,212.79168 414.76623,213.02408 414.66261,213.1277 414.36903,213.42128 414.0769,212.83413 413.78332,213.1277 413.67969,213.23133 413.88694,213.46372 413.78332,213.56735 413.67969,213.67098 413.49022,213.56735 413.34367,213.56735 412.6916,213.56735 410.28957,213.79888 409.82651,213.56735 409.64114,213.47465 409.57224,213.22039 409.38687,213.1277 408.5662,212.71737 407.13002,213.53804 406.30935,213.1277 406.12398,213.035 406.05508,212.78074 405.86971,212.68806 405.28352,213.1277 404.73945,213.63 404.11113,214.00699 403.64247,214.28819 403.52304,213.71295 403.23184,213.56735 402.96968,213.43627 402.6147,213.69843 402.35255,213.56735 402.16718,213.47465 402.09827,213.22039 401.9129,213.1277 401.56118,212.95185 400.94568,213.30356 400.59397,213.1277 400.40859,213.035 400.33969,212.78074 400.15432,212.68806 399.68537,212.45358 398.86469,212.92254 398.39574,212.68806 398.21037,212.59536 398.15271,212.31395 397.95609,212.24841 395.95471,212.24841 397.93099,212.45567 396.63716,211.80877 396.37501,211.67769 396.02002,211.93985 395.75787,211.80877 395.5725,211.71607 395.50359,211.46181 395.31822,211.36912 394.96651,211.19327 394.351,211.54498 393.99929,211.36912 393.81392,211.27642 393.74501,211.02216 393.55964,210.92948 392.97345,210.63638 391.94761,211.22258 391.36142,210.92948 391.17605,210.83678 391.10714,210.58252 390.92177,210.48983 390.1011,210.0795 388.66493,210.90017 387.84426,210.48983 387.65889,210.39713 387.58998,210.14287 387.40461,210.05019 386.56614,209.63095 384.28628,210.46942 383.44781,210.05019 383.26244,209.95749 383.19353,209.70323 383.00816,209.61054 382.16969,209.19131 379.88983,210.02978 379.05135,209.61054 378.86598,209.51784 378.79708,209.26358 378.61171,209.1709 378.19529,208.96269 374.11195,209.1709 373.33597,209.1709 372.45668,209.1709 371.57739,209.1709 370.6981,209.1709 370.55155,209.1709 370.25845,209.02435 370.25845,209.1709 370.25845,209.31745 370.59447,209.06727 370.6981,209.1709 370.92091,209.39371 370.52572,210.22256 371.57739,209.1709"
       inkscape:connector-curvature="0"
       id="path3154"
       style="opacity:0.6;fill:none;stroke:#e20000;stroke-opacity:1" />
    <path
       d="M 480.60938,161.68923 C 481.48427,161.83695 482.77043,162.05452 483.24725,163.00816 483.31275,163.13924 483.14362,163.34418 483.24725,163.44781 483.35087,163.55143 483.58327,163.34418 483.68689,163.44781 483.79052,163.55143 483.62139,163.75637 483.68689,163.88745 483.87226,164.25819 484.38081,164.396 484.56618,164.76674 484.63168,164.89782 484.50068,165.07531 484.56618,165.20639 484.65888,165.39176 484.91314,165.46066 485.00583,165.64603 485.07133,165.77711 484.9022,165.98205 485.00583,166.08568 485.10945,166.1893 485.34185,165.98205 485.44547,166.08568 485.65272,166.29293 485.3144,166.70281 485.44547,166.96497 485.53817,167.15034 485.79243,167.21924 485.88512,167.40461 486.0162,167.66677 485.67787,168.07665 485.88512,168.2839 485.98874,168.38753 486.22114,168.18028 486.32476,168.2839 486.54459,168.50372 486.10494,169.38302 486.32476,169.60284 486.42839,169.70646 486.66078,169.49921 486.76441,169.60284 486.99189,169.83031 486.54555,172.24263 486.76441,172.68035 486.85711,172.86572 487.11137,172.93463 487.20405,173.12 487.33513,173.38215 486.9968,173.79204 487.20405,173.99929 487.30768,174.10291 487.54007,173.89566 487.6437,173.99929 487.86352,174.21911 487.42388,175.0984 487.6437,175.31822 487.74733,175.42185 487.97972,175.2146 488.08334,175.31822 488.2906,175.52547 487.87609,175.99026 488.08334,176.19751 488.18697,176.30114 488.41936,176.09389 488.52299,176.19751 488.73024,176.40477 488.31574,176.86955 488.52299,177.0768 488.62662,177.18043 488.85901,176.97318 488.96264,177.0768 489.16989,177.28406 488.83156,177.69394 488.96264,177.95609 489.14801,178.32684 489.65655,178.46464 489.84193,178.83539 489.973,179.09754 489.63467,179.50742 489.84193,179.71468 489.94555,179.8183 490.17795,179.61105 490.28157,179.71468 490.48882,179.92193 490.07432,180.38671 490.28157,180.59397 490.3852,180.69759 490.61759,180.49034 490.72122,180.59397 490.92847,180.80122 490.59014,181.2111 490.72122,181.47326 490.97728,181.98539 491.34444,182.28006 491.60051,182.79219 491.73158,183.05434 491.46943,183.40933 491.60051,183.67148 491.69321,183.85685 491.94747,183.92576 492.04015,184.11113 492.17123,184.37328 491.90907,184.72826 492.04015,184.99042 492.13285,185.17579 492.38711,185.24469 492.4798,185.43006 492.65565,185.78178 492.30394,186.39728 492.4798,186.749 492.5725,186.93437 492.82676,187.00327 492.91944,187.18864 493.15392,187.6576 492.68496,188.47827 492.91944,188.94722 493.01214,189.13259 493.2664,189.2015 493.35909,189.38687 493.8252,190.31909 492.89297,192.8511 493.35909,193.78332 493.45179,193.96869 493.70605,194.03759 493.79873,194.22296 494.09183,194.80916 493.50563,195.835 493.79873,196.42119 494.0014,196.82652 494.53948,197.13793 494.23838,197.74013 494.14568,197.9255 493.89142,197.9944 493.79873,198.17977 493.56425,198.64873 494.03321,199.4694 493.79873,199.93835 493.54267,200.45048 493.17551,200.74516 492.91944,201.25729 492.78836,201.51944 493.12669,201.92933 492.91944,202.13658 492.81582,202.2402 492.58342,202.03295 492.4798,202.13658 492.27255,202.34383 492.61087,202.75371 492.4798,203.01587 492.3871,203.20124 492.13284,203.27014 492.04015,203.45551 491.77898,203.97785 492.04015,209.07829 492.04015,210.05019 492.04015,210.68687 491.76154,212.13083 492.04015,212.68806 492.13285,212.87343 492.38711,212.94233 492.4798,213.1277 492.75841,213.68494 492.4798,215.12889 492.4798,215.76558 492.4798,216.78945 492.5186,216.28283 492.91944,217.08451 493.21254,217.6707 492.62634,218.69654 492.91944,219.28274 493.01214,219.46811 493.2664,219.53701 493.35909,219.72238 493.58499,220.17418 493.35909,224.59639 493.35909,225.43777 493.35909,225.77464 493.38969,228.9243 493.35909,228.95493 493.25546,229.05855 493.02307,228.8513 492.91944,228.95493 492.4798,229.39457 493.35909,231.15315 492.91944,231.5928 492.81582,231.69643 492.58342,231.48917 492.4798,231.5928 492.20092,231.87167 492.66282,232.98534 492.4798,233.35138 492.3871,233.53675 492.13284,233.60565 492.04015,233.79103 491.85713,234.15707 492.31902,235.27073 492.04015,235.54961 491.93653,235.65323 491.70413,235.44598 491.60051,235.54961 491.30741,235.8427 491.8936,237.01509 491.60051,237.30819 491.49688,237.41181 491.26449,237.20456 491.16086,237.30819 490.94104,237.52801 491.38068,238.4073 491.16086,238.62712 491.05724,238.73075 490.82484,238.5235 490.72122,238.62712 490.51397,238.83437 490.85229,239.24426 490.72122,239.50641 490.46515,240.01854 490.09799,240.31322 489.84193,240.82535 489.77643,240.95642 489.94555,241.16137 489.84193,241.26499 489.7383,241.36862 489.50591,241.16137 489.40228,241.26499 489.29865,241.36862 489.46778,241.57356 489.40228,241.70464 489.30958,241.89001 489.05532,241.95891 488.96264,242.14428 488.89714,242.27536 489.06626,242.4803 488.96264,242.58393 488.85901,242.68755 488.62662,242.4803 488.52299,242.58393 488.41936,242.68755 488.62662,242.91995 488.52299,243.02357 488.41936,243.1272 488.22989,243.02357 488.08334,243.02357 488.08334,243.17012 488.18697,243.35959 488.08334,243.46322 487.97972,243.56684 487.74733,243.35959 487.6437,243.46322 487.54007,243.56684 487.74733,243.79924 487.6437,243.90286 487.54007,244.00649 487.30768,243.79924 487.20405,243.90286 487.10043,244.00649 487.26955,244.21143 487.20405,244.34251 487.05751,244.63561 486.17822,245.5149 485.88512,245.66144 485.75404,245.72694 485.5491,245.55782 485.44547,245.66144 485.34185,245.76507 485.5491,245.99746 485.44547,246.10109 485.34185,246.20471 485.10945,245.99746 485.00583,246.10109 484.9022,246.20471 485.10945,246.43711 485.00583,246.54073 484.79858,246.74798 484.33379,246.33348 484.12654,246.54073 484.02291,246.64436 484.23016,246.87675 484.12654,246.98038 484.02291,247.084 483.81797,246.91488 483.68689,246.98038 483.50152,247.07308 483.43262,247.32734 483.24725,247.42002 483.11617,247.48552 482.91123,247.3164 482.8076,247.42002 482.70398,247.52365 482.91123,247.75604 482.8076,247.85967 482.58778,248.07949 481.70849,247.63985 481.48867,247.85967 481.38504,247.96329 481.59229,248.19569 481.48867,248.29931 481.28544,248.50255 480.43518,248.16659 480.16973,248.29931 479.6576,248.55538 479.36293,248.92254 478.8508,249.1786 478.48475,249.36163 477.37109,248.89973 477.09222,249.1786 476.98859,249.28223 477.19584,249.51462 477.09222,249.61825 476.88497,249.8255 476.42018,249.411 476.21293,249.61825 476.1093,249.72188 476.31655,249.95427 476.21293,250.05789 475.77328,250.49754 474.0147,249.61825 473.57506,250.05789 473.47143,250.16152 473.67868,250.39391 473.57506,250.49754 473.40375,250.66884 472.08477,250.49754 471.81648,250.49754 471.52338,250.49754 471.19934,250.36646 470.93719,250.49754 470.75181,250.59024 470.70479,250.93719 470.49754,250.93719 470.29029,250.93719 470.24327,250.59023 470.05789,250.49754 469.4717,250.20444 468.44586,250.79064 467.85967,250.49754 467.6743,250.40484 467.60539,250.15058 467.42002,250.05789 467.15787,249.92682 466.80289,250.18897 466.54073,250.05789 466.35536,249.96519 466.28646,249.71094 466.10109,249.61825 465.97001,249.55275 465.76507,249.72188 465.66144,249.61825 465.55782,249.51462 465.76507,249.28223 465.66144,249.1786 465.45419,248.97135 464.9894,249.38586 464.78215,249.1786 464.67853,249.07498 464.84765,248.87004 464.78215,248.73896 464.68945,248.55359 464.43519,248.48469 464.34251,248.29931 464.27701,248.16824 464.44613,247.96329 464.34251,247.85967 464.23888,247.75604 464.00649,247.96329 463.90286,247.85967 463.79924,247.75604 463.96836,247.5511 463.90286,247.42002 463.6468,246.90789 463.27964,246.61322 463.02357,246.10109 462.8925,245.83894 463.23082,245.42905 463.02357,245.2218 462.91995,245.11817 462.68755,245.32542 462.58393,245.2218 462.4803,245.11817 462.68755,244.88578 462.58393,244.78215 462.4803,244.67853 462.24791,244.88578 462.14428,244.78215 461.23464,243.87251 463.53434,244.81775 461.70464,243.90286 461.57356,243.83736 461.36862,244.00649 461.26499,243.90286 461.16137,243.79924 461.33049,243.59429 461.26499,243.46322 461.00121,242.93564 460.20984,242.67186 459.94606,242.14428 459.88056,242.01321 460.01156,241.83571 459.94606,241.70464 459.68999,241.19251 459.32283,240.89783 459.06677,240.3857 459.00127,240.25463 459.13227,240.07713 459.06677,239.94606 458.97407,239.76069 458.71981,239.69178 458.62712,239.50641 458.56162,239.37534 458.69262,239.19784 458.62712,239.06677 458.53442,238.8814 458.28016,238.81249 458.18748,238.62712 458.12198,238.49604 458.25298,238.31855 458.18748,238.18748 458.09478,238.00211 457.84052,237.9332 457.74783,237.74783 457.61511,237.48239 457.95106,236.63213 457.74783,236.4289 457.64421,236.32527 457.41181,236.53252 457.30819,236.4289 457.10495,236.22566 457.44091,235.37541 457.30819,235.10996 457.21549,234.92459 456.96123,234.85569 456.86854,234.67032 456.73582,234.40487 457.07177,233.55461 456.86854,233.35138 456.76492,233.24775 456.53252,233.45501 456.4289,233.35138 456.25759,233.18008 456.4289,231.86109 456.4289,231.5928 456.4289,230.3208 456.4112,231.13549 455.98925,230.71351 455.94795,230.67221 455.98925,226.74066 455.98925,226.31706 455.98925,226.02396 455.782,225.64502 455.98925,225.43777 456.09288,225.33414 456.32527,225.54139 456.4289,225.43777 456.54527,225.32139 456.4289,224.29986 456.4289,224.11883 456.4289,223.97228 456.57544,223.67919 456.4289,223.67919 456.28235,223.67919 456.79527,224.55848 455.98925,224.55848"
       inkscape:connector-curvature="0"
       id="path3156"
       style="opacity:0.6;fill:none;stroke:#e20000;stroke-opacity:1" />
    <path
       d="M 404.55077,214.44664 C 404.84387,215.03283 404.84387,216.49832 405.43006,216.20522 406.01626,215.91212 404.08735,213.98321 404.55077,214.44664 405.15501,215.05087 405.33589,215.9776 405.86971,216.64487 405.96121,216.7593 406.20573,216.54124 406.30935,216.64487 406.41298,216.74849 406.20573,216.98089 406.30935,217.08451 406.41298,217.18814 406.64537,216.98089 406.749,217.08451 406.85262,217.18814 406.64537,217.42053 406.749,217.52416 406.85262,217.62778 407.08502,217.42053 407.18864,217.52416 407.29227,217.62778 407.08502,217.86018 407.18864,217.9638 407.29227,218.06743 407.52466,217.86018 407.62829,217.9638 407.73191,218.06743 407.56279,218.27237 407.62829,218.40345 407.81366,218.77419 408.32221,218.912 408.50758,219.28274 408.57308,219.41381 408.40395,219.61876 408.50758,219.72238 408.6112,219.82601 408.81615,219.65688 408.94722,219.72238 410.77692,220.63723 408.47723,219.69208 409.38687,220.60167 409.49049,220.7053 409.72289,220.49805 409.82651,220.60167 409.93014,220.7053 409.72289,220.93769 409.82651,221.04132 409.93014,221.14494 410.16253,220.93769 410.26616,221.04132 410.47341,221.24857 410.05891,221.71336 410.26616,221.92061 410.36978,222.02423 410.60218,221.81698 410.7058,221.92061 410.80943,222.02423 410.60218,222.25663 410.7058,222.36025 410.80943,222.46388 411.04182,222.25663 411.14545,222.36025 411.3527,222.5675 411.01437,222.97739 411.14545,223.23954 411.23815,223.42491 411.49241,223.49382 411.58509,223.67919 411.93681,224.38262 411.23338,225.61363 411.58509,226.31706 411.67779,226.50243 411.93205,226.57133 412.02474,226.7567 412.08364,226.8744 412.08364,231.4751 412.02474,231.5928 411.93204,231.77817 411.67778,231.84707 411.58509,232.03244 411.45402,232.2946 411.71617,232.64958 411.58509,232.91174 411.49239,233.09711 411.23813,233.16601 411.14545,233.35138 411.01437,233.61353 411.27653,233.96852 411.14545,234.23067 411.05275,234.41604 410.79849,234.48495 410.7058,234.67032 410.6403,234.80139 410.80943,235.00634 410.7058,235.10996 410.60218,235.21359 410.36978,235.00634 410.26616,235.10996 410.06293,235.31319 410.39888,236.16345 410.26616,236.4289 410.17346,236.61427 409.9192,236.68317 409.82651,236.86854 409.69544,237.1307 409.95759,237.48568 409.82651,237.74783 409.73381,237.9332 409.47955,238.00211 409.38687,238.18748 409.25579,238.44963 409.59412,238.85952 409.38687,239.06677 409.28324,239.17039 409.05085,238.96314 408.94722,239.06677 408.8436,239.17039 409.01272,239.37534 408.94722,239.50641 408.85452,239.69178 408.60026,239.76069 408.50758,239.94606 408.3765,240.20821 408.63865,240.56319 408.50758,240.82535 408.41488,241.01072 408.16062,241.07962 408.06793,241.26499 407.89207,241.61671 408.24379,242.23221 408.06793,242.58393 407.81187,243.09606 407.44471,243.39073 407.18864,243.90286 407.12314,244.03394 407.29227,244.23888 407.18864,244.34251 407.08502,244.44613 406.85262,244.23888 406.749,244.34251 406.54175,244.54976 406.95625,245.01455 406.749,245.2218 405.57661,245.2218 406.89555,245.07525 406.30935,245.66144 406.01577,245.95502 405.72364,245.36787 405.43006,245.66144 405.32644,245.76507 405.53369,245.99746 405.43006,246.10109 405.30184,246.22932 402.92042,246.22932 402.79219,246.10109 402.68857,245.99746 402.89582,245.76507 402.79219,245.66144 402.58494,245.45419 402.12015,245.86869 401.9129,245.66144 401.80928,245.55782 402.01653,245.32542 401.9129,245.2218 401.80928,245.11817 401.57688,245.32542 401.47326,245.2218 401.36963,245.11817 401.57688,244.88578 401.47326,244.78215 401.36963,244.67853 401.16469,244.84765 401.03361,244.78215 400.66287,244.59678 400.33969,244.2736 400.15432,243.90286 400.08882,243.77179 400.25795,243.56684 400.15432,243.46322 400.0507,243.35959 399.8183,243.56684 399.71468,243.46322 399.71468,242.29083 399.86122,243.60977 399.27503,243.02357 399.1714,242.91995 399.37866,242.68755 399.27503,242.58393 399.1714,242.4803 398.93901,242.68755 398.83539,242.58393 398.73176,242.4803 398.93901,242.24791 398.83539,242.14428 398.73176,242.04066 398.49937,242.24791 398.39574,242.14428 398.29211,242.04066 398.46124,241.83571 398.39574,241.70464 398.13195,241.17706 397.34059,240.91328 397.0768,240.3857 397.0113,240.25463 397.18043,240.04968 397.0768,239.94606 396.97318,239.84243 396.74078,240.04968 396.63716,239.94606 396.53353,239.84243 396.74078,239.61004 396.63716,239.50641 396.53353,239.40279 396.30114,239.61004 396.19751,239.50641 396.09389,239.40279 396.30114,239.17039 396.19751,239.06677 396.09389,238.96314 395.86149,239.17039 395.75787,239.06677 395.65424,238.96314 395.82337,238.7582 395.75787,238.62712 395.5725,238.25638 395.06395,238.11857 394.87858,237.74783 394.81308,237.61675 394.9822,237.41181 394.87858,237.30819 394.77495,237.20456 394.54256,237.41181 394.43893,237.30819 394.23168,237.10094 394.64618,236.63615 394.43893,236.4289 394.33531,236.32527 394.10291,236.53252 393.99929,236.4289 393.89566,236.32527 394.10291,236.09288 393.99929,235.98925 393.89566,235.88563 393.66327,236.09288 393.55964,235.98925 393.45602,235.88563 393.62514,235.68068 393.55964,235.54961 393.46694,235.36424 393.21268,235.29533 393.12,235.10996 392.88514,234.64024 393.35486,234.7004 393.12,234.23067 393.0273,234.0453 392.77304,233.9764 392.68035,233.79103 392.61485,233.65995 392.78398,233.45501 392.68035,233.35138 392.57673,233.24775 392.34433,233.45501 392.24071,233.35138 392.03346,233.14413 392.37179,232.73424 392.24071,232.47209 392.14801,232.28672 391.89375,232.21782 391.80106,232.03244 391.66999,231.77029 392.00831,231.36041 391.80106,231.15315 391.69744,231.04953 391.46504,231.25678 391.36142,231.15315 391.06832,230.86006 391.65451,229.68767 391.36142,229.39457 391.25779,229.29095 391.0254,229.4982 390.92177,229.39457 390.5554,229.0282 391.28814,227.56272 390.92177,227.19635 390.81815,227.09272 390.58575,227.29997 390.48213,227.19635 390.45153,227.16575 390.48213,224.01606 390.48213,223.67919 390.48213,223.38609 390.27488,223.00715 390.48213,222.7999 390.58575,222.69627 390.81815,222.90352 390.92177,222.7999 391.12902,222.59265 390.71452,222.12786 390.92177,221.92061 391.0254,221.81698 391.25779,222.02423 391.36142,221.92061 391.58124,221.70078 391.1416,220.82149 391.36142,220.60167 391.46504,220.49805 391.69744,220.7053 391.80106,220.60167 392.00831,220.39442 391.66999,219.98454 391.80106,219.72238 391.89376,219.53701 392.14802,219.46811 392.24071,219.28274 392.37343,219.01729 392.03748,218.16703 392.24071,217.9638 392.34433,217.86018 392.57673,218.06743 392.68035,217.9638 392.97345,217.6707 392.38726,216.49832 392.68035,216.20522 392.78398,216.1016 393.01637,216.30885 393.12,216.20522 393.22362,216.1016 393.01637,215.8692 393.12,215.76558 393.22362,215.66195 393.45602,215.8692 393.55964,215.76558 393.66327,215.66195 393.45602,215.42956 393.55964,215.32593 393.66327,215.2223 393.89566,215.42956 393.99929,215.32593 394.10291,215.2223 393.89566,214.98991 393.99929,214.88629 394.10291,214.78266 394.30786,214.95179 394.43893,214.88629 394.6243,214.79359 394.69321,214.53933 394.87858,214.44664 395.00966,214.38114 395.2146,214.55027 395.31822,214.44664 395.42185,214.34301 395.2146,214.11062 395.31822,214.00699 396.22787,213.09735 395.28262,215.39705 396.19751,213.56735 396.19751,212.39496 396.05097,213.7139 396.63716,213.1277 396.84441,212.92045 396.42991,212.45567 396.63716,212.24841 396.74078,212.14479 396.97318,212.35204 397.0768,212.24841 397.1208,212.20441 397.1208,210.97344 397.0768,210.92948 396.88857,210.74125 396.34844,211.08041 395.75787,210.48983"
       inkscape:connector-curvature="0"
       id="path3158"
       style="opacity:0.6;fill:none;stroke:#e20000;stroke-opacity:1" />
    <path
       d="M 493.79873,198.17977 C 494.09183,197.59358 495.26422,196.71429 494.67802,196.42119 494.09183,196.12809 493.79873,198.83515 493.79873,198.17977 493.79873,197.39058 494.27199,196.65827 494.67802,195.98154 494.75342,195.85588 495.01404,196.08517 495.11767,195.98154 496.02731,195.0719 493.72761,196.01714 495.55731,195.10225 495.68839,195.03675 495.89333,195.20588 495.99696,195.10225 496.10058,194.99863 495.89333,194.76623 495.99696,194.66261 496.10058,194.55898 496.33298,194.76623 496.4366,194.66261 496.54023,194.55898 496.33298,194.32659 496.4366,194.22296 496.54023,194.11934 496.77262,194.32659 496.87625,194.22296 496.97987,194.11934 496.77262,193.88694 496.87625,193.78332 497.04755,193.61202 498.36654,193.78332 498.63483,193.78332 498.81586,193.78332 499.83739,193.66694 499.95376,193.78332 500.05739,193.88694 499.85014,194.11934 499.95376,194.22296 500.05739,194.32659 500.28978,194.11934 500.39341,194.22296 500.49703,194.32659 500.28978,194.55898 500.39341,194.66261 500.49703,194.76623 500.72943,194.55898 500.83305,194.66261 501.0403,194.86986 500.6258,195.33465 500.83305,195.5419 500.93668,195.64553 501.16907,195.43827 501.2727,195.5419 501.47995,195.74915 501.06545,196.21394 501.2727,196.42119 501.85889,197.00738 501.71234,195.68845 501.71234,196.86084 501.71234,197.04187 501.59597,198.06339 501.71234,198.17977 501.81597,198.2834 502.04836,198.07615 502.15199,198.17977 502.35924,198.38702 502.15199,198.76596 502.15199,199.05906 502.15199,199.39593 502.18259,202.5456 502.15199,202.57622 502.04836,202.67985 501.81597,202.4726 501.71234,202.57622 501.50911,202.77945 501.84507,203.62971 501.71234,203.89516 501.61964,204.08053 501.36538,204.14943 501.2727,204.3348 501.09684,204.68652 501.44856,205.30202 501.2727,205.65374 501.18,205.83911 500.92574,205.90801 500.83305,206.09338 500.70198,206.35554 500.96413,206.71052 500.83305,206.97267 500.57699,207.4848 500.20983,207.77948 499.95376,208.29161 499.77791,208.64332 500.12962,209.25883 499.95376,209.61054 499.86106,209.79591 499.6068,209.86482 499.51412,210.05019 499.3814,210.31563 499.71735,211.16589 499.51412,211.36912 499.41049,211.47275 499.1781,211.2655 499.07447,211.36912 498.87124,211.57236 499.2072,212.42261 499.07447,212.68806 498.98177,212.87343 498.72751,212.94233 498.63483,213.1277 498.41597,213.56542 498.8623,215.97774 498.63483,216.20522 498.5312,216.30885 498.29881,216.1016 498.19518,216.20522 498.09156,216.30885 498.19518,216.49832 498.19518,216.64487 498.19518,217.29694 497.96366,219.69897 498.19518,220.16203 498.28788,220.3474 498.54214,220.4163 498.63483,220.60167 498.98654,221.3051 498.28311,222.53611 498.63483,223.23954 498.72753,223.42491 498.98179,223.49382 499.07447,223.67919 499.2072,223.94463 498.87124,224.79489 499.07447,224.99812 499.1781,225.10175 499.41049,224.8945 499.51412,224.99812 499.73394,225.21795 499.2943,226.09724 499.51412,226.31706 499.61774,226.42068 499.85014,226.21343 499.95376,226.31706 500.16101,226.52431 499.74651,226.9891 499.95376,227.19635 500.05739,227.29997 500.28978,227.09272 500.39341,227.19635 500.60066,227.4036 500.26233,227.81349 500.39341,228.07564 500.48611,228.26101 500.74037,228.32991 500.83305,228.51528 500.96413,228.77744 500.6258,229.18732 500.83305,229.39457 500.93668,229.4982 501.16907,229.29095 501.2727,229.39457 501.47995,229.60182 501.14162,230.01171 501.2727,230.27386 501.3654,230.45924 501.61966,230.52814 501.71234,230.71351 501.84342,230.97566 501.58127,231.33065 501.71234,231.5928 503.17046,233.05092 501.50509,231.1783 502.15199,232.47209 502.24469,232.65746 502.49895,232.72636 502.59163,232.91174 502.65713,233.04281 502.52613,233.2203 502.59163,233.35138 502.68433,233.53675 502.93859,233.60565 503.03128,233.79103 503.09678,233.9221 502.98498,234.09164 503.03128,234.23067 503.1349,234.54155 503.3673,234.79908 503.47092,235.10996 503.51722,235.24899 503.3673,235.44598 503.47092,235.54961 503.57455,235.65323 503.80694,235.44598 503.91057,235.54961 504.01419,235.65323 503.84507,235.85817 503.91057,235.98925 504.09594,236.35999 504.60449,236.4978 504.78986,236.86854 504.85536,236.99962 504.72436,237.17711 504.78986,237.30819 504.88256,237.49356 505.16397,237.55122 505.2295,237.74783 505.3222,238.02589 505.1368,238.34907 505.2295,238.62712 505.2929,238.81746 506.00508,239.73863 506.10879,239.94606 506.23987,240.20821 505.90154,240.6181 506.10879,240.82535 506.21242,240.92897 506.44481,240.72172 506.54844,240.82535 506.75167,241.02858 506.41572,241.87884 506.54844,242.14428 506.94928,242.94596 506.98809,242.43935 506.98809,243.46322 506.98809,243.75631 506.78083,244.13526 506.98809,244.34251 507.09171,244.44613 507.32411,244.23888 507.42773,244.34251 507.63096,244.54574 507.29501,245.396 507.42773,245.66144 507.52043,245.84681 507.77469,245.91572 507.86738,246.10109 507.92618,246.21879 507.92618,250.81949 507.86738,250.93719 507.77468,251.12256 507.52042,251.19146 507.42773,251.37683 507.25187,251.72855 507.60359,252.34405 507.42773,252.69577 507.33503,252.88114 507.08077,252.95004 506.98809,253.13541 506.85701,253.39756 507.11916,253.75255 506.98809,254.0147 506.87137,254.24814 506.22551,254.66056 506.10879,254.89399 506.04329,255.02507 506.17429,255.20256 506.10879,255.33364 505.92342,255.70438 505.41488,255.84219 505.2295,256.21293 505.164,256.344 505.33313,256.54895 505.2295,256.65257 505.12588,256.7562 504.92094,256.58707 504.78986,256.65257 503.91057,257.09222 503.47092,258.41115 502.59163,258.8508 502.46056,258.9163 502.28307,258.7853 502.15199,258.8508 501.78125,259.03617 501.64344,259.54472 501.2727,259.73009 501.14162,259.79559 500.93668,259.62646 500.83305,259.73009 500.72943,259.83371 500.93668,260.06611 500.83305,260.16973 500.72943,260.27336 500.52449,260.10423 500.39341,260.16973 500.20804,260.26243 500.13913,260.51669 499.95376,260.60938 499.82269,260.67488 499.61774,260.50575 499.51412,260.60938 499.41049,260.713 499.61774,260.9454 499.51412,261.04902 499.41049,261.15265 499.1781,260.9454 499.07447,261.04902 498.97085,261.15265 499.13997,261.35759 499.07447,261.48867 498.8891,261.85941 498.48828,262.07486 498.19518,262.36796 498.04863,262.51451 497.94091,262.71492 497.75554,262.8076 497.62446,262.8731 497.41952,262.70398 497.31589,262.8076 497.21227,262.91123 497.38139,263.11617 497.31589,263.24725 497.05211,263.77482 496.26074,264.03861 495.99696,264.56618 495.93146,264.69726 496.10058,264.9022 495.99696,265.00583 495.89333,265.10945 495.66094,264.9022 495.55731,265.00583 495.45369,265.10945 495.66094,265.34185 495.55731,265.44547 495.45369,265.5491 495.22129,265.34185 495.11767,265.44547 494.91042,265.65272 495.32492,266.11751 495.11767,266.32476 495.01404,266.42839 494.78165,266.22114 494.67802,266.32476 494.47077,266.53202 494.8091,266.9419 494.67802,267.20405 494.58532,267.38943 494.33106,267.45833 494.23838,267.6437 494.17288,267.77478 494.23838,267.9368 494.23838,268.08334 494.09183,268.22989 493.89142,268.33762 493.79873,268.52299 493.73323,268.65407 493.86423,268.83156 493.79873,268.96264 493.70603,269.14801 493.45177,269.21691 493.35909,269.40228 493.29359,269.53336 493.42459,269.71085 493.35909,269.84193 493.26639,270.0273 493.01213,270.0962 492.91944,270.28157 492.78836,270.54372 493.05052,270.89871 492.91944,271.16086 492.66338,271.67299 492.29622,271.96767 492.04015,272.4798 491.97465,272.61087 492.10565,272.78836 492.04015,272.91944 491.94745,273.10481 491.69319,273.17372 491.60051,273.35909 491.53501,273.49016 491.66601,273.66765 491.60051,273.79873 491.34444,274.31086 490.97728,274.60554 490.72122,275.11767 490.65572,275.24874 490.78672,275.42624 490.72122,275.55731 490.62852,275.74268 490.37426,275.81159 490.28157,275.99696 490.21607,276.12803 490.3852,276.33298 490.28157,276.4366 490.17795,276.54023 489.94555,276.33298 489.84193,276.4366 489.7383,276.54023 489.90743,276.74517 489.84193,276.87625 488.38381,278.33437 490.04918,276.46175 489.40228,277.75554 489.13849,278.28311 488.34713,278.5469 488.08334,279.07447 488.01784,279.20555 488.14884,279.38304 488.08334,279.51412 487.73163,280.21755 486.67648,280.56927 486.32476,281.2727 486.25926,281.40378 486.42839,281.60872 486.32476,281.71234 486.22114,281.81597 485.98874,281.60872 485.88512,281.71234 485.78149,281.81597 485.95062,282.02091 485.88512,282.15199 485.62133,282.67956 484.82997,282.94335 484.56618,283.47092 484.50068,283.602 484.63168,283.77949 484.56618,283.91057 484.38081,284.28131 483.87226,284.41912 483.68689,284.78986 483.62139,284.92094 483.75239,285.09843 483.68689,285.2295 483.59419,285.41488 483.33993,285.48378 483.24725,285.66915 483.18175,285.80023 483.35087,286.00517 483.24725,286.10879 483.14362,286.21242 482.91123,286.00517 482.8076,286.10879 482.70398,286.21242 482.8731,286.41736 482.8076,286.54844 482.7149,286.73381 482.46064,286.80271 482.36796,286.98809 482.23688,287.25024 482.57521,287.66012 482.36796,287.86738 482.26433,287.971 482.03194,287.76375 481.92831,287.86738 481.72106,288.07463 482.13556,288.53942 481.92831,288.74667 481.82469,288.85029 481.59229,288.64304 481.48867,288.74667 481.26885,288.96649 481.70849,289.84578 481.48867,290.0656 481.38504,290.16923 481.15265,289.96198 481.04902,290.0656 480.8292,290.28542 481.26885,291.16471 481.04902,291.38454 480.9454,291.48816 480.713,291.28091 480.60938,291.38454 480.38956,291.60436 480.8292,292.48365 480.60938,292.70347 480.50575,292.8071 480.27336,292.59985 480.16973,292.70347 479.96248,292.91072 480.30081,293.32061 480.16973,293.58276 479.91367,294.09489 479.54651,294.38957 479.29044,294.9017 479.15937,295.16385 479.42152,295.51883 479.29044,295.78099 479.19774,295.96636 478.94348,296.03526 478.8508,296.22063 478.61736,296.6875 479.08423,296.63305 478.8508,297.09992 478.7581,297.28529 478.50384,297.3542 478.41115,297.53957 478.28008,297.80172 478.54223,298.1567 478.41115,298.41886 478.31845,298.60423 478.06419,298.67313 477.97151,298.8585 477.84043,299.12066 478.10258,299.47564 477.97151,299.73779 477.87881,299.92316 477.62455,299.99207 477.53186,300.17744 477.40079,300.43959 477.66294,300.79458 477.53186,301.05673 477.43916,301.2421 477.1849,301.311 477.09222,301.49637 476.96114,301.75853 477.22329,302.11351 477.09222,302.37566 476.99952,302.56104 476.74526,302.62994 476.65257,302.81531 476.58707,302.94639 476.71807,303.12388 476.65257,303.25495 476.55987,303.44033 476.30561,303.50923 476.21293,303.6946 476.14743,303.82568 476.27843,304.00317 476.21293,304.13424 476.12023,304.31962 475.86597,304.38852 475.77328,304.57389 475.6422,304.83604 475.90436,305.19103 475.77328,305.45318 475.68058,305.63855 475.42632,305.70745 475.33364,305.89283 475.20256,306.15498 475.54089,306.56487 475.33364,306.77212 475.23001,306.87574 474.99762,306.66849 474.89399,306.77212 474.68674,306.97937 475.02507,307.38925 474.89399,307.65141 474.80129,307.83678 474.54703,307.90568 474.45435,308.09105 474.38885,308.22213 474.55797,308.42707 474.45435,308.5307 474.35072,308.63432 474.11833,308.42707 474.0147,308.5307 473.80745,308.73795 474.22195,309.20274 474.0147,309.40999 473.91108,309.51361 473.67868,309.30636 473.57506,309.40999 473.36781,309.61724 473.78231,310.08203 473.57506,310.28928 473.47143,310.3929 473.23904,310.18565 473.13541,310.28928 472.92816,310.49653 473.34266,310.96132 473.13541,311.16857 473.03179,311.27219 472.79939,311.06494 472.69577,311.16857 472.59214,311.27219 472.76127,311.47714 472.69577,311.60821 472.4397,312.12034 472.07254,312.41502 471.81648,312.92715 471.6854,313.1893 472.02373,313.59919 471.81648,313.80644 471.71285,313.91006 471.48046,313.70281 471.37683,313.80644 471.2732,313.91006 471.44233,314.11501 471.37683,314.24608 471.28413,314.43145 471.02987,314.50036 470.93719,314.68573 470.87169,314.8168 471.04081,315.02175 470.93719,315.12537 470.83356,315.229 470.60117,315.02175 470.49754,315.12537 470.39391,315.229 470.60117,315.46139 470.49754,315.56502 470.39391,315.66864 470.16152,315.46139 470.05789,315.56502 469.95427,315.66864 470.16152,315.90104 470.05789,316.00466 469.95427,316.10829 469.72188,315.90104 469.61825,316.00466 469.51462,316.10829 469.72188,316.34068 469.61825,316.44431 469.51462,316.54793 469.28223,316.34068 469.1786,316.44431 469.07498,316.54793 469.28223,316.78033 469.1786,316.88395 469.1166,316.94595 467.94985,316.92905 467.85967,316.88395 467.6743,316.79125 467.60539,316.53699 467.42002,316.44431 467.28895,316.37881 467.11146,316.50981 466.98038,316.44431 466.68728,316.29776 465.80799,315.41847 465.66144,315.12537 465.59594,314.9943 465.76507,314.78935 465.66144,314.68573 465.55782,314.5821 465.32542,314.78935 465.2218,314.68573 465.11817,314.5821 465.32542,314.34971 465.2218,314.24608 465.11817,314.14246 464.88578,314.34971 464.78215,314.24608 464.57892,314.04285 464.91488,313.19259 464.78215,312.92715 464.68945,312.74178 464.43519,312.67287 464.34251,312.4875 464.16665,312.13579 464.51837,311.52028 464.34251,311.16857 464.24981,310.9832 463.99555,310.91429 463.90286,310.72892 463.67134,310.26587 463.90286,307.86383 463.90286,307.21176 463.90286,306.47648 463.64163,303.77742 463.90286,303.25495 463.99556,303.06958 464.24982,303.00068 464.34251,302.81531 464.59485,302.31063 464.07852,299.56213 464.34251,299.29815 464.44613,299.19452 464.67853,299.40177 464.78215,299.29815 464.9894,299.0909 464.5749,298.62611 464.78215,298.41886 464.88578,298.31523 465.11817,298.52248 465.2218,298.41886 465.42905,298.21161 465.01455,297.74682 465.2218,297.53957 465.32542,297.43594 465.55782,297.64319 465.66144,297.53957 465.88127,297.31975 465.44162,296.44046 465.66144,296.22063 465.76507,296.11701 465.99746,296.32426 466.10109,296.22063 466.20471,296.11701 465.99746,295.88461 466.10109,295.78099 466.20471,295.67736 466.43711,295.88461 466.54073,295.78099 466.76056,295.56117 466.32091,294.68187 466.54073,294.46205 466.64436,294.35843 466.87675,294.56568 466.98038,294.46205 467.18763,294.2548 466.8493,293.84492 466.98038,293.58276 467.07308,293.39739 467.32734,293.32849 467.42002,293.14312 467.5511,292.88096 467.28895,292.52598 467.42002,292.26383 467.51272,292.07846 467.76698,292.00955 467.85967,291.82418 468.0931,291.35731 467.62623,291.41176 467.85967,290.94489 467.95237,290.75952 468.20663,290.69062 468.29931,290.50525 468.36481,290.37417 468.23381,290.19668 468.29931,290.0656 468.76477,289.13469 468.71315,290.1172 469.1786,289.18631 469.2441,289.05523 469.1131,288.87774 469.1786,288.74667 469.43467,288.23454 469.80183,287.93986 470.05789,287.42773 470.12339,287.29665 469.99239,287.11916 470.05789,286.98809 470.15059,286.80271 470.40485,286.73381 470.49754,286.54844 470.62862,286.28629 470.36646,285.9313 470.49754,285.66915 470.59024,285.48378 470.8445,285.41488 470.93719,285.2295 471.00269,285.09843 470.87169,284.92094 470.93719,284.78986 471.02989,284.60449 471.28415,284.53559 471.37683,284.35021 471.50791,284.08806 471.24575,283.73308 471.37683,283.47092 471.46953,283.28555 471.72379,283.21665 471.81648,283.03128 471.94755,282.76913 471.60922,282.35924 471.81648,282.15199 471.9201,282.04836 472.1525,282.25561 472.25612,282.15199 472.46337,281.94474 472.04887,281.47995 472.25612,281.2727 472.35975,281.16907 472.59214,281.37632 472.69577,281.2727 472.90302,281.06545 472.48852,280.60066 472.69577,280.39341 472.79939,280.28978 473.03179,280.49703 473.13541,280.39341 473.23904,280.28978 473.06991,280.08484 473.13541,279.95376 473.22811,279.76839 473.48237,279.69949 473.57506,279.51412 473.64056,279.38304 473.47143,279.1781 473.57506,279.07447 473.67868,278.97085 473.91108,279.1781 474.0147,279.07447 474.11833,278.97085 473.9492,278.7659 474.0147,278.63483 474.48016,277.70392 474.42854,278.68643 474.89399,277.75554 474.95949,277.62446 474.82849,277.44697 474.89399,277.31589 474.98669,277.13052 475.24095,277.06162 475.33364,276.87625 475.39914,276.74517 475.23001,276.54023 475.33364,276.4366 475.43726,276.33298 475.66966,276.54023 475.77328,276.4366 475.87691,276.33298 475.66966,276.10058 475.77328,275.99696 475.87691,275.89333 476.1093,276.10058 476.21293,275.99696 476.31655,275.89333 476.14743,275.68839 476.21293,275.55731 476.46899,275.04518 476.83615,274.75051 477.09222,274.23838 477.15772,274.1073 476.98859,273.90236 477.09222,273.79873 477.19584,273.69511 477.42824,273.90236 477.53186,273.79873 477.63549,273.69511 477.46636,273.49016 477.53186,273.35909 477.78793,272.84696 478.15509,272.55228 478.41115,272.04015 478.47665,271.90907 478.34565,271.73158 478.41115,271.60051 478.50385,271.41514 478.75811,271.34623 478.8508,271.16086 478.9163,271.02978 478.74717,270.82484 478.8508,270.72122 478.95442,270.61759 479.18682,270.82484 479.29044,270.72122 479.39407,270.61759 479.22494,270.41265 479.29044,270.28157 479.54651,269.76944 479.91367,269.47477 480.16973,268.96264 480.23523,268.83156 480.10423,268.65407 480.16973,268.52299 480.26243,268.33762 480.51669,268.26872 480.60938,268.08334 480.74045,267.82119 480.40213,267.41131 480.60938,267.20405 480.713,267.10043 480.9454,267.30768 481.04902,267.20405 481.15265,267.10043 480.98352,266.89549 481.04902,266.76441 481.30509,266.25228 481.67225,265.9576 481.92831,265.44547 481.99381,265.3144 481.82469,265.10945 481.92831,265.00583 482.03194,264.9022 482.26433,265.10945 482.36796,265.00583 482.47158,264.9022 482.26433,264.66981 482.36796,264.56618 482.47158,264.46256 482.70398,264.66981 482.8076,264.56618 482.91123,264.46256 482.7421,264.25762 482.8076,264.12654 482.99297,263.7558 483.50152,263.61799 483.68689,263.24725 483.75239,263.11617 483.58327,262.91123 483.68689,262.8076 483.79052,262.70398 484.02291,262.91123 484.12654,262.8076 484.23016,262.70398 484.02291,262.47158 484.12654,262.36796 484.23016,262.26433 484.46256,262.47158 484.56618,262.36796 484.66981,262.26433 484.46256,262.03194 484.56618,261.92831 484.66981,261.82469 484.9022,262.03194 485.00583,261.92831 485.21308,261.72106 484.79858,261.25627 485.00583,261.04902 485.10945,260.9454 485.34185,261.15265 485.44547,261.04902 485.5491,260.9454 485.44547,260.75593 485.44547,260.60938 485.59202,260.60938 485.75404,260.67488 485.88512,260.60938 487.71482,259.69453 485.41512,260.63968 486.32476,259.73009 486.42839,259.62646 486.66078,259.83371 486.76441,259.73009 486.86803,259.62646 486.66078,259.39407 486.76441,259.29044 486.86803,259.18682 487.10043,259.39407 487.20405,259.29044 487.41131,259.08319 486.9968,258.6184 487.20405,258.41115 487.30768,258.30753 487.54007,258.51478 487.6437,258.41115 487.85095,258.2039 487.43645,257.73911 487.6437,257.53186 487.74733,257.42824 487.97972,257.63549 488.08334,257.53186 488.2906,257.32461 487.87609,256.85982 488.08334,256.65257 488.18697,256.54895 488.41936,256.7562 488.52299,256.65257 488.69429,256.48127 488.52299,255.16228 488.52299,254.89399 488.52299,254.64316 488.54559,252.27874 488.52299,252.25612 488.41936,252.1525 488.18697,252.35975 488.08334,252.25612 487.87609,252.04887 488.2906,251.58408 488.08334,251.37683 487.97972,251.2732 487.74733,251.48046 487.6437,251.37683 487.43645,251.16958 487.85095,250.70479 487.6437,250.49754 487.54007,250.39391 487.30768,250.60117 487.20405,250.49754 486.9968,250.29029 487.41131,249.8255 487.20405,249.61825 487.10043,249.51462 486.86803,249.72188 486.76441,249.61825 486.66078,249.51462 486.82991,249.30968 486.76441,249.1786 486.67171,248.99323 486.41745,248.92433 486.32476,248.73896 486.25926,248.60788 486.42839,248.40294 486.32476,248.29931 486.22114,248.19569 485.98874,248.40294 485.88512,248.29931 485.78149,248.19569 485.95062,247.99075 485.88512,247.85967 485.79242,247.6743 485.53816,247.60539 485.44547,247.42002 485.37997,247.28895 485.5491,247.084 485.44547,246.98038 485.34185,246.87675 485.10945,247.084 485.00583,246.98038 484.79858,246.77313 485.21308,246.30834 485.00583,246.10109 484.9022,245.99746 484.66981,246.20471 484.56618,246.10109 484.46256,245.99746 484.71273,245.66144 484.56618,245.66144 484.56618,246.24764 484.71273,246.10109 484.12654,246.10109"
       inkscape:connector-curvature="0"
       id="path3160"
       style="opacity:0.6;fill:none;stroke:#e20000;stroke-opacity:1" />
    <path
       d="M 420.81765,133.50775 367.92231,102.6701"
       inkscape:connector-curvature="0"
       id="path3162"
       style="opacity:0.6;fill:none;stroke:#e20000;stroke-opacity:1" />
    <path
       d="M 418.35273,131.61125 392.08606,56.111907"
       inkscape:connector-curvature="0"
       id="path3164"
       style="opacity:0.6;fill:none;stroke:#e20000;stroke-opacity:1" />
    <path
       d="M 420.7864,131.84669 418.17977,53.97617"
       inkscape:connector-curvature="0"
       id="path3166"
       style="opacity:0.6;fill:none;stroke:#e20000;stroke-opacity:1" />
    <path
       d="M 441.9206,135.75016 449.39457,53.97617"
       inkscape:connector-curvature="0"
       id="path3168"
       style="opacity:0.6;fill:none;stroke:#e20000;stroke-opacity:1" />
    <path
       d="M 486.69994,147.15884 516.6583,68.258167"
       inkscape:connector-curvature="0"
       id="path3170"
       style="opacity:0.6;fill:none;stroke:#e20000;stroke-width:1;stroke-miterlimit:4;stroke-opacity:1;stroke-dasharray:none;stroke-dashoffset:0" />
    <path
       d="M 570.29698,90.466716 533.5268,168.20847"
       inkscape:connector-curvature="0"
       id="path3172"
       style="fill:none;stroke:#0000e9;stroke-width:1;stroke-miterlimit:4;stroke-opacity:1;stroke-dasharray:none;stroke-dashoffset:0" />
    <path
       d="M 658.22601,174.87858 591.21784,221.40553"
       inkscape:connector-curvature="0"
       id="path3174"
       style="fill:none;stroke:#0000e9;stroke-width:1;stroke-miterlimit:4;stroke-opacity:1;stroke-dasharray:none;stroke-dashoffset:0" />
    <path
       d="M 666.13962,200.378 597.63042,231.51736"
       inkscape:connector-curvature="0"
       id="path3176"
       style="fill:none;stroke:#0000e9;stroke-width:1;stroke-miterlimit:4;stroke-opacity:1;stroke-dasharray:none;stroke-dashoffset:0" />
    <path
       d="M 678.44968,277.75554 615.99798,283.09377"
       inkscape:connector-curvature="0"
       id="path3178"
       style="fill:none;stroke:#0000e9;stroke-width:1;stroke-miterlimit:4;stroke-opacity:1;stroke-dasharray:none;stroke-dashoffset:0" />
    <path
       d="M 598.87809,325.3015 647.38991,340.27153"
       inkscape:connector-curvature="0"
       id="path3180"
       style="fill:none;stroke:#0000e9;stroke-width:1;stroke-miterlimit:4;stroke-opacity:1;stroke-dasharray:none;stroke-dashoffset:0" />
    <path
       d="M 615.37623,281.65522 C 628.60602,300.53749 618.40197,331.63235 598.87392,324.79757"
       inkscape:connector-curvature="0"
       id="path3182"
       style="fill:none;stroke:#0000e9;stroke-width:1;stroke-miterlimit:4;stroke-opacity:1;stroke-dasharray:none;stroke-dashoffset:0" />
    <path
       d="M 544.35792,444.38104 C 543.84517,433.51968 543.08858,422.40071 545.46551,411.70489 546.80503,406.75125 549.95832,399.40047 556.37217,401.28525 573.21116,411.11647 574.66175,429.02731 577.56879,444.8547"
       inkscape:connector-curvature="0"
       id="path3184"
       style="fill:none;stroke:#0000e9;stroke-width:1;stroke-miterlimit:4;stroke-opacity:1;stroke-dasharray:none;stroke-dashoffset:0" />
    <path
       d="M 544.35792,413.16624 C 542.61694,408.54933 537.29431,405.62036 532.47347,406.87355 529.10381,407.62263 526.49469,410.49578 525.70078,413.80167 519.22132,422.76964 515.00291,433.11649 511.38453,443.50175"
       inkscape:connector-curvature="0"
       id="path3186"
       style="fill:none;stroke:#0000e9;stroke-width:1;stroke-miterlimit:4;stroke-opacity:1;stroke-dasharray:none;stroke-dashoffset:0" />
    <path
       d="M 531.25913,410.1954 C 527.23501,402.26897 521.41338,403.25333 511.43098,403.85819 500.4883,408.92663 494.74698,418.77249 490.2213,429.51745"
       inkscape:connector-curvature="0"
       id="path3188"
       style="fill:none;stroke:#0000e9;stroke-width:1;stroke-miterlimit:4;stroke-opacity:1;stroke-dasharray:none;stroke-dashoffset:0" />
    <path
       d="M 615.4646,329.98493 C 595.94941,358.78994 583.63881,378.20134 559.05746,403.52529"
       inkscape:connector-curvature="0"
       id="path3190"
       style="fill:none;stroke:#0000e9;stroke-width:1;stroke-miterlimit:4;stroke-opacity:1;stroke-dasharray:none;stroke-dashoffset:0" />
    <path
       d="M 534.99451,406.85269 C 538.91417,406.95199 542.34567,409.5166 544.17507,412.87591 545.46214,414.38574 544.11477,416.58607 544.17507,418.34539 543.66201,426.54786 543.82545,434.79321 544.10707,443.00175 544.48044,443.87715 544.20507,445.59542 542.94128,444.91558 537.34902,443.67865 531.66294,444.80657 526.0374,444.99328 521.32471,444.78248 516.41231,444.37939 512.03826,442.6617 514.52712,434.68114 518.02291,426.91609 522.13202,419.6083 523.98301,416.70733 525.89141,413.83161 527.4072,410.72891 528.06667,409.68546 529.61296,407.48832 530.55482,409.44654 530.75198,410.12151 531.57431,409.68521 530.94341,409.33968 529.69196,408.05872 531.93118,406.96512 533.05154,406.95953 533.69521,406.86613 534.34386,406.81411 534.99451,406.85267 z"
       inkscape:connector-curvature="0"
       id="path5923"
       style="fill:#82c1d2;stroke:none" />
    <path
       d="M 520.44163,403.76336 C 523.83941,403.67486 527.41381,404.92426 529.42789,407.74646 527.77289,409.52793 526.25283,411.55546 525.29907,413.81826 519.88712,422.1058 515.60187,431.12288 512.30056,440.48559 511.99173,441.49702 511.22051,442.88526 509.98842,442.10798 503.03728,439.62171 496.67046,435.55014 491.23871,430.55699 489.86303,428.54403 492.17132,426.3488 492.76559,424.47847 496.59084,416.45101 502.1987,408.7893 510.27987,404.69599 513.48343,403.52663 517.08535,403.8576 520.44163,403.76336 z"
       inkscape:connector-curvature="0"
       id="path5925"
       style="fill:#c9b8ca;stroke:none" />
    <path
       d="M 369.12271,103.87483 C 385.53855,113.06484 401.78756,122.50905 417.9594,132.08683 418.77042,133.29655 416.61693,133.80297 415.91927,134.33097 410.19609,137.4776 408.2443,144.35887 402.8139,147.84436 394.92285,153.19448 384.76163,154.97083 375.4471,153.06125 373.67499,152.52647 371.72028,152.2714 370.1622,151.22514 369.46153,147.02903 369.67747,142.63353 369.37177,138.36388 368.97689,127.02323 368.44448,115.67791 368.3941,104.33143 368.3738,103.98991 368.8326,103.71677 369.12271,103.87483 z"
       inkscape:connector-curvature="0"
       id="path5927"
       style="fill:#6a72bc;stroke:none" />
    <path
       d="M 391.49607,56.349657 C 392.73837,57.214998 392.63028,59.263821 393.37241,60.550951 401.60243,83.831709 409.72076,107.20109 417.77481,130.54217 417.22114,131.93978 415.59562,130.0064 414.74435,129.7643 399.42006,120.75575 383.93304,111.9843 368.73412,102.78677 367.76544,100.13755 368.25488,97.071914 367.94618,94.267951 367.783,87.43061 367.38621,80.578627 367.38375,73.749001 368.63546,70.270055 371.50001,67.58146 374.0868,65.032907 378.92994,60.681011 385.01174,57.646895 391.37949,56.339942 L 391.49607,56.349642 z"
       inkscape:connector-curvature="0"
       id="path5929"
       style="fill:#746bdb;stroke:none" />
    <path
       d="M 407.16617,55.164442 C 410.71923,55.349467 414.39621,54.941161 417.88168,55.504462 418.52031,64.986182 418.60538,74.563905 419.01368,84.082565 419.54854,100.13521 420.11983,116.21948 420.66985,132.25199 419.81472,133.42379 418.51755,131.74634 418.46991,130.79591 409.6576,106.34279 401.0499,81.780128 392.75901,57.136562 392.13363,55.502617 394.63208,55.667641 395.63461,55.368454 399.46505,55.035513 403.32583,55.167856 407.16617,55.164442 z"
       inkscape:connector-curvature="0"
       id="path5931"
       style="fill:#b1daa9;stroke:none" />
    <path
       d="M 436.48567,55.086723 C 440.52475,55.127093 444.58071,55.016653 448.60983,55.251875 449.46015,56.48431 448.4806,58.3366 448.62353,59.796059 446.39831,84.769514 444.17224,109.74408 441.76087,134.70014 441.07014,135.84821 439.61912,134.40894 438.65808,134.35977 433.18437,132.24647 427.21524,131.45372 421.37906,132.2617 420.18043,131.43656 421.13488,129.32089 420.78631,127.97775 420.09213,103.86752 419.06078,79.763331 418.55203,55.650185 419.55761,54.603771 421.43049,55.446607 422.74875,55.130517 427.32742,55.083427 431.90678,55.073187 436.4857,55.086727 z"
       inkscape:connector-curvature="0"
       id="path5933"
       style="fill:#dbc198;stroke:none" />
    <path
       d="M 452.86495,55.611326 C 460.87598,56.543317 468.85481,57.745341 476.87041,58.652082 490.03905,60.527404 503.07925,63.504071 515.69105,67.686918 516.53791,68.709147 515.1889,70.19848 515.0768,71.337564 505.91442,96.711167 495.86772,121.77854 486.73101,147.15461 486.90556,148.5654 485.30124,148.24651 484.48495,147.76681 471.16655,143.15148 457.62414,139.3143 443.83983,136.3711 441.86907,136.3587 442.53946,134.13983 442.52832,132.86402 444.50407,107.46163 446.9763,82.098085 449.32873,56.728537 449.10849,54.465343 451.60365,55.751014 452.86495,55.611326 z"
       inkscape:connector-curvature="0"
       id="path5935"
       style="fill:#d7ab8f;stroke:none" />
    <path
       d="M 517.52717,68.28924 C 526.35304,70.884091 534.92313,74.442088 543.44595,77.904276 552.21926,81.761221 561.09226,85.516363 569.48233,90.118568 570.36441,91.208482 568.6353,92.553818 568.47874,93.695407 557.02899,118.43916 545.00515,142.92575 533.84816,167.79872 533.53319,168.32991 533.96275,169.71758 532.84753,169.2851 518.36866,160.48994 502.32937,154.56259 486.56585,148.46612 485.69832,147.54794 487.33865,146.54614 487.32564,145.51949 497.42117,119.91869 506.86936,94.044965 516.93456,68.444678 517.09616,68.326839 517.32376,68.245493 517.52717,68.28924 z"
       inkscape:connector-curvature="0"
       id="path5937"
       style="fill:#736cd4;stroke:none" />
    <path
       d="M 614.59821,281.55021 C 617.48985,284.59184 618.97934,288.75669 620.09683,292.75146 622.34599,302.30034 621.04407,313.41898 614.30653,320.91698 611.58227,323.88781 607.5955,325.96278 603.47468,325.27687 601.63829,325.04665 599.66711,325.32497 597.90806,324.82027 598.18159,322.91824 599.82326,321.2551 600.57403,319.41842 604.95291,311.1498 609.86605,302.92552 611.89748,293.69381 612.99235,289.73385 613.30518,285.5884 613.89906,281.57262 613.96506,281.32361 614.47597,281.39229 614.59821,281.55022 z"
       inkscape:connector-curvature="0"
       id="path5945"
       style="fill:#c7afc8;stroke:none" />
    <path
       d="M 678.1918,278.30544 C 678.0959,284.00998 677.73398,289.82887 676.79285,295.49106 674.76479,301.70356 671.17021,307.27505 667.71902,312.79022 661.47102,322.09806 654.30107,330.78137 647.58022,339.76175 645.76437,340.00781 643.83834,338.76151 641.98677,338.42459 629.80129,334.67278 617.59197,330.96369 605.50509,326.91868 604.51823,325.91157 606.2618,325.61371 607.02061,325.59746 614.30818,324.06071 618.75688,316.91185 620.32028,310.15081 622.41449,301.43363 621.33928,291.9052 617.17266,284.01779 617.08076,282.52654 619.44221,283.28946 620.40643,282.92091 639.4326,281.27063 658.45771,279.51422 677.50204,278.13057 677.76382,278.04047 677.96836,278.21697 678.1918,278.30544 z"
       inkscape:connector-curvature="0"
       id="path5947"
       style="fill:#cda392;stroke:none" />
    <path
       d="M 615.55999,330.74635 C 625.83231,333.76635 636.08929,336.92065 646.27843,340.21835 647.08924,341.29085 645.33581,342.42669 644.94749,343.39512 639.72595,350.77872 635.10034,358.61677 631.09961,366.73382 626.45361,375.86286 621.73973,384.95532 616.37604,393.65989 608.57078,407.98635 601.422,423.32146 589.11609,434.46237 585.77221,437.44625 582.00167,439.98777 579.08062,443.43892 578.2481,444.52621 577.16759,443.32249 577.29309,442.29256 575.11321,430.72869 573.44918,418.25801 565.64495,408.90253 564.02361,406.69899 561.68748,405.08853 559.85488,403.14161 564.28998,398.01957 569.14936,393.19336 573.50259,387.96409 588.89173,370.14081 601.85489,350.43619 615.0451,330.95036 615.23264,330.95057 615.349,330.64557 615.55999,330.74635 z"
       inkscape:connector-curvature="0"
       id="path5949"
       style="fill:#d5be93;stroke:none" />
    <path
       d="M 554.60885,401.26664 C 558.64042,401.93715 561.43921,405.35299 564.26544,408.00876 571.97216,416.12089 574.26669,427.48006 576.19063,438.10922 576.42733,440.35997 577.40077,442.7012 577.11822,444.92529 572.25438,448.70578 565.67484,448.87577 559.81218,447.9682 554.79752,447.34176 549.81206,446.24735 544.9134,445.2556 543.87938,443.52668 544.54105,441.21629 544.24365,439.28108 544.15365,429.78934 543.4753,420.03297 545.99575,410.79125 547.34661,406.73884 549.48574,401.20893 554.60885,401.26664 z"
       inkscape:connector-curvature="0"
       id="path5951"
       style="fill:#b9abdd;stroke:none" />
    <path
       d="M 571.12414,90.842102 C 579.75217,95.134591 588.39284,99.49022 596.58598,104.5871 609.92457,113.26614 621.34748,124.49985 632.6256,135.6457 638.06924,141.12635 641.92017,147.92449 646.23957,154.28025 650.37692,160.82181 654.45833,167.50257 657.24652,174.73006 656.9953,176.11351 655.00389,176.48948 654.09661,177.45335 633.32453,191.86845 612.67234,206.48451 591.6711,220.54542 590.33381,220.67601 589.78273,218.56552 588.85512,217.71985 583.28597,209.93603 575.95458,203.63782 569.28879,196.79665 563.39794,191.28399 557.85952,185.34756 551.0941,180.91589 545.11993,177.08333 538.93349,173.43273 533.14972,169.39487 534.31785,166.50607 536.00938,163.53814 537.31637,160.5852 548.41292,137.44798 559.12906,114.03206 570.54125,91.01697 570.6686,90.878123 570.95624,90.857799 571.12414,90.842102 z"
       inkscape:connector-curvature="0"
       id="path5976"
       style="fill:#7edfd0;stroke:none" />
    <path
       d="M 657.63512,175.94442 C 659.23801,177.55579 659.64114,180.10958 660.64673,182.14251 662.73981,187.81096 664.46689,193.6603 665.73732,199.55157 664.1752,201.34864 661.54538,201.89821 659.53073,203.10063 639.25188,212.52638 618.85189,221.69443 598.52009,231.00834 597.1756,230.93734 596.94943,228.89505 596.04721,228.13016 594.68221,225.88976 592.99613,223.78262 591.88483,221.41976 594.20737,219.13506 597.30658,217.54258 599.93389,215.53152 619.00808,202.3338 638.06427,189.08248 657.20766,176.00271 657.34543,176.11488 657.49549,175.88428 657.63512,175.94441 z"
       inkscape:connector-curvature="0"
       id="path5978"
       style="fill:#70bb86;stroke:none" />
    <path
       d="M 666.14535,200.91165 C 667.755,203.30428 668.26395,206.37734 669.28767,209.0777 676.15379,230.44518 678.71355,253.01756 678.29866,275.42476 678.82236,277.24441 677.76479,278.07589 676.07504,277.80171 656.22877,279.43821 636.3738,281.33096 616.54119,282.90521 615.90851,282.52887 615.74106,281.52965 614.81194,281.81715 613.45484,280.98959 614.23492,278.86536 613.89617,277.56227 613.79615,267.4835 611.57601,257.52431 607.17429,248.45445 604.61653,242.68914 601.38506,237.16807 598.42394,231.6508 600.15935,230.18499 602.81888,229.56583 604.90165,228.42083 625.18512,219.232 645.41666,209.91895 665.76647,200.88251 L 1406.0764,200.90631 2146.1453,200.91131 z"
       inkscape:connector-curvature="0"
       id="path5980"
       style="fill:#e19179;stroke:none" />
  </g>
</svg>
