<?xml version="1.0" encoding="UTF-8" standalone="no"?>
<!-- Created with Inkscape (http://www.inkscape.org/) -->

<svg
   xmlns:dc="http://purl.org/dc/elements/1.1/"
   xmlns:cc="http://creativecommons.org/ns#"
   xmlns:rdf="http://www.w3.org/1999/02/22-rdf-syntax-ns#"
   xmlns:svg="http://www.w3.org/2000/svg"
   xmlns="http://www.w3.org/2000/svg"
   xmlns:xlink="http://www.w3.org/1999/xlink"
   xmlns:inkscape="http://www.inkscape.org/namespaces/inkscape"
   version="1.1"
   width="740"
   height="520"
   id="svg2"
   style="enable-background:new">
  <defs
     id="defs4">
    <filter
       color-interpolation-filters="sRGB"
       id="filter3050">
      <feBlend
         in2="BackgroundImage"
         mode="lighten"
         id="feBlend3052" />
    </filter>
  </defs>
  <metadata
     id="metadata7">
    <rdf:RDF>
      <cc:Work
         rdf:about="">
        <dc:format>image/svg+xml</dc:format>
        <dc:type
           rdf:resource="http://purl.org/dc/dcmitype/StillImage" />
        <dc:title />
      </cc:Work>
    </rdf:RDF>
  </metadata>
  <g
     id="layer1"
     style="display:none">
    <image
       xlink:href="pngs/coronal-0712.png"
       id="MRISLICE"
       height="520"
       width="740"
       y="0"
       x="0" />
  </g>
  <g
     id="layer3"
     style="display:inline">
    <path
       d="M 401.83564,231.5928 C 399.11907,223.83333 388.93575,227.85157 389.47465,235.20677 386.84228,241.56318 391.14587,253.17527 399.45031,249.39352 406.00366,246.36332 406.74339,236.3415 401.83564,231.5928 z"
       inkscape:connector-curvature="0"
       id="path2990"
       style="fill:none;stroke:#0000e9;stroke-width:1;stroke-miterlimit:4;stroke-opacity:1;stroke-dasharray:none;stroke-dashoffset:0" />
    <path
       d="M 411.06819,328.75437 C 409.5073,327.75157 405.44161,326.27954 402.68787,328.27808 398.30794,331.27911 396.86131,338.82718 401.46997,342.26591 406.28423,344.92639 410.64856,339.12216 410.70234,334.6582 411.11818,332.722 411.19337,330.72632 411.06819,328.75437 z"
       inkscape:connector-curvature="0"
       id="path2992"
       style="fill:none;stroke:#0000e9;stroke-width:1;stroke-miterlimit:4;stroke-opacity:1;stroke-dasharray:none;stroke-dashoffset:0" />
    <path
       d="M 429.53328,381.51179 C 428.41049,381.3786 427.14833,379.13979 429.02059,380.07587 430.27101,382.48821 427.75286,379.84002 426.91022,379.38101 425.25294,378.40264 423.20388,377.21687 421.3158,378.37395 419.52212,379.73065 419.91882,382.49943 420.37423,384.43546 421.45603,386.48932 421.48795,388.91369 422.61101,390.93636 423.20605,392.88123 425.30417,394.25965 427.26429,394.36525 429.04914,393.88301 430.83673,392.13544 430.83456,390.23635 431.15914,388.00896 431.35415,385.98053 430.35727,383.75923 430.07309,383.02089 429.98037,382.17583 429.53328,381.51179 z"
       inkscape:connector-curvature="0"
       id="path2994"
       style="fill:none;stroke:#0000e9;stroke-width:1;stroke-miterlimit:4;stroke-opacity:1;stroke-dasharray:none;stroke-dashoffset:0" />
    <path
       d="M 373.05126,63.633963 372.6643,118.96938 M 354.32261,118.34762 354.13346,145.39686 M 372.47514,146.01862 371.186,330.36561"
       inkscape:connector-curvature="0"
       id="path3023"
       style="fill:none;stroke:#0000e9;stroke-width:1;stroke-miterlimit:4;stroke-opacity:1;stroke-dasharray:none;stroke-dashoffset:0" />
    <path
       d="M 371.186,332.85262 C 374.37687,364.93476 376.5502,396.67773 369.9425,425.49368 390.04056,429.89575 411.70268,440.03273 427.14369,427.35894 439.74216,413.22207 442.54754,389.29211 478.12736,398.13659 504.05458,409.2312 530.37981,419.79513 551.49411,437.30697 573.19004,450.33162 598.34313,455.64874 618.64333,433.57646 643.1099,405.39127 658.29196,358.38972 683.9273,311.0913 701.46665,268.2826 695.82504,235.4086 690.76658,202.28468 659.79911,114.1283 592.19746,81.655868 520.4065,55.551186 500.36822,56.698733 417.8611,6.9716675 373.05126,62.390459"
       inkscape:connector-curvature="0"
       id="path3025"
       style="fill:none;stroke:#0000e9;stroke-width:1;stroke-miterlimit:4;stroke-opacity:1;stroke-dasharray:none;stroke-dashoffset:0" />
    <path
       d="M 350.35731,146.327 C 354.22172,146.4007 380.44156,147.48806 383.67529,147.13549 435.14213,141.52409 412.60418,86.145992 502.99744,115.23939 553.66699,135.48884 586.98074,175.26358 611.18231,225.28951 615.76305,241.59097 624.26587,255.65125 618.02158,278.13844 608.08689,290.62027 600.88135,304.19375 583.20346,313.5783 575.34292,320.17981 570.47419,325.73665 569.63219,327.99792 M 620.07881,271.95404 C 620.84119,274.1628 619.13904,281.93728 621.31892,296.26945"
       inkscape:connector-curvature="0"
       id="path3027"
       style="fill:none;stroke:#0000e9;stroke-width:1;stroke-miterlimit:4;stroke-opacity:1;stroke-dasharray:none;stroke-dashoffset:0" />
    <path
       d="M 624.31115,274.57115 619.8995,272.01858 C 621.77679,275.41561 618.81523,281.10377 620.72207,290.79406 621.8668,296.61138 620.29091,303.49501 618.57395,310.55616 615.14002,324.67845 610.7804,339.7702 611.69043,351.40625 L 614.47585,351.21684 C 613.63344,340.44519 617.81214,325.38082 621.26333,311.18754 622.98893,304.09089 624.53396,297.20739 625.1053,291.04661 625.67663,284.88584 626.62769,278.76302 624.31115,274.57115 z"
       inkscape:connector-curvature="0"
       id="path3829"
       style="font-size:medium;font-style:normal;font-variant:normal;font-weight:normal;font-stretch:normal;text-indent:0;text-align:start;text-decoration:none;line-height:normal;letter-spacing:normal;word-spacing:normal;text-transform:none;direction:ltr;block-progression:tb;writing-mode:lr-tb;text-anchor:start;baseline-shift:baseline;color:#000000;fill:#73a0a6;fill-opacity:1;stroke:none;stroke-width:2.70000005;marker:none;visibility:visible;display:inline;overflow:visible;enable-background:accumulate;font-family:Sans;-inkscape-font-specification:Sans" />
    <path
       d="M 625.29761,286.32003 C 627.52435,261.03531 626.37717,232.93593 614.29107,210.36746 602.19631,174.30329 574.77377,149.3866 544.65483,126.43092 520.10719,108.59001 488.47363,100.44536 455.12253,95.34332 450.16713,94.217702 445.82525,93.324535 441.99238,92.653559 441.0223,92.483739 440.08483,92.328151 439.17827,92.18663 411.40945,87.851713 412.64375,96.714837 394.19083,113.99588 389.00428,122.26742 362.53978,121.50556 354.08781,118.34814"
       inkscape:connector-curvature="0"
       id="path3029"
       style="fill:none;stroke:#0000e9;stroke-width:1;stroke-miterlimit:4;stroke-opacity:1;stroke-dasharray:none;stroke-dashoffset:0" />
    <path
       d="M 442.06574,92.856311 C 426.0412,99.594281 403.95828,117.86148 394.81258,111.50887"
       inkscape:connector-curvature="0"
       id="path3031"
       style="fill:none;stroke:#0000e9;stroke-width:1;stroke-miterlimit:4;stroke-opacity:1;stroke-dasharray:none;stroke-dashoffset:0" />
    <path
       d="M 575.74244,169.33182 C 578.3384,190.67773 588.68361,238.28221 543.41133,206.01519"
       inkscape:connector-curvature="0"
       id="path3033"
       style="fill:none;stroke:#0000e9;stroke-width:1;stroke-miterlimit:4;stroke-opacity:1;stroke-dasharray:none;stroke-dashoffset:0" />
    <path
       d="M 542.78958,207.2587 C 548.37532,221.95736 548.98889,244.49903 550.20489,255.10758 550.52379,257.8897 548.58335,263.01719 549.41418,273.77577 549.81891,279.01662 550.42247,284.8164 551.20261,291.15442 551.81106,296.09765 550.6641,301.41339 549.59113,306.51921 546.2314,312.36552 544.96904,317.98922 539.73209,324.41313 535.25402,329.90618 528.35198,336.14506 516.05424,344.04416 501.16343,351.62622 474.51912,373.2205 475.64035,396.89309"
       inkscape:connector-curvature="0"
       id="path3035"
       style="fill:none;stroke:#0000e9;stroke-width:1;stroke-miterlimit:4;stroke-opacity:1;stroke-dasharray:none;stroke-dashoffset:0" />
    <path
       d="M 535.32855,302.38677 C 547.99966,290.80405 527.36928,284.84432 518.5763,293.8036 501.63352,306.54558 493.379,329.80503 476.09076,340.81071 445.08991,357.98563 462.46181,368.48185 473.27418,367.89866 477.38159,363.17515 498.96533,349.10869 500.46794,346.43229 513.67617,333.84393 526.30377,319.89214 534.87466,303.73788 L 535.1374,302.95577 z"
       inkscape:connector-curvature="0"
       id="path3037"
       style="fill:none;stroke:#0000e9;stroke-width:1;stroke-miterlimit:4;stroke-opacity:1;stroke-dasharray:none;stroke-dashoffset:0" />
    <path
       d="M 550.87236,253.8901 C 547.30406,255.96697 544.57054,246.42164 541.0326,250.31146 542.41559,261.51275 546.40944,271.37777 543.82322,282.10119 543.44106,286.07965 541.85117,294.00306 539.42331,294.86787 539.73103,294.05656 540.16848,293.30666 540.3034,292.43868"
       inkscape:connector-curvature="0"
       id="path3039"
       style="fill:none;stroke:#0000e9;stroke-width:1;stroke-miterlimit:4;stroke-opacity:1;stroke-dasharray:none;stroke-dashoffset:0" />
    <path
       d="M 506.1062,306.11728 C 485.18976,315.74107 458.44129,324.30779 457.97644,355.1355"
       inkscape:connector-curvature="0"
       id="path3041"
       style="fill:none;stroke:#0000e9;stroke-width:1;stroke-miterlimit:4;stroke-opacity:1;stroke-dasharray:none;stroke-dashoffset:0" />
    <path
       d="M 582.58171,176.17109 C 583.77088,193.76023 587.52774,212.63322 582.58171,227.15476 572.23638,240.5705 566.08924,258.29823 566.96247,280.00369 562.7658,293.04276 559.99742,315.17973 552.11586,319.79583 537.493,352.04976 541.85028,331.62591 543.59991,319.4941"
       inkscape:connector-curvature="0"
       id="path3043"
       style="fill:none;stroke:#0000e9;stroke-width:1;stroke-miterlimit:4;stroke-opacity:1;stroke-dasharray:none;stroke-dashoffset:0" />
    <path
       d="M 569.09801,255.75038 C 561.3067,263.43621 555.43175,261.36252 550.2506,255.75538"
       inkscape:connector-curvature="0"
       id="path3045"
       style="fill:none;stroke:#0000e9;stroke-width:1;stroke-miterlimit:4;stroke-opacity:1;stroke-dasharray:none;stroke-dashoffset:0" />
    <path
       d="M 600.61252,204.14994 C 597.09942,228.7716 573.62917,249.45235 579.66761,274.51702 579.63561,292.46419 545.59192,318.14598 564.63837,329.57626 L 570.35403,328.28465"
       inkscape:connector-curvature="0"
       id="path3059"
       style="fill:none;stroke:#0000e9;stroke-width:1;stroke-miterlimit:4;stroke-opacity:1;stroke-dasharray:none;stroke-dashoffset:0" />
    <path
       d="M 618.64333,279.38194 C 599.30846,284.84701 593.12283,281.65543 578.22945,279.38194"
       inkscape:connector-curvature="0"
       id="path3061"
       style="fill:none;stroke:#0000e9;stroke-width:1;stroke-miterlimit:4;stroke-opacity:1;stroke-dasharray:none;stroke-dashoffset:0" />
    <path
       d="M 427.0173,91.458176 C 421.01161,91.450576 414.63781,93.113782 410.66517,97.847234 406.1767,102.34287 401.19655,106.53752 397.47865,111.66811 397.93612,113.4401 400.55095,112.3846 401.84762,112.34132 411.45635,110.10043 419.70189,104.25303 428.35094,99.731401 432.27787,97.370222 436.62622,95.550618 440.399,93.05189 438.74555,91.611646 435.49294,92.269415 433.24103,91.691738 431.17189,91.524796 429.09409,91.400826 427.0173,91.458176 z"
       inkscape:connector-curvature="0"
       id="path3011"
       style="fill:#b46a9f;stroke:none" />
    <path
       d="M 558.78894,318.64254 554.39249,317.76325"
       inkscape:connector-curvature="0"
       id="path3015"
       style="fill:none;stroke:#0000e9;stroke-width:1;stroke-miterlimit:4;stroke-opacity:1;stroke-dasharray:none;stroke-dashoffset:0" />
    <path
       d="M 422.5666,378.29914 C 419.42352,379.02723 420.21302,383.10488 420.93167,385.36094 422.08132,388.42771 422.75604,392.85964 426.35854,393.92028 430.20572,394.23727 431.19037,389.31626 430.70004,386.35014 430.35966,382.26336 426.7957,378.19554 422.5666,378.29914 z"
       inkscape:connector-curvature="0"
       id="path3030"
       style="fill:#bfb195;stroke:none" />
    <path
       d="M 396.33902,227.74816 C 391.7408,227.95601 389.41592,232.72968 389.23601,236.81584 388.46185,241.46785 389.97358,247.36323 394.49801,249.52433 399.85736,250.98133 404.25939,245.59877 404.7335,240.69022 405.07776,235.95195 402.10618,231.60987 398.99063,228.3252 398.22691,227.83622 397.25755,227.67708 396.33902,227.74816 z"
       inkscape:connector-curvature="0"
       id="path3032"
       style="fill:#749699;stroke:none" />
    <path
       d="M 405.7227,327.56134 C 399.78328,328.20439 396.86353,336.95114 400.84539,341.28651 403.8087,344.34737 408.59121,341.37561 409.5009,337.87926 410.28738,335.19043 411.33827,332.18926 410.77862,329.40236 409.60677,327.99352 407.49092,327.53792 405.7227,327.56134 z"
       inkscape:connector-curvature="0"
       id="path3034"
       style="fill:#cc6bc8;stroke:none" />
    <path
       d="M 506.91082,340.18515 512.18656,346.34018"
       inkscape:connector-curvature="0"
       id="path3040"
       style="fill:none;stroke:#0000e9;stroke-width:1;stroke-miterlimit:4;stroke-opacity:1;stroke-dasharray:none;stroke-dashoffset:0" />
    <path
       d="M 663.86414,319.52182 C 656.10049,322.15519 652.17453,329.96952 648.76868,336.82104 645.82234,342.31856 642.89448,347.82239 640.51774,353.601 637.18806,361.45652 633.57731,369.19345 629.5293,376.70091 625.41101,385.52922 621.78645,394.60651 616.99254,403.1046 613.97254,405.86423 613.36112,412.04475 617.32816,414.21155 621.30055,415.11559 623.31262,410.34308 624.79326,407.49875 630.20625,396.12904 630.55158,382.61079 638.3724,372.35506 645.56593,360.02679 649.71932,346.05358 658.0365,334.36782 661.1988,330.79808 666.07104,324.06926 663.86414,318.64253"
       inkscape:connector-curvature="0"
       id="path3024"
       style="fill:none;stroke:#0000e9;stroke-width:1;stroke-miterlimit:4;stroke-opacity:1;stroke-dasharray:none;stroke-dashoffset:0" />
    <path
       d="M 626.93395,276.87624 C 638.71269,276.24387 637.82407,294.2734 627.3736,321.72005"
       inkscape:connector-curvature="0"
       id="path3048"
       style="fill:none;stroke:#0000e9;stroke-width:1;stroke-miterlimit:4;stroke-opacity:1;stroke-dasharray:none;stroke-dashoffset:0" />
    <path
       d="M 618.31859,322.91022 C 628.63779,313.41614 631.39506,331.76067 628.69253,342.38337 620.3821,369.48814 616.68048,364.33119 614.18424,350.73663"
       inkscape:connector-curvature="0"
       id="path3050"
       style="fill:none;stroke:#0000e9;stroke-width:1;stroke-miterlimit:4;stroke-opacity:1;stroke-dasharray:none;stroke-dashoffset:0" />
    <path
       d="M 663.46898,319.939 C 654.40424,323.82758 650.89983,333.74498 646.52635,341.78026 639.91666,355.44955 633.60902,369.26511 627.01965,382.94564 623.43807,390.7897 619.87366,398.67832 615.41027,406.01327 614.37229,408.83553 615.02819,413.72217 618.68014,414.02306 622.96865,412.63399 624.36297,407.44746 625.9908,403.69129 630.00336,392.89338 631.79602,381.10161 638.43669,371.45992 646.01105,357.86709 651.28239,342.84518 660.66907,330.36709 662.4982,327.25705 664.85598,323.72535 664.0048,319.98022 663.86117,320.28384 663.62494,319.74724 663.46898,319.93902 z"
       inkscape:connector-curvature="0"
       id="path3057"
       style="fill:#d5be93;stroke:none" />
    <path
       d="M 503.39066,307.66174 C 496.09187,310.71997 488.84205,314.03507 481.95964,317.92065 472.74929,323.19205 464.27902,330.76272 460.69993,341.04121 459.34532,344.91446 458.30571,349.04927 458.34278,353.1565 459.15325,354.49267 460.25322,352.64409 460.74235,351.97129 466.91746,344.71101 476.5438,341.55801 483.28086,334.8051 491.03974,327.04767 497.23642,317.91236 503.63353,309.05097 504.05049,308.62627 504.40226,307.55768 503.39066,307.66174 z"
       inkscape:connector-curvature="0"
       id="path3036"
       style="fill:#d78578;stroke:none" />
    <path
       d="M 528.8106,289.6795 C 523.89071,289.7388 519.79389,292.78456 516.32166,295.95242 505.25904,305.47293 498.15498,318.5557 488.71731,329.52021 484.0435,335.36868 478.03826,340.04116 471.56135,343.8133 466.91301,346.79508 462.17991,350.29445 459.58239,355.29378 458.35893,358.16564 458.70287,361.87525 461.40879,363.82344 464.63989,366.5739 469.12622,368.12629 473.35809,367.42766 481.52331,360.70726 490.25795,354.43867 498.74306,348.00762 510.16908,336.50627 521.76726,324.95511 530.29307,311.06238 532.21312,308.20515 533.86209,305.1581 535.407,302.11454 536.74338,300.32772 538.93234,298.62207 538.92379,296.19819 538.71032,295.37831 539.17654,294.05675 538.38947,293.21572 536.21106,290.437 532.17951,289.58028 528.8106,289.6795 z"
       inkscape:connector-curvature="0"
       id="path3049"
       style="fill:#76bd94;stroke:none" />
    <path
       d="M 583.5473,180.06484 C 582.66476,180.80241 583.4618,182.23077 583.31784,183.23094 584.19529,194.51798 585.84402,205.88331 584.79912,217.21333 584.27345,220.73238 583.92659,224.43692 582.25845,227.60098 579.15323,232.42144 575.87339,237.17991 573.68277,242.51506 568.68977,253.90288 566.74936,266.43065 566.97131,278.82013 566.91581,282.07559 565.46274,285.11692 564.84178,288.29311 562.52933,296.8825 560.77571,305.74455 557.09303,313.86809 556.64407,315.1396 555.4578,316.1231 555.18525,317.41904 555.6208,318.31422 557.04838,318.0566 557.9105,318.37445 559.23257,318.45955 559.03772,316.60145 559.44239,315.75032 562.16424,307.3753 567.73477,300.39828 572.15566,292.90045 574.63983,288.7203 577.35948,284.49657 578.56695,279.7269 578.53435,278.95896 579.30989,278.41386 579.24703,277.56989 579.94861,273.99519 578.4989,270.49118 578.60817,266.91536 578.40992,255.7575 583.32646,245.388 588.21456,235.62418 592.93571,225.81579 598.42607,216.10922 600.32251,205.25514 598.67496,201.80264 596.46802,198.54527 594.45885,195.26644 591.19338,190.21786 587.95691,185.01761 584.24799,180.28467 584.059,180.11948 583.80654,179.96817 583.5473,180.06484 z"
       inkscape:connector-curvature="0"
       id="path3038"
       style="fill:#a7b0c5;stroke:none" />
    <path
       d="M 550.60964,256.88184 C 549.82319,258.05629 550.104,259.71968 549.76752,261.07769 548.76387,270.63901 550.1118,280.21963 551.15943,289.71684 551.70688,295.29514 551.16243,301.01397 549.55628,306.37821 547.94168,310.90792 545.29335,314.97873 543.6028,319.46944 543.15651,324.97472 541.64284,330.45908 541.86483,336.01796 542.07882,337.14616 543.40235,336.55602 543.67836,335.77753 547.10558,330.79374 549.26926,325.08284 552.14153,319.79231 553.3374,318.5727 554.69636,317.47769 555.55565,315.95228 559.35909,309.91255 560.71101,302.75804 562.61494,295.98268 563.93938,290.59075 565.41159,285.22554 566.77083,279.84646 566.83523,272.72305 567.00538,265.58465 568.38779,258.57859 568.73371,257.88375 568.14198,256.85411 567.41233,257.46574 564.34831,260.03068 560.10111,261.79247 556.16703,260.21352 554.2043,259.56811 552.69224,258.09675 551.08363,256.88184 550.92348,256.80574 550.77014,256.81394 550.60964,256.88184 z"
       inkscape:connector-curvature="0"
       id="path3042"
       style="fill:#b667d7;stroke:none" />
    <path
       d="M 576.65862,171.08921 C 575.78034,171.74877 576.60032,173.11415 576.49904,174.04155 577.72335,183.92209 579.30403,193.90649 578.36113,203.86839 577.83559,208.43459 576.33948,213.66177 571.93243,215.95362 567.42059,218.19777 562.20091,216.44817 557.86653,214.61595 552.84442,212.53239 548.38736,209.41789 543.79514,206.58369 542.58673,206.37157 543.16504,207.89054 543.37058,208.49787 547.41422,220.67953 548.35771,233.65488 549.52154,246.37999 549.73361,249.03034 550.04928,251.73758 550.45164,254.3264 549.96368,255.75292 551.66349,256.7775 552.51248,257.65122 555.07203,260.08768 558.90509,261.40796 562.31893,260.07926 564.8384,259.14874 567.25054,257.62166 568.95109,255.52168 569.91748,252.70661 570.57242,249.77484 571.67139,246.97608 574.04681,239.96994 577.81228,233.52623 582.07175,227.50118 583.82084,224.01522 584.18335,220.01317 584.65216,216.18793 585.57934,203.44793 583.58685,190.73743 582.60069,178.07545 580.92191,175.72844 579.23058,173.28764 577.21504,171.206 577.04815,171.07654 576.86744,171.04131 576.65862,171.08921 z"
       inkscape:connector-curvature="0"
       id="path3044"
       style="fill:#d5aeb8;stroke:none" />
    <path
       d="M 542.59986,249.56587 C 541.26109,249.65477 541.11589,251.14576 541.42107,252.16043 542.57623,259.96647 544.87851,267.65222 544.66756,275.6011 544.72046,279.34482 543.7543,283.01024 543.17987,286.69746 542.53784,289.66215 541.74188,292.74939 539.74903,295.13096 539.2266,296.60786 539.031,298.19135 538.0225,299.47863 536.84873,301.18795 535.24132,302.59166 534.51451,304.58333 527.54537,317.48708 518.05393,328.80441 507.93659,339.32903 507.03085,340.07764 507.67649,341.16294 508.42988,341.73164 509.72571,343.08729 510.7558,344.78752 512.22313,345.92371 518.16586,342.92281 523.50015,338.81629 528.78538,334.78833 535.63139,329.3811 541.89052,322.81005 545.4268,314.72346 547.36106,310.47453 549.93367,306.3685 550.43375,301.63948 551.62885,296.1062 551.11033,290.44267 550.38385,284.89549 549.45503,276.09115 548.56086,267.15356 549.8708,258.34039 549.837,257.05645 550.47664,255.54109 549.8128,254.36762 548.60612,254.08815 547.57682,253.28932 546.70799,252.38044 545.49969,251.34723 544.34381,249.60031 542.59987,249.56587 z"
       inkscape:connector-curvature="0"
       id="path3046"
       style="fill:#85dbce;stroke:none" />
    <path
       d="M 623.32464,320.39475 C 621.40529,320.46255 619.94348,321.86396 618.39434,322.79433 617.55648,323.19862 617.68994,324.4319 617.35601,325.19412 615.69285,332.66857 614.05364,340.24 613.88664,347.93643 613.94314,348.94524 613.72954,350.13066 614.3141,350.99176 615.06672,354.32509 615.54364,357.88334 617.50058,360.77464 618.07686,361.73229 619.47688,362.05723 620.26932,361.16809 622.54157,358.99245 623.63708,355.92586 624.86947,353.1032 626.53424,348.73779 628.23225,344.33442 629.13989,339.73912 629.65606,336.24574 629.61595,332.66639 629.25072,329.16243 628.71915,326.30815 628.03429,323.11987 625.71936,321.15251 625.03932,320.63596 624.18265,320.34571 623.32464,320.39475 z"
       inkscape:connector-curvature="0"
       id="path3837"
       style="fill:#ca818c;stroke:none" />
    <path
       d="M 442.17279,92.916472 C 430.11963,98.606206 419.05579,106.45357 406.72321,111.4136 403.45256,112.67281 399.81777,113.51633 396.34772,112.49195 393.97759,114.23177 392.11699,116.97256 389.149,117.95171 381.65073,120.76041 373.29059,120.83902 365.31993,120.47291 361.69174,120.35061 358.10691,119.50353 354.6029,118.93291 354.09843,122.27836 354.5055,125.85665 354.34041,129.2888 354.39611,134.86885 354.09061,140.52521 354.36401,146.05738 357.42296,146.64609 360.85526,146.32711 364.05418,146.59626 366.65324,146.50286 369.37016,147.18957 371.91481,146.59126 372.5891,145.75088 373.2056,147.17579 374.04237,146.87299 382.68622,147.08462 391.67954,146.69707 399.55404,142.75935 405.68097,140.2751 410.83705,136.0548 415.40676,131.35433 422.11092,125.01376 428.06733,117.78681 435.75372,112.67885 442.90262,108.36501 451.35341,106.62632 459.66929,106.89628 474.77321,106.93818 489.61841,110.55425 503.78249,115.52007 521.38558,122.40455 537.67843,132.58713 552.09713,144.71733 562.88153,153.99446 572.55426,164.56397 581.41612,175.64846 581.74381,176.4663 583.16057,176.09462 582.91221,177.1154 584.31562,180.43338 587.03295,183.02185 588.82935,186.11447 592.96359,192.00591 596.55593,198.26819 600.49613,204.26848 604.99783,213.16933 610.41706,221.82728 613.32519,231.49548 616.72072,241.97721 620.80059,252.5804 620.21733,263.79153 620.34103,266.40336 619.80045,269.01812 619.87731,271.60229 620.71614,273.6307 623.40136,273.88609 624.6376,275.56596 626.10669,275.91777 625.70269,273.65872 625.88111,272.78751 626.4001,253.58165 624.68081,233.82547 616.82684,216.09149 613.07634,208.65411 610.79994,200.56551 606.77194,193.2421 593.97217,168.47728 573.16904,149.10782 551.51861,132.0651 540.86323,123.26384 528.87935,116.15972 516.05443,111.01539 495.89966,102.75892 474.37151,98.711531 452.99879,95.000113 449.38891,94.401825 445.78918,93.420288 442.17279,92.916572 z"
       inkscape:connector-curvature="0"
       id="path3047"
       style="fill:#73a0a6;stroke:none" />
    <path
       d="M 626.28913,277.07167 C 625.15662,286.29572 624.6186,295.71757 622.35668,304.78551 621.28464,310.26078 619.6127,315.64509 618.65324,321.11892 619.44596,322.45817 620.76948,320.58917 621.81057,320.4583 623.65362,319.6696 625.46013,320.86169 627.15375,321.28407 630.11828,314.33864 632.31377,306.97962 633.92225,299.574 635.03185,293.56848 636.24614,287.00851 633.93475,281.13249 632.70909,278.03388 629.36159,276.85116 626.28914,277.07167 z"
       inkscape:connector-curvature="0"
       id="path3051"
       style="fill:#c9ca98;stroke:none" />
    <path
       d="M 600.77787,207.18285 C 599.4032,208.58892 599.61004,210.9493 598.78677,212.69519 594.45055,225.56412 586.95918,237.2144 582.14473,249.91859 580.08235,255.54054 578.63662,261.45085 579.0592,267.49265 578.95761,271.17051 580.24028,274.80304 579.41485,278.46089 579.54393,280.19158 581.98845,279.60126 583.15051,280.09046 589.88588,281.2941 596.68763,282.71034 603.56603,281.91939 608.00455,281.41624 612.75957,281.32725 616.7977,279.25751 618.57789,277.11204 618.6506,274.02087 619.30413,271.39818 620.24112,264.94475 620.07222,258.29148 619.00297,251.87128 616.95685,242.96214 613.9466,234.28707 610.86303,225.69249 608.17438,219.47481 605.05604,213.36397 601.55506,207.56173 601.382,207.30589 601.11058,207.08497 600.77787,207.18285 z"
       inkscape:connector-curvature="0"
       id="path3055"
       style="fill:#d0cf6e;stroke:none" />
    <path
       d="M 579.56058,279.81126 C 578.12743,280.67024 578.23958,282.81846 577.30672,284.11495 572.4022,294.93459 564.12168,304.04034 559.94508,315.23518 558.23208,319.46521 558.93368,324.80634 562.55954,327.81247 563.63993,328.78664 564.85002,329.89334 566.36401,329.00534 567.74164,328.64385 569.55541,328.7454 569.99142,327.02556 573.49889,321.97744 578.20548,317.5873 582.94848,313.66741 586.64003,311.35059 590.44774,309.18663 593.72486,306.26487 602.27692,299.39213 608.60659,290.37249 615.04902,281.58908 615.47591,280.05496 613.28594,280.98436 612.51008,281.06873 602.58187,283.44841 592.23248,282.23603 582.32973,280.27713 581.40596,280.15095 580.4861,279.85484 579.56058,279.81126 z"
       inkscape:connector-curvature="0"
       id="path3058"
       style="fill:#d17697;stroke:none" />
  </g>
</svg>
