<?xml version="1.0" encoding="UTF-8" standalone="no"?>
<!-- Created with Inkscape (http://www.inkscape.org/) -->

<svg
   xmlns:dc="http://purl.org/dc/elements/1.1/"
   xmlns:cc="http://creativecommons.org/ns#"
   xmlns:rdf="http://www.w3.org/1999/02/22-rdf-syntax-ns#"
   xmlns:svg="http://www.w3.org/2000/svg"
   xmlns="http://www.w3.org/2000/svg"
   xmlns:xlink="http://www.w3.org/1999/xlink"
   xmlns:inkscape="http://www.inkscape.org/namespaces/inkscape"
   version="1.1"
   width="740"
   height="520"
   id="svg2"
   style="display:inline;enable-background:new">
  <defs
     id="defs4">
    <filter
       color-interpolation-filters="sRGB"
       id="filter3050">
      <feBlend
         in2="BackgroundImage"
         mode="lighten"
         id="feBlend3052" />
    </filter>
  </defs>
  <metadata
     id="metadata7">
    <rdf:RDF>
      <cc:Work
         rdf:about="">
        <dc:format>image/svg+xml</dc:format>
        <dc:type
           rdf:resource="http://purl.org/dc/dcmitype/StillImage" />
        <dc:title />
      </cc:Work>
    </rdf:RDF>
  </metadata>
  <g
     id="g5551"
     style="display:none">
    <image
       xlink:href="pngs/coronal-0371.png"
       id="image5553"
       height="520"
       width="740"
       y="0"
       x="0" />
  </g>
  <g
     id="g5559"
     style="display:inline">
    <path
       d="M 487.56865,262.59464 C 493.3105,242.00391 495.49102,220.90699 489.49943,204.6265 483.36749,187.96463 459.83472,171.29756 442.27228,176.90762 432.73065,179.95555 427.26673,196.58779 428.5022,227.15476"
       inkscape:connector-curvature="0"
       id="path5561"
       style="fill:none;stroke:#0000e9;stroke-width:1;stroke-miterlimit:4;stroke-opacity:1;stroke-dasharray:none;stroke-dashoffset:0" />
    <path
       d="M 440.70934,176.47897 C 429.99324,152.96823 404.75207,131.24606 392.42258,122.78638"
       inkscape:connector-curvature="0"
       id="path5563"
       style="fill:none;stroke:#0000e9;stroke-width:1;stroke-miterlimit:4;stroke-opacity:1;stroke-dasharray:none;stroke-dashoffset:0" />
    <path
       d="M 371.92276,145.70524 440.93725,176.79284 C 409.74425,178.24124 387.10723,197.9369 370.67925,219.07199"
       inkscape:connector-curvature="0"
       id="path5565"
       style="fill:none;stroke:#0000e9;stroke-width:1;stroke-miterlimit:4;stroke-opacity:1;stroke-dasharray:none;stroke-dashoffset:0" />
    <path
       d="M 371.92277,219.69374 C 367.04807,196.07949 367.92981,170.14958 371.30101,143.21824 413.17904,81.79428 515.78052,122.35977 539.17408,178.03635 547.28665,208.86289 515.19686,259.40597 496.89494,264.45989"
       inkscape:connector-curvature="0"
       id="path5567"
       style="fill:none;stroke:#0000e9;stroke-width:1;stroke-miterlimit:4;stroke-opacity:1;stroke-dasharray:none;stroke-dashoffset:0" />
    <path
       d="M 493.78617,264.45989 C 492.92781,265.96603 498.19842,264.03244 493.93723,264.92095 487.3911,265.41777 483.65663,258.99836 480.42942,254.34699 474.71364,246.31633 465.024,242.95483 457.48481,237.13444 452.36722,232.27 449.04316,225.37681 442.49288,222.14247 435.84331,221.04426 432.08737,228.77924 425.62359,228.77628 419.28146,229.91035 412.78153,228.53102 406.83383,226.29471 396.81359,225.03363 387.16674,232.28018 377.22848,228.68247 373.32502,226.89983 373.57106,221.76212 370.67927,219.07199"
       inkscape:connector-curvature="0"
       id="path5569"
       style="fill:none;stroke:#0000e9;stroke-width:1;stroke-miterlimit:4;stroke-opacity:1;stroke-dasharray:none;stroke-dashoffset:0" />
    <path
       d="M 372.38687,145.81159 C 393.61265,155.83599 415.40437,164.84677 436.40791,175.32539 437.23366,177.61127 432.99409,177.23577 431.68226,177.81307 418.34669,180.38452 405.61148,185.834 395.09522,194.47625 386.60393,200.7529 379.98281,209.11818 372.13429,216.06958 369.97635,214.52525 370.97659,210.68255 370.07473,208.39483 368.34942,192.18561 368.82007,175.78726 369.60842,159.529 370.46211,155.09655 369.95768,150.17169 371.66797,146.00589 371.84754,145.82479 372.14157,145.75741 372.38687,145.81159 z"
       inkscape:connector-curvature="0"
       id="path5575"
       style="fill:#a78875;stroke:none" />
    <path
       d="M 438.35874,177.17752 C 439.39258,177.16562 439.16964,178.3882 438.51673,178.79871 433.05038,183.76835 431.0476,191.25482 429.80284,198.27035 428.27572,207.48048 428.00994,216.87201 428.43924,226.19108 428.59653,227.03329 428.72581,228.39084 427.505,228.3687 421.01844,229.72641 414.27298,228.82861 408.09192,226.58951 404.32136,225.56002 400.33032,226.29126 396.61069,227.15599 391.6105,228.27434 386.603,229.89591 381.41141,229.40548 378.73046,229.30828 375.71176,228.39998 374.51402,225.75144 373.61114,223.78691 372.47285,221.88058 371.79372,219.83684 372.17904,219.01675 371.52858,217.93438 372.32953,217.19896 383.40999,203.48556 396.65458,190.99484 412.92114,183.71724 420.86824,180.10223 429.45725,177.82956 438.17326,177.16378 L 438.35874,177.17748 z"
       inkscape:connector-curvature="0"
       id="path8719"
       style="fill:#a9a2da;stroke:none" />
    <path
       d="M 450.5795,175.99597 C 459.79729,176.33247 468.38194,180.75714 475.47229,186.41937 482.97555,192.50414 488.95836,200.77093 491.06806,210.30203 493.38089,219.39714 493.03269,228.94383 492.27246,238.23084 491.46798,245.98059 489.9071,253.66946 487.7089,261.12913 487.6374,261.99584 486.64379,262.32262 486.16327,261.56191 482.16083,257.41304 479.6738,251.93047 474.89737,248.4962 469.46424,244.15776 462.98888,241.30747 457.61382,236.90056 452.52108,232.26726 449.2016,225.65549 442.98188,222.30297 441.58222,221.69412 439.91911,222.1012 438.48926,222.42662 435.08509,223.62249 432.49397,226.42698 429.18114,227.72984 428.10298,227.36434 428.74016,225.84259 428.54228,224.98206 428.61348,218.02164 428.57038,211.03549 429.1674,204.09891 430.17441,196.6461 431.40774,188.85711 435.60237,182.45583 437.9321,178.80792 442.0498,176.4652 446.36721,176.18494 447.76421,176.02154 449.17206,175.96129 450.5795,175.99597 z"
       inkscape:connector-curvature="0"
       id="path8721"
       style="fill:#84cdcd;stroke:none" />
    <path
       d="M 392.54163,123.34856 C 395.46531,124.78629 397.89341,127.13066 400.50108,129.07265 413.73213,139.85073 425.89378,152.16791 435.11922,166.62994 436.80591,169.47827 438.72538,172.24966 439.90777,175.33437 439.31682,176.49376 437.95508,175.0614 437.07553,174.8956 415.33811,165.19879 393.73086,155.19766 371.88473,145.789 370.58856,145.58724 371.43794,143.91067 371.7093,143.13562 373.6679,139.62145 376.55675,136.72861 379.24132,133.77333 383.0661,129.78705 387.40776,126.20187 392.15422,123.40704 392.27555,123.35434 392.40956,123.32624 392.54163,123.34854 z"
       inkscape:connector-curvature="0"
       id="path2998"
       style="fill:#a76986;stroke:none" />
    <path
       d="M 434.08203,112.64732 C 455.58801,113.09529 476.61938,120.15408 494.99285,131.08942 511.44277,141.05892 526.27781,154.38766 535.70726,171.31409 537.8988,175.22721 539.86444,179.40558 540.05137,183.96574 541.22004,195.59792 538.05493,207.14806 533.87256,217.8908 528.36697,231.38751 520.68925,244.15003 510.60276,254.72961 506.40249,258.85018 501.74547,263.19007 495.81883,264.50406 493.12546,265.07972 489.9459,264.79474 487.90254,262.80092 487.66724,261.39938 488.60558,259.93379 488.75437,258.50215 490.86818,249.88259 492.52239,241.09188 492.99625,232.20306 493.31046,223.27231 492.94275,214.13627 489.92268,205.67514 486.97004,196.8515 480.42869,189.65804 473.03387,184.24385 467.18491,180.12877 460.54457,176.82347 453.39397,175.99954 449.493,175.89894 445.47591,175.5914 441.73517,176.87669 440.39053,176.48865 440.18429,174.66635 439.43898,173.66059 431.78102,158.77056 420.34304,146.1805 408.00141,135.10969 403.40384,130.93917 398.55168,127.09828 393.60883,123.37049 392.9493,122.26074 394.90757,121.90349 395.51663,121.36766 407.31154,115.06591 420.75525,112.40268 434.08203,112.64732 z"
       inkscape:connector-curvature="0"
       id="path3000"
       style="fill:#7cccd0;stroke:none" />
  </g>
</svg>
