<?xml version="1.0" encoding="UTF-8" standalone="no"?>
<!-- Created with Inkscape (http://www.inkscape.org/) -->

<svg
   xmlns:dc="http://purl.org/dc/elements/1.1/"
   xmlns:cc="http://creativecommons.org/ns#"
   xmlns:rdf="http://www.w3.org/1999/02/22-rdf-syntax-ns#"
   xmlns:svg="http://www.w3.org/2000/svg"
   xmlns="http://www.w3.org/2000/svg"
   xmlns:xlink="http://www.w3.org/1999/xlink"
   xmlns:inkscape="http://www.inkscape.org/namespaces/inkscape"
   version="1.1"
   width="740"
   height="520"
   id="svg2"
   style="display:inline;enable-background:new">
  <defs
     id="defs4">
    <filter
       color-interpolation-filters="sRGB"
       id="filter3050">
      <feBlend
         in2="BackgroundImage"
         mode="lighten"
         id="feBlend3052" />
    </filter>
  </defs>
  <metadata
     id="metadata7">
    <rdf:RDF>
      <cc:Work
         rdf:about="">
        <dc:format>image/svg+xml</dc:format>
        <dc:type
           rdf:resource="http://purl.org/dc/dcmitype/StillImage" />
        <dc:title />
      </cc:Work>
    </rdf:RDF>
  </metadata>
  <g
     id="g4138"
     style="display:none">
    <image
       xlink:href="pngs/coronal-0515.png"
       id="image4140"
       height="520"
       width="740"
       y="0"
       x="0" />
  </g>
  <g
     id="g4146"
     style="display:inline">
    <path
       d="M 435.34147,318.55232 C 436.06124,318.6698 438.25051,317.75723 436.82351,317.15272 435.82658,317.03825 435.195,318.96084 436.64033,318.42419 437.7785,317.89303 438.73201,316.04062 440.11313,317.25585 441.56922,317.31305 443.02943,317.26775 444.18457,318.29651 446.63315,319.7867 448.37353,322.12691 450.47229,324.0341 451.1232,324.68982 451.55009,325.48068 452.48291,325.59617 453.17703,326.77126 452.67571,328.23525 452.80818,329.53639 452.81218,331.05614 452.85668,332.57818 452.75058,334.09572 451.80319,335.59871 450.35788,337.08478 448.45073,337.06979 447.13422,337.539 445.8514,338.14603 444.418,337.8289 442.63602,337.8219 440.85389,337.8621 439.07204,337.8259 438.55808,336.19759 436.33396,338.19673 435.68644,336.70958 434.49183,335.63411 432.68625,335.31471 431.84823,333.83521 430.72265,332.37625 429.87492,330.72333 429.10845,329.05977 428.50708,327.35257 429.18305,325.55929 430.10654,324.10912 430.91718,322.77343 432.01432,321.64778 433.02469,320.46598 433.71797,319.73997 434.48905,319.08387 435.34149,318.55194 z"
       inkscape:connector-curvature="0"
       id="path4148"
       style="fill:none;stroke:#0000e9;stroke-width:1;stroke-miterlimit:4;stroke-opacity:1;stroke-dasharray:none;stroke-dashoffset:0" />
    <path
       d="M 371.30101,198.55417 C 371.30101,200.33409 371.24611,197.98732 371.30101,197.93242 371.44756,197.78587 371.77621,198.07896 371.92276,197.93242 371.95476,197.90042 371.92276,194.55663 371.92276,194.2019 371.92276,193.71506 371.61252,191.40338 371.92276,191.09314 372.06931,190.94659 372.39796,191.23969 372.54451,191.09314 372.69106,190.94659 372.54451,190.67864 372.54451,190.47139 372.54451,190.26414 372.69106,189.99619 372.54451,189.84964 372.39796,189.70309 372.06931,189.99619 371.92276,189.84964 371.62966,189.55654 372.21586,188.89923 371.92276,188.60613 371.09376,187.77713 371.30101,189.64239 371.30101,187.98438 371.30101,187.77713 371.44756,187.50918 371.30101,187.36263 371.15446,187.21608 370.88651,187.36263 370.67926,187.36263 370.0575,186.32638 369.43575,185.29012 368.814,184.25387 L 368.19225,96.586824 C 379.49195,80.220075 398.6321,74.307245 419.79767,71.094988 478.03386,86.225549 533.95635,103.6698 583.94022,127.05268 605.82812,145.16417 624.95062,166.04104 633.68039,197.31066 646.70131,240.79744 640.10496,264.66693 635.54565,290.57348"
       inkscape:connector-curvature="0"
       id="path3760"
       style="fill:none;stroke:#0000e9;stroke-width:1;stroke-miterlimit:4;stroke-opacity:1;stroke-dasharray:none;stroke-dashoffset:0" />
    <path
       d="M 635.54565,289.32997 C 625.26085,328.21683 613.53951,365.74697 573.99219,376.99702 L 548.50035,387.5668 C 547.25685,388.81031 546.01334,390.05381 544.76984,391.29732 544.56259,391.29732 544.29464,391.15077 544.14809,391.29732 544.05119,391.39422 544.05119,393.68743 544.14809,393.78432 544.29464,393.93087 544.62329,393.63778 544.76984,393.78432 546.87511,395.88959 542.66458,392.92257 544.76984,395.02783 544.91639,395.17438 545.24505,394.88128 545.39159,395.02783 545.68469,395.32093 545.20622,395.90059 545.39159,396.27133 545.52267,396.53349 545.88227,396.63093 546.01335,396.89309 546.11145,397.08934 546.14784,399.2456 546.01335,399.38009 545.8668,399.52664 545.53814,399.23355 545.39159,399.38009 544.97709,399.7946 545.8061,401.4526 545.39159,401.8671 545.24505,402.01365 544.91639,401.72055 544.76984,401.8671 544.62329,402.01365 544.91639,402.34231 544.76984,402.48885 544.62329,402.6354 544.29464,402.34231 544.14809,402.48885 543.85499,402.78195 544.44119,403.43926 544.14809,403.73236 544.00154,403.87891 543.67289,403.58581 543.52634,403.73236 543.37979,403.87891 543.61904,404.16874 543.52634,404.35411 543.39526,404.61626 543.03566,404.71371 542.90459,404.97586 542.81189,405.16123 543.05113,405.45107 542.90459,405.59761 542.75804,405.74416 542.42938,405.45107 542.28283,405.59761 542.13629,405.74416 542.37553,406.034 542.28283,406.21937 542.15176,406.48152 541.79216,406.57897 541.66108,406.84112 541.47571,407.21186 541.95418,407.79153 541.66108,408.08462 541.51453,408.23117 541.18588,407.93807 541.03933,408.08462 540.89278,408.23117 541.13203,408.521 541.03933,408.70638 540.90825,408.96853 540.54865,409.06597 540.41758,409.32813 540.32488,409.5135 540.56413,409.80333 540.41758,409.94988 540.27103,410.09643 539.94237,409.80333 539.79583,409.94988 539.50273,410.24298 540.08892,410.90029 539.79583,411.19338 539.64928,411.33993 539.32062,411.04684 539.17407,411.19338 539.17407,412.85139 539.38132,410.98613 538.55232,411.81514 538.40577,411.96168 538.69887,412.29034 538.55232,412.43689 538.40577,412.58344 538.07712,412.29034 537.93057,412.43689 537.78402,412.58344 538.07712,412.91209 537.93057,413.05864 537.78402,413.20519 537.45537,412.91209 537.30882,413.05864 537.16227,413.20519 537.45537,413.53384 537.30882,413.68039 537.16227,413.82694 536.83361,413.53384 536.68707,413.68039 536.54052,413.82694 536.83361,414.1556 536.68707,414.30214 536.39397,414.59524 535.73666,414.00905 535.44356,414.30214 535.29701,414.44869 535.23631,414.9239 535.44356,414.9239 535.65081,414.9239 535.44356,414.50939 535.44356,414.30214 L 514.92574,436.06347 503.7342,441.65924 C 482.73956,444.0216 452.824,438.42111 430.36746,427.98069 422.93272,426.81401 417.29325,421.45838 414.82365,408.70638 399.38851,404.39837 384.10704,399.85987 371.92276,390.67556"
       inkscape:connector-curvature="0"
       id="path3762"
       style="fill:none;stroke:#0000e9;stroke-width:1;stroke-miterlimit:4;stroke-opacity:1;stroke-dasharray:none;stroke-dashoffset:0" />
    <path
       d="M 371.92276,197.93242 C 377.94086,200.19168 395.32295,197.17585 403.49679,188.41426 420.10427,186.43575 416.16934,161.9989 433.57335,163.65438 446.92583,164.80616 458.0363,173.94947 471.25807,176.15464 484.07152,181.04245 498.17917,183.26617 510.39301,190.03496 523.68916,195.98475 535.97332,204.30399 547.04084,213.75056 558.58606,225.85649 565.23252,242.14356 564.6441,258.93056 565.82948,274.93718 563.03077,290.70952 558.76197,306.03432 555.93579,313.33223 553.4651,333.81453 548.90343,332.58079 550.02039,312.83438 560.10745,294.78392 560.15933,274.8086 563.39855,254.6904 551.56442,236.94817 540.16395,221.6834 532.27959,213.45159 522.96335,207.08623 513.06049,201.66293"
       inkscape:connector-curvature="0"
       id="path4152"
       style="fill:none;stroke:#0000e9;stroke-width:1;stroke-miterlimit:4;stroke-opacity:1;stroke-dasharray:none;stroke-dashoffset:0" />
    <path
       d="M 513.68224,202.28468 C 512.76485,199.43425 509.55801,199.54651 513.35642,202.08283 507.78009,197.37074 499.80794,197.7546 493.11258,195.28187 484.74753,192.68191 475.95724,191.53266 467.29849,189.93876 457.77285,187.73744 447.76376,189.29695 438.34261,191.41789 430.53554,193.82388 425.28516,201.162 417.76354,204.86254 410.85706,209.16388 404.57625,213.99931 396.9366,217.40776 386.58339,221.34379 376.30323,226.39806 365.08349,227.15476"
       inkscape:connector-curvature="0"
       id="path4154"
       style="fill:none;stroke:#0000e9;stroke-width:1;stroke-miterlimit:4;stroke-opacity:1;stroke-dasharray:none;stroke-dashoffset:0" />
    <path
       d="M 395.54934,218.45023 C 395.57684,220.87849 398.57856,220.45385 395.89989,218.82568 399.41358,223.96355 404.57525,227.68399 408.19318,232.75411 412.08781,236.68008 414.53635,241.62516 417.69791,246.08608 420.87685,251.12449 422.87764,256.82108 423.12291,262.79434 423.66788,268.11027 423.66703,273.46373 424.61561,278.76426 424.65861,284.51401 424.64221,290.32968 425.92462,295.95046 426.07561,300.56505 427.46498,305.03955 428.02466,309.56125 428.19579,312.35873 432.48391,315.45549 431.72916,310.56359 431.47809,303.46151 429.68662,296.3964 430.62134,289.28047 430.15307,283.82995 427.80963,278.57117 428.76026,273.02406 429.47014,266.65293 427.83468,260.41155 427.64138,254.0595 427.10949,247.56844 427.27866,241.03952 427.14627,234.52725 426.85018,229.82847 429.32755,225.63544 429.51598,220.97435 429.74273,215.97232 430.93175,211.13278 431.927,206.25233 432.13757,202.24246 434.21115,195.26066 433.42557,193.14888 433.27487,194.5077 434.22171,196.8258 435.96323,196.06716"
       inkscape:connector-curvature="0"
       id="path4156"
       style="fill:none;stroke:#0000e9;stroke-width:1;stroke-miterlimit:4;stroke-opacity:1;stroke-dasharray:none;stroke-dashoffset:0" />
    <path
       d="M 565.90942,323.52633 617.51484,339.69189"
       inkscape:connector-curvature="0"
       id="path4158"
       style="fill:none;stroke:#0000e9;stroke-width:1;stroke-miterlimit:4;stroke-opacity:1;stroke-dasharray:none;stroke-dashoffset:0" />
    <path
       d="M 577.7227,267.56865 640.51967,264.45989"
       inkscape:connector-curvature="0"
       id="path4160"
       style="fill:none;stroke:#0000e9;stroke-width:1;stroke-miterlimit:4;stroke-opacity:1;stroke-dasharray:none;stroke-dashoffset:0" />
    <path
       d="M 561.52591,237.87124 638.72984,217.32218"
       inkscape:connector-curvature="0"
       id="path4162"
       style="fill:none;stroke:#0000e9;stroke-width:1;stroke-miterlimit:4;stroke-opacity:1;stroke-dasharray:none;stroke-dashoffset:0" />
    <path
       d="M 508.70822,189.22789 544.76984,110.26537"
       inkscape:connector-curvature="0"
       id="path4164"
       style="fill:none;stroke:#0000e9;stroke-width:1;stroke-miterlimit:4;stroke-opacity:1;stroke-dasharray:none;stroke-dashoffset:0" />
    <path
       d="M 483.21639,179.27985 514.30399,97.830328"
       inkscape:connector-curvature="0"
       id="path4166"
       style="fill:none;stroke:#0000e9;stroke-width:1;stroke-miterlimit:4;stroke-opacity:1;stroke-dasharray:none;stroke-dashoffset:0" />
    <path
       d="M 435.34147,163.73605 450.88528,77.934261"
       inkscape:connector-curvature="0"
       id="path4168"
       style="fill:none;stroke:#0000e9;stroke-width:1;stroke-miterlimit:4;stroke-opacity:1;stroke-dasharray:none;stroke-dashoffset:0" />
    <path
       d="M 430.98921,163.73605 C 421.04032,138.24421 398.59511,112.75238 375.65327,87.260542"
       inkscape:connector-curvature="0"
       id="path4170"
       style="fill:none;stroke:#0000e9;stroke-width:1;stroke-miterlimit:4;stroke-opacity:1;stroke-dasharray:none;stroke-dashoffset:0" />
    <path
       d="M 425.39344,164.97955 368.814,138.24421"
       inkscape:connector-curvature="0"
       id="path4172"
       style="fill:none;stroke:#0000e9;stroke-width:1;stroke-miterlimit:4;stroke-opacity:1;stroke-dasharray:none;stroke-dashoffset:0" />
    <path
       d="M 564.04416,257.62062 C 565.05832,259.05812 567.65553,257.60772 564.70197,257.61362 570.67026,258.02466 575.54296,262.02693 578.0983,267.30049 580.18142,271.24367 582.02098,275.9034 580.00868,280.22203 578.93509,286.88353 578.50931,293.64176 576.64934,300.15404 575.89015,306.45311 573.54893,312.49476 570.32849,317.90325 567.27286,321.80121 564.52152,326.76602 558.81252,326.57847 557.38548,326.59207 550.80242,326.50857 552.85259,324.14808"
       inkscape:connector-curvature="0"
       id="path4174"
       style="fill:none;stroke:#0000e9;stroke-width:1;stroke-miterlimit:4;stroke-opacity:1;stroke-dasharray:none;stroke-dashoffset:0" />
    <path
       d="M 371.18786,259.85009 C 374.10775,263.26532 375.42775,271.66294 378.42056,278.45182 381.67571,287.30039 381.80071,296.91553 384.76974,305.8468 386.7974,313.95534 387.41046,322.37763 390.5004,330.21088 393.15977,336.24395 394.44891,342.7754 397.147,348.77926 400.22649,355.95017 404.30765,362.67733 408.32456,369.35392 412.35574,374.7724 417.06943,379.73125 420.40546,385.62017 423.23623,390.74943 422.43285,398.71878 415.66685,400.01299 409.84308,401.60689 403.85591,398.41684 398.00412,397.72878 390.37826,396.24302 385.10816,390.0795 379.76352,385.01456 375.48009,382.27908 372.62132,376.39123 369.43575,373.88826"
       inkscape:connector-curvature="0"
       id="path4176"
       style="fill:none;stroke:#0000e9;stroke-width:1;stroke-miterlimit:4;stroke-opacity:1;stroke-dasharray:none;stroke-dashoffset:0" />
    <path
       d="M 417.31066,418.03266 C 415.75421,405.31073 430.19515,399.1169 440.45444,404.47941 454.95357,409.51935 470.40391,413.2738 485.73753,409.80447 502.94529,408.16252 518.19006,399.02434 534.55353,394.37902 538.31469,392.1636 548.15942,401.7129 542.90457,401.8671"
       inkscape:connector-curvature="0"
       id="path4178"
       style="fill:none;stroke:#0000e9;stroke-width:1;stroke-miterlimit:4;stroke-opacity:1;stroke-dasharray:none;stroke-dashoffset:0" />
    <path
       d="M 427.88045,403.11061 C 426.26993,399.2894 428.03997,404.68441 425.64289,399.26192 421.28452,392.35877 423.96219,385.26598 432.6437,388.34772 440.44115,390.26796 448.99729,395.25624 457.0919,396.52942 465.49654,398.58838 477.19981,399.99135 484.42664,396.73604 496.15132,393.92107 505.63185,389.43177 515.34116,381.69185 522.53466,376.7642 530.65551,385.2268 533.38573,391.34424 534.48951,393.00277 536.6412,397.10126 534.20006,393.16257"
       inkscape:connector-curvature="0"
       id="path4180"
       style="fill:none;stroke:#0000e9;stroke-width:1;stroke-miterlimit:4;stroke-opacity:1;stroke-dasharray:none;stroke-dashoffset:0" />
    <path
       d="M 568.39642,323.52634 C 558.72407,347.8431 542.78258,365.89073 524.87378,381.97104"
       inkscape:connector-curvature="0"
       id="path4182"
       style="fill:none;stroke:#0000e9;stroke-width:1;stroke-miterlimit:4;stroke-opacity:1;stroke-dasharray:none;stroke-dashoffset:0" />
    <path
       d="M 536.27115,394.78444 C 539.24479,395.4638 543.1479,397.32858 543.71274,400.59394 542.50691,401.92641 543.56354,404.03857 542.10592,405.52754 538.55258,412.81159 531.38163,417.16787 526.40473,423.3591 520.32837,429.80405 514.56435,437.02159 505.92187,440.0752 499.91275,443.05629 492.8281,441.08608 486.39591,441.32334 466.7894,440.56272 447.68495,435.00177 429.67952,427.50415 424.04418,426.12877 418.73343,421.34206 417.63308,415.61314 418.00505,406.44663 429.06863,400.68282 437.27656,403.93586 451.75198,408.40532 466.78338,413.27448 482.11562,410.63972 499.64514,409.06589 515.51969,401.00408 532.06813,395.63759 533.43448,395.28222 534.83814,394.70741 536.27115,394.78444 z"
       inkscape:connector-curvature="0"
       id="path4184"
       style="fill:#c7a1db;stroke:none" />
    <path
       d="M 441.16251,317.78433 C 445.81026,319.11947 449.09001,323.45996 452.54834,326.56658 452.78679,330.07534 453.25262,335.44789 448.77897,336.49519 442.46082,337.96409 433.67329,337.45243 430.59272,330.68569 427.30077,326.20632 432.21668,321.18607 435.97476,319.0667 437.55655,318.23323 439.34853,317.65097 441.16251,317.78433 z"
       inkscape:connector-curvature="0"
       id="path4186"
       style="fill:none;stroke:none" />
    <path
       d="M 592.52028,332.18178 C 600.54997,334.78036 608.7026,337.13183 616.61317,339.97311 616.50894,343.00226 613.5266,345.60573 612.18331,348.27859 603.0767,362.08958 588.95223,372.41164 573.11481,377.04648 564.02441,380.8851 554.51278,384.21949 546.06374,389.28582 543.52629,391.0608 543.14545,394.64439 545.50028,396.76628 546.93797,398.30598 544.54145,399.72022 543.51844,398.0875 541.46447,395.47583 538.10062,394.67885 535.39681,393.26892 532.36007,389.55556 530.60443,384.86234 526.49798,382.05796 528.25169,378.52048 532.36948,375.91882 535.00821,372.73167 548.64471,359.39844 560.0353,343.71216 567.74007,326.13923 569.81966,323.05705 574.61491,327.51885 577.77459,327.56542 582.68982,329.10421 587.60505,330.64299 592.52028,332.18178 z"
       inkscape:connector-curvature="0"
       id="path4190"
       style="fill:#d5be93;stroke:none" />
    <path
       d="M 566.97015,258.62074 C 574.8837,260.50903 580.16645,268.9387 580.22125,276.80699 578.93013,288.8899 576.70653,301.07654 572.62421,312.51887 570.12908,317.2811 567.35277,322.77351 562.44302,325.34251 559.8865,325.76195 556.65576,327.07374 554.30196,325.65338 557.65013,309.37381 563.17948,293.3512 564.61915,276.69041 565.49062,270.92549 565.19253,265.04172 565.04661,259.30078 565.38797,258.541 566.26425,258.55575 566.97015,258.62074 z"
       inkscape:connector-curvature="0"
       id="path4192"
       style="fill:#c7afc8;stroke:none" />
    <path
       d="M 521.83484,102.25009 C 529.12762,105.08606 536.79398,107.25509 543.7516,110.79918 542.40309,115.80043 539.34346,120.72611 537.34917,125.69244 527.72123,146.44896 518.5855,167.47977 508.40888,187.95473 504.23162,187.32693 500.18638,184.66044 495.93498,183.64132 491.99277,182.3793 488.15197,181.00083 484.14112,180.00796 483.3644,177.36054 486.18087,174.32616 486.62813,171.55602 495.64819,147.65565 504.69402,123.7645 513.9075,99.937948 516.34567,99.550769 519.33302,101.73498 521.83484,102.25009 z"
       inkscape:connector-curvature="0"
       id="path4198"
       style="fill:#736cd4;stroke:none" />
    <path
       d="M 452.89808,80.488765 C 473.01191,86.133806 493.07369,92.176064 512.68343,99.296766 513.00817,102.103 510.5592,105.20953 509.93111,108.09565 500.94546,131.77626 491.98323,155.47643 482.80047,179.07533 479.61293,179.29587 476.29241,176.97662 473.00787,176.39402 460.50604,173.31024 448.88898,167.24427 436.73252,163.29837 435.03695,161.41363 437.44639,158.17145 437.21335,155.86502 441.6502,130.73368 446.22034,105.62497 450.74137,80.508195 451.32241,79.716891 452.17126,80.450715 452.89808,80.488765 z"
       inkscape:connector-curvature="0"
       id="path4200"
       style="fill:#dbc198;stroke:none" />
    <path
       d="M 430.63158,74.290674 C 436.9083,76.361817 443.89446,77.037329 449.69217,80.15846 450.63645,83.013681 448.4593,86.397625 448.48531,89.414385 443.89808,113.67424 439.95757,138.11636 435.10042,162.28802 433.26755,164.7496 430.4274,161.94754 429.81553,159.89816 417.41062,133.18117 397.37041,111.42587 378.22954,89.465311 375.71243,87.004499 380.38281,85.298097 381.84347,84.06384 393.41431,76.827245 407.04564,73.117724 420.44883,71.575273 423.84308,72.480407 427.23733,73.385541 430.63158,74.290674 z"
       inkscape:connector-curvature="0"
       id="path4202"
       style="fill:#b1daa9;stroke:none" />
    <path
       d="M 375.97569,89.717898 C 380.7327,92.186793 383.48673,97.45668 387.32929,101.10642 403.24817,119.57413 419.66549,138.40456 429.31036,161.06395 430.84087,164.25925 425.74916,165.22107 423.858,163.61533 405.61824,155.35931 387.57542,146.65965 369.44729,138.15627 368.4381,124.65691 368.43741,110.77713 368.33979,97.120634 370.7594,94.810666 372.23637,90.352018 375.82025,89.679038 L 375.97569,89.717898 z"
       inkscape:connector-curvature="0"
       id="path4204"
       style="fill:#746bdb;stroke:none" />
    <path
       d="M 370.45764,139.45806 C 388.313,147.85922 406.21343,156.18704 423.92832,164.87218 423.51335,166.95892 420.9823,168.81485 420.02294,171.10913 415.83283,177.72516 412.15317,186.18769 403.81852,188.20731 399.38716,190.93607 395.44501,194.53485 390.2139,195.85476 384.56716,198.12061 378.39041,198.08467 372.40061,198.0582 371.17782,194.82571 373.70334,190.02136 371.33198,186.86666 368.50357,185.72282 369.70031,181.40089 369.15892,178.95998 369.06642,165.99822 368.44248,152.92156 369.52501,140.02153 369.60741,139.63519 370.05172,139.2525 370.45764,139.45806 z"
       inkscape:connector-curvature="0"
       id="path4206"
       style="fill:#6a72bc;stroke:none" />
    <path
       d="M 432.95362,194.77846 C 433.63495,196.73 432.6821,198.98317 432.57474,201.01541 431.36885,208.29415 429.79513,215.51609 429.02877,222.85864 428.08508,227.59988 426.68039,232.30709 427.04697,237.20332 426.86743,246.65925 427.59195,256.09085 428.49719,265.49223 428.80848,271.64781 427.95896,277.93649 429.56886,283.95624 430.82188,290.98904 429.95791,298.20345 431.12722,305.25603 431.19522,307.61139 431.86023,310.08428 431.40895,312.39646 430.09389,313.70681 428.93073,311.36524 428.47506,310.35634 427.18724,304.96313 426.51684,299.36432 425.69133,293.85876 424.65423,285.93936 424.83995,277.92724 423.82163,270.01046 423.25296,262.11271 422.86123,253.84916 418.40073,247.05421 413.19507,237.95834 406.45002,229.91445 399.09727,222.44642 397.89402,221.27146 397.00292,219.87343 396.22167,218.43418 396.86705,217.07341 398.93,216.91722 400.09791,216.01518 407.66303,212.00973 414.76237,206.92518 422.03919,202.39912 425.66419,199.99326 428.81468,196.82216 432.55531,194.63273 432.70023,194.62103 432.8203,194.73243 432.95362,194.77846 z"
       inkscape:connector-curvature="0"
       id="path4208"
       style="fill:#a7b0c5;stroke:none" />
    <path
       d="M 439.79095,317.21699 C 443.6768,317.35732 446.38595,320.32872 448.95339,322.86721 450.11295,324.33937 452.22634,325.36335 452.75598,327.14527 452.34198,329.72358 453.13602,332.7155 451.74025,335.03407 448.87239,337.75739 444.44402,337.83504 440.675,337.51136 439.30279,337.39473 438.07498,336.84212 436.68219,336.91875 432.95685,335.4907 430.22072,331.96669 429.16287,328.1948 429.08737,324.67065 431.93331,321.95309 434.24375,319.63599 435.47495,318.444 437.29288,318.48374 438.5863,317.36271 438.96695,317.1987 439.38223,317.16396 439.79095,317.21699 z"
       inkscape:connector-curvature="0"
       id="path4210"
       style="fill:#bfb879;stroke:none" />
    <path
       d="M 370.67926,255.13361 370.67926,455.95954"
       inkscape:connector-curvature="0"
       id="path4212"
       style="fill:#bfb879;fill-opacity:1;stroke:#0000e9;stroke-width:1;stroke-miterlimit:4;stroke-opacity:1;stroke-dasharray:none;stroke-dashoffset:0" />
    <path
       d="M 371.62403,261.10326 C 372.90008,262.09846 373.06041,263.98818 373.74669,265.38293 375.52095,270.70715 377.37617,276.00309 379.18043,281.30633 381.49291,289.50147 382.2614,298.0677 384.67734,306.21621 386.8011,315.18749 387.78111,324.47496 391.44088,332.96553 394.22903,341.05114 396.70202,349.27476 400.88929,356.75465 404.46121,363.31049 408.15865,369.82229 413.00895,375.5097 415.97369,379.51814 419.52824,383.29978 421.22837,388.06453 422.53873,391.92911 421.65851,397.08957 417.77303,399.11061 413.28811,401.31269 408.20695,399.94228 403.63569,398.80836 399.62111,397.72265 395.29364,397.49204 391.75841,395.11259 386.33214,391.63321 381.90182,386.8245 377.17475,382.56028 374.9137,380.01394 372.64444,377.39772 370.71726,374.61414 370.76716,337.7528 370.59678,300.89037 370.85735,264.0298 371.10709,263.11272 370.39331,261.53077 371.46604,261.07578 L 371.62403,261.10328 z"
       inkscape:connector-curvature="0"
       id="path4214"
       style="fill:#6ea26f;stroke:none" />
    <path
       d="M 639.48289,264.84423 C 638.26054,277.76069 634.97605,290.51138 631.50059,303.0384 627.88614,315.02371 624.08389,327.11777 618.20132,338.18253 616.93331,340.58159 614.13322,337.8068 612.24916,337.76553 597.51845,333.0743 582.65037,328.73732 568.04389,323.70122 565.53479,322.61786 569.32269,320.44807 569.84036,318.87936 576.24242,309.50875 577.3651,298.01192 579.34395,287.11613 580.0472,281.09446 582.07129,274.52086 579.2103,268.7873 579.03125,266.70475 582.18924,267.99226 583.39968,267.52289 601.95759,266.59993 620.52448,265.8061 639.07073,264.67936 L 639.47893,264.84264 639.48293,264.84464 z"
       inkscape:connector-curvature="0"
       id="path6153"
       style="fill:#cda392;stroke:none" />
    <path
       d="M 638.3563,218.26933 C 641.45616,232.1118 641.27815,246.52108 640.16797,260.61053 639.84083,261.91574 640.52122,264.6853 638.28854,264.25451 618.55817,265.33407 598.809,266.54116 579.07291,267.2348 576.99577,266.40117 576.72521,263.65488 574.89628,262.43992 572.30826,259.9001 569.02489,257.82149 565.40269,257.42522 564.0545,254.96843 564.90341,251.77842 564.22114,249.07196 563.92479,245.36832 562.70273,241.86073 562.28396,238.21822 566.49559,236.42994 571.31057,235.69777 575.74489,234.32046 596.46375,228.84897 617.15843,223.23779 637.94414,218.0495 L 638.33206,218.25639 638.35626,218.26929 z"
       inkscape:connector-curvature="0"
       id="path6155"
       style="fill:#e19179;stroke:none" />
    <path
       d="M 545.37136,110.89974 C 557.84411,115.87969 570.30698,121.00151 582.39772,126.82314 590.29607,131.82605 596.56296,138.97321 603.18579,145.51028 618.1996,160.75682 629.06047,179.96969 634.33971,200.74959 635.63147,206.09334 637.65163,211.38502 637.97161,216.85422 634.4706,218.53797 630.25616,219.01843 626.51336,220.28895 605.07004,226.01954 583.62707,231.96995 562.13283,237.38015 560.31128,235.87003 560.45082,232.94105 559.08279,231.01903 554.71173,222.05591 548.65666,213.88274 540.45283,208.14375 530.9106,200.72909 520.47183,194.53416 509.63645,189.22527 509.60585,186.63863 511.78876,184.19117 512.55057,181.65968 523.22648,158.14003 533.83899,134.5865 544.68441,111.14704 544.91754,111.08234 545.09512,110.75573 545.37136,110.89974 z"
       inkscape:connector-curvature="0"
       id="path6157"
       style="fill:#bf9784;stroke:none" />
    <path
       d="M 520.0879,380.42307 C 525.10396,380.63435 528.96405,384.61363 531.59424,388.54276 532.62005,390.22089 533.75892,391.92548 534.25271,393.84598 533.85515,394.87733 532.3211,394.73569 531.46372,395.22674 517.53548,399.61666 504.40144,406.66011 489.89664,409.0893 483.72389,410.05015 477.53203,411.42055 471.24617,410.90992 460.31029,410.67863 449.66768,407.51692 439.4423,403.91785 435.93351,402.2781 431.92934,402.37003 428.1952,402.84497 427.48347,402.48477 427.41283,401.52281 426.77322,401.03143 425.17329,398.09917 423.02858,394.837 423.95674,391.33863 424.51035,388.74802 427.34179,387.38406 429.81494,387.88788 436.38692,388.9931 442.39919,392.16527 448.66797,394.26195 454.78352,396.40341 461.19401,397.71574 467.619,398.41417 473.34011,398.94975 479.28309,398.9185 484.67586,396.86167 491.86024,394.97114 498.90809,392.39288 505.35979,388.65954 509.43328,386.52708 512.83296,383.40327 516.79056,381.10314 517.80592,380.58881 518.95723,380.39893 520.0879,380.42307 z"
       inkscape:connector-curvature="0"
       id="path8928"
       style="fill:#aac7db;stroke:none" />
  </g>
</svg>
