<?xml version="1.0" encoding="UTF-8" standalone="no"?>
<!-- Created with Inkscape (http://www.inkscape.org/) -->

<svg
   xmlns:dc="http://purl.org/dc/elements/1.1/"
   xmlns:cc="http://creativecommons.org/ns#"
   xmlns:rdf="http://www.w3.org/1999/02/22-rdf-syntax-ns#"
   xmlns:svg="http://www.w3.org/2000/svg"
   xmlns="http://www.w3.org/2000/svg"
   xmlns:xlink="http://www.w3.org/1999/xlink"
   xmlns:inkscape="http://www.inkscape.org/namespaces/inkscape"
   version="1.1"
   width="740"
   height="520"
   id="svg2"
   style="enable-background:new">
  <defs
     id="defs4">
    <filter
       color-interpolation-filters="sRGB"
       id="filter3050">
      <feBlend
         in2="BackgroundImage"
         mode="lighten"
         id="feBlend3052" />
    </filter>
  </defs>
  <metadata
     id="metadata7">
    <rdf:RDF>
      <cc:Work
         rdf:about="">
        <dc:format>image/svg+xml</dc:format>
        <dc:type
           rdf:resource="http://purl.org/dc/dcmitype/StillImage" />
        <dc:title />
      </cc:Work>
    </rdf:RDF>
  </metadata>
  <g
     id="layer1"
     style="display:none">
    <image
       xlink:href="pngs/coronal-0600.png"
       id="MRISLICE"
       height="520"
       width="740"
       y="0"
       x="0" />
  </g>
  <g
     id="layer3"
     style="display:inline">
    <path
       d="M 373.46838,160.81045 373.67301,77.934261 C 394.57302,40.891026 455.34229,54.451096 518.54125,71.094988 582.64506,95.336078 645.20053,117.71576 667.14,206.01519 675.73214,244.14932 688.57997,282.28345 665.27474,320.41758 640.86903,345.64919 619.84344,372.90887 603.72128,403.11061 583.58345,448.548 553.22117,447.24502 521.65001,440.41573 482.63682,428.55238 458.18336,413.83971 444.55275,414.9239 417.78269,415.66663 394.78998,414.5207 371.186,413.68039 375.00737,387.30136 384.65926,363.83758 373.05126,329.74386 L 373.44287,171.14259"
       inkscape:connector-curvature="0"
       id="path2990"
       style="fill:none;stroke:#0000e9;stroke-width:1;stroke-miterlimit:4;stroke-opacity:1;stroke-dasharray:none;stroke-dashoffset:0" />
    <path
       d="M 353.6215,161.55992 C 361.02998,161.11301 389.50028,161.96767 395.82593,159.94738 407.00572,156.37677 415.56998,146.85438 423.41317,134.5137 476.665,142.52866 522.89621,159.67042 559.57688,189.22789 588.0545,217.66735 608.51456,249.1134 610.56056,287.46472 599.57801,336.89879 585.34293,347.54429 566.41616,360.20971"
       inkscape:connector-curvature="0"
       id="path2992"
       style="fill:none;stroke:#0000e9;stroke-width:1;stroke-miterlimit:4;stroke-opacity:1;stroke-dasharray:none;stroke-dashoffset:0" />
    <path
       d="M 373.67301,172.44058 C 391.91107,170.39423 410.14913,169.18595 428.38719,157.51853 487.78685,156.69637 544.19568,168.83447 588.79923,232.12878 611.79055,262.66909 612.23801,312.9164 576.23414,347.76725 574.70496,349.24746 572.21941,350.2711 570.49592,351.63489 567.39284,354.09036 559.39054,354.31968 555.53549,356.01289"
       inkscape:connector-curvature="0"
       id="path2994"
       style="fill:none;stroke:#0000e9;stroke-width:1;stroke-miterlimit:4;stroke-opacity:1;stroke-dasharray:none;stroke-dashoffset:0" />
    <path
       d="M 523.66613,332.92806 564.5509,352.74869"
       inkscape:connector-curvature="0"
       id="path2996"
       style="fill:none;stroke:#0000e9;stroke-width:1;stroke-miterlimit:4;stroke-opacity:1;stroke-dasharray:none;stroke-dashoffset:0" />
    <path
       d="M 511.80865,344.33294 C 525.5979,365.82549 537.49823,405.20052 567.03791,358.96621"
       inkscape:connector-curvature="0"
       id="path2998"
       style="fill:none;stroke:#0000e9;stroke-width:1;stroke-miterlimit:4;stroke-opacity:1;stroke-dasharray:none;stroke-dashoffset:0" />
    <path
       d="M 531.59804,375.75351 C 522.94786,394.30414 514.36625,412.90048 515.43249,437.92872"
       inkscape:connector-curvature="0"
       id="path3000"
       style="fill:none;stroke:#0000e9;stroke-width:1;stroke-miterlimit:4;stroke-opacity:1;stroke-dasharray:none;stroke-dashoffset:0" />
    <path
       d="M 541.54607,380.72753 C 536.98464,403.73318 534.02375,426.05288 540.92432,444.14624"
       inkscape:connector-curvature="0"
       id="path3002"
       style="fill:none;stroke:#0000e9;stroke-width:1;stroke-miterlimit:4;stroke-opacity:1;stroke-dasharray:none;stroke-dashoffset:0" />
    <path
       d="M 551.49411,378.86227 C 565.20146,397.10033 580.29529,415.3384 584.44697,433.57646"
       inkscape:connector-curvature="0"
       id="path3004"
       style="fill:none;stroke:#0000e9;stroke-width:1;stroke-miterlimit:4;stroke-opacity:1;stroke-dasharray:none;stroke-dashoffset:0" />
    <path
       d="M 463.82706,387.5668 C 460.90506,379.84382 452.96432,374.50748 444.5936,376.02722 433.37422,375.69177 427.13874,389.98783 433.66174,398.53726 440.16371,408.1047 455.60111,405.09426 460.63237,395.54884 462.18134,393.11859 463.28453,390.39895 463.82706,387.5668 z"
       inkscape:connector-curvature="0"
       id="path3006"
       style="fill:none;stroke:#0000e9;stroke-width:1;stroke-miterlimit:4;stroke-opacity:1;stroke-dasharray:none;stroke-dashoffset:0" />
    <path
       d="M 527.32121,370.37757 C 523.40755,372.94012 523.90292,371.14747 521.57975,372.98103 516.27272,373.5268 510.93424,374.37692 504.37243,372.73873 494.65206,371.29471 487.19991,378.83869 478.3891,381.37854 473.62235,382.77691 467.79481,385.16769 463.20535,384.45805"
       inkscape:connector-curvature="0"
       id="path3008"
       style="fill:none;stroke:#0000e9;stroke-width:1;stroke-miterlimit:4;stroke-opacity:1;stroke-dasharray:none;stroke-dashoffset:0" />
    <path
       d="M 513.49179,373.81282 C 519.002,384.09595 510.25269,397.72422 499.54008,400.11702 489.39456,402.65795 478.44257,409.35765 467.96321,405.09097 463.15831,404.8021 461.22504,394.33501 461.34002,395.02783"
       inkscape:connector-curvature="0"
       id="path3010"
       style="fill:none;stroke:#0000e9;stroke-width:1;stroke-miterlimit:4;stroke-opacity:1;stroke-dasharray:none;stroke-dashoffset:0" />
    <path
       d="M 481.95041,230.53433 C 481.41463,233.45352 480.38529,236.34513 478.68144,238.94803 475.77771,243.38393 475.23959,249.7847 474.08593,255.75536 468.63508,273.33179 453.95149,287.42774 456.98775,314.82181 M 456.98775,314.82181 C 439.61975,334.21221 449.66888,348.53222 459.48319,363.45076 460.83848,365.51091 475.81829,379.89255 469.61784,374.51649"
       inkscape:connector-curvature="0"
       id="path3012"
       style="fill:none;stroke:#0000e9;stroke-width:1;stroke-miterlimit:4;stroke-opacity:1;stroke-dasharray:none;stroke-dashoffset:0" />
    <path
       d="M 483.02596,230.98926 C 486.52339,231.55329 493.30739,228.92452 495.60831,239.35869 496.66201,244.13701 497.40654,247.32163 492.97935,255.18987 488.27068,263.55838 482.40647,271.59252 477.50561,274.7188 468.64739,287.08709 465.44806,305.44619 461.34005,324.14809"
       inkscape:connector-curvature="0"
       id="path3014"
       style="fill:none;stroke:#0000e9;stroke-width:1;stroke-miterlimit:4;stroke-opacity:1;stroke-dasharray:none;stroke-dashoffset:0" />
    <path
       d="M 493.88071,255.74297 C 494.86114,257.10631 514.51645,275.64392 515.5181,277.14882 523.81816,289.61904 532.04325,306.58509 526.87976,322.01008 524.95329,334.96439 515.23347,350.56403 500.11699,347.14776 488.45872,345.51728 478.03606,340.55208 469.38021,332.6158 463.25153,328.52646 460.80475,321.49264 456.36605,316.06531"
       inkscape:connector-curvature="0"
       id="path3016"
       style="fill:none;stroke:#0000e9;stroke-width:1;stroke-miterlimit:4;stroke-opacity:1;stroke-dasharray:none;stroke-dashoffset:0" />
    <path
       d="M 477.50561,338.44839 C 482.17427,350.93248 488.03062,362.82273 499.26693,372.023"
       inkscape:connector-curvature="0"
       id="path3024"
       style="fill:none;stroke:#0000e9;stroke-width:1;stroke-miterlimit:4;stroke-opacity:1;stroke-dasharray:none;stroke-dashoffset:0" />
    <path
       d="M 494.91467,373.26651 C 488.07057,370.86191 481.04747,365.82406 474.14727,365.73525 467.8223,369.35359 469.86033,379.45677 476.69081,381.14855 L 477.19251,381.78487 477.50529,382.59283"
       inkscape:connector-curvature="0"
       id="path3026"
       style="fill:none;stroke:#0000e9;stroke-width:1;stroke-miterlimit:4;stroke-opacity:1;stroke-dasharray:none;stroke-dashoffset:0" />
    <path
       d="M 394.80131,157.29278 C 442.28834,152.40214 397.14473,146.66328 466.46346,144.10343"
       inkscape:connector-curvature="0"
       id="path3007"
       style="fill:none;stroke:#0000e9;stroke-width:1;stroke-miterlimit:4;stroke-opacity:1;stroke-dasharray:none;stroke-dashoffset:0" />
    <path
       d="M 554.39249,355.57273 C 548.35601,355.76579 532.53972,352.91132 530.90456,358.77992 530.27814,360.51331 530.52644,362.84414 532.24946,363.85552 534.39028,365.24208 536.91382,365.86582 539.35589,366.49136 544.77836,367.63639 550.77922,367.37752 555.61947,364.4551 558.78077,359.14688 556.93958,358.22121 554.4056,355.62913 L 554.3925,355.57273 z"
       inkscape:connector-curvature="0"
       id="path3009"
       style="fill:none;stroke:#0000e9;stroke-width:1;stroke-miterlimit:4;stroke-opacity:1;stroke-dasharray:none;stroke-dashoffset:0" />
    <path
       d="M 470.6401,406.13192 464.48506,419.32127"
       inkscape:connector-curvature="0"
       id="path3061"
       style="fill:none;stroke:#0000e9;stroke-width:1;stroke-miterlimit:4;stroke-opacity:1;stroke-dasharray:none;stroke-dashoffset:0" />
    <path
       d="M 524.11264,372.17158 C 521.1168,373.5711 517.64244,373.17182 514.5641,374.17746 513.73657,375.54048 515.51534,377.1711 515.26478,378.7113 516.21414,388.99092 508.06184,398.75679 498.15148,400.83554 489.31238,403.15749 480.57185,407.71369 471.2041,406.34025 468.90063,409.47781 467.59186,413.59451 465.79066,417.16178 465.07872,418.1955 465.13663,419.88171 466.69774,419.94177 482.26435,425.71636 497.52534,432.43642 513.36881,437.39019 515.73993,437.66966 514.94214,434.38597 515.09315,433.00753 515.40689,418.19842 518.9958,403.68506 524.92076,390.17084 526.79075,385.20175 529.7348,380.36168 531.13322,375.30405 529.35939,374.13325 528.25872,370.00143 525.70246,371.54341 525.17252,371.7528 524.64258,371.96219 524.11264,372.17158 z"
       inkscape:connector-curvature="0"
       id="path3063"
       style="fill:#d5be6c;stroke:none" />
    <path
       d="M 531.47669,376.70542 C 523.55405,393.64871 515.93269,411.46208 515.93892,430.52033 516.09963,433.08615 515.29748,435.93763 516.06164,438.32443 523.65412,440.84289 531.59944,442.23283 539.5277,443.22922 541.047,442.4037 538.95982,440.30485 539.04299,438.97139 536.03582,428.05798 536.7312,416.52307 537.42266,405.32524 537.96774,397.25467 540.09773,389.37579 540.84663,381.34917 539.76439,379.78823 537.31419,380.18146 535.94184,378.84869 534.54325,378.36416 532.96494,375.97354 531.47669,376.70542 z"
       inkscape:connector-curvature="0"
       id="path3065"
       style="fill:#82c1d2;stroke:none" />
    <path
       d="M 550.65621,378.17549 C 547.9786,379.46657 545.16067,380.33695 542.34417,381.08813 540.50661,382.70401 541.23459,385.81832 540.44353,387.97956 537.23649,405.64034 535.06983,424.26807 540.35203,441.74542 541.26005,444.56323 545.0122,443.23598 547.18027,443.55896 555.26768,443.51626 563.52941,442.94568 570.93719,439.43515 575.4743,437.36435 580.33673,435.04509 583.51897,431.22146 578.59303,414.52572 567.30247,400.7218 557.193,386.84353 555.0825,384.05252 552.84117,380.99118 551.08212,378.17549 550.94132,378.16119 550.7966,378.15039 550.65621,378.17549 z"
       inkscape:connector-curvature="0"
       id="path3069"
       style="fill:#b9abdd;stroke:none" />
    <path
       d="M 486.90696,377.77481 C 489.45085,386.79869 491.5395,394.45683 493.50164,401.73546"
       inkscape:connector-curvature="0"
       id="path3079"
       style="fill:none;stroke:#0000e9;stroke-width:1;stroke-miterlimit:4;stroke-opacity:1;stroke-dasharray:none;stroke-dashoffset:0" />
    <path
       d="M 486.31482,378.3567 C 483.78976,379.18296 481.46284,380.49987 478.93702,381.33805 478.15588,381.45304 477.86351,382.42329 477.08227,382.18299 472.72637,382.89111 468.61332,384.95834 464.11281,384.60094 462.24399,384.30147 463.34962,386.26904 463.78406,387.15711 464.16422,388.34797 463.27668,389.63288 463.02049,390.83163 462.67307,392.30728 461.51571,393.60477 461.45282,395.08224 462.4161,398.33125 463.39845,401.95057 466.09114,404.19959 469.586,405.81082 473.48537,406.72416 477.34331,406.18486 482.63204,405.71275 487.66245,403.83774 492.64158,402.12502 493.78788,401.61986 492.66738,400.2197 492.65528,399.37723 490.81538,392.46275 489.00038,385.53298 487.00172,378.66583 486.86736,378.42353 486.58309,378.31836 486.31478,378.3567 z"
       inkscape:connector-curvature="0"
       id="path3091"
       style="fill:#a4a7da;stroke:none" />
    <path
       d="M 446.54067,375.97987 C 442.89602,376.06347 438.89241,376.56057 436.23931,379.32958 431.39618,383.4358 429.68724,390.9279 432.66437,396.60197 435.01048,401.19229 439.95107,404.45304 445.1805,404.16914 451.35496,404.28573 457.44505,400.90438 460.48566,395.50286 461.89862,393.06066 463.31529,390.42701 463.56318,387.58238 462.51337,384.09079 459.83802,381.32366 457.06468,379.078 454.03608,376.85312 450.30081,375.75107 446.54067,375.97987 z"
       inkscape:connector-curvature="0"
       id="path3095"
       style="fill:#83d5b8;stroke:none" />
    <path
       d="M 479.04693,340.36862 C 478.2106,341.16821 479.40004,342.35268 479.54997,343.2371 483.89928,353.82583 489.89474,364.01918 498.74166,371.44603 499.18858,372.0889 499.7391,372.63987 500.60982,372.50903 504.72342,372.30873 508.67583,373.84383 512.80341,373.53125 515.89517,373.37185 519.09388,373.43195 522.06346,372.48332 523.64841,371.65078 525.75134,371.68069 526.94077,370.22327 525.4454,367.51113 523.5018,364.9506 522.00807,362.21681 518.84776,356.85712 515.96261,351.32628 512.66604,346.04966 511.76173,345.46722 510.83288,346.66724 509.90452,346.76408 506.59937,347.94073 503.01745,347.9261 499.60049,347.15296 492.61677,346.18338 485.94655,343.68143 479.7064,340.43731 479.50358,340.34341 479.26612,340.25114 479.04693,340.36861 z"
       inkscape:connector-curvature="0"
       id="path3097"
       style="fill:#8791c4;stroke:none" />
    <path
       d="M 501.24456,372.87094 C 496.39768,373.09803 491.82128,375.18596 487.72145,377.63123 486.56923,378.83801 488.26264,380.5238 488.23006,381.89611 490.0672,388.34444 491.69525,394.9396 493.60866,401.3161 495.30237,401.72282 497.09483,400.39858 498.80612,400.16003 503.27967,398.99145 507.35434,396.51133 510.19196,392.83501 513.40254,389.20578 515.21498,384.41317 514.80652,379.54506 514.66876,377.5429 514.41024,375.1883 512.91212,373.78414 508.96464,374.06741 505.17422,372.70423 501.24456,372.87094 z"
       inkscape:connector-curvature="0"
       id="path3028"
       style="fill:#dbafbc;stroke:none" />
    <path
       d="M 611.10672,276.87625 C 620.66804,272.50293 625.57591,278.76606 626.93394,293.14312"
       inkscape:connector-curvature="0"
       id="path3027"
       style="fill:none;stroke:#0000e9;stroke-width:1;stroke-miterlimit:4;stroke-opacity:1;stroke-dasharray:none;stroke-dashoffset:0" />
    <path
       d="M 600.55524,321.72005 C 603.77491,326.29377 607.16804,329.65331 611.54636,326.1165 625.54714,319.73329 628.14887,306.84011 626.93394,292.26382 621.15211,289.37201 616.29739,291.95645 609.34814,294.9017"
       inkscape:connector-curvature="0"
       id="path3030"
       style="fill:none;stroke:#0000e9;stroke-width:1;stroke-miterlimit:4;stroke-opacity:1;stroke-dasharray:none;stroke-dashoffset:0" />
    <path
       d="M 611.54636,326.1165 C 615.55952,341.23728 601.086,356.43592 590.4434,356.01237 L 582.09014,348.5384"
       inkscape:connector-curvature="0"
       id="path3032"
       style="fill:none;stroke:#0000e9;stroke-width:1;stroke-miterlimit:4;stroke-opacity:1;stroke-dasharray:none;stroke-dashoffset:0" />
    <path
       d="M 590.4434,356.01237 C 591.79563,374.84161 564.63389,389.46291 559.2286,388.98575"
       inkscape:connector-curvature="0"
       id="path3034"
       style="fill:none;stroke:#0000e9;stroke-width:1;stroke-miterlimit:4;stroke-opacity:1;stroke-dasharray:none;stroke-dashoffset:0" />
    <path
       d="M 571.9783,403.0544 C 571.19252,401.73843 574.19324,401.92862 572.37238,402.7765 581.21096,393.17426 586.58111,381.04766 594.6977,370.91705 604.92485,359.06564 617.24509,349.10557 626.50296,336.40277 628.98267,334.20612 631.52402,328.47845 634.98583,329.73097 636.43516,333.67716 631.47817,336.62398 629.88968,339.9497 623.71623,348.31943 616.36527,355.79093 610.70798,364.54368 603.48075,372.58043 595.2532,380.07364 591.14122,390.18125 586.32534,396.51215 582.47325,403.94323 575.75204,408.49469 575.27891,408.77616 574.54037,408.84889 574.17653,408.33014"
       inkscape:connector-curvature="0"
       id="path3036"
       style="fill:none;stroke:#0000e9;stroke-width:1;stroke-miterlimit:4;stroke-opacity:1;stroke-dasharray:none;stroke-dashoffset:0" />
    <path
       d="M 633.74189,329.84067 C 629.78304,331.86982 627.52652,336.19461 624.53682,339.36174 614.78849,351.16031 603.06972,361.43537 593.38589,373.38577 586.30074,382.58941 581.03477,393.19585 573.37312,401.94247 572.78538,403.42947 570.65647,402.13673 570.37804,403.54993 571.51815,405.23166 572.10146,408.22787 574.41728,408.55089 577.77105,407.63325 579.72275,404.19054 582.06985,401.86004 587.15338,396.00212 591.22836,389.35779 594.981,382.64445 601.40869,373.26635 610.0271,365.66597 616.48582,356.28808 622.59739,348.38703 629.31427,340.90774 634.68988,332.50602 635.09909,331.60516 635.26248,329.66822 633.74189,329.84067 z"
       inkscape:connector-curvature="0"
       id="path3045"
       style="fill:#d5be93;stroke:none" />
    <path
       d="M 616.0187,275.92919 C 614.12375,276.03834 612.24724,276.89964 610.39949,276.64361 609.28203,278.34504 610.57138,280.81093 610.37199,282.74369 611.10273,286.42106 610.12286,290.0274 609.53391,293.56995 610.79154,294.88493 612.82443,292.67452 614.31341,292.5333 617.79487,290.83148 621.64604,291.1958 625.37488,291.06947 627.37338,289.87055 625.40338,287.10607 625.32928,285.3692 624.2308,280.90681 621.40206,275.46564 616.01868,275.92919 z"
       inkscape:connector-curvature="0"
       id="path3047"
       style="fill:#d39ccd;stroke:none" />
    <path
       d="M 600.05409,322.79261 C 595.6834,332.0796 590.26894,340.85634 582.85297,348.01725 583.36862,350.14499 586.30328,351.52132 587.74333,353.34797 589.17058,355.50434 591.30704,356.06615 593.69297,355.32635 602.16767,353.13632 608.46576,345.44028 611.08643,337.3009 611.73279,334.13164 612.21634,330.61404 611.47112,327.43636 610.20704,326.56408 608.45624,328.37572 606.93728,327.61497 604.08281,326.98705 602.59362,324.12759 600.43878,322.55905 L 600.06297,322.78722 600.05397,322.79222 z"
       inkscape:connector-curvature="0"
       id="path3049"
       style="fill:#c9ca98;stroke:none" />
    <path
       d="M 621.99513,291.38546 C 617.38726,291.6148 612.92992,293.50735 608.91568,295.53462 606.68611,304.2334 603.95811,312.79481 600.68608,321.15768 602.31935,323.73225 604.69291,327.32834 608.22874,327.24402 617.19383,323.99735 625.23802,316.12866 626.17175,306.23723 626.5793,301.71266 626.97473,296.97245 626.61099,292.53826 625.25649,291.71875 623.60769,291.291 621.99513,291.38546 z"
       inkscape:connector-curvature="0"
       id="path3051"
       style="fill:#bc90cc;stroke:none" />
    <path
       d="M 578.25044,351.9878 C 573.04913,356.46441 566.24151,359.28713 562.79662,365.51897 559.48815,369.97894 555.54335,373.84054 551.56947,377.78947 552.44814,380.58594 555.14723,382.85734 556.804,385.40083 558.10342,386.7459 559.39756,389.63679 561.69505,388.29974 571.71124,384.64672 580.68662,377.78659 586.63117,368.92787 588.56956,365.24014 590.6865,361.00787 590.0659,356.7552 588.18986,353.69042 584.91434,351.72476 582.39959,349.18506 580.79797,349.26996 579.63038,351.20389 578.25044,351.9878 z"
       inkscape:connector-curvature="0"
       id="path3053"
       style="fill:#ca818c;stroke:none" />
    <path
       d="M 373.82845,172.59602 353.93238,171.19707 353.77694,161.55992"
       inkscape:connector-curvature="0"
       id="path3037"
       style="fill:none;stroke:#0000e9;stroke-width:0.93800002;stroke-linecap:round;stroke-miterlimit:4;stroke-opacity:1;stroke-dasharray:none;stroke-dashoffset:0" />
    <path
       d="M 423.38112,134.94759 C 419.03026,142.06025 413.6012,148.43724 407.58137,154.05842 406.35948,155.42597 408.78698,155.6421 409.57336,155.02039 414.25398,154.11944 418.82417,152.57909 422.55679,149.55205 428.39101,146.01675 435.68078,146.18049 442.32263,145.32213 448.97485,144.69217 455.69101,144.62538 462.31719,143.82293 463.50532,142.41217 460.33038,142.20213 459.51302,141.91986 447.68891,139.15978 435.77075,136.53348 423.73833,134.8102 L 423.38112,134.94759 z"
       inkscape:connector-curvature="0"
       id="path3039"
       style="fill:#b46a9f;stroke:none" />
    <path
       d="M 410.62854,166.08568 C 414.47119,174.27447 418.0025,182.69795 419.86109,191.58509 430.27941,197.67876 442.65592,201.33253 452.86056,205.85653 M 482.08291,230.10486 C 484.47433,203.05927 482.60161,190.35701 480.87457,184.54081 479.20941,180.03067 480.41481,175.27734 482.82606,170.94144 483.65064,164.02232 475.93314,162.25782 470.82274,160.69212 M 473.88031,253.72972 C 470.47369,261.14287 455.18314,275.84683 447.4446,273.27177 444.06921,262.7714 453.72693,242.77964 460.02965,235.48666 468.46508,244.91695 468.86914,241.54433 478.74912,240.83331"
       inkscape:connector-curvature="0"
       id="path3038"
       style="fill:none;stroke:#0000e9;stroke-width:0.93800002;stroke-linecap:round;stroke-miterlimit:4;stroke-opacity:1;stroke-dasharray:none;stroke-dashoffset:0" />
    <path
       d="M 474.68161,366.20093 C 471.47882,367.05485 470.24068,371.35088 470.87593,374.32062 471.61617,377.80441 474.971,381.25401 478.69337,380.99773 483.73378,379.02981 488.86353,376.70331 493.394,373.74359 493.25439,372.07255 490.45091,372.0175 489.25859,371.07824 484.51096,369.27146 479.87181,366.27016 474.68161,366.20093 z"
       inkscape:connector-curvature="0"
       id="path3050"
       style="fill:#9da2bc;stroke:none" />
    <path
       d="M 456.00219,316.90572 C 452.97491,319.54124 451.2068,323.42914 449.53116,327.03129 445.8165,335.7837 448.98487,345.55299 453.48797,353.34131 457.53104,360.65275 462.84316,367.39417 469.02667,372.93299 470.90189,373.45391 470.0706,370.60859 470.70282,369.62192 471.46659,367.18782 473.71003,364.86602 476.47316,365.76128 483.46069,367.08588 489.51201,371.40252 496.28467,373.20777 498.02238,373.27387 498.48345,371.3082 497.05405,370.44625 489.0304,363.19062 483.44709,353.74766 479.41606,343.74702 478.41067,340.2135 475.81231,337.64931 472.7634,335.76991 466.25912,331.27942 461.79685,324.71104 457.48599,318.21091 457.03284,317.74455 456.75357,316.74961 456.00219,316.90572 z"
       inkscape:connector-curvature="0"
       id="path3052"
       style="fill:#b2b789;stroke:none" />
    <path
       d="M 492.82394,255.76374 C 488.97766,262.28034 484.74537,268.88625 479.02882,273.80426 475.69696,276.50348 474.25123,280.80753 472.34535,284.51255 466.91782,296.8913 464.6533,310.32693 461.67805,323.43756 464.51633,329.04809 469.69747,332.84774 474.61826,336.57208 482.42875,342.38257 491.88753,346.05093 501.60619,347.13215 504.93157,347.23778 508.79537,347.56179 511.58337,345.45147 511.51297,344.62625 512.17588,344.58142 512.81716,344.72286 515.97251,343.56531 518.20062,340.67128 520.21018,338.09731 524.62049,332.1108 526.34365,324.72773 527.77807,317.56006 529.13751,308.30183 526.96269,298.8775 522.84667,290.59413 520.0062,284.4834 516.80329,278.3974 511.83595,273.73626 505.86981,267.6323 499.68562,261.69398 493.59142,255.6763 493.28964,255.4626 493.08005,255.56236 492.82394,255.7637 z"
       inkscape:connector-curvature="0"
       id="path3040"
       style="fill:#78a9c2;stroke:none" />
    <path
       d="M 452.94641,206.32606 C 464.67443,208.78562 466.85488,222.92105 459.78568,235.85929"
       inkscape:connector-curvature="0"
       id="path3042"
       style="fill:none;stroke:#0000e9;stroke-width:1;stroke-linecap:round;stroke-miterlimit:4;stroke-opacity:1;stroke-dasharray:none;stroke-dashoffset:0" />
    <path
       d="M 481.90688,231.40583 C 481.37206,234.8457 479.38042,237.90182 478.38972,241.09176 476.22218,243.0672 476.37047,246.56434 475.51829,249.22519 473.78851,261.98505 465.98771,272.75478 461.51834,284.6441 457.43217,293.79937 456.64849,303.91837 456.92866,313.82548 456.35338,316.80419 458.73803,319.26588 460.80392,321.07969 462.49403,321.02929 461.98294,318.21989 462.64133,317.11901 465.6757,303.55818 468.45507,289.46693 475.51829,277.30753 478.28835,272.9902 482.84037,270.26438 485.65659,265.852 489.82856,259.78832 494.76313,253.63051 495.93431,246.17516 496.19654,241.31616 495.1958,235.51961 491.08448,232.43624 488.38839,231.13972 484.89797,231.00119 482.06008,231.29403 L 481.90688,231.40583 z"
       inkscape:connector-curvature="0"
       id="path3043"
       style="fill:#9de082;stroke:none" />
    <path
       d="M 459.63611,236.66783 C 455.88293,240.60971 453.91042,245.97709 451.44772,250.77769 448.6237,257.19985 446.34628,264.39063 447.31231,271.48223 447.42909,273.68375 449.77083,273.68534 451.33781,273.0622 459.80888,270.45971 466.27537,263.72934 471.61019,256.93164 473.19042,254.67949 474.80832,252.41147 474.99621,249.54119 475.17468,246.87239 476.70225,244.21874 476.65862,241.62758 475.26322,240.82005 473.22305,242.164 471.58896,241.94357 467.8118,242.80095 464.4916,240.47851 462.10911,237.90433 461.38071,237.41268 460.60887,236.47326 459.63611,236.66783 z"
       inkscape:connector-curvature="0"
       id="path3046"
       style="fill:#b667d7;stroke:none" />
    <path
       d="M 428.70403,157.52283 C 423.45593,160.95092 417.71486,163.41528 411.94587,165.78047 410.44009,166.75908 412.16573,168.56053 412.42515,169.74927 415.49043,176.55193 418.09939,183.5822 419.8635,190.82543 421.53435,192.91623 424.43603,193.59245 426.68245,194.92754 435.29911,198.97211 444.44659,201.93285 453.02037,205.99035 455.81037,207.05506 458.75762,208.26596 460.63683,210.77007 465.3833,216.81143 464.32967,225.41813 461.68604,232.1428 461.1345,233.74596 459.50307,235.75296 461.63884,236.88499 464.16573,239.50734 467.38928,242.64024 471.38908,241.66561 473.46837,241.28753 475.74874,241.31881 477.67677,240.53645 480.09239,236.23654 482.08353,231.60093 482.23304,226.5956 483.02011,215.6732 483.24835,204.66748 482.42104,193.74192 482.15472,188.87745 480.15621,184.2712 480.00834,179.42988 480.06214,175.96821 482.103,173.01702 482.7285,169.715 482.6437,165.53655 478.33993,163.3739 474.89894,162.16354 473.15799,161.55259 471.31467,161.03278 469.84658,159.97098 460.74411,158.38162 451.43602,158.23327 442.21759,157.7765 437.71704,157.6817 433.19119,157.46207 428.70407,157.52283 z"
       inkscape:connector-curvature="0"
       id="path3048"
       style="fill:#a7b0c5;stroke:none" />
    <path
       d="M 566.5716,359.12164 557.40076,361.14234"
       inkscape:connector-curvature="0"
       id="path3044"
       style="fill:none;stroke:#0000e9;stroke-width:1;stroke-linecap:round;stroke-miterlimit:4;stroke-opacity:1;stroke-dasharray:none;stroke-dashoffset:0" />
    <path
       d="M 541.37762,355.17688 C 538.20482,355.40817 534.56372,355.20878 531.98708,357.38198 530.165,359.20447 530.37416,362.97701 532.91445,364.05909 536.52384,365.82232 540.50443,366.85595 544.52383,366.98547 548.33035,367.02367 552.40177,366.41057 555.54931,364.12778 556.81698,362.36776 557.85028,359.51304 556.14695,357.68423 555.22914,356.68306 554.31254,355.35875 552.75514,355.69377 548.96279,355.54185 545.1723,355.22644 541.37762,355.17688 z"
       inkscape:connector-curvature="0"
       id="path3054"
       style="fill:#d68d95;stroke:none" />
    <path
       d="M 523.74236,333.33888 C 522.5269,334.57823 521.97502,336.45393 520.81396,337.78351 518.68284,340.68504 516.23852,343.4551 513.12218,345.29174 512.63251,346.45243 514.17468,347.52709 514.55102,348.64403 519.20091,356.39935 523.12676,364.63313 528.67676,371.79909 531.92134,375.79262 536.04791,379.85906 541.4312,380.3603 543.28457,380.60467 545.15672,379.86693 546.94051,379.41919 553.05604,376.85559 557.55814,371.67891 561.55724,366.58081 563.04153,364.44843 564.83876,362.44467 565.92768,360.08854 565.49897,358.98028 564.04908,359.97172 563.21245,359.95691 561.22855,360.43899 559.19564,360.82139 557.29277,361.55861 556.45332,362.8705 556.08259,364.74989 554.35893,365.2127 549.43974,367.67918 543.61028,367.46155 538.35316,366.3354 535.79895,365.60699 532.92967,364.90679 531.10641,362.87067 530.19078,361.19452 530.44058,358.83861 531.6491,357.3545 534.357,354.74732 538.45828,355.21044 541.93267,355.09445 546.1742,355.14385 550.45316,355.10245 554.6549,355.63713 555.57285,356.34934 556.69425,355.22968 557.69069,355.20284 559.79798,354.62979 562.00972,354.32577 564.11414,353.69995 564.96171,352.77747 563.2562,352.39561 562.69904,352.00319 549.85569,345.77564 537.01404,339.50197 524.12018,333.34575 524.00218,333.39915 523.86103,333.29025 523.74236,333.33875 z"
       inkscape:connector-curvature="0"
       id="path3056"
       style="fill:#e1aa66;stroke:none" />
    <path
       d="M 466.65031,143.87244 C 466.14795,144.11131 465.73042,144.42622 465.08408,144.264 453.20697,144.88125 441.23785,145.10973 429.52091,147.29343 426.25946,147.84215 423.18504,149.2057 420.6712,151.34142 415.76665,154.82191 409.56748,155.10611 403.91845,156.45041 401.18495,157.76186 398.47535,159.30101 395.54458,160.10496 390.00722,161.33454 384.20899,161.05517 378.54297,161.30008 370.50148,161.43559 362.45941,161.5457 354.41716,161.62311 353.36396,162.4065 354.17991,164.21986 353.92256,165.42192 354.0815,167.23525 353.59874,169.21456 354.23855,170.93809 355.3073,171.57224 356.81448,171.12694 358.02948,171.40057 362.96938,171.68396 367.93949,172.17178 372.85477,172.40129 373.42914,172.39629 373.32534,171.09338 373.67224,172.00286 374.69052,172.65697 376.03141,171.8363 377.16056,171.92346 391.11103,170.41697 405.35248,168.70787 418.22971,162.80906 421.79271,161.24527 425.19014,159.35013 428.48362,157.28164 444.03031,157.4521 459.6206,157.78334 475.00026,160.23151 498.50212,163.74136 521.49898,171.72568 541.35427,184.87317 558.18445,195.85336 572.57021,210.23259 584.58115,226.18524 590.46338,233.83665 595.96614,241.93556 599.30838,251.05389 607.8907,273.16161 606.50955,298.70329 596.36837,319.99958 591.38809,330.48458 584.51224,340.141 575.95707,348.04641 573.30702,350.02017 570.58799,352.07211 567.46644,353.17102 563.72322,354.32038 559.7675,354.75243 556.06314,355.96002 555.25639,356.86904 556.85027,357.7531 557.05921,358.72841 557.48038,359.44414 557.2548,361.06455 558.51554,360.79612 561.26022,360.10595 564.06004,359.43497 566.86193,359.20927 568.65742,358.89451 570.03265,357.37978 571.57979,356.48548 579.96118,350.77241 587.51866,343.71406 592.96,335.10102 600.99627,322.3901 605.37219,307.79847 609.04725,293.33807 609.57856,290.59955 610.81623,287.91082 610.24293,285.08121 608.673,262.50059 599.90903,240.87099 587.20243,222.30473 579.23445,210.62041 570.03217,199.81528 559.91965,189.92797 553.38528,184.1638 546.0856,179.31092 538.76505,174.61335 516.81997,160.86505 492.64245,150.8189 467.69447,144.00298 467.35143,143.94008 467.00169,143.84263 466.65031,143.87246 z"
       inkscape:connector-curvature="0"
       id="path3058"
       style="fill:#73a0a6;stroke:none" />
    <path
       d="M 476.08895,160.78504 C 475.14448,160.83784 475.4102,162.04925 476.15765,162.22763 478.89028,163.53301 482.07341,165.19431 482.74546,168.43761 483.57218,171.01565 481.49066,173.21492 480.94971,175.63395 479.73083,179.09964 480.32745,182.83063 481.37142,186.2379 483.8985,197.24334 483.17479,208.6638 482.83766,219.87582 482.72595,223.5085 482.34263,227.16935 482.16013,230.7605 482.99131,231.5181 484.50279,230.8458 485.60998,231.01951 488.50936,230.83682 491.74853,231.44116 493.48928,234.02717 495.63116,237.2351 496.28063,241.19636 496.45689,244.97708 496.47689,248.68987 494.69733,252.05699 493.11146,255.30187 492.9197,256.15673 494.03955,255.8002 494.46475,256.42846 501.12431,262.54801 507.56829,268.91767 513.94652,275.3332 517.27477,278.82711 519.3834,283.23173 521.70214,287.42345 525.82999,295.40511 528.90128,304.22501 528.44536,313.32128 528.39336,318.17299 526.81718,322.86231 525.68477,327.5317 525.27689,329.33784 524.24396,331.00045 523.9828,332.80994 529.02672,335.52788 534.32163,337.88119 539.46227,340.44959 547.52883,344.43803 555.71713,348.14422 563.66764,352.3398 564.49259,352.436 563.83646,353.61515 564.75301,353.61065 568.89007,353.02111 572.32481,350.34197 575.62736,347.97769 582.69529,341.55919 588.49822,333.82861 593.21667,325.55094 601.00791,311.7274 605.12863,295.83984 604.65768,279.94948 604.45668,264.40407 599.80615,248.91667 591.28972,235.92314 579.49124,218.71909 565.48253,202.76664 548.68359,190.30087 530.20432,176.40848 508.43375,167.16963 485.85135,162.4604 482.61481,161.8527 479.38354,160.98501 476.08896,160.78504 z"
       inkscape:connector-curvature="0"
       id="path3060"
       style="fill:#d0cf6e;stroke:none" />
  </g>
</svg>
