<?xml version="1.0" encoding="UTF-8" standalone="no"?>
<!-- Created with Inkscape (http://www.inkscape.org/) -->

<svg
   xmlns:dc="http://purl.org/dc/elements/1.1/"
   xmlns:cc="http://creativecommons.org/ns#"
   xmlns:rdf="http://www.w3.org/1999/02/22-rdf-syntax-ns#"
   xmlns:svg="http://www.w3.org/2000/svg"
   xmlns="http://www.w3.org/2000/svg"
   xmlns:xlink="http://www.w3.org/1999/xlink"
   xmlns:inkscape="http://www.inkscape.org/namespaces/inkscape"
   version="1.1"
   width="740"
   height="520"
   id="svg2"
   style="display:inline;enable-background:new">
  <defs
     id="defs4">
    <filter
       color-interpolation-filters="sRGB"
       id="filter3050">
      <feBlend
         in2="BackgroundImage"
         mode="lighten"
         id="feBlend3052" />
    </filter>
  </defs>
  <metadata
     id="metadata7">
    <rdf:RDF>
      <cc:Work
         rdf:about="">
        <dc:format>image/svg+xml</dc:format>
        <dc:type
           rdf:resource="http://purl.org/dc/dcmitype/StillImage" />
        <dc:title />
      </cc:Work>
    </rdf:RDF>
  </metadata>
  <g
     id="g168"
     style="display:none">
    <image
       xlink:href="pngs/coronal-0869.png"
       id="image170"
       height="520"
       width="740"
       y="0"
       x="0" />
  </g>
  <g
     id="g176"
     style="display:inline">
    <path
       d="M 483.21639,64.877467 C 502.41754,68.779501 521.59019,74.136686 538.76526,83.726071 559.22558,93.29583 579.55617,103.62667 598.24052,116.48289 612.1662,124.77811 620.89977,139.07293 633.33625,149.23596 644.1759,162.53236 658.94991,172.38685 667.30567,187.7031 674.13964,197.79632 681.9764,210.95563 678.44654,223.42425 667.86495,236.77065 681.85714,251.1286 684.02999,265.01365 688.74226,282.93249 679.74998,300.11097 671.41229,315.34196 666.41897,327.06272 660.36907,332.59595 649.09511,341.29985 638.01467,352.95337 623.46511,359.96963 607.62687,362.28514 593.9324,367.23558 574.53349,366.76055 567.53313,351.86075 559.07691,331.13312 551.18303,310.11581 545.53554,288.45581 538.51175,270.95286 536.92502,251.90544 531.0913,233.99404 527.81189,217.94187 521.75197,202.60815 516.67497,187.0956 512.69405,169.77588 503.96418,153.61747 490.94413,141.46774 480.63148,129.67487 469.03421,119.12521 459.2148,107.24713 451.74699,97.382193 440.21351,90.070381 435.01707,79.137501 440.43628,63.456311 457.70996,63.19648 471.6535,63.441321 475.50365,63.946375 479.31973,64.793229 483.21639,64.877467 z"
       inkscape:connector-curvature="0"
       id="path178"
       style="fill:none;stroke:#e20000;stroke-opacity:1" />
    <path
       d="M 558.13751,156.89678 C 566.94257,164.35281 578.39567,168.87534 579.95198,174.87476 573.98021,198.00686 555.13416,186.25055 545.88132,171.80118 543.84101,166.21081 542.5777,163.44111 544.94024,158.15635 546.03974,155.27183 554.98619,155.81723 558.13751,156.89678 z"
       inkscape:connector-curvature="0"
       id="path180"
       style="fill:none;stroke:#0000e9;stroke-width:1;stroke-miterlimit:4;stroke-opacity:1;stroke-dasharray:none" />
    <path
       d="M 544.76984,157.51853 C 516.74532,130.71992 497.72761,113.23849 469.53784,118.65902"
       inkscape:connector-curvature="0"
       id="path182"
       style="fill:none;stroke:#0000e9;stroke-width:1;stroke-miterlimit:4;stroke-opacity:1;stroke-dasharray:none" />
    <path
       d="M 489.12303,118.03727 C 485.98647,97.909184 483.12474,78.797529 471.71397,63.633963"
       inkscape:connector-curvature="0"
       id="path184"
       style="fill:none;stroke:#0000e9;stroke-width:1;stroke-miterlimit:4;stroke-opacity:1;stroke-dasharray:none" />
    <path
       d="M 519.58888,134.82459 C 540.15341,120.68049 559.50106,114.74498 580.20971,104.6696"
       inkscape:connector-curvature="0"
       id="path186"
       style="fill:none;stroke:#0000e9;stroke-width:1;stroke-miterlimit:4;stroke-opacity:1;stroke-dasharray:none" />
    <path
       d="M 543.52634,169.02094 C 536.58789,176.39501 524.02027,181.83349 515.98468,183.98737"
       inkscape:connector-curvature="0"
       id="path188"
       style="fill:none;stroke:#0000e9;stroke-width:1;stroke-miterlimit:4;stroke-opacity:1;stroke-dasharray:none" />
    <path
       d="M 564.97679,188.60614 C 571.12156,207.92673 558.83529,245.10617 539.48492,263.52725"
       inkscape:connector-curvature="0"
       id="path190"
       style="fill:none;stroke:#0000e9;stroke-width:1;stroke-miterlimit:4;stroke-opacity:1;stroke-dasharray:none" />
    <path
       d="M 638.03266,350.88343 C 623.75949,301.90964 619.74312,244.66012 571.81606,187.6735 617.05608,211.06296 643.2338,263.32143 679.0683,302.38677"
       inkscape:connector-curvature="0"
       id="path192"
       style="fill:none;stroke:#0000e9;stroke-width:1;stroke-miterlimit:4;stroke-opacity:1;stroke-dasharray:none" />
    <path
       d="M 572.74869,186.74088 C 612.666,197.01859 642.14158,222.95579 677.20304,244.56382"
       inkscape:connector-curvature="0"
       id="path194"
       style="fill:none;stroke:#0000e9;stroke-width:1;stroke-miterlimit:4;stroke-opacity:1;stroke-dasharray:none" />
    <path
       d="M 580.77697,174.6092 C 615.73466,180.88839 646.58369,198.52731 679.0683,210.98921"
       inkscape:connector-curvature="0"
       id="path196"
       style="fill:none;stroke:#0000e9;stroke-width:1;stroke-miterlimit:4;stroke-opacity:1;stroke-dasharray:none" />
    <path
       d="M 573.37044,166.84481 C 600.18961,162.81274 627.81285,166.82131 655.44171,170.8862"
       inkscape:connector-curvature="0"
       id="path198"
       style="fill:none;stroke:#0000e9;stroke-width:1;stroke-miterlimit:4;stroke-opacity:1;stroke-dasharray:none" />
    <path
       d="M 564.97679,160.00553 619.06921,137.31158"
       inkscape:connector-curvature="0"
       id="path3014"
       style="fill:none;stroke:#0000e9;stroke-width:1;stroke-miterlimit:4;stroke-opacity:1;stroke-dasharray:none" />
    <path
       d="M 552.89901,156.30596 C 556.00014,156.1168 558.91453,157.40307 561.17647,159.44969 566.89425,163.79223 573.48346,167.12403 578.4297,172.42294 579.76125,173.71894 579.88105,175.64315 579.0126,177.24152 577.51063,181.84329 574.28059,186.87309 569.12285,187.63644 563.56832,188.09644 558.61622,185.01173 554.6225,181.49031 549.2523,176.91984 544.18969,170.91594 543.92246,163.55326 544.00616,161.13531 544.45773,157.91007 546.9535,156.83056 548.86187,156.27953 550.92538,156.339 552.89901,156.30596 z"
       inkscape:connector-curvature="0"
       id="path6315"
       style="fill:#b394dd;stroke:none" />
    <path
       d="M 471.62435,63.839764 C 480.97219,76.459951 484.70644,92.158065 487.18753,107.41785 487.75127,110.88901 488.42257,114.34769 488.86826,117.83505 488.3548,119.06425 486.69757,117.74215 485.74007,118.0002 480.76385,117.15585 475.75699,117.83944 470.77916,118.17507 467.96388,118.05407 466.68572,114.95574 464.78812,113.30954 458.68415,106.12433 452.40834,99.215755 445.67279,92.611273 441.80422,88.439081 437.51529,84.24669 435.26481,78.965894 437.46175,72.832104 442.61396,67.95885 448.84297,65.996467 456.10261,63.585915 463.96594,63.41966 471.49438,63.77478 L 471.62435,63.83976 z"
       inkscape:connector-curvature="0"
       id="path6317"
       style="fill:#a36ed8;stroke:none" />
    <path
       d="M 480.89234,117.95163 C 495.5594,118.24131 508.66126,126.18068 519.72054,135.16835 528.41352,142.18741 536.48068,149.94657 544.58307,157.64661 544.54107,159.46093 543.42216,161.27932 543.6213,163.23267 543.3509,165.24508 544.42942,167.17042 544.38878,169.10045 543.86963,169.65721 543.01812,168.94153 542.53324,169.77078 535.25236,176.45468 525.97924,180.68901 516.61394,183.66305 515.22812,183.22365 515.53464,181.04876 514.86075,179.92201 510.34778,165.5107 502.32473,152.18423 491.46213,141.67536 484.81022,134.42288 477.9096,127.40344 471.31348,120.12776 470.4004,119.23431 471.50532,118.18714 472.56669,118.40823 475.32436,118.05773 478.11216,117.87955 480.89234,117.95163 z"
       inkscape:connector-curvature="0"
       id="path6319"
       style="fill:#cce198;stroke:none" />
    <path
       d="M 544.49564,169.23646 C 545.51996,170.60575 545.81289,172.45519 547.06037,173.76359 551.33057,179.98757 557.34397,185.27654 564.48886,187.82102 565.29361,188.63629 564.91093,190.15071 565.45063,191.19208 567.47518,202.43031 565.54823,213.99027 562.06985,224.74727 557.4732,238.66466 550.57811,252.21528 540.05594,262.57699 539.50724,263.56404 538.24811,263.27596 538.2926,262.13159 535.93209,251.76754 533.53496,241.40156 530.62938,231.19923 526.94495,215.53948 521.16869,200.45357 516.3225,185.13 516.4134,183.47418 518.74203,183.59754 519.8406,182.95617 528.38792,180.01947 536.60174,175.78426 543.27157,169.61534 543.61391,169.39331 544.04391,169.05981 544.49564,169.23646 z"
       inkscape:connector-curvature="0"
       id="path6321"
       style="fill:#7786bc;stroke:none" />
    <path
       d="M 571.77501,187.91817 C 593.55883,213.70461 609.14431,244.37281 618.66644,276.69171 625.95154,300.88664 630.87051,325.82129 637.68074,350.15661 636.91458,351.60293 634.85685,352.22191 633.50334,353.22651 625.41647,357.89919 616.3367,360.58511 607.22468,362.30962 600.99545,364.21084 594.46925,365.45187 587.93217,364.68092 579.96019,364.09468 571.83923,359.8616 568.21937,352.55618 562.6479,339.95514 557.98055,326.92726 553.45276,313.9104 549.53333,302.33911 546.32464,290.54468 542.52914,278.93401 541.10263,273.90357 539.5179,268.82702 538.66671,263.67478 538.93202,262.89261 539.90044,263.55958 540.27938,262.77129 550.25682,253.1005 556.85375,240.53796 561.52582,227.53543 565.72838,215.24354 568.32525,201.79049 565.31462,188.89937 565.49276,187.47034 567.65113,188.25317 568.63711,187.90845 569.66802,187.95745 570.80377,187.53941 571.77501,187.91845 z"
       inkscape:connector-curvature="0"
       id="path6323"
       style="fill:#9681a3;stroke:none" />
    <path
       d="M 575.71925,190.23031 C 581.61642,193.12379 586.90975,197.20293 592.11797,201.1984 615.68915,220.07421 633.18447,244.99582 651.43203,268.76908 660.00433,279.90462 668.57159,291.11667 678.00719,301.45593 677.94313,303.28858 676.33324,304.9594 675.68785,306.72941 672.18156,313.27829 669.26103,320.19608 664.92125,326.2483 659.22579,333.75906 651.19682,338.86777 644.49823,345.34666 642.57519,346.93996 640.71251,348.68893 638.53565,349.93317 637.18517,349.64317 637.57544,347.51135 636.98145,346.49986 630.9589,324.09243 626.19682,301.32186 619.77288,279.04348 611.00135,249.21788 597.80632,220.5574 578.67258,195.96209 577.49038,194.2323 575.83743,192.69817 575.04893,190.7452 575.09083,190.42095 575.36573,190.13452 575.71925,190.23031 z"
       inkscape:connector-curvature="0"
       id="path6325"
       style="fill:#9ac497;stroke:none" />
    <path
       d="M 575.58325,187.82102 C 593.25334,192.53869 609.64013,201.10748 625.15215,210.64068 642.37906,221.49841 659.00607,233.26412 676.20022,244.17702 679.89966,252.98984 684.23155,261.90372 684.88273,271.6107 685.74028,281.20768 683.08928,290.73932 679.20212,299.40609 678.96343,300.31862 677.80061,301.05075 677.20086,299.95013 660.15475,281.03065 645.72266,259.8629 629.8214,240.01905 617.08731,224.00154 603.18964,208.49403 586.48334,196.47697 582.78111,193.63697 578.46051,191.60112 574.77691,188.73422 574.3992,188.18441 575.031,187.642 575.58325,187.82102 z"
       inkscape:connector-curvature="0"
       id="path6327"
       style="fill:#ba9676;stroke:none" />
    <path
       d="M 584.65694,175.58027 C 616.00743,182.06811 644.50429,197.31479 673.96063,209.14981 675.48647,210.00751 677.61954,210.31393 678.67752,211.74876 679.30896,216.51633 679.65352,221.92441 676.58882,225.99077 673.76341,230.72604 674.27547,236.52579 675.37446,241.70944 675.00178,243.28954 673.27682,241.67814 672.50642,241.30314 649.01327,226.59019 626.93407,209.35681 601.89113,197.35131 592.91941,193.18226 583.7055,189.39712 574.08715,186.99525 573.11934,185.87484 575.39935,184.91821 575.91269,183.86658 578.09924,181.26465 579.1591,177.97574 580.1893,174.83187 581.59219,174.64287 583.19455,175.41898 584.65694,175.58027 z"
       inkscape:connector-curvature="0"
       id="path6329"
       style="fill:#9b7d71;stroke:none" />
    <path
       d="M 598.7338,165.36022 C 617.10649,165.57055 635.34856,168.12148 653.48684,170.81999 656.95422,173.20858 659.34593,176.86913 661.99707,180.07826 666.42051,186.06469 670.28909,192.47409 673.8978,198.98341 675.49655,202.37504 677.40084,205.83031 677.86147,209.58234 677.08208,210.76624 675.49336,208.99289 674.45679,208.93326 644.49382,196.97103 615.58789,181.44482 583.75346,175.02653 582.31291,174.47897 580.24354,175.11493 579.51777,173.39443 578.14768,170.97679 575.77846,169.40122 573.96086,167.41978 575.06074,166.26631 577.21814,166.6904 578.75864,166.31223 585.39803,165.72536 592.0648,165.27547 598.7338,165.36022 z"
       inkscape:connector-curvature="0"
       id="path6331"
       style="fill:#c1dfbe;stroke:none" />
    <path
       d="M 619.67907,136.41961 C 623.6844,139.94432 627.14582,144.23386 631.29448,147.69447 636.354,152.67115 641.03584,158.04366 646.18583,162.95854 648.09792,165.09036 650.49985,166.93613 652.07818,169.28503 651.69088,170.64926 649.74908,169.66682 648.75099,169.76005 624.35369,166.27558 599.5051,163.18559 574.90733,166.48905 573.10739,167.26802 571.6063,166.34798 570.21935,165.21451 568.10758,163.5906 565.40112,162.48951 563.75053,160.41535 563.78243,159.17222 565.22487,160.21696 565.82951,159.54101 582.27084,153.09727 598.4971,146.17896 614.72417,139.1982 616.13366,138.28846 618.36334,138.13466 619.10589,136.53619 619.26369,136.40238 619.47564,136.32743 619.67907,136.41961 z"
       inkscape:connector-curvature="0"
       id="path6333"
       style="fill:#768e99;stroke:none" />
    <path
       d="M 579.97437,105.32229 C 587.59825,109.48516 594.87857,114.34509 601.998,119.31171 608.26878,123.94923 613.80336,129.5466 618.96017,135.36069 619.92367,136.31818 618.88677,137.44453 617.76764,137.55021 599.81782,145.26774 581.66112,152.72507 563.75053,160.39592 560.85812,159.49767 558.92083,156.357 555.66775,156.20881 552.14122,155.91892 548.42254,155.69821 545.11739,157.19973 542.53455,155.58969 540.48012,152.95344 538.12268,150.97249 532.33641,145.64733 526.58216,140.19891 520.49018,135.24411 520.24658,133.67056 522.98823,133.30231 523.93675,132.23707 540.96536,121.28214 560.0988,114.30901 578.38564,105.79361 578.90467,105.63662 579.40554,105.20297 579.97437,105.32229 z"
       inkscape:connector-curvature="0"
       id="path6335"
       style="fill:#dad3b7;stroke:none" />
    <path
       d="M 474.34452,64.043776 C 487.4169,65.37271 500.1973,68.745599 512.6921,72.706091 528.14792,77.607548 542.21377,85.818055 556.78105,92.783878 563.93123,96.490012 571.30331,99.874818 578.06054,104.24394 578.94032,105.53445 576.57783,105.99517 575.83689,106.50515 557.19839,115.0638 537.8329,122.41155 520.72707,133.78849 519.28644,135.07938 517.96842,132.90998 516.74024,132.32964 508.5779,126.08433 499.42246,120.8685 489.42257,118.49823 487.82054,109.83328 486.68097,100.93715 484.45913,92.343005 482.08594,82.519951 478.57842,72.925046 472.69299,64.646099 472.35318,63.512118 473.76879,63.986755 474.34452,64.043776 z"
       inkscape:connector-curvature="0"
       id="path6342"
       style="fill:#a6a5bc;stroke:none" />
  </g>
</svg>
