<?xml version="1.0" encoding="UTF-8" standalone="no"?>
<!-- Created with Inkscape (http://www.inkscape.org/) -->

<svg
   xmlns:dc="http://purl.org/dc/elements/1.1/"
   xmlns:cc="http://creativecommons.org/ns#"
   xmlns:rdf="http://www.w3.org/1999/02/22-rdf-syntax-ns#"
   xmlns:svg="http://www.w3.org/2000/svg"
   xmlns="http://www.w3.org/2000/svg"
   xmlns:xlink="http://www.w3.org/1999/xlink"
   xmlns:inkscape="http://www.inkscape.org/namespaces/inkscape"
   version="1.1"
   width="740"
   height="520"
   id="svg2"
   style="enable-background:new">
  <defs
     id="defs4">
    <filter
       color-interpolation-filters="sRGB"
       id="filter3050">
      <feBlend
         in2="BackgroundImage"
         mode="lighten"
         id="feBlend3052" />
    </filter>
  </defs>
  <metadata
     id="metadata7">
    <rdf:RDF>
      <cc:Work
         rdf:about="">
        <dc:format>image/svg+xml</dc:format>
        <dc:type
           rdf:resource="http://purl.org/dc/dcmitype/StillImage" />
        <dc:title />
      </cc:Work>
    </rdf:RDF>
  </metadata>
  <g
     id="layer1"
     style="display:none">
    <image
       xlink:href="pngs/coronal-0484.png"
       id="MRISLICE"
       height="520"
       width="740"
       y="0"
       x="0" />
  </g>
  <g
     id="layer3"
     style="display:inline">
    <path
       d="M 374.91651,105.91311 374.29476,209.7457 371.186,293.68224 369.32075,373.88826 C 402.57166,411.34018 424.4486,432.05235 469.42284,427.98069 490.22389,430.08067 511.20844,418.58422 530.35454,397.51484 L 570.76842,366.42723 C 612.51765,316.22271 618.81228,275.34694 624.2391,255.13361 636.03902,159.93573 558.47794,120.40535 470.66634,87.260542 430.63788,75.382399 393.65343,70.294744 374.91651,105.91311 z"
       inkscape:connector-curvature="0"
       id="path2990"
       style="fill:none;stroke:#0000e9;stroke-width:1;stroke-miterlimit:4;stroke-opacity:1;stroke-dasharray:none;stroke-dashoffset:0" />
    <path
       d="M 460.7183,319.17407 C 458.01833,318.5078 460.32325,318.97729 456.36267,318.18487 454.24651,317.33342 451.94959,316.04024 449.60894,316.75837 446.87108,317.59545 444.96346,320.46929 445.14925,323.30968 444.71666,324.86013 444.25035,326.57628 445.12975,328.07035 445.95547,330.17896 447.55624,331.82071 448.86729,333.61848 449.57972,335.00001 450.73829,336.01724 451.99622,336.887 453.11321,337.82852 454.27104,338.73222 455.64935,339.25885 456.6846,339.67498 457.90177,340.07157 458.9634,339.52167 460.59365,338.8599 462.40248,339.26237 464.02699,338.61663 465.66613,337.89704 467.6951,337.82773 468.91778,336.36492 469.6885,335.54948 470.29635,334.4784 470.09046,333.31392 469.96424,331.93432 468.97893,330.88937 468.44884,329.66195 467.67409,328.15556 466.62706,326.8168 465.58277,325.49817 464.60327,323.87485 463.72033,322.08907 462.11394,320.9879 461.60596,320.41657 461.24243,319.73199 460.71828,319.17407 z"
       inkscape:connector-curvature="0"
       id="path2992"
       style="fill:none;stroke:#0000e9;stroke-width:1;stroke-miterlimit:4;stroke-opacity:1;stroke-dasharray:none;stroke-dashoffset:0" />
    <path
       d="M 569.52492,367.67074 C 548.5846,372.60198 533.12432,381.02052 530.35454,397.51484"
       inkscape:connector-curvature="0"
       id="path2994"
       style="fill:none;stroke:#0000e9;stroke-width:1;stroke-miterlimit:4;stroke-opacity:1;stroke-dasharray:none;stroke-dashoffset:0" />
    <path
       d="M 440.85348,175.18513 C 431.83824,177.29972 427.41045,182.57687 422.87844,190.5501 416.55073,199.28059 409.17789,207.3115 401.57096,214.97163 395.71854,218.53345 385.21599,227.17853 390.10028,233.39085 396.69166,238.00243 405.14214,238.92696 411.50314,243.74863 416.21759,257.27671 418.70893,281.74447 421.01203,293.5144 430.47484,299.15728 426.50538,263.86328 425.88273,256.57939 425.04526,247.0622 424.50623,237.69142 421.62536,229.19428 424.93869,218.46604 437.54982,212.04004 447.7114,208.86641 474.30216,204.62381 500.18375,208.82731 516.48293,231.46346 520.62526,238.6229 522.36506,243.18579 523.01686,251.81998 524.64389,274.46426 520.81529,304.62151 520.71138,323.58427 524.46441,329.03998 524.98421,321.28592 524.7591,311.55657 525.67908,301.89948 530.95502,284.36721 532.05324,270.69302 533.21052,256.28345 534.39018,231.7127 530.30258,226.70903 522.84257,217.57715 507.72855,204.20225 495.56701,196.01293 477.48424,180.86609 440.85348,175.18513 440.85348,175.18513 z"
       inkscape:connector-curvature="0"
       id="path3012"
       style="fill:none;stroke:#0000e9;stroke-width:1;stroke-miterlimit:4;stroke-opacity:1;stroke-dasharray:none;stroke-dashoffset:0" />
    <path
       d="M 510.16321,377.73191 C 506.8506,384.27147 503.13513,387.81018 496.66936,391.27114 490.34605,395.06605 482.91317,396.40185 475.80374,398.01208 465.3719,400.11436 454.79057,401.55526 444.21388,402.74322 437.89156,403.16747 431.31964,402.98426 425.54984,400.04737 418.38,397.30706 410.29142,388.73918 404.08549,384.42973 400.03593,381.27056 398.99343,380.49405 396.1347,376.23261 394.64462,374.03852 390.97004,364.62947 388.59509,360.20969"
       inkscape:connector-curvature="0"
       id="path3021"
       style="fill:none;stroke:#0000e9;stroke-width:1;stroke-miterlimit:4;stroke-opacity:1;stroke-dasharray:none;stroke-dashoffset:0" />
    <path
       d="M 421.49458,229.43757 C 416.95014,233.23021 414.36562,237.61361 411.28083,241.49735 411.0452,241.704 409.89261,242.28234 410.35575,241.45505"
       inkscape:connector-curvature="0"
       id="path3023"
       style="fill:none;stroke:#0000e9;stroke-width:1;stroke-miterlimit:4;stroke-opacity:1;stroke-dasharray:none;stroke-dashoffset:0" />
    <path
       d="M 447.05268,177.08811 C 448.66633,181.93616 439.70233,180.26855 436.33754,183.02334 423.7832,193.30174 408.35206,216.13943 402.73032,222.25334 399.37873,225.89835 391.35189,226.8552 392.00822,224.0681"
       inkscape:connector-curvature="0"
       id="path2998"
       style="fill:none;stroke:#0000e9;stroke-width:1;stroke-miterlimit:4;stroke-opacity:1;stroke-dasharray:none;stroke-dashoffset:0" />
    <path
       d="M 531.59803,396.27134 C 521.62144,380.51662 508.08915,377.20682 494.91466,372.64476 468.53884,395.78916 438.79797,402.10834 404.13885,383.83629 L 399.16484,403.73236"
       inkscape:connector-curvature="0"
       id="path3010"
       style="fill:none;stroke:#0000e9;stroke-width:1;stroke-miterlimit:4;stroke-opacity:1;stroke-dasharray:none;stroke-dashoffset:0" />
    <path
       d="M 420.92616,290.57348 C 404.43796,308.28164 385.88604,323.92609 388.59505,360.83147"
       inkscape:connector-curvature="0"
       id="path3013"
       style="fill:none;stroke:#0000e9;stroke-width:1;stroke-miterlimit:4;stroke-opacity:1;stroke-dasharray:none;stroke-dashoffset:0" />
    <path
       d="M 497.40167,349.01818 C 496.61303,347.80083 494.41843,348.08141 494.00785,349.48929 492.87811,351.48694 492.08816,353.64804 491.18513,355.75147 491.23723,357.31147 491.11543,358.90078 490.57705,360.37269 490.26339,363.20394 490.8313,366.04991 490.52135,368.88222 490.50605,370.2403 490.54675,371.81209 491.57498,372.82883 492.55799,373.52162 494.06513,372.92013 494.44286,371.81684 495.42708,370.41111 495.73607,368.60638 495.46962,366.92808 495.62552,365.25696 496.82847,363.85113 496.78283,362.13972 496.93711,360.41814 496.38497,358.65428 496.96909,356.97107 497.38139,355.31164 497.70543,353.58206 497.40067,351.8758 497.35607,350.92426 497.31577,349.96866 497.40164,349.01818 z"
       inkscape:connector-curvature="0"
       id="path3015"
       style="fill:none;stroke:#0000e9;stroke-width:1;stroke-miterlimit:4;stroke-opacity:1;stroke-dasharray:none;stroke-dashoffset:0" />
    <path
       d="M 496.88659,349.27571 C 506.03071,343.15857 512.75148,336.60909 520.27125,323.99455"
       inkscape:connector-curvature="0"
       id="path3017"
       style="fill:none;stroke:#0000e9;stroke-width:1;stroke-miterlimit:4;stroke-opacity:1;stroke-dasharray:none;stroke-dashoffset:0" />
    <path
       d="M 490.56239,344.66591 C 498.01227,309.5161 450.38824,304.32048 425.27843,289.95173"
       inkscape:connector-curvature="0"
       id="path3019"
       style="fill:none;stroke:#0000e9;stroke-width:1;stroke-miterlimit:4;stroke-opacity:1;stroke-dasharray:none;stroke-dashoffset:0" />
    <path
       d="M 421.54791,292.43874 C 398.361,309.44052 451.63887,408.69413 489.94064,344.66591"
       inkscape:connector-curvature="0"
       id="path3022"
       style="fill:none;stroke:#0000e9;stroke-width:1;stroke-miterlimit:4;stroke-opacity:1;stroke-dasharray:none;stroke-dashoffset:0" />
    <path
       d="M 445.57642,360.54269 443.30924,393.78433"
       inkscape:connector-curvature="0"
       id="path3024"
       style="fill:none;stroke:#0000e9;stroke-width:1;stroke-miterlimit:4;stroke-opacity:1;stroke-dasharray:none;stroke-dashoffset:0" />
    <path
       d="M 494.38093,348.53841 489.98448,344.36178"
       inkscape:connector-curvature="0"
       id="path3004"
       style="fill:none;stroke:#0000e9;stroke-width:1;stroke-miterlimit:4;stroke-opacity:1;stroke-dasharray:none;stroke-dashoffset:0" />
    <path
       d="M 450.39778,317.10603 C 445.74273,317.72586 444.33925,323.78117 445.3556,327.68499 447.73972,332.61614 451.56649,337.2232 456.6902,339.3768 460.45636,339.26554 464.51044,338.60268 467.80497,336.6565 469.5787,335.59972 470.5773,333.3469 469.15139,331.55936 466.59471,327.3335 464.11625,322.70239 460.17988,319.67521 457.15786,318.29676 453.7495,317.15077 450.39778,317.10603 z"
       inkscape:connector-curvature="0"
       id="path3006"
       style="fill:#bfb879;stroke:none" />
    <path
       d="M 416.70997,295.90689 C 411.46946,300.38564 407.15554,305.94676 402.82869,311.32851 393.39182,323.34945 388.33495,338.57845 388.58642,353.89883 388.36038,357.48066 388.72907,361.11222 390.72483,364.18236 394.28873,371.20084 396.79234,380.20238 404.56477,383.71227 416.2818,389.45001 429.10478,394.47712 442.38799,393.87906 444.09136,393.03832 442.81798,390.40274 443.41937,388.95115 444.00506,379.72245 444.59566,370.49284 445.3556,361.27663 442.34633,358.80583 439.05722,356.35122 436.49356,353.34643 426.31147,342.74661 419.27856,329.05531 416.49015,314.64677 415.51639,308.70237 415.46427,302.50358 417.43813,296.78618 417.51853,296.30761 417.27765,295.79079 416.70997,295.90689 z"
       inkscape:connector-curvature="0"
       id="path3011"
       style="fill:#95c990;stroke:none" />
    <path
       d="M 489.8834,345.24332 C 484.09014,354.33014 476.47215,363.74733 465.22206,365.74177 458.71814,367.00092 452.27605,364.74985 446.5234,361.97731 445.03438,362.59028 446.00193,365.13922 445.49418,366.43797 444.90614,375.50292 443.80646,384.63609 443.69319,393.67298 446.72613,394.53581 450.21803,393.55403 453.37416,393.33233 467.65847,390.93655 481.04559,384.05347 491.94424,374.63085 492.81222,373.24304 490.35177,372.59562 490.58409,371.07247 489.67345,363.5491 490.33961,355.62632 493.88143,348.84291 493.18452,347.71525 491.31124,344.94432 489.8834,345.24332 z"
       inkscape:connector-curvature="0"
       id="path3014"
       style="fill:#d87090;stroke:none" />
    <path
       d="M 495.74992,348.66431 C 493.22039,349.69847 492.86115,353.16664 491.80685,355.41011 490.65314,360.49423 490.29405,365.98609 491.1199,371.11369 491.1169,372.69521 492.79864,373.57679 493.75778,372.18532 495.73199,369.91254 494.88602,366.69685 495.98348,364.07936 496.53949,359.16124 497.42103,354.13125 497.12381,349.20012 496.89147,348.67379 496.26597,348.60232 495.74992,348.66431 z"
       inkscape:connector-curvature="0"
       id="path3016"
       style="fill:#a5c0bd;stroke:none" />
    <path
       d="M 563.9636,369.47876 C 553.64945,372.35556 543.02796,376.82253 536.12857,385.30598 534.17673,388.18953 531.61588,391.35661 531.62221,394.96443 533.03878,396.13153 534.48428,393.31751 535.79884,392.9036 545.48463,385.47339 555.34746,378.18443 564.74672,370.44048 565.09018,369.91591 564.52354,369.30999 563.9636,369.47876 z"
       inkscape:connector-curvature="0"
       id="path3018"
       style="fill:#6abbd5;stroke:none" />
    <path
       d="M 509.8323,378.75252 C 504.82891,388.57881 494.0599,393.8708 483.74177,396.32154 469.22766,399.69431 454.39187,402.45435 439.44787,403.02917 431.55809,403.21278 423.96961,400.50172 417.82158,395.60291 413.29897,392.59235 409.5253,388.45573 404.7846,385.82806 403.01227,386.24474 403.50397,389.16396 402.72376,390.51303 401.75101,395.17467 400.00506,399.82521 399.79737,404.55419 410.81444,415.00335 424.58627,422.65951 439.39654,426.13557 451.96309,429.21009 465.0965,427.97983 477.91357,427.59751 489.66505,427.0015 500.64971,421.67146 510.23073,415.16063 517.35516,409.75402 524.4953,403.9907 530.0285,396.94284 531.36767,394.61975 528.26678,392.61869 527.15707,390.89772 522.51702,385.57223 516.60592,381.16374 510.06586,378.54644 L 509.8323,378.75252 z"
       inkscape:connector-curvature="0"
       id="path3027"
       style="fill:#c7a1db;stroke:none" />
    <path
       d="M 420.18086,291.54061 C 419.80553,291.69835 419.56233,292.10051 419.26171,292.37522 418.27523,293.42624 417.27169,294.46175 416.29977,295.52614 416.03214,295.82777 416.25027,296.34184 416.64757,296.37274 416.74637,296.41514 416.94837,296.32484 416.94945,296.48548 417.02065,296.82674 417.36598,297.0792 417.71329,296.92144 418.06564,296.69731 418.17179,296.21596 418.42198,295.88394 418.95703,294.99929 419.58648,294.18304 420.32761,293.46637 420.59468,293.17313 421.03995,292.8928 420.91196,292.43302 420.86946,292.11335 420.90196,291.67115 420.52337,291.54732 420.41613,291.48982 420.29256,291.51242 420.18086,291.54032 z"
       inkscape:connector-curvature="0"
       id="path3037"
       style="fill:#95c990;stroke:none" />
    <path
       d="M 494.79077,373.33008 C 483.9586,382.10544 471.79613,389.73398 458.09356,392.94521 446.34377,395.44489 433.85939,394.96583 422.35924,391.43796 418.46958,390.56043 414.87662,388.67164 411.03838,387.72845 409.45912,388.66075 411.97149,390.24948 412.70078,390.9571 419.95902,397.03933 428.54498,403.04536 438.46118,402.49415 452.48018,402.14669 466.36507,399.60086 480.07521,396.81068 491.42047,394.5379 503.53004,389.30659 509.36775,378.67451 508.36539,376.84745 504.98145,376.83061 503.05241,375.75227 500.33233,374.91736 497.64601,373.55037 494.79077,373.33008 z"
       inkscape:connector-curvature="0"
       id="path3026"
       style="fill:#8791c7;stroke:none" />
    <path
       d="M 531.55304,269.55315 C 540.57312,280.29709 546.85576,302.38536 529.44586,322.78145"
       inkscape:connector-curvature="0"
       id="path3028"
       style="fill:none;stroke:#0000e9;stroke-width:1;stroke-miterlimit:4;stroke-opacity:1;stroke-dasharray:none;stroke-dashoffset:0" />
    <path
       d="M 524.90502,321.29146 C 531.21398,324.41478 538.88702,326.38518 536.9398,332.20587 535.93422,335.21178 536.69718,338.03869 532.84988,343.26266 L 519.1672,352.51587 505.59188,375.35676"
       inkscape:connector-curvature="0"
       id="path3030"
       style="fill:none;stroke:#0000e9;stroke-width:1;stroke-miterlimit:4;stroke-opacity:1;stroke-dasharray:none;stroke-dashoffset:0" />
    <path
       d="M 524.05698,348.53841 501.63508,345.02124"
       inkscape:connector-curvature="0"
       id="path3032"
       style="fill:none;stroke:#0000e9;stroke-width:1;stroke-miterlimit:4;stroke-opacity:1;stroke-dasharray:none;stroke-dashoffset:0" />
    <path
       d="M 515.26407,379.75321 C 516.51811,375.26194 521.52879,373.81288 524.27747,370.47712 527.75652,367.52353 531.68715,365.15115 535.44743,362.58826 543.29017,357.95003 551.79094,354.58677 559.83715,350.34821 563.00025,349.00671 565.95282,347.21374 568.46427,344.86547 572.16305,342.12967 575.6992,338.4125 576.15572,333.62718 576.79163,329.52697 571.92851,329.26416 570.58912,332.5489 567.62328,337.19216 569.56905,340.31018 561.20869,344.71666 557.56938,346.43962 550.73165,347.52565 547.11488,349.35003 538.77117,352.97706 531.05985,355.51682 524.12774,361.48067 519.00627,365.744 513.80334,370.19011 510.50977,376.08051 510.31311,376.46305 509.97135,377.59341 510.42807,376.23605"
       inkscape:connector-curvature="0"
       id="path3034"
       style="fill:none;stroke:#0000e9;stroke-width:1;stroke-miterlimit:4;stroke-opacity:1;stroke-dasharray:none;stroke-dashoffset:0" />
    <path
       d="M 501.97622,345.46757 C 500.24146,347.33913 496.8125,348.42296 497.51997,351.53784 497.35641,357.01683 497.09944,362.51061 495.76971,367.82965 495.98308,369.42361 494.02105,371.74797 496.10971,372.62939 498.94713,373.74503 501.96125,375.25771 504.92493,375.59315 510.21201,368.02844 514.04161,359.3412 519.74063,352.08972 520.5188,350.86173 523.14523,350.35921 522.73571,348.68247 515.9356,347.3951 508.84609,346.23871 501.97622,345.46757 z"
       inkscape:connector-curvature="0"
       id="path3045"
       style="fill:#7c797c;stroke:none" />
    <path
       d="M 573.39107,330.57459 C 570.19596,331.72163 569.85,335.94363 568.17029,338.50194 564.90445,345.35959 556.39879,346.24117 550.03334,348.66624 539.0855,352.56286 528.22376,357.47759 519.80151,365.63141 516.13755,369.13254 512.1518,372.83586 510.27452,377.61662 511.36567,378.76525 513.79341,380.51266 515.24801,379.00425 517.68702,374.66719 522.36963,372.24966 525.93688,368.90615 538.31596,359.35926 553.33397,354.13981 566.5491,346.00339 570.92086,342.75419 575.84966,338.35035 575.82286,332.47056 575.67972,331.3009 574.56778,330.42438 573.39107,330.57459 z"
       inkscape:connector-curvature="0"
       id="path3047"
       style="fill:#d5be93;stroke:none" />
    <path
       d="M 426.02123,291.23152 C 425.48467,293.0706 423.66553,294.99475 421.63983,293.97112 419.6754,293.46041 418.78502,295.98731 417.9676,297.31304 415.39086,302.93267 416.0621,309.43893 416.97677,315.34803 420.47974,331.73801 429.17259,347.17399 442.0309,358.0119 448.77421,363.48659 457.80555,367.40414 466.57187,365.03901 475.85675,362.78003 482.56056,355.26289 487.73013,347.67496 488.47192,346.19782 489.78594,345.095 490.5183,343.67243 491.71283,336.93717 491.06682,329.47712 486.9918,323.76664 480.4618,314.37861 469.75651,309.07986 459.46158,304.78935 448.50462,300.23874 437.32506,296.19853 426.68185,291.00808 426.43472,291.06858 426.13801,290.84317 426.02123,291.23152 z M 450.98847,316.49992 C 454.03513,316.7748 456.82369,318.23977 459.82901,318.79263 461.67768,319.29656 462.45791,321.26454 463.80239,322.52314 466.06452,326.14468 469.43951,329.40931 470.10734,333.77297 470.18814,336.98215 466.48459,338.12785 463.99652,338.74572 461.68605,339.15225 459.32046,339.98449 456.96312,339.82534 453.98998,338.96414 451.41683,336.84721 449.31751,334.67645 447.28946,331.47245 443.53485,328.19261 444.74788,323.99493 445.1301,321.10276 446.1185,317.63622 449.28836,316.77193 449.8403,316.60767 450.41314,316.51293 450.98847,316.49992 z"
       inkscape:connector-curvature="0"
       id="path3039"
       style="fill:#8a7294;stroke:none" />
    <path
       d="M 420.95587,230.22147 C 418.27595,232.43213 416.24973,235.34565 414.07659,238.04184 412.9359,239.58843 411.69134,241.10844 410.47308,242.51093 410.89344,243.24832 411.73482,243.73341 411.88819,244.6748 414.89231,253.89645 416.29714,263.5849 417.86205,273.15891 418.85961,279.04395 419.51517,285.01966 420.79787,290.83754 420.69887,291.76636 421.25869,292.68465 421.56725,293.53724 422.86551,294.67666 424.63034,293.49504 425.24928,292.18396 425.68296,291.59674 425.87494,290.70877 425.57214,290.1506 426.87237,288.39596 426.60744,285.99329 426.89607,283.92032 427.5222,271.4261 425.95501,258.96787 424.83024,246.55016 424.22804,241.21417 423.64074,235.77247 421.86264,230.69546 421.70863,230.35074 421.35625,230.03441 420.95587,230.22147 z"
       inkscape:connector-curvature="0"
       id="path3029"
       style="fill:#a7b0c5;stroke:none" />
    <path
       d="M 524.71472,321.77578 C 524.14372,322.93199 524.35227,324.62337 523.12634,325.40428 521.97337,325.8191 521.48665,323.89151 520.38188,324.13649 518.83281,326.29411 517.5327,328.65811 515.9551,330.80044 512.56897,335.75675 508.37628,340.07181 504.01232,344.14914 503.43933,344.69379 503.94672,345.42784 504.66321,345.35864 511.06214,346.50383 517.5277,347.35158 523.91324,348.52083 524.69831,349.07963 525.43973,347.92273 526.13591,347.66106 528.37693,346.07566 530.8325,344.73652 532.88493,342.90563 534.87158,340.49825 535.91252,337.46584 536.358,334.40512 536.66585,332.49075 537.68732,330.41916 536.6543,328.54219 535.29756,326.11561 532.51281,325.06406 530.17934,323.83047 528.48637,323.07954 526.834,322.16798 525.06446,321.63005 524.94788,321.67865 524.8313,321.72715 524.71472,321.77578 z"
       inkscape:connector-curvature="0"
       id="path3038"
       style="fill:#c9ca98;stroke:none" />
    <path
       d="M 532.41647,271.43271 C 531.73029,271.70688 532.04819,272.63384 531.85781,273.19527 530.47064,285.11023 527.2001,296.70408 525.2001,308.52089 524.68567,312.24034 524.92907,316.01856 524.71924,319.75589 524.72424,320.34234 524.35399,321.18856 525.18957,321.36239 526.38603,321.87584 527.53702,322.5556 528.77558,322.93708 529.50078,322.89228 529.82705,322.05495 530.30925,321.60873 536.00734,314.62749 539.89093,305.97039 540.33008,296.89778 540.83422,288.0303 538.25929,279.00875 533.13089,271.76244 532.96241,271.53217 532.71228,271.38246 532.41647,271.43271 z"
       inkscape:connector-curvature="0"
       id="path3040"
       style="fill:#76bd94;stroke:none" />
    <path
       d="M 440.49645,175.52232 C 434.10992,176.93352 428.72441,181.37512 425.396,186.93405 418.8073,196.998 410.73481,206.07836 402.14212,214.45955 398.65618,217.58109 394.40391,220.00332 391.65005,223.80526 392.69815,226.29187 395.69069,225.4554 397.68299,224.93218 402.72392,223.47852 405.32874,218.44786 408.54728,214.73641 417.15353,203.68304 425.48124,192.2904 436.10533,183.09021 439.15146,180.67716 443.69425,181.53986 446.75284,179.1654 447.37648,178.04963 447.02302,176.34608 445.53848,176.26065 443.88104,175.93639 442.1988,175.4421 440.49645,175.52232 z"
       inkscape:connector-curvature="0"
       id="path3025"
       style="fill:#b46a9f;stroke:none" />
    <path
       d="M 447.73209,176.84354 C 447.35063,178.13297 447.22272,179.93375 445.59482,180.32147 441.96692,181.6574 437.5255,181.56754 434.78946,184.71143 422.6449,195.66113 413.70894,209.54937 403.12138,221.82342 400.62175,224.8251 396.29126,226.45228 392.49331,225.36935 391.3229,224.32944 390.06131,225.4887 389.812,226.72943 388.98239,228.55949 388.52477,230.7049 389.8509,232.4515 392.43726,235.38693 396.54496,236.28521 399.98352,237.9404 403.11219,239.07687 406.11897,240.72004 409.23208,241.78749 411.30115,241.89079 412.21006,239.37776 413.50662,238.17356 415.92708,234.68588 419.07372,231.88921 421.61855,228.51697 424.64677,221.25585 431.0611,215.83412 438.11441,212.56514 443.86605,209.58807 450.19506,207.89751 456.69668,207.62527 474.00181,206.23655 492.71189,208.98422 506.28888,220.43932 513.94759,226.56624 520.14774,234.93265 522.14809,244.69224 523.92477,255.05086 523.52822,265.69345 523.27725,276.17744 522.79356,291.4381 521.14694,306.65461 521.05574,321.92514 520.84247,323.141 521.68146,325.60713 523.25559,324.81083 524.65508,322.6358 524.1433,319.74148 524.48938,317.26237 524.43108,307.10863 527.36104,297.33124 529.16223,287.41827 530.2312,281.80315 531.47585,276.13006 531.80468,270.41724 531.40769,269.37934 532.26699,268.14172 532.12527,266.96845 532.82002,256.765 533.21447,246.49258 532.53329,236.27916 532.20679,231.95912 531.33818,227.2982 527.93816,224.30072 516.12682,211.54602 502.546,200.46279 487.96144,191.03698 475.65766,183.98677 461.91924,179.88045 448.14987,176.75611 L 447.84559,176.81981 447.73213,176.84351 z"
       inkscape:connector-curvature="0"
       id="path3031"
       style="fill:#73a0a6;stroke:none" />
    <path
       d="M 463.61592,207.69799 C 455.70926,207.81991 447.50479,208.25443 440.31813,211.88694 432.55797,215.39405 424.78766,220.87001 421.80309,229.16787 425.27283,240.20578 425.4759,251.90584 426.60948,263.36252 427.19247,272.25299 427.90148,281.2602 426.48566,290.10929 427.47959,291.48904 429.71804,291.75312 431.15852,292.72259 444.12701,298.69393 457.81401,303.03768 470.5232,309.55847 479.07916,314.19808 487.81204,320.70693 490.5067,330.48432 491.85519,335.09143 491.49937,339.98977 490.837,344.69718 491.91153,346.04352 493.36232,347.67422 495.13098,348.14596 496.46503,348.20446 497.93384,348.67954 499.02664,347.53393 500.21404,346.82485 501.2416,345.8184 502.17426,344.89148 504.8737,343.46404 506.82648,340.77485 509.0783,338.69265 513.54288,334.12173 517.12012,328.73758 520.47709,323.33417 521.1928,300.55021 523.83384,277.80532 523.02239,254.99001 522.77184,248.04226 521.6053,241.00977 518.0678,234.95794 513.01592,225.19112 503.9366,217.97617 494.11092,213.34233 484.64326,208.79563 474.02583,207.60088 463.61592,207.69799 z"
       inkscape:connector-curvature="0"
       id="path3033"
       style="fill:#d0cf6e;stroke:none" />
  </g>
</svg>
