<?xml version="1.0" encoding="UTF-8" standalone="no"?>
<!-- Created with Inkscape (http://www.inkscape.org/) -->

<svg
   xmlns:dc="http://purl.org/dc/elements/1.1/"
   xmlns:cc="http://creativecommons.org/ns#"
   xmlns:rdf="http://www.w3.org/1999/02/22-rdf-syntax-ns#"
   xmlns:svg="http://www.w3.org/2000/svg"
   xmlns="http://www.w3.org/2000/svg"
   xmlns:xlink="http://www.w3.org/1999/xlink"
   xmlns:inkscape="http://www.inkscape.org/namespaces/inkscape"
   version="1.1"
   width="740"
   height="520"
   id="svg2"
   style="display:inline;enable-background:new">
  <defs
     id="defs4">
    <filter
       color-interpolation-filters="sRGB"
       id="filter3050">
      <feBlend
         in2="BackgroundImage"
         mode="lighten"
         id="feBlend3052" />
    </filter>
  </defs>
  <metadata
     id="metadata7">
    <rdf:RDF>
      <cc:Work
         rdf:about="">
        <dc:format>image/svg+xml</dc:format>
        <dc:type
           rdf:resource="http://purl.org/dc/dcmitype/StillImage" />
        <dc:title />
      </cc:Work>
    </rdf:RDF>
  </metadata>
  <g
     id="g5442"
     style="display:none">
    <image
       xlink:href="pngs/coronal-0395.png"
       id="image5444"
       height="520"
       width="740"
       y="0"
       x="0" />
  </g>
  <g
     id="g5450"
     style="display:inline">
    <path
       d="M 436.44058,242.69857 C 435.04386,234.79215 437.73069,226.78346 436.63381,218.81651 437.50147,213.47363 437.40222,203.31643 439.94695,200.0356 440.93492,198.76184 446.07544,201.62449 448.17548,201.85973 458.77754,205.34527 469.59875,208.78715 479.48582,214.09797 486.49802,223.07021 491.68765,233.5758 493.44224,244.87823 496.92497,255.38925 499.10234,266.27855 500.44353,277.24888 499.36196,275.20223 499.88456,272.85791 500.00362,270.67741"
       inkscape:connector-curvature="0"
       id="path5452"
       style="fill:none;stroke:#0000e9;stroke-width:1;stroke-miterlimit:4;stroke-opacity:1;stroke-dasharray:none;stroke-dashoffset:0" />
    <path
       d="M 546.6351,250.15959 C 526.19253,236.72653 502.15426,220.7542 480.10762,215.34147"
       inkscape:connector-curvature="0"
       id="path5456"
       style="fill:none;stroke:#0000e9;stroke-width:1;stroke-miterlimit:4;stroke-opacity:1;stroke-dasharray:none;stroke-dashoffset:0" />
    <path
       d="M 386.84481,263.83814 C 402.10475,240.86225 413.66595,187.51105 440.21799,200.61959"
       inkscape:connector-curvature="0"
       id="path5458"
       style="fill:none;stroke:#0000e9;stroke-width:1;stroke-miterlimit:4;stroke-opacity:1;stroke-dasharray:none;stroke-dashoffset:0" />
    <path
       d="M 384.3578,114.61763 C 398.36477,139.15929 419.05454,168.83144 426.63694,199.79767 410.52626,198.02562 384.79347,190.65074 368.814,186.74088"
       inkscape:connector-curvature="0"
       id="path5460"
       style="fill:none;stroke:#0000e9;stroke-width:1;stroke-miterlimit:4;stroke-opacity:1;stroke-dasharray:none;stroke-dashoffset:0" />
    <path
       d="M 516.16925,283.11246 C 540.53511,267.82768 555.93156,240.77483 561.78398,213.12109 565.72558,181.81467 544.55585,154.24804 520.81465,136.42221 494.96694,116.64665 463.85029,102.91869 431.39303,99.34652 407.69599,99.33386 382.15002,110.00829 370.05751,131.32129 370.18217,169.55251 369.8066,207.79984 370.24813,246.02088 370.08695,264.08379 390.67898,268.33939 401.36493,257.07432 413.51785,250.61597 425.73828,238.90912 441.07886,243.54319 452.96568,247.014 465.21359,250.33791 475.8903,256.75638 489.18607,265.21818 499.64589,278.53699 513.97411,284.78252 L 516.16925,283.11248 z"
       inkscape:connector-curvature="0"
       id="path5462"
       style="fill:none;stroke:#0000e9;stroke-width:1;stroke-miterlimit:4;stroke-opacity:1;stroke-dasharray:none;stroke-dashoffset:0" />
    <path
       d="M 430.37505,99.504591 C 437.4942,99.933971 444.51394,101.43418 451.45948,103.00529 478.80448,109.67051 504.41435,122.99702 526.12155,140.8461 539.26529,151.93209 550.89668,165.40316 557.32212,181.53751 561.94826,193.07206 563.73322,206.0887 560.46192,218.22251 557.60494,229.327 553.2108,240.12674 547.40309,249.98687 546.297,250.3326 545.40819,248.91504 544.39427,248.54429 528.60541,238.32819 512.84769,227.88047 495.51468,220.43856 490.88227,218.41076 486.03722,216.91805 481.20902,215.43351 480.05501,214.8511 479.29587,213.75638 478.04758,213.28274 468.3353,208.15735 457.73222,205.02629 447.35635,201.46791 445.08406,200.89101 442.89729,199.70904 440.54185,199.65438 438.78529,200.417 437.08983,199.03804 435.33946,198.86057 432.58216,198.25478 429.70272,198.50258 427.02963,199.3109 425.99048,198.71266 426.25552,197.07221 425.74231,196.06248 421.50045,180.93996 414.63894,166.70909 407.03,153.01232 399.92433,140.28693 392.17111,127.9267 384.96795,115.26312 384.74579,114.12637 386.31224,113.67721 386.98757,113.03055 397.664,105.78488 410.16691,101.17578 423.05099,99.941681 425.48131,99.699109 427.92874,99.470824 430.37505,99.504591 z"
       inkscape:connector-curvature="0"
       id="path5910"
       style="fill:#7cccd0;stroke:none;display:inline" />
    <path
       d="M 384.68631,115.48294 C 397.57824,137.64041 411.87332,159.21463 421.20677,183.18086 423.18037,188.41131 425.05525,193.75099 426.25402,199.19152 425.63582,200.08149 424.17592,199.10552 423.21027,199.20182 406.60019,196.64943 390.39457,192.00762 374.11448,187.96321 372.96861,187.44843 371.32664,187.67015 370.46654,186.70542 369.97266,182.60493 370.29379,178.42791 370.17115,174.29919 370.15685,160.04736 370.16715,145.79553 370.16415,131.5437 373.65789,125.36034 378.41288,119.85334 383.95115,115.38674 384.24281,115.22988 384.44117,115.27303 384.68618,115.48294 z"
       inkscape:connector-curvature="0"
       id="path5912"
       style="fill:#a76986;stroke:none;display:inline" />
    <path
       d="M 371.11226,187.47483 C 383.98908,190.74136 396.89652,194.03485 409.86503,196.97929 414.53829,198.0163 419.25837,198.7623 423.95211,199.63377 424.97882,200.24038 423.67709,201.10642 423.08656,201.43356 416.85057,205.85102 412.6177,212.50447 408.9336,219.12323 402.44492,231.27132 397.32392,244.13382 390.97251,256.37802 389.73017,258.64762 388.64637,261.11673 387.02879,263.10753 382.07679,263.23146 377.09207,260.99612 373.95622,257.13798 371.61041,254.44007 370.49821,250.87842 370.54897,247.32152 370.06745,229.31991 370.21152,211.30687 370.19583,193.30015 370.37547,191.4428 369.92134,189.40362 370.59019,187.64657 370.71938,187.51011 370.91621,187.43481 371.11226,187.47483 z"
       inkscape:connector-curvature="0"
       id="path5914"
       style="fill:#a78875;stroke:none;display:inline" />
    <path
       d="M 432.4565,198.8163 C 434.78422,198.8854 437.26513,199.23418 439.25039,200.46497 438.41335,203.25648 437.84241,206.14949 437.51643,209.08232 436.6458,215.16022 436.72114,221.3063 436.51944,227.43419 436.17613,232.26232 435.88559,237.10081 436.12479,241.94274 435.54854,242.96911 433.96643,242.25113 432.93058,242.47128 424.09012,242.83325 416.44757,247.81974 409.11759,252.30524 405.51977,254.57383 401.70946,256.4787 398.52826,259.30185 395.60253,261.45138 392.03179,262.83714 388.41642,263.07318 387.33147,262.47579 388.77123,261.29822 389.0093,260.56413 396.09972,247.85974 401.34042,234.2177 408.07714,221.31899 411.98915,214.17914 416.16701,206.76527 422.90401,201.90724 424.16536,201.0042 425.62144,200.23154 427.06398,199.79863 428.59609,198.88549 430.71314,198.87528 432.4565,198.8163 z"
       inkscape:connector-curvature="0"
       id="path5916"
       style="fill:#a9a2da;stroke:none;display:inline" />
    <path
       d="M 482.43178,216.18915 C 487.34247,217.35825 492.04699,219.33747 496.70651,221.25194 514.374,229.05616 530.50056,239.79824 546.63371,250.32348 547.09963,251.37234 545.7695,252.34197 545.41782,253.27047 538.1594,264.66269 528.67391,274.66754 517.40418,282.13592 516.29806,282.8179 515.27857,283.69081 514.21675,284.3891 512.34268,284.3005 510.78341,282.89203 509.11384,282.1478 506.0852,280.35914 503.11934,278.38197 500.43625,276.13421 499.87821,274.42378 500.23532,272.52315 499.94202,270.79445 499.04272,269.61588 499.38468,267.95524 498.92534,266.59035 497.71033,259.35725 495.87928,252.24851 493.73191,245.23335 492.63356,239.91708 491.18488,234.64619 489.01272,229.63955 487.13118,225.10192 484.44023,220.99516 481.77918,216.88297 481.67928,216.46949 482.03061,216.12464 482.43178,216.18915 z"
       inkscape:connector-curvature="0"
       id="path5920"
       style="fill:#6965d0;stroke:none;display:inline" />
    <path
       d="M 441.31483,199.86523 C 444.27261,200.59573 447.10607,201.76206 450.05222,202.56753 457.43308,205.01848 464.84776,207.48997 471.98621,210.60209 474.56884,211.84955 477.27243,212.9434 479.6818,214.49771 482.32284,218.07527 484.87802,221.72772 486.86559,225.72059 489.90737,231.57526 492.07017,237.87798 493.29605,244.36223 494.69537,249.40502 496.27432,254.41422 497.33704,259.56695 498.28963,264.19904 499.36081,268.84578 499.70519,273.57033 499.76119,274.18877 499.33853,275.27006 498.57325,274.72811 490.78906,268.63338 483.74035,261.48672 475.30394,256.33285 464.72666,250.18348 452.87923,246.84249 441.17479,243.52475 439.73395,243.09331 438.21015,242.81202 436.7502,242.49655 436.04792,241.64561 436.32553,240.30134 436.21601,239.23498 436.11811,235.12382 436.54339,231.0305 436.79236,226.94393 436.9133,221.64048 436.82186,216.32321 437.51477,211.05208 438.0203,207.32223 438.08902,203.32716 440.07952,200.02029 440.39672,199.58896 440.88313,199.84343 441.31483,199.86523 z"
       inkscape:connector-curvature="0"
       id="path2999"
       style="fill:#84cdcd;stroke:none" />
  </g>
</svg>
