<?xml version="1.0" encoding="UTF-8" standalone="no"?>
<!-- Created with Inkscape (http://www.inkscape.org/) -->

<svg
   xmlns:dc="http://purl.org/dc/elements/1.1/"
   xmlns:cc="http://creativecommons.org/ns#"
   xmlns:rdf="http://www.w3.org/1999/02/22-rdf-syntax-ns#"
   xmlns:svg="http://www.w3.org/2000/svg"
   xmlns="http://www.w3.org/2000/svg"
   xmlns:xlink="http://www.w3.org/1999/xlink"
   xmlns:inkscape="http://www.inkscape.org/namespaces/inkscape"
   version="1.1"
   width="740"
   height="520"
   id="svg2"
   style="display:inline;enable-background:new">
  <defs
     id="defs4">
    <filter
       color-interpolation-filters="sRGB"
       id="filter3050">
      <feBlend
         in2="BackgroundImage"
         mode="lighten"
         id="feBlend3052" />
    </filter>
  </defs>
  <metadata
     id="metadata7">
    <rdf:RDF>
      <cc:Work
         rdf:about="">
        <dc:format>image/svg+xml</dc:format>
        <dc:type
           rdf:resource="http://purl.org/dc/dcmitype/StillImage" />
        <dc:title />
      </cc:Work>
    </rdf:RDF>
  </metadata>
  <g
     id="g40"
     style="display:none">
    <image
       xlink:href="pngs/coronal-0901.png"
       id="image42"
       height="520"
       width="740"
       y="0"
       x="0" />
  </g>
  <g
     id="g48"
     style="display:inline">
    <path
       d="M 483.21639,98.45208 C 493.13652,90.050158 507.51676,90.596455 519.76414,91.252949 531.03152,92.631364 540.9777,98.379687 551.64211,101.86326 570.01172,109.61645 585.96651,121.75045 600.88415,134.77206 612.32053,143.96506 624.15707,152.63764 634.19085,163.42725 646.05557,174.56192 654.11507,189.18225 657.75275,205.00836 666.86741,229.19919 673.51105,256.63424 665.22354,282.0146 662.41953,291.55487 652.21022,295.31284 648.99917,304.63192 642.40118,314.26315 631.08803,318.81927 619.85578,313.63836 612.43732,314.28664 601.84276,325.67409 593.94416,315.56189 588.07208,304.78616 585.1956,292.45687 580.02543,281.25547 571.62087,262.24028 561.75054,243.41609 558.78612,222.58124 556.50328,210.69199 550.36836,200.08578 544.55473,189.65387 537.51607,178.34675 529.70155,167.69771 520.73983,157.83533 507.75473,143.4963 499.14522,126.01002 487.73166,110.50943 485.79649,107.44637 484.25424,102.0684 482.81445,98.740864"
       inkscape:connector-curvature="0"
       id="path50"
       style="fill:none;stroke:#e20000;stroke-opacity:1" />
    <path
       d="M 532.95655,172.44058 C 585.07053,132.20175 570.58947,185.2217 551.60912,198.55417"
       inkscape:connector-curvature="0"
       id="path52"
       style="fill:none;stroke:#0000e9;stroke-width:1;stroke-miterlimit:4;stroke-opacity:1;stroke-dasharray:none;stroke-dashoffset:0" />
    <path
       d="M 567.15292,172.44058 C 584.4913,153.49024 625.04347,173.5318 650.31684,185.9995"
       inkscape:connector-curvature="0"
       id="path54"
       style="fill:none;stroke:#0000e9;stroke-width:1;stroke-miterlimit:4;stroke-opacity:1;stroke-dasharray:none;stroke-dashoffset:0" />
    <path
       d="M 568.65397,161.35573 C 591.45155,156.06566 617.32663,159.21574 639.68456,169.45144"
       inkscape:connector-curvature="0"
       id="path56"
       style="fill:none;stroke:#0000e9;stroke-width:1;stroke-miterlimit:4;stroke-opacity:1;stroke-dasharray:none;stroke-dashoffset:0" />
    <path
       d="M 564.3017,157.59396 C 579.60521,145.05303 603.01901,146.83528 624.35411,154.40977"
       inkscape:connector-curvature="0"
       id="path58"
       style="fill:none;stroke:#0000e9;stroke-width:1;stroke-miterlimit:4;stroke-opacity:1;stroke-dasharray:none;stroke-dashoffset:0" />
    <path
       d="M 562.19882,157.97462 C 567.51551,157.89572 569.4539,163.95877 568.49406,168.35011 566.72014,180.16016 560.21311,191.57112 550.6964,198.66052 547.99316,197.58015 547.85321,193.55919 545.87782,191.54923 542.93114,186.49444 539.21583,181.92944 536.20181,176.93806 534.21832,175.28248 533.00495,171.56723 536.16291,170.31251 544.08894,165.21818 552.40661,158.37219 562.19878,157.97462 z"
       inkscape:connector-curvature="0"
       id="path3004"
       style="fill:#7786bc;stroke:none" />
    <path
       d="M 589.08637,165.07544 C 606.80883,165.75388 623.10296,173.75495 639.02839,180.8057 643.05174,182.75564 647.22526,184.57196 651.04886,186.83787 655.70319,196.41601 657.88988,206.91054 661.53969,216.86468 668.09719,237.26896 671.77871,259.79981 665.33732,280.74333 662.46955,290.35885 652.74197,295.47116 648.65021,304.39807 643.55749,312.0521 633.98858,317.24189 624.69763,314.92573 622.13401,314.30804 619.44331,312.79463 616.83897,314.18383 610.97757,316.08318 605.11596,320.87689 598.64865,318.78637 593.60515,316.81583 592.23325,310.85894 590.06224,306.43953 585.10412,293.12788 579.98416,279.9273 573.91964,267.08309 567.30376,252.47042 561.29464,237.4079 558.70964,221.48741 557.13835,213.62102 553.39938,206.48594 550.34265,199.16168 550.43325,197.75359 552.52256,198.96254 553.09043,197.60918 560.80683,191.13798 565.55739,181.79776 568.6154,172.26089 570.73639,168.26132 575.7176,167.00789 579.74391,165.81734 582.80791,165.16618 585.96085,165.00437 589.08637,165.07544 z"
       inkscape:connector-curvature="0"
       id="path6017"
       style="fill:#9681a3;stroke:none" />
    <path
       d="M 593.15224,158.96437 C 609.10602,159.27457 624.99305,162.91999 639.48672,169.56394 641.94178,171.43901 643.44522,174.28224 645.26913,176.73935 646.91953,179.35467 648.87083,181.84779 650.05881,184.71109 649.81123,185.97584 648.3781,184.82539 647.70965,184.56189 631.85893,176.92509 615.77891,169.04953 598.40738,165.6827 589.88308,164.12419 580.49222,163.67334 572.66753,167.95649 571.47819,168.46129 570.53361,169.6458 569.25341,169.77689 568.52662,168.85582 569.18661,167.45964 569.01298,166.34904 569.06988,164.83975 568.74125,163.34484 568.46342,161.9045 569.17288,160.89749 570.77104,161.23735 571.81894,160.82736 578.84548,159.45308 585.99433,158.84477 593.15224,158.96437 z"
       inkscape:connector-curvature="0"
       id="path6020"
       style="fill:#9b7d71;stroke:none" />
    <path
       d="M 594.18266,148.63271 C 604.28236,148.7931 614.24556,151.03618 623.75567,154.33436 625.53507,154.56708 626.59399,156.35981 627.94587,157.38627 631.17402,160.59896 634.51071,163.73357 637.47397,167.19398 637.74997,168.36409 636.17994,168.02634 635.65356,167.57867 619.72324,161.07951 602.36888,157.95511 585.13637,158.96903 579.61919,159.21076 574.13837,160.02365 568.75194,161.18321 567.57116,160.93693 567.15729,159.48593 566.17589,158.88194 565.7487,158.41874 564.45607,158.1745 565.07678,157.29509 569.83408,153.29129 575.85181,150.98042 581.88903,149.6892 585.92628,148.85571 590.06408,148.56592 594.18266,148.63271 z"
       inkscape:connector-curvature="0"
       id="path6022"
       style="fill:#c1dfbe;stroke:none" />
    <path
       d="M 511.6599,91.066678 C 518.26971,91.053188 524.92564,91.85791 531.13589,94.176488 538.33796,96.75832 545.38093,99.772262 552.5547,102.43199 569.8623,109.97757 585.12352,121.36197 599.35567,133.6099 606.94948,139.91816 614.87348,145.87974 622.32682,152.32848 622.69705,153.43439 621.1643,153.27815 620.5545,152.99482 613.11323,150.76301 605.45049,149.00051 597.67267,148.52638 591.59475,148.29047 585.45399,148.36278 579.56446,149.99973 574.00913,151.35353 568.71752,153.81548 564.31427,157.46683 561.51468,157.68782 558.57655,157.60593 555.91293,158.57281 548.25195,161.17408 541.6547,166.00186 535.13471,170.64037 534.33232,170.9844 533.52955,172.42078 532.598,171.79651 528.36286,166.58973 524.17375,161.3833 519.68394,156.39275 507.70861,142.60076 499.20303,126.25231 488.60581,111.48253 486.06984,107.76932 484.81397,103.40298 483.14479,99.268807 483.50875,97.99722 485.04881,97.356978 486.07805,96.575981 493.5792,91.660878 502.93622,91.008216 511.6599,91.066678 z"
       inkscape:connector-curvature="0"
       id="path6024"
       style="fill:#a6a5bc;stroke:none" />
  </g>
</svg>
