<?xml version="1.0" encoding="UTF-8" standalone="no"?>
<!-- Created with Inkscape (http://www.inkscape.org/) -->

<svg
   xmlns:dc="http://purl.org/dc/elements/1.1/"
   xmlns:cc="http://creativecommons.org/ns#"
   xmlns:rdf="http://www.w3.org/1999/02/22-rdf-syntax-ns#"
   xmlns:svg="http://www.w3.org/2000/svg"
   xmlns="http://www.w3.org/2000/svg"
   xmlns:xlink="http://www.w3.org/1999/xlink"
   xmlns:inkscape="http://www.inkscape.org/namespaces/inkscape"
   version="1.1"
   width="740"
   height="520"
   id="svg2"
   style="enable-background:new">
  <defs
     id="defs4">
    <filter
       color-interpolation-filters="sRGB"
       id="filter3050">
      <feBlend
         in2="BackgroundImage"
         mode="lighten"
         id="feBlend3052" />
    </filter>
  </defs>
  <metadata
     id="metadata7">
    <rdf:RDF>
      <cc:Work
         rdf:about="">
        <dc:format>image/svg+xml</dc:format>
        <dc:type
           rdf:resource="http://purl.org/dc/dcmitype/StillImage" />
        <dc:title />
      </cc:Work>
    </rdf:RDF>
  </metadata>
  <g
     id="layer1"
     style="display:none">
    <image
       xlink:href="pngs/coronal-0608.png"
       id="MRISLICE"
       height="520"
       width="740"
       y="0"
       x="0" />
  </g>
  <g
     id="layer3"
     style="display:inline">
    <path
       d="M 374.05592,173.55997 373.67301,332.85262 C 381.96239,360.89357 380.07832,387.91718 371.80775,414.30214 383.94923,420.27779 400.12865,418.17756 417.19566,414.30214 472.92787,406.19822 468.80108,430.8822 544.03308,446.63325 568.30392,450.43127 587.53319,439.10459 601.85603,413.05864 617.77461,378.00967 637.5821,352.0348 658.43547,328.50035 694.89532,301.47421 681.00881,232.92281 658.43547,176.17109 610.67598,78.055843 493.3272,59.943192 447.66151,53.685929 400.51514,51.448886 380.07287,59.893488 374.29476,74.203748 L 374.09556,157.07232"
       inkscape:connector-curvature="0"
       id="path2990"
       style="fill:none;stroke:#0000e9;stroke-width:1;stroke-miterlimit:4;stroke-opacity:1;stroke-dasharray:none;stroke-dashoffset:0" />
    <path
       d="M 411.94748,326.1165 C 411.13531,324.81177 409.41371,325.54083 408.2005,325.09202 406.53771,324.78691 404.85522,324.00395 403.14581,324.39596 401.48312,325.05991 400.35012,326.52598 398.928,327.54798 396.56801,329.97382 395.91766,333.83885 397.28857,336.92407 398.40529,340.06914 401.0784,342.48124 404.16259,343.64904 405.62352,344.27276 407.11931,344.8983 408.69113,345.15686 410.59683,345.15186 412.20083,343.96798 413.81631,343.11377 415.60724,341.78061 416.91455,339.85756 417.78611,337.82483 418.30845,336.36661 418.29888,334.71178 417.5814,333.31973 416.38731,330.46229 414.05833,328.30147 411.94748,326.1165 z"
       inkscape:connector-curvature="0"
       id="path2992"
       style="fill:none;stroke:#0000e9;stroke-width:1;stroke-miterlimit:4;stroke-opacity:1;stroke-dasharray:none;stroke-dashoffset:0" />
    <path
       d="M 441.84335,318.20289 C 441.25716,317.6167 440.67096,317.0305 440.08477,316.44431 436.73405,315.59173 434.72078,312.07585 431.20224,311.63983 427.8131,311.46549 424.2126,311.39852 421.12291,313.01738 418.76954,314.80978 418.01125,318.20816 419.13771,320.90317 420.35505,325.1707 422.94758,329.30362 427.03609,331.3078 430.04282,332.84873 433.476,333.51497 436.84158,333.22676 438.39796,333.31606 439.88915,332.87976 441.38304,332.50616 443.13789,332.35615 444.84184,331.51061 446.11161,330.29374 447.93014,328.45217 447.62076,325.42755 446.26271,323.41225 445.05675,321.46142 443.1777,320.05488 441.84335,318.20289 z"
       inkscape:connector-curvature="0"
       id="path2994"
       style="fill:none;stroke:#0000e9;stroke-width:1;stroke-miterlimit:4;stroke-opacity:1;stroke-dasharray:none;stroke-dashoffset:0" />
    <path
       d="M 495.04041,382.83072 C 488.63385,380.35368 481.99755,375.6339 474.85996,378.11494 469.43429,380.29077 464.37629,385.11942 463.36887,391.07101 463.73525,396.60135 468.05194,401.57954 472.85257,404.00468 478.63647,406.62531 484.9501,404.9405 490.56883,402.82719 494.92189,401.95777 499.52135,399.31849 499.5545,394.31882 500.17462,390.02624 498.81941,385.30185 495.04041,382.83072 z"
       inkscape:connector-curvature="0"
       id="path2998"
       style="fill:none;stroke:#0000e9;stroke-width:1;stroke-miterlimit:4;stroke-opacity:1;stroke-dasharray:none;stroke-dashoffset:0" />
    <path
       d="M 445.36051,331.83189 C 455.08366,348.0478 456.32648,352.08072 466.02383,364.80528"
       inkscape:connector-curvature="0"
       id="path3000"
       style="fill:none;stroke:#0000e9;stroke-width:1;stroke-miterlimit:4;stroke-opacity:1;stroke-dasharray:none;stroke-dashoffset:0" />
    <path
       d="M 352.37557,156.85313 C 356.33171,157.16194 382.59468,157.16252 385.95251,157.42159 405.98703,158.96735 420.33993,130.71675 425.35666,133.09074 426.7008,128.61368 538.79032,160.90629 568.0215,194.22301 599.76863,226.60611 626.3083,271.39562 601.50133,318.77185 594.68445,331.7907 585.9686,346.32383 570.43954,359.52959"
       inkscape:connector-curvature="0"
       id="path3004"
       style="fill:none;stroke:#0000e9;stroke-width:1;stroke-miterlimit:4;stroke-opacity:1;stroke-dasharray:none;stroke-dashoffset:0" />
    <path
       d="M 375.01729,173.99929 C 401.16125,174.35489 421.97501,154.49182 447.23096,152.72625 474.93445,154.77706 501.59134,165.12224 527.05926,175.69659 566.66083,194.27229 599.70681,230.54855 607.3983,274.32841 607.89372,289.47257 604.61142,305.12658 597.89132,319.06962 594.63147,325.83326 589.85547,331.66301 585.7237,337.89919 581.80146,343.81912 576.61027,350.3515 568.87456,354.13551 561.67442,360.70893 517.73427,356.02937 542.14687,367.34243 552.0534,367.91054 563.02333,365.21252 570.43954,358.87006"
       inkscape:connector-curvature="0"
       id="path3006"
       style="fill:none;stroke:#0000e9;stroke-width:1;stroke-miterlimit:4;stroke-opacity:1;stroke-dasharray:none;stroke-dashoffset:0" />
    <path
       d="M 506.03154,250.49754 C 525.09119,272.59065 549.63819,291.50687 525.81557,338.42656 533.86128,352.75116 552.0465,351.39918 560.10789,356.01237"
       inkscape:connector-curvature="0"
       id="path3023"
       style="fill:none;stroke:#0000e9;stroke-width:1;stroke-miterlimit:4;stroke-opacity:1;stroke-dasharray:none;stroke-dashoffset:0" />
    <path
       d="M 526.69486,338.42656 C 510.98465,380.57351 542.53578,384.35379 559.2286,365.68456"
       inkscape:connector-curvature="0"
       id="path3025"
       style="fill:none;stroke:#0000e9;stroke-width:1;stroke-miterlimit:4;stroke-opacity:1;stroke-dasharray:none;stroke-dashoffset:0" />
    <path
       d="M 458.53599,236.73723 C 453.85706,236.81633 450.26343,247.05738 448.41416,252.80231 444.57029,267.39991 434.83133,284.53759 424.7198,300.62517 421.62173,313.03147 437.81811,307.07422 444.58512,309.4839 447.14063,310.00617 456.67259,312.1627 458.98951,313.3668"
       inkscape:connector-curvature="0"
       id="path3029"
       style="fill:none;stroke:#0000e9;stroke-width:1;stroke-miterlimit:4;stroke-opacity:1;stroke-dasharray:none;stroke-dashoffset:0" />
    <path
       d="M 506.47118,250.93719 C 458.98697,300.7769 445.77344,336.54138 520.97947,353.3745"
       inkscape:connector-curvature="0"
       id="path3031"
       style="fill:none;stroke:#0000e9;stroke-width:1;stroke-miterlimit:4;stroke-opacity:1;stroke-dasharray:none;stroke-dashoffset:0" />
    <path
       d="M 507.35047,250.49754 C 511.84205,244.81921 506.02432,239.66763 499.79244,232.51651 496.01568,227.15128 497.0917,224.37345 489.2837,231.57717 M 493.32509,164.73883 C 494.84653,169.18195 500.2169,181.97454 500.17381,192.64741 500.14731,199.20473 496.33566,203.80073 493.48419,208.60311 488.47905,220.67886 490.88646,235.02863 483.2518,246.14578 478.43882,258.1477 474.30451,270.53799 467.30865,281.50793 461.39221,292.90824 456.14109,306.50645 460.66753,319.29906 461.73704,323.28158 465.2405,326.65701 469.54099,326.55615"
       inkscape:connector-curvature="0"
       id="path3038"
       style="fill:none;stroke:#0000e9;stroke-width:1;stroke-miterlimit:4;stroke-opacity:1;stroke-dasharray:none;stroke-dashoffset:0" />
    <path
       d="M 456.79128,312.04786 C 452.73364,316.44403 448.851,321.26842 442.28299,319.52182"
       inkscape:connector-curvature="0"
       id="path3045"
       style="fill:none;stroke:#0000e9;stroke-width:1;stroke-miterlimit:4;stroke-opacity:1;stroke-dasharray:none;stroke-dashoffset:0" />
    <path
       d="M 403.90413,324.60748 C 398.93988,326.10721 395.3099,332.03368 397.68041,337.02745 399.71438,341.53835 404.714,344.7226 409.63326,344.68002 413.66506,343.71808 417.23535,340.02321 417.90408,335.95582 417.34623,331.79054 414.12685,328.31797 410.89724,325.8852 408.72078,325.09135 406.22281,324.73145 403.90413,324.60748 z"
       inkscape:connector-curvature="0"
       id="path3052"
       style="fill:#bfb195;stroke:none" />
    <path
       d="M 506.3964,251.9836 C 502.11984,255.30547 498.83974,259.89632 495.11421,263.87166 484.6822,276.31408 474.1229,289.35555 469.31509,305.11196 466.30133,314.55194 468.43613,325.62945 475.60626,332.64918 485.99693,342.92248 500.37957,347.71848 514.19972,351.44018 516.71604,351.99007 519.29691,352.84646 521.67407,353.54162 523.45998,351.98347 522.95673,348.9823 523.8918,346.92122 524.69854,343.95692 525.80984,340.96957 526.01557,337.94796 529.80907,328.72233 534.05942,319.37809 534.96213,309.24956 536.14392,298.77512 534.02915,287.98697 528.51411,278.96802 522.75933,268.99291 514.44927,260.70802 507.04213,252.02482 506.83494,251.95402 506.61125,251.93092 506.3964,251.98362 z"
       inkscape:connector-curvature="0"
       id="path3054"
       style="fill:#78a9c2;stroke:none" />
    <path
       d="M 428.41435,311.70935 C 424.81336,311.71735 419.89822,312.62992 419.2505,316.91639 418.68366,322.22555 421.96504,327.55275 426.27108,330.43548 431.13851,333.4413 437.48693,333.45056 442.81273,331.80937 445.38822,330.94088 447.79452,328.52813 446.79701,325.58565 445.8387,322.02921 442.53968,319.69298 440.1886,317.05378 436.3819,315.12805 433.04707,311.32542 428.41435,311.70935 z"
       inkscape:connector-curvature="0"
       id="path3060"
       style="fill:#81df9f;stroke:none" />
    <path
       d="M 464.88846,367.09317 452.01377,412.43688 468.17932,401.24535"
       inkscape:connector-curvature="0"
       id="path3021"
       style="fill:none;stroke:#0000e9;stroke-width:1;stroke-miterlimit:4;stroke-opacity:1;stroke-dasharray:none;stroke-dashoffset:0" />
    <path
       d="M 501.52119,393.2039 C 505.14657,371.87714 516.44124,367.08229 509.84456,358.54042 502.15115,353.29506 469.11496,356.26089 463.57882,369.13275"
       inkscape:connector-curvature="0"
       id="path3024"
       style="fill:none;stroke:#0000e9;stroke-width:1.30844009;stroke-miterlimit:4;stroke-opacity:1;stroke-dasharray:none;stroke-dashoffset:0" />
    <path
       d="M 521.65,358.34446 511.70196,362.69672"
       inkscape:connector-curvature="0"
       id="path3026"
       style="fill:#b2b789;fill-opacity:1;stroke:#0000e9;stroke-width:1;stroke-miterlimit:4;stroke-opacity:1;stroke-dasharray:none;stroke-dashoffset:0" />
    <path
       d="M 494.23007,356.98674 C 485.05113,356.81103 475.56773,359.02998 468.01623,364.37828 464.27374,367.13777 464.35198,372.35529 462.67006,376.33956 459.44544,387.43327 455.85593,398.47299 453.2469,409.71668 453.81123,411.56496 455.79162,409.25661 456.7014,408.85076 460.32569,406.23401 464.30465,403.90578 467.64528,401.01995 465.40299,397.44627 461.99257,393.23367 463.8396,388.72363 466.27618,382.54714 472.42981,377.31343 479.24092,377.21042 485.20879,377.94745 491.07363,380.41657 496.08482,383.5578 498.60144,385.12126 498.75727,388.34223 500.37136,390.50968 502.0232,390.44218 501.94409,387.70198 502.68442,386.53533 504.71633,379.2975 508.65386,372.84019 511.03275,365.75217 512.3436,362.00885 509.70495,357.82724 505.79823,357.31648 501.97988,356.75917 498.07738,357.05963 494.23007,356.98674 z"
       inkscape:connector-curvature="0"
       id="path3030"
       style="fill:#d5be6c;stroke:none" />
    <path
       d="M 457.09379,313.06345 C 453.32819,314.86006 451.08741,319.4301 446.56979,319.82299 444.94576,319.43029 444.42552,321.12077 445.67676,322.10365 447.90279,324.68753 448.02377,328.73545 445.70426,331.41863 448.60132,337.47768 452.45364,343.28206 455.80873,349.18909 458.8855,354.37388 462.30779,359.34713 465.92793,364.15846 468.04986,364.17046 469.63384,361.79771 471.67149,361.1304 482.08949,355.87243 494.40374,355.36834 505.89442,356.5471 508.65418,357.16091 511.26161,358.81194 512.02198,361.72667 514.25581,361.99883 516.68351,359.87177 518.98207,359.24616 521.4999,358.7527 523.07361,357.24835 522.35364,354.62365 522.37184,352.57183 519.67135,353.6699 518.44852,352.93457 505.31389,349.96043 492.09305,345.63111 480.87587,337.98583 476.80524,334.98053 473.58129,331.1236 470.46177,327.14583 469.28453,326.2053 467.55459,327.21913 466.29888,326.10168 461.52958,324.24499 460.16503,318.81507 459.01726,314.29995 458.71676,313.52252 457.99273,312.83604 457.09381,313.06345 z"
       inkscape:connector-curvature="0"
       id="path3032"
       style="fill:#b2b789;stroke:none" />
    <path
       d="M 548.23747,446.57926 C 550.80386,429.16503 542.53702,393.33432 556.15108,394.70114 582.58571,390.84293 575.30363,420.40612 582.52979,435.58814"
       inkscape:connector-curvature="0"
       id="path3020"
       style="fill:none;stroke:#0000e9;stroke-width:1;stroke-miterlimit:4;stroke-opacity:1;stroke-dasharray:none;stroke-dashoffset:0" />
    <path
       d="M 612.18424,276.87625 C 619.02226,269.9455 626.79234,284.65397 627.13217,292.26383 624.62934,315.90212 614.26901,330.48363 602.0724,319.52182"
       inkscape:connector-curvature="0"
       id="path3027"
       style="fill:none;stroke:#0000e9;stroke-width:1;stroke-miterlimit:4;stroke-opacity:1;stroke-dasharray:none;stroke-dashoffset:0" />
    <path
       d="M 626.01146,292.26383 C 620.05193,287.33074 614.97896,288.60359 610.18424,291.82418"
       inkscape:connector-curvature="0"
       id="path3033"
       style="fill:none;stroke:#0000e9;stroke-width:1;stroke-miterlimit:4;stroke-opacity:1;stroke-dasharray:none;stroke-dashoffset:0" />
    <path
       d="M 615.76619,321.28041 C 613.80698,329.81092 605.58952,350.26652 593.34429,354.47361 596.92211,341.41309 586.84639,345.53554 582.35316,348.31858"
       inkscape:connector-curvature="0"
       id="path3035"
       style="fill:none;stroke:#0000e9;stroke-width:1;stroke-miterlimit:4;stroke-opacity:1;stroke-dasharray:none;stroke-dashoffset:0" />
    <path
       d="M 593.34429,354.69343 C 587.65436,366.5831 565.82652,404.64634 563.00877,382.83072 565.55965,362.12169 576.6806,358.84185 582.35316,348.5384"
       inkscape:connector-curvature="0"
       id="path3039"
       style="fill:none;stroke:#0000e9;stroke-width:1;stroke-miterlimit:4;stroke-opacity:1;stroke-dasharray:none;stroke-dashoffset:0" />
    <path
       d="M 575.49546,403.49404 C 586.54137,386.39758 595.01386,368.93348 613.74459,352.93485 631.77552,336.90489 642.50124,328.80629 619.89962,356.89166 605.48323,374.91463 590.19073,399.94655 576.8144,409.64907"
       inkscape:connector-curvature="0"
       id="path3042"
       style="fill:none;stroke:#0000e9;stroke-width:1;stroke-miterlimit:4;stroke-opacity:1;stroke-dasharray:none;stroke-dashoffset:0" />
    <path
       d="M 459.42915,386.34788 C 449.49301,368.92157 441.55029,372.42618 433.92974,379.31356 430.51717,397.82901 442.29942,405.05706 454.59306,397.77866"
       inkscape:connector-curvature="0"
       id="path3044"
       style="fill:none;stroke:#0000e9;stroke-width:1;stroke-miterlimit:4;stroke-opacity:1;stroke-dasharray:none;stroke-dashoffset:0" />
    <path
       d="M 630.85633,339.35698 C 623.68501,344.06508 617.52489,350.24579 611.05932,355.88648 596.70126,368.61653 586.94015,385.47131 577.02728,401.73163 575.47345,403.64586 575.5724,406.72288 577.34328,408.43622 579.60464,407.90155 581.02103,405.22744 582.83884,403.8062 596.42095,389.88065 606.67456,373.14602 618.76609,357.95946 623.06538,352.09329 628.14822,346.6164 631.65319,340.29122 631.81928,339.76709 631.42456,339.20828 630.85633,339.35698 z"
       inkscape:connector-curvature="0"
       id="path3051"
       style="fill:#d5be93;stroke:none" />
    <path
       d="M 553.24523,395.10947 C 547.88302,399.64101 548.65796,407.40039 548.37703,413.72567 548.40523,424.87073 549.09129,436.11097 548.76634,447.19368 559.33814,447.47478 570.28281,445.35471 579.05754,439.13547 580.85567,437.97547 583.90537,436.80361 581.73973,434.36154 578.21638,424.07027 578.50883,412.70624 574.1733,402.66718 571.85828,397.49146 566.1107,394.224 560.45816,394.95835 558.06936,395.06348 555.5795,394.74607 553.24523,395.10947 z"
       inkscape:connector-curvature="0"
       id="path3057"
       style="fill:#b9abdd;stroke:none" />
    <path
       d="M 444.73532,374.10268 C 440.38382,374.30984 436.52541,377.08358 433.73045,380.18902 433.79135,385.43665 432.98403,391.30586 436.53319,395.68651 438.70893,399.11676 442.82448,400.72786 446.78073,399.94837 449.99396,399.88177 452.79563,398.24169 455.75392,397.555 457.31899,394.09567 457.92289,390.1603 459.14743,386.53639 456.52446,381.87421 453.05313,377.05305 448.12883,374.59728 447.04473,374.20571 445.88947,374.05136 444.73532,374.10268 z"
       inkscape:connector-curvature="0"
       id="path3059"
       style="fill:#83d5b8;stroke:none" />
    <path
       d="M 374.138,173.77947 353.91432,170.92177 353.25486,156.85313"
       inkscape:connector-curvature="0"
       id="path3036"
       style="fill:none;stroke:#0000e9;stroke-width:0.93800002;stroke-linecap:round;stroke-miterlimit:4;stroke-opacity:1;stroke-dasharray:none;stroke-dashoffset:0" />
    <path
       d="M 417.81741,161.55992 C 413.93238,165.85578 412.17977,173.42698 417.19542,177.60594 424.07912,184.51538 434.19669,186.17597 442.08204,191.57418 448.35722,194.8632 455.7367,194.8281 462.30748,197.366 466.7637,199.25865 473.06294,201.09313 474.13154,206.47719 473.976,212.02783 474.03102,217.78298 472.31961,223.1284 470.78736,228.35227 465.0076,231.24586 459.86392,229.80056 452.76588,229.02095 459.79282,237.99736 460.09655,240.21156"
       inkscape:connector-curvature="0"
       id="path3047"
       style="fill:none;stroke:#0000e9;stroke-width:0.93800002;stroke-linecap:round;stroke-miterlimit:4;stroke-opacity:1;stroke-dasharray:none;stroke-dashoffset:0" />
    <path
       d="M 495.36952,227.36592 C 492.99726,228.48305 490.84208,230.21996 489.02571,232.09707 487.81751,235.07816 487.51428,238.36554 486.07563,241.28138 479.55595,254.07603 475.66853,268.12276 468.20673,280.43829 463.02468,290.06885 458.55508,300.77467 459.2399,311.94364 459.92384,316.58481 460.78913,322.00072 464.91339,324.87414 466.29678,325.55718 468.20804,326.88724 469.72225,325.94277 470.2514,324.68726 468.86076,323.41568 468.77991,322.11511 465.87551,312.60116 468.88775,302.45834 473.25977,293.91565 480.9957,278.79775 492.30981,266.06511 503.72505,253.65276 504.88685,252.34649 506.17306,251.1337 507.45483,250.06959 509.09956,247.63756 509.00902,244.39556 507.25082,242.0451 504.2636,237.54071 500.34743,233.74721 497.40624,229.18759 496.78832,228.59691 496.34751,227.37668 495.36952,227.36592 z"
       inkscape:connector-curvature="0"
       id="path3043"
       style="fill:#9de082;stroke:none" />
    <path
       d="M 460.71831,239.5898 C 458.36138,267.87729 470.16852,258.73125 483.41226,245.80732"
       inkscape:connector-curvature="0"
       id="path3050"
       style="fill:none;stroke:#0000e9;stroke-width:1;stroke-linecap:round;stroke-miterlimit:4;stroke-opacity:1;stroke-dasharray:none;stroke-dashoffset:0" />
    <path
       d="M 487.14277,233.99404 C 476.14058,231.0973 470.41399,236.62972 461.65093,242.38769"
       inkscape:connector-curvature="0"
       id="path3055"
       style="fill:none;stroke:#0000e9;stroke-width:1;stroke-linecap:round;stroke-miterlimit:4;stroke-opacity:1;stroke-dasharray:none;stroke-dashoffset:0" />
    <path
       d="M 457.93811,236.90788 C 453.73926,238.83771 452.29487,243.67397 450.5548,247.58453 447.2778,256.50631 444.62329,265.68612 440.0978,274.11179 435.6848,283.22212 430.17463,291.74964 425.14068,300.52089 424.00281,303.01106 424.43862,306.73067 427.35049,307.77419 430.85928,309.20198 434.81949,308.46674 438.51807,308.82711 444.92942,308.81061 451.13039,310.78664 457.21921,312.53819 458.29324,313.37014 459.02751,311.95279 458.84159,310.9741 458.56608,300.94816 462.1199,291.36882 466.60416,282.58484 470.74933,275.48698 474.37975,268.0933 477.38534,260.44704 478.80521,256.74515 480.55612,253.11593 481.56469,249.28463 480.99703,248.00776 479.65647,249.58244 479.04853,250.10068 475.23916,253.45077 471.19478,257.5067 465.93345,258.27089 462.63339,258.37572 460.88721,254.62258 460.71005,251.77497 460.02792,248.20053 460.49946,244.55774 460.26968,240.96869 459.80972,239.53101 459.21619,238.03079 458.28784,236.86902 L 457.97887,236.90332 457.93807,236.90832 z"
       inkscape:connector-curvature="0"
       id="path3058"
       style="fill:#8678d2;stroke:none" />
    <path
       d="M 481.11003,233.45909 C 473.5211,233.47149 467.73218,239.00194 461.47627,242.4745 460.14753,243.18097 460.91645,245.23503 460.67965,246.4576 460.83947,250.17438 460.77455,254.64764 463.74955,257.33826 466.19898,258.96798 469.0881,257.10575 471.24943,255.84217 475.62223,252.82236 479.763,249.35345 483.30559,245.40839 485.56513,242.34533 486.82985,238.61262 487.77444,234.9649 487.29923,233.5558 485.18752,233.93034 483.99535,233.5951 483.03758,233.4975 482.07324,233.43027 481.11003,233.45909 z"
       inkscape:connector-curvature="0"
       id="path3061"
       style="fill:#b667d7;stroke:none" />
    <path
       d="M 446.78737,153.14621 C 438.10233,153.42572 429.88537,156.72264 421.88814,159.82033 419.52946,160.63572 417.14842,161.84279 416.13694,164.28917 413.64775,168.42839 413.5357,174.6239 417.66217,177.80257 424.63723,184.26028 434.28289,186.36157 442.18278,191.38827 449.48816,194.87552 457.94674,195.13082 465.35701,198.4611 469.13943,200.05062 473.99157,202.48456 474.15418,207.2095 474.04939,213.09736 474.00957,219.28431 471.74489,224.75457 469.95819,228.65848 465.58396,230.53884 461.42775,230.16432 460.13954,230.55379 457.41183,229.32817 457.10157,231.00116 457.10657,233.95532 458.53662,236.77697 460.17447,239.15201 461.46782,239.43887 460.44037,240.97142 460.79622,241.84303 461.76602,242.82537 462.92706,240.91418 463.88556,240.63839 469.05268,237.28831 474.26887,233.21039 480.72118,233.2522 483.0883,232.87142 485.41819,233.76953 487.74529,233.61453 488.86315,231.97861 488.61911,229.61001 489.16588,227.70235 490.52412,219.92651 491.0623,211.69665 495.47387,204.92676 497.82294,201.16188 500.06749,197.06974 499.84031,192.47203 500.07371,183.03337 496.14411,174.25908 493.61308,165.38695 493.23817,164.41818 494.68672,162.93479 492.99066,162.80137 478.6893,158.28988 464.09036,154.19737 449.0705,153.16622 448.30971,153.13582 447.5486,153.12572 446.78737,153.14622 z"
       inkscape:connector-curvature="0"
       id="path3063"
       style="fill:#a7b0c5;stroke:none" />
    <path
       d="M 443.82176,135.96998 C 445.17725,137.88902 444.2996,140.10741 442.06342,139.95366 412.7772,137.94017 426.41768,151.13213 395.02115,156.41348"
       inkscape:connector-curvature="0"
       id="path3040"
       style="fill:none;stroke:#0000e9;stroke-width:1;stroke-linecap:round;stroke-miterlimit:4;stroke-opacity:1;stroke-dasharray:none;stroke-dashoffset:0" />
    <path
       d="M 426.55195,132.88576 C 425.83632,132.87506 425.30421,133.34642 424.57355,133.15367 422.11209,133.80742 420.50891,136.05744 418.64794,137.65593 413.07543,143.12615 407.79945,149.0746 401.20366,153.32926 400.47513,153.58473 399.94381,154.83044 401.01818,154.94358 407.66413,153.67261 413.80385,150.33241 418.77386,145.78322 421.47421,143.28798 424.59863,141.1579 428.2487,140.4559 433.08586,139.28798 438.15753,140.12111 443.07299,139.54226 444.50417,139.30534 444.48658,137.33564 443.89045,136.36857 440.67421,135.11249 437.17014,134.58303 433.79922,133.79253 431.41552,133.32174 428.98961,132.89474 426.55195,132.88576 z"
       inkscape:connector-curvature="0"
       id="path3049"
       style="fill:#b46a9f;stroke:none" />
    <path
       d="M 615.77046,275.3033 C 614.56086,275.2908 613.44779,276.04597 612.58303,276.69093 611.80478,275.87761 610.97239,277.04266 611.27097,277.85187 611.4691,282.0262 611.11213,286.30068 610.81516,290.44227 611.61584,291.26096 612.92124,289.91399 613.94349,289.75652 617.83685,287.99075 622.45842,289.20137 625.68308,291.85182 626.31453,292.52175 627.22289,291.77602 626.89211,290.9794 626.11733,286.64042 624.36315,282.40064 621.69471,278.88578 620.14272,277.19383 618.28749,275.1442 615.77046,275.3033 z"
       inkscape:connector-curvature="0"
       id="path3056"
       style="fill:#d39ccd;stroke:none" />
    <path
       d="M 617.72138,289.17273 C 615.23287,289.37607 612.65567,290.21212 610.72828,291.8106 609.96064,293.67312 609.99567,295.81632 609.42007,297.76195 607.85657,305.01292 604.92675,311.8595 601.85981,318.58087 601.53069,319.84002 603.28924,320.0232 603.92677,320.74499 606.61498,322.7941 610.34106,323.90989 613.53789,322.33846 618.55406,319.88209 621.22669,314.52797 623.16336,309.55457 625.16379,304.09419 626.36769,298.31831 626.90585,292.52503 626.93685,291.623 625.93722,291.74382 625.51822,292.04416 623.24869,290.39061 620.62037,288.98256 617.72138,289.17273 z"
       inkscape:connector-curvature="0"
       id="path3062"
       style="fill:#bc90cc;stroke:none" />
    <path
       d="M 590.06496,345.64652 C 587.46315,345.86351 584.89128,346.8739 582.78333,348.38743 581.15744,350.43205 579.84738,352.72415 578.02996,354.61928 573.42165,359.85398 568.33414,365.00188 565.87364,371.69435 564.51628,375.37988 563.39967,379.26481 563.27408,383.2087 563.50498,385.32082 564.05666,387.83691 565.98065,389.02713 568.47235,389.95335 570.70394,387.73731 572.41046,386.25187 579.81278,378.97445 584.95323,369.79103 590.00861,360.80682 592.0389,357.10984 594.40193,353.15884 593.81201,348.75286 593.77911,346.71194 592.05349,345.44069 590.06496,345.64652 z"
       inkscape:connector-curvature="0"
       id="path3064"
       style="fill:#ca818c;stroke:none" />
    <path
       d="M 601.27591,319.67311 C 599.73007,322.08026 598.43779,324.8308 596.9143,327.32203 593.17738,333.89699 588.74717,340.06659 584.12288,345.99686 583.82558,347.11981 585.25904,346.79004 585.80589,346.42277 587.98877,345.67093 590.72105,344.61701 592.80587,346.09304 594.55268,347.69172 594.12946,350.36169 593.90498,352.48163 593.59144,353.10672 593.91098,354.29577 594.78427,353.75935 602.4881,349.70089 607.27425,341.95021 610.89664,334.30499 612.53578,330.64329 614.1477,326.89038 615.09038,322.99793 614.67523,321.8276 613.25309,322.91003 612.4319,323.00493 609.11899,323.74746 605.55281,322.70619 603.03449,320.42888 602.51465,320.13257 601.93492,319.47938 601.27591,319.67324 z"
       inkscape:connector-curvature="0"
       id="path3066"
       style="fill:#c9ca98;stroke:none" />
    <path
       d="M 563.84488,356.23219 C 563.47348,358.6392 560.47053,362.24237 566.0431,361.94758"
       inkscape:connector-curvature="0"
       id="path3037"
       style="fill:none;stroke:#0000e9;stroke-width:1;stroke-linecap:round;stroke-miterlimit:4;stroke-opacity:1;stroke-dasharray:none;stroke-dashoffset:0" />
    <path
       d="M 526.48128,341.4328 C 524.83319,342.86687 524.88962,345.66243 524.14001,347.67205 522.88711,354.48832 521.71076,362.14176 524.97,368.58089 527.82565,374.39565 534.84068,377.13627 541.05826,375.78008 547.09582,374.69111 552.81754,371.58689 557.13279,367.27569 557.12379,365.56136 554.41538,366.85432 553.31337,366.79483 548.14618,367.4891 542.22319,368.79956 537.72425,365.31688 536.36283,364.60547 534.21901,362.91691 534.83454,361.28553 539.2486,358.4546 544.91205,359.05645 549.91688,358.0607 552.99267,357.52083 556.28427,357.61809 559.27606,356.90281 559.55513,355.12482 556.53005,355.27093 555.43666,354.55588 545.86214,351.5697 534.88169,350.13341 528.03378,342.16096 527.58632,341.81243 527.1038,341.34439 526.48128,341.4328 z"
       inkscape:connector-curvature="0"
       id="path3041"
       style="fill:#e1aa66;stroke:none" />
    <path
       d="M 560.55378,357.23255 C 552.44436,358.55266 544.02902,358.53913 536.12599,360.84588 534.00458,361.70966 536.26332,363.68634 537.3625,364.30809 539.94732,366.34152 543.08221,367.77664 546.44254,367.08907 552.18915,366.59062 558.23075,365.78491 563.30156,362.9342 564.13665,361.82014 561.99104,361.20811 562.66957,359.91164 563.16147,357.82638 563.31504,356.07336 560.55378,357.23255 z"
       inkscape:connector-curvature="0"
       id="path3046"
       style="fill:#d68d95;stroke:none" />
    <path
       d="M 445.3118,136.79173 C 444.1405,137.5369 444.86549,140.09414 442.86627,139.93794 435.80179,140.44453 427.76571,139.04958 421.87322,143.92223 416.46614,148.39058 410.79594,152.80569 403.85012,154.59595 392.71018,158.381 380.68484,156.82974 369.1158,157.20775 363.95635,157.33979 358.67663,156.94609 353.59083,157.4001 353.60083,161.66796 353.84239,166.01854 354.27778,170.2872 356.80005,171.57856 360.15756,171.3189 362.983,172.00124 371.08339,173.29696 379.46063,174.67423 387.52594,172.37551 406.43489,168.04364 422.97784,156.54967 442.15185,153.19599 452.62065,151.8563 463.08647,154.67762 473.23441,156.81342 493.70326,161.99743 513.71449,169.33955 532.7126,178.39931 552.36508,188.22136 569.43279,202.98874 583.06086,220.0303 595.3121,236.16169 604.49151,255.04209 607.60954,275.18378 607.90919,294.80419 602.45451,314.74053 591.03141,330.7597 584.72625,339.82055 578.45909,349.5267 568.35748,354.77328 566.36928,355.88215 563.44712,356.36823 563.2466,359.16973 562.29593,360.93385 564.32268,362.17338 565.84326,361.3817 568.21175,360.43139 570.18036,358.99378 572.23537,357.52283 587.42921,343.95054 598.54167,326.19133 606.12574,307.3603 614.81854,284.6778 611.07796,258.65638 599.72697,237.60233 590.45876,219.07844 576.93208,202.92246 561.87271,188.77977 548.63307,177.4192 532.77489,169.62128 517.02058,162.34897 493.90158,152.06613 469.97161,143.4334 445.5591,136.77799 445.4765,136.77845 445.39372,136.77499 445.3118,136.79169 z"
       inkscape:connector-curvature="0"
       id="path3048"
       style="fill:#73a0a6;stroke:none" />
    <path
       d="M 493.61781,163.54139 C 494.24243,167.94244 496.4249,172.19551 497.54689,176.56194 499.62163,183.83202 501.51935,191.98984 499.0172,199.34499 496.37013,204.99327 492.31401,210.16946 491.49846,216.56825 490.8485,220.84407 489.45748,225.20409 489.661,229.51564 491.55169,230.35196 492.88793,227.44228 494.75814,227.2075 497.10044,226.40777 497.88869,229.80424 499.26035,231.01275 502.44401,236.13589 508.41943,239.90496 509.06034,246.24963 509.37853,248.38685 506.59728,250.49625 508.45583,252.4184 518.07127,264.52446 530.17954,275.52727 534.20832,291.00925 536.44847,301.2606 536.08073,312.27656 532.67753,322.26702 531.23654,327.62524 528.46251,332.5138 526.71484,337.7233 527.00476,341.22148 530.27202,343.68485 532.8424,345.7056 540.65485,351.22303 550.58682,351.77329 559.16615,355.43275 561.05714,357.95361 564.34382,355.68115 566.64011,355.02058 579.0172,349.46013 586.0084,337.04222 593.30679,326.24944 601.87773,312.95871 606.23674,297.19218 607.06194,281.43526 607.58529,269.76988 603.46102,258.50251 598.98151,247.95326 588.98762,224.76921 571.72134,205.40626 551.58227,190.45592 534.41727,177.76084 514.12488,170.39917 494.16736,163.34905 493.96775,163.35205 493.77327,163.32015 493.61781,163.54139 z"
       inkscape:connector-curvature="0"
       id="path3053"
       style="fill:#d0cf6e;stroke:none" />
  </g>
</svg>
