<?xml version="1.0" encoding="UTF-8" standalone="no"?>
<!-- Created with Inkscape (http://www.inkscape.org/) -->

<svg
   xmlns:dc="http://purl.org/dc/elements/1.1/"
   xmlns:cc="http://creativecommons.org/ns#"
   xmlns:rdf="http://www.w3.org/1999/02/22-rdf-syntax-ns#"
   xmlns:svg="http://www.w3.org/2000/svg"
   xmlns="http://www.w3.org/2000/svg"
   xmlns:xlink="http://www.w3.org/1999/xlink"
   xmlns:inkscape="http://www.inkscape.org/namespaces/inkscape"
   version="1.1"
   width="740"
   height="520"
   id="svg2"
   style="display:inline;enable-background:new">
  <defs
     id="defs4">
    <filter
       color-interpolation-filters="sRGB"
       id="filter3050">
      <feBlend
         in2="BackgroundImage"
         mode="lighten"
         id="feBlend3052" />
    </filter>
  </defs>
  <metadata
     id="metadata7">
    <rdf:RDF>
      <cc:Work
         rdf:about="">
        <dc:format>image/svg+xml</dc:format>
        <dc:type
           rdf:resource="http://purl.org/dc/dcmitype/StillImage" />
        <dc:title />
      </cc:Work>
    </rdf:RDF>
  </metadata>
  <g
     id="g1570"
     style="display:none">
    <image
       xlink:href="pngs/coronal-0749.png"
       id="image1572"
       height="520"
       width="740"
       y="0"
       x="0" />
  </g>
  <g
     id="g1578"
     style="display:inline">
    <path
       d="M 434.71973,158.76204 C 428.68773,155.7137 418.34905,155.05961 410.4714,153.78802 401.6166,153.08566 392.0528,155.09085 384.35781,153.78802 379.40607,150.62988 377.09599,145.48618 376.89678,138.86597 374.10896,131.36938 372.3429,126.09964 370.05751,118.96991 367.13863,106.50114 368.22596,92.378661 368.91232,79.370813 371.59401,67.908418 366.1096,60.106059 372.54452,58.038202 373.78962,55.714478 376.70272,53.073561 378.76204,51.820681 380.83191,48.736851 384.95533,46.419592 388.08832,43.737904 392.63337,40.801945 395.38057,39.267105 401.14511,38.763887 407.89763,36.64209 416.58087,35.216528 425.62288,35.655127 433.6175,35.705967 442.13795,36.682053 449.02002,38.763887 457.9382,39.010636 465.39232,41.93906 474.51186,42.4944 483.36959,44.706838 491.80529,47.658179 500.62545,49.333673 508.20602,51.950906 516.59249,53.654484 524.25203,57.41645 532.30718,59.863047 534.21581,60.516256 541.66109,63.633971 548.56804,65.602899 554.58752,68.192282 561.55715,70.473243 565.75095,73.059514 572.62711,74.471542 577.72271,78.556021 584.72351,80.941672 589.73388,84.499275 595.75352,87.882302 600.69166,90.745121 605.20388,93.513615 610.05381,95.965079 613.67596,99.2525 617.94839,100.8709 620.6236,104.04786 626.88095,110.24768 634.27941,115.82862 639.89791,120.83516 648.21384,127.22832 655.00631,135.41248 661.93522,142.52979 663.73289,144.4991 665.66846,147.91126 667.87676,149.43576 670.63355,154.13389 672.31512,157.26631 675.95954,161.8708 679.54568,168.94712 684.61771,174.62376 688.39458,181.76687 690.31961,187.55869 693.14263,192.18908 693.99035,199.17592 698.08205,210.51073 698.89526,222.8371 698.34261,235.8593 697.41704,246.34625 697.25644,256.51226 694.6121,265.08165 699.11859,274.34871 681.77882,272.69397 690.25983,279.38194 695.01261,281.95603 694.44873,293.14937 691.50334,298.65626 689.89709,303.64806 686.05479,308.49084 684.66407,313.57831 682.40651,316.63411 680.57401,322.20106 679.0683,326.01335 677.90124,330.53071 674.50142,334.73238 673.47253,338.44839 670.17164,341.68704 669.69241,349.28277 667.25501,353.37044 665.95001,359.22285 662.12734,365.21603 661.03748,370.7795 658.48724,374.69245 656.15368,381.1775 654.19821,385.70155 651.92259,390.31867 650.06953,393.54172 647.98069,396.89309 647.1785,401.35034 643.90955,402.791 642.38492,406.84112 639.98036,409.19323 638.5453,414.66588 635.54565,416.78915 633.08535,420.60593 630.7418,422.73373 628.70638,425.49368 625.85306,427.28635 623.53571,429.40255 620.00185,431.08945 614.68809,434.64575 610.24234,436.88802 602.59279,434.19821 594.47511,432.11736 584.90347,433.66573 576.4792,432.33296 571.81901,429.94377 564.6652,426.39944 560.31365,424.25018 555.96888,422.83853 551.65531,418.87563 546.6351,416.78915 543.51848,413.88624 538.26816,412.76708 534.82181,409.94988 528.89699,407.87444 525.22363,405.22107 519.27801,401.8671 515.88522,399.28718 512.74259,398.4015 509.32997,395.64958 505.18999,393.45826 501.45417,390.8353 496.27318,389.43206 490.17481,384.06733 476.4006,388.5587 468.29433,385.70155 464.10653,384.80258 460.29052,382.62045 458.96805,379.48403 455.80467,377.85234 454.98851,371.89633 458.96805,370.7795 461.0424,368.92622 463.60999,365.45624 465.18557,365.80548 463.42328,365.21631 466.47943,366.65569 465.80733,365.18373"
       inkscape:connector-curvature="0"
       id="path1580"
       style="fill:none;stroke:#e20000;stroke-opacity:1" />
    <path
       d="M 582.60705,325.23721 C 583.73299,325.59442 587.68725,320.48762 590.52066,318.20289 591.67819,316.69145 593.6723,314.5828 595.35675,313.36679 597.59041,310.71928 600.31706,309.26533 601.51179,307.21176 604.08504,305.42905 606.32225,302.02968 608.10646,300.17744 609.5694,297.24741 611.50452,296.06856 612.50291,293.14312 614.64487,289.97606 615.92449,287.94775 616.89937,284.35021 618.91164,280.93198 619.48564,275.72168 620.85617,271.60051 622.43435,262.25187 621.49733,252.15515 620.38019,242.84896 619.64974,237.1557 618.62033,231.11866 617.33901,225.87741 616.01527,221.37719 613.87136,217.26865 612.50291,212.24841 610.12665,207.37005 609.06607,202.8936 605.90824,197.30048 603.45066,192.51388 600.92761,188.08542 598.87392,183.23184 595.79907,178.13649 593.58228,172.47284 588.89542,168.56262 585.0618,162.57663 579.16864,158.78425 574.25379,153.33597 570.80567,151.20961 568.62946,147.63962 565.3259,145.50599 561.51576,142.24179 555.25549,138.52627 550.51295,135.75016 543.91002,132.55041 537.85435,129.91475 532.04786,125.63833 529.34013,124.29136 527.49793,122.96232 524.13424,121.24187 518.50352,119.69676 513.51336,117.43485 507.86738,115.96613 502.01216,113.65402 496.50617,111.84694 490.28157,111.13004 483.58664,108.95182 475.81175,109.21343 468.91741,110.64529 465.28743,111.91525 460.67516,112.8371 457.74783,115.96613 456.4808,118.18748 452.78959,118.93465 451.15315,121.24187 448.63679,124.21194 445.74929,124.93664 443.23954,127.39691 440.78449,128.2037 438.06909,130.2053 436.84002,131.40089 435.02248,132.85922 430.11006,134.47573 429.1709,134.87087 424.70198,134.66573 420.44306,133.62834 418.17977,130.91407 414.54827,127.30868 414.54171,121.69217 415.10225,116.84542 415.86741,111.71759 419.39752,107.83426 420.4956,102.90723 419.88656,97.079961 420.71075,92.155393 423.45551,88.26849 426.63428,85.651221 432.27405,86.627246 436.64487,88.26849 438.79111,89.779987 442.19238,92.301198 444.11883,94.423522 447.87844,96.064294 453.49277,96.764878 457.30819,98.380328 463.01904,99.521229 469.61936,100.33601 476.43275,101.0182 482.55652,102.65658 489.5188,102.41722 495.55731,104.09571 501.04786,104.5647 505.96208,108.10304 511.38454,108.93181 516.80677,110.57729 522.96046,112.97818 528.09105,114.20755 532.25051,115.37782 535.76967,117.19555 540.84076,117.72471 544.65546,120.12798 548.52249,120.58671 551.92301,123.03801 555.05761,123.90117 559.33321,125.89614 561.74858,127.88368 565.83379,130.91944 570.29988,134.81685 575.13308,136.62945 576.76636,138.11045 579.09279,140.08251 580.40882,141.0259 583.24641,143.69343 584.95329,145.45469 586.759,147.13378 589.41335,149.51148 594.64451,153.064 597.55498,156.85313 599.61997,159.2326 601.87151,162.66584 604.14966,165.64603 603.12255,169.44996 607.83267,171.67425 608.74433,173.99929 610.55829,177.8021 612.35585,182.6349 614.02008,186.749 619.13622,187.71502 618.5148,194.55902 621.73546,198.17977 623.8775,201.96551 625.53945,205.16044 627.0112,209.61054 628.982,214.2019 630.80407,218.69095 631.8473,223.23954 634.64496,229.19304 634.8314,236.20159 635.80411,242.36411 636.35757,248.80903 636.82184,256.10686 636.6834,263.24725 636.00157,268.17792 634.85822,273.80795 633.56994,278.60214 632.7856,283.56459 630.87969,287.55311 628.76978,291.82418 627.30262,295.52496 625.81629,299.54536 623.49404,302.37566 621.40606,305.9221 619.65815,309.12536 618.2183,312.92715 616.41034,315.42711 614.78,318.81512 612.94256,321.72005 611.30642,323.5382 610.44985,327.12333 608.54611,328.75437 603.52257,338.02858 597.54438,347.59306 589.22761,354.73004"
       inkscape:connector-curvature="0"
       id="path1582"
       style="opacity:0.6;fill:none;stroke:#e20000;stroke-opacity:1" />
    <path
       d="M 419.93835,133.11229 402.35255,154.21526"
       inkscape:connector-curvature="0"
       id="path1584"
       style="fill:none;stroke:#0000e9;stroke-width:0.99000001;stroke-miterlimit:4;stroke-opacity:1;stroke-dasharray:none;stroke-dashoffset:0" />
    <path
       d="M 415.5419,128.71584 378.61171,141.9052"
       inkscape:connector-curvature="0"
       id="path1586"
       style="fill:none;stroke:#0000e9;stroke-width:0.99000001;stroke-miterlimit:4;stroke-opacity:1;stroke-dasharray:none;stroke-dashoffset:0" />
    <path
       d="M 417.31066,107.77836 369.43575,102.80434"
       inkscape:connector-curvature="0"
       id="path1588"
       style="fill:none;stroke:#0000e9;stroke-width:0.99000001;stroke-miterlimit:4;stroke-opacity:1;stroke-dasharray:none;stroke-dashoffset:0" />
    <path
       d="M 421.04118,92.234559 383.73605,46.846656"
       inkscape:connector-curvature="0"
       id="path1590"
       style="fill:none;stroke:#0000e9;stroke-width:0.99000001;stroke-miterlimit:4;stroke-opacity:1;stroke-dasharray:none;stroke-dashoffset:0" />
    <path
       d="M 428.5022,84.773534 426.01519,34.411614"
       inkscape:connector-curvature="0"
       id="path1592"
       style="fill:none;stroke:#0000e9;stroke-width:0.99000001;stroke-miterlimit:4;stroke-opacity:1;stroke-dasharray:none;stroke-dashoffset:0" />
    <path
       d="M 450.88528,95.34332 452.12878,38.142127"
       inkscape:connector-curvature="0"
       id="path1594"
       style="fill:none;stroke:#0000e9;stroke-width:0.99000001;stroke-miterlimit:4;stroke-opacity:1;stroke-dasharray:none;stroke-dashoffset:0" />
    <path
       d="M 467.05083,98.45208 474.51186,43.737896"
       inkscape:connector-curvature="0"
       id="path1596"
       style="fill:none;stroke:#0000e9;stroke-width:0.99000001;stroke-miterlimit:4;stroke-opacity:1;stroke-dasharray:none;stroke-dashoffset:0" />
    <path
       d="M 524.87378,112.13063 542.90459,62.390459"
       inkscape:connector-curvature="0"
       id="path1598"
       style="fill:none;stroke:#0000e9;stroke-width:0.99000001;stroke-miterlimit:4;stroke-opacity:1;stroke-dasharray:none;stroke-dashoffset:0" />
    <path
       d="M 558.44839,125.80917 590.15775,83.53003"
       inkscape:connector-curvature="0"
       id="path1600"
       style="fill:none;stroke:#0000e9;stroke-width:0.99000001;stroke-miterlimit:4;stroke-opacity:1;stroke-dasharray:none;stroke-dashoffset:0" />
    <path
       d="M 583.94022,143.83998 620.6236,103.4261"
       inkscape:connector-curvature="0"
       id="path1602"
       style="fill:none;stroke:#0000e9;stroke-width:0.99000001;stroke-miterlimit:4;stroke-opacity:1;stroke-dasharray:none;stroke-dashoffset:0" />
    <path
       d="M 603.83629,166.84481 651.7112,129.53968"
       inkscape:connector-curvature="0"
       id="path1604"
       style="fill:none;stroke:#0000e9;stroke-width:0.99000001;stroke-miterlimit:4;stroke-opacity:1;stroke-dasharray:none;stroke-dashoffset:0" />
    <path
       d="M 623.11061,200.41942 678.44654,166.84481"
       inkscape:connector-curvature="0"
       id="path1606"
       style="fill:none;stroke:#0000e9;stroke-width:0.99000001;stroke-miterlimit:4;stroke-opacity:1;stroke-dasharray:none;stroke-dashoffset:0" />
    <path
       d="M 634.30214,230.26352 697.0991,208.5022"
       inkscape:connector-curvature="0"
       id="path1608"
       style="fill:none;stroke:#0000e9;stroke-width:0.99000001;stroke-miterlimit:4;stroke-opacity:1;stroke-dasharray:none;stroke-dashoffset:0" />
    <path
       d="M 636.1674,257.62062 697.0991,255.75536"
       inkscape:connector-curvature="0"
       id="path1610"
       style="fill:none;stroke:#0000e9;stroke-width:0.99000001;stroke-miterlimit:4;stroke-opacity:1;stroke-dasharray:none;stroke-dashoffset:0" />
    <path
       d="M 633.05864,278.13844 693.99034,286.22121"
       inkscape:connector-curvature="0"
       id="path1612"
       style="fill:none;stroke:#0000e9;stroke-width:0.99000001;stroke-miterlimit:4;stroke-opacity:1;stroke-dasharray:none;stroke-dashoffset:0" />
    <path
       d="M 625.59761,296.16925 684.66406,314.82181"
       inkscape:connector-curvature="0"
       id="path1614"
       style="fill:none;stroke:#0000e9;stroke-width:0.99000001;stroke-miterlimit:4;stroke-opacity:1;stroke-dasharray:none;stroke-dashoffset:0" />
    <path
       d="M 608.81031,328.50035 667.87676,353.99219"
       inkscape:connector-curvature="0"
       id="path1616"
       style="fill:none;stroke:#0000e9;stroke-width:0.99000001;stroke-miterlimit:4;stroke-opacity:1;stroke-dasharray:none;stroke-dashoffset:0" />
    <path
       d="M 411.71489,143.83998 C 411.03816,145.32796 413.09646,147.20038 412.33665,144.68533 411.50606,142.12811 410.9398,148.60678 412.566,147.0183 414.13308,150.59283 418.39888,151.31353 421.58669,150.17253 425.05309,151.46468 428.50667,150.23013 431.9304,150.14453 434.51528,148.87895 437.92525,148.61114 440.97846,148.05387 443.93385,145.62364 447.87337,145.11487 451.24161,143.81872 453.48639,142.18079 455.9263,140.78514 457.43891,138.20492 459.15655,136.09746 461.02415,133.54186 463.65502,131.99534 465.95371,129.21993 469.52085,127.97938 472.04085,125.42265 474.49339,124.27654 477.41083,122.78783 479.55422,121.65289 481.76294,120.28141 484.18495,119.89009 486.83911,119.44733 489.37679,118.62882 492.64553,117.14427 494.83732,115.951 494.98995,115.17948 497.31037,110.76926 496.53822,112.40799 496.23828,112.53992 496.15565,119.08599 495.65143,115.86113"
       inkscape:connector-curvature="0"
       id="path1618"
       style="fill:none;stroke:#0000e9;stroke-width:0.99000001;stroke-miterlimit:4;stroke-opacity:1;stroke-dasharray:none;stroke-dashoffset:0" />
    <path
       d="M 583.94022,432.95471 C 585.15686,394.75957 613.23903,424.24899 617.51484,431.7112"
       inkscape:connector-curvature="0"
       id="path1620"
       style="fill:none;stroke:#0000e9;stroke-width:0.99000001;stroke-miterlimit:4;stroke-opacity:1;stroke-dasharray:none;stroke-dashoffset:0" />
    <path
       d="M 591.40125,413.68039 C 588.79167,412.79048 590.79454,409.0174 589.08127,407.14666 587.98098,404.51561 587.52081,401.44186 586.36514,399.04303 584.95775,396.81598 583.96566,394.76769 583.34963,392.08334 582.40839,389.16894 581.74915,386.30908 580.57118,383.38674 579.00018,378.82719 576.66215,374.39785 576.34083,369.49477 575.33022,367.95226 575.79369,365.7713 575.1098,364.09832 575.78452,361.1687 576.39733,357.37155 579.58796,356.16832 581.91101,354.5384 584.52875,354.01219 587.4062,353.83806 590.472,353.1257 593.35152,352.77266 596.3636,353.63454 599.21879,353.19236 602.22455,354.00158 604.90435,354.82779 607.98886,355.79274 611.12768,356.96812 613.44257,359.3199 615.1879,360.73474 616.19065,361.87854 617.81169,363.17199 619.96613,365.68533 622.20475,367.48822 623.87073,370.82069 626.39381,373.09352 627.84602,376.23254 630.01534,378.89746 631.3579,381.75249 633.17832,384.19776 633.93554,387.34277 635.52165,389.83338 635.69858,392.88886 637.05233,395.24743 638.26874,397.79008 639.22037,400.53236 639.94716,403.23143 640.82863,404.46754 641.13988,407.63976 641.74804,407.68347 641.67579,407.28499 642.15376,407.17935 642.38492,407.46284"
       inkscape:connector-curvature="0"
       id="path1622"
       style="fill:none;stroke:#0000e9;stroke-width:0.99000001;stroke-miterlimit:4;stroke-opacity:1;stroke-dasharray:none;stroke-dashoffset:0" />
    <path
       d="M 510.57348,394.40608 C 533.57386,356.50995 566.38414,373.50751 586.42723,416.78915"
       inkscape:connector-curvature="0"
       id="path1624"
       style="fill:none;stroke:#0000e9;stroke-width:0.99000001;stroke-miterlimit:4;stroke-opacity:1;stroke-dasharray:none;stroke-dashoffset:0" />
    <path
       d="M 512.43873,388.81031 C 511.36046,388.43461 508.55613,389.59841 511.05502,389.59964 514.81347,388.42673 508.98081,388.69433 509.01946,390.09978 507.13058,390.22326 505.13788,388.5545 503.7342,388.49943 502.99781,387.65092 501.34152,387.50352 500.62544,386.94505 500.36455,385.39319 499.33429,384.89525 499.07107,383.83629 498.33999,383.70076 499.18026,382.29727 498.06193,382.43614 498.69043,380.53692 496.36538,379.92916 497.81283,377.74538 498.67316,375.90376 499.57068,375.5796 500.14206,373.84704 500.51275,373.33793 503.17669,372.44454 503.11245,372.023 502.57227,371.9954 505.68489,370.24917 505.10528,370.9843 506.97738,369.92886 508.30114,369.14931 509.95173,368.91424 512.21054,367.44757 515.25452,367.47598 518.09092,367.12606 519.61899,367.58871 519.01613,365.79527 520.52151,366.42723 520.53751,365.2471 522.48943,366.34113 522.68309,365.16354 524.41106,364.18088 525.5218,363.67154 527.77018,362.65795 529.46672,363.13349 529.54294,361.08857 531.64365,362.14278 533.76958,360.77026 536.60193,361.39842 539.13296,361.5433 541.98805,362.01267 544.31428,360.85563 546.73225,360.09313 549.33859,360.67422 551.4176,358.55174 554.20068,359.74728 556.65913,359.08841 559.13012,358.53882 561.89079,358.91125 562.17358,360.62078 565.30579,358.48006 565.54875,360.33722 567.16047,359.87967 568.23802,360.23017 569.01817,360.83146 569.82898,360.91906 569.8117,361.73546 570.92465,361.59158 570.73482,362.68052 572.67831,361.47696 572.39496,363.03848 573.28599,364.46027 575.07818,365.16141 574.47557,367.0902 573.25714,367.051 574.60267,369.79028 573.37044,369.84687 572.50288,370.13949 573.1767,371.58388 571.81606,371.71212 570.62214,372.66189 569.2441,373.00431 567.46379,373.57738 564.77193,374.5156 561.52415,373.77491 558.61279,373.94426 556.79309,374.37622 553.40654,372.84213 552.69597,374.58652 551.06774,373.46649 549.77911,376.60724 551.19866,374.57072 550.40868,374.25897 551.04673,375.45043 550.98736,375.7535"
       inkscape:connector-curvature="0"
       id="path1626"
       style="fill:none;stroke:#0000e9;stroke-width:0.99000001;stroke-miterlimit:4;stroke-opacity:1;stroke-dasharray:none;stroke-dashoffset:0" />
    <path
       d="M 541.38322,373.95575 C 555.19929,375.03101 565.96088,385.61143 573.88999,396.07589 578.90281,402.34689 581.96172,409.96224 586.34366,416.5652 587.95539,417.91522 585.12521,420.19369 585.27503,421.85009 583.78384,425.06745 584.8404,428.92232 583.17661,431.95356 578.08542,433.58001 573.01047,429.8383 568.4671,427.97078 555.2356,421.73671 543.10214,413.73324 529.97633,407.31003 523.27567,403.37345 515.85513,400.13237 510.00416,395.05646 511.26117,393.07968 513.69639,391.10183 514.91989,388.76122 521.10399,380.43264 530.5245,373.47605 541.38322,373.95575 z"
       inkscape:connector-curvature="0"
       id="path1628"
       style="fill:#d764c6;stroke:none" />
    <path
       d="M 575.34642,369.33147 C 577.22071,373.70686 577.95353,378.66571 580.04718,383.06973 582.18622,389.71009 584.37438,396.2405 587.23743,402.61463 588.20757,406.5173 590.85836,410.87522 589.45242,414.9331 588.46226,416.46832 586.22436,416.56466 585.79963,414.52507 579.76392,402.54659 572.30235,390.73895 561.82135,382.06092 558.91262,379.63015 555.48392,377.53905 552.28331,375.91815 552.54055,373.60827 556.14853,374.71493 557.78185,374.27649 563.54929,374.23519 570.38227,374.72784 574.35551,369.66177 574.6384,369.47905 574.95432,369.14566 575.34642,369.33147 z"
       inkscape:connector-curvature="0"
       id="path1630"
       style="fill:#9eae8b;stroke:none" />
    <path
       d="M 560.67696,359.67488 C 565.23036,360.18879 571.40475,360.69983 573.52003,365.38723 574.84848,370.55091 568.99852,373.59941 564.6212,373.50886 555.40816,374.30158 546.1818,373.86479 536.97266,373.54776 527.36067,374.33563 520.37918,381.38073 514.08441,387.98407 512.39149,388.95105 510.27844,388.49338 508.46921,389.42187 504.00462,389.01573 499.71488,386.11988 498.61833,381.57225 496.38391,376.86034 501.91878,372.99698 505.51589,371.19676 511.79749,367.49974 519.45196,368.11434 525.6136,364.1693 532.60775,360.75271 540.60208,362.75487 547.82701,360.49589 552.06575,359.84514 556.38155,359.58708 560.67696,359.67492 z"
       inkscape:connector-curvature="0"
       id="path1632"
       style="fill:#6d7c6d;stroke:none" />
    <path
       d="M 596.23341,353.78767 C 607.57641,353.59533 616.88202,361.45017 623.14361,370.20581 630.22074,378.33689 634.50439,388.25215 637.85194,398.39838 638.43134,401.87172 641.89407,405.54366 640.45071,408.89592 635.22262,417.55991 628.92861,426.12036 619.74379,430.87055 617.13721,433.21933 616.18406,428.22932 614.3808,426.97954 609.73503,422.04322 604.63552,416.72655 598.0598,414.36963 595.38726,413.5003 590.45865,414.74102 590.32676,410.61969 586.06429,395.61871 578.84112,381.34104 575.8516,365.97012 575.00723,360.92001 578.44899,355.9942 583.44863,355.01174 585.36772,354.42834 587.92356,353.76285 589.58843,354.62315 591.47017,353.37548 594.09153,353.90575 596.23341,353.78767 z"
       inkscape:connector-curvature="0"
       id="path1634"
       style="fill:#81728f;stroke:none" />
    <path
       d="M 609.60108,329.5199 C 628.57666,337.37598 647.622,345.324 666.23881,353.92367 665.19662,360.41498 661.79277,366.518 659.43973,372.68332 655.73167,381.80149 651.17975,390.54271 646.69248,399.27272 645.24856,401.07077 644.13113,404.55679 641.60188,404.86849 636.26399,394.69136 634.11872,382.68012 626.61418,373.66527 620.06745,364.7145 612.36832,354.8254 600.52738,353.67109 598.05032,352.81137 593.76864,353.89118 592.52232,351.94184 599.122,345.51444 603.68351,337.53435 608.66845,329.88907 608.90537,329.64294 609.23685,329.40098 609.60108,329.5199 z"
       inkscape:connector-curvature="0"
       id="path1636"
       style="fill:#939f6c;stroke:none" />
    <path
       d="M 628.15649,297.34423 C 646.21382,303.23426 664.66678,308.37393 682.44322,314.81158 681.09331,321.86609 677.40971,328.45839 674.54227,335.052 671.05306,340.54745 669.6894,347.08829 666.8217,352.79675 653.0728,347.68001 639.61309,341.2155 626.01309,335.50044 620.84847,333.02151 615.11117,331.17827 610.30055,328.25697 612.8351,320.97507 618.10967,314.84945 621.00634,307.68086 623.24246,304.23928 624.69407,299.77107 628.00105,297.3248 L 628.15649,297.3442 z"
       inkscape:connector-curvature="0"
       id="path1638"
       style="fill:#ba9676;stroke:none" />
    <path
       d="M 635.32607,278.67224 C 654.26322,281.59902 673.52044,283.36857 692.39125,286.58015 695.0293,289.36319 692.49414,293.74792 691.65303,296.8595 689.47661,302.66639 686.52606,308.1488 683.90045,313.76238 678.81651,313.26227 673.6073,310.64453 668.47646,309.35166 654.97201,304.93998 641.24468,301.10121 628.02048,295.98415 628.95718,290.47205 632.69175,285.42588 633.55796,279.74088 633.75088,278.9526 634.54177,278.50215 635.32607,278.67224 z"
       inkscape:connector-curvature="0"
       id="path1640"
       style="fill:#9b7d71;stroke:none" />
    <path
       d="M 694.89769,256.32803 C 697.28249,256.87148 694.93087,260.43157 695.0337,262.0598 693.69844,265.17161 696.29232,269.66132 692.50783,271.56095 690.69026,273.04296 686.09163,275.1091 688.58302,278.01163 690.19018,280.12646 692.77026,281.67758 692.91586,284.69547 691.71102,286.80206 688.49527,284.64697 686.57394,284.8951 669.567,282.33909 652.20071,280.91003 635.36493,277.60361 632.96237,276.46965 636.04683,273.20289 635.61812,271.30008 636.78547,266.97792 636.53541,262.15017 637.85194,258.09613 656.84694,257.07238 675.87733,256.49843 694.89769,256.32803 z"
       inkscape:connector-curvature="0"
       id="path1642"
       style="fill:#c1dfbe;stroke:none" />
    <path
       d="M 696.2772,209.87149 C 698.67081,220.33475 697.82212,231.34836 697.4632,242.0264 696.88308,246.34234 697.5696,251.29602 695.86918,255.22053 676.38431,256.48443 656.80322,256.75046 637.26904,257.12465 635.91334,252.80661 636.71356,247.53893 636.00995,242.8656 635.90595,238.7544 634.75249,234.74105 634.84033,230.66132 654.85004,223.18397 675.29153,216.50564 695.5583,209.65776 695.81944,209.64036 695.9782,209.45362 696.2772,209.87149 z"
       inkscape:connector-curvature="0"
       id="path1644"
       style="fill:#768e99;stroke:none" />
    <path
       d="M 678.84871,167.57292 C 685.00793,176.49838 690.72775,185.94075 693.0905,196.67308 693.72122,200.27809 695.85585,204.0835 695.40286,207.69536 688.22128,211.88103 679.78585,213.71688 672.05457,216.77919 659.69296,221.06083 647.33579,225.36478 634.93747,229.5344 632.80489,227.1541 632.69222,223.04908 631.23783,220.08651 629.03996,213.59317 626.53087,207.21007 623.72651,200.95323 627.86631,197.26678 633.56695,194.83805 638.29242,191.62353 651.58739,183.55961 664.87711,175.48703 678.16867,167.41748 L 678.77479,167.55602 678.84871,167.57292 z"
       inkscape:connector-curvature="0"
       id="path1646"
       style="fill:none;stroke:none" />
    <path
       d="M 650.94759,131.29757 C 660.90434,142.11402 671.27608,153.02382 677.56635,166.42656 672.43617,170.59578 665.9767,173.67753 660.34511,177.41681 648.09876,184.71748 636.07636,192.52237 623.55164,199.28227 619.74273,196.45225 619.79409,190.41119 616.18776,187.39126 612.14422,184.15315 611.68809,178.17596 608.80446,173.98474 608.05922,171.3438 604.28929,169.56823 604.89908,166.67915 619.85147,154.67409 635.06454,142.94413 650.26755,131.23928 L 650.88703,131.29238 650.94759,131.29738 z"
       inkscape:connector-curvature="0"
       id="path1648"
       style="fill:none;stroke:none" />
    <path
       d="M 620.01543,105.0674 C 628.72241,111.86452 636.82176,119.47512 645.22093,126.67627 646.25183,127.95051 650.12212,129.95576 647.31423,131.5113 633.42053,143.06132 619.11175,154.39285 604.56877,165.00819 601.13317,163.38369 599.67409,158.89301 596.8163,156.36195 592.93812,152.01481 588.37215,148.37051 583.89552,144.54866 585.73167,140.70307 589.91065,137.68933 592.62555,134.15575 601.62422,124.46002 610.20943,114.24873 619.66569,105.0674 L 619.93771,105.048 620.01541,105.0674 z"
       inkscape:connector-curvature="0"
       id="path1650"
       style="fill:none;stroke:none" />
    <path
       d="M 589.99646,85.287914 C 600.19243,90.609019 610.23947,96.399853 619.39367,103.31872 617.96767,106.85612 613.97412,109.56086 611.5917,112.79218 602.42324,122.92704 593.36306,133.16646 584.03152,143.14972 581.21994,142.66504 579.45564,139.10919 576.87117,137.74243 571.11428,134.0419 565.21627,130.31987 559.74433,126.03211 559.98829,123.20362 563.31317,121.03166 564.59713,118.44143 572.80005,107.34035 580.877,96.110027 589.3747,85.249055 589.57462,85.288515 589.8054,85.159265 589.99646,85.287915 z"
       inkscape:connector-curvature="0"
       id="path1652"
       style="fill:none;stroke:none" />
    <path
       d="M 678.84871,167.57292 C 685.00793,176.49838 690.72775,185.94075 693.0905,196.67308 693.72122,200.27809 695.85585,204.0835 695.40286,207.69536 688.22128,211.88103 679.78585,213.71688 672.05457,216.77919 659.69296,221.06083 647.33579,225.36478 634.93747,229.5344 632.80489,227.1541 632.69222,223.04908 631.23783,220.08651 629.03996,213.59317 626.53087,207.21007 623.72651,200.95323 627.86631,197.26678 633.56695,194.83805 638.29242,191.62353 651.58739,183.55961 664.87711,175.48703 678.16867,167.41748 L 678.77479,167.55602 678.84871,167.57292 z"
       inkscape:connector-curvature="0"
       id="path1654"
       style="fill:#9970bd;stroke:none" />
    <path
       d="M 650.94759,131.29757 C 660.90434,142.11402 671.27608,153.02382 677.56635,166.42656 672.43617,170.59578 665.9767,173.67753 660.34511,177.41681 648.09876,184.71748 636.07636,192.52237 623.55164,199.28227 619.74273,196.45225 619.79409,190.41119 616.18776,187.39126 612.14422,184.15315 611.68809,178.17596 608.80446,173.98474 608.05922,171.3438 604.28929,169.56823 604.89908,166.67915 619.85147,154.67409 635.06454,142.94413 650.26755,131.23928 L 650.88703,131.29238 650.94759,131.29738 z"
       inkscape:connector-curvature="0"
       id="path1656"
       style="fill:#dcbf8c;stroke:none" />
    <path
       d="M 620.63718,105.0674 C 629.34416,111.86452 637.44351,119.47512 645.84268,126.67627 646.87358,127.95051 650.74387,129.95576 647.93598,131.5113 634.04228,143.06132 619.7335,154.39285 605.19052,165.00819 601.75492,163.38369 600.29584,158.89301 597.43805,156.36195 593.55987,152.01481 588.9939,148.37051 584.51727,144.54866 586.35342,140.70307 590.5324,137.68933 593.2473,134.15575 602.24597,124.46002 610.83118,114.24873 620.28744,105.0674 L 620.55946,105.048 620.63716,105.0674 z"
       inkscape:connector-curvature="0"
       id="path1658"
       style="fill:#ada5be;stroke:none" />
    <path
       d="M 589.99646,85.287914 C 600.19243,90.609019 610.23947,96.399853 619.39367,103.31872 617.96767,106.85612 613.97412,109.56086 611.5917,112.79218 602.42324,122.92704 593.36306,133.16646 584.03152,143.14972 581.21994,142.66504 579.45564,139.10919 576.87117,137.74243 571.11428,134.0419 565.21627,130.31987 559.74433,126.03211 559.98829,123.20362 563.31317,121.03166 564.59713,118.44143 572.80005,107.34035 580.877,96.110027 589.3747,85.249055 589.57462,85.288515 589.8054,85.159265 589.99646,85.287915 z"
       inkscape:connector-curvature="0"
       id="path1660"
       style="fill:#dad3b7;stroke:none" />
    <path
       d="M 543.42334,64.653517 C 556.2404,68.493431 568.68055,73.779157 580.47588,80.061311 583.24584,81.472389 586.97378,82.380809 588.5198,85.113047 578.39028,98.278275 568.95738,112.02861 558.07337,124.55544 552.94921,123.72754 548.21882,120.36444 543.25899,118.60027 537.60629,116.16219 531.38097,115.32213 525.64512,113.05303 525.26373,110.26557 527.5896,107.28376 528.12493,104.4421 532.98086,91.213996 537.32119,77.63004 542.76273,64.711806 542.97276,64.629716 543.20193,64.612996 543.42334,64.653516 z"
       inkscape:connector-curvature="0"
       id="path1662"
       style="fill:#b478b6;stroke:none" />
    <path
       d="M 476.15754,43.669384 C 494.66981,47.781383 512.94885,53.132243 530.68215,59.910333 534.06026,61.53735 538.48923,62.019496 541.26664,64.40093 536.19551,80.222963 530.72166,96.065437 524.51819,111.49865 521.71734,113.07293 518.3043,110.34881 515.41695,109.92603 502.91977,105.4778 489.97402,102.27286 476.74043,100.81229 473.5121,100.09108 469.89082,100.51504 466.85068,99.160758 470.13903,80.924708 471.91211,62.172445 475.24434,43.883112 475.47285,43.619814 475.8432,43.627371 476.15754,43.669384 z"
       inkscape:connector-curvature="0"
       id="path1664"
       style="fill:#a39ccb;stroke:none" />
    <path
       d="M 455.79516,39.822293 C 461.37844,40.79123 467.0753,41.86655 472.62132,42.581318 474.8347,45.710749 472.71202,50.178245 472.83591,53.697532 470.75732,68.604837 469.10784,83.634619 466.52038,98.422427 464.28694,100.24878 460.86452,98.208654 458.26273,98.092121 455.5691,97.012468 449.94178,97.774307 451.19922,93.42944 451.72159,76.139014 451.4293,58.764616 452.78354,41.532111 453.1103,40.172107 454.49182,39.613686 455.79516,39.822293 z"
       inkscape:connector-curvature="0"
       id="path1666"
       style="fill:#abd9cd;stroke:none" />
    <path
       d="M 430.82792,36.15007 C 437.76883,36.572224 444.57981,38.09359 451.40403,39.375409 452.30317,44.618583 451.31013,50.530539 451.50183,56.02373 451.09517,69.304921 451.29465,82.752076 450.08281,95.915989 442.55949,94.674071 438.12566,86.168121 430.05073,86.589708 428.74812,86.820479 426.61695,85.419364 428.36034,84.394146 428.54794,68.507201 426.71476,52.534956 426.61167,36.732963 427.72042,35.781799 429.48839,36.215371 430.82792,36.15007 z"
       inkscape:connector-curvature="0"
       id="path1668"
       style="fill:#a36ed8;stroke:none" />
    <path
       d="M 422.68686,36.033491 C 425.59135,35.417237 426.40642,38.445952 426.02769,40.734343 426.71166,55.667156 427.92781,70.710651 427.93289,85.59879 427.08427,87.641405 423.90196,86.256679 422.99773,88.590972 422.48847,89.934407 421.25526,91.89135 419.86954,89.912195 407.94306,76.114064 396.53593,61.738517 385.032,47.594194 385.29918,44.786172 389.24223,43.861073 391.24217,42.400411 400.89789,38.085597 411.65444,36.389309 422.16225,36.014062 L 422.68686,36.033492 z"
       inkscape:connector-curvature="0"
       id="path1670"
       style="fill:#cce198;stroke:none" />
    <path
       d="M 383.84678,48.274236 C 387.31123,50.656248 389.41493,54.906525 392.40571,57.924896 401.79315,69.436182 411.43857,80.819721 420.60787,92.457493 419.8102,97.255162 420.84737,102.8523 418.33459,107.16582 415.40383,108.22071 411.89866,106.39921 408.76248,106.58946 395.4682,105.05523 382.07979,104.1233 368.84701,102.1918 367.97834,97.337061 369.10816,91.789799 369.02272,86.670702 369.69811,77.682179 369.15136,68.44528 370.7317,59.601781 375.25247,56.266484 378.61323,51.200483 383.45819,48.274236 383.58438,48.237926 383.71992,48.245866 383.84678,48.274236 z"
       inkscape:connector-curvature="0"
       id="path1672"
       style="fill:#6d70b9;stroke:none" />
    <path
       d="M 370.24595,103.20215 C 385.80947,104.6871 401.38239,106.35554 416.87736,108.35103 418.1338,110.2757 415.23264,112.5794 415.36184,114.76285 414.05483,119.13121 415.01655,123.64335 415.12868,128.03337 408.6404,131.33991 401.18734,133.21971 394.32509,135.93605 388.91049,137.59547 383.5858,140.22973 378.19272,141.61477 376.49025,138.90325 376.40706,135.15315 374.96507,132.18438 372.06604,123.21697 368.335,113.98898 368.69157,104.42622 368.77707,103.6713 369.44711,102.99507 370.24595,103.20215 z"
       inkscape:connector-curvature="0"
       id="path1674"
       style="fill:#c68582;stroke:none" />
    <path
       d="M 416.15846,129.21859 C 420.51825,131.61316 419.07995,134.73184 415.82834,137.40951 410.96875,142.62188 407.19676,149.21373 401.31413,153.29205 395.67975,154.05954 389.76828,153.67694 384.13823,153.42806 381.79543,150.45692 377.48033,147.06487 378.38702,142.83884 384.57671,139.62999 391.70051,137.89162 398.24714,135.28604 404.21864,133.3681 410.15867,130.63997 416.15846,129.21859 z"
       inkscape:connector-curvature="0"
       id="path942"
       style="fill:#98d8de;stroke:none" />
    <path
       d="M 479.88805,110.02199 C 485.06834,110.35311 490.59193,110.76378 495.37356,112.76158 495.99992,115.57252 492.0238,116.81861 490.01095,117.77446 479.62561,120.59131 469.59774,125.46093 461.88566,133.02058 456.98305,137.38999 453.31807,143.79432 446.33287,145.11212 442.34603,146.85941 438.41547,148.49642 434.11155,149.05636 428.2316,150.24719 421.91332,150.65243 416.00302,149.61983 412.66183,148.11952 411.1806,143.29522 414.1572,140.68214 416.48661,138.50512 418.01729,134.32308 421.46278,133.90116 426.49745,135.23024 432.17889,135.3184 436.39408,131.91148 444.87015,127.15591 452.39064,120.95034 459.91426,114.86 465.82152,111.14489 472.99554,109.9037 479.88805,110.02199 z"
       inkscape:connector-curvature="0"
       id="path944"
       style="fill:#e1ada0;stroke:none" />
  </g>
</svg>
