<?xml version="1.0" encoding="UTF-8" standalone="no"?>
<!-- Created with Inkscape (http://www.inkscape.org/) -->

<svg
   xmlns:dc="http://purl.org/dc/elements/1.1/"
   xmlns:cc="http://creativecommons.org/ns#"
   xmlns:rdf="http://www.w3.org/1999/02/22-rdf-syntax-ns#"
   xmlns:svg="http://www.w3.org/2000/svg"
   xmlns="http://www.w3.org/2000/svg"
   xmlns:xlink="http://www.w3.org/1999/xlink"
   xmlns:inkscape="http://www.inkscape.org/namespaces/inkscape"
   version="1.1"
   width="740"
   height="520"
   id="svg2"
   style="display:inline;enable-background:new">
  <defs
     id="defs4">
    <filter
       color-interpolation-filters="sRGB"
       id="filter3050">
      <feBlend
         in2="BackgroundImage"
         mode="lighten"
         id="feBlend3052" />
    </filter>
  </defs>
  <metadata
     id="metadata7">
    <rdf:RDF>
      <cc:Work
         rdf:about="">
        <dc:format>image/svg+xml</dc:format>
        <dc:type
           rdf:resource="http://purl.org/dc/dcmitype/StillImage" />
        <dc:title />
      </cc:Work>
    </rdf:RDF>
  </metadata>
  <g
     id="g4707"
     style="display:none">
    <image
       xlink:href="pngs/coronal-0467.png"
       id="image4709"
       height="520"
       width="740"
       y="0"
       x="0" />
  </g>
  <g
     id="g4715"
     style="display:inline">
    <path
       d="M 373.16626,350.26168 C 369.58339,271.35306 368.52322,192.35543 368.19225,113.37413 373.23369,97.944854 392.59367,87.149857 408.91701,82.286526 435.63032,76.344834 461.36264,86.164715 485.76332,95.584105 513.11668,105.32405 536.24325,123.48042 560.65752,138.68337 576.73855,152.43737 595.30148,164.55934 603.83629,184.87562 624.35601,223.19375 620.72714,272.27841 595.81862,307.6559 581.19206,331.07291 571.01774,360.3283 544.49744,373.15796 521.45463,385.08767 504.86799,407.50401 478.36162,413.11125 454.48366,417.93073 427.17405,419.55171 405.18153,407.6112 385.44688,399.50182 373.655,379.19462 373.71859,358.23755 373.49672,355.58165 373.33689,352.92119 373.16626,350.26168 z"
       inkscape:connector-curvature="0"
       id="path4717"
       style="fill:none;stroke:#0000e9;stroke-width:1;stroke-miterlimit:4;stroke-opacity:1;stroke-dasharray:none;stroke-dashoffset:0" />
    <path
       d="M 470.38919,330.79961 C 465.93936,332.57687 463.98355,337.00561 462.81031,341.30787 459.66416,343.80971 454.59244,337.25138 450.91145,335.72208 446.56007,332.53114 444.42505,322.54895 450.39297,317.70952 457.16929,311.87977 478.34776,326.86497 470.38919,330.79961 z"
       inkscape:connector-curvature="0"
       id="path4719"
       style="fill:none;stroke:#0000e9;stroke-width:1;stroke-miterlimit:4;stroke-opacity:1;stroke-dasharray:none;stroke-dashoffset:0" />
    <path
       d="M 409.22789,263.83814 C 409.22789,263.00913 410.05689,261.35113 409.22789,261.35113 408.39888,261.35113 409.22789,264.66714 409.22789,263.83814 409.22789,262.80188 409.22789,261.76563 409.22789,260.72938 409.22789,260.52213 409.13519,260.293 409.22789,260.10762 409.35896,259.84547 409.71856,259.74803 409.84964,259.48587 410.13462,258.9159 409.84964,255.93717 409.84964,255.13361 409.84964,250.98859 409.84964,246.84358 409.84964,242.69857 409.84964,242.44255 409.68506,240.99789 409.84964,240.83331 409.99619,240.68676 410.32484,240.97986 410.47139,240.83331 410.63597,240.66873 410.47139,239.22407 410.47139,238.96805 410.47139,238.37861 410.21321,236.9974 410.47139,236.48105 410.60247,236.21889 410.96207,236.12145 411.09314,235.85929 411.42474,235.19609 410.76154,234.03549 411.09314,233.37228 411.22422,233.11013 411.58382,233.01269 411.71489,232.75053 411.90026,232.37979 411.52952,231.87777 411.71489,231.50703 411.84597,231.24487 412.20557,231.14743 412.33665,230.88528 412.52202,230.51453 412.04355,229.93487 412.33665,229.64177 412.48319,229.49522 412.81185,229.78832 412.9584,229.64177 413.10495,229.49522 412.8657,229.20539 412.9584,229.02002 413.08948,228.75787 413.44907,228.66042 413.58015,228.39827 413.67285,228.2129 413.48745,227.96189 413.58015,227.77652 413.71123,227.51436 414.07083,227.41692 414.2019,227.15476 414.2946,226.96939 414.1092,226.71838 414.2019,226.53301 414.33298,226.27086 414.69258,226.17341 414.82365,225.91126 414.91635,225.72589 414.73095,225.47488 414.82365,225.28951 416.88575,223.22742 414.53056,225.8757 415.44541,224.046 415.57648,223.78385 415.93608,223.6864 416.06716,223.42425 416.15986,223.23888 415.97446,222.98787 416.06716,222.8025 416.42929,222.07824 416.94853,221.6615 417.31066,220.93724 417.40336,220.75187 417.21796,220.50086 417.31066,220.31549 417.44174,220.05334 417.80134,219.95589 417.93242,219.69374 418.11779,219.323 417.80134,218.84346 417.93242,218.45023 418.07896,218.01059 418.40762,217.64638 418.55417,217.20673 418.61967,217.01011 418.46147,216.77035 418.55417,216.58498 418.68524,216.32282 419.04484,216.22538 419.17592,215.96323 419.36362,215.58783 418.88851,214.38538 419.17592,214.09797 419.32247,213.95142 419.65112,214.24452 419.79767,214.09797 420.09077,213.80487 419.50457,213.14756 419.79767,212.85447 420.62667,212.02546 420.41942,213.89072 420.41942,212.23271 420.41942,211.81821 420.12633,211.28231 420.41942,210.98921 420.56597,210.84266 420.89463,211.13576 421.04118,210.98921 421.33427,210.69611 420.8558,210.11645 421.04118,209.7457 421.40331,209.02144 421.92255,208.60471 422.28468,207.88045 422.47005,207.50971 422.09931,207.00769 422.28468,206.63694 422.41576,206.37479 422.77536,206.27735 422.90643,206.01519 423.0918,205.64445 422.72106,205.14243 422.90643,204.77169 423.03751,204.50953 423.39711,204.41209 423.52818,204.14994 423.62088,203.96457 423.43548,203.71355 423.52818,203.52818 423.89031,202.80392 424.40956,202.38719 424.77169,201.66293 424.86439,201.47756 424.67899,201.22655 424.77169,201.04118 424.90277,200.77902 425.26236,200.68158 425.39344,200.41942 425.48614,200.23405 425.30074,199.98304 425.39344,199.79767 425.52452,199.53552 425.88412,199.43807 426.01519,199.17592 426.20056,198.80518 425.7221,198.22551 426.01519,197.93242 426.16174,197.78587 426.4904,198.07896 426.63694,197.93242 426.93004,197.63932 426.34385,196.98201 426.63694,196.68891 426.78349,196.54236 427.11215,196.83546 427.2587,196.68891 427.40524,196.54236 427.166,196.25253 427.2587,196.06716 427.62083,195.3429 428.14007,194.92616 428.5022,194.2019 428.5949,194.01653 428.4095,193.76552 428.5022,193.58015 428.63328,193.318 428.99288,193.22055 429.12395,192.9584 429.21665,192.77303 429.03125,192.52202 429.12395,192.33665 429.25503,192.07449 429.61463,191.97705 429.7457,191.71489 429.8384,191.52952 429.59916,191.23969 429.7457,191.09314 429.89225,190.94659 430.22091,191.23969 430.36746,191.09314 430.66055,190.80005 430.07436,190.14273 430.36746,189.84964 430.51401,189.70309 430.84266,189.99619 430.98921,189.84964 431.13576,189.70309 430.89651,189.41326 430.98921,189.22789 431.25136,188.70358 431.97056,188.50869 432.23271,187.98438 432.32541,187.79901 432.14001,187.548 432.23271,187.36263 432.36379,187.10048 432.72339,187.00303 432.85447,186.74088 432.94717,186.55551 432.70792,186.26567 432.85447,186.11913 433.00101,185.97258 433.32967,186.26567 433.47622,186.11913 433.62277,185.97258 433.32967,185.64392 433.47622,185.49737 435.13422,185.49737 433.26897,185.70462 434.09797,184.87562 434.24452,184.72907 434.57317,185.02217 434.71972,184.87562 434.86627,184.72907 434.57317,184.40042 434.71972,184.25387 434.86627,184.10732 435.1561,184.34657 435.34147,184.25387 435.86578,183.99172 436.06067,183.27252 436.58498,183.01036 436.77035,182.91766 437.06018,183.15691 437.20673,183.01036 437.35328,182.86382 437.06018,182.53516 437.20673,182.38861 437.35328,182.24206 437.64311,182.48131 437.82848,182.38861 438.09064,182.25754 438.18808,181.89794 438.45023,181.76686 438.82098,181.58149 439.40064,182.05996 439.69374,181.76686 439.84029,181.62031 439.54719,181.29166 439.69374,181.14511 439.84029,180.99856 440.13012,181.23781 440.31549,181.14511 440.57764,181.01403 440.67509,180.65443 440.93724,180.52336 441.12261,180.43066 441.41245,180.6699 441.55899,180.52336 441.70554,180.37681 441.41245,180.04815 441.55899,179.9016 441.70554,179.75506 441.99538,179.9943 442.18075,179.9016 442.4429,179.77053 442.54035,179.41093 442.8025,179.27985 442.98787,179.18715 443.2777,179.4264 443.42425,179.27985 443.5708,179.1333 443.42425,178.86535 443.42425,178.6581 443.6315,178.6581 443.89945,178.80465 444.046,178.6581 444.19255,178.51155 443.89945,178.1829 444.046,178.03635 444.3391,177.74325 444.99641,178.32944 445.28951,178.03635 445.88628,177.43957 444.73414,177.4146 446.53301,177.4146 446.94751,177.4146 447.48342,177.70769 447.77652,177.4146 447.92306,177.26805 447.62997,176.93939 447.77652,176.79284 448.26256,176.3068 448.85815,177.33366 449.02002,177.4146 450.18062,177.9949 452.21168,176.83429 453.37228,177.4146 453.63444,177.54567 453.73188,177.90527 453.99404,178.03635 454.36943,178.22405 455.57188,177.74893 455.85929,178.03635 456.00584,178.1829 455.71274,178.51155 455.85929,178.6581 456.14671,178.94551 457.34915,178.4704 457.72455,178.6581 458.44881,179.02023 458.86554,179.53947 459.58981,179.9016 459.96055,180.08698 460.46257,179.71623 460.83331,179.9016 461.09546,180.03268 461.19291,180.39228 461.45506,180.52336 461.8258,180.70873 462.32782,180.33799 462.69857,180.52336 462.96072,180.65443 463.05816,181.01403 463.32032,181.14511 463.50569,181.23781 463.7567,181.05241 463.94207,181.14511 464.20422,181.27619 464.30167,181.63578 464.56382,181.76686 464.74919,181.85956 465.0002,181.67416 465.18557,181.76686 465.44773,181.89794 465.54517,182.25754 465.80733,182.38861 465.9927,182.48131 466.24371,182.29591 466.42908,182.38861 469.27459,183.81137 463.79073,182.13091 468.29433,183.63212 468.49095,183.69762 468.70884,183.63212 468.91609,183.63212 469.12334,183.83937 469.27569,184.12279 469.53784,184.25387 469.72321,184.34657 469.97422,184.16117 470.15959,184.25387 470.42174,184.38495 470.51919,184.74454 470.78134,184.87562 470.96671,184.96832 471.25655,184.72907 471.4031,184.87562 471.54964,185.02217 471.25655,185.35082 471.4031,185.49737 471.54964,185.64392 471.8783,185.35082 472.02485,185.49737 472.1714,185.64392 471.8783,185.97258 472.02485,186.11913 472.1714,186.26567 472.46123,186.02643 472.6466,186.11913 473.17091,186.38128 473.3658,187.10048 473.8901,187.36263 474.07547,187.45533 474.36531,187.21608 474.51186,187.36263 474.6584,187.50918 474.41916,187.79901 474.51186,187.98438 475.08707,189.13481 476.65492,189.8276 477.62062,190.47139 478.30651,190.92865 478.75136,191.96939 479.48587,192.33665 479.67124,192.42935 479.92225,192.24395 480.10762,192.33665 482.69521,193.63044 479.44295,192.29375 480.72938,193.58015 480.87593,193.7267 481.16576,193.48745 481.35113,193.58015 481.76563,193.7874 483.00913,195.03091 483.21639,195.44541 483.30909,195.63078 483.12369,195.88179 483.21639,196.06716 484.51018,198.65474 483.17349,195.40248 484.45989,196.68891 484.60644,196.83546 484.36719,197.12529 484.45989,197.31066 484.83294,198.05677 485.95209,198.42982 486.32515,199.17592 486.41785,199.36129 486.23245,199.6123 486.32515,199.79767 487.61894,202.38525 486.28225,199.133 487.56865,200.41942 488.18791,201.03868 488.94059,202.97065 490.05566,203.52818 490.91328,203.95699 490.6118,202.77521 491.29916,204.14994 491.39186,204.33531 491.20646,204.58632 491.29916,204.77169 491.56132,205.296 492.28051,205.49088 492.54267,206.01519 492.63537,206.20056 492.39612,206.4904 492.54267,206.63694 492.68921,206.78349 493.01787,206.4904 493.16442,206.63694 493.45752,206.93004 492.97905,207.50971 493.16442,207.88045 493.53747,208.62655 494.65662,208.9996 495.02967,209.7457 495.79535,211.27705 493.22489,209.18443 495.65143,211.61096 495.79798,211.75751 496.12663,211.46441 496.27318,211.61096 496.41973,211.75751 496.18048,212.04734 496.27318,212.23271 496.40426,212.49487 496.76385,212.59231 496.89493,212.85447 496.98763,213.03984 496.80223,213.29085 496.89493,213.47622 497.15708,214.00052 497.87628,214.19541 498.13844,214.71972 498.23114,214.90509 498.04574,215.1561 498.13844,215.34147 498.26951,215.60363 498.62911,215.70107 498.76019,215.96323 498.85289,216.1486 498.66749,216.39961 498.76019,216.58498 499.02234,217.10929 499.74154,217.30417 500.00369,217.82848 500.18906,218.19922 499.81832,218.70125 500.00369,219.07199 500.13477,219.33414 500.49437,219.43158 500.62544,219.69374 500.71814,219.87911 500.53274,220.13012 500.62544,220.31549 502.68754,222.37758 500.33235,219.7293 501.2472,221.55899 501.37827,221.82115 501.73787,221.91859 501.86895,222.18075 502.05432,222.55149 501.68358,223.05351 501.86895,223.42425 502.00002,223.6864 502.35962,223.78385 502.4907,224.046 502.67607,224.41674 502.30533,224.91877 502.4907,225.28951 502.62178,225.55166 502.98138,225.64911 503.11245,225.91126 503.29782,226.282 502.92708,226.78402 503.11245,227.15476 503.24353,227.41692 503.60313,227.51436 503.7342,227.77652 503.91957,228.14726 503.44111,228.72692 503.7342,229.02002 503.88075,229.16657 504.20941,228.87347 504.35596,229.02002 504.64905,229.31312 504.17059,229.89278 504.35596,230.26352 504.71809,230.98779 505.23733,231.40452 505.59946,232.12878 505.78716,232.50418 505.31205,233.70662 505.59946,233.99404 505.74601,234.14058 506.07466,233.84749 506.22121,233.99404 506.51431,234.28713 506.03584,234.8668 506.22121,235.23754 506.35229,235.49969 506.71189,235.59714 506.84296,235.85929 507.03066,236.23469 506.55555,237.43714 506.84296,237.72455 506.98951,237.8711 507.31817,237.578 507.46472,237.72455 507.87922,238.13905 507.05022,239.79706 507.46472,240.21156 507.61127,240.35811 507.93992,240.06501 508.08647,240.21156 508.37957,240.50465 508.08647,241.04056 508.08647,241.45506 508.08647,242.91318 507.93992,241.16197 508.70822,242.69857 508.95692,243.19597 508.45952,244.06642 508.70822,244.56382 508.8393,244.82598 509.1989,244.92342 509.32997,245.18557 509.57867,245.68298 509.08127,246.55343 509.32997,247.05083 509.46105,247.31298 509.82065,247.41043 509.95173,247.67258 510.36291,248.49495 509.95173,252.73316 509.95173,253.8901 509.95173,254.26952 510.19398,256.13485 509.95173,256.37711 509.80518,256.52366 509.47652,256.23056 509.32997,256.37711 509.04256,256.66453 509.51767,257.86697 509.32997,258.24237 509.1989,258.50452 508.8393,258.60197 508.70822,258.86412 508.52285,259.23486 508.89359,259.73688 508.70822,260.10762 508.57714,260.36978 508.21755,260.46722 508.08647,260.72938 507.9011,261.10012 508.37957,261.67978 508.08647,261.97288 507.93992,262.11943 507.61127,261.82633 507.46472,261.97288 507.17162,262.26598 507.65009,262.84564 507.46472,263.21639 507.33364,263.47854 506.97404,263.57598 506.84296,263.83814 506.75026,264.02351 506.98951,264.31334 506.84296,264.45989 506.69642,264.60644 506.36776,264.31334 506.22121,264.45989 505.92812,264.75299 506.40658,265.33265 506.22121,265.70339 504.15912,267.76549 506.51431,265.1172 505.59946,266.9469 505.46838,267.20905 505.10879,267.3065 504.97771,267.56865 504.88501,267.75402 505.12426,268.04385 504.97771,268.1904 504.83116,268.33695 504.5025,268.04385 504.35596,268.1904 504.20941,268.33695 504.5025,268.66561 504.35596,268.81215 504.20941,268.9587 503.88075,268.66561 503.7342,268.81215 503.58766,268.9587 503.8269,269.24854 503.7342,269.43391 503.47205,269.95821 502.75285,270.1531 502.4907,270.67741 502.398,270.86278 502.4907,271.09191 502.4907,271.29916 502.28345,271.50641 502.00002,271.65876 501.86895,271.92091 501.68358,272.29166 502.05432,272.79368 501.86895,273.16442 501.73787,273.42657 501.37827,273.52402 501.2472,273.78617 501.06183,274.15691 501.54029,274.73658 501.2472,275.02967 501.10065,275.17622 500.77199,274.88313 500.62544,275.02967 500.33803,275.31709 500.81314,276.51953 500.62544,276.89493 500.49437,277.15708 500.13477,277.25453 500.00369,277.51668 499.42339,278.67729 500.58399,280.70834 500.00369,281.86895 499.87261,282.1311 499.51302,282.22855 499.38194,282.4907 498.80164,283.6513 499.96224,285.68236 499.38194,286.84296 499.25086,287.10512 498.89126,287.20256 498.76019,287.46472 498.09699,288.79112 499.42339,291.11233 498.76019,292.43873 498.62911,292.70089 498.26951,292.79833 498.13844,293.06049 497.64103,294.05529 498.63584,295.79619 498.13844,296.791 498.00736,297.05315 497.64776,297.1506 497.51668,297.41275 497.33322,297.77969 497.51668,298.86011 497.51668,299.27801 497.51668,300.17842 497.91071,302.22048 497.51668,303.00852 497.38561,303.27067 497.02601,303.36812 496.89493,303.63027 496.41215,304.59583 497.23557,306.33887 496.89493,307.36078 496.80223,307.63884 496.40426,307.72038 496.27318,307.98254 495.77578,308.97734 496.77058,310.71825 496.27318,311.71305 496.1421,311.9752 495.7825,312.07265 495.65143,312.3348 495.15403,313.3296 496.14883,315.07051 495.65143,316.06531 495.52035,316.32747 495.16075,316.42491 495.02967,316.68707 494.8443,317.05781 495.32277,317.63747 495.02967,317.93057 494.88313,318.07712 494.55447,317.78402 494.40792,317.93057 494.11483,318.22367 494.70102,318.88098 494.40792,319.17407 494.26137,319.32062 493.93272,319.02753 493.78617,319.17407 493.63962,319.32062 493.87887,319.61045 493.78617,319.79583 493.65509,320.05798 493.2955,320.15542 493.16442,320.41758 493.07172,320.60295 493.31097,320.89278 493.16442,321.03933 493.01787,321.18588 492.68921,320.89278 492.54267,321.03933 492.39612,321.18588 492.68921,321.51453 492.54267,321.66108 492.39612,321.80763 492.06746,321.80763 491.92091,321.66108 491.77437,321.51453 492.01361,321.2247 491.92091,321.03933 491.78984,320.77718 491.43024,320.67973 491.29916,320.41758 491.20646,320.23221 491.29916,320.00308 491.29916,319.79583 491.09191,319.58857 490.80849,319.43623 490.67741,319.17407 490.58471,318.9887 490.77011,318.73769 490.67741,318.55232 490.31528,317.82806 489.79604,317.41133 489.43391,316.68707 489.34121,316.50169 489.52661,316.25068 489.43391,316.06531 489.30283,315.80316 488.90484,315.72162 488.81215,315.44356 488.37261,314.12494 489.346,310.29374 488.81215,309.22604 488.68108,308.96389 488.32148,308.86644 488.1904,308.60429 487.93222,308.08793 488.1904,306.70672 488.1904,306.11728 488.1904,305.21687 488.58442,303.17481 488.1904,302.38677 488.05932,302.12461 487.69973,302.02717 487.56865,301.76501 487.31995,301.26761 487.81735,300.39716 487.56865,299.89976 487.43757,299.6376 487.07797,299.54016 486.9469,299.27801 486.6982,298.7806 487.1956,297.91015 486.9469,297.41275 486.81582,297.1506 486.41783,297.06905 486.32515,296.791 485.92233,295.58255 486.89355,293.57554 486.32515,292.43873 486.19407,292.17658 485.83447,292.07914 485.70339,291.81698 485.37651,291.16321 485.70339,289.45503 485.70339,288.70822 485.70339,281.45445 485.70339,274.20067 485.70339,266.9469 485.70339,265.60025 486.03376,258.28135 485.70339,257.62062 485.57232,257.35846 485.21272,257.26102 485.08164,256.99886 484.89627,256.62812 485.21272,256.14859 485.08164,255.75536 484.93509,255.31571 484.60644,254.9515 484.45989,254.51186 484.32881,254.11863 484.59097,253.66158 484.45989,253.26835 484.25264,252.85385 484.04539,252.43935 483.83814,252.02485 483.83814,251.8176 483.90364,251.59971 483.83814,251.4031 482.33693,246.89949 484.01739,252.38335 482.59463,249.53784 482.40926,249.1671 482.88773,248.58743 482.59463,248.29433 482.44808,248.14779 482.11943,248.44088 481.97288,248.29433 481.82633,248.14779 482.06558,247.85795 481.97288,247.67258 481.8418,247.41043 481.44381,247.32889 481.35113,247.05083 481.15451,246.46098 481.62918,245.74169 481.35113,245.18557 481.22005,244.92342 480.93663,244.77107 480.72938,244.56382 480.72938,243.94207 480.88017,243.30175 480.72938,242.69857 480.65828,242.41422 480.2387,242.33897 480.10762,242.07681 479.92225,241.70607 480.293,241.20405 480.10762,240.83331 479.97655,240.57116 479.61695,240.47371 479.48587,240.21156 479.3005,239.84082 479.67124,239.33879 479.48587,238.96805 479.3548,238.7059 478.9952,238.60845 478.86412,238.3463 478.77142,238.16093 478.95682,237.90992 478.86412,237.72455 478.60197,237.20024 477.88277,237.00535 477.62062,236.48105 477.52792,236.29567 477.71332,236.04466 477.62062,235.85929 477.48954,235.59714 477.12994,235.49969 476.99886,235.23754 476.90616,235.05217 477.09156,234.80116 476.99886,234.61579 476.73671,234.09148 476.01751,233.89659 475.75536,233.37228 475.66266,233.18691 475.90191,232.89708 475.75536,232.75053 475.60881,232.60398 475.28016,232.89708 475.13361,232.75053 474.98706,232.60398 475.22631,232.31415 475.13361,232.12878 475.00253,231.86663 474.64293,231.76918 474.51186,231.50703 474.41916,231.32166 474.6584,231.03182 474.51186,230.88528 474.36531,230.73873 474.07547,230.97798 473.8901,230.88528 473.144,230.51222 472.77095,229.39307 472.02485,229.02002 471.83948,228.92732 471.61035,229.02002 471.4031,229.02002 471.19584,228.81277 471.0435,228.52934 470.78134,228.39827 470.59597,228.30557 470.30614,228.54482 470.15959,228.39827 470.01304,228.25172 470.30614,227.92306 470.15959,227.77652 469.86649,227.48342 469.20918,228.06961 468.91609,227.77652 468.76954,227.62997 469.06264,227.30131 468.91609,227.15476 468.62299,226.86167 468.04332,227.34013 467.67258,227.15476 467.41043,227.02369 467.31298,226.66409 467.05083,226.53301 466.38733,226.20126 466.47083,226.86476 465.80733,226.53301 465.54517,226.40193 465.44773,226.04234 465.18557,225.91126 465.0002,225.81856 464.71037,226.05781 464.56382,225.91126 464.41727,225.76471 464.71037,225.43606 464.56382,225.28951 464.25358,224.97927 461.9419,225.28951 461.45506,225.28951 460.856,225.28951 455.296,225.23101 455.23754,225.28951 455.09099,225.43606 455.38409,225.76471 455.23754,225.91126 454.95013,226.19867 453.74768,225.72356 453.37228,225.91126 452.64802,226.27339 452.23129,226.79263 451.50703,227.15476 450.84353,227.48651 450.92702,226.82301 450.26352,227.15476 448.20143,229.21686 450.84972,226.86167 449.02002,227.77652 448.49571,228.03867 448.30082,228.75787 447.77652,229.02002 447.59115,229.11272 447.30131,228.87347 447.15476,229.02002 447.00822,229.16657 447.30131,229.49522 447.15476,229.64177 446.86167,229.93487 446.20436,229.34868 445.91126,229.64177 445.76471,229.78832 446.05781,230.11698 445.91126,230.26352 445.61816,230.55662 444.96085,229.97043 444.66776,230.26352 444.52121,230.41007 444.8143,230.73873 444.66776,230.88528 444.37466,231.17837 443.79499,230.69991 443.42425,230.88528 442.69999,231.24741 442.28326,231.76665 441.55899,232.12878 441.37362,232.22148 441.08379,231.98223 440.93724,232.12878 440.79069,232.27533 441.08379,232.60398 440.93724,232.75053 440.79069,232.89708 440.46204,232.60398 440.31549,232.75053 440.16894,232.89708 440.46204,233.22574 440.31549,233.37228 440.16894,233.51883 439.84029,233.22574 439.69374,233.37228 439.54719,233.51883 439.84029,233.84749 439.69374,233.99404 439.54719,234.14058 439.25736,233.90134 439.07199,233.99404 438.32588,234.36709 437.95283,235.48624 437.20673,235.85929 437.02136,235.95199 436.73153,235.71274 436.58498,235.85929 436.43843,236.00584 436.67768,236.29567 436.58498,236.48105 436.26824,237.11453 435.22416,237.84186 434.71972,238.3463 434.30522,238.7608 434.00052,239.32765 433.47622,239.58981 433.29085,239.68251 433.00101,239.44326 432.85447,239.58981 432.70792,239.73635 432.94717,240.02619 432.85447,240.21156 432.72339,240.47371 432.36379,240.57116 432.23271,240.83331 432.14001,241.01868 432.37926,241.30851 432.23271,241.45506 432.08616,241.60161 431.79633,241.36236 431.61096,241.45506 431.01007,241.75551 429.4244,243.34118 429.12395,243.94207 429.03125,244.12744 429.2705,244.41727 429.12395,244.56382 428.9774,244.71037 428.64875,244.41727 428.5022,244.56382 428.35565,244.71037 428.64875,245.03903 428.5022,245.18557 428.35565,245.33212 428.027,245.03903 427.88045,245.18557 427.7339,245.33212 428.027,245.66078 427.88045,245.80733 427.7339,245.95387 427.40524,245.66078 427.2587,245.80733 427.11215,245.95387 427.40524,246.28253 427.2587,246.42908 427.11215,246.57563 426.78349,246.28253 426.63694,246.42908 426.4904,246.57563 426.72964,246.86546 426.63694,247.05083 426.13954,248.04563 424.64734,248.54304 424.14994,249.53784 424.05724,249.72321 424.29648,250.01304 424.14994,250.15959 424.00339,250.30614 423.67473,250.01304 423.52818,250.15959 423.38164,250.30614 423.62088,250.59597 423.52818,250.78134 423.19572,251.44628 422.61715,251.35991 422.28468,252.02485 422.19198,252.21022 422.43123,252.50005 422.28468,252.6466 422.13813,252.79315 421.80948,252.50005 421.66293,252.6466 421.51638,252.79315 421.75563,253.08298 421.66293,253.26835 421.53185,253.53051 421.17225,253.62795 421.04118,253.8901 420.94848,254.07547 421.18772,254.36531 421.04118,254.51186 420.89463,254.6584 420.56597,254.36531 420.41942,254.51186 420.27288,254.6584 420.51212,254.94824 420.41942,255.13361 420.28835,255.39576 419.92875,255.49321 419.79767,255.75536 419.70497,255.94073 419.94422,256.23056 419.79767,256.37711 419.65112,256.52366 419.32247,256.23056 419.17592,256.37711 419.02937,256.52366 419.32247,256.85232 419.17592,256.99886 419.02937,257.14541 418.76142,256.99886 418.55417,256.99886 418.55417,257.20611 418.70072,257.47407 418.55417,257.62062 418.40762,257.76716 418.07896,257.47407 417.93242,257.62062 417.78587,257.76716 418.07896,258.09582 417.93242,258.24237 417.78587,258.38892 417.45721,258.09582 417.31066,258.24237 417.16411,258.38892 417.40336,258.67875 417.31066,258.86412 417.04851,259.38843 416.32931,259.58332 416.06716,260.10762 415.97446,260.293 416.21371,260.58283 416.06716,260.72938 415.92061,260.87593 415.59196,260.58283 415.44541,260.72938 415.29886,260.87593 415.59196,261.20458 415.44541,261.35113 415.29886,261.49768 414.9702,261.20458 414.82365,261.35113 414.67711,261.49768 414.9702,261.82633 414.82365,261.97288 414.67711,262.11943 414.34845,261.82633 414.2019,261.97288 414.05535,262.11943 414.34845,262.44808 414.2019,262.59463 412.91548,263.88106 414.2522,260.6288 412.9584,263.21639 412.8657,263.40176 413.10495,263.69159 412.9584,263.83814 412.81185,263.98469 412.5439,263.83814 412.33665,263.83814 411.30039,263.83814 410.26414,263.83814 409.22789,263.83814 z"
       inkscape:connector-curvature="0"
       id="path4721"
       style="fill:none;stroke:#0000e9;stroke-width:1;stroke-miterlimit:4;stroke-opacity:1;stroke-dasharray:none;stroke-dashoffset:0" />
    <path
       d="M 509.32997,248.91609 616.96204,252.6466"
       inkscape:connector-curvature="0"
       id="path4723"
       style="fill:none;stroke:#0000e9;stroke-width:1;stroke-miterlimit:4;stroke-opacity:1;stroke-dasharray:none;stroke-dashoffset:0" />
    <path
       d="M 443.42425,178.34723 457.72454,85.706162"
       inkscape:connector-curvature="0"
       id="path4725"
       style="fill:none;stroke:#0000e9;stroke-width:1;stroke-miterlimit:4;stroke-opacity:1;stroke-dasharray:none;stroke-dashoffset:0" />
    <path
       d="M 435.96323,182.38861 373.78802,101.56084"
       inkscape:connector-curvature="0"
       id="path4727"
       style="fill:none;stroke:#0000e9;stroke-width:1;stroke-miterlimit:4;stroke-opacity:1;stroke-dasharray:none;stroke-dashoffset:0" />
    <path
       d="M 430.36746,189.84964 C 409.84964,175.7204 389.33182,157.12097 368.814,136.37896"
       inkscape:connector-curvature="0"
       id="path4729"
       style="fill:none;stroke:#0000e9;stroke-width:1;stroke-miterlimit:4;stroke-opacity:1;stroke-dasharray:none;stroke-dashoffset:0" />
    <path
       d="M 417.31066,216.58498 C 401.14511,217.14947 384.97955,215.56126 368.814,207.88045"
       inkscape:connector-curvature="0"
       id="path4731"
       style="fill:none;stroke:#0000e9;stroke-width:1;stroke-miterlimit:4;stroke-opacity:1;stroke-dasharray:none;stroke-dashoffset:0" />
    <path
       d="M 411.09314,250.78134 369.43575,247.67258"
       inkscape:connector-curvature="0"
       id="path4733"
       style="fill:none;stroke:#0000e9;stroke-width:1;stroke-miterlimit:4;stroke-opacity:1;stroke-dasharray:none;stroke-dashoffset:0" />
    <path
       d="M 508.70822,250.78134 C 510.48587,249.65084 510.84706,252.16164 511.81698,252.6466 512.00235,252.7393 512.25336,252.5539 512.43873,252.6466 512.70089,252.77768 512.79833,253.13727 513.06049,253.26835 513.43123,253.45372 514.01089,252.97525 514.30399,253.26835 514.45054,253.4149 514.15744,253.74356 514.30399,253.8901 514.45054,254.03665 514.74037,253.7974 514.92574,253.8901 517.51333,255.1839 514.26107,253.8472 515.54749,255.13361 515.69404,255.28016 516.0227,254.98706 516.16925,255.13361 516.46234,255.4267 515.98388,256.00637 516.16925,256.37711 516.30032,256.63927 516.65992,256.73671 516.791,256.99886 517.11715,257.65117 516.29474,259.61137 516.791,260.10762 516.93755,260.25417 517.2662,259.96108 517.41275,260.10762 517.50045,260.19532 517.47655,261.84534 517.41275,261.97288 517.28167,262.23503 516.92207,262.33248 516.791,262.59463 516.60563,262.96537 517.08409,263.54504 516.791,263.83814 516.64445,263.98469 516.31579,263.69159 516.16925,263.83814 515.87615,264.13123 516.35462,264.7109 516.16925,265.08164 515.80712,265.8059 515.28787,266.22264 514.92574,266.9469 514.51124,267.7759 515.34024,269.22666 514.92574,270.05566 514.79467,270.31781 514.43507,270.41526 514.30399,270.67741 514.11862,271.04815 514.59709,271.62782 514.30399,271.92091 514.15744,272.06746 513.82879,271.77437 513.68224,271.92091 513.18598,272.41717 514.00839,274.37737 513.68224,275.02967 513.55116,275.29183 513.19156,275.38927 513.06049,275.65143 512.39555,276.9813 513.72542,275.56503 513.06049,276.89493 512.92941,277.15708 512.56981,277.25453 512.43873,277.51668 512.10482,278.18451 512.77265,278.09236 512.43873,278.76019 512.30766,279.02234 511.94806,279.11979 511.81698,279.38194 511.63161,279.75268 512.11008,280.33235 511.81698,280.62544 511.67043,280.77199 511.34178,280.4789 511.19523,280.62544 510.90213,280.91854 511.3806,281.49821 511.19523,281.86895 511.06415,282.1311 510.70455,282.22855 510.57348,282.4907 510.32478,282.9881 510.82218,283.85855 510.57348,284.35596 510.4424,284.61811 510.0828,284.71555 509.95173,284.97771 509.70302,285.47511 510.20043,286.34556 509.95173,286.84296 509.82065,287.10512 509.46105,287.20256 509.32997,287.46472 509.14227,287.84011 509.61739,289.04256 509.32997,289.32997 509.18342,289.47652 508.85477,289.18342 508.70822,289.32997 508.08647,289.95173 509.32997,292.43873 508.70822,293.06049 508.56167,293.20703 508.23302,292.91394 508.08647,293.06049 507.84421,293.30274 508.08647,295.16807 508.08647,295.54749 508.08647,296.08507 508.13707,301.0927 508.08647,301.14326 507.93992,301.28981 507.61127,300.99671 507.46472,301.14326 507.1773,301.43068 507.65242,302.63312 507.46472,303.00852 507.33364,303.27067 506.97404,303.36812 506.84296,303.63027 506.75026,303.81564 506.98951,304.10547 506.84296,304.25202 506.69642,304.39857 506.36776,304.10547 506.22121,304.25202 506.07466,304.39857 506.31391,304.6884 506.22121,304.87378 504.92742,307.46136 506.26411,304.2091 504.97771,305.49553 504.83116,305.64208 505.12426,305.97073 504.97771,306.11728 504.83116,306.26383 504.56321,306.11728 504.35596,306.11728 504.35596,306.32453 504.5025,306.59248 504.35596,306.73903 504.20941,306.88558 503.88075,306.59248 503.7342,306.73903 503.58766,306.88558 503.88075,307.21424 503.7342,307.36078 503.58766,307.50733 503.259,307.21424 503.11245,307.36078 502.9659,307.50733 503.259,307.83599 503.11245,307.98254 502.81936,308.27563 502.16204,307.68944 501.86895,307.98254 501.7224,308.12908 501.86895,308.39704 501.86895,308.60429 501.6617,308.60429 501.39374,308.45774 501.2472,308.60429 501.10065,308.75084 501.39374,309.07949 501.2472,309.22604 500.9541,309.51914 500.29679,308.93294 500.00369,309.22604 499.85714,309.37259 500.00369,309.64054 500.00369,309.84779 499.79644,309.84779 499.52849,309.70124 499.38194,309.84779 499.23539,309.99434 499.52849,310.323 499.38194,310.46954 499.08884,310.76264 498.43153,310.17645 498.13844,310.46954 497.99189,310.61609 498.28498,310.94475 498.13844,311.0913 497.89618,311.33355 496.03085,311.0913 495.65143,311.0913 494.36687,311.0913 495.42832,312.73345 494.40792,311.71305 494.24334,311.54847 494.40792,310.10381 494.40792,309.84779"
       inkscape:connector-curvature="0"
       id="path4735"
       style="fill:none;stroke:#0000e9;stroke-width:1;stroke-miterlimit:4;stroke-opacity:1;stroke-dasharray:none;stroke-dashoffset:0" />
    <path
       d="M 512.43873,273.78617 C 513.26774,274.20067 514.51124,275.85868 514.92574,275.02967 515.34024,274.20067 511.78335,273.13079 512.43873,273.78617 513.47499,274.40792 514.51124,275.02967 515.54749,275.65143 515.75474,275.65143 515.98388,275.55873 516.16925,275.65143 516.4314,275.7825 516.52884,276.1421 516.791,276.27318 517.30866,276.53201 518.88362,275.87879 519.27801,276.27318 519.42455,276.41973 519.13146,276.74838 519.27801,276.89493 519.56542,277.18234 520.76787,276.70723 521.14326,276.89493 521.40542,277.02601 521.50286,277.38561 521.76501,277.51668 522.28268,277.77551 523.85764,277.1223 524.25202,277.51668 524.39857,277.66323 524.10547,277.99189 524.25202,278.13844 524.54512,278.43153 525.12479,277.95306 525.49553,278.13844 525.75768,278.26951 525.85513,278.62911 526.11728,278.76019 526.30265,278.85289 526.53178,278.76019 526.73903,278.76019 526.94628,278.96744 527.09863,279.25086 527.36078,279.38194 527.54615,279.47464 527.79717,279.28924 527.98254,279.38194 528.7068,279.74407 529.12353,280.26331 529.84779,280.62544 530.03316,280.71814 530.323,280.4789 530.46954,280.62544 530.61609,280.77199 530.323,281.10065 530.46954,281.2472 530.76264,281.54029 531.34231,281.06183 531.71305,281.2472 531.9752,281.37827 532.07265,281.73787 532.3348,281.86895 532.70554,282.05432 533.28521,281.57585 533.5783,281.86895 533.72485,282.0155 533.43176,282.34415 533.5783,282.4907 533.72485,282.63725 534.05351,282.34415 534.20006,282.4907 534.34661,282.63725 534.05351,282.9659 534.20006,283.11245 534.34661,283.259 534.63644,283.01975 534.82181,283.11245 535.54607,283.47458 535.9628,283.99383 536.68707,284.35596 536.87244,284.44866 537.16227,284.20941 537.30882,284.35596 537.45537,284.5025 537.16227,284.83116 537.30882,284.97771 537.60191,285.27081 538.18158,284.79234 538.55232,284.97771 539.27658,285.33984 539.69332,285.85908 540.41758,286.22121 540.60295,286.31391 540.85396,286.12851 541.03933,286.22121 541.56364,286.48337 541.75853,287.20256 542.28283,287.46472 542.4682,287.55742 542.71922,287.37202 542.90459,287.46472 543.16674,287.59579 543.26418,287.95539 543.52634,288.08647 543.71171,288.17917 544.00154,287.93992 544.14809,288.08647 544.29464,288.23302 544.00154,288.56167 544.14809,288.70822 544.29464,288.85477 544.58447,288.61552 544.76984,288.70822 545.29415,288.97037 545.48904,289.68957 546.01335,289.95173 546.19872,290.04443 546.44973,289.85903 546.6351,289.95173 547.3812,290.32478 547.75425,291.44393 548.50035,291.81698 548.68573,291.90968 548.97556,291.67043 549.12211,291.81698 549.26866,291.96353 549.02941,292.25336 549.12211,292.43873 549.38426,292.96304 549.8413,293.42008 550.36561,293.68224 550.55098,293.77494 550.84081,293.53569 550.98736,293.68224 552.27379,294.96866 549.02153,293.63194 551.60912,294.92574 551.79449,295.01844 552.08432,294.77919 552.23087,294.92574 552.37742,295.07229 552.08432,295.40095 552.23087,295.54749 552.37742,295.69404 552.70607,295.40095 552.85262,295.54749 552.99917,295.69404 552.75992,295.98388 552.85262,296.16925 553.11477,296.69355 553.57182,297.1506 554.09612,297.41275 554.28149,297.50545 554.57133,297.2662 554.71788,297.41275 554.86442,297.5593 554.57133,297.88795 554.71788,298.0345 554.86442,298.18105 555.15426,297.9418 555.33963,298.0345 557.92721,299.32829 554.67495,297.9916 555.96138,299.27801 556.10793,299.42455 556.39776,299.18531 556.58313,299.27801 556.84529,299.40908 556.99763,299.69251 557.20488,299.89976 557.41213,300.10701 557.56448,300.39043 557.82664,300.52151 558.01201,300.61421 558.30184,300.37496 558.44839,300.52151 558.59494,300.66806 558.30184,300.99671 558.44839,301.14326 558.59494,301.28981 558.88477,301.05056 559.07014,301.14326 561.65772,302.43705 558.40547,301.10036 559.69189,302.38677 559.83844,302.53332 560.12827,302.29407 560.31364,302.38677 560.94713,302.70351 561.67446,303.74758 562.1789,304.25202 563.05333,305.12645 564.73939,306.26424 565.28766,307.36078 565.38036,307.54615 565.14111,307.83599 565.28766,307.98254 565.43421,308.12908 565.76287,307.83599 565.90941,307.98254 566.05596,308.12908 565.76287,308.45774 565.90941,308.60429 567.19584,309.89072 565.85911,306.63846 567.15292,309.22604 567.24562,309.41141 567.00637,309.70124 567.15292,309.84779 567.29947,309.99434 567.62812,309.70124 567.77467,309.84779 567.92122,309.99434 567.68197,310.28417 567.77467,310.46954 569.06846,313.05713 567.73177,309.80487 569.01817,311.0913 569.16472,311.23784 568.92547,311.52768 569.01817,311.71305 569.28033,312.23736 569.99952,312.43225 570.26168,312.95655 570.35438,313.14192 570.16898,313.39293 570.26168,313.5783 570.52383,314.10261 571.24303,314.2975 571.50518,314.82181 571.59788,315.00718 571.35863,315.29701 571.50518,315.44356 571.65173,315.59011 571.98039,315.29701 572.12693,315.44356 572.27348,315.59011 572.03423,315.87994 572.12693,316.06531 574.18903,318.12741 571.83384,315.47912 572.74869,317.30882 573.01084,317.83312 573.73004,318.02801 573.99219,318.55232 574.08489,318.73769 573.99219,318.96682 573.99219,319.17407 574.19944,319.38132 574.48287,319.53367 574.61394,319.79583 574.79931,320.16657 574.32085,320.74623 574.61394,321.03933 574.76049,321.18588 575.08915,320.89278 575.2357,321.03933 575.38224,321.18588 575.143,321.47571 575.2357,321.66108 575.36677,321.92324 575.72637,322.02068 575.85745,322.28283 575.95015,322.4682 575.7109,322.75804 575.85745,322.90459 576.004,323.05113 576.33265,322.75804 576.4792,322.90459 576.62575,323.05113 576.3865,323.34097 576.4792,323.52634 576.61028,323.78849 576.96987,323.88594 577.10095,324.14809 577.19365,324.33346 577.00825,324.58447 577.10095,324.76984 577.3631,325.29415 578.0823,325.48904 578.34446,326.01335 578.43716,326.19872 578.19791,326.48855 578.34446,326.6351 578.491,326.78165 578.81966,326.48855 578.96621,326.6351 579.11276,326.78165 578.87351,327.07148 578.96621,327.25685 579.73451,328.79345 579.58796,327.04224 579.58796,328.50035 579.58796,330.15836 579.38071,328.2931 580.20971,329.12211 580.35626,329.26866 580.11701,329.55849 580.20971,329.74386 580.34079,330.00601 580.70039,330.10346 580.83146,330.36561 580.92416,330.55098 580.68492,330.84081 580.83146,330.98736 580.97801,331.13391 581.30667,330.84081 581.45322,330.98736 581.59976,331.13391 581.36052,331.42374 581.45322,331.60912 581.53412,331.77099 582.56101,332.36658 582.07497,332.85262 581.92842,332.99917 581.66047,332.85262 581.45322,332.85262 581.24597,332.85262 580.97801,332.99917 580.83146,332.85262 580.68492,332.70607 580.92416,332.41624 580.83146,332.23087 580.38781,331.34355 579.58796,331.47738 579.58796,330.36561"
       inkscape:connector-curvature="0"
       id="path4737"
       style="fill:none;stroke:#0000e9;stroke-width:1;stroke-miterlimit:4;stroke-opacity:1;stroke-dasharray:none;stroke-dashoffset:0" />
    <path
       d="M 495.02967,310.46954 C 494.65519,311.97422 497.93918,313.51755 496.10955,311.33407 494.99255,311.11994 498.20778,314.54551 499.57227,314.95444 501.89488,316.6555 504.46147,315.45253 506.73191,314.48094 510.38171,313.73004 514.25714,314.94087 517.782,313.40658 521.76124,312.05148 525.48968,310.04455 529.60235,309.06885 533.0064,308.12779 536.49016,307.47019 539.8922,306.61272 543.96203,306.48909 547.53485,308.88896 550.98629,310.72067 555.77569,313.58746 560.69198,316.23816 565.49029,319.09726 569.45613,321.69107 573.82543,323.58631 577.7607,326.21747 579.65373,326.96401 578.51657,328.3519 577.7227,326.6351"
       inkscape:connector-curvature="0"
       id="path4739"
       style="fill:none;stroke:#0000e9;stroke-width:1;stroke-miterlimit:4;stroke-opacity:1;stroke-dasharray:none;stroke-dashoffset:0" />
    <path
       d="M 415.44541,258.86412 C 416.00024,261.09563 413.48573,258.97806 414.08281,260.36331 412.85427,263.84013 412.57173,267.25417 411.687,270.96783 411.07339,274.32595 410.82899,277.81829 410.46373,281.35739 409.10396,284.83597 409.89807,288.67995 411.54747,291.86477 415.04242,292.04807 417.82197,290.4559 419.30697,287.35878 419.84989,285.12262 422.06138,283.72582 422.35392,280.86869 423.06181,277.57091 424.49515,275.25552 425.98508,272.66594 427.224,268.98648 429.03234,267.45239 428.64765,263.91299 429.31953,259.7928 430.0249,255.2841 428.30929,251.32512 427.72071,249.21314 425.83321,246.9567 424.08976,247.2403 L 424.14996,247.67259"
       inkscape:connector-curvature="0"
       id="path4741"
       style="fill:none;stroke:#0000e9;stroke-width:1;stroke-miterlimit:4;stroke-opacity:1;stroke-dasharray:none;stroke-dashoffset:0" />
    <path
       d="M 428.5022,242.69857 C 429.67869,247.50874 431.10113,241.46918 428.68285,243.66567 432.66127,248.8187 433.46959,255.81772 432.81237,262.42405 433.6026,269.87704 432.13675,277.20429 431.70703,284.61579 432.73024,293.37901 445.07089,292.22954 450.2104,298.16544 456.39921,302.78267 463.61683,305.52944 470.54163,308.74118 475.73856,310.8845 480.00846,315.25843 485.89332,315.41856 488.96709,315.49906 492.33897,316.44322 487.21358,316.09682 L 486.32515,315.44363"
       inkscape:connector-curvature="0"
       id="path4743"
       style="fill:none;stroke:#0000e9;stroke-width:1;stroke-miterlimit:4;stroke-opacity:1;stroke-dasharray:none;stroke-dashoffset:0" />
    <path
       d="M 407.98438,263.83814 C 396.21661,272.12334 383.48221,271.70892 370.0575,265.08164"
       inkscape:connector-curvature="0"
       id="path4745"
       style="fill:none;stroke:#0000e9;stroke-width:1;stroke-miterlimit:4;stroke-opacity:1;stroke-dasharray:none;stroke-dashoffset:0" />
    <path
       d="M 396.79284,268.81215 C 398.14967,272.63077 397.1385,276.70817 397.41213,280.65169 397.41613,284.1662 397.43393,287.68074 397.41413,291.19523 395.75747,292.01979 397.6583,294.75436 396.18134,295.99228 395.68225,299.22115 395.69601,302.38222 395.27011,305.56104 394.4494,308.10481 394.4128,311.24542 392.96558,313.07364 392.43346,315.05049 390.98944,316.3932 389.72014,317.93824 388.31167,319.96178 386.94455,321.28246 384.26945,321.12809 382.67928,319.74134 379.4374,320.7536 377.80082,318.89635 375.89699,319.69192 373.8877,317.99002 372.03982,318.51627 371.32503,317.26288 370.76254,317.79616 371.31264,318.74635 370.96457,319.10675 370.31796,319.48122 370.67881,318.55232"
       inkscape:connector-curvature="0"
       id="path4747"
       style="fill:none;stroke:#0000e9;stroke-width:1;stroke-miterlimit:4;stroke-opacity:1;stroke-dasharray:none;stroke-dashoffset:0" />
    <path
       d="M 379.38379,384.45804 C 382.2398,383.51168 380.56029,380.3315 379.55139,384.02291 382.29705,381.27128 384.3179,376.93767 388.12518,374.92421 392.34015,373.25462 397.60113,372.34921 401.90401,374.13037 404.81913,376.38129 407.59366,379.16638 410.73745,381.94808 415.56212,384.62989 420.10521,388.44368 425.39344,390.05381 429.12194,391.78139 433.82444,391.53539 438.08004,392.0043 450.05095,392.72481 460.36848,391.32596 471.26221,388.15178 478.06038,385.71722 485.57782,388.55149 492.24635,385.72174 496.07641,383.17252 500.52315,381.39822 505.02134,380.55019 510.0992,380.33943 514.15923,383.99794 514.85268,388.92294 514.17953,391.63274 519.25051,395.17791 514.92578,393.78433"
       inkscape:connector-curvature="0"
       id="path4749"
       style="fill:none;stroke:#0000e9;stroke-width:1;stroke-miterlimit:4;stroke-opacity:1;stroke-dasharray:none;stroke-dashoffset:0" />
    <path
       d="M 403.01036,376.99702 C 407.56987,377.01012 412.1294,376.97832 416.68891,376.99702 420.3374,378.96245 424.18459,380.55151 427.86743,382.43238 431.46191,384.11814 435.32333,384.90491 439.22317,384.37325 444.33847,385.38906 449.26127,383.3085 454.15882,382.14293 458.15174,380.58311 462.72126,381.39372 466.56377,379.37293 473.094,376.50331 480.56231,376.94201 487.04206,373.91699 491.45299,373.12159 496.11382,375.20918 498.75932,378.76781 499.39706,380.30322 502.65805,382.4591 500.8655,383.13105 L 501.2472,382.59279"
       inkscape:connector-curvature="0"
       id="path4751"
       style="fill:none;stroke:#0000e9;stroke-width:1;stroke-miterlimit:4;stroke-opacity:1;stroke-dasharray:none;stroke-dashoffset:0" />
    <path
       d="M 538.55232,307.36078 C 539.63119,313.41204 540.23475,321.19495 534.64903,325.27609 529.12055,328.78412 523.73176,332.52319 518.36115,336.24805 511.09387,339.53169 504.92572,344.7193 498.97943,349.93715 495.88408,353.64572 494.50359,358.70643 494.92475,363.5293 495.92777,367.32055 493.59766,374.31052 494.40796,375.13176"
       inkscape:connector-curvature="0"
       id="path4753"
       style="fill:none;stroke:#0000e9;stroke-width:1;stroke-miterlimit:4;stroke-opacity:1;stroke-dasharray:none;stroke-dashoffset:0" />
    <path
       d="M 526.42816,117.7264 478.86412,192.33665"
       inkscape:connector-curvature="0"
       id="path4755"
       style="fill:#68b88b;fill-opacity:1;stroke:#0000e9;stroke-width:1;stroke-miterlimit:4;stroke-opacity:1;stroke-dasharray:none;stroke-dashoffset:0" />
    <path
       d="M 539.17407,126.12005 483.21639,194.82366"
       inkscape:connector-curvature="0"
       id="path4757"
       style="fill:#68b88b;fill-opacity:1;stroke:#0000e9;stroke-width:1;stroke-miterlimit:4;stroke-opacity:1;stroke-dasharray:none;stroke-dashoffset:0" />
    <path
       d="M 398.08479,373.70316 C 400.17428,373.74146 402.84233,374.41674 403.35026,376.67591 407.55058,379.02789 410.77901,382.6984 415.08583,384.95299 420.58673,388.91225 426.86694,391.94937 433.75782,391.90884 444.31911,392.53976 454.9969,391.49061 465.40889,390.10187 473.79051,386.77554 483.06101,388.19376 491.61962,386.11877 494.6875,385.2247 497.90077,381.95422 501.02362,383.37918 503.72732,379.09629 510.83214,381.23079 512.81748,385.26386 514.24644,388.27188 516.5333,393.1627 512.40946,395.19247 505.19398,400.46206 498.19443,406.27831 489.54389,409.05709 482.3858,411.48737 475.24156,413.74974 468.0319,415.94344 460.39163,416.65 453.03871,414.47186 445.39624,415.22454 437.55291,415.01214 429.5395,416.37314 421.78909,415.12744 419.9518,413.52189 417.24259,413.36096 416.01846,411.10549 414.46699,410.59846 412.98215,409.88503 411.54961,409.0265 407.01059,409.23333 403.23514,406.06331 399.23115,404.26621 391.8674,398.96409 384.03078,392.92715 380.65631,384.21471 381.95632,380.28104 385.48104,376.93495 389.10825,374.96615 391.9661,373.9763 395.06483,373.59555 398.08479,373.70321 z"
       inkscape:connector-curvature="0"
       id="path4759"
       style="fill:none;stroke:none" />
    <path
       d="M 489.7738,374.30548 C 493.10062,375.14892 500.54383,377.52964 497.94909,381.91432 494.79001,384.19944 491.00941,385.79663 487.24749,386.81963 482.6983,387.66449 478.09012,385.92199 473.57074,387.37364 467.07015,388.87918 460.62224,390.95836 453.86856,390.77707 449.52658,391.24477 445.24913,392.11797 440.86444,391.61628 433.38104,391.64288 425.48963,391.01287 419.13874,386.63602 414.74181,384.14333 410.34188,381.48812 406.80875,377.82227 413.62807,375.90311 420.46646,378.92624 426.34702,382.14975 434.54942,385.82176 443.88218,385.54849 452.3838,383.11961 459.43772,381.4991 466.45905,379.82061 473.40733,377.81257 478.76088,376.71 484.10377,375.32084 489.44125,374.29481 L 489.72224,374.30381 489.77384,374.30581 C 489.77384,374.30581 489.77384,374.3058 489.77384,374.3058 z"
       inkscape:connector-curvature="0"
       id="path4761"
       style="fill:none;stroke:none" />
    <path
       d="M 541.39865,307.13683 C 549.44251,309.15437 556.18137,314.62505 563.5039,318.36237 567.58596,320.47169 570.99369,323.61168 575.28414,325.07049 578.74418,327.44003 582.20148,333.08738 578.7232,336.78663 578.34163,339.21913 576.19092,340.67592 575.323,342.92643 570.86014,349.23004 566.61241,356.17528 560.53696,360.97667 554.48384,366.68517 547.3875,371.47825 539.99783,375.47514 533.33165,379.75869 526.5746,383.94223 520.39509,388.80008 519.1872,389.83955 516.54203,392.81957 515.69309,389.86872 514.32137,386.80492 513.29366,382.36881 509.88359,381.1059 508.29281,381.22141 507.24161,379.64009 505.39532,380.27042 500.61146,381.637 497.57499,377.11483 494.90325,374.07233 495.77822,366.20344 493.92897,356.82667 499.27495,350.23202 506.42225,343.15826 515.20132,338.2158 523.62849,333.01233 529.50906,328.50611 538.58253,325.15874 539.49453,316.83228 540.03857,313.81834 538.49445,310.15439 539.96085,307.44771 540.37755,307.16835 540.90717,307.08739 541.39865,307.13683 z"
       inkscape:connector-curvature="0"
       id="path4763"
       style="fill:none;stroke:none" />
    <path
       d="M 515.03248,275.69949 C 525.36126,278.08859 534.78809,283.15238 543.8468,288.58142 550.82452,293.92499 556.85237,300.31436 563.568,305.95161 567.45513,310.95773 572.71927,315.58246 574.56524,321.90344 574.38168,324.43474 571.17904,321.69988 570.05322,321.37721 560.71362,316.29328 551.79463,309.85229 541.72896,306.3985 538.6366,305.42635 536.31576,308.02505 533.25758,307.62257 529.62608,309.39961 525.1474,309.15727 521.5803,311.46966 515.84931,315.1272 508.83072,313.09448 502.7723,315.43333 500.85754,315.30789 497.65352,314.41767 497.3514,312.344 501.15159,308.49987 507.75286,306.37502 508.11548,300.08383 509.01114,291.95244 509.90378,283.21543 514.0027,275.99094 514.26958,275.72694 514.66986,275.63476 515.03248,275.69949 z"
       inkscape:connector-curvature="0"
       id="path4765"
       style="fill:none;stroke:none" />
    <path
       d="M 615.29,231.90483 C 617.27095,233.04891 615.81472,235.96529 617.33012,237.53946 617.68183,246.08377 615.18042,254.46725 614.31614,262.9067 613.17534,269.29852 611.67025,275.7159 608.93647,281.60613 605.49656,292.26476 598.48036,301.33303 593.43153,311.19765 588.82536,316.95102 587.271,325.04705 581.59881,329.83078 577.13349,325.43208 574.92967,318.98432 571.04845,314.07325 564.33391,304.46864 554.94142,297.44791 546.41153,289.68891 542.29696,286.48561 537.09864,284.5578 532.96614,281.39241 528.45844,279.99307 524.43259,277.02662 519.73448,276.37953 518.05847,275.21826 514.04474,275.94906 514.29414,272.7656 514.71251,267.28038 519.21396,262.1357 516.78115,256.54175 516.65192,252.55566 510.43905,253.10228 510.27219,249.29446 512.66874,247.56222 516.49433,248.42085 519.33688,247.41646 551.32919,242.33949 583.28802,236.70699 615.29,231.90483 z"
       inkscape:connector-curvature="0"
       id="path4767"
       style="fill:none;stroke:none" />
    <path
       d="M 374.36107,103.66846 C 394.84465,128.93674 414.69686,154.784 434.32128,180.74629 437.04513,183.49261 432.10931,185.36084 431.77599,188.09074 429.85672,191.20878 427.21892,186.79004 425.24759,185.95346 404.9178,170.91821 386.18557,153.73903 368.55157,135.70812 368.93216,128.61434 367.80981,121.25626 369.11503,114.29654 369.91423,113.56851 371.79568,113.71226 370.86371,112.02325 369.36094,110.03953 370.44559,106.88211 372.65125,106.11661 373.21442,105.35819 372.79056,103.12544 374.36107,103.66846 z"
       inkscape:connector-curvature="0"
       id="path4777"
       style="fill:none;stroke:none" />
    <path
       d="M 369.73679,138.02026 C 377.74595,145.10503 385.30074,153.02789 393.47861,160.12529 404.79519,170.64152 416.97707,180.34012 429.34727,189.50911 429.4943,193.85457 425.5967,197.32942 424.43154,201.41955 422.47602,206.29833 420.10165,211.34333 418.17516,216.05015 413.40443,216.92547 408.15858,215.58365 403.23368,215.81699 391.61305,215.54933 379.85657,212.81388 369.4842,207.83136 369.12304,184.72031 368.09985,161.56054 368.99845,138.46715 369.07965,138.16325 369.3863,137.89239 369.73679,138.02026 z"
       inkscape:connector-curvature="0"
       id="path4779"
       style="fill:#a76986;stroke:none" />
    <path
       d="M 370.3974,208.97772 C 384.68029,214.58488 399.88361,217.43252 415.2607,216.96335 417.27579,216.4125 418.71959,218.28617 417.32025,219.97496 415.19378,225.7097 410.74244,230.30725 410.3644,236.68455 409.24671,241.14172 410.06651,246.33981 408.61572,250.46024 395.84096,249.37272 383.04685,248.53328 370.26139,247.58464 369.13659,242.95733 370.14951,237.52054 369.76547,232.5851 370.01099,224.87813 368.77441,217.05695 369.42591,209.4246 369.62216,209.10999 370.02302,208.8827 370.3974,208.97772 z"
       inkscape:connector-curvature="0"
       id="path4781"
       style="fill:#bc777a;stroke:none" />
    <path
       d="M 372.24322,248.18696 C 384.42104,248.92299 396.58375,249.88988 408.75173,250.77112 410.175,254.1144 410.05476,258.4067 408.75173,261.84608 407.59641,265.1083 403.27761,266.01731 400.53294,267.57785 391.02172,271.3805 379.94481,269.36356 370.82485,265.26571 370.02652,259.90657 370.33176,254.13843 370.18367,248.61441 370.59991,247.77842 371.56025,248.30276 372.24322,248.18696 z"
       inkscape:connector-curvature="0"
       id="path4783"
       style="fill:#68b88b;stroke:none" />
    <path
       d="M 462.35842,225.76503 C 468.92565,226.86278 475.26174,231.06334 477.88279,237.34516 479.11266,240.32258 480.61264,243.40646 481.26357,246.49657 482.36542,249.70523 484.36532,252.85159 484.76092,256.42518 486.40735,261.40894 485.09442,267.07458 485.41902,272.29909 485.64981,278.96048 484.36594,286.00016 485.90728,292.44794 486.56354,295.73078 485.83058,299.45348 487.92797,302.45426 488.68677,304.96073 487.17874,307.72305 488.72459,310.01243 489.02014,312.58866 488.51449,316.56312 484.95522,314.71443 476.70949,312.41645 469.65636,307.05688 461.62009,304.43609 452.47257,299.95604 444.72601,293.34052 435.13733,289.66948 430.33719,287.38424 432.66582,281.09621 432.72329,277.00359 432.967,267.73042 434.27358,258.0472 431.97028,249.02244 430.75803,245.86783 428.94603,242.25475 432.97135,240.31823 438.05018,234.78941 444.05509,230.40635 451.03087,227.5137 454.51112,225.75212 458.54785,225.78192 462.35842,225.76503 z"
       inkscape:connector-curvature="0"
       id="path4785"
       style="fill:#d0cf6e;stroke:none" />
    <path
       d="M 449.47649,177.69582 C 461.37083,178.81707 471.99995,185.27945 480.4967,193.42781 482.56141,194.97917 483.48156,197.45296 485.61583,198.83539 486.35533,200.24187 486.90321,201.36028 488.35543,202.00244 494.00115,207.95012 498.19222,215.30702 501.37336,222.86999 502.38437,226.73898 504.84343,230.23349 505.41475,234.08096 507.01356,236.76853 506.88112,240.25462 508.30978,243.09637 508.9808,245.5574 509.66737,248.64517 509.26184,250.8877 510.69316,252.7117 510.02446,255.24548 508.87324,256.91092 508.47053,260.46868 506.3104,263.63458 505.16216,266.9561 498.40842,274.07966 499.76456,284.6836 498.07067,293.67914 497.49991,299.09129 497.3564,304.87037 495.31128,310.03186 494.41654,310.17294 493.83908,310.16622 494.2815,311.33366 495.36821,313.47591 496.22377,316.04559 494.14549,317.9592 493.64048,319.90849 490.96397,320.71954 490.72585,318.17293 490.38676,316.79317 491.46176,315.25132 489.85152,314.50071 488.3481,309.10345 488.81363,303.2263 487.11192,297.79112 485.39085,283.2008 487.45884,268.24127 484.74149,253.80216 482.52573,248.49873 481.15943,243.03062 478.85428,237.81147 476.06876,232.17188 471.28974,227.13948 465.07858,225.49301 462.00891,224.20062 457.95486,224.84448 454.66423,225.25985 447.11386,228.75888 439.24941,232.23789 433.79106,238.70418 432.32972,240.18188 430.32653,241.76835 428.6478,242.55233 428.5708,244.71263 426.24466,246.93171 424.33439,246.78802 423.51443,251.42664 419.6547,255.13547 416.62078,258.54302 415.1914,259.65421 412.6896,260.027 412.94856,262.40954 411.92145,264.36456 408.57127,263.05027 409.76208,260.77744 410.99328,249.69609 408.75787,237.7401 414.23092,227.43598 416.52666,223.09277 417.98458,218.30155 420.31243,214.02946 421.36868,212.49799 421.04436,209.79571 422.21655,208.04509 425.55787,200.49686 428.64911,192.43206 434.01041,186.08947 435.77495,185.58982 435.89827,182.90637 438.01294,182.61155 441.71626,180.74008 444.98326,177.1491 449.47649,177.69582 z"
       inkscape:connector-curvature="0"
       id="path4787"
       style="fill:none;stroke:none" />
    <path
       d="M 425.92763,248.71156 C 428.09073,250.17405 428.44874,252.67207 429.13354,254.90965 429.59592,262.37703 427.67684,269.9464 423.67378,276.22409 422.12367,281.11479 420.05496,286.04239 416.56249,289.88321 414.80576,291.39311 410.90275,291.98514 410.77242,288.71742 409.95985,280.51886 411.75061,272.20164 413.66746,264.2748 416.7863,258.952 421.31493,254.62684 424.70356,249.44989 425.03821,249.1362 425.35773,248.50646 425.92763,248.71156 z"
       inkscape:connector-curvature="0"
       id="path4789"
       style="fill:#a7b0c5;stroke:none" />
    <path
       d="M 371.58261,266.33435 C 379.25744,269.00367 387.47671,271.12966 395.63665,269.63741 398.56674,270.38854 396.6587,274.61775 397.13274,276.7487 396.49217,286.11565 396.67716,295.67466 395.05375,304.90241 393.89629,307.02722 394.58909,309.918 392.97477,312.05256 391.01826,315.455 388.74754,319.85297 384.8337,321.06796 383.28671,319.29704 380.42308,320.41224 378.59675,319.00841 376.47051,317.80719 371.59596,320.15291 372.22433,316.19754 371.24182,299.7546 370.73538,283.18053 370.63055,266.7618 370.7857,266.24424 371.2037,266.25325 371.58261,266.33435 z"
       inkscape:connector-curvature="0"
       id="path4791"
       style="fill:#c6bdae;stroke:none" />
    <path
       d="M 455.7523,315.76364 C 463.15617,316.61927 477.44208,324.91965 467.39296,332.21374 464.74701,339.0177 457.4416,344.49014 452.02919,336.58081 444.67195,331.77368 442.71416,317.10766 453.29338,315.3059 L 454.52262,315.3916 455.7523,315.76361 455.7523,315.76361 z"
       inkscape:connector-curvature="0"
       id="path4793"
       style="fill:none;stroke:none" />
    <path
       d="M 511.39911,252.38379 C 514.49571,253.76576 516.80538,256.57886 516.58686,260.0974 517.01371,263.80178 514.28104,266.88606 514.15814,270.49232 513.8167,272.09369 511.35564,273.09695 512.64262,274.76686 512.72952,278.73829 509.94547,281.95441 509.66986,285.91954 508.39944,289.01302 507.8991,292.09097 507.8629,295.47898 507.8057,300.11034 506.6381,305.21765 502.15137,307.50043 500.56661,308.10509 498.34407,311.19428 496.78794,309.83757 498.0882,298.72532 498.87588,287.4871 501.04305,276.49611 501.81466,270.54925 506.78949,266.75035 508.36807,261.12718 509.6596,258.32357 510.16701,255.2276 510.89394,252.34493 L 511.34082,252.34493 511.39912,252.38383 z"
       inkscape:connector-curvature="0"
       id="path4795"
       style="fill:#c7afc8;stroke:none" />
    <path
       d="M 417.10844,257.99982 C 416.76135,257.04442 416.35794,256.10763 416.06716,255.13361 415.96674,254.79723 415.85185,252.24016 416.06716,252.02485 416.21371,251.8783 416.54237,252.1714 416.68892,252.02485 417.2114,251.50237 416.19287,246.17768 416.68892,245.18558 416.81999,244.92343 417.17959,244.82598 417.31067,244.56383 417.49604,244.19309 417.60377,243.61342 417.31067,243.32032 417.16412,243.17377 416.83546,243.46687 416.68892,243.32032 416.10532,242.73673 417.15869,241.75903 417.31067,241.45507 417.62018,240.83604 416.98897,237.4245 417.31067,237.1028 417.45722,236.95625 417.78587,237.24935 417.93242,237.1028 418.45055,236.58468 417.41429,234.51217 417.93242,233.99404 418.07897,233.84749 418.40762,234.14059 418.55417,233.99404 418.96867,233.57954 418.13967,231.92153 418.55417,231.50703 418.70072,231.36048 419.02938,231.65358 419.17592,231.50703 419.46334,231.21962 418.98823,230.01717 419.17592,229.64178 419.307,229.37962 419.6666,229.28218 419.79768,229.02002 419.98305,228.64928 419.50458,228.06962 419.79768,227.77652 419.94423,227.62997 420.27288,227.92307 420.41943,227.77652 420.73031,227.46564 420.10855,226.22214 420.41943,225.91126 420.56598,225.76472 420.89463,226.05781 421.04118,225.91126 421.32859,225.62385 420.85348,224.42141 421.04118,224.04601 421.17226,223.78385 421.53186,223.68641 421.66293,223.42426 421.8483,223.05351 421.47756,222.55149 421.66293,222.18075 421.79401,221.9186 422.15361,221.82115 422.28469,221.559 422.47006,221.18826 421.99159,220.60859 422.28469,220.3155 422.43123,220.16895 422.75989,220.46204 422.90644,220.3155 423.19953,220.0224 422.72107,219.44273 422.90644,219.07199 423.03751,218.80984 423.39711,218.71239 423.52819,218.45024 423.85979,217.78704 423.19659,216.62643 423.52819,215.96323 423.65927,215.70108 424.01886,215.60363 424.14994,215.34148 424.24264,215.15611 424.00339,214.86628 424.14994,214.71973 424.29649,214.57318 424.62515,214.86628 424.77169,214.71973 424.91824,214.57318 424.62515,214.24452 424.77169,214.09797 424.91824,213.95143 425.2469,214.24452 425.39345,214.09797 425.53999,213.95143 425.30075,213.66159 425.39345,213.47622 425.75558,212.75196 426.27482,212.33523 426.63695,211.61097 426.72965,211.4256 426.4904,211.13576 426.63695,210.98921 426.7835,210.84267 427.11215,211.13576 427.2587,210.98921 427.40525,210.84267 427.11215,210.51401 427.2587,210.36746 427.40525,210.22091 427.73391,210.51401 427.88045,210.36746 428.027,210.22091 427.78775,209.93108 427.88045,209.74571 428.01153,209.48356 428.37113,209.38611 428.50221,209.12396 428.68758,208.75322 428.20911,208.17355 428.50221,207.88045 430.16021,207.88045 428.29496,208.0877 429.12396,207.2587 429.27051,207.11215 429.59916,207.40525 429.74571,207.2587 430.05659,206.94783 429.43483,205.70432 429.74571,205.39345 429.89226,205.2469 430.22091,205.53999 430.36746,205.39345 430.65488,205.10603 430.17976,203.90359 430.36746,203.52819 430.49854,203.26604 430.85814,203.16859 430.98921,202.90644 431.17691,202.53104 430.7018,201.32859 430.98921,201.04118 431.13576,200.89463 431.46442,201.18773 431.61097,201.04118 431.79231,200.85984 431.79231,197.49201 431.61097,197.31067 431.31787,197.01757 430.66056,197.60377 430.36746,197.31067 430.22091,197.16412 430.51401,196.83546 430.36746,196.68892 430.20288,196.52434 428.75822,196.68892 428.50221,196.68892 428.0877,196.68892 427.5518,196.98201 427.2587,196.68892 427.11215,196.54237 427.40525,196.21371 427.2587,196.06716 427.11215,195.92062 426.80781,195.94986 426.63695,196.06716 426.53021,196.14046 426.86011,196.19853 426.97169,196.26421"
       inkscape:connector-curvature="0"
       id="path4797"
       style="fill:none;stroke:#0000e9;stroke-width:1;stroke-miterlimit:4;stroke-opacity:1;stroke-dasharray:none;stroke-dashoffset:0" />
    <path
       d="M 429.27732,197.06728 C 432.628,197.88589 430.38195,202.40528 429.82135,204.52831 428.59341,209.13221 425.04404,212.60093 423.11809,216.76905 420.31868,226.44734 416.17777,236.07885 416.52172,246.4376 416.38665,250.29045 415.03479,254.11746 416.70627,257.80469 416.32515,259.67652 413.2873,258.89338 413.40321,261.10775 413.65927,263.58196 409.25515,264.30989 409.80871,261.41862 410.99967,252.96663 409.69016,244.08979 411.20765,235.81021 412.9571,228.46355 417.71077,221.90873 419.58187,214.65121 421.55619,212.05017 421.61279,208.56022 423.23467,205.77181 424.53672,202.90634 425.65428,197.65101 429.27732,197.06728 z"
       inkscape:connector-curvature="0"
       id="path4799"
       style="fill:#b46a9f;stroke:none" />
    <path
       d="M 449.56012,177.69582 C 461.81076,178.82226 472.66657,185.71842 481.34719,194.09453 485.47573,199.65636 491.40165,203.94777 494.57885,210.18236 501.18638,219.27418 504.37262,230.34359 507.5318,240.99933 509.4856,247.60522 510.36537,254.6942 507.65508,261.22432 506.93861,263.20321 505.78315,264.71262 505.1875,266.70351 501.83983,270.95758 499.37519,276.19754 499.74717,281.60613 498.22022,283.25183 500.08702,285.90554 498.52309,287.5905 498.41719,289.5976 498.97836,291.79118 497.80419,293.536 497.77949,296.33889 496.94173,298.98987 497.39617,301.79365 496.13958,304.41404 496.86501,308.0365 494.96745,310.22616 493.00969,310.28906 495.1445,312.74663 495.23946,313.76238 495.29326,315.87988 494.46221,319.35103 492.15013,319.7856 490.48163,319.08947 489.88952,316.97313 490.90663,315.53048 490.52285,314.61835 488.71483,314.9253 489.0608,313.33492 488.75411,307.48186 488.79667,301.51687 486.72923,295.92586 485.4755,282.83232 487.18389,269.46802 485.50516,256.44461 483.8977,250.63855 481.35796,245.19686 479.67623,239.42414 477.12611,233.27232 472.26235,227.64581 465.78396,225.84274 462.44439,224.49037 458.2269,224.39884 454.76729,225.33757 449.90729,227.36172 444.87544,229.62706 440.50585,232.42943 436.44298,235.80787 433.04649,240.31923 428.42055,242.84378 428.11636,245.06029 426.28914,246.77044 424.20429,247.06003 423.35419,250.85954 420.66387,254.45358 417.90905,257.06636 415.79566,256.81999 415.98034,253.28122 416.85984,251.80089 417.01566,243.44123 417.95241,235.04255 420.78118,227.10238 422.92771,221.54585 423.44291,215.25741 427.72107,210.74583 429.15373,209.12897 430.58879,207.94574 430.46067,205.59694 430.74737,202.96819 433.45411,199.07358 431.14071,196.85355 429.54095,196.44832 427.24041,195.32042 429.02287,193.45335 430.57116,190.63228 432.7837,187.42928 434.89065,185.46772 437.00875,182.00439 441.4988,181.3325 444.46952,178.76445 445.99528,177.83938 447.80354,177.58326 449.56012,177.69582 z"
       inkscape:connector-curvature="0"
       id="path4801"
       style="fill:#e075df;stroke:none" />
    <path
       d="M 616.18967,232.29342 C 617.49569,238.72139 616.24247,245.60188 615.90644,252.14673 614.43775,261.14869 613.47496,270.64736 609.83614,279.06084 608.3169,281.41558 608.35901,284.59405 606.63784,287.03105 605.02945,288.73461 605.45801,291.78061 603.77406,293.16684 602.47364,295.30032 601.26649,297.77165 599.71324,299.73409 599.19592,301.58836 597.21239,302.77926 596.66277,304.84412 595.45235,307.82359 593.35776,310.30523 592.1745,313.12119 588.62531,317.17786 587.53572,323.14152 583.6837,327.07176 583.2879,329.19452 579.7214,330.67495 579.95318,327.51864 578.91363,325.80197 577.23586,324.12918 576.68898,322.3309 574.03705,319.48409 573.04069,315.28214 570.14116,312.51887 565.64884,306.63025 560.29551,301.31762 554.42249,296.89735 552.95384,296.32787 553.24579,294.01554 551.27487,293.69144 549.69089,293.06933 550.01172,291.00993 548.24383,290.95185 544.29108,287.45132 539.38791,285.37738 535.01217,282.46104 533.25368,280.43949 529.9204,280.62915 527.7309,278.92377 523.92061,276.28553 518.80831,276.91367 515.05781,274.45599 513.67481,272.34711 515.70551,269.85134 515.62127,267.55842 516.86563,264.31941 518.78159,261.12986 517.13679,257.61039 516.93697,254.64531 514.74806,252.65707 512.02677,252.01462 510.34587,251.33812 509.56223,248.39912 512.2405,248.73099 546.72732,242.96208 581.28842,237.29585 615.83994,232.13798 L 616.18967,232.29342 z"
       inkscape:connector-curvature="0"
       id="path4803"
       style="fill:none;stroke:none" />
    <path
       d="M 397.18333,373.44475 C 399.44878,373.55127 402.53987,373.93204 403.54657,376.28149 403.35411,377.1376 403.7338,377.20448 404.52778,377.18497 407.25347,378.38531 408.98486,381.01844 411.58081,382.51804 417.89541,386.80895 424.55285,391.23729 432.38842,391.68214 445.17173,393.22962 458.18951,392.017 470.54102,388.48662 476.85824,386.72793 483.58761,387.86113 489.95068,386.58897 493.437,385.54518 496.46084,383.2013 499.95701,382.24642 500.5697,382.14802 501.10426,383.67743 501.5211,382.6253 502.43395,380.53199 505.37208,380.82231 507.26259,381.02235 511.62878,381.68224 514.58777,385.9579 514.83048,390.16405 514.93048,391.27965 516.30994,392.65471 514.97621,393.53511 505.60281,400.6733 495.76084,407.53891 484.45743,411.18729 474.71051,414.2458 464.45869,415.30309 454.32623,416.28735 439.25851,417.08636 423.62826,415.97772 409.7809,409.57502 402.13606,406.1677 394.37735,402.37156 388.77025,395.97354 385.71062,392.48632 382.42474,388.93606 380.64861,384.60714 380.63361,383.72502 381.17571,382.92383 381.53267,382.11042 383.93363,378.80678 386.60766,375.02857 390.91645,374.25841 392.95493,373.70662 395.06445,373.37982 397.18333,373.44475 z"
       inkscape:connector-curvature="0"
       id="path4805"
       style="fill:#c7a1db;stroke:none" />
    <path
       d="M 490.14498,374.17336 C 491.83066,373.80711 492.92181,375.06828 494.02122,376.04833 495.59396,375.64949 496.78831,376.96108 497.74225,378.05169 498.45774,379.11433 500.40712,380.20719 499.85014,381.68296 496.12829,383.20817 492.61325,385.59746 488.61003,386.51126 482.11573,387.25855 475.38223,386.342 469.11228,388.56109 457.59535,391.73103 445.52008,392.78498 433.63498,391.48459 427.82573,391.23649 422.32903,389.04156 417.50918,385.89799 413.68562,383.46804 409.48324,381.16947 406.66505,377.593 407.99031,376.55682 410.30759,377.40964 412.01795,377.12602 414.32937,377.12802 416.73756,376.76838 418.71691,378.24646 424.64309,380.93773 430.43939,384.70594 437.198,384.57269 442.58168,385.21191 447.924,384.14421 453.0633,382.61559 458.34869,381.13186 463.91494,380.93575 468.97627,378.71992 474.77347,377.00962 480.8825,376.31778 486.56991,374.36766 487.7491,374.16048 488.95105,374.15443 490.14498,374.17336 z"
       inkscape:connector-curvature="0"
       id="path4807"
       style="fill:#aac7db;stroke:none" />
    <path
       d="M 541.04122,306.87841 C 545.89684,307.53262 549.91863,310.65556 554.19745,312.81252 561.5101,317.16106 569.12095,321.16075 576.27708,325.68641 577.33642,326.46488 578.10585,327.49829 579.20125,328.12485 579.6125,329.43073 579.08375,331.03581 580.34761,331.99137 581.34957,333.91044 579.22248,335.67785 578.61285,337.37024 570.75161,350.98169 560.7962,364.16119 546.72442,371.7155 536.89003,376.78416 528.04053,383.3902 519.30422,390.16407 518.2291,390.62171 517.18272,392.49821 515.94769,391.88358 514.53479,389.70484 515.05811,386.65802 513.29553,384.61685 511.01481,381.01471 506.18468,379.60404 502.18171,381.04178 500.0465,381.69313 499.4486,378.81418 498.09858,377.78775 496.95915,376.22574 493.95098,375.45639 494.57497,373.05615 495.2472,368.89397 495.32745,364.68755 495.20643,360.4851 495.27083,355.42832 497.8633,350.66808 501.89998,347.68089 507.09814,343.17794 512.86966,339.25468 518.83547,335.98641 524.85391,332.05815 530.93621,328.20009 536.50437,323.65601 540.22919,319.19357 539.36682,312.83031 538.76794,307.45159 539.12207,306.5806 540.33406,306.93057 541.04122,306.87841 z"
       inkscape:connector-curvature="0"
       id="path4811"
       style="fill:#d5be93;stroke:none" />
    <path
       d="M 514.54875,275.47022 C 515.84645,276.05665 517.22447,276.42227 518.64843,276.57771 519.34185,277.3773 520.67954,276.79073 521.44631,277.52977 522.42419,277.63501 523.56763,277.62707 524.30249,278.25839 526.5823,278.81067 528.62342,280.09398 530.55887,281.338 531.47367,281.3235 531.98487,282.10848 532.86129,282.15405 533.5758,282.78206 534.14438,283.36174 535.09571,283.59186 536.19089,283.9802 536.75042,285.35083 538.03932,285.16567 539.18498,285.58023 540.19824,286.27846 541.24523,286.84634 542.09671,287.67533 543.35262,288.1169 544.16941,288.86703 545.07143,289.34362 545.75665,290.11198 546.71471,290.46999 547.97665,291.49519 549.1725,292.80118 549.93033,294.14221 551.98433,295.39656 553.48121,297.3685 555.40952,298.67906 555.69398,299.8307 557.18747,299.80074 557.78967,300.80662 558.57265,301.20433 559.18302,301.72958 559.55777,302.497 561.74684,303.49764 563.38977,305.60748 564.94953,307.43216 565.10453,308.53421 566.29835,308.87666 566.90222,309.55972 567.30925,310.53331 568.19426,311.44397 568.80634,312.36732 570.01591,312.78853 570.37829,314.28663 571.20591,315.19435 572.05036,316.36377 572.75558,317.74403 573.69292,318.90543 574.35066,320.07302 574.38036,321.44347 575.43188,322.37364 576.15645,323.01955 575.91535,324.92306 574.71298,324.1126 564.76189,318.79365 555.29468,312.53263 545.1409,307.60703 540.68816,305.39434 535.73912,307.56633 531.24602,308.5929 525.92922,309.88884 520.8514,312.13679 515.68578,313.86922 511.46807,314.12769 507.11983,313.95262 503.13377,315.49551 500.59444,315.90076 498.1211,314.12172 496.69281,312.19245 496.4928,310.87965 498.25625,311.57001 498.69407,310.71579 499.89683,310.71479 500.14143,309.28823 501.35595,309.31685 501.88274,308.70995 502.36161,308.17731 503.20178,307.95677 503.87612,307.38578 504.67681,306.73968 505.5042,306.61611 506.15527,304.95141 507.71138,303.75132 507.65119,301.83639 508.65137,300.10814 507.92419,297.80366 508.18551,295.86174 508.11001,294.71595 508.38953,293.60419 509.00156,292.69469 508.97156,291.46717 508.57269,290.06506 509.55531,289.10019 509.47231,288.3581 509.48651,287.60703 509.95362,287.03092 509.87282,285.99799 510.35712,285.15347 510.62394,284.26218 510.46146,283.04504 511.31489,282.20911 511.48857,281.09513 512.4425,280.4244 512.19972,279.00095 512.72235,278.02523 513.11881,277.18736 513.38364,275.50162 514.54875,275.47022 z"
       inkscape:connector-curvature="0"
       id="path4813"
       style="fill:#84cdcd;stroke:none" />
    <path
       d="M 374.75568,103.6417 C 383.60759,114.3868 391.92378,125.62561 400.50584,136.61445 412.3135,152.05698 424.31897,167.36524 435.83311,183.02195 435.93726,184.24752 434.27933,183.80974 433.84156,184.76092 432.10907,185.78486 432.38679,188.61928 430.2762,189.1909 427.95212,188.26995 426.0391,186.30522 423.91501,184.95573 403.99382,170.43901 386.11455,153.35859 368.75188,135.94366 368.35184,128.71455 368.56756,121.36179 368.39281,114.08575 368.46191,111.64145 370.22989,109.54567 371.2808,107.39622 372.21903,106.09442 372.908,104.25502 374.46423,103.59313 L 374.75568,103.64173 z"
       inkscape:connector-curvature="0"
       id="path4815"
       style="fill:#746bdb;stroke:none" />
    <path
       d="M 527.64036,117.63103 C 531.67035,119.92188 535.65011,122.50488 539.36519,125.22007 538.47664,127.28347 536.37319,128.98472 535.03315,130.91449 517.79033,151.92424 500.84948,173.23125 483.29195,193.9511 482.71678,194.72593 481.35583,193.8779 481.65014,193.03791 479.5489,192.43237 479.37195,190.86931 480.92646,189.44513 496.08194,165.8051 510.99929,141.9835 526.45515,118.55395 526.77627,118.18786 527.02506,117.48229 527.64036,117.63103 z"
       inkscape:connector-curvature="0"
       id="path5917"
       style="fill:#b5acba;stroke:none" />
    <path
       d="M 427.34398,80.763076 C 437.35075,81.001971 447.33158,82.689195 456.84806,85.737093 457.5813,87.054532 456.57809,88.841766 456.63433,90.3128 452.35274,119.64354 447.95823,148.96531 443.09179,178.20329 443.21511,179.49416 441.84887,179.37564 441.20711,179.9714 440.74526,180.93665 439.54858,180.65594 439.01154,181.45777 437.9025,182.06937 436.09277,182.75996 435.35364,181.26005 415.22295,155.12264 395.10983,128.97172 374.99051,102.82556 375.12157,101.3558 376.98816,100.45401 377.90948,99.291696 387.24278,90.96648 398.8128,85.245943 410.86755,82.113444 416.25546,80.955543 421.83312,80.66939 427.34398,80.763076 z"
       inkscape:connector-curvature="0"
       id="path5919"
       style="fill:#b1daa9;stroke:none" />
    <path
       d="M 458.65502,86.36856 C 466.83055,88.317662 474.62875,91.652093 482.52298,94.514897 492.59742,98.340519 502.55227,102.49738 511.84307,107.99056 516.66097,110.81626 521.74983,113.37647 526.21228,116.68869 526.38379,118.21634 524.66294,119.45057 524.11317,120.84838 509.27168,144.2736 494.46528,167.73496 479.31857,190.95892 477.9294,191.42639 476.95055,189.63955 475.90864,188.95766 475.24561,188.52191 474.90774,187.65142 474.53885,187.11183 472.71184,186.65709 472.04021,184.3827 470.08661,184.13045 467.10903,182.66453 464.13681,180.99799 461.0546,179.90339 460.2017,179.41578 458.97745,179.5058 458.179,178.72789 457.34004,178.39721 456.40716,178.31864 455.68227,177.83412 454.30876,178.06187 453.39066,176.86582 452.02948,177.22209 450.72452,177.4029 449.25467,177.51548 448.26011,176.5809 447.25816,176.6154 446.38349,177.53032 445.26792,177.43581 444.09949,177.86216 443.52683,176.68521 444.04385,175.69685 448.57052,146.00744 453.05042,116.29717 457.80011,86.650291 457.9917,86.367307 458.34614,86.326984 458.65502,86.36856 z"
       inkscape:connector-curvature="0"
       id="path5921"
       style="fill:#dbc198;stroke:none" />
    <path
       d="M 539.39794,125.2915 C 545.66964,128.89388 551.59887,133.14723 557.73938,136.99705 564.60673,141.70709 570.75402,147.34628 577.22116,152.59072 587.40334,161.23837 597.30645,170.904 602.95452,183.23053 606.87,191.13418 610.56484,199.21802 612.7957,207.78546 616.74646,222.14325 617.93519,237.27602 616.32896,252.0879 615.56651,253.06068 613.93752,252.19577 612.81271,252.39365 579.73791,251.17885 546.6535,250.21773 513.58252,248.90735 512.46454,248.63057 510.87296,249.16217 510.04475,248.19979 510.31156,247.43352 509.38723,247.02861 509.45398,246.24887 509.72056,245.1238 508.60767,244.4879 508.80825,243.37057 508.86565,242.36625 508.04899,241.53467 508.29991,240.46479 508.21261,239.93745 507.36116,239.7325 507.57862,239.03594 507.7318,238.36661 507.73607,237.60399 507.07715,237.27736 506.79174,236.6298 507.24086,235.82081 506.56881,235.3333 506.2326,234.72992 506.58841,233.90377 505.90247,233.52664 505.6076,232.673 505.70162,231.67061 505.02318,230.95746 504.43013,230.01081 504.55738,228.85711 503.86224,227.9349 503.25693,227.08227 503.52347,225.94139 502.80435,225.19399 502.61177,224.55828 502.63276,223.89307 502.13801,223.40106 501.93791,222.65173 501.99749,221.84407 501.32742,221.31275 501.25922,220.78236 501.10947,220.44117 500.75038,220.02129 500.68098,219.29183 500.09398,218.79489 500.16648,218.00854 499.7655,217.22377 498.92224,216.69193 498.77198,215.78283 498.14502,215.21196 498.23087,214.23761 497.43243,213.76321 496.90116,213.16115 496.85191,212.40001 496.46384,211.72299 496.20885,211.22917 495.17303,211.29302 495.25482,210.46588 495.33362,208.89377 492.95926,208.49174 493.28328,206.84567 492.57704,205.78569 491.59706,204.86534 491.14688,203.65138 490.14858,203.21545 489.11747,202.72849 488.59569,201.67851 488.11651,200.84224 487.45125,200.15431 486.61304,199.72892 486.30685,198.58892 485.02701,198.08198 484.63464,196.97427 484.69374,196.09749 483.05512,196.33847 483.32944,195.26377 486.55458,190.85134 490.17734,186.67332 493.5785,182.36892 508.68617,163.70927 523.9628,145.10549 538.99264,126.4387 538.45422,126.09251 538.69085,125.1273 539.39794,125.2915 z"
       inkscape:connector-curvature="0"
       id="path8827"
       style="fill:#bf9784;stroke:none" />
    <path
       d="M 512.48341,249.16839 C 546.89454,250.26926 581.30003,251.5732 615.71071,252.67181 616.75878,253.26574 615.78221,254.82455 615.86791,255.83244 613.33499,273.37504 607.19171,290.47806 597.2937,305.21627 591.86062,313.37717 587.51114,322.21437 582.51751,330.63325 581.47892,331.54587 580.59135,329.95878 580.25746,329.13571 579.76894,328.54711 579.77237,327.72726 579.18582,327.23974 579.02921,325.89237 577.27038,325.34416 577.09751,324.00423 576.61878,323.30776 576.4715,322.42678 575.71675,321.90905 575.34596,321.47981 575.49274,320.88599 574.93363,320.61759 574.7426,319.99844 574.63217,319.4157 574.16425,318.9277 574.09175,317.88448 572.64359,317.56666 572.70792,316.4547 572.21122,315.89734 572.22471,315.02289 571.46455,314.59308 570.54225,313.96164 570.4396,312.82579 569.65102,312.1132 569.24382,311.39513 568.91707,310.66074 568.13287,310.32028 567.89494,309.55659 567.16288,309.12417 566.80706,308.37622 566.29081,307.84152 565.49477,307.66347 565.11718,306.9405 563.47393,305.13477 561.45892,303.46052 560.01317,301.56172 559.20459,301.06629 558.55102,300.47795 557.6913,300.126 556.71333,299.5861 556.6092,298.34076 555.52742,297.96213 554.97928,297.43838 554.35845,297.18166 553.6864,296.91797 552.92208,296.49157 553.23641,295.42734 552.47738,295.11817 552.24123,294.62428 551.44771,294.56499 551.32331,293.90915 550.51677,293.27559 549.07908,293.02373 549.20752,291.70405 547.85694,291.55788 547.35198,289.94104 546.03383,289.74626 545.47433,289.2512 545.01956,288.67905 544.36455,288.31054 544.10055,287.78779 543.35749,287.76589 542.94258,287.32134 541.87917,287.30784 541.49919,286.03626 540.44209,285.97493 539.55882,285.41545 538.63469,284.94528 537.65996,284.66973 537.23647,283.92333 536.13547,284.06526 535.50982,283.41262 534.64704,282.99469 534.1175,281.94115 533.2429,281.66778 532.38033,281.96482 531.93679,280.9759 531.09963,281.07701 530.61296,280.84058 530.54205,280.31351 529.91122,280.34197 528.94042,279.87439 528.01998,279.25349 527.01918,278.92687 526.63338,278.61749 525.9993,278.49489 525.59033,278.09566 524.67877,278.12316 524.27684,276.99304 523.28906,277.35376 522.41486,277.56813 521.72195,277.0447 520.9878,276.77673 520.29206,276.87323 519.60027,276.57987 519.18113,276.12413 518.00048,276.24895 516.84964,276.03893 515.84257,275.43718 514.89432,275.45728 514.97632,274.2405 514.1733,273.94651 513.39696,273.38312 513.45468,272.10729 514.41373,271.92002 514.38183,271.06284 514.93362,270.36992 515.10754,269.57754 515.02754,268.31813 514.79415,266.91657 515.78762,265.90238 516.3046,265.2571 516.1823,264.252 516.87299,263.77972 516.76442,262.81383 517.72487,262.22934 517.55994,261.27237 517.59034,260.61568 517.71131,259.98549 517.01038,259.76109 516.452,258.69857 517.40973,257.26464 516.41961,256.36071 516.23146,255.57434 516.43761,254.37641 515.47162,254.05257 514.79652,253.5455 514.14374,252.91291 513.25279,253.09771 512.74095,252.84687 512.34036,252.51122 511.78273,252.34894 511.09191,251.6426 509.80216,250.40801 510.60118,249.40882 511.14101,249.05028 511.87189,249.18569 512.48341,249.16839 z"
       inkscape:connector-curvature="0"
       id="path8829"
       style="fill:#cda392;stroke:none" />
    <path
       d="M 454.8212,316.55774 C 460.01317,316.8948 464.78594,319.63235 468.63568,322.98755 470.24328,324.56188 472.32142,326.57839 471.85058,329.03954 471.00218,330.93991 468.53376,331.19934 467.25239,332.74809 464.92311,334.81573 463.90502,337.85913 462.74169,340.66266 462.04691,342.3259 459.92454,341.68607 458.78488,340.89622 456.00012,339.21202 453.53224,337.08587 450.76823,335.35944 447.19222,332.19431 445.97021,326.69297 447.5121,322.22504 448.57135,319.06636 451.21009,316.18725 454.8212,316.55774 z"
       inkscape:connector-curvature="0"
       id="path8831"
       style="fill:#bfb879;stroke:none" />
  </g>
</svg>
