<?xml version="1.0" encoding="UTF-8" standalone="no"?>
<!-- Created with Inkscape (http://www.inkscape.org/) -->

<svg
   xmlns:dc="http://purl.org/dc/elements/1.1/"
   xmlns:cc="http://creativecommons.org/ns#"
   xmlns:rdf="http://www.w3.org/1999/02/22-rdf-syntax-ns#"
   xmlns:svg="http://www.w3.org/2000/svg"
   xmlns="http://www.w3.org/2000/svg"
   xmlns:xlink="http://www.w3.org/1999/xlink"
   xmlns:inkscape="http://www.inkscape.org/namespaces/inkscape"
   version="1.1"
   width="740"
   height="520"
   id="svg2"
   style="enable-background:new">
  <defs
     id="defs4">
    <filter
       color-interpolation-filters="sRGB"
       id="filter3050">
      <feBlend
         in2="BackgroundImage"
         mode="lighten"
         id="feBlend3052" />
    </filter>
  </defs>
  <metadata
     id="metadata7">
    <rdf:RDF>
      <cc:Work
         rdf:about="">
        <dc:format>image/svg+xml</dc:format>
        <dc:type
           rdf:resource="http://purl.org/dc/dcmitype/StillImage" />
        <dc:title />
      </cc:Work>
    </rdf:RDF>
  </metadata>
  <g
     id="layer1"
     style="display:none">
    <image
       xlink:href="pngs/coronal-0572.png"
       id="MRISLICE"
       height="520"
       width="740"
       y="0"
       x="0" />
  </g>
  <g
     id="layer3"
     style="display:inline">
    <path
       d="M 374.91651,81.043021 373.67301,159.38379 371.80775,171.81883"
       inkscape:connector-curvature="0"
       id="path2990"
       style="fill:none;stroke:#0000e9;stroke-width:1;stroke-miterlimit:4;stroke-opacity:1;stroke-dasharray:none;stroke-dashoffset:0" />
    <path
       d="M 374.29476,332.23087 C 373.67301,355.44295 373.05125,378.65502 372.4295,401.8671 389.87863,419.20122 418.1295,418.77525 440.20048,418.03266 460.67603,427.29665 477.76273,448.38791 502.37603,444.87848 519.39529,444.27541 532.50998,432.35654 543.28133,420.52437 L 544.0268,419.90315 544.0328,419.89815 M 439.57873,63.012211 C 503.30669,68.646222 570.80612,84.827333 617.47927,131.49607 644.13817,153.6176 651.1242,189.32148 662.82135,220.19386 674.13475,256.61345 670.84203,298.31064 648.69073,330.09619 633.08829,354.36942 615.88027,378.23765 594.54682,397.77581 577.67602,415.53202 561.07391,422.57729 545.21774,419.77911 536.22687,435.40164 564.88959,427.12313 563.92915,418.03266"
       inkscape:connector-curvature="0"
       id="path2992"
       style="fill:none;stroke:#0000e9;stroke-width:1;stroke-miterlimit:4;stroke-opacity:1;stroke-dasharray:none;stroke-dashoffset:0" />
    <path
       d="M 375.53826,79.799517 C 393.48709,56.964783 417.58124,62.808186 440.20048,61.768707"
       inkscape:connector-curvature="0"
       id="path2994"
       style="fill:none;stroke:#0000e9;stroke-width:1;stroke-miterlimit:4;stroke-opacity:1;stroke-dasharray:none;stroke-dashoffset:0" />
    <path
       d="M 420.30442,326.6351 C 386.90429,333.48502 352.13391,332.11344 317.09357,329.12211 339.13028,314.97304 384.89847,300.40121 420.30442,326.6351 z"
       inkscape:connector-curvature="0"
       id="path2996"
       style="fill:none;stroke:#0000e9;stroke-width:1;stroke-miterlimit:4;stroke-opacity:1;stroke-dasharray:none;stroke-dashoffset:0" />
    <path
       d="M 373.05128,311.0913 371.95147,187.36273 C 365.98091,185.44281 359.52966,182.40129 354.70957,183.1658 M 371.80775,171.19708 371.83265,173.99612 C 366.02133,173.96252 360.21001,173.90722 354.39869,173.06233 L 354.70957,183.1658"
       inkscape:connector-curvature="0"
       id="path2998"
       style="fill:none;stroke:#0000e9;stroke-width:1;stroke-miterlimit:4;stroke-opacity:1;stroke-dasharray:none;stroke-dashoffset:0" />
    <path
       d="M 540.30257,423.62843 C 506.97537,407.92208 477.31613,412.8672 455.43341,426.11543"
       inkscape:connector-curvature="0"
       id="path3002"
       style="fill:none;stroke:#0000e9;stroke-width:1;stroke-miterlimit:4;stroke-opacity:1;stroke-dasharray:none;stroke-dashoffset:0" />
    <path
       d="M 371.65231,174.1504 C 382.50616,175.15953 394.1726,172.4952 403.87636,167.2451 407.15528,165.47109 410.22785,163.36634 412.999,160.97882 416.47039,155.68038 419.94179,150.38193 423.41318,145.08349 465.48536,154.25738 510.33821,160.5051 545.78144,187.02476 560.92306,198.20934 571.73215,211.58602 581.64909,229.64177 587.18043,240.03363 597.26627,251.73295 600.11106,264.8497 604.49945,282.44055 600.37636,300.79562 596.66937,318.09541 593.79224,330.51079 586.46231,341.28498 576.18279,348.77054 568.31839,355.37765 559.23218,360.39136 549.62885,363.94022"
       inkscape:connector-curvature="0"
       id="path3004"
       style="fill:none;stroke:#0000e9;stroke-width:1;stroke-miterlimit:4;stroke-opacity:1;stroke-dasharray:none;stroke-dashoffset:0" />
    <path
       d="M 372.42951,187.6735 440.20048,166.84481 C 442.88048,166.84481 441.86424,166.84481 443.30924,166.84481 486.92097,171.26068 528.62178,169.92642 575.43156,228.70915 592.81269,261.25682 609.85141,295.31757 580.56102,344.19959"
       inkscape:connector-curvature="0"
       id="path3009"
       style="fill:none;stroke:#0000e9;stroke-width:1;stroke-miterlimit:4;stroke-opacity:1;stroke-dasharray:none;stroke-dashoffset:0" />
    <path
       d="M 409.11288,177.4146 C 433.38715,189.95228 438.18798,265.42462 415.3304,279.38194"
       inkscape:connector-curvature="0"
       id="path3013"
       style="fill:none;stroke:#0000e9;stroke-width:1;stroke-miterlimit:4;stroke-opacity:1;stroke-dasharray:none;stroke-dashoffset:0" />
    <path
       d="M 459.1587,168.96633 C 458.69716,175.54226 454.44111,182.39432 450.69096,187.3867 445.66114,193.32259 437.27497,200.05281 437.23949,208.04946 437.70239,222.30743 441.0483,242.41843 437.62859,254.89561 434.98637,268.76631 430.44633,272.86591 422.19443,278.61442 418.74058,280.7975 412.95808,279.00855 415.69465,279.48862"
       inkscape:connector-curvature="0"
       id="path3015"
       style="fill:none;stroke:#0000e9;stroke-width:1;stroke-miterlimit:4;stroke-opacity:1;stroke-dasharray:none;stroke-dashoffset:0" />
    <path
       d="M 569.52492,415.85653 C 563.04265,408.0385 559.88426,395.34221 558.33338,382.59279 L 530.35454,390.67556"
       inkscape:connector-curvature="0"
       id="path3025"
       style="fill:none;stroke:#0000e9;stroke-width:1;stroke-miterlimit:4;stroke-opacity:1;stroke-dasharray:none;stroke-dashoffset:0" />
    <path
       d="M 539.68082,422.38492 C 538.09244,421.90412 540.81586,419.90144 539.73292,421.799 539.42826,415.3622 536.90819,409.24939 536.72387,402.79689 535.89719,398.71186 534.21719,394.66625 531.48455,391.49742 528.27573,388.6412 523.4566,391.20774 521.76019,394.5365 518.17031,399.54354 519.14322,405.32327 512.92272,407.58042 508.96061,409.5588 500.76461,410.53688 496.44,410.9166 491.00456,411.79451 485.45464,411.89163 480.06823,413.06255 475.71889,413.27357 471.18302,412.15415 466.99671,413.80287 463.20892,412.91663 459.12324,416.52786 455.68153,413.75507 451.25697,409.81668 451.11626,401.15391 456.8696,398.36746 461.09013,396.42541 466.03367,397.12769 470.18624,394.95801 475.38322,393.08626 480.90201,392.33198 486.3516,391.78271 491.82422,389.94021 497.66706,389.17614 503.40747,389.94985 507.60886,389.5434 511.56799,391.27504 514.47078,394.26233 515.33908,395.67801 519.3504,396.59982 519.14724,398.42424"
       inkscape:connector-curvature="0"
       id="path3027"
       style="fill:none;stroke:#0000e9;stroke-width:1;stroke-miterlimit:4;stroke-opacity:1;stroke-dasharray:none;stroke-dashoffset:0" />
    <path
       d="M 484.34488,391.91907 482.47963,412.43689"
       inkscape:connector-curvature="0"
       id="path3036"
       style="fill:none;stroke:#0000e9;stroke-width:1;stroke-miterlimit:4;stroke-opacity:1;stroke-dasharray:none;stroke-dashoffset:0" />
    <path
       d="M 456.36604,327.25685 C 446.96663,301.77415 449.62201,273.90742 453.25728,247.67258 460.19278,248.91599 463.54145,252.25879 462.72649,263.46707 456.61198,287.56949 462.71949,304.26168 462.28685,326.1165"
       inkscape:connector-curvature="0"
       id="path3038"
       style="fill:none;stroke:#0000e9;stroke-width:1;stroke-miterlimit:4;stroke-opacity:1;stroke-dasharray:none;stroke-dashoffset:0" />
    <path
       d="M 437.74796,256.11957 449.52676,276.27318"
       inkscape:connector-curvature="0"
       id="path3040"
       style="fill:none;stroke:#0000e9;stroke-width:1;stroke-miterlimit:4;stroke-opacity:1;stroke-dasharray:none;stroke-dashoffset:0" />
    <path
       d="M 456.98779,327.25685 C 454.11471,331.74704 450.96037,335.2059 447.5626,337.77221"
       inkscape:connector-curvature="0"
       id="path3044"
       style="fill:none;stroke:#0000e9;stroke-width:1;stroke-miterlimit:4;stroke-opacity:1;stroke-dasharray:none;stroke-dashoffset:0" />
    <path
       d="M 447.66151,337.20488 C 455.42107,359.74657 468.09429,378.07655 487.45364,390.67556"
       inkscape:connector-curvature="0"
       id="path3046"
       style="fill:none;stroke:#0000e9;stroke-width:1;stroke-miterlimit:4;stroke-opacity:1;stroke-dasharray:none;stroke-dashoffset:0" />
    <path
       d="M 464.44881,369.53599 C 457.84491,377.79617 456.75512,386.97536 460.09655,396.89309"
       inkscape:connector-curvature="0"
       id="path3048"
       style="fill:none;stroke:#0000e9;stroke-width:1;stroke-miterlimit:4;stroke-opacity:1;stroke-dasharray:none;stroke-dashoffset:0" />
    <path
       d="M 549.62885,363.31847 C 549.84746,364.69278 548.8953,365.94173 547.81595,366.67577 544.85445,370.09137 541.9383,373.7488 537.89831,375.94618 536.12693,377.22709 533.34965,377.38654 531.75628,375.72999 529.96824,373.84794 530.18861,370.65012 531.88621,368.78458 534.45581,364.72341 538.83011,361.96782 543.5078,361.02865 545.1447,360.25794 547.31181,360.94175 548.19429,362.52537 548.57733,362.90623 549.07984,363.25495 549.64707,363.20659"
       inkscape:connector-curvature="0"
       id="path3058"
       style="fill:none;stroke:#0000e9;stroke-width:1;stroke-miterlimit:4;stroke-opacity:1;stroke-dasharray:none;stroke-dashoffset:0" />
    <path
       d="M 525.44528,357.95116 C 522.93567,358.91704 520.31977,359.57982 518.52673,359.58099 512.20028,360.52879 506.57296,356.79352 500.89297,354.68856 495.44736,352.39875 490.06287,349.80371 485.48883,346.01373 480.96179,342.6128 475.99689,339.62762 470.46065,338.24882 466.05058,336.35819 459.45522,332.32582 455.00622,330.51948"
       inkscape:connector-curvature="0"
       id="path3077"
       style="fill:none;stroke:#0000e9;stroke-width:1;stroke-miterlimit:4;stroke-opacity:1;stroke-dasharray:none;stroke-dashoffset:0" />
    <path
       d="M 498.17887,353.52587 C 498.26107,355.61839 498.67439,358.81403 499.85951,360.5575 501.27452,367.68345 506.22885,371.4596 511.53177,376.28159 514.90534,378.3908 518.45123,380.3669 522.19638,379.86934 526.53285,379.19735 530.83119,378.13656 534.88687,376.45031 535.0312,376.41021 535.18105,376.39971 535.3284,376.37571"
       inkscape:connector-curvature="0"
       id="path3085"
       style="fill:none;stroke:#0000e9;stroke-width:1;stroke-miterlimit:4;stroke-opacity:1;stroke-dasharray:none;stroke-dashoffset:0" />
    <path
       d="M 524.95701,357.50513 C 519.21689,353.39706 515.59727,346.54938 508.76074,343.96039 502.56443,340.54063 497.13814,335.84557 490.81531,332.66068 486.70714,331.25187 482.70865,329.50418 478.61503,328.08669 473.94315,327.20975 469.02236,327.91743 464.49493,326.24598 461.87787,326.02972 459.41396,328.5902 456.83948,327.15021"
       inkscape:connector-curvature="0"
       id="path3115"
       style="fill:none;stroke:#0000e9;stroke-width:1;stroke-miterlimit:4;stroke-opacity:1;stroke-dasharray:none;stroke-dashoffset:0" />
    <path
       d="M 403.5171,167.15569 C 424.54953,165.76641 417.78341,153.90557 452.94639,151.30101"
       inkscape:connector-curvature="0"
       id="path3014"
       style="fill:none;stroke:#0000e9;stroke-width:1;stroke-miterlimit:4;stroke-opacity:1;stroke-dasharray:none;stroke-dashoffset:0" />
    <path
       d="M 527.24577,379.17315 C 521.42875,383.55846 521.54586,391.50426 519.47387,398.13659"
       inkscape:connector-curvature="0"
       id="path3018"
       style="fill:none;stroke:#0000e9;stroke-width:1;stroke-miterlimit:4;stroke-opacity:1;stroke-dasharray:none;stroke-dashoffset:0" />
    <path
       d="M 373.35057,312.45506 C 357.42065,312.47336 341.74781,316.8565 327.44074,323.6573 324.93869,325.11658 321.88288,325.94829 319.87018,328.04743 319.49479,329.62603 321.90734,329.11257 322.80152,329.37637 337.18935,330.51974 351.61233,331.4988 366.05469,331.18134 383.31597,331.24944 400.69013,330.39418 417.62126,326.92051 418.71942,326.96521 419.00805,325.67904 418.00014,325.26898 407.209,317.9493 394.45273,313.44326 381.42403,312.59478 378.7351,312.46398 376.04244,312.4194 373.35057,312.45506 z"
       inkscape:connector-curvature="0"
       id="path3020"
       style="fill:#bfb879;stroke:none" />
    <path
       d="M 423.4441,145.44379 C 419.67065,150.78644 416.53547,156.64711 412.34972,161.62877 411.13065,162.97333 409.07532,163.6922 408.32776,165.369 408.8518,166.82936 410.86303,165.72086 411.90283,165.49529 418.80946,163.04149 424.3284,157.85034 431.19732,155.32755 436.42653,153.02018 442.19589,152.72169 447.70215,151.4573 448.42516,150.02892 445.83803,150.26444 445.04747,149.83662 438.00837,148.23761 430.91829,146.86838 423.86184,145.34664 L 423.55905,145.41704 423.4441,145.44374 z"
       inkscape:connector-curvature="0"
       id="path3022"
       style="fill:#b46a9f;stroke:none" />
    <path
       d="M 562.59028,419.24786 C 558.74772,419.9099 554.91654,420.64471 550.97129,420.3165 548.96154,420.60663 546.12394,419.44388 544.6469,421.2977 543.73062,423.23498 542.86125,426.47802 545.33666,427.6318 550.57391,429.35244 556.1581,426.89447 560.36557,423.83328 561.52896,422.641 563.24727,421.44993 563.4549,419.69475 563.3817,419.25669 562.939,419.20078 562.59028,419.24786 z"
       inkscape:connector-curvature="0"
       id="path3034"
       style="fill:#6abbd5;stroke:none" />
    <path
       d="M 513.25635,407.77375 501.44306,413.68039"
       inkscape:connector-curvature="0"
       id="path3037"
       style="fill:none;stroke:#0000e9;stroke-width:1;stroke-miterlimit:4;stroke-opacity:1;stroke-dasharray:none;stroke-dashoffset:0" />
    <path
       d="M 556.94594,383.46797 C 549.7133,384.91198 542.72564,387.43946 535.59603,389.35708 534.40726,389.97664 532.49097,389.76842 531.72612,390.929 532.3231,392.79393 533.88804,394.23983 534.57258,396.10703 537.34348,401.39269 537.08592,407.50602 538.51157,413.1907 539.24877,416.1063 539.46492,419.24679 540.50836,422.06518 541.83378,422.70944 542.55561,420.52826 543.68513,420.06391 544.22619,419.96166 544.7649,419.86834 545.26865,419.65589 552.34764,420.67807 559.6626,420.00691 566.36532,417.499 567.72423,417.11556 570.67457,416.55208 568.55744,414.83571 562.76306,406.75047 560.41567,396.74411 558.80041,387.04704 558.30634,385.79783 559.18764,383.07882 556.94594,383.46797 z"
       inkscape:connector-curvature="0"
       id="path3039"
       style="fill:#b9abdd;stroke:none" />
    <path
       d="M 527.83045,390.57926 C 523.23198,390.97794 521.1368,395.77391 519.52423,399.45866 518.45781,402.49678 517.02836,405.72717 514.0159,407.2597 511.1258,409.58479 507.29485,410.51173 504.43703,412.83604 504.46843,414.2915 506.72281,413.78616 507.70792,414.10188 518.21521,415.25508 528.50467,418.06795 538.09908,422.49263 540.02042,421.86278 539.29023,419.24754 539.05113,417.69348 537.9039,412.06853 537.10105,406.35803 535.94237,400.75074 534.79404,397.21915 533.43769,393.28847 530.28831,391.04558 529.53199,390.66892 528.67625,390.51925 527.83045,390.57926 z"
       inkscape:connector-curvature="0"
       id="path3041"
       style="fill:#d5be6c;stroke:none" />
    <path
       d="M 498.59839,414.18641 C 488.86045,414.01365 479.18473,415.9298 470.07551,419.26729 465.18651,421.02622 460.51429,423.41135 456.08609,426.05799 455.52536,427.322 457.67596,427.76135 458.34485,428.5346 468.35991,435.27557 478.67495,442.42584 490.77791,444.59397 497.44212,445.0573 504.30108,445.07289 510.80027,443.38933 522.13563,440.29697 531.47433,432.50438 539.44944,424.28017 539.78352,422.97404 537.58486,422.90401 536.8127,422.30217 524.77583,417.14465 511.76641,413.85825 498.59839,414.18641 z"
       inkscape:connector-curvature="0"
       id="path3045"
       style="fill:#c7a1db;stroke:none" />
    <path
       d="M 481.58764,392.53195 C 474.33482,393.32754 467.65503,396.51081 460.45516,397.51372 457.35062,397.9884 454.15669,399.68191 453.24935,402.87829 451.88006,406.90528 453.13612,412.23628 457.07701,414.26413 460.44583,415.07405 463.72164,413.35953 467.10276,413.48694 471.89121,412.34515 476.91588,413.16286 481.78194,412.64175 482.83398,411.57144 482.22303,409.57434 482.65628,408.19233 483.09733,403.06965 483.79923,397.95567 483.92892,392.81368 483.67889,391.82171 482.26595,392.63157 481.58764,392.53195 z"
       inkscape:connector-curvature="0"
       id="path3047"
       style="fill:#a4a7da;stroke:none" />
    <path
       d="M 464.27573,370.37232 C 459.43568,375.88838 457.71196,383.73915 458.83079,390.9453 459.25526,392.91244 459.41848,395.12214 460.4675,396.84536 462.01005,397.27126 463.66276,396.37667 465.24722,396.24303 471.1783,394.60174 477.02692,392.52141 483.22945,392.01706 484.28567,391.63221 486.30079,392.18656 486.65881,390.87071 485.381,388.92113 482.90432,388.03718 481.21847,386.44072 475.18276,381.80521 469.88935,376.25768 464.9072,370.4889 464.72149,370.30192 464.5232,370.32424 464.27573,370.37232 z"
       inkscape:connector-curvature="0"
       id="path3049"
       style="fill:#a1d081;stroke:none" />
    <path
       d="M 454.83287,330.94935 C 452.69998,333.30585 450.12908,335.4284 448.25214,337.91838 451.8163,348.64974 457.11164,358.92594 463.7997,368.09904 470.17826,376.72488 478.21809,384.0891 486.95025,390.25867 487.89509,391.80108 489.80842,390.35954 491.19565,390.33637 496.95189,389.48966 502.94602,389.21637 508.663,390.44323 512.77194,391.45125 515.14298,395.41622 518.98991,396.96192 520.29522,396.57837 519.86283,394.47089 520.45718,393.42657 521.65229,389.00457 522.36231,384.21804 525.40173,380.59235 525.1582,378.89815 522.09562,380.2029 520.72888,379.79573 518.65232,380.09758 516.78406,379.52679 515.05049,378.39169 510.1651,376.1046 506.43398,371.91238 502.99923,367.89501 500.62868,364.21811 499.00661,359.94173 498.22922,355.60569 498.60406,353.13486 495.57552,352.752 494.02921,351.73058 486.50941,347.83561 480.27571,341.34433 471.98934,338.92524 466.1469,336.72951 460.80969,333.25194 455.10497,330.84512 L 454.98831,330.84212 454.83287,330.94898 z"
       inkscape:connector-curvature="0"
       id="path3051"
       style="fill:#8791c4;stroke:none" />
    <path
       d="M 459.81581,168.46821 C 458.64775,168.50091 459.07589,169.89447 458.04349,170.04818 457.30198,175.65135 453.66291,180.45745 450.18484,184.76256 444.52215,191.73639 438.65557,199.89642 439.39979,209.36894 439.06922,215.5813 440.4762,221.67655 440.67751,227.84778 440.03204,237.45523 440.19267,247.26196 438.20451,256.67201 442.04035,262.90314 445.41312,269.56371 449.52537,275.53553 451.22604,274.13211 450.12231,270.7928 450.76259,268.66808 451.25753,260.85971 452.90657,253.1156 453.09749,245.30993 452.77415,242.72054 456.60037,242.32179 457.83741,244.12838 461.17066,248.90512 462.25542,254.90254 463.46347,260.49863 465.24356,270.21286 463.58123,280.23129 465.99832,289.86522 467.03364,294.87164 466.81145,300.1432 467.49244,305.09652 477.78322,310.28421 487.29672,317.1666 495.23472,325.65508 500.17979,330.69083 504.78426,336.23896 508.0806,342.48524 511.39278,345.87144 516.00478,347.87361 520.12963,350.16529 528.56519,354.07646 538.36288,354.35533 546.40318,359.18967 548.5461,359.91497 549.98643,361.83319 552.03138,362.58527 557.63182,360.84838 562.79468,357.68988 567.81738,354.67165 572.57621,351.28714 577.96956,348.08719 581.13948,343.0974 587.28058,331.73724 592.8263,319.80121 594.96285,306.93625 598.93415,286.13153 593.33875,264.73812 584.03738,246.15031 579.83722,237.6023 576.08262,228.61203 569.31493,221.69275 552.25887,201.7524 530.85169,184.69795 505.52907,176.70828 490.76887,171.74991 475.21943,170.10796 459.81581,168.46821 z"
       inkscape:connector-curvature="0"
       id="path3056"
       style="fill:none" />
    <path
       d="M 459.81581,168.46821 C 458.64775,168.50091 459.07589,169.89447 458.04349,170.04818 457.30198,175.65135 453.66291,180.45745 450.18484,184.76256 444.52215,191.73639 438.65557,199.89642 439.39979,209.36894 439.06922,215.5813 440.4762,221.67655 440.67751,227.84778 440.03204,237.45523 440.19267,247.26196 438.20451,256.67201 442.04035,262.90314 445.41312,269.56371 449.52537,275.53553 451.22604,274.13211 450.12231,270.7928 450.76259,268.66808 451.25753,260.85971 452.90657,253.1156 453.09749,245.30993 452.77415,242.72054 456.60037,242.32179 457.83741,244.12838 461.17066,248.90512 462.25542,254.90254 463.46347,260.49863 465.24356,270.21286 463.58123,280.23129 465.99832,289.86522 467.03364,294.87164 466.81145,300.1432 467.49244,305.09652 477.78322,310.28421 487.29672,317.1666 495.23472,325.65508 500.17979,330.69083 504.78426,336.23896 508.0806,342.48524 511.39278,345.87144 516.00478,347.87361 520.12963,350.16529 528.56519,354.07646 538.36288,354.35533 546.40318,359.18967 548.5461,359.91497 549.98643,361.83319 552.03138,362.58527 557.63182,360.84838 562.79468,357.68988 567.81738,354.67165 572.57621,351.28714 577.96956,348.08719 581.13948,343.0974 587.28058,331.73724 592.8263,319.80121 594.96285,306.93625 598.93415,286.13153 593.33875,264.73812 584.03738,246.15031 579.83722,237.6023 576.08262,228.61203 569.31493,221.69275 552.25887,201.7524 530.85169,184.69795 505.52907,176.70828 490.76887,171.74991 475.21943,170.10796 459.81581,168.46821 z"
       inkscape:connector-curvature="0"
       id="path3059"
       style="fill:none" />
    <path
       d="M 459.81581,168.46821 C 458.64775,168.50091 459.07589,169.89447 458.04349,170.04818 457.30198,175.65135 453.66291,180.45745 450.18484,184.76256 444.52215,191.73639 438.65557,199.89642 439.39979,209.36894 439.06922,215.5813 440.4762,221.67655 440.67751,227.84778 440.03204,237.45523 440.19267,247.26196 438.20451,256.67201 442.04035,262.90314 445.41312,269.56371 449.52537,275.53553 451.22604,274.13211 450.12231,270.7928 450.76259,268.66808 451.25753,260.85971 452.90657,253.1156 453.09749,245.30993 452.77415,242.72054 456.60037,242.32179 457.83741,244.12838 461.17066,248.90512 462.25542,254.90254 463.46347,260.49863 465.24356,270.21286 463.58123,280.23129 465.99832,289.86522 467.03364,294.87164 466.81145,300.1432 467.49244,305.09652 477.78322,310.28421 487.29672,317.1666 495.23472,325.65508 500.17979,330.69083 504.78426,336.23896 508.0806,342.48524 511.39278,345.87144 516.00478,347.87361 520.12963,350.16529 528.56519,354.07646 538.36288,354.35533 546.40318,359.18967 548.5461,359.91497 549.98643,361.83319 552.03138,362.58527 557.63182,360.84838 562.79468,357.68988 567.81738,354.67165 572.57621,351.28714 577.96956,348.08719 581.13948,343.0974 587.28058,331.73724 592.8263,319.80121 594.96285,306.93625 598.93415,286.13153 593.33875,264.73812 584.03738,246.15031 579.83722,237.6023 576.08262,228.61203 569.31493,221.69275 552.25887,201.7524 530.85169,184.69795 505.52907,176.70828 490.76887,171.74991 475.21943,170.10796 459.81581,168.46821 z"
       inkscape:connector-curvature="0"
       id="path3061"
       style="fill:none" />
    <path
       d="M 459.81581,168.46821 C 458.64775,168.50091 459.07589,169.89447 458.04349,170.04818 457.30198,175.65135 453.66291,180.45745 450.18484,184.76256 444.52215,191.73639 438.65557,199.89642 439.39979,209.36894 439.06922,215.5813 440.4762,221.67655 440.67751,227.84778 440.03204,237.45523 440.19267,247.26196 438.20451,256.67201 442.04035,262.90314 445.41312,269.56371 449.52537,275.53553 451.22604,274.13211 450.12231,270.7928 450.76259,268.66808 451.25753,260.85971 452.90657,253.1156 453.09749,245.30993 452.77415,242.72054 456.60037,242.32179 457.83741,244.12838 461.17066,248.90512 462.25542,254.90254 463.46347,260.49863 465.24356,270.21286 463.58123,280.23129 465.99832,289.86522 467.03364,294.87164 466.81145,300.1432 467.49244,305.09652 477.78322,310.28421 487.29672,317.1666 495.23472,325.65508 500.17979,330.69083 504.78426,336.23896 508.0806,342.48524 511.39278,345.87144 516.00478,347.87361 520.12963,350.16529 528.56519,354.07646 538.36288,354.35533 546.40318,359.18967 548.5461,359.91497 549.98643,361.83319 552.03138,362.58527 557.63182,360.84838 562.79468,357.68988 567.81738,354.67165 572.57621,351.28714 577.96956,348.08719 581.13948,343.0974 587.28058,331.73724 592.8263,319.80121 594.96285,306.93625 598.93415,286.13153 593.33875,264.73812 584.03738,246.15031 579.83722,237.6023 576.08262,228.61203 569.31493,221.69275 552.25887,201.7524 530.85169,184.69795 505.52907,176.70828 490.76887,171.74991 475.21943,170.10796 459.81581,168.46821 z"
       inkscape:connector-curvature="0"
       id="path3063"
       style="fill:none" />
    <path
       d="M 407.82778,177.75571 C 399.77648,179.18679 392.15709,182.48238 384.29303,184.73508 380.70576,186.11162 376.6906,186.81018 373.34312,188.58197 373.25222,198.71601 377.42048,209.59388 386.45445,214.98348 392.08144,217.63162 397.61703,220.49933 402.5566,224.34218 410.82479,230.30537 419.6358,235.50127 429.02692,239.48463 430.8858,238.81991 429.76314,235.96829 430.05734,234.44245 429.35114,217.90283 427.051,200.59501 418.04474,186.35779 415.74139,183.16099 413.15865,179.85748 409.68253,177.93432 409.08156,177.75942 408.45169,177.70475 407.82778,177.75571 z"
       inkscape:connector-curvature="0"
       id="path3065"
       style="fill:none" />
    <path
       d="M 497.46592,389.96967 C 493.08586,390.27061 488.54488,391.08231 484.53662,392.60867 483.92379,398.79903 483.1377,405.17899 483.04007,411.4161 484.59521,412.79089 487.16126,411.4111 489.03518,411.55261 497.41131,410.19461 506.42483,410.51336 514.10374,406.56627 517.04999,404.88359 518.77064,401.38015 519.07723,398.19927 514.71557,394.51872 510.12185,390.16441 504.00564,390.2307 501.83403,390.0085 499.64903,389.87671 497.46592,389.96967 z"
       inkscape:connector-curvature="0"
       id="path3043"
       style="fill:#dbafbc;stroke:none" />
    <path
       d="M 601.87417,268.08335 C 612.19772,275.37818 618.80812,284.5296 622.09785,295.34134 623.49559,308.37936 621.05856,320.03559 608.0292,327.87508"
       inkscape:connector-curvature="0"
       id="path3060"
       style="fill:none;stroke:#0000e9;stroke-width:1;stroke-miterlimit:4;stroke-opacity:1;stroke-dasharray:none;stroke-dashoffset:0" />
    <path
       d="M 593.96056,328.75437 C 602.66533,324.19703 607.23295,325.84539 608.90849,331.83189 602.9179,341.67568 598.06629,353.11405 586.48659,355.13308 586.14695,349.90388 580.7382,349.74379 574.61617,350.29698"
       inkscape:connector-curvature="0"
       id="path3062"
       style="fill:none;stroke:#0000e9;stroke-width:1;stroke-miterlimit:4;stroke-opacity:1;stroke-dasharray:none;stroke-dashoffset:0" />
    <path
       d="M 586.92624,356.01237 C 576.94219,364.96016 539.2067,394.1263 548.23747,366.12421"
       inkscape:connector-curvature="0"
       id="path3064"
       style="fill:none;stroke:#0000e9;stroke-width:1;stroke-miterlimit:4;stroke-opacity:1;stroke-dasharray:none;stroke-dashoffset:0" />
    <path
       d="M 623.41678,294.02241 C 616.81335,290.54903 609.1943,292.15375 601.43453,294.46205"
       inkscape:connector-curvature="0"
       id="path3066"
       style="fill:none;stroke:#0000e9;stroke-width:1;stroke-miterlimit:4;stroke-opacity:1;stroke-dasharray:none;stroke-dashoffset:0" />
    <path
       d="M 560.10789,387.22717 C 562.94135,385.91942 565.62081,384.24959 566.94171,382.29136 568.24317,379.36735 572.53245,379.07838 574.7801,377.34309 581.43036,373.83247 590.93311,372.17243 593.58005,365.80687 604.15238,359.1114 612.44657,349.93798 619.49693,341.81354 622.20853,339.20857 629.67639,337.54682 622.95912,344.28276 621.78965,347.77778 618.70136,349.84568 616.08885,352.02721 611.57455,357.42157 607.67958,363.56906 601.66444,367.46601 591.77363,375.0253 581.25473,381.75623 570.28274,387.63454 567.16923,388.88751 564.98293,391.7828 561.97584,393.28618 561.02299,393.65682 561.7055,392.36201 561.86651,392.06327"
       inkscape:connector-curvature="0"
       id="path3068"
       style="fill:none;stroke:#0000e9;stroke-width:1;stroke-miterlimit:4;stroke-opacity:1;stroke-dasharray:none;stroke-dashoffset:0" />
    <path
       d="M 601.36779,268.88865 C 602.20902,277.03344 601.88613,285.29876 601.69753,293.49504 603.02692,294.70775 605.36836,292.65154 607.15188,292.69818 611.50332,291.81453 616.06092,292.52274 620.38245,291.97002 619.11259,286.95934 615.79438,282.5047 612.58757,278.44171 609.40624,274.83165 605.95547,271.13873 601.8624,268.61387 601.66804,268.60017 601.53541,268.80681 601.36779,268.88865 z"
       inkscape:connector-curvature="0"
       id="path3076"
       style="fill:#d39ccd;stroke:none" />
    <path
       d="M 601.50518,326.60581 C 598.66779,327.00845 595.79647,327.87373 593.28932,329.16125 591.15458,332.02289 589.73877,335.55314 587.2442,338.28389 584.37644,342.25905 580.32065,345.33459 577.10488,348.82163 577.15558,350.50569 580.02436,349.75225 581.18326,350.15578 583.74617,350.15178 585.71671,351.82286 586.74959,354.05615 588.66166,355.29032 590.92221,353.23509 592.6848,352.42122 600.08505,347.5666 604.42258,339.41593 608.26473,331.68921 608.4967,329.45066 606.18769,327.37389 604.15679,326.79816 603.29248,326.59318 602.39059,326.52891 601.50518,326.60581 z"
       inkscape:connector-curvature="0"
       id="path3078"
       style="fill:#c9ca98;stroke:none" />
    <path
       d="M 613.82899,292.36845 C 609.57266,292.69513 605.05992,293.36081 601.23041,295.0338 599.58897,305.97591 597.44315,316.86888 594.07243,327.38893 594.93716,328.8838 596.98442,326.74832 598.27654,326.72946 601.2152,325.74153 604.76419,325.74135 607.28926,327.75988 611.26717,325.87497 614.50818,322.28747 617.24809,318.80418 622.29034,311.87463 622.72951,302.65153 621.55025,294.44302 620.31316,291.91099 616.12963,292.51265 613.82899,292.36845 z"
       inkscape:connector-curvature="0"
       id="path3080"
       style="fill:#bc90cc;stroke:none" />
    <path
       d="M 623.89961,339.8089 C 618.52332,341.64384 615.7472,347.28347 611.58613,350.8071 606.21142,356.41373 600.23522,361.31207 594.16861,366.13266 591.71873,369.18605 588.68023,371.63349 585.00636,373.15015 578.25274,376.44956 570.27721,378.44975 565.2482,384.26802 563.76024,386.07524 560.67432,386.17653 559.62899,388.33473 559.61579,389.83505 559.52723,393.01659 561.85469,392.40145 565.8938,390.90555 569.09708,387.60457 573.02118,385.80118 584.45914,379.27869 595.72187,372.19963 605.79172,363.70087 610.90412,358.53496 614.99127,352.49096 620.4374,347.69504 622.07304,345.45145 623.75343,343.13565 625.03994,340.68819 625.22265,339.97035 624.4933,339.68329 623.89961,339.8089 z"
       inkscape:connector-curvature="0"
       id="path3084"
       style="fill:#d5be93;stroke:none" />
    <path
       d="M 449.7063,151.73284 C 440.34959,152.66379 430.72046,154.52451 422.83854,159.94218 418.15647,163.04736 413.23307,166.16684 407.50036,166.80443 405.13698,166.92461 402.91064,167.70643 400.86447,168.85839 391.40797,173.30996 380.76006,175.14937 370.32376,174.16175 365.22109,173.87908 360.08858,173.93363 355.0246,173.25485 353.84248,173.84927 354.84824,175.72653 354.63265,176.84674 354.82995,178.83021 354.56905,180.90135 354.91469,182.83087 356.98757,183.0157 359.15378,183.05014 361.17198,183.71267 365.11878,184.74481 368.94145,186.34157 372.87144,187.40592 394.80277,180.73096 416.66229,173.81059 438.65502,167.34321 440.52318,166.6637 442.47337,166.58053 444.44267,166.88335 465.81603,168.8364 487.63823,170.1648 508.05012,177.25639 526.32262,183.61125 542.91504,194.35791 556.69087,207.91499 563.52224,214.61626 570.32398,221.53314 575.80889,229.36455 579.36074,235.49631 582.38102,242.00409 585.49889,248.38586 592.6637,263.90167 597.55304,280.89602 596.32388,298.13353 595.39651,312.74955 590.32778,326.78823 583.34067,339.57088 583.11944,340.40418 581.77156,341.41003 582.54782,342.25031 583.69248,342.51926 584.31783,341.03686 585.05516,340.40929 590.65817,333.9193 594.727,326.11349 596.55392,317.71782 599.11002,306.26222 601.47636,294.67105 601.88345,282.90514 602.05023,273.82166 600.70443,264.5853 597.06984,256.22412 592.63394,246.67692 586.28482,238.21986 581.16219,229.06125 575.12808,218.40627 568.35167,208.06399 559.61074,199.40165 546.18888,185.46931 529.276,175.42743 511.47159,168.11851 492.62564,160.38749 472.76086,155.57041 452.86624,151.41685 451.81293,151.52218 450.75961,151.62751 449.7063,151.73284 z"
       inkscape:connector-curvature="0"
       id="path3052"
       style="fill:#73a0a6;stroke:none" />
    <path
       d="M 460.96792,276.43661 C 471.56758,294.14216 484.33782,313.10347 489.1052,331.39225"
       inkscape:connector-curvature="0"
       id="path3054"
       style="fill:none;stroke:#0000e9;stroke-width:1;stroke-linecap:round;stroke-miterlimit:4;stroke-opacity:1;stroke-dasharray:none;stroke-dashoffset:0" />
    <path
       d="M 453.97276,248.01357 C 452.74586,248.61678 453.2121,250.39888 452.85304,251.517 450.52851,268.78943 449.10568,286.34121 450.98054,303.72876 451.94217,311.30743 453.46912,318.87738 456.16412,326.03684 456.62503,327.84663 458.78884,327.49374 460.1484,327.12222 461.46872,326.9984 462.70466,326.42497 462.20924,324.87591 462.18594,307.10513 458.12858,289.28704 460.98603,271.5674 461.51933,267.52405 463.05294,263.58628 462.56656,259.44445 462.53136,256.10218 461.97311,252.28861 459.0715,250.17564 457.58955,249.08692 455.81462,248.20976 453.97276,248.01357 z"
       inkscape:connector-curvature="0"
       id="path3824"
       style="fill:#9de082;stroke:none" />
    <path
       d="M 460.87656,277.79953 C 460.09973,278.45166 460.39845,279.95272 460.22397,280.95261 459.55909,295.93925 462.65955,310.75011 462.30541,325.73459 462.85688,326.72954 464.34912,325.98219 465.3115,326.38738 470.16297,327.74435 475.32875,327.11407 480.17973,328.39994 482.89908,329.37957 485.45169,330.88686 488.31317,331.40189 489.33648,330.82546 488.22717,329.45207 488.15517,328.59915 484.18916,315.78038 477.388,304.12345 470.61125,292.63828 467.58508,287.73035 464.79344,282.64165 461.53603,277.8957 461.37847,277.72009 461.07389,277.62395 460.87656,277.7995 z"
       inkscape:connector-curvature="0"
       id="path3826"
       style="fill:#78a9c2;stroke:none" />
    <path
       d="M 404.44974,294.30399 C 401.52993,315.81218 381.49013,318.49739 380.20141,297.41275 382.08924,289.47759 381.76114,278.49553 389.83856,279.07106 394.74155,287.87141 399.28399,290.54228 404.44974,294.30399 z"
       inkscape:connector-curvature="0"
       id="path3050"
       style="fill:none;stroke:#0000e9;stroke-width:1;stroke-linecap:round;stroke-miterlimit:4;stroke-opacity:1;stroke-dasharray:none;stroke-dashoffset:0" />
    <path
       d="M 388.57631,279.2988 C 384.81087,279.59674 383.23695,283.59598 382.49483,286.75968 381.38274,292.2253 379.35646,298.08874 381.55234,303.55489 382.77588,307.96972 386.83323,312.39189 391.78222,311.58134 398.25238,310.39242 401.98186,303.89851 403.49836,298.02909 403.69072,296.48204 405.03834,294.32507 403.00304,293.52126 397.8634,289.97932 393.53157,285.49139 390.24727,280.18286 389.85986,279.64309 389.2843,279.1641 388.57631,279.2988 z"
       inkscape:connector-curvature="0"
       id="path3057"
       style="fill:#bfb195;stroke:none" />
    <path
       d="M 440.97376,166.844 C 430.86041,170.00318 420.67705,172.97681 410.63825,176.35133 409.69183,177.75573 412.31078,178.78731 412.93882,179.82417 422.29959,188.55305 426.08211,201.6775 428.3477,213.95472 431.07954,231.13057 431.54232,249.35153 425.44879,265.86033 423.79114,270.59667 420.80488,274.62234 417.79622,278.51386 417.76252,280.58005 420.53883,279.0692 421.42329,278.48636 427.63028,274.82231 433.26062,269.52077 435.28585,262.35688 439.61694,251.00523 438.85741,238.62418 438.33016,226.70567 437.78268,219.38518 437.08998,211.92872 437.31983,204.65686 441.2913,194.93756 450.71315,188.99134 455.26223,179.63491 456.82266,176.43242 458.8301,172.95023 458.60078,169.30325 456.63501,167.44321 453.30512,168.32525 450.8302,167.71139 447.54536,167.42709 444.25964,167.06934 440.97376,166.84398 z"
       inkscape:connector-curvature="0"
       id="path3067"
       style="fill:#a7b0c5;stroke:none" />
    <path
       d="M 580.78125,342.53125 A 1.150115,1.150115 0 0 0 580.0625,342.8125 C 564.38673,355.25279 544.36069,361.23798 525.375,357.3125 A 1.150115,1.150115 0 1 0 524.9375,359.5625 C 544.68993,363.64652 565.35949,357.40286 581.5,344.59375 A 1.150115,1.150115 0 0 0 580.78125,342.53125 z"
       inkscape:connector-curvature="0"
       id="path3140"
       style="font-size:medium;font-style:normal;font-variant:normal;font-weight:normal;font-stretch:normal;text-indent:0;text-align:start;text-decoration:none;line-height:normal;letter-spacing:normal;word-spacing:normal;text-transform:none;direction:ltr;block-progression:tb;writing-mode:lr-tb;text-anchor:start;baseline-shift:baseline;color:#000000;fill:#73a0a6;fill-opacity:1;stroke:none;stroke-width:2.29999995;marker:none;visibility:visible;display:inline;overflow:visible;enable-background:accumulate;font-family:Sans;-inkscape-font-specification:Sans" />
    <path
       d="M 463.91087,326.45167 C 461.71589,326.71593 459.69915,327.93286 457.41237,327.60574 456.33808,327.77285 455.90919,329.12542 455.39275,329.98257 455.51527,331.09538 457.12061,331.12168 457.88018,331.73364 463.47206,334.4908 468.90971,337.69732 474.85168,339.6065 481.89448,342.36629 487.27957,347.96497 494.01283,351.30536 499.87511,354.19437 505.8872,356.84315 512.07778,358.94318 515.09968,359.95442 518.35248,359.39431 521.44256,359.06097 522.32346,358.81667 524.40981,358.74241 523.90182,357.30926 522.10574,354.80792 519.57023,352.89883 517.46514,350.64589 514.81392,347.97563 511.95906,345.46877 508.50221,343.89369 502.89125,340.6827 497.71774,336.72409 492.08251,333.54782 487.53258,331.58264 482.93464,329.64962 478.21308,328.16216 473.58134,327.52658 468.84219,327.65384 464.35052,326.45167 464.20413,326.44167 464.05727,326.44267 463.91087,326.45167 z"
       inkscape:connector-curvature="0"
       id="path3914"
       style="fill:#d68d95;stroke:none" />
    <path
       d="M 459.98155,168.50229 C 458.79761,168.91439 459.27419,170.5919 458.83131,171.52569 456.95643,179.92207 451.5972,186.96334 445.70997,193.03081 442.17937,196.90616 438.42323,201.19528 437.50469,206.51786 437.22088,211.57716 437.9737,216.64157 438.24146,221.69262 438.93482,230.90983 439.63264,240.22079 438.77254,249.43609 438.62763,251.66523 437.66644,253.82709 437.82068,256.0535 441.64411,262.29847 445.13695,268.77613 449.07972,274.95137 450.10866,275.67648 450.3844,274.03454 450.37118,273.32331 451.03243,264.72002 451.9297,256.11523 453.20139,247.56972 456.73767,248.13163 460.55382,249.8856 461.85691,253.47745 463.24418,257.09152 462.97512,261.1366 462.51637,264.89448 461.76926,268.54934 460.82097,272.25071 460.78527,275.98865 469.76546,290.77257 479.37797,305.39561 485.91374,321.49192 487.33959,324.75331 488.23964,328.21358 489.38968,331.56255 490.21,332.65916 491.79586,332.798 492.83815,333.6646 499.28616,337.49475 505.34625,341.98566 511.96014,345.54704 516.81836,348.77467 520.32115,353.71273 524.95285,357.29552 527.27506,358.43574 530.00431,358.30842 532.51538,358.7149 543.44898,359.41516 554.52227,357.34005 564.45758,352.72139 570.04099,350.23705 575.27219,347.00886 580.10771,343.28184 582.21208,342.1025 582.85662,339.50249 584.0986,337.58509 592.51573,321.93852 597.56046,304.03811 596.02921,286.16381 594.78606,270.19072 588.74646,255.10222 581.61352,240.92054 579.17131,236.33258 577.14216,231.47508 574.05717,227.26946 559.06379,208.73727 541.02701,192.03743 519.18921,181.9975 501.00554,173.45033 480.87798,170.43736 461.02871,168.61579 460.66855,168.59919 460.33946,168.47614 459.98155,168.50229 z"
       inkscape:connector-curvature="0"
       id="path3916"
       style="fill:#d0cf6e;stroke:none" />
    <path
       d="M 574.43844,350.4192 C 567.25635,355.89227 559.32221,360.29482 550.92429,363.62229 549.52006,364.02086 549.18687,365.59509 548.41694,366.65859 547.17747,369.4114 546.6614,372.66061 547.45522,375.60262 548.12106,377.29023 550.04978,378.1483 551.78984,377.74589 556.33963,377.29775 560.35679,374.70053 564.28538,372.54571 572.1158,367.84059 579.43812,362.3424 586.30885,356.34067 586.58019,354.8908 586.0941,353.09208 585.02427,351.9717 582.21941,349.54597 578.21748,350.55306 574.84373,350.32303 574.69945,350.29723 574.57314,350.38463 574.43844,350.41923 z"
       inkscape:connector-curvature="0"
       id="path3918"
       style="fill:#ca818c;stroke:none" />
    <path
       d="M 544.99595,360.91573 C 539.20144,361.62792 533.70626,365.21764 531.05783,370.47801 529.91851,372.77952 531.18482,376.11047 533.77126,376.68113 534.37755,376.49119 534.9807,376.18922 535.57106,376.59183 537.32926,376.55033 538.79482,375.19319 540.17794,374.22581 543.39042,371.32282 546.59413,368.28477 549.17258,364.78324 549.8882,363.72265 548.61771,363.02122 547.95669,362.40641 547.22387,361.50334 546.22084,360.7751 544.99595,360.91574 z"
       inkscape:connector-curvature="0"
       id="path3920"
       style="fill:#ac65d7;stroke:none" />
    <path
       d="M 498.60652,354.10123 C 497.90578,355.00223 498.77978,356.29469 498.84008,357.30239 499.40085,359.49536 500.26026,361.563 500.97648,363.70473 503.05871,368.65746 507.20709,372.34066 511.25731,375.71391 514.58592,378.116 518.57277,380.46074 522.8557,379.60064 525.97378,379.08109 529.08082,378.37526 532.06764,377.3612 532.97768,376.38468 531.2154,375.65135 530.96165,374.75081 529.99775,372.61102 530.53006,369.94144 532.1432,368.21796 534.28143,365.2092 537.30051,362.96938 540.73689,361.65763 541.64407,361.50844 541.40534,360.24086 540.5102,360.42113 535.73499,360.25917 530.93509,360.41613 526.24234,359.37697 525.02981,359.29247 523.96652,358.3877 522.73892,358.95793 518.23388,360.17397 513.28795,360.06769 508.97253,358.16794 505.62933,356.88573 502.35532,355.37357 499.01182,354.06001 L 498.79312,354.08221 498.60652,354.10121 z"
       inkscape:connector-curvature="0"
       id="path3922"
       style="fill:#e1aa66;stroke:none" />
  </g>
</svg>
