<?xml version="1.0" encoding="UTF-8" standalone="no"?>
<!-- Created with Inkscape (http://www.inkscape.org/) -->

<svg
   xmlns:dc="http://purl.org/dc/elements/1.1/"
   xmlns:cc="http://creativecommons.org/ns#"
   xmlns:rdf="http://www.w3.org/1999/02/22-rdf-syntax-ns#"
   xmlns:svg="http://www.w3.org/2000/svg"
   xmlns="http://www.w3.org/2000/svg"
   xmlns:xlink="http://www.w3.org/1999/xlink"
   xmlns:inkscape="http://www.inkscape.org/namespaces/inkscape"
   version="1.1"
   width="740"
   height="520"
   id="svg2"
   style="enable-background:new">
  <defs
     id="defs4">
    <filter
       color-interpolation-filters="sRGB"
       id="filter3050">
      <feBlend
         in2="BackgroundImage"
         mode="lighten"
         id="feBlend3052" />
    </filter>
  </defs>
  <metadata
     id="metadata7">
    <rdf:RDF>
      <cc:Work
         rdf:about="">
        <dc:format>image/svg+xml</dc:format>
        <dc:type
           rdf:resource="http://purl.org/dc/dcmitype/StillImage" />
        <dc:title />
      </cc:Work>
    </rdf:RDF>
  </metadata>
  <g
     id="layer1"
     style="display:none">
    <image
       xlink:href="pngs/coronal-0664.png"
       id="MRISLICE"
       height="520"
       width="740"
       y="0"
       x="0" />
  </g>
  <g
     id="layer3"
     style="display:inline">
    <path
       d="M 410.97813,316.68707 C 408.70207,314.84001 407.41711,310.16549 402.76157,311.52444 397.74415,312.87874 397.30426,319.23011 397.96177,323.5542 398.2586,329.25793 406.25836,333.64033 410.14312,328.4044 412.86495,325.15826 414.29788,320.0892 410.97813,316.68707 z"
       inkscape:connector-curvature="0"
       id="path2990"
       style="fill:none;stroke:#0000e9;stroke-width:1;stroke-miterlimit:4;stroke-opacity:1;stroke-dasharray:none;stroke-dashoffset:0" />
    <path
       d="M 435.69278,379.63946 C 434.92265,372.96643 426.45185,371.21392 425.91995,377.89722 423.93296,382.28117 427.86894,388.98603 431.54754,389.49209 436.79019,388.55533 436.07615,384.1371 435.69278,379.63946 z"
       inkscape:connector-curvature="0"
       id="path2992"
       style="fill:none;stroke:#0000e9;stroke-width:1;stroke-miterlimit:4;stroke-opacity:1;stroke-dasharray:none;stroke-dashoffset:0" />
    <path
       d="M 543.41133,169.33182 C 537.94022,158.87036 528.3582,173.70231 532.43228,180.52771 531.53022,191.29164 540.14128,202.23049 535.00792,212.52916 530.95057,221.74225 507.69398,213.74331 515.79272,227.35543 525.99062,238.50549 545.72836,229.34778 547.47843,215.48887 549.579,199.67075 537.69959,185.01442 543.41133,169.33182 z"
       inkscape:connector-curvature="0"
       id="path2996"
       style="fill:none;stroke:#0000e9;stroke-width:1;stroke-miterlimit:4;stroke-opacity:1;stroke-dasharray:none;stroke-dashoffset:0" />
    <path
       d="M 547.14184,220.93724 533.4633,214.09797"
       inkscape:connector-curvature="0"
       id="path2998"
       style="fill:none;stroke:#0000e9;stroke-width:1;stroke-miterlimit:4;stroke-opacity:1;stroke-dasharray:none;stroke-dashoffset:0" />
    <path
       d="M 606.9375,305.0625 C 595.69473,314.9985 580.14127,325.42694 570.125,337.1875 570.116,337.1983 570.1029,337.2079 570.0938,337.2187 567.71939,339.66028 563.28506,343.62954 560.25005,347.8437 558.72745,349.95785 558.15183,351.06101 557.8093,353.25563 L 559.46713,353.87906 C 559.72864,352.20353 560.45018,351.00964 561.875,349.03125 564.72465,345.07446 569.08622,341.11297 571.5625,338.5625 L 571.5937,338.5313 C 581.32085,327.09617 596.86467,316.65211 608.2812,306.56255 L 606.93745,305.06255 z"
       inkscape:connector-curvature="0"
       id="path19"
       style="font-size:medium;font-style:normal;font-variant:normal;font-weight:normal;font-stretch:normal;text-indent:0;text-align:start;text-decoration:none;line-height:normal;letter-spacing:normal;word-spacing:normal;text-transform:none;direction:ltr;block-progression:tb;writing-mode:lr-tb;text-anchor:start;baseline-shift:baseline;color:#000000;fill:#73a0a6;fill-opacity:1;stroke:none;stroke-width:2;marker:none;visibility:visible;display:inline;overflow:visible;enable-background:accumulate;font-family:Sans;-inkscape-font-specification:Sans" />
    <path
       d="M 606.0625,306.8125 C 603.32048,325.77343 604.57996,356.94534 587.875,372.96875 L 589.28125,374.40625 C 606.94391,357.4642 605.34875,325.64306 608.03125,307.09375 L 606.0625,306.8125 z"
       inkscape:connector-curvature="0"
       id="path3040"
       style="font-size:medium;font-style:normal;font-variant:normal;font-weight:normal;font-stretch:normal;text-indent:0;text-align:start;text-decoration:none;line-height:normal;letter-spacing:normal;word-spacing:normal;text-transform:none;direction:ltr;block-progression:tb;writing-mode:lr-tb;text-anchor:start;baseline-shift:baseline;color:#000000;fill:#73a0a6;fill-opacity:1;stroke:none;stroke-width:2;marker:none;visibility:visible;display:inline;overflow:visible;enable-background:accumulate;font-family:Sans;-inkscape-font-specification:Sans" />
    <path
       d="M 606.83307,308.72013 C 613.86656,302.1069 617.81325,289.41634 617.54422,283.33227"
       inkscape:connector-curvature="0"
       id="path3000"
       style="fill:none;stroke:#0000e9;stroke-width:1;stroke-miterlimit:4;stroke-opacity:1;stroke-dasharray:none;stroke-dashoffset:0" />
    <path
       d="M 520.4065,314.20005 C 516.85446,302.1082 501.82138,306.58689 495.17663,313.32128 484.96341,318.12752 474.38955,325.75551 471.80556,337.37235 474.8326,345.62106 487.43246,341.52782 493.88259,339.4469 506.18013,336.33829 518.88273,327.19021 520.71738,314.20005"
       inkscape:connector-curvature="0"
       id="path3002"
       style="fill:none;stroke:#0000e9;stroke-width:1;stroke-miterlimit:4;stroke-opacity:1;stroke-dasharray:none;stroke-dashoffset:0" />
    <path
       d="M 545.89834,221.55899 C 569.00768,210.06579 571.4453,225.44582 561.44214,256.99886 568.94294,280.2041 571.72759,325.32101 529.11103,318.55232"
       inkscape:connector-curvature="0"
       id="path3004"
       style="fill:none;stroke:#0000e9;stroke-width:1;stroke-miterlimit:4;stroke-opacity:1;stroke-dasharray:none;stroke-dashoffset:0" />
    <path
       d="M 524.13702,230.88528 C 544.0995,243.58736 534.23117,267.01393 513.90506,291.84673 503.81901,304.16905 485.71574,313.69618 464.44881,324.76984 465.30087,335.21825 428.27417,371.89518 484.96663,355.2357 510.3559,348.13789 523.59493,334.96496 529.11103,317.93057 534.89126,284.79866 547.45634,267.9504 561.44214,254.51186"
       inkscape:connector-curvature="0"
       id="path3042"
       style="fill:none;stroke:#0000e9;stroke-width:1;stroke-miterlimit:4;stroke-opacity:1;stroke-dasharray:none;stroke-dashoffset:0" />
    <path
       d="M 563.3074,303.00852 C 575.53978,308.26579 581.7456,315.78301 580.71646,326.01335"
       inkscape:connector-curvature="0"
       id="path3044"
       style="fill:none;stroke:#0000e9;stroke-width:1;stroke-miterlimit:4;stroke-opacity:1;stroke-dasharray:none;stroke-dashoffset:0" />
    <path
       d="M 540.30257,319.79583 C 540.46543,335.28204 543.97655,348.16406 558.95513,352.12693"
       inkscape:connector-curvature="0"
       id="path3046"
       style="fill:none;stroke:#0000e9;stroke-width:1;stroke-miterlimit:4;stroke-opacity:1;stroke-dasharray:none;stroke-dashoffset:0" />
    <path
       d="M 577.6077,312.3348 C 585.92839,303.81427 597.38469,303.99555 607.34512,305.31343"
       inkscape:connector-curvature="0"
       id="path3048"
       style="fill:none;stroke:#0000e9;stroke-width:1;stroke-miterlimit:4;stroke-opacity:1;stroke-dasharray:none;stroke-dashoffset:0" />
    <path
       d="M 604.96479,309.22604 C 618.44364,285.8763 616.31788,261.48625 604.96479,236.48105 579.93931,183.10515 536.1669,164.38334 499.26693,133.2702 472.53055,125.61551 446.13246,113.56297 417.81741,126.43092 405.48377,134.40983 393.15012,145.91981 380.81647,148.92598 377.81356,149.6579 369.37033,150.04116 366.36742,149.59119"
       inkscape:connector-curvature="0"
       id="path3050"
       style="fill:none;stroke:#0000e9;stroke-width:1;stroke-miterlimit:4;stroke-opacity:1;stroke-dasharray:none;stroke-dashoffset:0" />
    <path
       d="M 514.81073,224.046 C 513.66032,218.61318 497.22091,215.08228 500.05186,226.26695 505.84217,235.04154 517.59971,242.57023 514.81721,254.66402 512.24408,266.68049 508.42769,278.19636 500.90167,287.86513 493.15621,295.98469 483.59449,304.29829 473.38332,309.36677 468.13563,312.36499 455.9903,320.36129 470.04458,321.66108"
       inkscape:connector-curvature="0"
       id="path3052"
       style="fill:none;stroke:#0000e9;stroke-width:1;stroke-miterlimit:4;stroke-opacity:1;stroke-dasharray:none;stroke-dashoffset:0" />
    <path
       d="M 366.83373,131.56038 C 369.47424,131.57468 377.2617,131.49078 380.2269,131.1894 387.51791,130.44842 395.7264,127.45324 404.53732,115.81093 405.09512,115.07388 405.94472,114.61454 406.62587,113.99588 416.49215,91.108571 433.64155,106.58599 461.34005,109.64362 520.77998,125.97498 565.56882,164.6179 595.01675,206.63694 611.99528,228.49975 620.75342,253.30779 618.02158,283.7342"
       inkscape:connector-curvature="0"
       id="path3065"
       style="fill:none;stroke:#0000e9;stroke-width:1;stroke-miterlimit:4;stroke-opacity:1;stroke-dasharray:none;stroke-dashoffset:0" />
    <path
       d="M 449.52676,106.53486 C 437.79376,118.01067 421.22647,118.60932 402.89536,115.23939"
       inkscape:connector-curvature="0"
       id="path3067"
       style="fill:none;stroke:#0000e9;stroke-width:1;stroke-miterlimit:4;stroke-opacity:1;stroke-dasharray:none;stroke-dashoffset:0" />
    <path
       d="M 366.93775,131.90291 367.06519,149.54274 M 372.90975,148.61011 372.42953,434.81996 C 407.38526,437.67499 437.38945,432.90836 448.90503,415.54565 459.51854,407.81087 470.39562,397.17692 478.74913,414.30215 497.10547,428.04001 519.89728,438.82089 545.27661,447.87676 577.54171,456.08611 597.5199,449.27812 608.69532,431.7112 L 676.46627,318.55232 C 713.11431,292.8796 682.14344,160.94585 635.43063,124.56567 590.60374,79.443303 532.29906,58.749416 468.80107,47.468416 437.2037,47.796848 406.77705,28.808198 373.05125,64.255723 L 372.93775,131.90291"
       inkscape:connector-curvature="0"
       id="path3007"
       style="fill:none;stroke:#0000e9;stroke-width:1;stroke-miterlimit:4;stroke-opacity:1;stroke-dasharray:none;stroke-dashoffset:0" />
    <path
       d="M 450.63624,413.60588 C 460.09872,384.03235 483.34653,365.83191 497.67827,359.52953 489.24461,377.01133 479.06617,394.14416 476.13566,412.72659"
       inkscape:connector-curvature="0"
       id="path3009"
       style="fill:none;stroke:#0000e9;stroke-width:1;stroke-miterlimit:4;stroke-opacity:1;stroke-dasharray:none;stroke-dashoffset:0" />
    <path
       d="M 421.4241,102.25696 C 414.64293,101.7947 409.95094,107.87209 407.17685,113.27557 406.348,114.26047 406.32553,115.97953 408.0424,115.80352 415.73179,116.84314 423.62986,116.66058 431.31611,115.66614 437.03372,114.5079 442.70663,112.0564 447.01969,108.13721 446.68689,106.40465 443.75947,106.85696 442.47211,106.0489 435.52138,104.38286 428.67149,101.84415 421.4241,102.25696 z"
       inkscape:connector-curvature="0"
       id="path3011"
       style="fill:#b46a9f;stroke:none" />
    <path
       d="M 560.20083,256.33883 C 553.89883,262.07498 548.6404,269.12531 544.09882,276.39764 536.57774,288.80761 531.94309,302.91652 529.65923,317.17473 529.88318,319.41234 532.98293,318.38694 534.48139,318.75408 543.51913,319.48193 553.60578,316.90183 558.97806,309.09625 566.41555,298.26648 566.27483,284.20928 564.64703,271.66721 563.63844,266.55521 562.65623,261.33516 560.76412,256.46248 560.60199,256.30478 560.39407,256.31443 560.20083,256.33883 z"
       inkscape:connector-curvature="0"
       id="path3031"
       style="fill:#78a9c2;stroke:none" />
    <path
       d="M 538.41092,166.08793 C 535.15074,166.76788 533.2729,170.36847 532.31084,173.30086 531.11188,183.71943 535.52251,193.60207 536.65234,203.7875 537.10578,207.40545 536.21329,211.0236 534.53654,214.14664 538.11147,216.00829 541.7193,218.34059 545.59637,219.4636 547.72895,217.95423 546.91918,214.58341 547.21756,212.29189 547.72974,199.32765 540.23905,187.29947 541.96929,174.3038 542.43754,171.76709 543.83998,168.0551 540.71905,166.65123 540.01451,166.27437 539.21851,166.02709 538.41092,166.08793 z"
       inkscape:connector-curvature="0"
       id="path3035"
       style="fill:#a7b0c5;stroke:none" />
    <path
       d="M 533.40995,215.02593 C 529.06909,218.021 523.29273,217.76037 518.28341,219.18882 516.10182,219.36752 513.50321,221.56333 514.9586,223.83257 514.64516,226.27743 517.26915,228.17316 518.97036,229.57544 520.65063,230.98292 522.80782,231.35097 524.87809,231.19663 527.99824,233.15344 531.92506,231.3867 535.07236,230.3036 539.50957,228.38308 543.43478,224.96887 545.55515,220.63141 541.81718,218.59234 537.94925,216.30971 533.8496,215.01219 533.70489,215.02949 533.55283,214.98949 533.40995,215.02589 z"
       inkscape:connector-curvature="0"
       id="path3037"
       style="fill:#b667d7;stroke:none" />
    <path
       d="M 403.94821,311.73412 C 399.27113,311.81012 397.87635,317.21415 398.20534,321.0491 397.9283,324.9199 399.84032,329.31548 403.96194,330.13052 407.82135,331.24959 410.94383,327.9358 411.94425,324.52504 412.75027,322.45277 413.04095,319.63593 411.13366,318.13645 410.44972,315.78713 408.10916,313.95006 406.29756,312.29741 405.63276,311.7751 404.76776,311.6676 403.94821,311.73412 z"
       inkscape:connector-curvature="0"
       id="path3041"
       style="fill:#cc6bc8;stroke:none" />
    <path
       d="M 494.96848,361.13924 C 475.27536,371.78546 459.44611,389.77794 451.93822,410.88783 451.59809,412.95818 453.97909,411.55202 454.74095,410.86033 459.62163,407.58961 465.70444,403.17499 471.80468,405.88685 473.66245,406.37427 474.42087,408.66453 476.24235,408.96436 477.62531,407.15379 477.26903,404.45826 478.31218,402.39017 482.43288,388.20767 490.13035,375.46751 495.66917,361.86738 495.8664,361.42335 495.36801,361.03124 494.96848,361.13922 z"
       inkscape:connector-curvature="0"
       id="path3043"
       style="fill:#85dbce;stroke:none" />
    <path
       d="M 611.08512,304.35407 C 622.5159,317.25033 623.76155,331.09915 611.74459,342.82302"
       inkscape:connector-curvature="0"
       id="path3024"
       style="fill:none;stroke:#0000e9;stroke-width:1;stroke-miterlimit:4;stroke-opacity:1;stroke-dasharray:none;stroke-dashoffset:0" />
    <path
       d="M 603.41293,342.38337 C 614.05012,335.13113 615.23492,353.5382 611.54636,362.1674 608.04402,372.15245 601.69931,384.79581 591.76233,389.4254 583.39218,394.26814 586.18275,381.88419 590.22358,372.05941"
       inkscape:connector-curvature="0"
       id="path3028"
       style="fill:none;stroke:#0000e9;stroke-width:1;stroke-miterlimit:4;stroke-opacity:1;stroke-dasharray:none;stroke-dashoffset:0" />
    <path
       d="M 558.3493,449.65678 C 562.77192,429.43484 553.7617,414.37683 563.69195,412.01346 567.25605,411.16522 572.7872,412.36145 577.25404,411.8473 589.99431,402.66861 582.84839,429.98229 599.67595,441.30352"
       inkscape:connector-curvature="0"
       id="path3032"
       style="fill:none;stroke:#0000e9;stroke-width:1;stroke-miterlimit:4;stroke-opacity:1;stroke-dasharray:none;stroke-dashoffset:0" />
    <path
       d="M 589.12446,425.4763 C 600.50947,412.27768 608.86428,395.32093 615.50317,376.23605 L 633.52862,349.85734 C 639.41457,343.92014 652.02123,323.69025 638.36472,352.49521 624.27747,365.92603 618.57803,389.42222 609.78778,409.20943 603.90516,418.48512 597.91913,427.24374 590.88304,430.75204"
       inkscape:connector-curvature="0"
       id="path3034"
       style="fill:none;stroke:#0000e9;stroke-width:1;stroke-miterlimit:4;stroke-opacity:1;stroke-dasharray:none;stroke-dashoffset:0" />
    <path
       d="M 641.65634,341.49534 C 638.02892,343.85889 635.86168,348.01976 633.12635,351.31659 626.94722,360.12423 620.34322,368.75693 615.16772,378.20571 608.85294,394.80527 601.3362,411.25926 589.94308,425.00044 588.83552,426.53966 590.17285,428.60641 590.9735,429.89149 594.0526,429.43668 596.09308,426.36701 598.25512,424.38219 605.31219,416.67954 610.8251,407.68345 614.18672,397.75863 620.12802,383.47475 624.80899,368.20191 634.74563,356.08404 638.40308,352.206 640.87769,347.11293 642.50815,342.07237 642.44595,341.68099 642.04449,341.41142 641.65634,341.49534 z"
       inkscape:connector-curvature="0"
       id="path3036"
       style="fill:#d5be93;stroke:none" />
    <path
       d="M 580.87265,410.58832 C 578.68946,411.00467 576.87736,412.65835 574.47041,412.16391 570.09002,412.55464 565.02146,411.07268 561.08862,413.52845 558.12995,416.5132 559.67973,421.36141 559.37676,425.11014 559.54782,433.52828 559.62395,442.05903 558.87665,450.38994 566.43083,451.14275 574.28504,451.40668 581.78159,449.87759 588.10549,448.39739 594.51501,445.94686 599.43391,441.69321 597.048,439.37429 594.23567,437.21888 592.63315,434.13681 588.36547,427.29864 587.39075,419.01464 583.88147,411.86604 583.18176,410.95094 582.02478,410.44926 580.87265,410.58832 z"
       inkscape:connector-curvature="0"
       id="path3038"
       style="fill:#9eae8b;stroke:none" />
    <path
       d="M 509.94892,306.88655 C 504.33841,306.97555 499.43956,310.10397 495.12402,313.34694 488.10907,317.25402 480.86241,321.58815 476.12172,328.28842 474.57323,331.00189 472.60427,333.75172 472.2552,336.92495 472.48678,340.52524 476.73118,342.24746 479.91052,341.95725 486.7533,342.01035 493.24434,339.52106 499.58914,337.24441 508.07802,333.81748 515.94104,327.51777 519.33349,318.82613 519.9419,316.82414 521.11011,314.59729 519.57636,312.70576 517.91016,308.95001 514.09018,306.53316 509.94892,306.88655 z"
       inkscape:connector-curvature="0"
       id="path3039"
       style="fill:#7f8281;stroke:none" />
    <path
       d="M 557.94818,218.02457 C 553.63631,218.43518 549.31175,219.80344 545.67829,222.17282 543.14544,224.80168 540.96676,227.9273 537.54694,229.55613 534.71008,231.13857 531.63635,232.22999 528.39553,232.38316 527.22664,233.25793 529.17826,234.34713 529.62932,235.14218 535.62672,241.36061 536.23981,251.13688 533.62828,259.04659 529.76715,271.47878 521.87173,282.2546 513.74549,292.25594 503.04335,304.59668 488.09883,312.19838 473.90756,319.97527 470.88139,321.82182 467.29725,322.99634 464.68537,325.38367 463.43738,331.10099 460.04258,336.14589 457.64208,341.45208 455.6471,345.85785 452.57511,350.73235 454.11558,355.75238 455.95303,359.18327 460.51372,359.47135 463.97618,359.26916 475.33689,358.30736 486.39481,355.0318 496.94362,350.80363 509.41882,345.69424 520.68692,336.54346 526.40547,324.11394 529.93022,317.28745 530.13828,309.40375 532.52277,302.19664 537.11255,285.8114 545.35254,270.40912 557.42456,258.4468 558.81811,256.86928 560.4576,255.44337 561.97985,254.07648 564.26216,247.90697 565.50365,241.36712 566.48696,234.88468 567.11358,229.74369 567.39494,223.51848 563.39823,219.61781 561.92384,218.2642 559.89445,217.87105 557.94818,218.02457 z M 511.27791,306.63396 C 515.9855,306.61216 520.5538,310.71668 520.61391,315.48421 518.63248,325.78689 509.73967,333.32745 500.41668,337.23582 492.90218,340.06974 484.96458,343.22718 476.78039,341.99611 474.45867,341.34948 471.5471,339.30415 471.87437,336.57521 474.13927,327.32051 481.86109,320.6145 489.80355,315.97677 492.56394,314.43208 495.43663,312.98033 497.78395,310.88908 501.80002,308.19573 506.36245,306.35821 511.27791,306.63396 z"
       inkscape:connector-curvature="0"
       id="path3049"
       style="fill:#9de082;stroke:none" />
    <path
       d="M 504.2832,219.2195 C 501.40052,219.253 499.40622,222.32097 500.04752,225.03871 501.13166,228.49025 504.19556,230.87045 506.31618,233.6939 509.74094,237.97806 514.05586,242.26969 514.95985,247.94639 515.48296,252.78434 514.5989,257.62123 513.15373,262.20524 510.19959,272.52611 506.04326,283.11076 498.19197,290.70156 490.62482,298.73479 481.61147,305.21014 471.94238,310.49077 468.94459,312.54556 465.45579,314.47917 463.76245,317.84493 463.27104,319.91024 466.01541,320.64633 467.51239,321.07027 469.11725,321.7933 470.7633,321.42674 472.17554,320.49709 482.80654,314.86999 493.47606,309.0372 503.11742,301.74738 512.86546,294.31732 520.05897,284.12689 526.47396,273.82384 531.34847,265.5013 535.89258,255.99748 534.50618,246.06171 533.5757,240.55097 530.46981,234.93266 525.29648,232.42202 520.78833,231.52309 515.67046,229.28549 514.3381,224.50439 514.07821,221.39694 510.66965,220.14959 508.10115,219.49152 506.84702,219.25617 505.55656,219.21416 504.2832,219.2195 z"
       inkscape:connector-curvature="0"
       id="path3051"
       style="fill:#8678d2;stroke:none" />
    <path
       d="M 525.83043,359.39316 C 526.23824,354.66694 530.11333,350.91912 531.08375,359.57545 530.66385,368.11406 525.985,367.32155 525.83043,359.39316 z"
       inkscape:connector-curvature="0"
       id="path3045"
       style="fill:none;stroke:#0000e9;stroke-width:1.09595191;stroke-linecap:round;stroke-miterlimit:4;stroke-opacity:1;stroke-dasharray:none;stroke-dashoffset:0" />
    <path
       d="M 528.62877,354.64323 C 526.86843,355.30929 526.26064,357.53196 526.11455,359.23889 526.10025,361.34736 526.21724,363.98017 528.07921,365.31836 529.46847,365.76709 530.14151,363.89853 530.40109,362.8591 531.08821,360.20281 531.08954,356.98133 529.23328,354.80809 529.06759,354.67691 528.83761,354.61915 528.62877,354.64323 z"
       inkscape:connector-curvature="0"
       id="path3053"
       style="fill:#b667d7;stroke:none" />
    <path
       d="M 429.41048,373.89831 C 427.2089,373.96341 426.21519,376.43249 425.89868,378.29596 424.76819,381.96052 426.67457,385.91451 429.41048,388.32417 431.35964,390.2565 434.64978,388.75721 435.41439,386.39385 436.05847,384.13647 435.59828,381.70779 435.47619,379.40074 435.1663,376.45006 432.52665,373.61836 429.41046,373.89831 z"
       inkscape:connector-curvature="0"
       id="path3055"
       style="fill:#bfb195;stroke:none" />
    <path
       d="M 607.56323,340.88934 C 606.06262,341.07854 604.1292,341.60652 603.48965,343.12191 601.56559,353.86564 597.69636,364.59708 590.36264,372.8447 588.63634,375.70096 587.90106,379.05038 587.106,382.2572 586.74636,384.59419 585.88082,387.26712 587.0923,389.47012 588.17378,391.11335 590.37098,389.97688 591.69483,389.31213 600.02649,385.13885 605.11047,376.75539 608.80665,368.52515 610.91305,363.62339 613.21573,358.59511 613.18319,353.14457 613.37413,349.1935 613.14159,344.60887 610.0981,341.7068 609.39452,341.12766 608.46798,340.853 607.56327,340.88934 z"
       inkscape:connector-curvature="0"
       id="path3819"
       style="fill:#ca818c;stroke:none" />
    <path
       d="M 563.36516,303.4302 C 561.86514,303.95332 561.7454,305.93098 560.83033,307.06414 557.19411,313.53224 550.35221,317.88499 543.0247,318.87273 542.02271,319.16121 539.92671,318.62637 540.3752,320.30015 540.67058,327.53197 541.27129,335.07753 544.94128,341.48698 547.57828,346.46471 552.42008,349.95752 557.72534,351.61256 558.92469,351.88612 558.84656,350.18774 559.52513,349.60667 563.37234,343.85099 568.71199,339.34608 573.34594,334.24443 575.76683,331.50643 578.74083,329.2567 581.04027,326.42226 581.19192,325.77937 580.40834,325.485 580.68993,324.74612 580.88877,319.72909 578.99007,314.71421 575.42792,311.1652 572.17706,307.8061 568.12504,305.23144 563.82541,303.45081 563.67259,303.42981 563.51939,303.41111 563.36516,303.43021 z"
       inkscape:connector-curvature="0"
       id="path3821"
       style="fill:#a7c0ab;stroke:none" />
    <path
       d="M 597.51322,304.81783 C 591.01362,304.80693 584.33636,306.63296 579.35038,310.9179 578.62799,311.65516 576.70836,312.6265 577.91961,313.74932 580.38505,317.23145 580.91999,321.59418 580.9647,325.74906 581.64381,326.88123 582.64744,325.19885 583.3484,324.83542 590.29698,319.14578 597.31951,313.51493 604.2659,307.85413 604.73981,308.17206 605.51723,308.29022 605.75657,307.545 606.42889,306.64338 607.13393,304.89969 605.28778,305.16881 602.71026,304.9163 600.10459,304.80886 597.51322,304.81783 z"
       inkscape:connector-curvature="0"
       id="path3823"
       style="fill:#d17697;stroke:none" />
    <path
       d="M 448.54769,107.70678 C 442.67148,112.71512 435.33851,115.77808 427.70777,116.68738 420.25993,117.70261 412.72573,116.88934 405.33194,115.799 403.71267,116.3337 403.04949,118.26535 401.82165,119.35051 396.59172,125.29237 389.5983,130.15083 381.59324,131.08661 376.83203,131.68374 371.95223,131.41964 367.19313,131.7887 366.55577,132.82069 367.18413,134.38225 367.05883,135.62391 367.27861,140.14619 367.06483,144.72079 367.27514,149.21369 368.23374,149.86446 369.72487,149.57876 370.9091,149.59672 371.64292,149.59872 372.45238,149.37072 372.91498,148.9029 373.3293,149.18973 373.74389,149.69979 374.39192,149.52802 380.69002,149.3607 386.7867,147.19699 392.13572,143.92942 400.97345,138.77737 408.82513,132.07075 417.45827,126.6337 423.60061,123.47791 430.39903,121.7986 437.2543,121.08161 447.7726,120.06895 458.37307,121.43955 468.56007,124.10312 478.95438,126.75364 489.1899,130.11836 499.46409,133.24055 516.60738,147.58861 535.48452,159.75032 553.03952,173.55583 569.65506,186.65098 584.96877,201.81394 596.09742,219.94941 605.20196,234.5943 612.31364,250.80874 614.04661,268.11543 614.57937,275.9345 614.36971,283.88743 612.33246,291.50662 611.06107,296.76214 608.87515,301.7126 606.62072,306.60499 606.41923,307.66882 607.85379,307.51529 608.27627,306.87976 611.68789,303.20721 613.7471,298.49511 615.47546,293.84841 616.65028,290.50499 617.24345,286.91124 617.57749,283.44805 618.37501,281.81856 618.05118,279.80577 618.25072,278.02118 618.93175,262.45695 616.44626,246.67309 610.16837,232.38443 606.26307,223.29075 601.09321,214.75856 595.08065,206.89612 584.06732,191.51443 571.76057,177.05513 557.83867,164.22607 534.26466,142.33686 506.35811,124.95083 475.94039,114.36689 469.36895,112.09685 462.75353,109.78995 455.82528,108.92669 453.4008,108.60632 450.96776,107.78126 448.54769,107.70678 z"
       inkscape:connector-curvature="0"
       id="path3825"
       style="fill:#73a0a6;stroke:none" />
    <path
       d="M 543.12319,166.87527 C 541.91807,167.74171 544.01818,169.04585 543.29806,170.21718 541.55887,175.91874 541.71416,182.03251 543.23686,187.75535 545.19037,197.56655 549.43993,207.50373 547.18397,217.62578 547.32463,218.61759 545.69766,219.92784 546.92167,220.58882 550.56256,219.65429 553.99182,217.7083 557.88941,217.64985 561.47321,217.2542 565.06284,219.45084 566.0794,222.93011 568.29874,230.02298 566.40853,237.72917 564.98944,244.80976 564.08764,248.96976 562.80065,253.00892 561.65914,257.08761 565.48084,269.78237 567.19538,283.37832 564.77859,296.5227 564.42731,298.60249 563.62561,300.62615 563.24266,302.64067 568.03164,305.33149 573.27964,307.7014 576.71719,312.1321 578.00752,312.45177 578.77504,310.5886 579.89396,310.05312 585.08986,306.06799 591.62526,304.44154 598.11907,304.67108 601.0935,304.48633 604.12573,304.88624 607.03732,304.95281 614.2389,290.59438 615.81377,273.70743 612.17516,258.1155 608.08852,240.26875 599.15497,223.85356 588.32328,209.20781 575.92504,192.80526 560.31753,179.05868 543.76433,166.98213 543.56245,166.89333 543.34772,166.82199 543.12315,166.87527 z"
       inkscape:connector-curvature="0"
       id="path3837"
       style="fill:#d0cf6e;stroke:none" />
    <path
       d="M 610.7261,304.60113 C 609.7435,305.1804 609.28853,306.37374 608.46254,307.14157 606.99199,308.4617 607.29187,310.5866 606.98998,312.35285 606.07966,321.83572 605.41954,331.35074 603.97426,340.77448 603.88476,341.56886 604.87015,341.64065 605.3392,341.2165 607.00343,340.49202 609.132,340.42704 610.55124,341.70225 610.95489,342.13741 611.67428,342.88847 612.20762,342.18313 615.92968,338.42089 618.89554,333.69848 619.80466,328.43173 620.04191,325.8077 620.14528,323.11845 619.70556,320.51238 618.41425,314.56541 615.20451,309.19127 611.18269,304.68857 611.05814,304.56309 610.87994,304.60667 610.72609,304.60117 z"
       inkscape:connector-curvature="0"
       id="path3047"
       style="fill:#c9ca98;stroke:none" />
  </g>
</svg>
