<?xml version="1.0" encoding="UTF-8" standalone="no"?>
<!-- Created with Inkscape (http://www.inkscape.org/) -->

<svg
   xmlns:dc="http://purl.org/dc/elements/1.1/"
   xmlns:cc="http://creativecommons.org/ns#"
   xmlns:rdf="http://www.w3.org/1999/02/22-rdf-syntax-ns#"
   xmlns:svg="http://www.w3.org/2000/svg"
   xmlns="http://www.w3.org/2000/svg"
   xmlns:xlink="http://www.w3.org/1999/xlink"
   xmlns:inkscape="http://www.inkscape.org/namespaces/inkscape"
   version="1.1"
   width="740"
   height="520"
   id="svg2"
   style="display:inline;enable-background:new">
  <defs
     id="defs4">
    <filter
       color-interpolation-filters="sRGB"
       id="filter3050">
      <feBlend
         in2="BackgroundImage"
         mode="lighten"
         id="feBlend3052" />
    </filter>
  </defs>
  <metadata
     id="metadata7">
    <rdf:RDF>
      <cc:Work
         rdf:about="">
        <dc:format>image/svg+xml</dc:format>
        <dc:type
           rdf:resource="http://purl.org/dc/dcmitype/StillImage" />
        <dc:title />
      </cc:Work>
    </rdf:RDF>
  </metadata>
  <g
     id="g940"
     style="display:none">
    <image
       xlink:href="pngs/coronal-0797.png"
       id="image942"
       height="520"
       width="740"
       y="0"
       x="0" />
  </g>
  <g
     id="g948"
     style="display:inline">
    <path
       d="M 381.8708,93.478071 C 380.52708,92.553064 380.00629,88.541972 378.14029,80.421277 376.63026,71.279533 378.59814,63.914632 382.49255,56.794698 384.64729,52.075465 386.88006,49.600804 390.57533,47.468416 394.66051,45.339299 399.25776,42.138397 404.87563,40.629143 414.75177,36.168725 426.19536,40.327262 436.92449,39.385639 446.61218,39.276149 455.3262,41.517338 464.56383,42.4944 471.45679,44.230032 478.47063,45.673846 485.08165,48.090168 493.0392,49.946146 500.84249,52.008836 508.70822,54.929441 516.4,57.203853 524.3433,61.033671 531.71305,62.390466 539.67214,66.004529 548.43667,66.657718 555.96138,71.094996 563.36295,72.698182 569.10149,76.513225 575.2357,79.177773 580.68466,80.701066 586.21491,84.655773 590.7795,86.638798 596.33449,89.655681 600.19915,92.352165 606.1042,95.81901 611.61478,99.808826 617.7091,103.32258 621.52133,106.46818 624.53481,108.77141 626.61986,111.27557 630.57163,113.99589 634.03696,118.2697 639.05467,121.25628 641.76317,125.18743 644.70535,127.12165 647.13527,131.73279 650.4677,136.37896 653.66239,139.25902 655.92832,142.78224 659.79398,146.94875 661.8385,149.47293 665.97046,154.05354 667.87676,157.51854 672.6804,164.72362 678.68104,174.43195 684.66406,183.01037 688.41589,188.44144 689.55454,193.02487 690.88158,199.17592 693.91276,206.96127 694.8098,216.3056 695.23385,225.91126 696.89473,236.90204 695.61807,248.1235 693.99035,257.9315 693.41152,261.99152 691.19681,265.14875 688.39458,266.9469 683.43473,271.14936 687.68586,275.02133 690.88158,278.13844 693.99759,283.47711 695.65656,293.85171 692.74684,300.52151 691.03687,307.55581 688.07041,310.48215 685.90757,317.30882 683.20861,322.03966 682.87042,324.13579 680.3118,326.01335 677.71099,330.7939 676.71532,333.84599 673.47253,339.6919 672.48762,344.76892 669.85124,350.01448 667.87676,355.2357 665.1751,359.12154 664.09521,363.88495 661.65924,367.04899 659.27029,371.21459 657.95613,372.21152 654.81996,375.75352 652.38334,379.13297 650.40576,381.47396 647.98069,383.21454 646.19891,386.42082 642.95419,389.07154 641.14142,391.29732 639.51698,393.49222 637.2687,395.91172 633.68039,397.51484 628.45803,401.3317 621.53712,401.12938 615.64958,403.11061 608.23062,404.26848 600.56161,404.51801 593.26651,407.46287 587.93929,407.54377 584.29645,415.20782 580.20971,414.30215 573.68177,412.82602 568.92512,411.03205 563.42241,409.32813 558.99703,409.22343 556.4967,404.02921 553.06635,403.55749 549.67588,401.96807 547.35998,399.88649 543.52634,398.13659 540.71796,395.45507 538.35294,393.71673 536.68707,391.29732 533.04969,387.20676 527.11748,382.41763 524.87378,378.86228 521.48288,373.49053 517.35341,374.07425 515.5475,368.91424 510.27214,366.88301 513.78828,357.46121 517.75853,355.79076 524.38367,350.08082 528.04596,345.02586 534.20006,339.07014 537.8001,335.56943 544.78749,330.86626 547.70155,327.25962 552.03217,323.51447 554.66553,319.57592 559.07014,314.82181 561.14707,311.41299 564.01505,309.08704 567.77467,304.25203 571.10464,301.82199 573.29698,297.82379 577.10095,294.30399 582.02789,289.72865 583.1507,286.53106 587.67074,281.86895 588.82793,279.33658 590.81601,276.9696 592.64476,273.78617 596.99762,265.88624 597.32806,256.29639 596.37527,246.42908 595.25069,238.6057 594.1661,231.53848 590.15775,225.28951 588.25251,220.05039 584.82714,215.12813 582.07497,210.36746 578.21598,205.75457 573.58901,200.66369 568.08555,195.75629 561.67783,189.44642 555.41714,186.29429 549.12211,181.76687 543.82345,177.94082 537.78172,175.90871 532.3348,172.44059 526.4564,169.24165 520.66898,167.72704 513.06049,166.84482 504.5685,163.47721 491.75788,167.02449 484.45989,164.35781 482.10497,162.46499 479.58143,161.18872 478.24237,158.76204 474.56023,156.28457 473.63686,150.57698 470.1596,146.327 467.09477,141.80439 465.05673,138.33866 460.83331,133.2702 459.25487,130.3456 454.14134,126.92873 449.64178,123.32217 446.03643,120.91082 441.07588,118.1172 439.07199,117.10465 433.8577,114.30381 430.00033,112.55655 424.14994,110.26538 417.83153,109.08792 412.30658,106.66967 407.36264,104.66961 401.37059,103.06067 396.02179,101.09697 390.57533,99.073839 388.27451,92.177568 380.012,100.84597 381.8708,93.478071 z"
       inkscape:connector-curvature="0"
       id="path950"
       style="fill:none;stroke:#e20000;stroke-opacity:1" />
    <path
       d="M 621.29582,319.08218 C 623.08699,317.39776 623.77385,315.29209 625.69227,313.80644 626.35173,312.48844 627.99912,310.39999 629.64907,308.09105 630.95237,305.46334 633.0846,302.72477 634.04553,299.29815 635.44108,297.17119 636.66793,293.18255 638.00233,291.38454 639.7211,287.90395 641.48331,285.33271 641.95914,281.2727 643.35865,277.79688 644.51179,272.76636 645.4763,268.96264 647.29863,261.37941 647.92744,252.35873 646.79523,243.90286 646.7729,237.25101 645.6991,230.30914 643.71772,224.55848 642.92627,220.78982 640.67404,215.79529 639.32127,212.24841 638.06791,209.65492 636.34917,206.17276 634.48517,203.01587 632.88961,199.07221 631.06599,197.17053 629.64907,193.34367 626.7676,191.35676 623.93629,187.79032 622.37333,185.43006 620.42313,181.82861 617.95072,179.51354 616.2183,176.63716 612.86746,172.63635 611.24466,170.44517 608.30469,167.40461 606.0885,164.84185 604.54763,163.46001 601.49019,160.59011 598.84583,158.18556 597.45867,156.84217 594.23605,154.21526 592.53723,152.96513 589.71868,150.32022 587.64137,148.49987 584.02968,146.87077 581.39766,143.25743 577.08989,141.90519 574.14932,139.94444 569.37762,137.86788 565.21947,135.75016 562.54824,134.69751 559.62996,133.04878 556.42656,131.35371 554.59749,130.16297 551.74046,127.89661 546.55615,126.51762 542.1079,123.77578 536.72107,122.73071 532.04786,120.80223 527.58425,119.9607 523.36686,117.56134 518.8585,116.84542 514.19138,114.78232 510.04575,114.31209 505.66915,112.00933 501.05552,110.71639 497.44936,108.79224 493.79873,107.61288 491.49472,105.60947 486.64312,105.01504 484.12654,102.77678 480.55615,101.28273 479.21725,99.559422 475.77328,97.940683 473.09053,96.106242 469.65133,94.165403 466.98038,92.664941 462.18107,89.003273 457.74561,87.396982 452.03244,85.630619 445.65891,85.585299 450.85208,94.925084 454.91174,95.742457 456.52007,98.421383 459.09137,100.36918 460.62712,102.77678 464.4168,104.35559 463.30601,105.71136 464.78215,108.05252 468.2667,111.0745 466.61031,117.40472 470.49754,121.24187 472.02469,124.9386 474.11164,127.8587 476.21293,130.47442 478.41421,132.16968 480.7025,135.00879 485.00583,134.87087 490.72549,134.32979 497.32481,134.45473 502.15199,131.79336 505.40922,131.06376 507.88629,128.93721 511.82418,128.71584 515.46102,128.00893 520.54751,130.44753 523.995,131.50392 529.14166,131.09445 534.94969,134.33003 539.96147,135.75016 544.77826,137.47287 549.49519,138.91704 554.03012,141.46555 556.83869,142.38657 559.54117,144.05849 561.94373,145.42236 565.0904,147.32727 570.92828,149.03007 572.15468,151.57739 574.03375,153.33416 580.62989,155.14798 583.04669,157.73242 585.4348,159.45874 589.07057,162.59512 590.51869,163.32261 592.42997,165.66184 594.38935,166.05212 595.74924,168.03941 597.22988,168.88429 598.68735,170.75779 600.19285,171.80106 603.64084,174.7337 605.4156,177.2761 608.10646,180.15432 609.41423,181.961 611.29907,184.03379 612.94256,186.30935 613.98127,188.61109 616.31866,190.08471 617.33901,192.46438 619.32739,194.44137 621.03743,197.25246 623.0544,200.378 625.44038,203.38662 627.26897,206.46319 629.20943,209.1709 631.04061,213.95847 633.64811,217.36758 634.92482,222.36025 636.63586,225.94243 637.62115,231.26235 638.84568,236.02194 640.12697,240.07677 640.90955,244.91333 640.6402,250.32171 640.59509,256.78335 640.97403,263.66902 639.76091,268.96264 639.18005,273.89406 637.27095,278.32211 636.24375,283.47092 634.85133,287.09787 633.71285,290.85786 632.28695,294.02241 630.53757,296.81692 629.42563,300.06143 628.33014,301.93602 626.86919,303.69229 625.3029,306.18772 623.93369,308.09105 623.03309,311.22922 620.58176,313.38358 619.53724,316.00466 618.03203,319.03559 615.39203,320.88135 613.3822,324.79757 611.11632,326.61616 610.87133,330.60817 608.54611,331.39224 607.11214,334.2054 603.63246,337.38477 601.51179,338.86621 599.24139,340.32571 596.77996,343.22445 594.03782,344.5816 590.89662,346.41796 587.59909,348.46194 585.68456,350.29698 582.05504,352.01402 580.35521,354.05402 576.45201,355.13308 571.48625,357.09255 567.15569,359.87781 561.94373,360.84847 559.17261,362.58312 556.86019,363.38641 554.9094,365.24492 551.00197,367.99578 557.68705,367.03216 560.18515,366.12421 563.41019,364.21717 568.22828,364.3508 570.73663,362.60705 574.02434,361.60292 576.52356,359.62166 579.96918,358.65024 583.3532,356.72765 585.3974,356.1105 589.20172,353.81414 591.57177,352.89913 593.87501,351.23296 595.7964,349.85734 598.73659,348.19536 599.62606,347.0089 601.51179,345.46089 603.8064,342.75429 605.89763,342.00905 607.66682,339.7455 610.06191,338.11725 611.93722,336.05784 612.94256,334.03011 614.84508,332.61832 616.17548,330.37654 617.77866,328.31473 619.44564,325.95483 620.63922,323.02111 621.29582,319.08218 z"
       inkscape:connector-curvature="0"
       id="path952"
       style="opacity:0.6;fill:none;stroke:#e20000;stroke-opacity:1" />
    <path
       d="M 629.20943,199.93835 C 628.48292,203.58407 627.29313,198.77339 626.13191,196.86084 623.90253,193.57809 622.2044,190.59802 619.97688,187.62829 618.00182,185.21831 615.64367,181.66975 614.2615,179.71468 611.41423,175.96749 608.88118,173.49711 605.27012,170.22209 601.80402,166.80923 597.36293,162.41196 594.47747,159.71082 591.08973,157.31917 590.25002,155.21515 586.26794,153.73542 583.39721,149.76773 578.6336,148.52994 575.57272,145.862 572.12527,143.88323 568.38327,142.04076 564.5816,140.36644 560.41784,138.43327 555.02218,136.72021 551.83189,135.31052 547.73112,133.52155 542.44272,132.22129 538.20289,130.47442 534.17668,130.13478 532.15776,128.09368 528.5307,127.83655 524.78542,126.1535 520.47627,125.83172 516.66028,124.31939 512.97788,123.91459 509.32311,122.4935 506.56903,121.65296 503.44457,120.88698 500.51019,119.55844 497.75554,118.16436 493.79333,116.19408 489.58881,114.7136 485.21671,113.7895 481.46252,112.21034 476.66212,112.0535 473.57506,109.8111 471.48007,108.39601 470.5401,107.30277 469.10399,105.29491 466.89196,104.32673 466.68187,102.71547 464.34251,99.699263 461.06118,95.764625 467.9556,97.852768 469.61825,99.259618 472.41972,100.57524 475.16621,102.39034 477.53186,104.09571 480.34246,104.82387 482.60883,106.00259 485.22565,106.73359 488.77044,107.64255 492.1745,109.34822 495.33749,110.25075 498.94539,111.34661 501.48826,113.03786 504.78986,114.20755 507.37986,115.78412 509.62257,116.73945 512.70347,117.72471 514.23312,118.8838 517.6843,120.50682 520.25987,120.7198 522.47116,121.9028 525.4334,122.77697 528.09105,123.4401 530.45898,125.03784 534.79132,125.84525 536.9015,128.05713 538.69674,128.38853 542.16781,130.23187 543.47863,131.79336 544.3974,132.60767 548.70891,133.53609 546.4436,134.63643 L 546.1165,134.43123 546.1165,133.99158"
       inkscape:connector-curvature="0"
       id="path954"
       style="opacity:0.6;fill:none;stroke:#e20000;stroke-opacity:1" />
    <path
       d="M 499.07447,133.55194 C 495.86864,133.39986 500.41538,133.51834 495.99696,134.43123 493.28384,137.1845 491.4357,137.59851 490.72122,140.14661 488.32383,146.24348 495.13006,148.35993 498.19518,151.57739 500.32435,152.91269 502.26266,154.06142 504.78986,155.09455 509.55513,156.79172 515.13677,156.51802 519.73779,158.61171 524.43014,160.09436 529.20829,160.60809 533.36679,163.00816 537.8083,164.58368 542.44169,166.25161 546.99579,167.84426 549.5468,169.22851 554.29272,170.97869 556.06088,172.26781 558.76688,173.59911 561.70481,175.42402 564.14195,176.63716 567.2763,178.91214 570.79331,181.3038 574.47361,184.33095 580.63561,188.51376 586.00402,194.71493 591.83959,199.05906 595.23091,202.61666 598.73837,205.83032 601.07214,210.05019 603.07051,212.69735 604.51309,215.05577 605.90824,218.40345 607.51965,222.08427 609.17184,225.53979 610.74433,229.39457 611.86163,233.71256 613.11085,238.61812 613.38133,243.24164 614.38535,249.50268 613.59498,256.80869 612.50291,262.36796 611.57493,266.41645 610.41511,268.77276 608.98575,272.4798 608.28174,277.19132 606.00328,281.99975 605.02895,285.66915 602.6964,289.97837 599.37909,294.02834 596.67569,297.53957 593.63591,300.98869 591.09836,303.33776 588.61718,306.62722 584.25039,310.60871 580.74668,314.98747 576.01237,318.20289 573.10472,320.40167 570.27456,324.18165 568.54037,324.67237 566.77522,326.80459 563.4626,329.41729 560.18515,331.83189 558.57698,333.85126 555.90913,333.93213 554.03011,336.66798 550.93917,338.34193 548.93076,340.81299 546.55615,343.26266 544.27433,345.28296 542.23272,347.32574 539.96147,349.85734 537.10481,352.70151 536.60997,353.66158 534.24608,356.01237 532.76471,357.90613 531.29764,360.56852 531.16857,363.48634 529.43139,369.23851 527.93153,376.08466 529.40999,382.39108 529.21977,383.63545 530.95997,388.30413 529.84963,383.27037"
       inkscape:connector-curvature="0"
       id="path956"
       style="fill:none;stroke:#0000e9;stroke-width:0.99000001;stroke-miterlimit:4;stroke-opacity:1;stroke-dasharray:none;stroke-dashoffset:0" />
    <path
       d="M 449.83422,84.311684 423.89516,38.148946"
       inkscape:connector-curvature="0"
       id="path958"
       style="fill:none;stroke:#0000e9;stroke-width:0.99000001;stroke-miterlimit:4;stroke-opacity:1;stroke-dasharray:none;stroke-dashoffset:0" />
    <path
       d="M 451.15315,92.225296 C 431.73108,86.96012 410.05401,73.980631 391.80106,46.502203"
       inkscape:connector-curvature="0"
       id="path960"
       style="fill:none;stroke:#0000e9;stroke-width:0.99000001;stroke-miterlimit:4;stroke-opacity:1;stroke-dasharray:none;stroke-dashoffset:0" />
    <path
       d="M 461.70464,103.21642 C 435.32135,97.705975 409.11469,92.769583 378.17206,72.441266"
       inkscape:connector-curvature="0"
       id="path962"
       style="fill:none;stroke:#0000e9;stroke-width:0.99000001;stroke-miterlimit:4;stroke-opacity:1;stroke-dasharray:none;stroke-dashoffset:0" />
    <path
       d="M 444.55848,120.80223 C 447.61039,111.73389 459.07531,116.12636 467.42002,115.52649"
       inkscape:connector-curvature="0"
       id="path964"
       style="fill:none;stroke:#0000e9;stroke-width:0.99000001;stroke-miterlimit:4;stroke-opacity:1;stroke-dasharray:none;stroke-dashoffset:0" />
    <path
       d="M 463.46322,134.87087 C 464.55754,135.14083 465.74182,136.37078 466.49409,135.3365 467.44107,134.76602 467.96515,134.28434 468.47646,133.19124 468.7858,132.40832 469.05926,134.00678 469.21706,132.74609 469.82745,132.2801 472.42504,128.78469 472.94006,128.25558 474.47135,127.71757 473.00026,132.8866 474.03353,132.73554 474.22815,132.05048 474.4497,134.04942 475.28986,133.89639 476.10139,134.17159 476.18204,135.18509 477.07528,134.95288 477.76283,135.79942 478.95803,136.55368 480.10917,137.09544 481.24638,138.1315 482.77372,138.50908 483.66398,139.10061 484.11514,139.2978 484.7301,139.43066 484.8683,139.68489 485.55138,139.78429 485.65038,140.18296 486.34279,140.32493 486.92048,141.06174 488.03061,141.68351 487.64651,143.16917 487.65931,145.09252 487.70841,147.01659 487.64351,148.93955 486.21422,148.95735 488.15367,151.9676 486.82402,151.60589 486.81502,151.37911 486.60971,151.02672 486.32457,151.13777"
       inkscape:connector-curvature="0"
       id="path966"
       style="fill:none;stroke:#0000e9;stroke-width:0.99000001;stroke-miterlimit:4;stroke-opacity:1;stroke-dasharray:none;stroke-dashoffset:0" />
    <path
       d="M 476.21293,155.09455 C 486.39201,148.17573 494.77468,153.83175 503.91057,154.21526"
       inkscape:connector-curvature="0"
       id="path968"
       style="fill:none;stroke:#0000e9;stroke-width:0.99000001;stroke-miterlimit:4;stroke-opacity:1;stroke-dasharray:none;stroke-dashoffset:0" />
    <path
       d="M 462.58393,42.105752 458.62712,86.070264"
       inkscape:connector-curvature="0"
       id="path970"
       style="fill:none;stroke:#0000e9;stroke-width:0.99000001;stroke-miterlimit:4;stroke-opacity:1;stroke-dasharray:none;stroke-dashoffset:0" />
    <path
       d="M 536.44431,64.088008 514.46205,113.76791"
       inkscape:connector-curvature="0"
       id="path972"
       style="fill:none;stroke:#0000e9;stroke-width:0.99000001;stroke-miterlimit:4;stroke-opacity:1;stroke-dasharray:none;stroke-dashoffset:0" />
    <path
       d="M 584.80527,83.432394 560.18515,132.67265"
       inkscape:connector-curvature="0"
       id="path974"
       style="fill:none;stroke:#0000e9;stroke-width:0.99000001;stroke-miterlimit:4;stroke-opacity:1;stroke-dasharray:none;stroke-dashoffset:0" />
    <path
       d="M 633.60588,117.28507 597.11534,155.97384"
       inkscape:connector-curvature="0"
       id="path976"
       style="fill:none;stroke:#0000e9;stroke-width:0.99000001;stroke-miterlimit:4;stroke-opacity:1;stroke-dasharray:none;stroke-dashoffset:0" />
    <path
       d="M 660.42423,147.62058 617.77866,178.83539"
       inkscape:connector-curvature="0"
       id="path978"
       style="fill:none;stroke:#0000e9;stroke-width:0.99000001;stroke-miterlimit:4;stroke-opacity:1;stroke-dasharray:none;stroke-dashoffset:0" />
    <path
       d="M 686.36329,185.86971 640.20056,213.1277"
       inkscape:connector-curvature="0"
       id="path980"
       style="fill:none;stroke:#0000e9;stroke-width:0.99000001;stroke-miterlimit:4;stroke-opacity:1;stroke-dasharray:none;stroke-dashoffset:0" />
    <path
       d="M 646.35559,239.06677 696.03549,228.51528"
       inkscape:connector-curvature="0"
       id="path982"
       style="fill:none;stroke:#0000e9;stroke-width:0.99000001;stroke-miterlimit:4;stroke-opacity:1;stroke-dasharray:none;stroke-dashoffset:0" />
    <path
       d="M 646.79523,259.73009 690.3201,264.12654"
       inkscape:connector-curvature="0"
       id="path984"
       style="fill:none;stroke:#0000e9;stroke-width:0.99000001;stroke-miterlimit:4;stroke-opacity:1;stroke-dasharray:none;stroke-dashoffset:0" />
    <path
       d="M 637.12304,293.58276 691.63904,304.57389"
       inkscape:connector-curvature="0"
       id="path986"
       style="fill:none;stroke:#0000e9;stroke-width:0.99000001;stroke-miterlimit:4;stroke-opacity:1;stroke-dasharray:none;stroke-dashoffset:0" />
    <path
       d="M 619.53724,323.91828 670.97572,346.77982"
       inkscape:connector-curvature="0"
       id="path988"
       style="fill:none;stroke:#0000e9;stroke-width:0.99000001;stroke-miterlimit:4;stroke-opacity:1;stroke-dasharray:none;stroke-dashoffset:0" />
    <path
       d="M 589.76098,354.46714 C 609.67483,363.13023 631.67393,372.50595 650.3124,381.51179"
       inkscape:connector-curvature="0"
       id="path990"
       style="fill:none;stroke:#0000e9;stroke-width:0.99000001;stroke-miterlimit:4;stroke-opacity:1;stroke-dasharray:none;stroke-dashoffset:0" />
    <path
       d="M 554.9094,367.0035 C 581.4819,376.00471 604.93132,386.37227 612.94256,403.49404"
       inkscape:connector-curvature="0"
       id="path992"
       style="fill:none;stroke:#0000e9;stroke-width:0.99000001;stroke-miterlimit:4;stroke-opacity:1;stroke-dasharray:none;stroke-dashoffset:0" />
    <path
       d="M 548.31473,401.29582 C 548.92531,400.76357 549.09852,398.58862 548.24503,400.14192 547.77242,401.08596 548.41898,401.86867 548.74513,400.54117 549.07776,399.46079 549.66727,397.60574 550.51297,397.33901 550.62532,396.55466 551.37592,396.61606 552.09559,396.01931 550.94014,395.82829 552.43841,395.47489 552.74034,395.48259 552.75054,394.83178 554.16413,394.83104 554.23966,394.2472 555.25988,393.74462 556.47109,393.44965 557.57644,393.28436 557.99948,392.17578 560.47115,393.74341 561.25764,392.48749 563.01175,392.36997 564.76312,392.40739 566.25948,392.99408 567.60029,392.60269 568.48563,393.74569 569.85736,393.3822 569.77636,394.56484 571.83376,393.11176 571.83748,394.36969 572.70412,394.46299 574.24712,393.66249 574.3944,394.73866 576.00156,394.31816 577.37814,395.23232 578.89974,395.0822 580.07359,395.67206 581.32439,395.72738 582.71251,395.47945 583.50061,396.516 585.15912,395.46475 585.51285,396.52154 586.46701,396.01976 586.42729,396.69047 586.83178,396.96119 587.81593,396.41095 587.72801,397.24458 588.21426,397.33386 588.03419,397.65574 588.7452,397.83781 589.23089,397.8765 589.01509,398.6767 590.38561,397.7898 590.17887,398.68709 590.72056,398.5381 590.40407,399.29045 590.98947,399.19543 590.74508,399.82242 592.87688,399.71245 591.6346,400.15512 592.484,400.53038 592.64089,401.08826 593.11969,401.53174 593.83872,401.66124 593.44004,402.48685 593.69603,403.08354 594.81367,402.85143 593.22017,405.13299 594.47748,404.81298 594.47948,406.06355 594.52638,406.38596 594.50058,406.45915 593.78657,406.47875 594.17497,407.55882 593.99161,406.35673 594.21816,405.97649 594.768,406.04085 594.91712,405.25262"
       inkscape:connector-curvature="0"
       id="path994"
       style="fill:none;stroke:#0000e9;stroke-width:0.99000001;stroke-miterlimit:4;stroke-opacity:1;stroke-dasharray:none;stroke-dashoffset:0" />
    <path
       d="M 572.93485,375.7964 C 572.49012,375.48868 570.36199,375.55703 571.6728,375.93293 573.16315,375.78345 574.64777,375.43977 576.05466,374.93342 573.85554,375.19653 571.64733,375.8247 569.41769,375.7964 568.58699,374.7067 567.15767,375.46241 566.26139,375.91361 564.99065,375.63657 563.78782,375.59867 562.76143,376.32511 561.28221,376.72233 560.12574,375.65155 558.70471,375.79272 557.63143,375.83152 556.31979,375.52073 555.89737,376.30176 554.55929,376.15167 553.26999,376.04433 552.19275,376.7929 551.0261,376.62277 549.78786,376.33481 548.88901,377.1648 547.7256,376.65134 547.02837,378.06769 545.99567,378.0894 545.38938,378.68506 544.37431,378.74371 544.14839,379.32786 542.9435,379.36156 543.35152,380.80367 542.57019,380.73034 542.831,381.34009 541.60733,380.84797 542.18585,381.73259 541.73273,382.17973 541.82172,382.83716 541.62221,383.29951 540.75994,382.97639 541.81645,384.53195 540.84076,384.14966 540.88496,385.70924 540.56475,387.40021 540.84076,388.98575 541.63381,389.33669 540.85286,390.47134 541.7492,390.40253 541.59665,390.94938 542.35731,390.61719 542.25368,391.21848 542.68998,391.21648 543.33994,391.61329 543.47863,391.84344 543.39103,392.50476 544.71428,391.56765 544.35792,392.50291 545.10834,392.67691 546.17554,392.08999 546.28598,392.99221 547.43769,393.05251 549.04867,393.33346 549.50334,392.43064 551.59391,392.47684 553.70372,392.70972 555.78869,392.50294 556.2663,391.66997 557.61281,392.02562 557.67733,392.44724 557.90703,391.90718 558.65088,391.73125 558.42656,392.50294 559.57255,392.58894 560.90678,392.13966 561.82403,392.98524 563.07982,393.18692 563.5712,392.95104 563.26266,391.62365"
       inkscape:connector-curvature="0"
       id="path996"
       style="fill:none;stroke:#0000e9;stroke-width:0.99000001;stroke-miterlimit:4;stroke-opacity:1;stroke-dasharray:none;stroke-dashoffset:0" />
    <path
       d="M 585.68456,396.45972 C 586.27076,396.60627 587.29659,397.48556 587.44314,396.89937 587.58969,396.31317 585.08033,396.45972 585.68456,396.45972 586.43182,396.45972 587.1457,396.77652 587.88279,396.89937 588.1719,396.94757 588.49992,396.76829 588.76208,396.89937 588.94745,396.99207 589.01635,397.24633 589.20172,397.33901 589.46388,397.47009 589.87376,397.13176 590.08101,397.33901 590.18464,397.44264 589.97739,397.67503 590.08101,397.77866 590.17011,397.86776 592.19012,397.86776 592.27924,397.77866 592.38286,397.67503 592.17561,397.44264 592.27924,397.33901 592.38286,397.23539 592.57234,397.33901 592.71888,397.33901 592.86543,397.33901 593.0549,397.23539 593.15853,397.33901 593.26215,397.44264 593.0549,397.67503 593.15853,397.77866 593.7779,398.39803 593.24973,396.94499 594.03782,397.33901 594.22319,397.43171 594.29209,397.68597 594.47746,397.77866 594.55996,397.81986 597.91217,397.81986 597.99463,397.77866 598.18,397.68596 598.2489,397.4317 598.43427,397.33901 598.69642,397.20793 599.10631,397.54626 599.31356,397.33901 599.41719,397.23539 599.20994,397.00299 599.31356,396.89937 599.41719,396.79574 599.64958,397.00299 599.75321,396.89937 599.96046,396.69212 599.54596,396.22733 599.75321,396.02008 599.85683,395.91645 600.08923,396.1237 600.19285,396.02008 600.41267,395.80025 599.97303,394.92096 600.19285,394.70114 600.29648,394.59751 600.52887,394.80477 600.6325,394.70114 600.6797,394.65404 600.6325,390.3323 600.6325,389.86504 600.6325,389.5208 600.41312,387.88619 600.6325,387.66682 600.74887,387.55044 601.7704,387.66682 601.95143,387.66682"
       inkscape:connector-curvature="0"
       id="path998"
       style="fill:none;stroke:#0000e9;stroke-width:0.99000001;stroke-miterlimit:4;stroke-opacity:1;stroke-dasharray:none;stroke-dashoffset:0" />
    <path
       d="M 465.68869,97.896862 C 471.40356,99.725251 475.90745,104.08888 481.74948,105.70056 492.02153,109.27925 502.23521,112.99492 511.96134,117.88698 519.4823,121.37789 527.90623,123.1395 535.16636,127.13326 536.1317,127.52985 537.80587,129.65028 535.90826,129.83983 528.91271,127.48706 521.73882,125.38789 514.54426,123.71227 503.51499,121.17852 493.6145,115.38414 482.62877,112.72115 478.48482,111.58616 473.92945,110.67696 471.11453,107.12707 468.34609,104.32909 465.34195,101.47525 463.61412,97.924339 464.05882,97.138115 465.04143,97.922539 465.68869,97.896859 z"
       inkscape:connector-curvature="0"
       id="path1000"
       style="fill:#b394dd;stroke:none" />
    <path
       d="M 538.07901,128.67202 C 539.49877,128.55171 539.82979,130.60665 538.23014,130.32069 537.00261,130.4401 536.63332,128.53696 538.07901,128.67202 z"
       inkscape:connector-curvature="0"
       id="path1002"
       style="fill:#b394dd;stroke:none" />
    <path
       d="M 451.66126,86.040182 C 461.66532,88.179844 469.70654,94.992502 478.53485,99.789008 481.94107,102.01015 485.59362,103.77498 489.00362,105.90665 490.24217,107.4045 487.82804,107.88174 486.86035,107.08819 481.52943,105.34996 476.36486,103.28717 471.77503,100.15004 469.30501,98.776456 466.33883,96.904905 463.49047,97.869384 464.24672,101.10911 467.14522,103.55235 469.16464,106.0303 471.82196,109.13537 475.35041,111.35045 479.33743,112.23862 487.94475,114.64766 496.32338,117.73441 504.50298,121.22227 517.7695,125.5754 531.66348,128.01666 544.65995,133.17838 545.66055,133.34124 545.83413,134.35165 546.32235,134.86827 549.03166,133.64965 551.9596,136.06284 554.59021,136.65022 565.38049,140.83908 576.19992,145.50567 585.24469,152.86624 587.46964,155.18441 590.6852,156.44676 592.96867,158.81437 600.46835,165.9315 608.3179,172.86797 614.7696,180.98979 619.65534,187.38572 624.15749,194.24366 628.1513,201.08982 628.88167,202.03029 629.94311,199.70209 628.49478,200.07314 626.59225,198.37349 625.91218,195.48964 624.19616,193.5106 617.92542,183.54136 610.49655,174.3409 601.77087,166.40093 596.57713,161.51001 591.35545,156.40776 585.45077,152.44033 573.93322,142.80676 559.35924,138.2502 545.65434,132.52838 542.65071,130.67025 539.59566,128.78925 536.44408,127.27065 526.67299,121.93332 515.37098,120.00638 505.875,114.21869 504.66167,113.23358 506.48763,112.13684 507.37254,113.03714 524.98173,119.3839 543.61254,123.46632 559.74105,133.32534 571.11898,138.84085 582.68962,144.47371 592.29001,152.88303 603.69678,161.9949 613.55657,172.88923 621.81016,184.92108 624.49154,189.60078 629.23017,192.55331 631.39813,197.58767 638.85356,211.18216 645.79434,225.70137 646.47296,241.46624 647.73764,253.69267 646.90493,266.22053 642.76241,277.85669 640.58502,287.03879 635.6907,295.25957 631.76464,303.78817 628.73392,309.41098 624.41049,314.22832 621.17194,319.67035 620.05314,323.59284 618.47709,327.40016 615.71191,330.47515 609.95588,338.23949 602.50242,344.58998 594.75238,350.25615 582.72696,357.38901 569.87208,363.61797 556.15941,366.79481 554.6633,367.21238 554.60448,365.26743 555.82968,364.83015 562.23525,360.16109 570.31261,358.93632 577.1533,355.07442 584.95295,351.49126 591.8084,346.23733 598.77688,341.36786 604.44254,337.31062 609.28844,332.23452 612.62688,326.10798 617.16462,320.20415 621.2181,314.03349 624.73031,307.48393 632.99533,296.0696 637.38574,282.31988 639.99377,268.60208 641.47563,259.60459 640.69041,250.40611 640.49138,241.35813 637.24103,227.111 632.83182,212.75514 623.92571,200.99709 615.63967,189.75335 607.80865,177.78739 597.04718,168.75901 591.88617,164.25514 586.50283,159.70255 580.8345,155.8888 576.97781,153.92967 573.12209,151.91579 569.6753,149.24187 556.20203,141.72288 541.88783,135.3766 526.97797,131.4198 521.70431,131.08169 516.92844,128.07011 511.5217,128.67202 505.46049,129.37351 500.18399,133.33465 493.995,133.76076 489.29353,133.97286 483.87219,136.0016 479.72986,132.9036 474.59215,129.12488 471.56417,123.24162 468.79368,117.63968 467.50763,113.67676 466.49498,109.5896 464.19115,106.05777 462.96096,103.23439 459.75477,101.7988 458.04986,99.215797 456.48603,97.341168 454.90623,95.49384 452.81533,94.269789 451.03689,92.317411 448.12053,89.171223 450.06755,86.479827 450.50629,86.103694 451.08572,85.912454 451.66126,86.040182 z"
       inkscape:connector-curvature="0"
       id="path1004"
       style="fill:#94cba7;stroke:none" />
    <path
       d="M 489.34623,105.51428 C 490.87669,105.97192 492.33025,106.64526 493.66368,107.53046 495.86937,108.53997 498.1881,109.28663 500.41798,110.23289 502.21468,110.99577 504.07246,111.54458 505.90162,112.20513 506.43682,112.44516 506.28399,113.07765 505.99092,113.43476 506.09926,114.04329 505.45843,114.72562 504.89868,114.21444 501.38269,112.77543 498.01481,110.98379 494.3684,109.86234 492.48389,109.18467 490.5859,108.55045 488.75491,107.76409 488.27537,107.47261 488.67861,106.95911 488.89972,106.65461 488.66666,106.21354 488.65751,105.47519 489.34623,105.51428 z"
       inkscape:connector-curvature="0"
       id="path1006"
       style="fill:#94cba7;stroke:none" />
    <path
       d="M 539.40395,129.16392 C 540.25772,129.30067 540.98609,129.94832 541.70522,130.41417 542.29344,130.73201 541.96456,131.72101 541.29649,131.53389 540.46836,131.26017 539.54815,131.05902 538.85096,130.52064 538.49598,130.09876 538.91366,129.14494 539.40395,129.16392 z"
       inkscape:connector-curvature="0"
       id="path1008"
       style="fill:#b394dd;stroke:none" />
    <path
       d="M 536.95156,128.16442 C 537.60131,128.16469 537.78836,128.8776 537.64194,129.40092 537.762,130.06109 536.88994,130.5386 536.46039,129.98139 536.18813,129.48829 536.10435,128.72219 536.51189,128.28463 536.64117,128.19813 536.79493,128.14645 536.95154,128.16442 z"
       inkscape:connector-curvature="0"
       id="path1010"
       style="fill:#b394dd;stroke:none" />
    <path
       d="M 473.04845,129.72599 C 474.25854,130.48358 472.74944,132.48644 474.21626,133.27063 478.03544,136.6486 482.8871,138.64929 487.06214,141.36285 486.95809,144.56926 487.91852,148.33575 486.18285,151.21365 483.32423,152.21103 480.0976,152.484 477.41667,154.13193 476.12646,155.33674 474.74317,154.58224 474.36739,153.02718 471.31546,146.9396 467.04618,141.59939 463.48617,135.9085 464.47687,135.25704 466.13652,136.18391 467.15446,135.07043 469.48458,133.8268 470.4072,130.85822 472.74619,129.71225 L 472.99349,129.71225 473.04849,129.72595 z"
       inkscape:connector-curvature="0"
       id="path1012"
       style="fill:#d2a09a;stroke:none" />
    <path
       d="M 457.63339,115.34135 C 461.00987,115.65883 464.74178,115.14954 467.86888,116.13821 468.09495,120.40316 472.61415,123.24405 472.80115,127.47281 471.40945,130.4228 468.75407,132.70884 466.39882,134.9193 464.18062,135.94417 461.69898,134.23737 460.49109,132.3776 456.26308,127.43266 450.5039,124.08447 445.52941,120.02632 445.3372,118.26186 447.69128,117.12166 449.03284,116.28934 451.7356,115.18463 454.76555,115.34126 457.63339,115.34135 z"
       inkscape:connector-curvature="0"
       id="path1014"
       style="fill:#98d8de;stroke:none" />
    <path
       d="M 378.42858,72.90186 C 400.37953,87.547104 425.82629,96.200438 451.60869,101.27048 455.08303,102.22055 458.82005,102.53164 462.12602,103.8831 464.44274,107.15218 466.40318,110.79422 467.42924,114.70936 466.16814,116.31802 462.7756,114.66276 460.77152,115.09122 456.25046,115.24128 450.88971,113.85332 447.01322,116.83889 445.69943,118.07989 444.59385,120.75825 442.59859,118.71406 434.49914,114.21618 426.08626,110.39863 417.1066,108.05921 409.70016,105.21835 402.10152,102.90446 394.64049,100.24229 392.71666,99.494342 390.63781,98.751079 389.62579,96.903736 387.46542,95.346631 384.58828,96.539567 382.23425,96.299224 382.29615,92.928565 380.24323,89.993359 379.82995,86.654509 378.90251,82.151225 377.68197,77.536874 377.81033,72.956816 378.01186,73.088746 378.23045,72.656999 378.42858,72.901856 z"
       inkscape:connector-curvature="0"
       id="path1016"
       style="fill:#c68582;stroke:none" />
    <path
       d="M 391.63167,47.498616 C 396.63358,53.165464 400.82765,59.492044 406.21926,64.832866 416.9818,76.456426 430.81759,85.57742 445.87967,90.813312 448.28187,91.340281 450.61678,92.29564 452.06913,94.348299 454.7091,96.166245 457.33201,98.486573 458.67755,101.4101 457.96294,102.94752 455.559,101.25679 454.33605,101.4101 429.2744,96.301765 404.28505,88.765753 382.56399,74.894002 380.30219,73.715072 377.19054,71.783868 378.37362,68.752709 379.83734,62.510405 382.55744,56.478409 386.27349,51.290555 387.85418,49.946569 389.49559,47.772431 391.63167,47.498616 z"
       inkscape:connector-curvature="0"
       id="path1018"
       style="fill:#cce198;stroke:none" />
    <path
       d="M 417.79055,38.774408 C 419.9663,39.174657 422.8803,38.374733 424.54532,39.81734 432.94417,54.91757 441.57455,69.939143 449.82969,85.088274 449.19531,86.540483 448.84134,88.098827 449.17022,89.759503 449.20642,92.068273 446.25709,90.369801 445.14472,90.061759 429.69261,84.438258 415.79328,74.868606 404.86322,62.603952 400.37794,57.811818 396.05516,52.672486 392.7033,47.045232 393.48204,45.315401 396.40276,44.823982 398.04755,43.740228 404.19913,40.772661 410.87307,38.507203 417.79055,38.774408 z"
       inkscape:connector-curvature="0"
       id="path1020"
       style="fill:#a36ed8;stroke:none" />
    <path
       d="M 432.47745,39.585003 C 442.17747,39.904446 452.02974,40.367661 461.48029,42.621303 463.2349,43.532291 461.49219,46.238386 461.85051,47.776707 460.61838,60.933694 459.52507,74.207843 458.27912,87.300238 455.53928,86.836993 452.86979,85.169115 449.96708,85.472963 449.23217,84.70416 449.63145,83.378023 448.7702,82.495489 441.51316,68.257357 433.04499,54.580841 425.70417,40.423077 426.5616,38.733477 429.29029,39.920221 430.80122,39.55235 431.35996,39.56323 431.9187,39.57412 432.47745,39.585 z"
       inkscape:connector-curvature="0"
       id="path1022"
       style="fill:#abd9cd;stroke:none" />
    <path
       d="M 463.76095,42.635041 C 476.45851,45.532211 488.95664,49.297213 501.47717,52.885013 512.37651,56.425515 523.2139,60.218747 534.15912,63.559401 535.96853,65.505673 533.79835,68.38235 533.26609,70.470073 526.95938,85.156961 520.19263,99.886451 514.03162,114.53076 511.0832,114.62466 508.35117,112.54549 505.51688,111.78402 495.15901,108.13681 485.13356,103.65871 475.89911,97.66947 470.22549,94.030919 464.26216,90.888169 458.60886,87.300238 457.4748,86.264672 459.2947,85.161016 458.85491,83.868803 460.48381,70.290869 461.21868,56.609735 463.06026,43.060948 463.09616,42.728104 463.46877,42.575078 463.76095,42.635041 z"
       inkscape:connector-curvature="0"
       id="path1024"
       style="fill:#a39ccb;stroke:none" />
    <path
       d="M 537.27785,64.96077 C 546.46394,66.850778 554.95727,70.910042 563.72526,74.083407 570.01918,76.832606 576.26958,79.823035 582.57504,82.464142 584.40915,84.652663 582.0377,87.576251 581.33324,89.774147 574.30312,104.01474 567.30749,118.28594 559.82341,132.28143 557.52088,132.24303 555.5612,130.08804 553.41848,129.24312 543.54657,124.30033 533.05189,120.86731 522.47441,117.61191 519.93439,116.52524 516.75491,116.32247 514.63613,114.50328 515.79368,110.40092 518.10951,106.44834 519.7062,102.41045 525.37115,89.957516 530.66542,77.254478 536.63213,64.988248 536.84183,64.921728 537.06326,64.947628 537.27785,64.960768 z"
       inkscape:connector-curvature="0"
       id="path1026"
       style="fill:#b478b6;stroke:none" />
    <path
       d="M 585.2465,84.071594 C 598.59073,90.886872 611.16544,99.24527 623.16589,108.26581 626.23958,111.16138 630.08008,113.42506 632.64574,116.75646 632.69994,118.67308 630.12016,119.80168 629.23053,121.39511 618.64437,132.90551 607.91874,144.27411 597.10318,155.56888 595.29726,155.58208 594.09321,153.26551 592.5556,152.42267 583.26161,144.25898 572.0032,138.59393 560.87368,133.38054 560.36154,131.61668 562.38644,129.82462 562.81001,128.09374 569.92189,113.42717 577.30164,98.892703 584.5733,84.305156 584.81642,84.296856 584.92175,83.776731 585.2465,84.071594 z"
       inkscape:connector-curvature="0"
       id="path1028"
       style="fill:#dad3b7;stroke:none" />
    <path
       d="M 634.08833,117.92427 C 640.56388,123.4799 646.02999,130.07537 650.79484,137.11753 653.92115,140.36691 657.17271,143.80535 659.35418,147.75144 654.98162,151.67695 649.75129,154.90869 645.04872,158.55945 636.11855,164.87369 627.5716,171.81795 618.2611,177.52366 616.38899,177.99179 615.83181,174.99778 614.50086,174.16415 609.39502,167.67946 602.95905,162.18486 597.48787,156.04974 609.30745,143.24759 621.44598,130.66857 633.38764,117.95175 L 633.79981,117.80062 634.08833,117.92427 z"
       inkscape:connector-curvature="0"
       id="path1030"
       style="fill:#ada5be;stroke:none" />
    <path
       d="M 660.68686,148.35595 C 669.07131,158.78114 675.73555,170.47994 683.24743,181.53043 683.73371,182.98308 686.04863,184.46797 685.25203,185.98683 670.54028,195.06637 655.61553,203.90641 640.57309,212.39301 638.54329,211.61293 638.1541,208.67535 636.93155,207.03004 633.57015,200.87002 630.98402,194.01589 625.78862,189.22844 623.1876,186.02541 620.47004,182.69723 618.61832,179.03494 619.72623,177.06852 622.46532,176.1277 624.13857,174.52948 636.07569,165.75593 648.05477,157.03274 659.99991,148.27352 660.21141,148.38667 660.5318,147.96629 660.68686,148.35592 z"
       inkscape:connector-curvature="0"
       id="path1032"
       style="fill:#dcbf8c;stroke:none" />
    <path
       d="M 686.62592,186.67377 C 689.91234,194.34393 691.82459,202.59567 693.48522,210.76584 694.44506,216.4731 694.83437,222.25661 695.18526,228.02789 692.68966,229.58785 689.11403,229.47525 686.20262,230.39128 673.45942,233.02352 660.7618,236.05222 647.96463,238.31834 645.78667,237.67249 646.70561,234.47543 645.90657,232.82679 644.59688,226.38665 642.8532,219.96676 640.22962,213.90429 642.18004,211.60559 645.64489,210.51483 648.19204,208.70722 660.76947,201.2822 673.33486,193.84583 685.92524,186.44021 686.14544,186.5537 686.55982,186.14938 686.62592,186.67377 z"
       inkscape:connector-curvature="0"
       id="path1034"
       style="fill:#768e99;stroke:none" />
    <path
       d="M 695.21274,229.443 C 696.18632,233.88162 695.50778,238.66436 695.48752,243.22313 694.9925,249.10784 694.51168,255.11157 692.95956,260.80893 692.29502,262.66849 690.91333,264.86279 688.61806,263.83149 675.13758,262.1647 661.53449,261.28888 648.08828,259.50374 646.47353,257.92212 648.05363,255.17939 647.57994,253.15636 647.6427,248.62336 646.72076,244.04733 646.97543,239.55484 651.87207,237.79914 657.29254,237.17317 662.40422,235.90029 673.20656,233.6411 683.98993,231.21781 694.85553,229.30561 L 695.21274,229.443 z"
       inkscape:connector-curvature="0"
       id="path1036"
       style="fill:#c1dfbe;stroke:none" />
    <path
       d="M 649.02252,260.25938 C 662.41707,261.48935 675.82868,262.77547 689.16762,264.44974 690.00527,266.00937 687.42173,267.2208 686.832,268.5302 684.4632,271.56841 687.5486,274.9757 689.56605,277.15824 695.1199,284.63509 694.93958,295.23992 691.40706,303.56442 687.42671,303.78545 683.33547,302.29405 679.34625,301.7916 665.53882,299.14376 651.75501,296.36296 637.99018,293.50754 637.06271,292.15161 639.02243,290.54652 639.32285,289.16604 643.36461,280.31448 645.20605,270.64493 647.19525,261.19362 647.45894,260.43353 648.2838,260.15429 649.02252,260.25938 z"
       inkscape:connector-curvature="0"
       id="path1038"
       style="fill:#9b7d71;stroke:none" />
    <path
       d="M 638.0314,294.12579 C 655.39192,297.48062 672.82979,300.81519 690.04691,304.69101 691.47633,306.25487 689.03827,308.38065 688.70211,309.99192 686.21407,315.85084 683.67843,321.82106 679.81142,326.90683 676.26407,332.99569 673.4652,339.45619 671.14217,346.05887 669.5792,346.74319 667.67964,344.62633 666.01527,344.31928 651.08936,337.58695 636.01637,331.1226 621.17375,324.24148 619.87502,321.57199 622.21235,318.63475 623.70171,316.56143 628.96903,310.35513 632.84016,303.19397 636.14636,295.7768 636.62323,295.16711 637.04191,293.90994 638.0314,294.12579 z"
       inkscape:connector-curvature="0"
       id="path1040"
       style="fill:#ba9676;stroke:none" />
    <path
       d="M 576.71464,375.39144 C 584.58952,379.39452 592.92716,382.97172 599.76853,388.62201 600.79782,391.08004 600.25531,394.32067 598.90298,396.5631 597.16096,398.4196 594.09028,396.95053 591.88494,397.12036 581.8961,395.69889 572.04996,393.22304 562.01401,392.13917 556.31287,391.54436 550.46613,393.25378 544.86785,391.93309 541.44596,391.15436 539.80868,387.13622 541.43312,384.08817 542.73806,379.15675 547.97459,376.7487 552.7265,376.6829 555.89151,375.96626 559.11711,375.8954 562.24757,376.6005 564.43226,375.87988 566.80238,375.79714 569.08954,375.73495 571.63698,376.32992 574.19589,375.64875 576.71464,375.39147 z"
       inkscape:connector-curvature="0"
       id="path1046"
       style="fill:#81728f;stroke:none" />
    <path
       d="M 563.12686,393.0322 C 566.29309,392.82496 569.50984,393.61963 572.38688,394.59844 578.24666,395.20349 584.5313,395.41129 589.61548,398.62394 591.99255,400.36994 594.74873,403.53915 593.48985,406.6612 591.79541,407.88735 589.48776,408.18781 587.89656,409.71806 585.43961,411.14868 583.39357,414.04788 580.36919,414.12143 573.02822,411.8951 565.14945,410.60628 558.48311,406.6612 555.75953,404.1348 551.89848,403.18025 549.22308,400.6573 549.18178,398.43402 551.23612,396.87916 552.87763,395.77999 554.93346,393.52517 558.56177,393.15715 561.50563,393.01059 562.04604,393.01759 562.58645,393.02499 563.12686,393.03219 z"
       inkscape:connector-curvature="0"
       id="path1048"
       style="fill:#d764c6;stroke:none" />
    <path
       d="M 595.35675,203.89516 C 595.94295,204.18825 596.82224,205.36064 597.11534,204.77445 597.40843,204.18825 594.70137,203.89516 595.35675,203.89516 596.14594,203.89516 596.80629,204.52488 597.55498,204.77445 597.69401,204.82075 597.891,204.67082 597.99463,204.77445 598.09825,204.87807 597.891,205.11047 597.99463,205.21409 598.09825,205.31772 598.30319,205.14859 598.43427,205.21409 598.61964,205.30679 598.68855,205.56105 598.87392,205.65374 599.13607,205.78481 599.49105,205.52266 599.75321,205.65374 600.26534,205.9098 600.56001,206.27696 601.07214,206.53303 601.20322,206.59853 601.38071,206.46753 601.51179,206.53303 601.69716,206.62573 601.75482,206.90713 601.95143,206.97267 602.36852,207.1117 602.87714,206.77606 603.27037,206.97267 603.45574,207.06537 603.52464,207.31963 603.71001,207.41232 604.53068,207.82265 605.96686,207.00198 606.78753,207.41232 606.9729,207.50502 607.03056,207.78642 607.22717,207.85196 607.61818,207.9823 609.89145,208.05858 610.30469,207.85196 610.49006,207.75926 610.55896,207.505 610.74433,207.41232 611.21329,207.17784 612.03396,207.6468 612.50291,207.41232 612.68829,207.31962 612.75719,207.06536 612.94256,206.97267 613.29428,206.79682 613.90978,207.14853 614.2615,206.97267 614.44687,206.87997 614.51577,206.62571 614.70114,206.53303 615.05286,206.35717 615.66836,206.70889 616.02008,206.53303 616.20545,206.44033 616.27435,206.18607 616.45972,206.09338 617.04123,205.80263 620.03809,206.09338 620.85617,206.09338 621.32343,206.09338 625.64511,206.14058 625.69227,206.09338 625.79589,205.98976 625.54572,205.65374 625.69227,205.65374 625.89952,205.65374 625.92466,206.09338 626.13191,206.09338 626.27846,206.09338 626.02829,205.75736 626.13191,205.65374 626.60173,205.18392 627.0112,206.27872 627.0112,205.21409"
       inkscape:connector-curvature="0"
       id="path1050"
       style="fill:none;stroke:#0000e9;stroke-width:1;stroke-miterlimit:4;stroke-opacity:1;stroke-dasharray:none;stroke-dashoffset:0" />
    <path
       d="M 547.87508,341.94373 C 548.02163,342.52992 547.72853,343.84885 548.31473,343.70231 548.90092,343.55576 547.87508,341.33949 547.87508,341.94373 547.87508,346.87489 547.91958,342.91195 548.75437,344.5816 548.93739,344.94764 548.4755,346.0613 548.75437,346.34018 548.858,346.4438 549.09039,346.23655 549.19402,346.34018 549.48711,346.63327 548.90092,347.80566 549.19402,348.09876 549.29764,348.20238 549.53004,347.99513 549.63366,348.09876 549.98457,348.44966 549.40304,349.83573 549.63366,350.29698 549.72636,350.48235 549.98062,350.55126 550.07331,350.73663 550.53942,351.66885 549.6072,354.20086 550.07331,355.13308 550.16601,355.31845 550.42027,355.38735 550.51295,355.57272 550.86467,356.27616 550.16124,357.50716 550.51295,358.2106 550.60565,358.39597 550.85991,358.46487 550.9526,358.65024 551.12846,359.00196 550.77674,359.61746 550.9526,359.96918 551.0453,360.15455 551.29956,360.22345 551.39224,360.40882 551.52497,360.67427 551.18901,361.52452 551.39224,361.72776 551.49587,361.83138 551.72826,361.62413 551.83189,361.72776 552.05171,361.94758 551.61207,362.82687 551.83189,363.04669 551.93551,363.15032 552.16791,362.94307 552.27153,363.04669 552.6379,363.41306 551.90516,364.87855 552.27153,365.24492 552.37516,365.34854 552.60755,365.14129 552.71118,365.24492 553.00427,365.53801 552.41808,366.7104 552.71118,367.0035 552.8148,367.10712 553.0472,366.89987 553.15082,367.0035 553.25445,367.10712 553.0472,367.33952 553.15082,367.44314 553.73702,368.02934 553.59047,366.7104 553.59047,367.88279"
       inkscape:connector-curvature="0"
       id="path1052"
       style="fill:none;stroke:#0000e9;stroke-width:1;stroke-miterlimit:4;stroke-opacity:1;stroke-dasharray:none;stroke-dashoffset:0" />
    <path
       d="M 513.69426,129.05279 C 518.50262,129.2876 522.8999,131.76559 527.68047,132.1303 542.90591,136.26802 557.63523,142.49871 571.06795,150.774 576.15189,154.56106 582.20052,156.88524 587.0463,161.06445 597.85545,169.37724 607.75735,178.8908 615.43089,190.21841 618.97201,194.91937 622.76025,199.61876 625.35038,204.87783 624.44544,206.47024 621.83835,205.50528 620.33568,205.86703 615.11772,205.65598 610.15908,208.54889 604.9481,207.08979 602.5672,206.62979 599.87318,205.94283 598.10612,204.46566 591.77209,199.3943 586.22168,193.4108 579.82917,188.37759 570.83129,180.68843 561.16651,173.60083 550.11198,169.19975 536.37888,163.37315 522.16426,158.20514 507.47053,155.41775 501.21209,153.72274 495.55954,149.85476 491.36853,144.98992 489.70358,142.17982 491.18625,138.70404 493.6766,136.90796 498.16195,133.18192 503.92436,131.32245 509.39398,129.51991 510.7881,129.13253 512.25019,129.00994 513.69426,129.05279 z"
       inkscape:connector-curvature="0"
       id="path3090"
       style="fill:#e1ada0;stroke:none" />
    <path
       d="M 624.29249,206.15555 C 626.48581,206.15755 628.1902,207.52322 628.90876,209.63149 634.32439,219.74703 637.86215,230.83103 640.05029,242.04149 640.12988,254.05977 641.25398,266.40844 637.3911,278.00721 634.53965,289.06165 629.95742,299.65079 623.33076,308.97755 620.0063,315.15439 615.72149,320.71168 611.80382,326.54962 606.27347,335.89642 597.11609,342.46279 588.07672,348.13345 583.24105,351.91686 577.81974,354.62639 572.13775,356.79109 566.20154,359.60739 559.35054,361.0184 554.38891,365.27961 552.22382,365.23111 552.79798,362.13621 551.72356,360.85568 551.43658,359.12366 550.41988,357.62152 550.81679,355.84097 549.57248,353.94482 550.76729,351.39909 550.06158,349.23595 550.07928,347.53836 549.26852,346.18051 548.90709,344.67124 548.51013,343.05784 548.1462,341.10502 549.9375,340.15114 555.54908,335.08164 562.12711,331.22908 567.67428,326.01134 576.39052,318.12874 585.59033,310.97172 593.09142,301.92949 598.45669,295.47413 604.72526,289.09552 606.91958,280.69972 608.65967,274.7348 610.74314,268.75141 612.47702,262.78734 615.52155,248.46841 613.50894,233.15868 606.9265,220.12802 605.09307,215.56512 602.32516,211.54187 599.91966,207.37831 600.43444,205.77239 602.75397,207.58989 604.00012,207.57066 606.41731,207.59086 608.8672,208.55238 611.31235,207.68077 615.50934,206.65646 619.9232,206.02688 624.29249,206.15555 z"
       inkscape:connector-curvature="0"
       id="path3092"
       style="fill:#9fa085;stroke:none" />
    <path
       d="M 620.60888,324.58358 C 637.22347,331.99576 653.88806,339.32935 670.47534,346.78207 670.91663,348.27034 669.60601,349.82649 669.2707,351.28006 667.36589,355.97769 664.89314,360.42558 662.66506,364.95609 659.45197,370.88532 654.56675,375.62406 650.4627,380.92986 648.79905,381.12706 647.17588,379.61283 645.54813,379.10504 627.52108,370.47454 609.00202,362.90132 590.85222,354.55397 590.06976,353.37973 592.1855,352.80029 592.81738,352.09366 598.25876,348.7086 602.91106,344.46028 607.61038,340.16624 609.85998,338.24569 611.83309,336.00727 613.62389,333.65728 616.3689,331.14405 618.21953,327.69006 620.21725,324.61192 L 620.30775,324.54472 620.60891,324.58362 z"
       inkscape:connector-curvature="0"
       id="path5943"
       style="fill:#939f6c;stroke:none" />
    <path
       d="M 589.61843,354.42768 C 604.02521,361.10708 618.76505,367.16748 633.22399,373.78376 638.42159,376.17646 643.71512,378.40138 648.79174,381.0173 649.46206,382.15594 647.69357,382.97823 647.2665,383.90262 644.05106,388.18697 640.30995,392.18548 636.26926,395.72562 631.90726,398.94092 626.74518,400.657 621.44792,401.56578 618.75893,401.8934 616.20523,403.14454 613.51702,403.09921 612.06127,402.72225 612.19064,400.77479 611.15631,399.87387 608.49936,395.64133 604.52981,392.37924 601.40257,388.57547 601.6398,388.20385 601.9748,387.16513 601.00426,387.50684 598.97175,388.26264 597.66202,385.79591 596.02326,385.11419 584.53062,377.82943 571.77125,372.95968 559.09428,368.17423 557.77864,367.77724 558.75356,366.41729 559.73547,366.36726 564.81395,364.6299 570.0524,363.5192 574.87402,361.03648 579.82548,359.09734 584.36107,356.12146 589.38527,354.41797 589.46307,354.41997 589.54133,354.41197 589.61843,354.42797 z"
       inkscape:connector-curvature="0"
       id="path5952"
       style="fill:#e1d672;stroke:none" />
  </g>
</svg>
