<?xml version="1.0" encoding="UTF-8" standalone="no"?>
<!-- Created with Inkscape (http://www.inkscape.org/) -->

<svg
   xmlns:dc="http://purl.org/dc/elements/1.1/"
   xmlns:cc="http://creativecommons.org/ns#"
   xmlns:rdf="http://www.w3.org/1999/02/22-rdf-syntax-ns#"
   xmlns:svg="http://www.w3.org/2000/svg"
   xmlns="http://www.w3.org/2000/svg"
   xmlns:xlink="http://www.w3.org/1999/xlink"
   xmlns:inkscape="http://www.inkscape.org/namespaces/inkscape"
   version="1.1"
   width="740"
   height="520"
   id="svg2"
   style="enable-background:new">
  <defs
     id="defs4">
    <filter
       color-interpolation-filters="sRGB"
       id="filter3050">
      <feBlend
         in2="BackgroundImage"
         mode="lighten"
         id="feBlend3052" />
    </filter>
  </defs>
  <metadata
     id="metadata7">
    <rdf:RDF>
      <cc:Work
         rdf:about="">
        <dc:format>image/svg+xml</dc:format>
        <dc:type
           rdf:resource="http://purl.org/dc/dcmitype/StillImage" />
        <dc:title />
      </cc:Work>
    </rdf:RDF>
  </metadata>
  <g
     id="layer1"
     style="display:none">
    <image
       xlink:href="pngs/coronal-0640.png"
       id="MRISLICE"
       height="520"
       width="740"
       y="0"
       x="0" />
  </g>
  <g
     id="layer3"
     style="display:inline">
    <path
       d="M 371.49687,157.77795 371.49687,343.57785 C 372.5362,359.78388 384.18616,350.65179 371.186,414.30214 L 369.32074,424.25018 C 391.1388,434.71652 410.56174,431.10697 429.00895,421.76317 446.24009,399.60069 463.72898,364.80859 479.37086,420.51966 490.02511,436.71254 520.21332,451.1702 575.74244,448.49851 602.68497,442.83513 617.75417,409.24487 634.18714,378.86227 646.80168,346.4395 661.70538,334.15538 677.70978,315.44356 718.3001,207.6609 624.3309,100.59444 562.06389,79.799517 523.48575,68.418924 398.28114,15.253674 374.91651,72.338492 L 372.93811,141.57547"
       inkscape:connector-curvature="0"
       id="path2990"
       style="fill:none;stroke:#0000e9;stroke-width:1;stroke-miterlimit:4;stroke-opacity:1;stroke-dasharray:none;stroke-dashoffset:0" />
    <path
       d="M 359.63884,142.60295 C 362.76656,143.38902 381.53347,142.14448 384.34444,141.41961 389.85087,139.99967 394.8634,136.35627 399.828,133.1359 405.93852,129.17221 411.61154,124.09786 417.08396,119.99307 430.85606,112.89908 445.50882,122.46712 459.26071,124.97833 486.35852,131.01842 512.47336,141.55869 535.30334,157.48899 558.41795,173.53411 579.39637,191.99131 593.32433,216.52548 606.78692,238.18475 622.86054,257.91306 613.23877,294.50784 612.20833,301.63623 604.31109,313.83726 601.50489,322.79487 592.48663,337.20069 592.48673,355.22748 583.55869,369.53643 580.68491,374.62943 571.12933,382.25883 575.67374,373.13302 583.54748,367.16553 590.95232,348.7253 592.00411,333.7092"
       inkscape:connector-curvature="0"
       id="path3034"
       style="fill:none;stroke:#0000e9;stroke-width:1;stroke-miterlimit:4;stroke-opacity:1;stroke-dasharray:none;stroke-dashoffset:0" />
    <path
       d="M 592.96875,331.4375 C 581.46664,338.89187 560.58716,350.53191 558.90625,370.96875 L 560.875,371.125 C 562.44901,351.98794 582.44179,340.62498 594.0625,333.09375 L 592.96875,331.4375 z"
       inkscape:connector-curvature="0"
       id="path3032"
       style="font-size:medium;font-style:normal;font-variant:normal;font-weight:normal;font-stretch:normal;text-indent:0;text-align:start;text-decoration:none;line-height:normal;letter-spacing:normal;word-spacing:normal;text-transform:none;direction:ltr;block-progression:tb;writing-mode:lr-tb;text-anchor:start;baseline-shift:baseline;color:#000000;fill:#73a0a6;fill-opacity:1;stroke:none;stroke-width:2;marker:none;visibility:visible;display:inline;overflow:visible;enable-background:accumulate;font-family:Sans;-inkscape-font-specification:Sans" />
    <path
       d="M 591.92438,333.41575 C 591.02651,330.49183 597.02918,324.12443 600.61252,316.68707"
       inkscape:connector-curvature="0"
       id="path2992"
       style="fill:none;stroke:#0000e9;stroke-width:1;stroke-miterlimit:4;stroke-opacity:1;stroke-dasharray:none;stroke-dashoffset:0" />
    <path
       d="M 599.83533,317.77513 C 615.47849,289.60517 612.07243,263.8628 608.6953,254.51186 588.55378,198.74189 549.27794,178.31295 519.7407,165.05283 518.27836,164.39634 516.83988,163.75743 515.42878,163.13266 504.28413,153.72077 493.29016,145.31108 480.32089,144.74395 460.46319,135.73192 443.81945,133.24036 430.20101,135.25382 425.09764,136.00834 421.2004,138.78398 416.96102,140.64682 405.11566,145.85186 389.18633,155.46272 378.43962,157.91227 376.93604,158.25499 369.82044,160.04291 363.87913,159.71808 359.77878,159.4939 354.37248,154.8736 353.6215,154.72064 L 359.83902,142.2856"
       inkscape:connector-curvature="0"
       id="path2998"
       style="fill:none;stroke:#0000e9;stroke-width:1;stroke-miterlimit:4;stroke-opacity:1;stroke-dasharray:none;stroke-dashoffset:0" />
    <path
       d="M 479.04973,145.10826 C 483.83151,152.5764 493.3072,161.34194 495.47795,169.55781 486.73373,194.53956 516.73461,190.64051 508.95095,217.06235"
       inkscape:connector-curvature="0"
       id="path3002"
       style="fill:none;stroke:#0000e9;stroke-width:1;stroke-miterlimit:4;stroke-opacity:1;stroke-dasharray:none;stroke-dashoffset:0" />
    <path
       d="M 516.88934,163.91815 C 525.46617,168.34005 519.80249,182.67521 523.19456,188.05419 529.30916,197.75045 527.7671,202.77915 526.53158,207.10798"
       inkscape:connector-curvature="0"
       id="path3004"
       style="fill:none;stroke:#0000e9;stroke-width:1;stroke-miterlimit:4;stroke-opacity:1;stroke-dasharray:none;stroke-dashoffset:0" />
    <path
       d="M 499.88868,220.93724 C 494.68153,220.22166 491.51287,213.45411 485.84822,215.08595 481.09633,218.15125 475.96825,222.79817 476.01084,228.92182 478.8028,234.45496 484.09286,238.58101 485.27691,244.94856 486.53774,250.5147 487.7382,256.24355 487.58861,261.97489 487.2318,268.46571 483.32359,273.91564 479.15413,278.59555 474.69533,284.63776 469.94829,290.49766 464.17986,295.34119 458.80207,300.64262 452.15223,304.37057 446.71575,309.57722 443.03265,312.75395 438.12836,316.02604 437.59501,321.25532 437.95111,327.75686 446.55367,328.7645 451.15692,326.0401 456.6611,325.10742 462.09444,323.72703 465.89953,319.40716 474.30441,313.40875 481.13249,305.5938 488.61079,298.54519 497.69839,289.63413 503.58226,278.18575 510.17221,267.47511 513.8541,258.36684 518.20377,252.50878 519.02496,242.73045"
       inkscape:connector-curvature="0"
       id="path3006"
       style="fill:none;stroke:#0000e9;stroke-width:1;stroke-miterlimit:4;stroke-opacity:1;stroke-dasharray:none;stroke-dashoffset:0" />
    <path
       d="M 429.6307,361.45322 C 427.71155,357.52162 421.42621,350.17632 417.89019,356.4165 414.89135,362.83577 418.83937,369.57461 421.66776,375.26344 424.93857,382.13323 432.54581,376.89659 431.81476,370.87721 431.05295,367.54407 429.90708,363.97313 429.6307,361.45322 z"
       inkscape:connector-curvature="0"
       id="path3008"
       style="fill:none;stroke:#0000e9;stroke-width:1;stroke-miterlimit:4;stroke-opacity:1;stroke-dasharray:none;stroke-dashoffset:0" />
    <path
       d="M 516.21472,385.32234 C 514.64611,387.55259 512.87426,389.81663 512.41125,392.57892 512.37925,395.10653 515.44918,397.03002 517.71129,395.90629 520.66081,394.83477 521.85212,392.21774 523.55556,389.71775 526.86113,381.56622 521.64342,374.82741 516.21472,385.32234 z"
       inkscape:connector-curvature="0"
       id="path3010"
       style="fill:none;stroke:#0000e9;stroke-width:1;stroke-miterlimit:4;stroke-opacity:1;stroke-dasharray:none;stroke-dashoffset:0" />
    <path
       d="M 559.52812,369.22512 C 549.33701,376.19998 539.43043,387.68778 524.75877,385.70155"
       inkscape:connector-curvature="0"
       id="path3012"
       style="fill:none;stroke:#0000e9;stroke-width:1;stroke-miterlimit:4;stroke-opacity:1;stroke-dasharray:none;stroke-dashoffset:0" />
    <path
       d="M 542.16783,248.29433 C 533.54361,250.18057 528.59149,258.02592 522.94096,264.04064 517.69593,270.32809 512.42086,277.35105 511.06454,285.60515 510.81873,292.71488 514.13988,299.3734 514.07562,306.47718 515.35832,316.74615 515.85724,324.49079 509.36237,333.25141 507.30026,336.35669 504.89935,339.12157 502.20679,341.43777 472.85622,346.22416 466.84426,340.62851 465.93568,325.44162 466.61998,322.48277 466.70127,318.51368 469.93791,317.12671"
       inkscape:connector-curvature="0"
       id="path3014"
       style="fill:none;stroke:#0000e9;stroke-width:1;stroke-miterlimit:4;stroke-opacity:1;stroke-dasharray:none;stroke-dashoffset:0" />
    <path
       d="M 487.85558,342.90086 C 488.17329,344.30904 488.56295,351.25199 488.59345,352.72109 489.03148,373.82075 460.72796,399.39852 429.00895,377.61877"
       inkscape:connector-curvature="0"
       id="path3016"
       style="fill:none;stroke:#0000e9;stroke-width:1;stroke-miterlimit:4;stroke-opacity:1;stroke-dasharray:none;stroke-dashoffset:0" />
    <path
       d="M 465.58564,325.75581 C 448.38884,333.73684 424.56718,340.77231 419.68266,353.37044"
       inkscape:connector-curvature="0"
       id="path3018"
       style="fill:none;stroke:#0000e9;stroke-width:1;stroke-miterlimit:4;stroke-opacity:1;stroke-dasharray:none;stroke-dashoffset:0" />
    <path
       d="M 520.14249,225.50397 C 520.70863,217.9195 518.67544,215.52827 513.78237,216.77537 507.65573,219.31618 496.69869,217.94634 492.06108,223.44546 491.86322,231.03592 510.92088,235.10071 517.69924,229.12508 520.54898,224.60359 524.61269,222.20734 525.92733,219.23494 527.33121,216.06074 525.87783,212.35295 525.51638,208.72197 M 525.38052,207.88045 C 532.5196,206.38769 537.87856,214.11198 540.62554,217.00683 551.95521,230.04334 539.05886,246.39807 543.21808,249.00541 552.08173,265.06788 554.74775,284.03711 553.44669,302.16463 552.1991,316.19517 547.50303,331.76377 534.85202,339.59415 525.10741,345.57081 512.92184,344.70754 502.37565,341.55715"
       inkscape:connector-curvature="0"
       id="path3070"
       style="fill:none;stroke:#0000e9;stroke-width:1;stroke-miterlimit:4;stroke-opacity:1;stroke-dasharray:none;stroke-dashoffset:0" />
    <path
       d="M 512.94548,344.66591 C 506.69376,356.11224 498.48375,367.31378 517.91949,381.97104"
       inkscape:connector-curvature="0"
       id="path3091"
       style="fill:none;stroke:#0000e9;stroke-width:1;stroke-miterlimit:4;stroke-opacity:1;stroke-dasharray:none;stroke-dashoffset:0" />
    <path
       d="M 473.05814,399.09759 C 456.76884,408.88066 432.83338,429.52139 423.81789,423.71772"
       inkscape:connector-curvature="0"
       id="path3009"
       style="fill:none;stroke:#0000e9;stroke-width:1;stroke-miterlimit:4;stroke-opacity:1;stroke-dasharray:none;stroke-dashoffset:0" />
    <path
       d="M 400.07705,133.1123 C 421.11611,121.5253 451.16136,120.29418 452.39483,123.44011"
       inkscape:connector-curvature="0"
       id="path3011"
       style="fill:none;stroke:#0000e9;stroke-width:1;stroke-miterlimit:4;stroke-opacity:1;stroke-dasharray:none;stroke-dashoffset:0" />
    <path
       d="M 427.10326,117.81783 C 421.76624,117.61313 417.05525,120.3032 413.03945,123.53507 411.72133,124.9629 408.77868,125.84997 408.84425,128.05332 410.31899,128.99843 412.23865,127.14361 413.81298,127.03081 423.22842,123.92704 433.09298,122.48088 442.95797,121.58229 443.83234,119.77495 439.22576,119.88721 437.83183,119.1163 434.33154,118.24601 430.71806,117.71665 427.10326,117.81783 z"
       inkscape:connector-curvature="0"
       id="path3026"
       style="fill:#b46a9f;stroke:none" />
    <path
       d="M 541.02631,249.01068 C 534.75671,250.66145 530.54637,256.25736 526.2295,260.72997 520.37407,267.64966 513.94574,274.88344 511.7899,283.89377 510.72162,291.82759 513.95932,299.52706 514.42778,307.40105 515.38891,314.6641 515.60966,322.41348 512.06468,329.06731 510.18262,333.45274 506.74547,336.80256 503.9862,340.59425 503.70268,342.53069 506.91053,342.02202 508.05842,342.61618 516.49792,344.62584 525.8138,343.96055 533.56608,339.976 543.81212,334.27958 549.19598,322.76171 551.78387,311.81124 553.76739,301.09491 553.63233,290.03782 552.59447,279.22254 551.00124,269.20498 548.41612,259.09023 543.36192,250.27466 542.84673,249.45107 542.06107,248.79999 541.02631,249.01068 z"
       inkscape:connector-curvature="0"
       id="path3040"
       style="fill:#78a9c2;stroke:none" />
    <path
       d="M 421.07188,354.33316 C 417.16411,355.49257 416.7502,360.68185 417.41733,364.07405 418.64393,368.86275 420.78223,373.5484 423.70975,377.52444 427.68568,379.80583 432.3039,374.76027 431.47224,370.73742 430.36632,365.67478 429.62497,360.0244 425.4546,356.42148 424.24365,355.34462 422.77215,354.21186 421.07188,354.33316 z"
       inkscape:connector-curvature="0"
       id="path3042"
       style="fill:#bfb195;stroke:none" />
    <path
       d="M 459.59579,390.85119 C 452.22339,391.86835 447.48753,398.43075 443.01228,403.71001 437.93557,409.78504 433.6274,416.72501 428.27107,422.40946 426.847,423.26243 428.30807,424.85457 429.57627,424.27795 439.47844,422.02414 447.40149,415.13177 455.96642,410.05221 460.89697,406.71098 466.11997,403.67025 470.80674,400.01504 470.40286,397.56937 468.15908,395.67987 466.58889,393.84627 464.72484,392.10111 462.29265,390.62485 459.59579,390.85119 z"
       inkscape:connector-curvature="0"
       id="path3056"
       style="fill:#85dbce;stroke:none" />
    <path
       d="M 605.00046,315.22747 C 608.11449,322.02381 614.8257,327.14377 606.71028,348.5384 604.92063,351.50201 597.15779,366.8562 588.24518,360.84846"
       inkscape:connector-curvature="0"
       id="path3022"
       style="fill:none;stroke:#0000e9;stroke-width:1;stroke-miterlimit:4;stroke-opacity:1;stroke-dasharray:none;stroke-dashoffset:0" />
    <path
       d="M 595.71915,362.1674 C 594.84767,369.42867 596.88918,375.44151 580.33157,389.4254 577.70284,395.09286 564.92971,400.36856 579.45228,373.15853"
       inkscape:connector-curvature="0"
       id="path3025"
       style="fill:none;stroke:#0000e9;stroke-width:1;stroke-miterlimit:4;stroke-opacity:1;stroke-dasharray:none;stroke-dashoffset:0" />
    <path
       d="M 592.64163,439.98459 C 590.96749,422.25617 588.20264,411.43666 571.53867,414.48517 552.44408,416.21128 557.88672,429.19606 553.95286,449.65678"
       inkscape:connector-curvature="0"
       id="path3027"
       style="fill:none;stroke:#0000e9;stroke-width:1;stroke-miterlimit:4;stroke-opacity:1;stroke-dasharray:none;stroke-dashoffset:0" />
    <path
       d="M 586.04696,416.68339 C 593.05648,395.55562 606.19752,380.55938 616.38247,362.60704 632.07218,341.33443 651.01862,327.30146 621.65821,366.12421 610.66708,384.29621 592.2701,420.98285 588.68483,420.6402"
       inkscape:connector-curvature="0"
       id="path3029"
       style="fill:none;stroke:#0000e9;stroke-width:1;stroke-miterlimit:4;stroke-opacity:1;stroke-dasharray:none;stroke-dashoffset:0" />
    <path
       d="M 575.69108,414.30758 C 569.86755,414.75458 562.95901,415.28608 559.34178,420.51757 556.44103,424.87254 556.76993,430.50424 555.89927,435.49024 555.53311,439.75195 554.94532,444.09529 554.53316,448.28391 561.68237,448.49914 569.02048,448.72642 576.19942,448.03661 581.83821,446.65212 587.43597,444.20558 591.88925,440.48021 593.04782,438.0471 591.5107,435.15405 591.45763,432.57832 590.28337,426.36471 589.15688,418.28709 582.61549,415.48913 580.45831,414.52345 578.06638,414.17781 575.69108,414.30758 z"
       inkscape:connector-curvature="0"
       id="path3031"
       style="fill:#b9abdd;stroke:none" />
    <path
       d="M 635.51029,342.52178 C 630.14485,345.98759 626.16009,351.26709 621.97291,356.03689 614.19758,365.39034 608.56384,376.2806 601.77338,386.35155 595.72606,396.13091 589.45139,406.13537 586.37995,417.24771 587.35851,417.98063 588.57103,421.58342 589.92459,419.62454 598.87213,407.50412 605.41449,393.79709 612.97773,380.79215 618.24038,371.07952 624.24073,361.88936 630.73091,352.97316 632.5906,349.70331 635.52071,346.66346 636.27967,342.93394 636.18337,342.60538 635.83086,342.44531 635.51029,342.52178 z"
       inkscape:connector-curvature="0"
       id="path3033"
       style="fill:#d5be93;stroke:none" />
    <path
       d="M 587.97367,361.64634 C 585.68303,366.67502 582.83309,371.24674 579.16702,375.35777 576.04664,380.31133 572.95657,385.92077 573.03947,391.9269 573.1617,394.31567 576.09718,393.60294 577.25732,392.44898 579.92137,390.22235 581.78657,387.25789 584.53894,385.12614 590.3094,380.02151 594.90564,373.09787 595.28277,365.17724 595.98107,363.06938 595.35167,361.27402 592.98837,362.41572 591.22229,362.77355 589.58949,361.18017 587.97367,361.64634 z"
       inkscape:connector-curvature="0"
       id="path3035"
       style="fill:#ca818c;stroke:none" />
    <path
       d="M 521.45538,380.29742 C 518.56293,380.86734 517.45984,384.1843 515.78166,386.23871 514.64351,388.44085 512.48301,390.62913 512.72171,393.25707 513.38521,395.52214 516.39421,397.02166 518.40491,395.36519 522.39973,392.59732 525.26326,387.42069 524.0784,382.51241 523.72801,381.36262 522.81998,380.15036 521.45538,380.29742 z"
       inkscape:connector-curvature="0"
       id="path3038"
       style="fill:#b667d7;stroke:none" />
    <path
       d="M 494.38095,227.63599 C 491.75069,234.71803 504.61096,238.20464 517.57208,236.78515 519.81306,236.53973 523.84418,240.09909 519.88036,242.36411"
       inkscape:connector-curvature="0"
       id="path3036"
       style="fill:none;stroke:#0000e9;stroke-width:1;stroke-linecap:round;stroke-miterlimit:4;stroke-opacity:1;stroke-dasharray:none;stroke-dashoffset:0" />
    <path
       d="M 487.15873,215.01006 C 485.08573,215.21814 483.57723,216.95797 481.99977,218.15627 479.00036,220.8432 476.24936,224.47497 476.1676,228.65279 477.11663,231.08306 479.00467,233.08482 480.40392,235.28101 483.08734,238.63448 485.03664,242.56695 485.79383,246.81292 487.04782,252.95418 488.47521,259.41333 487.08317,265.63794 485.63557,271.09331 481.87594,275.55209 478.382,279.85949 473.07245,287.02116 466.96158,293.58318 459.97025,299.11473 454.68924,303.31399 449.19628,307.37165 444.18735,311.89458 441.36745,314.41647 438.07392,317.33851 437.82917,321.38357 437.82317,324.98287 441.61665,327.33255 444.92532,327.21574 447.57181,327.42332 450.02348,326.42329 452.48778,325.69532 457.19457,324.80144 462.01029,323.17366 465.4711,319.65726 469.8971,316.23656 474.12962,312.58282 478.10827,308.64096 485.80901,301.06673 493.96802,293.73341 499.65427,284.43964 503.44818,278.25893 507.52941,272.15433 510.79679,265.65014 513.98145,258.4319 518.02493,251.36689 518.8544,243.3809 518.99259,242.63795 520.03141,242.50116 520.40002,241.82154 521.3327,241.10975 521.80075,239.79669 520.97019,238.80585 520.06353,237.10165 518.03766,237.01706 516.34705,237.09535 510.04693,237.03165 503.34503,237.51082 497.63465,234.39566 495.71818,233.40546 493.84251,231.6565 494.04665,229.31971 494.24916,227.14757 491.83598,225.90616 492.04291,223.748 492.25863,222.44931 493.85164,221.89351 494.76322,221.16509 495.67992,220.86495 497.25613,219.9136 495.68833,219.21758 493.05497,217.5568 490.50292,214.85069 487.15873,215.01006 z"
       inkscape:connector-curvature="0"
       id="path3041"
       style="fill:#8678d2;stroke:none" />
    <path
       d="M 515.70132,216.63125 C 513.03069,216.90427 510.56641,218.08115 507.87285,218.28688 505.21347,218.83268 502.40618,218.87847 499.83288,219.73624 499.15669,219.9412 499.96522,221.27848 499.07724,220.84222 497.80036,220.30137 496.39105,220.3853 495.25095,221.21317 494.08112,221.90172 492.79836,222.63617 492.04978,223.77548 493.07209,227.88037 497.37211,229.83743 501.08999,230.94032 504.96937,231.97485 509.18773,232.15617 513.08406,231.22197 515.436,230.5794 517.67105,229.31917 518.95057,227.16899 520.7878,224.93991 520.13837,221.73655 519.47952,219.17294 519.01367,217.52789 517.40884,216.42774 515.70132,216.63125 z"
       inkscape:connector-curvature="0"
       id="path3043"
       style="fill:#b667d7;stroke:none" />
    <path
       d="M 571.23475,347.30835 548.85167,322.43827"
       inkscape:connector-curvature="0"
       id="path3804"
       style="fill:none;stroke:#0000e9;stroke-width:1;stroke-linecap:round;stroke-miterlimit:4;stroke-opacity:1;stroke-dasharray:none;stroke-dashoffset:0" />
    <path
       d="M 594.70589,326.32422 C 582.37466,324.61612 570.6157,328.05835 559.11058,333.78524"
       inkscape:connector-curvature="0"
       id="path3806"
       style="fill:none;stroke:#0000e9;stroke-width:1;stroke-linecap:round;stroke-miterlimit:4;stroke-opacity:1;stroke-dasharray:none;stroke-dashoffset:0" />
    <path
       d="M 604.38688,316.04038 C 602.7648,318.911 602.11742,322.23316 600.33971,325.01773 597.43723,330.29069 595.48609,335.99855 593.86059,341.77563 592.11483,347.87569 590.38611,353.96693 588.38162,359.97591 588.22342,361.14322 589.69763,361.53064 590.55776,361.84603 593.66937,362.88202 596.83716,361.04759 599.03637,358.95716 602.04094,356.05703 604.39861,352.52093 606.34835,348.84816 608.1626,344.69915 609.38881,340.27823 610.12607,335.81172 610.95894,330.72224 610.38203,325.31437 607.84394,320.76715 606.94046,319.16682 606.19937,317.41063 605.03292,315.98209 604.80951,315.80673 604.60546,315.93959 604.38688,316.04039 z"
       inkscape:connector-curvature="0"
       id="path3808"
       style="fill:#c9ca98;stroke:none" />
    <path
       d="M 548.62349,323.24882 C 547.25229,325.51574 546.24923,327.99721 544.66315,330.14755 540.78404,335.86863 535.12239,340.56305 528.44569,342.54257 523.45584,344.15498 518.09721,344.22405 512.91161,343.85893 512.19992,343.90383 512.30779,344.84257 512.82901,345.09272 509.94193,350.34687 506.60481,355.66513 505.94187,361.75311 505.38147,366.94186 507.81904,371.95409 511.22675,375.71967 513.23269,377.97067 515.48864,380.06368 517.93275,381.81013 518.84312,381.83133 519.33522,380.64985 520.18803,380.35772 521.2283,379.64889 522.76401,379.75378 523.50566,380.85318 524.54292,382.0732 524.50575,383.75004 524.81717,385.2103 525.41103,386.06498 526.67711,385.64401 527.56648,385.77862 532.9337,386.00557 538.11943,384.1027 542.63675,381.37615 548.28263,377.96191 553.31374,373.66165 558.60065,369.73451 559.53229,369.19221 559.73462,368.14474 559.85607,367.16326 561.26516,359.91627 565.3089,353.41992 570.39451,348.14319 570.97241,347.66795 570.89286,346.83954 570.2867,346.42378 563.32333,338.6531 556.34621,330.88097 549.27923,323.2051 549.02178,323.111 548.85624,323.0706 548.62347,323.2488 z"
       inkscape:connector-curvature="0"
       id="path3812"
       style="fill:#a7c0ab;stroke:none" />
    <path
       d="M 465.25528,326.08071 C 460.2484,328.13432 455.31101,330.37153 450.28828,332.43317 442.57318,335.84204 434.60285,339.00342 427.785,344.0338 424.58463,346.47829 421.40316,349.35179 419.89166,353.1755 419.70163,354.18094 421.04029,354.03052 421.65977,354.02555 423.54072,354.06645 425.05556,355.54309 426.3472,356.76029 428.18586,358.65384 429.80729,360.9014 430.12143,363.57527 430.68793,366.55988 431.86532,369.45358 431.86525,372.49839 431.73522,374.29987 430.71222,375.87648 429.51425,377.18582 429.17015,378.13684 430.58526,378.34691 431.12297,378.85617 437.21372,382.703 444.21862,385.36516 451.46501,385.75434 456.95756,386.00111 462.50775,385.10099 467.51581,382.80472 477.94174,378.14026 486.26229,368.37349 488.2261,356.9983 488.59381,352.54955 488.43174,348.04517 487.8618,343.62092 487.34603,342.76996 486.05229,343.33351 485.20559,343.12928 480.37698,343.04638 475.1559,342.70582 471.24077,339.60739 467.71955,336.80374 466.53519,332.1387 466.08104,327.84881 465.88278,327.28509 466.17324,326.03431 465.25528,326.08071 z"
       inkscape:connector-curvature="0"
       id="path3814"
       style="fill:#aac7db;stroke:none" />
    <path
       d="M 587.88826,325.93548 C 580.7282,325.97608 573.67071,327.70916 567.03152,330.29974 564.53991,331.27553 562.08027,332.34981 559.69239,333.55378 559.29917,333.79244 559.48057,334.30538 559.78859,334.53345 563.61243,338.76065 567.39678,343.02624 571.24873,347.22564 571.58835,347.53155 571.99673,347.25944 572.24823,346.98693 575.47246,343.96393 578.96776,341.25582 582.60566,338.76247 585.47716,336.76432 588.43829,334.89526 591.3649,332.98226 591.88966,332.74557 591.84854,332.11332 592.00125,331.65134 592.52251,330.00417 593.45503,328.52192 594.33525,327.05348 594.5567,326.67145 594.19794,326.22111 593.78569,326.24804 591.8316,325.9973 589.85766,325.91499 587.88827,325.93548 z"
       inkscape:connector-curvature="0"
       id="path3816"
       style="fill:#d17697;stroke:none" />
    <path
       d="M 443.30928,122.16628 C 431.08308,122.50776 418.90936,125.1477 407.58125,129.70207 402.92971,131.66493 398.487,134.05502 394.29761,136.86131 390.20102,139.38524 385.78688,141.73063 380.88654,141.9984 374.09257,142.63571 367.24633,142.99611 360.4087,142.86338 358.97326,142.90838 358.96052,144.95488 358.18881,145.89202 356.82718,148.7542 355.22634,151.55277 354.00894,154.45244 354.59436,155.51679 356.11205,155.98699 357.09169,156.77432 359.97372,158.75137 363.43825,160.00724 366.97556,159.57895 368.35532,159.32 370.16364,159.78588 371.25557,158.73239 371.40198,158.37737 371.45721,157.80353 371.57156,158.51257 372.33177,159.54241 373.84463,158.57637 374.864,158.55577 381.82455,157.37734 388.27638,154.47171 394.58067,151.4118 405.06868,146.42923 415.34998,140.99461 425.97078,136.3174 430.81869,134.38439 436.16436,134.71637 441.28955,134.65358 452.13248,134.73518 462.73438,137.66151 472.79855,141.48758 476.42576,142.78596 479.93405,144.88437 483.86655,144.99352 493.11202,146.49123 501.23722,151.72208 508.50754,157.35568 512.19719,160.00816 515.39873,163.80911 520.0411,164.75694 520.83186,164.54502 521.01529,165.58374 521.76533,165.72554 529.99117,169.6948 538.22909,173.5943 546.06303,178.3215 563.30919,188.47721 578.74979,201.93277 590.24009,218.3814 598.23607,229.79191 604.63102,242.42475 609.12822,255.59539 612.06017,264.70209 611.76479,274.50306 611.08013,283.92629 609.81771,294.62632 606.43174,304.91634 601.68137,314.56488 599.19364,320.31406 595.36618,325.30155 592.47263,330.83976 592.1578,331.8029 594.31532,332.84778 592.9535,333.37459 591.4245,334.31855 592.11358,336.41608 591.6689,337.88095 590.00924,348.12979 586.90079,358.33638 581.14614,367.07639 579.52328,369.83978 576.85176,371.7822 575.22344,374.5089 574.99584,375.2923 574.05669,376.67044 575.14104,377.16049 577.09614,376.95519 578.36311,375.0769 579.14592,373.43726 580.45655,374.09071 581.21093,372.27985 581.95156,371.54518 587.74393,363.60719 590.08853,353.85195 592.84243,344.56975 594.9183,337.33176 597.0974,330.05325 600.89462,323.51005 602.75555,319.32127 604.35678,315.03523 606.45887,310.95269 609.44156,304.83362 612.50303,298.64904 613.74004,291.8974 616.17545,281.56248 616.93639,270.69714 614.69534,260.25611 612.1869,247.38071 605.48273,235.8943 598.48879,224.97936 592.40711,215.33014 586.74235,205.3502 579.352,196.61748 564.91716,179.32447 547.02603,165.28255 528.257,152.98957 517.06299,145.92948 505.12985,140.04045 492.79869,135.22437 480.68644,130.57931 468.16829,127.012 455.52321,124.22716 452.96709,123.67357 450.51682,122.57518 447.95307,122.15945 446.40518,122.16445 444.85711,122.15045 443.30931,122.16645 z"
       inkscape:connector-curvature="0"
       id="path3822"
       style="fill:#73a0a6;stroke:none" />
    <path
       d="M 526.71446,207.87284 C 525.05892,208.40289 526.15263,210.64172 526.14608,211.86849 526.76001,215.07648 527.17405,218.83694 524.6549,221.34737 522.1869,224.00101 519.75627,226.81456 517.34932,229.53701 513.3504,232.69238 507.90637,232.04844 503.14617,231.66457 500.10262,231.37785 497.48522,229.80852 494.73308,228.69182 493.48773,229.31951 494.62338,231.1718 495.1994,231.98516 498.07121,235.10553 502.47599,236.15568 506.55609,236.55115 510.89028,236.9508 515.37192,236.29686 519.6226,237.18262 521.08526,237.92051 522.6166,240.0498 521.07011,241.49603 520.59172,242.51301 519.0411,242.40967 519.08777,243.77341 517.60599,253.56634 512.75207,262.47001 508.12018,271.10697 502.37827,280.85996 496.65188,290.94968 488.45363,298.83204 482.44231,304.96828 476.16872,310.89008 469.96986,316.7766 469.32708,318.20241 467.5446,318.94742 467.25941,320.68198 465.25894,325.9273 466.42232,331.98539 469.15381,336.74068 472.56665,342.03135 479.45057,343.05516 485.26104,342.80784 490.77117,342.62119 496.41505,342.4594 501.76665,341.19009 505.31031,338.68847 507.8733,334.94217 510.32721,331.41695 514.63638,325.27058 515.22316,317.36653 514.29965,310.09543 513.84281,302.82432 512.07837,295.76602 511.10265,288.58403 510.38015,282.62323 513.62065,277.13546 516.58904,272.25575 521.26929,265.22312 526.87227,258.81168 532.99998,253.04701 535.53574,250.71788 538.63376,249.18049 541.85995,248.12157 542.73412,247.00251 542.19539,245.31126 542.77188,244.03885 543.8812,239.30683 545.32679,234.58106 544.946,229.65361 545.5648,223.95362 542.233,218.87447 538.46946,214.94527 535.31268,211.66122 531.69608,207.70604 526.71446,207.87284 z"
       inkscape:connector-curvature="0"
       id="path3039"
       style="fill:#9de082;stroke:none" />
    <path
       d="M 480.67316,144.97642 C 479.67221,144.86595 479.64155,146.05444 480.25413,146.59761 484.39169,152.41895 489.39824,157.64593 493.05192,163.78499 493.94931,165.72144 495.3205,167.60832 495.49058,169.76828 494.08244,174.27383 493.25067,179.37743 495.16771,183.87128 498.51537,191.05704 506.31544,195.19096 509.23636,202.56993 510.85817,206.97048 510.35465,211.94784 509.27756,216.43249 508.6928,217.32699 509.80327,218.03719 510.60337,217.58656 513.09387,216.95803 516.01531,215.59364 518.42081,217.14005 520.4084,218.8308 520.12158,221.64306 520.39921,223.98202 521.00008,225.08402 522.06487,223.67391 522.56262,223.18996 524.28919,221.28019 526.45514,219.27078 526.30694,216.46684 526.42497,213.92345 525.61015,211.4256 525.57878,208.91731 525.99883,208.37926 525.4411,207.62523 526.17642,207.33733 527.47466,204.59345 527.58272,201.35686 527.27554,198.35896 526.79828,194.19844 524.32377,190.72284 522.64552,186.99688 521.37951,183.13161 522.1976,178.89685 521.7973,174.87336 521.61915,171.21438 521.09677,166.89825 517.79569,164.69176 512.32772,161.24997 507.69488,156.63037 502.2479,153.14836 495.82476,148.85897 488.54634,145.21573 480.67315,144.97642 z"
       inkscape:connector-curvature="0"
       id="path3037"
       style="fill:#a7b0c5;stroke:none" />
    <path
       d="M 520.2055,165.71531 C 519.64383,166.671 520.86486,167.62467 521.03671,168.59361 522.90914,174.18687 521.43147,180.25381 522.55486,185.95272 523.92259,189.81723 526.60173,193.15634 527.33217,197.26069 528.09943,200.26605 527.69253,203.41012 526.89635,206.38935 526.48199,207.43336 527.64636,207.88351 528.49694,207.72889 532.26512,208.25267 535.20211,211.07166 537.78056,213.65078 541.5537,217.41739 544.95488,222.11025 545.32023,227.6091 545.94524,233.22111 544.21384,238.66695 542.99149,244.08892 542.63877,245.78025 542.12811,247.79478 543.41698,249.22554 550.0411,261.24399 553.20513,275.03474 553.6941,288.72664 553.7683,296.72891 553.82545,304.82865 551.9049,312.63472 551.29619,315.79381 550.13993,318.78112 549.24269,321.85802 549.25749,323.32067 550.866,324.10378 551.57503,325.23865 554.08193,327.88906 556.29745,330.88731 559.1141,333.21323 560.35561,333.55763 561.45653,332.34027 562.60364,331.99666 570.29184,328.47814 578.60776,326.18684 587.07275,325.80453 589.55449,325.70115 592.06965,326.16786 594.52614,325.96596 596.16324,324.63138 596.98133,322.52966 598.172,320.8139 604.40441,309.44034 609.3526,297.13112 610.76539,284.15159 612.09439,273.10011 611.60154,261.5238 607.27189,251.15187 600.75943,234.33251 591.55038,218.45037 579.2596,205.19368 565.44523,190.11906 548.10927,178.66003 529.72549,169.89876 526.69568,168.44524 523.73874,166.83678 520.59706,165.626 L 520.38274,165.6749 520.2055,165.7153 z"
       inkscape:connector-curvature="0"
       id="path3044"
       style="fill:#d0cf6e;stroke:none" />
  </g>
</svg>
