<?xml version="1.0" encoding="UTF-8" standalone="no"?>
<!-- Created with Inkscape (http://www.inkscape.org/) -->

<svg
   xmlns:dc="http://purl.org/dc/elements/1.1/"
   xmlns:cc="http://creativecommons.org/ns#"
   xmlns:rdf="http://www.w3.org/1999/02/22-rdf-syntax-ns#"
   xmlns:svg="http://www.w3.org/2000/svg"
   xmlns="http://www.w3.org/2000/svg"
   xmlns:xlink="http://www.w3.org/1999/xlink"
   xmlns:inkscape="http://www.inkscape.org/namespaces/inkscape"
   version="1.1"
   width="740"
   height="520"
   id="svg2"
   style="display:inline;enable-background:new">
  <defs
     id="defs4">
    <filter
       color-interpolation-filters="sRGB"
       id="filter3050">
      <feBlend
         in2="BackgroundImage"
         mode="lighten"
         id="feBlend3052" />
    </filter>
  </defs>
  <metadata
     id="metadata7">
    <rdf:RDF>
      <cc:Work
         rdf:about="">
        <dc:format>image/svg+xml</dc:format>
        <dc:type
           rdf:resource="http://purl.org/dc/dcmitype/StillImage" />
        <dc:title />
      </cc:Work>
    </rdf:RDF>
  </metadata>
  <g
     id="g5123"
     style="display:none">
    <image
       xlink:href="pngs/coronal-0435.png"
       id="image5125"
       height="520"
       width="740"
       y="0"
       x="0" />
  </g>
  <g
     id="g5131"
     style="display:inline">
    <path
       d="M 373.78802,345.90941 C 371.67265,270.68598 361.82853,197.0083 367.5705,120.2134 368.25355,119.47277 371.21182,118.52653 371.92276,117.10464 372.01546,116.91927 371.83006,116.66826 371.92276,116.48289 372.05384,116.22074 372.41344,116.12329 372.54451,115.86114 372.63721,115.67577 372.39796,115.38593 372.54451,115.23939 372.69106,115.09284 373.01972,115.38593 373.16626,115.23939 373.45936,114.94629 372.98089,114.36662 373.16626,113.99588 373.29734,113.73373 373.65694,113.63628 373.78802,113.37413 373.97339,113.00339 373.49492,112.42372 373.78802,112.13063 373.93456,111.98408 374.26322,112.27717 374.40977,112.13063 374.70287,111.83753 374.11667,111.18022 374.40977,110.88712 374.55632,110.74057 374.88497,111.03367 375.03152,110.88712 375.17807,110.74057 374.88497,110.41192 375.03152,110.26537 376.68953,110.26537 374.82427,110.47262 375.65327,109.64362 375.79982,109.49707 376.12848,109.79017 376.27502,109.64362 376.42157,109.49707 376.12848,109.16841 376.27502,109.02187 377.93303,109.02187 376.06777,109.22912 376.89678,108.40011 377.04333,108.25357 377.33316,108.49281 377.51853,108.40011 378.04284,108.13796 378.23773,107.41876 378.76203,107.15661 378.9474,107.06391 379.23724,107.30316 379.38379,107.15661 379.53033,107.01006 379.29109,106.72023 379.38379,106.53486 379.64594,106.01055 380.10298,105.55351 380.62729,105.29135 380.81266,105.19865 381.10249,105.4379 381.24904,105.29135 381.39559,105.1448 381.10249,104.81615 381.24904,104.6696 381.39559,104.52305 381.72425,104.81615 381.87079,104.6696 382.01734,104.52305 381.72425,104.1944 381.87079,104.04785 382.01734,103.9013 382.346,104.1944 382.49255,104.04785 382.63909,103.9013 382.346,103.57265 382.49255,103.4261 382.63909,103.27955 382.96775,103.57265 383.1143,103.4261 383.26085,103.27955 382.96775,102.95089 383.1143,102.80434 383.26085,102.6578 383.5895,102.95089 383.73605,102.80434 383.8826,102.6578 383.5895,102.32914 383.73605,102.18259 384.02915,101.8895 384.68646,102.47569 384.97955,102.18259 385.1261,102.03604 384.83301,101.70739 384.97955,101.56084 385.1261,101.41429 385.41594,101.65354 385.60131,101.56084 385.86346,101.42976 385.9609,101.07017 386.22306,100.93909 386.40843,100.84639 386.69826,101.08564 386.84481,100.93909 388.13124,99.652661 384.87898,100.98939 387.46656,99.695584 387.65193,99.602894 387.90294,99.788274 388.08831,99.695584 388.61262,99.433431 388.80751,98.714234 389.33182,98.45208 389.51719,98.3594 389.7682,98.54477 389.95357,98.45208 390.21572,98.321003 390.31317,97.961405 390.57532,97.830328 390.76069,97.737648 391.0117,97.923018 391.19708,97.830328 391.72138,97.568174 391.91627,96.848977 392.44058,96.586824 393.10408,96.255074 393.02058,96.918573 393.68408,96.586824 394.20839,96.32467 394.40328,95.605473 394.92759,95.34332 395.11296,95.25063 395.36397,95.436 395.54934,95.34332 396.2736,94.981189 396.69033,94.461946 397.4146,94.099815 397.59997,94.007125 397.85098,94.192505 398.03635,94.099815 400.09844,92.037723 397.45015,94.392912 399.27985,93.478063 399.80416,93.21591 399.99905,92.496713 400.52336,92.234559 400.70873,92.141869 400.99856,92.381108 401.14511,92.234559 401.29166,92.088011 400.99856,91.759355 401.14511,91.612807 401.43821,91.31971 402.09552,91.905904 402.38861,91.612807 402.53516,91.466259 402.24206,91.137603 402.38861,90.991055 402.53516,90.844507 402.82499,91.083745 403.01036,90.991055 403.27252,90.859978 403.36996,90.50038 403.63212,90.369303 404.00286,90.183932 404.50488,90.554674 404.87562,90.369303 405.13777,90.238226 405.23522,89.878628 405.49737,89.747551 405.68274,89.654861 405.97258,89.894099 406.11913,89.747551 406.26567,89.601002 405.97258,89.272347 406.11913,89.125799 406.40654,88.838385 407.60898,89.313497 407.98438,89.125799 408.24654,88.994722 408.34398,88.635123 408.60613,88.504047 409.43514,88.089545 410.88589,88.918548 411.71489,88.504047 411.97705,88.37297 412.07449,88.013371 412.33665,87.882294 413.1251,87.488066 420.81803,87.882294 422.28468,87.882294 423.75132,87.882294 431.44426,87.488066 432.23271,87.882294 432.49487,88.013371 432.59231,88.37297 432.85447,88.504047 433.42444,88.789031 436.40317,88.504047 437.20673,88.504047 438.65471,88.504047 437.93824,88.558927 439.07199,89.125799 439.59587,89.387742 442.53295,88.85625 442.8025,89.125799 442.94905,89.272347 442.65595,89.601002 442.8025,89.747551 443.217,90.162052 444.87501,89.333049 445.28951,89.747551 445.43606,89.894099 445.14296,90.222754 445.28951,90.369303 445.91126,90.991055 448.39827,89.747551 449.02002,90.369303 449.16657,90.515851 448.87347,90.844507 449.02002,90.991055 449.31312,91.284152 449.89278,90.805684 450.26352,90.991055 450.52568,91.122132 450.62312,91.48173 450.88528,91.612807 451.25602,91.798178 451.75804,91.427436 452.12878,91.612807 452.39093,91.743884 452.48838,92.103482 452.75053,92.234559 453.24793,92.48326 454.11839,91.985858 454.61579,92.234559 455.34005,92.59669 455.75678,93.115932 456.48105,93.478063 456.85644,93.665762 458.05889,93.19065 458.3463,93.478063 458.49285,93.624612 458.19975,93.953267 458.3463,94.099815 458.86443,94.617942 460.93694,93.581689 461.45506,94.099815 461.60161,94.246364 461.30851,94.575019 461.45506,94.721568 461.74248,95.008981 462.94492,94.533869 463.32032,94.721568 463.58247,94.852644 463.67992,95.212243 463.94207,95.34332 464.43947,95.59202 465.30992,95.094619 465.80733,95.34332 466.06948,95.474396 466.16692,95.833995 466.42908,95.965072 466.79982,96.150442 467.30184,95.779701 467.67258,95.965072 467.93474,96.096149 468.03218,96.455747 468.29433,96.586824 468.66508,96.772194 469.24474,96.293727 469.53784,96.586824 469.68439,96.733372 469.39129,97.062028 469.53784,97.208576 469.82525,97.49599 471.0277,97.020877 471.4031,97.208576 471.9274,97.47073 472.12229,98.189926 472.6466,98.45208 473.01734,98.637451 473.51936,98.266709 473.8901,98.45208 474.15226,98.583157 474.2497,98.942755 474.51186,99.073832 474.69723,99.166522 474.94824,98.981152 475.13361,99.073832 475.85787,99.435963 476.2746,99.955205 476.99886,100.31734 477.18423,100.41004 477.43525,100.22464 477.62062,100.31734 477.88277,100.44841 477.98021,100.80801 478.24237,100.93909 478.42774,101.03179 478.71757,100.79254 478.86412,100.93909 479.01067,101.08564 478.71757,101.41429 478.86412,101.56084 479.15722,101.85394 479.73688,101.37547 480.10762,101.56084 480.83189,101.92297 481.24862,102.44221 481.97288,102.80434 482.34362,102.98972 482.84564,102.61897 483.21639,102.80434 483.47854,102.93542 483.57598,103.29502 483.83814,103.4261 484.20888,103.61147 484.7109,103.24073 485.08164,103.4261 485.8059,103.78823 486.22264,104.30747 486.9469,104.6696 487.13227,104.7623 487.38328,104.5769 487.56865,104.6696 487.8308,104.80068 487.92825,105.16028 488.1904,105.29135 488.37577,105.38405 488.66561,105.1448 488.81215,105.29135 488.9587,105.4379 488.66561,105.76656 488.81215,105.91311 489.10525,106.2062 489.68492,105.72773 490.05566,105.91311 490.77992,106.27524 491.19665,106.79448 491.92091,107.15661 492.10629,107.24931 492.3573,107.06391 492.54267,107.15661 492.80482,107.28769 492.90226,107.64728 493.16442,107.77836 493.53516,107.96373 494.11483,107.48526 494.40792,107.77836 494.55447,107.92491 494.26137,108.25357 494.40792,108.40011 494.55447,108.54666 494.8443,108.30741 495.02967,108.40011 495.29183,108.53119 495.38927,108.89079 495.65143,109.02187 496.02217,109.20724 496.60183,108.72877 496.89493,109.02187 497.04148,109.16841 496.74838,109.49707 496.89493,109.64362 497.18803,109.93671 497.84534,109.35052 498.13844,109.64362 498.28498,109.79017 497.99189,110.11882 498.13844,110.26537 498.43153,110.55847 499.0112,110.08 499.38194,110.26537 499.64409,110.39645 499.74154,110.75605 500.00369,110.88712 500.18906,110.97982 500.44007,110.79442 500.62544,110.88712 501.14975,111.14928 501.34464,111.86847 501.86895,112.13063 502.05432,112.22333 502.28345,112.13063 502.4907,112.13063 502.69795,112.33788 502.8503,112.6213 503.11245,112.75238 503.29782,112.84508 503.54883,112.65968 503.7342,112.75238 503.99636,112.88346 504.0938,113.24305 504.35596,113.37413 504.54133,113.46683 504.79234,113.28143 504.97771,113.37413 505.70197,113.73626 506.1187,114.2555 506.84296,114.61763 507.02834,114.71033 507.27935,114.52493 507.46472,114.61763 507.72687,114.74871 507.82432,115.10831 508.08647,115.23939 508.27184,115.33209 508.56167,115.09284 508.70822,115.23939 508.85477,115.38593 508.56167,115.71459 508.70822,115.86114 508.85477,116.00769 509.1446,115.76844 509.32997,115.86114 510.05423,116.22327 510.47097,116.74251 511.19523,117.10464 511.3806,117.19734 511.67043,116.95809 511.81698,117.10464 511.96353,117.25119 511.67043,117.57985 511.81698,117.72639 511.96353,117.87294 512.25336,117.63369 512.43873,117.72639 514.50083,119.78849 511.85254,117.4333 513.68224,118.34815 514.20655,118.6103 514.40143,119.3295 514.92574,119.59165 515.11111,119.68435 515.40095,119.4451 515.54749,119.59165 515.69404,119.7382 515.40095,120.06685 515.54749,120.2134 515.84059,120.5065 516.4979,119.92031 516.791,120.2134 516.93755,120.35995 516.64445,120.68861 516.791,120.83516 516.99825,120.83516 517.2055,120.83516 517.41275,120.83516 517.62,120.83516 517.88795,120.68861 518.0345,120.83516 518.18105,120.9817 517.88795,121.31036 518.0345,121.45691 518.18105,121.60346 518.50971,121.31036 518.65625,121.45691 518.8028,121.60346 518.50971,121.93211 518.65625,122.07866 518.94935,122.37176 519.60666,121.78556 519.89976,122.07866 520.04631,122.22521 519.75321,122.55386 519.89976,122.70041 520.04631,122.84696 520.37496,122.55386 520.52151,122.70041 520.66806,122.84696 520.37496,123.17562 520.52151,123.32216 520.66806,123.46871 520.95789,123.22946 521.14326,123.32216 521.40542,123.45324 521.50286,123.81284 521.76501,123.94392 521.95039,124.03662 522.2014,123.85122 522.38677,123.94392 524.44886,126.00601 521.80057,123.65082 523.63027,124.56567 523.89242,124.69674 523.98987,125.05634 524.25202,125.18742 524.43739,125.28012 524.72723,125.04087 524.87378,125.18742 525.02032,125.33397 524.72723,125.66262 524.87378,125.80917 525.02032,125.95572 525.31016,125.71647 525.49553,125.80917 526.01983,126.07133 526.21472,126.79052 526.73903,127.05268 526.9244,127.14538 527.17541,126.95998 527.36078,127.05268 527.88509,127.31483 528.07998,128.03403 528.60429,128.29618 528.78966,128.38888 529.04067,128.20348 529.22604,128.29618 529.48819,128.42726 529.58564,128.78686 529.84779,128.91793 530.03316,129.01063 530.323,128.77138 530.46954,128.91793 530.61609,129.06448 530.323,129.39314 530.46954,129.53968 530.61609,129.68623 530.90593,129.44698 531.0913,129.53968 531.35345,129.67076 531.45089,130.03036 531.71305,130.16144 532.38087,130.49535 532.28873,129.82752 532.95655,130.16144 533.48086,130.42359 533.67575,131.14279 534.20006,131.40494 534.38543,131.49764 534.63644,131.31224 534.82181,131.40494 535.08396,131.53602 535.18141,131.89562 535.44356,132.02669 535.62893,132.11939 535.87994,131.93399 536.06531,132.02669 538.6529,133.32048 535.40064,131.98379 536.68707,133.2702 536.83361,133.41675 537.12345,133.1775 537.30882,133.2702 537.57097,133.40127 537.66842,133.76087 537.93057,133.89195 538.11594,133.98465 538.36695,133.79925 538.55232,133.89195 539.54712,134.38935 540.04453,135.88156 541.03933,136.37896 541.2247,136.47166 541.47571,136.28626 541.66108,136.37896 542.65589,136.87636 543.15329,138.36856 544.14809,138.86597 544.33346,138.95867 544.62329,138.71942 544.76984,138.86597 544.91639,139.01251 544.67714,139.30235 544.76984,139.48772 545.032,140.01203 545.48904,140.46907 546.01335,140.73122 546.19872,140.82392 546.48855,140.58467 546.6351,140.73122 547.92153,142.01765 544.66927,140.68092 547.25685,141.97473 547.44222,142.06743 547.69323,141.88203 547.8786,141.97473 548.40291,142.23688 548.85995,142.69392 549.12211,143.21823 549.21481,143.4036 548.97556,143.69343 549.12211,143.83998 550.40853,145.12641 549.07181,141.87415 550.36561,144.46174 550.45831,144.64711 550.21906,144.93694 550.36561,145.08349 550.51216,145.23004 550.80199,144.99079 550.98736,145.08349 551.58825,145.38393 553.17393,146.96961 553.47437,147.5705 553.90318,148.42811 552.7214,148.12664 554.09612,148.814 554.28149,148.9067 554.53251,148.7213 554.71788,148.814 555.10154,149.00583 557.6348,151.5391 557.82664,151.92276 557.91934,152.10813 557.73394,152.35914 557.82664,152.54451 558.57274,154.03672 560.81105,154.78282 561.55715,156.27502 561.64985,156.4604 561.4106,156.75023 561.55715,156.89678 561.7037,157.04333 561.99353,156.80408 562.1789,156.89678 562.65503,157.13484 565.67135,160.15116 565.90941,160.62729 566.00211,160.81266 565.81671,161.06367 565.90941,161.24904 566.17157,161.77335 566.89076,161.96824 567.15292,162.49255 567.24562,162.67792 567.00637,162.96775 567.15292,163.1143 568.43935,164.40073 567.10262,161.14847 568.39642,163.73605 568.48912,163.92142 568.24987,164.21125 568.39642,164.3578 568.54297,164.50435 568.87163,164.21125 569.01817,164.3578 569.16472,164.50435 568.92547,164.79418 569.01817,164.97955 569.28033,165.50386 569.99952,165.69875 570.26168,166.22306 570.35438,166.40843 570.11513,166.69826 570.26168,166.84481 570.40823,166.99136 570.73688,166.69826 570.88343,166.84481 571.02998,166.99136 570.79073,167.28119 570.88343,167.46656 571.25648,168.21267 572.37564,168.58572 572.74869,169.33182 572.84139,169.51719 572.60214,169.80702 572.74869,169.95357 572.89524,170.10012 573.22389,169.80702 573.37044,169.95357 573.51699,170.10012 573.27774,170.38995 573.37044,170.57532 573.63259,171.09963 574.35179,171.29452 574.61394,171.81883 574.70664,172.0042 574.52124,172.25521 574.61394,172.44058 574.98699,173.18668 576.10615,173.55973 576.4792,174.30584 576.5719,174.49121 576.33265,174.78104 576.4792,174.92759 576.62575,175.07414 576.9544,174.78104 577.10095,174.92759 577.2475,175.07414 577.00825,175.36397 577.10095,175.54934 577.7227,176.79284 579.58796,177.4146 580.20971,178.6581 580.30241,178.84347 580.11701,179.09448 580.20971,179.27985 581.5035,181.86744 580.16681,178.61518 581.45322,179.9016 582.73964,181.18803 579.48738,179.8513 582.07497,181.14511 582.26034,181.23781 582.55017,180.99856 582.69672,181.14511 582.84327,181.29166 582.60402,181.58149 582.69672,181.76686 582.95887,182.29117 583.67807,182.48606 583.94022,183.01036 584.03292,183.19574 583.84752,183.44675 583.94022,183.63212 584.20238,184.15642 584.92157,184.35131 585.18373,184.87562 585.27643,185.06099 585.09103,185.312 585.18373,185.49737 585.31481,185.75953 585.6744,185.85697 585.80548,186.11913 585.89818,186.3045 585.71278,186.55551 585.80548,186.74088 587.09927,189.32846 585.76258,186.0762 587.04898,187.36263 587.34208,187.65573 586.86361,188.23539 587.04898,188.60613 587.18006,188.86829 587.53966,188.96573 587.67074,189.22789 587.76344,189.41326 587.52419,189.70309 587.67074,189.84964 587.81729,189.99619 588.14594,189.70309 588.29249,189.84964 588.58559,190.14273 588.10712,190.7224 588.29249,191.09314 588.65462,191.8174 589.17386,192.23414 589.53599,192.9584 589.72136,193.32914 589.35062,193.83116 589.53599,194.2019 589.66707,194.46406 590.02667,194.5615 590.15775,194.82365 590.48935,195.48686 589.82614,196.64746 590.15775,197.31066 590.28882,197.57282 590.64842,197.67026 590.7795,197.93242 591.11125,198.59591 590.44775,198.51242 590.7795,199.17592 590.91057,199.43807 591.27017,199.53552 591.40125,199.79767 591.7274,200.44998 590.90499,202.41017 591.40125,202.90643 591.5478,203.05298 591.93032,202.72106 592.023,202.90643 592.5204,203.90124 591.5256,205.64214 592.023,206.63694 592.15408,206.8991 592.51368,206.99654 592.64475,207.2587 593.05926,208.0877 592.23025,209.53845 592.64475,210.36746 592.77583,210.62961 593.13543,210.72706 593.26651,210.98921 593.59811,211.65241 592.9349,212.81302 593.26651,213.47622 593.39758,213.73837 593.75718,213.83582 593.88826,214.09797 594.30276,214.92697 593.47376,216.37773 593.88826,217.20673 594.01933,217.46888 594.37893,217.56633 594.51001,217.82848 594.9601,218.72865 594.03642,223.57241 594.51001,224.046 594.65656,224.19255 594.98521,223.89945 595.13176,224.046 595.40131,224.31555 594.86982,227.25263 595.13176,227.77652 595.26284,228.03867 595.62244,228.13611 595.75351,228.39827 595.94322,228.77769 595.93013,235.95119 595.75351,236.48105 595.60697,236.92069 595.27831,237.2849 595.13176,237.72455 594.76636,238.82076 595.58096,244.73637 595.13176,245.18557 594.98521,245.33212 594.65656,245.03903 594.51001,245.18557 594.11563,245.57996 594.76884,247.15492 594.51001,247.67258 594.37893,247.93474 594.01933,248.03218 593.88826,248.29433 593.70056,248.66973 594.17567,249.87218 593.88826,250.15959 593.74171,250.30614 593.41305,250.01304 593.26651,250.15959 592.97909,250.447 593.4542,251.64945 593.26651,252.02485 593.13543,252.287 592.77583,252.38445 592.64475,252.6466 592.45938,253.01734 592.83012,253.51936 592.64475,253.8901 592.51368,254.15226 592.15408,254.2497 592.023,254.51186 591.83763,254.8826 592.3161,255.46226 592.023,255.75536 591.87645,255.90191 591.5478,255.60881 591.40125,255.75536 591.11384,256.04277 591.58895,257.24522 591.40125,257.62062 591.27017,257.88277 590.91057,257.98021 590.7795,258.24237 590.59413,258.61311 591.07259,259.19278 590.7795,259.48587 590.63295,259.63242 590.30429,259.33932 590.15775,259.48587 589.87033,259.77329 590.34544,260.97573 590.15775,261.35113 590.02667,261.61328 589.66707,261.71073 589.53599,261.97288 589.44329,262.15825 589.62869,262.40926 589.53599,262.59463 589.17386,263.31889 588.65462,263.73563 588.29249,264.45989 588.10712,264.83063 588.47786,265.33265 588.29249,265.70339 588.16141,265.96555 587.80181,266.06299 587.67074,266.32515 587.57804,266.51052 587.76344,266.76153 587.67074,266.9469 586.99705,268.29427 587.10092,266.84303 586.42723,268.1904 586.33453,268.37577 586.51993,268.62678 586.42723,268.81215 586.0651,269.53642 585.54586,269.95315 585.18373,270.67741 585.09103,270.86278 585.18373,271.09191 585.18373,271.29916 584.97648,271.50641 584.69305,271.65876 584.56198,271.92091 584.37661,272.29166 584.85507,272.87132 584.56198,273.16442 584.41543,273.31097 584.08677,273.01787 583.94022,273.16442 583.64713,273.45752 584.12559,274.03718 583.94022,274.40792 583.80915,274.67008 583.44955,274.76752 583.31847,275.02967 583.22577,275.21505 583.46502,275.50488 583.31847,275.65143 583.17192,275.79798 582.84327,275.50488 582.69672,275.65143 582.40362,275.94452 582.88209,276.52419 582.69672,276.89493 580.63463,278.95702 582.98982,276.30874 582.07497,278.13844 581.81281,278.66274 581.09362,278.85763 580.83146,279.38194 580.73876,279.56731 580.92416,279.81832 580.83146,280.00369 578.76937,282.06578 581.12456,279.4175 580.20971,281.2472 580.07863,281.50935 579.71904,281.60679 579.58796,281.86895 579.49526,282.05432 579.68066,282.30533 579.58796,282.4907 579.45688,282.75285 579.09728,282.8503 578.96621,283.11245 578.78084,283.48319 579.15158,283.98521 578.96621,284.35596 578.81954,284.6493 577.81243,285.95203 577.7227,286.22121 577.7227,289.05161 578.0158,286.25681 577.10095,288.08647 576.91558,288.45721 577.39405,289.03688 577.10095,289.32997 576.9544,289.47652 576.62575,289.18342 576.4792,289.32997 576.33265,289.47652 576.5719,289.76635 576.4792,289.95173 576.11707,290.67599 575.59783,291.09272 575.2357,291.81698 575.048,292.19238 575.52311,293.39482 575.2357,293.68224 575.08915,293.82879 574.76049,293.53569 574.61394,293.68224 574.19836,294.09782 575.02953,294.51016 574.61394,294.92574 574.46739,295.07229 574.13874,294.77919 573.99219,294.92574 573.69909,295.21884 574.28529,295.87615 573.99219,296.16925 573.84564,296.31579 573.51699,296.0227 573.37044,296.16925 573.07734,296.46234 573.66354,297.11965 573.37044,297.41275 573.22389,297.5593 572.89524,297.2662 572.74869,297.41275 572.45559,297.70585 572.93406,298.28551 572.74869,298.65625 572.61761,298.91841 572.25801,299.01585 572.12693,299.27801 572.03423,299.46338 572.27348,299.75321 572.12693,299.89976 571.98039,300.04631 571.65173,299.75321 571.50518,299.89976 571.21209,300.19286 571.69055,300.77252 571.50518,301.14326 571.37411,301.40542 571.01451,301.50286 570.88343,301.76501 570.79073,301.95039 570.97613,302.2014 570.88343,302.38677 570.62128,302.91107 569.90208,303.10596 569.63993,303.63027 569.45456,304.00101 569.93302,304.58068 569.63993,304.87378 569.49338,305.02032 569.16472,304.72723 569.01817,304.87378 568.72508,305.16687 569.31127,305.82418 569.01817,306.11728 568.87163,306.26383 568.54297,305.97073 568.39642,306.11728 568.10333,306.41038 568.68952,307.06769 568.39642,307.36078 568.24987,307.50733 567.92122,307.21424 567.77467,307.36078 567.48157,307.65388 567.96004,308.23355 567.77467,308.60429 567.41254,309.32855 566.8933,309.74528 566.53117,310.46954 566.43847,310.65491 566.67771,310.94475 566.53117,311.0913 566.38462,311.23784 566.05596,310.94475 565.90941,311.0913 565.76287,311.23784 566.05596,311.5665 565.90941,311.71305 565.76287,311.8596 565.43421,311.5665 565.28766,311.71305 565.14111,311.8596 565.38036,312.14943 565.28766,312.3348 563.99387,314.92238 565.33056,311.67013 564.04416,312.95655 563.89761,313.1031 564.13686,313.39293 564.04416,313.5783 563.91308,313.84046 563.55348,313.9379 563.42241,314.20006 563.01868,315.0075 563.84636,319.37187 563.42241,319.79583 563.27586,319.94237 562.9472,319.64928 562.80065,319.79583 562.50756,320.08892 562.98602,320.66859 562.80065,321.03933 562.5385,321.56364 561.8193,321.75853 561.55715,322.28283 561.46445,322.4682 561.7037,322.75804 561.55715,322.90459 561.4106,323.05113 561.08195,322.75804 560.9354,322.90459 560.78885,323.05113 561.0281,323.34097 560.9354,323.52634 558.8733,325.58843 561.22849,322.94014 560.31364,324.76984 559.94059,325.51594 558.82144,325.889 558.44839,326.6351 558.35569,326.82047 558.44839,327.0496 558.44839,327.25685 558.24114,327.4641 557.95771,327.61645 557.82664,327.8786 557.73394,328.06397 557.91934,328.31498 557.82664,328.50035 557.69556,328.76251 557.33596,328.85995 557.20488,329.12211 557.11218,329.30748 557.35143,329.59731 557.20488,329.74386 557.05834,329.89041 556.72968,329.59731 556.58313,329.74386 556.43658,329.89041 556.67583,330.18024 556.58313,330.36561 556.32098,330.88992 555.60178,331.08481 555.33963,331.60912 555.24693,331.79449 555.43233,332.0455 555.33963,332.23087 555.20855,332.49302 554.84895,332.59047 554.71788,332.85262 554.62518,333.03799 554.81058,333.289 554.71788,333.47437 554.45572,333.99868 553.73653,334.19357 553.47437,334.71788 553.38167,334.90325 553.62092,335.19308 553.47437,335.33963 553.32782,335.48618 552.99917,335.19308 552.85262,335.33963 552.70607,335.48618 552.94532,335.77601 552.85262,335.96138 552.59047,336.48569 551.87127,336.68058 551.60912,337.20488 551.51642,337.39025 551.75566,337.68009 551.60912,337.82664 551.46257,337.97318 551.19461,337.82664 550.98736,337.82664 550.98736,338.03389 551.13391,338.30184 550.98736,338.44839 550.84081,338.59494 550.51216,338.30184 550.36561,338.44839 550.07251,338.74149 550.65871,339.3988 550.36561,339.69189 550.21906,339.83844 549.89041,339.54534 549.74386,339.69189 549.59731,339.83844 549.89041,340.1671 549.74386,340.31364 549.59731,340.46019 549.26866,340.1671 549.12211,340.31364 548.97556,340.46019 549.26866,340.78885 549.12211,340.9354 548.97556,341.08195 548.6469,340.78885 548.50035,340.9354 548.35381,341.08195 548.6469,341.4106 548.50035,341.55715 548.35381,341.7037 548.02515,341.4106 547.8786,341.55715 547.73205,341.7037 548.02515,342.03235 547.8786,342.1789 547.73205,342.32545 547.4034,342.03235 547.25685,342.1789 547.1103,342.32545 547.34955,342.61528 547.25685,342.80065 547.12577,343.06281 546.76618,343.16025 546.6351,343.42241 546.5424,343.60778 546.78165,343.89761 546.6351,344.04416 546.48855,344.19071 546.15989,343.89761 546.01335,344.04416 545.8668,344.19071 546.15989,344.51936 546.01335,344.66591 545.8668,344.81246 545.53814,344.51936 545.39159,344.66591 545.24505,344.81246 545.53814,345.14111 545.39159,345.28766 545.24505,345.43421 544.91639,345.14111 544.76984,345.28766 544.62329,345.43421 544.91639,345.76287 544.76984,345.90941 544.62329,346.05596 544.33346,345.81671 544.14809,345.90941 543.40199,346.28246 543.02894,347.40162 542.28283,347.77467 542.09746,347.86737 541.80763,347.62812 541.66108,347.77467 541.51453,347.92122 541.80763,348.24987 541.66108,348.39642 541.51453,348.54297 541.18588,348.24987 541.03933,348.39642 540.89278,348.54297 541.18588,348.87163 541.03933,349.01817 540.89278,349.16472 540.56413,348.87163 540.41758,349.01817 540.27103,349.16472 540.56413,349.49338 540.41758,349.63993 540.27103,349.78647 539.9812,349.54723 539.79583,349.63993 539.53367,349.771 539.43623,350.1306 539.17407,350.26168 538.9887,350.35438 538.69887,350.11513 538.55232,350.26168 538.40577,350.40823 538.69887,350.73688 538.55232,350.88343 538.40577,351.02998 538.07712,350.73688 537.93057,350.88343 537.78402,351.02998 538.07712,351.35863 537.93057,351.50518 537.78402,351.65173 537.49419,351.41248 537.30882,351.50518 535.24673,353.56727 537.89501,351.21209 536.06531,352.12693 535.54101,352.38909 535.34612,353.10829 534.82181,353.37044 534.63644,353.46314 534.34661,353.22389 534.20006,353.37044 534.05351,353.51699 534.34661,353.84564 534.20006,353.99219 534.05351,354.13874 533.76368,353.89949 533.5783,353.99219 533.31615,354.12327 533.21871,354.48287 532.95655,354.61394 532.77118,354.70664 532.48135,354.46739 532.3348,354.61394 532.18825,354.76049 532.48135,355.08915 532.3348,355.2357 532.18825,355.38224 531.89842,355.143 531.71305,355.2357 531.45089,355.36677 531.35345,355.72637 531.0913,355.85745 530.90593,355.95015 530.61609,355.7109 530.46954,355.85745 530.323,356.004 530.61609,356.33265 530.46954,356.4792 530.323,356.62575 530.03316,356.3865 529.84779,356.4792 529.10169,356.85225 528.72864,357.9714 527.98254,358.34446 527.79717,358.43716 527.50733,358.19791 527.36078,358.34446 527.21424,358.491 527.50733,358.81966 527.36078,358.96621 527.21424,359.11276 526.9244,358.87351 526.73903,358.96621 526.01477,359.32834 525.59804,359.84758 524.87378,360.20971 524.6884,360.30241 524.39857,360.06316 524.25202,360.20971 524.10547,360.35626 524.39857,360.68492 524.25202,360.83146 523.95893,361.12456 523.30162,360.53837 523.00852,360.83146 522.86197,360.97801 523.15507,361.30667 523.00852,361.45322 522.69764,361.76409 521.45414,361.14234 521.14326,361.45322 520.99671,361.59976 521.28981,361.92842 521.14326,362.07497 520.85017,362.36806 520.2705,361.8896 519.89976,362.07497 519.6376,362.20604 519.54016,362.56564 519.27801,362.69672 518.90727,362.88209 518.40524,362.51135 518.0345,362.69672 517.31024,363.05885 516.89351,363.57809 516.16925,363.94022 515.7985,364.12559 515.21884,363.64713 514.92574,363.94022 514.77919,364.08677 515.07229,364.41543 514.92574,364.56198 514.63265,364.85507 513.97533,364.26888 513.68224,364.56198 512.85323,365.39098 514.71849,365.18373 513.06049,365.18373 511.60237,365.18373 513.35358,365.03718 511.81698,365.80548 511.31958,366.05418 510.44913,365.55678 509.95173,365.80548 509.68957,365.93656 509.59213,366.29616 509.32997,366.42723 508.95458,366.61493 507.75213,366.13982 507.46472,366.42723 507.31817,366.57378 507.61127,366.90244 507.46472,367.04898 507.15384,367.35986 505.91034,366.73811 505.59946,367.04898 505.45291,367.19553 505.74601,367.52419 505.59946,367.67074 505.31205,367.95815 504.1096,367.48304 503.7342,367.67074 503.47205,367.80181 503.37461,368.16141 503.11245,368.29249 502.74171,368.47786 502.23969,368.10712 501.86895,368.29249 501.60679,368.42357 501.50935,368.78316 501.2472,368.91424 500.87645,369.09961 500.37443,368.72887 500.00369,368.91424 499.74154,369.04532 499.64409,369.40492 499.38194,369.53599 498.71874,369.86759 497.55813,369.20439 496.89493,369.53599 496.63278,369.66707 496.53533,370.02667 496.27318,370.15775 495.77578,370.40645 494.90532,369.90904 494.40792,370.15775 494.14577,370.28882 494.04832,370.64842 493.78617,370.7795 493.41543,370.96487 492.83576,370.4864 492.54267,370.7795 492.39612,370.92605 492.68921,371.2547 492.54267,371.40125 492.25525,371.68866 491.05281,371.21355 490.67741,371.40125 490.41526,371.53233 490.31781,371.89192 490.05566,372.023 489.68492,372.20837 489.1829,371.83763 488.81215,372.023 488.55,372.15408 488.45256,372.51368 488.1904,372.64475 487.81966,372.83012 487.31764,372.45938 486.9469,372.64475 486.22264,373.00688 485.8059,373.52613 485.08164,373.88826 484.7109,374.07363 484.20888,373.70289 483.83814,373.88826 483.57598,374.01933 483.47854,374.37893 483.21639,374.51001 482.84564,374.69538 482.26598,374.21691 481.97288,374.51001 481.82633,374.65656 482.11943,374.98521 481.97288,375.13176 481.67978,375.42486 481.10012,374.94639 480.72938,375.13176 480.46722,375.26284 480.36978,375.62244 480.10762,375.75351 479.73688,375.93888 479.15722,375.46042 478.86412,375.75351 478.71757,375.90006 479.01067,376.22872 478.86412,376.37527 478.57102,376.66836 477.99136,376.1899 477.62062,376.37527 477.35846,376.50634 477.26102,376.86594 476.99886,376.99702 476.50146,377.24572 475.63101,376.74832 475.13361,376.99702 474.40935,377.35915 473.99261,377.87839 473.26835,378.24052 472.89761,378.42589 472.31794,377.94743 472.02485,378.24052 471.8783,378.38707 472.1714,378.71573 472.02485,378.86227 471.71397,379.17315 470.47047,378.5514 470.15959,378.86227 470.01304,379.00882 470.30614,379.33748 470.15959,379.48403 469.86649,379.77712 469.28683,379.29866 468.91609,379.48403 468.65393,379.6151 468.55649,379.9747 468.29433,380.10578 467.92359,380.29115 467.42157,379.92041 467.05083,380.10578 466.78868,380.23686 466.69123,380.59645 466.42908,380.72753 466.05834,380.9129 465.55632,380.54216 465.18557,380.72753 464.46131,381.08966 464.04458,381.6089 463.32032,381.97104 462.94958,382.15641 462.44756,381.78566 462.07681,381.97104 461.81466,382.10211 461.71722,382.46171 461.45506,382.59279 461.08432,382.77816 460.5823,382.40742 460.21156,382.59279 459.9494,382.72386 459.85196,383.08346 459.58981,383.21454 459.21906,383.39991 458.71704,383.02917 458.3463,383.21454 458.08415,383.34562 457.9867,383.70521 457.72455,383.83629 457.35381,384.02166 456.85179,383.65092 456.48105,383.83629 456.21889,383.96737 456.12145,384.32697 455.85929,384.45804 455.19609,384.78964 454.03549,384.12644 453.37228,384.45804 453.11013,384.58912 453.01269,384.94872 452.75053,385.0798 452.37979,385.26517 451.87777,384.89442 451.50703,385.0798 451.24487,385.21087 451.14743,385.57047 450.88528,385.70155 450.38787,385.95025 449.51742,385.45285 449.02002,385.70155 448.75787,385.83262 448.66042,386.19222 448.39827,386.3233 448.02753,386.50867 447.5255,386.13793 447.15476,386.3233 446.89261,386.45438 446.79517,386.81397 446.53301,386.94505 446.15761,387.13275 444.95517,386.65764 444.66776,386.94505 444.52121,387.0916 444.8143,387.42026 444.66776,387.5668 444.35688,387.87768 443.11337,387.25593 442.8025,387.5668 442.65595,387.71335 442.94905,388.04201 442.8025,388.18856 442.65595,388.3351 442.36612,388.09586 442.18075,388.18856 441.91859,388.31963 441.82115,388.67923 441.55899,388.81031 441.1836,388.99801 439.98115,388.52289 439.69374,388.81031 439.54719,388.95686 439.84029,389.28551 439.69374,389.43206 439.40064,389.72516 438.74333,389.13896 438.45023,389.43206 438.30369,389.57861 438.59678,389.90726 438.45023,390.05381 438.13936,390.36469 436.89585,389.74294 436.58498,390.05381 436.43843,390.20036 436.73153,390.52902 436.58498,390.67556 436.29756,390.96298 435.09512,390.48787 434.71972,390.67556 434.45757,390.80664 434.36012,391.16624 434.09797,391.29732 433.58031,391.55615 432.00535,390.90293 431.61096,391.29732 431.46441,391.44386 431.75751,391.77252 431.61096,391.91907 431.30009,392.22994 430.05658,391.60819 429.7457,391.91907 429.59916,392.06562 429.89225,392.39427 429.7457,392.54082 429.3312,392.95532 427.6732,392.12632 427.2587,392.54082 427.11215,392.68737 427.40524,393.01602 427.2587,393.16257 426.94782,393.47345 425.70432,392.8517 425.39344,393.16257 425.24689,393.30912 425.53999,393.63778 425.39344,393.78432 424.97894,394.19883 423.32093,393.36982 422.90643,393.78432 422.75988,393.93087 423.05298,394.25953 422.90643,394.40608 422.28468,395.02783 419.79767,393.78432 419.17592,394.40608 419.02937,394.55263 419.32247,394.88128 419.17592,395.02783 418.90637,395.29738 415.96929,394.76589 415.44541,395.02783 415.18325,395.15891 415.08581,395.5185 414.82365,395.64958 414.20512,395.95885 410.62899,395.80718 410.47139,395.64958 410.32484,395.50303 410.61794,395.17438 410.47139,395.02783 410.14969,394.70613 406.73815,395.33734 406.11913,395.02783 405.85697,394.89675 405.75953,394.53715 405.49737,394.40608 404.99997,394.15738 404.12952,394.65478 403.63212,394.40608 403.36996,394.275 403.27252,393.9154 403.01036,393.78432 402.63962,393.59895 402.1376,393.9697 401.76686,393.78432 401.50471,393.65325 401.40726,393.29365 401.14511,393.16257 400.77437,392.9772 400.1947,393.45567 399.9016,393.16257 399.75506,393.01602 399.9016,392.74807 399.9016,392.54082 399.69435,392.54082 399.4264,392.68737 399.27985,392.54082 398.98676,392.24772 399.57295,391.59041 399.27985,391.29732 399.1333,391.15077 398.86535,391.29732 398.6581,391.29732 398.6581,391.09007 398.80465,390.82211 398.6581,390.67556 398.24341,390.26088 397.82928,391.09025 397.4146,390.67556 397.26805,390.52902 397.56114,390.20036 397.4146,390.05381 397.26805,389.90726 396.93939,390.20036 396.79284,390.05381 396.6463,389.90726 396.93939,389.57861 396.79284,389.43206 396.6463,389.28551 396.31764,389.57861 396.17109,389.43206 396.02454,389.28551 396.31764,388.95686 396.17109,388.81031 394.88466,387.52388 396.22139,390.77614 394.92759,388.18856 394.74222,387.81781 395.22068,387.23815 394.92759,386.94505 394.78104,386.7985 394.45238,387.0916 394.30584,386.94505 394.15929,386.7985 394.45238,386.46985 394.30584,386.3233 394.15929,386.17675 393.83063,386.46985 393.68408,386.3233 392.7919,385.43112 394.22789,385.7795 394.30584,385.70155 394.45238,385.555 394.15929,385.22634 394.30584,385.0798 394.59893,384.7867 395.54934,385.4943 395.54934,385.0798 395.54934,384.15294 394.72034,383.42179 394.30584,382.59279 z"
       inkscape:connector-curvature="0"
       id="path5133"
       style="fill:none;stroke:#0000e9;stroke-width:1;stroke-miterlimit:4;stroke-opacity:1;stroke-dasharray:none;stroke-dashoffset:0" />
    <path
       d="M 439.69374,309.84779 C 439.07199,310.67679 436.99948,311.71305 437.82848,312.3348 438.65748,312.95655 440.42648,309.11505 439.69374,309.84779 438.75537,310.78616 438.05629,311.93708 437.20673,312.95655 436.83146,313.40688 436.22538,313.67575 435.96323,314.20006 435.69386,314.73879 435.96323,320.03459 435.96323,321.03933 435.96323,321.52617 435.65299,323.83785 435.96323,324.14809 436.10977,324.29464 436.43843,324.00154 436.58498,324.14809 436.87807,324.44119 436.39961,325.02085 436.58498,325.39159 436.71605,325.65375 437.07565,325.75119 437.20673,326.01335 437.29943,326.19872 437.06018,326.48855 437.20673,326.6351 437.35328,326.78165 437.68193,326.48855 437.82848,326.6351 437.97503,326.78165 437.68193,327.1103 437.82848,327.25685 437.97503,327.4034 438.30369,327.1103 438.45023,327.25685 438.59678,327.4034 438.35753,327.69323 438.45023,327.8786 439.74403,330.46619 438.40733,327.21393 439.69374,328.50035 439.84029,328.6469 439.54719,328.97556 439.69374,329.12211 439.84029,329.26866 440.13012,329.02941 440.31549,329.12211 442.37758,331.1842 439.7293,328.82901 441.55899,329.74386 442.28326,330.10599 442.69999,330.62523 443.42425,330.98736 443.79499,331.17273 444.37466,331.28046 444.66776,330.98736 444.8143,330.84081 444.52121,330.51216 444.66776,330.36561 444.96085,330.07251 445.61816,330.65871 445.91126,330.36561 446.05781,330.21906 445.76471,329.89041 445.91126,329.74386 446.05781,329.59731 446.34764,329.83656 446.53301,329.74386 446.79517,329.61278 446.89261,329.25318 447.15476,329.12211 447.34013,329.02941 447.62997,329.26866 447.77652,329.12211 447.92306,328.97556 447.62997,328.6469 447.77652,328.50035 447.92306,328.35381 448.25172,328.6469 448.39827,328.50035 448.54482,328.35381 448.25172,328.02515 448.39827,327.8786 448.54482,327.73205 448.83465,327.9713 449.02002,327.8786 449.28217,327.74753 449.37962,327.38793 449.64177,327.25685 451.29978,327.25685 449.43452,327.4641 450.26352,326.6351 450.41007,326.48855 450.73873,326.78165 450.88528,326.6351 451.03182,326.48855 450.73873,326.15989 450.88528,326.01335 451.03182,325.8668 451.36048,326.15989 451.50703,326.01335 451.65358,325.8668 451.41433,325.57697 451.50703,325.39159 451.76918,324.86729 452.22623,324.41024 452.75053,324.14809 452.9359,324.05539 453.22574,324.29464 453.37228,324.14809 453.51883,324.00154 453.22574,323.67289 453.37228,323.52634 453.51883,323.37979 453.84749,323.67289 453.99404,323.52634 454.14058,323.37979 453.90134,323.08996 453.99404,322.90459 454.12511,322.64243 454.48471,322.54499 454.61579,322.28283 454.70849,322.09746 454.46924,321.80763 454.61579,321.66108 454.76234,321.51453 455.09099,321.80763 455.23754,321.66108 455.53064,321.36799 455.05217,320.78832 455.23754,320.41758 455.36862,320.15542 455.72822,320.05798 455.85929,319.79583 456.04466,319.42508 455.5662,318.84542 455.85929,318.55232 456.00584,318.40577 456.3345,318.69887 456.48105,318.55232 456.77414,318.25922 456.18795,317.60191 456.48105,317.30882 456.62759,317.16227 456.95625,317.45537 457.1028,317.30882 457.24935,317.16227 457.1028,316.89432 457.1028,316.68707 457.1028,315.76489 457.43023,312.3679 457.1028,311.71305 456.97172,311.45089 456.61212,311.35345 456.48105,311.0913 456.29335,310.7159 456.76846,309.51345 456.48105,309.22604 456.3345,309.07949 456.00584,309.37259 455.85929,309.22604 455.57188,308.93863 456.04699,307.73618 455.85929,307.36078 455.29242,306.22704 455.23754,306.9435 455.23754,305.49553 455.23754,305.08103 455.53064,304.54512 455.23754,304.25202 455.09099,304.10547 454.76234,304.39857 454.61579,304.25202 454.30491,303.94115 454.92666,302.69764 454.61579,302.38677 454.46924,302.24022 454.14058,302.53332 453.99404,302.38677 453.70094,302.09367 454.17941,301.514 453.99404,301.14326 453.86296,300.88111 453.50336,300.78366 453.37228,300.52151 453.27958,300.33614 453.51883,300.04631 453.37228,299.89976 453.22574,299.75321 452.89708,300.04631 452.75053,299.89976 452.45744,299.60666 453.04363,298.94935 452.75053,298.65625 452.60398,298.50971 452.27533,298.8028 452.12878,298.65625 451.83568,298.36316 452.42188,297.70585 452.12878,297.41275 451.98223,297.2662 451.65358,297.5593 451.50703,297.41275 451.36048,297.2662 451.65358,296.93755 451.50703,296.791 451.36048,296.64445 451.03182,296.93755 450.88528,296.791 450.73873,296.64445 451.03182,296.31579 450.88528,296.16925 450.73873,296.0227 450.41007,296.31579 450.26352,296.16925 450.26352,294.51124 450.47077,296.3765 449.64177,295.54749 449.49522,295.40095 449.78832,295.07229 449.64177,294.92574 449.49522,294.77919 449.16657,295.07229 449.02002,294.92574 448.87347,294.77919 449.16657,294.45054 449.02002,294.30399 448.85544,294.13941 447.41078,294.30399 447.15476,294.30399 446.89875,294.30399 445.45409,294.13941 445.28951,294.30399 445.14296,294.45054 445.43606,294.77919 445.28951,294.92574 445.14296,295.07229 444.85313,294.83304 444.66776,294.92574 444.4056,295.05682 444.30816,295.41642 444.046,295.54749 443.86063,295.64019 443.5708,295.40095 443.42425,295.54749 443.2777,295.69404 443.5708,296.0227 443.42425,296.16925 443.2777,296.31579 442.94905,296.0227 442.8025,296.16925 442.65595,296.31579 442.94905,296.64445 442.8025,296.791 442.65595,296.93755 442.3273,296.64445 442.18075,296.791 442.0342,296.93755 442.3273,297.2662 442.18075,297.41275 442.0342,297.5593 441.70554,297.2662 441.55899,297.41275 441.2659,297.70585 441.74437,298.28551 441.55899,298.65625 441.42792,298.91841 441.06832,299.01585 440.93724,299.27801 440.75187,299.64875 441.23034,300.22841 440.93724,300.52151 440.79069,300.66806 440.46204,300.37496 440.31549,300.52151 440.02239,300.81461 440.31549,301.35051 440.31549,301.76501 440.31549,304.59822 440.25809,307.02619 439.69374,309.84779 z"
       inkscape:connector-curvature="0"
       id="path5135"
       style="fill:none;stroke:#0000e9;stroke-width:1;stroke-miterlimit:4;stroke-opacity:1;stroke-dasharray:none;stroke-dashoffset:0" />
    <path
       d="M 416.461,255.9333 C 409.09761,252.94876 413.01279,228.03567 413.58015,223.42425 413.88966,222.80522 413.25845,219.39369 413.58015,219.07199 413.7267,218.92544 414.05535,219.21853 414.2019,219.07199 414.82365,218.45023 413.58015,215.96323 414.2019,215.34147 414.34845,215.19493 414.67711,215.48802 414.82365,215.34147 415.11675,215.04838 414.53056,214.39107 414.82365,214.09797 414.9702,213.95142 415.29886,214.24452 415.44541,214.09797 415.7385,213.80487 415.26004,213.22521 415.44541,212.85447 415.57648,212.59231 415.93608,212.49487 416.06716,212.23271 416.15986,212.04734 415.92061,211.75751 416.06716,211.61096 416.21371,211.46441 416.54236,211.75751 416.68891,211.61096 416.98201,211.31786 416.39581,210.66055 416.68891,210.36746 416.83546,210.22091 417.16411,210.51401 417.31066,210.36746 417.45721,210.22091 417.31066,209.95296 417.31066,209.7457 417.51791,209.7457 417.78587,209.89225 417.93242,209.7457 418.07896,209.59916 417.78587,209.2705 417.93242,209.12395 418.07896,208.9774 418.40762,209.2705 418.55417,209.12395 418.84726,208.83086 418.26107,208.17355 418.55417,207.88045 418.70072,207.7339 419.02937,208.027 419.17592,207.88045 419.46902,207.58735 418.88282,206.93004 419.17592,206.63694 419.32247,206.4904 419.65112,206.78349 419.79767,206.63694 419.94422,206.4904 419.65112,206.16174 419.79767,206.01519 419.94422,205.86864 420.23405,206.10789 420.41942,206.01519 420.68158,205.88412 420.77902,205.52452 421.04118,205.39344 421.22655,205.30074 421.51638,205.53999 421.66293,205.39344 421.80948,205.24689 421.51638,204.91824 421.66293,204.77169 421.95602,204.47859 422.61334,205.06478 422.90643,204.77169 423.05298,204.62514 422.75988,204.29648 422.90643,204.14994 423.05298,204.00339 423.34281,204.24264 423.52818,204.14994 424.27429,203.77688 424.64734,202.65773 425.39344,202.28468 425.57881,202.19198 425.86864,202.43123 426.01519,202.28468 426.16174,202.13813 425.86864,201.80948 426.01519,201.66293 426.16174,201.51638 426.4904,201.80948 426.63694,201.66293 426.78349,201.51638 426.4904,201.18772 426.63694,201.04118 426.93004,200.74808 427.58735,201.33427 427.88045,201.04118 428.027,200.89463 427.7339,200.56597 427.88045,200.41942 428.027,200.27288 428.35565,200.56597 428.5022,200.41942 428.64875,200.27288 428.35565,199.94422 428.5022,199.79767 428.64875,199.65112 428.9774,199.94422 429.12395,199.79767 429.2705,199.65112 428.9774,199.32247 429.12395,199.17592 429.2705,199.02937 429.59916,199.32247 429.7457,199.17592 429.89225,199.02937 429.59916,198.70072 429.7457,198.55417 429.89225,198.40762 430.22091,198.70072 430.36746,198.55417 430.51401,198.40762 430.22091,198.07896 430.36746,197.93242 430.51401,197.78587 430.84266,198.07896 430.98921,197.93242 431.13576,197.78587 430.84266,197.45721 430.98921,197.31066 431.13576,197.16411 431.46441,197.45721 431.61096,197.31066 431.75751,197.16411 431.46441,196.83546 431.61096,196.68891 431.75751,196.54236 432.08616,196.83546 432.23271,196.68891 432.37926,196.54236 432.08616,196.21371 432.23271,196.06716 432.37926,195.92061 432.70792,196.21371 432.85447,196.06716 433.00101,195.92061 432.70792,195.59196 432.85447,195.44541 433.00101,195.29886 433.29085,195.53811 433.47622,195.44541 434.20048,195.08328 434.61721,194.56403 435.34147,194.2019 435.86536,193.93996 438.80244,194.47145 439.07199,194.2019 439.21853,194.05535 438.92544,193.7267 439.07199,193.58015 439.46637,193.18577 441.04133,193.83898 441.55899,193.58015 441.82115,193.44907 441.91859,193.08948 442.18075,192.9584 442.55149,192.77303 443.05351,193.14377 443.42425,192.9584 443.6864,192.82732 443.78385,192.46772 444.046,192.33665 444.87501,191.92214 446.32576,192.75115 447.15476,192.33665 447.41692,192.20557 447.51436,191.84597 447.77652,191.71489 448.44688,191.37971 455.16141,191.71489 456.48105,191.71489 457.93144,191.71489 460.86431,191.31073 462.07681,191.71489 462.35487,191.80759 462.43641,192.20557 462.69857,192.33665 463.48661,192.73067 465.52867,192.33665 466.42908,192.33665 466.91592,192.33665 469.2276,192.02641 469.53784,192.33665 469.68439,192.48319 469.39129,192.81185 469.53784,192.9584 469.82525,193.24581 471.0277,192.7707 471.4031,192.9584 471.66525,193.08948 471.76269,193.44907 472.02485,193.58015 472.39559,193.76552 472.89761,193.39478 473.26835,193.58015 473.53051,193.71123 473.62795,194.07083 473.8901,194.2019 474.07547,194.2946 474.36531,194.05535 474.51186,194.2019 474.6584,194.34845 474.36531,194.67711 474.51186,194.82365 474.80495,195.11675 475.38462,194.63828 475.75536,194.82365 476.01751,194.95473 476.11496,195.31433 476.37711,195.44541 476.56248,195.53811 476.85232,195.29886 476.99886,195.44541 477.14541,195.59196 476.85232,195.92061 476.99886,196.06716 477.14541,196.21371 477.47407,195.92061 477.62062,196.06716 477.76716,196.21371 477.47407,196.54236 477.62062,196.68891 478.90704,197.97534 477.57032,194.72308 478.86412,197.31066 478.95682,197.49603 478.71757,197.78587 478.86412,197.93242 480.15055,199.21884 478.81382,195.96658 480.10762,198.55417 480.20032,198.73954 479.96108,199.02937 480.10762,199.17592 480.25417,199.32247 480.54401,199.08322 480.72938,199.17592 481.97288,199.79767 482.59463,201.66293 483.83814,202.28468 484.02351,202.37738 484.31334,202.13813 484.45989,202.28468 484.60644,202.43123 484.36719,202.72106 484.45989,202.90643 484.72204,203.43074 485.44124,203.62563 485.70339,204.14994 485.79609,204.33531 485.55685,204.62514 485.70339,204.77169 487.3614,204.77169 485.49614,204.56444 486.32515,205.39344 486.47169,205.53999 486.80035,205.24689 486.9469,205.39344 487.09345,205.53999 486.8542,205.82982 486.9469,206.01519 487.30903,206.73945 487.82827,207.15619 488.1904,207.88045 488.2831,208.06582 488.04385,208.35565 488.1904,208.5022 488.33695,208.64875 488.66561,208.35565 488.81215,208.5022 489.22595,208.91599 488.39836,209.33191 488.81215,209.7457 488.9587,209.89225 489.28736,209.59916 489.43391,209.7457 489.58045,209.89225 489.34121,210.18209 489.43391,210.36746 489.69606,210.89176 490.41526,211.08665 490.67741,211.61096 490.77011,211.79633 490.58471,212.04734 490.67741,212.23271 490.93956,212.75702 491.65876,212.95191 491.92091,213.47622 492.01361,213.66159 491.77437,213.95142 491.92091,214.09797 492.06746,214.24452 492.39612,213.95142 492.54267,214.09797 492.68921,214.24452 492.44997,214.53435 492.54267,214.71972 492.80482,215.24403 493.52402,215.43892 493.78617,215.96323 493.87887,216.1486 493.63962,216.43843 493.78617,216.58498 493.93272,216.73153 494.26137,216.43843 494.40792,216.58498 494.55447,216.73153 494.31522,217.02136 494.40792,217.20673 495.70171,219.79431 494.36502,216.54205 495.65143,217.82848 495.79798,217.97503 495.50488,218.30369 495.65143,218.45023 495.79798,218.59678 496.12663,218.30369 496.27318,218.45023 496.41973,218.59678 496.18048,218.88662 496.27318,219.07199 496.44014,219.4059 497.34973,219.98158 497.51668,220.31549 497.60938,220.50086 497.37013,220.79069 497.51668,220.93724 497.66323,221.08379 497.93118,220.93724 498.13844,220.93724 498.13844,221.14449 497.99189,221.41245 498.13844,221.55899 498.28498,221.70554 498.61364,221.41245 498.76019,221.55899 498.90674,221.70554 498.66749,221.99538 498.76019,222.18075 498.89126,222.4429 499.25086,222.54035 499.38194,222.8025 499.47464,222.98787 499.28924,223.23888 499.38194,223.42425 500.67573,226.01183 499.33904,222.75958 500.62544,224.046 500.77199,224.19255 500.53274,224.48238 500.62544,224.66776 500.8876,225.19206 501.60679,225.38695 501.86895,225.91126 501.96165,226.09663 501.77625,226.34764 501.86895,226.53301 502.1311,227.05732 502.8503,227.25221 503.11245,227.77652 503.20515,227.96189 503.01975,228.2129 503.11245,228.39827 503.85855,229.89047 506.09686,230.63658 506.84296,232.12878 506.93566,232.31415 506.75026,232.56516 506.84296,232.75053 507.34037,233.74534 508.83257,234.24274 509.32997,235.23754 509.42267,235.42291 509.23727,235.67392 509.32997,235.85929 509.46105,236.12145 509.82065,236.21889 509.95173,236.48105 510.04443,236.66642 509.80518,236.95625 509.95173,237.1028 510.09827,237.24935 510.42693,236.95625 510.57348,237.1028 510.72003,237.24935 510.48078,237.53918 510.57348,237.72455 510.93561,238.44881 511.45485,238.86554 511.81698,239.58981 511.90968,239.77518 511.67043,240.06501 511.81698,240.21156 511.96353,240.35811 512.29219,240.06501 512.43873,240.21156 512.58528,240.35811 512.34603,240.64794 512.43873,240.83331 512.70089,241.35762 513.42008,241.55251 513.68224,242.07681 513.77494,242.26218 513.58954,242.5132 513.68224,242.69857 513.81331,242.96072 514.17291,243.05816 514.30399,243.32032 514.39669,243.50569 514.15744,243.79552 514.30399,243.94207 514.45054,244.08862 514.77919,243.79552 514.92574,243.94207 515.07229,244.08862 514.83304,244.37845 514.92574,244.56382 515.05682,244.82598 515.41642,244.92342 515.54749,245.18557 515.64019,245.37094 515.45479,245.62196 515.54749,245.80733 517.60959,247.86942 515.2544,245.22113 516.16925,247.05083 516.30032,247.31298 516.65992,247.41043 516.791,247.67258 516.8837,247.85795 516.64445,248.14779 516.791,248.29433 516.93755,248.44088 517.2662,248.14779 517.41275,248.29433 517.70585,248.58743 517.22738,249.1671 517.41275,249.53784 517.6749,250.06215 518.3941,250.25704 518.65625,250.78134 518.74895,250.96671 518.56355,251.21772 518.65625,251.4031 518.91841,251.9274 519.6376,252.12229 519.89976,252.6466 519.99246,252.83197 519.80706,253.08298 519.89976,253.26835 520.27281,254.01445 521.39196,254.38751 521.76501,255.13361 521.85771,255.31898 521.67231,255.56999 521.76501,255.75536 522.02717,256.27967 522.74637,256.47456 523.00852,256.99886 523.10122,257.18423 522.86197,257.47407 523.00852,257.62062 523.15507,257.76716 523.48372,257.47407 523.63027,257.62062 523.77682,257.76716 523.53757,258.057 523.63027,258.24237 523.76135,258.50452 524.12095,258.60197 524.25202,258.86412 524.34472,259.04949 524.10547,259.33932 524.25202,259.48587 524.39857,259.63242 524.72723,259.33932 524.87378,259.48587 525.02032,259.63242 524.78108,259.92225 524.87378,260.10762 525.13593,260.63193 525.85513,260.82682 526.11728,261.35113 526.20998,261.5365 526.02458,261.78751 526.11728,261.97288 526.24836,262.23503 526.60795,262.33248 526.73903,262.59463 526.83173,262.78 526.59248,263.06984 526.73903,263.21639 528.02546,264.50281 526.68873,261.25055 527.98254,263.83814 528.07524,264.02351 527.88984,264.27452 527.98254,264.45989 528.34467,265.18415 528.86391,265.60088 529.22604,266.32515 529.31874,266.51052 529.07949,266.80035 529.22604,266.9469 529.37259,267.09345 529.70124,266.80035 529.84779,266.9469 529.99434,267.09345 529.75509,267.38328 529.84779,267.56865 530.10995,268.09296 530.82914,268.28785 531.0913,268.81215 531.184,268.99752 530.9986,269.24854 531.0913,269.43391 531.22237,269.69606 531.58197,269.7935 531.71305,270.05566 531.80575,270.24103 531.5665,270.53086 531.71305,270.67741 531.8596,270.82396 532.18825,270.53086 532.3348,270.67741 532.6279,270.97051 532.14943,271.55017 532.3348,271.92091 534.01901,275.28934 531.89409,269.796 533.5783,273.16442 533.671,273.34979 533.4856,273.6008 533.5783,273.78617 533.84046,274.31048 534.55966,274.50537 534.82181,275.02967 534.91451,275.21505 534.72911,275.46606 534.82181,275.65143 535.19486,276.39753 536.31401,276.77058 536.68707,277.51668 536.77977,277.70205 536.59437,277.95306 536.68707,278.13844 536.94922,278.66274 537.66842,278.85763 537.93057,279.38194 538.02327,279.56731 537.78402,279.85714 537.93057,280.00369 538.07712,280.15024 538.40577,279.85714 538.55232,280.00369 538.84542,280.29679 538.25922,280.9541 538.55232,281.2472 538.69887,281.39374 539.02753,281.10065 539.17407,281.2472 540.42083,282.49395 537.92732,281.2442 539.17407,282.4907 539.32062,282.63725 539.64928,282.34415 539.79583,282.4907 539.94237,282.63725 539.64928,282.9659 539.79583,283.11245 539.94237,283.259 540.27103,282.9659 540.41758,283.11245 540.56413,283.259 540.32488,283.54883 540.41758,283.7342 542.47967,285.7963 540.12448,283.14801 541.03933,284.97771 541.30148,285.50202 542.02068,285.69691 542.28283,286.22121 542.37553,286.40658 542.13629,286.69642 542.28283,286.84296 542.42938,286.98951 542.75804,286.69642 542.90459,286.84296 543.05113,286.98951 542.81189,287.27935 542.90459,287.46472 543.03566,287.72687 543.39526,287.82432 543.52634,288.08647 543.71171,288.45721 543.23324,289.03688 543.52634,289.32997 543.67289,289.47652 544.00154,289.18342 544.14809,289.32997 544.29464,289.47652 544.05539,289.76635 544.14809,289.95173 546.21018,292.01382 543.85499,289.36553 544.76984,291.19523 545.032,291.71954 545.75119,291.91443 546.01335,292.43873 546.19872,292.80947 545.82798,293.3115 546.01335,293.68224 546.37548,294.4065 546.89472,294.82323 547.25685,295.54749 547.34955,295.73286 547.1103,296.0227 547.25685,296.16925 547.4034,296.31579 547.73205,296.0227 547.8786,296.16925 548.1717,296.46234 547.58551,297.11965 547.8786,297.41275 548.02515,297.5593 548.35381,297.2662 548.50035,297.41275 548.79345,297.70585 548.20726,298.36316 548.50035,298.65625 548.6469,298.8028 548.97556,298.50971 549.12211,298.65625 549.4152,298.94935 548.82901,299.60666 549.12211,299.89976 549.26866,300.04631 549.59731,299.75321 549.74386,299.89976 550.03696,300.19286 549.55849,300.77252 549.74386,301.14326 549.87494,301.40542 550.23453,301.50286 550.36561,301.76501 550.45831,301.95039 550.21906,302.24022 550.36561,302.38677 550.51216,302.53332 550.84081,302.24022 550.98736,302.38677 551.13391,302.53332 550.89466,302.82315 550.98736,303.00852 551.11844,303.27067 551.47804,303.36812 551.60912,303.63027 551.70182,303.81564 551.46257,304.10547 551.60912,304.25202 551.75566,304.39857 552.08432,304.10547 552.23087,304.25202 553.47762,305.49878 550.98411,304.24902 552.23087,305.49553 552.37742,305.64208 552.70607,305.34898 552.85262,305.49553 553.14572,305.78862 552.55952,306.44593 552.85262,306.73903 552.99917,306.88558 553.32782,306.59248 553.47437,306.73903 553.62092,306.88558 553.38167,307.17541 553.47437,307.36078 553.8365,308.08505 554.35574,308.50178 554.71788,309.22604 555.05179,309.89387 554.38396,309.80172 554.71788,310.46954 555.08001,311.19381 555.59925,311.61054 555.96138,312.3348 556.95448,314.32101 554.96828,311.5921 555.96138,313.5783 556.09246,313.84046 556.45206,313.9379 556.58313,314.20006 556.7685,314.5708 556.29004,315.15046 556.58313,315.44356 556.72968,315.59011 557.05834,315.29701 557.20488,315.44356 557.51576,315.75444 556.89401,316.99794 557.20488,317.30882 557.35143,317.45537 557.68009,317.16227 557.82664,317.30882 558.11973,317.60191 557.69556,318.15909 557.82664,318.55232 558.17957,319.61113 561.7644,321.24658 562.1789,322.28283 560.67169,320.33644 556.00437,318.58098 554.09612,317.30882 553.60838,316.98366 553.34036,316.39047 552.85262,316.06531 552.53951,314.69549 551.57356,315.73666 550.98736,315.44356 550.46306,315.18141 550.26817,314.46221 549.74386,314.20006 549.55849,314.10736 549.30748,314.29276 549.12211,314.20006 548.376,313.82701 548.00295,312.70785 547.25685,312.3348 547.07148,312.2421 546.83171,312.4003 546.6351,312.3348 545.35142,311.90691 545.19585,310.99343 544.14809,310.46954 543.96272,310.37684 543.71171,310.56224 543.52634,310.46954 543.00203,310.20739 542.80714,309.48819 542.28283,309.22604 542.09746,309.13334 541.84645,309.31874 541.66108,309.22604 540.96194,308.87647 540.53232,307.60628 539.79583,307.36078 539.4026,307.22971 538.94555,307.49186 538.55232,307.36078 538.27427,307.26808 538.19272,306.87011 537.93057,306.73903 537.7452,306.64633 537.49419,306.83173 537.30882,306.73903 537.04666,306.60795 536.94922,306.24836 536.68707,306.11728 536.50169,306.02458 536.25068,306.20998 536.06531,306.11728 535.80316,305.9862 535.70571,305.6266 535.44356,305.49553 535.25819,305.40283 535.00718,305.58823 534.82181,305.49553 534.55966,305.36445 534.47811,304.96646 534.20006,304.87378 533.80683,304.7427 533.34978,305.00485 532.95655,304.87378 532.6785,304.78108 532.59695,304.3831 532.3348,304.25202 532.14943,304.15932 531.89842,304.34472 531.71305,304.25202 531.18874,303.98987 530.99385,303.27067 530.46954,303.00852 530.28417,302.91582 530.05504,303.00852 529.84779,303.00852 529.43329,302.80127 528.98988,302.64383 528.60429,302.38677 528.35069,302.2177 526.97027,301.25888 526.73903,301.14326 526.55366,301.05056 526.26383,301.28981 526.11728,301.14326 525.97073,300.99671 526.26383,300.66806 526.11728,300.52151 525.97073,300.37496 525.6809,300.61421 525.49553,300.52151 525.23337,300.39043 525.13593,300.03084 524.87378,299.89976 524.6884,299.80706 524.45927,299.89976 524.25202,299.89976 524.04477,299.69251 523.89242,299.40908 523.63027,299.27801 523.25953,299.09264 522.67986,299.5711 522.38677,299.27801 521.10034,297.99158 524.3526,299.32831 521.76501,298.0345 521.57964,297.9418 521.32863,298.1272 521.14326,298.0345 520.88111,297.90343 520.78366,297.54383 520.52151,297.41275 520.33614,297.32005 520.08513,297.50545 519.89976,297.41275 519.1755,297.05062 518.75876,296.53138 518.0345,296.16925 517.84913,296.07655 517.59812,296.26195 517.41275,296.16925 516.88844,295.90709 516.69355,295.1879 516.16925,294.92574 515.98388,294.83304 515.73286,295.01844 515.54749,294.92574 515.02319,294.66359 514.8283,293.94439 514.30399,293.68224 514.11862,293.58954 513.86761,293.77494 513.68224,293.68224 513.15793,293.42008 512.99485,292.6241 512.43873,292.43873 512.0455,292.30766 511.58846,292.56981 511.19523,292.43873 510.91717,292.34603 510.83563,291.94806 510.57348,291.81698 510.38811,291.72428 510.1371,291.90968 509.95173,291.81698 509.25259,291.46741 508.82296,290.19722 508.08647,289.95173 507.69324,289.82065 507.2362,290.0828 506.84296,289.95173 506.28685,289.76635 506.12377,288.97037 505.59946,288.70822 505.41409,288.61552 505.18496,288.70822 504.97771,288.70822 504.56321,288.50097 504.1198,288.34353 503.7342,288.08647 503.04831,287.62921 502.60346,286.58847 501.86895,286.22121 501.68358,286.12851 501.43257,286.31391 501.2472,286.22121 500.72289,285.95906 500.528,285.23986 500.00369,284.97771 499.81832,284.88501 499.58919,284.97771 499.38194,284.97771 498.96744,284.77046 498.52403,284.61302 498.13844,284.35596 497.89456,284.19338 497.77884,283.86528 497.51668,283.7342 497.33131,283.6415 497.04148,283.88075 496.89493,283.7342 496.74838,283.58766 497.0803,283.20514 496.89493,283.11245 496.52419,282.92708 496.04466,283.24353 495.65143,283.11245 495.37337,283.01975 495.29183,282.62178 495.02967,282.4907 494.8443,282.398 494.59329,282.5834 494.40792,282.4907 493.66182,282.11765 493.28877,280.99849 492.54267,280.62544 492.3573,280.53274 492.10629,280.71814 491.92091,280.62544 489.0754,279.20269 494.55927,280.88314 490.05566,279.38194 489.85904,279.31644 489.61928,279.47464 489.43391,279.38194 488.4365,278.88324 489.1878,278.63714 488.1904,278.13844 488.00503,278.04574 487.76526,278.20394 487.56865,278.13844 483.06504,276.63723 488.54891,278.31769 485.70339,276.89493 485.51802,276.80223 485.28889,276.89493 485.08164,276.89493 484.66714,276.68768 484.22373,276.53024 483.83814,276.27318 483.35039,275.94802 483.08238,275.35484 482.59463,275.02967 482.28152,273.65985 480.61385,275.28579 480.02766,274.99267"
       inkscape:connector-curvature="0"
       id="path5137"
       style="fill:none;stroke:#0000e9;stroke-width:1;stroke-miterlimit:4;stroke-opacity:1;stroke-dasharray:none;stroke-dashoffset:0" />
    <path
       d="M 428.32333,200.05521 366.50909,139.7582"
       inkscape:connector-curvature="0"
       id="path5141"
       style="fill:none;stroke:#0000e9;stroke-width:1;stroke-miterlimit:4;stroke-opacity:1;stroke-dasharray:none;stroke-dashoffset:0" />
    <path
       d="M 432.85447,194.82365 C 411.34607,169.89268 396.27407,136.37982 379.38379,105.29135"
       inkscape:connector-curvature="0"
       id="path5143"
       style="fill:none;stroke:#0000e9;stroke-width:1;stroke-miterlimit:4;stroke-opacity:1;stroke-dasharray:none;stroke-dashoffset:0" />
    <path
       d="M 445.28951,192.9584 C 445.34631,157.09664 453.98561,126.38442 462.07681,95.34332"
       inkscape:connector-curvature="0"
       id="path5145"
       style="fill:none;stroke:#0000e9;stroke-width:1;stroke-miterlimit:4;stroke-opacity:1;stroke-dasharray:none;stroke-dashoffset:0" />
    <path
       d="M 491.92091,212.23271 C 523.87862,212.06831 557.17978,206.53011 590.7795,199.79767"
       inkscape:connector-curvature="0"
       id="path5147"
       style="fill:none;stroke:#0000e9;stroke-width:1;stroke-miterlimit:4;stroke-opacity:1;stroke-dasharray:none;stroke-dashoffset:0" />
    <path
       d="M 494.40792,217.20673 C 526.27199,221.50827 557.49656,226.27666 595.75351,225.91126"
       inkscape:connector-curvature="0"
       id="path5149"
       style="fill:none;stroke:#0000e9;stroke-width:1;stroke-miterlimit:4;stroke-opacity:1;stroke-dasharray:none;stroke-dashoffset:0" />
    <path
       d="M 414.2019,219.38286 366.94874,215.96323"
       inkscape:connector-curvature="0"
       id="path5151"
       style="fill:none;stroke:#0000e9;stroke-width:1;stroke-miterlimit:4;stroke-opacity:1;stroke-dasharray:none;stroke-dashoffset:0" />
    <path
       d="M 370.36838,266.32515 C 383.86704,269.52165 413.94245,262.48388 412.99441,268.92296 412.73543,272.7568 411.04958,276.27787 410.34629,280.05308 406.83713,284.69198 404.9342,290.29054 402.67727,295.60919 401.02612,299.63912 398.66167,302.70706 397.68208,307.0361 396.13343,311.32647 396.64748,315.82933 396.82667,320.24947 395.80363,324.50543 395.96042,328.78844 397.0315,333.01674 397.49726,337.62719 399.50223,341.91715 399.9016,346.53117 401.9606,350.12583 403.32159,354.10386 403.00273,358.32301 402.29913,361.83248 400.06861,365.14241 396.51678,366.20394 393.60185,368.23366 392.99112,372.95378 390.60109,375.20226 390.64289,376.08174 389.27045,376.14762 389.33182,376.99702"
       inkscape:connector-curvature="0"
       id="path5153"
       style="fill:none;stroke:#0000e9;stroke-width:1;stroke-miterlimit:4;stroke-opacity:1;stroke-dasharray:none;stroke-dashoffset:0" />
    <path
       d="M 398.6581,362.69672 C 400.33272,363.18734 402.04022,362.29646 403.54918,361.66011 405.60196,360.71237 407.8059,361.57551 409.74391,362.37566 412.58052,363.61283 415.01917,365.89239 416.10036,368.83019 417.70871,372.16724 418.96818,375.829 418.63769,379.5863 418.62429,382.18089 418.39941,384.77377 418.01428,387.33389 417.98368,388.92739 417.95678,394.08846 416.13899,394.33874 413.77392,394.52111 409.19376,394.41384 406.98891,393.80407 397.94414,390.90041 395.89987,389.82985 391.35499,384.80422 388.68811,390.36266 393.12774,379.24144 391.61877,378.79959 391.18164,378.68916 391.04238,379.15377 391.19731,379.48375"
       inkscape:connector-curvature="0"
       id="path5155"
       style="fill:none;stroke:#0000e9;stroke-width:1;stroke-miterlimit:4;stroke-opacity:1;stroke-dasharray:none;stroke-dashoffset:0" />
    <path
       d="M 479.48587,275.02967 C 478.86412,275.85868 476.79161,276.89493 477.62062,277.51668 478.44962,278.13844 480.41273,274.56625 479.48587,275.02967 478.1751,275.68506 477.50293,277.20026 476.37711,278.13844 476.2179,278.27111 475.90191,277.99189 475.75536,278.13844 475.60881,278.28498 475.84806,278.57482 475.75536,278.76019 475.62428,279.02234 475.26468,279.11979 475.13361,279.38194 475.04091,279.56731 475.22631,279.81832 475.13361,280.00369 475.00253,280.26585 474.64293,280.36329 474.51186,280.62544 474.32649,280.99619 474.69723,281.49821 474.51186,281.86895 474.38078,282.1311 474.02118,282.22855 473.8901,282.4907 473.63193,283.00705 473.8901,284.38827 473.8901,284.97771 473.8901,285.33244 473.8581,288.67624 473.8901,288.70822 474.03665,288.85477 474.36531,288.56167 474.51186,288.70822 474.80495,289.00132 474.32649,289.58098 474.51186,289.95173 474.77401,290.47603 475.49321,290.67092 475.75536,291.19523 475.84806,291.3806 475.60881,291.67043 475.75536,291.81698 475.90191,291.96353 476.23056,291.67043 476.37711,291.81698 476.52366,291.96353 476.28441,292.25336 476.37711,292.43873 476.67756,293.03962 478.26323,294.6253 478.86412,294.92574 479.04949,295.01844 479.33932,294.77919 479.48587,294.92574 479.63242,295.07229 479.33932,295.40095 479.48587,295.54749 479.77897,295.84059 480.43628,295.2544 480.72938,295.54749 480.87593,295.69404 480.58283,296.0227 480.72938,296.16925 481.14406,296.58393 481.55819,295.75456 481.97288,296.16925 482.11943,296.31579 481.82633,296.64445 481.97288,296.791 482.26598,297.08409 482.92329,296.4979 483.21639,296.791 483.36293,296.93755 483.06984,297.2662 483.21639,297.41275 483.50948,297.70585 484.16679,297.11965 484.45989,297.41275 484.60644,297.5593 484.31334,297.88795 484.45989,298.0345 484.60644,298.18105 484.93509,297.88795 485.08164,298.0345 485.22819,298.18105 484.93509,298.50971 485.08164,298.65625 487.15956,300.73418 484.24722,296.57833 486.32515,298.65625 486.47169,298.8028 486.1786,299.13146 486.32515,299.27801 486.47169,299.42455 486.80035,299.13146 486.9469,299.27801 487.09345,299.42455 486.80035,299.75321 486.9469,299.89976 487.25777,300.21063 488.50128,299.58888 488.81215,299.89976 488.9587,300.04631 488.66561,300.37496 488.81215,300.52151 489.10525,300.81461 489.76256,300.22841 490.05566,300.52151 490.20221,300.66806 489.90911,300.99671 490.05566,301.14326 490.34875,301.43636 491.00607,300.85017 491.29916,301.14326 491.44571,301.28981 491.15261,301.61847 491.29916,301.76501 491.59226,302.05811 492.17193,301.57964 492.54267,301.76501 492.80482,301.89609 492.90226,302.25569 493.16442,302.38677 493.34979,302.47947 493.6008,302.29407 493.78617,302.38677 496.37375,303.68056 493.1215,302.34387 494.40792,303.63027 494.70102,303.92337 495.35833,303.33717 495.65143,303.63027 495.79798,303.77682 495.50488,304.10547 495.65143,304.25202 497.31376,305.91436 495.23259,302.58969 496.89493,304.25202 497.04148,304.39857 496.74838,304.72723 496.89493,304.87378 497.04148,305.02032 497.33131,304.78108 497.51668,304.87378 497.77884,305.00485 497.87628,305.36445 498.13844,305.49553 498.32381,305.58823 498.61364,305.34898 498.76019,305.49553 498.90674,305.64208 498.61364,305.97073 498.76019,306.11728 499.05328,306.41038 499.58919,306.11728 500.00369,306.11728 501.6617,306.11728 499.79644,305.91003 500.62544,306.73903 500.91854,307.03213 501.57585,306.44593 501.86895,306.73903 502.0155,306.88558 501.7224,307.21424 501.86895,307.36078 502.0155,307.50733 502.30533,307.26808 502.4907,307.36078 502.75285,307.49186 502.8503,307.85146 503.11245,307.98254 503.48319,308.16791 504.06286,307.68944 504.35596,307.98254 504.5025,308.12908 504.20941,308.45774 504.35596,308.60429 504.64905,308.89738 505.30636,308.31119 505.59946,308.60429 506.42846,309.43329 504.56321,309.22604 506.22121,309.22604 507.87922,309.22604 506.01396,309.01879 506.84296,309.84779 507.13606,310.14089 507.79337,309.5547 508.08647,309.84779 508.23302,309.99434 507.93992,310.323 508.08647,310.46954 508.37957,310.76264 509.03688,310.17645 509.32997,310.46954 509.47652,310.61609 509.18342,310.94475 509.32997,311.0913 509.62307,311.38439 510.28038,310.7982 510.57348,311.0913 510.72003,311.23784 510.42693,311.5665 510.57348,311.71305 510.86657,312.00615 511.52388,311.41995 511.81698,311.71305 511.96353,311.8596 511.67043,312.18825 511.81698,312.3348 511.96353,312.48135 512.29219,312.18825 512.43873,312.3348 512.58528,312.48135 512.29219,312.81 512.43873,312.95655 512.58528,313.1031 512.91394,312.81 513.06049,312.95655 513.35358,313.24965 512.76739,313.90696 513.06049,314.20006 513.20703,314.34661 513.53569,314.05351 513.68224,314.20006 513.80827,314.32609 513.80827,317.18279 513.68224,317.30882 513.53569,317.45537 513.20703,317.16227 513.06049,317.30882 512.91394,317.45537 513.20703,317.78402 513.06049,317.93057 512.91394,318.07712 512.58528,317.78402 512.43873,317.93057 512.29219,318.07712 512.58528,318.40577 512.43873,318.55232 512.29219,318.69887 512.00235,318.45962 511.81698,318.55232 511.55483,318.6834 511.45738,319.043 511.19523,319.17407 510.82449,319.35944 510.24482,318.88098 509.95173,319.17407 509.80518,319.32062 510.09827,319.64928 509.95173,319.79583 509.91973,319.82783 506.57594,319.79583 506.22121,319.79583 504.77324,319.79583 505.4897,319.85073 504.35596,320.41758 503.52695,320.83208 502.0762,320.00308 501.2472,320.41758 500.98504,320.54865 500.8876,320.90825 500.62544,321.03933 500.2547,321.2247 499.67504,320.74623 499.38194,321.03933 499.23539,321.18588 499.52849,321.51453 499.38194,321.66108 498.96744,322.07558 497.30943,321.24658 496.89493,321.66108 496.74838,321.80763 497.04148,322.13629 496.89493,322.28283 496.60183,322.57593 496.02217,322.09746 495.65143,322.28283 495.38927,322.41391 495.29183,322.77351 495.02967,322.90459 494.8443,322.99729 494.55447,322.75804 494.40792,322.90459 494.26137,323.05113 494.55447,323.37979 494.40792,323.52634 494.11483,323.81943 493.45752,323.23324 493.16442,323.52634 493.01787,323.67289 493.31097,324.00154 493.16442,324.14809 493.01787,324.29464 492.68921,324.00154 492.54267,324.14809 492.39612,324.29464 492.68921,324.62329 492.54267,324.76984 492.39612,324.91639 492.10629,324.67714 491.92091,324.76984 491.65876,324.90092 491.56132,325.26052 491.29916,325.39159 491.11379,325.48429 490.82396,325.24505 490.67741,325.39159 490.53086,325.53814 490.82396,325.8668 490.67741,326.01335 490.53086,326.15989 490.20221,325.8668 490.05566,326.01335 489.90911,326.15989 490.20221,326.48855 490.05566,326.6351 489.90911,326.78165 489.61928,326.5424 489.43391,326.6351 489.17175,326.76618 489.07431,327.12577 488.81215,327.25685 488.62678,327.34955 488.33695,327.1103 488.1904,327.25685 488.04385,327.4034 488.33695,327.73205 488.1904,327.8786 487.89731,328.1717 487.23999,327.58551 486.9469,327.8786 486.80035,328.02515 487.09345,328.35381 486.9469,328.50035 486.80035,328.6469 486.47169,328.35381 486.32515,328.50035 486.1786,328.6469 486.47169,328.97556 486.32515,329.12211 486.1786,329.26866 485.84994,328.97556 485.70339,329.12211 485.55685,329.26866 485.84994,329.59731 485.70339,329.74386 485.55685,329.89041 485.22819,329.59731 485.08164,329.74386 484.93509,329.89041 485.22819,330.21906 485.08164,330.36561 484.93509,330.51216 484.60644,330.21906 484.45989,330.36561 484.31334,330.51216 484.60644,330.84081 484.45989,330.98736 484.31334,331.13391 483.98469,330.84081 483.83814,330.98736 483.69159,331.13391 483.98469,331.46257 483.83814,331.60912 483.69159,331.75566 483.36293,331.46257 483.21639,331.60912 483.06984,331.75566 483.36293,332.08432 483.21639,332.23087 483.06984,332.37742 482.74118,332.08432 482.59463,332.23087 482.44808,332.37742 482.59463,332.64537 482.59463,332.85262 482.38738,332.85262 482.11943,332.70607 481.97288,332.85262 481.82633,332.99917 482.11943,333.32782 481.97288,333.47437 481.82633,333.62092 481.5365,333.38167 481.35113,333.47437 480.82682,333.73653 480.63193,334.45572 480.10762,334.71788 479.92225,334.81058 479.67124,334.62518 479.48587,334.71788 479.22372,334.84895 479.12627,335.20855 478.86412,335.33963 478.67875,335.43233 478.38892,335.19308 478.24237,335.33963 478.09582,335.48618 478.38892,335.81483 478.24237,335.96138 477.94927,336.25448 477.29196,335.66828 476.99886,335.96138 476.85232,336.10793 477.14541,336.43658 476.99886,336.58313 476.85232,336.72968 476.56248,336.49043 476.37711,336.58313 476.11496,336.71421 476.01751,337.07381 475.75536,337.20488 475.56999,337.29758 475.28016,337.05834 475.13361,337.20488 474.98706,337.35143 475.28016,337.68009 475.13361,337.82664 474.98706,337.97318 474.69723,337.73394 474.51186,337.82664 474.2497,337.95771 474.15226,338.31731 473.8901,338.44839 473.70473,338.54109 473.4149,338.30184 473.26835,338.44839 473.1218,338.59494 473.4149,338.92359 473.26835,339.07014 473.1218,339.21669 472.83197,338.97744 472.6466,339.07014 472.38445,339.20122 472.287,339.56082 472.02485,339.69189 471.83948,339.78459 471.54964,339.54534 471.4031,339.69189 471.25655,339.83844 471.54964,340.1671 471.4031,340.31364 471.25655,340.46019 470.92789,340.1671 470.78134,340.31364 470.63479,340.46019 470.92789,340.78885 470.78134,340.9354 470.63479,341.08195 470.30614,340.78885 470.15959,340.9354 470.01304,341.08195 470.25229,341.37178 470.15959,341.55715 470.02851,341.8193 469.66892,341.91675 469.53784,342.1789 469.44514,342.36427 469.68439,342.6541 469.53784,342.80065 469.39129,342.9472 469.06264,342.6541 468.91609,342.80065 468.76954,342.9472 469.00879,343.23703 468.91609,343.42241 468.78501,343.68456 468.42541,343.782 468.29433,344.04416 468.20163,344.22953 468.44088,344.51936 468.29433,344.66591 468.14779,344.81246 467.81913,344.51936 467.67258,344.66591 467.52603,344.81246 467.76528,345.10229 467.67258,345.28766 467.54151,345.54982 467.18191,345.64726 467.05083,345.90941 466.95813,346.09478 467.19738,346.38462 467.05083,346.53117 466.90428,346.67771 466.57563,346.38462 466.42908,346.53117 466.13598,346.82426 466.72218,347.48157 466.42908,347.77467 466.28253,347.92122 465.95387,347.62812 465.80733,347.77467 465.51423,348.06777 466.10042,348.72508 465.80733,349.01817 465.66078,349.16472 465.33212,348.87163 465.18557,349.01817 464.86388,349.33987 465.49509,352.75141 465.18557,353.37044 465.0545,353.63259 464.6949,353.73004 464.56382,353.99219 464.42034,354.27915 464.42034,356.19224 464.56382,356.4792 464.6949,356.74135 465.0545,356.8388 465.18557,357.10095 465.60008,357.92995 464.77107,359.38071 465.18557,360.20971 465.54771,360.93397 466.06695,361.35071 466.42908,362.07497 466.68791,362.59263 466.03469,364.16759 466.42908,364.56198 466.57563,364.70852 466.90428,364.41543 467.05083,364.56198 467.21541,364.72656 467.05083,366.17122 467.05083,366.42723 467.05083,368.08524 466.84358,366.21998 467.67258,367.04898 467.96,367.3364 467.48488,368.53884 467.67258,368.91424 467.80366,369.17639 468.16326,369.27384 468.29433,369.53599 468.62594,370.1992 467.96273,371.3598 468.29433,372.023 468.42541,372.28516 468.78501,372.3826 468.91609,372.64475 469.10379,373.02015 468.62867,374.2226 468.91609,374.51001 469.06264,374.65656 469.39129,374.36346 469.53784,374.51001 469.93222,374.90439 469.27901,376.47935 469.53784,376.99702 469.66892,377.25917 470.02851,377.35662 470.15959,377.61877 470.21659,377.73285 470.11399,379.48403 470.15959,379.48403 470.36684,379.48403 470.15959,379.06953 470.15959,378.86227 470.15959,378.44777 470.15959,378.03327 470.15959,377.61877"
       inkscape:connector-curvature="0"
       id="path5157"
       style="fill:none;stroke:#0000e9;stroke-width:1;stroke-miterlimit:4;stroke-opacity:1;stroke-dasharray:none;stroke-dashoffset:0" />
    <path
       d="M 418.55417,377.53687 C 436.51264,378.75221 451.89273,373.43238 466.71786,364.69989"
       inkscape:connector-curvature="0"
       id="path5159"
       style="fill:none;stroke:#0000e9;stroke-width:1;stroke-miterlimit:4;stroke-opacity:1;stroke-dasharray:none;stroke-dashoffset:0" />
    <path
       d="M 370.0575,278.13844 C 372.80667,276.76385 371.88913,277.55032 373.16626,276.27318"
       inkscape:connector-curvature="0"
       id="path5161"
       style="fill:none;stroke:#0000e9;stroke-width:1;stroke-miterlimit:4;stroke-opacity:1;stroke-dasharray:none;stroke-dashoffset:0" />
    <path
       d="M 411.09314,278.76019 370.67926,278.13844"
       inkscape:connector-curvature="0"
       id="path5163"
       style="fill:none;stroke:#0000e9;stroke-width:1;stroke-miterlimit:4;stroke-opacity:1;stroke-dasharray:none;stroke-dashoffset:0" />
    <path
       d="M 416.06116,256.672 412.9584,267.56866"
       inkscape:connector-curvature="0"
       id="path5165"
       style="fill:#d5be93;fill-opacity:1;stroke:#0000e9;stroke-width:1;stroke-miterlimit:4;stroke-opacity:1;stroke-dasharray:none;stroke-dashoffset:0" />
    <path
       d="M 421.24824,88.338386 C 433.99886,88.177262 446.83231,89.776056 458.76709,94.342179 460.46814,94.459783 462.64638,95.630091 461.17638,97.664667 453.28054,128.5012 445.48738,159.67889 444.89424,191.66581 441.31019,193.0386 437.02188,193.80542 433.23639,194.794 415.27881,174.09949 403.10491,149.17258 390.08727,125.21246 386.8278,119.04504 383.58944,112.8665 380.32918,106.6995 383.99973,102.70071 388.93868,99.26182 393.87171,96.61546 401.16578,92.410468 408.80443,87.561328 417.61476,88.346086 418.82585,88.305216 420.03688,88.327296 421.24824,88.338386 z"
       inkscape:connector-curvature="0"
       id="path5169"
       style="fill:#b1daa9;stroke:none" />
    <path
       d="M 463.81882,95.605113 C 471.80204,97.121115 478.53869,102.13458 486.2019,104.40679 492.26416,108.38046 499.39282,110.64991 505.7058,114.34434 512.97051,118.20284 519.69795,123.04674 526.73236,127.21732 533.12662,131.14955 539.86781,134.69965 545.1372,140.25793 547.41265,142.54755 549.76912,144.64114 552.36021,146.41392 558.59633,154.39834 566.56202,161.13654 572.30594,169.65209 574.821,173.51682 578.59657,176.57505 580.6305,180.55199 585.27908,184.69172 588.28341,190.71182 590.07679,196.6087 591.23004,198.76872 590.09889,200.46815 587.62993,200.22561 555.7159,206.05437 523.54804,212.1237 491.00105,211.83389 488.89496,209.89816 487.95596,206.51095 486.80422,204.25629 481.28383,200.71542 477.44709,193.46915 470.2695,192.85102 467.06437,190.77878 462.5199,192.33902 458.82538,191.62695 454.65801,191.57665 450.16548,190.83785 446.2349,192.07383 444.34252,189.8139 446.10984,186.02922 445.7727,183.27849 447.10127,153.90535 454.48999,125.23356 461.91471,96.945766 462.0349,95.940455 462.84302,95.393705 463.81882,95.605113 z"
       inkscape:connector-curvature="0"
       id="path5171"
       style="fill:#dbc198;stroke:none" />
    <path
       d="M 590.90883,200.52578 C 592.541,208.59455 594.25784,216.82174 594.42562,225.08498 590.31735,226.22938 585.29771,225.04168 580.84722,225.31043 552.76794,225.02853 524.85556,221.26081 497.12142,217.25479 494.93047,217.01639 491.78921,214.84241 492.32227,212.90253 513.98873,211.29078 535.71094,210.01684 557.09984,206.1291 568.26292,204.39875 579.32403,201.94537 590.48138,200.27319 L 590.90883,200.52578 z"
       inkscape:connector-curvature="0"
       id="path5175"
       style="fill:#b5acba;stroke:none" />
    <path
       d="M 466.42908,191.7149 449.88492,265.55192"
       inkscape:connector-curvature="0"
       id="path5177"
       style="fill:#70c1b3;fill-opacity:1;stroke:#0000e9;stroke-width:1;stroke-miterlimit:4;stroke-opacity:1;stroke-dasharray:none;stroke-dashoffset:0" />
    <path
       d="M 389.88861,278.61395 C 396.32963,278.906 402.97394,278.47303 409.29894,279.39114 409.07245,283.25479 405.96365,286.70718 404.68341,290.38818 401.24981,298.53863 396.18978,306.37048 396.72789,315.54991 396.34313,325.15608 396.04185,334.89005 399.3509,344.07279 400.16651,349.27395 404.06725,354.34584 402.40138,359.69431 402.08901,361.55387 400.16349,361.96752 399.04003,362.78364 399.11803,365.55423 395.22352,365.84476 394.5129,368.41827 393.14782,370.04505 392.54187,373.53813 390.19949,373.78088 384.18091,364.94645 379.37868,355.19708 374.05337,345.89919 373.11079,323.5461 372.04928,301.19622 370.65316,278.86654 374.2718,277.60544 378.95268,278.83294 382.97019,278.5063 385.27633,278.5422 387.58247,278.5781 389.88861,278.61395 z"
       inkscape:connector-curvature="0"
       id="path5187"
       style="fill:#c6bdae;stroke:none" />
    <path
       d="M 406.13189,361.65672 C 411.40499,362.83608 415.60269,367.30483 417.1097,372.30422 418.986,376.75735 418.05257,382.12141 417.88689,386.89596 418.24112,389.57504 415.46802,391.83048 412.95173,390.37389 405.63391,388.04739 399.37326,383.16927 393.13338,378.87148 391.42003,377.75522 390.15588,375.36214 392.12304,373.93632 393.91154,370.66821 395.36977,366.81456 399.17604,365.42609 400.91434,363.91794 402.65022,362.45372 404.90781,362.00645 405.22081,361.70306 405.70412,361.58854 406.13189,361.65672 z"
       inkscape:connector-curvature="0"
       id="path5189"
       style="fill:none;stroke:none" />
    <path
       d="M 416.06716,390.05381 417.31067,395.02783"
       inkscape:connector-curvature="0"
       id="path5191"
       style="fill:#73837a;fill-opacity:1;stroke:#0000e9;stroke-width:1;stroke-miterlimit:4;stroke-opacity:1;stroke-dasharray:none;stroke-dashoffset:0" />
    <path
       d="M 481.48047,274.90287 C 488.20482,278.86621 494.97028,282.90206 501.80399,286.83274 509.50438,291.78514 517.49411,296.27002 525.38247,300.89024 533.5022,305.53173 542.34673,308.94239 549.71776,314.79215 553.50676,316.93281 557.23488,319.37161 561.18131,321.49542 560.05853,325.69582 556.61102,329.52325 554.30318,333.38643 548.23833,342.92158 539.613,350.09331 530.24772,356.26598 524.43799,360.75448 517.37428,362.92615 510.60567,365.48438 504.3906,367.58644 497.79047,369.05026 491.56451,371.08015 484.57469,372.98602 478.10575,376.85483 470.9884,378.09429 468.59666,374.91468 468.82212,370.21193 467.51048,366.47529 466.5697,362.29041 464.34297,358.43603 465.21777,353.96253 465.35288,345.22679 472.86962,339.21023 479.73179,335.11567 487.18959,329.66845 494.00424,321.97528 503.72753,320.75709 506.98168,319.95977 512.76095,320.72409 513.81158,316.56026 514.27925,312.83454 510.55473,310.86517 507.80778,309.35182 505.76886,307.96963 502.63557,307.67643 500.96851,305.71846 497.42727,305.75306 494.85862,302.21017 491.52019,301.13357 486.24067,297.75375 479.33271,296.12658 475.53496,290.89356 471.65828,285.18568 475.73979,277.44321 481.38332,274.88344 L 481.48042,274.90284 z"
       inkscape:connector-curvature="0"
       id="path5193"
       style="fill:#d5be93;stroke:none" />
    <path
       d="M 447.37737,294.76008 C 453.01594,297.25142 454.45222,304.31291 455.98475,309.68213 458.93561,316.95367 453.18174,324.12059 447.55686,328.08176 445.6993,329.38996 443.39968,331.73394 441.36952,329.27036 436.02638,326.6594 435.44963,319.89241 436.39956,314.73386 438.06984,312.37579 441.3429,310.69407 440.40208,307.21455 440.1054,302.33654 441.46908,295.34853 447.37737,294.76008 z"
       inkscape:connector-curvature="0"
       id="path5195"
       style="fill:#bfb879;stroke:none" />
    <path
       d="M 406.22515,361.94816 C 414.11516,362.58012 417.62421,371.33152 418.23274,378.21086 417.96866,382.13285 418.4689,386.4506 417.00866,390.10187 415.43664,390.19817 416.00935,391.07799 416.33701,392.5652 416.28411,395.2301 405.47295,392.95059 403.40784,393.07463 398.32312,391.84621 398.07136,391.47398 395.05304,386.81825 394.64142,385.51601 393.6724,387.35786 392.35231,386.04106 391.30217,382.86338 391.27204,378.24478 391.38082,374.81066 393.78047,371.50851 394.90025,366.85976 399.23044,365.34837 401.3077,363.42626 403.00584,361.55521 406.22515,361.94816 z"
       inkscape:connector-curvature="0"
       id="path5199"
       style="fill:#73837a;stroke:none" />
    <path
       d="M 498.26711,217.98147 C 528.08984,222.43984 558.21122,225.62886 588.41108,226.358 591.23737,226.66585 595.90633,225.40079 595.39644,229.67818 596.23318,246.23463 589.83712,261.88607 582.26587,276.24882 576.11625,288.88385 571.13963,302.24364 563.53165,314.0616 562.76722,316.05676 564.12127,320.65378 560.86977,320.49284 556.52855,318.24522 557.26914,312.26542 554.61925,308.66169 548.66499,297.82126 543.46901,286.42062 536.00709,276.43175 534.56154,274.86264 534.19509,272.46701 532.50234,271.45215 531.03985,268.04734 528.74539,264.79633 527.10086,261.54298 517.89714,251.92023 513.52417,238.84063 504.42672,229.09576 501.67413,225.41583 498.82386,221.68289 496.18813,218.0009 496.62748,217.19532 497.61064,217.9919 498.26711,217.9815 z"
       inkscape:connector-curvature="0"
       id="path5201"
       style="fill:#cda392;stroke:none" />
    <path
       d="M 405.56322,266.40465 C 408.03243,266.53945 410.87096,266.30137 412.89796,267.92017 412.58294,271.47923 411.60537,275.03732 410.41095,278.34424 398.95787,278.5985 387.4575,278.29124 375.99114,278.06251 374.89244,278.00011 372.51211,278.15001 372.92124,276.46927 372.1809,276.7321 370.78072,277.89634 370.57024,276.45927 370.27279,273.35086 369.94736,270.21365 370.01649,267.09413 371.10879,266.19335 372.82349,267.11613 374.15503,267.04553 384.62653,267.78084 395.09402,266.32174 405.56322,266.40434 z"
       inkscape:connector-curvature="0"
       id="path5901"
       style="fill:#68b88b;stroke:none" />
    <path
       d="M 466.6298,365.40222 C 467.19432,366.10605 466.6208,367.37809 467.06944,367.96453 467.73318,368.23253 467.43954,369.10621 468.01056,369.49642 468.41975,370.61115 467.85258,371.95127 468.66316,372.91741 468.86851,373.62926 468.449,374.47904 469.22645,374.9645 469.72792,375.82799 468.9958,376.93771 469.81723,377.71229 470.37141,378.58766 469.65099,379.575 468.6975,379.50521 468.27283,380.00015 467.65133,379.87467 467.11066,380.05477 466.11765,380.62658 464.87026,380.51783 463.99193,381.35997 463.11434,381.99272 461.97532,381.65181 461.17545,382.38352 460.51489,382.48212 459.92419,382.62215 459.38939,383.02238 458.5309,382.99438 457.87376,383.45203 457.08126,383.66124 456.2005,383.52535 455.71037,384.64283 454.75251,384.36192 453.97962,384.24653 453.20404,384.19857 452.62985,384.78783 451.96201,384.8902 451.36984,385.02584 450.83692,385.44729 449.97914,385.71997 448.96487,385.39119 448.28148,386.07928 447.5666,386.28034 446.83501,386.23346 446.26873,386.75936 445.57138,386.90817 444.58341,386.43337 444.20103,387.27457 443.59693,387.57908 442.78892,387.18487 442.33254,387.87221 441.6532,388.65891 440.56935,388.64272 439.66032,388.75837 439.296,389.50825 438.28519,389.06331 437.94295,389.77505 437.33746,390.08409 436.51731,389.71195 436.07446,390.34521 435.28021,390.54368 434.51385,390.74707 433.77319,391.08712 432.84779,391.25413 431.77488,390.84195 431.03915,391.56798 430.28207,391.73509 429.53833,391.84206 428.89588,392.27553 428.13477,392.55203 427.19409,392.13652 426.69766,392.90065 426.12058,393.20623 425.35665,392.83445 425.07646,393.52577 424.27186,394.00279 423.13134,393.06029 422.53477,394.02037 421.51949,394.71837 420.10487,393.85549 419.11378,394.31576 418.82087,395.26208 417.31747,395.34736 417.2865,394.21956 417.42073,392.52666 417.97796,390.88479 418.02367,389.15204 418.4856,385.50191 418.48595,381.75552 418.95294,378.13165 420.00119,377.46934 421.58644,377.97652 422.83009,377.76212 430.84535,377.80882 438.85797,376.69067 446.43626,374.11677 453.32467,371.92795 459.79163,368.71497 466.12146,365.27167 466.30926,365.18457 466.45975,365.35627 466.6298,365.40219 z"
       inkscape:connector-curvature="0"
       id="path8819"
       style="fill:#c7a1db;stroke:none" />
    <path
       d="M 367.26249,141.48608 C 371.98984,145.16306 376.0974,149.66288 380.50293,153.7398 396.24437,169.0315 412.0271,184.31068 427.55301,199.80448 427.98883,201.04934 426.07417,200.80677 425.67804,201.73774 424.81349,202.69856 423.66615,203.6959 422.59842,204.18589 422.02796,204.71576 421.10754,204.6533 420.74288,205.50711 420.01654,205.92223 418.85133,206.00822 418.9262,207.13921 418.19773,207.93642 417.93122,209.09448 416.94437,209.82052 416.40217,210.31742 416.49338,211.22299 415.86601,211.5692 415.71781,212.92128 414.56413,213.73075 414.35049,214.99855 413.41908,216.13718 414.99294,218.60389 413.1167,219.03994 398.86665,218.19864 384.61785,217.03556 370.3741,215.99426 369.13293,215.78104 366.64624,216.33938 367.05522,214.29019 365.99003,196.74917 366.30723,179.16016 366.22609,161.5959 366.31119,155.02124 366.14589,148.42537 366.57273,141.86496 366.61853,141.52213 367.02875,141.5141 367.26249,141.48608 z"
       inkscape:connector-curvature="0"
       id="path8815"
       style="fill:#a76986;stroke:none;display:inline;enable-background:new" />
    <path
       d="M 379.65867,107.28 C 381.4057,108.48768 381.87721,110.97293 383.08802,112.66204 395.20408,135.25823 406.46851,158.4499 420.92591,179.65907 424.54625,184.90696 428.51295,189.9064 432.59503,194.80132 432.50643,196.28408 430.55062,197.14577 429.62308,198.3012 428.96554,199.11549 427.78706,199.78308 427.11584,198.52212 406.95156,179.02598 386.93204,159.38075 366.84475,139.8054 366.48613,134.96056 367.23921,130.00145 367.41861,125.11964 367.7376,123.43627 367.2856,121.34909 368.38941,119.93848 370.26436,118.86359 371.99555,117.53891 372.98455,115.56679 373.69152,115.05131 373.16968,114.1104 373.82003,113.55581 373.72533,112.46313 374.84311,112.11678 375.07325,111.10766 375.29161,110.24881 376.77415,110.759 376.38476,109.80586 376.63446,108.8027 377.96601,109.52119 377.95857,108.35835 378.32991,107.81104 378.9317,107.1807 379.65867,107.28 z"
       inkscape:connector-curvature="0"
       id="path8817"
       style="fill:#746bdb;stroke:none;display:inline;enable-background:new" />
    <path
       d="M 482.00071,273.92996 416.50678,256.62085"
       inkscape:connector-curvature="0"
       id="path3022"
       style="fill:none;stroke:#0000e9;stroke-width:1;stroke-linecap:round;stroke-miterlimit:4;stroke-opacity:1;stroke-dasharray:none;stroke-dashoffset:0" />
    <path
       d="M 459.30158,191.7824 C 460.48968,191.8245 461.83625,191.6752 462.80287,192.4622 463.78019,192.8403 465.17221,192.14942 465.88021,193.0762 463.95332,202.61803 461.6576,212.12326 459.5874,221.65045 456.40068,235.77187 453.33307,249.92561 450.05495,264.02308 449.95765,264.94683 449.06282,265.31078 448.27787,264.83874 437.67829,262.13376 427.12043,259.22914 416.51855,256.55268 415.90721,256.24176 416.50345,255.38338 415.67795,255.29543 413.34912,253.18683 412.83015,249.80986 412.43249,246.83824 411.84421,238.89248 412.83648,230.95154 413.63578,223.06044 413.83659,221.70794 413.28419,219.92864 414.36953,218.93753 414.51867,217.7244 413.70746,216.02035 414.9543,215.23888 415.64181,214.12513 415.51594,212.66488 416.6355,211.78144 417.09837,211.08628 417.27677,210.25735 417.99509,209.81516 418.93004,209.64372 418.49363,208.22768 419.28888,207.88543 419.168,206.95987 420.13989,206.80935 420.45842,206.12382 420.94061,205.54042 421.89809,205.87903 422.13231,205.14434 422.50198,204.73834 423.20317,205.11004 423.36032,204.47185 424.14369,203.52953 425.20964,202.72578 426.21837,202.16202 426.87205,201.89858 427.07188,200.97535 427.96537,201.13137 428.20985,200.29377 429.34792,200.33141 429.56617,199.50133 429.95164,199.17221 430.06458,198.56569 430.66991,198.4853 431.07561,198.10287 431.18586,197.46802 431.7225,197.29384 431.91243,196.6225 432.94519,196.72472 432.95782,195.90501 433.65959,195.41711 434.4258,194.94984 435.20917,194.53812 436.48846,194.12354 438.04187,194.59892 439.22945,194.20919 439.90951,193.16245 441.46059,194.06384 442.29216,193.20778 442.8634,193.03898 443.48228,193.27838 443.89296,192.72534 445.22782,192.20949 446.82315,192.81824 448.04481,192.009 451.76018,191.58889 455.56548,191.85228 459.30158,191.7824 z"
       inkscape:connector-curvature="0"
       id="path3792"
       style="fill:#a9a2da;stroke:none" />
    <path
       d="M 468.74265,192.29408 C 469.38884,192.38628 469.24207,193.33587 470.01451,193.15661 470.72591,192.95433 471.49473,193.07131 472.00272,193.57325 473.14766,193.55405 473.89918,194.4644 474.78037,195.00593 475.62449,195.06483 476.52957,195.48942 476.88553,196.24125 477.4879,196.50321 477.78111,197.13373 478.42054,197.41079 478.66748,198.24976 479.74509,198.42144 480.00672,199.2455 481.80585,199.70361 482.67045,201.75063 484.14261,202.78832 484.86533,203.32542 485.37098,204.2144 485.62049,204.96891 486.93558,205.8153 487.76801,207.39325 488.2227,208.76258 488.74822,210.06257 490.07647,210.94022 490.62025,212.2785 490.90069,212.97462 491.9746,213.3557 491.84095,214.28863 492.87719,214.77445 493.41559,216.01402 493.82916,216.89085 494.61588,217.43781 494.74886,218.60817 495.7662,218.87175 497.07561,219.593 497.24658,221.16338 498.41227,221.98563 499.54577,222.62413 499.12019,224.44328 500.46627,224.77789 501.58173,225.34409 501.46864,226.74957 502.49833,227.38742 503.05932,228.18622 503.30511,229.14621 504.17292,229.72759 505.25812,230.71247 506.43436,231.73864 507.0449,233.08159 507.81999,234.04072 508.95642,234.83724 509.2597,236.0639 509.81724,236.50765 509.68767,237.25898 510.39269,237.48927 510.77282,238.51953 511.63148,239.44695 511.76689,240.52275 512.70924,241.04727 513.31663,242.01072 513.76241,242.89837 514.33272,243.51978 514.3775,244.44171 515.10738,244.9816 515.54685,245.86604 515.80936,246.86921 516.4962,247.62036 516.4721,248.28731 516.83549,248.44957 517.21254,248.89223 517.12604,249.98236 518.38101,250.36836 518.54288,251.36287 519.15955,252.0344 519.73811,252.73099 520.07059,253.57037 520.78919,254.36596 521.58594,255.15798 521.91991,256.17258 522.83997,256.74482 522.81301,257.91212 523.69614,258.49703 524.18531,258.95715 523.88249,259.75521 524.58791,259.98088 525.35383,260.57298 525.77824,261.45623 526.12293,262.26878 526.59329,262.85208 526.75882,263.62895 527.55561,263.83304 528.09469,264.84058 528.78335,265.85544 529.11255,266.96885 529.78587,267.81727 530.66828,268.54066 531.04959,269.54913 531.68203,269.94343 531.30426,270.88777 532.02177,271.10608 532.36606,271.80068 532.39022,272.65281 533.1109,273.16738 533.52046,274.06967 534.49531,274.63228 534.69708,275.64533 535.49315,276.53667 536.36688,277.41507 536.83879,278.53993 537.4143,278.97078 537.94124,279.57388 537.94985,280.30885 538.54137,281.05018 538.53373,282.15545 539.39714,282.74294 539.78869,283.49724 540.62023,283.91931 540.83713,284.7677 541.42459,285.42752 541.95512,286.29837 542.21865,287.04098 543.48033,287.72166 543.04426,289.54869 544.25071,290.30106 544.59414,291.5102 545.87739,292.3008 545.9173,293.63423 546.39233,294.54454 546.91757,295.56215 547.33536,296.4265 547.87715,296.77345 547.50838,297.54027 548.1248,297.77877 548.30621,298.47374 548.61322,299.02918 548.92885,299.67196 549.07918,300.25884 549.69943,300.55282 549.67443,301.24352 550.33762,301.88001 550.37854,302.89728 551.14366,303.50218 551.51608,304.53631 552.06643,305.48001 552.60557,306.44795 553.24924,307.63856 554.63256,308.7236 554.57185,310.24162 555.17764,311.68419 555.65865,313.22874 556.33347,314.61276 556.13191,315.52077 557.20622,315.8482 557.07173,316.75447 557.57077,318.49854 556.06007,318.61969 555.00312,317.64624 554.03007,317.11018 553.1478,316.26484 552.56903,315.37296 551.44136,315.54171 550.59759,314.83189 549.79869,314.1888 548.48843,313.87787 547.93091,312.28932 546.56054,312.07633 545.50484,311.45335 544.65003,310.49796 543.46859,310.13929 542.59549,309.12483 541.28449,308.78462 540.42049,307.75636 539.53306,306.84261 538.08867,307.15695 537.1531,306.2579 535.80133,305.73383 534.61172,304.77499 533.13283,304.67902 532.63864,304.18932 532.00331,304.13005 531.42969,303.78725 530.62835,302.6619 529.00172,302.73952 528.00149,301.80636 527.38141,301.26222 526.32614,301.13198 526.06445,300.33713 524.52861,299.9009 523.29369,298.79294 521.96377,298.03461 521.16917,298.02761 520.80796,297.18515 520.01942,297.1867 518.81418,296.40202 517.36662,296.08087 516.40848,294.94996 515.5915,294.67719 514.92987,294.13466 514.25946,293.59769 513.30081,293.42596 512.95305,292.12735 511.8473,292.38429 511.10022,292.28519 510.65624,291.65271 509.95412,291.46329 509.05697,290.84038 508.43437,289.66592 507.1984,289.76015 506.23411,289.33737 505.54735,288.49298 504.49385,288.23245 503.20848,287.55022 502.37865,286.22582 500.99256,285.73988 500.26723,284.69585 498.86093,284.86251 497.99563,283.96365 497.38699,283.19189 496.49681,282.98718 495.62732,282.73564 494.92033,282.15701 493.93984,282.00898 493.33942,281.22986 492.34621,279.96907 490.80542,279.61711 489.44341,278.94196 488.72671,278.33047 487.99008,277.82924 487.06779,277.61892 486.11794,276.61879 484.62866,276.83628 483.66883,275.87193 482.57299,275.03883 482.20649,273.35607 480.57958,273.41556 470.5748,270.75489 460.55113,268.16482 450.5637,265.44114 449.75579,264.59171 450.83188,263.24757 450.80015,262.2091 455.93222,239.11355 461.07213,216.01433 466.33779,192.95194 466.8298,192.2735 467.97447,192.32827 468.74265,192.29408 z"
       inkscape:connector-curvature="0"
       id="path3794"
       style="fill:#84cdcd;stroke:none" />
    <path
       d="M 368.11152,216.2476 C 383.05774,217.20806 398.00718,218.30295 412.93393,219.44189 413.89101,220.50373 413.30729,222.21757 413.38309,223.52721 412.45305,232.30417 411.13431,241.26997 412.6854,250.03984 413.06379,252.31386 414.17509,254.40593 415.887,255.9533 416.00949,257.60282 415.02306,259.27114 414.72143,260.92732 414.02796,262.87523 413.79389,265.08252 412.83159,266.88844 411.6812,267.26463 410.56314,266.17525 409.37415,266.25982 400.50647,265.53537 391.64229,267.01575 382.7673,266.95656 378.64646,267.03346 374.48923,266.92776 370.42135,266.35484 369.17173,266.24061 369.83883,264.43412 369.58806,263.61375 368.78162,247.99042 367.6257,232.37998 367.1101,216.74466 367.1191,216.2272 367.72891,216.1807 368.11152,216.2476 z"
       inkscape:connector-curvature="0"
       id="path3796"
       style="fill:#a78875;stroke:none" />
  </g>
</svg>
