<?xml version="1.0" encoding="UTF-8" standalone="no"?>
<!-- Created with Inkscape (http://www.inkscape.org/) -->

<svg
   xmlns:dc="http://purl.org/dc/elements/1.1/"
   xmlns:cc="http://creativecommons.org/ns#"
   xmlns:rdf="http://www.w3.org/1999/02/22-rdf-syntax-ns#"
   xmlns:svg="http://www.w3.org/2000/svg"
   xmlns="http://www.w3.org/2000/svg"
   xmlns:xlink="http://www.w3.org/1999/xlink"
   xmlns:inkscape="http://www.inkscape.org/namespaces/inkscape"
   version="1.1"
   width="740"
   height="520"
   id="svg2"
   style="display:inline;enable-background:new">
  <defs
     id="defs4">
    <filter
       color-interpolation-filters="sRGB"
       id="filter3050">
      <feBlend
         in2="BackgroundImage"
         mode="lighten"
         id="feBlend3052" />
    </filter>
  </defs>
  <metadata
     id="metadata7">
    <rdf:RDF>
      <cc:Work
         rdf:about="">
        <dc:format>image/svg+xml</dc:format>
        <dc:type
           rdf:resource="http://purl.org/dc/dcmitype/StillImage" />
        <dc:title />
      </cc:Work>
    </rdf:RDF>
  </metadata>
  <g
     id="g111"
     style="display:none">
    <image
       xlink:href="pngs/coronal-0885.png"
       id="image113"
       height="520"
       width="740"
       y="0"
       x="0" />
  </g>
  <g
     id="g119"
     style="display:inline">
    <path
       d="M 450.88528,88.504047 C 454.53793,84.506741 468.23539,79.489252 475.95256,74.295436 491.57079,70.917818 507.48189,77.219337 522.21713,81.959694 535.71481,87.912025 549.80528,92.596154 562.77829,99.562005 579.34729,108.98626 595.72345,119.14743 608.94626,133.07448 622.54949,144.84378 635.92054,156.73367 648.44662,169.49396 656.01747,178.33434 663.40486,187.65365 668.17899,198.30322 672.15098,210.18113 662.04477,222.77651 669.33643,234.14492 674.98574,245.87449 677.88561,258.30632 678.57014,271.34623 677.19421,283.42651 672.18303,294.83512 668.8885,306.42932 661.90713,315.47359 654.16,324.98702 644.31477,330.92458 632.54806,335.70423 619.8097,335.49401 607.55708,337.7234 597.91343,342.88409 584.51146,344.51881 578.87289,332.89193 573.0481,321.3111 565.54626,311.13978 564.97021,297.72635 561.57807,284.39938 555.75645,271.8605 550.96452,258.93936 547.16723,245.63 541.74989,232.84409 538.10394,219.47681 536.04428,207.62407 531.79375,196.37574 524.96208,186.33522 518.40853,175.82882 514.02723,164.2252 507.26621,153.81831 500.78373,138.96219 489.00546,127.16726 476.53343,117.1489 467.33507,109.0786 460.05114,98.747621 451.66072,89.775943 449.53926,85.151178 453.49968,95.60603 450.88528,88.504047 z"
       inkscape:connector-curvature="0"
       id="path2986"
       style="fill:none;stroke:#e20000;stroke-opacity:1" />
    <path
       d="M 546.55615,248.73896 C 552.90347,218.22834 557.67421,179.35252 584.70075,175.42864 596.43166,175.35034 606.608,181.8485 617.71742,184.58174 623.57972,186.49555 628.50112,190.38623 634.04312,193.01755 643.30519,197.76991 668.57413,225.14115 666.76137,220.70835"
       inkscape:connector-curvature="0"
       id="path3763"
       style="fill:none;stroke:#0000e9;stroke-width:1;stroke-miterlimit:4;stroke-opacity:1;stroke-dasharray:none;stroke-dashoffset:0" />
    <path
       d="M 611.18398,182.35255 C 615.59753,169.76648 628.26957,165.43891 638.00233,158.17206"
       inkscape:connector-curvature="0"
       id="path3768"
       style="fill:none;stroke:#0000e9;stroke-width:1;stroke-miterlimit:4;stroke-opacity:1;stroke-dasharray:none;stroke-dashoffset:0" />
    <path
       d="M 613.82185,184.11113 C 639.03874,174.60066 648.66133,186.9312 663.29755,188.97847"
       inkscape:connector-curvature="0"
       id="path3772"
       style="fill:none;stroke:#0000e9;stroke-width:1;stroke-miterlimit:4;stroke-opacity:1;stroke-dasharray:none;stroke-dashoffset:0" />
    <path
       d="M 520.95304,179.2467 C 544.39808,170.15875 578.30691,164.41069 596.71416,173.23078 599.62131,175.17995 605.20317,177.80228 604.6544,180.32747"
       inkscape:connector-curvature="0"
       id="path3776"
       style="fill:none;stroke:#0000e9;stroke-width:1;stroke-miterlimit:4;stroke-opacity:1;stroke-dasharray:none;stroke-dashoffset:0" />
    <path
       d="M 494.51148,132.22029 C 499.64756,130.63224 501.87899,131.27622 507.88602,132.09062 514.19864,132.37591 520.61156,136.17929 525.58979,140.02316 530.16142,144.51447 544.12062,151.09358 549.88133,154.04241 557.92573,158.00597 561.46084,154.52257 569.70929,157.73822 579.625,155.12484 604.24504,172.38538 599.77608,176.19831"
       inkscape:connector-curvature="0"
       id="path3780"
       style="fill:none;stroke:#0000e9;stroke-width:1;stroke-miterlimit:4;stroke-opacity:1;stroke-dasharray:none;stroke-dashoffset:0" />
    <path
       d="M 537.61238,148.04729 C 558.55342,139.08093 590.44098,140.48872 615.69626,139.07227"
       inkscape:connector-curvature="0"
       id="path127"
       style="fill:none;stroke:#0000e9;stroke-width:1;stroke-miterlimit:4;stroke-opacity:1;stroke-dasharray:none;stroke-dashoffset:0" />
    <path
       d="M 499.64288,131.16782 C 508.63261,104.13364 486.08654,80.590003 476.2127,73.760201"
       inkscape:connector-curvature="0"
       id="path3786"
       style="fill:none;stroke:#0000e9;stroke-width:1;stroke-miterlimit:4;stroke-opacity:1;stroke-dasharray:none;stroke-dashoffset:0" />
    <path
       d="M 586.36676,175.68714 C 594.69048,176.24574 602.42476,179.65398 610.2265,182.35154 611.60539,182.80755 613.06464,183.56987 614.26788,184.16823 617.35704,183.99306 620.09786,185.93621 622.84628,187.0985 631.07716,191.34232 639.17936,196.03643 645.8762,202.51586 652.71248,208.75837 659.39273,215.20568 666.22305,221.36649 666.91173,223.12791 666.03067,225.15824 666.6505,226.9914 667.80126,233.11768 671.55081,238.4755 673.31491,244.43932 676.23346,253.27919 678.08599,262.55876 678.26949,271.88385 676.84327,283.21537 672.44817,293.88872 669.1958,304.7687 667.48091,308.79222 664.11276,311.84898 661.46581,315.26481 656.22017,321.25184 650.56326,327.29237 643.3727,330.93393 634.04163,334.86987 623.72407,335.1749 613.81264,336.62418 609.90171,336.98793 606.14241,337.98222 602.60109,339.6485 596.04225,342.30985 587.56829,342.44732 582.20879,337.23582 578.64804,333.13082 576.60925,327.95371 573.95841,323.25372 569.92044,315.50805 565.79551,307.5085 565.1689,298.63862 563.01646,288.62263 558.90139,279.11226 555.29163,269.515 552.26758,261.85248 549.44902,254.09924 547.21581,246.17828 550.87222,229.29562 553.32938,211.85928 560.73039,196.11058 564.89483,187.30286 571.71067,178.86812 581.50932,176.28946 583.08673,175.84159 584.72397,175.61513 586.36676,175.68714 z"
       inkscape:connector-curvature="0"
       id="path6082"
       style="fill:#9681a3;stroke:none" />
    <path
       d="M 484.86573,73.61293 C 496.86712,73.60026 508.31427,77.585562 519.53812,81.336257 529.16901,84.887278 538.62409,88.937984 548.09986,92.8581 563.28667,99.346961 577.47959,107.99529 590.87446,117.62132 599.08749,123.53015 606.25232,130.77571 613.61699,137.63397 614.43292,139.12009 611.8974,138.99133 611.05299,139.0833 591.55502,140.11998 571.79663,139.61192 552.58177,143.44398 547.5853,144.37623 542.75863,145.96676 537.98667,147.60143 532.03666,144.89973 526.87641,140.65621 521.50894,137.01536 516.79722,133.83278 511.31253,131.97062 505.63774,131.62749 503.90008,131.1833 501.672,131.61629 500.23466,130.43524 500.44242,127.98891 501.50752,125.53614 501.53651,123.00474 502.32142,115.01615 500.97929,106.90672 497.50478,99.668229 493.10581,89.980683 486.30507,81.4782 478.0556,74.837004 477.77298,73.233133 480.63574,73.983865 481.78568,73.65488 482.81106,73.60146 483.83925,73.59779 484.86573,73.61293 z"
       inkscape:connector-curvature="0"
       id="path6084"
       style="fill:#a6a5bc;stroke:none" />
    <path
       d="M 476.62751,74.632992 C 479.28089,75.782329 481.19941,78.264539 483.36964,80.141327 493.1379,89.939152 500.75091,102.81003 501.48788,116.89271 501.65112,121.62164 501.078,126.52288 499.45291,130.90887 497.73264,131.56516 495.50207,131.3617 494.056,132.68909 492.27359,132.01627 491.25877,129.9662 489.75231,128.81286 482.7059,121.51031 474.24138,115.68712 467.68777,107.89713 462.39882,101.80237 456.97107,95.787934 451.91287,89.516183 450.811,87.921505 453.26729,86.943607 454.26921,86.239556 461.33254,82.200022 468.7614,78.724569 475.81146,74.759285 476.07224,74.673145 476.35042,74.594123 476.62751,74.632992 z"
       inkscape:connector-curvature="0"
       id="path6086"
       style="fill:#a36ed8;stroke:none" />
    <path
       d="M 500.42896,131.41645 C 506.75796,132.0476 513.49334,132.40001 518.99409,135.88529 525.04334,139.61096 530.41342,144.31236 536.7907,147.47671 542.49391,150.3363 548.06546,153.80291 554.15223,155.68421 559.02405,156.57944 564.1208,156.18359 568.94799,157.50089 572.55918,157.72749 576.22678,157.87634 579.58578,159.38558 587.10254,162.35994 594.29874,166.84519 599.4527,173.14184 599.4372,174.69086 597.47977,173.36095 596.7131,173.14184 586.06951,168.14782 573.85084,168.46382 562.35547,169.29239 548.87517,170.43179 535.74752,173.83169 523.01605,178.29073 521.95108,178.95192 520.74316,178.65858 520.33577,177.40495 515.80858,169.27289 511.80397,160.81397 507.04212,152.81716 503.75408,145.98545 499.51219,139.65948 494.60549,133.88966 493.60186,133.05715 494.58589,132.10268 495.63953,132.12563 497.21154,131.76498 498.79621,131.37188 500.42896,131.41645 z"
       inkscape:connector-curvature="0"
       id="path6088"
       style="fill:#cce198;stroke:none" />
    <path
       d="M 573.854,169.05188 C 582.2074,169.23999 590.96356,170.15957 598.29663,174.45335 599.48133,175.72761 601.15155,176.13278 602.48374,177.21237 603.3201,177.57695 603.6507,179.27991 602.33802,178.9902 595.20947,176.82118 587.46203,173.92996 580.03048,176.36245 572.98286,178.56518 567.52916,184.14917 563.54524,190.22087 555.46261,203.3087 552.69182,218.81067 549.41137,233.66552 548.69352,236.80371 548.26601,240.0603 547.1478,243.07924 545.8203,243.78102 545.69093,241.3993 545.18803,240.68187 541.67982,231.02482 538.66142,221.1718 536.38372,211.14644 533.92649,201.71263 529.55537,192.86121 524.25218,184.69461 523.43457,182.93194 521.81453,181.34561 521.5491,179.42737 524.38529,177.71847 527.85951,177.14359 530.98407,176.01974 544.83823,171.76975 559.30701,168.96532 573.854,169.05188 z"
       inkscape:connector-curvature="0"
       id="path6090"
       style="fill:#7786bc;stroke:none" />
    <path
       d="M 615.74455,139.25635 C 622.56226,145.48658 629.76246,151.37573 636.13607,158.03521 637.01672,159.62865 634.31855,160.15982 633.51325,161.00025 625.70462,166.03318 616.8845,170.67365 612.36377,179.13592 611.73097,180.28781 611.23402,182.96045 609.36763,181.69785 607.90697,180.92656 605.63823,180.88229 604.76674,179.34965 603.92362,177.24129 601.42719,176.56683 600.40476,174.63793 599.21761,170.86751 595.61775,168.53645 592.67171,166.14713 586.59024,161.89941 579.79667,158.02923 572.28019,157.31631 568.87329,157.82505 565.68374,156.03186 562.2656,156.15668 557.83335,156.01892 553.26786,155.72587 549.3245,153.48231 546.04992,151.78349 542.45609,150.46185 539.53134,148.2329 539.60154,146.83636 541.70917,146.96824 542.6738,146.39892 560.3764,140.68087 579.25288,140.71562 597.6741,139.90679 603.69218,139.78385 609.77675,139.43004 615.74455,139.25635 z"
       inkscape:connector-curvature="0"
       id="path6092"
       style="fill:#dad3b7;stroke:none" />
    <path
       d="M 637.74874,159.18156 C 646.59311,167.82242 655.19815,176.82153 661.82221,187.31585 662.24652,188.81541 660.08516,188.31136 659.33682,187.96126 649.98283,185.22539 641.08364,180.05566 631.04551,180.49093 625.69359,180.46233 620.52371,181.82448 615.42395,183.21617 614.1342,183.45325 611.41011,183.29247 611.83917,181.4092 614.79615,173.09414 622.85484,168.40862 629.83042,163.7802 632.42556,162.26418 634.85327,160.29212 637.55444,159.06498 L 637.74874,159.18156 z"
       inkscape:connector-curvature="0"
       id="path6094"
       style="fill:#c1dfbe;stroke:none" />
    <path
       d="M 632.38613,180.84574 C 642.82758,180.88384 652.01063,186.83945 661.98588,188.86412 663.96742,189.10744 664.18718,191.715 665.30939,193.06447 667.80952,197.08513 669.43681,201.79089 668.75091,206.57789 668.18851,211.07422 667.91067,215.70508 666.62135,220.04526 665.52515,221.00414 664.51533,218.97023 663.61483,218.48196 654.56137,210.37942 646.18034,201.52057 636.40809,194.32027 630.31532,190.55313 623.94964,187.18265 617.52237,184.11965 616.97835,182.67822 619.29145,182.68148 620.15413,182.29987 624.13218,181.21957 628.25509,180.72957 632.38613,180.84574 z"
       inkscape:connector-curvature="0"
       id="path6096"
       style="fill:#9b7d71;stroke:none" />
  </g>
</svg>
