<?xml version="1.0" encoding="UTF-8" standalone="no"?>
<!-- Created with Inkscape (http://www.inkscape.org/) -->

<svg
   xmlns:dc="http://purl.org/dc/elements/1.1/"
   xmlns:cc="http://creativecommons.org/ns#"
   xmlns:rdf="http://www.w3.org/1999/02/22-rdf-syntax-ns#"
   xmlns:svg="http://www.w3.org/2000/svg"
   xmlns="http://www.w3.org/2000/svg"
   xmlns:xlink="http://www.w3.org/1999/xlink"
   xmlns:inkscape="http://www.inkscape.org/namespaces/inkscape"
   version="1.1"
   width="740"
   height="520"
   id="svg2"
   style="display:inline;enable-background:new">
  <defs
     id="defs4">
    <filter
       color-interpolation-filters="sRGB"
       id="filter3050">
      <feBlend
         in2="BackgroundImage"
         mode="lighten"
         id="feBlend3052" />
    </filter>
  </defs>
  <metadata
     id="metadata7">
    <rdf:RDF>
      <cc:Work
         rdf:about="">
        <dc:format>image/svg+xml</dc:format>
        <dc:type
           rdf:resource="http://purl.org/dc/dcmitype/StillImage" />
        <dc:title />
      </cc:Work>
    </rdf:RDF>
  </metadata>
  <g
     id="g2506"
     style="display:none">
    <image
       xlink:href="pngs/coronal-0661.png"
       id="image2508"
       height="520"
       width="740"
       y="0"
       x="0" />
  </g>
  <g
     id="g2514"
     style="display:inline">
    <path
       d="M 493.78617,366.42723 C 493.17303,366.34803 492.75102,376.30312 488.81215,381.34928 487.6708,385.31904 484.8878,388.60175 483.83814,392.54082 480.71327,399.09329 480.10846,407.80999 483.21639,414.30214 485.30461,416.74087 488.12568,420.35592 490.05566,422.38492 493.8478,424.68083 498.02441,427.29817 503.11245,429.22419 510.68521,433.31607 515.65182,437.19408 524.25202,439.17223 532.60344,442.14451 541.30254,445.12314 549.74386,447.87676 559.17933,450.28631 570.33009,451.64928 579.58796,452.85077 587.0717,453.55231 592.23238,450.92739 596.99702,446.0115 599.49407,444.59579 600.60943,442.08753 603.21454,440.41573 606.00103,437.84218 608.91116,435.63453 611.29732,432.33295 613.15219,429.35474 614.51197,427.12581 616.89309,424.87193 618.82971,422.26987 621.26609,419.52843 623.73236,415.54565 625.22672,410.09011 628.23639,405.78168 630.57163,401.8671 633.70828,398.67589 634.99853,393.0028 637.4109,388.18856 638.12644,383.49367 641.94485,379.21981 643.62843,375.75351 646.84735,370.96891 647.81534,367.4523 651.08945,360.83146 652.74709,356.09622 655.05547,351.70149 656.06347,346.53117 658.42352,341.06002 659.17749,337.0076 662.28099,331.60912 665.43798,326.55538 668.6351,321.8215 674.09428,319.17407 676.66268,316.0026 679.34976,314.56518 680.3118,310.46954 683.3105,307.24852 684.27376,303.05461 686.52932,300.52151 689.11393,293.99438 691.4864,289.2872 690.88159,280.62544 692.42317,268.50864 690.00402,255.90114 688.39458,244.25295 687.2467,235.44073 684.05242,227.47618 683.42056,218.45023 680.59301,210.23098 682.61021,199.08757 678.44654,191.71489 674.79457,181.86739 665.74553,172.33699 661.03748,162.49255 658.18474,158.05429 655.1574,153.53479 652.95471,150.0575 647.75586,144.4822 641.23584,135.54348 635.54565,128.91793 628.85933,122.11043 621.3886,114.56637 615.09168,107.73452 609.20513,103.402 603.31737,97.965012 596.37527,94.099815 591.4864,92.447286 584.83449,87.738015 580.29686,86.136378 575.60403,83.543063 569.68748,81.074977 565.90941,79.177765 560.03091,76.412066 555.94803,74.537551 549.12211,72.960244 542.1087,69.180508 537.83038,68.690053 529.84779,64.877467 522.84883,63.216354 518.86394,61.266614 512.43873,59.281698 504.50666,57.6492 497.6917,55.467655 490.05566,53.685929 480.73705,52.259597 471.68618,50.186828 462.38769,48.711913 451.10628,46.923292 439.79501,44.906387 427.88045,44.9814 417.62986,42.621471 403.15377,43.260764 394.92759,46.846656 389.69566,47.356556 385.18665,52.135756 380.62729,53.685929 377.85558,56.668997 374.86481,57.771544 373.16626,60.525202 369.15869,63.81851 368.59653,72.251572 367.53277,78.866889 369.32387,88.038136 366.98415,97.433432 368.19225,106.56767 367.71995,114.97307 368.70547,119.79913 368.7828,127.62657 367.02869,137.13838 379.33019,135.91829 383.73605,132.64845 387.16246,128.59955 394.91886,128.34555 396.79284,123.94392 399.93937,121.72114 401.23405,119.56079 403.18523,117.31837 405.00767,114.87436 407.18544,112.03209 409.84964,110.26537 412.1877,105.67874 421.27162,105.86416 426.01519,108.40011 432.83395,114.03906 445.53424,109.48331 453.99404,112.75238 464.68823,112.5115 472.9653,115.0269 481.97288,117.10464 487.54342,119.81145 492.94773,121.77379 498.76019,125.18742 505.57818,126.95087 510.30098,131.9322 515.54749,134.5137 519.23069,137.02029 521.84511,139.22524 524.87378,141.35297 530.3096,145.83197 531.16178,147.9748 537.93057,153.16626 546.36034,159.65816 553.84455,168.17509 562.80065,174.30584 574.52328,184.03088 585.87094,195.22201 596.08463,207.18887 598.66951,213.38664 601.64568,217.00004 603.83629,222.8025 605.83841,225.5552 607.9152,230.98496 610.05381,235.23754 612.21869,240.29584 614.98736,246.28511 615.64958,252.6466 619.46568,263.11835 618.34115,276.25695 616.89309,287.46472 614.84905,293.61896 613.98743,301.71374 611.29732,307.36078 610.33188,312.51919 606.55933,316.09966 605.79985,321.85412 604.61427,332.90338 604.05953,343.35247 602.59279,353.99219 600.32156,358.45509 599.51555,364.05353 596.37527,368.91424 596.45427,369.45588 593.53773,373.98044 595.13176,370.7795"
       inkscape:connector-curvature="0"
       id="path2516"
       style="fill:none;stroke:#e20000;stroke-opacity:1" />
    <path
       d="M 368.814,151.92276 C 374.2655,152.02352 365.01786,151.70037 373.78802,151.92276 378.08381,148.79259 381.57383,148.93926 385.60131,146.32699 390.66703,144.92225 390.00932,142.12272 394.30584,139.48772 398.45809,135.79862 406.01596,134.46608 411.09314,131.40494 415.92379,127.57173 417.45164,126.95302 421.04118,124.56567 425.73387,123.54316 430.2526,120.20606 435.96323,119.59165 441.16574,117.96316 447.42351,119.52485 453.07029,118.90161 462.13637,119.72782 470.92586,121.53484 479.48587,123.94392 483.63444,126.28405 490.10762,129.38788 490.96201,130.82834 496.89735,134.31594 501.28576,137.17193 506.49719,141.28629 509.26649,142.66064 517.03728,150.25814 521.76501,153.78802 525.71976,159.16682 533.20194,163.51034 537.93057,166.22306 539.89383,168.70718 547.17908,172.00841 550.98736,176.79284 556.62944,179.00947 559.523,184.90754 564.66591,187.98438 567.41951,191.06335 571.83711,194.03284 574.61394,196.68891 577.0315,199.23019 579.86958,203.73598 582.1375,204.38556 585.52199,209.91963 587.0469,211.08209 590.04019,215.22391 593.14952,217.68899 595.59393,222.85466 598.24052,226.53301 600.71713,230.7685 603.76152,234.91406 605.70155,239.58981 608.79293,244.38685 610.90218,250.30036 612.54082,256.06623 614.03696,262.42443 616.27796,269.66221 614.26619,276.51411 614.28729,282.62383 612.5087,288.71288 610.67556,293.68224 608.62932,298.77114 606.83737,303.08824 604.45804,307.36078 603.58784,311.50527 601.3522,312.33976 600.20408,316.25835 598.93552,323.42678 599.53175,312.00752 600.6325,319.96147 600.15649,328.03614 600.18872,336.56949 598.87392,344.36177 598.39859,350.71651 596.76525,356.23552 595.35675,361.28811 593.92888,364.58552 593.86988,372.93953 591.83959,374.03782"
       inkscape:connector-curvature="0"
       id="path2518"
       style="opacity:0.6;fill:none;stroke:#e20000;stroke-opacity:1" />
    <path
       d="M 419.11343,106.45942 370.67926,62.390459"
       inkscape:connector-curvature="0"
       id="path2520"
       style="opacity:0.6;fill:none;stroke:#e20000;stroke-opacity:1" />
    <path
       d="M 419.79767,105.91311 423.2211,45.31437"
       inkscape:connector-curvature="0"
       id="path2522"
       style="opacity:0.6;fill:none;stroke:#e20000;stroke-opacity:1" />
    <path
       d="M 432.85447,110.88712 C 432.85447,110.05812 432.85447,109.22912 432.85447,110.88712 z"
       inkscape:connector-curvature="0"
       id="path2524"
       style="opacity:0.6;fill:none;stroke:#e20000;stroke-opacity:1" />
    <path
       d="M 432.33939,111.32677 435.56777,45.86069"
       inkscape:connector-curvature="0"
       id="path2526"
       style="opacity:0.6;fill:none;stroke:#e20000;stroke-opacity:1" />
    <path
       d="M 440.60427,112.13063 448.39827,46.224904"
       inkscape:connector-curvature="0"
       id="path2528"
       style="opacity:0.6;fill:none;stroke:#e20000;stroke-opacity:1" />
    <path
       d="M 512.26383,58.812267 491.16086,119.92294"
       inkscape:connector-curvature="0"
       id="path2530"
       style="fill:none;stroke:#0000e9;stroke-width:0.99000001;stroke-miterlimit:4;stroke-opacity:1;stroke-dasharray:none;stroke-dashoffset:0" />
    <path
       d="M 527.21176,63.648363 503.91057,126.95726"
       inkscape:connector-curvature="0"
       id="path2532"
       style="fill:none;stroke:#0000e9;stroke-width:0.99000001;stroke-miterlimit:4;stroke-opacity:1;stroke-dasharray:none;stroke-dashoffset:0" />
    <path
       d="M 653.82956,151.13774 591.39995,200.378"
       inkscape:connector-curvature="0"
       id="path2534"
       style="fill:none;stroke:#0000e9;stroke-width:0.99000001;stroke-miterlimit:4;stroke-opacity:1;stroke-dasharray:none;stroke-dashoffset:0" />
    <path
       d="M 668.33785,173.55964 601.07214,214.88629"
       inkscape:connector-curvature="0"
       id="path2536"
       style="fill:none;stroke:#0000e9;stroke-width:0.99000001;stroke-miterlimit:4;stroke-opacity:1;stroke-dasharray:none;stroke-dashoffset:0" />
    <path
       d="M 617.77866,267.6437 691.19939,261.04902"
       inkscape:connector-curvature="0"
       id="path2538"
       style="fill:none;stroke:#0000e9;stroke-width:0.99000001;stroke-miterlimit:4;stroke-opacity:1;stroke-dasharray:none;stroke-dashoffset:0" />
    <path
       d="M 611.62362,304.57389 678.44968,313.80644"
       inkscape:connector-curvature="0"
       id="path2540"
       style="fill:none;stroke:#0000e9;stroke-width:0.99000001;stroke-miterlimit:4;stroke-opacity:1;stroke-dasharray:none;stroke-dashoffset:0" />
    <path
       d="M 604.5893,337.54727 656.02778,348.5384"
       inkscape:connector-curvature="0"
       id="path2542"
       style="fill:none;stroke:#0000e9;stroke-width:0.99000001;stroke-miterlimit:4;stroke-opacity:1;stroke-dasharray:none;stroke-dashoffset:0" />
    <path
       d="M 617.33901,341.06444 C 616.63885,343.49715 616.67295,346.10262 615.84721,348.46534 615.07738,351.70234 614.55604,354.98017 613.52706,358.15006 613.21087,361.24546 611.36899,363.24987 609.71749,365.75476 607.82376,368.63303 605.37352,371.17169 604.10697,374.47824 602.86181,377.92035 601.75701,381.48016 599.68083,384.56811 598.29557,387.09961 597.11385,389.9288 594.73476,391.45575 592.86634,393.28886 591.02812,394.42903 589.09577,396.16635 586.66537,397.76159 584.52141,399.63937 582.60705,401.73546 580.69863,402.92341 579.26375,404.87196 577.70979,406.79267 575.80666,409.02658 574.42234,411.86614 573.53308,414.77161 573.53296,416.16892 572.68076,420.3138 572.8961,419.88449 572.8981,419.37427 573.00224,418.82253 573.3745,418.44198"
       inkscape:connector-curvature="0"
       id="path2544"
       style="fill:none;stroke:#0000e9;stroke-width:0.99000001;stroke-miterlimit:4;stroke-opacity:1;stroke-dasharray:none;stroke-dashoffset:0" />
    <path
       d="M 554.46976,448.33785 C 572.44498,393.64906 582.8993,432.54814 583.04669,451.41536"
       inkscape:connector-curvature="0"
       id="path2546"
       style="fill:none;stroke:#0000e9;stroke-width:0.99000001;stroke-miterlimit:4;stroke-opacity:1;stroke-dasharray:none;stroke-dashoffset:0" />
    <path
       d="M 499.51412,426.79523 C 518.17459,394.13273 531.189,321.72942 493.87417,367.47439"
       inkscape:connector-curvature="0"
       id="path2548"
       style="fill:none;stroke:#0000e9;stroke-width:0.99000001;stroke-miterlimit:4;stroke-opacity:1;stroke-dasharray:none;stroke-dashoffset:0" />
    <path
       d="M 507.42773,407.45085 C 508.224,408.30867 510.00289,407.85219 508.22652,407.21225 506.06116,407.25605 507.9426,411.23007 509.16728,408.54449 511.3604,408.66116 513.40889,409.34438 515.49975,410.5352 517.72996,411.30001 519.21762,413.09095 521.05673,414.48519 522.84225,415.87291 524.58855,417.46551 526.88633,417.89688 529.47602,418.83649 532.28345,418.53237 534.97145,418.5567 537.11024,417.77205 539.3595,418.41983 541.44236,417.80244 542.76034,417.44286 543.46692,418.21927 544.6643,417.43794 546.68858,417.8385 548.71171,418.19696 550.74544,418.53886 552.72103,418.26605 554.33565,419.84587 556.22834,419.76093 557.81145,420.80032 559.93668,421.55994 561.5832,422.46092 562.35622,423.20051 564.3351,424.12678 564.73246,424.62203 564.2421,424.59943 563.75328,424.54973 563.26269,424.59703"
       inkscape:connector-curvature="0"
       id="path2550"
       style="fill:none;stroke:#0000e9;stroke-width:0.99000001;stroke-miterlimit:4;stroke-opacity:1;stroke-dasharray:none;stroke-dashoffset:0" />
    <path
       d="M 544.35792,417.12304 532.4875,441.74317"
       inkscape:connector-curvature="0"
       id="path2552"
       style="fill:none;stroke:#0000e9;stroke-width:0.99000001;stroke-miterlimit:4;stroke-opacity:1;stroke-dasharray:none;stroke-dashoffset:0" />
    <path
       d="M 512.17682,353.21535 C 517.34696,354.18506 517.16932,360.76903 517.24799,364.8732 516.77613,379.3403 513.18313,393.73777 507.5914,407.01633 506.41975,408.4331 507.17523,410.58873 505.9593,412.20408 504.05556,417.17952 501.72824,421.9813 499.04231,426.58209 493.51566,425.27536 488.98421,420.46082 485.3249,416.10946 480.34601,410.47228 481.36558,401.97478 483.26535,395.26133 486.53957,386.38499 491.60087,378.14421 493.67969,368.8563 497.36437,363.37867 502.50128,358.8086 507.68855,354.78916 509.03082,353.93989 510.54149,353.11794 512.17682,353.21535 z"
       inkscape:connector-curvature="0"
       id="path2554"
       style="fill:#bac5a9;stroke:none" />
    <path
       d="M 511.22476,409.3479 C 518.87775,411.10127 523.78576,419.77635 532.28661,418.82962 535.61181,419.21274 539.56176,417.47381 542.54552,419.02392 540.8822,424.54971 537.56002,429.84407 535.21447,435.24041 533.78883,436.89 533.62719,440.72744 531.25684,441.05726 520.25671,438.08123 509.58882,433.44704 500.36353,426.73753 502.23187,421.51714 505.21792,416.15835 507.49425,410.90228 508.30248,409.65876 509.78495,409.11205 511.22476,409.3479 z"
       inkscape:connector-curvature="0"
       id="path2556"
       style="fill:#82c1d2;stroke:none" />
    <path
       d="M 546.3149,417.99414 C 552.2223,419.13487 558.47383,420.6948 563.33536,424.34767 563.54796,427.898 560.57218,431.16213 559.46884,434.50943 557.04319,438.76356 556.47375,444.02028 553.65934,447.97425 549.7167,448.2379 545.83376,445.68048 541.96512,444.85065 539.47817,443.53687 535.69608,443.65724 533.86042,441.50414 534.68353,436.02395 538.37047,431.224 540.4081,426.08802 542.21811,423.69529 542.47151,419.51132 545.14911,417.99414 545.53434,417.96094 545.92914,417.92794 546.3149,417.99414 z"
       inkscape:connector-curvature="0"
       id="path2558"
       style="fill:#9eae8b;stroke:none" />
    <path
       d="M 571.92331,420.86975 C 577.44637,422.71723 579.02899,429.57482 580.35582,434.62601 581.44184,440.36336 583.39995,446.63745 582.11174,452.26099 573.33233,452.15513 564.44978,450.49244 555.81604,448.80973 554.72131,446.03143 557.31866,442.85614 557.85617,440.1052 560.18914,435.19438 561.68543,429.42905 565.4532,425.43574 566.39107,424.10256 567.21108,422.32599 569.06714,421.70522 569.9525,421.27823 570.90816,420.76676 571.92331,420.86975 z"
       inkscape:connector-curvature="0"
       id="path2560"
       style="fill:#82c1d2;stroke:none" />
    <path
       d="M 618.53529,340.91631 C 630.54485,343.43716 642.68524,345.73923 654.53862,348.76593 654.70353,352.69871 652.02265,356.47419 650.84697,360.21006 646.59596,371.50045 638.97013,381.08834 635.10887,392.54117 631.67103,400.41559 626.62208,407.42761 622.94584,415.21569 618.8172,422.14843 613.68278,428.51547 608.53029,434.69018 602.14867,440.69425 596.01705,447.63241 588.08886,451.5299 586.32413,452.74513 583.11078,452.69982 583.40629,449.80065 582.15183,440.28143 581.70636,429.43945 575.22637,421.74408 571.39546,417.97622 574.86323,412.16192 577.09162,408.49299 584.11423,398.31328 597.13083,393.39732 601.72855,381.42735 604.2684,373.73051 609.39859,367.30918 613.46362,360.47759 614.91547,354.07296 616.27687,347.64445 617.83582,341.26605 617.95309,340.97101 618.27047,340.83698 618.53529,340.91631 z"
       inkscape:connector-curvature="0"
       id="path2562"
       style="fill:#d5be93;stroke:none" />
    <path
       d="M 613.81386,305.24329 C 634.79451,308.07618 655.92661,310.81478 676.78569,314.37527 677.08801,316.83316 673.38066,318.11418 672.08369,319.87389 663.89327,326.47323 659.16077,335.94591 655.95699,345.85147 655.46291,349.55915 651.39117,346.76581 649.18385,346.74862 634.52443,343.61564 619.85139,340.52358 605.24534,337.16637 604.19729,333.69671 605.82266,329.55605 605.83772,325.89367 605.81472,319.95644 608.71159,314.8542 610.96399,309.5775 611.71894,308.23645 611.72911,305.12587 613.81386,305.24329 z"
       inkscape:connector-curvature="0"
       id="path2564"
       style="fill:#9b7d71;stroke:none" />
    <path
       d="M 690.07564,261.87608 C 691.47613,264.60656 690.41597,268.47334 690.79454,271.59095 691.07451,282.19655 690.5711,293.35875 684.75189,302.54255 682.53857,306.15105 680.73034,310.28342 678.04862,313.42321 656.66471,310.26864 635.07546,307.9907 613.83329,304.17465 613.48177,298.98045 616.06499,293.76068 616.73903,288.55785 618.13682,281.9677 618.29749,275.21559 618.45757,268.48219 623.67759,266.72678 629.86127,267.10544 635.45601,266.28822 653.65052,264.73507 671.85583,262.90569 690.07564,261.87608 z"
       inkscape:connector-curvature="0"
       id="path2566"
       style="fill:#c1dfbe;stroke:none" />
    <path
       d="M 667.59541,174.85021 C 671.99624,179.34729 674.81412,185.48501 677.69889,191.11292 682.01861,200.41213 680.97845,211.01906 683.31408,220.84044 685.59097,233.95345 689.29054,246.97898 689.90077,260.28284 682.93811,261.89983 675.25563,261.89538 668.0281,262.84498 651.60522,264.26122 635.20838,266.1414 618.74901,267.04439 617.79706,264.29148 618.34955,260.76745 617.31121,257.75697 614.88849,242.76502 607.53386,229.40911 601.00965,215.88585 604.71588,212.36462 610.11351,210.14904 614.45356,207.11709 632.11524,196.36085 649.68509,185.35215 667.43997,174.81135 L 667.59541,174.85025 z"
       inkscape:connector-curvature="0"
       id="path2568"
       style="fill:#e19179;stroke:none" />
    <path
       d="M 653.91687,152.42828 C 658.75271,159.00078 662.52774,166.42438 666.9348,173.33469 663.98131,176.6154 659.01694,178.42604 655.30276,181.14246 637.13008,192.09721 619.30129,203.80342 600.81535,214.1566 597.72976,211.6286 597.08815,206.9246 593.93722,204.26686 592.60106,202.94399 590.05745,200.66634 593.10019,199.50512 613.20718,183.71515 633.18034,167.63274 653.56713,152.27284 L 653.91687,152.42828 z"
       inkscape:connector-curvature="0"
       id="path2570"
       style="fill:#70bb86;stroke:none" />
    <path
       d="M 527.79834,64.741804 C 539.3533,69.380793 551.11383,73.542675 562.65532,78.206623 577.95841,85.258254 593.56176,92.270578 607.26603,102.14408 624.00652,116.22014 638.7806,132.63935 652.03218,150.03842 653.74348,152.74331 648.84618,153.70199 647.71252,155.48837 628.87922,170.29434 610.20881,185.33218 591.11991,199.79802 588.28889,198.85492 586.43914,195.48816 584.03033,193.64107 573.93025,183.02311 562.56333,173.88687 551.41109,164.42637 541.62736,156.09366 532.39453,147.17023 522.4163,139.1189 516.78633,134.54614 510.05034,131.26179 504.57979,126.781 511.92004,106.13247 519.4346,85.521243 527.17659,65.01382 527.30318,64.768885 527.56949,64.67678 527.79834,64.741804 z"
       inkscape:connector-curvature="0"
       id="path2572"
       style="fill:#7edfd0;stroke:none" />
    <path
       d="M 519.44355,62.021638 C 522.2356,63.308084 528.69675,63.295492 525.31654,67.779601 518.06346,87.269317 511.17225,106.91949 503.55001,126.2564 500.53082,126.60957 497.68305,123.74612 494.90377,122.6619 493.06229,121.75038 490.23085,120.44261 492.19925,118.02744 498.81646,98.722616 505.50472,79.442272 512.17682,60.156382 514.34534,59.62021 517.17009,61.65331 519.44355,62.021638 z"
       inkscape:connector-curvature="0"
       id="path3818"
       style="fill:#bec1ac;stroke:none" />
    <path
       d="M 449.96275,47.274456 C 470.52872,50.179746 491.00952,54.108359 511.12761,59.340332 511.17031,63.175323 508.57335,67.231679 507.62677,71.149633 501.97084,87.449147 496.4574,103.80375 490.62922,120.03888 487.54649,120.10558 484.64949,117.47062 481.48624,116.90153 469.59915,113.11856 457.04707,112.67297 444.81387,111.00405 440.26477,112.34144 441.06473,108.59911 441.67341,105.59627 444.10244,86.235395 446.15258,66.758086 448.66096,47.449324 449.03472,47.175642 449.53586,47.270327 449.96275,47.274456 z"
       inkscape:connector-curvature="0"
       id="path3820"
       style="fill:#b7bfb2;stroke:none" />
    <path
       d="M 440.83077,46.030952 C 442.76672,46.856069 446.34852,45.338903 447.33973,47.546472 446.99428,60.677555 444.56006,73.758921 443.30115,86.855218 442.36759,94.749389 441.43402,102.64356 440.50046,110.53773 438.43908,110.83658 432.07284,112.64819 432.94229,108.61419 433.77075,87.742408 434.46118,66.833656 436.08991,46.011522 437.30208,44.963433 439.34221,46.19484 440.83077,46.030952 z"
       inkscape:connector-curvature="0"
       id="path3822"
       style="fill:#dbc198;stroke:none" />
    <path
       d="M 429.30892,45.176043 C 431.31731,45.742062 436.19437,44.209772 435.04848,47.973539 434.08785,68.298635 433.57791,88.723501 431.81536,108.96392 431.57143,111.90575 428.35817,108.92812 426.97735,108.49761 424.83322,107.14353 421.95976,107.16805 419.96321,105.97174 421.59165,85.798494 422.00008,65.539134 423.69372,45.37034 425.06102,44.264322 427.60991,45.4319 429.30892,45.176043 z"
       inkscape:connector-curvature="0"
       id="path3824"
       style="fill:#b1daa9;stroke:none" />
    <path
       d="M 422.7611,44.398852 C 422.03263,64.307635 420.75784,84.253371 419.45804,104.10648 417.81095,106.17497 415.87421,101.78967 414.32858,101.28917 400.2953,88.658245 385.86561,76.309712 372.36032,63.187424 372.1546,60.376515 376.03707,58.99892 377.48977,56.969903 381.52325,52.939995 386.9167,50.786943 392.01654,48.323224 401.46659,43.870072 412.04341,44.280234 422.23649,43.893679 L 422.68435,44.324952 422.76115,44.398852 z"
       inkscape:connector-curvature="0"
       id="path3826"
       style="fill:#cce198;stroke:none" />
    <path
       d="M 371.894,64.605796 C 387.21929,77.685194 402.2855,91.456921 416.91274,105.25284 417.28378,107.5327 413.63586,106.01978 412.59934,107.52612 403.60882,114.33626 398.05128,125.53603 387.15159,129.99912 382.38773,132.83597 375.89756,136.78526 370.57278,132.94024 367.67289,130.02306 369.49443,125.25891 368.7505,121.59345 368.63716,105.5093 367.41146,89.332458 368.7976,73.297448 369.70722,70.558842 369.06982,66.355765 371.69976,64.586366 L 371.77746,64.586366 371.89404,64.605796 z"
       inkscape:connector-curvature="0"
       id="path3828"
       style="fill:#6d70b9;stroke:none" />
  </g>
</svg>
