<?xml version="1.0" encoding="UTF-8" standalone="no"?>
<!-- Created with Inkscape (http://www.inkscape.org/) -->

<svg
   xmlns:dc="http://purl.org/dc/elements/1.1/"
   xmlns:cc="http://creativecommons.org/ns#"
   xmlns:rdf="http://www.w3.org/1999/02/22-rdf-syntax-ns#"
   xmlns:svg="http://www.w3.org/2000/svg"
   xmlns="http://www.w3.org/2000/svg"
   xmlns:xlink="http://www.w3.org/1999/xlink"
   xmlns:inkscape="http://www.inkscape.org/namespaces/inkscape"
   version="1.1"
   width="740"
   height="520"
   id="svg2"
   style="display:inline;enable-background:new">
  <defs
     id="defs4">
    <filter
       color-interpolation-filters="sRGB"
       id="filter3050">
      <feBlend
         in2="BackgroundImage"
         mode="lighten"
         id="feBlend3052" />
    </filter>
  </defs>
  <metadata
     id="metadata7">
    <rdf:RDF>
      <cc:Work
         rdf:about="">
        <dc:format>image/svg+xml</dc:format>
        <dc:type
           rdf:resource="http://purl.org/dc/dcmitype/StillImage" />
        <dc:title />
      </cc:Work>
    </rdf:RDF>
  </metadata>
  <g
     id="g5348"
     style="display:none">
    <image
       xlink:href="pngs/coronal-0411.png"
       id="image5350"
       height="520"
       width="740"
       y="0"
       x="0" />
  </g>
  <g
     id="g5356"
     style="display:inline">
    <path
       d="M 370.54451,352.12693 368.67926,127.05268 C 368.67926,126.22368 370.67926,125.39467 370.67926,124.56567 370.88651,124.56567 371.15446,124.71222 371.30101,124.56567 371.44756,124.41912 371.20831,124.12929 371.30101,123.94392 371.79841,122.94911 373.29061,122.45171 373.78802,121.45691 374.11977,120.79341 373.45627,120.8769 373.78802,120.2134 374.15015,119.48914 374.66939,119.07241 375.03152,118.34815 375.12422,118.16278 374.93882,117.91177 375.03152,117.72639 375.40457,116.98029 376.52373,116.60724 376.89678,115.86114 376.98948,115.67577 376.75023,115.38593 376.89678,115.23939 378.1832,113.95296 376.84648,117.20522 378.14028,114.61763 378.14028,112.95963 377.93303,114.82489 378.76203,113.99588 378.90858,113.84933 378.61548,113.52068 378.76203,113.37413 378.90858,113.22758 379.23724,113.52068 379.38379,113.37413 379.67688,113.08103 379.09069,112.42372 379.38379,112.13063 379.67688,111.83753 380.33419,112.42372 380.62729,112.13063 380.77384,111.98408 380.48074,111.65542 380.62729,111.50887 380.77384,111.36233 381.10249,111.65542 381.24904,111.50887 381.39559,111.36233 381.10249,111.03367 381.24904,110.88712 381.54214,110.59403 382.19945,111.18022 382.49255,110.88712 382.63909,110.74057 382.346,110.41192 382.49255,110.26537 382.63909,110.11882 382.92893,110.35807 383.1143,110.26537 383.83856,109.90324 384.25529,109.384 384.97955,109.02187 385.16492,108.92917 385.45476,109.16841 385.60131,109.02187 385.74785,108.87532 385.45476,108.54666 385.60131,108.40011 385.8944,108.10702 386.55171,108.69321 386.84481,108.40011 386.99136,108.25357 386.69826,107.92491 386.84481,107.77836 387.13791,107.48526 387.79522,108.07146 388.08831,107.77836 388.08831,106.12036 387.88106,107.98561 388.71007,107.15661 388.85662,107.01006 388.56352,106.68141 388.71007,106.53486 388.85662,106.38831 389.14645,106.62756 389.33182,106.53486 389.85613,106.2727 390.05102,105.55351 390.57532,105.29135 390.76069,105.19865 391.0117,105.38405 391.19708,105.29135 391.94318,104.9183 392.31623,103.79915 393.06233,103.4261 393.2477,103.3334 393.53754,103.57265 393.68408,103.4261 393.83063,103.27955 393.53754,102.95089 393.68408,102.80434 393.83063,102.6578 394.15929,102.95089 394.30584,102.80434 394.45238,102.6578 394.15929,102.32914 394.30584,102.18259 394.45238,102.03604 394.78104,102.32914 394.92759,102.18259 395.07414,102.03604 394.78104,101.70739 394.92759,101.56084 395.07414,101.41429 395.36397,101.65354 395.54934,101.56084 396.07365,101.29869 396.26854,100.57949 396.79284,100.31734 396.97821,100.22464 397.26805,100.46388 397.4146,100.31734 397.56114,100.17079 397.26805,99.842133 397.4146,99.695584 397.70769,99.402488 398.365,99.988681 398.6581,99.695584 398.80465,99.549036 398.51155,99.220381 398.6581,99.073832 398.80465,98.927284 399.09448,99.166522 399.27985,99.073832 400.00411,98.711701 400.42085,98.192459 401.14511,97.830328 401.33048,97.737648 401.62031,97.976876 401.76686,97.830328 401.91341,97.68378 401.62031,97.355124 401.76686,97.208576 402.05996,96.915479 402.71727,97.501673 403.01036,97.208576 403.15691,97.062028 402.86382,96.733372 403.01036,96.586824 403.42505,96.172137 403.83918,97.001511 404.25387,96.586824 404.40042,96.440275 404.10732,96.11162 404.25387,95.965072 404.54697,95.671975 405.12663,96.150442 405.49737,95.965072 405.75953,95.833995 405.85697,95.474396 406.11913,95.34332 406.48987,95.157949 406.99189,95.52869 407.36263,95.34332 407.62478,95.212243 407.72223,94.852644 407.98438,94.721568 408.35512,94.536197 408.93479,95.014664 409.22789,94.721568 409.37443,94.575019 409.08134,94.246364 409.22789,94.099815 409.72414,93.603557 411.68434,94.425968 412.33665,94.099815 412.5988,93.968739 412.69624,93.60914 412.9584,93.478063 413.52837,93.193078 416.5071,93.478063 417.31066,93.478063 418.77731,93.478063 426.47024,93.083834 427.2587,93.478063 427.52085,93.60914 427.61829,93.968739 427.88045,94.099815 428.68789,94.503537 433.05226,93.675862 433.47622,94.099815 433.62277,94.246364 433.32967,94.575019 433.47622,94.721568 433.6408,94.886149 435.08546,94.721568 435.34147,94.721568 436.79959,94.721568 435.04838,94.575019 436.58498,95.34332 437.08238,95.59202 437.95283,95.094619 438.45023,95.34332 439.1745,95.705451 439.59123,96.224693 440.31549,96.586824 440.83315,96.845656 442.40811,96.192439 442.8025,96.586824 442.94905,96.733372 442.65595,97.062028 442.8025,97.208576 443.08991,97.49599 444.29236,97.020877 444.66776,97.208576 445.39202,97.570707 445.80875,98.089949 446.53301,98.45208 447.05067,98.710912 448.62564,98.057695 449.02002,98.45208 449.16657,98.598628 448.87347,98.927284 449.02002,99.073832 449.31312,99.366929 449.89278,98.888462 450.26352,99.073832 450.52568,99.204909 450.62312,99.564507 450.88528,99.695584 451.44139,99.97364 452.16069,99.498969 452.75053,99.695584 453.30664,99.880955 453.46973,100.67693 453.99404,100.93909 454.36478,101.12446 454.8668,100.75372 455.23754,100.93909 455.49969,101.07017 455.58124,101.46816 455.85929,101.56084 456.44914,101.75746 457.16844,101.28278 457.72455,101.56084 457.9867,101.69192 458.08415,102.05152 458.3463,102.18259 458.71704,102.36796 459.21906,101.99722 459.58981,102.18259 462.43532,103.60535 456.95145,101.92489 461.45506,103.4261 461.80671,103.54331 463.0706,103.17638 463.32032,103.4261 463.46687,103.57265 463.17377,103.9013 463.32032,104.04785 463.61341,104.34095 464.19308,103.86248 464.56382,104.04785 464.82598,104.17893 464.92342,104.53852 465.18557,104.6696 465.68298,104.9183 466.55343,104.4209 467.05083,104.6696 467.31298,104.80068 467.41043,105.16028 467.67258,105.29135 468.16998,105.54005 469.04044,105.04265 469.53784,105.29135 469.79999,105.42243 469.89744,105.78203 470.15959,105.91311 470.53033,106.09848 471.11,105.62001 471.4031,105.91311 471.54964,106.05965 471.25655,106.38831 471.4031,106.53486 471.71397,106.84573 472.95748,106.22398 473.26835,106.53486 473.4149,106.68141 473.1218,107.01006 473.26835,107.15661 473.68285,107.57111 475.34086,106.74211 475.75536,107.15661 475.90191,107.30316 475.60881,107.63181 475.75536,107.77836 476.17005,108.19305 476.58418,107.36367 476.99886,107.77836 477.14541,107.92491 476.85232,108.25357 476.99886,108.40011 477.29196,108.69321 477.87163,108.21474 478.24237,108.40011 478.53571,108.54678 479.83844,109.55389 480.10762,109.64362 480.50086,109.77469 480.98039,109.45825 481.35113,109.64362 481.5365,109.73632 481.20458,110.11882 481.35113,110.26537 481.662,110.57625 482.90551,109.95449 483.21639,110.26537 483.36293,110.41192 483.06984,110.74057 483.21639,110.88712 483.50948,111.18022 484.08915,110.70175 484.45989,110.88712 484.72204,111.0182 484.81949,111.3778 485.08164,111.50887 485.26701,111.60157 485.55685,111.36233 485.70339,111.50887 485.84994,111.65542 485.55685,111.98408 485.70339,112.13063 485.99649,112.42372 486.57616,111.94526 486.9469,112.13063 487.67116,112.49276 488.08789,113.012 488.81215,113.37413 489.1829,113.5595 489.68492,113.18876 490.05566,113.37413 490.31781,113.50521 490.41526,113.86481 490.67741,113.99588 490.86278,114.08858 491.11379,113.90318 491.29916,113.99588 491.56132,114.12696 491.65876,114.48656 491.92091,114.61763 492.10629,114.71033 492.3573,114.52493 492.54267,114.61763 492.80482,114.74871 492.90226,115.10831 493.16442,115.23939 493.64968,115.48202 495.16617,115.61851 495.65143,115.86114 495.94477,116.00781 497.2475,117.01492 497.51668,117.10464 497.90991,117.23572 498.36696,116.97357 498.76019,117.10464 499.02937,117.19434 500.3321,118.20148 500.62544,118.34815 500.81081,118.44085 501.06183,118.25545 501.2472,118.34815 501.50935,118.47922 501.60679,118.83882 501.86895,118.9699 502.05432,119.0626 502.34415,118.82335 502.4907,118.9699 502.63725,119.11645 502.34415,119.4451 502.4907,119.59165 502.63725,119.7382 502.92708,119.49895 503.11245,119.59165 503.37461,119.72273 503.47205,120.08233 503.7342,120.2134 503.91957,120.3061 504.17059,120.1207 504.35596,120.2134 504.61811,120.34448 504.71555,120.70408 504.97771,120.83516 505.16308,120.92786 505.41409,120.74246 505.59946,120.83516 505.86161,120.96623 505.95906,121.32583 506.22121,121.45691 506.40658,121.54961 506.65759,121.36421 506.84296,121.45691 508.90506,123.519 506.25677,121.16381 508.08647,122.07866 508.61078,122.34081 508.80567,123.06001 509.32997,123.32216 509.51534,123.41486 509.76635,123.22946 509.95173,123.32216 510.21388,123.45324 510.31132,123.81284 510.57348,123.94392 510.75885,124.03662 511.00986,123.85122 511.19523,123.94392 511.71954,124.20607 511.91443,124.92527 512.43873,125.18742 512.6241,125.28012 512.87511,125.09472 513.06049,125.18742 515.12258,127.24951 512.47429,124.89432 514.30399,125.80917 515.05009,126.18222 515.42314,127.30138 516.16925,127.67443 516.35462,127.76713 516.60563,127.58173 516.791,127.67443 517.05315,127.80551 517.1506,128.1651 517.41275,128.29618 517.59812,128.38888 517.84913,128.20348 518.0345,128.29618 518.29666,128.42726 518.3941,128.78686 518.65625,128.91793 518.84163,129.01063 519.13146,128.77138 519.27801,128.91793 519.42455,129.06448 519.13146,129.39314 519.27801,129.53968 519.42455,129.68623 519.71439,129.44698 519.89976,129.53968 521.96185,131.60178 519.31357,129.24659 521.14326,130.16144 521.40542,130.29251 521.50286,130.65211 521.76501,130.78319 521.95039,130.87589 522.2014,130.69049 522.38677,130.78319 522.91107,131.04534 523.10596,131.76454 523.63027,132.02669 523.81564,132.11939 524.06665,131.93399 524.25202,132.02669 524.99813,132.39974 525.37118,133.5189 526.11728,133.89195 526.30265,133.98465 526.56659,133.77699 526.73903,133.89195 527.22677,134.21711 527.49479,134.81029 527.98254,135.13545 528.15498,135.25042 528.41892,135.04275 528.60429,135.13545 529.09962,135.38312 530.16052,136.53717 530.46954,137.00071 530.72661,137.3863 530.7636,137.91652 531.0913,138.24421 531.41899,138.57191 531.94921,138.6089 532.3348,138.86597 532.82254,139.19113 533.1638,139.69497 533.5783,140.10947 534.45273,140.9839 535.59052,142.66996 536.68707,143.21823 538.21841,143.9839 536.12579,141.41345 538.55232,143.83998 538.69887,143.98653 538.40577,144.31519 538.55232,144.46174 538.69887,144.60828 538.9887,144.36904 539.17407,144.46174 539.92018,144.83479 540.29323,145.95394 541.03933,146.32699 541.2247,146.41969 541.51453,146.18044 541.66108,146.32699 541.80763,146.47354 541.56838,146.76337 541.66108,146.94874 541.92324,147.47305 542.38028,147.93009 542.90459,148.19225 543.08996,148.28495 543.37979,148.0457 543.52634,148.19225 543.67289,148.3388 543.37979,148.66745 543.52634,148.814 543.67289,148.96055 544.00154,148.66745 544.14809,148.814 544.29464,148.96055 544.00154,149.2892 544.14809,149.43575 544.29464,149.5823 544.62329,149.2892 544.76984,149.43575 544.91639,149.5823 544.67714,149.87213 544.76984,150.0575 545.14289,150.80361 546.26205,151.17666 546.6351,151.92276 546.7278,152.10813 546.48855,152.39796 546.6351,152.54451 546.78165,152.69106 547.1103,152.39796 547.25685,152.54451 547.4034,152.69106 547.16415,152.98089 547.25685,153.16626 547.6299,153.91237 548.74906,154.28542 549.12211,155.03152 549.30748,155.40226 548.82901,155.98193 549.12211,156.27502 549.26866,156.42157 549.59731,156.12848 549.74386,156.27502 549.89041,156.42157 549.59731,156.75023 549.74386,156.89678 549.89041,157.04333 550.21906,156.75023 550.36561,156.89678 550.51216,157.04333 550.27291,157.33316 550.36561,157.51853 550.49669,157.78068 550.85629,157.87813 550.98736,158.14028 551.08006,158.32565 550.89466,158.57666 550.98736,158.76203 551.24952,159.28634 551.96871,159.48123 552.23087,160.00554 552.32357,160.19091 552.08432,160.48074 552.23087,160.62729 552.37742,160.77384 552.70607,160.48074 552.85262,160.62729 552.99917,160.77384 552.75992,161.06367 552.85262,161.24904 552.9837,161.5112 553.34329,161.60864 553.47437,161.87079 553.56707,162.05616 553.32782,162.346 553.47437,162.49255 553.62092,162.63909 553.94958,162.346 554.09612,162.49255 554.24267,162.63909 554.00342,162.92893 554.09612,163.1143 554.2272,163.37645 554.5868,163.4739 554.71788,163.73605 554.81058,163.92142 554.57133,164.21125 554.71788,164.3578 554.86442,164.50435 555.19308,164.21125 555.33963,164.3578 555.48618,164.50435 555.24693,164.79418 555.33963,164.97955 555.60178,165.50386 556.32098,165.69875 556.58313,166.22306 556.67583,166.40843 556.43658,166.69826 556.58313,166.84481 556.72968,166.99136 557.05834,166.69826 557.20488,166.84481 557.49798,167.13791 557.01951,167.71757 557.20488,168.08831 557.46704,168.61262 558.18623,168.80751 558.44839,169.33182 558.63376,169.70256 558.15529,170.28223 558.44839,170.57532 558.59494,170.72187 558.92359,170.42877 559.07014,170.57532 559.21669,170.72187 558.92359,171.05053 559.07014,171.19708 559.21669,171.34362 559.54534,171.05053 559.69189,171.19708 559.83844,171.34362 561.59919,171.63346 561.69189,171.81883 562.05402,172.54309 562.57327,172.95982 562.9354,173.68408 563.12077,174.05482 562.75003,174.55685 562.9354,174.92759 563.19755,175.4519 563.91675,175.64678 564.1789,176.17109 564.2716,176.35646 564.0862,176.60747 564.1789,176.79284 564.30998,177.055 564.66958,177.15244 564.80065,177.4146 564.89335,177.59997 564.6541,177.8898 564.80065,178.03635 564.9472,178.1829 565.27586,177.8898 565.42241,178.03635 565.8362,178.45014 565.00861,178.86606 565.42241,179.27985 565.56895,179.4264 565.89761,179.1333 566.04416,179.27985 566.19071,179.4264 565.95146,179.71623 566.04416,179.9016 566.30631,180.42591 567.02551,180.6208 567.28766,181.14511 567.38036,181.33048 567.19496,181.58149 567.28766,181.76686 567.54982,182.29117 568.26901,182.48606 568.53117,183.01036 568.71654,183.38111 568.23807,183.96077 568.53117,184.25387 568.67771,184.40042 569.00637,184.10732 569.15292,184.25387 569.29947,184.40042 569.06022,184.69025 569.15292,184.87562 569.28399,185.13777 569.64359,185.23522 569.77467,185.49737 569.86737,185.68274 569.68197,185.93375 569.77467,186.11913 569.90575,186.38128 570.26535,186.47872 570.39642,186.74088 570.48912,186.92625 570.33092,187.16601 570.39642,187.36263 570.54297,187.80227 570.87163,188.16649 571.01817,188.60613 571.08367,188.80275 570.87163,189.08134 571.01817,189.22789 571.16472,189.37443 571.49338,189.08134 571.63993,189.22789 571.78647,189.37443 571.54723,189.66427 571.63993,189.84964 571.771,190.11179 572.1306,190.20924 572.26168,190.47139 572.35438,190.65676 572.11513,190.94659 572.26168,191.09314 572.40823,191.23969 572.73688,190.94659 572.88343,191.09314 573.17653,191.38624 572.69806,191.9659 572.88343,192.33665 573.01451,192.5988 573.37411,192.69624 573.50518,192.9584 573.69055,193.32914 573.21209,193.90881 573.50518,194.2019 573.65173,194.34845 573.98039,194.05535 574.12693,194.2019 574.41435,194.48932 573.93924,195.69176 574.12693,196.06716 574.25801,196.32931 574.61761,196.42676 574.74869,196.68891 575.00752,197.20657 574.3543,198.78153 574.74869,199.17592 574.89524,199.32247 575.22389,199.02937 575.37044,199.17592 575.8667,199.67218 575.04429,201.63237 575.37044,202.28468 575.50152,202.54683 575.86111,202.64428 575.99219,202.90643 576.44228,203.8066 575.5186,208.65036 575.99219,209.12395 576.13874,209.2705 576.46739,208.9774 576.61394,209.12395 576.82795,209.33796 576.82795,213.26221 576.61394,213.47622 576.46739,213.62277 576.13874,213.32967 575.99219,213.47622 575.96019,213.50822 575.99219,216.852 575.99219,217.20673 575.99219,218.1289 576.31962,221.52589 575.99219,222.18075 575.22389,223.71735 575.37044,221.96613 575.37044,223.42425 575.37044,224.46409 575.73988,228.28115 575.37044,229.02002 575.23936,229.28217 574.87976,229.37962 574.74869,229.64177 574.49999,230.13917 576.99739,231.00963 576.74869,231.50703 576.61761,231.76918 576.25801,231.86663 576.12693,232.12878 575.94156,232.49952 576.31231,233.00154 576.12693,233.37228 575.99586,233.63444 573.63626,233.73188 573.50518,233.99404 573.41248,234.17941 573.57068,234.41917 573.50518,234.61579 573.35863,235.05543 573.02998,235.41965 572.88343,235.85929 572.75235,236.25252 573.0688,236.73206 572.88343,237.1028 572.75235,237.36495 572.39276,237.4624 572.26168,237.72455 572.16898,237.90992 572.35438,238.16093 572.26168,238.3463 571.89955,239.07056 571.38031,239.4873 571.01817,240.21156 570.92547,240.39693 571.11087,240.64794 571.01817,240.83331 570.8871,241.09546 570.48911,241.17701 570.39642,241.45506 570.26535,241.84829 570.5275,242.30534 570.39642,242.69857 570.30372,242.97662 569.90575,243.05816 569.77467,243.32032 569.68197,243.50569 569.86737,243.7567 569.77467,243.94207 569.64359,244.20422 569.28399,244.30167 569.15292,244.56382 569.06022,244.74919 569.24562,245.0002 569.15292,245.18557 567.73016,248.03109 569.41062,242.54722 567.90941,247.05083 567.84391,247.24745 568.00211,247.48721 567.90941,247.67258 567.77834,247.93474 567.41874,248.03218 567.28766,248.29433 567.04503,248.77959 566.90854,250.29609 566.66591,250.78134 566.53483,251.0435 566.17523,251.14094 566.04416,251.4031 565.95146,251.58847 566.13686,251.83948 566.04416,252.02485 565.782,252.54915 564.98602,252.71224 564.80065,253.26835 564.66958,253.66158 564.93173,254.11863 564.80065,254.51186 564.61528,255.06797 563.74252,255.19925 563.55715,255.75536 563.42607,256.14859 563.68823,256.60563 563.55715,256.99886 563.46445,257.27692 563.09798,257.37674 562.9354,257.62062 561.56558,257.93373 562.60674,258.89968 562.31364,259.48587 562.18257,259.74803 561.78458,259.82957 561.69189,260.10762 561.56082,260.50086 561.82297,260.9579 561.69189,261.35113 561.50652,261.90724 560.71054,262.07033 560.44839,262.59463 560.35569,262.78 560.54109,263.03101 560.44839,263.21639 560.31731,263.47854 559.91932,263.56008 559.82664,263.83814 559.69556,264.23137 559.95771,264.68841 559.82664,265.08164 559.64127,265.63775 558.84529,265.80084 558.58313,266.32515 558.49043,266.51052 558.67583,266.76153 558.58313,266.9469 558.221,267.67116 557.70176,268.08789 557.33963,268.81215 557.24693,268.99752 557.43233,269.24854 557.33963,269.43391 557.07747,269.95821 556.28149,270.1213 556.09612,270.67741 555.96505,271.07064 556.2272,271.52768 556.09612,271.92091 556.00342,272.19897 555.60545,272.28051 555.47437,272.54267 555.38167,272.72804 555.56707,272.97905 555.47437,273.16442 555.21222,273.68873 554.49302,273.88362 554.23087,274.40792 554.13817,274.59329 554.32357,274.8443 554.23087,275.02967 553.86874,275.75394 553.34949,276.17067 552.98736,276.89493 552.89466,277.0803 553.08006,277.33131 552.98736,277.51668 552.85629,277.77884 552.49669,277.87628 552.36561,278.13844 552.27291,278.32381 552.45831,278.57482 552.36561,278.76019 552.10346,279.28449 551.38426,279.47938 551.12211,280.00369 551.02941,280.18906 551.21481,280.44007 551.12211,280.62544 550.99103,280.8876 550.63143,280.98504 550.50035,281.2472 550.40765,281.43257 550.59305,281.68358 550.50035,281.86895 550.36928,282.1311 550.00968,282.22855 549.8786,282.4907 549.7859,282.67607 550.02515,282.9659 549.8786,283.11245 549.73205,283.259 549.4034,282.9659 549.25685,283.11245 548.96375,283.40555 549.44222,283.98521 549.25685,284.35596 548.89472,285.08022 548.37548,285.49695 548.01335,286.22121 547.92065,286.40658 548.10605,286.65759 548.01335,286.84296 547.34552,288.17862 547.43767,286.75086 546.76984,288.08647 546.67714,288.27184 546.91639,288.56167 546.76984,288.70822 546.62329,288.85477 546.29464,288.56167 546.14809,288.70822 546.00154,288.85477 546.29464,289.18342 546.14809,289.32997 546.00154,289.47652 545.67289,289.18342 545.52634,289.32997 545.37979,289.47652 545.67289,289.80518 545.52634,289.95173 545.37979,290.09827 545.05113,289.80518 544.90459,289.95173 544.75804,290.09827 544.99729,290.38811 544.90459,290.57348 543.61079,293.16106 544.94749,289.9088 543.66108,291.19523 543.51453,291.34178 543.80763,291.67043 543.66108,291.81698 543.51453,291.96353 543.2247,291.72428 543.03933,291.81698 540.45175,293.11077 541.704,291.77408 540.41758,293.06049 540.27103,293.20703 539.9812,292.96779 539.79583,293.06049 539.27152,293.32264 538.81448,293.77968 538.55232,294.30399 538.45962,294.48936 538.69887,294.77919 538.55232,294.92574 538.40577,295.07229 538.07712,294.77919 537.93057,294.92574 537.78402,295.07229 538.02327,295.36212 537.93057,295.54749 537.25689,296.89486 537.36075,295.44363 536.68707,296.791 536.59437,296.97637 536.83361,297.2662 536.68707,297.41275 536.54052,297.5593 536.21186,297.2662 536.06531,297.41275 535.91876,297.5593 536.21186,297.88795 536.06531,298.0345 535.91876,298.18105 535.59011,297.88795 535.44356,298.0345 535.29701,298.18105 535.53626,298.47088 535.44356,298.65625 535.07051,299.40236 533.95136,299.77541 533.5783,300.52151 533.39293,300.89225 533.76368,301.39427 533.5783,301.76501 533.44723,302.02717 533.08763,302.12461 532.95655,302.38677 532.77118,302.75751 533.24965,303.33717 532.95655,303.63027 532.81,303.77682 532.48135,303.48372 532.3348,303.63027 532.18825,303.77682 532.4275,304.06665 532.3348,304.25202 531.97267,304.97629 531.45343,305.39302 531.0913,306.11728 530.90593,306.48802 531.38439,307.06769 531.0913,307.36078 530.94475,307.50733 530.61609,307.21424 530.46954,307.36078 530.17645,307.65388 530.76264,308.31119 530.46954,308.60429 530.323,308.75084 529.99434,308.45774 529.84779,308.60429 529.70124,308.75084 529.94049,309.04067 529.84779,309.22604 529.58564,309.75035 528.86644,309.94524 528.60429,310.46954 528.17548,311.32716 529.35726,311.02568 527.98254,311.71305 527.79717,311.80575 527.50733,311.5665 527.36078,311.71305 527.21424,311.8596 527.45348,312.14943 527.36078,312.3348 527.09863,312.85911 526.37943,313.054 526.11728,313.5783 526.02458,313.76368 526.26383,314.05351 526.11728,314.20006 525.97073,314.34661 525.64208,314.05351 525.49553,314.20006 525.34898,314.34661 525.58823,314.63644 525.49553,314.82181 525.36445,315.08396 525.00485,315.18141 524.87378,315.44356 524.78108,315.62893 525.02032,315.91876 524.87378,316.06531 524.72723,316.21186 524.43739,315.97261 524.25202,316.06531 521.66444,317.3591 524.9167,316.02241 523.63027,317.30882 523.48372,317.45537 523.15507,317.16227 523.00852,317.30882 522.86197,317.45537 523.10122,317.7452 523.00852,317.93057 521.71473,320.51815 523.05142,317.26589 521.76501,318.55232 521.61847,318.69887 521.85771,318.9887 521.76501,319.17407 520.47122,321.76166 521.80791,318.5094 520.52151,319.79583 520.52151,321.45383 520.72876,319.58857 519.89976,320.41758 519.75321,320.56413 520.04631,320.89278 519.89976,321.03933 519.75321,321.18588 519.42455,320.89278 519.27801,321.03933 519.13146,321.18588 519.42455,321.51453 519.27801,321.66108 518.98491,321.95418 518.40524,321.47571 518.0345,321.66108 517.77235,321.79216 517.6749,322.15176 517.41275,322.28283 517.22738,322.37553 516.93755,322.13629 516.791,322.28283 515.50457,323.56926 518.75683,322.23253 516.16925,323.52634 515.7985,323.71171 515.21884,323.23324 514.92574,323.52634 514.77919,323.67289 515.07229,324.00154 514.92574,324.14809 514.63265,324.44119 513.97533,323.85499 513.68224,324.14809 513.53569,324.29464 513.82879,324.62329 513.68224,324.76984 513.53569,324.91639 513.20703,324.62329 513.06049,324.76984 512.91394,324.91639 513.20703,325.24505 513.06049,325.39159 512.91394,325.53814 512.6241,325.29889 512.43873,325.39159 511.19523,326.01335 510.57348,327.8786 509.32997,328.50035 509.1446,328.59305 508.85477,328.35381 508.70822,328.50035 508.56167,328.6469 508.80092,328.93674 508.70822,329.12211 508.44607,329.64641 507.98902,330.10346 507.46472,330.36561 507.27935,330.45831 506.98951,330.21906 506.84296,330.36561 506.69642,330.51216 506.98951,330.84081 506.84296,330.98736 506.69642,331.13391 506.40658,330.89466 506.22121,330.98736 503.63363,332.28115 506.88589,330.94446 505.59946,332.23087 505.45291,332.37742 505.12426,332.08432 504.97771,332.23087 504.83116,332.37742 505.12426,332.70607 504.97771,332.85262 504.83116,332.99917 504.5025,332.70607 504.35596,332.85262 503.06953,334.13905 506.32179,332.80232 503.7342,334.09612 503.54883,334.18882 503.29782,334.00342 503.11245,334.09612 502.8503,334.2272 502.75285,334.5868 502.4907,334.71788 502.30533,334.81058 502.0155,334.57133 501.86895,334.71788 501.7224,334.86442 501.96165,335.15426 501.86895,335.33963 501.18158,336.71436 501.48306,335.53257 500.62544,335.96138 499.87934,336.33443 499.50629,337.45359 498.76019,337.82664 498.57482,337.91934 498.28498,337.68009 498.13844,337.82664 496.85201,339.11306 500.10427,337.77634 497.51668,339.07014 497.33131,339.16284 497.04148,338.92359 496.89493,339.07014 496.74838,339.21669 497.04148,339.54534 496.89493,339.69189 496.74838,339.83844 496.45855,339.59919 496.27318,339.69189 495.74887,339.95405 495.55398,340.67324 495.02967,340.9354 494.8443,341.0281 494.59329,340.8427 494.40792,340.9354 494.14577,341.06647 494.04832,341.42607 493.78617,341.55715 493.6008,341.64985 493.34979,341.46445 493.16442,341.55715 492.64011,341.8193 492.44522,342.5385 491.92091,342.80065 491.73554,342.89335 491.44571,342.6541 491.29916,342.80065 491.15261,342.9472 491.44571,343.27586 491.29916,343.42241 491.15261,343.56895 490.86278,343.32971 490.67741,343.42241 490.41526,343.55348 490.31781,343.91308 490.05566,344.04416 489.87029,344.13686 489.61928,343.95146 489.43391,344.04416 488.70964,344.40629 488.29291,344.92553 487.56865,345.28766 487.19791,345.47303 486.69589,345.10229 486.32515,345.28766 485.66021,345.62013 485.74658,346.1987 485.08164,346.53117 484.89627,346.62387 484.66714,346.53117 484.45989,346.53117 484.25264,346.73842 484.10029,347.02184 483.83814,347.15292 483.65277,347.24562 483.36293,347.00637 483.21639,347.15292 483.06984,347.29947 483.36293,347.62812 483.21639,347.77467 483.06984,347.92122 482.78,347.68197 482.59463,347.77467 482.33248,347.90575 482.23503,348.26535 481.97288,348.39642 481.78751,348.48912 481.49768,348.24987 481.35113,348.39642 481.20458,348.54297 481.49768,348.87163 481.35113,349.01817 481.05803,349.31127 480.47837,348.8328 480.10762,349.01817 479.38336,349.38031 478.96663,349.89955 478.24237,350.26168 478.057,350.35438 477.76716,350.11513 477.62062,350.26168 477.47407,350.40823 477.76716,350.73688 477.62062,350.88343 477.47407,351.02998 477.18423,350.79073 476.99886,350.88343 476.00406,351.38083 475.50666,352.87304 474.51186,353.37044 474.32649,353.46314 474.03665,353.22389 473.8901,353.37044 473.74356,353.51699 474.03665,353.84564 473.8901,353.99219 473.74356,354.13874 473.45372,353.89949 473.26835,353.99219 472.74404,354.25434 472.54915,354.97354 472.02485,355.2357 471.83948,355.3284 471.58847,355.143 471.4031,355.2357 470.87879,355.49785 470.6839,356.21705 470.15959,356.4792 469.97422,356.5719 469.72321,356.3865 469.53784,356.4792 469.27569,356.61028 469.17824,356.96987 468.91609,357.10095 468.73072,357.19365 468.44088,356.9544 468.29433,357.10095 468.14779,357.2475 468.44088,357.57616 468.29433,357.7227 468.14779,357.86925 467.85795,357.63 467.67258,357.7227 466.94832,358.08483 466.53159,358.60408 465.80733,358.96621 465.62196,359.05891 465.33212,358.81966 465.18557,358.96621 465.03903,359.11276 465.33212,359.44141 465.18557,359.58796 465.03903,359.73451 464.74919,359.49526 464.56382,359.58796 463.83956,359.95009 463.42283,360.46933 462.69857,360.83146 462.5132,360.92416 462.26218,360.73876 462.07681,360.83146 460.01472,362.89356 462.66301,360.53837 460.83331,361.45322 460.57116,361.58429 460.47371,361.94389 460.21156,362.07497 460.02619,362.16767 459.77518,361.98227 459.58981,362.07497 459.32765,362.20604 459.23021,362.56564 458.96805,362.69672 458.78268,362.78942 458.53167,362.60402 458.3463,362.69672 458.08415,362.8278 457.9867,363.1874 457.72455,363.31847 457.53918,363.41117 457.24935,363.17192 457.1028,363.31847 456.95625,363.46502 457.24935,363.79368 457.1028,363.94022 456.95625,364.08677 456.66642,363.84752 456.48105,363.94022 455.75678,364.30236 455.34005,364.8216 454.61579,365.18373 454.43042,365.27643 454.17941,365.09103 453.99404,365.18373 453.26977,365.54586 452.85304,366.0651 452.12878,366.42723 451.94341,366.51993 451.71428,366.42723 451.50703,366.42723 451.29978,366.63448 451.14743,366.91791 450.88528,367.04898 450.69991,367.14168 450.44889,366.95628 450.26352,367.04898 450.00137,367.18006 449.90393,367.53966 449.64177,367.67074 449.4564,367.76344 449.20539,367.57804 449.02002,367.67074 448.75787,367.80181 448.66042,368.16141 448.39827,368.29249 448.2129,368.38519 447.96189,368.19979 447.77652,368.29249 447.51436,368.42357 447.41692,368.78316 447.15476,368.91424 446.78402,369.09961 446.282,368.72887 445.91126,368.91424 445.64911,369.04532 445.55166,369.40492 445.28951,369.53599 445.10414,369.62869 444.85313,369.44329 444.66776,369.53599 443.94349,369.89812 443.52676,370.41737 442.8025,370.7795 442.43176,370.96487 441.85209,370.4864 441.55899,370.7795 441.41245,370.92605 441.70554,371.2547 441.55899,371.40125 441.2659,371.69435 440.68623,371.21588 440.31549,371.40125 439.59123,371.76338 439.1745,372.28262 438.45023,372.64475 438.26486,372.73745 437.97503,372.49821 437.82848,372.64475 437.68193,372.7913 437.97503,373.11996 437.82848,373.26651 437.53539,373.5596 436.95572,373.08114 436.58498,373.26651 436.32282,373.39758 436.22538,373.75718 435.96323,373.88826 435.77786,373.98096 435.48802,373.74171 435.34147,373.88826 435.19493,374.03481 435.48802,374.36346 435.34147,374.51001 435.04838,374.80311 434.39107,374.21691 434.09797,374.51001 433.95142,374.65656 434.24452,374.98521 434.09797,375.13176 433.80487,375.42486 433.14756,374.83867 432.85447,375.13176 432.70792,375.27831 433.00101,375.60697 432.85447,375.75351 432.56137,376.04661 431.9817,375.56814 431.61096,375.75351 430.8867,376.11565 430.46997,376.63489 429.7457,376.99702 429.56033,377.08972 429.2705,376.85047 429.12395,376.99702 428.9774,377.14357 429.2705,377.47222 429.12395,377.61877 428.83086,377.91187 428.25119,377.4334 427.88045,377.61877 427.61829,377.74985 427.52085,378.10945 427.2587,378.24052 426.88796,378.42589 426.30829,377.94743 426.01519,378.24052 425.86864,378.38707 426.16174,378.71573 426.01519,378.86227 425.72778,379.14969 424.52533,378.67458 424.14994,378.86227 423.88778,378.99335 423.79034,379.35295 423.52818,379.48403 423.15744,379.6694 422.65542,379.29866 422.28468,379.48403 422.02253,379.6151 421.92508,379.9747 421.66293,380.10578 421.29219,380.29115 420.71252,379.81268 420.41942,380.10578 420.27288,380.25233 420.56597,380.58098 420.41942,380.72753 420.10855,381.03841 418.86504,380.41665 418.55417,380.72753 418.40762,380.87408 418.70072,381.20273 418.55417,381.34928 418.26107,381.64238 417.60376,381.05619 417.31066,381.34928 417.16411,381.49583 417.45721,381.82449 417.31066,381.97104 416.68891,382.59279 414.2019,381.34928 413.58015,381.97104 413.4336,382.11758 413.7267,382.44624 413.58015,382.59279 413.49245,382.68049 411.84243,382.65659 411.71489,382.59279 411.45274,382.46171 411.38624,381.97104 411.09314,381.97104 410.80005,381.97104 410.73354,382.46171 410.47139,382.59279 410.02355,382.81671 407.18872,382.81671 406.74088,382.59279 406.47872,382.46171 406.38128,382.10211 406.11913,381.97104 405.60146,381.7122 404.0265,382.36542 403.63212,381.97104 403.48557,381.82449 403.77867,381.49583 403.63212,381.34928 403.3447,381.06187 402.14226,381.53698 401.76686,381.34928 401.50471,381.21821 401.40726,380.85861 401.14511,380.72753 400.77437,380.54216 400.1947,381.02063 399.9016,380.72753 399.75506,380.58098 400.04815,380.25233 399.9016,380.10578 399.60851,379.81268 398.9512,380.39888 398.6581,380.10578 398.51155,379.95923 398.80465,379.63058 398.6581,379.48403 398.2436,379.06953 396.58559,379.89853 396.17109,379.48403 396.02454,379.33748 396.31764,379.00882 396.17109,378.86227 395.86022,378.5514 394.61671,379.17315 394.30584,378.86227 394.15929,378.71573 394.45238,378.38707 394.30584,378.24052 394.15929,378.09397 393.83063,378.38707 393.68408,378.24052 393.53754,378.09397 393.83063,377.76532 393.68408,377.61877 393.53754,377.47222 393.20888,377.76532 393.06233,377.61877 392.91578,377.47222 393.20888,377.14357 393.06233,376.99702 392.91578,376.85047 392.62595,377.08972 392.44058,376.99702 392.17843,376.86594 392.08098,376.50634 391.81883,376.37527 391.63346,376.28257 391.34362,376.52181 391.19708,376.37527 391.05053,376.22872 391.28978,375.93888 391.19708,375.75351 391.066,375.49136 390.7064,375.39392 390.57532,375.13176 390.48262,374.94639 390.72187,374.65656 390.57532,374.51001 390.42877,374.36346 390.10012,374.65656 389.95357,374.51001 389.80702,374.36346 390.10012,374.03481 389.95357,373.88826 389.66047,373.59516 389.00316,374.18135 388.71007,373.88826 388.56352,373.74171 388.80277,373.45188 388.71007,373.26651 388.33702,372.5204 387.21786,372.14735 386.84481,371.40125 386.75211,371.21588 386.99136,370.92605 386.84481,370.7795 386.55171,370.4864 385.8944,371.07259 385.60131,370.7795 385.45476,370.63295 385.74785,370.30429 385.60131,370.15775 385.45476,370.0112 385.1261,370.30429 384.97955,370.15775 384.83301,370.0112 385.1261,369.68254 384.97955,369.53599 384.83301,369.38944 384.50435,369.68254 384.3578,369.53599 384.21125,369.38944 384.50435,369.06079 384.3578,368.91424 384.21125,368.76769 383.9433,368.91424 383.73605,368.91424 383.73605,368.70699 383.82875,368.47786 383.73605,368.29249 383.23865,367.29769 381.74644,366.80028 381.24904,365.80548 381.15634,365.62011 381.39559,365.33028 381.24904,365.18373 379.59104,365.18373 381.45629,365.39098 380.62729,364.56198 380.48074,364.41543 380.15209,364.70852 380.00554,364.56198 379.71244,364.26888 380.29863,363.61157 380.00554,363.31847 379.85899,363.17192 379.53033,363.46502 379.38379,363.31847 379.38379,361.66047 379.59104,363.52572 378.76203,362.69672 378.46894,362.40362 379.05513,361.74631 378.76203,361.45322 378.61548,361.30667 378.28683,361.59976 378.14028,361.45322 377.84718,361.16012 378.43338,360.50281 378.14028,360.20971 377.99373,360.06316 377.66508,360.35626 377.51853,360.20971 377.22543,359.91662 377.81163,359.2593 377.51853,358.96621 377.37198,358.81966 377.04333,359.11276 376.89678,358.96621 376.75023,358.81966 376.89678,358.55171 376.89678,358.34446 376.68953,358.34446 376.42157,358.491 376.27502,358.34446 376.12848,358.19791 376.36772,357.90807 376.27502,357.7227 375.91289,356.99844 375.39365,356.58171 375.03152,355.85745 374.93882,355.67208 375.17807,355.38224 375.03152,355.2357 374.88497,355.08915 374.55632,355.38224 374.40977,355.2357 374.26322,355.08915 374.5164,354.79166 374.40977,354.61394 373.87662,353.72536 371.16626,352.95593 370.54451,352.12693 z"
       inkscape:connector-curvature="0"
       id="path5358"
       style="fill:none;stroke:#0000e9;stroke-width:1;stroke-miterlimit:4;stroke-opacity:1;stroke-dasharray:none;stroke-dashoffset:0" />
    <path
       d="M 369.43575,263.83814 C 370.26475,263.83814 371.92276,264.66714 371.92276,263.83814 371.92276,263.00913 368.84956,263.25194 369.43575,263.83814 372.15334,266.55572 372.02478,263.57827 373.78802,264.45989 374.31232,264.72204 374.50721,265.44124 375.03152,265.70339 375.40692,265.89109 376.60936,265.41598 376.89678,265.70339 377.04333,265.84994 376.75023,266.1786 376.89678,266.32515 377.18987,266.61824 377.76954,266.13977 378.14028,266.32515 378.40243,266.45622 378.49988,266.81582 378.76203,266.9469 379.13743,267.1346 380.33988,266.65948 380.62729,266.9469 380.77384,267.09345 380.48074,267.4221 380.62729,267.56865 381.02167,267.96303 382.59663,267.30982 383.1143,267.56865 383.37645,267.69973 383.45799,268.09772 383.73605,268.1904 384.33314,268.38943 385.62633,267.89204 386.22306,268.1904 386.48521,268.32148 386.56675,268.71947 386.84481,268.81215 387.94373,269.17846 393.95155,268.81215 395.54934,268.81215 396.1484,268.81215 401.7084,268.87065 401.76686,268.81215 401.91341,268.66561 401.62031,268.33695 401.76686,268.1904 402.18136,267.7759 403.83937,268.6049 404.25387,268.1904 404.40042,268.04385 404.10732,267.7152 404.25387,267.56865 404.772,267.05052 406.8445,268.08678 407.36263,267.56865 407.50918,267.4221 407.21608,267.09345 407.36263,266.9469 407.75701,266.55251 409.33197,267.20573 409.84964,266.9469 410.11179,266.81582 410.20924,266.45622 410.47139,266.32515 410.84213,266.13977 411.34415,266.51052 411.71489,266.32515 412.43916,265.96301 412.85589,265.44377 413.58015,265.08164 413.95089,264.89627 414.45291,265.26701 414.82365,265.08164 415.08581,264.95056 415.18325,264.59097 415.44541,264.45989 415.63078,264.36719 415.92061,264.60644 416.06716,264.45989 416.21371,264.31334 415.92061,263.98469 416.06716,263.83814 416.46154,263.44375 418.0365,264.09697 418.55417,263.83814 418.81632,263.70706 418.91377,263.34746 419.17592,263.21639 419.83912,262.88478 420.99973,263.54799 421.66293,263.21639 421.92508,263.08531 422.02253,262.72571 422.28468,262.59463 423.27948,262.09723 425.02039,263.09203 426.01519,262.59463 426.27735,262.46356 426.37479,262.10396 426.63694,261.97288 427.26474,261.65898 434.27047,261.97288 435.34147,261.97288 436.30482,261.97288 439.02729,261.63966 439.69374,261.97288 439.95589,262.10396 440.03743,262.50195 440.31549,262.59463 441.43744,262.96862 447.94058,262.13695 448.39827,262.59463 448.54482,262.74118 448.25172,263.06984 448.39827,263.21639 448.89453,263.71264 450.85472,262.89023 451.50703,263.21639 451.76918,263.34746 451.85072,263.74545 452.12878,263.83814 453.06141,264.14901 454.30491,263.52726 455.23754,263.83814 455.67719,263.98469 456.0414,264.31334 456.48105,264.45989 457.2004,264.69967 458.29993,264.12583 458.96805,264.45989 459.23021,264.59097 459.31175,264.98896 459.58981,265.08164 460.1869,265.28067 461.48008,264.78328 462.07681,265.08164 462.33897,265.21272 462.43641,265.57232 462.69857,265.70339 463.06931,265.88876 463.57133,265.51802 463.94207,265.70339 464.20422,265.83447 464.30167,266.19407 464.56382,266.32515 465.06122,266.57385 465.93168,266.07644 466.42908,266.32515 466.69123,266.45622 466.78868,266.81582 467.05083,266.9469 467.54823,267.1956 468.41869,266.6982 468.91609,266.9469 469.17824,267.07797 469.27569,267.43757 469.53784,267.56865 469.91324,267.75635 471.11568,267.28124 471.4031,267.56865 471.54964,267.7152 471.25655,268.04385 471.4031,268.1904 471.8176,268.6049 473.4756,267.7759 473.8901,268.1904 474.03665,268.33695 473.74356,268.66561 473.8901,268.81215 474.28449,269.20654 475.85945,268.55332 476.37711,268.81215 476.63927,268.94323 476.73671,269.30283 476.99886,269.43391 477.36961,269.61928 477.87163,269.24854 478.24237,269.43391 478.50452,269.56498 478.60197,269.92458 478.86412,270.05566 479.23486,270.24103 479.73688,269.87029 480.10762,270.05566 480.36978,270.18673 480.46722,270.54633 480.72938,270.67741 481.22678,270.92611 482.09723,270.42871 482.59463,270.67741 483.31889,271.03954 483.73563,271.55878 484.45989,271.92091 484.83063,272.10629 485.33265,271.73554 485.70339,271.92091 485.96555,272.05199 486.06299,272.41159 486.32515,272.54267 486.69589,272.72804 487.19791,272.3573 487.56865,272.54267 488.56605,273.04137 487.81475,273.28747 488.81215,273.78617 488.99752,273.87887 489.24854,273.69347 489.43391,273.78617 491.496,275.84826 488.84771,273.49307 490.67741,274.40792 490.93956,274.539 491.03701,274.8986 491.29916,275.02967 491.6699,275.21505 492.17193,274.8443 492.54267,275.02967 492.80482,275.16075 492.90226,275.52035 493.16442,275.65143 495.81269,276.97556 491.75965,274.32729 494.40792,275.65143 494.67008,275.7825 494.76752,276.1421 495.02967,276.27318 495.21505,276.36588 495.46606,276.18048 495.65143,276.27318 496.37569,276.63531 496.79242,277.15455 497.51668,277.51668 497.88742,277.70205 498.46709,277.22359 498.76019,277.51668 498.90674,277.66323 498.61364,277.99189 498.76019,278.13844 498.90674,278.28498 499.19657,278.04574 499.38194,278.13844 499.64409,278.26951 499.74154,278.62911 500.00369,278.76019 500.37443,278.94556 500.87645,278.57482 501.2472,278.76019 501.97146,279.12232 502.38819,279.64156 503.11245,280.00369 503.29782,280.09639 503.52695,280.00369 503.7342,280.00369 503.94145,280.21094 504.0938,280.49437 504.35596,280.62544 504.54133,280.71814 504.79234,280.53274 504.97771,280.62544 505.23986,280.75652 505.33731,281.11612 505.59946,281.2472 505.78483,281.3399 506.03584,281.1545 506.22121,281.2472 506.48337,281.37827 506.58081,281.73787 506.84296,281.86895 507.02834,281.96165 507.25747,281.86895 507.46472,281.86895 507.67197,282.0762 507.82432,282.35962 508.08647,282.4907 508.27184,282.5834 508.56167,282.34415 508.70822,282.4907 508.85477,282.63725 508.56167,282.9659 508.70822,283.11245 508.85477,283.259 509.1446,283.01975 509.32997,283.11245 509.59213,283.24353 509.68957,283.60313 509.95173,283.7342 510.1371,283.8269 510.38811,283.6415 510.57348,283.7342 510.83563,283.86528 510.93308,284.22488 511.19523,284.35596 511.3806,284.44866 511.63161,284.26326 511.81698,284.35596 512.34129,284.61811 512.53618,285.33731 513.06049,285.59946 513.24586,285.69216 513.49687,285.50676 513.68224,285.59946 515.74433,287.66155 513.09604,285.30636 514.92574,286.22121 515.92055,286.71861 516.41795,288.21082 517.41275,288.70822 517.59812,288.80092 517.84913,288.61552 518.0345,288.70822 518.29666,288.8393 518.449,289.12272 518.65625,289.32997 518.86351,289.53722 519.01585,289.82065 519.27801,289.95173 519.46338,290.04443 519.69251,289.95173 519.89976,289.95173 520.10701,290.15898 520.25936,290.4424 520.52151,290.57348 520.70688,290.66618 520.99671,290.42693 521.14326,290.57348 521.28981,290.72003 520.99671,291.04868 521.14326,291.19523 521.28981,291.34178 521.61847,291.04868 521.76501,291.19523 521.91156,291.34178 521.61847,291.67043 521.76501,291.81698 521.91156,291.96353 522.24022,291.67043 522.38677,291.81698 522.53332,291.96353 522.24022,292.29219 522.38677,292.43873 522.53332,292.58528 522.82315,292.34603 523.00852,292.43873 523.27067,292.56981 523.36812,292.92941 523.63027,293.06049 523.81564,293.15319 524.10547,292.91394 524.25202,293.06049 524.39857,293.20703 524.10547,293.53569 524.25202,293.68224 524.39857,293.82879 524.72723,293.53569 524.87378,293.68224 525.02032,293.82879 524.72723,294.15744 524.87378,294.30399 525.16687,294.59709 525.82418,294.01089 526.11728,294.30399 526.26383,294.45054 525.97073,294.77919 526.11728,294.92574 526.26383,295.07229 526.59248,294.77919 526.73903,294.92574 526.88558,295.07229 526.59248,295.40095 526.73903,295.54749 526.88558,295.69404 527.21424,295.40095 527.36078,295.54749 527.50733,295.69404 527.21424,296.0227 527.36078,296.16925 527.50733,296.31579 527.83599,296.0227 527.98254,296.16925 528.12908,296.31579 527.83599,296.64445 527.98254,296.791 528.12908,296.93755 528.45774,296.64445 528.60429,296.791 528.75084,296.93755 528.45774,297.2662 528.60429,297.41275 528.75084,297.5593 529.07949,297.2662 529.22604,297.41275 529.37259,297.5593 529.07949,297.88795 529.22604,298.0345 529.37259,298.18105 529.70124,297.88795 529.84779,298.0345 529.99434,298.18105 529.70124,298.50971 529.84779,298.65625 529.99434,298.8028 530.323,298.50971 530.46954,298.65625 530.61609,298.8028 530.46954,299.07076 530.46954,299.27801 530.67679,299.27801 530.90593,299.18531 531.0913,299.27801 531.35345,299.40908 531.45089,299.76868 531.71305,299.89976 531.89842,299.99246 532.18825,299.75321 532.3348,299.89976 532.48135,300.04631 532.18825,300.37496 532.3348,300.52151 532.48135,300.66806 532.81,300.37496 532.95655,300.52151 533.1031,300.66806 532.81,300.99671 532.95655,301.14326 533.1031,301.28981 533.43176,300.99671 533.5783,301.14326 533.72485,301.28981 533.43176,301.61847 533.5783,301.76501 533.72485,301.91156 534.20006,301.97227 534.20006,301.76501 534.20006,301.69191 532.42623,301.85641 532.3348,301.76501 531.89516,301.32537 532.3348,300.52151 532.3348,299.89976"
       inkscape:connector-curvature="0"
       id="path5360"
       style="fill:none;stroke:#0000e9;stroke-width:1;stroke-miterlimit:4;stroke-opacity:1;stroke-dasharray:none;stroke-dashoffset:0" />
    <path
       d="M 428.5022,288.70822 C 436.02805,294.16944 434.29034,302.57418 431.19018,309.42802 425.531,314.57899 427.7658,334.84473 436.8142,320.1665 436.64629,305.82927 453.99191,293.84319 447.84517,288.17593 444.03702,285.69828 417.63704,279.74336 428.5022,288.70822 z"
       inkscape:connector-curvature="0"
       id="path5362"
       style="fill:none;stroke:#0000e9;stroke-width:1;stroke-miterlimit:4;stroke-opacity:1;stroke-dasharray:none;stroke-dashoffset:0" />
    <path
       d="M 458.3463,263.83814 C 449.64318,267.30535 455.42292,281.84811 459.00507,284.19038 464.29308,289.55785 479.50285,298.98225 482.97211,305.8054 483.21189,314.53923 476.26385,318.57421 472.23946,324.80497 466.36206,331.28123 455.88929,340.42174 452.883,346.20478 449.71001,352.91928 451.33743,358.51173 453.68316,365.80551"
       inkscape:connector-curvature="0"
       id="path5364"
       style="fill:none;stroke:#0000e9;stroke-width:1;stroke-miterlimit:4;stroke-opacity:1;stroke-dasharray:none;stroke-dashoffset:0" />
    <path
       d="M 368.814,194.2019 C 369.643,194.40915 371.09376,195.65266 371.30101,194.82365 371.50826,193.99465 367.95948,194.2019 368.814,194.2019 369.87078,194.2019 370.88036,194.64992 371.92276,194.82365 372.89576,194.98582 374.04313,194.82365 375.03152,194.82365 375.23877,194.82365 375.50672,194.9702 375.65327,194.82365 375.79982,194.67711 375.50672,194.34845 375.65327,194.2019 375.74097,194.1142 377.39099,194.1381 377.51853,194.2019 377.78068,194.33298 377.87813,194.69258 378.14028,194.82365 378.58812,195.04757 381.42295,195.04757 381.87079,194.82365 382.13295,194.69258 382.23039,194.33298 382.49255,194.2019 382.86794,194.0142 384.07039,194.48932 384.3578,194.2019 384.50435,194.05535 384.21125,193.7267 384.3578,193.58015 384.66868,193.26927 385.91218,193.89103 386.22306,193.58015 386.36961,193.4336 386.07651,193.10495 386.22306,192.9584 386.56534,192.61612 390.8548,193.30068 391.19708,192.9584 391.34362,192.81185 391.05053,192.48319 391.19708,192.33665 391.34362,192.1901 391.61158,192.33665 391.81883,192.33665 392.02608,192.33665 392.29403,192.1901 392.44058,192.33665 392.58713,192.48319 392.29403,192.81185 392.44058,192.9584 393.01145,193.52927 398.81814,192.41667 399.9016,192.9584 400.16376,193.08948 400.2612,193.44907 400.52336,193.58015 401.09333,193.86514 404.07206,193.58015 404.87562,193.58015 405.08287,193.58015 405.35082,193.7267 405.49737,193.58015 405.64392,193.4336 405.35082,193.10495 405.49737,192.9584 405.89176,192.56401 407.46672,193.21723 407.98438,192.9584 408.24654,192.82732 408.34398,192.46772 408.60613,192.33665 409.79191,191.74376 413.01613,192.92953 414.2019,192.33665 414.46406,192.20557 414.5615,191.84597 414.82365,191.71489 415.6117,191.32087 417.65376,191.71489 418.55417,191.71489 421.45568,191.71489 424.35719,191.71489 427.2587,191.71489 427.74553,191.71489 430.05722,192.02513 430.36746,191.71489 430.51401,191.56835 430.22091,191.23969 430.36746,191.09314 430.41806,191.04254 435.42565,191.09314 435.96323,191.09314 437.24546,191.09314 443.97889,190.74871 444.66776,191.09314 444.92991,191.22422 445.02735,191.58382 445.28951,191.71489 445.78691,191.9636 446.65736,191.46619 447.15476,191.71489 447.41692,191.84597 447.51436,192.20557 447.77652,192.33665 448.14726,192.52202 448.64928,192.15128 449.02002,192.33665 449.28217,192.46772 449.37962,192.82732 449.64177,192.9584 450.01251,193.14377 450.51453,192.77303 450.88528,192.9584 451.60954,193.32053 452.02627,193.83977 452.75053,194.2019 453.12127,194.38727 453.6233,194.01653 453.99404,194.2019 454.25619,194.33298 454.35364,194.69258 454.61579,194.82365 455.11319,195.07236 455.98364,194.57495 456.48105,194.82365 456.7432,194.95473 456.89555,195.23816 457.1028,195.44541 457.5173,195.44541 457.95307,195.31433 458.3463,195.44541 458.62436,195.53811 458.7059,195.93608 458.96805,196.06716 459.33879,196.25253 459.84082,195.88179 460.21156,196.06716 460.47371,196.19824 460.57116,196.55783 460.83331,196.68891 461.20405,196.87428 461.70607,196.50354 462.07681,196.68891 462.33897,196.81999 462.43641,197.17959 462.69857,197.31066 463.06931,197.49603 463.64897,197.01757 463.94207,197.31066 464.08862,197.45721 463.79552,197.78587 463.94207,197.93242 464.23517,198.22551 464.81483,197.74704 465.18557,197.93242 465.44773,198.06349 465.54517,198.42309 465.80733,198.55417 466.17807,198.73954 466.68009,198.3688 467.05083,198.55417 467.31298,198.68524 467.41043,199.04484 467.67258,199.17592 468.04332,199.36129 468.54535,198.99055 468.91609,199.17592 469.17824,199.307 469.27569,199.66659 469.53784,199.79767 469.90858,199.98304 470.4106,199.6123 470.78134,199.79767 471.0435,199.92875 471.14094,200.28835 471.4031,200.41942 471.77849,200.60712 472.98094,200.13201 473.26835,200.41942 473.4149,200.56597 473.1218,200.89463 473.26835,201.04118 473.4149,201.18772 473.74356,200.89463 473.8901,201.04118 474.03665,201.18772 473.74356,201.51638 473.8901,201.66293 474.1832,201.95602 474.76287,201.47756 475.13361,201.66293 475.39576,201.794 475.49321,202.1536 475.75536,202.28468 476.1261,202.47005 476.70577,201.99158 476.99886,202.28468 477.14541,202.43123 476.85232,202.75988 476.99886,202.90643 477.29196,203.19953 477.94927,202.61334 478.24237,202.90643 478.38892,203.05298 478.09582,203.38164 478.24237,203.52818 478.52978,203.8156 479.73223,203.34049 480.10762,203.52818 480.36978,203.65926 480.46722,204.01886 480.72938,204.14994 481.10012,204.33531 481.60214,203.96457 481.97288,204.14994 482.23503,204.28101 482.33248,204.64061 482.59463,204.77169 482.96537,204.95706 483.54504,204.47859 483.83814,204.77169 483.98469,204.91824 483.69159,205.24689 483.83814,205.39344 484.14901,205.70432 485.39252,205.08256 485.70339,205.39344 485.84994,205.53999 485.55685,205.86864 485.70339,206.01519 485.99649,206.30829 486.57616,205.82982 486.9469,206.01519 489.00899,208.07728 486.3607,205.7221 488.1904,206.63694 488.71471,206.8991 488.9096,207.61829 489.43391,207.88045 489.80465,208.06582 490.30667,207.69508 490.67741,207.88045 490.93956,208.01153 491.03701,208.37112 491.29916,208.5022 491.48453,208.5949 491.77437,208.35565 491.92091,208.5022 492.06746,208.64875 491.77437,208.9774 491.92091,209.12395 492.21401,209.41705 492.87132,208.83086 493.16442,209.12395 493.31097,209.2705 493.01787,209.59916 493.16442,209.7457 493.47529,210.05658 494.7188,209.43483 495.02967,209.7457 495.17622,209.89225 494.88313,210.22091 495.02967,210.36746 495.32277,210.66055 495.90244,210.18209 496.27318,210.36746 496.99744,210.72959 497.41417,211.24883 498.13844,211.61096 498.50918,211.79633 499.08884,211.31786 499.38194,211.61096 499.52849,211.75751 499.23539,212.08616 499.38194,212.23271 499.67504,212.52581 500.33235,211.93962 500.62544,212.23271 500.77199,212.37926 500.4789,212.70792 500.62544,212.85447 500.91854,213.14756 501.49821,212.66909 501.86895,212.85447 502.59321,213.2166 503.00994,213.73584 503.7342,214.09797 504.10495,214.28334 504.60697,213.9126 504.97771,214.09797 505.23986,214.22905 505.33731,214.58864 505.59946,214.71972 505.78483,214.81242 506.07466,214.57317 506.22121,214.71972 506.36776,214.86627 506.07466,215.19493 506.22121,215.34147 506.51431,215.63457 507.09398,215.1561 507.46472,215.34147 507.72687,215.47255 507.82432,215.83215 508.08647,215.96323 508.45721,216.1486 509.03688,215.67013 509.32997,215.96323 509.47652,216.10977 509.18342,216.43843 509.32997,216.58498 509.47652,216.73153 509.76635,216.49228 509.95173,216.58498 510.21388,216.71605 510.31132,217.07565 510.57348,217.20673 510.94422,217.3921 511.44624,217.02136 511.81698,217.20673 512.07914,217.33781 512.17658,217.69741 512.43873,217.82848 512.6241,217.92118 512.87511,217.73578 513.06049,217.82848 513.91979,218.25814 514.50712,219.07199 515.54749,219.07199 517.00561,219.07199 515.2544,218.92544 516.791,219.69374 516.97637,219.78644 517.2662,219.54719 517.41275,219.69374 517.5593,219.84029 517.2662,220.16894 517.41275,220.31549 517.72363,220.62637 518.96713,220.00461 519.27801,220.31549 519.42455,220.46204 519.13146,220.79069 519.27801,220.93724 520.94034,222.59958 518.85917,219.2749 520.52151,220.93724 520.66806,221.08379 520.37496,221.41245 520.52151,221.55899 520.81461,221.85209 521.47192,221.2659 521.76501,221.55899 521.91156,221.70554 521.61847,222.0342 521.76501,222.18075 523.42735,223.84308 521.34618,220.51841 523.00852,222.18075 523.15507,222.3273 522.86197,222.65595 523.00852,222.8025 523.30162,223.0956 523.88128,222.61713 524.25202,222.8025 524.97629,223.16463 525.39302,223.68387 526.11728,224.046 526.48802,224.23137 527.06769,223.75291 527.36078,224.046 527.50733,224.19255 527.21424,224.52121 527.36078,224.66776 527.67166,224.97863 528.91516,224.35688 529.22604,224.66776 529.37259,224.8143 529.07949,225.14296 529.22604,225.28951 529.37259,225.43606 529.70124,225.14296 529.84779,225.28951 529.99434,225.43606 529.70124,225.76471 529.84779,225.91126 530.14089,226.20436 530.72055,225.72589 531.0913,225.91126 531.35345,226.04234 531.45089,226.40193 531.71305,226.53301 532.38087,226.86692 532.28873,226.1991 532.95655,226.53301 533.21871,226.66409 533.31615,227.02369 533.5783,227.15476 533.94905,227.34013 534.45107,226.96939 534.82181,227.15476 535.34612,227.41692 535.54101,228.13611 536.06531,228.39827 536.43605,228.58364 536.93808,228.2129 537.30882,228.39827 537.57097,228.52934 537.66842,228.88894 537.93057,229.02002 538.30131,229.20539 538.80333,228.83465 539.17407,229.02002 539.43623,229.1511 539.53367,229.5107 539.79583,229.64177 541.79063,230.63917 539.04452,228.64437 541.03933,229.64177 541.30148,229.77285 541.39893,230.13245 541.66108,230.26352 541.84645,230.35622 542.09746,230.17082 542.28283,230.26352 543.0071,230.62566 543.42383,231.1449 544.14809,231.50703 544.51883,231.6924 545.02085,231.32166 545.39159,231.50703 545.65375,231.63811 545.75119,231.9977 546.01335,232.12878 546.38409,232.31415 546.88611,231.94341 547.25685,232.12878 547.98111,232.49091 548.39785,233.01015 549.12211,233.37228 549.49285,233.55766 549.99487,233.18691 550.36561,233.37228 551.08987,233.73442 551.50661,234.25366 552.23087,234.61579 552.41624,234.70849 552.70607,234.46924 552.85262,234.61579 552.99917,234.76234 552.70607,235.09099 552.85262,235.23754 553.14003,235.52495 554.34248,235.04984 554.71788,235.23754 554.98003,235.36862 555.07747,235.72822 555.33963,235.85929 555.71037,236.04466 556.21239,235.67392 556.58313,235.85929 557.30739,236.22142 557.72413,236.74067 558.44839,237.1028 558.63376,237.1955 558.88477,237.0101 559.07014,237.1028 561.13223,239.16489 558.48395,236.8097 560.31364,237.72455 560.5758,237.85563 560.67324,238.21522 560.9354,238.3463 561.30614,238.53167 561.8858,238.0532 562.1789,238.3463 562.32545,238.49285 562.03235,238.82151 562.1789,238.96805 562.472,239.26115 563.12931,238.67496 563.42241,238.96805 563.56895,239.1146 563.27586,239.44326 563.42241,239.58981 563.56895,239.73635 563.85879,239.49711 564.04416,239.58981 564.30631,239.72088 564.37281,240.21156 564.66591,240.21156 564.87316,240.21156 564.87316,239.58981 564.66591,239.58981 564.45866,239.58981 564.51936,240.06501 564.66591,240.21156 564.95901,240.50465 565.61632,239.91846 565.90941,240.21156 566.05596,240.35811 565.76287,240.68676 565.90941,240.83331 566.05596,240.97986 566.38462,240.68676 566.53117,240.83331 566.67771,240.97986 566.38462,241.30851 566.53117,241.45506 566.82426,241.74816 567.36017,241.45506 567.77467,241.45506 569.43268,241.45506 567.56742,241.24781 568.39642,242.07681 568.68952,242.36991 569.34683,241.78372 569.63993,242.07681 570.49758,242.93447 567.99496,242.69857 567.77467,242.69857"
       inkscape:connector-curvature="0"
       id="path5366"
       style="fill:none;stroke:#0000e9;stroke-width:1;stroke-miterlimit:4;stroke-opacity:1;stroke-dasharray:none;stroke-dashoffset:0" />
    <path
       d="M 429.7457,191.09314 395.75925,101.11102"
       inkscape:connector-curvature="0"
       id="path5368"
       style="fill:none;stroke:#0000e9;stroke-width:1;stroke-miterlimit:4;stroke-opacity:1;stroke-dasharray:none;stroke-dashoffset:0" />
    <path
       d="M 490.05566,207.2587 C 497.97947,232.07579 499.52202,254.7658 497.51668,276.27318"
       inkscape:connector-curvature="0"
       id="path5370"
       style="fill:none;stroke:#0000e9;stroke-width:1;stroke-miterlimit:4;stroke-opacity:1;stroke-dasharray:none;stroke-dashoffset:0" />
    <path
       d="M 455.23754,194.82365 C 441.39242,215.97949 428.57279,237.54553 422.90643,261.97288"
       inkscape:connector-curvature="0"
       id="path5372"
       style="fill:none;stroke:#0000e9;stroke-width:1;stroke-miterlimit:4;stroke-opacity:1;stroke-dasharray:none;stroke-dashoffset:0" />
    <path
       d="M 424.77169,190.47139 C 406.62821,213.12083 390.04306,236.74423 384.97955,267.56865"
       inkscape:connector-curvature="0"
       id="path5374"
       style="fill:none;stroke:#0000e9;stroke-width:1;stroke-miterlimit:4;stroke-opacity:1;stroke-dasharray:none;stroke-dashoffset:0" />
    <path
       d="M 403.63212,380.72753 C 403.63212,379.89853 404.46112,378.24052 403.63212,378.24052 402.80311,378.24052 403.04592,381.31372 403.63212,380.72753 410.20377,374.15588 403.09497,379.31482 404.25387,376.99702 404.616,376.27276 405.13524,375.85602 405.49737,375.13176 405.68274,374.76102 405.20428,374.18135 405.49737,373.88826 405.64392,373.74171 405.97258,374.03481 406.11913,373.88826 406.26567,373.74171 406.02643,373.45188 406.11913,373.26651 406.2502,373.00435 406.6098,372.90691 406.74088,372.64475 406.83358,372.45938 406.59433,372.16955 406.74088,372.023 407.03397,371.7299 407.69128,372.3161 407.98438,372.023 408.13093,371.87645 407.83783,371.5478 407.98438,371.40125 408.13093,371.2547 408.45959,371.5478 408.60613,371.40125 408.75268,371.2547 408.45959,370.92605 408.60613,370.7795 408.75268,370.63295 409.08134,370.92605 409.22789,370.7795 409.52098,370.4864 408.93479,369.82909 409.22789,369.53599 409.37443,369.38944 409.70309,369.68254 409.84964,369.53599 410.16051,369.22512 409.53876,367.98161 409.84964,367.67074 409.99619,367.52419 410.32484,367.81729 410.47139,367.67074 412.13373,366.0084 408.80905,368.08957 410.47139,366.42723 410.61794,366.28068 410.94659,366.57378 411.09314,366.42723 411.50764,366.01273 410.67864,364.35473 411.09314,363.94022 411.23969,363.79368 411.56835,364.08677 411.71489,363.94022 411.95715,363.69797 411.71489,361.83264 411.71489,361.45322 411.71489,361.03871 411.4218,360.50281 411.71489,360.20971 411.86144,360.06316 412.1901,360.35626 412.33665,360.20971 412.38725,360.15911 412.33665,355.15151 412.33665,354.61394 412.33665,354.19944 412.62974,353.66354 412.33665,353.37044 412.04355,353.07734 411.38624,353.66354 411.09314,353.37044 410.94659,353.22389 411.23969,352.89524 411.09314,352.74869 410.80005,352.45559 410.22038,352.93406 409.84964,352.74869 409.58748,352.61761 409.49004,352.25801 409.22789,352.12693 409.04252,352.03423 408.7915,352.21963 408.60613,352.12693 408.34398,351.99586 408.24654,351.63626 407.98438,351.50518 407.79901,351.41248 407.548,351.59788 407.36263,351.50518 406.83832,351.24303 406.64343,350.52383 406.11913,350.26168 405.93375,350.16898 405.68274,350.35438 405.49737,350.26168 405.23522,350.1306 405.13777,349.771 404.87562,349.63993 404.50488,349.45456 404.00286,349.8253 403.63212,349.63993 403.36996,349.50885 403.27252,349.14925 403.01036,349.01817 402.82499,348.92547 402.53516,349.16472 402.38861,349.01817 402.24206,348.87163 402.53516,348.54297 402.38861,348.39642 401.10219,347.10999 402.43891,350.36225 401.14511,347.77467 401.05241,347.5893 401.29166,347.29947 401.14511,347.15292 400.85201,346.85982 400.1947,347.44601 399.9016,347.15292 399.75506,347.00637 400.04815,346.67771 399.9016,346.53117 399.75506,346.38462 399.4871,346.53117 399.27985,346.53117 399.27985,346.32391 399.4264,346.05596 399.27985,345.90941 398.86606,345.49562 398.45014,346.32321 398.03635,345.90941 397.8898,345.76287 398.1829,345.43421 398.03635,345.28766 397.8898,345.14111 397.56114,345.43421 397.4146,345.28766 397.26805,345.14111 397.56114,344.81246 397.4146,344.66591 397.10372,344.35503 395.86022,344.97679 395.54934,344.66591 394.26291,343.37948 397.51517,344.71621 394.92759,343.42241 394.55219,343.23471 393.34975,343.70982 393.06233,343.42241 392.91578,343.27586 393.20888,342.9472 393.06233,342.80065 392.76923,342.50756 392.11192,343.09375 391.81883,342.80065 391.67228,342.6541 391.96538,342.32545 391.81883,342.1789 391.61245,341.97252 387.05119,341.97252 386.84481,342.1789 386.69826,342.32545 386.99136,342.6541 386.84481,342.80065 386.55171,343.09375 385.8944,342.50756 385.60131,342.80065 385.45476,342.9472 385.74785,343.27586 385.60131,343.42241 385.45476,343.56895 385.1261,343.27586 384.97955,343.42241 384.83301,343.56895 385.1261,343.89761 384.97955,344.04416 384.83301,344.19071 384.50435,343.89761 384.3578,344.04416 384.21125,344.19071 384.50435,344.51936 384.3578,344.66591 384.21125,344.81246 383.8826,344.51936 383.73605,344.66591 383.5895,344.81246 383.8826,345.14111 383.73605,345.28766 383.5895,345.43421 383.26085,345.14111 383.1143,345.28766 381.82787,346.57409 385.08013,345.23736 382.49255,346.53117 380.83454,346.53117 382.6998,346.32391 381.87079,347.15292 381.72425,347.29947 381.39559,347.00637 381.24904,347.15292 381.10249,347.29947 381.34174,347.5893 381.24904,347.77467 381.11796,348.03682 380.75837,348.13427 380.62729,348.39642 380.53459,348.58179 380.77384,348.87163 380.62729,349.01817 380.48074,349.16472 380.15209,348.87163 380.00554,349.01817 379.71244,349.31127 380.19091,349.89094 380.00554,350.26168 379.87446,350.52383 379.51486,350.62128 379.38379,350.88343 379.13508,351.38083 379.63249,352.25128 379.38379,352.74869 379.02165,353.47295 378.50241,353.88968 378.14028,354.61394 378.04758,354.79931 378.28683,355.08915 378.14028,355.2357 377.99373,355.38224 377.66508,355.08915 377.51853,355.2357 377.37198,355.38224 377.66508,355.7109 377.51853,355.85745 377.37198,356.004 377.04333,355.7109 376.89678,355.85745 376.60368,356.15054 377.18987,356.80785 376.89678,357.10095 376.75023,357.2475 376.42157,356.9544 376.27502,357.10095 376.22012,357.15585 376.27502,359.50262 376.27502,357.7227"
       inkscape:connector-curvature="0"
       id="path5376"
       style="fill:none;stroke:#0000e9;stroke-width:1;stroke-miterlimit:4;stroke-opacity:1;stroke-dasharray:none;stroke-dashoffset:0" />
    <path
       d="M 401.14511,268.1904 391.19708,342.1789"
       inkscape:connector-curvature="0"
       id="path5378"
       style="fill:none;stroke:#0000e9;stroke-width:1;stroke-miterlimit:4;stroke-opacity:1;stroke-dasharray:none;stroke-dashoffset:0" />
    <path
       d="M 456.34392,195.20202 C 461.96587,196.70404 467.24949,199.00645 472.78149,200.81722 475.49116,202.43137 478.67813,203.23383 481.62203,204.3923 484.06858,204.72028 485.86654,206.37674 488.18928,206.78216 491.73459,209.36194 491.66591,214.57397 493.09666,218.3835 497.70572,236.61617 498.86769,255.62723 497.50536,274.33316 497.81354,276.21635 496.04994,277.49776 494.67882,275.8355 490.17271,274.66666 486.22447,272.00561 481.65306,270.80352 473.25682,268.37301 464.59862,266.00826 456.14962,263.90563 445.52818,262.67746 434.81585,261.98075 424.14882,262.2541 421.80365,261.27128 424.71703,258.05703 424.4597,256.32803 430.87589,234.5252 442.23015,214.37039 455.15871,195.80435 455.45704,195.47627 455.84866,195.08327 456.34392,195.20202 z"
       inkscape:connector-curvature="0"
       id="path5380"
       style="fill:#84cdcd;stroke:none" />
    <path
       d="M 421.64238,191.60752 C 424.44236,191.98492 420.61968,195.04936 420.22401,196.17351 403.89013,217.01867 389.81445,240.54496 384.99787,266.91724 383.74634,269.32866 380.3599,266.71487 378.45004,266.58694 375.06646,265.15982 368.85837,263.9013 369.78376,258.91251 369.40006,237.87257 369.57456,216.8273 369.53179,195.78492 374.43334,193.10253 380.81075,196.29708 385.85278,193.41449 392.14348,191.86355 398.73567,194.25249 404.93279,193.47279 410.28403,191.84139 416.09209,191.92464 421.64238,191.60753 z"
       inkscape:connector-curvature="0"
       id="path5382"
       style="fill:#a78875;stroke:none" />
    <path
       d="M 439.03201,190.84976 C 444.23782,190.88076 449.58283,192.3299 454.05121,194.87172 452.82194,199.92678 448.88587,204.13835 446.43516,208.7297 436.33615,224.65306 428.51272,241.94371 423.21553,260.03984 422.80395,263.17949 419.77266,263.73756 417.17679,264.01375 407.66105,267.97393 396.97061,269.68686 386.62997,268.54934 384.09205,267.26652 386.18461,263.48186 386.24777,261.35743 389.00576,248.94608 394.64185,237.47999 399.55075,225.84274 399.10917,224.45825 400.67924,224.92522 400.38623,223.70547 401.74314,223.77277 402.69785,221.99208 401.96004,220.69386 402.418,219.77558 403.77101,220.84082 403.98074,219.31435 404.30376,218.39046 403.54359,216.80479 405.16595,217.04107 404.90812,215.06696 407.47068,214.89924 408.02213,213.03854 413.17023,205.92369 418.06315,198.44268 424.09053,192.0544 426.43128,190.90448 429.28249,192.78795 431.41555,191.18007 433.87937,190.75113 436.49952,190.84656 439.03201,190.84976 z"
       inkscape:connector-curvature="0"
       id="path5384"
       style="fill:#a9a2da;stroke:none" />
    <path
       d="M 389.85531,341.93552 C 394.66151,343.33826 399.14618,346.00232 402.83438,349.37711 405.92029,350.84091 410.24593,351.57909 412.06351,354.70086 412.50716,359.29359 411.20654,364.02896 409.71251,368.18511 407.9422,372.01208 404.48319,374.98886 403.16469,379.16292 403.05177,380.35723 402.37607,381.92491 400.89141,380.81445 397.57825,379.51648 394.10014,378.54096 391.62341,375.72386 385.94073,370.30628 379.56787,364.72628 376.77908,357.18787 379.31687,353.0087 380.15875,347.87828 384.31783,344.77226 385.82686,343.37459 387.59563,341.71509 389.85531,341.93552 z"
       inkscape:connector-curvature="0"
       id="path5386"
       style="fill:#73837a;stroke:none" />
    <path
       d="M 372.44625,264.66339 C 375.197,265.2671 377.78165,266.53166 380.47074,267.22812 386.40292,269.62437 393.26293,268.38261 399.56978,268.85315 402.04025,269.89401 399.57178,274.32771 399.87897,276.66096 396.95823,298.21783 394.49479,319.91055 391.04052,341.33319 389.32796,343.15258 386.05395,341.55951 384.55098,344.03393 382.51319,345.90642 380.23134,347.26525 379.71298,350.27088 379.0904,352.22132 378.57391,355.97493 375.92417,355.7695 374.42109,354.36564 371.94283,353.58251 371.1056,351.72811 369.90793,326.61734 370.38435,301.4398 370.13411,276.30181 370.6042,272.60904 369.32496,268.22029 371.16388,264.89655 371.53788,264.66167 372.01517,264.60648 372.44625,264.66339 z"
       inkscape:connector-curvature="0"
       id="path5388"
       style="fill:#c6bdae;stroke:none" />
    <path
       d="M 427.41232,289.62596 C 426.25577,291.13177 424.01627,293.28277 423.22234,295.9485 421.64407,298.48459 422.04428,304.16699 426.16282,303.03072 429.04666,301.52409 431.00821,298.7181 432.24786,295.78054"
       inkscape:connector-curvature="0"
       id="path5398"
       style="fill:none;stroke:#0000e9;stroke-width:1;stroke-miterlimit:4;stroke-opacity:1;stroke-dasharray:none;stroke-dashoffset:0" />
    <path
       d="M 428.29674,289.88925 C 429.58417,291.75268 432.54426,293.09686 432.70693,295.49473 430.32416,298.06908 428.74794,302.21931 424.91697,303.02365 422.06278,301.79716 422.17742,298.05674 423.59803,295.76951 424.64905,293.53393 426.09762,291.32947 427.95326,289.75187 L 428.29674,289.88925 z"
       inkscape:connector-curvature="0"
       id="path5400"
       style="fill:#7973c6;stroke:none" />
    <path
       d="M 491.99179,209.40672 C 494.82632,210.6938 498.06713,211.17122 500.56487,213.19866 502.12927,213.01996 503.08534,214.44753 504.65907,214.25656 509.41393,217.59913 515.39285,218.6708 520.28021,221.89539 523.96888,223.48246 527.85292,224.64466 531.38125,226.64905 533.19641,226.94156 534.94528,227.69672 536.35473,228.64119 538.61088,229.20711 540.73645,230.23801 542.93567,230.94933 544.73197,231.97958 546.90975,232.13132 548.62358,233.27121 551.10245,233.77897 552.81031,235.89814 555.39686,236.11516 559.22972,237.71587 563.36687,239.414 566.63529,241.80307 568.16882,241.50341 567.77534,243.45909 569.10829,243.42426 569.93687,244.69552 567.59002,245.58205 567.74814,247.05133 566.58295,248.61322 566.61404,250.6919 565.23392,252.21716 564.72743,253.40281 564.27995,254.5989 563.40665,255.5832 563.43065,257.2269 561.54384,257.88384 561.71676,259.6087 561.33021,261.58265 559.79805,263.04371 559.42236,265.00809 557.98855,266.52264 557.46098,268.64588 556.16624,270.32505 554.94873,273.62893 552.698,276.52536 551.22023,279.76368 548.95687,282.93584 547.97743,286.93171 544.99651,289.54578 543.33865,292.30105 538.73753,292.26113 537.49506,295.45351 536.2531,296.66226 535.29917,298.02741 534.36259,299.42406 531.90115,300.706 529.93973,297.30513 528.24878,296.03055 525.90821,293.72439 523.03055,292.14207 520.5962,290.02664 517.30687,288.50537 515.00343,285.65359 511.68479,284.24599 507.80161,281.5654 503.23186,279.74134 499.08107,277.63415 496.73607,275.92496 498.41883,272.4665 498.17265,270.08299 499.38615,249.91756 496.85523,229.49021 491.26363,210.16236 491.17443,209.73951 491.50167,209.26721 491.99179,209.40672 z"
       inkscape:connector-curvature="0"
       id="path5402"
       style="fill:#cda392;stroke:none" />
    <path
       d="M 458.25671,264.51997 C 459.31474,265.04255 460.4025,265.45523 461.60835,265.18058 462.31422,265.64433 463.1107,265.71172 463.91077,265.99663 464.63887,267.14115 466.21361,265.91703 466.97096,267.08469 467.7745,267.27782 468.84794,266.88683 469.4774,267.65787 470.34701,267.4192 471.09041,267.91727 471.65353,268.46421 472.52469,268.30167 473.57962,268.19396 474.02396,269.09567 475.09477,268.88091 476.13103,269.01097 477.055,269.42598 478.07228,269.37278 478.66072,270.23268 479.67802,270.17403 480.37348,270.59056 480.94445,271.15739 481.83472,270.85407 483.15917,271.00386 484.1785,272.05769 485.5458,272.08786 486.25721,272.82504 487.54905,272.414 488.17853,273.35079 489.78806,274.63571 491.87972,274.87388 493.57029,275.95438 496.41032,276.64608 498.80617,278.50419 501.60449,279.30601 505.27911,280.85878 508.55744,283.12184 512.09656,284.90178 513.61713,286.04819 515.54107,286.74174 516.78885,288.33113 517.58492,288.85926 518.45358,289.24696 519.14956,289.9438 521.12292,290.93422 522.58179,292.74311 524.38588,293.97547 525.1155,294.94973 526.48721,295.02447 527.21291,296.12246 528.62818,297.71085 530.52119,298.88206 531.79833,300.54273 532.64925,302.29992 532.33984,304.50348 531.01143,305.89563 530.96703,306.78999 530.2747,307.25988 530.08851,308.1009 529.49699,308.65321 529.51685,309.76328 528.67014,310.26732 528.51053,310.96112 527.97867,311.51937 527.26148,311.52054 527.10721,313.01454 525.32593,313.57269 525.07564,315.02761 524.36638,316.19122 522.40867,316.18717 522.28747,317.66034 520.94653,319.87629 518.51031,321.15585 516.43911,322.55664 515.78538,323.58973 514.2296,323.2945 513.44693,324.30532 511.73815,325.48438 510.45946,327.52733 508.60892,328.35642 508.67332,329.49764 507.47207,330.05853 506.64651,330.25082 505.97987,331.25634 504.26306,331.26613 504.25665,332.66983 503.74955,333.61301 502.67064,334.31135 501.76965,334.56423 501.70845,335.94242 499.82382,335.7464 499.39922,336.95409 498.76079,337.57304 497.8612,337.61721 497.44653,338.50847 496.11764,339.41634 495.06485,340.78574 493.444,341.34521 492.67738,341.84174 491.98765,342.54192 491.08328,342.65672 489.83584,344.20705 487.72996,344.64579 485.99269,345.34774 485.19248,346.29089 483.92873,346.59499 482.9325,347.12556 482.49546,348.22184 481.14472,347.88568 480.48435,348.69937 478.93499,349.73277 477.03206,349.94611 475.95464,351.64282 474.83868,352.86073 473.2988,353.42194 472.25585,354.73231 470.82633,355.23303 469.87378,356.62973 468.29218,356.90844 467.30727,357.91381 465.98714,358.40562 464.82397,359.05543 462.42638,360.79187 459.44943,361.99623 456.88692,363.22311 456.13594,363.96125 454.72559,365.39292 453.66158,364.52491 451.92872,360.43242 451.14495,355.83227 451.48545,351.38068 452.32662,345.10105 457.4706,340.67433 461.42376,336.15747 467.12705,330.23565 472.95628,324.46909 477.9627,318.004 480.73282,314.52975 483.82761,310.13535 482.84507,305.40017 480.61752,301.44532 476.79339,298.6725 473.44118,295.67567 468.3728,291.38969 462.68432,287.74379 458.13042,282.91994 455.09865,279.0268 453.25952,273.74222 454.35133,268.83337 454.86717,267.0158 456.08463,264.58214 458.25671,264.51997 z"
       inkscape:connector-curvature="0"
       id="path5893"
       style="fill:#d5be93;stroke:none" />
    <path
       d="M 429.70971,284.14904 C 435.60022,284.59632 441.55416,285.67232 446.97305,288.0447 449.44824,289.1714 449.22652,292.38793 448.06112,294.40795 444.07824,302.51785 437.36549,309.71944 436.70443,319.08373 436.03434,321.7468 433.94643,324.22933 431.37096,325.20411 429.1286,324.86718 428.52453,321.98674 428.44678,320.07465 428.11913,316.37585 428.90531,312.52377 431.17666,309.57287 433.74583,304.56381 435.1421,298.10693 432.46874,292.90214 430.89993,290.07323 427.69718,288.45278 426.29979,285.53827 426.16034,283.83043 428.66981,284.20647 429.70971,284.14904 z"
       inkscape:connector-curvature="0"
       id="path6023"
       style="fill:#bfb879;stroke:none" />
    <path
       d="M 395.42015,102.26039 C 396.56783,103.32201 396.80728,105.14418 397.50338,106.49995 407.21559,131.48029 416.54834,156.63046 426.04599,181.70221 427.14779,184.79591 428.4667,187.84018 429.44629,190.96227 429.05181,192.14278 427.37736,191.52343 426.45667,191.70054 425.70422,191.78424 424.54144,191.61724 424.58541,190.73567 423.91241,190.88878 423.52057,192.19638 422.53919,191.72623 419.94429,191.78273 417.27741,191.24364 414.71747,191.67133 413.10115,192.95368 410.86309,191.94748 408.98675,192.17569 408.15268,192.19929 407.55355,193.18455 406.64037,192.76777 405.97545,192.60059 405.34404,192.72697 405.03957,193.3233 403.40212,193.83178 401.41765,193.7396 399.93016,192.8701 397.65879,192.59302 395.33866,193.01517 393.08839,192.97975 392.54887,192.67682 392.59106,191.86247 391.75073,192.16838 390.95995,191.91395 390.89948,193.03363 390.07684,192.86279 388.81297,193.01431 387.22868,192.5624 386.1589,193.0236 385.73175,193.94696 384.56514,192.9643 384.0245,193.76918 383.25693,194.10743 382.39597,193.97728 381.77314,194.60247 380.34989,195.15574 378.78332,194.75883 377.49703,194.12004 376.58366,193.9693 375.52707,193.86135 374.8802,194.58786 373.03123,194.97777 370.94834,194.63196 369.34684,193.69609 369.1714,171.48831 368.97569,149.26727 368.77669,127.05455 369.31892,125.98034 370.57061,125.30179 371.41545,124.56929 371.79966,122.89733 374.15879,122.28107 374.07614,120.43937 374.48172,119.38769 375.0311,118.40795 375.54537,117.42782 376.24598,116.37174 377.65649,116.13964 378.1549,114.95718 378.78969,114.13322 379.48575,113.41583 379.98229,112.54502 380.60627,112.39741 380.88258,111.90775 381.42228,111.66056 381.75839,111.40976 382.21,111.02819 382.69415,110.95883 383.61111,109.78989 385.20457,109.34773 386.3928,108.63439 387.01794,108.67459 387.18405,107.76005 387.89127,107.89612 389.21185,107.12704 390.1082,105.69445 391.56068,105.16233 392.28515,104.40519 393.00226,103.50208 394.0898,103.29838 394.53351,102.92725 394.55784,102.06666 395.42015,102.26042 z"
       inkscape:connector-curvature="0"
       id="path3011"
       style="fill:#a76986;stroke:none" />
    <path
       d="M 424.84856,93.452336 C 426.0884,93.292095 427.19611,93.762418 428.26214,94.27101 429.90446,94.562699 431.74343,93.703253 433.26921,94.431821 433.63409,95.226818 434.88271,94.557089 435.58635,94.972731 436.85472,95.716719 438.50042,95.317668 439.6651,96.354244 440.60508,96.937057 442.01872,96.352044 442.72781,97.31911 444.01647,97.27399 445.24005,97.63737 446.29489,98.371691 447.18547,98.704269 448.45527,98.309431 449.0433,99.226913 450.20762,99.260233 451.16175,100.16948 452.32531,99.789751 453.36708,99.807291 453.50308,101.39997 454.63514,101.15664 455.55526,101.41864 456.43293,101.80986 457.42009,101.67563 458.02862,101.92521 458.44269,102.42635 459.13784,102.50161 460.17408,103.49253 461.71226,103.24354 462.92421,103.74424 463.35724,104.49309 464.50847,103.9961 465.02206,104.76027 465.93235,104.86248 466.88529,104.82377 467.68276,105.35235 468.63144,105.32055 469.46565,105.68358 470.29228,106.03214 471.14226,105.94304 471.3361,107.06461 472.24394,106.75579 472.97859,106.80969 473.35118,107.56088 474.16636,107.31132 475.133,107.23472 475.69881,108.04961 476.60777,108.15192 477.18258,108.93766 478.34746,108.46255 479.06379,109.14603 479.81633,109.68131 480.75093,109.89044 481.45402,110.40328 482.16942,110.39118 482.7613,110.73306 483.3399,111.01728 484.73457,111.07058 485.55878,112.45174 486.94353,112.4792 487.96105,112.96723 488.90403,113.55138 490.02086,113.73645 490.49036,114.29196 491.30991,114.18268 491.79709,114.67208 492.7925,114.78562 493.45826,115.70207 494.50164,115.73197 495.9639,116.08378 497.07322,117.29439 498.60232,117.39124 499.62053,117.86259 500.60038,118.38453 501.58463,118.8824 502.94087,120.03998 504.65758,120.78307 506.26277,121.47 506.92476,121.488 507.21796,122.15711 507.85626,122.17903 508.53092,122.78905 509.15696,123.40526 510.04914,123.63363 510.61385,124.2565 511.62605,124.15611 512.08121,124.98591 512.51225,125.32434 513.12313,125.41322 513.49196,125.82651 514.91571,125.97691 515.47806,127.83804 516.92746,127.96091 517.60634,128.59617 518.68567,128.92726 519.1642,129.65674 520.85088,130.02536 522.38471,131.04669 523.6596,132.19316 525.01596,132.52026 525.66478,134.1134 527.05856,134.40066 528.27509,135.38589 529.84741,136.00901 530.49406,137.5584 531.24836,138.77832 532.68824,139.30999 533.5833,140.45943 534.91662,141.66817 536.04937,143.39122 537.94985,143.67653 538.60254,143.96527 538.27368,144.7969 539.06821,144.83876 540.87395,146.13484 542.26547,147.99021 544.02412,149.26837 544.62038,150.48702 546.18374,151.23287 546.48745,152.59423 547.29555,152.99631 547.64017,153.97584 548.39525,154.50934 549.00375,154.96282 548.87296,155.92355 549.17738,156.37329 549.72422,156.75488 549.94859,157.45083 550.54427,157.84983 550.86759,158.55343 551.14532,159.23424 551.73573,159.78687 552.04689,160.35871 551.99005,160.95657 552.66405,161.24148 553.3694,161.87215 553.36399,162.88679 554.22099,163.39049 554.69626,163.94717 554.46735,164.73088 555.25896,165.01322 556.09488,165.63083 556.25791,166.68233 556.95478,167.30844 556.99938,168.15813 557.53754,168.73297 558.12431,169.28202 558.62963,169.72085 557.78782,170.67651 558.67253,170.7147 558.99111,171.24468 559.30438,171.38609 559.95171,171.38719 561.62557,171.69592 562.87422,173.22632 562.89017,174.9031 563.34136,175.57292 563.95512,176.16561 564.11087,176.97902 564.68812,177.46845 564.61533,178.24326 565.14152,178.75525 565.53971,180.08036 567.12157,180.71138 567.40749,182.10305 568.17251,182.68617 568.34332,183.61276 568.62089,184.4275 569.22766,184.98343 569.51463,185.72623 569.80504,186.44494 570.58116,187.85796 570.97081,189.46901 572.02716,190.72105 572.12396,191.34225 573.00252,191.43424 572.75811,192.2049 573.21306,192.77654 573.22597,193.60501 573.45983,194.20042 574.39686,194.83245 573.73446,196.19153 574.53434,196.91958 574.80667,197.86129 574.0459,199.26365 575.20683,199.72647 575.58146,200.82931 574.77529,202.16347 575.74774,203.06695 576.22451,205.0574 575.47812,207.24709 575.91586,209.1997 577.05672,209.76947 576.46818,211.43796 576.57372,212.46708 576.53732,213.24235 575.70721,213.5311 575.93779,214.3822 575.74779,217.01493 576.20765,219.73979 575.63809,222.32041 574.75117,223.14949 575.54549,224.64279 575.36498,225.71861 575.51662,227.04967 575.52744,228.45918 574.72439,229.56421 574.76289,230.61285 576.90855,230.91318 576.01088,232.11526 575.93108,232.81096 575.69625,233.73468 574.76825,233.57718 573.88098,233.56008 572.98977,233.98888 573.10166,235.01717 573.06786,236.00863 572.70057,236.989 572.16604,237.76557 571.87933,238.91495 571.03407,239.83927 570.70412,240.96718 569.6829,241.64849 568.22746,241.31318 567.09318,241.07682 566.63859,240.82953 566.17117,240.47579 565.90903,240.11926 565.09135,240.18476 564.88401,239.18134 564.05239,239.35907 563.55962,239.07466 563.23635,238.67537 562.63433,238.48922 561.99171,237.94458 560.94122,238.2956 560.30988,237.61938 558.83203,237.17223 557.58921,236.17336 556.15073,235.67503 555.28927,235.58293 554.63928,234.95683 553.70932,235.1195 553.06678,235.053 553.00128,234.31115 552.3205,234.352 551.30806,233.94316 550.4431,233.08298 549.30895,233.17515 548.16649,232.6846 547.19637,231.84074 545.92461,231.69861 545.05896,231.19099 543.98674,231.49898 543.22737,230.6972 541.65574,229.72757 539.91342,228.91189 538.05218,228.76747 537.47222,228.44582 536.98255,228.11426 536.29057,228.09499 535.40954,227.73845 534.83664,226.81312 533.79069,226.8889 533.09963,226.37317 532.26331,226.38022 531.52472,226.03368 531.0501,225.68247 530.08143,225.91842 529.97508,225.10536 529.42005,224.73136 528.91849,224.27982 528.18423,224.52791 527.48985,224.48691 527.46765,223.56382 526.6346,223.87004 525.39804,223.5318 524.31651,222.72863 523.19909,222.14498 522.51824,221.26376 521.06897,221.67523 520.50185,220.68306 519.62769,219.96863 518.1376,220.55877 517.54147,219.54277 516.63024,219.66689 516.13122,218.84016 515.24626,218.82643 513.89735,218.31241 512.70886,217.48775 511.35756,217.02096 510.15327,217.17082 509.60533,215.56438 508.36062,215.65406 507.30627,215.47071 506.67283,214.52913 505.62684,214.47722 504.74911,213.66323 503.40347,213.99534 502.49833,213.14688 501.87712,212.73126 501.01283,212.72724 500.61246,212.05775 499.87618,212.05765 499.52611,211.26562 498.72659,211.43643 497.49041,211.16291 496.48059,210.32219 495.32763,209.89411 494.82646,209.31001 493.61506,209.89611 493.25901,209.01696 492.38216,209.15441 492.20764,208.10704 491.38776,208.16173 490.79546,207.65493 490.07633,207.71011 489.39224,207.60621 488.59939,206.73727 487.56764,205.98368 486.33683,205.88845 485.84149,205.68032 485.8373,204.97982 485.13075,205.25983 484.26324,205.41288 484.01884,204.36334 483.17909,204.53618 482.42812,204.25418 481.72916,203.95707 480.89849,203.93679 480.24923,203.32027 479.35488,203.5112 478.59597,203.14005 478.30257,202.48783 477.46612,202.75335 477.0902,202.19711 476.07915,202.21581 475.33526,201.55998 474.4222,201.32727 474.11719,200.86862 473.7178,200.52409 473.23804,200.28931 472.31715,200.34241 471.36737,200.27791 470.64314,199.68261 469.56765,199.68561 468.74282,198.85498 467.67545,198.81277 466.94116,198.22698 465.74241,198.63291 465.10247,197.79674 464.2581,197.67005 463.79246,196.8639 462.84381,197.02923 462.27122,196.66436 461.67758,196.5975 461.0091,196.4737 460.39886,195.94885 459.69295,195.85714 458.91856,195.69157 457.59404,194.89085 456.03176,194.87909 454.6059,194.45625 453.63794,193.90017 452.37034,193.95741 451.4847,193.18438 450.66614,192.76028 449.64612,192.90288 448.9629,192.21952 447.91196,192.24782 447.08141,191.23089 446.00982,191.61282 445.17491,191.57562 444.69165,190.71638 443.76578,190.95496 439.17777,190.82407 434.54103,191.14436 429.98376,190.94426 428.778,188.73156 428.09552,186.05264 427.08106,183.66411 417.03509,156.91749 406.74102,130.24749 396.94134,103.41864 396.72009,102.51126 395.58985,100.84377 397.07942,100.48419 397.7186,100.43669 398.13822,99.98668 398.73139,99.775162 399.59387,98.839866 400.80384,98.258868 401.90375,97.772334 402.71502,97.105007 403.99761,97.155462 404.80566,96.376202 405.6085,95.733126 406.70197,95.693794 407.56869,95.309002 407.94188,94.637096 408.89493,94.975314 409.32299,94.746164 409.91744,93.378123 411.71148,94.875562 412.66347,93.964038 415.30121,93.215307 418.14768,93.662627 420.86478,93.471859 422.19265,93.463259 423.52068,93.431089 424.84856,93.452369 z"
       inkscape:connector-curvature="0"
       id="path3013"
       style="fill:#b1daa9;stroke:none" />
  </g>
</svg>
