<?xml version="1.0" encoding="UTF-8" standalone="no"?>
<!-- Created with Inkscape (http://www.inkscape.org/) -->

<svg
   xmlns:dc="http://purl.org/dc/elements/1.1/"
   xmlns:cc="http://creativecommons.org/ns#"
   xmlns:rdf="http://www.w3.org/1999/02/22-rdf-syntax-ns#"
   xmlns:svg="http://www.w3.org/2000/svg"
   xmlns="http://www.w3.org/2000/svg"
   xmlns:xlink="http://www.w3.org/1999/xlink"
   xmlns:inkscape="http://www.inkscape.org/namespaces/inkscape"
   version="1.1"
   width="740"
   height="520"
   id="svg2"
   style="enable-background:new">
  <defs
     id="defs4">
    <filter
       color-interpolation-filters="sRGB"
       id="filter3050">
      <feBlend
         in2="BackgroundImage"
         mode="lighten"
         id="feBlend3052" />
    </filter>
  </defs>
  <metadata
     id="metadata7">
    <rdf:RDF>
      <cc:Work
         rdf:about="">
        <dc:format>image/svg+xml</dc:format>
        <dc:type
           rdf:resource="http://purl.org/dc/dcmitype/StillImage" />
        <dc:title />
      </cc:Work>
    </rdf:RDF>
  </metadata>
  <g
     id="layer1"
     style="display:none">
    <image
       xlink:href="pngs/coronal-0624.png"
       id="MRISLICE"
       height="520"
       width="740"
       y="0"
       x="0" />
  </g>
  <g
     id="layer3"
     style="display:inline">
    <path
       d="M 374.29481,337.82664 369.32079,414.30214 C 369.35199,425.43986 406.92702,424.09621 419.68271,415.54565 439.40226,399.60303 460.07964,397.07012 483.10143,427.35894 517.29693,446.14565 548.37881,450.4021 577.60775,446.0115 628.29383,399.68949 614.29112,375.96076 676.46633,312.95655 705.30077,221.72622 647.85176,133.5161 592.52975,97.830328 577.53116,86.735277 411.47824,17.545897 373.05126,69.851484 L 373.41927,149.15859"
       inkscape:connector-curvature="0"
       id="path2990"
       style="fill:none;stroke:#0000e9;stroke-width:1;stroke-miterlimit:4;stroke-opacity:1;stroke-dasharray:none;stroke-dashoffset:0" />
    <path
       d="M 581.74661,344.62819 C 627.95215,282.2427 609.91562,244.08223 579.91363,212.21508 561.76533,192.93852 541.49595,174.0243 523.0799,170.46107 514.27112,168.75671 508.91432,164.15832 506.28828,163.69833 504.99608,163.47199 504.05833,164.15916 502.92589,163.56414 489.00953,156.25199 475.92137,150.1163 462.75981,148.64183 458.98649,148.21911 455.59279,148.25623 451.94619,149.05506 437.04882,152.31851 421.02502,148.2745 406.43602,155.24601 396.95159,159.77824 387.42336,166.79102 376.34204,164.30108 375.66551,164.14907 353.88022,163.74181 353.19176,163.51623 L 353.25486,148.93952"
       inkscape:connector-curvature="0"
       id="path2992"
       style="fill:none;stroke:#0000e9;stroke-width:1;stroke-miterlimit:4;stroke-opacity:1;stroke-dasharray:none;stroke-dashoffset:0" />
    <path
       d="M 451.39202,149.74663 C 448.87715,157.15727 454.58604,167.92189 457.76987,175.70683 460.88541,184.31042 474.01598,189.55787 480.21785,190.71982 485.71489,197.66066 494.22502,204.03798 493.32522,214.00487 493.94115,222.75902 482.42972,220.35095 479.45648,226.50589 475.51771,231.39989 478.82126,238.4156 485.40875,239.9858 495.94882,240.6926 500.59573,237.46881 502.65068,231.35227 515.36424,209.11807 510.52643,179.45787 504.24089,164.35775"
       inkscape:connector-curvature="0"
       id="path2994"
       style="fill:none;stroke:#0000e9;stroke-width:1;stroke-miterlimit:4;stroke-opacity:1;stroke-dasharray:none;stroke-dashoffset:0" />
    <path
       d="M 527.24578,400.00185 C 523.10301,394.32606 528.3468,379.12989 515.69293,384.33335 503.70156,387.7346 492.12488,395.63168 486.62691,407.04586 481.63014,416.23303 490.34782,424.11285 498.87559,425.74632 507.60049,430.365 518.96357,428.6714 522.96747,418.64927 527.01599,412.96773 525.01092,406.10061 527.24578,400.00185 z"
       inkscape:connector-curvature="0"
       id="path3006"
       style="fill:none;stroke:#0000e9;stroke-width:1;stroke-miterlimit:4;stroke-opacity:1;stroke-dasharray:none;stroke-dashoffset:0" />
    <path
       d="M 421.54792,347.15292 C 420.72547,346.31194 419.21627,346.20161 418.81819,344.95557 417.60698,343.4518 415.51919,343.5093 413.83968,342.91938 412.12752,342.56364 410.47855,343.79192 409.79535,345.30049 408.92052,346.73132 408.8107,348.80991 410.09439,350.04209 411.17847,351.45001 411.50942,353.33882 412.86753,354.55637 413.92491,355.65804 414.99334,356.75498 415.9607,357.93478 417.5988,359.47897 419.54465,360.68387 421.02339,362.39827 422.62004,363.72803 425.53436,362.33657 425.36522,360.22308 425.31582,357.52864 425.70371,354.667 424.48277,352.15688 423.70267,350.37991 422.58279,348.78541 421.54792,347.15292 z"
       inkscape:connector-curvature="0"
       id="path3008"
       style="fill:none;stroke:#0000e9;stroke-width:1;stroke-miterlimit:4;stroke-opacity:1;stroke-dasharray:none;stroke-dashoffset:0" />
    <path
       d="M 581.85328,344.70363 C 580.57803,347.82171 568.34778,361.49168 574.71745,361.58028 580.19116,357.79376 586.84876,345.72643 590.04278,340.31367"
       inkscape:connector-curvature="0"
       id="path3010"
       style="fill:none;stroke:#0000e9;stroke-width:1;stroke-miterlimit:4;stroke-opacity:1;stroke-dasharray:none;stroke-dashoffset:0" />
    <path
       d="M 354.29091,149.5489 C 357.7495,149.86572 380.7954,149.98105 383.86476,149.5341 392.28955,148.30718 399.48023,144.74363 404.8755,139.74142 410.58223,134.45045 420.67873,125.22792 421.29685,124.46551 429.73005,124.28778 441.18265,128.53939 452.01377,129.53973 508.55223,149.52816 565.98615,167.42357 609.46145,246.42913 613.86197,266.76378 629.43169,277.95055 590.04274,339.69194"
       inkscape:connector-curvature="0"
       id="path3083"
       style="fill:none;stroke:#0000e9;stroke-width:1;stroke-miterlimit:4;stroke-opacity:1;stroke-dasharray:none;stroke-dashoffset:0" />
    <path
       d="M 523.22649,246.35364 C 506.36451,272.26252 490.69749,311.93201 469.42283,321.66108"
       inkscape:connector-curvature="0"
       id="path3089"
       style="fill:none;stroke:#0000e9;stroke-width:1;stroke-miterlimit:4;stroke-opacity:1;stroke-dasharray:none;stroke-dashoffset:0" />
    <path
       d="M 511.74777,196.44534 C 519.30848,194.63309 524.61196,204.91761 524.01681,210.5333 527.0324,216.18117 533.81505,224.8631 531.94585,231.37994 532.86782,238.07467 530.49417,240.08011 522.42733,245.52712 523.53984,251.19722 528.8539,254.98628 531.61461,259.97207 541.06648,273.29478 550.38934,288.45799 549.89989,305.38441 548.89582,320.74178 537.02237,334.42571 522.09392,337.94835 504.77029,344.07639 482.69532,340.3676 471.5645,324.75973 470.74792,323.58273 470.02394,322.34012 469.42283,321.03933"
       inkscape:connector-curvature="0"
       id="path3093"
       style="fill:none;stroke:#0000e9;stroke-width:1;stroke-miterlimit:4;stroke-opacity:1;stroke-dasharray:none;stroke-dashoffset:0" />
    <path
       d="M 523.76125,336.5537 C 523.60937,339.44944 522.53786,344.72397 523.3938,347.70558 523.64777,351.52989 525.73501,354.84637 527.80375,357.94098 532.48807,365.17709 538.59567,361.93323 546.89418,363.19633"
       inkscape:connector-curvature="0"
       id="path3097"
       style="fill:none;stroke:#0000e9;stroke-width:1;stroke-miterlimit:4;stroke-opacity:1;stroke-dasharray:none;stroke-dashoffset:0" />
    <path
       d="M 479.77816,237.54244 C 475.34432,246.78602 499.44042,243.16923 501.17771,241.76059 504.68017,238.9207 509.11773,247.08683 496.25745,260.87968 492.43336,264.98107 490.18917,269.70289 485.3691,278.04593 479.58492,288.05776 472.22719,298.7968 464.13794,310.78042 465.11755,314.6712 466.29675,322.0929 473.15334,319.17407"
       inkscape:connector-curvature="0"
       id="path3099"
       style="fill:none;stroke:#0000e9;stroke-width:1;stroke-miterlimit:4;stroke-opacity:1;stroke-dasharray:none;stroke-dashoffset:0" />
    <path
       d="M 480.92525,224.66776 C 472.5114,222.73406 466.07082,228.62395 462.4707,237.54825 457.32174,248.39782 455.76731,256.94668 466.27959,260.77047 466.56864,267.39722 464.74914,273.87758 464.09794,280.43408 462.75829,288.51927 457.30555,295.61754 449.85282,299.02067 441.43353,303.08043 431.83801,302.78961 422.99316,305.41082 M 452.09504,318.77155 C 455.36888,321.06567 464.52873,312.96148 464.35776,310.96252"
       inkscape:connector-curvature="0"
       id="path3124"
       style="fill:none;stroke:#0000e9;stroke-width:1;stroke-miterlimit:4;stroke-opacity:1;stroke-dasharray:none;stroke-dashoffset:0" />
    <path
       d="M 425.90018,304.25202 454.50078,321.03933"
       inkscape:connector-curvature="0"
       id="path3135"
       style="fill:none;stroke:#0000e9;stroke-width:1;stroke-miterlimit:4;stroke-opacity:1;stroke-dasharray:none;stroke-dashoffset:0" />
    <path
       d="M 458.85305,326.01335 C 458.08618,327.45851 457.30666,325.58827 457.545,326.27384 451.74303,327.27892 445.736,327.48987 440.22552,329.75974 435.17061,331.23653 429.40416,334.26309 428.50766,339.99937 427.25125,348.02896 433.2561,354.94997 432.87045,362.92505 433.12473,370.75258 432.47854,378.59621 430.98992,386.27963 430.18393,391.08856 435.05881,394.93546 439.57301,394.63975 444.7372,394.18434 449.94076,394.49274 455.12257,394.40607 459.61968,395.99415 464.42891,394.70137 469.05079,394.82031 474.63135,393.89895 480.71598,392.60913 484.80921,388.4297 487.8537,383.87091 485.9472,377.77158 482.57291,373.95512 477.64012,366.73182 471.40671,359.65537 470.44731,350.59518 469.3725,343.62653 470.72317,335.81167 466.52081,329.68229 464.64294,327.47407 461.85534,325.71975 458.85305,326.01335 z"
       inkscape:connector-curvature="0"
       id="path3137"
       style="fill:none;stroke:#0000e9;stroke-width:1;stroke-miterlimit:4;stroke-opacity:1;stroke-dasharray:none;stroke-dashoffset:0" />
    <path
       d="M 413.1195,343.26492 C 409.90246,343.47663 408.23907,347.92701 410.48163,350.31298 413.2489,355.23954 417.36085,359.44124 422.1597,362.37574 424.94021,363.28311 425.7408,359.29707 425.26469,357.33356 424.76148,351.45414 421.14126,345.63904 415.49633,343.59465 414.72484,343.37447 413.92743,343.19984 413.1195,343.26492 z"
       inkscape:connector-curvature="0"
       id="path3025"
       style="fill:#bfb195;stroke:none" />
    <path
       d="M 459.46084,326.46223 C 450.38659,327.50101 440.61135,328.3607 432.90353,333.70263 428.87707,336.28829 427.95095,341.53384 429.18752,345.90728 430.55662,351.95058 433.38265,357.74967 432.94438,364.10599 433.62763,372.272 431.54182,380.31013 431.52964,388.43845 431.59294,391.51395 434.80698,393.35569 437.25872,394.25773 444.66357,394.21903 452.14424,393.7282 459.46084,394.82704 467.80386,394.86694 477.07751,394.30829 483.83367,388.89184 486.98762,385.78339 486.3203,380.2501 484.08097,376.74664 478.39575,367.72556 470.1867,359.15 470.00497,347.89631 469.18957,341.16074 470.04287,332.84806 464.24198,328.08342 462.89067,327.04161 461.19708,326.33868 459.46084,326.46223 z"
       inkscape:connector-curvature="0"
       id="path3027"
       style="fill:#aac7db;stroke:none" />
    <path
       d="M 522.16523,248.86487 C 519.31399,252.52733 517.30435,257.0415 514.80186,261.03005 504.87942,278.04228 496.18327,296.10137 483.32533,311.04717 479.72974,315.07131 475.30215,318.80242 470.63058,321.33762 470.36717,323.90562 473.12787,325.86668 474.50495,327.80864 484.27884,338.65343 500.08855,342.17103 514.13699,339.58741 519.35663,338.68264 524.48421,337.02087 529.33694,334.96661 542.80397,328.44871 551.74049,312.96508 549.25221,297.93078 546.55623,280.24422 535.32412,265.6517 525.10535,251.57143 524.21523,250.75941 523.5486,248.88208 522.16523,248.86487 z"
       inkscape:connector-curvature="0"
       id="path3031"
       style="fill:#78a9c2;stroke:none" />
    <path
       d="M 615.94282,281.49252 C 626.4889,290.24366 633.03598,304.00903 613.30495,331.39224 607.47779,335.45461 601.47441,340.83861 597.91737,327.87508"
       inkscape:connector-curvature="0"
       id="path3026"
       style="fill:none;stroke:#0000e9;stroke-width:1;stroke-miterlimit:4;stroke-opacity:1;stroke-dasharray:none;stroke-dashoffset:0" />
    <path
       d="M 614.18424,331.39224 C 622.00998,339.6345 597.95498,359.17265 596.59844,363.92599 591.18281,357.60041 587.59056,355.13165 585.16766,350.73663 583.49184,387.96447 564.12828,395.42934 566.26292,399.09759 569.65273,398.63235 571.5859,405.23848 584.28837,388.54611 584.88373,379.19959 593.55454,374.41974 597.03808,362.1674"
       inkscape:connector-curvature="0"
       id="path3028"
       style="fill:none;stroke:#0000e9;stroke-width:1;stroke-miterlimit:4;stroke-opacity:1;stroke-dasharray:none;stroke-dashoffset:0" />
    <path
       d="M 625.37359,301.49637 C 618.06703,304.54607 612.45657,305.33431 608.66707,303.6946"
       inkscape:connector-curvature="0"
       id="path3030"
       style="fill:none;stroke:#0000e9;stroke-width:1;stroke-miterlimit:4;stroke-opacity:1;stroke-dasharray:none;stroke-dashoffset:0" />
    <path
       d="M 553.07356,447.8982 C 552.51543,429.22732 539.10694,418.19989 558.3493,413.16624 576.1213,402.9718 579.03391,418.71516 585.16766,437.78636"
       inkscape:connector-curvature="0"
       id="path3032"
       style="fill:none;stroke:#0000e9;stroke-width:1;stroke-miterlimit:4;stroke-opacity:1;stroke-dasharray:none;stroke-dashoffset:0" />
    <path
       d="M 578.57298,416.6834 614.18424,359.96918 C 629.50149,345.54597 637.44639,339.51199 619.02033,363.48634 606.12407,383.41692 590.27614,410.72669 580.33156,423.27807"
       inkscape:connector-curvature="0"
       id="path3034"
       style="fill:none;stroke:#0000e9;stroke-width:1;stroke-miterlimit:4;stroke-opacity:1;stroke-dasharray:none;stroke-dashoffset:0" />
    <path
       d="M 424.69719,304.13425 C 415.29014,308.01702 401.65051,305.12767 397.43919,317.3236 402.42334,328.47715 434.03958,319.87456 453.71377,320.40111"
       inkscape:connector-curvature="0"
       id="path3036"
       style="fill:none;stroke:#0000e9;stroke-width:1;stroke-miterlimit:4;stroke-opacity:1;stroke-dasharray:none;stroke-dashoffset:0" />
    <path
       d="M 423.33451,305.18885 C 416.71301,306.39419 409.77735,307.13242 403.6604,310.0799 401.07106,311.83303 397.90067,314.51846 398.21979,317.97978 401.1053,321.83898 406.53534,322.59165 411.07941,322.59605 424.14672,322.75365 437.14603,320.77357 450.16661,320.28791 451.54623,319.00066 448.58455,318.14712 447.84473,317.48518 440.86547,313.52761 434.19015,308.86753 426.87915,305.61476 425.74412,305.22653 424.53134,305.08903 423.33451,305.18885 z"
       inkscape:connector-curvature="0"
       id="path3038"
       style="fill:#7cc091;stroke:none" />
    <path
       d="M 567.27708,410.33273 C 562.31975,410.91554 557.85233,413.5283 553.27713,415.40239 549.3531,416.92267 547.40492,421.42357 548.67459,425.39058 550.23102,432.67783 552.64807,439.75911 553.3733,447.20797 555.31435,448.20241 558.21306,447.11837 560.50297,447.31849 566.12504,446.97816 571.7839,446.55962 577.33396,445.69669 579.74241,443.10718 583.10271,441.137 584.93157,438.14028 582.65059,430.82875 580.66485,423.27358 577.02196,416.4975 575.04656,412.99173 571.55792,409.92852 567.27708,410.33273 z"
       inkscape:connector-curvature="0"
       id="path3040"
       style="fill:#b9abdd;stroke:none" />
    <path
       d="M 626.97264,349.45562 C 622.32053,352.16976 618.75203,356.57373 614.5793,360.05091 604.15729,376.05308 594.23664,392.46318 583.96248,408.59392 582.20309,411.65681 579.91082,414.51541 578.43307,417.62809 579.27338,418.66546 579.37795,421.86905 581.20833,421.44751 587.00698,414.42033 591.46345,406.34361 596.52722,398.76457 606.42103,383.24254 615.78937,367.38758 626.62917,352.53314 626.95914,351.83304 629.0214,349.44032 626.97264,349.45562 z"
       inkscape:connector-curvature="0"
       id="path3042"
       style="fill:#d5be93;stroke:none" />
    <path
       d="M 546.67015,368.57082 524.93628,396.89937"
       inkscape:connector-curvature="0"
       id="path3041"
       style="fill:none;stroke:#0000e9;stroke-width:0.93800002;stroke-linecap:round;stroke-miterlimit:4;stroke-opacity:1;stroke-dasharray:none;stroke-dashoffset:0" />
    <path
       d="M 500.75579,389.86504 485.80786,383.27037"
       inkscape:connector-curvature="0"
       id="path3043"
       style="fill:none;stroke:#0000e9;stroke-width:0.93800002;stroke-linecap:round;stroke-miterlimit:4;stroke-opacity:1;stroke-dasharray:none;stroke-dashoffset:0" />
    <path
       d="M 524.93628,354.25379 484.04928,376.23605"
       inkscape:connector-curvature="0"
       id="path3045"
       style="fill:none;stroke:#0000e9;stroke-width:0.93800002;stroke-linecap:round;stroke-miterlimit:4;stroke-opacity:1;stroke-dasharray:none;stroke-dashoffset:0" />
    <path
       d="M 464.70489,323.47863 463.8256,327.43544"
       inkscape:connector-curvature="0"
       id="path3047"
       style="fill:none;stroke:#0000e9;stroke-width:0.93800002;stroke-linecap:round;stroke-miterlimit:4;stroke-opacity:1;stroke-dasharray:none;stroke-dashoffset:0" />
    <path
       d="M 468.75535,322.88626 C 466.94799,323.36357 463.61343,324.10051 464.51002,326.6782 465.76034,329.12074 468.25754,330.7678 468.61796,333.71252 471.08539,342.96797 469.23133,353.37951 474.72927,361.73739 477.70799,366.48702 480.62318,371.46651 484.50014,375.50629 493.20759,371.34092 501.69073,366.37324 510.29057,361.86498 514.9352,359.08077 520.22391,357.06321 524.32924,353.53777 524.48792,351.26689 523.0343,349.00021 523.105,346.61543 522.73744,343.89615 523.47474,341.08475 522.88665,338.41123 521.14663,337.69292 519.25103,339.57714 517.40066,339.49166 502.69101,342.71328 485.64534,340.13399 474.89664,329.01381 472.80363,327.29577 471.703,324.2043 469.33238,322.87252 469.14162,322.85082 468.9438,322.84402 468.75535,322.88622 z"
       inkscape:connector-curvature="0"
       id="path3049"
       style="fill:#b2b789;stroke:none" />
    <path
       d="M 493.062,217.74398 C 503.50195,212.4578 506.15904,221.5626 505.67646,225.74217"
       inkscape:connector-curvature="0"
       id="path3052"
       style="fill:none;stroke:#0000e9;stroke-width:1;stroke-linecap:round;stroke-miterlimit:4;stroke-opacity:1;stroke-dasharray:none;stroke-dashoffset:0" />
    <path
       d="M 498.29522,216.35338 C 495.64479,216.54085 492.9521,217.58429 491.1029,219.54767 488.07537,221.78356 484.01074,222.16824 481.14906,224.64481 479.29073,226.64959 477.43516,229.29047 478.03719,232.17373 478.43603,235.80368 481.42942,238.48593 484.68939,239.73086 486.66257,240.07598 488.77453,239.71916 490.79978,239.70266 494.86969,239.63836 499.22507,237.85248 501.14604,234.06965 502.70105,231.04747 504.48047,228.05505 505.43258,224.78215 505.74265,221.42792 503.9086,217.54254 500.50718,216.54567 499.78461,216.37285 499.03691,216.32217 498.29522,216.35333 z"
       inkscape:connector-curvature="0"
       id="path3053"
       style="fill:#b667d7;stroke:none" />
    <path
       d="M 510.90891,196.56385 C 510.49353,200.19435 510.65004,203.95363 510.14594,207.60038 509.57273,213.56899 507.95543,219.30621 505.98351,224.94157 505.25188,226.99046 503.94677,228.83662 503.11208,230.86991 501.76928,233.69317 500.35314,236.77674 497.4173,238.24084 493.74707,240.23158 489.38173,240.05098 485.33393,240.02689 483.48567,239.85809 482.0772,238.38469 480.37418,237.84928 479.06633,238.03432 479.2847,239.91447 479.73532,240.79627 481.32021,243.10057 484.51093,243.32042 487.07162,243.44983 491.73977,243.47553 496.55309,243.26067 500.98255,241.68243 501.90232,241.14047 503.17858,240.74257 503.95702,241.75803 505.4168,243.37626 504.81133,245.81984 504.52032,247.74819 503.00195,253.90608 498.33552,258.4496 494.54068,263.25892 489.52021,270.19523 485.84103,277.99313 481.18475,285.16838 475.99629,293.63218 470.14289,301.73972 464.90417,310.1778 463.92135,311.58359 465.00939,313.26926 465.36511,314.70486 466.10503,316.76038 467.12783,319.17683 469.54792,319.6233 470.94154,320.0152 472.3169,319.22261 473.67646,319.0394 479.02003,315.45905 483.36197,310.55471 487.35482,305.56437 497.06397,292.91022 504.31052,278.61505 512.18711,264.79961 515.40627,258.9284 518.88795,253.20771 522.27099,247.43907 522.61197,246.87858 522.58743,246.13788 522.30539,245.59805 525.53102,242.88365 529.84469,240.83242 531.51733,236.69524 532.14659,233.82183 532.03987,230.81373 532.0394,227.88173 531.18568,221.8467 527.28967,216.83647 524.53109,211.55303 523.66171,209.96118 524.06518,208.02786 523.41116,206.33241 522.39974,202.34756 519.74525,198.52685 515.9374,196.80431 514.35212,196.35071 512.49749,196.30084 510.90896,196.56388 z"
       inkscape:connector-curvature="0"
       id="path3055"
       style="fill:#9de082;stroke:none" />
    <path
       d="M 478.02483,224.48132 C 472.54646,224.26049 467.8914,228.18108 465.18582,232.62162 462.68531,237.20501 460.37684,241.98972 459.1072,247.06982 458.22164,250.6631 458.40267,255.06837 461.40075,257.66765 462.78746,259.00028 464.47365,260.00436 466.29867,260.60091 466.47899,267.28593 465.07192,273.86629 464.14166,280.46051 462.86761,289.05339 456.55486,296.49444 448.52052,299.69498 442.28178,302.4505 435.34704,302.65914 428.82579,304.37995 427.83158,304.8807 428.86629,305.79937 429.51961,306.03549 436.69184,310.46597 443.9346,314.84952 451.35946,318.81908 451.9533,319.29211 452.43762,318.58522 453.03375,318.9638 456.23746,319.0522 458.90058,316.76277 461.24275,314.849 462.53437,313.70678 463.80518,312.38067 464.26531,310.68611 469.52146,302.10029 475.51446,293.919 480.78525,285.30661 485.18204,278.4912 488.83344,271.19519 493.3025,264.46841 496.71441,259.69742 501.26024,255.67838 503.46242,250.10438 504.39971,247.63471 505.48162,244.49046 503.86772,242.08086 502.73178,240.69403 501.04543,242.08386 499.74605,242.38999 494.61981,243.57437 489.21732,244.02599 483.98065,243.36545 482.04089,243.01046 479.40714,242.18912 479.19264,239.88263 479.07486,238.92839 479.38085,237.93617 479.90019,237.20355 479.10569,235.4804 477.5854,233.86277 477.75692,231.81789 477.51522,229.64904 478.31967,227.57704 479.68111,225.903 480.36916,225.31585 479.89792,224.3104 479.00029,224.48132 478.67524,224.46952 478.34991,224.47332 478.02483,224.48132 z"
       inkscape:connector-curvature="0"
       id="path3057"
       style="fill:#8678d2;stroke:none" />
    <path
       d="M 572.75355,348.95747 C 564.1681,354.07963 554.38061,363.31446 547.57801,362.1674 541.60327,377.41422 563.643,364.76938 573.07743,349.41768"
       inkscape:connector-curvature="0"
       id="path3054"
       style="fill:none;stroke:#0000e9;stroke-width:1;stroke-linecap:round;stroke-miterlimit:4;stroke-opacity:1;stroke-dasharray:none;stroke-dashoffset:0" />
    <path
       d="M 452.17502,129.81495 C 451.31682,132.15566 458.44034,139.31397 444.0793,135.93226 421.15261,132.45889 399.08975,149.39155 396.12027,144.76288"
       inkscape:connector-curvature="0"
       id="path3056"
       style="fill:none;stroke:#0000e9;stroke-width:1;stroke-linecap:round;stroke-miterlimit:4;stroke-opacity:1;stroke-dasharray:none;stroke-dashoffset:0" />
    <path
       d="M 616.73786,282.92101 C 615.44581,283.19331 615.69417,285.16186 615.24177,286.13664 614.17387,291.88717 612.07886,297.33971 610.28718,302.87537 609.98561,304.81837 612.64659,304.21295 613.82339,304.31317 617.93644,304.26417 621.69572,302.43581 625.60754,301.36956 626.32071,300.09623 625.52264,298.27165 625.43267,296.79386 624.42015,291.35723 621.37249,286.30637 616.9613,282.96959 616.9426,283.02799 616.76945,282.86608 616.73786,282.92099 z"
       inkscape:connector-curvature="0"
       id="path3065"
       style="fill:#d39ccd;stroke:none" />
    <path
       d="M 625.10237,301.88445 C 620.64046,303.37075 616.10077,305.00388 611.28843,304.51679 608.92244,303.67502 608.71712,306.39532 607.90118,307.8865 604.99929,314.54356 601.32133,320.87082 597.96614,327.27752 598.87574,330.45133 600.04813,334.6039 603.58391,335.71165 607.0356,336.03441 609.85381,333.43672 612.51189,331.60226 615.81585,328.18394 617.98907,323.81979 620.34208,319.72096 623.14687,314.29575 625.50125,308.39036 625.76298,302.2439 625.68278,301.96969 625.37975,301.8086 625.10237,301.88445 z"
       inkscape:connector-curvature="0"
       id="path3067"
       style="fill:#bc90cc;stroke:none" />
    <path
       d="M 457.28759,148.62256 C 455.44841,149.0001 452.89975,148.2607 451.55581,149.87578 450.21204,155.36584 452.02641,161.04508 453.99592,166.14487 455.92464,170.62572 457.39926,175.4065 460.1729,179.44786 465.23284,185.46145 472.85292,188.56513 480.21469,190.66854 484.55128,195.22273 488.8826,199.88259 491.85892,205.42513 493.71827,208.9016 493.26954,212.94038 493.53379,216.71413 494.81628,217.31597 496.3111,215.99743 497.75976,216.10209 501.01253,215.54252 504.06766,217.67483 505.09449,220.70694 505.36733,221.8463 506.84287,221.751 507.02775,220.61954 510.70957,209.98052 510.85847,198.46485 509.80621,187.3558 508.64174,179.37739 507.16401,171.25672 503.71498,163.97209 490.38179,157.5078 476.93408,150.28834 461.9313,148.76831 460.38783,148.62631 458.83708,148.56368 457.28759,148.62259 z"
       inkscape:connector-curvature="0"
       id="path3069"
       style="fill:#a7b0c5;stroke:none" />
    <path
       d="M 564.8618,353.37044 C 564.8267,330.74949 544.24035,330.98736 537.5047,330.36561"
       inkscape:connector-curvature="0"
       id="path3071"
       style="fill:none;stroke:#0000e9;stroke-width:1;stroke-linecap:round;stroke-miterlimit:4;stroke-opacity:1;stroke-dasharray:none;stroke-dashoffset:0" />
    <path
       d="M 572.94457,349.01817 580.09472,346.84204"
       inkscape:connector-curvature="0"
       id="path3073"
       style="fill:none;stroke:#0000e9;stroke-width:1;stroke-linecap:round;stroke-miterlimit:4;stroke-opacity:1;stroke-dasharray:none;stroke-dashoffset:0" />
    <path
       d="M 570.9636,350.43232 C 567.13329,352.58364 563.67102,355.37843 559.91312,357.66767 556.28233,359.89918 552.46148,362.6372 547.99214,362.33022 547.0054,363.13912 546.98006,364.77538 546.79686,366.01912 546.43868,367.48086 547.59481,369.09794 549.15308,368.90429 553.90759,368.29806 557.85384,365.17205 561.46809,362.24434 565.21189,358.97369 568.85593,355.40747 571.59559,351.24979 571.82453,350.83757 571.4388,350.26779 570.9636,350.43232 z"
       inkscape:connector-curvature="0"
       id="path3075"
       style="fill:#d68d95;stroke:none" />
    <path
       d="M 597.06523,329.21803 C 594.47984,332.29104 592.65638,336.03512 590.43969,339.40894 589.12704,343.02093 586.49359,346.15399 584.83827,349.57065 587.14116,354.14206 591.25421,357.6134 594.6504,361.42113 595.24527,362.38906 596.53331,363.23332 597.32753,362.01546 603.10094,355.06316 609.78792,348.69812 614.02741,340.64273 615.32586,338.08042 616.46702,334.38585 614.36743,331.95763 612.56882,331.33332 611.19758,333.39635 609.70429,334.05604 607.37005,335.6609 603.98134,337.16252 601.46607,335.05667 599.47588,333.63886 599.21774,331.01119 597.70641,329.26661 597.52581,329.1215 597.26701,329.11789 597.06523,329.21801 z"
       inkscape:connector-curvature="0"
       id="path3077"
       style="fill:#c9ca98;stroke:none" />
    <path
       d="M 585.64054,353.17492 C 584.64354,354.55492 585.08958,356.80086 584.65933,358.47924 583.20629,371.30748 578.37519,383.91639 569.72865,393.57454 568.71629,395.14484 566.77934,396.44083 566.49251,398.3491 567.73598,399.75048 570.07034,399.73949 571.82598,399.55374 576.22498,398.34083 579.07519,394.31891 581.95804,391.06269 583.29974,389.55587 584.38835,387.86035 584.59133,385.82662 586.33546,379.41149 591.25515,374.52783 594.11191,368.61186 594.68715,367.08582 596.28198,365.51451 595.89945,363.82242 592.83549,360.11502 589.64432,356.38151 586.14571,353.10692 585.98211,353.04002 585.77944,353.02482 585.64054,353.17492 z"
       inkscape:connector-curvature="0"
       id="path3079"
       style="fill:#ca818c;stroke:none" />
    <path
       d="M 421.27454,124.69074 C 414.57205,131.22808 407.60823,137.53199 400.56242,143.65417 400.03713,145.0037 401.90629,144.74811 402.58312,144.30507 413.7898,140.27417 425.1001,135.28356 437.25551,135.51311 441.86807,135.09163 446.34797,136.57643 450.92434,136.60117 452.304,136.4652 453.56046,135.06815 452.81874,133.68671 452.11333,132.37285 452.54003,129.66429 450.57461,129.48017 440.85785,128.32681 431.45763,125.31126 421.67285,124.55473 L 421.37865,124.65518 421.27454,124.69078 z"
       inkscape:connector-curvature="0"
       id="path3081"
       style="fill:#b46a9f;stroke:none" />
    <path
       d="M 452.53701,130.42251 C 452.14211,132.27963 454.3294,134.64552 452.68273,136.31944 449.73321,137.8595 446.37622,136.0778 443.26994,136.07216 436.2927,135.56445 429.19084,135.71181 422.47918,137.85439 414.71531,139.87183 407.36173,143.34512 399.67837,145.432 394.66022,145.96555 390.30876,148.95231 385.2712,149.34709 374.83853,150.60638 364.23966,149.55557 353.81267,149.93126 353.24175,152.67221 353.60777,155.80979 353.39306,158.70189 353.66332,160.15583 352.72916,162.20852 353.75614,163.31708 363.29712,163.75425 372.84559,164.23332 382.38589,164.59945 390.50491,163.82595 397.53297,159.33839 404.77334,155.97067 411.63532,152.14456 419.57646,151.07985 427.35567,150.78891 436.21744,150.43045 445.11113,150.13179 453.86431,148.61929 465.54681,147.24139 476.90198,151.29722 487.43927,155.85737 493.04192,158.1386 498.23145,161.36687 503.88985,163.50167 505.33962,163.57197 506.82113,163.43207 508.10611,164.29829 513.60889,167.00412 519.22752,169.58938 525.2867,170.88896 539.85585,174.88874 551.82384,184.88883 562.76072,194.90752 574.68717,206.1869 586.47214,217.8608 595.676,231.4378 604.25989,244.09712 610.01777,259.00546 609.94049,274.50383 610.19717,293.6018 602.66721,311.78834 593.1558,327.9305 588.75552,335.4112 583.44073,342.35572 578.82069,349.67756 576.78946,352.94434 573.98031,355.99079 573.13749,359.80047 572.95062,361.04519 574.58665,362.08365 575.35248,360.81081 581.09034,355.55275 584.79043,348.54192 588.86588,342.00281 592.94496,333.78678 598.39499,326.2821 602.4667,318.01678 604.78362,313.30402 607.39685,308.62041 609.11168,303.69705 611.73597,298.51511 613.32069,292.81263 614.7135,287.16907 616.14504,281.0138 615.98049,274.57366 615.41663,268.31547 614.15466,261.24748 611.399,254.54253 609.49056,247.64221 606.71612,241.05517 602.56756,235.15043 598.80905,229.08883 582.49866,203.84904 561.00251,181.82562 535.42233,165.98845 509.92131,150.0841 481.42231,139.88634 453.09076,130.26707 452.88588,130.18597 452.72042,130.35507 452.53701,130.42251 z"
       inkscape:connector-curvature="0"
       id="path3084"
       style="fill:#73a0a6;stroke:none" />
    <path
       d="M 524.86956,354.39556 C 511.52999,361.56776 498.18787,368.73519 484.85498,375.91757 484.24798,376.8823 485.49542,377.94709 485.64497,378.98821 486.24968,380.41654 486.27804,381.97659 486.50365,383.44649 491.45653,385.74818 496.62269,387.77239 501.43785,390.2816 503.39476,389.83489 504.95759,388.3071 506.85024,387.62117 511.02933,385.79887 515.26823,384.00035 519.78495,383.25861 522.17846,382.8166 524.11878,384.99201 524.478,387.15599 525.14312,389.48552 525.09665,391.97771 525.75572,394.31397 526.60112,395.15608 527.19869,393.47332 527.72321,393.01959 534.03864,384.93832 540.23883,376.75673 546.4946,368.6222 546.65096,367.07771 546.5698,365.47006 546.77625,363.93037 546.09353,362.71615 544.32233,363.29324 543.18352,363.05108 539.76596,362.82255 536.19243,363.19456 532.88621,362.31604 529.22073,361.11683 527.45889,357.33421 525.34842,354.44885 525.23025,354.24486 525.03486,354.38785 524.86956,354.39555 z"
       inkscape:connector-curvature="0"
       id="path3086"
       style="fill:#d5be6c;stroke:none" />
    <path
       d="M 536.98041,330.52421 C 533.18194,333.61374 528.80617,336.06758 524.08644,337.51044 523.32856,338.61584 523.57793,340.243 523.40199,341.57679 523.30609,345.53712 523.23153,349.71584 525.21303,353.28271 526.84052,356.36171 528.66263,359.6585 531.7184,361.51232 534.77468,363.15848 538.44035,362.53152 541.78128,362.82841 543.50848,362.71089 545.3424,363.24441 547.01668,362.78321 547.40507,362.48268 547.42073,361.88127 548.09519,362.11687 552.70303,362.22623 556.6067,359.35872 560.39151,357.11591 561.83349,356.0333 563.59273,355.2566 564.82918,353.9697 564.70471,348.46522 563.64429,342.59939 559.82821,338.43099 556.08498,334.02667 550.29952,332.05415 544.73823,331.21445 542.17431,330.91809 539.53674,330.45829 536.98041,330.52425 z"
       inkscape:connector-curvature="0"
       id="path3088"
       style="fill:#a7c0ab;stroke:none" />
    <path
       d="M 505.55109,163.95137 C 503.88432,163.91817 505.05076,165.86648 505.32658,166.69184 508.57667,175.85432 510.25569,185.55282 510.7973,195.28641 510.5211,197.15594 512.16458,196.30218 513.1967,196.10761 518.50097,196.02261 521.94462,201.07248 523.5139,205.60876 524.33571,207.74128 523.91865,210.23243 525.32087,212.21488 527.56177,216.76119 530.77704,221.00014 531.96584,225.96143 532.16529,229.76663 532.72275,233.808 531.56753,237.47356 529.80289,241.17512 525.79757,242.91939 522.97958,245.61462 522.46078,247.05845 524.01459,248.39592 524.46596,249.7143 527.81929,254.76638 531.80962,259.36049 534.96008,264.56106 542.50245,275.81292 549.29748,288.35723 549.96389,302.15515 550.5523,312.30237 545.75252,322.04701 538.67882,329.06541 537.97959,330.41759 540.20762,330.34527 541.02982,330.46436 547.48547,331.20112 554.40812,332.44648 559.12864,337.25505 563.33696,341.19723 564.85849,347.24634 565.01585,352.89601 565.86453,354.00618 567.12531,352.11467 568.04689,351.81765 570.43145,350.30992 572.64397,348.34461 575.55649,348.03857 577.84305,347.28737 580.90567,347.08412 581.81196,344.41327 589.99781,332.90189 597.63614,320.85006 602.83532,307.66657 607.18121,296.87777 609.92627,285.34206 609.58771,273.65176 609.60901,260.56829 605.06759,247.82725 598.50743,236.65372 588.73966,220.36649 574.96373,207.00063 561.24648,194.03834 550.31475,184.24916 538.38846,174.41828 523.86237,170.83522 517.65759,169.72834 512.25666,166.41191 506.48372,164.06795 506.18348,163.96855 505.87187,163.9023 505.55109,163.95137 z"
       inkscape:connector-curvature="0"
       id="path3090"
       style="fill:#d0cf6e;stroke:none" />
    <path
       d="M 519.77367,383.60473 C 513.99456,384.43897 508.6199,387.08452 503.51278,389.79141 495.61357,394.44874 488.71152,401.49349 485.6356,410.26235 484.95806,413.84965 486.10041,417.65737 488.9037,420.06321 491.78463,423.29467 495.9032,424.748 499.88732,426.01988 504.28943,428.12392 509.65395,428.59583 514.30383,426.98908 520.52007,424.46744 524.08152,417.87095 525.33058,411.58358 525.80916,407.7959 526.1182,403.96945 526.85582,400.24632 526.83002,398.87737 525.72487,397.71235 524.92256,396.83639 525.94643,394.38321 524.75152,391.61975 524.60197,389.08392 524.3112,386.57529 522.93419,383.03204 519.77367,383.60473 z M 524.91284,396.87525 524.91284,396.85585 524.91284,396.87525 z"
       inkscape:connector-curvature="0"
       id="path3092"
       style="fill:#b7b986;stroke:none" />
  </g>
</svg>
