<?xml version="1.0" encoding="UTF-8" standalone="no"?>
<!-- Created with Inkscape (http://www.inkscape.org/) -->

<svg
   xmlns:dc="http://purl.org/dc/elements/1.1/"
   xmlns:cc="http://creativecommons.org/ns#"
   xmlns:rdf="http://www.w3.org/1999/02/22-rdf-syntax-ns#"
   xmlns:svg="http://www.w3.org/2000/svg"
   xmlns="http://www.w3.org/2000/svg"
   xmlns:xlink="http://www.w3.org/1999/xlink"
   xmlns:inkscape="http://www.inkscape.org/namespaces/inkscape"
   version="1.1"
   width="740"
   height="520"
   id="svg2"
   style="display:inline;enable-background:new">
  <defs
     id="defs4">
    <filter
       color-interpolation-filters="sRGB"
       id="filter3050">
      <feBlend
         in2="BackgroundImage"
         mode="lighten"
         id="feBlend3052" />
    </filter>
  </defs>
  <metadata
     id="metadata7">
    <rdf:RDF>
      <cc:Work
         rdf:about="">
        <dc:format>image/svg+xml</dc:format>
        <dc:type
           rdf:resource="http://purl.org/dc/dcmitype/StillImage" />
        <dc:title />
      </cc:Work>
    </rdf:RDF>
  </metadata>
  <g
     id="g5477"
     style="display:none">
    <image
       xlink:href="pngs/coronal-0387.png"
       id="image5479"
       height="520"
       width="740"
       y="0"
       x="0" />
  </g>
  <g
     id="g5485"
     style="display:inline">
    <path
       d="M 538.01431,244.81339 C 510.42164,227.81282 486.49622,207.93034 461.98623,198.45956 441.83028,190.67119 423.65755,187.09941 413.78332,184.99042 417.48159,167.24996 399.87692,138.85803 391.81883,115.23939"
       inkscape:connector-curvature="0"
       id="path5487"
       style="fill:none;stroke:#0000e9;stroke-width:1;stroke-miterlimit:4;stroke-opacity:1;stroke-dasharray:none;stroke-dashoffset:0" />
    <path
       d="M 461.45506,197.93242 C 465.49549,217.38736 464.63114,233.16371 462.07681,247.67258"
       inkscape:connector-curvature="0"
       id="path5489"
       style="fill:none;stroke:#0000e9;stroke-width:1;stroke-miterlimit:4;stroke-opacity:1;stroke-dasharray:none;stroke-dashoffset:0" />
    <path
       d="M 437.82848,190.47139 C 429.70967,206.51337 417.70731,222.00056 420.41942,239.58981"
       inkscape:connector-curvature="0"
       id="path5491"
       style="fill:none;stroke:#0000e9;stroke-width:1;stroke-miterlimit:4;stroke-opacity:1;stroke-dasharray:none;stroke-dashoffset:0" />
    <path
       d="M 413.58015,184.25387 C 397.99232,202.05542 386.90737,229.8803 381.24905,252.6466"
       inkscape:connector-curvature="0"
       id="path5493"
       style="fill:none;stroke:#0000e9;stroke-width:1;stroke-miterlimit:4;stroke-opacity:1;stroke-dasharray:none;stroke-dashoffset:0" />
    <path
       d="M 411.09314,188.60613 368.814,164.97955"
       inkscape:connector-curvature="0"
       id="path5495"
       style="fill:none;stroke:#0000e9;stroke-width:1;stroke-miterlimit:4;stroke-opacity:1;stroke-dasharray:none;stroke-dashoffset:0" />
    <path
       d="M 504.97771,277.51669 C 505.49523,278.03421 506.75545,278.22596 506.22122,278.76019 506.15902,278.82239 504.41816,278.82239 504.35596,278.76019 504.20941,278.61364 504.50251,278.28499 504.35596,278.13844 504.06286,277.84534 503.40555,278.43154 503.11246,278.13844 502.96591,277.99189 503.259,277.66324 503.11246,277.51669 501.45728,275.86151 503.52412,279.17186 501.86895,277.51669 501.7224,277.37014 502.0155,277.04148 501.86895,276.89494 501.7224,276.74839 501.39375,277.04148 501.2472,276.89494 501.10065,276.74839 501.39375,276.41973 501.2472,276.27318 500.9541,275.98009 500.29679,276.56628 500.0037,276.27318 499.85715,276.12663 500.15024,275.79798 500.0037,275.65143 499.85715,275.50488 499.52849,275.79798 499.38194,275.65143 499.2354,275.50488 499.52849,275.17623 499.38194,275.02968 499.2354,274.88313 498.96744,275.02968 498.76019,275.02968 498.76019,274.82243 498.90674,274.55448 498.76019,274.40793 498.61364,274.26138 498.28499,274.55448 498.13844,274.40793 497.99189,274.26138 498.28499,273.93272 498.13844,273.78617 497.99189,273.63963 497.66324,273.93272 497.51669,273.78617 497.37014,273.63963 497.66324,273.31097 497.51669,273.16442 497.37014,273.01787 497.04148,273.31097 496.89494,273.16442 496.74839,273.01787 497.04148,272.68922 496.89494,272.54267 496.74839,272.39612 496.41973,272.68922 496.27318,272.54267 496.12663,272.39612 496.41973,272.06747 496.27318,271.92092 496.12663,271.77437 495.79798,272.06747 495.65143,271.92092 495.50488,271.77437 495.79798,271.44571 495.65143,271.29917 495.50488,271.15262 495.17623,271.44571 495.02968,271.29917 494.88313,271.15262 495.12238,270.86279 495.02968,270.67741 494.76753,270.15311 494.31048,269.69606 493.78617,269.43391 493.6008,269.34121 493.31097,269.58046 493.16442,269.43391 493.01787,269.28736 493.25712,268.99753 493.16442,268.81216 492.90227,268.28785 492.33542,267.98316 491.92092,267.56865 491.14802,266.79575 490.34085,265.68627 489.43391,265.08165 489.04832,264.82458 488.576,264.71696 488.19041,264.45989 487.38483,263.92284 484.23917,260.90968 483.83814,260.10763 483.74544,259.92226 483.93084,259.67125 483.83814,259.48588 482.54434,256.89829 483.88104,260.15055 482.59464,258.86412 482.44809,258.71758 482.74119,258.38892 482.59464,258.24237 482.44809,258.09582 482.18014,258.24237 481.97289,258.24237 481.97289,258.03512 482.11943,257.76717 481.97289,257.62062 481.82634,257.47407 481.5365,257.71332 481.35113,257.62062 480.82683,257.35847 480.63194,256.63927 480.10763,256.37712 479.92226,256.28442 479.63243,256.52366 479.48588,256.37712 479.33933,256.23057 479.67125,255.84806 479.48588,255.75536 479.11514,255.56999 478.6356,255.88644 478.24237,255.75536 477.49627,255.50666 477.12322,254.13881 476.37712,253.89011 475.98389,253.75903 475.52684,254.02119 475.13361,253.89011 474.7611,253.76594 473.09754,252.32547 472.6466,252.02485 471.24932,251.09333 469.68547,250.46526 468.29434,249.53784 468.05047,249.37526 467.95064,249.00879 467.67259,248.91609 467.27936,248.78501 466.82231,249.04717 466.42908,248.91609 464.44288,248.25402 467.17179,248.33466 465.18558,247.67259 464.79235,247.54151 464.33531,247.80366 463.94207,247.67259 463.66402,247.57989 463.58248,247.18191 463.32032,247.05084 463.13495,246.95814 462.88394,247.14354 462.69857,247.05084 462.43642,246.91976 462.33897,246.56016 462.07682,246.42908 461.89145,246.33638 461.64044,246.52178 461.45507,246.42908 460.32132,245.86223 461.03779,245.80733 459.58981,245.80733 457.9318,245.80733 459.79706,246.01458 458.96806,245.18558 458.65718,244.8747 457.41368,245.49646 457.1028,245.18558 456.95625,245.03903 457.24935,244.71038 457.1028,244.56383 456.95625,244.41728 456.66642,244.65653 456.48105,244.56383 456.2189,244.43275 456.12145,244.07315 455.8593,243.94207 455.48856,243.7567 454.98653,244.12745 454.61579,243.94207 454.35364,243.811 454.2562,243.4514 453.99404,243.32032 453.6233,243.13495 453.12128,243.50569 452.75054,243.32032 452.02628,242.95819 451.60954,242.43895 450.88528,242.07682 450.69991,241.98412 450.4489,242.16952 450.26353,242.07682 450.00138,241.94574 449.90393,241.58614 449.64178,241.45507 449.45641,241.36237 449.21664,241.52057 449.02002,241.45507 448.58038,241.30852 448.21617,240.97986 447.77652,240.83331 447.38329,240.70224 446.90376,241.01869 446.53302,240.83331 446.27086,240.70224 446.18932,240.30426 445.91126,240.21156 445.51803,240.08049 445.08226,240.21156 444.66776,240.21156 444.46051,240.00431 444.30816,239.72089 444.04601,239.58981 443.0512,239.09241 441.3103,240.08721 440.3155,239.58981 440.05334,239.45873 439.9559,239.09914 439.69374,238.96806 439.03054,238.63646 437.86994,239.29966 437.20674,238.96806 436.94458,238.83698 436.84714,238.47738 436.58498,238.34631 436.13714,238.12239 433.30231,238.12239 432.85447,238.34631 432.59232,238.47738 432.49487,238.83698 432.23272,238.96806 431.08346,239.54269 426.54271,238.39343 425.39345,238.96806 425.13129,239.09914 425.03385,239.45873 424.77169,239.58981 424.27429,239.83851 423.40384,239.34111 422.90644,239.58981 422.64428,239.72089 422.54684,240.08049 422.28469,240.21156 421.76702,240.47039 420.19206,239.81718 419.79768,240.21156 419.65113,240.35811 419.94423,240.68677 419.79768,240.83331 419.50458,241.12641 418.92491,240.64794 418.55417,240.83331 417.82991,241.19545 417.41318,241.71469 416.68892,242.07682 416.31818,242.26219 415.73851,241.78372 415.44541,242.07682 415.29886,242.22337 415.59196,242.55202 415.44541,242.69857 415.29886,242.84512 415.00903,242.60587 414.82366,242.69857 414.56151,242.82965 414.46406,243.18925 414.20191,243.32032 413.83117,243.50569 413.2515,243.02723 412.9584,243.32032 412.81186,243.46687 413.10495,243.79553 412.9584,243.94207 412.66531,244.23517 412.08564,243.7567 411.7149,243.94207 411.45275,244.07315 411.3553,244.43275 411.09315,244.56383 410.90778,244.65653 410.61794,244.41728 410.4714,244.56383 410.32485,244.71038 410.61794,245.03903 410.4714,245.18558 410.16052,245.49646 408.91702,244.8747 408.60614,245.18558 408.45959,245.33213 408.75269,245.66078 408.60614,245.80733 408.31304,246.10043 407.73338,245.62196 407.36264,245.80733 407.10048,245.93841 407.00304,246.29801 406.74088,246.42908 406.37014,246.61445 405.79048,246.13599 405.49738,246.42908 405.35083,246.57563 405.64393,246.90429 405.49738,247.05084 405.20428,247.34393 404.66838,247.05084 404.25387,247.05084 403.77747,247.05084 399.32316,247.00754 399.27986,247.05084 399.13331,247.19738 399.42641,247.52604 399.27986,247.67259 399.11528,247.83717 397.67062,247.67259 397.4146,247.67259 397.15859,247.67259 395.71393,247.50801 395.54935,247.67259 395.4028,247.81914 395.69589,248.14779 395.54935,248.29434 395.15496,248.68872 393.58,248.03551 393.06234,248.29434 392.80018,248.42542 392.70274,248.78501 392.44059,248.91609 392.06984,249.10146 391.56782,248.73072 391.19708,248.91609 390.93493,249.04717 390.83748,249.40677 390.57533,249.53784 390.20459,249.72321 389.70257,249.35247 389.33182,249.53784 389.06967,249.66892 388.97223,250.02852 388.71007,250.1596 388.21267,250.4083 387.34222,249.91089 386.84482,250.1596 386.58266,250.29067 386.48522,250.65027 386.22306,250.78135 385.85232,250.96672 385.3503,250.59598 384.97956,250.78135 384.71741,250.91242 384.61996,251.27202 384.35781,251.4031 383.84145,251.66128 382.46024,251.4031 381.8708,251.4031 381.61478,251.4031 380.17012,251.56768 380.00554,251.4031 379.859,251.25655 380.15209,250.9279 380.00554,250.78135 379.69467,250.47047 378.45116,251.09222 378.14029,250.78135 377.99374,250.6348 378.28684,250.30614 378.14029,250.1596 377.99374,250.01305 377.70391,250.2523 377.51854,250.1596 374.93095,248.86579 378.18321,250.2025 376.89678,248.91609 376.75023,248.76954 376.42158,249.06264 376.27503,248.91609 376.12848,248.76954 376.42158,248.44089 376.27503,248.29434 376.12848,248.14779 375.79983,248.44089 375.65328,248.29434 375.50673,248.14779 375.74598,247.85796 375.65328,247.67259 375.5222,247.41043 375.1626,247.31299 375.03153,247.05084 374.93883,246.86546 375.17808,246.57563 375.03153,246.42908 374.88498,246.28253 374.55632,246.57563 374.40977,246.42908 374.12236,246.14167 374.59747,244.93922 374.40977,244.56383 374.2787,244.30167 373.9191,244.20423 373.78802,243.94207 373.69532,243.7567 373.88072,243.50569 373.78802,243.32032 373.35254,242.44937 371.99532,241.52762 371.30101,240.83331 369.23892,238.77122 371.59411,241.41951 370.67926,239.58981 370.41711,239.0655 369.69791,238.87061 369.43576,238.34631 369.34306,238.16094 369.52846,237.90992 369.43576,237.72455 369.1736,237.20025 368.35329,237.04469 368.19225,236.48105 367.84592,235.2689 367.77775,233.99404 367.5705,232.75054 L 370.67926,136.37896 C 396.01361,99.603029 421.37064,107.53531 427.88045,102.80435"
       inkscape:connector-curvature="0"
       id="path5497"
       style="fill:none;stroke:#0000e9;stroke-width:1;stroke-miterlimit:4;stroke-opacity:1;stroke-dasharray:none;stroke-dashoffset:0" />
    <path
       d="M 425.39345,102.80435 C 497.69562,115.92399 552.51594,149.07166 555.96138,204.14994 548.64009,237.14566 518.08719,275.99888 506.22122,278.13844"
       inkscape:connector-curvature="0"
       id="path5499"
       style="fill:none;stroke:#0000e9;stroke-width:1;stroke-miterlimit:4;stroke-opacity:1;stroke-dasharray:none;stroke-dashoffset:0" />
    <path
       d="M 438.29336,190.96634 C 446.1235,193.11821 454.08571,195.37742 461.49249,198.50508 464.86287,214.11623 464.69615,230.28981 462.26968,246.03026 458.8837,246.32385 455.22744,243.69437 451.81677,242.63324 446.25689,240.29499 440.09261,238.88749 434.11597,238.49151 429.8005,238.82811 425.46689,238.98413 421.33119,240.12361 419.37853,238.17253 420.86269,234.58084 420.45685,232.0797 421.50714,217.19098 430.58474,204.66852 437.19694,191.77508 437.42829,191.37911 437.73262,190.80169 438.29336,190.96634 z"
       inkscape:connector-curvature="0"
       id="path5505"
       style="fill:#84cdcd;stroke:none" />
    <path
       d="M 371.3773,166.99002 C 384.09278,173.3846 396.66988,180.26991 408.81843,187.68271 409.72194,190.7073 405.99605,193.37002 404.96388,196.01548 394.21037,212.74366 387.03081,231.58055 381.5002,250.51853 379.44098,252.4856 376.79359,248.89569 375.63241,247.37091 374.05733,245.11874 373.53566,242.0294 371.08585,240.58993 366.17838,235.12542 368.20763,227.47722 368.02029,220.8498 368.6624,203.31709 368.63334,185.69618 370.19208,168.23353 370.29417,167.66332 370.65694,166.84186 371.3773,166.99002 z"
       inkscape:connector-curvature="0"
       id="path5507"
       style="fill:#a78875;stroke:none" />
    <path
       d="M 391.17621,115.63719 C 394.15408,119.53852 395.08045,125.03376 397.40827,129.46995 403.31063,144.35298 411.17402,158.78642 413.73416,174.72307 414.12597,179.15855 414.78231,185.55197 409.94535,187.72157 398.56398,181.95972 387.50044,175.20555 376.24119,169.06919 372.7473,167.40251 368.85033,165.74383 370.39995,161.12255 370.57226,152.80734 370.45665,144.43476 370.83326,136.15501 376.596,128.64791 382.71132,120.97322 390.61275,115.67605 390.79457,115.63355 390.99222,115.54828 391.17621,115.63715 z"
       inkscape:connector-curvature="0"
       id="path5509"
       style="fill:#a76986;stroke:none" />
    <path
       d="M 418.57216,186.08947 C 424.87411,187.52051 431.3589,188.79739 437.41902,190.84976 430.07771,205.42562 419.66568,219.89961 420.13777,236.9715 421.23476,241.50311 415.826,241.7067 412.99149,243.50513 407.16004,246.83636 400.5303,247.20953 394.14053,248.46033 390.1988,248.92197 386.32744,251.68805 382.39397,251.14028 381.45433,248.31178 383.94069,245.12293 384.2668,242.23561 385.29343,237.47085 388.0141,232.95389 388.37833,228.15489 388.39733,226.90334 390.18093,226.42504 390.285,224.82887 391.54197,222.2156 392.61964,219.16001 392.80831,216.49703 393.83207,216.79702 392.99192,215.13601 394.1684,215.13695 396.28599,211.44716 399.04825,207.15339 399.55044,202.89621 401.499,203.20217 402.40952,200.34658 401.90144,198.75767 405.50044,196.9086 407.24625,191.91904 410.0196,188.83627 411.61371,185.71838 414.18961,184.17909 417.6127,185.89686 L 418.22229,186.01924 418.57216,186.08944 z"
       inkscape:connector-curvature="0"
       id="path5511"
       style="fill:#a9a2da;stroke:none" />
    <path
       d="M 430.71166,103.94913 C 450.87905,107.92946 470.75945,113.80677 489.47398,122.33 502.5503,128.37326 515.13444,135.85081 525.86942,145.52947 532.25939,151.5499 538.46128,157.89554 543.08459,165.40938 550.47717,176.83654 555.01807,190.1904 555.74948,203.81727 555.04197,208.53399 553.23911,213.05058 551.69463,217.52182 548.26906,226.59374 543.7801,235.25673 538.70636,243.50211 538.29911,244.4361 537.23355,244.4012 536.58032,243.76055 518.19439,232.2276 500.7183,219.23783 482.0677,208.15876 464.01937,197.40967 443.59469,191.58127 423.24456,186.91841 420.25196,186.19111 417.15472,185.71413 414.21908,184.87231 413.78309,183.88606 414.43066,182.60595 414.31428,181.48467 414.60974,169.81075 409.95951,158.84318 405.60947,148.22899 401.08546,137.3147 395.98548,126.61909 392.05724,115.47607 392.00074,114.07197 393.7893,113.63468 394.70198,112.91377 401.27742,109.14678 408.52229,106.57583 416.04397,105.5623 419.94412,104.92626 423.89877,104.44226 427.68911,103.35835 428.69662,103.55528 429.70415,103.7522 430.71167,103.94913 z"
       inkscape:connector-curvature="0"
       id="path5906"
       style="fill:#7cccd0;stroke:none" />
    <path
       d="M 462.48975,198.885 C 470.44328,201.89075 477.97393,206.00059 485.262,210.38446 502.54731,220.95367 518.93976,232.98951 536.07989,243.75545 536.73913,244.18432 538.11015,244.84542 537.27751,245.76903 530.35101,256.48491 522.41344,266.77947 512.40321,274.80621 510.46977,276.1235 508.41669,277.82544 505.98027,277.88373 505.45921,277.5024 505.18562,277.73711 504.67508,277.97303 503.4835,278.24423 502.96849,276.92466 501.9479,276.68844 501.04823,276.03468 500.01983,275.63142 499.29985,274.71696 495.38474,271.10215 492.04541,266.78152 487.66427,263.73385 486.42094,262.51392 484.78228,261.45897 484.03237,259.85828 483.86336,258.90007 483.23234,258.16403 482.34935,257.81805 481.50597,257.25734 480.58715,256.81462 479.91069,256.00452 479.19457,255.42111 478.06167,255.74103 477.50638,254.83671 477.05249,254.07584 476.30077,253.79361 475.47302,253.77881 473.51243,252.79074 471.85676,251.24523 469.8566,250.28772 468.77397,249.80847 468.0042,248.67423 466.74195,248.76411 465.99416,248.55966 465.90009,247.50694 464.98337,247.5963 464.14765,247.25044 462.92872,247.12892 462.53784,246.22241 462.85098,242.76786 463.58521,239.3019 463.7718,235.82967 464.75295,223.73963 464.22234,211.54383 461.91959,199.64064 461.81145,199.23667 462.05435,198.8773 462.48975,198.885 z"
       inkscape:connector-curvature="0"
       id="path5908"
       style="fill:#6965d0;stroke:none" />
  </g>
</svg>
