<?xml version="1.0" encoding="UTF-8" standalone="no"?>
<!-- Created with Inkscape (http://www.inkscape.org/) -->

<svg
   xmlns:dc="http://purl.org/dc/elements/1.1/"
   xmlns:cc="http://creativecommons.org/ns#"
   xmlns:rdf="http://www.w3.org/1999/02/22-rdf-syntax-ns#"
   xmlns:svg="http://www.w3.org/2000/svg"
   xmlns="http://www.w3.org/2000/svg"
   xmlns:xlink="http://www.w3.org/1999/xlink"
   xmlns:inkscape="http://www.inkscape.org/namespaces/inkscape"
   version="1.1"
   width="740"
   height="520"
   id="svg2"
   style="display:inline;enable-background:new">
  <defs
     id="defs4">
    <filter
       color-interpolation-filters="sRGB"
       id="filter3050">
      <feBlend
         in2="BackgroundImage"
         mode="lighten"
         id="feBlend3052" />
    </filter>
  </defs>
  <metadata
     id="metadata7">
    <rdf:RDF>
      <cc:Work
         rdf:about="">
        <dc:format>image/svg+xml</dc:format>
        <dc:type
           rdf:resource="http://purl.org/dc/dcmitype/StillImage" />
        <dc:title />
      </cc:Work>
    </rdf:RDF>
  </metadata>
  <g
     id="g5640"
     style="display:none">
    <image
       xlink:href="pngs/coronal-0347.png"
       id="image5642"
       height="520"
       width="740"
       y="0"
       x="0" />
  </g>
  <g
     id="g5648"
     style="display:inline">
    <path
       d="M 405.03206,183.98679 C 409.3097,178.1008 409.56089,165.81949 413.85785,160.03245 425.32619,156.36729 439.18758,157.42924 449.68366,163.35309 455.47113,167.0841 461.01426,171.17559 466.68356,175.0684 471.88005,178.62688 471.41246,185.54345 468.70143,190.46937 466.76281,193.47685 464.7452,200.69381 462.38773,201.97369"
       inkscape:connector-curvature="0"
       id="path5650"
       style="fill:none;stroke:#0000e9;stroke-width:1;stroke-miterlimit:4;stroke-opacity:1;stroke-dasharray:none;stroke-dashoffset:0" />
    <path
       d="M 414.82365,160.00554 C 407.98438,153.37351 397.4146,137.75983 390.57533,138.24422"
       inkscape:connector-curvature="0"
       id="path5652"
       style="fill:none;stroke:#0000e9;stroke-width:1;stroke-miterlimit:4;stroke-opacity:1;stroke-dasharray:none;stroke-dashoffset:0" />
    <path
       d="M 410.47139,167.46656 C 400.73061,165.68785 389.74632,167.79526 380.00554,174.30584"
       inkscape:connector-curvature="0"
       id="path5654"
       style="fill:none;stroke:#0000e9;stroke-width:1;stroke-miterlimit:4;stroke-opacity:1;stroke-dasharray:none;stroke-dashoffset:0" />
    <path
       d="M 383.1143,184.87563 C 423.78074,182.03654 459.5242,192.12028 486.9469,224.04601 517.23908,212.88807 515.52036,191.02262 510.57348,171.81883 489.46676,129.65891 431.85492,120.44442 398.82846,132.25803 394.57973,133.77781 400.439,134.80117 399.27986,134.51371"
       inkscape:connector-curvature="0"
       id="path5656"
       style="fill:none;stroke:#0000e9;stroke-width:1;stroke-miterlimit:4;stroke-opacity:1;stroke-dasharray:none;stroke-dashoffset:0" />
    <path
       d="M 399.90161,132.0267 C 385.39876,142.13932 369.15856,153.13877 383.73606,184.25387"
       inkscape:connector-curvature="0"
       id="path5658"
       style="fill:none;stroke:#0000e9;stroke-width:1;stroke-miterlimit:4;stroke-opacity:1;stroke-dasharray:none;stroke-dashoffset:0" />
    <path
       d="M 431.19106,127.83135 C 455.23369,128.21747 479.74581,136.53554 497.02878,153.60491 502.21687,158.85905 506.94201,164.77663 510.01757,171.52886 513.03216,180.5947 514.09352,190.5437 511.98846,199.93698 509.64098,209.99383 501.22116,217.44241 492.13559,221.59672 490.49908,222.16154 488.90604,223.53577 487.14875,223.42573 482.28054,219.24343 478.14352,214.23504 473.14962,210.22321 469.92349,207.34706 466.23683,204.87119 462.78488,202.3233 463.34482,201.12576 464.51094,199.94029 465.00742,198.56218 466.9843,193.74067 470.32109,189.24424 470.7209,183.92504 470.98045,180.35077 469.56566,176.578 466.3585,174.76771 460.22173,170.45859 454.32204,165.73549 447.67651,162.24181 437.7146,157.19925 425.8708,156.87876 415.14209,159.39498 413.01238,158.63748 411.94951,156.21301 410.30276,154.77765 405.2479,149.3947 400.80428,143.17664 394.54655,139.25604 393.70663,138.9617 391.94957,137.97275 393.26419,137.07991 394.85742,135.78621 396.85579,133.90387 398.9571,134.46661 398.53871,133.93662 398.32668,133.15559 399.16112,132.77622 403.22654,130.4286 408.03797,129.90482 412.56435,129.02974 418.72131,128.08875 424.96609,127.7355 431.19106,127.83135 z"
       inkscape:connector-curvature="0"
       id="path5972"
       style="fill:#7cccd0;stroke:none" />
    <path
       d="M 392.17612,138.70229 C 395.66759,139.39532 398.06571,142.4826 400.58558,144.76076 405.16677,149.46488 409.66986,154.39408 413.79941,159.48017 412.66841,161.87553 411.28545,164.28149 410.66353,166.93372 409.45315,167.70441 407.68071,166.61556 406.22383,166.87542 397.17358,166.30869 388.16905,168.85781 380.6057,173.74383 379.13849,173.59413 379.60342,171.1303 379.05703,169.99048 376.99289,161.28309 378.83061,151.52672 384.88254,144.85239 386.99196,142.71909 388.89725,140.12262 391.58351,138.7217 391.77816,138.6871 391.97927,138.6834 392.17612,138.7023 z"
       inkscape:connector-curvature="0"
       id="path5974"
       style="fill:#a78875;stroke:none" />
    <path
       d="M 430.00585,158.2972 C 439.27957,158.3601 448.2767,161.94598 455.5594,167.56669 459.79115,170.63294 464.32077,173.37152 468.23389,176.83318 471.4144,180.49662 470.79608,185.93941 468.63015,189.92714 466.81824,193.73242 465.38547,197.82898 462.89071,201.23695 461.62885,202.62846 460.252,200.52952 459.04362,200.13917 442.96201,190.68297 424.41462,185.66198 405.79638,184.62452 404.68969,183.69806 406.55896,182.14108 406.81071,180.97119 409.57799,174.47061 409.99806,167.06898 413.70429,160.92993 415.5901,159.10207 418.5225,159.11169 420.97906,158.63416 423.97509,158.31534 426.99483,158.23811 430.00585,158.2972 z"
       inkscape:connector-curvature="0"
       id="path5991"
       style="fill:#84cdcd;stroke:none" />
    <path
       d="M 404.61116,167.10859 C 406.39059,167.35411 408.51402,166.98512 410.05149,167.92464 409.55191,171.83093 408.23026,175.66088 407.06903,179.42706 406.26322,181.10661 405.69376,183.09862 404.34886,184.37193 397.72042,184.35763 391.04587,184.63378 384.44308,184.53708 382.7786,183.07438 382.62424,180.47594 381.6411,178.55326 381.50095,177.08916 379.37406,175.06992 380.96301,173.96774 387.96512,169.542 396.26442,166.8804 404.61116,167.10859 z"
       inkscape:connector-curvature="0"
       id="path5995"
       style="fill:#a9a2da;stroke:none" />
  </g>
</svg>
