<?xml version="1.0" encoding="UTF-8" standalone="no"?>
<!-- Created with Inkscape (http://www.inkscape.org/) -->

<svg
   xmlns:dc="http://purl.org/dc/elements/1.1/"
   xmlns:cc="http://creativecommons.org/ns#"
   xmlns:rdf="http://www.w3.org/1999/02/22-rdf-syntax-ns#"
   xmlns:svg="http://www.w3.org/2000/svg"
   xmlns="http://www.w3.org/2000/svg"
   xmlns:xlink="http://www.w3.org/1999/xlink"
   xmlns:inkscape="http://www.inkscape.org/namespaces/inkscape"
   version="1.1"
   width="740"
   height="520"
   id="svg2"
   style="display:inline;enable-background:new">
  <defs
     id="defs4">
    <filter
       color-interpolation-filters="sRGB"
       id="filter3050">
      <feBlend
         in2="BackgroundImage"
         mode="lighten"
         id="feBlend3052" />
    </filter>
  </defs>
  <metadata
     id="metadata7">
    <rdf:RDF>
      <cc:Work
         rdf:about="">
        <dc:format>image/svg+xml</dc:format>
        <dc:type
           rdf:resource="http://purl.org/dc/dcmitype/StillImage" />
        <dc:title />
      </cc:Work>
    </rdf:RDF>
  </metadata>
  <g
     id="g5514"
     style="display:none">
    <image
       xlink:href="pngs/coronal-0379.png"
       id="image5516"
       height="520"
       width="740"
       y="0"
       x="0" />
  </g>
  <g
     id="g5522"
     style="display:inline">
    <path
       d="M 453.37228,237.72455 C 483.83813,189.81763 516.16925,201.24644 546.6351,209.7457"
       inkscape:connector-curvature="0"
       id="path5524"
       style="fill:none;stroke:#0000e9;stroke-width:1;stroke-miterlimit:4;stroke-opacity:1;stroke-dasharray:none;stroke-dashoffset:0" />
    <path
       d="M 487.56865,205.39344 C 491.8093,176.17729 390.20429,143.96697 416.68891,235.85929"
       inkscape:connector-curvature="0"
       id="path5526"
       style="fill:none;stroke:#0000e9;stroke-width:1;stroke-miterlimit:4;stroke-opacity:1;stroke-dasharray:none;stroke-dashoffset:0" />
    <path
       d="M 423.47105,180.27229 C 418.56146,162.95353 401.72465,138.45571 393.03645,118.03459"
       inkscape:connector-curvature="0"
       id="path5528"
       style="fill:none;stroke:#0000e9;stroke-width:1;stroke-miterlimit:4;stroke-opacity:1;stroke-dasharray:none;stroke-dashoffset:0" />
    <path
       d="M 417.31066,187.98438 C 406.00327,175.10137 384.03377,161.73509 369.43575,153.78802"
       inkscape:connector-curvature="0"
       id="path5530"
       style="fill:none;stroke:#0000e9;stroke-width:1;stroke-miterlimit:4;stroke-opacity:1;stroke-dasharray:none;stroke-dashoffset:0" />
    <path
       d="M 412.9584,205.39344 C 397.5238,205.68817 380.73765,216.51905 371.92276,228.39827"
       inkscape:connector-curvature="0"
       id="path5532"
       style="fill:none;stroke:#0000e9;stroke-width:1;stroke-miterlimit:4;stroke-opacity:1;stroke-dasharray:none;stroke-dashoffset:0" />
    <path
       d="M 503.11246,270.05566 C 522.47338,262.42718 551.10912,211.92861 549.12211,191.7149 541.22061,138.39665 414.1043,57.880145 370.05751,145.08349 369.172,179.9958 361.69234,219.85372 379.38379,240.83331"
       inkscape:connector-curvature="0"
       id="path5534"
       style="fill:none;stroke:#0000e9;stroke-width:1;stroke-miterlimit:4;stroke-opacity:1;stroke-dasharray:none;stroke-dashoffset:0" />
    <path
       d="M 378.14029,240.21156 C 390.01431,237.95269 401.67306,234.72499 413.71883,235.88107 434.53179,233.72808 458.21761,234.338 474.14021,249.93625 486.19543,253.23161 489.46866,274.70789 504.35596,269.43392"
       inkscape:connector-curvature="0"
       id="path5536"
       style="fill:none;stroke:#0000e9;stroke-width:1;stroke-miterlimit:4;stroke-opacity:1;stroke-dasharray:none;stroke-dashoffset:0" />
    <path
       d="M 430.75425,106.73126 C 445.62756,106.57243 460.27316,110.44941 473.88756,116.21798 496.59131,125.91466 517.1825,140.85606 532.96502,159.87311 540.37821,169.06099 546.92641,179.5287 548.90966,191.34738 549.54412,197.21887 548.00419,203.0872 546.20918,208.62589 545.76899,209.92246 544.18617,208.72687 543.29064,208.67759 529.90527,205.00758 516.15984,201.01043 502.13476,202.27851 497.41659,202.60712 492.84384,203.86866 488.3615,205.30794 487.29656,204.83003 487.94585,203.25724 487.67455,202.3472 486.99133,195.67489 482.02083,190.43976 476.93073,186.50624 468.89204,180.51608 459.20446,176.74146 449.28117,175.50824 442.2966,174.91025 435.04195,175.02448 428.58855,178.03582 426.93675,178.66728 425.51372,179.85766 423.88479,180.44738 422.9378,179.09623 422.78398,177.24086 422.06937,175.71468 417.37704,163.18797 410.39746,151.69549 404.15928,139.90197 400.33526,132.75865 396.47191,125.62669 393.24702,118.18951 393.38329,117.05648 395.00345,116.80292 395.77592,116.06712 406.19029,109.68145 418.5548,106.55174 430.75425,106.73126 z"
       inkscape:connector-curvature="0"
       id="path8727"
       style="fill:#7cccd0;stroke:none" />
    <path
       d="M 392.92416,118.5055 C 394.64162,121.60487 395.95513,124.9584 397.66502,128.08713 404.82587,142.35897 413.18721,156.04887 419.76828,170.6196 421.15417,173.94076 422.5569,177.32569 423.45726,180.78973 422.35188,182.15469 420.71469,183.22988 419.6319,184.68622 418.85217,185.51249 418.29009,186.57772 417.37255,187.25501 416.11315,186.98462 415.40605,185.51997 414.38008,184.78623 406.87628,177.25629 398.05316,171.14088 389.16657,165.3071 382.96103,161.30926 376.55137,157.61999 370.1107,153.9725 369.53748,152.61571 370.1157,150.91514 369.99392,149.42492 370.16743,147.39029 369.68713,145.16643 371.07929,143.45537 376.01574,134.23349 382.54982,125.75384 390.92515,119.41227 391.53468,119.10137 392.17001,118.03092 392.92416,118.5055 z"
       inkscape:connector-curvature="0"
       id="path8729"
       style="fill:#a76986;stroke:none" />
    <path
       d="M 370.57095,154.74875 C 376.2669,157.52651 381.63582,160.9799 387.05078,164.27668 397.75155,171.11486 408.2966,178.52879 416.9802,187.83693 416.53404,189.62897 415.30171,191.30651 414.73468,193.149 413.26064,196.88305 412.70413,200.86673 412.24107,204.82021 411.74811,205.78794 410.26271,205.22088 409.38839,205.58123 398.14551,207.04802 387.67871,212.75071 379.2506,220.21283 376.88834,222.2113 375.04626,224.68419 372.78979,226.76812 371.71632,227.08592 371.53427,225.43802 371.22908,224.70968 368.5443,215.26191 367.82886,205.38292 368.00178,195.59453 367.87704,182.68681 368.90403,169.80742 369.6968,156.93405 369.9123,156.30513 369.4833,154.64821 370.57095,154.74875 z"
       inkscape:connector-curvature="0"
       id="path8737"
       style="fill:#a78875;stroke:none" />
    <path
       d="M 411.9869,205.7888 C 412.37775,209.61303 412.20653,213.5631 412.73934,217.39683 413.3685,223.38508 414.84286,229.24851 416.28718,235.05268 415.76098,236.168 414.14535,235.41537 413.18906,235.64832 405.79893,235.57152 398.39893,235.92856 391.15971,237.50545 387.17099,238.16471 383.20859,239.34846 379.17838,239.72391 377.55722,238.90652 376.85687,236.9974 375.89224,235.55369 374.70771,233.18597 373.14308,230.90173 372.54936,228.30687 373.07094,226.57643 374.70824,225.41534 375.8286,224.05546 382.89366,216.5537 391.75192,210.68954 401.58654,207.51303 404.85356,206.58195 408.20162,205.69863 411.61595,205.62393 L 411.81682,205.71323 411.9869,205.78883 z"
       inkscape:connector-curvature="0"
       id="path8739"
       style="fill:#a9a2da;stroke:none" />
    <path
       d="M 443.88178,175.39833 C 455.99204,175.70896 468.08681,179.85737 477.61767,187.37866 482.29895,191.25809 487.11547,196.3528 487.43412,202.8212 487.32582,203.99842 488.04738,205.82112 486.41574,206.15781 478.05568,209.99335 470.62471,215.73361 464.57258,222.6121 460.46509,227.27067 456.70702,232.3054 453.33415,237.56003 452.20641,238.01431 450.91593,237.0567 449.71274,236.96777 440.35338,234.72323 430.64204,234.7818 421.06832,235.17633 419.71303,235.11233 418.19226,235.75741 416.91917,235.20383 415.858,233.57592 415.83117,231.45851 415.21563,229.63674 412.92897,220.82264 412.0559,211.63268 412.75628,202.55331 413.59622,193.86088 417.66274,185.09042 425.15881,180.23449 430.639,176.54691 437.37452,175.29586 443.88178,175.39835 z"
       inkscape:connector-curvature="0"
       id="path8741"
       style="fill:#84cdcd;stroke:none" />
    <path
       d="M 509.08664,202.32659 C 518.33095,202.41009 527.39254,204.66976 536.27646,207.00441 539.27376,207.93278 542.47746,208.42113 545.30928,209.76621 546.10549,210.65153 544.94366,211.86329 544.80798,212.82387 538.82374,228.413 530.46942,243.16096 519.7343,255.97704 515.37788,260.88036 510.84679,265.98891 504.91002,268.99466 500.90915,270.96658 495.8278,270.23761 492.55874,267.19486 487.31942,262.68068 484.16729,256.23626 478.6,252.08206 476.75278,250.60205 474.32121,250.13763 472.64403,248.42654 467.44048,243.66078 460.95214,240.39361 454.34396,238.17141 453.30577,237.2223 454.87569,236.00936 455.26446,235.13511 462.95931,223.57993 472.74403,212.81765 485.55876,206.95661 492.86375,203.42771 501.00496,202.07012 509.08664,202.32659 z"
       inkscape:connector-curvature="0"
       id="path8743"
       style="fill:#6965d0;stroke:none" />
  </g>
</svg>
