<?xml version="1.0" encoding="UTF-8" standalone="no"?>
<!-- Created with Inkscape (http://www.inkscape.org/) -->

<svg
   xmlns:dc="http://purl.org/dc/elements/1.1/"
   xmlns:cc="http://creativecommons.org/ns#"
   xmlns:rdf="http://www.w3.org/1999/02/22-rdf-syntax-ns#"
   xmlns:svg="http://www.w3.org/2000/svg"
   xmlns="http://www.w3.org/2000/svg"
   xmlns:xlink="http://www.w3.org/1999/xlink"
   xmlns:inkscape="http://www.inkscape.org/namespaces/inkscape"
   version="1.1"
   width="740"
   height="520"
   id="svg2"
   style="enable-background:new">
  <defs
     id="defs4">
    <filter
       color-interpolation-filters="sRGB"
       id="filter3050">
      <feBlend
         in2="BackgroundImage"
         mode="lighten"
         id="feBlend3052" />
    </filter>
  </defs>
  <metadata
     id="metadata7">
    <rdf:RDF>
      <cc:Work
         rdf:about="">
        <dc:format>image/svg+xml</dc:format>
        <dc:type
           rdf:resource="http://purl.org/dc/dcmitype/StillImage" />
        <dc:title />
      </cc:Work>
    </rdf:RDF>
  </metadata>
  <g
     id="layer1"
     style="display:none">
    <image
       xlink:href="pngs/coronal-0476.png"
       id="MRISLICE"
       height="520"
       width="740"
       y="0"
       x="0" />
  </g>
  <g
     id="layer3"
     style="display:inline">
    <path
       d="M 375.53826,105.91311 374.29476,206.63694 C 373.50573,240.68602 374.36446,277.2068 370.56425,306.73903 L 370.56425,362.69672 C 378.59601,383.34952 397.90835,419.78565 439.57873,420.51966 465.13785,426.82872 491.64811,428.5723 525.38052,395.64958 L 562.06389,366.42723 C 595.31131,336.93766 613.1514,299.74442 619.88684,256.99886 629.03967,162.91116 568.64347,133.37385 507.34971,104.6696 464.40512,86.657292 408.49658,58.56044 375.53826,105.91311 z"
       inkscape:connector-curvature="0"
       id="path2990"
       style="fill:none;stroke:#0000e9;stroke-width:1;stroke-miterlimit:4;stroke-opacity:1;stroke-dasharray:none;stroke-dashoffset:0" />
    <path
       d="M 563.3074,366.42723 C 559.87905,367.40251 556.79283,368.49556 553.89353,369.26295 526.49432,376.51507 522.29834,386.53382 526.62402,394.40608"
       inkscape:connector-curvature="0"
       id="path2992"
       style="fill:none;stroke:#0000e9;stroke-width:1;stroke-miterlimit:4;stroke-opacity:1;stroke-dasharray:none;stroke-dashoffset:0" />
    <path
       d="M 486.21014,363.31847 C 499.26693,369.86689 512.32373,379.89847 525.38052,388.18856"
       inkscape:connector-curvature="0"
       id="path2994"
       style="fill:none;stroke:#0000e9;stroke-width:1;stroke-miterlimit:4;stroke-opacity:1;stroke-dasharray:none;stroke-dashoffset:0" />
    <path
       d="M 393.56908,358.34446 378.02527,380.10578"
       inkscape:connector-curvature="0"
       id="path2996"
       style="fill:none;stroke:#0000e9;stroke-width:1;stroke-miterlimit:4;stroke-opacity:1;stroke-dasharray:none;stroke-dashoffset:0" />
    <path
       d="M 390.46032,363.31847 C 407.59519,410.96175 479.31354,412.84281 498.64518,370.15775"
       inkscape:connector-curvature="0"
       id="path2998"
       style="fill:none;stroke:#0000e9;stroke-width:1;stroke-miterlimit:4;stroke-opacity:1;stroke-dasharray:none;stroke-dashoffset:0" />
    <path
       d="M 486.83189,363.94022 C 486.09825,374.0253 477.87084,381.84471 468.98247,385.5754 463.87,387.63952 458.3905,388.57685 453.17812,390.36422 445.72739,392.65795 437.52579,394.02737 429.99143,391.28515 425.89517,390.02702 422.3241,387.5824 418.89088,385.12629 411.9468,381.56073 406.95879,375.28493 402.78092,368.87819 399.46784,365.20749 396.32629,361.30701 392.32557,358.34446"
       inkscape:connector-curvature="0"
       id="path3002"
       style="fill:none;stroke:#0000e9;stroke-width:1;stroke-miterlimit:4;stroke-opacity:1;stroke-dasharray:none;stroke-dashoffset:0" />
    <path
       d="M 419.35699,246.92725 C 417.30223,245.26571 417.00389,248.55738 416.50595,249.86823 415.7096,252.33859 415.33823,254.921 415.29186,257.51041 416.20455,279.69287 420.2076,280.42253 420.66421,279.22597 422.98229,267.00682 424.76747,253.41695 419.35699,246.92725 z"
       inkscape:connector-curvature="0"
       id="path3008"
       style="fill:none;stroke:#0000e9;stroke-width:1;stroke-miterlimit:4;stroke-opacity:1;stroke-dasharray:none;stroke-dashoffset:0" />
    <path
       d="M 420.14898,289.17454 C 410.196,311.31687 380.98966,319.96366 391.70382,358.34446"
       inkscape:connector-curvature="0"
       id="path3018"
       style="fill:none;stroke:#0000e9;stroke-width:1;stroke-miterlimit:4;stroke-opacity:1;stroke-dasharray:none;stroke-dashoffset:0" />
    <path
       d="M 488.07539,339.07014 C 482.75464,348.32767 485.23795,355.63418 486.21014,363.31847"
       inkscape:connector-curvature="0"
       id="path3020"
       style="fill:none;stroke:#0000e9;stroke-width:1;stroke-miterlimit:4;stroke-opacity:1;stroke-dasharray:none;stroke-dashoffset:0" />
    <path
       d="M 489.3189,330.36561 C 476.14637,307.75846 447.2948,296.91059 421.54792,283.7342"
       inkscape:connector-curvature="0"
       id="path3022"
       style="fill:none;stroke:#0000e9;stroke-width:1;stroke-miterlimit:4;stroke-opacity:1;stroke-dasharray:none;stroke-dashoffset:0" />
    <path
       d="M 420.30442,288.70822 C 423.28577,330.6654 430.44693,368.31214 485.58839,356.4792"
       inkscape:connector-curvature="0"
       id="path3024"
       style="fill:none;stroke:#0000e9;stroke-width:1;stroke-miterlimit:4;stroke-opacity:1;stroke-dasharray:none;stroke-dashoffset:0" />
    <path
       d="M 463.82706,321.66108 C 461.40551,322.05393 461.89987,318.14649 462.99575,320.89256 459.38008,318.95904 455.73889,315.04969 451.07707,316.58557 445.53062,318.44786 443.68299,326.73787 448.09852,330.71267 450.73835,335.67699 455.94466,338.93248 461.56639,339.13547 466.05329,340.29824 471.26416,336.7874 470.06106,331.84419 468.62239,328.15675 466.47315,324.62636 463.82706,321.66108 z"
       inkscape:connector-curvature="0"
       id="path3026"
       style="fill:none;stroke:#0000e9;stroke-width:1;stroke-miterlimit:4;stroke-opacity:1;stroke-dasharray:none;stroke-dashoffset:0" />
    <path
       d="M 507.34971,314.20006 C 504.27302,323.69195 512.77107,326.27677 512.91943,315.72146 514.97267,299.77396 514.35073,283.15518 521.60765,268.31146 525.73942,255.60422 525.85949,239.7844 522.12974,227.09818 511.52535,211.25884 494.7804,201.87057 479.23594,191.25094 464.32992,185.30941 454.40943,173.84471 439.8239,176.62198 429.25118,183.88358 424.94428,194.84248 417.37018,204.37639 407.0309,215.25268 398.04679,248.59779 408.76673,250.38396 412.10304,247.74921 414.28575,246.63743 417.28495,242.76777 422.427,236.13332 427.22766,228.70266 432.2153,223.96903 443.47566,214.5526 459.23595,210.60559 474.32748,215.05021 490.33073,217.23674 505.92477,228.82312 510.42553,244.27554 510.28124,270.79807 508.69943,291.82194 507.34971,314.20006 z"
       inkscape:connector-curvature="0"
       id="path3034"
       style="fill:none;stroke:#0000e9;stroke-width:1;stroke-miterlimit:4;stroke-opacity:1;stroke-dasharray:none;stroke-dashoffset:0" />
    <path
       d="M 430.8742,186.74088 C 451.01071,179.42135 428.9251,199.09967 426.06172,205.47766 421.63987,214.77967 415.24069,221.49331 410.917,234.7649 409.83664,238.0811 408.11728,242.17566 404.76061,234.6158"
       inkscape:connector-curvature="0"
       id="path3039"
       style="fill:none;stroke:#0000e9;stroke-width:1;stroke-miterlimit:4;stroke-opacity:1;stroke-dasharray:none;stroke-dashoffset:0" />
    <path
       d="M 497.40168,322.28283 C 496.14355,324.28078 495.98778,320.86118 495.79309,322.61562 491.12808,325.26915 486.68544,329.64964 485.70505,335.04978 486.27001,341.72084 493.37205,338.11626 495.41316,334.37128 498.37788,331.08578 499.90239,326.29888 497.40168,322.28283 z"
       inkscape:connector-curvature="0"
       id="path3041"
       style="fill:none;stroke:#0000e9;stroke-width:1;stroke-miterlimit:4;stroke-opacity:1;stroke-dasharray:none;stroke-dashoffset:0" />
    <path
       d="M 498.64518,326.6351 C 501.54669,325.46366 504.4482,323.75774 507.34971,316.06531"
       inkscape:connector-curvature="0"
       id="path3043"
       style="fill:none;stroke:#0000e9;stroke-width:1;stroke-miterlimit:4;stroke-opacity:1;stroke-dasharray:none;stroke-dashoffset:0" />
    <path
       d="M 452.75506,316.57021 C 446.71781,317.21844 443.83942,325.70064 447.96018,330.0893 451.37888,336.32587 458.98996,340.32163 466.02684,338.53873 469.33317,337.52037 470.81361,333.47665 469.13184,330.48773 467.5413,327.42586 465.92894,324.00714 463.19663,321.84596 460.32001,319.52175 457.1144,317.05914 453.29087,316.55648 453.11221,316.55848 452.93334,316.55048 452.75506,316.57018 z"
       inkscape:connector-curvature="0"
       id="path3006"
       style="fill:#bfb879;stroke:none" />
    <path
       d="M 421.18304,284.47612 C 419.51804,289.76273 421.46453,295.35598 421.61757,300.74016 423.49636,316.02026 425.63245,332.41037 435.44061,344.86357 440.06284,350.44627 446.14532,354.8685 453.27198,356.62299 462.16467,359.19543 471.67364,358.39608 480.72889,357.15936 483.93527,357.41498 485.59322,355.72853 484.73924,352.53868 484.43167,348.06067 485.6171,343.73005 487.1985,339.67906 486.76879,337.73315 485.08137,335.89962 485.90705,333.74385 486.41462,331.46527 488.78719,328.89845 486.64895,326.69579 474.53722,310.00501 455.28589,300.94093 437.34971,291.88054 432.0342,289.36858 426.83815,286.34178 421.44408,284.16013 L 421.18304,284.47612 z M 452.16428,316.24048 C 455.93501,315.75142 458.84416,318.21017 462.04256,319.66147 463.43846,319.79721 463.64155,321.83998 464.83709,322.54187 467.52685,326.21173 471.12627,330.40133 470.01113,335.26887 468.33839,340.08652 462.09098,339.88054 458.0308,338.79977 452.42702,337.22974 448.05464,332.52789 445.92682,327.31404 444.51961,322.90241 447.21357,316.67817 452.16428,316.24048 z"
       inkscape:connector-curvature="0"
       id="path3009"
       style="fill:#8a7294;stroke:none" />
    <path
       d="M 452.94639,356.16833 C 452.29498,367.91498 455.20851,381.44409 450.14851,390.98644"
       inkscape:connector-curvature="0"
       id="path3011"
       style="fill:none;stroke:#0000e9;stroke-width:1;stroke-miterlimit:4;stroke-opacity:1;stroke-dasharray:none;stroke-dashoffset:0" />
    <path
       d="M 480.52309,357.56719 C 471.69116,358.99925 462.52353,359.4962 453.77803,357.28546 452.33447,358.061 453.55164,360.6572 453.16173,362.12344 452.95723,369.99708 453.84084,378.01565 452.19213,385.77841 452.03516,387.29836 450.92133,388.74228 451.1453,390.26746 452.49399,390.98021 454.10059,389.57519 455.5244,389.48235 463.51425,387.16911 472.239,385.32005 478.31781,379.27022 482.73763,375.43219 486.16728,370.02748 486.51717,364.09558 486.18373,362.91139 485.64252,361.76899 485.60566,360.45606 485.20366,359.21591 485.87738,356.15239 483.68375,357.03288 482.6302,357.21098 481.57664,357.38909 480.52309,357.56719 z"
       inkscape:connector-curvature="0"
       id="path3015"
       style="fill:#d87090;stroke:none" />
    <path
       d="M 496.18347,323.05023 C 493.31783,323.76039 491.2513,326.23864 489.31505,328.32541 488.56978,328.82462 489.77519,330.44694 488.52814,330.02551 486.98329,330.64704 486.62045,332.72437 486.11886,334.16405 485.58683,336.12654 486.7002,338.90307 489.13047,338.4386 493.37016,337.7668 496.07667,333.75306 497.73785,330.11295 498.51193,328.00993 498.97187,325.13041 497.40754,323.31253 497.0465,323.09688 496.60181,323.00906 496.18347,323.05023 z"
       inkscape:connector-curvature="0"
       id="path3017"
       style="fill:#a5c0bd;stroke:none" />
    <path
       d="M 389.80557,364.35789 C 385.96287,368.99988 382.46646,374.01033 379.12892,379.03706 378.83095,381.04142 380.71022,382.66273 381.52363,384.3599 390.05458,398.06956 402.08711,410.07897 417.3181,416.01188 423.83492,418.70712 430.83804,419.86487 437.85046,420.31571 446.47952,421.56898 454.97035,424.15056 463.79407,423.83236 471.77098,423.9837 479.79678,423.0851 487.34293,420.42244 501.72293,415.53907 514.01838,406.17172 524.92007,395.8438 526.55355,395.12001 526.3309,393.78379 525.61954,392.50188 524.80009,390.67089 525.73476,387.91997 523.37523,387.12066 515.38027,381.9358 507.66331,376.26607 499.42824,371.4886 497.82632,370.71438 497.58243,373.34739 496.74987,374.16309 490.03863,386.22271 478.03988,394.77074 464.83763,398.32526 448.04591,403.02397 429.2993,401.01399 414.22966,392.0972 403.87388,386.06758 395.58856,376.51019 391.03936,365.43624 390.73965,364.99349 390.54171,364.10317 389.80557,364.35789 z"
       inkscape:connector-curvature="0"
       id="path3021"
       style="fill:#c7a1db;stroke:none" />
    <path
       d="M 417.8174,246.11821 417.8174,241.45507"
       inkscape:connector-curvature="0"
       id="path3023"
       style="fill:none;stroke:#0000e9;stroke-width:1;stroke-miterlimit:4;stroke-opacity:1;stroke-dasharray:none;stroke-dashoffset:0" />
    <path
       d="M 556.93059,368.69574 C 548.24579,370.9355 539.22953,373.50639 531.90507,378.81864 528.1201,381.5852 524.33047,386.09178 525.63897,391.11767 525.99259,391.98436 526.10628,394.41167 527.45565,393.71155 537.56113,385.76484 547.62855,377.7463 557.53291,369.56036 557.90861,369.09464 557.45301,368.55694 556.93059,368.69574 z"
       inkscape:connector-curvature="0"
       id="path3031"
       style="fill:#6abbd5;stroke:none" />
    <path
       d="M 518.78124,276.87625 C 530.74193,270.9646 536.43746,276.35209 533.28952,284.78986 526.3489,295.33535 521.19471,308.56048 516.58301,322.59934"
       inkscape:connector-curvature="0"
       id="path3028"
       style="fill:none;stroke:#0000e9;stroke-width:1;stroke-miterlimit:4;stroke-opacity:1;stroke-dasharray:none;stroke-dashoffset:0" />
    <path
       d="M 513.50549,320.40112 C 520.9645,324.77125 527.32135,326.8998 523.17769,333.59047 515.4601,345.23437 507.52163,343.17356 504.71259,357.33131 L 502.51437,371.39995"
       inkscape:connector-curvature="0"
       id="path3030"
       style="fill:none;stroke:#0000e9;stroke-width:1;stroke-miterlimit:4;stroke-opacity:1;stroke-dasharray:none;stroke-dashoffset:0" />
    <path
       d="M 508.22975,349.85734 C 501.75395,346.10244 494.618,343.66781 485.80785,344.5816"
       inkscape:connector-curvature="0"
       id="path3032"
       style="fill:none;stroke:#0000e9;stroke-width:1;stroke-miterlimit:4;stroke-opacity:1;stroke-dasharray:none;stroke-dashoffset:0" />
    <path
       d="M 506.03153,374.47747 C 505.67196,373.8667 507.14128,372.58557 506.48385,373.82384 508.92311,368.91008 512.83559,364.91207 516.6978,361.10069 519.50885,358.41115 522.55386,355.97275 525.95426,354.07044 529.28146,351.78533 532.92876,350.06385 536.45825,348.12933 539.20127,346.95562 542.22836,345.35476 545.2859,346.11549 548.28882,345.139 552.97185,344.86185 553.29103,340.81915 553.94554,337.29595 554.94268,332.85613 558.78002,331.56225 561.90009,331.1033 567.46298,330.13685 568.04115,334.52597 568.80189,337.46949 566.2785,339.25928 564.64394,341.21188 562.62028,343.48134 561.21094,346.49727 558.24969,347.70991 552.76029,350.40026 549.20894,351.39256 543.4247,353.20489 540.25651,354.03884 534.49666,354.81247 531.69102,356.51752 528.16866,358.77526 525.8066,362.38161 522.27625,364.63158 519.84942,366.60133 518.06332,369.2195 515.54255,371.06982 513.4405,373.07316 511.84437,375.56897 509.5578,377.38501 510.01869,377.04599 510.38483,376.32406 509.98833,375.7964"
       inkscape:connector-curvature="0"
       id="path3035"
       style="fill:none;stroke:#0000e9;stroke-width:1;stroke-miterlimit:4;stroke-opacity:1;stroke-dasharray:none;stroke-dashoffset:0" />
    <path
       d="M 527.21995,274.68825 C 524.28673,275.34361 520.97926,275.69175 518.46827,277.3536 514.75908,289.97754 514.77968,303.32864 513.03402,316.31237 513.04402,317.59638 511.75537,320.62255 514.07182,320.50751 515.03219,320.94949 516.3074,322.09783 517.03942,320.49381 521.20028,308.19102 526.18645,296.10927 532.71552,284.92378 534.43277,281.67744 534.33836,276.33418 530.21504,275.05924 529.26037,274.74625 528.22503,274.59673 527.21995,274.68829 z"
       inkscape:connector-curvature="0"
       id="path3042"
       style="fill:#c7afc8;stroke:none" />
    <path
       d="M 485.86583,344.79791 C 484.54864,350.12282 485.37434,355.78872 486.13285,361.15275 486.11825,364.46238 490.37092,364.6845 492.42647,366.46187 495.47268,367.87466 498.09773,370.2607 501.15724,371.49261 503.18311,370.80251 502.57135,367.80037 503.14623,366.12561 504.04799,360.55654 504.64759,354.76824 507.01002,349.66148 500.84981,345.82302 493.56801,344.51578 486.37417,344.44069 L 486.01446,344.69347 485.86583,344.79791 z"
       inkscape:connector-curvature="0"
       id="path3046"
       style="fill:#7c797c;stroke:none" />
    <path
       d="M 563.11972,331.41621 C 559.95626,331.42631 556.16642,332.18541 555.10662,335.66334 553.52361,338.23527 554.12227,342.07563 551.634,344.02853 546.68999,346.91283 540.50518,345.78723 535.63336,348.89637 527.76327,352.97838 520.03951,357.59351 514.0885,364.3033 511.17902,367.44982 507.92139,370.85292 506.4518,374.82493 507.37814,376.75657 509.88772,376.74985 511.13169,375.18837 518.27311,368.78882 524.53854,361.24758 532.53691,355.91268 541.48839,352.85344 551.25511,351.57041 559.42396,346.55649 562.49345,343.47068 565.66395,340.18274 567.736,336.34848 568.23461,333.69645 565.85852,330.96517 563.11972,331.41621 z"
       inkscape:connector-curvature="0"
       id="path3048"
       style="fill:#d5be93;stroke:none" />
    <path
       d="M 393.24635,359.96566 C 391.53255,361.13181 389.74765,363.40784 391.57064,365.36763 398.61926,382.83738 415.21813,395.43493 433.54257,398.99791 444.38814,401.38229 455.90042,400.58527 466.47474,397.37672 480.03477,393.13278 492.26644,383.50192 498.11545,370.46219 494.72439,368.37667 491.2938,366.13059 487.6464,364.52698 486.09796,366.08481 486.43238,368.95374 485.22835,370.86062 481.29066,379.37607 472.93396,385.06873 464.01695,387.41189 454.61577,390.02185 445.04846,393.81366 435.12254,392.69175 426.59263,391.4034 419.41526,386.09615 412.71438,381.04115 406.27689,375.44549 401.99552,367.60869 395.71073,361.7431 394.93191,361.14515 394.29388,359.99129 393.24635,359.96566 z"
       inkscape:connector-curvature="0"
       id="path3033"
       style="fill:#8791c7;stroke:none" />
    <path
       d="M 505.82847,320.43882 C 504.31251,323.34481 501.52647,325.02193 499.26127,327.15715 498.11892,329.81341 497.31896,332.85796 495.18082,335.07076 493.62386,337.21407 491.21584,338.5318 488.66857,339.13748 487.36196,340.30054 486.75224,342.24764 486.40165,343.86366 491.61286,344.62657 497.2998,344.33014 502.21514,346.72135 504.40129,347.19568 507.12203,350.37123 508.76505,347.50075 513.80208,341.98699 521.02742,338.1269 524.04627,331.01778 524.79118,326.70798 519.90443,324.59424 516.95699,322.67826 515.12706,321.94672 512.83525,319.06503 511.3103,321.75775 509.80567,323.33233 507.309,322.43007 506.61159,320.4663 L 506.2269,320.26021 505.82847,320.43882 z"
       inkscape:connector-curvature="0"
       id="path3036"
       style="fill:#c9ca98;stroke:none" />
    <path
       d="M 419.75546,291.18708 C 418.71446,291.46344 418.55554,292.83261 417.92906,293.58666 411.29435,304.42514 400.82449,312.34833 394.5405,323.44533 390.36581,330.70986 388.80822,339.32066 389.73163,347.62566 390.12119,351.14239 390.70115,354.67514 391.78147,358.04486 392.20063,358.74852 393.36672,358.2389 393.65644,359.10864 396.26582,361.60913 398.80365,364.20784 401.16698,366.94914 403.93414,369.92487 405.84061,373.56847 408.61333,376.54196 411.5491,379.87898 414.93076,382.86573 418.83255,385.01822 422.8265,387.81232 427.01505,390.49626 431.78128,391.72557 437.58088,393.44133 443.76141,392.66837 449.54936,391.30095 450.42464,390.93338 450.51252,389.74293 450.95479,388.96732 452.5577,384.93001 453.06151,380.521 452.97816,376.18741 453.03046,369.89179 452.91946,363.5965 452.83462,357.30168 452.44983,356.44022 451.19628,356.58576 450.4399,356.16018 444.00103,353.82312 438.18385,349.58454 434.20762,343.97801 427.52505,334.90017 424.70321,323.71107 422.85833,312.75133 421.67559,305.83937 421.08454,298.84664 420.41607,291.8817 420.40807,291.52478 420.14027,291.14998 419.75546,291.18708 z"
       inkscape:connector-curvature="0"
       id="path3038"
       style="fill:#95c990;stroke:none" />
    <path
       d="M 418.21954,246.60551 C 417.09706,247.21407 417.04599,248.74196 416.61852,249.82028 415.66638,252.75761 415.34033,255.8316 415.47994,258.90941 415.70262,264.53496 416.19479,270.21536 417.73379,275.64814 418.22177,276.94763 418.58629,278.60897 419.8905,279.32522 420.87052,279.35552 420.6662,278.00444 420.91542,277.36767 422.16849,270.14653 423.3316,262.74538 422.49408,255.41691 422.12613,252.3824 421.13826,249.30048 419.12788,246.95039 418.88815,246.72627 418.56287,246.52124 418.21954,246.60551 z"
       inkscape:connector-curvature="0"
       id="path3040"
       style="fill:#a7b0c5;stroke:none" />
    <path
       d="M 420.14898,279.38194 420.45986,288.70822"
       inkscape:connector-curvature="0"
       id="path3044"
       style="fill:none;stroke:#0000e9;stroke-width:1;stroke-linecap:round;stroke-miterlimit:4;stroke-opacity:1;stroke-dasharray:none;stroke-dashoffset:0" />
    <path
       d="M 459.59908,213.61185 C 451.74954,213.59285 444.12602,216.49728 437.45888,220.46084 429.51874,225.28984 424.63428,233.47338 419.11719,240.68721 417.89571,242.15433 417.28033,244.51069 418.272,246.21498 420.55337,247.06787 421.20948,249.87823 421.98308,251.91761 424.18743,260.63575 422.36015,269.85096 420.91332,278.55773 420.4165,280.20363 419.90182,282.1929 420.68129,283.79212 423.99926,284.61217 427.13951,286.56633 430.32637,287.92983 447.0098,296.22005 464.42715,303.91283 478.26136,316.57983 481.91106,319.99824 485.21556,323.78851 488.0151,327.89766 489.52436,328.16355 490.3088,326.13205 491.49954,325.49439 492.82681,324.07441 494.9933,323.43335 495.90358,321.66071 496.13731,322.37157 497.04854,322.28061 497.42881,322.00073 498.40195,323.14302 498.16127,325.03628 499.30378,326.00326 501.07632,325.58245 502.51272,324.00842 503.71434,322.68077 506.20303,319.51471 507.14448,315.52437 507.22507,311.56079 508.89418,289.09528 509.94589,266.57006 510.27188,244.04856 505.33163,229.45794 491.84946,218.774 476.93904,215.68669 471.27798,214.10203 465.48864,213.33375 459.59908,213.61185 z"
       inkscape:connector-curvature="0"
       id="path3029"
       style="fill:#d0cf6e;stroke:none" />
    <path
       d="M 436.89542,185.46785 C 434.52199,185.732 432.18885,186.4863 429.92013,186.98337 426.14398,191.29007 423.45354,196.42442 419.99697,201.00103 415.67471,206.62378 411.52924,212.4918 408.99071,219.16079 407.2129,223.90692 405.47657,228.8001 404.94319,233.85765 405.09722,235.76286 406.43229,237.50572 407.87708,238.64709 409.64047,238.53131 409.92953,236.12076 410.64557,234.86144 414.3765,223.89404 421.03539,214.35498 426.64973,204.3353 430.27831,198.52356 435.47042,193.78103 438.7121,187.70227 439.2055,186.68709 439.40824,184.9373 437.69204,185.44842 437.42746,185.46592 437.1581,185.42172 436.89542,185.46782 z"
       inkscape:connector-curvature="0"
       id="path3045"
       style="fill:#b46a9f;stroke:none" />
    <path
       d="M 444.08442,176.47188 C 441.64622,176.31487 439.17039,176.87396 437.44916,178.71601 435.25242,180.74304 432.73059,182.65772 431.26079,185.28327 431.4327,186.738 433.39576,185.57076 434.28356,185.54237 435.76909,185.30288 438.01358,184.44013 439.20756,185.67187 439.48019,189.06148 436.5068,191.54348 434.79538,194.16617 430.97852,199.09237 426.74985,203.84666 424.06757,209.55831 419.11445,218.02035 413.79452,226.4298 410.67496,235.82006 410.12365,237.03589 409.4347,239.55546 407.59535,238.77338 406.4528,238.38357 405.82795,236.39507 404.4963,236.90812 403.83342,239.26881 404.31287,241.88966 404.3992,244.33029 404.92945,246.66276 406.14835,249.34709 408.48917,250.25637 411.77186,247.84524 415.2415,245.34774 417.55315,241.95015 418.85451,239.99008 420.63916,238.11962 422.00738,236.1127 426.421,230.56391 430.22572,224.26422 436.47678,220.62281 443.9317,215.9681 452.75026,212.83214 461.70726,213.33012 469.20763,212.97309 476.51316,215.09399 483.58114,217.30958 492.83079,220.374 500.68607,226.94475 506.23054,234.87772 508.53873,238.64262 510.86138,242.71053 510.47594,247.29333 510.35125,270.35089 508.72782,293.42383 507.2506,316.38553 506.44662,318.44177 506.9599,321.90552 509.49474,322.29218 512.04328,321.91208 512.32767,318.67165 512.63532,316.62148 514.59696,301.75149 514.34791,286.28314 519.78279,272.13427 525.00127,260.55076 525.20434,247.3337 523.67804,234.8816 523.14661,230.78929 522.04135,226.66662 519.28733,223.49188 509.07613,210.77578 495.02347,201.88925 481.4576,193.08432 476.3611,189.79065 470.70128,187.62276 465.57165,184.3763 458.91218,180.70933 452.00078,176.1696 444.08447,176.47188 z"
       inkscape:connector-curvature="0"
       id="path3047"
       style="fill:#e075df;stroke:none" />
  </g>
</svg>
