<?xml version="1.0" encoding="UTF-8" standalone="no"?>
<!-- Created with Inkscape (http://www.inkscape.org/) -->

<svg
   xmlns:dc="http://purl.org/dc/elements/1.1/"
   xmlns:cc="http://creativecommons.org/ns#"
   xmlns:rdf="http://www.w3.org/1999/02/22-rdf-syntax-ns#"
   xmlns:svg="http://www.w3.org/2000/svg"
   xmlns="http://www.w3.org/2000/svg"
   xmlns:xlink="http://www.w3.org/1999/xlink"
   xmlns:inkscape="http://www.inkscape.org/namespaces/inkscape"
   version="1.1"
   width="740"
   height="520"
   id="svg2"
   style="display:inline;enable-background:new">
  <defs
     id="defs4">
    <filter
       color-interpolation-filters="sRGB"
       id="filter3050">
      <feBlend
         in2="BackgroundImage"
         mode="lighten"
         id="feBlend3052" />
    </filter>
  </defs>
  <metadata
     id="metadata7">
    <rdf:RDF>
      <cc:Work
         rdf:about="">
        <dc:format>image/svg+xml</dc:format>
        <dc:type
           rdf:resource="http://purl.org/dc/dcmitype/StillImage" />
        <dc:title />
      </cc:Work>
    </rdf:RDF>
  </metadata>
  <g
     id="g4923"
     style="display:none">
    <image
       xlink:href="pngs/coronal-0451.png"
       id="image4925"
       height="520"
       width="740"
       y="0"
       x="0" />
  </g>
  <g
     id="g4931"
     style="display:inline">
    <path
       d="M 371.92276,307.98254 C 369.08849,243.82691 361.58632,179.33469 369.43575,115.23939 377.64538,103.07835 387.77128,90.564048 403.18882,86.833736 424.14994,79.929369 446.85216,84.656186 466.92173,92.463399 487.3121,101.99315 509.42236,108.60915 527.36078,122.70041 546.53073,133.5555 561.84122,149.61153 577.94233,164.44286 591.15237,177.19509 600.74675,193.26588 604.69459,211.25681 611.34434,231.35783 605.50319,252.64852 600.23904,272.30957 593.8665,296.33543 577.02285,315.29585 566.76553,337.57988 559.16314,349.00377 548.39695,357.80988 535.8199,363.10236 523.75492,369.67675 511.52093,375.90478 500.46924,384.13024 487.98831,391.57921 474.0154,395.80451 460.83331,401.8671 445.37391,406.53164 427.92678,409.52799 412.36178,403.43956 399.35206,395.74386 383.4769,391.09925 380.82588,373.76337 378.99438,362.8128 377.89869,351.75256 377.77226,340.69596 376.31365,329.72068 376.20117,318.35766 371.92276,307.98254 z"
       inkscape:connector-curvature="0"
       id="path4933"
       style="fill:none;stroke:#0000e9;stroke-width:1;stroke-miterlimit:4;stroke-opacity:1;stroke-dasharray:none;stroke-dashoffset:0" />
    <path
       d="M 456.48105,306.11728 C 456.8704,306.43932 460.90019,303.87683 462.40044,304.18287 464.56709,304.42062 465.85063,306.46383 466.58809,308.31191 468.16756,311.88871 468.98862,315.97375 468.14406,319.83955 466.78295,323.89286 463.25829,326.6105 461.05521,330.1602 458.8995,333.30431 456.90453,336.85129 453.43806,338.73097 451.50878,339.40135 449.8248,337.72734 448.8569,336.25104 446.50899,333.22437 444.63968,329.63599 444.41717,325.7495 445.50981,321.75287 445.46548,317.22247 448.18599,313.85331 449.5349,312.25649 450.8411,310.62086 452.19138,309.02879 453.41195,307.78663 454.91097,306.85209 456.48105,306.11728 z"
       inkscape:connector-curvature="0"
       id="path4935"
       style="fill:#bfb879;stroke:#0000e9;stroke-width:1;stroke-miterlimit:4;stroke-opacity:1;stroke-dasharray:none;stroke-dashoffset:0" />
    <path
       d="M 438.31549,182.38861 C 440.22482,183.83792 441.01632,181.01029 438.51998,182.34731 443.98185,183.34351 449.53727,179.2726 454.82418,182.11796 459.25298,183.69383 462.90347,186.59435 465.68886,190.34348 470.30189,194.95722 474.46425,200.20616 476.56535,206.47325 479.07726,210.93053 478.68337,216.30337 480.58477,220.99794 482.04152,226.03548 482.13879,231.29161 482.62422,236.45832 482.16105,242.74642 481.89821,249.24117 479.71076,255.21123 478.18662,259.77901 471.38617,259.35646 468.38776,256.58091 465.38979,254.01512 461.14427,253.32617 457.3484,252.51266 452.72281,251.7894 447.34258,249.92146 443.2781,253.27466 438.36044,255.32476 436.6179,260.7432 435.5125,265.49209 433.98897,270.26744 432.6262,276.17977 427.98482,278.83832 423.12566,280.05763 423.26217,273.0272 421.97645,269.94848 420.84355,264.74103 421.77635,259.36363 421.42296,254.07935 422.34101,249.21835 421.80374,244.12988 422.81512,239.25607 422.9628,233.91237 424.72216,228.78599 424.67132,223.44777 424.87214,217.93618 426.15407,212.57524 428.10018,207.43435 429.00486,202.77141 429.08268,197.80332 431.6244,193.597 433.62618,190.34949 435.33787,181.0015 439.60529,182.66884 440.43103,179.69644 446.27573,182.39258 444.07512,181.84226"
       inkscape:connector-curvature="0"
       id="path4937"
       style="fill:none;stroke:#0000e9;stroke-width:1;stroke-miterlimit:4;stroke-opacity:1;stroke-dasharray:none;stroke-dashoffset:0" />
    <path
       d="M 481.97288,240.21156 607.5668,242.69857"
       inkscape:connector-curvature="0"
       id="path4939"
       style="fill:none;stroke:#0000e9;stroke-width:1;stroke-miterlimit:4;stroke-opacity:1;stroke-dasharray:none;stroke-dashoffset:0" />
    <path
       d="M 474.51186,202.28468 551.60912,138.24421"
       inkscape:connector-curvature="0"
       id="path4941"
       style="fill:none;stroke:#0000e9;stroke-width:1;stroke-miterlimit:4;stroke-opacity:1;stroke-dasharray:none;stroke-dashoffset:0" />
    <path
       d="M 470.15959,195.44541 536.68707,127.67443"
       inkscape:connector-curvature="0"
       id="path4943"
       style="fill:none;stroke:#0000e9;stroke-width:1;stroke-miterlimit:4;stroke-opacity:1;stroke-dasharray:none;stroke-dashoffset:0" />
    <path
       d="M 449.64177,181.14511 460.21156,89.125799"
       inkscape:connector-curvature="0"
       id="path4945"
       style="fill:none;stroke:#0000e9;stroke-width:1;stroke-miterlimit:4;stroke-opacity:1;stroke-dasharray:none;stroke-dashoffset:0" />
    <path
       d="M 440.93724,182.38861 C 419.97644,157.11352 400.09742,131.47783 374.40977,107.77836"
       inkscape:connector-curvature="0"
       id="path4947"
       style="fill:none;stroke:#0000e9;stroke-width:1;stroke-miterlimit:4;stroke-opacity:1;stroke-dasharray:none;stroke-dashoffset:0" />
    <path
       d="M 432.85447,189.84964 C 409.96591,177.36402 388.86087,157.74433 367.5705,138.86597"
       inkscape:connector-curvature="0"
       id="path4949"
       style="fill:none;stroke:#0000e9;stroke-width:1;stroke-miterlimit:4;stroke-opacity:1;stroke-dasharray:none;stroke-dashoffset:0" />
    <path
       d="M 479.48587,255.75536 C 516.99225,270.00501 546.81939,295.22502 572.74869,326.01335"
       inkscape:connector-curvature="0"
       id="path4951"
       style="fill:none;stroke:#0000e9;stroke-width:1;stroke-miterlimit:4;stroke-opacity:1;stroke-dasharray:none;stroke-dashoffset:0" />
    <path
       d="M 475.13361,260.10762 C 466.0166,267.98517 456.79338,275.75651 434.71972,270.67741"
       inkscape:connector-curvature="0"
       id="path4953"
       style="fill:none;stroke:#0000e9;stroke-width:1;stroke-miterlimit:4;stroke-opacity:1;stroke-dasharray:none;stroke-dashoffset:0" />
    <path
       d="M 424.77169,224.046 C 405.91188,230.77702 387.05206,221.30747 368.19225,222.18075"
       inkscape:connector-curvature="0"
       id="path4955"
       style="fill:none;stroke:#0000e9;stroke-width:1;stroke-miterlimit:4;stroke-opacity:1;stroke-dasharray:none;stroke-dashoffset:0" />
    <path
       d="M 369.43575,266.9469 422.90643,267.56865"
       inkscape:connector-curvature="0"
       id="path4957"
       style="fill:none;stroke:#0000e9;stroke-width:1;stroke-miterlimit:4;stroke-opacity:1;stroke-dasharray:none;stroke-dashoffset:0" />
    <path
       d="M 470.78134,263.21639 C 474.52184,266.90034 471.82682,272.59653 471.66098,277.0639 471.20685,282.55113 473.18376,287.94462 475.30327,292.84432 477.54169,297.072 481.90872,299.5746 486.67545,299.72247 490.64082,301.32867 494.96016,302.75292 499.3748,302.47944 503.72168,303.76781 508.08983,303.95431 512.64056,303.58475 530.18276,309.02526 520.76371,330.14797 507.49812,332.71444 486.75103,342.86288 472.15481,352.74555 486.85249,366.78 489.82,369.063 492.46723,371.37356 495.72338,373.66626 497.21,374.98841 502.64316,379.31672 501.32658,379.13779 499.21775,377.8594 505.2024,383.27274 505.0219,381.54433"
       inkscape:connector-curvature="0"
       id="path4959"
       style="fill:none;stroke:#0000e9;stroke-width:1;stroke-miterlimit:4;stroke-opacity:1;stroke-dasharray:none;stroke-dashoffset:0" />
    <path
       d="M 371.92276,305.49553 C 376.82215,305.29563 382.08552,307.58214 386.68488,304.99516 390.1819,303.25402 394.186,303.78865 397.86684,302.74467 401.24396,301.8614 404.59063,303.24644 407.74071,304.33269 411.72255,305.71458 409.61503,310.31938 407.01148,311.93738 405.03934,314.63305 402.72353,317.75898 402.90026,321.30196 402.31481,325.05955 400.32681,328.45145 400.05651,332.29717 398.75013,340.75823 402.07303,348.94772 402.57436,357.3137 403.48438,360.2468 402.41887,363.16909 402.29176,366.14461 402.03491,369.03772 399.93491,371.21559 397.26256,372.10802 394.34308,373.67814 391.03502,373.46917 387.86235,373.21716 385.19011,373.78133 382.82506,372.64961 380.36952,373.92239 379.94269,373.25012 381.3868,372.2935 380.62725,371.40098"
       inkscape:connector-curvature="0"
       id="path4961"
       style="fill:none;stroke:#0000e9;stroke-width:1;stroke-miterlimit:4;stroke-opacity:1;stroke-dasharray:none;stroke-dashoffset:0" />
    <path
       d="M 375.65327,345.28766 399.9016,337.20488"
       inkscape:connector-curvature="0"
       id="path4963"
       style="fill:none;stroke:#0000e9;stroke-width:1;stroke-miterlimit:4;stroke-opacity:1;stroke-dasharray:none;stroke-dashoffset:0" />
    <path
       d="M 516.48012,305.49553 C 535.51615,299.75344 553.56468,315.73659 571.81606,327.25685"
       inkscape:connector-curvature="0"
       id="path4965"
       style="fill:none;stroke:#0000e9;stroke-width:1;stroke-miterlimit:4;stroke-opacity:1;stroke-dasharray:none;stroke-dashoffset:0" />
    <path
       d="M 387.84426,388.54611 C 388.59493,386.15755 386.09264,387.34754 387.84426,388.54611 386.64213,383.62138 390.99691,380.99838 394.53979,378.81148 397.70795,376.88861 401.43774,376.28904 404.6942,374.55185 407.50989,372.98786 410.92016,373.33584 410.83128,377.17162 411.89999,381.14902 416.44734,381.3458 419.72383,381.8771 423.7498,382.0288 427.66549,383.11326 431.69642,382.88764 438.45998,382.3373 445.18011,383.77502 451.95186,383.29899 455.65136,383.34669 458.9178,381.31396 462.58674,381.04233 465.98421,380.47368 469.14463,378.63483 472.69577,378.87392 476.66103,377.46058 481.27531,378.47942 484.89273,376.05209 487.89195,375.13387 492.93277,372.19098 494.98004,373.12943 494.67943,373.19263 493.90542,372.9874 494.23838,373.59817"
       inkscape:connector-curvature="0"
       id="path4967"
       style="fill:none;stroke:#0000e9;stroke-width:1;stroke-miterlimit:4;stroke-opacity:1;stroke-dasharray:none;stroke-dashoffset:0" />
    <path
       d="M 410.26616,377.99463 C 411.77217,377.51394 411.66979,375.14828 410.49996,377.19687 410.38206,378.70688 412.62384,375.14562 413.57379,374.93141 415.78266,372.66733 419.25067,375.09367 422.01414,374.41452 424.881,374.21172 427.62872,375.28771 430.50196,375.32965 434.53695,375.8964 438.49089,374.53105 442.48875,374.37451 444.77492,374.09527 447.2383,373.53481 449.5228,372.88355 451.91272,371.94501 454.38231,371.8654 456.87715,371.5905 459.54402,371.14077 462.13823,371.43398 464.82542,370.84003 467.11483,371.23201 469.347,370.50642 471.61399,370.68788 474.3199,371.52421 477.33126,370.63238 480.16973,370.96027 483.03126,371.33082 484.90944,374.4198 483.79767,377.20267 483.76557,378.14941 483.59748,376.4528 483.24725,376.23602"
       inkscape:connector-curvature="0"
       id="path4969"
       style="fill:none;stroke:#0000e9;stroke-width:1;stroke-miterlimit:4;stroke-opacity:1;stroke-dasharray:none;stroke-dashoffset:0" />
    <path
       d="M 449.87533,251.27862 C 453.04488,252.431 456.39726,252.52951 459.68736,253.2216 463.45674,254.12803 466.77342,255.85084 469.9657,257.94303 471.32323,258.51521 475.15124,259.93628 472.76358,261.67354 465.0517,269.00912 454.31866,273.25573 443.60235,271.80976 440.71317,271.2891 437.20284,271.76546 434.79784,269.8729 435.47244,265.12391 436.72981,259.87273 439.88844,256.05834 440.68075,254.78693 442.42077,254.55139 443.46351,254.09594 444.94862,252.39761 447.64822,251.4048 449.87533,251.27862 z"
       inkscape:connector-curvature="0"
       id="path4971"
       style="fill:#c7afc8;stroke:none" />
    <path
       d="M 374.50732,108.33393 C 393.02504,125.64056 409.84964,144.68853 425.84256,164.35367 430.16772,169.70304 434.79653,174.85938 438.78094,180.45717 435.93234,177.07979 439.82183,182.46232 438.00375,184.80944 436.76267,184.74634 435.33966,184.44388 434.85613,186.03351 433.87531,190.65082 430.67067,188.9607 427.99366,186.81328 405.96651,173.2809 386.85698,155.70833 367.5709,138.62491 368.1287,130.6605 368.37952,122.31155 370.31049,114.47373 371.18685,113.16849 372.79266,112.4929 372.7975,110.58778 373.17426,109.84198 373.32697,108.09562 374.50732,108.33393 z"
       inkscape:connector-curvature="0"
       id="path4973"
       style="fill:none;stroke:none" />
    <path
       d="M 431.63079,83.988449 C 437.58177,83.6418 442.9703,86.263655 448.76783,87.155498 452.03256,88.761897 456.71874,88.217677 459.39591,90.866581 458.95144,101.66984 457.07032,112.50611 456.08649,123.31807 453.85518,142.03554 452.06552,160.87531 449.44788,179.50511 447.62125,181.52516 444.08066,182.03725 441.59826,181.52581 430.94176,171.16392 422.18648,158.93066 412.31423,147.78721 400.74928,133.75946 387.81935,120.89276 375.16793,107.84819 374.97442,105.75425 378.60396,105.70934 379.30647,103.74851 382.73186,100.05471 385.3991,95.306172 389.9734,92.984424 391.4183,91.236158 394.58611,91.321418 396.48237,89.817375 401.68275,87.245657 407.51756,86.048412 413.01709,84.843358 416.70255,83.257759 421.2823,84.45187 425.2578,83.994925 427.38221,83.985825 429.50642,83.953655 431.63079,83.988425 z"
       inkscape:connector-curvature="0"
       id="path4975"
       style="fill:#b1daa9;stroke:none" />
    <path
       d="M 460.892,90.458556 C 473.92602,95.109036 486.22914,101.79228 499.11032,106.76012 509.11162,111.03375 518.50844,116.42995 527.3029,122.77024 530.0019,124.01846 532.49122,125.98985 534.86107,127.60824 533.30955,131.67615 529.00908,134.44018 526.31198,137.84772 507.94827,156.67943 489.20953,175.67982 470.85946,194.3883 466.71894,192.4492 464.9298,187.13914 460.77542,184.9843 457.70775,182.81236 454.10605,181.32023 450.67195,180.26287 449.45299,176.66616 451.42426,172.52753 451.30322,168.77163 454.30242,142.72391 457.105,116.54721 460.3674,90.594565 460.50383,90.490243 460.71508,90.390354 460.892,90.458556 z"
       inkscape:connector-curvature="0"
       id="path4977"
       style="fill:none;stroke:none" />
    <path
       d="M 536.39602,129.43464 C 540.87896,131.9417 545.55774,134.74624 549.08365,138.50834 550.04869,141.21633 545.55095,142.10962 544.40681,143.99745 521.49846,163.10292 498.52953,182.13569 475.56146,201.16929 473.71678,200.0795 470.52767,196.54263 471.334,194.46933 492.87283,172.80224 513.87866,150.52379 535.96857,129.45407 L 536.27944,129.41517 536.39602,129.43457 z"
       inkscape:connector-curvature="0"
       id="path4979"
       style="fill:#b5acba;stroke:none" />
    <path
       d="M 550.89062,139.5964 C 568.20531,156.41841 589.0957,171.40083 598.72908,194.30791 603.91901,207.80933 608.65615,222.16723 606.98431,236.86174 606.94031,239.10189 607.04851,242.63517 603.81726,242.26322 565.09097,241.92632 526.34833,241.03052 487.62866,240.02708 482.73792,241.24577 481.95091,237.70617 482.38877,233.68574 482.07661,222.91359 478.91708,212.40295 475.58089,202.31564 477.25652,199.20946 481.27067,197.48239 483.73058,194.84834 505.88402,176.42234 528.05325,157.9865 550.23,139.57697 L 550.85149,139.59527 550.89059,139.59627 z"
       inkscape:connector-curvature="0"
       id="path4981"
       style="fill:#bf9784;stroke:none" />
    <path
       d="M 487.99651,259.61399 C 519.93445,273.383 546.92808,296.61255 569.40717,322.66353 570.72403,323.62246 569.58033,326.05716 568.14424,324.4705 554.37254,316.26295 540.92219,304.38095 524.11642,304.14698 520.79695,304.56136 517.49966,304.85072 514.32382,303.71952 505.26512,302.39984 495.78567,303.20207 487.12682,299.70179 482.78861,299.06369 478.70932,297.25195 476.35808,293.3829 470.99053,286.29027 471.79595,277.0598 472.47213,268.72654 472.96081,266.81932 471.83238,265.00849 471.96696,263.30564 472.91221,261.81417 475.39541,260.84422 474.6677,258.77851 475.61636,257.9051 477.40335,259.16108 478.37878,257.70987 481.02676,254.54165 484.94842,259.08413 487.99651,259.61399 z"
       inkscape:connector-curvature="0"
       id="path4983"
       style="fill:#84cdcd;stroke:none" />
    <path
       d="M 570.26208,324.04305 C 572.33314,324.11045 571.65756,327.40364 569.83463,325.86944 568.95684,325.37934 568.99259,323.80002 570.26208,324.04305 z"
       inkscape:connector-curvature="0"
       id="path4985"
       style="fill:#84cdcd;stroke:none" />
    <path
       d="M 497.73081,240.84484 C 533.67856,241.31596 569.6204,242.17076 605.56594,242.78782 607.37252,248.23003 604.01024,254.06656 603.35095,259.63342 600.9451,269.64395 597.56931,279.49778 593.6555,288.95291 592.60097,289.69502 593.35792,291.71576 591.88739,292.23654 590.8938,295.41607 589.20469,298.37913 587.41855,301.17423 586.3772,301.48299 586.78928,303.21365 585.59215,303.44751 585.35497,305.6102 583.01976,306.57497 582.59997,308.63525 580.74992,310.3877 580.73889,313.74921 578.59744,315.53281 577.93297,316.79146 577.30359,318.35096 576.24644,319.06903 575.70928,321.13611 574.07646,322.77704 573.25426,324.74252 571.27499,325.43711 570.09955,321.96789 568.60605,321.05199 544.74175,293.52258 515.50711,270.03766 481.42925,256.2915 479.01873,254.90619 481.39435,251.39423 481.39035,249.25793 482.3776,246.98065 481.23102,244.19706 482.4007,242.10778 486.94279,239.961 492.84319,241.25102 497.73077,240.84484 z"
       inkscape:connector-curvature="0"
       id="path4987"
       style="fill:none;stroke:none" />
    <path
       d="M 368.65896,140.60675 C 378.21603,147.97387 386.86922,156.55192 396.34949,164.06466 407.71372,173.74471 419.95713,182.28965 432.46627,190.28863 431.87865,193.40807 429.618,196.33623 429.26071,199.6924 427.91203,207.64035 425.02472,215.20629 424.36406,223.28035 423.38829,225.41522 419.84172,224.74902 417.89396,225.55363 401.10403,227.37245 384.71106,222.29548 368.03721,221.62882 365.85576,216.3157 367.29526,209.91574 366.74211,204.18094 366.72801,183.68058 366.31901,163.14488 367.12401,142.6663 367.38599,141.91825 367.66575,140.61384 368.65896,140.60675 z"
       inkscape:connector-curvature="0"
       id="path4989"
       style="fill:#a76986;stroke:none" />
    <path
       d="M 375.40109,222.77517 C 390.97986,223.87587 406.79379,228.63752 422.34337,224.99017 424.3946,223.56447 425.07604,226.24497 424.07262,227.76862 422.00218,240.64963 421.60489,253.80772 421.21644,266.86128 416.89144,267.98887 411.68772,266.89978 407.03355,267.19708 394.88303,266.77777 382.58519,267.54372 370.52422,266.10352 369.04856,262.3775 369.77403,257.68966 369.12969,253.63668 368.52316,243.38216 367.64469,233.12776 367.55147,222.85289 369.56819,221.68963 373.01363,223.01367 375.40109,222.77519 z"
       inkscape:connector-curvature="0"
       id="path4991"
       style="fill:#bc777a;stroke:none" />
    <path
       d="M 401.68954,303.3115 C 404.40203,303.77794 409.39753,304.19119 409.55859,307.74148 408.73483,309.99995 406.3802,311.28413 405.69207,313.64813 402.18232,318.26743 401.89546,324.7189 400.23231,330.20228 398.95285,332.94231 401.23445,337.7008 396.94224,337.93096 390.92869,339.66412 385.03727,342.47823 378.9373,343.53109 376.84259,341.37071 377.95718,337.52298 377.25627,334.73134 376.85407,327.44061 375.53261,320.47111 373.84671,313.39554 373.90351,311.20177 371.05877,308.42687 372.6032,306.55627 378.12358,305.4296 384.34392,307.50484 389.40994,304.39957 393.42752,303.64663 397.58863,303.21305 401.68954,303.3115 z"
       inkscape:connector-curvature="0"
       id="path4993"
       style="fill:none;stroke:none" />
    <path
       d="M 398.71679,337.89646 C 400.56698,340.10808 399.84983,344.14746 400.78242,346.98929 401.55941,354.41073 404.19373,362.91003 400.11573,369.78068 394.90404,374.17708 387.24997,373.11196 380.93857,372.46199 379.29202,367.70662 380.15772,362.18378 378.64586,357.26792 378.19168,353.01786 377.87588,348.42109 378.78186,344.34714 385.41116,342.23436 392.11043,339.707 398.71679,337.89646 z"
       inkscape:connector-curvature="0"
       id="path4995"
       style="fill:none;stroke:none" />
    <path
       d="M 493.74771,373.41405 C 497.40236,373.98294 499.07234,378.50818 502.41338,379.39841 504.19072,377.60609 505.48031,380.41419 503.79289,381.63283 502.52913,383.15173 500.3232,383.1159 499.03261,384.72216 496.01058,385.37978 493.86215,387.68628 490.85268,388.78298 482.36801,393.25859 473.0034,395.60408 464.4865,399.95509 460.40207,401.20966 456.68107,403.36975 452.29669,403.76868 446.06145,404.95355 439.97785,406.92044 433.53491,406.17261 425.92454,406.12011 418.00013,406.16561 411.28784,402.07293 409.03705,400.55722 407.14692,398.70093 404.35142,397.91497 400.02236,396.52634 396.23169,393.67011 391.9941,392.29977 388.85146,392.24167 387.55638,387.58228 388.36073,384.99418 392.31049,378.60588 400.29156,376.43212 407.05216,374.34668 409.3782,373.32868 410.37669,375.61797 410.47179,377.4943 412.96603,381.98548 419.27966,381.55606 423.64516,382.39059 434.02607,383.04449 444.59296,384.21295 454.92707,383.12892 463.75812,380.67667 472.75857,379.00373 481.75956,377.35829 485.94227,376.70929 489.49482,373.57509 493.74771,373.41405 z"
       inkscape:connector-curvature="0"
       id="path4997"
       style="fill:none;stroke:none" />
    <path
       d="M 475.7169,371.25735 C 478.63672,371.28215 484.05197,371.21435 483.4888,375.53189 481.74429,378.43994 477.23886,377.30357 474.41347,378.17982 464.00225,379.9411 453.75447,383.90125 442.97777,383.01235 433.55322,382.63569 423.8849,382.79501 414.70748,380.54477 412.67164,380.23369 410.18906,377.59032 412.60906,376.01764 416.31602,372.8145 421.73057,375.25179 426.09331,374.96843 439.57928,377.28984 452.42768,370.69347 465.90488,371.27678 469.1743,371.20768 472.44765,371.17958 475.7169,371.25738 z"
       inkscape:connector-curvature="0"
       id="path4999"
       style="fill:none;stroke:none" />
    <path
       d="M 525.88452,304.7493 C 539.61897,305.28845 551.00424,314.30215 562.27645,321.16744 565.18915,323.51445 569.19305,325.01238 571.253,328.10386 570.60425,329.96734 568.93909,331.20701 568.7077,333.29161 567.58161,335.86216 565.90035,337.87876 564.5337,340.1755 559.4302,345.79905 554.21155,351.5637 548.11216,356.04385 545.98436,359.40622 540.95825,358.90404 538.10584,361.5619 537.00852,362.30387 535.7169,362.07708 535.09423,363.31058 532.51762,364.39589 530.27275,365.74617 528.0218,367.23539 522.7187,369.52237 517.72652,372.98125 512.49742,375.1433 510.64506,377.48574 507.78227,380.01134 504.74495,380.40876 503.41864,379.34047 501.62958,379.57064 501.09216,377.51373 500.39983,376.44411 501.03106,373.78609 499.55721,375.49303 493.45719,372.24629 488.50458,367.03103 482.77106,363.13474 478.68109,359.7669 474.99398,355.88912 470.60688,353.14882 467.30933,350.37855 467.1204,344.4797 471.42293,342.63732 478.10616,339.834 485.44638,339.00479 492.1739,336.34208 496.53097,335.39263 500.84662,333.4618 503.90947,330.31886 505.6601,330.40966 505.75025,328.12871 507.50398,328.12329 514.50795,322.9788 519.99304,314.98027 519.44542,305.97498 519.39002,303.41188 524.30866,305.29144 525.88452,304.7493 z"
       inkscape:connector-curvature="0"
       id="path5001"
       style="fill:none;stroke:none" />
    <path
       d="M 452.63436,181.52581 C 462.08553,184.87078 468.51916,193.10024 474.0848,200.99442 477.21284,207.91075 479.39905,215.23875 480.88237,222.73673 482.31968,231.01157 482.28788,239.65988 481.27381,247.99499 480.36142,250.96919 480.28931,254.76246 478.00961,256.99097 474.36757,259.048 469.97135,257.89342 467.18724,255.00913 461.06006,252.73838 454.42953,250.99053 447.83521,251.12318 441.99234,251.70923 437.71876,256.41666 436.25632,261.96641 434.26396,267.41183 433.10566,273.72066 429.06607,277.95567 425.53773,280.08918 423.22462,275.25323 422.90683,272.39876 422.31113,270.8143 422.60873,268.79633 422.45995,267.36646 420.80771,262.73473 422.01367,257.34717 421.90998,252.46471 422.78997,239.83685 424.02504,227.17938 426.1516,214.71183 428.75835,205.74056 429.58287,196.21233 434.4484,188.01986 434.96132,185.74462 436.97175,184.9898 438.99467,185.83921 438.49107,182.02117 443.63631,182.95886 445.93109,182.28357 448.16148,182.07363 450.41166,181.57593 452.63436,181.52581 z"
       inkscape:connector-curvature="0"
       id="path5003"
       style="fill:none;stroke:none" />
    <path
       d="M 425.39344,278.76019 410.47139,304.87378"
       inkscape:connector-curvature="0"
       id="path5005"
       style="fill:#e075df;fill-opacity:1;stroke:#0000e9;stroke-width:1;stroke-miterlimit:4;stroke-opacity:1;stroke-dasharray:none;stroke-dashoffset:0" />
    <path
       d="M 421.33302,267.79391 C 422.51639,271.49164 422.5626,275.48438 424.98582,278.71343 420.46782,287.53286 415.23727,296.49094 410.14149,304.92417 407.64867,304.53158 405.20517,301.99314 402.29187,302.34001 395.83665,302.0803 389.51472,303.75989 383.42558,305.48763 379.77308,305.26843 375.45513,306.39978 372.15632,304.63272 371.10888,292.77242 370.56709,280.67073 370.04595,268.70717 371.29844,265.7754 376.94669,268.23065 379.86993,267.42475 393.52905,267.42475 407.18816,267.42475 420.84728,267.42475 L 421.33302,267.79391 z"
       inkscape:connector-curvature="0"
       id="path5007"
       style="fill:#68b88b;stroke:none" />
    <path
       d="M 461.98784,305.15733 C 465.25233,306.31416 466.89899,309.7981 467.46112,313.00169 468.14851,315.88646 468.0756,319.12399 466.37654,321.66105 464.63114,324.77359 461.98222,327.25035 460.14204,330.29943 457.84207,332.67203 456.44434,336.13192 453.18632,337.41118 451.3177,338.06668 449.94847,336.21041 448.90314,334.96315 445.55592,330.93038 444.24944,325.06681 446.27838,320.13659 447.71423,315.67949 450.4885,311.77109 453.73022,308.44095 456.17249,306.73873 458.95716,305.29332 461.98784,305.15733 z"
       inkscape:connector-curvature="0"
       id="path5009"
       style="fill:none;stroke:none" />
    <path
       d="M 476.01275,370.98126 C 478.48674,371.04486 481.69271,370.6448 483.20507,373.10392 483.92098,374.17829 484.56943,376.28526 482.89595,376.83404 479.54121,377.9529 475.92077,377.84589 472.50246,378.7094 468.38078,378.89759 464.56705,380.67698 460.50839,381.30563 457.37312,381.9344 454.3552,383.45226 451.07663,383.10585 442.19962,382.92536 433.29775,382.95774 424.44375,382.30212 421.0387,381.76919 417.48769,381.69486 414.22201,380.55041 412.97951,379.89948 411.20105,378.89997 411.33683,377.28742 412.49166,375.79971 414.12505,374.2993 416.08363,374.07252 418.54166,374.33171 420.97328,374.6951 423.45455,374.57399 427.79288,375.00442 432.15541,376.04 436.51434,375.20029 441.24779,374.64816 445.99295,374.1034 450.53345,372.69028 455.07683,371.64696 459.77633,371.48743 464.40998,371.10783 468.27403,370.92315 472.14565,370.97628 476.01275,370.98126 z"
       inkscape:connector-curvature="0"
       id="path5011"
       style="fill:#aac7db;stroke:none" />
    <path
       d="M 495.14061,373.36496 C 497.33571,375.19002 499.60115,377.00167 501.19466,379.4024 501.75568,380.29362 503.1203,380.76726 503.20535,381.86935 501.73946,383.36266 499.70287,384.28445 497.92389,385.40568 487.35861,391.30272 475.80955,395.19287 464.7291,400.01864 456.51067,403.51348 447.65409,405.32922 438.81108,406.38643 433.34096,406.76219 427.77964,406.824 422.34587,405.99486 417.12409,405.2845 412.17054,403.32833 407.63964,400.70053 401.22575,397.03912 394.2374,394.0356 388.91823,388.79376 387.62799,387.63443 387.50641,385.66745 388.5198,384.29427 391.49781,379.76171 396.84683,377.71805 401.73183,375.90403 403.98073,375.26387 406.13897,373.45248 408.57861,373.97634 409.94995,374.36692 410.90083,375.75567 410.52092,377.19108 410.21673,378.18935 411.49525,378.3505 411.79352,379.17652 414.42731,381.83468 418.47003,381.62806 421.92306,382.19452 426.26324,382.78036 430.61206,383.11135 434.99162,382.91266 441.69015,382.85746 448.46788,384.19133 455.10543,382.94786 459.93717,381.67677 464.8887,380.60837 469.73944,379.29571 473.60905,378.63163 477.51731,378.14236 481.4017,377.53473 482.23624,377.18076 483.3296,377.40828 484.07392,376.95083 485.90603,375.50257 488.32484,374.94192 490.45658,374.02607 491.93645,373.47092 493.57348,373.01641 495.14061,373.36497 z"
       inkscape:connector-curvature="0"
       id="path5013"
       style="fill:#c7a1db;stroke:none" />
    <path
       d="M 400.65126,302.67827 C 403.44006,302.92102 406.23779,303.74393 408.70226,305.07571 410.53387,306.22307 409.73008,308.68037 408.67646,310.0741 407.38377,311.57652 405.9702,312.91908 404.98612,314.68701 403.5012,316.73201 402.87222,319.19073 402.60901,321.65858 401.64383,326.18317 399.70055,330.53892 399.70602,335.23106 400.00915,336.795 399.09112,337.71198 397.58243,337.86605 391.32119,339.91897 385.09882,342.15148 378.79948,344.053 377.61335,343.56509 378.11173,341.82925 377.82748,340.84036 376.61474,330.78626 376.2707,320.49058 373.07036,310.81858 372.59066,309.2199 371.78746,307.57764 371.95064,305.89318 373.95126,305.38193 376.13133,306.00596 378.19367,306.10249 381.23333,306.5587 384.35994,306.31026 387.139,304.97954 390.74121,303.61038 394.67351,303.59458 398.41865,302.80192 399.15872,302.71052 399.90374,302.64832 400.65122,302.67827 z"
       inkscape:connector-curvature="0"
       id="path5017"
       style="fill:#c6bdae;stroke:none" />
    <path
       d="M 399.40102,337.69875 C 400.03151,339.25586 399.80327,341.14456 400.21161,342.8165 401.13348,348.69971 402.53661,354.57148 402.71897,360.52595 402.47726,363.04475 402.4864,365.67415 401.6542,368.08235 400.32205,371.02221 397.07359,372.25341 394.15962,372.99401 389.92442,373.42309 385.64816,373.18896 381.39618,373.26192 380.50577,372.88831 381.13072,371.67905 380.60619,370.96752 379.33477,364.08619 378.8048,357.08161 378.21461,350.12609 378.16261,348.30566 377.81889,346.40011 378.20191,344.63003 385.09953,342.23126 392.07054,339.99549 398.99575,337.65754 L 399.21445,337.67974 399.40105,337.69874 z"
       inkscape:connector-curvature="0"
       id="path5019"
       style="fill:#73837a;stroke:none" />
    <path
       d="M 450.97689,181.268 C 454.25306,181.63415 457.34341,183.16916 460.03925,185.03032 464.68947,189.01787 468.82829,193.55376 472.37988,198.53873 476.30436,204.16136 478.24351,210.83854 479.4932,217.50565 480.36817,221.07194 481.57124,224.59471 481.76477,228.31437 482.30518,233.10287 482.714,237.94715 482.00621,242.74275 481.42891,247.27216 481.17361,252.06322 478.99739,256.16566 477.06259,259.12642 472.80086,258.95826 469.99841,257.41591 467.68107,255.9723 465.43651,254.32138 462.73739,253.69266 458.28079,252.51902 453.70814,251.4924 449.08779,251.28835 445.58255,251.26045 442.32808,253.24625 439.86211,255.55428 435.89946,260.00311 435.66639,266.30003 433.3169,271.57611 432.14995,274.40037 430.42176,277.31796 427.65509,278.77304 425.44376,279.32086 423.96124,276.95148 423.5815,275.09788 422.9343,272.83188 422.17299,270.56324 421.7817,268.24904 421.64572,267.71544 422.97634,267.59745 422.10457,267.4247 421.19706,266.49254 421.7564,264.91982 421.56688,263.73581 421.49538,258.43489 421.59908,253.13102 422.13334,247.86831 422.49975,238.58892 424.53775,229.46588 425.11339,220.21781 425.45529,216.00296 426.76232,211.95358 427.97936,207.95631 429.14031,202.86659 429.41107,197.46043 432.08588,192.84303 433.46095,190.20219 434.17878,187.18918 435.89843,184.75081 436.49359,184.01711 438.31157,184.92905 438.06918,183.55553 438.46231,182.35064 440.07827,182.97696 441.00244,182.63502 442.56602,182.29186 444.2696,182.40879 445.78358,182.05112 447.31789,181.26289 449.28649,181.32013 450.97689,181.268 z"
       inkscape:connector-curvature="0"
       id="path5021"
       style="fill:#e075df;stroke:none" />
    <path
       d="M 375.06254,108.56169 C 398.76592,130.69542 419.13977,156.02086 439.61481,181.08252 439.87304,182.23836 438.17539,182.18462 437.49215,182.67624 435.81673,183.45162 435.21007,185.45479 434.35319,186.94399 433.84724,187.75494 433.76896,189.15774 432.75222,189.477 429.55218,188.10449 426.66751,186.00748 423.68551,184.21793 406.19647,173.1103 390.79588,159.14055 375.26447,145.51631 372.68957,143.14621 369.89881,140.93149 367.45594,138.46759 367.55976,134.12464 368.11285,129.71244 368.48,125.36382 368.83652,121.97728 369.11853,118.56489 369.61506,115.20445 371.26867,112.99634 372.6925,110.55307 374.51419,108.51242 374.67927,108.29471 374.87984,108.54632 375.06254,108.56172 z"
       inkscape:connector-curvature="0"
       id="path5023"
       style="fill:#a0a0a0;stroke:none" />
    <path
       d="M 374.8908,108.14794 C 378.24536,110.86476 381.16537,114.1296 384.27542,117.12726 402.59877,135.2564 418.94688,155.22806 435.22536,175.17297 436.77638,177.19268 438.51196,179.09966 439.90332,181.22521 439.84352,182.57869 437.98166,182.54126 437.19676,183.36161 435.25352,184.95814 434.86794,187.72838 433.2743,189.57846 432.14589,190.03801 431.08824,188.86398 430.07373,188.48863 408.93206,176.32969 390.92804,159.67085 372.65136,143.6905 370.80659,141.98009 368.76756,140.40187 367.09358,138.55461 367.2264,132.98874 367.98149,127.37685 368.47207,121.80086 368.81072,119.49287 368.80243,117.05359 369.44412,114.8362 371.10337,112.5909 372.48248,110.03088 374.54046,108.15481 374.65305,108.11351 374.77717,108.10731 374.8908,108.14781 z"
       inkscape:connector-curvature="0"
       id="path5025"
       style="fill:#746bdb;stroke:none" />
    <path
       d="M 460.74173,90.45772 C 467.34019,92.497388 473.5504,95.69607 479.95909,98.299573 495.64985,105.0237 511.86338,111.25005 525.61686,121.54887 528.72445,123.90415 532.35164,125.55091 535.38522,127.97181 535.80719,128.99051 534.19664,129.57782 533.77215,130.36021 512.80594,151.87451 491.71774,173.26949 470.6887,194.72231 469.46302,194.97192 468.81738,193.17193 467.88368,192.50279 464.64551,188.94584 461.60848,184.99393 457.12611,182.98327 455.03357,181.9418 452.80023,181.11519 450.46502,180.92157 449.34007,180.22737 450.33052,178.63728 450.19919,177.6049 453.47559,148.69751 456.76958,119.79175 460.15782,90.897365 460.28824,90.654156 460.40845,90.387675 460.74173,90.45772 z"
       inkscape:connector-curvature="0"
       id="path5027"
       style="fill:#dbc198;stroke:none" />
    <path
       d="M 488.87441,240.71813 C 527.21405,241.3852 565.57253,241.83186 603.89171,243.13154 608.35208,242.59742 604.99217,248.09262 605.12884,250.44721 601.87468,266.13486 597.96029,281.80615 589.83141,295.76262 584.44878,305.45122 579.18874,315.3817 572.57779,324.24663 569.18079,322.47552 567.10934,318.36205 564.16007,315.78985 544.01108,293.9567 520.8484,274.33614 493.71465,261.60956 489.33106,259.18943 483.97525,257.91102 480.07273,255.05728 481.98653,250.47649 481.58768,245.17028 482.96777,240.71813 484.93672,240.70053 486.90547,240.69343 488.87441,240.71813 z"
       inkscape:connector-curvature="0"
       id="path5029"
       style="fill:#cda392;stroke:none" />
    <path
       d="M 525.34303,304.47016 C 535.9953,304.792 545.58305,310.32077 554.31839,315.89406 560.03235,319.65187 565.81469,323.32924 571.34777,327.34544 571.65014,328.49401 570.4058,329.54711 570.07821,330.64451 567.16325,336.76228 563.54234,342.61064 558.62604,347.3258 552.38578,353.78585 544.82837,358.94796 536.63361,362.61824 526.04328,368.18909 515.44476,373.82011 505.47439,380.45216 504.73019,381.07761 503.66954,381.50527 502.90052,380.66615 502.20621,380.21472 501.60823,379.60632 501.54037,378.77705 497.34689,374.37103 492.17158,371.08732 487.59747,367.07373 483.42876,363.58688 479.44739,357.96745 481.72886,352.32278 483.93504,346.93555 488.98341,343.50479 493.66795,340.40991 499.12762,337.04222 504.87719,333.85715 510.90344,331.70755 517.2902,328.67235 522.30994,321.99841 522.28612,314.76747 522.32082,311.32471 520.41691,308.20264 517.93089,305.92648 517.57681,304.60471 519.64622,305.05181 520.48431,304.74271 522.09519,304.53706 523.71755,304.42773 525.34303,304.47016 z"
       inkscape:connector-curvature="0"
       id="path8825"
       style="fill:#d5be93;stroke:none" />
  </g>
</svg>
