<?xml version="1.0" encoding="UTF-8" standalone="no"?>
<!-- Created with Inkscape (http://www.inkscape.org/) -->

<svg
   xmlns:dc="http://purl.org/dc/elements/1.1/"
   xmlns:cc="http://creativecommons.org/ns#"
   xmlns:rdf="http://www.w3.org/1999/02/22-rdf-syntax-ns#"
   xmlns:svg="http://www.w3.org/2000/svg"
   xmlns="http://www.w3.org/2000/svg"
   xmlns:xlink="http://www.w3.org/1999/xlink"
   xmlns:inkscape="http://www.inkscape.org/namespaces/inkscape"
   version="1.1"
   width="740"
   height="520"
   id="svg2"
   style="display:inline;enable-background:new">
  <defs
     id="defs4">
    <filter
       color-interpolation-filters="sRGB"
       id="filter3050">
      <feBlend
         in2="BackgroundImage"
         mode="lighten"
         id="feBlend3052" />
    </filter>
  </defs>
  <metadata
     id="metadata7">
    <rdf:RDF>
      <cc:Work
         rdf:about="">
        <dc:format>image/svg+xml</dc:format>
        <dc:type
           rdf:resource="http://purl.org/dc/dcmitype/StillImage" />
        <dc:title />
      </cc:Work>
    </rdf:RDF>
  </metadata>
  <g
     id="g4477"
     style="display:none">
    <image
       xlink:href="pngs/coronal-0483.png"
       id="image4479"
       height="520"
       width="740"
       y="0"
       x="0" />
  </g>
  <g
     id="g4485"
     style="display:inline">
    <path
       d="M 371.92276,376.37527 C 372.15602,320.74131 372.29853,265.10698 372.59022,209.47327 364.25014,194.38052 370.06589,176.73931 369.14322,160.40579 369.65523,141.2053 370.16725,122.00482 370.67926,102.80434 386.82595,78.147282 420.65665,76.337892 446.70232,82.883862 502.87094,95.588828 554.5291,124.27624 599.28257,159.91397 618.35054,181.50389 622.55574,211.81674 623.88418,239.55345 624.11444,286.87741 604.36599,334.04251 570.15533,366.79881 554.75652,373.39268 534.58978,376.01125 531.26479,395.55587 516.77579,414.65523 495.02953,431.25793 469.86849,429.75614 455.00777,429.00542 440.22426,425.85797 426.08656,421.33319 403.08751,413.08289 388.04591,393.49501 371.92276,376.37527 z"
       inkscape:connector-curvature="0"
       id="path4487"
       style="fill:none;stroke:#0000e9;stroke-width:1;stroke-miterlimit:4;stroke-opacity:1;stroke-dasharray:none;stroke-dashoffset:0" />
    <path
       d="M 447.77652,316.68707 C 448.99951,315.52229 451.12142,315.24391 452.459,316.37126 455.72926,316.96486 457.81544,319.79579 460.06138,321.97357 462.2751,324.43797 463.96296,327.31988 465.6009,330.1789 466.68789,333.27349 464.41837,336.77744 461.36002,337.59656 459.51624,338.43349 457.751,340.17512 455.56604,339.62679 453.16639,338.96333 451.19658,337.32975 448.86806,336.49063 446.49729,335.33893 444.49765,333.30291 443.7577,330.73359 443.01664,328.95163 441.82222,327.24093 441.77612,325.25746 441.9581,323.40233 443.06633,321.82673 443.89316,320.21168 444.80462,318.53659 446.80638,317.93397 447.79768,316.386"
       inkscape:connector-curvature="0"
       id="path4489"
       style="fill:none;stroke:#0000e9;stroke-width:1;stroke-miterlimit:4;stroke-opacity:1;stroke-dasharray:none;stroke-dashoffset:0" />
    <path
       d="M 385.60131,226.53301 C 389.35616,225.59486 387.78545,223.07038 385.60131,226.53301 388.85409,224.63727 388.86397,222.33335 391.81883,221.55899 392.99239,219.41036 396.29348,219.05799 397.31629,216.48667 399.15404,215.41945 399.85247,214.46784 401.14511,213.47622 402.92482,212.31251 402.85685,211.61431 405.49737,209.7457 406.91563,209.16272 407.37678,207.79185 408.68857,206.98197 409.21626,204.83909 410.44593,205.33482 411.62163,202.8598 414.06161,200.21179 415.69698,198.5864 417.31066,195.44541 418.68486,192.30959 419.95197,189.0386 420.41942,185.49737 421.64255,181.34345 424.3571,177.20532 427.14966,174.30696 430.92033,168.86717 437.7931,170.58498 442.8025,172.44058 446.16959,174.71927 450.8467,175.59568 455.23754,177.4146 461.22563,180.41917 463.62225,180.29433 468.91609,183.63212 473.12701,184.64692 476.87979,187.31081 481.35113,189.22789 486.6528,192.11669 491.97492,195.36773 496.89493,197.93242 502.19726,201.27416 505.96939,204.42721 511.19523,207.2587 514.23785,209.77824 517.91416,213.14341 521.14326,215.96323 522.19499,217.97273 526.89359,222.12467 528.60429,225.91126 531.84127,229.92208 533.57483,234.53248 533.06052,240.14971 532.749,248.11377 531.87371,255.37849 533.04232,263.21803 533.54843,269.86831 532.29053,276.08742 531.7857,281.7247 530.82541,287.23287 530.4573,291.81372 529.84784,297.41275 528.14503,302.32263 527.73638,307.93311 527.50073,313.33738 526.8125,317.28822 525.88211,321.23891 524.96126,324.39096 523.86339,325.9159 523.00622,328.47998 519.89981,326.6351 516.14552,324.54286 517.93741,320.09872 518.03455,316.06531 519.32062,309.71401 518.68748,302.42296 520.01512,295.94992 519.93282,289.4867 521.55606,283.48726 521.68385,277.17059 523.60391,270.38902 521.80671,263.00247 522.51852,255.96814 521.24008,250.94655 520.53325,245.63763 518.6563,240.83331 517.7641,236.93669 516.65179,234.2525 514.30404,230.88528 511.87331,227.47094 508.57023,224.48431 505.25547,220.99252 502.47433,219.30034 502.34465,217.6929 498.13849,215.96323 494.15665,213.31596 490.7092,209.18694 485.70344,209.12395 481.64966,207.43573 476.62426,206.77428 471.47592,206.72639 467.23132,205.62012 460.05509,205.66907 456.13593,206.57522 453.54141,207.59491 450.76892,208.02087 447.77657,208.5022 445.0958,210.3879 440.82034,210.62815 437.20678,212.23271 433.53186,213.15395 430.64417,214.97194 427.8805,216.89586 426.66792,218.04495 424.38515,220.07143 423.21736,222.18075 421.21535,224.61136 420.5826,229.03385 419.98425,231.33405 418.51454,236.1519 418.9167,241.63048 417.35456,246.22344 413.58842,247.41295 413.32923,245.52728 411.09319,243.05083 408.81046,241.46961 404.99477,236.08473 403.99208,242.16843 403.01509,242.43777 400.26036,240.9361 398.65815,239.58981 396.97374,238.42462 395.54044,236.72604 393.68413,235.85929 391.99972,234.69411 390.56643,232.99553 388.71012,232.12878 388.21137,230.82636 386.39812,230.47777 385.883,227.94122 385.7891,227.47181 385.69524,227.00241 385.60136,226.53301 z"
       inkscape:connector-curvature="0"
       id="path4491"
       style="fill:none;stroke:#0000e9;stroke-width:1;stroke-miterlimit:4;stroke-opacity:1;stroke-dasharray:none;stroke-dashoffset:0" />
    <path
       d="M 508.70822,206.01519 564.66591,133.89195"
       inkscape:connector-curvature="0"
       id="path4493"
       style="fill:none;stroke:#0000e9;stroke-width:1;stroke-miterlimit:4;stroke-opacity:1;stroke-dasharray:none;stroke-dashoffset:0" />
    <path
       d="M 490.05566,193.58015 532.3348,114.61763"
       inkscape:connector-curvature="0"
       id="path4495"
       style="fill:none;stroke:#0000e9;stroke-width:1;stroke-miterlimit:4;stroke-opacity:1;stroke-dasharray:none;stroke-dashoffset:0" />
    <path
       d="M 437.82848,170.57532 445.91126,81.043021"
       inkscape:connector-curvature="0"
       id="path4497"
       style="fill:none;stroke:#0000e9;stroke-width:1;stroke-miterlimit:4;stroke-opacity:1;stroke-dasharray:none;stroke-dashoffset:0" />
    <path
       d="M 430.98921,169.95357 376.27502,95.34332"
       inkscape:connector-curvature="0"
       id="path4499"
       style="fill:none;stroke:#0000e9;stroke-width:1;stroke-miterlimit:4;stroke-opacity:1;stroke-dasharray:none;stroke-dashoffset:0" />
    <path
       d="M 425.39344,176.17109 369.43575,156.89678"
       inkscape:connector-curvature="0"
       id="path4501"
       style="fill:none;stroke:#0000e9;stroke-width:1;stroke-miterlimit:4;stroke-opacity:1;stroke-dasharray:none;stroke-dashoffset:0" />
    <path
       d="M 410.47139,206.01519 C 409.64239,205.80794 408.81338,205.60069 410.47139,206.01519 z"
       inkscape:connector-curvature="0"
       id="path4503"
       style="fill:none;stroke:#0000e9;stroke-width:1;stroke-miterlimit:4;stroke-opacity:1;stroke-dasharray:none;stroke-dashoffset:0" />
    <path
       d="M 410.47139,205.39344 368.814,201.66293"
       inkscape:connector-curvature="0"
       id="path4505"
       style="fill:none;stroke:#0000e9;stroke-width:1;stroke-miterlimit:4;stroke-opacity:1;stroke-dasharray:none;stroke-dashoffset:0" />
    <path
       d="M 532.3348,259.48587 C 559.65241,253.60387 592.78968,259.36121 623.11061,259.48587"
       inkscape:connector-curvature="0"
       id="path4507"
       style="fill:none;stroke:#0000e9;stroke-width:1;stroke-miterlimit:4;stroke-opacity:1;stroke-dasharray:none;stroke-dashoffset:0" />
    <path
       d="M 532.3348,270.05566 C 533.1638,270.67741 533.99281,271.29916 534.82181,271.92091 534.82181,272.12817 534.67526,272.39612 534.82181,272.54267 534.96836,272.68921 535.29701,272.39612 535.44356,272.54267 536.72999,273.82909 533.47773,272.49237 536.06531,273.78617 536.25068,273.87887 536.54052,273.63962 536.68707,273.78617 536.83361,273.93272 536.59437,274.22255 536.68707,274.40792 536.81814,274.67008 537.17774,274.76752 537.30882,275.02967 537.64128,275.69461 536.97635,275.60824 537.30882,276.27318 537.43989,276.53533 537.79949,276.63278 537.93057,276.89493 538.1894,277.41259 537.53618,278.98755 537.93057,279.38194 538.07712,279.52849 538.40577,279.23539 538.55232,279.38194 539.17407,280.00369 537.93057,282.4907 538.55232,283.11245 538.69887,283.259 539.02753,282.9659 539.17407,283.11245 539.56846,283.50684 538.91524,285.0818 539.17407,285.59946 539.30515,285.86161 539.66475,285.95906 539.79583,286.22121 540.12198,286.87352 539.29957,288.83371 539.79583,289.32997 539.94237,289.47652 540.27103,289.18342 540.41758,289.32997 540.81196,289.72436 540.15875,291.29932 540.41758,291.81698 540.54865,292.07914 540.90825,292.17658 541.03933,292.43873 541.36621,293.0925 541.03933,294.80069 541.03933,295.54749 541.03933,295.92691 540.79707,297.79224 541.03933,298.0345 541.18588,298.18105 541.51453,297.88795 541.66108,298.0345 541.71958,298.093 541.66108,303.65296 541.66108,304.25202 541.66108,304.91282 541.72778,311.02461 541.66108,311.0913 541.51453,311.23784 541.18588,310.94475 541.03933,311.0913 540.62483,311.5058 541.45383,313.1638 541.03933,313.5783 540.89278,313.72485 540.56413,313.43176 540.41758,313.5783 539.89945,314.09643 540.9357,316.16894 540.41758,316.68707 540.27103,316.83361 539.94237,316.54052 539.79583,316.68707 539.50273,316.98016 539.9812,317.55983 539.79583,317.93057 539.43369,318.65483 538.91445,319.07156 538.55232,319.79583 538.45962,319.9812 538.64502,320.23221 538.55232,320.41758 538.42124,320.67973 538.06165,320.77718 537.93057,321.03933 537.7452,321.41007 538.22367,321.98974 537.93057,322.28283 537.78402,322.42938 537.45537,322.13629 537.30882,322.28283 537.16227,322.42938 537.40152,322.71922 537.30882,322.90459 537.17774,323.16674 536.81814,323.26418 536.68707,323.52634 536.50169,323.89708 536.98016,324.47675 536.68707,324.76984 536.54052,324.91639 536.21186,324.62329 536.06531,324.76984 535.91876,324.91639 536.15801,325.20622 536.06531,325.39159 535.93424,325.65375 535.57464,325.75119 535.44356,326.01335 535.35086,326.19872 535.59011,326.48855 535.44356,326.6351 535.29701,326.78165 534.96836,326.48855 534.82181,326.6351 533.53538,327.92153 536.78764,326.5848 534.20006,327.8786 534.01469,327.9713 533.72485,327.73205 533.5783,327.8786 533.5783,329.53661 533.78556,327.67135 532.95655,328.50035 532.81,328.6469 533.1031,328.97556 532.95655,329.12211 532.66346,329.4152 532.08379,328.93674 531.71305,329.12211 531.45089,329.25318 531.35345,329.61278 531.0913,329.74386 530.90593,329.83656 530.61609,329.59731 530.46954,329.74386 530.323,329.89041 530.61609,330.21906 530.46954,330.36561 530.05396,330.7812 529.64162,329.95003 529.22604,330.36561 529.07949,330.51216 529.37259,330.84081 529.22604,330.98736 529.07949,331.13391 528.78966,330.89466 528.60429,330.98736 528.34213,331.11844 528.24469,331.47804 527.98254,331.60912 527.61179,331.79449 527.03213,331.31602 526.73903,331.60912 526.59248,331.75566 526.88558,332.08432 526.73903,332.23087 526.55769,332.41221 523.18986,332.41221 523.00852,332.23087 522.86197,332.08432 523.15507,331.75566 523.00852,331.60912 522.71542,331.31602 522.05811,331.90221 521.76501,331.60912 521.61847,331.46257 521.91156,331.13391 521.76501,330.98736 521.61847,330.84081 521.28981,331.13391 521.14326,330.98736 520.99671,330.84081 521.28981,330.51216 521.14326,330.36561 520.99671,330.21906 520.66806,330.51216 520.52151,330.36561 520.37496,330.21906 520.66806,329.89041 520.52151,329.74386 520.22841,329.45076 519.5711,330.03696 519.27801,329.74386 519.13146,329.59731 519.42455,329.26866 519.27801,329.12211 519.13146,328.97556 518.8028,329.26866 518.65625,329.12211 518.4821,328.94795 518.52907,326.26771 518.65625,326.01335 518.78733,325.75119 519.07076,325.59885 519.27801,325.39159"
       inkscape:connector-curvature="0"
       id="path4509"
       style="fill:none;stroke:#0000e9;stroke-width:1;stroke-miterlimit:4;stroke-opacity:1;stroke-dasharray:none;stroke-dashoffset:0" />
    <path
       d="M 536.68707,324.14809 C 559.29278,326.3645 576.6127,332.54524 592.64475,339.69189"
       inkscape:connector-curvature="0"
       id="path4511"
       style="fill:none;stroke:#0000e9;stroke-width:1;stroke-miterlimit:4;stroke-opacity:1;stroke-dasharray:none;stroke-dashoffset:0" />
    <path
       d="M 432.85447,294.92574 C 436.30052,297.48301 441.11329,296.79824 444.79843,298.90797 452.39946,300.63987 460.03832,302.83906 466.85265,306.69254 470.02784,308.88429 473.22756,311.08319 476.28783,313.41198 479.41995,316.38976 481.54195,320.34109 485.08164,322.90459 487.76613,326.70636 490.6729,330.35346 492.67634,334.57684 495.3193,340.00342 496.77339,346.77935 493.60787,352.32168 491.61341,357.32174 487.0245,360.11287 481.90729,362.32453 468.94132,367.80404 464.77944,364.86802 452.51708,363.54597 423.29857,355.42974 421.87228,340.42065 419.45894,327.53021 418.29399,321.32915 421.17716,314.31968 423.34695,308.30404 426.14078,304.12369 427.81642,299.06353 431.90755,295.87705 432.22373,295.56048 432.53668,295.2407 432.85447,294.92574 z"
       inkscape:connector-curvature="0"
       id="path4513"
       style="fill:none;stroke:#0000e9;stroke-width:1;stroke-miterlimit:4;stroke-opacity:1;stroke-dasharray:none;stroke-dashoffset:0" />
    <path
       d="M 371.30101,228.39827 C 376.89978,232.94868 373.26384,225.81369 373.78802,225.28951 373.93456,225.14296 374.2244,225.38221 374.40977,225.28951 376.40457,224.2921 373.65847,225.04341 375.65327,224.046 375.83864,223.9533 376.12848,224.19255 376.27502,224.046 376.42157,223.89945 376.12848,223.5708 376.27502,223.42425 376.42157,223.2777 376.68953,223.42425 376.89678,223.42425 376.89678,223.217 376.75023,222.94905 376.89678,222.8025 377.04333,222.65595 377.37198,222.94905 377.51853,222.8025 377.66508,222.65595 377.37198,222.3273 377.51853,222.18075 377.66508,222.0342 377.99373,222.3273 378.14028,222.18075 378.28683,222.0342 377.99373,221.70554 378.14028,221.55899 378.28683,221.41245 378.61548,221.70554 378.76203,221.55899 378.90858,221.41245 378.61548,221.08379 378.76203,220.93724 379.05513,220.64415 379.71244,221.23034 380.00554,220.93724 380.15209,220.79069 379.85899,220.46204 380.00554,220.31549 380.29863,220.02239 380.95594,220.60859 381.24904,220.31549 381.39559,220.16894 381.10249,219.84029 381.24904,219.69374 381.37507,219.56771 384.23177,219.56771 384.3578,219.69374 384.50435,219.84029 384.21125,220.16894 384.3578,220.31549 384.6509,220.60859 385.30821,220.02239 385.60131,220.31549 385.74785,220.46204 385.50861,220.75187 385.60131,220.93724 385.86346,221.46155 386.58266,221.65644 386.84481,222.18075 386.93751,222.36612 386.75211,222.61713 386.84481,222.8025 386.97589,223.06465 387.33549,223.1621 387.46656,223.42425 387.71526,223.92165 387.21786,224.79211 387.46656,225.28951 387.59764,225.55166 387.95724,225.64911 388.08831,225.91126 M 388.52796,232.04688 C 388.52796,232.94729 387.69429,240.04527 388.08831,240.83331 388.21939,241.09546 388.61738,241.17701 388.71007,241.45506 388.80127,241.72862 388.90307,244.17781 388.71007,244.56382 388.57899,244.82598 388.21939,244.92342 388.08831,245.18557 387.50469,246.35281 388.66578,250.86992 388.08831,252.02485 387.95724,252.287 387.59764,252.38445 387.46656,252.6466 387.20773,253.16426 387.86095,254.73922 387.46656,255.13361 387.32001,255.28016 386.99136,254.98706 386.84481,255.13361 386.5574,255.42102 387.03251,256.62347 386.84481,256.99886 386.71373,257.26102 386.35414,257.35846 386.22306,257.62062 385.97436,258.11802 386.47176,258.98847 386.22306,259.48587 386.09198,259.74803 385.73238,259.84547 385.60131,260.10762 385.27515,260.75993 386.09756,262.72013 385.60131,263.21639 385.45476,263.36293 385.1261,263.06984 384.97955,263.21639 384.68646,263.50948 385.27265,264.16679 384.97955,264.45989 384.83301,264.60644 384.50435,264.31334 384.3578,264.45989 383.07137,265.74632 386.32363,264.40959 383.73605,265.70339 383.55068,265.79609 383.26085,265.55685 383.1143,265.70339 382.8212,265.99649 383.40739,266.6538 383.1143,266.9469 382.96775,267.09345 382.63909,266.80035 382.49255,266.9469 382.346,267.09345 382.63909,267.4221 382.49255,267.56865 382.31121,267.74999 378.94337,267.74999 378.76203,267.56865 378.61548,267.4221 378.90858,267.09345 378.76203,266.9469 378.61548,266.80035 378.28683,267.09345 378.14028,266.9469 377.99373,266.80035 378.28683,266.47169 378.14028,266.32515 377.99373,266.1786 377.7039,266.41785 377.51853,266.32515 376.77243,265.95209 376.39938,264.83294 375.65327,264.45989 375.4679,264.36719 375.17807,264.60644 375.03152,264.45989 374.88497,264.31334 375.12422,264.02351 375.03152,263.83814 374.76937,263.31383 374.31232,262.85679 373.78802,262.59463 373.60265,262.50193 373.31281,262.74118 373.16626,262.59463 373.01972,262.44808 373.31281,262.11943 373.16626,261.97288 373.01972,261.82633 372.69106,262.11943 372.54451,261.97288 372.39796,261.82633 372.69106,261.49768 372.54451,261.35113 372.25142,261.05803 371.5941,261.64423 371.30101,261.35113 371.15446,261.20458 371.50826,260.72938 371.30101,260.72938 371.09376,260.72938 371.09376,261.35113 371.30101,261.35113 371.50826,261.35113 371.15446,260.87593 371.30101,260.72938 371.89778,260.1326 371.92276,261.28475 371.92276,259.48587"
       inkscape:connector-curvature="0"
       id="path4515"
       style="fill:none;stroke:#0000e9;stroke-width:1;stroke-miterlimit:4;stroke-opacity:1;stroke-dasharray:none;stroke-dashoffset:0" />
    <path
       d="M 370.67926,301.76501 C 374.63954,304.48755 375.75551,309.46978 378.24589,313.31723 379.58716,316.81841 381.2937,320.26294 381.82849,323.9895 383.12725,329.66372 386.26806,334.75375 387.24237,340.52265 388.24406,344.50999 388.97187,348.58618 390.63299,352.3741 392.54459,357.81122 394.10749,363.99865 391.90793,369.58483 390.64893,372.61538 387.13823,372.7067 384.35448,372.87553 381.11857,373.4471 377.93808,374.10379 374.63378,374.19804 373.07894,373.81392 370.48725,377.2181 372.54441,374.51001"
       inkscape:connector-curvature="0"
       id="path4517"
       style="fill:none;stroke:#0000e9;stroke-width:1;stroke-miterlimit:4;stroke-opacity:1;stroke-dasharray:none;stroke-dashoffset:0" />
    <path
       d="M 382.49255,390.05381 C 383.39923,385.68206 381.51339,390.12421 382.37244,389.43467 382.03182,384.01961 388.86249,383.71534 392.7144,382.75147 397.36623,383.70639 401.3736,386.78168 405.40522,389.23773 409.52739,392.33546 414.17691,394.31445 418.59229,397.02009 422.95571,398.53898 427.56435,399.31452 432.1456,399.46599 437.4251,400.8879 442.78981,400.48802 448.16782,400.75865 453.41873,400.81095 458.6514,400.69765 463.90655,400.26434 469.01134,399.14885 474.0927,398.03736 478.97523,396.20007 485.27449,395.39016 489.90573,390.97336 495.46273,388.51271 500.50594,386.93127 504.96042,384.21325 510.30026,383.57645 515.52509,384.50413 519.00667,388.43238 522.48391,392.24711 523.79083,394.91237 526.90589,397.45722 527.90934,399.39294 527.08239,399.90689 525.38373,399.36204 526.11728,398.13659"
       inkscape:connector-curvature="0"
       id="path4519"
       style="fill:none;stroke:#0000e9;stroke-width:1;stroke-miterlimit:4;stroke-opacity:1;stroke-dasharray:none;stroke-dashoffset:0" />
    <path
       d="M 394.30584,383.21454 C 396.65858,383.56399 397.20938,380.59216 394.70667,382.8916 398.31418,379.81483 402.39839,379.95649 406.55007,381.62523 411.13023,382.47905 415.29061,384.50216 419.57955,386.02176 423.82279,387.66933 428.33899,388.59162 432.845,389.41558 437.13468,389.74383 441.11422,391.1477 445.43422,390.82489 449.55113,390.73539 453.42872,389.61573 457.59284,389.73773 460.95729,388.06225 465.04008,388.89904 468.29433,386.94505 473.45162,385.77303 478.25774,383.21312 482.94265,380.80074 487.25658,379.06373 490.76076,376.00977 495.12649,374.72268 498.67631,373.19073 502.92657,372.40943 506.45157,374.21689 509.86654,375.62864 509.56034,382.22325 509.95522,383.04561 509.91942,382.48012 509.97852,381.91489 509.95222,381.34928"
       inkscape:connector-curvature="0"
       id="path4521"
       style="fill:none;stroke:#0000e9;stroke-width:1;stroke-miterlimit:4;stroke-opacity:1;stroke-dasharray:none;stroke-dashoffset:0" />
    <path
       d="M 537.30882,325.39159 C 540.16436,325.83376 541.02129,329.03659 541.36371,331.47702 542.38054,334.39642 541.68385,337.50945 540.46109,340.18875 539.79713,343.46708 536.69225,345.34193 534.4563,347.51015 531.00363,350.32579 526.36897,350.65851 522.36307,352.31318 518.10501,353.9303 514.30383,356.87473 511.95216,360.80605 509.96869,363.32821 507.14924,370.64774 506.33728,373.74719"
       inkscape:connector-curvature="0"
       id="path4523"
       style="fill:none;stroke:#0000e9;stroke-width:1;stroke-miterlimit:4;stroke-opacity:1;stroke-dasharray:none;stroke-dashoffset:0" />
    <path
       d="M 439.07199,211.61097 C 439.23779,211.73532 438.97929,212.04735 439.07199,212.23272 439.20307,212.49487 439.56267,212.59232 439.69374,212.85447 439.97873,213.42444 439.69374,216.40317 439.69374,217.20674 439.69374,217.41399 439.84029,217.68194 439.69374,217.82849 439.5472,217.97504 439.21854,217.68194 439.07199,217.82849 438.92544,217.97504 439.21854,218.30369 439.07199,218.45024 438.92544,218.59679 438.63561,218.35754 438.45024,218.45024 438.03574,218.65749 436.79223,219.90099 436.58498,220.3155 436.49228,220.50087 436.73153,220.7907 436.58498,220.93725 436.43843,221.0838 436.10978,220.7907 435.96323,220.93725 435.81668,221.0838 436.05593,221.37363 435.96323,221.559 435.70108,222.08331 434.98188,222.2782 434.71973,222.8025 434.62703,222.98787 434.86628,223.27771 434.71973,223.42426 433.4333,224.71068 434.77003,221.45842 433.47622,224.04601 433.38352,224.23138 433.62277,224.52121 433.47622,224.66776 433.32967,224.81431 433.00102,224.52121 432.85447,224.66776 432.56137,224.96086 433.14757,225.61817 432.85447,225.91126 432.70792,226.05781 432.37927,225.76472 432.23272,225.91126 432.08617,226.05781 432.37927,226.38647 432.23272,226.53302 432.08617,226.67956 431.75751,226.38647 431.61097,226.53302 431.46442,226.67956 431.75751,227.00822 431.61097,227.15477 431.46442,227.30132 431.13576,227.00822 430.98921,227.15477 430.84267,227.30132 431.13576,227.62997 430.98921,227.77652 430.84267,227.92307 430.55283,227.68382 430.36746,227.77652 429.70539,228.10756 429.78603,228.68899 429.12396,229.02002 428.93859,229.11272 428.64875,228.87348 428.50221,229.02002 428.35566,229.16657 428.64875,229.49523 428.50221,229.64178 428.35566,229.78833 428.027,229.49523 427.88045,229.64178 427.73391,229.78833 427.97315,230.07816 427.88045,230.26353 427.6183,230.78784 426.8991,230.98273 426.63695,231.50703 426.54425,231.6924 426.72965,231.94341 426.63695,232.12879 426.50587,232.39094 426.14627,232.48838 426.0152,232.75054 425.9225,232.93591 426.0152,233.16504 426.0152,233.37229 425.80795,233.57954 425.52452,233.73189 425.39345,233.99404 425.30075,234.17941 425.48615,234.43042 425.39345,234.61579 425.26237,234.87795 424.90277,234.97539 424.77169,235.23755 424.44009,235.90075 425.10329,237.06135 424.77169,237.72455 424.64062,237.98671 424.28102,238.08415 424.14994,238.34631 423.92602,238.79415 423.92602,241.62898 424.14994,242.07682 424.28102,242.33897 424.64062,242.43642 424.77169,242.69857 425.02987,243.21492 424.77169,244.59614 424.77169,245.18558 424.77169,249.74509 424.77169,254.30461 424.77169,258.86412 424.77169,259.90396 424.40226,263.72102 424.77169,264.45989 424.90277,264.72205 425.26237,264.81949 425.39345,265.08165 425.67843,265.65162 425.39345,268.63035 425.39345,269.43391 425.39345,270.03297 425.33495,275.59297 425.39345,275.65143 425.53999,275.79798 425.86865,275.50488 426.0152,275.65143 426.1064,275.74263 426.0152,283.50955 426.0152,284.35596 426.0152,284.61198 426.17978,286.05664 426.0152,286.22122 425.86865,286.36776 425.53999,286.07467 425.39345,286.22122 425.15119,286.46347 425.39345,288.32881 425.39345,288.70822 425.39345,290.16634 425.53999,288.41513 424.77169,289.95173 424.58399,290.32713 425.05911,291.52957 424.77169,291.81699 424.62515,291.96353 424.29649,291.67044 424.14994,291.81699 424.00339,291.96353 424.24264,292.25337 424.14994,292.43874 423.88779,292.96304 423.43074,293.42009 422.90644,293.68224 422.71018,293.78034 420.55392,293.81673 420.41943,293.68224 420.27288,293.53569 420.56598,293.20704 420.41943,293.06049 420.27288,292.91394 419.94423,293.20704 419.79768,293.06049 419.65113,292.91394 419.89038,292.62411 419.79768,292.43874 419.53552,291.91443 418.81633,291.71954 418.55417,291.19523 418.46147,291.00986 418.70072,290.72003 418.55417,290.57348 418.40762,290.42693 418.07897,290.72003 417.93242,290.57348 417.63932,290.28038 418.11779,289.70072 417.93242,289.32998 417.57029,288.60572 417.05105,288.18898 416.68892,287.46472 416.59622,287.27935 416.78162,287.02834 416.68892,286.84297 416.55784,286.58081 416.19824,286.48337 416.06716,286.22122 415.97446,286.03585 416.15986,285.78484 416.06716,285.59946 415.93609,285.33731 415.57649,285.23987 415.44541,284.97771 415.26004,284.60697 415.63078,284.10495 415.44541,283.73421 415.31434,283.47205 414.95474,283.37461 414.82366,283.11246 414.63829,282.74171 415.00903,282.23969 414.82366,281.86895 414.69258,281.6068 414.33298,281.50935 414.20191,281.2472 414.01654,280.87646 414.38728,280.37444 414.20191,280.0037 414.07083,279.74154 413.71123,279.6441 413.58016,279.38194 413.33146,278.88454 413.82886,278.01409 413.58016,277.51669 413.44908,277.25453 413.08948,277.15709 412.9584,276.89494 412.7097,276.39753 413.2071,275.52708 412.9584,275.02968 412.82733,274.76753 412.46773,274.67008 412.33665,274.40793 411.75635,273.24732 412.91695,271.21627 412.33665,270.05566 412.20558,269.79351 411.84598,269.69606 411.7149,269.43391 411.45607,268.91625 412.10928,267.34129 411.7149,266.9469 411.56835,266.80035 411.2397,267.09345 411.09315,266.9469 410.59689,266.45064 411.4193,264.49045 411.09315,263.83814 410.96207,263.57599 410.60247,263.47854 410.4714,263.21639 410.21256,262.69873 410.86578,261.12377 410.4714,260.72938 410.32485,260.58283 409.99619,260.87593 409.84964,260.72938 409.45526,260.335 410.10848,258.76004 409.84964,258.24237 409.71857,257.98022 409.35897,257.88277 409.22789,257.62062 408.56469,256.29422 409.89109,253.97301 409.22789,252.6466 409.09681,252.38445 408.73722,252.28701 408.60614,252.02485 408.29687,251.40631 408.44854,247.83019 408.60614,247.67259 409.43514,246.84358 409.22789,248.70884 409.22789,247.05084 409.22789,246.69611 409.19589,243.35231 409.22789,243.32032 409.37444,243.17377 409.7031,243.46687 409.84964,243.32032 409.99619,243.17377 409.84964,242.90582 409.84964,242.69857 409.84964,242.49132 410.05689,242.07682 409.84964,242.07682 409.64239,242.07682 409.64239,242.69857 409.84964,242.69857 410.05689,242.69857 409.84964,242.28407 409.84964,242.07682 409.84964,241.86957 409.99619,241.60161 409.84964,241.45507 409.7031,241.30852 409.43514,241.45507 409.22789,241.45507 409.02064,241.45507 408.75269,241.30852 408.60614,241.45507 408.31304,241.74816 408.60614,242.28407 408.60614,242.69857"
       inkscape:connector-curvature="0"
       id="path4525"
       style="fill:none;stroke:#0000e9;stroke-width:1;stroke-miterlimit:4;stroke-opacity:1;stroke-dasharray:none;stroke-dashoffset:0" />
    <path
       d="M 450.609,316.01623 C 457.4957,318.29992 462.48451,324.6912 465.41448,331.05486 465.99282,336.09071 460.08321,338.62081 455.99105,339.1182 451.11136,337.51236 445.21713,335.57547 443.65315,330.04451 441.90612,327.02371 441.61523,323.31095 444.23604,320.67937 445.78637,318.61494 447.87297,316.19031 450.609,316.01623 z"
       inkscape:connector-curvature="0"
       id="path4527"
       style="fill:#bfb879;stroke:none" />
    <path
       d="M 434.152,296.4699 C 443.17772,298.6157 452.24539,301.08626 460.90677,304.39723 462.46461,305.46348 465.16183,305.33611 465.86136,307.07854 475.73631,311.77618 482.87484,320.80158 489.09619,329.55035 493.10617,334.69507 495.43392,341.24895 495.142,347.76444 492.80326,354.90397 488.88541,363.5061 480.53082,364.66833 478.46691,364.51353 477.16853,366.25695 475.12935,366.281 469.96484,369.84398 464.4226,364.79452 459.02209,364.68776 456.92431,364.71206 455.64428,363.07952 453.64005,362.78364 445.05171,357.94563 437.38865,351.19716 431.4707,343.35389 431.72874,341.4731 429.06449,341.56283 428.51737,339.87596 421.91247,331.32969 420.50392,319.36589 423.42678,309.15752 425.9934,304.88973 427.81316,299.69849 431.95644,296.68362 432.65476,296.42148 433.41535,296.37534 434.152,296.4699 z M 448.37458,313.21834 C 447.4911,318.12177 441.33056,320.97226 441.47702,326.33343 443.11262,331.13831 445.60934,336.40816 450.86452,338.03434 454.07843,340.10639 458.19142,340.68871 461.35366,338.18557 465.00691,336.64764 467.44492,332.06594 464.73443,328.54842 461.77009,323.68746 458.01592,318.3518 452.76571,316.03566 450.91449,315.71465 448.27629,315.59936 448.37458,313.21834 z"
       inkscape:connector-curvature="0"
       id="path4529"
       style="fill:none;stroke:none" />
    <path
       d="M 438.62085,212.6888 C 440.8183,214.21018 439.08466,217.9598 437.51335,219.48922 436.00466,221.4751 433.4138,222.27393 432.75306,224.89069 429.65845,228.73623 425.04662,231.91152 424.37593,237.15075 424.22195,252.78679 425.51323,268.39667 425.66282,284.0143 425.11174,286.92828 425.46398,290.881 423.13533,292.99197 418.8994,293.83571 417.75884,288.33007 416.27663,285.49209 412.236,273.4116 409.25521,260.70293 409.22363,247.91494 409.43192,246.60159 409.15633,242.59898 411.39976,243.52382 412.10573,245.52056 413.75783,246.99192 416.02404,246.67144 418.731,245.97561 417.9579,241.91363 418.66649,239.87103 419.64818,231.11225 421.63053,220.96894 429.95872,216.13956 432.50725,214.39711 435.43823,212.71317 438.62085,212.6888 z"
       inkscape:connector-curvature="0"
       id="path4531"
       style="fill:#a7b0c5;stroke:none" />
    <path
       d="M 534.27352,272.99875 C 538.00481,274.92801 537.50607,280.20253 538.76828,283.71168 541.32514,296.70375 543.94224,311.19255 536.83221,323.25617 534.62807,328.17259 529.1887,331.58311 523.8786,331.56003 522.14609,331.17873 519.07629,329.66271 519.7012,327.65465 521.29914,327.01405 523.96752,328.27656 524.46149,325.75053 528.10816,315.82615 527.97413,304.94848 530.22687,294.61147 531.43648,287.56115 531.42795,280.16637 533.43804,273.27077 533.6005,273.00171 533.98727,272.89663 534.27352,272.99875 z"
       inkscape:connector-curvature="0"
       id="path4533"
       style="fill:#c7afc8;stroke:none" />
    <path
       d="M 376.60108,97.140063 C 389.82421,113.52833 401.90001,130.95891 414.53309,147.85645 419.97171,155.26408 425.41033,162.67172 430.84895,170.07935 429.64094,172.17573 427.43739,174.74644 425.00059,175.65569 406.5633,169.44525 387.9182,163.35737 369.74237,156.4591 369.66697,138.47686 370.41813,120.38652 371.02474,102.42496 372.76404,100.81675 374.0665,97.580856 376.60108,97.140063 z"
       inkscape:connector-curvature="0"
       id="path4535"
       style="fill:#746bdb;stroke:none" />
    <path
       d="M 421.96955,80.177889 C 429.4694,80.628749 437.23732,80.769896 444.4692,82.723187 445.87479,86.998405 444.22129,91.878891 444.27979,96.334659 442.02138,120.78298 440.09602,145.38917 437.51335,169.72962 435.08014,170.80887 431.0298,171.25468 429.90264,168.1711 412.35398,143.98527 394.24186,120.12983 377.14511,95.663402 379.65416,91.610007 384.63288,89.507283 388.57353,86.956152 398.7806,81.552798 410.54274,80.017706 421.96955,80.177889 z"
       inkscape:connector-curvature="0"
       id="path4537"
       style="fill:#b1daa9;stroke:none" />
    <path
       d="M 448.35515,83.403228 C 477.43511,89.562351 504.83457,101.85884 531.20362,115.34574 530.45137,119.33249 527.22248,123.08641 525.5434,126.98603 513.51671,148.98873 502.25812,171.48696 489.42965,193.00646 484.6936,191.69841 480.54756,188.25338 475.91698,186.39687 466.48443,181.36331 456.43065,178.06783 446.68419,173.88759 443.81032,173.37477 441.40885,171.25493 438.48484,171.01198 437.2972,167.93946 439.12338,164.20897 438.90289,160.92133 441.358,135.50301 443.15966,109.99288 445.98472,84.627303 446.27557,83.569401 447.36752,83.26268 448.35515,83.403228 z"
       inkscape:connector-curvature="0"
       id="path4539"
       style="fill:#dbc198;stroke:none" />
    <path
       d="M 532.17511,116.31723 C 542.27416,121.01738 551.89593,126.96664 561.24201,133.02682 563.37979,133.88847 563.48302,136.00142 561.60341,137.28582 544.23079,159.80253 527.17265,182.71699 508.8594,204.47002 506.9132,206.17122 504.82506,202.42595 502.95435,201.83207 499.38746,198.22431 493.35287,197.42654 490.78973,192.92874 504.19331,167.3325 517.87635,141.82456 531.70879,116.45324 531.82403,116.38154 532.01768,116.24594 532.17511,116.31723 z"
       inkscape:connector-curvature="0"
       id="path4541"
       style="fill:#736cd4;stroke:none" />
    <path
       d="M 564.64222,135.02808 C 576.19068,141.92622 587.15889,150.05068 597.45907,158.71295 607.371,166.50361 611.17183,179.15687 615.51462,190.48654 623.01894,212.25667 624.88404,235.66342 622.79547,258.52359 618.09123,259.63526 612.58821,258.69928 607.58359,258.75681 583.29996,257.93144 558.69862,254.60983 534.60382,258.77621 531.42085,258.38251 533.21209,253.88394 532.72562,251.78153 532.44984,243.33359 534.98876,233.82681 529.26064,226.65882 523.93586,218.58687 517.06701,211.9489 509.75317,205.69412 511.67407,201.41156 515.73924,197.76244 518.46262,193.71694 533.69896,174.17301 548.77635,154.47767 564.13705,135.04754 564.29591,134.97294 564.47889,134.97104 564.64222,135.02814 z"
       inkscape:connector-curvature="0"
       id="path4543"
       style="fill:#bf9784;stroke:none" />
    <path
       d="M 392.88321,383.35975 C 401.18023,385.29039 406.99839,392.17756 414.79997,395.28962 422.22041,400.11109 431.45952,399.65038 439.92264,400.72995 453.64818,401.59475 467.74701,401.25023 480.68626,396.2611 488.2915,393.992 494.40477,388.61235 502.08167,386.4554 506.08379,385.00832 510.98263,382.87051 514.72719,385.98277 519.53981,389.43792 524.22999,393.99971 526.07416,399.68074 516.9534,413.39694 502.9602,424.33009 486.57348,427.42643 483.35949,428.54664 480.15713,429.83698 476.64487,429.00024 471.16914,429.42125 465.56924,429.93277 460.07883,428.76771 456.92675,428.75601 454.12679,426.52408 451.09475,427.23213 445.03843,423.84497 437.4015,425.92024 431.2764,422.53013 426.72525,421.05133 421.96584,419.59943 417.63671,417.42011 411.39233,413.81804 405.08329,409.67499 400.05279,404.67419 396.45069,403.01454 394.1871,399.78167 391.89229,396.80514 388.50215,394.40653 384.47204,391.55606 383.26548,387.44 384.29066,384.75106 388.04692,384.69273 390.33791,383.55405 391.17165,383.36818 392.02937,383.25818 392.88321,383.35975 z"
       inkscape:connector-curvature="0"
       id="path4545"
       style="fill:none;stroke:none" />
    <path
       d="M 502.64188,373.70316 C 504.02313,374.32177 509.20354,379.66223 509.20914,379.90125 510.43287,382.04759 508.75119,383.92027 506.5084,383.96207 501.53667,385.70186 496.52457,387.68124 491.81951,390.10187 485.09702,394.82616 476.84456,396.11977 469.35871,398.94241 463.70442,400.54463 457.61555,399.58135 452.06624,400.98253 444.59778,400.07277 436.83448,400.44879 429.38012,399.03621 417.36011,398.61119 407.91871,390.10124 397.96975,384.39257 394.07013,383.0914 398.76309,380.62513 400.81055,380.98932 413.02868,382.6846 424.08832,389.48183 436.54186,390.33503 448.19877,391.64297 460.19589,390.25033 471.28226,386.54623 474.1854,384.86551 477.71711,384.36846 480.60119,382.40165 487.78206,379.28405 494.54821,373.84648 502.64188,373.70316 z"
       inkscape:connector-curvature="0"
       id="path4547"
       style="fill:none;stroke:none" />
    <path
       d="M 373.99749,307.25341 C 377.703,310.62943 378.62105,316.13698 380.72018,320.56279 383.42355,330.37123 387.13134,339.81908 389.46144,349.755 391.3391,356.28116 394.77482,364.05136 391.07624,370.55554 387.63656,373.61765 382.35855,372.2067 378.2205,373.40598 376.06347,373.39158 371.03261,375.62222 371.93074,371.64365 372.23957,350.33466 371.80475,328.97569 372.87056,307.70029 373.02727,307.25237 373.58836,307.09522 373.99749,307.25341 z"
       inkscape:connector-curvature="0"
       id="path4549"
       style="fill:none;stroke:none" />
    <path
       d="M 397.15775,166.64029 C 406.18628,170.02308 415.72667,172.64689 424.43713,176.53003 423.95651,179.31278 421.00585,180.95554 421.09521,184.01049 418.98159,190.43145 417.31409,197.41488 412.21581,202.15788 410.83321,204.39786 408.56223,205.67331 405.90493,204.68387 393.52898,203.68821 381.16208,202.58248 368.79032,201.53612 367.74569,196.95955 368.85702,191.5888 368.62121,186.71431 368.94917,177.09507 368.82459,167.43757 369.85895,157.85804 373.25971,157.51913 376.98736,160.12536 380.51141,160.89724 386.06019,162.81159 391.60897,164.72594 397.15775,166.64029 z"
       inkscape:connector-curvature="0"
       id="path4551"
       style="fill:#6a72bc;stroke:none" />
    <path
       d="M 371.47162,202.19674 C 383.7566,203.22685 396.22844,203.92416 408.32986,205.98554 408.07545,208.59627 404.37874,209.70421 402.88953,211.67846 398.0588,215.61386 393.69134,220.61716 387.94805,223.16144 386.02803,222.17946 385.27421,218.59739 382.41057,219.29492 378.75344,219.84224 376.85058,224.14492 373.39517,224.71582 371.67264,220.68356 373.17777,215.76264 372.75398,211.42587 373.24714,208.35801 371.90868,205.68361 369.64522,203.73169 368.26345,202.26804 370.19699,201.82518 371.47162,202.19674 z"
       inkscape:connector-curvature="0"
       id="path4553"
       style="fill:#bc777a;stroke:none" />
    <path
       d="M 383.1489,220.26641 C 385.73141,220.44413 388.27414,223.83861 385.83021,225.84274 384.62696,229.31765 388.59548,231.61609 387.92862,235.09131 388.3376,245.40104 388.36067,256.44409 383.3432,265.73203 380.29878,269.06422 376.14923,264.89882 373.85274,262.75634 371.21538,260.19496 373.34082,255.56154 372.65684,252.17006 373.00264,244.92835 371.94264,237.44052 373.35631,230.33102 375.51657,229.29954 373.46869,226.23664 375.5713,224.94898 377.76215,223.24108 380.11971,220.21824 383.1489,220.26641 z"
       inkscape:connector-curvature="0"
       id="path4555"
       style="fill:#c6bdae;stroke:none" />
    <path
       d="M 383.73606,261.97289 409.84964,258.24237"
       inkscape:connector-curvature="0"
       id="path4557"
       style="fill:#c6bdae;fill-opacity:1;stroke:#0000e9;stroke-width:1;stroke-miterlimit:4;stroke-opacity:1;stroke-dasharray:none;stroke-dashoffset:0" />
    <path
       d="M 540.74363,324.79847 C 558.23728,327.06925 575.43462,332.1124 591.3387,339.62338 591.96061,342.07652 588.7862,344.216 587.82192,346.32664 582.01795,353.46954 576.73221,361.20123 569.48023,366.88332 564.17273,369.3177 558.43948,370.98968 553.12038,373.35343 550.6598,373.46444 548.83555,375.42495 546.39768,375.62671 541.45028,377.89544 534.59853,380.59869 534.75926,387.07083 535.43794,389.47411 535.35895,393.28462 532.79686,394.20155 532.05606,396.8127 528.54411,399.853 526.28789,396.94115 521.95972,391.48611 517.17606,386.01578 510.86067,382.89344 509.02206,380.45246 509.57732,376.90562 507.36331,374.55807 507.22411,368.90172 510.65875,363.672 513.58083,359.0337 517.42781,353.70352 524.44693,352.32519 530.2127,350.1543 535.03377,347.97352 540.0479,344.49829 541.07393,338.96276 542.93053,336.32463 541.31802,332.46165 540.89906,329.5199 541.18713,327.72301 538.45952,326.36674 539.26696,324.87619 539.68695,324.59895 540.28395,324.79309 540.74363,324.79849 z"
       inkscape:connector-curvature="0"
       id="path4559"
       style="fill:none;stroke:none" />
    <path
       d="M 389.47912,233.28434 C 394.41173,235.83723 398.19489,240.89555 403.58512,242.45518 404.55527,241.73524 405.36389,238.76545 407.21848,240.41506 410.13497,244.30991 407.0425,249.54892 409.02545,253.68558 409.46581,256.82089 408.02309,259.32341 404.47832,258.76531 398.46197,259.38296 392.2778,260.9997 386.37035,261.18546 385.82992,258.12742 388.18688,254.84897 388.02188,251.64546 388.97838,245.64509 388.12207,239.5064 388.77964,233.5175 388.93421,233.24915 389.23383,233.19603 389.47912,233.28434 z"
       inkscape:connector-curvature="0"
       id="path4561"
       style="fill:#68b88b;stroke:none" />
    <path
       d="M 517.97922,328.31473 C 506.3962,340.11881 486.39089,346.7091 497.75554,372.71889"
       inkscape:connector-curvature="0"
       id="path4563"
       style="fill:none;stroke:#0000e9;stroke-width:1;stroke-miterlimit:4;stroke-opacity:1;stroke-dasharray:none;stroke-dashoffset:0" />
    <path
       d="M 496.21678,349.4177 C 515.98596,341.69423 511.74434,352.57156 515.78099,356.67184"
       inkscape:connector-curvature="0"
       id="path4565"
       style="fill:none;stroke:#0000e9;stroke-width:1;stroke-miterlimit:4;stroke-opacity:1;stroke-dasharray:none;stroke-dashoffset:0" />
    <path
       d="M 536.71193,325.396 C 537.8672,325.64336 539.21107,326.33242 539.74135,327.38814 540.47235,327.7943 540.16563,328.80259 540.81986,329.28411 541.19808,330.21399 540.34276,331.57008 541.41063,332.14181 541.83213,333.92931 541.628,335.88611 541.54981,337.6879 540.92674,338.34714 540.10674,339.00147 540.25656,340.03481 540.14647,340.62655 539.42586,340.81407 539.64518,341.498 539.43503,342.76762 538.21297,343.4852 537.52252,344.45874 536.56032,344.83537 535.69179,345.45544 535.35177,346.44401 535.11174,347.32181 534.01204,346.71086 533.7718,347.52939 532.98887,348.36721 531.89243,348.87235 530.92784,349.42536 530.14541,349.36016 529.56661,349.72791 528.91509,350.04361 528.22749,349.98741 527.72238,350.26376 527.21834,350.66873 526.50532,350.93507 525.64053,350.60783 525.14376,351.29385 524.30005,351.51407 523.38416,351.37625 522.66389,351.95331 522.11219,352.02741 521.75921,352.68189 521.09078,352.61278 520.58168,353.53633 519.24229,352.94004 518.67274,353.83555 518.07256,354.59312 517.21821,355.01355 516.43329,355.46361 515.81239,356.28901 514.76839,355.669 514.69532,354.76979 513.56755,352.10753 513.10262,348.53101 510.134,347.22026 506.30236,345.75231 502.26122,347.43394 498.51089,348.35372 497.51815,348.55419 497.57598,347.2832 498.25672,346.86992 502.57828,340.69429 509.04268,336.49227 514.61289,331.57851 515.83571,330.78652 516.79045,329.07773 518.38422,329.10551 519.06715,329.25045 519.13862,330.05155 519.86115,330.11532 520.89312,330.71722 521.56194,331.80125 522.73945,332.09372 523.83797,332.74721 525.35408,332.43467 526.57261,332.32728 527.09019,332.07282 527.60546,331.79184 528.18693,331.68155 528.67941,331.1399 529.40746,331.13216 529.95238,330.68548 530.80486,330.67068 530.86412,329.58014 531.70409,329.41463 532.31958,329.2279 532.92096,329.35063 533.51763,329.06429 533.67095,328.67561 533.94197,327.98117 534.56179,327.88961 535.40743,327.52442 535.61385,326.68649 535.74333,325.89747 535.91322,325.53823 536.32447,325.34486 536.71193,325.396 z"
       inkscape:connector-curvature="0"
       id="path4567"
       style="fill:#c9ca98;stroke:none" />
    <path
       d="M 507.61841,346.90427 C 510.0498,346.91807 512.27936,348.55197 512.95369,350.90494 513.63758,352.74385 514.62267,354.56525 514.98933,356.48029 514.47221,357.35881 513.50131,358.12268 513.03154,358.92581 512.43369,360.54788 510.62423,361.41155 510.07081,363.05435 509.50859,363.50869 509.57363,364.36888 509.20525,364.95719 509.38976,365.73451 508.32767,365.63902 508.35344,366.39291 507.62645,367.03077 508.30894,368.36996 507.38485,368.92087 507.30925,369.99998 507.40405,371.18936 506.71164,372.06708 506.80384,372.84031 506.3246,374.14515 505.35149,373.48906 504.51146,372.66613 503.11447,373.30085 502.07523,373.14307 500.68969,373.10847 499.26407,373.41562 497.905,373.31045 497.43249,372.75077 497.66662,371.85879 497.2524,371.21527 494.73028,364.715 493.18204,357.10749 496.20663,350.50837 496.56389,348.6431 498.80534,348.84085 500.19721,348.17449 502.60194,347.46314 505.08138,346.79293 507.61841,346.90427 z"
       inkscape:connector-curvature="0"
       id="path4569"
       style="fill:#7c797c;stroke:none" />
    <path
       d="M 502.27397,373.3448 C 504.67178,373.49473 507.69862,374.23005 508.48396,376.83448 509.12586,378.86392 509.87275,381.04294 509.61055,383.18873 508.9754,384.10547 507.62347,383.71369 506.74599,384.23288 502.5923,385.58899 498.45697,387.16958 494.42906,388.91098 489.44379,391.42472 484.85216,394.91822 479.28878,396.08956 473.16504,397.86829 467.0279,399.93948 460.62447,400.35549 452.00827,400.80078 443.32837,400.8605 434.75365,399.86163 428.44064,398.81667 421.64723,398.89947 416.0388,395.41289 410.65147,392.61651 405.64243,389.19813 400.48063,386.0238 399.07185,385.03244 397.32554,384.50158 396.01725,383.42916 396.40759,381.00194 399.38144,380.6196 401.4029,380.63329 405.14893,380.90533 408.70391,382.35122 412.27391,383.44862 419.57996,386.14018 426.90191,388.8995 434.68115,389.78259 439.24691,390.54416 443.85373,391.23821 448.49096,390.67949 451.74642,390.2242 455.09526,390.06974 458.3232,389.54984 461.75652,388.49217 465.47774,388.52817 468.7579,386.98753 475.62727,385.02226 481.88265,381.44702 488.19946,378.22066 492.35418,375.94267 496.77319,373.62984 501.58703,373.33793 501.81601,373.33993 502.04515,373.33193 502.27397,373.34493 z"
       inkscape:connector-curvature="0"
       id="path4571"
       style="fill:#aac7db;stroke:none" />
    <path
       d="M 393.02246,383.05134 C 396.87924,383.71828 400.10535,386.2177 403.4162,388.15857 408.76444,391.56309 414.15941,395.01845 419.98507,397.58023 425.23925,399.18643 430.76488,399.36728 436.16153,400.2677 444.85818,400.96016 453.67596,401.06791 462.37648,400.39671 468.47014,399.79678 474.25282,397.77122 480.09967,396.1033 486.6452,394.72703 491.77344,389.67878 498.13344,387.63492 501.95288,386.31893 505.63913,384.47274 509.6452,383.82072 513.08153,383.87162 516.06916,386.13421 518.52383,388.35965 521.37785,390.89765 523.48873,394.06103 525.82963,397.02381 526.50106,397.80912 525.2148,398.85346 526.25554,399.46933 527.07906,399.47033 527.33065,400.47369 526.67458,400.94627 516.46343,412.75524 503.69005,422.88588 488.55597,427.40741 482.05388,429.35199 475.21395,430.06357 468.44284,429.53391 453.71759,428.5932 439.15747,425.49082 425.18525,420.81273 410.98986,415.55154 399.37282,405.38113 389.05484,394.60986 387.04455,392.3345 384.6266,390.35805 382.91063,387.85309 382.66474,386.46227 384.22538,385.51042 385.27372,384.93357 387.68879,383.87513 390.3826,383.14567 393.02246,383.05134 z"
       inkscape:connector-curvature="0"
       id="path4573"
       style="fill:#c7a1db;stroke:none" />
    <path
       d="M 538.94574,324.54419 C 557.34148,326.52216 575.2891,331.95981 592.09472,339.66386 592.79065,340.55621 591.39429,341.48824 591.07117,342.28112 584.87575,351.07587 577.75219,359.16195 570.11933,366.72264 562.54993,369.70607 554.7523,372.1544 547.37777,375.56697 540.44752,378.89634 534.1733,384.52007 531.96638,392.09841 531.52721,393.95127 531.08026,395.95257 529.65137,397.36728 529.15292,397.90194 528.39966,399.29749 527.58366,398.42518 524.57386,395.41297 522.48537,391.61723 519.29223,388.78046 516.95479,386.3136 514.05177,384.32684 510.68481,383.52533 509.52819,382.72544 510.09587,380.98326 509.61317,379.80895 509.29463,377.60751 508.51247,375.40302 506.69365,373.99053 506.49393,372.53025 507.4513,371.04664 507.85783,369.62207 510.04822,363.64024 513.22103,357.52748 518.88006,354.17215 523.47912,351.26248 529.24656,351.07711 533.78678,348.10642 536.47341,345.96543 539.50964,343.70376 540.57977,340.28831 541.82889,337.32745 542.31173,334.01008 541.38773,330.86181 541.00271,328.7955 540.16678,326.80047 538.46488,325.49217 538.06766,325.12841 538.39928,324.42039 538.94574,324.54419 z"
       inkscape:connector-curvature="0"
       id="path4575"
       style="fill:#d5be93;stroke:none" />
    <path
       d="M 373.05528,304.75329 C 374.35835,305.58782 374.75358,307.36944 375.59544,308.60969 378.42301,313.78939 380.66498,319.24827 382.04739,324.9907 383.81562,331.02287 386.5574,336.74461 387.72475,342.95504 388.68905,347.59442 390.43752,351.99373 391.78684,356.53365 392.77736,360.13173 392.94769,363.98887 392.36531,367.67063 391.97395,369.72182 390.63153,371.74599 388.44285,372.15638 385.23677,372.83372 381.92827,373.1218 378.68539,373.67898 376.64558,373.87578 374.5513,374.11936 372.5721,374.48181 371.69453,373.89629 372.35891,372.41659 372.14368,371.46945 372.13298,349.38228 372.10418,327.29094 372.36146,305.20667 372.43536,304.90012 372.73469,304.66093 373.05528,304.75329 z"
       inkscape:connector-curvature="0"
       id="path4577"
       style="fill:#6ea26f;stroke:none" />
    <path
       d="M 426.75286,176.85699 C 430.59639,191.87885 416.23079,205.56833 396.19752,218.8431"
       inkscape:connector-curvature="0"
       id="path4581"
       style="fill:none;stroke:#0000e9;stroke-width:1;stroke-miterlimit:4;stroke-opacity:1;stroke-dasharray:none;stroke-dashoffset:0" />
    <path
       d="M 426.37736,175.96475 C 427.32718,176.70058 426.87758,178.22173 427.0564,179.28262 427.1237,182.88873 427.1033,186.62578 425.46373,189.93035 421.61792,198.77741 414.12708,205.35434 406.70705,211.20782 405.46148,211.9788 404.42265,213.37357 402.93878,213.61623 401.85072,213.14194 402.94778,212.01842 403.50208,211.59661 405.44147,209.82868 407.74986,208.41018 409.30677,206.27965 409.79451,206.09974 410.31571,206.04847 410.16545,205.35915 411.19396,203.21234 413.1964,201.66382 414.55042,199.74877 418.02911,195.61198 419.55371,190.31866 420.71693,185.15608 421.77961,181.85178 423.59421,178.78018 425.80033,176.11588 425.95294,175.95216 426.16452,175.91825 426.37736,175.96475 z"
       inkscape:connector-curvature="0"
       id="path4583"
       style="fill:#b46a9f;stroke:none" />
    <path
       d="M 435.08096,170.8264 C 440.74521,170.96598 445.5371,174.35544 450.80515,175.97162 455.6402,177.65991 460.31744,179.7228 465.025,181.7454 468.72293,183.72834 472.7352,184.98926 476.43634,186.97847 483.53086,190.52251 490.46038,194.38089 497.25452,198.44659 501.752,201.32792 506.20961,204.31104 510.66846,207.25126 514.61043,210.39457 518.61364,213.58482 522.00018,217.34635 524.77416,220.62191 527.43524,223.94534 529.68023,227.62305 532.16442,231.18301 533.31734,235.5727 532.92948,239.90564 532.62225,248.01561 531.9906,256.20321 532.98438,264.25785 533.04578,266.33842 533.13874,268.54155 532.6203,270.52967 532.83181,273.51047 532.17111,276.52282 531.92026,279.50295 530.98469,285.64931 530.44823,291.85215 529.47397,297.98983 528.16899,302.63251 527.76402,307.47187 527.38578,312.27534 526.78049,316.39941 526.13923,320.59861 524.58762,324.48298 524.04365,325.85463 522.85214,327.56841 521.13457,326.98285 518.97722,326.33945 517.41999,324.12078 517.72046,321.84449 517.84969,316.93904 518.89132,312.15277 519.03429,307.24831 519.21523,302.92057 519.84905,298.62542 520.17047,294.3255 520.51486,288.65697 521.36708,283.0263 521.86961,277.37851 523.01033,271.86774 522.40127,266.21287 522.50335,260.63082 522.58925,257.29033 522.43605,253.96237 521.47729,250.7381 520.17767,245.28552 518.8401,239.77912 516.62821,234.63676 513.92633,229.11946 509.29946,224.97126 504.95701,220.71238 502.85798,218.66312 500.45978,216.99223 497.95045,215.51264 494.187,213.01274 490.68836,209.58422 486.02406,208.95525 481.40139,207.39871 476.54035,206.86213 471.69643,206.47542 467.10381,205.80735 462.3739,205.77912 457.76385,206.156 454.70781,206.84151 451.6983,207.74771 448.60687,208.29927 446.05975,209.08059 443.63211,210.27342 440.9951,210.85621 434.95681,212.63028 428.54535,214.95973 424.58133,220.15332 421.72895,223.2493 420.69025,227.41607 419.87386,231.41696 418.71006,236.02319 418.64317,240.85489 417.39207,245.44242 416.82666,246.92151 414.64988,246.54918 413.64134,245.76528 412.21944,244.43536 411.04042,242.7321 409.79445,241.32761 408.22428,240.88414 407.09488,238.88147 405.3293,239.34921 404.2924,239.86837 404.40953,241.40438 403.45394,241.92526 401.43028,241.61208 399.78542,240.11078 398.13649,238.97905 395.39433,236.80623 392.47015,234.71776 389.70129,232.55532 388.05076,231.23258 386.27514,229.54628 385.92309,227.36888 385.94409,226.06587 387.94819,226.17122 388.04576,224.88214 388.98969,223.22169 390.67465,222.24892 392.20865,221.2482 393.42282,220.00255 394.97716,218.95109 396.66005,218.54163 403.26991,214.34919 409.4929,209.62331 415.18697,204.28751 420.80226,198.87792 426.19125,192.36439 427.236,184.41418 427.37335,181.88957 427.65064,179.1564 426.65209,176.76848 425.54182,175.87198 427.00618,174.7327 427.5726,174.02069 429.37349,171.68842 432.178,170.64282 435.08091,170.8264 z"
       inkscape:connector-curvature="0"
       id="path4585"
       style="fill:#e075df;stroke:none" />
    <path
       d="M 567.48175,257.71343 C 585.63006,257.92631 603.74978,259.02077 621.86563,260.045 622.69253,263.592 621.04191,267.83694 620.61526,271.62118 615.99077,295.60525 606.72769,318.75361 593.01245,338.96866 586.52284,337.26289 580.23453,333.87936 573.66042,331.97395 562.16781,327.64885 549.99261,325.60186 537.85138,323.87174 537.51467,321.25134 540.50007,318.26214 540.88242,315.24493 541.6738,307.21194 541.28759,299.02029 540.88242,290.95774 538.8416,284.22082 539.44001,276.35406 534.52889,270.7508 533.38495,267.53957 532.72435,263.63743 533.65456,260.33645 537.20589,258.02531 542.12067,258.47427 546.26446,257.94659 553.33135,257.62833 560.40962,257.64477 567.48175,257.71343 z"
       inkscape:connector-curvature="0"
       id="path4587"
       style="fill:#cda392;stroke:none" />
    <path
       d="M 424.77444,292.26382 429.61054,297.53957"
       inkscape:connector-curvature="0"
       id="path8875"
       style="fill:none;stroke:#0000e9;stroke-width:1;stroke-linecap:round;stroke-miterlimit:4;stroke-opacity:1;stroke-dasharray:none;stroke-dashoffset:0" />
    <path
       d="M 494.89784,349.41769 496.4366,349.41769"
       inkscape:connector-curvature="0"
       id="path8877"
       style="fill:none;stroke:#0000e9;stroke-width:1;stroke-linecap:round;stroke-miterlimit:4;stroke-opacity:1;stroke-dasharray:none;stroke-dashoffset:0" />
    <path
       d="M 463.7515,206.11751 C 467.09537,206.02771 470.38182,206.70691 473.68473,206.94871 478.03807,206.98861 482.2648,208.08847 486.38635,209.33929 490.96426,209.76837 494.12859,213.49968 497.83773,215.78283 503.06867,218.61207 507.01071,223.19381 511.11467,227.38859 515.13882,231.26956 517.55106,236.50882 518.89778,241.86257 520.26036,246.14869 521.23178,250.56845 522.08691,254.97995 522.47099,260.89128 522.35392,266.83512 522.30673,272.75809 522.06751,275.60605 521.37978,278.40853 521.25902,281.26706 520.63901,286.60201 520.06736,291.92924 519.65034,297.27371 518.87613,304.03497 518.76908,310.87858 517.78638,317.62741 517.57398,320.32641 517.02384,323.22846 518.39114,325.72159 519.15111,327.89837 516.76447,329.23985 515.46482,330.48189 509.20062,336.056 501.87165,340.73354 497.24009,347.87559 497.02191,348.6157 496.08499,349.94532 495.34412,348.94722 495.07831,347.76646 495.60874,346.52001 495.41652,345.2927 495.50832,338.85612 492.29511,333.00243 488.74259,327.82365 486.622,324.43746 483.80031,321.59853 481.06254,318.70788 478.78793,315.91436 476.43405,313.09704 473.38402,311.12427 468.61826,307.49809 463.41747,304.3484 457.69719,302.45247 452.62331,300.58777 447.25283,299.60756 442.18143,297.79726 439.04998,296.93983 435.72457,296.51298 432.87332,294.82965 431.83743,295.52469 431.04954,296.87518 429.82384,297.15648 428.37956,296.31602 427.36309,294.72659 426.14792,293.54424 425.12768,292.61713 424.33765,290.77115 425.31005,289.58139 425.74249,288.58583 425.0619,287.01808 426.02447,286.2291 426.14672,282.65203 426.23401,279.03563 425.97637,275.47153 425.04647,274.50781 425.66278,272.89148 425.47321,271.68648 425.38621,269.42329 425.75907,267.04087 425.35812,264.83761 424.43087,263.46059 425.00185,261.58271 424.8017,260.00839 424.7118,254.16013 425.05676,248.26427 424.67805,242.44319 423.84925,241.06645 423.92124,239.0693 424.8223,237.72387 424.92633,236.70245 424.69059,235.53564 425.45429,234.73566 425.46739,233.95344 426.28157,233.58891 426.27863,232.79847 426.93301,232.09814 427.01671,231.08303 427.84196,230.46539 428.84516,229.42732 429.9842,228.24205 431.26585,227.72195 431.53263,227.02127 432.34889,226.91697 432.59853,226.25188 433.37388,226.08984 432.58123,224.7937 433.5946,224.76808 433.5344,223.76407 435.02289,223.98341 434.97536,222.96828 435.3456,222.25341 435.97701,221.68781 436.45916,221.09979 436.90225,220.86228 436.8084,219.98949 437.35906,219.66408 437.76404,219.03438 438.59668,218.74295 439.14512,218.48253 439.60478,218.03862 439.86678,217.58991 439.78989,216.87596 439.87999,215.25991 440.24325,213.56651 439.37868,212.11454 439.47875,211.00831 441.17141,211.26209 441.95174,210.81978 445.27657,210.01384 448.31418,208.27826 451.77597,207.87718 455.25714,207.08264 458.69608,205.89134 462.31578,206.10878 462.79448,206.09838 463.27289,206.10866 463.75151,206.11778 z"
       inkscape:connector-curvature="0"
       id="path8879"
       style="fill:#d0cf6e;stroke:none" />
    <path
       d="M 433.16868,295.37234 C 436.9829,297.19387 441.34508,297.47359 445.2363,299.07503 453.53209,301.27156 462.14678,303.45738 469.22645,308.54796 472.82824,311.06018 476.68209,313.40912 479.29438,317.03494 482.28959,320.65408 485.86796,323.80877 488.41284,327.80304 492.29223,333.44033 495.90585,340.04539 495.1243,347.12682 494.59215,350.69045 492.83706,354.0682 490.46681,356.74405 486.38204,360.76934 480.79938,362.68702 475.45705,364.43784 468.94208,366.25376 462.14311,364.75215 455.60647,363.84511 450.36919,363.19258 445.41548,361.16382 440.63115,359.03335 432.54651,355.27385 425.30634,348.71681 422.5279,340.04441 420.90248,335.03034 419.71897,329.81096 419.37814,324.54008 419.33384,319.25861 421.36669,314.2517 423.16591,309.37252 425.08079,305.41936 427.24654,301.51694 429.94004,298.03082 430.85081,297.07394 431.88922,295.68102 433.16868,295.37234 z M 450.69953,315.6441 C 448.04893,315.52534 446.23049,317.7482 444.42085,319.36735 443.21662,321.01502 442.24182,322.94578 441.72802,324.92474 441.84105,327.74945 443.42011,330.30371 444.59259,332.81087 446.68638,336.13885 450.6701,337.38319 454.01748,339.06208 455.48054,339.85719 457.2656,340.06809 458.73159,339.11708 461.13588,337.80065 464.26629,336.85448 465.4826,334.16417 465.87616,332.76277 465.98869,331.11752 465.5663,329.76541 463.23469,325.79532 460.60892,321.93211 457.09449,318.88533 455.70975,317.39119 453.81232,316.61271 451.92917,315.9189 451.55175,315.71436 451.11702,315.64972 450.69954,315.64412 z"
       inkscape:connector-curvature="0"
       id="path8918"
       style="fill:#8a7294;stroke:none" />
  </g>
</svg>
