<?xml version="1.0" encoding="UTF-8" standalone="no"?>
<!-- Created with Inkscape (http://www.inkscape.org/) -->

<svg
   xmlns:dc="http://purl.org/dc/elements/1.1/"
   xmlns:cc="http://creativecommons.org/ns#"
   xmlns:rdf="http://www.w3.org/1999/02/22-rdf-syntax-ns#"
   xmlns:svg="http://www.w3.org/2000/svg"
   xmlns="http://www.w3.org/2000/svg"
   xmlns:xlink="http://www.w3.org/1999/xlink"
   xmlns:inkscape="http://www.inkscape.org/namespaces/inkscape"
   version="1.1"
   width="740"
   height="520"
   id="svg2"
   style="display:inline;enable-background:new">
  <defs
     id="defs4">
    <filter
       color-interpolation-filters="sRGB"
       id="filter3050">
      <feBlend
         in2="BackgroundImage"
         mode="lighten"
         id="feBlend3052" />
    </filter>
  </defs>
  <metadata
     id="metadata7">
    <rdf:RDF>
      <cc:Work
         rdf:about="">
        <dc:format>image/svg+xml</dc:format>
        <dc:type
           rdf:resource="http://purl.org/dc/dcmitype/StillImage" />
        <dc:title />
      </cc:Work>
    </rdf:RDF>
  </metadata>
  <g
     id="g4287"
     style="display:none">
    <image
       xlink:href="pngs/coronal-0499.png"
       id="image4289"
       height="520"
       width="740"
       y="0"
       x="0" />
  </g>
  <g
     id="g4295"
     style="display:inline">
    <path
       d="M 368.93952,99.699263 369.37916,197.30048"
       inkscape:connector-curvature="0"
       id="path4297"
       style="fill:#c6bdae;fill-opacity:1;stroke:#0000e9;stroke-width:1;stroke-miterlimit:4;stroke-opacity:1;stroke-dasharray:none;stroke-dashoffset:0" />
    <path
       d="M 369.81881,196.86084 C 377.19266,196.88674 371.40443,205.13901 370.25845,210.48983 408.55945,201.40294 420.84508,181.04006 431.36912,166.08568 527.94046,201.98305 531.07653,212.35747 543.91828,226.7567 558.28331,265.026 546.6515,288.67207 543.91828,317.3236"
       inkscape:connector-curvature="0"
       id="path4299"
       style="fill:none;stroke:#0000e9;stroke-width:1;stroke-miterlimit:4;stroke-opacity:1;stroke-dasharray:none;stroke-dashoffset:0" />
    <path
       d="M 368.49987,99.259618 C 378.31553,87.826535 391.10068,78.620565 410.26616,74.199846 489.00805,83.530722 574.14463,128.93417 599.31356,145.86201 627.09115,185.37594 640.68095,227.40268 630.96801,275.11767 L 1346.7875,341.50408 C 1336.0525,356.62871 1323.2042,369.28774 1305.4609,376.23605 1297.3594,379.52207 1289.8413,381.93313 1279.5218,388.54611 L 1279.9615,399.97688 C 1269.6604,411.95644 1250.7104,435.88638 1243.9106,435.14849 1233.2201,437.601 1221.1836,438.25888 1206.9804,436.02778 1192.689,428.53514 1184.3631,429.39407 1175.7656,429.87275 1166.1515,426.14486 1154.4319,423.68027 1150.2662,416.6834 L 1146.749,406.57156 C 1138.7771,397.84843 1127.0029,398.3776 1110.6981,385.46859"
       inkscape:connector-curvature="0"
       id="path4301"
       style="fill:none;stroke:#0000e9;stroke-width:1;stroke-miterlimit:4;stroke-opacity:1;stroke-dasharray:none;stroke-dashoffset:0" />
    <path
       d="M 369.81881,210.05019 371.57739,385.90824"
       inkscape:connector-curvature="0"
       id="path4303"
       style="fill:none;stroke:#0000e9;stroke-width:1;stroke-miterlimit:4;stroke-opacity:1;stroke-dasharray:none;stroke-dashoffset:0" />
    <path
       d="M 544.35792,316.88395 538.20289,327.87508 C 536.09544,305.90728 547.30919,277.81752 543.47863,251.37683 525.46298,213.56758 497.81209,199.20002 470.49754,197.74012 466.09893,196.83217 454.95373,196.89474 460.82535,196.42119 436.37528,196.5915 430.71015,201.73859 416.86083,217.9638 406.46493,228.38679 400.36377,234.20993 386.52532,237.74783 L 369.37916,239.50641"
       inkscape:connector-curvature="0"
       id="path4305"
       style="fill:none;stroke:#0000e9;stroke-width:1;stroke-miterlimit:4;stroke-opacity:1;stroke-dasharray:none;stroke-dashoffset:0" />
    <path
       d="M 441.04132,317.3236 C 445.88847,314.22945 451.79233,316.9221 455.14473,320.91345 459.56355,324.34551 462.13265,330.66933 458.80347,335.72871 456.03718,341.88682 447.68128,340.2558 443.01371,337.45742 436.93086,334.50678 433.62424,326.48163 437.86567,320.66938 438.66804,319.31556 439.89152,318.3528 441.04132,317.3236 z"
       inkscape:connector-curvature="0"
       id="path4307"
       style="fill:none;stroke:#0000e9;stroke-width:1;stroke-miterlimit:4;stroke-opacity:1;stroke-dasharray:none;stroke-dashoffset:0" />
    <path
       d="M 425.65374,208.29161 C 429.85396,212.45859 428.20006,218.7081 428.17939,223.94387 427.70551,231.2087 428.03125,238.58278 426.16036,245.6893 424.69694,253.30501 426.87621,259.78977 427.8826,267.54373 427.7902,274.94428 427.9568,284.49498 429.36569,291.7442 430.53061,297.2574 429.55132,307.75959 429.92433,313.43004 429.70587,317.20747 426.98917,311.06587 426.47652,308.72865 424.18664,304.72447 423.09467,298.51728 422.07922,293.96342 419.31153,283.98937 421.38262,273.2399 417.75357,263.42139 414.73987,253.9761 407.16311,247.22275 401.46077,239.43262 400.55304,237.42455 396.81522,235.00048 397.51646,232.91174"
       inkscape:connector-curvature="0"
       id="path4309"
       style="fill:none;stroke:#0000e9;stroke-width:1;stroke-miterlimit:4;stroke-opacity:1;stroke-dasharray:none;stroke-dashoffset:0" />
    <path
       d="M 370.25845,279.07447 C 375.44028,287.79386 380.42112,297.26371 380.31985,307.65336 381.26462,324.8295 387.05077,341.34415 395.59941,356.16589 399.55078,365.72552 409.5893,374.82056 405.48907,386.05016 403.3882,395.87612 391.60706,397.41282 385.99093,389.34874 382.35386,386.61399 373.35366,383.2237 372.01703,384.14966"
       inkscape:connector-curvature="0"
       id="path4311"
       style="fill:none;stroke:#0000e9;stroke-width:1;stroke-miterlimit:4;stroke-opacity:1;stroke-dasharray:none;stroke-dashoffset:0" />
    <path
       d="M 405.86971,408.33014 C 407.20833,396.88311 421.77606,397.51141 429.63481,401.87213 441.59285,405.68239 454.09597,409.05542 466.70524,409.17784 481.60165,409.13534 498.26157,411.00211 510.97386,401.62838 516.45743,395.09495 523.07793,387.89976 532.63454,391.32407 533.3416,392.10268 542.77392,391.44282 538.64253,392.94251"
       inkscape:connector-curvature="0"
       id="path4313"
       style="fill:none;stroke:#0000e9;stroke-width:1;stroke-miterlimit:4;stroke-opacity:1;stroke-dasharray:none;stroke-dashoffset:0" />
    <path
       d="M 413.78332,398.65795 C 417.62328,397.23971 424.04234,391.3039 430.1975,391.86245 447.77233,393.25298 465.38227,397.06397 483.03559,395.10651 489.88147,393.72258 495.80515,390.03922 501.98645,386.97658 508.24827,383.38099 514.95242,378.85228 522.59861,380.31704 L 522.70902,379.97577 522.37566,379.31372"
       inkscape:connector-curvature="0"
       id="path4315"
       style="fill:none;stroke:#0000e9;stroke-width:1;stroke-miterlimit:4;stroke-opacity:1;stroke-dasharray:none;stroke-dashoffset:0" />
    <path
       d="M 552.27153,319.96147 C 555.91752,324.18468 555.40079,330.95394 552.98168,335.6325 550.17382,340.3697 544.95639,342.83037 541.98204,347.44861 536.55468,354.32486 528.53641,358.62103 523.52216,365.83572 520.57624,370.81929 520.29935,377.99202 523.92096,382.72855 528.02715,386.81995 532.98299,390.23931 538.65684,391.67501 538.0306,391.60041 537.37216,391.64231 536.88395,391.18398"
       inkscape:connector-curvature="0"
       id="path4317"
       style="fill:none;stroke:#0000e9;stroke-width:1;stroke-miterlimit:4;stroke-opacity:1;stroke-dasharray:none;stroke-dashoffset:0" />
    <path
       d="M 550.9526,262.36796 C 551.66072,264.43136 553.48264,262.76618 551.48222,262.69155 554.84752,265.76954 557.46262,269.5253 558.53525,274.05695 559.99846,280.28499 560.51131,286.72086 561.22957,293.06478 560.849,296.85718 560.52315,300.6724 560.46708,304.48477 560.01429,308.83836 558.02506,312.88151 554.87645,315.88967 552.56471,319.25631 548.96089,322.99163 544.4792,322.04356 543.72787,322.05956 540.44294,321.34016 540.84076,322.59935"
       inkscape:connector-curvature="0"
       id="path4319"
       style="fill:none;stroke:#0000e9;stroke-width:1;stroke-miterlimit:4;stroke-opacity:1;stroke-dasharray:none;stroke-dashoffset:0" />
    <path
       d="M 556.22834,314.24608 609.4254,334.9094"
       inkscape:connector-curvature="0"
       id="path4321"
       style="fill:none;stroke:#0000e9;stroke-width:1;stroke-miterlimit:4;stroke-opacity:1;stroke-dasharray:none;stroke-dashoffset:0" />
    <path
       d="M 550.51295,262.36796 633.16624,261.04902"
       inkscape:connector-curvature="0"
       id="path4323"
       style="fill:none;stroke:#0000e9;stroke-width:1;stroke-miterlimit:4;stroke-opacity:1;stroke-dasharray:none;stroke-dashoffset:0" />
    <path
       d="M 544.35792,228.51528 627.89049,203.01587"
       inkscape:connector-curvature="0"
       id="path4325"
       style="fill:none;stroke:#0000e9;stroke-width:1;stroke-miterlimit:4;stroke-opacity:1;stroke-dasharray:none;stroke-dashoffset:0" />
    <path
       d="M 496.87625,192.02474 538.20289,112.00933"
       inkscape:connector-curvature="0"
       id="path4327"
       style="fill:none;stroke:#0000e9;stroke-width:1;stroke-miterlimit:4;stroke-opacity:1;stroke-dasharray:none;stroke-dashoffset:0" />
    <path
       d="M 474.89399,182.79219 506.98809,98.380328"
       inkscape:connector-curvature="0"
       id="path4329"
       style="fill:none;stroke:#0000e9;stroke-width:1;stroke-miterlimit:4;stroke-opacity:1;stroke-dasharray:none;stroke-dashoffset:0" />
    <path
       d="M 437.52416,168.72355 C 437.52416,168.13735 437.52416,167.55116 437.52416,168.72355 z"
       inkscape:connector-curvature="0"
       id="path4331"
       style="fill:none;stroke:#0000e9;stroke-width:1;stroke-miterlimit:4;stroke-opacity:1;stroke-dasharray:none;stroke-dashoffset:0" />
    <path
       d="M 436.64487,167.84426 C 436.64487,167.25806 436.64487,166.67187 436.64487,167.84426 z"
       inkscape:connector-curvature="0"
       id="path4333"
       style="fill:none;stroke:#0000e9;stroke-width:1;stroke-miterlimit:4;stroke-opacity:1;stroke-dasharray:none;stroke-dashoffset:0" />
    <path
       d="M 437.9638,168.72355 437.9638,78.596297"
       inkscape:connector-curvature="0"
       id="path4335"
       style="fill:none;stroke:#0000e9;stroke-width:1;stroke-miterlimit:4;stroke-opacity:1;stroke-dasharray:none;stroke-dashoffset:0" />
    <path
       d="M 429.1709,169.16319 377.29277,90.02707"
       inkscape:connector-curvature="0"
       id="path4337"
       style="fill:none;stroke:#0000e9;stroke-width:1;stroke-miterlimit:4;stroke-opacity:1;stroke-dasharray:none;stroke-dashoffset:0" />
    <path
       d="M 423.45551,175.75787 369.37916,140.58626"
       inkscape:connector-curvature="0"
       id="path4339"
       style="fill:none;stroke:#0000e9;stroke-width:1;stroke-miterlimit:4;stroke-opacity:1;stroke-dasharray:none;stroke-dashoffset:0" />
    <path
       d="M 430.48983,310.72892 C 438.6453,303.34153 450.47162,305.89642 460.15401,308.01248 473.2529,310.55142 489.53083,319.43201 494.75281,331.66767 498.82903,341.41611 494.96693,353.7726 487.79076,362.95004 482.72769,368.93323 476.77611,369.81815 467.43564,364.34558 463.30539,362.82717 449.39022,357.75971 443.34501,356.68621 432.03464,351.70892 420.58321,346.6095 420.36447,335.23185 417.94429,325.38969 423.84272,319.40407 428.29161,312.04786"
       inkscape:connector-curvature="0"
       id="path4341"
       style="fill:none;stroke:#0000e9;stroke-width:1;stroke-miterlimit:4;stroke-opacity:1;stroke-dasharray:none;stroke-dashoffset:0" />
    <path
       d="M 370.37072,141.65466 C 388.00433,152.99926 405.71312,164.36188 423.11439,176.02941 422.65207,178.62452 420.02264,180.46102 418.56682,182.58287 406.71331,196.698 389.52237,205.54919 371.77209,209.73096 370.06516,209.31752 372.01046,207.07302 372.00842,206.01692 372.57171,203.29991 375.13154,199.60916 372.44529,197.29724 371.39027,196.49027 369.17286,196.7581 369.83623,194.70085 369.53477,177.09707 369.01463,159.47355 369.46395,141.87448 369.50815,141.45023 370.12387,141.5086 370.37072,141.65466 z"
       inkscape:connector-curvature="0"
       id="path4343"
       style="fill:#6a72bc;stroke:none" />
    <path
       d="M 377.44626,91.507637 C 394.66853,116.47163 410.95268,142.09908 427.69116,167.39932 430.15339,169.53053 426.77238,171.60222 425.72479,173.52893 424.95109,174.66291 423.52984,176.06955 422.28959,174.57142 404.63639,163.30439 387.11707,151.81227 369.53265,140.4319 369.01214,132.52044 369.45045,124.37581 369.29703,116.37507 369.38593,110.4489 369.104,104.45143 369.42273,98.569437 371.95448,96.1952 374.06258,93.226433 376.99287,91.370248 L 377.41362,91.497749 377.44622,91.507649 z"
       inkscape:connector-curvature="0"
       id="path4345"
       style="fill:#746bdb;stroke:none" />
    <path
       d="M 552.47997,264.21948 C 558.32031,269.47222 559.12114,277.92106 560.15815,285.29175 560.98505,292.99099 561.08812,300.95551 559.21204,308.49998 557.13341,313.36564 553.54486,317.70104 549.33376,320.85126 547.40785,322.00294 544.54764,322.33174 542.56048,321.31839 542.7191,319.22168 545.00969,317.63104 544.44961,315.32957 546.38756,299.01583 550.40043,282.97649 551.25721,266.52761 551.47068,265.82761 551.1378,263.78686 552.47997,264.21948 z"
       inkscape:connector-curvature="0"
       id="path4347"
       style="fill:#c7afc8;stroke:none" />
    <path
       d="M 446.23698,316.49603 C 451.46957,316.76323 455.37165,321.14908 458.24479,325.11033 461.89922,330.03655 459.28994,339.01121 452.66679,339.53618 445.45094,340.06832 437.11117,335.10674 436.31749,327.48716 435.95199,322.17844 440.54023,315.93448 446.23698,316.49603 z"
       inkscape:connector-curvature="0"
       id="path4349"
       style="fill:#bfb879;stroke:none" />
    <path
       d="M 386.52532,338.42656 371.13774,338.42656"
       inkscape:connector-curvature="0"
       id="path4353"
       style="fill:none;stroke:#0000e9;stroke-width:1;stroke-miterlimit:4;stroke-opacity:1;stroke-dasharray:none;stroke-dashoffset:0" />
    <path
       d="M 379.25979,338.54698 C 381.79851,338.78323 384.57305,338.25409 386.96732,338.95915 391.7176,350.45618 398.08229,361.16559 403.9074,372.08366 407.42323,378.69681 406.85947,388.32835 400.36276,392.88437 396.89924,395.24447 392.44337,394.43359 389.2892,391.99134 384.60822,387.70789 378.72181,384.76777 372.41782,383.6106 371.36861,379.63128 371.83695,375.09007 371.58161,370.88856 371.44729,360.23223 371.49071,349.57483 371.48361,338.91793 373.43574,337.74444 376.6232,338.86063 379.02525,338.54299 L 379.25983,338.54699 z"
       inkscape:connector-curvature="0"
       id="path4355"
       style="fill:#6ea26f;stroke:none" />
    <path
       d="M 371.89574,283.09674 C 374.86948,287.10769 376.51204,292.11306 378.3805,296.75321 380.52678,305.36556 380.20621,314.41576 382.32357,323.06323 383.21605,328.05283 385.12004,333.0311 386.40403,337.90125 381.74534,338.43563 376.81794,337.95815 372.0606,338.12107 370.86497,336.44704 371.63845,333.56719 371.25171,331.43039 370.94655,315.46148 370.71673,299.47444 371.15381,283.50891 371.14981,283.07216 371.65066,283.13445 371.89571,283.09674 z"
       inkscape:connector-curvature="0"
       id="path4357"
       style="fill:#92a96a;stroke:none" />
    <path
       d="M 441.04132,170.04248 C 445.22781,170.71215 448.34957,178.53865 442.20163,178.4446 436.41783,179.09614 430.86481,181.74056 426.37932,185.37639 423.30183,189.60037 419.60398,193.3308 414.97702,195.84835 411.24798,198.53249 406.57404,199.33083 402.92009,202.16095 399.24399,204.19049 394.16441,206.04735 390.21123,203.77551 L 389.90525,203.75461 389.60284,203.89518"
       inkscape:connector-curvature="0"
       id="path4359"
       style="fill:none;stroke:#0000e9;stroke-width:1;stroke-miterlimit:4;stroke-opacity:1;stroke-dasharray:none;stroke-dashoffset:0" />
    <path
       d="M 431.78365,166.632 C 435.80121,168.09528 440.24202,169.27045 443.62659,171.96269 445.40112,173.37262 446.32614,177.23903 443.4205,177.88416 436.27009,179.27861 428.58515,181.71142 424.08986,187.83114 417.91472,195.10362 408.75012,198.60907 400.50462,202.9404 397.8165,204.41761 394.53186,204.70246 391.5836,204.26287 392.53716,202.27859 395.87359,201.73288 397.76574,200.29864 409.24975,194.01241 418.67123,184.50142 426.18771,173.79027 428.06477,171.50027 429.56659,168.58036 431.5913,166.632 L 431.70121,166.6183 431.78361,166.632 z"
       inkscape:connector-curvature="0"
       id="path3096"
       style="fill:#b46a9f;stroke:none" />
    <path
       d="M 410.55703,74.814862 C 419.43527,75.445903 428.19101,77.191156 436.922,78.854101 437.85964,82.107581 437.07043,85.972517 437.34578,89.460508 437.27858,114.98613 437.77269,140.5216 437.21052,166.04122 437.47183,168.3379 435.02228,167.2796 433.85822,166.76939 432.16226,165.7835 430.8451,165.65523 429.91515,167.51129 428.35976,168.95836 427.63029,165.42466 426.65903,164.70855 410.32747,140.1183 394.24309,115.3652 378.05077,90.683303 378.64837,88.846376 381.23884,87.946815 382.722,86.657802 390.91726,81.106261 400.11821,76.650699 409.88382,74.801123 410.10825,74.804423 410.33295,74.793323 410.55703,74.814863 z"
       inkscape:connector-curvature="0"
       id="path3098"
       style="fill:#b1daa9;stroke:none" />
    <path
       d="M 439.51865,79.513569 C 461.24383,84.299309 482.61446,90.869696 503.3561,98.905607 504.46805,99.3333 506.48778,100.05082 505.34177,101.57826 495.34711,128.46323 485.15847,155.30654 474.85513,182.06079 473.05102,183.09779 471.079,180.75655 469.24201,180.54371 459.07966,176.46522 448.86275,172.50582 438.62562,168.6104 437.88101,164.25416 438.5256,159.47218 438.30963,154.95392 438.44867,130.22087 437.9899,105.47453 438.66684,80.750071 438.69194,80.161289 438.78656,79.389756 439.51865,79.513569 z"
       inkscape:connector-curvature="0"
       id="path3100"
       style="fill:#dbc198;stroke:none" />
    <path
       d="M 507.21026,100.5341 C 517.35709,104.07557 527.11354,108.46663 536.94126,112.76173 537.04914,115.16912 534.6246,117.65631 533.74422,120.08879 521.38846,144.00996 509.02478,167.92703 496.65878,191.8429 494.48134,192.05575 492.1362,190.00277 489.90025,189.37627 485.20945,187.0231 479.89539,185.61455 475.63825,182.54166 475.44804,180.22993 477.34933,177.94174 477.85751,175.64904 487.37475,150.70514 496.74922,125.7028 506.42715,100.82262 506.55436,100.49357 506.92807,100.46799 507.21026,100.5341 z"
       inkscape:connector-curvature="0"
       id="path3102"
       style="fill:#736cd4;stroke:none" />
    <path
       d="M 538.38385,113.46242 C 558.05227,122.51993 577.36735,132.54149 595.75754,143.9628 601.39416,147.2264 603.8517,153.62898 607.43078,158.75037 615.73172,172.48786 622.95414,186.97596 627.38451,202.44934 624.8338,204.1989 621.22531,204.44312 618.2959,205.64502 593.92625,213.14988 569.53017,220.56851 545.14339,228.01745 543.34412,226.15821 541.87279,223.60439 539.90887,221.71129 530.45573,210.50056 517.71726,202.83098 504.66472,196.37384 502.29173,194.93885 499.41906,194.14243 497.29077,192.37871 506.0636,174.41239 515.50645,156.64925 524.61832,138.8027 529.12768,130.36829 533.18174,121.55818 538.09533,113.4212 L 538.38385,113.4624 z"
       inkscape:connector-curvature="0"
       id="path3104"
       style="fill:#bf9784;stroke:none" />
    <path
       d="M 627.59059,204.01557 C 629.41862,206.78993 629.48822,210.52047 630.39828,213.70647 632.64752,224.16007 633.90057,234.81726 633.55328,245.52082 633.3832,250.44256 633.79708,255.50085 632.98998,260.3451 628.86239,261.18436 624.35852,260.66979 620.10396,261.00334 597.35453,261.49094 574.60204,261.87871 551.84798,262.06247 550.57614,260.32809 551.19292,257.38774 550.66948,255.2018 550.11196,246.39544 547.6307,237.94526 545.48687,229.46003 545.45467,227.61707 548.43406,228.08179 549.57446,227.26702 574.99393,219.46972 600.3339,211.36483 625.95566,204.26287 626.492,204.14349 627.033,203.96712 627.59059,204.01557 z"
       inkscape:connector-curvature="0"
       id="path3106"
       style="fill:#e19179;stroke:none" />
    <path
       d="M 556.80773,314.77866 C 573.97357,321.38101 591.12522,328.03732 608.23247,334.78252 608.9194,336.58537 607.43208,338.68116 606.74867,340.37425 598.42264,353.77412 586.59986,365.04707 572.71117,372.55964 561.72242,378.12334 549.34022,381.32615 539.38679,388.65278 539.42309,389.64737 539.84223,391.70851 538.08159,391.20822 532.38345,389.47814 527.31298,385.79706 523.31227,381.42612 521.58143,377.60782 520.74433,373.05241 522.46045,369.01988 524.83624,362.43286 531.30206,358.68154 536.00702,353.86586 541.17254,349.12704 545.59153,343.50735 550.70973,338.7243 555.69307,333.9024 556.38971,325.55477 552.64484,319.75215 553.28757,317.95235 554.96429,316.22902 556.20322,314.83362 L 556.62892,314.72376 556.62912,314.72371 556.80773,314.77871 z"
       inkscape:connector-curvature="0"
       id="path3110"
       style="fill:#d5be93;stroke:none" />
    <path
       d="M 520.26223,380.24457 C 523.04045,380.21577 523.60556,383.60151 525.77153,384.68224 527.48104,386.35934 529.95524,387.52131 531.18466,389.54581 530.07276,391.0324 527.42302,390.14718 525.75779,390.61745 517.85204,391.44591 514.128,399.5937 507.77356,403.28472 498.64499,408.8124 487.60875,408.98326 477.24571,408.74974 466.62618,408.67364 455.8176,409.0174 445.51772,406.04036 437.72899,404.45305 430.31252,401.36804 422.71105,399.33646 420.6564,398.53685 417.44587,399.45463 416.13521,397.90099 420.87123,395.0084 426.0057,391.22106 431.93477,392.32107 448.5672,393.64452 465.24824,396.97011 481.97189,395.28868 490.05349,394.10415 497.09143,389.52703 504.29761,385.93248 509.18126,383.18248 514.52795,380.33903 520.26223,380.24457 z"
       inkscape:connector-curvature="0"
       id="path3112"
       style="fill:#aac7db;stroke:none" />
    <path
       d="M 528.09341,390.80979 C 531.46461,391.03429 534.71692,392.1573 538.09533,392.33481 540.3464,393.32154 539.18864,396.61337 539.53792,398.51732 539.74094,401.49 536.34428,403.10806 534.96286,405.46921 526.69227,414.81001 518.95189,424.85523 509.13371,432.57608 504.31008,435.71878 498.23745,435.83853 492.68824,436.72523 484.64082,436.85836 476.41464,437.15804 468.47915,435.93371 462.94591,434.29665 457.9744,431.03927 452.15194,430.35339 446.55174,429.20903 440.76465,429.83083 435.14817,429.39092 427.24827,426.16683 418.11942,424.4478 411.91718,418.20518 409.10851,414.5714 408.11855,409.84253 407.02613,405.46921 408.49349,401.00332 413.92554,399.18839 418.2783,399.31418 425.31909,399.38728 431.55366,403.19855 438.30963,404.74105 454.70734,409.52562 472.08368,410.13111 489.06116,409.09628 498.07366,408.34473 507.57286,405.91359 513.80008,398.95945 517.68166,395.13262 522.1784,390.5553 528.09341,390.80979 z"
       inkscape:connector-curvature="0"
       id="path3114"
       style="fill:#c7a1db;stroke:none" />
    <path
       d="M 425.98583,209.36001 C 429.37237,213.20929 427.85106,218.93353 427.97315,223.60687 427.75982,231.67329 427.00501,239.71108 425.80424,247.67677 425.18582,256.77552 427.91715,265.66069 427.81116,274.75616 428.02683,286.01005 430.21694,297.14834 429.56,308.43071 429.559,309.40574 429.66302,312.49741 428.01919,311.31646 424.70886,305.34218 423.31863,298.40598 421.95222,291.74527 419.61465,279.70734 421.44234,266.27648 414.22532,255.68761 409.35482,248.11369 402.97303,241.4141 397.86228,234.04883 407.27883,228.495 414.91026,220.55247 422.16805,212.44955 423.3829,211.54839 424.36742,209.47229 425.98583,209.36001 z"
       inkscape:connector-curvature="0"
       id="path3120"
       style="fill:#a7b0c5;stroke:none" />
    <path
       d="M 631.92934,261.2766 C 633.6703,262.27285 632.06292,264.93722 632.16729,266.50715 630.42393,278.11825 625.32137,288.85835 621.65097,299.93542 617.429,311.25124 613.57436,322.80863 609.06779,333.95544 606.40257,334.32159 603.93104,332.07022 601.35448,331.51234 586.72642,325.81035 572.0685,320.1775 557.46444,314.41871 557.16305,312.65417 559.25333,310.93231 559.58024,308.96436 561.40751,300.89706 561.77341,292.42081 560.40217,284.23808 559.55922,277.48677 558.7578,270.20833 554.05439,264.96761 551.16885,262.55822 554.37981,262.23671 556.46128,262.52593 581.61717,262.13161 606.7754,261.6445 631.92934,261.2766 z"
       inkscape:connector-curvature="0"
       id="path4371"
       style="fill:#cda392;stroke:none" />
    <path
       d="M 445.25205,305.93069 C 453.16614,306.40846 461.03674,307.99511 468.54702,310.51865 477.90333,314.0934 487.00151,319.60535 492.65816,328.07095 496.59578,333.78168 497.02334,341.22154 495.26169,347.75881 493.5311,354.07513 490.41147,360.16515 485.70627,364.78132 483.58613,366.81177 480.67787,368.05855 477.71023,367.6871 473.083,367.79156 469.29048,364.75892 465.05301,363.42369 458.12231,360.79922 451.04231,358.50411 443.92404,356.58448 438.09609,354.42776 432.4162,351.6607 427.42582,347.93054 423.8498,345.2295 421.13342,341.25269 420.63571,336.72967 419.79296,332.44971 419.52868,327.83334 421.47,323.79815 423.07707,320.32202 425.07878,317.00383 427.35712,313.92674 428.264,313.04231 428.69182,314.64242 429.50039,314.64803 430.18061,314.36584 429.87145,313.2289 430.0446,312.64268 429.75345,311.24071 430.79182,310.44536 431.85666,309.80063 435.70498,307.00799 440.53815,305.80974 445.25205,305.93069 z M 445.65735,315.86393 C 441.5953,315.80763 438.24159,319.13298 436.65837,322.64408 434.37545,328.23137 437.56092,334.97595 442.86935,337.48366 446.56017,339.6503 451.22956,340.79607 455.34328,339.31625 458.30637,337.9475 459.91588,334.60877 460.37172,331.50568 460.67968,327.53386 458.59135,323.79233 455.67879,321.22153 452.97979,318.4205 449.6866,315.97837 445.65735,315.86393 z"
       inkscape:connector-curvature="0"
       id="path8922"
       style="fill:#8a7294;stroke:none" />
  </g>
</svg>
