<?xml version="1.0" encoding="UTF-8" standalone="no"?>
<!-- Created with Inkscape (http://www.inkscape.org/) -->

<svg
   xmlns:dc="http://purl.org/dc/elements/1.1/"
   xmlns:cc="http://creativecommons.org/ns#"
   xmlns:rdf="http://www.w3.org/1999/02/22-rdf-syntax-ns#"
   xmlns:svg="http://www.w3.org/2000/svg"
   xmlns="http://www.w3.org/2000/svg"
   xmlns:xlink="http://www.w3.org/1999/xlink"
   xmlns:inkscape="http://www.inkscape.org/namespaces/inkscape"
   version="1.1"
   width="740"
   height="520"
   id="svg2"
   style="enable-background:new">
  <defs
     id="defs4">
    <filter
       color-interpolation-filters="sRGB"
       id="filter3050">
      <feBlend
         in2="BackgroundImage"
         mode="lighten"
         id="feBlend3052" />
    </filter>
  </defs>
  <metadata
     id="metadata7">
    <rdf:RDF>
      <cc:Work
         rdf:about="">
        <dc:format>image/svg+xml</dc:format>
        <dc:type
           rdf:resource="http://purl.org/dc/dcmitype/StillImage" />
        <dc:title />
      </cc:Work>
    </rdf:RDF>
  </metadata>
  <g
     id="layer1"
     style="display:none">
    <image
       xlink:href="pngs/coronal-0460.png"
       id="MRISLICE"
       height="520"
       width="740"
       y="0"
       x="0" />
  </g>
  <g
     id="layer3"
     style="display:inline">
    <path
       d="M 375.01729,108.93181 C 379.3951,175.80105 368.19246,247.90147 373.69835,312.92715 376.05127,341.57864 369.66195,372.99084 392.60309,395.14079 402.97853,400.9442 412.09702,407.37608 426.89541,410.96801 L 462.50667,411.40765 C 483.20683,408.04331 497.03237,398.95013 510.86763,389.86504"
       inkscape:connector-curvature="0"
       id="path2990"
       style="fill:none;stroke:#0000e9;stroke-width:1;stroke-miterlimit:4;stroke-opacity:1;stroke-dasharray:none;stroke-dashoffset:0" />
    <path
       d="M 510.5379,390.08486 C 515.71309,385.94876 542.25498,370.71106 558.34931,357.77095 602.28597,295.91207 616.7973,256.73585 610.22743,218.40345 597.65509,144.4741 526.59564,116.09174 465.58418,90.906361 411.83139,73.366856 392.52034,90.030257 374.57764,108.05252"
       inkscape:connector-curvature="0"
       id="path2992"
       style="fill:none;stroke:#0000e9;stroke-width:1;stroke-miterlimit:4;stroke-opacity:1;stroke-dasharray:none;stroke-dashoffset:0" />
    <path
       d="M 558.50931,357.3313 C 542.69098,359.01059 523.76389,370.53583 507.79012,381.95143"
       inkscape:connector-curvature="0"
       id="path2994"
       style="fill:none;stroke:#0000e9;stroke-width:1;stroke-miterlimit:4;stroke-opacity:1;stroke-dasharray:none;stroke-dashoffset:0" />
    <path
       d="M 508.66941,391.62362 C 510.15603,385.76169 506.90595,379.89975 503.83331,374.03782 488.79045,362.99091 469.25552,363.17419 451.95519,357.77095 423.50364,338.60164 415.09984,314.93742 415.90429,288.74667"
       inkscape:connector-curvature="0"
       id="path2996"
       style="fill:none;stroke:#0000e9;stroke-width:1;stroke-miterlimit:4;stroke-opacity:1;stroke-dasharray:none;stroke-dashoffset:0" />
    <path
       d="M 469.10135,318.64253 C 467.13149,316.74776 470.2742,318.14251 468.55948,317.61789 465.20346,313.6241 459.46187,312.55298 454.70836,314.43146 450.59197,315.45817 446.69782,318.64182 446.82303,323.24337 446.73133,329.76581 449.99837,336.63995 455.6336,340.1057 459.33527,342.59149 463.22944,340.1707 465.25107,336.80775 468.5927,332.54213 471.60311,327.60795 472.30767,322.15909 472.28747,320.39125 471.02836,318.55973 469.10135,318.64253 z"
       inkscape:connector-curvature="0"
       id="path3000"
       style="fill:none;stroke:#0000e9;stroke-width:1;stroke-miterlimit:4;stroke-opacity:1;stroke-dasharray:none;stroke-dashoffset:0" />
    <path
       d="M 493.72147,368.54225 C 491.82354,374.4809 479.50756,382.13668 473.22892,383.63824 460.73911,387.54032 446.99524,390.57202 434.0998,387.10168 422.26708,382.55721 410.09827,378.23694 399.98315,370.37693 393.27536,365.78083 385.05144,365.24176 377.65516,367.88279"
       inkscape:connector-curvature="0"
       id="path3007"
       style="fill:none;stroke:#0000e9;stroke-width:1;stroke-miterlimit:4;stroke-opacity:1;stroke-dasharray:none;stroke-dashoffset:0" />
    <path
       d="M 401.396,370.08101 C 396.17524,362.24976 390.72387,354.99506 387.767,341.50408 385.41262,344.32455 379.46765,342.35755 373.69835,340.62479"
       inkscape:connector-curvature="0"
       id="path3012"
       style="fill:none;stroke:#0000e9;stroke-width:1;stroke-miterlimit:4;stroke-opacity:1;stroke-dasharray:none;stroke-dashoffset:0" />
    <path
       d="M 473.05815,362.1674 C 456.97826,342.26209 478.10461,324.315 481.85105,305.45318 506.27539,288.74648 510.44642,272.57222 503.98417,249.85369 488.55127,212.57578 469.89822,182.62471 438.32619,184.99042 424.91412,192.21838 416.72773,227.81438 411.50783,279.51412"
       inkscape:connector-curvature="0"
       id="path3014"
       style="fill:none;stroke:#0000e9;stroke-width:1;stroke-miterlimit:4;stroke-opacity:1;stroke-dasharray:none;stroke-dashoffset:0" />
    <path
       d="M 505.9782,260.95418 C 485.5433,261.92944 473.07068,278.50954 481.54017,305.1423 468.58419,281.36155 458.3899,266.88905 437.00725,273.35909"
       inkscape:connector-curvature="0"
       id="path3016"
       style="fill:none;stroke:#0000e9;stroke-width:1;stroke-miterlimit:4;stroke-opacity:1;stroke-dasharray:none;stroke-dashoffset:0" />
    <path
       d="M 477.89425,316.00466 C 466.72934,300.8181 449.61341,294.8957 437.4469,284.35021 423.72373,280.35162 415.53305,287.41799 407.55103,294.9017 405.15068,312.49716 403.15378,330.31268 388.20664,341.06444"
       inkscape:connector-curvature="0"
       id="path3018"
       style="fill:none;stroke:#0000e9;stroke-width:1;stroke-miterlimit:4;stroke-opacity:1;stroke-dasharray:none;stroke-dashoffset:0" />
    <path
       d="M 433.49009,283.03128 C 432.52603,280.48308 434.19446,283.74005 433.14559,281.34675 431.83653,275.49544 431.10265,268.69451 426.37445,264.48522 422.5539,261.41406 417.93953,265.01431 416.18594,268.60413 413.05861,273.72164 410.32419,279.1915 408.5856,284.93719 407.61228,287.01107 408.32693,293.81301 407.69853,293.36624 L 407.99062,292.70347"
       inkscape:connector-curvature="0"
       id="path3020"
       style="fill:none;stroke:#0000e9;stroke-width:1;stroke-miterlimit:4;stroke-opacity:1;stroke-dasharray:none;stroke-dashoffset:0" />
    <path
       d="M 437.4469,283.47092 C 436.7839,282.79379 437.90541,281.43003 437.5161,283.0579 438.29852,279.47508 438.4078,275.59197 437.33801,272.05961"
       inkscape:connector-curvature="0"
       id="path3027"
       style="fill:none;stroke:#0000e9;stroke-width:1;stroke-miterlimit:4;stroke-opacity:1;stroke-dasharray:none;stroke-dashoffset:0" />
    <path
       d="M 407.55103,294.46205 C 408.25475,288.59882 400.41405,291.57318 401.66548,296.55276 400.04664,304.45855 398.84822,312.55711 396.02149,320.16194 393.20273,325.16986 391.49911,330.64608 389.48654,336.00469 388.04939,336.21077 388.85168,342.71297 388.2071,340.18502"
       inkscape:connector-curvature="0"
       id="path3035"
       style="fill:none;stroke:#0000e9;stroke-width:1;stroke-miterlimit:4;stroke-opacity:1;stroke-dasharray:none;stroke-dashoffset:0" />
    <path
       d="M 481.22094,367.60253 C 472.11895,367.73843 463.9044,372.60708 455.35406,375.26886 447.74735,378.58173 439.08544,380.48363 432.56882,385.66343 L 432.62042,386.00716 433.05049,386.34788"
       inkscape:connector-curvature="0"
       id="path3044"
       style="fill:none;stroke:#0000e9;stroke-width:1;stroke-miterlimit:4;stroke-opacity:1;stroke-dasharray:none;stroke-dashoffset:0" />
    <path
       d="M 458.65547,313.8891 C 454.14274,314.13314 448.8272,316.31507 447.37649,320.96153 446.07129,328.10807 449.63533,335.66085 455.51756,339.73068 457.93912,341.54411 461.41232,340.93384 463.34775,338.71061 467.2152,334.51067 470.28995,329.45731 471.80941,323.93429 472.64881,321.85547 471.41331,319.24256 469.2544,318.69797 467.33345,316.81013 465.40645,314.61152 462.56085,314.20969 461.2855,313.91792 459.96161,313.84209 458.65547,313.8891 z"
       inkscape:connector-curvature="0"
       id="path3005"
       style="fill:#bfb879;stroke:none" />
    <path
       d="M 428.95709,283.42325 C 424.397,283.49845 420.04386,285.53059 416.30212,287.87591 415.64702,301.21487 417.6077,315.0539 423.80904,327.04313 430.03638,339.28741 439.91864,349.47116 451.35959,356.94544 456.5746,359.52972 462.51991,360.05343 468.1309,361.45212 469.27413,361.34712 471.08618,362.78568 471.85798,361.55032 471.3374,359.66343 469.80107,358.09099 469.2038,356.18207 465.88117,349.36298 466.86717,341.23639 469.47784,334.33895 470.01972,333.18903 468.47031,332.63403 467.92346,333.66862 465.41409,336.5048 463.48059,341.0762 459.08292,341.12965 455.60811,341.30641 453.09653,338.36633 450.95157,336.03905 447.69914,331.78703 446.17617,326.0587 446.99761,320.73812 448.29578,316.67914 452.73459,314.62043 456.63477,313.7337 461.07885,312.59593 466.05623,314.39385 468.91437,317.8528 469.88708,318.97032 471.93939,319.15092 472.198,320.94213 472.74106,322.31106 471.86712,323.75221 472.1494,325.10982 473.25464,326.04765 473.91973,323.94384 474.43231,323.27644 475.52529,321.0115 476.98573,318.78279 477.6383,316.347 475.51429,312.75946 472.34401,309.878 469.2738,307.06929 459.53475,298.81137 448.03773,292.89782 437.94332,285.1331 435.30938,283.4361 431.9829,283.46826 428.95706,283.42328 z"
       inkscape:connector-curvature="0"
       id="path3008"
       style="fill:#8a7294;stroke:none" />
    <path
       d="M 472.21743,324.7838 C 471.55394,324.9686 471.60304,325.80575 471.35196,326.31943 470.55511,328.61027 469.41626,330.79217 468.14204,332.85201 467.97733,333.28327 468.41326,333.62865 468.81965,333.5952 469.17967,333.83112 469.76244,333.87494 469.93201,333.38876 470.91831,331.26082 471.81546,329.09104 472.875,326.99582 473.10355,326.41309 473.52687,325.88853 473.6018,325.25983 473.39548,324.6361 472.69102,324.91898 472.21743,324.7838 z"
       inkscape:connector-curvature="0"
       id="path3010"
       style="fill:#8a7294;stroke:none" />
    <path
       d="M 480.97176,367.44314 472.39868,362.1674"
       inkscape:connector-curvature="0"
       id="path3015"
       style="fill:#8a7294;fill-opacity:1;stroke:#0000e9;stroke-width:1;stroke-miterlimit:4;stroke-opacity:1;stroke-dasharray:none;stroke-dashoffset:0" />
    <path
       d="M 414.97389,288.91321 C 412.30905,290.49286 410.08051,292.83723 407.7747,294.92398 406.9273,299.3657 406.49335,303.94516 405.60637,308.40858 403.88491,318.46281 400.83147,328.84647 393.59655,336.41063 391.88372,338.23093 389.89713,339.87375 388.06624,341.40958 388.07124,343.29421 388.98888,345.15134 389.40844,346.99852 391.66649,354.90794 396.07319,361.91768 400.6236,368.68132 401.20859,369.3228 401.3372,369.7284 400.89151,370.3712 401.35212,371.65009 402.9362,372.13306 403.90826,372.98603 412.35607,378.552 421.80375,382.3398 431.26824,385.79313 432.49797,386.25318 433.16193,384.77116 434.16715,384.36428 441.03738,379.9378 449.0068,377.76891 456.54661,374.76285 463.66118,372.29313 470.52927,368.82309 478.00801,367.72646 478.65447,367.87728 480.02374,367.52837 479.27199,366.67544 477.17474,365.23128 474.98908,363.81333 472.72988,362.66077 465.92291,361.16689 458.93863,360.1014 452.34373,357.95123 448.89313,356.10834 445.87086,353.4577 442.80893,351.00621 432.21963,342.17065 423.67359,330.58355 419.46652,317.31567 416.58981,308.63261 415.70513,299.45257 415.74327,290.34892 415.65797,289.83072 415.81937,288.81141 414.97389,288.91321 z"
       inkscape:connector-curvature="0"
       id="path3017"
       style="fill:#95c990;stroke:none" />
    <path
       d="M 386.2527,366.49683 C 383.37706,366.63868 380.32493,366.87562 377.74145,368.15924 379.08989,374.91933 382.06971,381.37256 385.95732,387.07085 388.60355,390.69726 391.33567,394.54008 395.43029,396.63313 404.93284,402.12686 414.5803,407.74597 425.33186,410.40627 428.14454,411.32384 431.17255,410.74313 434.08409,410.96771 443.84189,411.00891 453.60895,411.43368 463.36233,411.05211 475.42215,409.27749 486.81569,404.38355 497.25844,398.23424 501.08908,395.94854 504.99916,393.66568 508.62302,391.11485 509.27479,388.2025 508.53092,385.07208 507.57415,382.2897 506.42372,379.46137 505.11099,376.67602 503.61734,374.02574 500.60314,372.04722 497.4833,370.12075 494.18586,368.71136 493.24041,369.19764 493.08245,370.66553 492.24152,371.40848 486.81421,377.91494 479.04222,382.16339 470.96995,384.43234 460.53335,387.5247 449.45702,389.77492 438.54986,388.1356 432.39841,387.05342 426.7149,384.29615 420.93396,382.05148 413.43142,378.95851 406.21667,375.21847 399.68906,370.4048 395.72636,367.77997 391.03192,366.31264 386.2527,366.49682 z"
       inkscape:connector-curvature="0"
       id="path3021"
       style="fill:#c7a1db;stroke:none" />
    <path
       d="M 374.94168,341.28593 C 374.29777,342.23461 374.95408,343.65235 374.78229,344.75382 375.04135,352.13142 375.60604,359.56563 377.33912,366.751 377.7019,368.19732 379.31131,367.12854 380.23116,367.01891 386.83535,365.34299 394.1638,366.40371 399.88467,370.13764 400.73045,370.61874 401.07437,369.41394 400.42277,368.94018 396.18774,362.53866 392.02666,355.90985 389.66292,348.56755 388.96602,346.63408 388.51669,344.61929 387.85625,342.69417 387.0009,341.94319 385.89428,343.07309 384.923,342.92086 381.55939,343.18397 378.3288,342.01306 375.12235,341.26101 L 374.94168,341.28591 z"
       inkscape:connector-curvature="0"
       id="path3023"
       style="fill:#9993c0;stroke:none" />
    <path
       d="M 555.84191,357.90314 C 546.63692,359.38854 538.09957,363.51706 529.96983,367.92922 522.48646,372.12481 515.24928,376.78972 508.30528,381.80885 507.79283,383.13498 508.81459,384.58579 508.83423,385.958 509.19255,387.28969 508.80803,388.8186 509.48683,390.03845 510.4504,390.52886 511.27242,389.10217 512.15037,388.79278 526.81436,378.99506 542.15274,370.13308 556.08921,359.29077 556.86477,358.86311 556.98548,357.76501 555.84191,357.90314 z"
       inkscape:connector-curvature="0"
       id="path3025"
       style="fill:#6abbd5;stroke:none" />
    <path
       d="M 486.2475,302.81531 C 485.44217,305.5832 487.00353,310.32195 490.63079,308.89297 495.45959,307.74145 500.30773,306.54975 505.29337,306.38459 508.0344,306.35319 508.77899,304.81049 511.38102,306.18798 513.94812,307.71132 515.91228,311.24468 515.96502,314.17313 515.61398,318.05327 514.73302,320.81245 512.18459,323.55962 508.06656,327.60135 502.52292,329.69361 498.2703,333.56835 496.29131,335.32103 494.12779,337.01514 492.65722,339.22053 489.27039,346.33164 487.41404,354.06369 483.92831,361.13746 483.64655,361.74453 481.99624,364.93 482.2907,363.92603"
       inkscape:connector-curvature="0"
       id="path3019"
       style="fill:none;stroke:#0000e9;stroke-width:1;stroke-miterlimit:4;stroke-opacity:1;stroke-dasharray:none;stroke-dashoffset:0" />
    <path
       d="M 497.23863,334.03011 471.73922,329.63366"
       inkscape:connector-curvature="0"
       id="path3026"
       style="fill:none;stroke:#0000e9;stroke-width:1;stroke-miterlimit:4;stroke-opacity:1;stroke-dasharray:none;stroke-dashoffset:0" />
    <path
       d="M 549.11676,319.52182 C 547.73535,320.38068 547.7743,317.54685 548.86396,319.25193 545.19182,318.90336 541.89229,315.58186 538.07672,317.11733 533.82593,318.31495 535.05939,324.26579 539.0406,324.80691 541.7533,326.2098 545.12006,326.9534 546.78994,329.75884 546.14827,333.91366 541.0628,334.30692 538.0792,336.14721 531.95788,338.62807 525.6468,340.62172 519.40861,342.74964 515.69188,344.34561 511.69594,345.41689 508.36496,347.78977 504.37907,349.86007 500.28845,351.87599 496.75623,354.66973 493.64533,356.86984 491.40549,362.08654 495.10503,364.82654 497.64628,367.23552 500.94316,365.54191 502.53255,363.03461 507.09835,358.46618 512.52007,354.88435 517.58395,350.91866 523.45281,347.17166 529.73462,340.97469 537.05182,341.46861 540.94221,341.50691 543.83205,340.05347 547.64396,339.44843 551.28508,338.62343 555.17886,338.41006 557.54447,335.51731 559.30315,333.29953 559.67946,329.73544 556.67451,328.62769 553.74551,326.04202 549.93506,323.57522 549.19822,319.45172 549.14302,318.72804 549.24792,317.98438 549.5564,317.3236"
       inkscape:connector-curvature="0"
       id="path3029"
       style="fill:none;stroke:#0000e9;stroke-width:1;stroke-miterlimit:4;stroke-opacity:1;stroke-dasharray:none;stroke-dashoffset:0" />
    <path
       d="M 472.68257,330.05078 C 470.2587,331.46154 470.10322,334.93743 468.95933,337.28291 466.78908,343.5514 466.96052,350.8507 469.89357,356.84165 471.16339,358.76061 472.0704,361.35121 474.01729,362.54782 476.61188,362.87729 479.34404,364.31137 481.8739,364.10954 486.62572,356.18135 488.56916,346.84523 492.90624,338.70629 493.83162,337.09613 495.57187,336.06305 496.4234,334.46097 493.93506,333.18905 490.57813,333.38153 487.77779,332.6391 482.74094,331.82467 477.70923,330.84853 472.68257,330.05078 z"
       inkscape:connector-curvature="0"
       id="path3039"
       style="fill:#7c797c;stroke:none" />
    <path
       d="M 539.30254,317.25985 C 536.0825,316.86643 534.65081,321.24678 536.89823,323.19506 539.9024,325.73102 544.99744,326.11752 546.76277,329.92713 546.74477,333.23267 542.4873,334.07006 540.15,335.43404 528.53835,340.44637 516.06561,343.30291 505.07892,349.73864 501.02904,352.37022 495.80535,354.43658 493.85423,359.14979 492.66087,362.1721 495.69348,366.73892 499.06127,365.38726 503.27969,362.58196 506.62008,358.66342 510.84356,355.78122 517.4737,350.98831 523.69245,345.38298 531.3065,342.27841 536.78158,340.91184 542.59386,340.72001 548.05423,339.11846 551.80261,338.08211 557.19392,337.59755 558.30345,333.03212 559.41664,330.06706 555.94286,328.64753 554.29169,326.90457 551.52765,324.95911 550.22235,321.63187 547.66954,319.48556 545.20533,318.16255 542.17811,317.24453 539.30254,317.25985 z"
       inkscape:connector-curvature="0"
       id="path3041"
       style="fill:#d5be93;stroke:none" />
    <path
       d="M 479.40089,364.3431 C 477.70898,364.97074 479.63605,366.57497 480.58244,366.92601 481.71463,368.09254 478.86678,367.84853 478.39795,368.08008 468.07283,370.12707 458.40011,374.668 448.51582,378.2194 443.7087,380.39722 438.21074,381.69175 434.15866,385.17129 433.10146,386.97353 436.05979,387.21879 437.18122,387.43821 447.58214,389.59736 458.34775,387.52881 468.40614,384.71921 477.30349,382.55707 485.84779,378.18077 491.9033,371.21255 493.09515,370.24578 493.54624,368.13689 491.55983,367.86026 487.60013,366.4981 483.52866,365.0606 479.40089,364.3431 z"
       inkscape:connector-curvature="0"
       id="path3043"
       style="fill:#8791c7;stroke:none" />
    <path
       d="M 484.77006,304.01554 C 481.25542,305.57484 481.09831,310.25052 479.55285,313.28613 477.63869,318.64708 474.54128,323.63432 472.6386,328.9654 473.98234,330.34527 477.01156,329.94258 478.96529,330.62326 485.2076,331.62038 491.4806,333.05926 497.71211,333.73281 502.69646,329.21688 509.53017,326.70253 513.49812,321.14796 516.17662,317.05405 516.45421,311.02616 512.52266,307.56018 510.21271,304.76589 506.26552,306.70415 503.26263,306.73585 498.33464,307.25531 493.51509,308.87963 488.60321,309.20885 486.44472,308.47287 486.12362,306.04806 485.40205,304.24911 485.26504,304.04479 485.00739,303.94548 484.77006,304.01554 z"
       inkscape:connector-curvature="0"
       id="path3031"
       style="fill:#c9ca98;stroke:none" />
    <path
       d="M 505.26255,261.10836 C 497.35296,261.67268 489.29081,264.97207 484.4719,271.49047 480.78533,276.40278 478.90996,282.59584 479.19984,288.73044 479.06554,292.80662 479.38895,296.88458 480.4913,300.82068 480.92679,302.17994 481.05261,303.7267 481.83084,304.92174 483.43325,304.54184 484.68625,303.1036 486.07521,302.19562 494.36893,295.93152 501.98762,287.90317 505.02899,277.73931 506.60219,272.6188 506.72199,267.13545 506.27923,261.82965 506.30163,261.19871 505.78741,261.00838 505.26255,261.10836 z"
       inkscape:connector-curvature="0"
       id="path3024"
       style="fill:#c7afc8;stroke:none" />
    <path
       d="M 446.17837,271.9621 C 443.5308,272.14492 440.77237,272.34037 438.28259,273.24983 437.81259,274.58083 438.31769,276.2574 438.17003,277.7255 438.10353,279.69394 438.08533,281.80778 437.3099,283.59895 437.86668,285.01225 439.53061,285.65927 440.58063,286.67982 449.58047,293.4733 459.80189,298.638 468.42058,305.91331 471.60436,308.74674 474.6734,311.75068 477.40691,315.01297 478.53463,315.74232 478.89571,313.85681 479.27667,313.1473 480.24408,310.67573 481.23877,308.11866 481.58354,305.49878 476.36722,296.31222 471.37621,286.71443 463.72983,279.2918 459.04344,274.84919 452.74868,271.71656 446.17837,271.9621 z"
       inkscape:connector-curvature="0"
       id="path3028"
       style="fill:#d0cf6e;stroke:none" />
    <path
       d="M 438.22354,185.12531 C 431.972,189.30131 428.65648,196.43441 425.96519,203.19798 420.61442,217.53733 417.9214,232.7097 415.55866,247.7973 414.43201,255.84706 413.17658,263.90351 412.53865,272.00331 412.70664,273.14764 414.05853,272.43351 414.22853,271.66671 415.9934,268.91936 417.2673,265.51787 420.43852,264.05535 422.45473,262.8179 425.22889,262.98783 426.82024,264.8316 431.069,268.87555 431.82782,275.04058 433.11046,280.48839 433.47668,281.5623 433.18366,283.47138 434.7682,283.59895 435.61636,283.71673 437.38591,284.53627 437.21373,283.04253 437.19223,282.05356 437.94827,281.22268 437.82693,280.17224 438.04958,277.60959 437.86333,274.95279 437.31677,272.49104 437.81243,272.35588 438.26771,273.07406 438.86927,272.74521 445.16758,271.22114 452.18938,271.27164 457.87705,274.64118 465.452,278.985 470.52417,286.38192 475.0713,293.60088 476.41287,295.52598 477.28768,297.77581 478.81515,299.5567 479.88509,300.11326 480.00443,298.61753 479.66009,297.96298 477.88517,288.99122 478.59136,278.84154 484.23023,271.31268 489.20797,264.65537 497.50536,261.29932 505.59916,260.91601 506.54162,260.26235 505.68766,258.79075 505.68846,257.79041 504.93168,253.5141 503.81865,249.30215 501.95834,245.36357 495.63127,231.10272 488.75974,216.78641 478.80828,204.69639 471.53576,195.82078 461.91151,188.19623 450.40048,185.91341 446.41166,185.08989 442.26433,184.83911 438.22354,185.12531 z"
       inkscape:connector-curvature="0"
       id="path3030"
       style="fill:#e075df;stroke:none" />
  </g>
</svg>
