<?xml version="1.0" encoding="UTF-8" standalone="no"?>
<!-- Created with Inkscape (http://www.inkscape.org/) -->

<svg
   xmlns:dc="http://purl.org/dc/elements/1.1/"
   xmlns:cc="http://creativecommons.org/ns#"
   xmlns:rdf="http://www.w3.org/1999/02/22-rdf-syntax-ns#"
   xmlns:svg="http://www.w3.org/2000/svg"
   xmlns="http://www.w3.org/2000/svg"
   xmlns:xlink="http://www.w3.org/1999/xlink"
   xmlns:inkscape="http://www.inkscape.org/namespaces/inkscape"
   version="1.1"
   width="740"
   height="520"
   id="svg2"
   style="display:inline;enable-background:new">
  <defs
     id="defs4">
    <filter
       color-interpolation-filters="sRGB"
       id="filter3050">
      <feBlend
         in2="BackgroundImage"
         mode="lighten"
         id="feBlend3052" />
    </filter>
  </defs>
  <metadata
     id="metadata7">
    <rdf:RDF>
      <cc:Work
         rdf:about="">
        <dc:format>image/svg+xml</dc:format>
        <dc:type
           rdf:resource="http://purl.org/dc/dcmitype/StillImage" />
        <dc:title />
      </cc:Work>
    </rdf:RDF>
  </metadata>
  <g
     id="g4590"
     style="display:none">
    <image
       xlink:href="pngs/coronal-0475.png"
       id="image4592"
       height="520"
       width="740"
       y="0"
       x="0" />
  </g>
  <g
     id="g4598"
     style="display:inline">
    <path
       d="M 503.7342,412.43689 C 489.26564,421.11785 470.31325,427.88956 453.10422,423.94361 437.05587,419.71863 419.7398,421.03953 406.39642,409.09382 393.14223,400.26833 380.43111,389.45517 374.43736,374.36845 371.12224,361.73161 371.51875,346.86367 372.09879,332.66987 373.16131,289.91164 374.27863,246.87736 368.25596,204.41864 368.85648,171.79071 369.45699,139.16279 370.0575,106.53486 377.30388,92.56491 393.28824,83.957858 408.25542,79.85371 424.44749,74.653684 441.24139,77.797969 456.63951,83.883041 473.95963,88.876482 490.7337,96.126864 506.07151,105.55878 521.34452,113.69295 537.79106,119.81937 551.92138,130.02375 565.5852,136.63716 578.41123,144.52601 589.62864,154.78199 604.63675,168.3931 614.46937,187.06556 618.62749,206.92027 621.77891,223.69422 624.01398,241.67417 620.74786,258.56043 616.31451,285.75569 603.0231,310.45241 590.43766,334.55272 582.5861,348.48926 572.03485,361.67589 558.14396,369.97759 546.55571,381.44851 530.92372,387.23115 519.89975,399.3801 514.11707,405.28574 508.58661,413.77715 499.38194,413.68039"
       inkscape:connector-curvature="0"
       id="path4600"
       style="fill:none;stroke:#0000e9;stroke-width:1;stroke-miterlimit:4;stroke-opacity:1;stroke-dasharray:none;stroke-dashoffset:0" />
    <path
       d="M 456.21668,317.31619 C 461.3685,321.67644 468.36513,327.77557 469.5184,333.97273 469.4262,335.80407 467.06267,335.40288 465.37176,335.35719 463.54204,335.66794 463.85783,338.31305 462.31933,339.30598 440.18116,341.67901 443.61172,311.39775 456.21668,317.31619 z"
       inkscape:connector-curvature="0"
       id="path4602"
       style="fill:none;stroke:#0000e9;stroke-width:1;stroke-miterlimit:4;stroke-opacity:1;stroke-dasharray:none;stroke-dashoffset:0" />
    <path
       d="M 407.98438,255.13361 C 411.51456,248.45946 405.58953,241.68478 406.96389,234.75534 408.29919,228.14064 409.39049,221.47637 411.8627,215.1977 413.07119,209.52518 415.1524,204.95036 418.44961,199.98782 421.51089,193.18405 427.1293,188.21462 431.11919,181.99123 435.86423,175.65092 444.41145,174.79166 450.92537,178.81871 457.33762,181.36082 463.81467,183.57428 469.42318,187.77693 474.51319,190.86418 480.75207,193.70049 484.11666,197.92117 488.61113,201.49399 492.47803,205.32626 496.89493,208.81308 503.25794,213.94489 509.72711,218.9165 514.92574,225.28951 518.4822,230.01964 519.23808,235.53795 519.48853,241.36883 520.89843,251.79861 519.60984,262.6404 516.16925,272.54267 515.81803,277.98383 514.3454,283.30713 513.72379,288.70033 512.43113,294.10053 511.88847,299.58264 510.04401,304.81618 509.20742,308.83319 509.77724,316.1641 506.61516,317.69668 504.68324,310.94615 504.56189,303.81027 504.23007,296.85355 505.73798,287.04319 504.61363,277.03588 505.01489,267.13511 505.67672,260.46267 504.19505,254.09705 503.76421,247.4937 502.86884,240.73118 502.3248,232.36006 496.12134,228.31808 490.92276,224.16231 485.19813,220.40747 478.51335,218.96343 473.15032,216.96257 467.50838,216.36002 461.84354,216.20622 456.07022,214.96753 450.21967,219.4937 444.52948,221.38112 438.71857,225.53447 432.81325,228.76887 426.75783,232.39871 422.4725,237.15695 417.01431,240.8274 413.61169,246.34079 412.18288,249.38549 411.21941,253.45812 407.98438,255.13361 z"
       inkscape:connector-curvature="0"
       id="path4604"
       style="fill:none;stroke:#0000e9;stroke-width:1;stroke-miterlimit:4;stroke-opacity:1;stroke-dasharray:none;stroke-dashoffset:0" />
    <path
       d="M 508.08647,306.11728 C 538.65541,314.27446 567.92056,323.36291 587.04898,339.69189"
       inkscape:connector-curvature="0"
       id="path4606"
       style="fill:none;stroke:#0000e9;stroke-width:1;stroke-miterlimit:4;stroke-opacity:1;stroke-dasharray:none;stroke-dashoffset:0" />
    <path
       d="M 521.14326,250.78134 621.8671,253.26835"
       inkscape:connector-curvature="0"
       id="path4608"
       style="fill:none;stroke:#0000e9;stroke-width:1;stroke-miterlimit:4;stroke-opacity:1;stroke-dasharray:none;stroke-dashoffset:0" />
    <path
       d="M 480.10762,196.06716 541.03933,121.45691"
       inkscape:connector-curvature="0"
       id="path4610"
       style="fill:none;stroke:#0000e9;stroke-width:1;stroke-miterlimit:4;stroke-opacity:1;stroke-dasharray:none;stroke-dashoffset:0" />
    <path
       d="M 476.99886,191.09314 C 497.25068,169.98376 513.1023,143.37412 526.73903,113.99588"
       inkscape:connector-curvature="0"
       id="path4612"
       style="fill:none;stroke:#0000e9;stroke-width:1;stroke-miterlimit:4;stroke-opacity:1;stroke-dasharray:none;stroke-dashoffset:0" />
    <path
       d="M 530.46954,250.15959 C 531.29855,250.78134 532.3348,252.85385 532.95655,252.02485 533.5783,251.19584 530.46954,249.12334 530.46954,250.15959 530.46954,253.26835 532.80111,251.71397 533.5783,253.26835 533.671,253.45372 533.43176,253.74356 533.5783,253.8901 533.72485,254.03665 534.05351,253.74356 534.20006,253.8901 534.34661,254.03665 534.10736,254.32649 534.20006,254.51186 534.33113,254.77401 534.69073,254.87145 534.82181,255.13361 535.00951,255.50901 534.5344,256.71145 534.82181,256.99886 534.96836,257.14541 535.29701,256.85232 535.44356,256.99886 535.49416,257.04946 535.44356,262.05706 535.44356,262.59463 535.44356,263.59937 535.71293,268.89517 535.44356,269.43391 535.31248,269.69606 534.95289,269.7935 534.82181,270.05566 534.63644,270.4264 535.11491,271.00607 534.82181,271.29916 534.67526,271.44571 534.34661,271.15261 534.20006,271.29916 533.91264,271.58658 534.38776,272.78902 534.20006,273.16442 534.06898,273.42657 533.70938,273.52402 533.5783,273.78617 533.1638,274.61517 533.99281,276.06593 533.5783,276.89493 533.44723,277.15708 533.08763,277.25453 532.95655,277.51668 532.76885,277.89208 533.24397,279.09453 532.95655,279.38194 532.81,279.52849 532.48135,279.23539 532.3348,279.38194 532.0417,279.67504 532.3348,280.21094 532.3348,280.62544 532.3348,282.08356 532.48135,280.33235 531.71305,281.86895 531.46435,282.36635 531.96175,283.2368 531.71305,283.7342 531.58197,283.99636 531.22237,284.0938 531.0913,284.35596 530.83246,284.87362 531.48568,286.44858 531.0913,286.84296 530.94475,286.98951 530.61609,286.69642 530.46954,286.84296 530.17645,287.13606 530.65491,287.71573 530.46954,288.08647 530.33847,288.34862 529.97887,288.44607 529.84779,288.70822 529.66242,289.07896 530.03316,289.58098 529.84779,289.95173 529.71672,290.21388 529.35712,290.31132 529.22604,290.57348 528.89444,291.23668 529.55764,292.39728 529.22604,293.06049 529.09496,293.32264 528.73536,293.42008 528.60429,293.68224 528.41659,294.05764 528.8917,295.26008 528.60429,295.54749 528.45774,295.69404 528.12908,295.40095 527.98254,295.54749 527.46441,296.06562 528.50066,298.13813 527.98254,298.65625 527.83599,298.8028 527.50733,298.50971 527.36078,298.65625 527.06769,298.94935 527.54615,299.52902 527.36078,299.89976 527.22971,300.16191 526.87011,300.25936 526.73903,300.52151 526.64633,300.70688 526.88558,300.99671 526.73903,301.14326 526.59248,301.28981 526.26383,300.99671 526.11728,301.14326 525.97073,301.28981 526.26383,301.61847 526.11728,301.76501 525.97073,301.91156 525.64208,301.61847 525.49553,301.76501 525.34898,301.91156 525.64208,302.24022 525.49553,302.38677 525.20243,302.67986 524.54512,302.09367 524.25202,302.38677 524.10547,302.53332 524.34472,302.82315 524.25202,303.00852 522.18993,305.07061 524.54512,302.42233 523.63027,304.25202 522.33648,306.83961 523.67317,303.58735 522.38677,304.87378 522.24022,305.02032 522.53332,305.34898 522.38677,305.49553 522.24022,305.64208 521.91156,305.34898 521.76501,305.49553 521.47192,305.78862 522.05811,306.44593 521.76501,306.73903 520.93601,307.56803 521.14326,305.70278 521.14326,307.36078 521.14326,309.01879 521.35051,307.15353 520.52151,307.98254 520.22841,308.27563 520.81461,308.93294 520.52151,309.22604 520.37496,309.37259 520.04631,309.07949 519.89976,309.22604 519.75321,309.37259 519.89976,309.64054 519.89976,309.84779 519.89976,310.05504 519.69251,310.46954 519.89976,310.46954 520.19155,310.46954 519.91866,309.20717 519.27801,309.84779 519.24071,309.88509 518.82839,311.0913 519.89976,311.0913"
       inkscape:connector-curvature="0"
       id="path4614"
       style="fill:none;stroke:#0000e9;stroke-width:1;stroke-miterlimit:4;stroke-opacity:1;stroke-dasharray:none;stroke-dashoffset:0" />
    <path
       d="M 442.18075,176.17109 457.72455,82.908278"
       inkscape:connector-curvature="0"
       id="path4616"
       style="fill:none;stroke:#0000e9;stroke-width:1;stroke-miterlimit:4;stroke-opacity:1;stroke-dasharray:none;stroke-dashoffset:0" />
    <path
       d="M 439.07199,177.4146 C 439.07199,176.58559 439.90099,174.92759 439.07199,174.92759 438.24298,174.92759 439.07199,178.2436 439.07199,177.4146 439.07199,169.22388 439.80473,176.39307 438.45023,173.68408 438.35753,173.49871 438.59678,173.20888 438.45023,173.06233 438.30369,172.91578 437.97503,173.20888 437.82848,173.06233 437.68193,172.91578 437.97503,172.58713 437.82848,172.44058 437.68193,172.29403 437.35328,172.58713 437.20673,172.44058 437.06018,172.29403 437.35328,171.96538 437.20673,171.81883 437.06018,171.67228 436.73153,171.96538 436.58498,171.81883 436.43843,171.67228 436.73153,171.34362 436.58498,171.19708 436.43843,171.05053 436.10977,171.34362 435.96323,171.19708 434.6768,169.91065 437.92906,171.24738 435.34147,169.95357 435.1561,169.86087 434.92697,169.95357 434.71972,169.95357 434.51247,169.74632 434.36012,169.4629 434.09797,169.33182 433.9126,169.23912 433.62277,169.47837 433.47622,169.33182 433.32967,169.18527 433.62277,168.85662 433.47622,168.71007 433.32967,168.56352 433.00101,168.85662 432.85447,168.71007 432.70792,168.56352 433.00101,168.23486 432.85447,168.08831 432.56137,167.79522 431.9817,168.27369 431.61096,168.08831 431.34881,167.95724 431.25136,167.59764 430.98921,167.46656 430.61847,167.28119 430.0388,167.75966 429.7457,167.46656 429.59916,167.32001 429.89225,166.99136 429.7457,166.84481 429.59916,166.69826 429.2705,166.99136 429.12395,166.84481 428.9774,166.69826 429.2705,166.36961 429.12395,166.22306 428.9774,166.07651 428.64875,166.36961 428.5022,166.22306 428.35565,166.07651 428.64875,165.74785 428.5022,165.60131 428.35565,165.45476 428.027,165.74785 427.88045,165.60131 427.7339,165.45476 428.027,165.1261 427.88045,164.97955 427.7339,164.83301 427.44407,165.07225 427.2587,164.97955 426.73439,164.7174 426.5395,163.9982 426.01519,163.73605 425.82982,163.64335 425.53999,163.8826 425.39344,163.73605 425.24689,163.5895 425.53999,163.26085 425.39344,163.1143 425.24689,162.96775 424.91824,163.26085 424.77169,163.1143 424.62514,162.96775 424.86439,162.67792 424.77169,162.49255 424.50953,161.96824 423.79034,161.77335 423.52818,161.24904 423.43548,161.06367 423.67473,160.77384 423.52818,160.62729 423.38164,160.48074 423.05298,160.77384 422.90643,160.62729 422.75988,160.48074 423.05298,160.15209 422.90643,160.00554 422.75988,159.85899 422.43123,160.15209 422.28468,160.00554 422.13813,159.85899 422.43123,159.53033 422.28468,159.38379 422.13813,159.23724 421.80948,159.53033 421.66293,159.38379 421.51638,159.23724 421.75563,158.9474 421.66293,158.76203 421.53185,158.49988 421.17225,158.40243 421.04118,158.14028 420.94848,157.95491 421.18772,157.66508 421.04118,157.51853 420.89463,157.37198 420.56597,157.66508 420.41942,157.51853 419.133,156.2321 422.38525,157.56883 419.79767,156.27502 419.6123,156.18232 419.32247,156.42157 419.17592,156.27502 419.02937,156.12848 419.26862,155.83864 419.17592,155.65327 419.04484,155.39112 418.68524,155.29367 418.55417,155.03152 418.46147,154.84615 418.70072,154.55632 418.55417,154.40977 418.40762,154.26322 418.07896,154.55632 417.93242,154.40977 417.63932,154.11667 418.11779,153.53701 417.93242,153.16626 417.67026,152.64196 416.95106,152.44707 416.68891,151.92276 416.59621,151.73739 416.78161,151.48638 416.68891,151.30101 416.55783,151.03885 416.19824,150.94141 416.06716,150.67926 415.97446,150.49389 416.15986,150.24287 416.06716,150.0575 415.93608,149.79535 415.57648,149.69791 415.44541,149.43575 415.35271,149.25038 415.53811,148.99937 415.44541,148.814 415.18325,148.28969 414.46406,148.0948 414.2019,147.5705 414.1092,147.38512 414.2946,147.13411 414.2019,146.94874 413.93975,146.42444 413.22055,146.22955 412.9584,145.70524 412.77303,145.3345 413.2515,144.75483 412.9584,144.46174 412.81185,144.31519 412.48319,144.60828 412.33665,144.46174 412.04355,144.16864 412.52202,143.58897 412.33665,143.21823 412.20557,142.95608 411.84597,142.85863 411.71489,142.59648 411.62219,142.41111 411.86144,142.12128 411.71489,141.97473 411.56835,141.82818 411.23969,142.12128 411.09314,141.97473 410.94659,141.82818 411.09314,141.56023 411.09314,141.35297 410.88589,140.93847 410.79908,140.43716 410.47139,140.10947 410.32484,139.96292 409.99619,140.25602 409.84964,140.10947 409.70309,139.96292 409.94234,139.67309 409.84964,139.48772 409.51572,138.81989 408.94005,138.91204 408.60613,138.24421 408.51343,138.05884 408.69883,137.80783 408.60613,137.62246 408.47506,137.36031 408.11546,137.26286 407.98438,137.00071 407.89168,136.81534 408.13093,136.52551 407.98438,136.37896 407.83783,136.23241 407.50918,136.52551 407.36263,136.37896 407.21608,136.23241 407.45533,135.94258 407.36263,135.75721 407.23155,135.49505 406.87195,135.39761 406.74088,135.13545 406.64818,134.95008 406.88743,134.66025 406.74088,134.5137 406.59433,134.36715 406.26567,134.66025 406.11913,134.5137 405.82603,134.2206 406.3045,133.64094 406.11913,133.2702 405.74607,132.52409 404.62692,132.15104 404.25387,131.40494 404.16117,131.21957 404.25387,130.99044 404.25387,130.78319 404.04662,130.57594 403.76319,130.42359 403.63212,130.16144 403.53942,129.97607 403.77867,129.68623 403.63212,129.53968 403.48557,129.39314 403.15691,129.68623 403.01036,129.53968 402.71727,129.24659 403.19574,128.66692 403.01036,128.29618 402.87929,128.03403 402.51969,127.93658 402.38861,127.67443 402.29591,127.48906 402.48131,127.23805 402.38861,127.05268 402.25754,126.79052 401.89794,126.69308 401.76686,126.43092 401.67416,126.24555 401.85956,125.99454 401.76686,125.80917 399.70477,123.74708 402.05996,126.39537 401.14511,124.56567 400.88295,124.04136 400.16376,123.84647 399.9016,123.32216 399.8089,123.13679 399.9943,122.88578 399.9016,122.70041 399.77053,122.43826 399.41093,122.34081 399.27985,122.07866 399.18715,121.89329 399.37255,121.64228 399.27985,121.45691 399.14878,121.19475 398.78918,121.09731 398.6581,120.83516 398.5654,120.64978 398.7508,120.39877 398.6581,120.2134 398.52702,119.95125 398.16742,119.8538 398.03635,119.59165 397.85098,119.22091 398.22172,118.71889 398.03635,118.34815 397.90527,118.08599 397.54567,117.98855 397.4146,117.72639 397.3219,117.54102 397.5073,117.29001 397.4146,117.10464 397.15244,116.58034 396.43325,116.38545 396.17109,115.86114 395.98572,115.4904 396.35646,114.98838 396.17109,114.61763 395.90894,114.09333 395.18974,113.89844 394.92759,113.37413 394.83489,113.18876 395.02029,112.93775 394.92759,112.75238 394.66543,112.22807 393.94624,112.03318 393.68408,111.50887 393.59138,111.3235 393.83063,111.03367 393.68408,110.88712 393.53754,110.74057 393.20888,111.03367 393.06233,110.88712 392.76923,110.59403 393.35543,109.93671 393.06233,109.64362 392.91578,109.49707 392.58713,109.79017 392.44058,109.64362 392.29403,109.49707 392.44058,109.22912 392.44058,109.02187 392.23333,108.81461 392.02608,108.60736 391.81883,108.40011 391.61158,108.19286 391.45923,107.90944 391.19708,107.77836 391.0117,107.68566 390.72187,107.92491 390.57532,107.77836 390.42877,107.63181 390.72187,107.30316 390.57532,107.15661 390.42877,107.01006 390.10012,107.30316 389.95357,107.15661 389.80702,107.01006 390.10012,106.68141 389.95357,106.53486 389.80702,106.38831 389.47837,106.68141 389.33182,106.53486 389.18527,106.38831 389.42452,106.09848 389.33182,105.91311 389.20074,105.65095 388.84114,105.55351 388.71007,105.29135 388.61737,105.10598 388.85662,104.81615 388.71007,104.6696 388.56352,104.52305 388.23486,104.81615 388.08831,104.6696 387.94177,104.52305 388.23486,104.1944 388.08831,104.04785 387.94177,103.9013 387.65193,104.14055 387.46656,104.04785 386.22306,103.4261 385.60131,101.56084 384.3578,100.93909 384.17243,100.84639 383.8826,101.08564 383.73605,100.93909 383.5895,100.79254 383.8826,100.46388 383.73605,100.31734 383.5895,100.17079 383.26085,100.46388 383.1143,100.31734 382.96775,100.17079 383.26085,99.842133 383.1143,99.695584 382.96775,99.549036 382.67792,99.788274 382.49255,99.695584 381.74644,99.322533 381.37339,98.203379 380.62729,97.830328 380.44192,97.737648 380.15209,97.976876 380.00554,97.830328 379.85899,97.68378 380.15209,97.355124 380.00554,97.208576 379.85899,97.062028 379.53033,97.355124 379.38379,97.208576 379.23724,97.062028 379.53033,96.733372 379.38379,96.586824 379.09069,96.293727 378.43338,96.879921 378.14028,96.586824 377.99373,96.440275 378.28683,96.11162 378.14028,95.965072 377.99373,95.818523 377.66508,96.11162 377.51853,95.965072 377.37198,95.818523 377.66508,95.489868 377.51853,95.34332 377.37198,95.196771 376.89678,95.136069 376.89678,95.34332 376.89678,95.757821 377.76954,95.157949 378.14028,95.34332 379.2101,95.878227 378.92319,96.425662 380.00554,95.34332"
       inkscape:connector-curvature="0"
       id="path4618"
       style="fill:none;stroke:#0000e9;stroke-width:1;stroke-miterlimit:4;stroke-opacity:1;stroke-dasharray:none;stroke-dashoffset:0" />
    <path
       d="M 430.36746,183.01036 C 430.36746,182.18136 431.19646,180.52336 430.36746,180.52336 429.53845,180.52336 430.36746,183.83937 430.36746,183.01036 430.36746,181.97411 430.57068,180.91773 430.36746,179.9016 430.32686,179.69838 429.89225,180.04815 429.7457,179.9016 429.59916,179.75506 429.8384,179.46522 429.7457,179.27985 429.44526,178.67896 427.85958,177.09329 427.2587,176.79284 427.07333,176.70014 426.82232,176.88554 426.63694,176.79284 425.64214,176.29544 425.14474,174.80324 424.14994,174.30584 423.66468,174.06321 422.14818,173.92671 421.66293,173.68408 420.32728,173.01626 421.75513,173.10841 420.41942,172.44058 420.04868,172.25521 419.54666,172.62595 419.17592,172.44058 418.91377,172.3095 418.81632,171.9499 418.55417,171.81883 418.3688,171.72613 418.11779,171.91153 417.93242,171.81883 417.67026,171.68775 417.57282,171.32815 417.31066,171.19708 417.12529,171.10438 416.83546,171.34362 416.68891,171.19708 416.54236,171.05053 416.83546,170.72187 416.68891,170.57532 416.54236,170.42877 416.25253,170.66802 416.06716,170.57532 415.3429,170.21319 414.92616,169.69395 414.2019,169.33182 414.01653,169.23912 413.76552,169.42452 413.58015,169.33182 413.318,169.20074 413.22055,168.84114 412.9584,168.71007 412.58766,168.5247 412.00799,169.00316 411.71489,168.71007 411.56835,168.56352 411.86144,168.23486 411.71489,168.08831 411.4218,167.79522 410.84213,168.27369 410.47139,168.08831 409.74713,167.72618 409.3304,167.20694 408.60613,166.84481 408.42076,166.75211 408.16975,166.93751 407.98438,166.84481 407.72223,166.71373 407.62478,166.35414 407.36263,166.22306 407.17726,166.13036 406.92625,166.31576 406.74088,166.22306 406.47872,166.09198 406.38128,165.73238 406.11913,165.60131 405.93375,165.50861 405.68274,165.69401 405.49737,165.60131 405.23522,165.47023 405.13777,165.11063 404.87562,164.97955 404.69025,164.88685 404.43924,165.07225 404.25387,164.97955 403.72956,164.7174 403.53467,163.9982 403.01036,163.73605 402.82499,163.64335 402.57398,163.82875 402.38861,163.73605 401.05296,163.06822 402.48071,163.16037 401.14511,162.49255 400.95974,162.39985 400.70873,162.58525 400.52336,162.49255 399.99905,162.23039 399.80416,161.5112 399.27985,161.24904 399.09448,161.15634 398.80465,161.39559 398.6581,161.24904 398.51155,161.10249 398.80465,160.77384 398.6581,160.62729 398.51155,160.48074 398.1829,160.77384 398.03635,160.62729 397.8898,160.48074 398.1829,160.15209 398.03635,160.00554 397.74325,159.71244 397.08594,160.29863 396.79284,160.00554 396.6463,159.85899 396.93939,159.53033 396.79284,159.38379 396.6463,159.23724 396.35646,159.47649 396.17109,159.38379 395.90894,159.25271 395.81149,158.89311 395.54934,158.76203 395.36397,158.66933 395.11296,158.85473 394.92759,158.76203 394.40328,158.49988 394.20839,157.78068 393.68408,157.51853 393.49871,157.42583 393.2477,157.61123 393.06233,157.51853 392.31623,157.14548 391.94318,156.02632 391.19708,155.65327 391.0117,155.56057 390.76069,155.74597 390.57532,155.65327 390.05102,155.39112 389.85613,154.67192 389.33182,154.40977 388.96108,154.2244 388.45906,154.59514 388.08831,154.40977 387.82616,154.27869 387.72872,153.91909 387.46656,153.78802 387.28119,153.69532 386.99136,153.93456 386.84481,153.78802 385.55838,152.50159 388.81064,153.83832 386.22306,152.54451 386.03769,152.45181 385.74785,152.69106 385.60131,152.54451 385.45476,152.39796 385.74785,152.06931 385.60131,151.92276 385.45476,151.77621 385.1261,152.06931 384.97955,151.92276 384.83301,151.77621 385.1261,151.44756 384.97955,151.30101 384.83301,151.15446 384.54317,151.39371 384.3578,151.30101 383.83349,151.03885 383.63861,150.31966 383.1143,150.0575 382.92893,149.9648 382.63909,150.20405 382.49255,150.0575 382.346,149.91096 382.63909,149.5823 382.49255,149.43575 382.346,149.2892 382.05616,149.52845 381.87079,149.43575 381.60864,149.30467 381.5112,148.94508 381.24904,148.814 381.06367,148.7213 380.77384,148.96055 380.62729,148.814 380.48074,148.66745 380.77384,148.3388 380.62729,148.19225 380.48074,148.0457 380.15209,148.3388 380.00554,148.19225 379.85899,148.0457 380.15209,147.71704 380.00554,147.5705 379.85899,147.42395 379.53033,147.71704 379.38379,147.5705 379.38379,145.91249 379.59104,147.77775 378.76203,146.94874 378.61548,146.8022 378.90858,146.47354 378.76203,146.32699 377.10403,146.32699 378.96928,146.53424 378.14028,145.70524 377.99373,145.55869 377.66508,145.85179 377.51853,145.70524 377.37198,145.55869 377.66508,145.23004 377.51853,145.08349 377.22543,144.79039 376.56812,145.37658 376.27502,145.08349 376.12848,144.93694 376.42157,144.60828 376.27502,144.46174 376.12848,144.31519 375.79982,144.60828 375.65327,144.46174 375.50672,144.31519 375.74597,144.02535 375.65327,143.83998 374.35948,141.2524 375.69617,144.50466 374.40977,143.21823 374.26322,143.07168 374.55632,142.74303 374.40977,142.59648 374.26322,142.44993 373.93456,142.74303 373.78802,142.59648 373.64147,142.44993 373.93456,142.12128 373.78802,141.97473 373.64147,141.82818 373.37352,141.97473 373.16626,141.97473 371.50826,141.97473 373.37352,142.18198 372.54451,141.35297 372.39796,141.20643 372.06931,141.49952 371.92276,141.35297 371.77621,141.20643 372.06931,140.87777 371.92276,140.73122 371.77621,140.58467 371.44756,140.87777 371.30101,140.73122 371.15446,140.58467 371.44756,140.25602 371.30101,140.10947 371.00791,139.81637 370.3506,140.40257 370.0575,140.10947 369.91096,139.96292 370.20405,139.63427 370.0575,139.48772 369.91096,139.34117 369.5823,139.63427 369.43575,139.48772 369.2892,139.34117 369.2285,138.86597 369.43575,138.86597 370.02195,138.86597 370.26475,139.69497 370.67926,140.10947"
       inkscape:connector-curvature="0"
       id="path4620"
       style="fill:none;stroke:#0000e9;stroke-width:1;stroke-miterlimit:4;stroke-opacity:1;stroke-dasharray:none;stroke-dashoffset:0" />
    <path
       d="M 368.814,200.41942 417.93242,201.66293"
       inkscape:connector-curvature="0"
       id="path4622"
       style="fill:none;stroke:#0000e9;stroke-width:1;stroke-miterlimit:4;stroke-opacity:1;stroke-dasharray:none;stroke-dashoffset:0" />
    <path
       d="M 408.60613,250.78134 373.78802,254.51186"
       inkscape:connector-curvature="0"
       id="path4624"
       style="fill:none;stroke:#0000e9;stroke-width:1;stroke-miterlimit:4;stroke-opacity:1;stroke-dasharray:none;stroke-dashoffset:0" />
    <path
       d="M 408.60613,253.8901 408.60613,299.89976"
       inkscape:connector-curvature="0"
       id="path4626"
       style="fill:none;stroke:#0000e9;stroke-width:1;stroke-miterlimit:4;stroke-opacity:1;stroke-dasharray:none;stroke-dashoffset:0" />
    <path
       d="M 373.16626,286.22121 C 393.28282,292.65922 400.19512,285.89298 409.22789,281.2472"
       inkscape:connector-curvature="0"
       id="path4628"
       style="fill:none;stroke:#0000e9;stroke-width:1;stroke-miterlimit:4;stroke-opacity:1;stroke-dasharray:none;stroke-dashoffset:0" />
    <path
       d="M 409.84964,299.278 C 400.05547,307.20272 385.41214,315.75002 370.67926,315.44356"
       inkscape:connector-curvature="0"
       id="path4630"
       style="fill:none;stroke:#0000e9;stroke-width:1;stroke-miterlimit:4;stroke-opacity:1;stroke-dasharray:none;stroke-dashoffset:0" />
    <path
       d="M 426.01519,233.99404 C 426.41105,238.45035 425.12581,243.08067 426.73367,247.39767 426.48201,253.51719 426.69857,259.64155 426.73413,265.76287 425.00389,272.86238 425.01331,280.38129 422.24561,287.21591 421.17694,289.53072 417.78338,289.58012 416.32224,287.64462 414.95314,285.59566 414.80472,282.99187 413.87098,280.7147 413.12177,278.08883 412.58672,275.39566 412.37864,272.67066 410.67043,269.19141 411.64248,265.18414 410.64898,261.53929 410.76276,258.20939 410.40487,254.88614 410.37688,251.55888 410.34768,252.18377 410.45218,252.97256 411.09343,253.26835"
       inkscape:connector-curvature="0"
       id="path4632"
       style="fill:none;stroke:#0000e9;stroke-width:1;stroke-miterlimit:4;stroke-opacity:1;stroke-dasharray:none;stroke-dashoffset:0" />
    <path
       d="M 381.24904,386.3233 C 379.61378,381.13902 385.68591,377.40327 390.17132,377.17232 395.44737,376.33668 398.86473,380.84301 400.08796,385.35638 405.51916,395.17349 417.3689,398.26504 427.71555,399.56228 439.62302,401.38439 452.32882,404.15625 463.93831,399.42004 474.06149,397.00462 484.40644,394.52497 493.39666,389.06857 501.86751,387.00972 510.23293,383.93519 518.98185,383.42353 524.83266,384.2748 521.94871,392.15249 525.49553,395.02783"
       inkscape:connector-curvature="0"
       id="path4634"
       style="fill:none;stroke:#0000e9;stroke-width:1;stroke-miterlimit:4;stroke-opacity:1;stroke-dasharray:none;stroke-dashoffset:0" />
    <path
       d="M 395.25408,378.78037 C 405.38587,382.76862 414.59724,385.66415 422.90966,386.77065 435.26131,390.5909 447.58792,385.92736 459.48862,382.90283 472.01215,379.08391 484.46976,373.86455 497.67404,373.21473 504.82365,371.29352 513.44386,380.79933 509.34827,385.53185 L 508.70822,384.45805"
       inkscape:connector-curvature="0"
       id="path4636"
       style="fill:none;stroke:#0000e9;stroke-width:1;stroke-miterlimit:4;stroke-opacity:1;stroke-dasharray:none;stroke-dashoffset:0" />
    <path
       d="M 536.68707,314.20006 C 539.34505,314.84398 537.30442,317.30002 537.93057,318.55232 538.06165,318.81448 538.42124,318.91192 538.55232,319.17407 538.83731,319.74404 538.55232,322.72278 538.55232,323.52634 538.55232,323.90576 538.79458,325.77109 538.55232,326.01335 538.40577,326.15989 538.07712,325.8668 537.93057,326.01335 537.63747,326.30644 538.22367,326.96375 537.93057,327.25685 537.78402,327.4034 537.45537,327.1103 537.30882,327.25685 537.16227,327.4034 537.45537,327.73205 537.30882,327.8786 537.16227,328.02515 536.83361,327.73205 536.68707,327.8786 536.54052,328.02515 536.83361,328.35381 536.68707,328.50035 536.54052,328.6469 536.21186,328.35381 536.06531,328.50035 535.91876,328.6469 536.21186,328.97556 536.06531,329.12211 535.77222,329.4152 535.11491,328.82901 534.82181,329.12211 534.67526,329.26866 534.91451,329.55849 534.82181,329.74386 534.55966,330.26817 533.84046,330.46306 533.5783,330.98736 533.4856,331.17273 533.72485,331.46257 533.5783,331.60912 533.43176,331.75566 533.1031,331.46257 532.95655,331.60912 532.81,331.75566 533.04925,332.0455 532.95655,332.23087 532.82548,332.49302 532.54205,332.64537 532.3348,332.85262 531.83036,333.35706 530.78629,334.08439 530.46954,334.71788 530.37684,334.90325 530.61609,335.19308 530.46954,335.33963 530.323,335.48618 529.99434,335.19308 529.84779,335.33963 529.70124,335.48618 529.99434,335.81483 529.84779,335.96138 529.70124,336.10793 529.43329,335.96138 529.22604,335.96138 529.22604,336.16863 529.37259,336.43658 529.22604,336.58313 529.07949,336.72968 528.75084,336.43658 528.60429,336.58313 528.45774,336.72968 528.75084,337.05834 528.60429,337.20488 528.45774,337.35143 528.12908,337.05834 527.98254,337.20488 527.83599,337.35143 528.12908,337.68009 527.98254,337.82664 527.83599,337.97318 527.50733,337.68009 527.36078,337.82664 527.21424,337.97318 527.50733,338.30184 527.36078,338.44839 527.21424,338.59494 526.88558,338.30184 526.73903,338.44839 526.59248,338.59494 526.88558,338.92359 526.73903,339.07014 526.59248,339.21669 526.26383,338.92359 526.11728,339.07014 525.97073,339.21669 526.26383,339.54534 526.11728,339.69189 525.97073,339.83844 525.6809,339.59919 525.49553,339.69189 525.23337,339.82297 525.13593,340.18257 524.87378,340.31364 524.6884,340.40634 524.39857,340.1671 524.25202,340.31364 524.10547,340.46019 524.39857,340.78885 524.25202,340.9354 524.10547,341.08195 523.81564,340.8427 523.63027,340.9354 523.36812,341.06647 523.27067,341.42607 523.00852,341.55715 522.82315,341.64985 522.57214,341.46445 522.38677,341.55715 521.86246,341.8193 521.66757,342.5385 521.14326,342.80065 520.95789,342.89335 520.72876,342.80065 520.52151,342.80065 520.31426,343.0079 520.16191,343.29133 519.89976,343.42241 519.71439,343.51511 519.48526,343.42241 519.27801,343.42241 519.07076,343.62966 518.91841,343.91308 518.65625,344.04416 518.47088,344.13686 518.18105,343.89761 518.0345,344.04416 517.88795,344.19071 518.18105,344.51936 518.0345,344.66591 517.88795,344.81246 517.5593,344.51936 517.41275,344.66591 517.2662,344.81246 517.5593,345.14111 517.41275,345.28766 517.2662,345.43421 516.93755,345.14111 516.791,345.28766 515.50457,346.57409 518.75683,345.23736 516.16925,346.53117 515.98388,346.62387 515.69404,346.38462 515.54749,346.53117 515.40095,346.67771 515.69404,347.00637 515.54749,347.15292 514.26107,348.43935 515.59779,345.18709 514.30399,347.77467 514.21129,347.96004 514.45054,348.24987 514.30399,348.39642 514.15744,348.54297 513.86761,348.30372 513.68224,348.39642 513.42008,348.5275 513.32264,348.8871 513.06049,349.01817 512.87511,349.11087 512.58528,348.87163 512.43873,349.01817 512.29219,349.16472 512.53143,349.45456 512.43873,349.63993 512.17658,350.16423 511.45738,350.35912 511.19523,350.88343 511.10253,351.0688 511.34178,351.35863 511.19523,351.50518 511.04868,351.65173 510.72003,351.35863 510.57348,351.50518 510.42693,351.65173 510.72003,351.98039 510.57348,352.12693 510.42693,352.27348 510.09827,351.98039 509.95173,352.12693 509.80518,352.27348 510.09827,352.60214 509.95173,352.74869 509.80518,352.89524 509.47652,352.60214 509.32997,352.74869 509.03688,353.04178 509.62307,353.69909 509.32997,353.99219 509.18342,354.13874 508.85477,353.84564 508.70822,353.99219 508.41512,354.28529 509.00132,354.9426 508.70822,355.2357 508.56167,355.38224 508.23302,355.08915 508.08647,355.2357 507.79906,355.52311 508.27417,356.72555 508.08647,357.10095 507.95539,357.3631 507.59579,357.46055 507.46472,357.7227 507.27935,358.09344 507.65009,358.59547 507.46472,358.96621 507.33364,359.22836 506.97404,359.32581 506.84296,359.58796 506.65759,359.9587 507.13606,360.53837 506.84296,360.83146 506.69642,360.97801 506.36776,360.68492 506.22121,360.83146 505.95966,361.09302 506.33508,363.09074 506.22121,363.31847 506.12851,363.50384 505.74601,363.17192 505.59946,363.31847 505.30636,363.61157 505.78483,364.19124 505.59946,364.56198 505.46838,364.82413 505.10879,364.92157 504.97771,365.18373 504.79234,365.55447 505.27081,366.13414 504.97771,366.42723 504.83116,366.57378 504.5025,366.28068 504.35596,366.42723 503.94145,366.84173 504.77046,368.49974 504.35596,368.91424 504.20941,369.06079 503.88075,368.76769 503.7342,368.91424 503.44679,369.20165 503.9219,370.4041 503.7342,370.7795 503.60313,371.04165 503.24353,371.1391 503.11245,371.40125 502.77854,372.06908 503.44637,371.97693 503.11245,372.64475 502.98138,372.90691 502.62178,373.00435 502.4907,373.26651 502.303,373.6419 502.77811,374.84435 502.4907,375.13176 501.45194,376.17053 501.86895,372.29414 501.86895,372.023"
       inkscape:connector-curvature="0"
       id="path4638"
       style="fill:none;stroke:#0000e9;stroke-width:1;stroke-miterlimit:4;stroke-opacity:1;stroke-dasharray:none;stroke-dashoffset:0" />
    <path
       d="M 422.28468,280.62544 C 428.87134,285.68797 433.46017,292.83278 439.5268,298.38624 444.26987,301.09429 448.61847,304.33579 452.772,307.87597 457.40204,311.60186 462.05415,315.32276 467.05083,318.55232 472.89876,325.22798 480.61234,330.85202 483.56165,339.58793 485.78941,345.5674 484.08456,351.9858 482.93722,358.00139 481.9675,363.13939 477.66007,366.48937 472.96158,368.1225 467.54024,370.09609 461.72848,369.78702 456.05178,369.4883 450.289,367.8169 445.45902,363.98227 440.12538,361.32603 434.35853,357.71886 429.78027,352.56774 425.1474,347.69033 421.68024,342.54916 419.74113,336.50353 418.0576,330.59974 416.94768,324.86612 415.0851,319.15051 414.87373,313.32136 415.87087,305.76813 416.18028,298.13866 417.26303,290.60897 413.55748,284.47977 410.31516,298.38758 405.70564,305.79225 398.35324,314.96072 396.9521,327.24712 390.25736,336.80749 387.23344,343.69465 388.79716,351.4795 389.93099,358.61159 391.35016,365.44402 391.8577,372.52599 394.44316,379.06877 394.68121,378.37453 394.16255,377.70152 394.30575,376.99702"
       inkscape:connector-curvature="0"
       id="path4640"
       style="fill:none;stroke:#0000e9;stroke-width:1;stroke-miterlimit:4;stroke-opacity:1;stroke-dasharray:none;stroke-dashoffset:0" />
    <path
       d="M 507.46472,318.55232 C 501.67378,331.43206 492.88958,336.82865 483.83814,341.55715"
       inkscape:connector-curvature="0"
       id="path4642"
       style="fill:none;stroke:#0000e9;stroke-width:1;stroke-miterlimit:4;stroke-opacity:1;stroke-dasharray:none;stroke-dashoffset:0" />
    <path
       d="M 491.92091,334.09612 C 504.53194,336.49513 510.65113,342.14007 516.791,347.77467"
       inkscape:connector-curvature="0"
       id="path4644"
       style="fill:none;stroke:#0000e9;stroke-width:1;stroke-miterlimit:4;stroke-opacity:1;stroke-dasharray:none;stroke-dashoffset:0" />
    <path
       d="M 430.17382,77.74917 C 438.92843,78.005434 447.29505,81.432315 455.54908,84.005551 458.83943,85.283405 455.74494,89.400481 456.01433,91.809472 451.14259,119.34432 447.32006,147.08387 441.67623,174.47048 441.40996,176.54006 439.26391,175.39565 439.20865,173.92645 437.88084,170.93534 434.9262,169.8892 432.69969,167.88379 428.0654,166.25761 424.81965,161.82834 421.70245,158.18835 421.14416,156.01627 418.66497,155.05149 417.88772,152.82771 413.97863,146.46497 410.82682,139.71702 406.3918,133.70686 399.25322,122.30314 395.14502,108.63399 383.98985,100.39718 382.47376,98.887132 378.11422,96.239691 380.95826,93.914725 388.0343,88.304548 396.35114,84.004526 404.87628,81.110518 413.12879,78.998773 421.63977,77.697135 430.17382,77.74917 z"
       inkscape:connector-curvature="0"
       id="path4646"
       style="fill:#dbc198;stroke:none" />
    <path
       d="M 430.54298,77.418865 C 439.31384,78.014082 447.99001,80.564436 455.93767,84.102699 458.19151,85.811198 455.88637,89.369918 456.12103,91.712809 451.91139,119.39924 447.65909,147.12204 442.00654,174.5482 441.08778,176.81632 438.69993,174.98554 438.19831,173.46013 433.41263,167.99665 425.91137,165.47595 421.9813,158.95819 415.35224,150.94638 411.13844,141.26396 405.32317,132.73537 398.72118,121.44624 393.79526,108.67279 383.23154,100.32654 381.33286,98.783817 378.04166,95.317784 381.15255,93.292972 387.45093,88.870651 394.14266,84.387627 401.45664,82.023716 408.04761,79.131864 415.69016,78.546274 422.8663,77.641948 425.41801,77.430654 427.98298,77.309889 430.54298,77.418865 z"
       inkscape:connector-curvature="0"
       id="path4648"
       style="fill:#b1daa9;stroke:none" />
    <path
       d="M 458.44411,84.996468 C 472.1518,88.518086 485.24902,94.467703 497.76993,101.04544 506.33266,106.28294 515.6264,110.35927 524.27211,115.34574 526.37202,117.49101 522.73728,120.38402 522.3774,122.64711 510.15547,147.34347 495.65173,171.42747 476.3972,191.21893 471.44791,189.16855 467.15584,185.7426 462.54379,183.15558 459.60365,181.54354 456.29108,180.83385 453.23693,179.40564 449.94241,178.41402 446.73307,176.83924 443.50263,175.63626 442.98008,170.02352 444.91568,164.21633 445.44324,158.56478 449.41483,134.09361 453.44852,109.55358 457.66692,85.171336 457.8768,84.993023 458.18335,84.9654 458.44411,84.996468 z"
       inkscape:connector-curvature="0"
       id="path4650"
       style="fill:#dbc198;stroke:none" />
    <path
       d="M 526.93399,116.51153 C 531.17704,118.04602 535.47075,119.97592 539.09701,122.65133 537.90757,125.89833 534.48108,128.52763 532.52006,131.54079 515.55312,152.45002 498.62451,173.43311 481.41008,194.11396 479.8283,194.35601 477.91116,192.10201 477.54356,190.8109 494.62674,172.49223 508.21995,151.21219 519.60654,128.97896 522.05234,125.10983 523.36656,120.4707 525.86535,116.74468 526.1618,116.50719 526.56869,116.45851 526.93399,116.51153 z"
       inkscape:connector-curvature="0"
       id="path4652"
       style="fill:#b5acba;stroke:none" />
    <path
       d="M 540.86512,123.21479 C 550.56384,130.12701 561.71191,135.29365 572.10816,141.32332 581.344,148.68527 591.57605,155.34859 598.6492,165.02762 606.55778,175.23084 613.22843,186.71723 616.15169,199.43555 617.24317,202.90972 617.81462,206.74487 619.2836,209.91035 618.96347,211.83213 620.26948,213.95198 619.96364,216.06958 620.14285,218.95527 622.06993,221.48248 620.93513,224.54095 621.73588,233.55662 622.3586,242.83287 621.61517,251.91747 618.72241,253.63638 614.55652,252.27566 611.25911,252.71409 584.84698,252.11262 558.38623,251.92283 532.02458,250.24651 530.23913,249.1673 528.73843,251.37244 526.75912,250.84884 523.78341,250.89104 518.94403,252.05276 520.1994,247.33767 519.25099,240.6412 520.64256,233.04769 516.3642,227.31941 513.60745,222.16106 508.94858,218.57668 504.8035,214.67064 499.80445,210.53607 494.39005,206.43077 489.51971,202.00992 486.75524,200.32878 485.43446,197.2117 482.40099,196.09579 480.51559,194.33711 484.41296,192.40834 484.97795,190.7671 503.10408,168.27701 521.09375,145.5806 539.75762,123.58396 540.05334,123.31819 540.46615,123.15572 540.86512,123.21479 z"
       inkscape:connector-curvature="0"
       id="path4654"
       style="fill:#bf9784;stroke:none" />
    <path
       d="M 525.92364,251.15971 C 529.79016,250.88566 534.72309,252.68042 534.48573,257.32854 535.64552,262.61461 535.67323,268.1421 533.57896,273.15419 533.16347,275.06632 533.60656,276.8246 532.41318,278.49737 531.22813,282.76435 530.50409,286.96053 528.95673,291.12146 527.5415,294.98649 528.22265,300.1939 523.98066,302.4154 523.14762,304.84708 520.03081,305.94092 520.03642,308.84665 517.08365,309.19641 513.75496,307.27729 510.76843,306.51508 510.19082,303.09407 512.2488,299.35237 512.5754,295.80928 514.73883,283.55691 517.37651,271.31757 519.68669,259.14534 519.98139,256.52008 519.67579,253.383 520.91076,251.14028 522.58159,251.15248 524.25324,251.11508 525.92364,251.15968 z"
       inkscape:connector-curvature="0"
       id="path4656"
       style="fill:#c7afc8;stroke:none" />
    <path
       d="M 378.31581,97.178923 C 383.71089,99.612183 387.36486,104.83266 391.46189,108.94347 395.99926,114.31842 398.4463,121.06773 401.8841,127.12017 405.8283,134.69833 410.92616,141.47838 414.91267,149.06393 418.07123,155.72634 422.9136,161.37737 428.40547,166.23208 431.90319,168.94244 437.04894,170.71003 438.5869,175.13109 437.35229,177.38919 434.33742,177.7213 432.9717,180.06625 430.98874,181.79318 429.2424,177.74247 427.53137,177.11293 423.52579,173.08918 417.88829,171.68067 413.07801,168.83999 407.12157,166.31291 401.50721,163.00347 396.52149,159.0044 389.15922,155.17459 382.7589,149.31727 376.41169,143.94634 374.64285,141.61367 370.74123,140.7957 369.73651,138.17576 370.2062,128.11822 369.34875,117.87786 370.71878,107.92358 371.39717,106.7828 372.75861,106.01755 372.02057,104.50394 372.13551,102.41154 373.54108,100.37381 375.42078,99.76308 375.50328,98.398564 376.84711,96.900955 378.31581,97.178923 z"
       inkscape:connector-curvature="0"
       id="path4658"
       style="fill:#746bdb;stroke:none" />
    <path
       d="M 371.04908,141.90621 C 376.18398,143.67738 379.40204,148.4734 383.90534,151.3174 388.68897,155.54794 394.64586,158.15851 399.76626,161.95772 407.59544,166.59529 415.63963,171.19344 424.01459,174.62592 426.491,176.7913 431.44016,179.51626 429.1829,183.42759 425.55689,189.52139 420.23631,194.51116 417.25303,201.06981 401.59537,201.33415 385.64805,200.62433 369.88435,200.28042 367.28085,200.02256 369.28866,196.03238 368.63979,194.34712 368.96955,177.02434 369.05785,159.66306 369.96102,142.37253 370.15369,141.97261 370.64319,141.83321 371.04908,141.90621 z"
       inkscape:connector-curvature="0"
       id="path4660"
       style="fill:#a76986;stroke:none" />
    <path
       d="M 389.13818,201.05038 C 398.09956,201.48513 407.31194,200.89484 416.10668,202.35217 414.44095,206.05465 412.53136,209.81471 411.77384,213.87402 409.5803,219.0787 408.84296,224.63244 407.4993,230.03957 406.08856,234.89777 406.43673,240.23887 407.88789,245.01991 407.73907,246.75488 408.89029,248.9444 408.12105,250.3048 396.67443,252.08272 385.09553,253.17935 373.55552,254.26847 371.95625,251.92907 372.94858,248.27326 372.26683,245.5073 371.67451,230.66596 368.57557,216.00797 368.5815,201.14753 372.68983,200.00011 377.70961,201.18123 382.16019,200.90825 384.48619,200.95565 386.81218,201.00295 389.13818,201.05038 z"
       inkscape:connector-curvature="0"
       id="path3094"
       style="fill:#bc777a;stroke:none" />
    <path
       d="M 408.35421,251.74261 C 408.24063,261.78987 408.50076,272.0361 407.81017,281.95587 400.02408,286.30056 391.26068,290.02681 382.16915,288.08546 379.10445,287.45195 375.56052,287.24372 372.93377,285.68638 372.93377,275.47929 372.93377,265.27219 372.93377,255.06509 377.17748,253.72671 382.33942,254.06514 386.92319,253.27756 393.89498,252.57291 400.85469,251.66955 407.84903,251.23743 L 408.28868,251.67708 408.35418,251.74258 z"
       inkscape:connector-curvature="0"
       id="path4663"
       style="fill:#68b88b;stroke:none" />
    <path
       d="M 407.73245,283.00508 C 408.44338,288.67782 408.21222,294.79739 407.92675,300.49185 397.74,307.8633 386.03904,314.81595 373.08921,314.94759 371.87986,311.3012 373.08861,306.65294 372.78521,302.63119 372.92069,297.47001 372.92986,292.29541 373.20578,287.14361 375.49549,286.06112 378.38588,288.41204 380.91062,288.29691 388.74157,289.98241 396.81373,288.30491 403.76878,284.42345 405.07963,284.05658 406.34504,282.75771 407.73245,283.00508 z"
       inkscape:connector-curvature="0"
       id="path4665"
       style="fill:#c6bdae;stroke:none" />
    <path
       d="M 425.33581,235.26617 C 426.7453,241.23761 425.59922,247.74706 426.09992,253.8989 426.47977,262.42631 425.72287,271.02099 423.89801,279.27456 421.65896,282.12517 423.53199,288.13021 418.72969,288.79514 417.34991,288.39841 417.88764,286.5591 416.45641,286.13327 411.87581,275.89614 411.37159,264.23754 410.82178,253.14155 413.58213,245.8284 418.80706,239.68009 424.98607,235.11074 L 425.33581,235.26617 z"
       inkscape:connector-curvature="0"
       id="path4667"
       style="fill:none;stroke:none" />
    <path
       d="M 415.4655,295.44012 C 417.17352,301.00997 414.31362,306.77177 414.61059,312.46058 414.78023,320.27044 416.88451,327.97623 418.96285,335.48484 421.54534,342.10558 424.32493,349.09945 430.34869,353.30192 433.85581,358.16617 439.58267,361.18414 444.59034,364.35778 450.36954,367.30722 456.34013,371.38299 463.18497,369.95322 467.49027,369.77421 472.14724,369.91042 475.484,366.90275 481.10938,365.79888 483.38649,359.33923 484.03433,354.28467 485.06978,349.97229 484.59876,345.35584 485.14059,341.06118 489.08708,339.44423 492.49296,335.03145 497.0316,335.5237 503.6028,337.66055 509.57509,341.43666 514.5378,346.21006 512.96741,349.67186 508.54013,351.7666 507.81511,355.9638 505.77286,361.04502 504.44241,366.39295 502.74394,371.44931 498.35912,374.21516 492.41125,372.10485 487.86075,374.34434 486.38284,373.83045 484.62872,374.92804 483.13932,374.86895 481.5212,376.36181 478.98378,375.78647 477.25211,377.23938 470.29954,378.7983 463.60579,380.95522 457.00631,383.63177 451.25144,384.23774 445.7413,386.39347 439.96641,387.07083 437.64138,386.95438 435.96555,389.01189 433.45745,388.04232 427.11804,387.85724 421.00807,386.37318 415.29063,383.67063 411.55477,382.16764 407.27793,382.32956 403.74936,380.42586 401.7662,381.52071 399.51477,381.40757 397.80385,379.76524 392.29459,377.06113 393.06803,370.14867 391.50568,365.08795 389.7333,355.08826 386.66735,343.82303 391.81949,334.33848 396.3127,328.14094 398.21773,320.29681 401.4955,313.37378 403.44902,309.54585 405.78376,305.85156 408.78166,302.66799 411.44126,300.72977 412.30835,296.89825 415.11576,295.28468 L 415.4655,295.44012 z"
       inkscape:connector-curvature="0"
       id="path4673"
       style="fill:none;stroke:none" />
    <path
       d="M 391.23659,377.49196 C 393.20495,377.68718 394.36825,379.72745 396.21061,380.09555 397.06949,381.2535 395.3993,384.14072 397.80385,383.41804 400.78518,384.76188 400.83255,389.17326 403.7105,390.82077 414.33426,399.60293 428.90084,399.98622 441.90939,401.81801 450.06992,402.84131 458.21514,401.95111 466.00228,399.3893 475.03723,396.76256 484.46229,394.84595 492.54332,389.86872 497.81123,387.99489 503.45436,386.90467 508.90318,385.76904 510.90386,386.65696 511.61799,383.44482 513.78004,384.03979 516.9417,384.10539 521.83207,383.36449 522.60115,387.57601 523.83977,391.03021 524.35757,395.46027 520.95401,397.88251 515.9652,402.62072 511.78936,408.73657 505.54183,411.82434 502.98031,411.92124 500.54839,413.84294 498.13909,413.88389 499.55577,416.53676 495.22873,417.65192 493.41766,418.17787 483.09479,419.44835 473.95978,425.47185 463.35984,425.2503 457.71964,425.62592 452.59485,423.11925 447.36915,421.5975 441.40374,419.61877 434.62474,421.32186 428.71659,419.51852 423.69937,419.60322 419.54493,415.69877 415.15462,413.68959 407.48203,410.10721 400.97724,404.55562 394.05391,399.87504 391.89394,397.664 389.92328,395.32775 387.31178,393.75467 384.46152,390.36633 379.56801,385.594 382.70693,380.9116 384.57377,378.23298 388.19618,377.56319 391.23659,377.49196 z"
       inkscape:connector-curvature="0"
       id="path3108"
       style="fill:none;stroke:none" />
    <path
       d="M 498.83856,373.8586 C 500.88921,373.39005 501.69049,375.96426 503.63771,375.02439 507.87167,374.92769 510.76152,380.50724 509.27234,384.09808 507.18005,385.41526 504.47242,385.57184 502.37478,386.75996 500.79298,386.03307 499.56903,387.89797 498.0808,387.16798 494.3028,387.90301 490.71732,389.2915 487.60817,391.67568 483.43224,394.29499 478.40335,394.59549 473.9325,396.52332 468.48927,397.60073 463.28398,399.43016 457.99722,400.76881 453.00237,402.47595 447.15303,402.3138 441.96768,401.37113 439.0918,400.30243 435.55565,400.98862 432.54425,399.85561 423.67666,398.86022 414.64324,397.12373 406.80879,392.60233 404.0585,391.52941 403.2503,388.23656 401.30121,386.17706 400.20299,384.87941 398.35737,381.06775 401.67037,381.59164 414.53575,382.95601 426.56155,390.38556 439.81098,388.02289 445.47999,387.59583 450.58039,384.82699 456.26798,384.15637 464.18769,381.65909 472.16177,379.20532 480.14714,376.81192 486.19253,375.12369 492.51663,373.60542 498.83856,373.8586 z"
       inkscape:connector-curvature="0"
       id="path4676"
       style="fill:none;stroke:none" />
    <path
       d="M 478.24237,364.56198 C 478.86412,365.39098 479.37489,366.31625 480.10763,367.04899 480.25418,367.19554 480.54401,366.95629 480.72938,367.04899 481.72418,367.54639 482.22159,369.03859 483.21639,369.536 483.40176,369.6287 483.69159,369.38945 483.83814,369.536 483.83814,371.194 483.63089,369.32875 484.45989,370.15775 484.60644,370.3043 484.31335,370.63295 484.45989,370.7795 484.75299,371.0726 485.4103,370.4864 485.7034,370.7795 485.84995,370.92605 485.55685,371.2547 485.7034,371.40125 485.84995,371.5478 486.1786,371.2547 486.32515,371.40125 486.4717,371.5478 486.1786,371.87646 486.32515,372.023 486.4717,372.16955 486.80035,371.87646 486.9469,372.023 487.09345,372.16955 486.80035,372.49821 486.9469,372.64476 488.19366,373.89151 486.9439,371.398 488.19041,372.64476 488.33695,372.7913 488.04386,373.11996 488.19041,373.26651 488.33695,373.41306 488.66561,373.11996 488.81216,373.26651 489.60766,374.06201 488.39244,373.88826 488.19041,373.88826"
       inkscape:connector-curvature="0"
       id="path4678"
       style="fill:none;stroke:#0000e9;stroke-width:1;stroke-miterlimit:4;stroke-opacity:1;stroke-dasharray:none;stroke-dashoffset:0" />
    <path
       d="M 496.29327,335.38769 C 503.19725,337.25081 509.3794,341.33345 514.5378,346.21006 512.98915,349.65075 508.57078,351.73392 507.83454,355.92494 505.74827,360.9929 504.49439,366.43151 502.62737,371.44931 499.63153,374.43746 494.54656,372.45724 490.77522,373.08141 486.947,372.84252 484.16516,369.15531 480.98262,367.1942 479.5858,366.63733 478.38794,364.27739 480.55517,364.16315 484.54444,357.45406 484.93169,349.1523 484.888,341.48863 488.3357,339.36084 492.08356,335.89215 496.29327,335.38769 z"
       inkscape:connector-curvature="0"
       id="path4680"
       style="fill:#7c797c;stroke:none" />
    <path
       d="M 510.9433,307.25341 C 514.4241,307.47993 517.36068,309.56923 520.50274,310.47875 526.25222,311.28889 532.19143,312.70227 537.29004,315.45276 538.64097,318.24068 538.38458,321.85795 538.18381,324.91505 534.06929,331.23703 528.25161,336.45211 522.51177,341.31765 520.26014,342.82902 517.73442,344.12517 515.68416,345.76318 510.92567,343.34364 507.15022,339.16404 502.0639,337.1558 500.64016,335.80044 497.24718,336.20867 496.81787,334.12476 500.13507,329.62465 504.33748,325.69508 506.59104,320.40735 508.86361,316.45749 509.2607,311.88343 510.0301,307.58371 510.20092,307.24635 510.62559,307.23068 510.9433,307.25341 z"
       inkscape:connector-curvature="0"
       id="path3116"
       style="fill:#c9ca98;stroke:none" />
    <path
       d="M 539.07758,315.33619 C 555.68252,321.50951 572.92057,327.97712 586.40846,339.72052 586.25828,342.75521 582.76955,345.00204 581.31786,347.58957 577.99745,351.40395 574.60767,355.08676 571.62242,359.11142 566.04506,365.28436 557.88324,368.0704 552.28981,374.11119 546.40735,379.82942 539.37002,384.11624 532.1023,387.80916 529.49824,389.04199 528.11894,392.68997 525.28246,393.17177 523.21232,390.54924 524.52679,385.7079 520.7359,384.19523 518.03218,382.87753 514.62833,382.65254 511.97308,383.7872 509.38628,382.45479 511.10747,378.53968 508.53401,376.87021 507.46603,374.4346 502.05743,374.27034 503.92004,370.83063 506.52392,363.41759 507.70008,354.75005 513.46917,349.00795 516.95332,347.48516 518.60756,343.82973 522.11535,342.20404 528.98052,338.26869 533.26325,331.2764 539.09701,326.04198 539.01321,322.51698 538.2834,318.87169 538.59184,315.4139 L 539.01929,315.3168 539.07759,315.3362 z"
       inkscape:connector-curvature="0"
       id="path3118"
       style="fill:#d5be93;stroke:none" />
    <path
       d="M 415.4655,295.44012 C 417.17352,301.00997 414.31362,306.77177 414.61059,312.46058 414.78023,320.27044 416.88451,327.97623 418.96285,335.48484 421.54534,342.10558 424.32493,349.09945 430.34869,353.30192 433.85581,358.16617 439.58267,361.18414 444.59034,364.35778 450.34873,367.28585 456.29014,371.37016 463.10725,369.95322 467.43355,369.7717 472.06652,369.88132 475.54229,366.9999 479.38868,364.67843 481.88061,369.13694 484.53827,371.04129 486.65016,371.2231 487.77698,374.6756 484.92686,374.7718 482.95274,374.25034 482.03798,376.30608 479.93342,375.99587 473.64895,378.9563 466.38264,379.30539 460.11507,382.50484 455.18778,384.64743 449.7162,384.30869 444.68568,386.28372 441.8746,387.21025 438.75103,386.67816 436.25533,388.12004 429.03624,388.13064 421.85615,386.86158 415.34197,383.68774 411.59108,382.17093 407.29447,382.33573 403.74936,380.42586 401.7662,381.52071 399.51477,381.40757 397.80385,379.76524 392.29459,377.06113 393.06803,370.14867 391.50568,365.08795 389.7333,355.08826 386.66735,343.82303 391.81949,334.33848 396.3127,328.14094 398.21773,320.29681 401.4955,313.37378 403.44902,309.54585 405.78376,305.85156 408.78166,302.66799 411.44126,300.72977 412.30835,296.89825 415.11576,295.28468 L 415.4655,295.44012 z"
       inkscape:connector-curvature="0"
       id="path4684"
       style="fill:none;stroke:none" />
    <path
       d="M 415.53678,289.35618 C 418.62162,296.59945 414.30727,305.29136 415.00389,313.21066 415.23679,321.86729 417.88987,330.30776 420.45446,338.52789 425.65814,352.80362 439.19136,361.75827 452.28026,368.1707 459.1446,371.0047 467.17394,370.01726 474.08679,367.81672 478.68809,362.8274 485.91446,371.20567 486.54232,374.33431 480.14911,376.28885 473.82438,378.28889 467.25523,380.03763 458.73412,383.45226 449.86369,384.96073 441.14026,387.46248 432.8208,388.74759 423.9387,387.8667 416.2447,384.13847 409.82674,380.96328 401.91932,382.79797 396.00271,378.94148 391.38589,374.57834 392.36844,367.55503 390.623,361.89674 389.16514,352.66215 386.47386,342.25946 392.1333,333.84973 397.68022,323.65404 400.49166,312.04648 407.6409,302.69088 410.4279,298.4762 410.80991,291.81904 415.53678,289.35618 z"
       inkscape:connector-curvature="0"
       id="path4686"
       style="fill:none;stroke:none" />
    <path
       d="M 425.43566,234.71654 C 426.21984,235.67845 425.71771,237.1759 425.92339,238.33674 425.98579,241.42389 425.85899,244.52962 426.40426,247.56242 426.52769,254.09391 426.54704,260.64336 426.25313,267.16785 425.62115,271.68928 424.82954,276.20471 423.98621,280.68693 423.78429,281.31621 423.03755,281.02066 422.70849,280.79684 422.38988,281.31155 423.84359,281.76767 423.55343,282.60351 423.02101,284.5787 422.59755,286.8763 421.0186,288.30516 419.17701,289.52324 416.41431,288.49151 415.81843,286.34736 414.0989,281.80901 413.07456,276.99494 412.29136,272.20231 411.19752,268.41783 411.26944,264.39569 410.821,260.49139 410.7635,257.9975 410.41627,255.4425 410.8037,252.97555 412.61926,249.17373 413.99726,244.96644 417.24038,242.06686 419.73111,239.5758 422.12048,236.94947 424.87922,234.75089 425.04978,234.66489 425.25515,234.61908 425.43564,234.71659 z"
       inkscape:connector-curvature="0"
       id="path4688"
       style="fill:#a7b0c5;stroke:none" />
    <path
       d="M 415.50688,289.22443 C 416.72707,289.54983 417.49323,290.8911 416.97939,292.10644 416.14873,299.13056 415.47809,306.19471 414.86115,313.22631 414.94045,318.63791 416.53087,323.8864 417.66148,329.15697 419.30716,335.4578 421.16109,341.91853 424.86307,347.37437 430.25478,353.56092 436.16015,359.6525 443.5904,363.39695 447.6226,365.64795 451.56114,368.30117 456.04353,369.53523 459.92058,369.80585 463.89291,369.81668 467.76969,369.49403 471.5407,368.94517 475.1972,367.56597 478.39289,365.53061 479.33754,365.75524 479.63101,367.22866 480.71861,367.39884 481.93903,368.2836 483.21293,369.48946 483.74117,370.84044 485.41609,370.85364 486.71353,372.36049 487.60181,373.62944 487.89672,374.80352 486.14275,374.58377 485.4633,374.91117 474.36098,377.522 463.71033,381.78232 452.64409,384.60959 445.61899,386.46236 438.45098,388.38787 431.10741,387.91103 426.3546,387.82953 421.78746,386.39011 417.13817,385.60535 410.23798,384.0015 403.4109,381.92414 396.91126,379.11813 395.38756,378.27262 393.6076,377.2627 393.35432,375.369 391.36899,367.01263 389.90412,358.52161 388.83966,349.99261 388.25893,344.61472 388.78386,338.82144 391.98586,334.2812 396.8004,325.81884 398.99442,316.0391 404.35088,307.88875 406.37934,305.39784 407.38948,302.26729 409.37932,299.77593 409.85278,299.43883 409.22557,298.68512 409.68158,298.18221 411.03674,295.26862 412.12739,292.05371 414.38715,289.69844 414.6963,289.4274 415.07293,289.15882 415.50688,289.22444 z"
       inkscape:connector-curvature="0"
       id="path4690"
       style="fill:#95c990;stroke:none" />
    <path
       d="M 500.70186,373.15543 C 501.8494,373.03273 501.68999,374.29325 501.86966,375.02393 501.99549,375.74185 502.6435,375.33199 502.68713,374.8041 502.85836,373.69951 504.05864,374.05644 504.63118,374.61863 507.64006,376.50782 510.62899,379.74554 510.19544,383.56266 509.82527,384.86766 508.07091,384.74019 507.05361,385.24005 502.10031,386.8032 496.92187,387.70168 492.1013,389.649 482.06169,395.4541 470.46841,397.34168 459.5126,400.68134 455.95357,401.64409 452.27357,402.02392 448.59045,401.75848 442.6262,401.74418 436.72576,400.92919 430.85461,399.94642 423.46698,398.86139 415.82723,397.82443 409.26254,394.02484 404.79447,391.59481 400.88125,387.79303 399.29025,382.87312 399.12255,382.08794 397.96045,381.19547 398.77288,380.45767 400.60574,380.60685 402.2766,381.71209 404.07319,382.14515 410.57274,384.33308 417.23491,385.99622 423.99479,387.19868 433.42284,389.66459 443.21864,387.43122 452.38683,384.91592 463.51294,382.04372 474.24999,377.90105 485.39671,375.14758 490.41716,374.04816 495.56465,373.32465 500.70186,373.15543 z"
       inkscape:connector-curvature="0"
       id="path4692"
       style="fill:#aac7db;stroke:none" />
    <path
       d="M 391.97212,377.27024 C 393.00274,377.16759 394.11458,377.7538 394.2047,378.85021 396.91142,378.70539 398.44778,381.50812 399.36366,383.65883 400.75259,387.8148 404.10971,391.02661 407.66956,393.44786 415.30863,398.21896 424.41988,399.19443 433.15148,400.52439 441.98849,401.88012 451.16534,403.19622 459.93851,400.83247 470.16652,397.6688 480.93733,395.90484 490.47748,390.83165 494.72936,388.36771 499.70702,387.63826 504.3698,386.2563 505.87189,385.98927 507.33547,385.25204 508.84903,385.26628 509.3444,386.36901 509.68468,384.98588 510.39466,384.86786 513.14568,384.12842 516.04631,383.70123 518.91278,383.6657 521.17887,383.5869 522.36294,385.83079 522.75281,387.74616 523.27625,390.01019 523.66247,392.32771 524.50766,394.47132 523.61757,395.73741 522.12351,396.71625 521.0981,397.97554 516.82761,402.20656 513.15754,407.13824 508.25139,410.64892 506.82931,411.42104 505.38516,412.59262 503.71755,412.63419 502.92272,412.29986 502.24907,413.40843 501.40941,413.3967 500.85934,413.70364 499.56747,413.05067 499.73326,414.00121 499.14242,415.40854 497.2765,415.62572 496.11393,416.40871 484.90509,421.85604 472.46636,425.81837 459.85678,424.75499 454.00627,424.39733 448.41722,422.50797 442.62748,421.72248 432.51375,419.92951 421.91692,418.85248 412.88961,413.56157 408.89672,411.23594 405.47009,408.08866 401.60997,405.593 394.27188,400.23763 387.20951,394.24422 381.76411,386.92182 380.07966,384.09496 382.13739,380.66779 384.66989,379.17308 386.82379,377.7771 389.42046,377.17218 391.97212,377.27024 z"
       inkscape:connector-curvature="0"
       id="path4694"
       style="fill:#c7a1db;stroke:none" />
    <path
       d="M 432.24842,181.69309 C 431.82025,200.44554 405.72444,216.86406 412.90404,246.98039"
       inkscape:connector-curvature="0"
       id="path4696"
       style="fill:none;stroke:#0000e9;stroke-width:1;stroke-miterlimit:4;stroke-opacity:1;stroke-dasharray:none;stroke-dashoffset:0" />
    <path
       d="M 431.34647,182.85326 C 432.48268,183.44513 431.63606,185.05227 431.57316,186.01321 429.75218,193.44069 425.333,199.85439 421.68114,206.47045 416.6119,215.00813 412.07309,224.35201 411.65174,234.41539 411.50542,238.74387 411.87797,243.0943 412.83328,247.29562 412.51074,248.88784 411.82984,250.50809 410.8068,251.77451 409.99908,252.45102 409.06501,251.56841 409.21308,250.66852 409.0365,245.04932 406.05891,239.63997 407.27828,233.94449 408.44953,227.10392 410.16035,220.33869 412.35427,213.76837 413.59117,208.88136 415.88759,204.30666 418.51397,200.04549 421.47404,194.25494 425.77267,189.29931 429.86266,184.28898 430.54803,183.95885 430.32158,182.7046 431.34647,182.85326 z"
       inkscape:connector-curvature="0"
       id="path4698"
       style="fill:#b46a9f;stroke:none" />
    <path
       d="M 459.91241,216.3556 C 466.21773,216.22551 472.51167,217.09839 478.51489,219.03468 485.38402,220.69294 491.38423,224.67644 496.78281,229.06976 501.09013,232.39316 502.35181,238.02056 503.03051,243.13544 504.04643,251.18272 505.20773,259.25588 504.91684,267.38875 504.76543,276.06961 505.0888,284.78666 504.55012,293.44462 503.7953,299.92253 504.55712,306.48973 505.47902,312.91805 505.87038,314.65063 505.93253,316.60458 506.78957,318.14031 507.54755,319.21068 506.25034,320.40292 505.9024,321.41146 503.12455,326.44152 499.51344,331.0719 494.8848,334.51022 494.05399,334.88513 492.80969,333.75134 492.28128,334.30414 493.076,334.25114 494.0248,335.21267 493.12622,335.78107 490.48405,337.66083 487.71988,339.44051 484.79357,340.83012 483.52007,340.68537 483.63207,338.85314 483.04873,337.9999 480.21562,331.37348 474.74733,326.42108 469.83114,321.32511 467.21758,318.59393 464.16183,316.32597 461.06822,314.17661 454.11267,308.91353 447.53008,303.09985 440.14212,298.50054 435.34472,294.52824 431.71501,289.42554 427.30656,285.07243 426.29891,283.84491 424.77351,282.92007 424.09507,281.49864 425.06003,276.49611 425.78573,271.3967 426.61144,266.37954 426.8838,259.62574 426.97391,252.81747 426.49251,246.0866 425.87709,242.01197 425.97545,237.82285 426.30703,233.72158 426.48179,232.17934 428.42449,231.86629 429.43346,230.98943 434.26515,228.17866 439.00074,225.21262 443.67988,222.20837 447.30274,220.24195 451.14089,218.64383 454.95266,217.09063 456.53084,216.43376 458.21249,216.27526 459.91241,216.3556 z"
       inkscape:connector-curvature="0"
       id="path4700"
       style="fill:#d0cf6e;stroke:none" />
    <path
       d="M 443.00668,176.49215 C 447.56615,176.64629 451.41968,179.40951 455.61558,180.81685 460.4355,182.6736 465.12935,184.83729 469.36592,187.82169 472.91264,190.14428 476.87234,191.9283 480.1773,194.6069 480.73191,194.88573 479.8843,196.02939 480.5826,195.69914 481.63102,194.8766 482.47311,196.64476 483.21254,197.13079 490.19921,203.53742 497.69585,209.55377 505.0054,215.68135 510.03865,220.13661 515.6615,224.66482 517.80817,231.28292 519.35405,236.25922 519.34079,241.55522 519.80699,246.7113 520.34344,255.27992 518.79676,263.88454 516.24194,272.00505 514.80756,281.94352 513.10128,291.85314 510.82839,301.63279 510.30826,303.06685 510.2277,304.69894 509.48926,305.99511 509.2797,306.29908 507.9598,306.1463 508.80232,306.40728 510.07619,306.85422 509.28326,308.5698 509.35837,309.55249 509.00537,311.91822 509.05614,314.61598 507.55208,316.59468 506.58741,317.30541 506.14523,315.72413 506.05453,315.01471 504.95379,308.72743 504.39631,302.31673 504.50204,295.93136 505.09366,288.07986 504.94349,280.17503 505.09906,272.30053 505.14376,265.55344 505.31316,258.79045 504.33961,252.09975 503.76297,246.83109 503.3541,241.41346 501.83669,236.34571 500.84985,233.13426 499.02261,230.08515 496.16214,228.20605 491.0984,224.08777 485.39362,220.55084 479.00733,218.943 472.52974,216.81273 465.69093,216.02828 458.88199,215.97778 454.10045,216.52079 449.83687,219.17381 445.39725,220.95813 441.73478,222.81841 438.50779,225.43409 434.88718,227.41387 430.96841,229.77316 426.82685,231.84046 423.67603,235.26034 420.21062,238.55896 416.70561,241.86554 413.77715,245.64695 412.62083,246.17654 412.53066,244.40089 412.37578,243.66855 411.06198,235.31259 412.12695,226.60665 415.61129,218.89042 419.76181,208.9221 426.4279,200.21404 430.52488,190.25854 431.53817,187.61763 432.33547,184.7429 432.2285,181.90528 431.55285,180.849 433.17109,180.06919 433.83596,179.47349 435.24969,178.56643 436.71984,177.32636 438.43162,177.19283 438.98579,177.32832 439.16877,178.33551 439.21609,177.17863 440.02728,176.34513 441.54446,176.58068 442.69068,176.47837 442.7962,176.47637 442.90136,176.48637 443.00668,176.49207 z"
       inkscape:connector-curvature="0"
       id="path4702"
       style="fill:#e075df;stroke:none" />
    <path
       d="M 544.26459,251.77315 C 569.38717,252.19679 594.54207,252.83316 619.6326,253.69669 622.18425,255.60968 619.73952,259.56313 619.7123,262.11458 614.34573,288.01463 602.04953,311.76327 589.63308,334.89363 588.62464,336.25578 587.40733,339.88868 585.28082,337.76923 567.00436,323.67564 544.56651,316.38565 522.7433,309.75067 519.83381,308.72163 523.48931,305.70667 524.25196,304.29177 526.94897,301.79534 528.78061,298.75412 529.06936,295.01952 531.04064,285.59229 534.50686,276.39323 535.79324,266.88949 535.85304,262.12832 536.34439,256.61196 533.61711,252.5892 535.42054,250.84792 538.93462,252.28262 541.253,251.75372 542.25688,251.75472 543.26074,251.76772 544.26461,251.77312 z"
       inkscape:connector-curvature="0"
       id="path4704"
       style="fill:#cda392;stroke:none" />
    <path
       d="M 453.43357,316.70887 C 456.3257,316.81758 458.16929,319.42429 460.26181,321.0641 463.95545,324.57853 467.85659,328.41263 469.27454,333.47034 469.63228,334.88292 467.94426,335.36056 466.86336,335.22892 465.71247,335.10853 464.35925,335.33449 463.88889,336.54786 463.25809,337.73133 462.66753,339.52084 460.98311,339.30251 456.70881,339.39691 451.98892,338.3205 449.29816,334.71371 445.60852,330.20767 445.22292,322.9132 449.1539,318.44684 450.25312,317.29058 451.82324,316.5809 453.43357,316.70887 z"
       inkscape:connector-curvature="0"
       id="path8873"
       style="fill:#bfb879;stroke:none" />
  </g>
</svg>
