<?xml version="1.0" encoding="UTF-8" standalone="no"?>
<!-- Created with Inkscape (http://www.inkscape.org/) -->

<svg
   xmlns:dc="http://purl.org/dc/elements/1.1/"
   xmlns:cc="http://creativecommons.org/ns#"
   xmlns:rdf="http://www.w3.org/1999/02/22-rdf-syntax-ns#"
   xmlns:svg="http://www.w3.org/2000/svg"
   xmlns="http://www.w3.org/2000/svg"
   xmlns:xlink="http://www.w3.org/1999/xlink"
   xmlns:inkscape="http://www.inkscape.org/namespaces/inkscape"
   version="1.1"
   width="740"
   height="520"
   id="svg2"
   style="display:inline;enable-background:new">
  <defs
     id="defs4">
    <filter
       color-interpolation-filters="sRGB"
       id="filter3050">
      <feBlend
         in2="BackgroundImage"
         mode="lighten"
         id="feBlend3052" />
    </filter>
  </defs>
  <metadata
     id="metadata7">
    <rdf:RDF>
      <cc:Work
         rdf:about="">
        <dc:format>image/svg+xml</dc:format>
        <dc:type
           rdf:resource="http://purl.org/dc/dcmitype/StillImage" />
        <dc:title />
      </cc:Work>
    </rdf:RDF>
  </metadata>
  <g
     id="g5273"
     style="display:none">
    <image
       xlink:href="pngs/coronal-0419.png"
       id="image5275"
       height="520"
       width="740"
       y="0"
       x="0" />
  </g>
  <g
     id="g5281"
     style="display:inline">
    <path
       d="M 373.16626,351.50518 C 371.14208,282.49089 368.84945,213.48449 366.99315,144.4653 370.06485,130.38129 373.08195,116.08431 385.73995,107.48844 394.91226,98.29324 407.75225,89.851746 421.4305,91.645259 437.40633,88.816971 450.76805,99.283166 465.92429,100.99361 476.86045,105.08204 487.6117,109.77129 498.53117,113.82755 510.5048,119.23408 521.95234,125.64622 531.71305,134.5137 542.70807,142.10971 551.75851,152.27473 560.30605,162.44331 572.09271,177.74454 583.23235,195.70997 582.26325,215.86578 582.69579,229.04405 577.90335,241.71494 573.88244,253.93351 568.61211,266.3593 564.95399,279.51954 557.47783,290.83802 552.607,301.77582 540.05341,305.83609 540.41758,319.17407 533.91704,330.02306 522.97855,337.11539 512.14101,343.38697 501.04116,348.54932 490.86072,355.60474 479.68003,360.70341 466.2967,367.48134 451.07567,369.48111 437.76648,376.61178 427.25791,381.24373 413.91126,387.80876 401.9939,381.03147 390.17571,374.45828 378.966,366.25905 373.01668,353.78315 L 373.16626,351.50518 373.16626,351.50518 z"
       inkscape:connector-curvature="0"
       id="path5283"
       style="fill:none;stroke:#0000e9;stroke-width:1;stroke-miterlimit:4;stroke-opacity:1;stroke-dasharray:none;stroke-dashoffset:0" />
    <path
       d="M 427.2587,288.70822 C 427.2465,290.28707 428.26614,291.45069 429.14425,292.59937 429.89521,293.62061 432.36343,293.58811 431.49299,294.83993 433.0477,294.98969 434.74157,296.56849 434.81879,298.1958 435.41273,300.01653 434.35289,301.46467 433.99406,303.02499 432.63858,302.95049 434.32118,305.48494 432.81247,305.83155 432.72797,307.39219 432.30264,309.21965 431.83269,310.50889 431.1403,312.17163 431.87229,314.07731 431.50065,315.83789 431.00673,317.61263 432.3484,318.98859 432.30764,320.70797 433.08362,321.40502 432.39174,323.16319 434.06353,323.09841 434.96076,324.45537 436.97027,323.26652 437.522,322.28179 438.38464,322.29179 439.33707,321.63197 439.24381,321.09397 440.07262,320.14156 440.45206,318.64933 441.51628,317.59453 442.27447,317.17086 442.67532,316.13883 443.30783,315.90643 443.77199,317.14613 443.88793,314.65998 444.67829,314.46295 444.63829,313.09281 446.69887,312.62522 446.53106,310.95322 447.58516,310.30806 446.97,309.12373 447.21934,308.07214 448.50635,307.54141 448.17973,305.52344 449.38707,304.69029 449.61418,303.00579 450.51453,301.43793 450.38144,299.7404 449.94831,297.65026 447.69863,296.40569 447.58307,294.177 446.76713,292.80525 445.84773,292.05126 445.83846,290.87983 445.75456,290.3941 444.90245,290.03861 445.22283,290.84943 444.15508,289.38196 442.53911,288.58201 441.28797,287.43011 439.46807,287.00091 438.23396,285.49803 436.24795,286.32696 434.57358,286.61987 433.43721,283.98771 431.65019,285.18384 430.86585,286.76583 429.76507,283.74811 428.85705,285.42392 428.02413,286.3483 427.74257,287.59361 427.2587,288.70819 z"
       inkscape:connector-curvature="0"
       id="path5285"
       style="fill:none;stroke:#0000e9;stroke-width:1;stroke-miterlimit:4;stroke-opacity:1;stroke-dasharray:none;stroke-dashoffset:0" />
    <path
       d="M 543.41966,307.07201 C 535.77672,298.00095 524.60571,293.10426 515.85299,285.30955 500.24631,275.18196 481.21073,273.15439 463.07448,272.27712 445.93893,270.24182 428.16776,265.6575 414.97405,253.92802 408.42198,245.09211 409.39456,233.00257 412.31875,223.0124 413.55607,219.73588 414.90895,216.21487 416.62462,212.92417 419.52427,207.36256 423.12942,198.15848 429.29521,196.20469 440.88459,193.22681 455.02123,201.44838 465.30469,205.74655 470.7132,209.02613 472.52001,212.03954 476.99081,219.65625 478.93157,222.73723 480.99625,226.25444 481.68453,228.00484 490.25217,244.60701 498.2928,261.70536 502.49073,280.00374"
       inkscape:connector-curvature="0"
       id="path5287"
       style="fill:none;stroke:#0000e9;stroke-width:1;stroke-miterlimit:4;stroke-opacity:1;stroke-dasharray:none;stroke-dashoffset:0" />
    <path
       d="M 457.72455,271.92091 C 453.78563,273.46294 456.94493,284.53177 460.23221,287.24057 463.44171,290.17783 467.00587,292.75445 470.78134,294.92574 473.45682,297.77564 477.31782,299.14756 480.39484,301.44442 482.87018,303.67134 485.56679,307.09013 484.56746,310.62358 481.41254,317.81778 475.86961,323.2636 470.2935,328.60027 466.66751,333.52028 462.65774,338.65631 457.62605,342.43039 453.66885,345.0553 454.55329,350.10133 453.8429,354.14088 453.31678,358.24194 453.0365,362.36985 454.04436,366.42867 453.85863,367.33817 455.05282,372.10684 454.61576,368.91424"
       inkscape:connector-curvature="0"
       id="path5289"
       style="fill:none;stroke:#0000e9;stroke-width:1;stroke-miterlimit:4;stroke-opacity:1;stroke-dasharray:none;stroke-dashoffset:0" />
    <path
       d="M 368.814,208.5022 416.68891,212.23271"
       inkscape:connector-curvature="0"
       id="path5291"
       style="fill:none;stroke:#0000e9;stroke-width:1;stroke-miterlimit:4;stroke-opacity:1;stroke-dasharray:none;stroke-dashoffset:0" />
    <path
       d="M 450.05829,199.1023 C 451.78236,223.83206 454.13054,248.31218 460.21156,271.29916"
       inkscape:connector-curvature="0"
       id="path5293"
       style="fill:none;stroke:#0000e9;stroke-width:1;stroke-miterlimit:4;stroke-opacity:1;stroke-dasharray:none;stroke-dashoffset:0" />
    <path
       d="M 476.99886,219.69374 C 509.93644,228.84334 541.70041,240.34015 577.7227,243.32032"
       inkscape:connector-curvature="0"
       id="path5295"
       style="fill:none;stroke:#0000e9;stroke-width:1;stroke-miterlimit:4;stroke-opacity:1;stroke-dasharray:none;stroke-dashoffset:0" />
    <path
       d="M 474.55596,215.2283 C 543.01626,209.52638 540.32912,206.99155 578.65533,194.51278"
       inkscape:connector-curvature="0"
       id="path5297"
       style="fill:none;stroke:#0000e9;stroke-width:1;stroke-miterlimit:4;stroke-opacity:1;stroke-dasharray:none;stroke-dashoffset:0" />
    <path
       d="M 462.26425,204.23641 C 478.29791,177.61033 498.99734,152.15069 521.14326,127.05268"
       inkscape:connector-curvature="0"
       id="path5299"
       style="fill:none;stroke:#0000e9;stroke-width:1;stroke-miterlimit:4;stroke-opacity:1;stroke-dasharray:none;stroke-dashoffset:0" />
    <path
       d="M 432.49014,195.50018 C 424.99329,166.25958 401.77495,137.01896 384.3578,107.77836"
       inkscape:connector-curvature="0"
       id="path5301"
       style="fill:none;stroke:#0000e9;stroke-width:1;stroke-miterlimit:4;stroke-opacity:1;stroke-dasharray:none;stroke-dashoffset:0" />
    <path
       d="M 375.03152,357.10095 C 375.86052,356.27195 378.34753,355.44295 377.51853,354.61394 376.68953,353.78494 375.03152,358.27334 375.03152,357.10095 375.86052,356.0647 376.68953,355.02844 377.51853,353.99219 377.72578,353.99219 377.99373,354.13874 378.14028,353.99219 378.28683,353.84564 377.99373,353.51699 378.14028,353.37044 378.28683,353.22389 378.61548,353.51699 378.76203,353.37044 378.90858,353.22389 378.61548,352.89524 378.76203,352.74869 378.90858,352.60214 379.19841,352.84139 379.38379,352.74869 379.90809,352.48653 380.10298,351.76734 380.62729,351.50518 380.81266,351.41248 381.10249,351.65173 381.24904,351.50518 381.39559,351.35863 381.10249,351.02998 381.24904,350.88343 381.39559,350.73688 381.72425,351.02998 381.87079,350.88343 382.01734,350.73688 381.72425,350.40823 381.87079,350.26168 382.01734,350.11513 382.30718,350.35438 382.49255,350.26168 382.7547,350.1306 382.85214,349.771 383.1143,349.63993 383.29967,349.54723 383.55068,349.73263 383.73605,349.63993 383.9982,349.50885 384.09565,349.14925 384.3578,349.01817 384.72854,348.8328 385.30821,349.31127 385.60131,349.01817 385.74785,348.87163 385.45476,348.54297 385.60131,348.39642 385.8944,348.10333 386.55171,348.68952 386.84481,348.39642 386.99136,348.24987 386.69826,347.92122 386.84481,347.77467 387.13791,347.48157 387.79522,348.06777 388.08831,347.77467 388.23486,347.62812 387.94177,347.29947 388.08831,347.15292 388.38141,346.85982 389.03872,347.44601 389.33182,347.15292 389.47837,347.00637 389.18527,346.67771 389.33182,346.53117 390.224,345.63898 389.87562,347.07497 389.95357,347.15292 390.57686,347.77621 391.55874,346.53117 391.81883,346.53117 392.02608,346.53117 391.67228,347.00637 391.81883,347.15292 392.11192,347.44601 392.69159,346.96755 393.06233,347.15292 393.32449,347.28399 393.42193,347.64359 393.68408,347.77467 394.05482,347.96004 394.63449,347.48157 394.92759,347.77467 395.07414,347.92122 394.78104,348.24987 394.92759,348.39642 395.22068,348.68952 395.878,348.10333 396.17109,348.39642 396.31764,348.54297 396.02454,348.87163 396.17109,349.01817 396.31764,349.16472 396.6463,348.87163 396.79284,349.01817 396.93939,349.16472 396.70014,349.45456 396.79284,349.63993 396.92392,349.90208 397.28352,349.99952 397.4146,350.26168 397.5073,350.44705 397.26805,350.73688 397.4146,350.88343 397.56114,351.02998 397.8898,350.73688 398.03635,350.88343 398.32944,351.17653 397.74325,351.83384 398.03635,352.12693 398.1829,352.27348 398.51155,351.98039 398.6581,352.12693 398.80465,352.27348 398.5654,352.56332 398.6581,352.74869 399.02023,353.47295 399.53947,353.88968 399.9016,354.61394 399.9943,354.79931 399.75506,355.08915 399.9016,355.2357 400.04815,355.38224 400.37681,355.08915 400.52336,355.2357 400.6699,355.38224 400.43066,355.67208 400.52336,355.85745 400.65443,356.1196 401.01403,356.21705 401.14511,356.4792 401.23781,356.66457 400.99856,356.9544 401.14511,357.10095 401.29166,357.2475 401.62031,356.9544 401.76686,357.10095 402.05996,357.39405 401.47376,358.05136 401.76686,358.34446 401.91341,358.491 402.24206,358.19791 402.38861,358.34446 402.68171,358.63755 402.09552,359.29486 402.38861,359.58796 402.53516,359.73451 402.86382,359.44141 403.01036,359.58796 403.15691,359.73451 402.91766,360.02434 403.01036,360.20971 403.14144,360.47187 403.50104,360.56931 403.63212,360.83146 403.72482,361.01683 403.48557,361.30667 403.63212,361.45322 403.77867,361.59976 404.10732,361.30667 404.25387,361.45322 404.54697,361.74631 404.0685,362.32598 404.25387,362.69672 404.38495,362.95887 404.74454,363.05632 404.87562,363.31847 405.06099,363.68921 404.58252,364.26888 404.87562,364.56198 405.02217,364.70852 405.35082,364.41543 405.49737,364.56198 405.55957,364.62418 405.55957,366.36506 405.49737,366.42723 405.35082,366.57378 405.02217,366.28068 404.87562,366.42723 404.58252,366.72033 404.87562,367.25624 404.87562,367.67074 404.87562,369.32874 405.08287,367.46349 404.25387,368.29249 403.96077,368.58559 404.43924,369.16525 404.25387,369.53599 403.89174,370.26026 403.3725,370.67699 403.01036,371.40125 402.91766,371.58662 403.15691,371.87645 403.01036,372.023 402.86382,372.16955 402.53516,371.87645 402.38861,372.023 402.24206,372.16955 402.53516,372.49821 402.38861,372.64475 402.09552,372.93785 401.43821,372.35166 401.14511,372.64475 400.99856,372.7913 401.29166,373.11996 401.14511,373.26651 400.99856,373.41305 400.6699,373.11996 400.52336,373.26651 400.37681,373.41305 400.6699,373.74171 400.52336,373.88826 400.37681,374.03481 400.04815,373.74171 399.9016,373.88826 399.75506,374.03481 399.9943,374.32464 399.9016,374.51001 399.77053,374.77216 399.41093,374.86961 399.27985,375.13176 399.18715,375.31713 399.4264,375.60697 399.27985,375.75351 398.86606,376.16731 398.45014,375.33972 398.03635,375.75351 396.74992,377.03994 400.00218,375.70321 397.4146,376.99702 397.22923,377.08972 396.93939,376.85047 396.79284,376.99702 396.6463,377.14357 396.93939,377.47222 396.79284,377.61877 396.6463,377.76532 396.31764,377.47222 396.17109,377.61877 395.15069,378.63917 396.79284,377.57777 396.79284,378.86227"
       inkscape:connector-curvature="0"
       id="path5303"
       style="fill:none;stroke:#0000e9;stroke-width:1;stroke-miterlimit:4;stroke-opacity:1;stroke-dasharray:none;stroke-dashoffset:0" />
    <path
       d="M 371.30101,283.7342 C 376.41394,286.34989 379.83467,282.00379 384.00762,280.50178 388.73045,280.12715 395.12877,281.91476 395.63846,287.49833 396.49634,291.67542 395.91821,295.68595 395.44131,299.84642 396.97112,303.77797 395.50661,308.26513 396.66085,312.13577 396.21745,317.26421 397.31205,322.40542 396.84365,327.55935 396.62557,332.98051 397.41209,341.3621 390.15221,342.24822 386.8092,345.10723 382.55692,348.23316 377.78387,348.85909 376.69777,348.98405 368.38014,351.49633 373.78801,349.01786"
       inkscape:connector-curvature="0"
       id="path5305"
       style="fill:none;stroke:#0000e9;stroke-width:1;stroke-miterlimit:4;stroke-opacity:1;stroke-dasharray:none;stroke-dashoffset:0" />
    <path
       d="M 384.97955,280.00369 C 386.37655,276.0363 386.5071,276.83196 386.8603,272.38069 387.53681,270.7675 388.00666,269.89274 388.97349,268.47467 390.16451,267.38815 391.36684,266.44701 392.4121,265.22716 393.7902,264.16642 395.32769,263.29732 396.46551,261.95192 398.21879,260.34673 403.54152,257.5202 405.14868,255.76233 407.91639,253.04839 411.17356,252.68336 413.81211,252.3545"
       inkscape:connector-curvature="0"
       id="path5307"
       style="fill:none;stroke:#0000e9;stroke-width:1;stroke-miterlimit:4;stroke-opacity:1;stroke-dasharray:none;stroke-dashoffset:0" />
    <path
       d="M 418.66289,256.94112 C 418.03854,257.00832 419.81057,260.319 419.83914,260.88351 422.85628,269.74991 414.69448,273.36184 410.83895,277.83842 408.64002,279.34489 404.408,280.96729 402.38992,282.71219 400.98989,283.54082 397.08415,285.10984 395.52268,285.5144"
       inkscape:connector-curvature="0"
       id="path5309"
       style="fill:none;stroke:#0000e9;stroke-width:1;stroke-miterlimit:4;stroke-opacity:1;stroke-dasharray:none;stroke-dashoffset:0" />
    <path
       d="M 368.81401,128.91794 427.39182,196.96288"
       inkscape:connector-curvature="0"
       id="path5311"
       style="fill:none;stroke:#0000e9;stroke-width:1;stroke-miterlimit:4;stroke-opacity:1;stroke-dasharray:none;stroke-dashoffset:0" />
    <path
       d="M 391.5302,347.36145 C 394.45114,347.39845 397.26696,349.4113 398.15235,352.21128 400.55962,355.56147 402.22821,359.36121 404.44656,362.82903 405.64242,365.61925 404.56521,368.78996 402.94723,371.17098 400.62371,372.9048 399.24904,376.00544 396.2245,376.70135 394.26054,376.30847 392.96255,374.58481 391.14588,373.84938 389.54932,372.8394 388.03519,371.70616 386.45606,370.66964 384.35468,369.10033 382.55978,367.14111 381.08863,364.97473 379.62415,363.70103 378.71256,361.91683 377.47113,360.452 376.81265,359.08002 374.64676,357.63766 376.32548,356.21741 377.7992,354.33896 379.79381,352.96401 381.41046,351.22077 382.84261,350.00186 384.57732,349.1789 386.37811,348.66665 387.75464,347.39062 389.75494,347.29988 391.5302,347.36145 z"
       inkscape:connector-curvature="0"
       id="path5331"
       style="fill:#73837a;stroke:none" />
    <path
       d="M 385.92472,280.93382 C 389.79735,280.41673 393.23306,282.80934 395.39083,285.78366 395.96214,291.00643 395.39383,296.3805 395.85488,301.65108 396.24639,304.63245 395.70825,307.98125 396.77846,310.78847 397.49155,311.86959 395.58175,312.07853 396.09152,313.30269 396.06562,314.56813 397.11607,315.44063 396.79937,316.84683 396.89387,322.28389 397.29093,327.82882 396.5449,333.21037 395.54838,335.74223 396.4684,339.42861 393.41243,340.82173 391.25461,341.9158 388.85906,342.39677 387.21618,344.33889 385.62868,345.96472 383.24293,346.46375 381.6107,347.77362 379.90496,347.92666 378.5669,349.45948 376.76087,348.99638 375.6076,349.81029 372.98939,349.89562 373.25745,347.84231 372.47267,326.78196 371.62287,305.71689 371.34774,284.64333 372.79036,283.47373 375.41589,284.49938 377.32416,284.13499 379.09374,284.38691 380.37043,283.06219 380.97871,281.62077 382.4096,280.73752 384.31476,280.99674 385.92472,280.93382 z"
       inkscape:connector-curvature="0"
       id="path5333"
       style="fill:none;stroke:none" />
    <path
       d="M 432.17539,285.49514 C 434.18481,285.71419 435.9624,286.84499 438.08312,286.62173 444.21563,288.27656 447.72349,294.35816 449.9398,299.83857 450.20948,304.08275 447.1354,307.50459 446.07917,311.44795 444.08427,315.15609 440.6841,317.90025 438.50903,321.49109 437.08306,321.90897 436.11859,323.65725 434.40109,323.07106 432.14175,321.83584 432.33772,318.54478 431.77696,316.32526 430.8774,310.14875 434.78731,304.61825 435.10178,298.62954 434.38964,294.37633 428.48246,293.33137 427.69651,289.06726 427.72091,286.54404 429.74466,285.08787 432.17539,285.49514 z"
       inkscape:connector-curvature="0"
       id="path5339"
       style="fill:#bfb879;stroke:none" />
    <path
       d="M 386.69503,280.87887 C 391.46391,280.81757 396.03952,284.87821 395.56976,289.84956 395.69411,296.61594 395.4496,303.38899 396.11993,310.14275 396.25792,319.11479 397.2318,328.2437 395.6528,337.12597 395.13516,339.95729 392.49423,341.35524 390.04733,342.26432 386.27129,344.92225 382.45931,347.74283 377.79446,348.63298 376.45056,348.72908 373.57175,350.73535 373.5469,348.2957 372.1892,327.26917 372.40603,306.16388 371.2525,285.12419 372.92722,283.9477 375.84723,285.15579 377.84718,283.87395 380.71806,282.65178 383.43198,280.69143 386.69503,280.87887 z"
       inkscape:connector-curvature="0"
       id="path5341"
       style="fill:none;stroke:none" />
    <path
       d="M 386.40102,280.94756 C 390.86039,280.86946 396.01818,284.17769 395.41659,289.14938 395.51209,304.75552 397.29914,320.37678 396.032,335.9719 395.54977,338.79488 393.33163,341.32508 390.55017,341.90711 386.34103,344.90695 381.944,348.07977 376.6464,348.859 375.30526,349.27792 372.7935,349.79793 373.37653,347.45763 372.42025,326.69315 372.24645,305.9001 371.23326,285.13793 372.57123,283.89156 375.21565,285.06843 376.97613,284.21743 380.17215,283.29725 382.89484,280.57608 386.40102,280.94756 z"
       inkscape:connector-curvature="0"
       id="path5343"
       style="fill:#c6bdae;stroke:none" />
    <path
       d="M 412.89164,252.98066 C 418.31202,255.38916 421.7853,262.75543 419.23637,268.37465 414.50133,275.67194 406.76919,280.20826 399.10575,283.8856 397.55959,284.5476 395.57532,286.00014 394.45686,283.9441 392.41287,281.42747 389.11791,280.51978 386.02159,280.28931 384.95212,278.74658 386.74377,276.67329 386.69407,274.93869 387.16568,270.45675 390.51424,267.33535 393.80415,264.63568 398.97412,260.51757 404.22735,256.25497 410.15785,253.31692 411.04711,253.1017 411.96847,252.85666 412.89164,252.98068 z"
       inkscape:connector-curvature="0"
       id="path3059"
       style="fill:#7c6863;stroke:none" />
    <path
       d="M 459.57068,272.1464 C 473.56527,273.46256 488.07628,273.67914 501.29382,278.87122 502.45155,280.28178 504.56905,279.62493 506.09931,280.60922 515.20919,284.22664 522.40729,291.11894 530.516,296.4406 535.07104,299.88974 540.05758,303.31325 543.5379,307.73918 541.40123,311.03881 540.68723,314.95631 539.80075,318.70849 536.20818,326.67455 528.68332,331.92449 521.81915,336.93861 511.97562,343.78023 500.92406,348.61518 490.59776,354.67589 479.33888,360.73351 467.49673,366.21021 455.03874,369.05695 453.58942,366.56215 454.16334,363.18892 453.81073,360.35854 453.97009,355.3684 454.0355,350.14653 455.59427,345.3885 460.17258,340.03369 465.58797,335.5676 469.83905,329.87829 475.39416,323.39857 482.64886,317.66458 484.99344,309.16217 484.44113,302.88672 478.31886,299.787 473.61057,296.73951 468.68764,293.06823 462.99372,290.02754 459.08825,285.20133 456.88611,281.6453 455.37877,276.8627 457.10004,272.86274 457.69379,272.12438 458.70617,272.10035 459.57068,272.1464 z"
       inkscape:connector-curvature="0"
       id="path3061"
       style="fill:#d5be93;stroke:none" />
    <path
       d="M 451.3547,200.17618 C 457.0983,202.4044 463.22309,204.41204 468.06443,208.3483 476.12717,215.87673 480.19127,226.58022 485.34189,236.1575 491.99117,249.39944 497.92817,263.06188 501.60083,277.43855 500.00656,278.74451 496.95333,276.2539 494.74574,276.13335 483.9649,273.29832 472.67301,272.85368 461.63199,271.79554 459.58233,270.36341 459.91616,267.07958 459.00054,264.92453 454.02885,244.16861 452.03183,222.80419 450.62375,201.53576 450.61475,201.03382 450.54605,200.05607 451.3547,200.17618 z"
       inkscape:connector-curvature="0"
       id="path2760"
       style="fill:#84cdcd;stroke:none" />
    <path
       d="M 435.09818,195.87814 C 439.93359,196.25548 445.02736,197.08196 449.27878,199.44522 450.96905,205.02762 450.43675,211.14541 451.27766,216.92188 452.92067,235.0263 455.40911,253.1761 459.7315,270.7722 458.70852,272.4472 456.09938,270.549 454.55631,270.7283 440.80941,267.98906 426.50175,263.73434 415.96167,254.07705 409.10824,246.34253 409.64706,234.90724 411.94139,225.49656 414.5626,216.78418 418.86064,208.54779 423.78293,200.89248 426.27684,197.24684 430.77047,195.59708 435.09818,195.8781 z"
       inkscape:connector-curvature="0"
       id="path3065"
       style="fill:#a9a2da;stroke:none" />
    <path
       d="M 370.34983,209.05002 C 385.43633,210.02213 400.53158,211.04301 415.58157,212.44167 416.62773,213.89069 414.53591,215.7882 414.34807,217.3027 410.2029,226.76675 408.43881,237.86781 411.5708,247.86651 412.59858,250.05341 414.16811,253.01723 410.30405,252.79061 405.39052,254.30356 401.66061,258.33272 397.33683,261.05044 392.5024,264.94717 386.17125,268.7918 386.09468,275.74272 385.70928,280.56025 380.48414,281.98323 376.79689,283.68094 374.81854,284.78049 371.57602,284.44311 371.37317,281.69273 370.30575,260.2884 370.01072,238.82838 369.42327,217.39809 369.56759,214.67822 368.93038,211.79702 369.48727,209.15235 369.75944,209.01346 370.03722,209.01596 370.3498,209.05002 z"
       inkscape:connector-curvature="0"
       id="path3067"
       style="fill:#a78875;stroke:none" />
    <path
       d="M 371.21236,132.88409 C 385.11342,147.82631 398.21554,163.73038 411.67825,179.16842 416.42376,185.09795 422.03051,190.49546 426.03428,196.93072 425.96678,198.6559 423.59194,199.37998 423.03735,201.03871 420.36012,204.36189 418.95293,208.67773 416.50258,211.98847 400.89988,210.71897 385.27923,209.64841 369.69196,208.20211 368.44106,206.50785 369.4596,203.78049 368.97437,201.75532 368.39096,182.49378 367.5856,163.19141 367.34548,143.94919 368.54039,140.35104 368.56227,136.11458 370.68607,132.92795 370.84448,132.81859 371.04179,132.82015 371.21236,132.88405 z"
       inkscape:connector-curvature="0"
       id="path3069"
       style="fill:#a76986;stroke:none" />
    <path
       d="M 384.55967,109.34721 C 388.07991,113.39595 390.39396,118.54431 393.52855,122.95513 405.71263,142.45736 419.21528,161.31182 427.92016,182.69164 429.20954,186.746 431.43984,190.79163 431.57495,195.07408 430.02565,196.30687 427.16866,196.90709 426.14147,194.66785 407.67069,173.87678 389.52451,152.71344 371.84067,131.25072 369.86135,129.45012 372.32567,126.89471 372.75526,124.91019 375.09969,118.89613 378.90571,113.24466 384.07724,109.37645 384.23647,109.33745 384.39474,109.30835 384.55967,109.34725 z"
       inkscape:connector-curvature="0"
       id="path2765"
       style="fill:#746bdb;stroke:none" />
    <path
       d="M 427.2623,91.614144 C 439.85069,91.910999 451.14669,98.351703 463.31319,100.83885 477.9721,105.80467 492.50289,111.36109 506.46901,118.04562 511.10409,120.61852 516.09254,122.88361 520.16719,126.24698 520.14829,128.92571 517.09536,130.66616 515.78464,132.81589 496.41428,155.22359 477.73867,178.34418 462.30447,203.61168 458.09887,202.7344 454.1577,200.2111 449.98123,198.87115 444.58449,196.70259 438.89229,195.39578 433.10997,195.14718 431.59042,194.11638 432.13416,191.5838 431.13655,190.07727 422.9108,165.39645 407.4428,144.18805 393.79401,122.31823 390.91711,117.83427 388.09201,113.31755 385.30525,108.77706 387.04085,105.95311 390.39627,103.95849 392.94025,101.66269 400.03959,96.104563 408.5573,91.785033 417.78544,91.878737 420.94025,91.705836 424.10198,91.553412 427.2623,91.614144 z"
       inkscape:connector-curvature="0"
       id="path2767"
       style="fill:#b1daa9;stroke:none" />
    <path
       d="M 522.0823,127.48961 C 528.45654,131.71192 534.32381,136.80693 540.20825,141.70395 554.776,155.0452 567.87171,170.57121 576.23174,188.62702 576.67845,190.42905 578.66979,192.60059 577.7229,194.41622 565.00762,198.93068 552.22661,203.2359 539.16761,206.76381 518.33142,211.45398 496.9013,212.94688 475.6664,214.94155 473.01382,214.42895 472.53722,211.05727 470.44735,209.64941 468.28794,207.21381 465.44658,205.69543 462.80152,204.06488 478.93109,177.59182 498.46506,153.21487 519.08537,130.07721 520.07281,129.37048 520.79682,127.62271 522.0823,127.48961 z"
       inkscape:connector-curvature="0"
       id="path2769"
       style="fill:#dbc198;stroke:none" />
    <path
       d="M 578.0299,195.22028 C 580.25743,197.12363 580.21641,200.66006 581.07051,203.31104 582.2476,212.31285 582.2713,221.60072 580.57364,230.54021 579.44204,234.66575 578.7075,239.25193 576.87417,242.98242 554.74248,240.90805 532.90687,235.68352 511.56692,229.34959 500.38882,226.01935 489.04691,223.15201 477.96161,219.56121 476.63186,218.88158 475.4867,217.3246 475.59331,215.8187 480.1119,214.58556 485.20109,214.75589 489.92858,214.09412 511.80867,212.13937 533.87187,209.96038 554.74881,202.74833 562.5227,200.398 570.22099,197.38958 578.0299,195.22028 z"
       inkscape:connector-curvature="0"
       id="path2771"
       style="fill:#b5acba;stroke:none" />
    <path
       d="M 479.30658,220.67227 C 500.31893,226.5836 521.20815,233.0882 542.49459,237.97853 553.66038,240.55577 565.0613,242.13639 576.45103,243.50743 577.13196,245.64818 575.01239,248.41972 574.59439,250.8024 569.12778,264.91174 564.51082,279.56781 556.21809,292.33549 552.84731,297.52826 548.55928,302.05249 544.33269,306.54533 542.20634,306.29003 541.01016,303.54258 539.1575,302.43734 531.60162,296.05671 523.19915,290.8272 515.35752,284.87707 511.37381,282.12867 506.83495,280.48618 502.65341,278.2426 501.06733,275.67996 501.1179,272.30714 499.8415,269.51485 494.76781,253.65017 487.56799,238.52357 479.80861,223.82531 479.58102,223.16199 477.26216,220.72115 479.30658,220.67227 z"
       inkscape:connector-curvature="0"
       id="path2773"
       style="fill:#cda392;stroke:none" />
  </g>
</svg>
