<?xml version="1.0" encoding="UTF-8" standalone="no"?>
<!-- Created with Inkscape (http://www.inkscape.org/) -->

<svg
   xmlns:dc="http://purl.org/dc/elements/1.1/"
   xmlns:cc="http://creativecommons.org/ns#"
   xmlns:rdf="http://www.w3.org/1999/02/22-rdf-syntax-ns#"
   xmlns:svg="http://www.w3.org/2000/svg"
   xmlns="http://www.w3.org/2000/svg"
   xmlns:xlink="http://www.w3.org/1999/xlink"
   xmlns:inkscape="http://www.inkscape.org/namespaces/inkscape"
   version="1.1"
   width="740"
   height="520"
   id="svg2"
   style="display:inline;enable-background:new">
  <defs
     id="defs4">
    <filter
       color-interpolation-filters="sRGB"
       id="filter3050">
      <feBlend
         in2="BackgroundImage"
         mode="lighten"
         id="feBlend3052" />
    </filter>
  </defs>
  <metadata
     id="metadata7">
    <rdf:RDF>
      <cc:Work
         rdf:about="">
        <dc:format>image/svg+xml</dc:format>
        <dc:type
           rdf:resource="http://purl.org/dc/dcmitype/StillImage" />
        <dc:title />
      </cc:Work>
    </rdf:RDF>
  </metadata>
  <g
     id="layer1"
     style="display:none">
    <image
       xlink:href="pngs/coronal-0444.png"
       id="MRISLICE"
       height="520"
       width="740"
       y="0"
       x="0" />
  </g>
  <g
     id="layer3"
     style="display:inline">
    <path
       d="M 475.12251,360.46805 C 472.65776,360.37365 468.75486,363.20985 471.43085,365.57807 473.3399,368.23273 478.47762,370.28896 477.22092,374.16602 471.64654,379.56322 463.11633,376.33911 456.2574,376.24548 445.2864,376.06848 434.21959,375.23661 423.93141,371.2446 414.2058,368.30771 404.41806,364.15906 394.1393,363.94597 389.15568,364.80922 388.77178,370.86698 389.06813,374.90435 389.08533,376.48285 387.02765,377.38245 388.11607,379.1789 390.47861,389.79722 401.79122,394.68137 411.10147,398.00633 416.41619,399.48914 421.7373,402.66903 427.3296,400.78564 441.49431,398.18803 455.95393,396.70262 469.81818,392.7603 480.26977,389.34611 490.43088,384.72296 499.33198,378.24627 498.806,376.15732 495.07838,373.97546 496.74782,371.2127 498.486,369.77572 496.42994,369.09352 495.05743,369.79433 490.1469,364.52781 482.70235,361.63703 475.60825,360.44862 475.44638,360.45662 475.28319,360.43442 475.12251,360.46802 z"
       inkscape:connector-curvature="0"
       id="path3045"
       style="fill:#c7a1db;stroke:none" />
    <path
       d="M 547.65377,350.53945 C 531.82707,354.81106 515.71398,359.13377 501.62469,367.8125 499.32223,369.24337 495.33971,372.45441 498.32163,375.1958 500.59204,378.80409 503.9001,375.43265 506.64829,374.29368 518.62001,367.70862 531.61918,363.29711 543.80668,357.22328 546.47892,356.17938 546.83881,353.35456 548.48925,351.41378 548.71064,350.83006 548.20869,350.39441 547.65377,350.53945 z"
       inkscape:connector-curvature="0"
       id="path3047"
       style="fill:#6abbd5;stroke:none" />
    <path
       d="M 390.98388,340.7768 C 385.94122,342.66474 380.81425,344.38752 375.82986,346.39601 375.48798,347.69233 376.34423,349.07607 376.48996,350.39538 377.07516,352.63727 377.52756,354.93678 378.23417,357.13297 382.68372,361.20143 384.43022,367.14472 386.031,372.74037 386.57291,374.18724 386.73775,375.81629 387.32246,377.20552 388.34155,377.914 388.88624,376.30928 388.52241,375.54623 388.157,371.69478 388.26638,367.03718 391.47848,364.31842 393.89851,362.25492 397.23644,363.49973 400.0402,363.87699 407.41311,365.18028 414.55322,367.76083 421.68347,369.89642 422.84028,369.34813 421.51339,368.34554 420.87775,368.01252 413.40023,363.17858 406.58378,357.45605 400.51181,350.95733 397.29936,347.7025 394.35174,344.20041 391.34443,340.82814 L 391.17622,340.74244 390.98388,340.77674 z"
       inkscape:connector-curvature="0"
       id="path3011"
       style="fill:#9993c0;stroke:none" />
    <path
       d="M 373.05126,225.91126 371.80775,332.23087 378.02527,357.10095 C 385.12741,363.21451 385.67372,374.81198 389.83856,385.70155 398.74483,395.24611 410.62276,398.84732 422.79142,401.8671 445.82208,397.25535 469.6614,397.49553 491.18415,383.83629 526.42687,360.85435 547.02828,360.83697 547.14184,353.99219 566.05638,335.98087 580.21693,307.27311 592.52975,274.40792 611.22686,227.00175 599.89611,189.60486 568.90317,158.76203 540.73503,123.54805 498.4189,106.33509 455.12253,90.369303 416.4098,78.669665 391.95882,93.116561 373.05126,117.72639 377.82794,155.38024 378.21943,191.57236 373.05126,225.91126 z"
       inkscape:connector-curvature="0"
       id="path2990"
       style="fill:none;stroke:#0000e9;stroke-width:1;stroke-miterlimit:4;stroke-opacity:1;stroke-dasharray:none;stroke-dashoffset:0" />
    <path
       d="M 455.12253,301.76501 C 454.95408,302.75105 453.64993,302.45842 453.62333,301.73241 453.43484,302.67125 451.4673,303.34986 450.75689,304.41006 447.86062,307.36667 445.90283,311.06527 443.84377,314.61404 442.15367,317.82634 440.76631,321.31526 440.73669,324.99589 440.47233,327.75574 439.47626,330.69998 440.67129,333.37295 441.53366,335.33524 443.96283,336.31215 445.95317,335.50644 447.91156,334.79251 449.58915,333.44129 451.0661,332.00834 453.20521,329.42296 455.99514,326.93949 456.37946,323.40467 456.5095,320.0888 459.24923,317.84 460.77971,315.1352 462.03068,313.11434 462.19692,310.48292 461.03325,308.38005 460.01119,306.33334 458.53558,304.53947 457.48318,302.52054 456.869,301.92586 455.97318,301.59957 455.1225,301.76498 z"
       inkscape:connector-curvature="0"
       id="path2992"
       style="fill:none;stroke:#0000e9;stroke-width:1;stroke-miterlimit:4;stroke-opacity:1;stroke-dasharray:none;stroke-dashoffset:0" />
    <path
       d="M 453.87903,301.76501 C 451.28865,302.16329 451.89909,298.09776 453.61478,301.15983 447.79973,299.02412 444.85715,292.86911 439.63491,289.7367 434.29856,285.52736 428.07933,279.61701 420.6768,282.17823 413.93316,284.16877 410.62945,291.51027 411.49665,298.13884 411.90728,305.00893 414.97073,311.75585 419.06318,317.19077 422.78125,321.57365 425.10145,327.67484 431.15709,329.41967 433.77533,331.21078 440.28011,333.51824 440.82219,335.3396"
       inkscape:connector-curvature="0"
       id="path2994"
       style="fill:none;stroke:#0000e9;stroke-width:1;stroke-miterlimit:4;stroke-opacity:1;stroke-dasharray:none;stroke-dashoffset:0" />
    <path
       d="M 547.14184,350.26168 C 540.2897,351.61053 479.91499,368.45054 501.13219,377.61877"
       inkscape:connector-curvature="0"
       id="path2996"
       style="fill:none;stroke:#0000e9;stroke-width:1;stroke-miterlimit:4;stroke-opacity:1;stroke-dasharray:none;stroke-dashoffset:0" />
    <path
       d="M 386.7298,301.76501 C 386.33882,303.22897 383.24217,304.2634 385.07757,302.15991 388.48923,301.34159 383.4626,304.68144 382.85719,305.81269 381.85178,308.349 381.0114,310.94922 380.41739,313.71202 378.78465,316.03099 381.05589,319.20542 379.26559,321.58377 379.32509,324.73261 378.07665,326.79929 380.21744,329.46268 380.10464,330.47925 384.12575,331.27272 384.25347,329.23201 386.90721,328.01459 385.97003,326.111 387.10193,323.65349 387.68847,320.88558 387.77454,318.42568 388.51065,315.65582 388.85469,312.6868 388.67847,309.62731 388.75142,306.61304 388.9878,304.68335 387.60057,303.32162 386.7298,301.76501 z"
       inkscape:connector-curvature="0"
       id="path3000"
       style="fill:none;stroke:#0000e9;stroke-width:1;stroke-miterlimit:4;stroke-opacity:1;stroke-dasharray:none;stroke-dashoffset:0" />
    <path
       d="M 495.53642,370.15775 C 493.2328,365.09063 481.36866,360.18914 474.03437,359.95256 461.85784,364.95675 479.75538,368.72313 477.1003,374.30494 469.10016,380.50369 458.37349,373.93263 449.19546,375.89347 430.79751,375.74128 414.41024,365.62903 396.46506,363.40854 387.0858,361.34118 387.82784,376.82358 389.21681,376.37527"
       inkscape:connector-curvature="0"
       id="path3002"
       style="fill:none;stroke:#0000e9;stroke-width:1;stroke-miterlimit:4;stroke-opacity:1;stroke-dasharray:none;stroke-dashoffset:0" />
    <path
       d="M 470.74177,365.76776 C 469.54411,366.78591 466.2408,365.82126 468.54358,366.18015 468.31788,366.86911 464.82176,365.84208 463.70031,367.07975 461.35812,366.74463 459.23275,367.19416 457.13137,368.24302 454.7881,368.98386 452.30666,369.5361 450.35249,371.10974 449.85511,371.78068 447.78196,372.37636 449.05308,372.79331 448.38154,373.48683 447.02608,375.32006 447.67155,375.74271 L 447.65515,375.37124 447.66115,375.13218"
       inkscape:connector-curvature="0"
       id="path3004"
       style="fill:none;stroke:#0000e9;stroke-width:1;stroke-miterlimit:4;stroke-opacity:1;stroke-dasharray:none;stroke-dashoffset:0" />
    <path
       d="M 432.11771,373.88826 C 410.64722,364.27114 396.28774,347.54302 382.99929,329.74386 L 372.4295,334.09612"
       inkscape:connector-curvature="0"
       id="path3008"
       style="fill:none;stroke:#0000e9;stroke-width:1;stroke-miterlimit:4;stroke-opacity:1;stroke-dasharray:none;stroke-dashoffset:0" />
    <path
       d="M 393.56908,339.69189 374.91651,346.53117"
       inkscape:connector-curvature="0"
       id="path3010"
       style="fill:none;stroke:#0000e9;stroke-width:1;stroke-miterlimit:4;stroke-opacity:1;stroke-dasharray:none;stroke-dashoffset:0" />
    <path
       d="M 419.0609,242.07682 C 436.2387,237.79529 452.43435,223.69232 471.90984,242.3877"
       inkscape:connector-curvature="0"
       id="path3027"
       style="fill:none;stroke:#0000e9;stroke-width:1;stroke-miterlimit:4;stroke-opacity:1;stroke-dasharray:none;stroke-dashoffset:0" />
    <path
       d="M 382.28028,330.52757 C 379.09365,331.45418 375.93983,332.65129 372.95156,334.09282 372.37319,335.0583 373.21514,336.30309 373.25458,337.35031 373.91172,340.15887 374.58745,342.95935 375.39709,345.72281 376.33399,346.40583 377.50134,345.21094 378.51612,345.08384 382.44987,343.62793 386.40801,342.21814 390.3038,340.67376 391.10552,339.8145 389.68277,338.84837 389.30093,338.11153 387.24516,335.75378 385.6099,333.02165 383.41374,330.79548 383.09157,330.54961 382.6764,330.48798 382.28028,330.52757 z"
       inkscape:connector-curvature="0"
       id="path3013"
       style="fill:#65d769;stroke:none" />
    <path
       d="M 386.60117,302.76811 C 385.27104,303.29874 384.28341,304.53797 383.30383,305.5571 381.63815,308.5727 381.12278,312.08568 380.01336,315.31173 379.7369,317.4217 380.45718,319.63506 379.52563,321.61789 379.23009,323.53852 379.1209,325.52139 379.18216,327.45006 379.88409,328.30084 380.18547,330.05606 381.48342,330.14975 382.32136,329.86986 383.15806,329.66305 383.9633,329.39411 385.25813,328.62724 386.10858,327.37307 386.34013,325.89069 387.22464,322.16473 387.98235,318.38492 388.4147,314.58357 388.4919,311.38147 388.81752,308.12272 388.3735,304.94572 387.98533,304.20663 387.65432,302.74264 386.60118,302.76811 z"
       inkscape:connector-curvature="0"
       id="path3015"
       style="fill:#c6bdae;stroke:none" />
    <path
       d="M 420.30438,242.07684 C 423.15348,229.53858 428.11461,214.65966 429.00891,204.77172 432.6556,194.15474 436.27331,175.75013 448.90497,187.36266 462.62953,193.72607 471.77214,206.19877 480.61433,219.07201"
       inkscape:connector-curvature="0"
       id="path3012"
       style="fill:none;stroke:#0000e9;stroke-width:1;stroke-miterlimit:4;stroke-opacity:1;stroke-dasharray:none;stroke-dashoffset:0" />
    <path
       d="M 480.61433,217.82851 C 481.96438,228.51861 486.6271,236.50571 484.34484,250.15961 480.7188,266.09958 469.72767,263.43741 470.04454,251.09224 466.62676,248.16436 474.5152,238.6017 475.95119,233.06144 479.35023,228.99946 480.08116,224.75637 480.61433,217.82851 z"
       inkscape:connector-curvature="0"
       id="path3014"
       style="fill:none;stroke:#0000e9;stroke-width:1;stroke-miterlimit:4;stroke-opacity:1;stroke-dasharray:none;stroke-dashoffset:0" />
    <path
       d="M 480.58382,223.76702 C 479.21979,225.58833 479.33685,228.13568 478.11624,230.0914 477.08442,232.00781 475.68527,233.73494 475.01302,235.85062 473.1999,240.24725 470.18268,244.29548 469.44085,249.04513 469.58911,250.44749 470.39681,251.70252 470.31005,253.19155 470.62411,256.30352 472.04588,260.30816 475.50294,260.97499 479.57854,261.09495 481.886,256.8721 483.0958,253.55085 486.23202,244.45899 484.41735,234.60825 481.85122,225.61441 481.55549,225.02884 481.57448,223.52089 480.58382,223.76702 z"
       inkscape:connector-curvature="0"
       id="path3018"
       style="fill:#c7afc8;stroke:none" />
    <path
       d="M 525.0696,304.25204 C 521.27519,297.16488 512.77694,306.29727 516.30219,311.2754 521.06398,315.93307 528.14243,316.86324 533.14319,321.00435 536.90511,329.11373 521.76095,325.15535 517.40509,325.67512 505.70674,328.21871 495.82094,335.75275 487.24361,342.45046 482.72024,345.24216 478.12787,357.31813 487.52792,353.76461 496.51917,349.46081 500.08594,338.33529 509.82895,335.09448 518.18237,331.6027 529.86096,332.15135 537.81717,330.15497 543.75996,331.65476 550.99356,324.69099 545.57119,319.06255 540.77283,314.37557 535.05163,312.43428 528.90225,308.28844 527.5296,307.03769 526.24929,305.68608 525.0696,304.25204 z"
       inkscape:connector-curvature="0"
       id="path3020"
       style="fill:none;stroke:#0000e9;stroke-width:1;stroke-miterlimit:4;stroke-opacity:1;stroke-dasharray:none;stroke-dashoffset:0" />
    <path
       d="M 493.67112,337.2049 C 504.89878,313.7546 509.02283,302.40504 488.07536,296.79102 480.71888,294.51775 472.75334,287.98102 466.93578,296.48014 464.22329,301.54685 465.26269,308.86468 466.62491,316.37621"
       inkscape:connector-curvature="0"
       id="path3026"
       style="fill:none;stroke:#0000e9;stroke-width:1;stroke-miterlimit:4;stroke-opacity:1;stroke-dasharray:none;stroke-dashoffset:0" />
    <path
       d="M 500.82127,321.35022 466.62491,316.06533 463.51615,333.47439 461.12166,337.84579 461.65089,342.48979 C 466.93321,347.71471 473.69391,352.83013 479.68169,354.92484 L 482.47958,348.39644"
       inkscape:connector-curvature="0"
       id="path3028"
       style="fill:none;stroke:#0000e9;stroke-width:1;stroke-miterlimit:4;stroke-opacity:1;stroke-dasharray:none;stroke-dashoffset:0" />
    <path
       d="M 521.24879,301.98148 C 517.52277,302.40553 514.92046,306.82343 515.95418,310.31685 519.01341,314.11589 524.07686,315.44434 528.16604,317.85609 530.07427,319.10348 532.93969,319.84112 533.74212,322.18843 533.94096,323.50334 533.79302,325.1867 532.23631,325.55949 528.97476,326.8275 525.28955,325.92545 521.86096,326.14133 518.85682,326.17763 515.73974,325.60288 512.98143,327.11387 502.92365,330.61651 494.24145,337.02968 486.13923,343.78459 483.96974,346.05055 482.19357,349.13996 482.32128,352.36283 482.64827,354.68689 485.56966,354.37686 487.13986,353.63548 491.47467,351.80668 494.3179,347.73208 497.68691,344.59751 501.48746,340.64557 505.19577,336.09215 510.71231,334.62269 519.17801,331.74246 528.34096,331.73331 537.14233,330.2712 540.37966,330.37348 543.9223,329.62218 545.92457,326.84185 547.81794,324.53722 547.55921,320.86367 545.12795,319.04081 539.82952,313.89352 532.35632,311.6945 527.02059,306.66044 525.23237,305.23163 524.27027,302.53091 521.89969,301.98148 521.68316,301.96438 521.46542,301.96908 521.24879,301.98148 z"
       inkscape:connector-curvature="0"
       id="path3030"
       style="fill:#d5be93;stroke:none" />
    <path
       d="M 466.83577,316.51494 C 465.30329,322.39539 465.10853,328.65105 463.12469,334.41945 462.03421,336.37899 460.94571,338.51079 461.58974,340.82156 462.24343,343.71766 465.23518,345.19143 467.23284,347.1181 470.76248,350.18019 474.81728,352.57061 479.03765,354.53896 480.41107,354.18077 480.40319,352.074 481.15281,351.02838 481.97672,348.94949 483.22658,347.14603 484.38084,345.24183 486.87048,341.87948 490.90683,339.99959 493.65854,337.01333 495.75307,331.99675 498.38154,327.05345 500.11893,321.87755 499.24927,320.68841 497.14759,321.27009 495.8264,320.75034 486.29866,319.27493 476.77549,317.75933 467.23408,316.37893 L 466.93988,316.47939 466.83577,316.51499 z"
       inkscape:connector-curvature="0"
       id="path3034"
       style="fill:#7c797c;stroke:none" />
    <path
       d="M 465.14648,366.85462 C 459.89101,367.61935 454.0981,368.45914 449.95125,372.02045 449.37603,372.98348 446.62144,375.57113 448.85017,375.67475 457.29842,374.39401 466.07971,378.53352 474.29659,375.62005 475.75475,375.05274 478.00345,373.72848 476.72838,371.95176 475.12403,369.66288 472.85491,367.79157 470.60083,366.23637 468.78271,366.44245 466.9646,366.64854 465.14648,366.85462 z"
       inkscape:connector-curvature="0"
       id="path3022"
       style="fill:#8791c7;stroke:none" />
    <path
       d="M 473.41325,292.56834 C 468.31728,293.18399 465.25202,298.64177 465.69199,303.49077 465.82112,307.50243 465.85489,311.60227 466.69493,315.52606 472.56737,317.03281 478.88606,317.57113 484.933,318.68178 489.98178,319.27521 495.11394,320.63275 500.13543,320.7331 502.11045,317.44206 502.69327,313.2758 502.55348,309.45346 501.97133,302.6334 494.9448,299.10132 489.1443,297.322 483.94491,295.76866 478.94326,292.58517 473.41325,292.56834 z"
       inkscape:connector-curvature="0"
       id="path3023"
       style="fill:#c9ca98;stroke:none" />
    <path
       d="M 455.8673,301.93416 C 455.08475,302.04474 454.46961,302.64548 453.64846,302.44936 451.33288,303.62806 449.72583,305.87783 448.15417,307.89432 445.29849,312.2427 442.37814,316.77022 441.24223,321.9174 440.88128,325.15909 440.07125,328.41719 440.31485,331.68576 440.5769,334.03516 442.87853,336.19131 445.30208,335.47083 449.57337,334.18143 452.41738,330.40623 454.91931,326.93897 456.54092,324.47537 456.13033,321.22784 458.03118,318.88797 459.80279,316.29831 462.32672,313.49559 461.49338,310.10194 460.72667,307.48071 458.93026,305.29445 457.55718,302.97144 457.15933,302.43116 456.59079,301.8836 455.8673,301.93416 z"
       inkscape:connector-curvature="0"
       id="path3025"
       style="fill:#bfb879;stroke:none" />
    <path
       d="M 414.39773,286.22123 C 404.95597,290.2806 394.24603,291.29634 387.49481,301.81301"
       inkscape:connector-curvature="0"
       id="path3024"
       style="fill:none;stroke:#0000e9;stroke-width:0.93800002;stroke-linecap:round;stroke-miterlimit:4;stroke-opacity:1;stroke-dasharray:none;stroke-dashoffset:0" />
    <path
       d="M 473.1533,360.20973 444.24183,336.58315"
       inkscape:connector-curvature="0"
       id="path3031"
       style="fill:none;stroke:#0000e9;stroke-width:0.93800002;stroke-linecap:round;stroke-miterlimit:4;stroke-opacity:1;stroke-dasharray:none;stroke-dashoffset:0" />
    <path
       d="M 423.84635,281.83283 C 416.77836,282.08739 411.38903,288.93787 411.63475,295.79311 411.61835,304.07786 415.14913,311.94523 420.19734,318.37445 423.05077,322.04808 425.39698,326.4434 429.77242,328.50309 433.11564,330.24819 436.43149,332.3296 439.89532,333.68112 440.62011,332.32909 439.75081,330.49639 440.1382,328.95969 440.53256,323.72158 441.29325,318.36841 444.11158,313.85306 446.25628,309.75274 449.02692,306.06359 452.12635,302.68096 453.23681,300.91826 450.72119,300.06975 449.76361,299.07745 443.43541,293.44641 437.39869,287.02826 429.73356,283.10548 427.89233,282.2696 425.88586,281.72588 423.84635,281.83283 z"
       inkscape:connector-curvature="0"
       id="path3033"
       style="fill:#8a7294;stroke:none" />
    <path
       d="M 441.51382,183.85831 C 436.88031,184.44519 434.76994,189.26509 433.20558,193.06393 430.61048,199.4336 428.87852,206.12437 427.77248,212.89407 425.78085,222.18028 423.01476,231.31735 420.95714,240.56404 421.73903,241.73411 423.35875,240.377 424.38798,240.24624 433.77185,237.13549 442.99023,232.22746 453.13281,232.94758 459.81922,233.42258 465.91004,236.68773 470.8236,241.08864 472.39799,241.60964 472.74551,239.26203 473.44661,238.34905 474.81486,235.74231 475.68488,232.9416 477.40057,230.55772 479.22057,227.14804 480.20566,223.16582 480.14988,219.30789 478.20181,215.3626 475.19563,211.98722 472.64449,208.40468 466.41115,200.21777 459.00194,192.65466 449.74232,187.93856 447.15475,186.3529 444.71587,183.94351 441.51382,183.85831 z"
       inkscape:connector-curvature="0"
       id="path3032"
       style="fill:#e075df;stroke:none" />
    <path
       d="M 412.73863,286.95874 C 405.04861,289.95592 396.37017,291.94171 390.47927,298.1897 389.38323,299.50045 387.94293,300.79672 387.52774,302.49745 387.87715,303.62573 388.83528,304.58474 388.70928,305.86348 388.89752,310.58883 388.86409,315.33485 387.79446,319.96271 387.13369,322.79777 387.04115,325.91602 385.56994,328.4846 384.90127,329.04445 383.75033,329.61607 384.2304,330.68969 385.75175,333.75595 388.30403,336.18316 390.30987,338.93304 390.73429,339.82472 391.70727,340.57241 392.63861,339.88789 393.03341,339.49121 393.62078,339.92059 392.88591,340.05963 392.07669,340.21733 391.83554,341.15483 392.51496,341.66021 402.67945,353.75145 414.33455,365.09879 428.71699,372.03007 433.53373,373.80123 438.63946,374.71237 443.71188,375.44577 444.89946,375.38007 446.55722,376.13161 447.43625,375.03889 447.8121,374.10278 448.44189,373.28749 448.67275,372.30485 451.55337,369.55349 455.60202,368.64415 459.25833,367.37205 461.22911,366.81265 463.31427,366.92155 465.31057,366.43146 466.28659,366.36806 467.43932,366.50366 468.27817,366.0193 469.06992,366.38614 470.39539,366.0009 470.00241,364.91331 469.21292,363.4699 470.14794,361.78946 471.52743,361.12137 472.358,360.8522 472.76083,359.79794 471.80892,359.36183 462.69731,351.64328 453.21507,344.30942 444.26943,336.43256 443.83462,335.39022 442.39473,335.74161 441.72773,334.92128 441.13081,334.39554 440.47032,335.54272 440.12028,334.66711 437.31545,332.55058 434.01003,331.16029 430.90834,329.52188 426.03713,327.80584 423.31224,323.11147 420.37747,319.20396 416.70835,314.4409 413.63396,309.09818 412.17386,303.21237 411.28805,299.62227 411.24194,295.74878 411.73569,292.09023 411.99454,290.44802 413.01902,289.06389 413.42558,287.48082 413.42509,287.13698 413.06507,286.87868 412.73863,286.95874 z"
       inkscape:connector-curvature="0"
       id="path3029"
       style="fill:#95c990;stroke:none" />
  </g>
</svg>
