<?xml version="1.0" encoding="UTF-8" standalone="no"?>
<!-- Created with Inkscape (http://www.inkscape.org/) -->

<svg
   xmlns:dc="http://purl.org/dc/elements/1.1/"
   xmlns:cc="http://creativecommons.org/ns#"
   xmlns:rdf="http://www.w3.org/1999/02/22-rdf-syntax-ns#"
   xmlns:svg="http://www.w3.org/2000/svg"
   xmlns="http://www.w3.org/2000/svg"
   xmlns:xlink="http://www.w3.org/1999/xlink"
   xmlns:inkscape="http://www.inkscape.org/namespaces/inkscape"
   version="1.1"
   width="740"
   height="520"
   id="svg2"
   style="enable-background:new">
  <defs
     id="defs4">
    <filter
       color-interpolation-filters="sRGB"
       id="filter3050">
      <feBlend
         in2="BackgroundImage"
         mode="lighten"
         id="feBlend3052" />
    </filter>
  </defs>
  <metadata
     id="metadata7">
    <rdf:RDF>
      <cc:Work
         rdf:about="">
        <dc:format>image/svg+xml</dc:format>
        <dc:type
           rdf:resource="http://purl.org/dc/dcmitype/StillImage" />
        <dc:title />
      </cc:Work>
    </rdf:RDF>
  </metadata>
  <g
     id="layer1"
     style="display:none">
    <image
       xlink:href="pngs/coronal-0468.png"
       id="MRISLICE"
       height="520"
       width="740"
       y="0"
       x="0" />
  </g>
  <g
     id="layer3"
     style="display:inline">
    <path
       d="M 374.57764,107.17323 C 379.1741,126.94699 371.0806,232.21011 372.37942,286.98809 372.23287,287.57428 373.8449,308.38415 373.69835,308.97034 L 372.37942,362.1674 C 382.4936,384.3782 393.528,420.64997 460.30844,418.00233 483.52281,416.34873 503.47961,407.63707 519.66053,390.74433 535.55961,380.63665 548.3103,370.66084 558.34931,361.72776 583.93382,340.26465 605.70674,296.3782 611.10672,271.16086 629.86395,171.87598 577.8775,148.9215 509.98834,107.61288 484.12877,96.139718 416.91573,57.097961 374.57764,107.17323 z"
       inkscape:connector-curvature="0"
       id="path2990"
       style="fill:none;stroke:#0000e9;stroke-width:1;stroke-miterlimit:4;stroke-opacity:1;stroke-dasharray:none;stroke-dashoffset:0" />
    <path
       d="M 559.2286,359.96918 C 528.95726,372.76724 519.88524,382.17341 518.78124,390.30469"
       inkscape:connector-curvature="0"
       id="path2992"
       style="fill:none;stroke:#0000e9;stroke-width:1;stroke-miterlimit:4;stroke-opacity:1;stroke-dasharray:none;stroke-dashoffset:0" />
    <path
       d="M 437.00725,385.90824 C 410.0922,379.13162 389.59277,340.12954 377.21551,372.71888"
       inkscape:connector-curvature="0"
       id="path2994"
       style="fill:none;stroke:#0000e9;stroke-width:1;stroke-miterlimit:4;stroke-opacity:1;stroke-dasharray:none;stroke-dashoffset:0" />
    <path
       d="M 400.07706,316.00466 C 397.49049,332.87727 393.42899,347.78332 387.32735,359.96918"
       inkscape:connector-curvature="0"
       id="path2996"
       style="fill:none;stroke:#0000e9;stroke-width:1;stroke-miterlimit:4;stroke-opacity:1;stroke-dasharray:none;stroke-dashoffset:0" />
    <path
       d="M 493.72147,323.03899 C 485.89422,325.10615 478.39427,330.21069 474.4203,337.33363 471.03006,345.59623 473.45687,354.98144 474.92692,363.60195 476.32493,371.29125 483.30651,370.6245 489.27122,370.86544 497.3696,371.70247 505.7296,372.91331 512.54794,377.76547 514.5687,378.33742 523.18506,386.55893 520.53985,383.71006"
       inkscape:connector-curvature="0"
       id="path2998"
       style="fill:none;stroke:#0000e9;stroke-width:1;stroke-miterlimit:4;stroke-opacity:1;stroke-dasharray:none;stroke-dashoffset:0" />
    <path
       d="M 497.67828,373.15853 C 497.90063,376.58533 495.09614,379.37911 491.91872,380.13099 489.16355,381.05286 486.20589,380.66006 483.4539,381.57146 472.08998,384.1851 460.24454,385.47482 449.6056,390.54789 446.03515,391.61299 442.02852,393.0852 438.37453,391.58141 435.21833,390.21361 435.76295,386.14564 438.40933,384.5523 441.83836,381.9676 446.27539,381.52303 450.10707,379.76086 455.2581,377.81399 460.53161,376.02189 465.22406,373.08081 467.546,370.61127 470.93801,369.55367 473.59707,367.57057 L 473.49887,367.51927 475.6961,366.56388"
       inkscape:connector-curvature="0"
       id="path3004"
       style="fill:none;stroke:#0000e9;stroke-width:1;stroke-miterlimit:4;stroke-opacity:1;stroke-dasharray:none;stroke-dashoffset:0" />
    <path
       d="M 465.58418,319.96147 C 460.99214,314.72433 449.35579,312.10155 446.95269,320.7003 445.13956,328.74352 450.94604,337.28991 458.15491,340.42207 465.53221,341.78872 473.22126,332.5757 470.61896,325.71467 471.98132,321.17872 465.46372,320.75169 464.26478,319.08214"
       inkscape:connector-curvature="0"
       id="path3011"
       style="fill:none;stroke:#0000e9;stroke-width:1;stroke-miterlimit:4;stroke-opacity:1;stroke-dasharray:none;stroke-dashoffset:0" />
    <path
       d="M 422.93861,258.8508 C 419.47942,261.66158 417.84966,271.88846 419.88898,274.86101 420.71789,275.41815 421.93921,274.76241 422.09594,273.81924 423.78928,269.14999 425.50287,263.00727 422.93861,258.8508 z"
       inkscape:connector-curvature="0"
       id="path3022"
       style="fill:none;stroke:#0000e9;stroke-width:1;stroke-miterlimit:4;stroke-opacity:1;stroke-dasharray:none;stroke-dashoffset:0" />
    <path
       d="M 400.07706,317.3236 C 401.30276,313.40131 403.52476,304.75147 405.84005,295.24012 M 413.25852,258.91771 C 407.30153,255.87529 410.215,231.06559 414.78727,219.94445 419.51406,205.94671 425.46411,192.29127 432.58998,179.3704 439.69226,170.04345 453.21745,172.22586 461.56856,178.52785 476.29617,188.46632 491.27939,198.98507 501.29449,213.98461 508.94952,225.38277 515.29848,239.43254 511.23359,253.3543 511.15779,264.41835 502.00365,272.36234 501.20083,283.28547 499.08584,296.19081 499.94465,310.11162 494.1491,322.04375 490.78963,299.39339 483.9048,263.28113 485.95304,245.93679 484.69008,236.75415 481.09537,223.98273 469.52787,224.42193 457.52904,224.97682 445.08881,227.49527 434.81719,233.92372 424.68958,239.84377 421.097,248.30777 413.00491,259.07062"
       inkscape:connector-curvature="0"
       id="path3027"
       style="fill:none;stroke:#0000e9;stroke-width:1;stroke-miterlimit:4;stroke-opacity:1;stroke-dasharray:none;stroke-dashoffset:0" />
    <path
       d="M 427.77471,189.6067 C 436.4188,187.18145 438.92932,187.86814 433.58953,199.06867 431.28826,203.89571 426.6958,210.2556 424.08351,218.94449 421.47814,227.61034 420.62961,233.97889 420.9602,246.32092"
       inkscape:connector-curvature="0"
       id="path3033"
       style="fill:none;stroke:#0000e9;stroke-width:1;stroke-miterlimit:4;stroke-opacity:1;stroke-dasharray:none;stroke-dashoffset:0" />
    <path
       d="M 400.60603,315.35458 400.95635,315.12537"
       inkscape:connector-curvature="0"
       id="path3035"
       style="fill:none;stroke:#0000e9;stroke-width:1;stroke-miterlimit:4;stroke-opacity:1;stroke-dasharray:none;stroke-dashoffset:0" />
    <path
       d="M 411.06819,271.16086 C 404.87712,268.76453 393.58982,313.79073 399.19777,316.88395"
       inkscape:connector-curvature="0"
       id="path3041"
       style="fill:none;stroke:#0000e9;stroke-width:1;stroke-miterlimit:4;stroke-opacity:1;stroke-dasharray:none;stroke-dashoffset:0" />
    <path
       d="M 481.85105,329.63366 C 481.59562,323.35221 479.41139,316.96101 474.34362,312.96156 470.44468,308.8736 465.61139,305.79382 461.1492,302.34024 455.40366,299.49061 447.05643,298.23299 441.80347,294.37468 436.24462,292.20616 431.39208,290.97013 428.06396,285.12242 425.25428,280.02849 420.06393,270.70718 415.39257,279.77548 413.09477,284.64519 408.59695,294.24879 406.42643,295.69193 L 406.67111,295.33157 406.67174,294.9017"
       inkscape:connector-curvature="0"
       id="path3043"
       style="fill:none;stroke:#0000e9;stroke-width:1;stroke-miterlimit:4;stroke-opacity:1;stroke-dasharray:none;stroke-dashoffset:0" />
    <path
       d="M 418.10251,277.75554 C 415.41303,304.16974 418.00401,320.1886 429.52085,338.13539 432.53473,345.04261 439.68299,348.50054 446.93826,349.80645 455.82281,351.64962 464.10415,354.13952 472.7341,351.05173 473.22817,350.64319 472.36014,350.06407 472.17886,349.85734"
       inkscape:connector-curvature="0"
       id="path3045"
       style="fill:none;stroke:#0000e9;stroke-width:1;stroke-miterlimit:4;stroke-opacity:1;stroke-dasharray:none;stroke-dashoffset:0" />
    <path
       d="M 454.08064,315.56727 C 449.04743,315.37321 446.14053,320.92681 447.01884,325.3906 447.97873,331.97928 452.72053,338.11797 459.02665,340.29731 465.92329,340.33351 471.88215,333.19558 470.55359,326.3798 470.42881,324.49631 470.44594,322.21798 468.16302,321.63987 464.08206,319.78513 461.03283,315.74732 456.22391,315.62223 455.5139,315.53503 454.79429,315.54193 454.08064,315.56723 z"
       inkscape:connector-curvature="0"
       id="path3005"
       style="fill:#bfb879;stroke:none" />
    <path
       d="M 554.8418,362.47191 C 547.14869,365.31831 539.78422,369.40316 532.88791,373.86105 527.51907,377.68629 521.34047,382.04978 519.56028,388.71323 519.77232,390.78056 522.2146,388.65973 523.07978,388.20619 534.16865,380.79404 545.04439,372.86239 555.06163,364.05189 555.70282,363.6337 555.93747,362.34689 554.8418,362.47191 z"
       inkscape:connector-curvature="0"
       id="path3018"
       style="fill:#6abbd5;stroke:none" />
    <path
       d="M 389.12307,360.16378 C 382.94114,360.94974 379.87717,367.44766 377.55504,372.48987 377.91757,375.22461 380.06784,377.75798 381.20202,380.37397 388.38474,393.95684 399.84871,405.55028 414.34771,411.16261 428.06479,416.67801 443.04579,418.36863 457.74893,417.6199 480.16098,417.19448 502.50325,407.91416 518.09022,391.76327 519.27113,390.19061 518.69693,387.91812 519.80758,386.18527 520.85312,384.5209 519.67135,383.15042 518.22761,382.29716 512.61937,377.63251 506.06579,373.69668 498.77331,372.57001 497.18829,373.05792 498.28513,375.40392 497.06969,376.41691 494.5601,381.21526 488.36619,380.60645 483.86348,381.79385 472.19432,384.21619 460.37251,386.20455 449.2995,390.76033 445.41672,391.92832 440.23498,393.5964 436.76961,390.63668 435.0875,389.16493 437.52662,385.99568 434.88738,385.40215 420.38161,380.79506 409.6745,369.13062 396.48713,362.07349 394.20595,360.94682 391.72268,359.95474 389.12307,360.16378 z"
       inkscape:connector-curvature="0"
       id="path3020"
       style="fill:#c7a1db;stroke:none" />
    <path
       d="M 505.59189,272.91944 C 509.49089,273.53251 514.25396,271.55338 514.82444,282.15199 513.43206,296.70959 512.83159,314.7746 506.03153,322.59934"
       inkscape:connector-curvature="0"
       id="path3013"
       style="fill:none;stroke:#0000e9;stroke-width:1;stroke-miterlimit:4;stroke-opacity:1;stroke-dasharray:none;stroke-dashoffset:0" />
    <path
       d="M 495.04041,322.59934 C 501.43585,323.41022 508.98843,317.71574 512.62621,334.03011 511.02445,343.40921 493.48483,354.54688 493.28183,362.1674 L 492.40254,370.52066"
       inkscape:connector-curvature="0"
       id="path3015"
       style="fill:none;stroke:#0000e9;stroke-width:1;stroke-miterlimit:4;stroke-opacity:1;stroke-dasharray:none;stroke-dashoffset:0" />
    <path
       d="M 500.75579,350.29698 C 493.05121,346.02663 482.54022,345.9659 472.61851,345.02124"
       inkscape:connector-curvature="0"
       id="path3017"
       style="fill:none;stroke:#0000e9;stroke-width:1;stroke-miterlimit:4;stroke-opacity:1;stroke-dasharray:none;stroke-dashoffset:0" />
    <path
       d="M 560.10789,326.55615 C 558.22205,324.9552 554.79416,326.92646 555.04246,329.97277 555.11836,332.9171 553.46315,335.64442 550.71776,336.76737 547.3172,338.22507 543.69681,339.09706 540.24601,340.43482 534.34627,342.43707 529.90426,344.3078 524.63291,347.77555 516.82674,352.54299 508.98473,357.92365 503.83426,365.64757 501.10782,368.34896 503.06898,371.19929 506.02102,369.80756 513.03623,366.43232 518.24524,357.72686 524.7377,353.58543 532.6103,347.93608 542.26301,345.91301 551.51952,343.75408 556.11522,342.5482 560.08344,342.67863 563.36852,339.07843 565.67335,336.4969 565.39105,332.43501 563.07606,329.9701 562.14301,328.78371 561.06022,327.72622 560.10789,326.55615 z"
       inkscape:connector-curvature="0"
       id="path3019"
       style="fill:none;stroke:#0000e9;stroke-width:1;stroke-miterlimit:4;stroke-opacity:1;stroke-dasharray:none;stroke-dashoffset:0" />
    <path
       d="M 504.95189,272.99039 C 503.42064,273.83518 503.34832,276.26671 502.63002,277.79901 499.27227,291.76611 500.63584,306.68358 495.21101,320.15607 492.86099,322.9058 496.5991,322.49121 498.41144,322.31019 501.44836,321.93531 506.12055,323.3148 507.65846,319.71643 512.94935,309.11721 513.06355,296.90327 514.25479,285.32976 514.38336,281.47624 514.9946,276.09093 510.91458,273.99333 508.99025,273.41675 506.97202,272.93638 504.95189,272.99039 z"
       inkscape:connector-curvature="0"
       id="path3028"
       style="fill:#c7afc8;stroke:none" />
    <path
       d="M 474.0943,345.47688 C 471.76636,345.66295 473.26808,348.79653 473.09389,350.2421 474.05244,355.78708 474.025,361.73491 476.55357,366.84089 479.42098,371.00876 485.21347,370.34628 489.66033,370.70445 493.25942,371.84427 492.20364,367.51781 492.72426,365.35708 492.81476,360.69096 494.91552,356.40993 498.15288,353.1427 500.72692,351.29639 500.39889,349.29693 497.12216,349.01583 489.78949,346.40584 481.79302,346.07152 474.0943,345.47688 z"
       inkscape:connector-curvature="0"
       id="path3032"
       style="fill:#7c797c;stroke:none" />
    <path
       d="M 475.3308,367.1294 C 468.8353,370.05436 463.63829,375.32378 456.73812,377.40756 451.10546,380.02365 444.90915,381.36825 439.44477,384.27556 437.16273,385.36696 435.27457,388.65179 437.6175,390.66416 440.04856,392.61033 443.63817,391.60552 446.45162,391.15876 454.00718,388.5957 461.50815,385.65949 469.40227,384.33273 477.00666,382.54445 484.73974,381.27194 492.36705,379.67303 495.06957,378.65016 497.88772,375.73708 497.35428,372.69366 494.89827,371.04598 491.40394,371.71046 488.56379,371.15846 484.19201,370.87859 478.87713,370.83495 475.86662,367.21184 475.70215,367.12834 475.51471,367.07737 475.3308,367.12944 z"
       inkscape:connector-curvature="0"
       id="path3034"
       style="fill:#8791c7;stroke:none" />
    <path
       d="M 558.14895,326.24241 C 554.56516,327.12554 555.69865,331.85674 553.98606,334.26593 550.38873,338.28721 544.45468,338.75835 539.75487,340.9392 526.20735,346.02987 513.19917,353.93739 504.3199,365.42578 503.19424,366.50471 501.89155,369.51293 504.2649,369.90466 508.24698,369.15885 510.90859,365.50358 513.92448,363.06806 519.85254,357.28751 525.89774,351.1715 533.92721,348.54066 542.4865,344.99353 551.84773,344.09678 560.49826,340.9293 565.74012,338.74409 565.55245,331.66641 561.39129,328.48185 560.48128,327.61696 559.54605,326.14444 558.1489,326.24241 z"
       inkscape:connector-curvature="0"
       id="path3036"
       style="fill:#d5be93;stroke:none" />
    <path
       d="M 495.41709,322.65655 C 493.47047,322.89197 491.73387,324.15003 489.8055,324.69719 483.28501,327.35367 477.15283,332.118 474.32786,338.67612 474.00352,340.59618 472.42825,342.94676 473.42109,344.76246 482.39679,345.8672 491.85311,346.02965 500.21197,349.55734 503.00438,348.73171 504.53311,345.6538 506.58682,343.74578 508.92596,340.72431 511.73869,337.39713 512.31447,333.61091 511.10179,329.85462 509.98567,324.90105 505.92735,323.2748 502.49702,322.57728 498.9064,322.67976 495.41709,322.65655 z"
       inkscape:connector-curvature="0"
       id="path3024"
       style="fill:#c9ca98;stroke:none" />
    <path
       d="M 419.54479,276.26339 C 417.42786,276.29599 418.13378,278.97956 417.98069,280.31449 417.57333,289.47937 416.69464,298.71162 418.19216,307.83088 419.54914,319.18243 424.30535,329.79915 430.4642,339.34323 433.87809,345.73206 441.08567,348.60431 447.86037,349.84441 455.52379,351.27798 463.58511,353.75536 471.30565,351.24281 473.32744,350.22071 472.37727,347.4576 472.64661,345.65692 472.54176,340.09473 475.0186,334.77052 479.10669,331.07472 480.22359,329.77543 482.45533,328.72394 481.41319,326.68744 480.62791,321.59685 478.36068,316.68552 474.37555,313.32565 469.79547,309.1685 465.02897,305.07836 459.7158,301.89124 453.55678,299.47842 447.03877,297.91023 441.35468,294.45935 436.8498,292.61026 431.73808,290.95725 428.99542,286.66219 426.31956,283.2829 424.76693,278.64486 420.84658,276.45769 420.43728,276.28581 419.98681,276.22132 419.54479,276.26339 z M 454.51834,315.14233 C 458.72532,315.00117 462.6996,316.94404 465.69045,319.73746 467.85607,320.90851 470.84792,321.94287 470.99477,324.86692 471.2915,328.31672 471.46804,332.06023 469.19752,334.87324 466.96367,338.32202 463.08875,340.98666 458.78317,340.49816 455.58785,340.16683 453.38385,337.38272 451.23076,335.25421 447.89466,331.81892 446.23862,326.95942 446.68815,322.14675 446.61255,318.06975 450.50847,314.71589 454.51834,315.14233 z"
       inkscape:connector-curvature="0"
       id="path3021"
       style="fill:#8a7294;stroke:none" />
    <path
       d="M 416.90234,278.12865 C 414.38337,281.54114 412.85972,285.74938 410.73108,289.46785 409.54251,291.60085 408.39658,294.08576 406.52685,295.64457 405.22539,296.37482 405.49429,298.42581 404.89475,299.65681 402.82743,308.7583 399.73738,317.59833 398.26921,326.80018 395.98895,337.89972 392.72457,348.76706 388.04916,359.09243 388.23508,360.4761 390.24407,359.65092 391.22592,359.92791 397.25114,360.66015 402.05197,364.8664 406.94333,368.06402 416.19201,374.72576 425.30497,382.18713 436.38067,385.57518 438.64915,384.3371 440.85422,382.63753 443.43367,381.90296 450.6357,379.38045 458.00221,376.97765 464.61264,373.11014 467.12841,371.17575 469.96285,369.72951 472.52001,367.87468 473.36479,367.0882 475.80795,366.97566 475.18188,365.29052 474.23155,360.84621 473.47386,356.27953 472.80174,351.79656 471.46336,350.92995 469.81321,352.4501 468.3329,352.32116 459.302,353.21369 450.3467,350.9094 441.75299,348.52264 436.73464,347.13512 432.52819,343.64199 429.91056,339.1575 423.3701,328.80839 418.44838,317.2396 417.46983,304.91586 416.59024,296.21118 417.15615,287.42532 417.78639,278.74068 417.73659,278.32955 417.35045,277.93262 416.90234,278.12865 z"
       inkscape:connector-curvature="0"
       id="path3025"
       style="fill:#95c990;stroke:none" />
    <path
       d="M 422.27915,258.63097 423.37826,245.66144"
       inkscape:connector-curvature="0"
       id="path3026"
       style="fill:none;stroke:#0000e9;stroke-width:0.93800002;stroke-linecap:round;stroke-miterlimit:4;stroke-opacity:1;stroke-dasharray:none;stroke-dashoffset:0" />
    <path
       d="M 422.59851,259.54674 C 420.50762,261.76499 419.8276,264.93792 419.37674,267.86565 419.23869,270.05194 418.77357,272.54025 419.91256,274.52902 420.8211,275.45882 421.93259,274.20848 422.07644,273.26504 423.69737,269.23724 424.61504,264.74704 423.56711,260.4535 423.39197,260.03158 423.21836,259.31398 422.59851,259.54674 z"
       inkscape:connector-curvature="0"
       id="path3101"
       style="fill:#a7b0c5;stroke:none" />
    <path
       d="M 433.3405,188.64022 C 431.2765,188.91984 429.08095,189.20526 427.20607,190.05533 421.64337,201.51365 416.89752,213.37054 413.08934,225.52232 410.80837,234.29159 409.54434,243.46719 410.39651,252.52615 410.66253,254.55767 411.19826,256.77946 412.66344,258.25528 413.61866,258.70272 413.98953,257.16862 414.55641,256.67486 416.77812,253.40576 419.32082,250.29723 421.17469,246.81077 421.10009,246.15116 420.81156,245.49613 420.89991,244.74993 420.67908,236.56576 421.15142,228.2826 423.53741,220.42021 425.94581,211.04048 431.99203,203.16943 435.45629,194.23196 435.89365,192.69521 436.91889,190.64815 435.66924,189.24473 435.04376,188.68169 434.14488,188.60356 433.3405,188.64022 z"
       inkscape:connector-curvature="0"
       id="path3023"
       style="fill:#b46a9f;stroke:none" />
    <path
       d="M 468.51898,224.6499 C 455.29707,225.30401 441.77,228.64267 431.03923,236.69206 428.23788,239.09751 425.32185,241.59621 423.45535,244.82549 423.15744,247.04458 423.22806,249.42422 422.94701,251.69495 422.90241,253.7503 422.34596,255.87618 422.60904,257.89031 423.95972,260.19572 424.48852,262.81789 424.21182,265.46783 423.96578,268.66252 423.08025,271.87046 421.6212,274.72136 420.93089,275.20726 420.69214,276.2725 421.74977,276.54516 425.63322,279.26386 427.09392,284.12307 430.11585,287.63939 433.66194,292.10797 439.76073,292.80825 444.32088,295.74654 449.66481,298.48881 455.69652,299.57198 461.03127,302.29536 466.71326,306.07079 472.20379,310.26856 476.78293,315.31984 479.97667,318.59606 481.06122,323.20405 481.88693,327.56808 482.35626,328.72408 483.51733,327.46075 484.16,327.1455 487.09862,325.23031 490.38847,323.94879 493.71614,322.88311 494.40561,321.9117 493.53806,320.50885 493.58356,319.37331 490.76494,300.28342 487.23487,281.24338 485.80252,261.99226 485.40174,255.63999 485.87422,249.24951 485.33066,242.91129 484.12337,236.77572 482.02216,230.09872 476.59745,226.40848 474.23452,224.81444 471.29178,224.56848 468.51898,224.6499 z"
       inkscape:connector-curvature="0"
       id="path3029"
       style="fill:#d0cf6e;stroke:none" />
    <path
       d="M 445.64369,173.23203 C 440.22932,173.19473 434.74006,175.90653 432.0353,180.69226 430.64717,183.32752 429.15905,185.99172 427.97803,188.7155 428.38909,189.79244 429.93577,188.6878 430.82917,188.7497 432.51619,188.48151 434.71184,187.86776 436.06767,189.23095 436.97731,191.14156 435.94736,193.31919 435.3638,195.16531 432.22497,203.09639 426.93708,210.08096 424.4396,218.31271 422.16583,225.21336 421.09041,232.47594 421.04417,239.74893 421.09057,241.69987 420.75065,243.7276 421.17469,245.63605 422.09931,246.33431 422.68837,244.78351 423.28361,244.29651 426.93779,239.64468 431.27325,235.48535 436.58362,232.74693 447.01857,226.98953 459.0284,224.62814 470.88207,224.34761 475.45638,224.55844 479.58531,227.54937 481.70146,231.53993 484.04657,235.79797 485.32762,240.61903 485.90557,245.40249 485.93377,250.22243 485.52406,255.04863 485.89757,259.86919 486.96052,276.40906 489.75498,292.7789 492.23941,309.15146 492.84261,312.56593 493.25234,316.04627 494.07326,319.39339 495.06464,320.24957 495.49513,318.44309 495.7698,317.76491 499.37114,307.41644 499.23989,296.29356 500.78567,285.53741 501.20398,281.39097 501.97729,277.35201 503.87695,273.61413 506.35491,267.90948 509.75531,262.4678 510.89655,256.2837 510.98895,252.80514 512.24201,249.49027 512.25939,245.9866 512.81653,237.02034 509.41173,228.36403 505.19353,220.64393 497.99274,207.27973 486.67963,196.70058 474.57262,187.79521 468.89523,183.74074 463.28532,179.52594 457.21863,176.06221 453.65434,174.25951 449.65767,173.17301 445.6436,173.23199 z"
       inkscape:connector-curvature="0"
       id="path3031"
       style="fill:#e075df;stroke:none" />
  </g>
</svg>
