<?xml version="1.0" encoding="UTF-8" standalone="no"?>
<!-- Created with Inkscape (http://www.inkscape.org/) -->

<svg
   xmlns:dc="http://purl.org/dc/elements/1.1/"
   xmlns:cc="http://creativecommons.org/ns#"
   xmlns:rdf="http://www.w3.org/1999/02/22-rdf-syntax-ns#"
   xmlns:svg="http://www.w3.org/2000/svg"
   xmlns="http://www.w3.org/2000/svg"
   xmlns:xlink="http://www.w3.org/1999/xlink"
   xmlns:inkscape="http://www.inkscape.org/namespaces/inkscape"
   version="1.1"
   width="740"
   height="520"
   id="svg2"
   style="display:inline;enable-background:new">
  <defs
     id="defs4">
    <filter
       color-interpolation-filters="sRGB"
       id="filter3050">
      <feBlend
         in2="BackgroundImage"
         mode="lighten"
         id="feBlend3052" />
    </filter>
  </defs>
  <metadata
     id="metadata7">
    <rdf:RDF>
      <cc:Work
         rdf:about="">
        <dc:format>image/svg+xml</dc:format>
        <dc:type
           rdf:resource="http://purl.org/dc/dcmitype/StillImage" />
        <dc:title />
      </cc:Work>
    </rdf:RDF>
  </metadata>
  <g
     id="g5204"
     style="display:none">
    <image
       xlink:href="pngs/coronal-0427.png"
       id="image5206"
       height="520"
       width="740"
       y="0"
       x="0" />
  </g>
  <g
     id="g5212"
     style="display:inline">
    <path
       d="M 510.57348,355.85745 C 517.4,350.41108 533.09941,347.48927 539.91932,337.99772 551.29567,328.93224 551.43019,314.48294 560.51985,305.11615 567.80374,295.19591 570.19289,282.85292 576.49084,272.30977 583.07941,254.80426 587.54541,236.18772 587.72257,217.44505 586.71328,203.61253 583.16414,190.03249 575.83363,178.21652 566.94496,165.86534 557.46293,153.6051 545.78469,143.58253 534.76253,132.94913 521.45184,124.96748 508.76707,116.48465 489.55883,107.83825 470.01788,99.794513 449.83347,93.688554 436.16599,90.351309 421.43801,88.615378 407.34119,90.783618 394.06857,93.923513 387.39304,107.5818 375.65327,113.37413 366.24238,121.55425 370.15365,136.22701 368.73268,147.42477 366.97956,216.45003 366.93937,285.74989 374.50217,354.45931 379.91849,369.8597 391.15598,385.68953 407.98864,389.3583 420.37494,391.16532 432.25774,385.44257 443.94252,382.25438 456.24006,379.72297 467.52927,374.57747 479.14481,369.9976 488.5132,363.66852 500.95145,360.43509 509.95404,355.55809 509.09864,354.40444 507.26829,355.24975 506.22121,355.2357"
       inkscape:connector-curvature="0"
       id="path5214"
       style="fill:none;stroke:#0000e9;stroke-width:1;stroke-miterlimit:4;stroke-opacity:1;stroke-dasharray:none;stroke-dashoffset:0" />
    <path
       d="M 434.09797,290.57348 C 435.09173,292.21487 432.98541,294.60242 435.25161,295.76446 435.60477,297.07041 436.4566,298.3756 436.75043,299.836 437.02215,301.2159 438.06659,302.39842 437.87346,303.80346 437.15672,305.35164 436.27168,306.49388 435.49123,307.98182 435.10535,309.2616 434.82,310.69338 434.06369,311.69232 433.56811,313.50702 432.96452,315.31216 432.73655,317.2465 432.34489,319.40815 433.79669,321.13103 434.59783,322.99264 435.40125,323.91941 436.16738,325.10941 437.24972,325.10421 437.51828,324.16021 439.83243,325.41962 440.12121,324.06364 441.72936,324.54477 442.91439,323.82904 444.25147,323.29398 445.68597,322.49406 447.48361,322.49584 447.80539,320.65275 448.33611,319.59705 448.58146,321.48831 448.76085,320.13832 449.38457,318.61846 450.85642,317.72211 452.27345,317.04586 453.90103,316.29432 454.50871,314.75927 454.61845,313.03125 455.34491,311.44324 455.04133,309.70581 455.82854,308.15566 456.56809,306.35893 455.29381,304.66295 454.7802,302.99676 454.24368,301.41135 453.46902,300.32385 452.51159,299.0276 452.01968,298.49898 452.11357,297.66479 451.16565,297.04201 450.72947,296.25432 450.44102,296.06291 449.88491,295.43203 449.67448,295.57146 449.31403,294.66938 448.76681,294.51086 450.00242,294.02903 447.49613,293.57334 447.07479,292.88869 445.77257,292.01585 444.70339,290.93636 443.60022,289.86318 442.53926,289.0623 441.18035,288.33186 439.95115,288.10347 439.03438,286.30966 437.67702,288.3053 436.47491,288.23588 435.47238,288.77872 434.97327,289.8815 434.09797,290.57348 z"
       inkscape:connector-curvature="0"
       id="path5216"
       style="fill:none;stroke:#0000e9;stroke-width:1;stroke-miterlimit:4;stroke-opacity:1;stroke-dasharray:none;stroke-dashoffset:0" />
    <path
       d="M 368.19225,270.05566 C 369.02125,270.26291 370.47201,271.50641 370.67926,270.67741 370.88651,269.84841 367.33773,270.05566 368.19225,270.05566 369.24902,270.05566 370.29846,270.34323 371.30101,270.67741 371.57906,270.77011 371.66061,271.16809 371.92276,271.29916 372.91864,271.7971 373.5245,270.67741 374.40977,270.67741 375.87641,270.67741 383.56934,271.07164 384.3578,270.67741 384.61996,270.54633 384.7174,270.18673 384.97955,270.05566 385.47696,269.80696 386.34741,270.30436 386.84481,270.05566 387.10696,269.92458 387.20441,269.56498 387.46656,269.43391 388.00529,269.16454 393.30109,269.43391 394.30584,269.43391 397.62185,269.43391 400.93786,269.43391 404.25387,269.43391 405.15264,269.43391 407.13595,269.1511 407.98438,269.43391 408.26244,269.52661 408.32808,269.96297 408.60613,270.05566 409.92201,270.49428 412.19212,270.05566 413.58015,270.05566 414.77452,270.05566 418.99356,269.6536 419.79767,270.05566 420.50267,270.40816 420.69271,271.00082 421.66293,270.67741 422.10257,270.53086 422.46679,270.20221 422.90643,270.05566 424.06789,269.66851 429.97134,270.05566 431.61096,270.05566 432.41452,270.05566 435.39326,269.77067 435.96323,270.05566 436.22538,270.18673 436.32282,270.54633 436.58498,270.67741 437.23983,271.00484 440.63682,270.67741 441.55899,270.67741 442.93821,270.67741 452.22403,270.41416 452.75053,270.67741 453.01269,270.80849 453.11013,271.16809 453.37228,271.29916 454.27246,271.74925 459.11621,270.82557 459.58981,271.29916 459.73635,271.44571 459.44326,271.77437 459.58981,271.92091 459.84716,272.17827 469.90223,271.66356 470.15959,271.92091 470.30614,272.06746 470.01304,272.39612 470.15959,272.54267 470.45269,272.83576 470.98859,272.54267 471.4031,272.54267 472.20666,272.54267 475.18539,272.25768 475.75536,272.54267 476.01751,272.67374 476.11496,273.03334 476.37711,273.16442 477.16516,273.55844 479.20721,273.16442 480.10762,273.16442 480.59446,273.16442 482.90615,272.85418 483.21639,273.16442 483.36293,273.31097 483.06984,273.63962 483.21639,273.78617 483.73451,274.3043 485.80702,273.26804 486.32515,273.78617 486.47169,273.93272 486.1786,274.26137 486.32515,274.40792 486.61824,274.70102 487.19791,274.22255 487.56865,274.40792 487.8308,274.539 487.92825,274.8986 488.1904,275.02967 490.85014,276.35954 486.77417,273.6998 489.43391,275.02967 489.69606,275.16075 489.7935,275.52035 490.05566,275.65143 490.72059,275.98389 490.63423,275.31896 491.29916,275.65143 491.56132,275.7825 491.65876,276.1421 491.92091,276.27318 492.10629,276.36588 492.3573,276.18048 492.54267,276.27318 492.80482,276.40426 492.90226,276.76385 493.16442,276.89493 493.34979,276.98763 493.6008,276.80223 493.78617,276.89493 494.04832,277.02601 494.14577,277.38561 494.40792,277.51668 494.59329,277.60938 494.88313,277.37013 495.02967,277.51668 495.17622,277.66323 494.88313,277.99189 495.02967,278.13844 495.17622,278.28498 495.46606,278.04574 495.65143,278.13844 495.91358,278.26951 496.01103,278.62911 496.27318,278.76019 496.45855,278.85289 496.68768,278.76019 496.89493,278.76019 497.10218,278.96744 497.25453,279.25086 497.51668,279.38194 497.70205,279.47464 497.95306,279.28924 498.13844,279.38194 498.40059,279.51302 498.49803,279.87261 498.76019,280.00369 498.94556,280.09639 499.19657,279.91099 499.38194,280.00369 499.64409,280.13477 499.74154,280.49437 500.00369,280.62544 500.18906,280.71814 500.44007,280.53274 500.62544,280.62544 501.14975,280.8876 501.34464,281.60679 501.86895,281.86895 502.05432,281.96165 502.30533,281.77625 502.4907,281.86895 502.75285,282.00002 502.8503,282.35962 503.11245,282.4907 503.29782,282.5834 503.54883,282.398 503.7342,282.4907 503.99636,282.62178 504.0938,282.98138 504.35596,283.11245 504.54133,283.20515 504.79234,283.01975 504.97771,283.11245 505.23986,283.24353 505.33731,283.60313 505.59946,283.7342 505.78483,283.8269 506.07466,283.58766 506.22121,283.7342 506.36776,283.88075 506.07466,284.20941 506.22121,284.35596 506.36776,284.5025 506.65759,284.26326 506.84296,284.35596 507.56723,284.71809 507.98396,285.23733 508.70822,285.59946 510.70303,286.59686 507.95692,284.60206 509.95173,285.59946 510.21388,285.73054 510.31132,286.09014 510.57348,286.22121 510.75885,286.31391 511.00986,286.12851 511.19523,286.22121 511.71954,286.48337 511.91443,287.20256 512.43873,287.46472 512.80947,287.65009 513.3115,287.27935 513.68224,287.46472 514.20655,287.72687 514.40143,288.44607 514.92574,288.70822 515.11111,288.80092 515.34024,288.70822 515.54749,288.70822 515.75474,288.91547 515.90709,289.1989 516.16925,289.32997 516.35462,289.42267 516.60563,289.23727 516.791,289.32997 517.31531,289.59213 517.51019,290.31132 518.0345,290.57348 518.21987,290.66618 518.50971,290.42693 518.65625,290.57348 518.8028,290.72003 518.50971,291.04868 518.65625,291.19523 518.94935,291.48833 519.60666,290.90213 519.89976,291.19523 520.04631,291.34178 519.75321,291.67043 519.89976,291.81698 520.04631,291.96353 520.33614,291.72428 520.52151,291.81698 521.04582,292.07914 521.24071,292.79833 521.76501,293.06049 521.95039,293.15319 522.24022,292.91394 522.38677,293.06049 522.53332,293.20703 522.24022,293.53569 522.38677,293.68224 522.53332,293.82879 522.82315,293.58954 523.00852,293.68224 523.27067,293.81331 523.42302,294.09674 523.63027,294.30399 523.83752,294.51124 523.98987,294.79467 524.25202,294.92574 524.62276,295.11111 525.20243,294.63265 525.49553,294.92574 525.64208,295.07229 525.34898,295.40095 525.49553,295.54749 525.78862,295.84059 526.44593,295.2544 526.73903,295.54749 526.88558,295.69404 526.59248,296.0227 526.73903,296.16925 526.88558,296.31579 527.17541,296.07655 527.36078,296.16925 527.88509,296.4314 528.07998,297.1506 528.60429,297.41275 528.78966,297.50545 529.04067,297.32005 529.22604,297.41275 529.75035,297.6749 529.94524,298.3941 530.46954,298.65625 530.65491,298.74895 530.90593,298.56355 531.0913,298.65625 531.35345,298.78733 531.45089,299.14693 531.71305,299.27801 531.89842,299.37071 532.18825,299.13146 532.3348,299.27801 532.48135,299.42455 532.18825,299.75321 532.3348,299.89976 533.99714,301.5621 531.91597,298.23742 533.5783,299.89976 533.72485,300.04631 533.43176,300.37496 533.5783,300.52151 533.72485,300.66806 534.05351,300.37496 534.20006,300.52151 534.34661,300.66806 534.05351,300.99671 534.20006,301.14326 534.49315,301.43636 535.15046,300.85017 535.44356,301.14326 535.59011,301.28981 535.29701,301.61847 535.44356,301.76501 535.59011,301.91156 535.87994,301.67231 536.06531,301.76501 536.81142,302.13807 537.18447,303.25722 537.93057,303.63027 538.11594,303.72297 538.36695,303.53757 538.55232,303.63027 538.81448,303.76135 538.91192,304.12095 539.17407,304.25202 539.35944,304.34472 539.61045,304.15932 539.79583,304.25202 540.79063,304.74942 541.28803,306.24163 542.28283,306.73903 542.4682,306.83173 542.71922,306.64633 542.90459,306.73903 543.42889,307.00119 543.62378,307.72038 544.14809,307.98254 544.33346,308.07524 544.62329,307.83599 544.76984,307.98254 544.91639,308.12908 544.62329,308.45774 544.76984,308.60429 544.91639,308.75084 545.24505,308.45774 545.39159,308.60429 545.53814,308.75084 545.24505,309.07949 545.39159,309.22604 545.53814,309.37259 545.82798,309.13334 546.01335,309.22604 546.53765,309.48819 546.73254,310.20739 547.25685,310.46954 547.44222,310.56224 547.73205,310.323 547.8786,310.46954 548.02515,310.61609 547.8786,310.88405 547.8786,311.0913 548.08585,311.0913 548.35381,310.94475 548.50035,311.0913 548.6469,311.23784 548.35381,311.5665 548.50035,311.71305 548.6469,311.8596 548.93674,311.62035 549.12211,311.71305 549.38426,311.84413 549.48171,312.20372 549.74386,312.3348 549.92923,312.4275 550.21906,312.18825 550.36561,312.3348 550.51216,312.48135 550.21906,312.81 550.36561,312.95655 550.51216,313.1031 550.84081,312.81 550.98736,312.95655 551.13391,313.1031 550.84081,313.43176 550.98736,313.5783 551.28046,313.8714 551.93777,313.28521 552.23087,313.5783 552.37742,313.72485 552.08432,314.05351 552.23087,314.20006 552.37742,314.34661 552.70607,314.05351 552.85262,314.20006 552.99917,314.34661 552.70607,314.67526 552.85262,314.82181 552.99917,314.96836 553.32782,314.67526 553.47437,314.82181 553.62092,314.96836 553.32782,315.29701 553.47437,315.44356 553.62092,315.59011 554.09612,315.65081 554.09612,315.44356 554.09612,315.23631 553.62092,315.59011 553.47437,315.44356 553.32782,315.29701 553.62092,314.96836 553.47437,314.82181 553.32782,314.67526 553.03799,314.91451 552.85262,314.82181 551.31602,314.05351 553.06723,314.20006 551.60912,314.20006"
       inkscape:connector-curvature="0"
       id="path5218"
       style="fill:none;stroke:#0000e9;stroke-width:1;stroke-miterlimit:4;stroke-opacity:1;stroke-dasharray:none;stroke-dashoffset:0" />
    <path
       d="M 372.54451,344.04416 C 373.16626,343.21515 375.23877,342.1789 374.40977,341.55715 373.58077,340.9354 371.81177,344.7769 372.54451,344.04416 373.68909,342.89958 374.20548,341.03754 375.65327,340.31364 375.83864,340.22094 376.12848,340.46019 376.27502,340.31364 376.42157,340.1671 376.18232,339.87726 376.27502,339.69189 376.4061,339.42974 376.7657,339.33229 376.89678,339.07014 376.98948,338.88477 376.75023,338.59494 376.89678,338.44839 377.04333,338.30184 377.37198,338.59494 377.51853,338.44839 377.66508,338.30184 377.37198,337.97318 377.51853,337.82664 377.81163,337.53354 378.46894,338.11973 378.76203,337.82664 378.90858,337.68009 378.61548,337.35143 378.76203,337.20488 379.05513,336.91179 379.71244,337.49798 380.00554,337.20488 380.15209,337.05834 379.85899,336.72968 380.00554,336.58313 380.13157,336.4571 382.98827,336.4571 383.1143,336.58313 383.26085,336.72968 382.96775,337.05834 383.1143,337.20488 383.35656,337.44714 385.22189,337.20488 385.60131,337.20488 385.98073,337.20488 387.84606,336.96263 388.08831,337.20488 388.23486,337.35143 387.94177,337.68009 388.08831,337.82664 388.39919,338.13751 389.64269,337.51576 389.95357,337.82664 390.10012,337.97318 389.80702,338.30184 389.95357,338.44839 390.24667,338.74149 390.78257,338.44839 391.19708,338.44839 392.85508,338.44839 390.98982,338.24114 391.81883,339.07014 392.11192,339.36324 392.76923,338.77704 393.06233,339.07014 393.20888,339.21669 393.06233,339.48464 393.06233,339.69189 393.26958,339.69189 393.53754,339.54534 393.68408,339.69189 393.83063,339.83844 393.53754,340.1671 393.68408,340.31364 393.83063,340.46019 394.12046,340.22094 394.30584,340.31364 395.0301,340.67578 395.44683,341.19502 396.17109,341.55715 396.35646,341.64985 396.6463,341.4106 396.79284,341.55715 396.93939,341.7037 396.6463,342.03235 396.79284,342.1789 396.93939,342.32545 397.26805,342.03235 397.4146,342.1789 397.56114,342.32545 397.26805,342.6541 397.4146,342.80065 397.56114,342.9472 397.8898,342.6541 398.03635,342.80065 398.1829,342.9472 397.8898,343.27586 398.03635,343.42241 398.1829,343.56895 398.51155,343.27586 398.6581,343.42241 399.94453,344.70883 396.69227,343.37211 399.27985,344.66591 399.46522,344.75861 399.75506,344.51936 399.9016,344.66591 400.04815,344.81246 399.75506,345.14111 399.9016,345.28766 400.04815,345.43421 400.37681,345.14111 400.52336,345.28766 400.6699,345.43421 400.37681,345.76287 400.52336,345.90941 400.6699,346.05596 400.95974,345.81671 401.14511,345.90941 401.66942,346.17157 402.12646,346.62861 402.38861,347.15292 402.48131,347.33829 402.24206,347.62812 402.38861,347.77467 402.53516,347.92122 402.82499,347.68197 403.01036,347.77467 405.33764,348.93831 401.9266,347.85457 404.25387,349.01817 404.43924,349.11087 404.72907,348.87163 404.87562,349.01817 405.02217,349.16472 404.72907,349.49338 404.87562,349.63993 405.02217,349.78647 405.312,349.54723 405.49737,349.63993 405.75953,349.771 405.85697,350.1306 406.11913,350.26168 406.3045,350.35438 406.59433,350.11513 406.74088,350.26168 408.0273,351.54811 404.77505,350.21138 407.36263,351.50518 407.548,351.59788 407.83783,351.35863 407.98438,351.50518 408.13093,351.65173 407.83783,351.98039 407.98438,352.12693 408.13093,352.27348 408.39888,352.12693 408.60613,352.12693 408.60613,352.33419 408.45959,352.60214 408.60613,352.74869 408.75268,352.89524 409.08134,352.60214 409.22789,352.74869 409.37443,352.89524 409.08134,353.22389 409.22789,353.37044 409.37443,353.51699 409.70309,353.22389 409.84964,353.37044 409.99619,353.51699 409.75694,353.80682 409.84964,353.99219 409.98071,354.25434 410.34031,354.35179 410.47139,354.61394 410.56409,354.79931 410.32484,355.08915 410.47139,355.2357 410.61794,355.38224 410.94659,355.08915 411.09314,355.2357 411.23969,355.38224 410.94659,355.7109 411.09314,355.85745 411.23969,356.004 411.56835,355.7109 411.71489,355.85745 412.00799,356.15054 411.4218,356.80785 411.71489,357.10095 411.86144,357.2475 412.1901,356.9544 412.33665,357.10095 412.48319,357.2475 412.1901,357.57616 412.33665,357.7227 412.48319,357.86925 412.81185,357.57616 412.9584,357.7227 413.10495,357.86925 412.8657,358.15908 412.9584,358.34446 413.08948,358.60661 413.44907,358.70405 413.58015,358.96621 413.67285,359.15158 413.4336,359.44141 413.58015,359.58796 413.7267,359.73451 414.05535,359.44141 414.2019,359.58796 414.495,359.88106 413.90881,360.53837 414.2019,360.83146 415.03091,361.66047 414.82365,359.79521 414.82365,361.45322 414.82365,363.25209 414.84865,362.09994 415.44541,362.69672 415.73282,362.98413 415.25771,364.18658 415.44541,364.56198 415.57648,364.82413 415.93608,364.92157 416.06716,365.18373 416.39459,365.83858 416.06716,369.23557 416.06716,370.15775 416.06716,370.41376 416.23174,371.85842 416.06716,372.023 415.92061,372.16955 415.59196,371.87645 415.44541,372.023 415.29886,372.16955 415.53811,372.45938 415.44541,372.64475 415.31433,372.90691 414.95473,373.00435 414.82365,373.26651 414.63828,373.63725 415.11675,374.21691 414.82365,374.51001 414.67711,374.65656 414.40915,374.51001 414.2019,374.51001 414.2019,374.71726 414.34845,374.98521 414.2019,375.13176 414.05535,375.27831 413.7267,374.98521 413.58015,375.13176 413.4336,375.27831 413.67285,375.56814 413.58015,375.75351 413.318,376.27782 412.5988,376.47271 412.33665,376.99702 412.24395,377.18239 412.48319,377.47222 412.33665,377.61877 412.1901,377.76532 411.90026,377.52607 411.71489,377.61877 411.45274,377.74985 411.3553,378.10945 411.09314,378.24052 410.71774,378.42822 409.5153,377.95311 409.22789,378.24052 409.08134,378.38707 409.37443,378.71573 409.22789,378.86227 408.8132,379.27696 408.39907,378.44759 407.98438,378.86227 407.83783,379.00882 408.13093,379.33748 407.98438,379.48403 407.69697,379.77144 406.49452,379.29633 406.11913,379.48403 405.39486,379.84616 404.97813,380.3654 404.25387,380.72753 403.73621,380.98636 402.16125,380.33315 401.76686,380.72753 401.62031,380.87408 401.91341,381.20273 401.76686,381.34928 401.47376,381.64238 400.81645,381.05619 400.52336,381.34928 400.37681,381.49583 400.6699,381.82449 400.52336,381.97104 400.10886,382.38554 398.45085,381.55653 398.03635,381.97104 397.8898,382.11758 398.1829,382.44624 398.03635,382.59279 397.72547,382.90366 396.48197,382.28191 396.17109,382.59279 395.57432,383.18956 396.72646,383.21454 394.92759,383.21454 394.51309,383.21454 393.97718,382.92144 393.68408,383.21454 393.53754,383.36109 393.47683,383.83629 393.68408,383.83629 394.60092,383.83629 393.46784,382.78205 393.06233,381.97104 392.87696,381.60029 393.06233,381.14203 393.06233,380.72753"
       inkscape:connector-curvature="0"
       id="path5220"
       style="fill:none;stroke:#0000e9;stroke-width:1;stroke-miterlimit:4;stroke-opacity:1;stroke-dasharray:none;stroke-dashoffset:0" />
    <path
       d="M 398.6581,269.43391 C 399.4871,269.84841 400.31611,270.26291 401.14511,270.67741 401.35236,270.88466 401.50471,271.16809 401.76686,271.29916 401.95223,271.39186 402.20324,271.20646 402.38861,271.29916 402.72253,271.46612 403.2982,272.37571 403.63212,272.54267 403.81749,272.63537 404.0685,272.44997 404.25387,272.54267 404.77818,272.80482 404.97307,273.52402 405.49737,273.78617 405.68274,273.87887 405.97258,273.63962 406.11913,273.78617 406.26567,273.93272 405.97258,274.26137 406.11913,274.40792 406.26567,274.55447 406.59433,274.26137 406.74088,274.40792 406.88743,274.55447 406.59433,274.88313 406.74088,275.02967 406.88743,275.17622 407.21608,274.88313 407.36263,275.02967 407.50918,275.17622 407.21608,275.50488 407.36263,275.65143 407.50918,275.79798 407.83783,275.50488 407.98438,275.65143 408.13093,275.79798 407.83783,276.12663 407.98438,276.27318 408.13093,276.41973 408.45959,276.12663 408.60613,276.27318 408.89923,276.56628 408.31304,277.22359 408.60613,277.51668 408.75268,277.66323 409.08134,277.37013 409.22789,277.51668 409.40923,277.69802 409.40923,281.06586 409.22789,281.2472 409.08134,281.39374 408.75268,281.10065 408.60613,281.2472 408.45959,281.39374 408.75268,281.7224 408.60613,281.86895 408.45959,282.0155 408.16975,281.77625 407.98438,281.86895 406.98958,282.36635 406.49218,283.85855 405.49737,284.35596 405.312,284.44866 405.02217,284.20941 404.87562,284.35596 404.72907,284.5025 404.96832,284.79234 404.87562,284.97771 404.74454,285.23986 404.38495,285.33731 404.25387,285.59946 404.16117,285.78483 404.40042,286.07466 404.25387,286.22121 404.10732,286.36776 403.77867,286.07466 403.63212,286.22121 403.33902,286.51431 403.92521,287.17162 403.63212,287.46472 403.48557,287.61127 403.15691,287.31817 403.01036,287.46472 402.86382,287.61127 403.10306,287.9011 403.01036,288.08647 402.87929,288.34862 402.51969,288.44607 402.38861,288.70822 402.05615,289.37316 402.72108,289.28679 402.38861,289.95173 402.25754,290.21388 401.89794,290.31132 401.76686,290.57348 401.51816,291.07088 402.01556,291.94133 401.76686,292.43873 401.40473,293.163 400.88549,293.57973 400.52336,294.30399 400.33799,294.67473 400.70873,295.17675 400.52336,295.54749 400.39228,295.80965 400.03268,295.90709 399.9016,296.16925 399.64277,296.68691 400.29599,298.26187 399.9016,298.65625 399.75506,298.8028 399.4264,298.50971 399.27985,298.65625 398.86535,299.07076 399.69435,300.72876 399.27985,301.14326 399.1333,301.28981 398.80465,300.99671 398.6581,301.14326 398.16184,301.63952 398.98425,303.59972 398.6581,304.25202 398.52702,304.51418 398.16742,304.61162 398.03635,304.87378 397.49784,305.95079 398.57485,311.87954 398.03635,312.95655 397.90527,313.21871 397.54567,313.31615 397.4146,313.5783 397.23113,313.94524 397.4146,315.02566 397.4146,315.44356 397.4146,315.85911 397.4516,319.7588 397.4146,319.79583 397.26805,319.94237 396.93939,319.64928 396.79284,319.79583 396.36889,320.21978 397.19657,324.58415 396.79284,325.39159 396.66177,325.65375 396.30217,325.75119 396.17109,326.01335 395.84421,326.66712 396.17109,328.3753 396.17109,329.12211 396.17109,329.37812 396.33567,330.82278 396.17109,330.98736 396.02454,331.13391 395.69589,330.84081 395.54934,330.98736 395.2391,331.2976 395.54934,333.60929 395.54934,334.09612 395.54934,336.32068 394.92759,334.52835 394.92759,335.96138 394.92759,336.3408 395.16985,338.20613 394.92759,338.44839 394.09858,339.27739 394.30584,337.41213 394.30584,339.07014 394.30584,340.72815 394.51309,338.86289 393.68408,339.69189 393.53754,339.83844 393.68408,340.10639 393.68408,340.31364 393.68408,340.5209 393.47683,340.9354 393.68408,340.9354 393.89133,340.9354 393.53754,340.46019 393.68408,340.31364 393.95028,340.04745 394.71414,340.52709 395.54934,339.69189"
       inkscape:connector-curvature="0"
       id="path5222"
       style="fill:none;stroke:#0000e9;stroke-width:1;stroke-miterlimit:4;stroke-opacity:1;stroke-dasharray:none;stroke-dashoffset:0" />
    <path
       d="M 487.56865,273.78617 C 487.54025,273.84287 484.06781,278.95623 483.21639,279.38194 483.03101,279.47464 482.74118,279.23539 482.59463,279.38194 481.30821,280.66837 484.56046,279.33164 481.97288,280.62544 481.78751,280.71814 481.49768,280.4789 481.35113,280.62544 481.20458,280.77199 481.49768,281.10065 481.35113,281.2472 481.20458,281.39374 480.91475,281.1545 480.72938,281.2472 480.46722,281.37827 480.36978,281.73787 480.10762,281.86895 479.92225,281.96165 479.63242,281.7224 479.48587,281.86895 479.33932,282.0155 479.63242,282.34415 479.48587,282.4907 479.33932,282.63725 479.04949,282.398 478.86412,282.4907 478.11802,282.86375 477.74497,283.98291 476.99886,284.35596 476.81349,284.44866 476.52366,284.20941 476.37711,284.35596 476.23056,284.5025 476.52366,284.83116 476.37711,284.97771 476.23056,285.12426 475.90191,284.83116 475.75536,284.97771 475.60881,285.12426 475.90191,285.45291 475.75536,285.59946 475.46226,285.89256 474.80495,285.30636 474.51186,285.59946 474.36531,285.74601 474.6584,286.07466 474.51186,286.22121 474.36531,286.36776 474.07547,286.12851 473.8901,286.22121 473.3658,286.48337 472.90875,286.94041 472.6466,287.46472 472.5539,287.65009 472.79315,287.93992 472.6466,288.08647 472.50005,288.23302 472.1714,287.93992 472.02485,288.08647 471.8783,288.23302 472.11755,288.52285 472.02485,288.70822 471.45797,289.84197 471.4031,289.1255 471.4031,290.57348 471.4031,292.0316 471.25655,290.28038 472.02485,291.81698 472.21022,292.18772 471.73175,292.76739 472.02485,293.06049 472.1714,293.20703 472.50005,292.91394 472.6466,293.06049 472.9397,293.35358 472.3535,294.01089 472.6466,294.30399 472.79315,294.45054 473.1218,294.15744 473.26835,294.30399 473.4149,294.45054 473.1218,294.77919 473.26835,294.92574 473.4149,295.07229 473.74356,294.77919 473.8901,294.92574 475.17653,296.21217 471.92427,294.87544 474.51186,296.16925 475.36947,296.59806 475.068,295.41627 475.75536,296.791 475.84806,296.97637 475.60881,297.2662 475.75536,297.41275 475.90191,297.5593 476.23056,297.2662 476.37711,297.41275 477.66354,298.69918 474.41128,297.36245 476.99886,298.65625 477.18423,298.74895 477.47407,298.50971 477.62062,298.65625 477.76716,298.8028 477.47407,299.13146 477.62062,299.27801 477.76716,299.42455 478.09582,299.13146 478.24237,299.27801 478.38892,299.42455 478.14967,299.71439 478.24237,299.89976 478.61542,300.64586 479.73457,301.01891 480.10762,301.76501 480.20032,301.95039 479.96108,302.24022 480.10762,302.38677 481.76563,302.38677 479.90037,302.17952 480.72938,303.00852 480.87593,303.15507 481.20458,302.86197 481.35113,303.00852 481.49768,303.15507 481.25843,303.4449 481.35113,303.63027 481.48221,303.89242 481.8418,303.98987 481.97288,304.25202 482.06558,304.43739 481.82633,304.72723 481.97288,304.87378 482.11943,305.02032 482.44808,304.72723 482.59463,304.87378 482.88773,305.16687 482.30154,305.82418 482.59463,306.11728 482.74118,306.26383 483.06984,305.97073 483.21639,306.11728 483.36293,306.26383 483.06984,306.59248 483.21639,306.73903 483.36293,306.88558 483.69159,306.59248 483.83814,306.73903 483.99574,306.89664 484.14741,310.47276 483.83814,311.0913 483.70706,311.35345 483.34746,311.45089 483.21639,311.71305 482.88247,312.38087 483.5503,312.28873 483.21639,312.95655 483.08531,313.21871 482.72571,313.31615 482.59463,313.5783 482.50193,313.76368 482.68733,314.01469 482.59463,314.20006 482.33248,314.72436 481.87544,315.18141 481.35113,315.44356 481.16576,315.53626 480.87593,315.29701 480.72938,315.44356 480.58283,315.59011 480.82208,315.87994 480.72938,316.06531 480.5983,316.32747 480.2387,316.42491 480.10762,316.68707 480.01492,316.87244 480.25417,317.16227 480.10762,317.30882 479.96108,317.45537 479.63242,317.16227 479.48587,317.30882 479.33932,317.45537 479.57857,317.7452 479.48587,317.93057 479.22372,318.45488 478.50452,318.64977 478.24237,319.17407 478.14967,319.35944 478.38892,319.64928 478.24237,319.79583 478.09582,319.94237 477.80599,319.70313 477.62062,319.79583 476.87451,320.16888 476.50146,321.28803 475.75536,321.66108 474.89774,322.08989 475.19922,320.90811 474.51186,322.28283 474.41916,322.4682 474.6584,322.75804 474.51186,322.90459 474.36531,323.05113 474.03665,322.75804 473.8901,322.90459 473.74356,323.05113 474.03665,323.37979 473.8901,323.52634 473.74356,323.67289 473.4149,323.37979 473.26835,323.52634 471.98192,324.81277 475.23418,323.47604 472.6466,324.76984 472.46123,324.86254 472.1714,324.62329 472.02485,324.76984 471.8783,324.91639 472.1714,325.24505 472.02485,325.39159 471.8783,325.53814 471.54964,325.24505 471.4031,325.39159 471.25655,325.53814 471.4958,325.82798 471.4031,326.01335 471.19584,326.42785 469.95234,327.67135 469.53784,327.8786 469.35247,327.9713 469.06264,327.73205 468.91609,327.8786 468.76954,328.02515 469.06264,328.35381 468.91609,328.50035 468.76954,328.6469 468.44088,328.35381 468.29433,328.50035 468.14779,328.6469 468.44088,328.97556 468.29433,329.12211 468.14779,329.26866 467.85795,329.02941 467.67258,329.12211 466.92648,329.49516 466.55343,330.61431 465.80733,330.98736 465.62196,331.08006 465.37094,330.89466 465.18557,330.98736 464.77107,331.19461 463.52757,332.43812 463.32032,332.85262 463.22762,333.03799 463.46687,333.32782 463.32032,333.47437 463.17377,333.62092 462.90582,333.47437 462.69857,333.47437 462.69857,333.68162 462.84511,333.94958 462.69857,334.09612 462.55202,334.24267 462.22336,333.94958 462.07681,334.09612 461.93027,334.24267 462.22336,334.57133 462.07681,334.71788 461.93027,334.86442 461.60161,334.57133 461.45506,334.71788 461.30851,334.86442 461.54776,335.15426 461.45506,335.33963 461.32398,335.60178 460.96439,335.69923 460.83331,335.96138 460.74061,336.14675 460.97986,336.43658 460.83331,336.58313 460.68676,336.72968 460.35811,336.43658 460.21156,336.58313 460.21156,338.24114 460.41881,336.37588 459.58981,337.20488 459.44326,337.35143 459.68251,337.64127 459.58981,337.82664 459.32765,338.35094 458.60845,338.54583 458.3463,339.07014 458.2536,339.25551 458.49285,339.54534 458.3463,339.69189 458.19975,339.83844 457.8711,339.54534 457.72455,339.69189 457.578,339.83844 457.8711,340.1671 457.72455,340.31364 457.578,340.46019 457.24935,340.1671 457.1028,340.31364 456.95625,340.46019 457.1955,340.75003 457.1028,340.9354 456.97172,341.19755 456.61212,341.295 456.48105,341.55715 456.38835,341.74252 456.62759,342.03235 456.48105,342.1789 456.3345,342.32545 456.00584,342.03235 455.85929,342.1789 455.71274,342.32545 456.00584,342.6541 455.85929,342.80065 455.71274,342.9472 455.38409,342.6541 455.23754,342.80065 455.09099,342.9472 455.33024,343.23703 455.23754,343.42241 455.10646,343.68456 454.74687,343.782 454.61579,344.04416 454.52309,344.22953 454.70849,344.48054 454.61579,344.66591 454.35364,345.19022 453.63444,345.38511 453.37228,345.90941 453.27958,346.09478 453.51883,346.38462 453.37228,346.53117 452.54328,347.36017 452.75053,345.49491 452.75053,347.15292 452.75053,348.81092 452.95778,346.94567 452.12878,347.77467 451.84137,348.06208 452.31648,349.26453 452.12878,349.63993 451.9977,349.90208 451.63811,349.99952 451.50703,350.26168 451.2482,350.77934 451.90141,352.3543 451.50703,352.74869 451.36048,352.89524 451.03182,352.60214 450.88528,352.74869 450.85328,352.78069 450.88528,356.12447 450.88528,356.4792 450.88528,356.85862 450.64302,358.72395 450.88528,358.96621 451.03182,359.11276 451.36048,358.81966 451.50703,358.96621 451.99205,359.45123 451.02201,365.32046 451.50703,365.80548 451.65358,365.95203 451.98223,365.65893 452.12878,365.80548 452.50211,366.17881 451.77192,370.06578 452.12878,370.7795 452.25986,371.04165 452.61946,371.1391 452.75053,371.40125 453.08445,372.06908 452.41662,371.97693 452.75053,372.64475 453.31741,373.7785 453.37228,373.06203 453.37228,374.51001 453.37228,375.96813 453.22574,374.21691 453.99404,375.75351 454.18174,376.12891 453.70662,377.33136 453.99404,377.61877 454.14058,377.76532 454.46924,377.47222 454.61579,377.61877 455.86254,378.86552 453.36904,377.61577 454.61579,378.86227 454.76234,379.00882 455.09099,378.71573 455.23754,378.86227 455.53064,379.15537 454.82304,380.10578 455.23754,380.10578 455.70097,380.10578 454.94348,379.18997 454.61579,378.86227 453.86459,378.11108 453.99404,377.99076 453.99404,376.99702"
       inkscape:connector-curvature="0"
       id="path5224"
       style="fill:none;stroke:#0000e9;stroke-width:1;stroke-miterlimit:4;stroke-opacity:1;stroke-dasharray:none;stroke-dashoffset:0" />
    <path
       d="M 542.76984,307.98254 C 542.76984,308.18979 542.62329,308.45774 542.76984,308.60429 542.91639,308.75084 543.24505,308.45774 543.39159,308.60429 543.53814,308.75084 543.29889,309.04067 543.39159,309.22604 543.50342,309.44968 545.11168,310.46954 543.39159,310.46954 542.97709,310.46954 543.68469,309.51914 543.39159,309.22604 543.24505,309.07949 542.91639,309.37259 542.76984,309.22604 542.45897,308.91516 543.08072,307.67166 542.76984,307.36078 541.94084,306.53178 542.14809,308.39704 542.14809,306.73903 542.14809,305.08103 542.35534,306.94628 541.52634,306.11728 541.37979,305.97073 541.61904,305.6809 541.52634,305.49553 541.39526,305.23337 541.03566,305.13593 540.90459,304.87378 539.98974,303.04408 542.34493,305.69236 540.28283,303.63027 540.19013,303.4449 540.37553,303.19389 540.28283,303.00852 540.02068,302.48421 539.30148,302.28932 539.03933,301.76501 538.94663,301.57964 539.13203,301.32863 539.03933,301.14326 538.73679,300.53818 537.36818,299.23857 537.17407,298.65625 537.043,298.26302 537.30515,297.80598 537.17407,297.41275 537.08137,297.13469 536.6834,297.05315 536.55232,296.791 535.63747,294.9613 537.99266,297.60959 535.93057,295.54749 535.83787,295.36212 536.02327,295.11111 535.93057,294.92574 535.79949,294.66359 535.43989,294.56614 535.30882,294.30399 535.21612,294.11862 535.40152,293.86761 535.30882,293.68224 535.04666,293.15793 534.32747,292.96304 534.06531,292.43873 533.15046,290.60904 535.50565,293.25732 533.44356,291.19523 533.35086,291.00986 533.53626,290.75885 533.44356,290.57348 533.18141,290.04917 532.46221,289.85428 532.20006,289.32997 532.10736,289.1446 532.20006,288.91547 532.20006,288.70822 531.99281,288.29372 531.78556,287.87922 531.5783,287.46472 531.25314,286.97697 530.59695,286.74552 530.3348,286.22121 530.0417,285.63502 531.08287,284.66907 529.71305,284.35596 529.38789,283.86821 528.65491,283.66856 528.46954,283.11245 528.33847,282.71922 528.60062,282.26218 528.46954,281.86895 528.22405,281.13245 526.95386,280.70283 526.60429,280.00369 526.51159,279.81832 526.69699,279.56731 526.60429,279.38194 526.23703,278.64742 525.19629,278.20258 524.73903,277.51668 524.48197,277.13109 524.32453,276.68768 524.11728,276.27318 524.11728,276.06593 524.20998,275.8368 524.11728,275.65143 523.65281,274.72249 522.01902,273.32016 521.63027,272.54267 521.42302,272.12817 522.18638,270.60661 521.00852,270.67741 520.68336,270.18967 520.02717,269.95821 519.76501,269.43391 519.67231,269.24854 519.85771,268.99752 519.76501,268.81215 519.63394,268.55 519.27434,268.45256 519.14326,268.1904 519.05056,268.00503 519.23596,267.75402 519.14326,267.56865 518.88111,267.04434 518.16191,266.84945 517.89976,266.32515 517.80706,266.13977 517.99246,265.88876 517.89976,265.70339 517.76868,265.44124 517.40908,265.3438 517.27801,265.08164 517.18531,264.89627 517.37071,264.64526 517.27801,264.45989 517.14693,264.19774 516.78733,264.10029 516.65625,263.83814 516.56355,263.65277 516.74895,263.40176 516.65625,263.21639 516.3941,262.69208 515.73791,262.46062 515.41275,261.97288 515.15569,261.58729 514.99825,261.14388 514.791,260.72938 514.791,260.52213 514.8837,260.293 514.791,260.10762 514.52884,259.58332 513.87266,259.35186 513.54749,258.86412 513.29043,258.47853 513.13299,258.03512 512.92574,257.62062 512.92574,257.41337 513.01844,257.18423 512.92574,256.99886 512.67552,256.49842 511.50628,254.95765 511.06049,254.51186 509.60237,253.05374 511.20703,254.9515 510.43873,252.6466 510.40153,252.53503 508.17096,249.9763 507.95173,249.53784 507.65863,248.95165 508.69979,247.98569 507.32997,247.67258 506.79029,246.86305 507.89346,246.04306 507.46472,245.18557 507.17162,244.59938 508.21279,243.63343 506.84296,243.32032 506.5178,242.83258 505.86161,242.60112 505.59946,242.07681 505.50676,241.89144 505.69216,241.64043 505.59946,241.45506 505.17693,240.61 504.15673,239.81312 503.7342,238.96805 503.6415,238.78268 503.8269,238.53167 503.7342,238.3463 503.47205,237.82199 502.75285,237.6271 502.4907,237.1028 502.398,236.91743 502.5834,236.66642 502.4907,236.48105 502.22855,235.95674 501.50935,235.76185 501.2472,235.23754 501.06183,234.8668 501.54029,234.28713 501.2472,233.99404 501.10065,233.84749 500.77199,234.14058 500.62544,233.99404 500.4789,233.84749 500.71814,233.55766 500.62544,233.37228 500.36329,232.84798 499.64409,232.65309 499.38194,232.12878 499.28924,231.94341 499.47464,231.6924 499.38194,231.50703 499.25086,231.24487 498.89126,231.14743 498.76019,230.88528 498.66749,230.69991 498.85289,230.44889 498.76019,230.26352 498.49803,229.73922 497.77884,229.54433 497.51668,229.02002 497.42398,228.83465 497.60938,228.58364 497.51668,228.39827 497.38561,228.13611 497.02601,228.03867 496.89493,227.77652 496.80223,227.59115 497.04148,227.30131 496.89493,227.15476 496.74838,227.00822 496.41973,227.30131 496.27318,227.15476 495.9623,226.84389 496.58406,225.60038 496.27318,225.28951 496.12663,225.14296 495.79798,225.43606 495.65143,225.28951 495.34055,224.97863 495.9623,223.73513 495.65143,223.42425 495.50488,223.2777 495.17622,223.5708 495.02967,223.42425 494.73658,223.13115 495.21505,222.55149 495.02967,222.18075 494.8986,221.91859 494.539,221.82115 494.40792,221.55899 494.22255,221.18825 494.59329,220.68623 494.40792,220.31549 494.27685,220.05334 493.91725,219.95589 493.78617,219.69374 493.69347,219.50837 493.87887,219.25736 493.78617,219.07199 493.42404,218.34772 492.9048,217.93099 492.54267,217.20673 492.44997,217.02136 492.63537,216.77035 492.54267,216.58498 492.41159,216.32282 492.05199,216.22538 491.92091,215.96323 491.00607,214.13353 493.36125,216.78181 491.29916,214.71972 491.20646,214.53435 491.44571,214.24452 491.29916,214.09797 491.15261,213.95142 490.82396,214.24452 490.67741,214.09797 490.53086,213.95142 490.77011,213.66159 490.67741,213.47622 490.41526,212.95191 489.69606,212.75702 489.43391,212.23271 489.34121,212.04734 489.52661,211.79633 489.43391,211.61096 489.30283,211.34881 488.94323,211.25136 488.81215,210.98921 488.71945,210.80384 488.9587,210.51401 488.81215,210.36746 488.66561,210.22091 488.33695,210.51401 488.1904,210.36746 487.72698,209.90403 489.31934,208.5408 487.56865,208.5022 487.4221,208.35565 487.09345,208.64875 486.9469,208.5022 486.80035,208.35565 487.0396,208.06582 486.9469,207.88045 486.2008,206.38824 483.96249,205.64214 483.21639,204.14994 483.12369,203.96457 483.30909,203.71355 483.21639,203.52818 483.00913,203.11368 481.76563,201.87018 481.35113,201.66293 481.16576,201.57023 480.91475,201.75563 480.72938,201.66293 479.35465,200.97556 480.53643,201.27704 480.10762,200.41942 478.81382,197.83184 480.15052,201.0841 478.86412,199.79767 478.71757,199.65112 479.01067,199.32247 478.86412,199.17592 478.71757,199.02937 478.38892,199.32247 478.24237,199.17592 478.09582,199.02937 478.33507,198.73954 478.24237,198.55417 478.11129,198.29201 477.75169,198.19457 477.62062,197.93242 477.52792,197.74704 477.76716,197.45721 477.62062,197.31066 476.79161,196.48166 476.99886,198.34692 476.99886,196.68891 476.85232,196.54236 476.52366,196.83546 476.37711,196.68891 476.23056,196.54236 476.52366,196.21371 476.37711,196.06716 476.23056,195.92061 475.90191,196.21371 475.75536,196.06716 475.60881,195.92061 475.90191,195.59196 475.75536,195.44541 475.60881,195.29886 475.28016,195.59196 475.13361,195.44541 474.98706,195.29886 475.28016,194.9702 475.13361,194.82365 473.8472,193.53723 475.18391,196.78949 473.8901,194.2019 473.7974,194.01653 474.03665,193.7267 473.8901,193.58015 473.74356,193.4336 473.45372,193.67285 473.26835,193.58015 472.74404,193.318 472.43935,192.75115 472.02485,192.33665 471.11256,191.42436 469.34881,189.13337 468.29433,188.60613 468.10896,188.51343 467.85795,188.69883 467.67258,188.60613 467.41043,188.47506 467.31298,188.11546 467.05083,187.98438 465.22113,187.06953 467.86942,189.42472 465.80733,187.36263 465.62196,187.26993 465.37094,187.45533 465.18557,187.36263 464.92342,187.23155 464.82598,186.87195 464.56382,186.74088 464.37845,186.64818 464.12744,186.83358 463.94207,186.74088 463.67992,186.6098 463.58247,186.2502 463.32032,186.11913 462.94958,185.93375 462.36991,186.41222 462.07681,186.11913 461.93027,185.97258 462.22336,185.64392 462.07681,185.49737 461.78372,185.20428 461.20405,185.68274 460.83331,185.49737 460.57116,185.3663 460.47371,185.0067 460.21156,184.87562 459.84082,184.69025 459.26115,185.16872 458.96805,184.87562 458.82151,184.72907 459.1146,184.40042 458.96805,184.25387 458.68064,183.96646 457.47819,184.44157 457.1028,184.25387 456.84064,184.12279 456.7432,183.76319 456.48105,183.63212 455.15464,182.96891 452.83343,184.29532 451.50703,183.63212 451.24487,183.50104 451.14743,183.14144 450.88528,183.01036 450.78471,182.96006 446.63358,182.96006 446.53301,183.01036 446.27086,183.14144 446.17341,183.50104 445.91126,183.63212 445.08226,184.04662 443.6315,183.21762 442.8025,183.63212 442.54035,183.76319 442.4429,184.12279 442.18075,184.25387 441.81001,184.43924 441.30798,184.0685 440.93724,184.25387 440.21298,184.616 439.79625,185.13524 439.07199,185.49737 438.88662,185.59007 438.59678,185.35082 438.45023,185.49737 438.30369,185.64392 438.59678,185.97258 438.45023,186.11913 438.30369,186.26567 438.01385,186.02643 437.82848,186.11913 437.56633,186.2502 437.46888,186.6098 437.20673,186.74088 437.02136,186.83358 436.73153,186.59433 436.58498,186.74088 436.43843,186.88743 436.73153,187.21608 436.58498,187.36263 436.43843,187.50918 436.10977,187.21608 435.96323,187.36263 435.81668,187.50918 436.10977,187.83783 435.96323,187.98438 435.81668,188.13093 435.52684,187.89168 435.34147,187.98438 434.86534,188.22245 431.84903,191.23876 431.61096,191.71489 431.51826,191.90026 431.75751,192.1901 431.61096,192.33665 431.46441,192.48319 431.13576,192.1901 430.98921,192.33665 430.84266,192.48319 431.08191,192.77303 430.98921,192.9584 430.72706,193.48271 430.00786,193.6776 429.7457,194.2019 429.653,194.38727 429.89225,194.67711 429.7457,194.82365 429.59916,194.9702 429.2705,194.67711 429.12395,194.82365 428.9774,194.9702 429.21665,195.26004 429.12395,195.44541 428.8618,195.96971 428.1426,196.1646 427.88045,196.68891 427.78775,196.87428 427.97315,197.12529 427.88045,197.31066 427.61829,197.83497 426.8991,198.02986 426.63694,198.55417 426.54424,198.73954 426.78349,199.02937 426.63694,199.17592 426.4904,199.32247 426.16174,199.02937 426.01519,199.17592 425.86864,199.32247 426.10789,199.6123 426.01519,199.79767 425.88412,200.05983 425.52452,200.15727 425.39344,200.41942 425.30074,200.60479 425.53999,200.89463 425.39344,201.04118 425.24689,201.18772 424.91824,200.89463 424.77169,201.04118 424.62514,201.18772 424.86439,201.47756 424.77169,201.66293 424.64061,201.92508 424.28101,202.02253 424.14994,202.28468 424.05724,202.47005 424.24264,202.72106 424.14994,202.90643 423.88778,203.43074 423.16859,203.62563 422.90643,204.14994 422.81373,204.33531 422.99913,204.58632 422.90643,204.77169 422.64428,205.296 421.92508,205.49088 421.66293,206.01519 421.57023,206.20056 421.80948,206.4904 421.66293,206.63694 421.51638,206.78349 421.18772,206.4904 421.04118,206.63694 420.89463,206.78349 421.13388,207.07333 421.04118,207.2587 420.77902,207.783 420.21217,208.0877 419.79767,208.5022 419.59042,208.70945 419.43807,208.99288 419.17592,209.12395 418.99055,209.21665 418.70072,208.9774 418.55417,209.12395 418.40762,209.2705 418.64687,209.56033 418.55417,209.7457 418.19204,210.46997 417.67279,210.8867 417.31066,211.61096 417.21796,211.79633 417.45721,212.08616 417.31066,212.23271 417.16411,212.37926 416.83546,212.08616 416.68891,212.23271 416.39581,212.52581 416.98201,213.18312 416.68891,213.47622 416.54236,213.62277 416.21371,213.32967 416.06716,213.47622 415.65247,213.8909 416.48185,214.30503 416.06716,214.71972 415.92061,214.86627 415.59196,214.57317 415.44541,214.71972 415.15231,215.01282 415.63078,215.59248 415.44541,215.96323 415.08328,216.68749 414.56403,217.10422 414.2019,217.82848 414.01653,218.19922 414.495,218.77889 414.2019,219.07199 414.05535,219.21853 413.7267,218.92544 413.58015,219.07199 413.28705,219.36508 413.76552,219.94475 413.58015,220.31549 413.44907,220.57764 413.08948,220.67509 412.9584,220.93724 412.7097,221.43464 413.2071,222.3051 412.9584,222.8025 412.82732,223.06465 412.46772,223.1621 412.33665,223.42425 412.01049,224.07656 412.8329,226.03675 412.33665,226.53301 412.1901,226.67956 411.86144,226.38646 411.71489,226.53301 411.67789,226.57001 411.71489,230.46973 411.71489,230.88528 411.71489,232.33325 411.65999,231.61679 411.09314,232.75053 410.84444,233.24793 411.34184,234.11839 411.09314,234.61579 410.96207,234.87794 410.60247,234.97539 410.47139,235.23754 410.24747,235.68538 410.24747,238.52021 410.47139,238.96805 410.60247,239.23021 410.96207,239.32765 411.09314,239.58981 411.31706,240.03764 411.31706,242.87248 411.09314,243.32032 410.96207,243.58247 410.60247,243.67992 410.47139,243.94207 410.06767,244.74951 410.89534,249.11389 410.47139,249.53784 410.32484,249.68439 409.99619,249.39129 409.84964,249.53784 409.43514,249.95234 410.26414,251.61035 409.84964,252.02485 409.70309,252.1714 409.37443,251.8783 409.22789,252.02485 408.98563,252.26711 409.22789,254.13244 409.22789,254.51186 408.60614,255.34086 407.89578,256.11029 407.36264,256.99887 407.36264,258.65687 407.56989,256.79162 406.74088,257.62062 406.59433,257.76717 406.88743,258.09582 406.74088,258.24237 406.59433,258.38892 406.26568,258.09582 406.11913,258.24237 405.82603,258.53547 406.41223,259.19278 406.11913,259.48588 405.97258,259.63243 405.64393,259.33933 405.49738,259.48588 405.35083,259.63243 405.59008,259.92226 405.49738,260.10763 405.3663,260.36978 405.0067,260.46723 404.87563,260.72938 404.69026,261.10012 405.061,261.60214 404.87563,261.97289 404.74455,262.23504 404.38495,262.33248 404.25387,262.59464 404.0685,262.96538 404.54697,263.54504 404.25387,263.83814 404.10733,263.98469 403.77867,263.69159 403.63212,263.83814 403.48557,263.98469 403.72482,264.27452 403.63212,264.45989 403.26999,265.18416 402.75075,265.60089 402.38862,266.32515 402.20325,266.69589 402.68172,267.27556 402.38862,267.56865 402.24207,267.7152 401.91341,267.42211 401.76687,267.56865 401.35237,267.98316 402.18137,269.64116 401.76687,270.05566 401.62032,270.20221 401.29166,269.90911 401.14511,270.05566 400.99857,270.20221 400.93786,270.67741 401.14511,270.67741 401.35237,270.67741 401.14511,270.26291 401.14511,270.05566"
       inkscape:connector-curvature="0"
       id="path5226"
       style="fill:none;stroke:#0000e9;stroke-width:1;stroke-miterlimit:4;stroke-opacity:1;stroke-dasharray:none;stroke-dashoffset:0" />
    <path
       d="M 583.94022,192.9584 C 553.94219,202.30446 524.39083,209.51011 489.43991,210.60137 M 492.94851,216.44904 C 526.01804,222.73106 554.19333,221.47464 588.91424,222.8025"
       inkscape:connector-curvature="0"
       id="path5228"
       style="fill:none;stroke:#0000e9;stroke-width:1;stroke-miterlimit:4;stroke-opacity:1;stroke-dasharray:none;stroke-dashoffset:0" />
    <path
       d="M 489.43391,107.77836 446.53301,182.38861"
       inkscape:connector-curvature="0"
       id="path5230"
       style="fill:none;stroke:#0000e9;stroke-width:1;stroke-miterlimit:4;stroke-opacity:1;stroke-dasharray:none;stroke-dashoffset:0" />
    <path
       d="M 429.12395,193.58015 C 408.78494,161.20133 395.78832,135.63484 382.18167,109.95449"
       inkscape:connector-curvature="0"
       id="path5232"
       style="fill:none;stroke:#0000e9;stroke-width:1;stroke-miterlimit:4;stroke-opacity:1;stroke-dasharray:none;stroke-dashoffset:0" />
    <path
       d="M 426.32607,199.17592 C 409.07481,182.67375 386.40138,162.12212 368.75743,141.74252"
       inkscape:connector-curvature="0"
       id="path5234"
       style="fill:none;stroke:#0000e9;stroke-width:1;stroke-miterlimit:4;stroke-opacity:1;stroke-dasharray:none;stroke-dashoffset:0" />
    <path
       d="M 416.68891,212.23271 367.5705,207.88045"
       inkscape:connector-curvature="0"
       id="path5236"
       style="fill:none;stroke:#0000e9;stroke-width:1;stroke-miterlimit:4;stroke-opacity:1;stroke-dasharray:none;stroke-dashoffset:0" />
    <path
       d="M 367.5705,250.78134 410.47139,248.29433"
       inkscape:connector-curvature="0"
       id="path5238"
       style="fill:none;stroke:#0000e9;stroke-width:1;stroke-miterlimit:4;stroke-opacity:1;stroke-dasharray:none;stroke-dashoffset:0" />
    <path
       d="M 455.85929,183.63212 C 456.7326,217.90233 453.02961,244.54536 449.02002,270.67741"
       inkscape:connector-curvature="0"
       id="path5240"
       style="fill:none;stroke:#0000e9;stroke-width:1;stroke-miterlimit:4;stroke-opacity:1;stroke-dasharray:none;stroke-dashoffset:0" />
    <path
       d="M 410.1737,248.6727 C 409.82007,252.48087 408.16908,255.95512 406.01573,259.06762 404.07946,262.31208 403.07556,266.20603 400.98342,269.24881 390.97964,269.42976 380.94492,271.28156 370.96445,270.55061 366.84436,269.94528 369.27726,264.6766 368.54447,261.76845 368.82039,258.19106 367.75314,254.10027 368.82718,250.82941 382.58842,250.09346 396.47243,248.83245 410.1737,248.6727 z"
       inkscape:connector-curvature="0"
       id="path5242"
       style="fill:#68b88b;stroke:none" />
    <path
       d="M 373.39317,116.25894 C 378.58035,121.42907 382.07213,128.19084 386.87742,133.76515 402.06494,153.15435 417.80408,172.32519 429.40915,194.15282 428.55293,195.57493 426.94531,200.22338 424.64886,197.92219 409.55224,187.77019 394.18715,177.69055 381.41751,164.59549 377.22911,160.31819 372.66936,156.26528 368.69117,151.83482 369.32718,142.77408 368.44581,133.43066 370.22612,124.53601 371.6102,123.49491 369.68567,121.47057 370.7313,120.04774 371.23621,118.77346 371.62745,116.25569 373.39317,116.25894 z"
       inkscape:connector-curvature="0"
       id="path5248"
       style="fill:none;stroke:none" />
    <path
       d="M 490.61287,108.8562 C 493.44328,109.21221 495.90851,111.10419 498.11276,112.45071 503.03852,113.19116 507.37056,116.24547 511.7913,118.41564 513.22108,120.26106 515.53362,120.32144 517.23163,122.01015 527.26999,129.09778 537.83932,135.59097 546.52533,144.46689 550.59136,148.30893 554.9255,151.94108 558.13126,156.43967 562.86166,161.0845 567.30571,166.22259 570.74117,171.8086 572.35036,172.87181 572.03786,175.03323 573.84993,175.81113 577.42939,180.95913 580.8769,186.62727 582.30187,192.75388 580.21381,194.80996 576.29581,194.69561 573.58277,195.95699 546.26373,203.84501 517.87409,209.14649 489.56366,210.24065 486.56317,208.01392 484.4069,204.88483 482.04435,202.15788 479.92381,200.99656 479.70623,198.45069 477.51722,197.45588 471.14553,190.39572 462.98156,184.05573 453.07459,183.48588 451.36317,182.87744 447.81068,184.00729 447.18737,182.02865 460.56903,157.95056 474.09512,133.86913 488.59218,110.46887 489.14056,109.85471 489.55796,108.60271 490.61287,108.8562 z"
       inkscape:connector-curvature="0"
       id="path5252"
       style="fill:#dbc198;stroke:none" />
    <path
       d="M 457.05769,184.01049 C 461.40362,185.77564 466.27496,186.96706 469.51238,190.61958 475.80788,196.76521 482.8418,202.65143 487.79556,209.89092 488.04671,211.27827 490.07379,211.69791 489.73853,213.44656 491.70589,215.82476 493.64431,218.48833 494.61316,221.58202 497.58605,229.93043 502.95804,237.2639 507.45847,244.70903 506.5818,249.60179 510.97131,253.41959 512.91905,257.60122 521.19447,272.52313 531.82561,286.10389 538.77923,301.71593 537.9115,303.65926 535.36753,300.91174 534.0578,300.53071 523.23352,293.46749 512.30114,286.55466 500.69557,280.8024 494.48739,276.9799 487.91526,273.59419 480.49388,273.45374 470.35439,272.21382 460.07415,271.9665 449.98526,270.47289 448.84875,267.7539 450.55374,264.10049 450.48399,261.09728 453.78635,238.15077 456.19212,214.86587 455.77156,191.58829 456.04553,189.1582 455.50922,186.40879 456.49423,184.1465 L 456.90225,183.99106 457.05769,184.01046 z"
       inkscape:connector-curvature="0"
       id="path5256"
       style="fill:#84cdcd;stroke:none" />
    <path
       d="M 449.51894,183.58303 C 452.46358,183.73503 456.97303,183.3488 455.48388,187.72157 456.12304,212.73184 453.77819,237.6902 450.0043,262.38221 449.3147,265.95578 450.24978,271.72243 444.82538,270.37386 432.54056,270.19065 420.23384,269.71026 407.93927,269.38482 406.17403,269.1611 401.7092,269.55996 402.82925,266.50922 404.55225,263.85518 405.14851,260.60255 407.33695,258.25157 408.89323,255.95085 409.21185,253.24573 410.3097,250.80998 410.81786,246.53352 412.36022,241.66502 410.4068,237.65603 410.15413,235.18554 412.09148,233.33612 411.94157,230.70779 412.74747,221.55645 416.03453,212.53651 422.25791,205.69821 428.36556,197.66761 433.24363,186.53611 443.96199,184.10764 445.78458,183.70514 447.64327,183.47502 449.51889,183.58303 z"
       inkscape:connector-curvature="0"
       id="path5258"
       style="fill:#a9a2da;stroke:none" />
    <path
       d="M 382.70003,337.21409 C 386.23403,337.75668 390.55597,337.95352 393.26981,340.42 397.83874,342.21445 401.02344,347.18901 405.14139,350.01829 411.3759,355.1507 417.5755,363.40873 415.06999,371.91562 413.95655,374.94428 411.87849,377.98175 408.46388,378.44402 404.40815,380.63154 399.67375,380.89768 395.38765,382.56313 393.50163,383.25233 393.70175,380.71804 392.00688,380.54244 386.28104,375.48912 381.41243,369.18177 378.15346,362.22018 378.00192,360.21893 375.83284,359.19563 375.80246,357.09072 373.30729,353.00939 374.10963,347.58036 373.70405,343.02358 376.15732,340.45296 378.62304,336.71132 382.70003,337.21409 z"
       inkscape:connector-curvature="0"
       id="path5260"
       style="fill:#73837a;stroke:none" />
    <path
       d="M 396.16484,269.81227 C 401.40303,269.87567 406.3237,273.72699 408.65817,278.22536 409.61998,282.03672 404.57694,283.55415 403.41214,286.69673 401.36246,289.17333 401.77106,292.5366 400.12851,295.09038 396.3354,308.67222 397.47108,323.17325 394.33845,336.88378 392.28543,340.13846 388.41598,335.90014 385.53677,337.00036 383.57966,337.35427 382.46311,335.09565 380.4656,336.30089 377.62303,336.78825 376.45507,339.65098 374.28694,340.98346 371.86158,340.5165 373.56296,336.63874 372.74756,335.04211 370.88792,314.00346 369.74403,292.90382 369.0992,271.79411 373.10434,270.4888 378.07492,271.54006 382.44744,270.84205 387.00101,270.30535 391.47184,269.47137 396.16484,269.81227 z"
       inkscape:connector-curvature="0"
       id="path5262"
       style="fill:#c6bdae;stroke:none" />
    <path
       d="M 438.89651,287.99438 C 444.51918,290.047 448.92228,294.75118 452.41214,299.46313 453.94875,302.51709 456.81018,305.62727 455.23209,309.20215 454.74674,312.39579 454.03897,315.93864 450.97464,317.60375 447.87067,320.4527 444.21784,324.19764 439.74026,323.93188 437.5639,325.71027 434.83169,323.65239 434.24026,321.30688 431.49096,316.41943 434.93054,310.98834 436.78799,306.43581 439.00886,303.9509 437.65207,301.24445 436.59964,298.5725 435.77403,296.09398 433.76706,293.95553 434.88089,291.15063 435.38919,289.43531 436.96915,287.7286 438.89651,287.99438 z"
       inkscape:connector-curvature="0"
       id="path5266"
       style="fill:#bfb879;stroke:none" />
    <path
       d="M 487.51323,274.92962 C 490.11725,275.76821 492.86193,276.40188 495.05197,278.16467 497.84632,279.56792 500.56368,281.1112 503.26105,282.65295 505.89085,283.9572 508.25637,285.85974 511.13981,286.58747 511.87571,287.46356 512.91153,287.55777 513.89884,287.9767 515.35304,289.24703 517.28428,289.89337 518.71741,291.23118 519.61127,291.36062 519.97638,292.1327 520.81583,292.44554 521.90435,293.42778 523.12683,294.1571 524.28404,295.01027 525.15195,295.10287 525.62163,295.74739 526.45046,295.9429 527.09257,296.46286 527.89891,296.95762 528.58773,297.52642 529.65378,297.82196 530.20382,298.88213 531.26903,299.18767 532.43091,300.23269 533.7224,301.08569 535.17441,301.60667 536.2563,302.24445 537.28905,303.32133 538.46776,303.98682 540.29095,304.7017 541.89113,306.37706 542.05255,308.26136 542.70776,308.64065 542.46179,309.54096 543.1309,309.97118 543.1733,310.92557 544.54457,310.69532 544.51041,309.81574 545.69342,308.46376 546.86125,310.67113 547.77461,311.21468 548.77915,311.95783 549.9886,312.60145 550.94166,313.61426 551.72128,314.1838 552.6885,314.74759 553.15665,315.5378 551.90006,320.25968 549.49124,324.68621 547.17108,328.98942 543.93488,334.54238 539.063,338.94853 534.23207,343.08919 527.1659,348.27224 518.39356,350.60878 511.09124,355.29108 509.8636,355.79143 508.80125,354.36536 507.49673,354.88305 506.86115,354.87245 506.04826,355.37991 506.98184,355.76711 507.3148,357.28887 504.94745,357.48595 503.99938,358.14725 495.69332,361.65951 487.20235,364.98476 479.3909,369.45899 471.69991,372.8098 463.94401,376.11318 455.96903,378.70393 454.01681,377.87286 454.25887,375.33675 453.45287,373.68134 452.65139,371.47893 452.1299,369.21545 452.3303,366.8324 452.65115,365.65846 451.31361,365.22395 451.61676,364.02475 451.43793,362.26132 452.08649,360.23124 451.48075,358.60385 450.84418,356.93863 450.99796,354.90756 451.39335,353.18295 452.06564,352.01133 451.39535,350.15826 452.63685,349.14156 453.12395,348.28048 452.87372,347.10429 453.58891,346.44083 453.83021,345.34216 454.87851,344.71534 455.22101,343.67209 456.09291,342.99257 456.71477,342.22207 457.07655,341.22394 457.86682,340.49235 458.64937,339.81569 458.86409,338.73693 459.24074,337.78955 460.71182,338.52841 460.49619,337.39628 461.15503,336.28848 461.7248,335.02726 462.89576,334.20008 463.79337,333.25136 463.95187,331.76652 465.35363,331.24676 466.69021,330.91073 467.19627,329.39994 468.48182,329.02205 470.51902,327.49903 472.13384,325.29949 474.2816,324.01889 474.14986,323.27643 474.88163,322.99159 474.92278,322.27021 475.59291,321.59605 476.67283,321.45213 477.12806,320.50211 477.53876,319.81607 478.68413,320.25808 478.58529,319.29746 479.22598,318.19901 480.3225,317.51062 480.72256,316.29556 482.29943,315.09237 483.33629,313.40586 483.64674,311.46727 484.36991,310.03305 484.04588,308.08741 483.88961,306.53211 483.27101,305.97931 482.92357,305.23638 482.55867,304.53085 481.61725,304.15061 481.52791,303.00268 481.61633,302.24785 480.01205,301.78089 478.79939,300.36992 478.20641,298.88651 477.18995,298.22084 476.31826,297.30636 475.55425,296.26349 474.439,295.63578 473.80205,294.50476 472.95066,293.64047 472.86746,292.46201 471.63434,291.6666 471.77516,290.33741 471.58531,289.40053 472.17898,288.48092 472.86323,288.09328 472.79323,286.94161 474.01223,286.41381 474.81592,286.17945 475.65793,285.62742 476.66235,285.20185 477.32235,284.30448 478.01604,283.33041 479.16532,282.88748 480.00366,282.22549 480.62044,281.26909 481.83658,281.48889 482.47124,280.55453 484.11261,279.97123 484.25985,277.97749 485.5295,276.91012 486.20039,276.33159 486.55798,275.00653 487.51326,274.92962 z"
       inkscape:connector-curvature="0"
       id="path6026"
       style="fill:#d5be93;stroke:none" />
    <path
       d="M 422.98702,90.162382 C 438.65335,90.203912 453.85357,94.65936 468.38464,100.14928 475.0638,102.73081 481.9677,104.92233 488.33899,108.16405 488.90932,109.40163 487.15739,110.61759 486.85262,111.81684 473.26266,135.59763 459.51571,159.32947 446.00156,183.12404 444.71888,183.91726 442.96442,183.07244 441.76588,184.05666 440.46206,184.05966 439.49642,185.25647 438.3171,185.46532 435.60194,187.52416 432.93951,189.85963 430.81721,192.55718 430.57334,193.84817 429.08978,193.44838 428.77882,192.41263 419.92321,178.76218 411.9033,164.5866 403.99199,150.37137 396.64593,136.87049 389.42603,123.29866 382.24283,109.70871 382.48987,108.46507 384.21292,107.94204 384.98315,106.89763 391.32281,101.4061 397.00884,94.506377 405.15051,91.687618 410.89466,89.867033 417.03764,90.258923 422.98702,90.162382 z"
       inkscape:connector-curvature="0"
       id="path6036"
       style="fill:#b1daa9;stroke:none" />
    <path
       d="M 391.87998,210.21883 C 399.7656,210.95513 407.67515,211.56199 415.54542,212.38525 416.44817,213.125 415.49632,214.21444 415.25398,214.91111 415.14803,216.48717 414.07571,217.78473 413.40815,219.0788 413.53396,220.30088 412.4952,221.13071 412.69896,222.37214 412.13341,223.42488 412.16403,224.53606 412.17436,225.72377 410.9948,227.24906 411.61361,229.52533 411.26116,231.37783 411.22916,232.83741 410.8914,234.27924 410.32853,235.55523 409.82365,238.17422 411.51919,240.67551 410.82399,243.23969 409.59545,244.57489 411.08643,246.99552 409.5902,248.11656 396.0872,248.95501 382.53824,249.86765 369.04031,250.54528 367.8586,249.23831 368.59019,247.06128 368.27283,245.44497 367.94168,233.17486 367.93217,220.89925 367.94253,208.62559 369.12986,207.48151 371.49957,208.74583 373.13123,208.54479 379.38081,209.10279 385.6304,209.66079 391.87998,210.21879 z"
       inkscape:connector-curvature="0"
       id="path8809"
       style="fill:#a78875;stroke:none" />
    <path
       d="M 370.17695,143.99252 C 374.65128,148.2745 378.56542,153.08854 383.01622,157.42237 396.89474,171.71208 411.57065,185.20738 425.83348,199.13415 426.25501,200.25708 424.30948,200.50326 424.39568,201.69888 423.95881,203.02728 422.78399,203.86018 422.33612,205.13795 421.26072,205.88147 420.84465,207.00845 420.13085,208.00384 419.76268,208.64953 418.79072,208.80354 418.36274,209.12105 418.01071,210.63603 416.91865,212.63969 415.04025,211.95779 399.46266,210.45266 383.84809,209.30537 368.28255,207.69296 367.30553,206.27597 368.17467,203.97135 367.92145,202.21421 368.2385,183.27996 368.32258,164.33038 369.08888,145.41089 369.22246,144.84607 369.35105,143.78414 370.17695,143.99252 z"
       inkscape:connector-curvature="0"
       id="path8811"
       style="fill:#a76986;stroke:none" />
    <path
       d="M 381.88338,110.28189 C 386.79622,118.48547 390.85987,127.15591 395.52214,135.53911 405.74173,154.68199 416.44269,173.47156 427.80904,191.92645 428.71006,193.29039 429.61193,195.46235 427.84444,196.57914 427.65432,197.60947 426.42029,199.12229 425.44486,197.96837 409.55767,183.09829 393.64349,168.10922 378.623,152.30761 375.4512,148.84148 372.09937,145.46212 369.19573,141.80667 369.36847,133.96283 368.4856,125.52479 372.10048,118.29667 374.07746,114.5045 377.80877,111.97677 381.53362,110.13617 L 381.82058,110.25574 381.88338,110.28194 z"
       inkscape:connector-curvature="0"
       id="path8813"
       style="fill:#746bdb;stroke:none" />
    <path
       d="M 582.62093,193.65805 C 583.73027,195.32339 583.98956,197.50484 584.62376,199.418 586.4547,206.85503 587.86836,214.53701 587.43795,222.23854 586.77981,223.24424 585.17534,222.39011 584.0976,222.54506 553.76731,221.49027 523.12965,222.20284 493.21733,216.31778 491.5834,216.09431 491.88653,214.02726 490.71014,213.2843 489.98552,212.74879 489.00655,211.21104 490.31542,210.74787 504.94758,210.09488 519.5673,208.5569 533.95335,205.81739 550.30974,202.80854 566.38741,198.47177 582.27007,193.6215 L 582.50272,193.6457 582.62093,193.658 z"
       inkscape:connector-curvature="0"
       id="path6013"
       style="fill:#b5acba;stroke:none" />
    <path
       d="M 496.27274,217.16569 C 525.05089,222.32258 554.42704,221.77798 583.54904,222.76728 584.77388,223.09581 586.77928,222.29637 587.46719,223.47386 586.77601,231.40086 585.77632,239.2803 583.95805,247.03018 581.86553,256.03086 579.34229,264.99439 575.66537,273.48595 570.0694,283.64561 567.31133,295.30141 560.49215,304.80385 558.10464,307.55465 556.12165,310.64145 554.38398,313.79847 553.74408,314.71309 552.70777,313.97392 552.16187,313.43299 551.36248,313.46649 551.19449,312.60858 550.56838,312.35848 549.49423,312.00262 548.63825,310.91897 547.66647,310.35565 546.48825,309.93014 545.91447,308.70178 544.95461,308.08968 544.74234,307.56469 543.70434,307.83196 543.5,307.08827 543.01236,306.62205 542.10582,306.33267 542.27199,305.42899 541.87958,305.27124 541.11696,305.03098 540.96357,304.37641 540.65615,303.10095 539.49007,302.32558 539.12156,301.13095 538.36818,299.95685 537.26882,298.88442 537.27954,297.39575 536.95179,296.87113 536.45841,296.40796 536.51203,295.7584 535.59692,294.89178 535.70945,293.46459 534.63347,292.73223 533.9599,291.95883 533.98082,290.82341 533.135,290.13002 532.16473,289.04119 531.95862,287.5147 530.8471,286.51177 530.25058,285.81241 530.8911,284.71345 529.90416,284.21656 528.90055,283.74755 528.33288,282.80444 528.42032,281.70206 527.93645,280.89399 526.98642,280.32513 526.69525,279.40685 525.78516,278.17915 524.45057,277.13452 524.10766,275.56931 523.22106,274.01193 521.49581,272.78846 521.61509,270.8327 520.81679,270.16178 519.89009,269.54652 519.62899,268.42516 519.29582,267.21489 517.94534,266.62126 517.8141,265.3432 517.32554,264.47012 516.95102,263.47287 516.40335,262.63865 514.90855,261.93812 515.25035,259.91461 513.99119,258.97654 512.96361,257.89835 512.9403,256.31316 511.82679,255.26567 510.77018,253.99046 510.56969,252.27181 509.36617,251.10272 508.47653,250.21282 508.13088,249.01769 507.97539,247.84404 507.13228,246.63456 507.80019,244.97176 507.69032,243.60448 506.46546,243.07297 505.83956,241.95782 505.28546,240.83414 504.42717,239.93085 504.14565,238.66688 503.37766,237.74218 502.44582,237.24123 502.54989,236.00995 501.68184,235.41042 501.01812,234.91232 501.83855,233.78989 500.87047,233.68536 500.44522,232.83709 499.50233,232.28707 499.3647,231.28782 498.68471,230.73253 498.88229,229.68117 497.98318,229.27768 497.40609,228.49146 497.26056,227.3758 496.54319,226.64623 496.3452,225.96181 496.63329,225.19772 495.92919,224.81152 495.7143,224.08602 495.91059,223.31592 495.30787,222.77214 495.25917,221.95048 494.35067,221.45092 494.54768,220.53541 494.43756,219.83053 493.82069,219.4121 493.65591,218.68608 493.0854,218.0433 492.09731,216.29465 493.77255,216.70886 494.60595,216.86114 495.43934,217.01341 496.27274,217.16569 z"
       inkscape:connector-curvature="0"
       id="path6016"
       style="fill:#cda392;stroke:none" />
  </g>
</svg>
