<?xml version="1.0" encoding="UTF-8" standalone="no"?>
<!-- Created with Inkscape (http://www.inkscape.org/) -->

<svg
   xmlns:dc="http://purl.org/dc/elements/1.1/"
   xmlns:cc="http://creativecommons.org/ns#"
   xmlns:rdf="http://www.w3.org/1999/02/22-rdf-syntax-ns#"
   xmlns:svg="http://www.w3.org/2000/svg"
   xmlns="http://www.w3.org/2000/svg"
   xmlns:xlink="http://www.w3.org/1999/xlink"
   xmlns:inkscape="http://www.inkscape.org/namespaces/inkscape"
   version="1.1"
   width="740"
   height="520"
   id="svg2"
   style="enable-background:new">
  <defs
     id="defs4">
    <filter
       color-interpolation-filters="sRGB"
       id="filter3050">
      <feBlend
         in2="BackgroundImage"
         mode="lighten"
         id="feBlend3052" />
    </filter>
  </defs>
  <metadata
     id="metadata7">
    <rdf:RDF>
      <cc:Work
         rdf:about="">
        <dc:format>image/svg+xml</dc:format>
        <dc:type
           rdf:resource="http://purl.org/dc/dcmitype/StillImage" />
        <dc:title />
      </cc:Work>
    </rdf:RDF>
  </metadata>
  <g
     id="layer1"
     style="display:none">
    <image
       xlink:href="pngs/coronal-0560.png"
       id="MRISLICE"
       height="520"
       width="740"
       y="0"
       x="0" />
  </g>
  <g
     id="layer3"
     style="display:inline">
    <path
       d="M 352.84431,177.57003 352.84431,190.16051 373.05126,193.58015 373.05126,306.43457 351.91169,307.98254 M 352.84431,177.57003 C 359.57996,179.2043 366.31561,180.15736 373.05126,178.50266 L 373.05126,82.286526 C 404.75993,52.042376 434.26964,67.976195 464.44881,69.851484 522.12064,79.832582 578.84723,93.909759 626.72611,146.32699 660.04458,201.87018 682.86557,257.41336 652.21795,312.95655 636.26374,351.69731 609.15549,381.41437 574.96525,403.57692 564.0937,409.17482 556.86278,419.09126 543.41133,419.89791 509.6943,461.97506 479.40798,444.0149 448.90501,429.84595 436.8236,403.48816 433.77571,435.64897 373.05126,403.11061 L 373.36214,333.48837 351.44537,335.02875 351.91169,307.98254"
       inkscape:connector-curvature="0"
       id="path2990"
       style="fill:none;stroke:#0000e9;stroke-width:1;stroke-miterlimit:4;stroke-opacity:1;stroke-dasharray:none;stroke-dashoffset:0" />
    <path
       d="M 372.4295,178.03635 C 389.2094,178.42496 407.89476,173.86402 419.9402,160.4829 430.53465,139.29808 440.29151,150.33245 473.7751,160.00554 534.33001,173.29184 570.45272,202.13246 591.90799,258.24237 595.07597,270.81494 597.65352,283.4412 595.883,296.46273 594.84697,304.08227 590.78341,312.71645 588.21519,322.21388 L 585.82713,321.72005"
       inkscape:connector-curvature="0"
       id="path2992"
       style="fill:none;stroke:#0000e9;stroke-width:1;stroke-miterlimit:4;stroke-opacity:1;stroke-dasharray:none;stroke-dashoffset:0" />
    <path
       d="M 373.67301,194.82365 428.38719,176.17109 C 456.10088,168.12644 485.64713,171.99345 516.67599,185.49737 536.38746,190.75174 563.38171,205.06238 585.76591,254.69396 592.51819,272.46464 598.8842,290.13091 586.31222,319.17407 577.02775,343.20751 563.74575,355.51705 545.09448,367.0867"
       inkscape:connector-curvature="0"
       id="path2994"
       style="fill:none;stroke:#0000e9;stroke-width:1;stroke-miterlimit:4;stroke-opacity:1;stroke-dasharray:none;stroke-dashoffset:0" />
    <path
       d="M 408.12691,183.51896 C 410.19791,184.82146 409.33486,186.62444 411.23743,188.06409 424.86531,198.3761 433.76881,212.60324 432.16365,236.42935"
       inkscape:connector-curvature="0"
       id="path3821"
       style="fill:none;stroke:#0000e9;stroke-width:1.5;stroke-miterlimit:4;stroke-opacity:1;stroke-dasharray:none;stroke-dashoffset:0" />
    <path
       d="M 433.1931,212.78125 430.21768,213.03227 C 430.88143,226.56257 431.89366,264.78256 433.43298,278.44174 L 435.96875,277.24893 C 434.43395,263.62991 433.85263,226.22577 433.1931,212.78125 z"
       inkscape:connector-curvature="0"
       id="path2998"
       style="font-size:medium;font-style:normal;font-variant:normal;font-weight:normal;font-stretch:normal;text-indent:0;text-align:start;text-decoration:none;line-height:normal;letter-spacing:normal;word-spacing:normal;text-transform:none;direction:ltr;block-progression:tb;writing-mode:lr-tb;text-anchor:start;baseline-shift:baseline;color:#000000;fill:#a7b0c5;fill-opacity:1;stroke:none;stroke-width:1.5;marker:none;visibility:visible;display:inline;overflow:visible;enable-background:accumulate;font-family:Sans;-inkscape-font-specification:Sans" />
    <path
       d="M 456.1085,172.32744 C 456.4205,176.1846 455.75512,180.46788 452.45356,183.45276 434.04869,200.09229 431.0083,220.8538 432.73946,236.48105"
       inkscape:connector-curvature="0"
       id="path3000"
       style="fill:none;stroke:#0000e9;stroke-width:1;stroke-miterlimit:4;stroke-opacity:1;stroke-dasharray:none;stroke-dashoffset:0" />
    <path
       d="M 373.05126,306.11728 408.49112,312.3348 C 418.47296,318.20378 447.78619,322.96997 454.50078,326.01334 L 479.68173,339.07013 C 484.46669,343.28779 499.25698,351.3789 479.37086,346.53117 444.87457,332.02868 408.51224,334.32056 372.4295,334.09612"
       inkscape:connector-curvature="0"
       id="path3002"
       style="fill:none;stroke:#0000e9;stroke-width:1;stroke-miterlimit:4;stroke-opacity:1;stroke-dasharray:none;stroke-dashoffset:0" />
    <path
       d="M 446.84141,271.81317 C 444.49049,273.78959 446.434,278.0759 446.2754,280.82668 446.39368,286.48251 446.91292,292.13108 447.21239,297.77134 448.62308,303.5605 450.68032,309.25667 450.92667,315.26444 451.34949,318.74649 451.99678,322.38489 454.13442,325.2685 456.73096,325.65186 457.5228,322.48561 457.82494,320.50756 458.88665,314.15821 456.95436,307.86524 456.15012,301.60489 454.94305,294.09347 454.28406,286.47982 452.56793,279.05903 451.91027,276.62126 449.32075,272.91063 446.84141,271.81317 z"
       inkscape:connector-curvature="0"
       id="path3004"
       style="fill:none;stroke:#0000e9;stroke-width:1;stroke-miterlimit:4;stroke-opacity:1;stroke-dasharray:none;stroke-dashoffset:0" />
    <path
       d="M 468.17933,332.23087 C 478.43125,335.44585 492.97685,339.53703 503.49686,341.79388 512.78309,344.04058 523.0677,344.80872 530.74193,351.09601 535.79223,355.20467 538.74458,362.14988 536.94279,368.58005 532.61089,373.46454 529.58668,379.03623 524.7782,381.32466 514.8526,384.84792 503.84285,381.29296 495.75099,375.14669 491.81933,372.18362 488.26666,368.55778 486.30946,363.97215 482.84185,356.93614 480.55699,348.64146 473.84603,343.87742 473.14756,343.66959 472.543,343.63567 471.90984,344.04416"
       inkscape:connector-curvature="0"
       id="path3014"
       style="fill:none;stroke:#0000e9;stroke-width:1;stroke-miterlimit:4;stroke-opacity:1;stroke-dasharray:none;stroke-dashoffset:0" />
    <path
       d="M 543.41133,416.1674 C 538.75045,415.78211 536.28789,411.22084 534.73242,407.35074 533.08796,403.98049 531.78973,400.38369 531.90457,396.57577 531.96237,389.69651 533.58741,382.47342 538.22122,377.17598 540.63237,373.69017 542.37387,369.67957 545.53044,366.75771 544.78375,365.60692 544.1994,369.10441 545.68539,367.41701 546.65168,366.79449 543.64885,367.50611 542.75,366.77782 539.34432,365.50814 537.58345,369.15306 535.63994,371.18128 532.91066,374.70872 530.22116,378.57425 529.25921,382.98963 528.97221,385.22613 530.43951,389.38258 532.21979,390.98655"
       inkscape:connector-curvature="0"
       id="path3016"
       style="fill:none;stroke:#0000e9;stroke-width:1;stroke-miterlimit:4;stroke-opacity:1;stroke-dasharray:none;stroke-dashoffset:0" />
    <path
       d="M 571.54561,405.44218 C 569.57985,406.25508 572.91447,404.27484 572.28232,402.08131 568.86548,400.61153 563.6069,402.95548 560.12292,404.39329 554.29637,406.63536 550.13669,408.85639 545.39286,413.02104 543.17797,414.92382 541.8729,418.93769 544.03308,421.14142"
       inkscape:connector-curvature="0"
       id="path3018"
       style="fill:none;stroke:#0000e9;stroke-width:1;stroke-miterlimit:4;stroke-opacity:1;stroke-dasharray:none;stroke-dashoffset:0" />
    <path
       d="M 534.08505,405.59761 C 529.71699,401.26032 524.08524,407.21679 520.39955,409.78796 511.53079,416.27035 501.06301,421.21509 489.97259,421.77288 483.60622,420.36932 478.19784,415.92941 471.69876,414.7486 465.3411,412.65427 457.53234,413.48738 453.2784,419.15242 450.92612,421.16841 447.23241,424.76178 447.0398,427.35894"
       inkscape:connector-curvature="0"
       id="path3020"
       style="fill:none;stroke:#0000e9;stroke-width:1;stroke-miterlimit:4;stroke-opacity:1;stroke-dasharray:none;stroke-dashoffset:0" />
    <path
       d="M 465.07057,394.40608 C 458.71572,397.05316 449.69739,393.59609 442.76959,390.91996 434.87565,387.28959 425.72139,390.03386 420.19121,396.47406 413.6975,403.51542 423.61402,410.88356 430.54457,411.20933 436.69943,413.21951 449.00611,419.21671 449.52672,422.69548"
       inkscape:connector-curvature="0"
       id="path3024"
       style="fill:none;stroke:#0000e9;stroke-width:1;stroke-miterlimit:4;stroke-opacity:1;stroke-dasharray:none;stroke-dashoffset:0" />
    <path
       d="M 427.76544,353.37044 C 425.85701,354.16425 425.45173,350.62067 427.03018,352.83819 424.35156,352.15729 421.4506,350.04589 418.35154,350.90495 414.26044,351.71274 415.97596,356.73264 418.08725,358.74626 420.81164,361.70583 424.4013,364.11171 428.42595,364.77349 432.20027,364.68959 432.88232,359.64228 430.00894,357.74762 429.02482,356.42666 428.24083,354.95054 427.76544,353.37044 z"
       inkscape:connector-curvature="0"
       id="path3026"
       style="fill:none;stroke:#0000e9;stroke-width:1;stroke-miterlimit:4;stroke-opacity:1;stroke-dasharray:none;stroke-dashoffset:0" />
    <path
       d="M 473.7751,390.67556 C 468.51392,374.76281 447.60828,379.71262 441.75486,390.20925"
       inkscape:connector-curvature="0"
       id="path3028"
       style="fill:none;stroke:#0000e9;stroke-width:1;stroke-miterlimit:4;stroke-opacity:1;stroke-dasharray:none;stroke-dashoffset:0" />
    <path
       d="M 445.1745,338.44839 C 433.58221,352.60643 423.38024,371.45251 444.39732,386.47874"
       inkscape:connector-curvature="0"
       id="path3030"
       style="fill:none;stroke:#0000e9;stroke-width:1;stroke-miterlimit:4;stroke-opacity:1;stroke-dasharray:none;stroke-dashoffset:0" />
    <path
       d="M 466.93582,414.30214 492.11678,400.93448"
       inkscape:connector-curvature="0"
       id="path3032"
       style="fill:none;stroke:#0000e9;stroke-width:1;stroke-miterlimit:4;stroke-opacity:1;stroke-dasharray:none;stroke-dashoffset:0" />
    <path
       d="M 491.80591,400.6236 C 482.86424,390.7334 459.7539,380.87954 461.34005,413.68039"
       inkscape:connector-curvature="0"
       id="path3034"
       style="fill:none;stroke:#0000e9;stroke-width:1;stroke-miterlimit:4;stroke-opacity:1;stroke-dasharray:none;stroke-dashoffset:0" />
    <path
       d="M 415.46463,315.56502 C 417.43403,322.18312 415.60034,329.0137 407.11138,334.46977"
       inkscape:connector-curvature="0"
       id="path3009"
       style="fill:none;stroke:#0000e9;stroke-width:1;stroke-miterlimit:4;stroke-opacity:1;stroke-dasharray:none;stroke-dashoffset:0" />
    <path
       d="M 530.04512,404.34807 C 525.42098,405.28108 522.13985,409.15429 518.18599,411.48472 509.97184,416.96298 500.62579,421.26998 490.67072,421.76685 484.61282,421.24534 479.61571,417.04991 473.79598,415.51047 468.30704,413.78346 461.62774,412.96594 456.6298,416.43338 453.48368,419.26786 450.07511,422.15224 447.7504,425.74023 447.29001,427.42811 448.71053,429.18885 450.08197,430.08278 460.4753,435.22571 471.07832,440.14612 482.20724,443.50523 493.21635,446.75761 505.44061,446.8438 516.03627,442.12923 526.08664,437.89189 534.27339,430.25025 541.31437,422.09715 542.9577,420.66694 543.21746,418.32627 542.69389,416.34595 538.3367,415.30755 536.24019,411.0119 534.47374,407.32868 533.68813,405.49021 532.21555,403.98635 530.04512,404.34807 z"
       inkscape:connector-curvature="0"
       id="path3015"
       style="fill:#c7a1db;stroke:none" />
    <path
       d="M 459.09738,380.72149 C 452.6845,381.09106 445.95791,384.02924 442.51408,389.64947 442.3796,391.11862 444.59955,391.13847 445.52585,391.73907 450.76568,393.59109 456.1987,395.72803 461.88459,394.90034 463.59033,394.57908 465.51004,394.64491 466.67498,393.17597 468.50766,391.46797 471.20089,391.42731 473.40739,390.62095 472.56383,387.16774 469.83643,384.23009 466.8207,382.35359 464.44108,381.1786 461.7477,380.66382 459.09738,380.72149 z"
       inkscape:connector-curvature="0"
       id="path3017"
       style="fill:#a1d081;stroke:none" />
    <path
       d="M 445.1371,337.32514 C 443.91148,337.58646 445.39024,338.70564 444.63192,339.29726 439.39391,346.48535 433.80402,354.07941 432.65348,363.16671 431.35747,371.61419 435.95617,379.90085 442.6415,384.80956 443.73338,386.3046 445.10872,386.27034 446.23256,384.92821 450.40578,381.91719 455.41109,380.16644 460.60318,380.50777 466.69658,380.23944 472.16153,384.8983 473.85427,390.57238 476.25369,391.52201 479.03691,391.70357 481.37359,392.98167 485.25273,394.81314 489.07346,397.2403 491.83651,400.48155 491.1376,402.00661 489.02765,402.49751 487.72712,403.4543 481.79571,406.74242 475.61484,409.66208 469.88089,413.25661 469.4747,414.71165 471.61292,414.27147 472.40366,414.72444 478.20043,416.28883 483.36096,419.67562 489.13577,421.31996 497.64436,421.68064 505.82281,418.24638 513.11597,414.16938 518.08129,411.5356 522.29963,407.70172 527.14037,404.89211 528.76452,403.80599 530.79344,404.29055 532.54184,403.76518 533.25186,402.75609 532.01429,401.55532 532.15325,400.42326 531.47232,397.08301 532.41873,393.48695 531.27891,390.2615 529.19622,387.06599 528.58345,382.80429 530.24913,379.26426 530.64235,377.96197 528.99905,378.28831 528.51988,378.99225 524.40923,382.70864 518.47998,383.19162 513.18981,382.59646 503.94825,381.34535 495.16001,376.41833 489.35228,369.20006 483.76192,361.45394 482.0898,351.1292 474.60232,344.72788 464.99034,341.49193 455.1927,338.70523 445.1371,337.32514 z"
       inkscape:connector-curvature="0"
       id="path3019"
       style="fill:#8791c4;stroke:none" />
    <path
       d="M 434.51874,389.51346 C 428.10524,389.94857 421.8993,393.69725 418.71263,399.26719 417.21759,402.37292 419.69164,405.70815 422.06427,407.57341 425.909,410.81038 431.15548,410.78634 435.49023,413.01374 440.07809,415.20889 445.01402,417.23235 448.62474,420.85365 449.09219,421.90771 450.31767,422.01648 450.93509,420.98603 453.83636,418.24131 456.75489,415.30147 460.6129,413.98523 461.65209,412.12368 460.82102,409.73928 461.22493,407.68999 461.49875,403.57828 462.34902,399.51848 464.16854,395.85727 464.10214,394.35106 462.30577,395.6063 461.44838,395.37153 453.16371,395.93987 445.81848,391.55741 437.9578,389.77576 436.82701,389.54822 435.67137,389.4623 434.51874,389.51346 z"
       inkscape:connector-curvature="0"
       id="path3023"
       style="fill:#a4a7da;stroke:none" />
    <path
       d="M 418.98465,351.05226 C 416.45385,350.96386 415.33842,354.18365 416.60451,356.12343 418.57669,360.10625 422.70555,362.61359 426.72741,364.14791 428.33761,365.00082 430.2903,364.42832 431.12825,362.79755 432.54055,360.67307 430.5525,358.5801 429.32128,356.98805 428.48754,355.65439 427.97561,353.94427 426.41653,353.31583 424.4659,351.62546 421.51147,351.02621 418.98465,351.05226 z"
       inkscape:connector-curvature="0"
       id="path3025"
       style="fill:#788e76;stroke:none" />
    <path
       d="M 474.32059,334.45925 C 473.00197,335.00734 474.54164,336.26092 475.3115,336.50909 480.3263,339.30857 485.18638,342.52273 489.27178,346.54456 489.84915,347.05168 489.77453,347.94079 488.88319,347.91436 485.36755,348.44844 481.9767,346.91291 478.51741,346.71943 477.55998,347.76997 479.40438,349.02655 479.74149,350.06134 483.41693,355.97009 485.26916,362.99762 489.43449,368.64764 496.14414,376.75405 506.33624,382.62017 517.05633,382.44103 521.0987,382.30891 525.54779,381.7113 528.32558,378.42878 531.37139,375.13019 534.53954,371.78505 536.73867,367.83957 538.47882,362.33311 535.68903,356.35399 531.79379,352.47063 525.05762,345.75859 515.13487,344.6937 506.3163,342.5647 495.61439,340.28449 485.07075,337.29058 474.54403,334.44954 474.46943,334.45154 474.39446,334.44354 474.32059,334.45954 z"
       inkscape:connector-curvature="0"
       id="path3027"
       style="fill:#e1aa66;stroke:none" />
    <path
       d="M 416.30335,316.19529 C 415.79188,318.77838 416.75313,321.65438 415.72045,324.22949 414.6945,327.76768 412.0043,330.44879 409.81381,333.27404 410.09037,334.66133 412.28269,333.80008 413.33945,334.1615 432.64586,334.88209 452.13412,336.81448 470.51236,342.95005 472.43024,343.40899 474.31673,343.83755 475.94297,344.99018 479.85127,346.52796 484.06395,347.76042 488.29058,347.72977 489.82088,347.10975 487.98164,345.6998 487.28995,345.19419 481.78329,340.44394 475.43064,336.93562 468.96679,333.68644 463.24008,330.84082 457.64411,327.61905 451.71407,325.25926 440.10977,322.03922 428.29691,319.49204 416.76966,316.05928 L 416.47122,316.14628 416.30335,316.19528 z"
       inkscape:connector-curvature="0"
       id="path3035"
       style="fill:#d68d95;stroke:none" />
    <path
       d="M 540.87297,366.80697 C 538.4925,367.49934 537.08952,369.96541 535.49093,371.71299 532.96733,375.27758 530.15317,379.03099 529.48714,383.44856 529.52294,385.39616 529.90846,387.6667 531.34268,389.06375 532.79193,389.33744 532.81122,387.142 533.24921,386.20142 535.20176,379.26748 540.77901,374.10361 543.84573,367.6716 543.45952,366.63761 541.76895,366.92621 540.87297,366.80697 z"
       inkscape:connector-curvature="0"
       id="path3051"
       style="fill:#a5c0bd;stroke:none" />
    <path
       d="M 570.02732,401.86796 C 564.21911,402.25154 558.95043,405.11796 553.7549,407.50259 550.16875,409.52999 546.44527,411.82836 544.01088,415.18706 543.56294,416.39153 542.32394,418.45221 543.632,419.48103 546.72447,419.92652 549.75888,418.42848 552.61826,417.40205 558.89356,414.69127 564.32527,410.3839 569.73587,406.2688 570.76132,405.28206 572.40808,403.84397 571.95086,402.29542 571.4588,401.80816 570.66473,401.87612 570.02732,401.86796 z"
       inkscape:connector-curvature="0"
       id="path3053"
       style="fill:#6abbd5;stroke:none" />
    <path
       d="M 596.15878,269.40229 C 606.29108,276.91851 627.85446,297.36004 596.15878,331.8319"
       inkscape:connector-curvature="0"
       id="path3031"
       style="fill:none;stroke:#0000e9;stroke-width:1;stroke-miterlimit:4;stroke-opacity:1;stroke-dasharray:none;stroke-dashoffset:0" />
    <path
       d="M 596.59842,294.9017 C 597.92943,301.91187 604.72717,290.95427 611.986,293.14312"
       inkscape:connector-curvature="0"
       id="path3036"
       style="fill:none;stroke:#0000e9;stroke-width:1;stroke-miterlimit:4;stroke-opacity:1;stroke-dasharray:none;stroke-dashoffset:0" />
    <path
       d="M 583.40907,325.67686 C 586.74879,331.95544 590.91854,334.91393 596.59842,331.83189 600.56312,353.0893 582.35439,354.3715 571.97829,359.08989 573.25882,355.26184 575.45033,351.1605 565.38362,350.73663"
       inkscape:connector-curvature="0"
       id="path3038"
       style="fill:none;stroke:#0000e9;stroke-width:1;stroke-miterlimit:4;stroke-opacity:1;stroke-dasharray:none;stroke-dashoffset:0" />
    <path
       d="M 571.97829,359.52953 C 558.42999,368.56454 544.74651,373.67683 533.28952,388.98576 556.08214,378.18867 580.73298,372.03716 601.43452,356.01237 608.03386,354.27697 606.02269,357.88484 603.63274,361.72776 L 569.34042,381.07214 C 563.64452,381.16194 556.51963,385.81386 549.99604,388.54611 L 531.53094,399.53724"
       inkscape:connector-curvature="0"
       id="path3040"
       style="fill:none;stroke:#0000e9;stroke-width:1;stroke-miterlimit:4;stroke-opacity:1;stroke-dasharray:none;stroke-dashoffset:0" />
    <path
       d="M 595.53519,269.90534 C 594.11246,271.09338 595.83462,273.2809 595.60389,274.83761 596.68437,281.49262 596.34088,288.25874 596.85413,294.93763 597.09799,296.66103 599.0857,297.37415 600.41251,296.24283 603.88764,294.59374 607.34005,292.58869 611.33495,292.73941 612.35579,291.34581 610.98782,289.00869 610.49021,287.45729 607.42667,280.42177 602.4451,274.10899 596.0298,269.93282 595.87046,269.87782 595.69974,269.88592 595.5352,269.90532 z"
       inkscape:connector-curvature="0"
       id="path3042"
       style="fill:#d39ccd;stroke:none" />
    <path
       d="M 603.57245,355.89718 C 599.225,357.0155 596.1383,360.64956 592.16552,362.61211 576.06856,372.7432 557.71737,378.42712 540.38101,386.12711 537.55309,387.71984 532.48457,388.2008 532.45985,392.37398 532.42765,394.28952 531.72825,396.38987 532.29499,398.2405 534.47578,398.1615 536.35032,395.99224 538.40715,395.1365 548.00032,389.50361 557.67631,383.59073 568.49701,380.69591 579.74111,375.26828 590.52508,368.84764 601.29179,362.54681 603.35928,361.37948 605.58633,359.10236 605.33103,356.58412 604.97051,355.99618 604.21278,355.83093 603.57245,355.89718 z"
       inkscape:connector-curvature="0"
       id="path3050"
       style="fill:#d5be93;stroke:none" />
    <path
       d="M 473.1792,391.34357 C 467.75844,391.47852 463.56902,396.14189 462.64146,401.29054 461.74077,405.28525 461.37905,409.50879 461.52861,413.54565 465.95986,414.22384 470.11514,412.51955 473.86302,410.30952 479.73432,407.08449 485.92228,404.20337 491.56186,400.69977 487.7056,396.5925 482.41377,393.49768 476.9574,391.85191 475.73241,391.51926 474.45202,391.3085 473.1792,391.34357 z"
       inkscape:connector-curvature="0"
       id="path3039"
       style="fill:#dbafbc;stroke:none" />
    <path
       d="M 373.40742,306.51196 C 366.42277,306.99295 359.42526,307.46264 352.46932,308.20871 351.66686,309.02459 352.2017,310.44962 351.98147,311.50573 351.76129,319.0968 351.673,326.69107 351.65872,334.28516 352.20647,335.28866 353.74527,334.54992 354.70791,334.68372 361.02221,334.35322 367.32857,333.63585 373.64785,333.53639 376.54482,334.03476 379.57765,333.74542 382.523,333.89066 390.82392,333.93536 399.15093,334.09781 407.43585,334.00069 410.63465,332.00831 413.40235,329.1142 414.96075,325.65026 416.19947,322.58324 416.26937,319.01539 415.33857,315.86129 414.39163,314.71505 412.61806,314.62728 411.3518,313.89165 408.0174,312.01012 404.09466,311.85477 400.42152,311.04158 391.52057,309.50823 382.64108,307.76448 373.7028,306.49822 L 373.48322,306.50842 373.40742,306.51242 z"
       inkscape:connector-curvature="0"
       id="path3043"
       style="fill:#bfb879;stroke:none" />
    <path
       d="M 446.10713,272.54266 C 432.64641,281.48345 408.39663,283.48841 438.95698,320.72845"
       inkscape:connector-curvature="0"
       id="path3049"
       style="fill:none;stroke:#0000e9;stroke-width:1;stroke-linecap:round;stroke-miterlimit:4;stroke-opacity:1;stroke-dasharray:none;stroke-dashoffset:0" />
    <path
       d="M 446.99653,272.34515 C 445.06612,273.404 446.24865,276.11725 446.11499,277.84118 446.87761,286.69177 446.49381,295.75216 449.10001,304.3371 450.86368,310.09382 450.69807,316.23703 452.65059,321.93959 453.20205,323.07059 453.808,325.56185 455.52619,324.85406 458.06362,322.69981 457.70243,318.86149 457.81826,315.84854 457.48192,307.9773 455.58795,300.27664 454.69662,292.46167 453.73821,287.23144 453.44347,281.7537 451.32936,276.83342 450.21404,275.18795 449.04088,273.27023 447.24911,272.33543 447.16511,272.34143 447.07985,272.32643 446.99653,272.34543 z"
       inkscape:connector-curvature="0"
       id="path3054"
       style="fill:#9de082;stroke:none" />
    <path
       d="M 444.68439,273.76352 C 439.71408,276.33728 434.61665,278.83505 430.05378,282.08917 426.79872,284.60477 424.19342,288.37315 424.48716,292.64924 424.47086,299.59847 428.56123,305.55921 432.14248,311.19494 434.36526,314.71404 437.31343,317.87265 439.33149,321.43442 443.73922,323.08615 448.54057,323.62868 452.9226,325.3398 454.5084,324.95374 452.54012,323.45403 452.42714,322.52249 450.44983,316.98491 450.67706,310.88765 448.94922,305.23001 447.37096,300.04042 446.71673,294.68806 446.57919,289.27087 446.20381,284.18389 446.05687,279.05297 445.345,274.00639 445.24239,273.7655 444.89324,273.77256 444.68439,273.76352 z"
       inkscape:connector-curvature="0"
       id="path3056"
       style="fill:#79a89f;stroke:none" />
    <path
       d="M 452.84509,172.24992 C 443.30235,172.76516 433.7845,174.39618 424.76917,177.62017 419.62686,179.31587 414.44113,180.92357 409.3683,182.80827 408.66267,183.66785 409.88307,184.71508 410.0896,185.60414 411.37774,188.39461 414.40181,189.7285 416.39266,191.89427 422.6061,197.61175 427.40293,204.83871 430.11406,212.87588 431.0329,213.77439 432.53484,213.10905 433.67931,213.26057 434.70211,212.45182 434.64502,210.74509 435.22846,209.57498 438.25254,200.3428 443.45521,191.88953 450.49987,185.21834 452.80484,182.92501 455.3132,180.44128 455.744,177.06541 455.93472,175.47321 456.20011,173.76752 455.7783,172.22244 454.85197,171.9722 453.80538,172.27534 452.84505,172.24994 z"
       inkscape:connector-curvature="0"
       id="path3041"
       style="fill:#a7b0c5;stroke:none" />
    <path
       d="M 457.8904,155.09454 C 414.33881,149.12619 437.8117,166.64524 405.57263,171.36141"
       inkscape:connector-curvature="0"
       id="path3045"
       style="fill:none;stroke:#0000e9;stroke-width:1;stroke-linecap:round;stroke-miterlimit:4;stroke-opacity:1;stroke-dasharray:none;stroke-dashoffset:0" />
    <path
       d="M 434.28657,148.52969 C 429.80377,148.43949 425.94299,151.34489 423.48778,154.8702 421.51927,157.45729 420.41304,160.69123 417.79295,162.78547 415.48155,165.19035 412.68803,167.03797 410.08547,169.06936 409.32438,169.72592 410.36814,170.62688 411.09528,170.16848 416.00073,169.04138 420.85528,166.84881 424.19911,162.96311 426.91496,159.89752 429.36679,156.19456 433.51032,154.97324 438.25488,153.38246 443.33484,154.02834 448.25182,154.01217 449.58211,153.90083 451.1356,154.50623 452.34636,153.93597 452.88833,152.86365 451.15534,152.78308 450.55344,152.41782 445.29034,150.63985 439.92118,148.51473 434.28657,148.5297 z"
       inkscape:connector-curvature="0"
       id="path3047"
       style="fill:#b46a9f;stroke:none" />
    <path
       d="M 456.2453,172.1901 C 456.1512,173.48147 456.35477,174.90632 456.0667,176.23621 455.89879,179.08592 454.48052,181.65499 452.43568,183.59254 447.2259,188.64366 442.44502,194.27175 439.18844,200.80825 436.1413,206.65441 433.97024,213.01699 433.19636,219.57504 433.04803,225.57592 433.55712,231.57832 433.63792,237.58044 434.15903,250.80996 434.31428,264.07882 435.61633,277.25841 436.21523,278.34402 437.46632,276.96446 438.26768,276.75573 441.15105,275.13981 444.31215,273.86319 446.81354,271.65294 450.61099,273.75434 452.68472,277.99934 453.3008,282.17255 454.94956,291.52547 456.13222,300.99146 457.66255,310.37748 458.11592,314.75069 458.7563,319.49332 456.9872,323.62724 456.73251,324.57817 454.93465,325.4288 455.88809,326.47119 459.69782,328.74512 463.7341,330.69111 467.79286,332.48196 468.35694,332.42576 468.85701,332.17816 469.46165,332.51086 483.65831,336.91342 498.09094,340.61572 512.65375,343.6406 519.72135,345.1489 527.14978,347.1604 532.36317,352.51762 535.48144,355.70272 537.68553,360.12 537.37491,364.68597 537.58532,365.69341 536.96277,367.10238 537.7926,367.8528 539.06701,367.53348 540.1135,366.32916 541.5502,366.49265 542.73967,366.47965 544.0099,367.49904 545.08796,366.49265 546.94614,366.16718 548.43327,364.54688 550.09807,363.65936 555.34508,360.08262 560.48918,356.32502 565.02999,351.86758 565.61919,351.4584 565.54317,350.61125 566.28023,350.46621 571.50397,345.64106 575.70075,339.77443 579.28411,333.64291 583.93102,325.31589 587.56065,316.4243 590.42637,307.3349 593.42709,297.19777 594.351,286.32409 592.17775,275.91987 588.94385,259.76702 581.53432,244.76657 572.88865,230.86212 563.60467,216.08405 551.56425,202.59678 536.37063,193.75333 530.20627,190.10859 523.45367,187.60213 516.63858,185.51638 509.93826,182.87973 503.25113,180.10936 496.30187,178.11297 483.3929,174.25617 469.88859,172.05298 456.41902,172.12062 L 456.2453,172.19012 z"
       inkscape:connector-curvature="0"
       id="path3037"
       style="fill:#d0cf6e;stroke:none" />
    <path
       d="M 609.54269,293.04442 C 605.48282,293.29614 602.37848,296.50637 598.55156,297.3447 597.59161,297.62317 596.92128,295.88163 596.0923,296.88445 595.46937,298.13075 595.58891,299.61565 595.05644,300.91523 593.04693,308.12452 590.39842,315.16692 588.3092,322.34265 587.32077,322.38335 585.92696,321.33309 585.22482,322.31515 584.79387,323.57843 583.77224,324.78344 583.75475,326.10022 585.65346,329.03255 588.05967,332.52904 591.84697,332.88724 593.95329,333.13438 595.99477,332.12194 597.21889,330.41424 604.29904,322.3569 610.7487,312.97564 612.31795,302.13956 612.50335,299.34422 612.74463,296.47583 612.28355,293.70387 611.7554,292.88212 610.3867,293.1423 609.54264,293.0444 z"
       inkscape:connector-curvature="0"
       id="path3044"
       style="fill:#bc90cc;stroke:none" />
    <path
       d="M 567.31615,351.04323 C 565.25232,351.32376 564.12935,353.40506 562.53599,354.53631 557.52928,359.00111 551.95607,362.84395 546.28875,366.47203 546.27385,367.39078 545.38336,367.95985 544.55764,368.15504 542.35941,370.27749 541.06496,373.18451 539.33303,375.6548 537.39265,378.58253 535.14176,381.35665 534.03364,384.75852 533.82462,385.40118 532.96626,386.79627 534.15042,386.98422 535.68694,386.28738 536.51416,384.55129 537.74314,383.44645 545.58935,374.90071 555.88954,369.22129 565.73608,363.2644 567.78574,361.83679 570.3496,360.91018 571.8912,358.88815 572.52687,357.00582 573.69221,354.52547 572.19346,352.76059 570.90854,351.57022 569.00159,351.19029 567.31615,351.04323 z"
       inkscape:connector-curvature="0"
       id="path3046"
       style="fill:#ca818c;stroke:none" />
    <path
       d="M 583.2052,327.01388 C 580.92394,331.23295 578.71222,335.53015 575.93044,339.44759 573.40888,343.25379 570.38066,346.58852 567.46728,350.06777 567.30762,351.19228 569.07627,350.91151 569.83037,351.25618 571.58543,351.54542 573.38024,352.9043 573.14145,354.86265 573.22115,356.00126 572.44423,357.16216 572.81171,358.23555 573.95556,358.5384 575.0718,357.51261 576.2005,357.31125 582.08905,355.1067 588.65312,353.39791 592.98043,348.48779 596.23132,345.22397 597.26546,340.38539 596.89603,335.91004 596.75003,334.82433 597.01909,333.59063 596.5182,332.59874 595.3138,332.13501 594.08262,333.27302 592.82243,333.09334 589.4032,333.47928 586.71882,330.76933 584.85387,328.25725 584.38325,327.8251 584.04853,326.51178 583.2052,327.01388 z"
       inkscape:connector-curvature="0"
       id="path3048"
       style="fill:#c9ca98;stroke:none" />
    <path
       d="M 441.01435,154.17839 C 436.42993,154.03143 431.50573,155.13423 428.29701,158.63641 425.50114,161.74797 423.05372,165.39756 419.25191,167.354 415.11591,169.77134 410.34739,170.51772 405.7603,171.59932 401.41796,173.1436 397.19019,175.04349 392.68086,176.02325 386.66539,177.57766 380.4488,178.00454 374.25698,178.21461 373.15958,178.35987 372.23467,179.008 371.07642,178.99773 365.26054,179.77215 359.32528,179.29446 353.65548,177.82992 352.39416,178.31259 353.33318,180.29137 353.0441,181.39517 353.1038,184.20814 352.92459,187.0718 353.1334,189.85313 354.27302,190.60436 356.00218,190.41632 357.36446,190.80729 362.57168,191.73718 367.92087,192.49613 373.04111,193.54723 372.86583,194.3329 373.62748,195.02372 374.36004,194.43339 393.31545,188.07315 412.20681,181.39254 431.22539,175.30196 439.72539,172.99969 448.50909,172.04466 457.30859,172.06378 474.98468,171.66667 492.42003,175.9376 508.84337,182.17142 513.21576,183.93905 517.58005,185.71219 522.10421,187.03597 537.38573,192.08522 550.58374,202.09474 560.97582,214.21828 571.25629,226.21426 579.33546,240.03982 585.68803,254.45517 589.68789,264.36307 593.18984,274.66483 593.46935,285.43979 594.1579,297.16148 590.83886,308.64359 586.37203,319.34757 586.11281,320.06428 585.35609,321.50262 586.55065,321.77248 587.53152,322.21089 588.56315,321.51708 588.60962,320.44815 590.65276,313.49279 593.38773,306.69531 595.12617,299.64348 597.71476,287.11323 595.58283,274.20022 592.69192,261.91892 591.0367,255.15042 587.88884,248.86752 585.00567,242.55115 577.23879,226.32974 566.9813,211.16234 553.76152,198.87577 537.57897,183.33045 517.11288,172.8802 495.88434,166.07782 487.94158,163.40569 479.7453,161.63218 471.67274,159.47474 466.87705,158.23209 462.29507,156.16127 457.42823,155.1742 451.99988,154.35775 446.50111,154.11329 441.01437,154.17839 z"
       inkscape:connector-curvature="0"
       id="path3052"
       style="fill:#73a0a6;stroke:none" />
  </g>
</svg>
