<?xml version="1.0" encoding="UTF-8" standalone="no"?>
<!-- Created with Inkscape (http://www.inkscape.org/) -->

<svg
   xmlns:dc="http://purl.org/dc/elements/1.1/"
   xmlns:cc="http://creativecommons.org/ns#"
   xmlns:rdf="http://www.w3.org/1999/02/22-rdf-syntax-ns#"
   xmlns:svg="http://www.w3.org/2000/svg"
   xmlns="http://www.w3.org/2000/svg"
   xmlns:xlink="http://www.w3.org/1999/xlink"
   xmlns:inkscape="http://www.inkscape.org/namespaces/inkscape"
   version="1.1"
   width="740"
   height="520"
   id="svg2"
   style="display:inline;enable-background:new">
  <defs
     id="defs4">
    <filter
       color-interpolation-filters="sRGB"
       id="filter3050">
      <feBlend
         in2="BackgroundImage"
         mode="lighten"
         id="feBlend3052" />
    </filter>
  </defs>
  <metadata
     id="metadata7">
    <rdf:RDF>
      <cc:Work
         rdf:about="">
        <dc:format>image/svg+xml</dc:format>
        <dc:type
           rdf:resource="http://purl.org/dc/dcmitype/StillImage" />
        <dc:title />
      </cc:Work>
    </rdf:RDF>
  </metadata>
  <g
     id="g4219"
     style="display:none">
    <image
       xlink:href="pngs/coronal-0507.png"
       id="image4221"
       height="520"
       width="740"
       y="0"
       x="0" />
  </g>
  <g
     id="g4227"
     style="display:inline">
    <path
       d="M 368.93952,191.14545 369.37916,97.501038 C 381.09805,79.854749 398.15403,74.661679 416.86084,73.320556 484.12171,85.013738 570.39509,120.73583 591.83959,137.50874 616.14621,156.41 635.11776,187.16696 638.44198,252.69577 627.43711,300.26808 619.43232,350.71547 581.28811,372.27924 568.67328,377.83277 559.37572,378.78383 541.48461,390.6689"
       inkscape:connector-curvature="0"
       id="path4229"
       style="fill:none;stroke:#0000e9;stroke-width:1;stroke-miterlimit:4;stroke-opacity:1;stroke-dasharray:none;stroke-dashoffset:0" />
    <path
       d="M 541.2804,389.86504 543.03899,401.73546 C 531.516,414.63994 520.70956,427.73995 506.98809,437.34672 482.24597,445.73376 469.34796,439.59727 455.98925,433.38991 427.83041,430.90102 418.40705,425.88688 415.10225,418.88162 L 404.55077,402.61475 C 387.75132,397.7531 381.88401,397.26131 371.13774,385.02895"
       inkscape:connector-curvature="0"
       id="path4231"
       style="fill:none;stroke:#0000e9;stroke-width:1;stroke-miterlimit:4;stroke-opacity:1;stroke-dasharray:none;stroke-dashoffset:0" />
    <path
       d="M 368.49987,190.26616 C 374.2072,191.73701 371.30965,195.72039 370.25845,201.69693 L 371.13774,385.46859"
       inkscape:connector-curvature="0"
       id="path4233"
       style="fill:none;stroke:#0000e9;stroke-width:1;stroke-miterlimit:4;stroke-opacity:1;stroke-dasharray:none;stroke-dashoffset:0" />
    <path
       d="M 369.81881,203.45551 C 382.24689,207.64385 393.13877,198.28755 402.96267,192.05052 411.33088,186.30218 417.90212,178.37122 423.11896,169.75178 429.30658,160.47439 441.53158,159.76579 450.61477,164.80031 465.11388,170.65876 478.72248,178.50876 493.34678,184.08491 503.04688,189.01756 512.38612,194.6505 522.27167,199.20803 533.54721,206.44347 543.24717,216.51583 549.98989,228.08638 560.16519,249.0052 557.77634,273.0433 556.37483,295.5327 555.23705,304.22015 554.4797,313.38506 550.74677,321.35714 541.46646,326.70844 546.70522,312.3139 547.50116,307.65766 548.51104,296.68977 549.88231,285.74632 550.60739,274.75987 551.45405,251.97163 543.35047,227.69695 524.55404,213.67978 517.24814,207.54792 508.57385,203.27417 499.6314,200.2117 488.60725,194.1568 475.58517,194.10214 463.45589,192.05383 447.56885,190.55512 430.0246,195.66394 420.69633,209.3767 407.20074,223.23321 388.3349,230.17643 369.81881,234.23067"
       inkscape:connector-curvature="0"
       id="path4235"
       style="fill:none;stroke:#0000e9;stroke-width:1;stroke-miterlimit:4;stroke-opacity:1;stroke-dasharray:none;stroke-dashoffset:0" />
    <path
       d="M 442.06101,319.14583 C 444.20782,320.57248 447.22758,319.55652 449.1789,321.39786 452.6132,324.30394 455.04571,328.60856 455.15036,333.16139 454.97169,336.06759 452.73757,338.86533 449.76883,339.23442 446.69987,339.79294 443.61254,338.95276 440.65112,338.21093 437.63698,337.2776 434.69296,335.23963 433.6978,332.11367 432.29009,328.1461 433.41026,323.34994 436.59003,320.54781 437.15538,317.85876 440.30862,317.27515 442.06101,319.14583 z"
       inkscape:connector-curvature="0"
       id="path4237"
       style="fill:none;stroke:#0000e9;stroke-width:1;stroke-miterlimit:4;stroke-opacity:1;stroke-dasharray:none;stroke-dashoffset:0" />
    <path
       d="M 430.05019,199.49871 C 430.66293,206.23875 429.28744,212.98419 429.54377,219.71741 427.94,230.2747 426.27654,241.07234 428.46043,251.68248 430.09441,264.25215 430.6609,276.93458 432.49035,289.47295 433.40912,298.19678 432.39865,306.93729 431.25521,315.57769 431.83197,318.54179 428.84515,327.39551 427.02614,320.92526 426.78955,307.94208 425.09074,295.02206 423.72903,282.1118 422.30103,273.18201 420.97288,264.09841 417.80118,255.59618 414.00603,246.77556 406.60813,240.41788 399.93948,233.81672 397.85491,231.39515 395.4384,228.66344 394.87863,225.43777"
       inkscape:connector-curvature="0"
       id="path4239"
       style="fill:none;stroke:#0000e9;stroke-width:1;stroke-miterlimit:4;stroke-opacity:1;stroke-dasharray:none;stroke-dashoffset:0" />
    <path
       d="M 425.65374,166.08567 369.37916,137.94838"
       inkscape:connector-curvature="0"
       id="path3136"
       style="fill:none;stroke:#0000e9;stroke-width:1;stroke-miterlimit:4;stroke-opacity:1;stroke-dasharray:none;stroke-dashoffset:0" />
    <path
       d="M 432.24841,163.4478 377.73242,88.26849"
       inkscape:connector-curvature="0"
       id="path3138"
       style="fill:none;stroke:#0000e9;stroke-width:1;stroke-miterlimit:4;stroke-opacity:1;stroke-dasharray:none;stroke-dashoffset:0" />
    <path
       d="M 436.20522,160.80994 C 439.52328,136.56121 445.21003,109.50641 449.83422,80.354877"
       inkscape:connector-curvature="0"
       id="path3140"
       style="fill:none;stroke:#0000e9;stroke-width:1;stroke-miterlimit:4;stroke-opacity:1;stroke-dasharray:none;stroke-dashoffset:0" />
    <path
       d="M 481.77328,177.75787 512.45537,99.763113"
       inkscape:connector-curvature="0"
       id="path3142"
       style="fill:none;stroke:#0000e9;stroke-width:1;stroke-miterlimit:4;stroke-opacity:1;stroke-dasharray:none;stroke-dashoffset:0" />
    <path
       d="M 501.49637,189.05906 540.18515,109.48329"
       inkscape:connector-curvature="0"
       id="path3146"
       style="fill:none;stroke:#0000e9;stroke-width:1;stroke-miterlimit:4;stroke-opacity:1;stroke-dasharray:none;stroke-dashoffset:0" />
    <path
       d="M 554.46976,238.18748 634.04553,216.20522"
       inkscape:connector-curvature="0"
       id="path4247"
       style="fill:none;stroke:#0000e9;stroke-width:1;stroke-miterlimit:4;stroke-opacity:1;stroke-dasharray:none;stroke-dashoffset:0" />
    <path
       d="M 564.58159,266.76441 636.24375,264.56618"
       inkscape:connector-curvature="0"
       id="path4249"
       style="fill:none;stroke:#0000e9;stroke-width:1;stroke-miterlimit:4;stroke-opacity:1;stroke-dasharray:none;stroke-dashoffset:0" />
    <path
       d="M 557.98692,261.04902 C 582.79349,272.54276 568.90107,324.60559 549.19399,321.2804"
       inkscape:connector-curvature="0"
       id="path4251"
       style="fill:none;stroke:#0000e9;stroke-width:1;stroke-miterlimit:4;stroke-opacity:1;stroke-dasharray:none;stroke-dashoffset:0" />
    <path
       d="M 612.94256,337.98691 C 595.4411,331.92029 575.10958,326.75162 555.7887,320.40111"
       inkscape:connector-curvature="0"
       id="path4255"
       style="fill:none;stroke:#0000e9;stroke-width:1;stroke-miterlimit:4;stroke-opacity:1;stroke-dasharray:none;stroke-dashoffset:0" />
    <path
       d="M 559.52567,322.04978 C 559.49557,326.79013 554.79683,332.69881 553.43928,337.04031 550.02256,343.26852 546.79857,349.78786 541.82932,354.94974 536.99001,359.19208 531.40588,362.74035 527.44561,367.88603 525.29657,370.99311 525.26536,375.16362 526.9867,378.47086 528.64286,382.00423 530.96806,385.34381 533.96802,387.84721 536.47595,389.52214 539.51001,390.29735 541.83323,392.26696 541.19519,391.78698 540.30468,391.54193 539.96147,390.74433"
       inkscape:connector-curvature="0"
       id="path4257"
       style="fill:none;stroke:#0000e9;stroke-width:1;stroke-miterlimit:4;stroke-opacity:1;stroke-dasharray:none;stroke-dashoffset:0" />
    <path
       d="M 370.6981,266.76441 C 373.41519,276.58886 373.92535,286.84682 376.06237,296.79676 378.85725,310.43975 383.46248,323.65734 388.58399,336.58081 393.27512,347.29774 398.50398,357.81172 404.40024,367.9137 407.31107,372.70244 411.20289,377.49788 411.43547,383.31833 411.29927,389.85257 404.60508,392.39063 399.0328,391.62244 392.42876,392.13647 385.38131,391.93764 379.63856,388.21645 376.73535,386.78798 373.84377,385.18299 371.57739,382.83077"
       inkscape:connector-curvature="0"
       id="path4259"
       style="fill:none;stroke:#0000e9;stroke-width:1;stroke-miterlimit:4;stroke-opacity:1;stroke-dasharray:none;stroke-dashoffset:0" />
    <path
       d="M 432.24841,303.6946 C 436.92448,303.38156 441.67681,302.699 446.33579,303.1591 450.96667,304.77786 455.80107,305.75477 460.47482,307.18541 467.38884,310.41517 473.26216,315.51026 480.35506,318.41195 484.78946,320.67419 488.16713,324.39163 491.95114,327.53238 495.06739,330.30945 497.16124,334.40867 496.52161,338.65786 496.15062,343.05109 495.35801,347.45002 494.1506,351.67775 491.77402,357.36936 487.94701,362.54976 483.13166,366.391 478.91775,368.35886 474.27713,366.14304 470.12364,365.02629 465.56943,363.39481 461.59002,360.27411 456.68527,359.67536 449.0266,358.40575 441.70453,355.37535 435.25618,351.07978 430.23773,348.74468 424.4018,346.39901 422.14995,340.87875 419.25537,334.51627 420.42904,327.04253 423.23551,320.88509 423.93458,319.76426 424.86347,318.81611 425.65374,317.76324"
       inkscape:connector-curvature="0"
       id="path3189"
       style="fill:none;stroke:#0000e9;stroke-width:1;stroke-miterlimit:4;stroke-opacity:1;stroke-dasharray:none;stroke-dashoffset:0" />
    <path
       d="M 411.58509,416.6834 C 410.17708,409.89117 411.46985,401.89957 416.78243,397.07928 420.85247,393.65821 425.76563,397.34758 429.50635,399.40818 434.6731,402.83442 440.18875,405.76398 446.26521,407.18957 454.50998,409.46227 462.82736,411.75057 471.32451,412.80735 479.32186,413.34218 487.37372,412.00965 495.06435,409.94376 502.15716,407.07493 507.97027,401.8036 513.46165,396.61591 517.74277,391.99633 522.61739,386.53294 529.39641,386.42483 532.79487,386.99423 528.74519,385.12429 528.97038,383.71001"
       inkscape:connector-curvature="0"
       id="path3197"
       style="fill:none;stroke:#0000e9;stroke-width:1;stroke-miterlimit:4;stroke-opacity:1;stroke-dasharray:none;stroke-dashoffset:0" />
    <path
       d="M 419.93835,396.45972 C 420.11855,392.78157 416.62023,390.27538 415.41124,386.99498 412.51247,383.18403 416.39708,375.62709 421.14177,379.28853 424.96143,382.98638 427.72461,388.6469 433.45334,389.63605 441.49615,393.0863 449.73674,396.24144 458.4426,397.50978 466.30697,398.83156 474.62003,399.9024 482.33672,397.27435 490.66276,394.82598 498.65376,391.26339 506.25645,387.11142 510.01458,384.51782 513.16781,379.41712 518.38069,380.32123 522.53804,380.40333 525.12412,388.24485 521.16595,389.35571"
       inkscape:connector-curvature="0"
       id="path3199"
       style="fill:none;stroke:#0000e9;stroke-width:1;stroke-miterlimit:4;stroke-opacity:1;stroke-dasharray:none;stroke-dashoffset:0" />
    <path
       d="M 439.56295,318.3288 C 442.13612,319.39733 444.6911,320.17966 447.36665,320.8705 452.05456,323.40229 455.37999,329.15981 454.52462,334.52697 453.65144,337.74869 450.18381,339.66717 446.95448,338.92343 441.62879,338.87193 435.16952,336.76499 433.68269,331.00981 432.32509,326.19384 435.39435,321.36413 438.93096,318.41123 439.12469,318.30387 439.34932,318.29692 439.56295,318.32883 z"
       inkscape:connector-curvature="0"
       id="path4264"
       style="fill:#bfb879;stroke:none" />
    <path
       d="M 446.03397,303.29843 C 454.33483,305.5722 462.80697,307.84183 469.90194,312.94 476.91775,317.19498 484.70719,320.43376 490.34313,326.60524 493.31526,329.43627 496.7029,332.80703 496.02987,337.31597 495.90564,345.26123 494.3038,353.57627 489.017,359.77112 486.36815,363.06693 483.26574,367.58829 478.34789,366.73098 469.47901,365.70984 462.07578,360.05102 453.30186,358.66624 443.96554,356.33481 435.63731,351.26621 427.37653,346.47983 420.83832,342.18508 419.60842,332.98094 421.72697,325.94333 422.69226,323.47412 423.27898,320.08834 425.79656,318.75471 427.60202,319.16311 426.35926,321.80379 427.63757,322.89012 428.85895,324.50974 430.39633,322.00958 430.60518,320.85676 432.33145,315.54843 431.43314,309.63849 433.0507,304.32885 437.01938,302.95814 441.86304,303.71071 446.03397,303.29843 z M 439.41182,317.98533 C 436.83817,318.02793 435.81712,321.1986 434.45207,322.9176 431.40549,327.98464 433.12434,335.73708 439.05461,337.75562 442.92642,339.33317 447.44611,339.83205 451.5158,338.99212 454.41065,337.27932 456.0246,333.74212 454.88183,330.48773 453.62772,325.72204 450.56365,320.2985 445.16842,319.77138 443.09805,319.53308 441.4989,318.00752 439.41182,317.98533 z"
       inkscape:connector-curvature="0"
       id="path4266"
       style="fill:#8a7294;stroke:none" />
    <path
       d="M 531.50373,386.56997 C 534.01157,387.47032 535.91683,389.69243 538.49684,390.60921 540.22518,391.42846 542.01832,392.48414 541.75654,394.7249 541.84744,397.15301 543.18566,399.89604 542.34046,402.12153 532.23142,413.50284 522.02672,424.95428 510.20842,434.57372 504.73645,438.89936 497.54295,439.76797 490.89152,440.87988 481.9226,441.19528 472.70586,440.62543 464.45463,436.79622 459.47118,434.41932 454.20289,432.56768 448.60315,432.34801 438.83797,430.86536 428.45211,429.74831 420.03996,424.22832 416.40689,421.19043 413.94569,416.82285 411.78287,412.66016 410.49495,408.34189 412.42804,403.64654 414.73674,400.00662 416.23596,397.6189 418.73122,395.32991 421.7848,396.2559 428.52343,398.08239 433.77618,403.17288 440.36657,405.46671 449.24709,408.57379 458.48182,410.73636 467.70999,412.44445 477.44779,413.64988 487.61475,412.70087 496.81299,409.36282 507.16824,404.76992 513.75094,395.14269 522.83448,388.79567 525.41699,387.2134 528.48138,386.47587 531.50373,386.56997 z"
       inkscape:connector-curvature="0"
       id="path3242"
       style="fill:#c7a1db;stroke:none" />
    <path
       d="M 392.68035,344.14195 371.13774,344.5816"
       inkscape:connector-curvature="0"
       id="path3244"
       style="fill:#c7a1db;fill-opacity:1;stroke:#0000e9;stroke-width:1;stroke-miterlimit:4;stroke-opacity:1;stroke-dasharray:none;stroke-dashoffset:0" />
    <path
       d="M 391.83397,344.43273 C 396.96929,355.20776 402.66502,365.70588 408.8977,375.82614 410.43698,379.16866 411.99722,383.4847 410.1342,386.98213 408.44321,389.28051 405.60102,391.06485 402.7978,391.44366 396.58724,390.96268 390.07665,392.01067 384.07149,390.07339 379.59618,387.84319 374.60056,385.81179 371.32178,381.95369 371.32178,369.69858 371.32178,357.44348 371.32178,345.18837 373.24509,344.00055 376.40671,345.04605 378.78201,344.69377 383.0892,344.82594 387.52393,344.24587 391.72369,344.37146 L 391.83397,344.43276 z"
       inkscape:connector-curvature="0"
       id="path3246"
       style="fill:#6ea26f;stroke:none" />
    <path
       d="M 372.14612,278.45848 C 374.04834,280.89501 373.40527,284.53617 374.25212,287.42395 377.21036,306.66202 383.39066,325.3226 391.21572,343.10005 390.38559,344.60098 387.93852,343.59301 386.5172,344.01956 381.5479,344.03306 376.47586,344.52556 371.56908,344.18543 370.64895,323.84893 370.84882,303.41023 371.0072,283.0338 371.39967,281.84738 370.37987,278.58994 372.14612,278.45848 z"
       inkscape:connector-curvature="0"
       id="path3248"
       style="fill:#92a96a;stroke:none" />
    <path
       d="M 429.32746,201.49311 C 430.57832,202.83344 429.48645,205.25341 429.79458,206.96119 429.60537,216.28727 428.27327,225.52376 427.63725,234.80974 426.84981,248.30669 429.67508,261.61262 430.65055,275.02141 432.01105,286.63733 433.39002,298.38447 431.7158,310.05275 431.06111,314.19773 431.47793,318.82802 429.28624,322.54664 427.47245,323.07943 427.20332,320.14477 427.17045,318.89209 426.48309,303.44289 424.80125,288.01729 422.34839,272.75015 420.67834,263.17182 418.55692,253.15944 411.74165,245.78735 406.53057,239.42107 399.76466,234.25786 395.52974,227.17113 395.65316,225.45009 398.59686,225.49975 399.6673,224.437 409.44633,219.81284 418.29562,213.02948 425.08658,204.57163 426.33287,203.52684 427.58752,201.56915 429.32746,201.49311 z"
       inkscape:connector-curvature="0"
       id="path3256"
       style="fill:#a7b0c5;stroke:none" />
    <path
       d="M 370.12529,138.66698 C 388.59929,147.52055 406.8495,156.88666 425.20863,165.99492 425.91862,167.1726 423.86036,167.96433 423.4891,169.05511 419.18659,175.57289 414.52778,181.98119 408.62857,187.20052 402.82926,192.42974 396.05181,196.50176 389.3316,200.38559 383.93147,203.38741 377.42611,205.26002 371.29107,203.62064 369.42765,203.01976 370.94229,200.71893 370.98561,199.44011 371.38888,196.94517 372.73466,193.9826 371.2425,191.63248 370.3556,190.62997 368.42071,190.43902 369.03705,188.65005 369.19844,172.14807 369.20339,155.64146 369.53268,139.14301 369.56678,138.78443 369.83606,138.67729 370.12529,138.66698 z"
       inkscape:connector-curvature="0"
       id="path6135"
       style="fill:#6a72bc;stroke:none" />
    <path
       d="M 377.79032,88.664508 C 395.43955,112.97118 413.10037,137.2867 430.64897,161.66209 431.72299,163.36057 428.86645,163.8256 428.04538,164.72228 427.00943,165.51198 425.76578,166.42871 424.58321,165.36004 406.26205,156.27173 387.98414,147.09655 369.68812,137.95779 369.05789,135.05862 369.59412,131.83236 369.4161,128.80638 369.481,118.40038 369.28641,107.95357 369.5133,97.57305 371.95761,94.468769 374.22951,91.043643 377.26577,88.538215 377.45658,88.461785 377.61813,88.598065 377.79037,88.664508 z"
       inkscape:connector-curvature="0"
       id="path6137"
       style="fill:#746bdb;stroke:none" />
    <path
       d="M 416.86356,73.684168 C 425.3842,74.792519 433.73856,77.006021 442.14452,78.810521 444.59066,79.484815 447.24141,79.78448 449.50554,80.882892 445.36115,107.25504 440.05685,133.49277 436.20588,159.93284 436.45311,161.68568 434.62648,162.18703 433.25255,162.3227 431.23676,162.96649 430.70091,160.14856 429.51233,159.10708 412.39301,135.7404 395.26422,112.37201 378.4315,88.800516 377.70995,87.109505 380.08051,86.183343 381.03509,85.196297 391.23571,77.51518 404.10055,74.221041 416.73695,73.678542 L 1156.8636,73.684142 z"
       inkscape:connector-curvature="0"
       id="path6139"
       style="fill:#b1daa9;stroke:none" />
    <path
       d="M 633.58302,216.67744 C 635.09324,217.40177 634.59721,219.67563 635.06579,221.03234 636.62506,231.63023 637.80573,242.33463 638.1971,253.02286 637.22861,256.76559 636.70456,260.71943 635.44828,264.3289 612.24604,265.246 589.01378,265.81974 565.80233,266.67019 564.3405,265.71304 563.31996,264.06131 561.75122,263.1534 560.49415,261.98242 558.83587,261.50383 557.58354,260.54982 557.43381,253.38552 556.08296,246.34976 554.57193,239.39082 555.01683,237.96851 557.15855,238.10346 558.29854,237.49285 583.12675,230.29417 608.12448,223.56341 633.05842,216.70658 633.22999,216.66988 633.40856,216.65288 633.58302,216.67748 z"
       inkscape:connector-curvature="0"
       id="path6143"
       style="fill:#e19179;stroke:none" />
    <path
       d="M 558.72018,261.69617 C 566.29297,265.53226 570.1785,274.03489 570.81503,282.19085 571.81004,293.83747 568.98269,306.10508 561.66379,315.30286 559.1977,318.07904 555.9603,321.08236 552.0072,321.03464 550.85023,320.06889 552.42989,318.38515 552.53181,317.20698 556.40507,304.61037 556.73572,291.2675 557.53019,278.19251 557.9391,272.79899 557.53919,267.34694 558.06929,261.9779 558.16569,261.73299 558.49691,261.7018 558.72018,261.69617 z"
       inkscape:connector-curvature="0"
       id="path6145"
       style="fill:#c7afc8;stroke:none" />
    <path
       d="M 635.23455,264.85351 C 635.17105,267.97497 633.95953,271.11077 633.38808,274.22715 628.87801,293.49449 624.26181,312.8969 616.11567,330.99239 615.11697,333.1163 614.19095,335.50393 612.90005,337.36535 611.62,337.94612 610.15045,336.58197 608.81525,336.4666 591.89362,330.8949 574.63436,326.32012 557.73898,320.71405 557.03527,319.39247 559.13879,318.64982 559.82768,317.82873 565.99152,311.96598 569.04294,303.48513 570.66199,295.29986 571.56138,289.60152 571.60918,283.68578 570.56172,278.00547 569.77893,274.25535 568.10655,270.72477 566.28842,267.439 567.28519,266.39967 569.3678,267.00362 570.77538,266.73213 592.12874,265.94521 613.49531,265.54912 634.84595,264.68835 L 635.13206,264.80995 635.23455,264.85355 z"
       inkscape:connector-curvature="0"
       id="path6147"
       style="fill:#cda392;stroke:none" />
    <path
       d="M 560.25708,321.89823 C 577.44792,327.40247 594.9636,331.99883 612.08217,337.77482 613.10704,338.14509 612.19728,339.19158 611.91991,339.77792 606.20814,350.02388 598.90303,359.50539 589.53504,366.6656 585.78409,369.55638 581.75722,372.18888 577.27901,373.81412 568.53215,377.22857 559.48044,379.98354 551.28686,384.6645 547.97154,386.36227 544.93639,388.57204 541.59966,390.21324 541.02892,390.15064 541.37624,391.03616 540.73017,391.005 539.26996,390.74551 538.00699,389.76527 536.65478,389.18832 534.05252,388.03064 531.89617,386.08036 530.29154,383.73827 528.49357,381.07463 526.57711,378.296 525.99756,375.07746 525.3852,371.86146 526.67149,368.54332 528.94906,366.26321 533.20529,361.53187 538.77348,358.15623 543.15404,353.58815 547.03989,349.19103 549.75351,343.88532 552.59773,338.75625 554.10883,335.83343 555.38613,332.7659 556.95254,329.84022 558.11575,327.428 559.37423,325.00627 559.62075,322.30625 559.68205,322.01802 559.98102,321.84872 560.25708,321.89823 z"
       inkscape:connector-curvature="0"
       id="path6149"
       style="fill:#d5be93;stroke:none" />
    <path
       d="M 418.77717,378.47214 C 421.13106,378.71383 422.38142,381.08613 423.93046,382.5889 426.42164,385.43973 429.00166,388.76579 432.88703,389.64187 440.37853,392.55086 447.85774,395.70868 455.81297,397.14741 464.07741,398.52737 472.70478,400.11001 480.93141,397.77347 489.56677,395.34204 497.88526,391.75522 505.75134,387.44365 509.17374,385.5526 511.44565,381.92083 515.23806,380.6841 517.35979,380.1312 519.98388,380.2092 521.37936,382.17478 522.65879,383.79173 523.62052,386.35078 522.38917,388.22677 520.05993,390.09446 517.7367,391.94867 515.65848,394.12388 509.61258,400.05361 503.38658,406.2927 495.43342,409.54955 490.40983,411.25364 485.10466,412.00317 479.84292,412.60223 469.6996,413.58594 459.7779,410.53102 450.05459,408.08382 445.01294,406.76044 439.9279,405.39056 435.40125,402.72132 431.0405,400.5067 427.09255,397.31088 422.41112,395.83812 421.46191,395.60848 419.8916,395.92412 419.80759,394.55353 418.52462,390.74004 414.86722,387.91966 414.55933,383.74101 414.62753,381.46998 416.17166,378.38706 418.77717,378.47214 z"
       inkscape:connector-curvature="0"
       id="path8924"
       style="fill:#aac7db;stroke:none" />
    <path
       d="M 540.01772,111.1573 C 547.39,113.95006 554.48742,117.43483 561.66824,120.69776 571.52848,125.30277 581.23938,130.34597 590.21998,136.49234 605.56569,147.72978 617.12325,163.60954 624.3046,181.15394 628.80979,191.97137 631.89082,203.36542 633.98981,214.8877 634.4442,216.41409 632.37962,216.33043 631.45605,216.71999 605.84185,223.90064 580.18746,230.9414 554.54918,238.03717 553.2999,237.53899 553.42938,235.54198 552.75102,234.44085 550.40734,227.09181 545.6661,220.87871 540.73182,215.08596 534.17744,207.73573 526.72142,201.05697 517.72756,196.79157 512.51832,194.14246 507.2395,191.51553 502.24694,188.52543 502.20244,187.20638 503.37008,185.91078 503.81332,184.61138 515.65217,160.20096 527.51415,135.7947 539.42564,111.42776 539.61312,111.23654 539.74354,111.125 540.01772,111.1573 z"
       inkscape:connector-curvature="0"
       id="path5932"
       style="fill:#bf9784;stroke:none" />
    <path
       d="M 450.62143,80.924839 C 458.70346,82.718961 466.61656,85.313506 474.55454,87.640151 487.04055,91.389648 499.43044,95.496606 511.65651,99.99556 512.33944,100.95567 511.05888,102.1351 510.92602,103.16452 501.43178,127.66746 491.55638,152.0293 482.29416,176.61768 481.79601,177.24754 482.23466,178.16108 481.66526,178.6833 480.13359,178.6096 478.78097,177.41506 477.32418,176.93416 466.93154,172.10224 456.67821,166.91045 446.03101,162.72646 442.94601,161.53724 439.58227,161.94254 436.38235,161.42536 435.77043,160.77962 436.6732,159.64989 436.61372,158.72863 440.35018,133.78287 445.23774,108.97416 449.35835,84.067875 449.72114,83.0738 449.39935,81.673219 450.22671,80.939459 450.35626,80.907779 450.49011,80.916189 450.62143,80.924839 z"
       inkscape:connector-curvature="0"
       id="path5996"
       style="fill:#dbc198;stroke:none" />
    <path
       d="M 512.97954,100.68266 C 518.84208,102.36711 524.43629,104.90379 530.14035,107.06309 532.95349,108.26145 535.90278,109.24262 538.62889,110.61639 539.10932,111.7541 537.93521,112.93238 537.65672,114.01535 528.47298,133.59075 518.86671,152.97754 509.44563,172.43524 506.94332,177.56272 504.45373,182.69874 501.92744,187.81298 500.89255,188.49664 499.77661,187.00444 498.73315,186.7604 493.54789,183.85891 487.92436,181.88508 482.58627,179.33385 481.87766,179.1009 480.97981,178.13882 481.86262,177.543 492.14329,152.10714 501.96573,126.43764 512.21934,100.97505 512.40191,100.70607 512.67551,100.61638 512.97954,100.68266 z"
       inkscape:connector-curvature="0"
       id="path6014"
       style="fill:#736cd4;stroke:none" />
  </g>
</svg>
