<?xml version="1.0" encoding="UTF-8" standalone="no"?>
<!-- Created with Inkscape (http://www.inkscape.org/) -->

<svg
   xmlns:dc="http://purl.org/dc/elements/1.1/"
   xmlns:cc="http://creativecommons.org/ns#"
   xmlns:rdf="http://www.w3.org/1999/02/22-rdf-syntax-ns#"
   xmlns:svg="http://www.w3.org/2000/svg"
   xmlns="http://www.w3.org/2000/svg"
   xmlns:xlink="http://www.w3.org/1999/xlink"
   xmlns:inkscape="http://www.inkscape.org/namespaces/inkscape"
   version="1.1"
   width="740"
   height="520"
   id="svg2"
   style="display:inline;enable-background:new">
  <defs
     id="defs4">
    <filter
       color-interpolation-filters="sRGB"
       id="filter3050">
      <feBlend
         in2="BackgroundImage"
         mode="lighten"
         id="feBlend3052" />
    </filter>
  </defs>
  <metadata
     id="metadata7">
    <rdf:RDF>
      <cc:Work
         rdf:about="">
        <dc:format>image/svg+xml</dc:format>
        <dc:type
           rdf:resource="http://purl.org/dc/dcmitype/StillImage" />
        <dc:title />
      </cc:Work>
    </rdf:RDF>
  </metadata>
  <g
     id="g3371"
     style="display:none">
    <image
       xlink:href="pngs/coronal-0589.png"
       id="image3373"
       height="520"
       width="740"
       y="0"
       x="0" />
  </g>
  <g
     id="g3379"
     style="display:inline">
    <path
       d="M 368.19225,394.40608 C 374.5466,415.6465 400.14874,415.26273 418.2948,417.75493 433.67767,420.21806 450.68982,413.43165 464.56382,422.38492 477.79859,432.71345 496.64815,437.9905 512.85491,434.20389 526.85802,422.03722 538.00857,446.33295 554.81501,437.70513 572.10536,437.36502 585.98641,424.40502 595.4673,411.14405 604.53466,396.20725 614.39612,381.53441 624.43022,367.20011 635.26861,352.46799 645.46988,336.99937 657.09329,322.86102 665.1069,308.89404 674.85042,294.4069 675.02616,277.67657 678.82408,254.02578 674.2429,229.90141 668.35635,207.03042 658.76504,186.51569 647.86422,166.41306 634.06219,148.31192 616.7155,122.14749 589.98598,103.4072 561.85923,90.327144 531.4995,73.984817 497.08829,66.597365 463.04728,62.77539 439.53046,61.355107 416.01495,58.386968 392.4947,61.647341 369.42402,64.656318 363.90839,87.711938 366.30964,107.53738 367.84809,125.32637 369.67909,143.49024 374.40977,160.62729 383.11857,172.88994 403.28323,161.15888 412.78317,154.12504 419.79976,133.50819 440.05378,143.56418 454.97795,147.65875 468.75805,152.65012 483.03041,156.25626 496.83557,161.09091 515.30185,169.21604 534.65086,175.79957 551.56034,186.96395 562.46171,195.4895 576.76048,214.82155 581.25151,221.05118 579.323,215.76336 590.66614,235.11796 593.23963,240.50382 602.61304,254.91185 607.3553,272.02669 601.65937,288.94862 600.058,311.73324 593.46146,337.64658 575.2357,352.74869 M 360.73122,248.91609 C 378.46967,252.58511 398.48966,247.99556 416.73337,250.54253 432.67125,259.6338 456.2066,252.54058 452.78706,231.0264 451.02213,212.35262 429.22164,208.00809 414.25746,204.06036 398.33447,203.03109 383.29887,196.14524 375.51014,181.53913 378.39755,171.3175 403.26917,172.8003 414.40583,166.29665 430.61046,156.04975 450.62306,158.63359 467.20761,166.60384 484.59392,170.92822 503.22506,170.72107 519.89976,178.6581 537.91073,186.50609 556.57828,196.43986 568.65312,212.71935 582.16723,226.76083 596.32136,242.16635 600.41173,261.89255 605.03959,283.18641 597.08837,304.51747 589.53599,324.14809 585.84861,341.15985 570.82082,357.47887 552.02753,355.1783 543.06408,356.70406 517.17201,339.62736 518.40596,354.54296 528.64026,371.06973 551.13506,363.514 566.22029,358.65533 567.35848,359.6244 579.86405,350.48015 573.37044,353.68131"
       inkscape:connector-curvature="0"
       id="path3381"
       style="fill:none;stroke:#e20000;stroke-opacity:1" />
    <path
       d="M 403.01036,247.67258 C 403.83937,248.08708 404.75589,248.35997 405.49737,248.91609 405.82897,249.16479 405.312,249.78885 405.49737,250.15959 405.57827,250.32146 406.60517,250.91706 406.11913,251.4031 405.97258,251.54964 405.64392,251.25655 405.49737,251.4031 405.20428,251.69619 405.79047,252.3535 405.49737,252.6466 405.35082,252.79315 405.02217,252.50005 404.87562,252.6466 404.72907,252.79315 405.02217,253.1218 404.87562,253.26835 404.54793,253.59604 404.07176,253.74356 403.63212,253.8901 403.4355,253.9556 403.15691,253.74356 403.01036,253.8901 403.01036,255.54811 403.21762,253.68285 402.38861,254.51186 402.24206,254.6584 402.53516,254.98706 402.38861,255.13361 402.09552,255.4267 401.43821,254.84051 401.14511,255.13361 400.99856,255.28016 401.29166,255.60881 401.14511,255.75536 400.99856,255.90191 400.6699,255.60881 400.52336,255.75536 400.37681,255.90191 400.6699,256.23056 400.52336,256.37711 400.23026,256.67021 399.57295,256.08402 399.27985,256.37711 399.1333,256.52366 399.4264,256.85232 399.27985,256.99886 398.98676,257.29196 398.32944,256.70577 398.03635,256.99886 397.8898,257.14541 398.12905,257.43525 398.03635,257.62062 397.90527,257.88277 397.54567,257.98021 397.4146,258.24237 397.3219,258.42774 397.5073,258.67875 397.4146,258.86412 397.28352,259.12627 396.92392,259.22372 396.79284,259.48587 396.70014,259.67124 396.93939,259.96108 396.79284,260.10762 396.6463,260.25417 396.31764,259.96108 396.17109,260.10762 395.878,260.40072 396.35646,260.98039 396.17109,261.35113 396.04002,261.61328 395.68042,261.71073 395.54934,261.97288 395.21047,262.65063 395.54934,266.65499 395.54934,267.56865 395.54934,267.7759 395.45664,268.00503 395.54934,268.1904 395.68042,268.45256 396.04002,268.55 396.17109,268.81215 396.43304,269.33604 395.90154,272.27312 396.17109,272.54267 396.31764,272.68921 396.6463,272.39612 396.79284,272.54267 397.08594,272.83576 396.49975,273.49307 396.79284,273.78617 396.93939,273.93272 397.26805,273.63962 397.4146,273.78617 397.91085,274.28243 397.08844,276.24263 397.4146,276.89493 397.98147,278.02868 398.03635,277.31221 398.03635,278.76019 398.03635,279.0162 397.87177,280.46086 398.03635,280.62544 398.1829,280.77199 398.51155,280.4789 398.6581,280.62544 398.9512,280.91854 398.365,281.57585 398.6581,281.86895 398.80465,282.0155 399.1333,281.7224 399.27985,281.86895 399.44443,282.03353 399.27985,283.47819 399.27985,283.7342 399.27985,284.14871 398.98676,284.68461 399.27985,284.97771 399.4264,285.12426 399.75506,284.83116 399.9016,284.97771 400.39786,285.47397 399.57545,287.43416 399.9016,288.08647 400.03268,288.34862 400.39228,288.44607 400.52336,288.70822 400.91738,289.49626 400.52336,291.53832 400.52336,292.43873 400.52336,292.97631 400.57396,297.98394 400.52336,298.0345 400.37681,298.18105 400.04815,297.88795 399.9016,298.0345 399.59073,298.34538 400.21248,299.58888 399.9016,299.89976 399.75506,300.04631 399.4264,299.75321 399.27985,299.89976 399.1333,300.04631 399.37255,300.33614 399.27985,300.52151 399.0177,301.04582 398.2985,301.24071 398.03635,301.76501 397.94365,301.95039 398.1829,302.24022 398.03635,302.38677 397.8898,302.53332 397.56114,302.24022 397.4146,302.38677 397.26805,302.53332 397.56114,302.86197 397.4146,303.00852 397.26805,303.15507 396.93939,302.86197 396.79284,303.00852 396.6463,303.15507 396.93939,303.48372 396.79284,303.63027 396.6463,303.77682 396.31764,303.48372 396.17109,303.63027 396.02454,303.77682 396.26379,304.06665 396.17109,304.25202 395.90894,304.77633 395.4519,305.23337 394.92759,305.49553 394.74222,305.58823 394.45238,305.34898 394.30584,305.49553 394.01274,305.78862 394.49121,306.36829 394.30584,306.73903 394.04368,307.26334 393.32449,307.45823 393.06233,307.98254 392.87463,308.35793 393.34975,309.56038 393.06233,309.84779 392.91578,309.99434 392.58713,309.70124 392.44058,309.84779 392.15317,310.13521 392.62828,311.33765 392.44058,311.71305 392.3095,311.9752 391.9499,312.07265 391.81883,312.3348 391.63346,312.70554 392.11192,313.28521 391.81883,313.5783 391.22205,314.17508 391.19708,313.02294 391.19708,314.82181 391.19708,315.72222 391.5911,317.76428 391.19708,318.55232 390.9443,319.05788 390.21079,319.06677 390.57532,319.79583 390.7064,320.05798 391.066,320.15542 391.19708,320.41758 391.45591,320.93524 390.80269,322.5102 391.19708,322.90459 391.34362,323.05113 391.67228,322.75804 391.81883,322.90459 392.1297,323.21546 391.50795,324.45897 391.81883,324.76984 391.96538,324.91639 392.23333,324.76984 392.44058,324.76984 392.44058,324.97709 392.29403,325.24505 392.44058,325.39159 392.58713,325.53814 392.91578,325.24505 393.06233,325.39159 393.20888,325.53814 392.91578,325.8668 393.06233,326.01335 393.35543,326.30644 394.01274,325.72025 394.30584,326.01335 394.45238,326.15989 394.15929,326.48855 394.30584,326.6351 394.59893,326.9282 395.25624,326.342 395.54934,326.6351 395.69589,326.78165 395.40279,327.1103 395.54934,327.25685 395.73068,327.43819 399.09851,327.43819 399.27985,327.25685 399.4264,327.1103 399.1333,326.78165 399.27985,326.6351 399.59073,326.32422 400.83423,326.94597 401.14511,326.6351 401.29166,326.48855 400.99856,326.15989 401.14511,326.01335 401.29166,325.8668 401.62031,326.15989 401.76686,326.01335 401.91341,325.8668 401.62031,325.53814 401.76686,325.39159 401.91341,325.24505 402.24206,325.53814 402.38861,325.39159 402.68171,325.0985 402.09552,324.44119 402.38861,324.14809 402.53516,324.00154 402.86382,324.29464 403.01036,324.14809 403.15691,324.00154 402.86382,323.67289 403.01036,323.52634 403.15691,323.37979 403.44675,323.61904 403.63212,323.52634 406.2197,322.23255 402.96744,323.56924 404.25387,322.28283 404.40042,322.13629 404.72907,322.42938 404.87562,322.28283 405.02217,322.13629 404.78292,321.84645 404.87562,321.66108 405.0067,321.39893 405.3663,321.30148 405.49737,321.03933 405.8914,320.25129 405.49737,318.20923 405.49737,317.30882 405.49737,315.65081 405.29012,317.51607 406.11913,316.68707 406.26567,316.54052 406.11913,316.27256 406.11913,316.06531 406.11913,315.85806 406.26567,315.59011 406.11913,315.44356 405.84279,315.16723 404.9447,315.92715 405.49737,314.82181 405.62845,314.55966 405.98805,314.46221 406.11913,314.20006 406.30682,313.82466 405.83171,312.62221 406.11913,312.3348 407.40555,311.04837 406.06883,314.30063 407.36263,311.71305 407.45533,311.52768 407.26993,311.27667 407.36263,311.0913 407.49371,310.82914 407.8533,310.7317 407.98438,310.46954 408.07708,310.28417 407.83783,309.99434 407.98438,309.84779 408.13093,309.70124 408.45959,309.99434 408.60613,309.84779 408.89923,309.5547 408.31304,308.89738 408.60613,308.60429 408.75268,308.45774 409.08134,308.75084 409.22789,308.60429 409.37443,308.45774 409.08134,308.12908 409.22789,307.98254 409.37443,307.83599 409.70309,308.12908 409.84964,307.98254 410.14273,307.68944 409.66427,307.10977 409.84964,306.73903 411.91173,304.67694 409.55654,307.32523 410.47139,305.49553 410.73354,304.97122 411.45274,304.77633 411.71489,304.25202 411.80759,304.06665 411.62219,303.81564 411.71489,303.63027 411.97705,303.10596 412.69624,302.91107 412.9584,302.38677 413.0511,302.2014 412.81185,301.91156 412.9584,301.76501 413.10495,301.61847 413.4336,301.91156 413.58015,301.76501 413.87325,301.47192 413.28705,300.81461 413.58015,300.52151 413.7267,300.37496 414.05535,300.66806 414.2019,300.52151 414.34845,300.37496 414.05535,300.04631 414.2019,299.89976 414.34845,299.75321 414.6164,299.89976 414.82365,299.89976 414.82365,299.69251 414.67711,299.42455 414.82365,299.27801 414.9702,299.13146 415.29886,299.42455 415.44541,299.27801 415.59196,299.13146 415.35271,298.84163 415.44541,298.65625 415.57648,298.3941 415.93608,298.29666 416.06716,298.0345 416.15986,297.84913 415.92061,297.5593 416.06716,297.41275 416.21371,297.2662 416.54236,297.5593 416.68891,297.41275 416.83546,297.2662 416.59621,296.97637 416.68891,296.791 416.81999,296.52884 417.17959,296.4314 417.31066,296.16925 417.40336,295.98388 417.21796,295.73286 417.31066,295.54749 417.67279,294.82323 418.19204,294.4065 418.55417,293.68224 418.73954,293.3115 418.3688,292.80947 418.55417,292.43873 418.68524,292.17658 419.04484,292.07914 419.17592,291.81698 419.36129,291.44624 418.88282,290.86657 419.17592,290.57348 419.32247,290.42693 419.65112,290.72003 419.79767,290.57348 420.09077,290.28038 419.50457,289.62307 419.79767,289.32997 419.94422,289.18342 420.27288,289.47652 420.41942,289.32997 420.70684,289.04256 420.23172,287.84011 420.41942,287.46472 420.5505,287.20256 420.9101,287.10512 421.04118,286.84296 421.7051,285.51512 420.37725,278.22278 421.04118,276.89493 421.17225,276.63278 421.53185,276.53533 421.66293,276.27318 421.8464,275.90624 421.66293,274.82582 421.66293,274.40792 421.66293,273.60436 421.37794,270.62563 421.66293,270.05566 421.794,269.7935 422.1536,269.69606 422.28468,269.43391 422.61083,268.7816 421.78842,266.8214 422.28468,266.32515 422.43123,266.1786 422.75988,266.47169 422.90643,266.32515 423.32093,265.91064 422.49193,264.25264 422.90643,263.83814 423.05298,263.69159 423.38164,263.98469 423.52818,263.83814 423.8156,263.55072 423.34049,262.34828 423.52818,261.97288 423.65926,261.71073 424.01886,261.61328 424.14994,261.35113 424.24264,261.16576 424.00339,260.87593 424.14994,260.72938 424.29648,260.58283 424.62514,260.87593 424.77169,260.72938 425.06478,260.43628 424.47859,259.77897 424.77169,259.48587 424.91824,259.33932 425.24689,259.63242 425.39344,259.48587 425.68654,259.19278 425.10034,258.53547 425.39344,258.24237 425.53999,258.09582 425.86864,258.38892 426.01519,258.24237 426.32607,257.93149 425.70432,256.68799 426.01519,256.37711 426.16174,256.23056 426.4904,256.52366 426.63694,256.37711 426.93004,256.08402 426.34385,255.4267 426.63694,255.13361 426.78349,254.98706 427.11215,255.28016 427.2587,255.13361 427.55179,254.84051 426.9656,254.1832 427.2587,253.8901 427.40524,253.74356 427.7339,254.03665 427.88045,253.8901 428.027,253.74356 427.7339,253.4149 427.88045,253.26835 428.027,253.1218 428.35565,253.4149 428.5022,253.26835 428.7953,252.97525 428.2091,252.31794 428.5022,252.02485 430.16021,252.02485 428.29495,252.2321 429.12395,251.4031 429.2705,251.25655 429.59916,251.54964 429.7457,251.4031 430.61839,250.53041 428.39255,249.42819 429.7457,250.78134 430.38632,251.42196 430.65925,250.15959 430.36746,250.15959 430.16021,250.15959 430.16021,250.78134 430.36746,250.78134 430.57471,250.78134 430.57471,250.15959 430.36746,250.15959 430.16021,250.15959 430.51401,250.63479 430.36746,250.78134 430.22091,250.92789 429.89225,250.63479 429.7457,250.78134 429.6908,250.83624 429.7457,253.18301 429.7457,251.4031"
       inkscape:connector-curvature="0"
       id="path3383"
       style="opacity:0.6;fill:none;stroke:#e20000;stroke-opacity:1" />
    <path
       d="M 401.14511,170.57532 C 401.97411,171.40433 402.80311,173.89133 403.63212,173.06233 404.46112,172.23333 401.14511,169.40294 401.14511,170.57532 401.14511,175.63649 403.28348,172.36505 404.25387,174.30584 404.34657,174.49121 404.10732,174.78104 404.25387,174.92759 405.5403,176.21401 404.20357,172.96176 405.49737,175.54934 405.59007,175.73471 405.35082,176.02454 405.49737,176.17109 405.64392,176.31764 405.97258,176.02454 406.11913,176.17109 406.26567,176.31764 406.02643,176.60747 406.11913,176.79284 406.38128,177.31715 407.10048,177.51204 407.36263,178.03635 407.45533,178.22172 407.21608,178.51155 407.36263,178.6581 407.50918,178.80465 407.83783,178.51155 407.98438,178.6581 408.13093,178.80465 407.89168,179.09448 407.98438,179.27985 408.11546,179.54201 408.47506,179.63945 408.60613,179.9016 408.69883,180.08698 408.45959,180.37681 408.60613,180.52336 408.75268,180.6699 409.08134,180.37681 409.22789,180.52336 409.37443,180.6699 409.13519,180.95974 409.22789,181.14511 409.59002,181.86937 410.10926,182.2861 410.47139,183.01036 410.56409,183.19574 410.32484,183.48557 410.47139,183.63212 410.61794,183.77867 410.88589,183.63212 411.09314,183.63212 411.09314,183.83937 410.94659,184.10732 411.09314,184.25387 411.23969,184.40042 411.56835,184.10732 411.71489,184.25387 411.86144,184.40042 411.62219,184.69025 411.71489,184.87562 411.84597,185.13777 412.20557,185.23522 412.33665,185.49737 412.42935,185.68274 412.1901,185.97258 412.33665,186.11913 412.48319,186.26567 412.81185,185.97258 412.9584,186.11913 413.10495,186.26567 412.8657,186.55551 412.9584,186.74088 413.08948,187.00303 413.44907,187.10048 413.58015,187.36263 413.76552,187.73337 413.28705,188.31304 413.58015,188.60613 413.7267,188.75268 414.05535,188.45959 414.2019,188.60613 414.495,188.89923 413.90881,189.55654 414.2019,189.84964 414.34845,189.99619 414.67711,189.70309 414.82365,189.84964 414.9702,189.99619 414.67711,190.32484 414.82365,190.47139 414.9702,190.61794 415.29886,190.32484 415.44541,190.47139 415.75628,190.78227 415.13453,192.02577 415.44541,192.33665 415.59196,192.48319 415.92061,192.1901 416.06716,192.33665 416.36026,192.62974 415.77406,193.28705 416.06716,193.58015 416.21371,193.7267 416.54236,193.4336 416.68891,193.58015 417.10341,193.99465 416.27441,195.65266 416.68891,196.06716 416.83546,196.21371 417.16411,195.92061 417.31066,196.06716 417.70505,196.46154 417.05183,198.0365 417.31066,198.55417 418.07896,200.09077 417.93242,198.33955 417.93242,199.79767 417.93242,201.04118 417.93242,202.28468 417.93242,203.52818 417.93242,203.73543 417.72516,204.14994 417.93242,204.14994 418.13967,204.14994 418.07896,203.67473 417.93242,203.52818 417.50812,203.10388 416.68891,204.01019 416.68891,202.28468"
       inkscape:connector-curvature="0"
       id="path3385"
       style="opacity:0.6;fill:none;stroke:#e20000;stroke-opacity:1" />
    <path
       d="M 470.15959,169.95357 C 469.2468,170.63663 470.70843,173.82991 470.15959,174.92759 470.02851,175.18974 469.66892,175.28719 469.53784,175.54934 469.35247,175.92008 469.72321,176.4221 469.53784,176.79284 469.40676,177.055 469.04716,177.15244 468.91609,177.4146 468.66739,177.912 469.16479,178.78245 468.91609,179.27985 468.78501,179.54201 468.42541,179.63945 468.29433,179.9016 468.10896,180.27235 468.47971,180.77437 468.29433,181.14511 468.16326,181.40726 467.80366,181.50471 467.67258,181.76686 467.57988,181.95223 467.76528,182.20324 467.67258,182.38861 467.24293,183.24792 466.42908,183.83525 466.42908,184.87562 466.42908,186.53363 466.63633,184.66837 465.80733,185.49737 465.51423,185.79047 466.10042,186.44778 465.80733,186.74088 465.66078,186.88743 465.33212,186.59433 465.18557,186.74088 465.03903,186.88743 465.33212,187.21608 465.18557,187.36263 465.03903,187.50918 464.71037,187.21608 464.56382,187.36263 464.41727,187.50918 464.65652,187.79901 464.56382,187.98438 464.43275,188.24654 464.07315,188.34398 463.94207,188.60613 463.84937,188.7915 464.08862,189.08134 463.94207,189.22789 463.79552,189.37443 463.50569,189.13519 463.32032,189.22789 462.79601,189.49004 462.60112,190.20924 462.07681,190.47139 461.89144,190.56409 461.60161,190.32484 461.45506,190.47139 461.30851,190.61794 461.54776,190.90777 461.45506,191.09314 460.16127,193.68073 461.49796,190.42847 460.21156,191.71489 460.06501,191.86144 460.35811,192.1901 460.21156,192.33665 460.06501,192.48319 459.73635,192.1901 459.58981,192.33665 459.44326,192.48319 459.73635,192.81185 459.58981,192.9584 459.44326,193.10495 459.1146,192.81185 458.96805,192.9584 458.82151,193.10495 459.1146,193.4336 458.96805,193.58015 458.82151,193.7267 458.53167,193.48745 458.3463,193.58015 458.08415,193.71123 457.9867,194.07083 457.72455,194.2019 457.53918,194.2946 457.24935,194.05535 457.1028,194.2019 456.95625,194.34845 457.24935,194.67711 457.1028,194.82365 456.95625,194.9702 456.62759,194.67711 456.48105,194.82365 456.3345,194.9702 456.62759,195.29886 456.48105,195.44541 456.3345,195.59196 456.00584,195.29886 455.85929,195.44541 455.71274,195.59196 455.95199,195.88179 455.85929,196.06716 455.72822,196.32931 455.36862,196.42676 455.23754,196.68891 455.14484,196.87428 455.38409,197.16411 455.23754,197.31066 455.09099,197.45721 454.76234,197.16411 454.61579,197.31066 454.46924,197.45721 454.70849,197.74704 454.61579,197.93242 454.48471,198.19457 454.12511,198.29201 453.99404,198.55417 453.90134,198.73954 454.08674,198.99055 453.99404,199.17592 453.86296,199.43807 453.50336,199.53552 453.37228,199.79767 453.27958,199.98304 453.51883,200.27288 453.37228,200.41942 453.22574,200.56597 452.89708,200.27288 452.75053,200.41942 452.45744,200.71252 452.9359,201.29219 452.75053,201.66293 452.61946,201.92508 452.25986,202.02253 452.12878,202.28468 451.94341,202.65542 452.42188,203.23509 452.12878,203.52818 451.98223,203.67473 451.65358,203.38164 451.50703,203.52818 451.21393,203.82128 451.6924,204.40095 451.50703,204.77169 451.37595,205.03384 451.01635,205.13129 450.88528,205.39344 450.63658,205.89084 451.13398,206.76129 450.88528,207.2587 450.7542,207.52085 450.3946,207.61829 450.26352,207.88045 450.07815,208.25119 450.44889,208.75321 450.26352,209.12395 450.13245,209.38611 449.77285,209.48355 449.64177,209.7457 449.38294,210.26337 450.03616,211.83833 449.64177,212.23271 449.49522,212.37926 449.16657,212.08616 449.02002,212.23271 448.95332,212.29941 449.02002,218.41119 449.02002,219.07199 449.02002,219.328 448.85544,220.77266 449.02002,220.93724 449.16657,221.08379 449.49522,220.79069 449.64177,220.93724 449.93487,221.23034 449.22727,222.18075 449.64177,222.18075 450.37167,222.18075 449.02002,220.80019 449.02002,221.55899 449.02002,222.24983 449.64177,221.62809 449.64177,220.93724"
       inkscape:connector-curvature="0"
       id="path3387"
       style="opacity:0.6;fill:none;stroke:#e20000;stroke-opacity:1" />
    <path
       d="M 453.37228,319.17407 C 453.37228,325.37076 452.78609,319.86694 453.99404,322.28283 454.08674,322.4682 453.90134,322.71922 453.99404,322.90459 454.12511,323.16674 454.48471,323.26418 454.61579,323.52634 454.80116,323.89708 454.32269,324.47675 454.61579,324.76984 454.76234,324.91639 455.09099,324.62329 455.23754,324.76984 455.38409,324.91639 455.14484,325.20622 455.23754,325.39159 455.28794,325.49234 456.40187,327.21726 456.48105,327.25685 456.66642,327.34955 456.95625,327.1103 457.1028,327.25685 457.24935,327.4034 456.95625,327.73205 457.1028,327.8786 457.24935,328.02515 457.578,327.73205 457.72455,327.8786 457.8711,328.02515 457.578,328.35381 457.72455,328.50035 457.90589,328.68169 461.27372,328.68169 461.45506,328.50035 461.60161,328.35381 461.30851,328.02515 461.45506,327.8786 461.60161,327.73205 461.93027,328.02515 462.07681,327.8786 462.36423,327.59119 461.88912,326.38874 462.07681,326.01335 462.20789,325.75119 462.56749,325.65375 462.69857,325.39159 463.11307,324.56259 462.28406,323.11184 462.69857,322.28283 462.82964,322.02068 463.18924,321.92324 463.32032,321.66108 463.98352,320.33468 462.65712,318.01347 463.32032,316.68707 463.45139,316.42491 463.81099,316.32747 463.94207,316.06531 464.03767,315.874 464.03767,314.39137 463.94207,314.20006 463.81099,313.9379 463.45139,313.84046 463.32032,313.5783 462.99289,312.92345 463.32032,309.52646 463.32032,308.60429 463.32032,308.39704 463.17377,308.12908 463.32032,307.98254 463.46687,307.83599 463.79552,308.12908 463.94207,307.98254 464.4602,307.46441 463.42394,305.3919 463.94207,304.87378 464.08862,304.72723 464.41727,305.02032 464.56382,304.87378 464.95821,304.47939 464.30499,302.90443 464.56382,302.38677 464.6949,302.12461 465.0545,302.02717 465.18557,301.76501 465.37327,301.38962 464.89816,300.18717 465.18557,299.89976 465.33212,299.75321 465.66078,300.04631 465.80733,299.89976 466.12903,299.57806 465.49781,296.16652 465.80733,295.54749 465.9384,295.28534 466.298,295.1879 466.42908,294.92574 466.68791,294.40808 466.03469,292.83312 466.42908,292.43873 466.57563,292.29219 466.90428,292.58528 467.05083,292.43873 467.54709,291.94248 466.72468,289.98228 467.05083,289.32997 467.18191,289.06782 467.54151,288.97037 467.67258,288.70822 467.93453,288.18433 467.40303,285.24726 467.67258,284.97771 467.81913,284.83116 468.14779,285.12426 468.29433,284.97771 468.58743,284.68461 468.00124,284.0273 468.29433,283.7342 468.44088,283.58766 468.76954,283.88075 468.91609,283.7342 469.20918,283.44111 468.62299,282.7838 468.91609,282.4907 469.06264,282.34415 469.39129,282.63725 469.53784,282.4907 469.83094,282.1976 469.53784,281.6617 469.53784,281.2472 469.53784,279.58919 469.33059,281.45445 470.15959,280.62544 470.45269,280.33235 469.86649,279.67504 470.15959,279.38194 470.30614,279.23539 470.63479,279.52849 470.78134,279.38194 471.07444,279.08884 470.59597,278.50918 470.78134,278.13844 470.91242,277.87628 471.27202,277.77884 471.4031,277.51668 471.4958,277.33131 471.25655,277.04148 471.4031,276.89493 471.54964,276.74838 471.8783,277.04148 472.02485,276.89493 472.31794,276.60183 471.83948,276.02217 472.02485,275.65143 472.15592,275.38927 472.51552,275.29183 472.6466,275.02967 472.7393,274.8443 472.50005,274.55447 472.6466,274.40792 472.79315,274.26137 473.1218,274.55447 473.26835,274.40792 473.4149,274.26137 473.17565,273.97154 473.26835,273.78617 473.53051,273.26186 474.2497,273.06697 474.51186,272.54267 474.60456,272.3573 474.36531,272.06746 474.51186,271.92091 475.79828,270.63449 474.46156,273.88675 475.75536,271.29916 475.84806,271.11379 475.60881,270.82396 475.75536,270.67741 475.90191,270.53086 476.19174,270.77011 476.37711,270.67741 476.63927,270.54633 476.73671,270.18673 476.99886,270.05566 477.18423,269.96296 477.47407,270.20221 477.62062,270.05566 477.76716,269.90911 477.47407,269.58045 477.62062,269.43391 477.76716,269.28736 478.09582,269.58045 478.24237,269.43391 478.38892,269.28736 478.09582,268.9587 478.24237,268.81215 478.38892,268.66561 478.71757,268.9587 478.86412,268.81215 479.01067,268.66561 478.71757,268.33695 478.86412,268.1904 479.01067,268.04385 479.33932,268.33695 479.48587,268.1904 479.63242,268.04385 479.33932,267.7152 479.48587,267.56865 479.63242,267.4221 479.92225,267.66135 480.10762,267.56865 480.36978,267.43757 480.46722,267.07797 480.72938,266.9469 480.91475,266.8542 481.20458,267.09345 481.35113,266.9469 481.49768,266.80035 481.20458,266.47169 481.35113,266.32515 481.49768,266.1786 481.82633,266.47169 481.97288,266.32515 483.25931,265.03872 480.00705,266.37545 482.59463,265.08164 482.78,264.98894 483.06984,265.22819 483.21639,265.08164 483.36293,264.93509 483.06984,264.60644 483.21639,264.45989 483.36293,264.31334 483.65277,264.55259 483.83814,264.45989 484.10029,264.32881 484.19774,263.96921 484.45989,263.83814 484.64526,263.74544 484.93509,263.98469 485.08164,263.83814 485.22819,263.69159 484.93509,263.36293 485.08164,263.21639 485.22819,263.06984 485.55685,263.36293 485.70339,263.21639 485.84994,263.06984 485.55685,262.74118 485.70339,262.59463 485.84994,262.44808 486.1786,262.74118 486.32515,262.59463 486.47169,262.44808 486.1786,262.11943 486.32515,261.97288 486.47169,261.82633 486.80035,262.11943 486.9469,261.97288 487.09345,261.82633 486.80035,261.49768 486.9469,261.35113 487.09345,261.20458 487.4221,261.49768 487.56865,261.35113 487.7152,261.20458 487.47595,260.91475 487.56865,260.72938 487.69973,260.46722 488.05932,260.36978 488.1904,260.10762 488.522,259.44442 487.8588,258.28382 488.1904,257.62062 488.44318,257.11506 489.17668,257.10617 488.81215,256.37711 488.68108,256.11496 488.32148,256.01751 488.1904,255.75536 488.00503,255.38462 488.4835,254.80495 488.1904,254.51186 488.04385,254.36531 487.7152,254.6584 487.56865,254.51186 487.4221,254.36531 487.7152,254.03665 487.56865,253.8901 487.50645,253.8279 485.76557,253.8279 485.70339,253.8901 485.55685,254.03665 485.84994,254.36531 485.70339,254.51186 485.55685,254.6584 485.22819,254.36531 485.08164,254.51186 484.93509,254.6584 485.22819,254.98706 485.08164,255.13361 484.93509,255.28016 484.60644,254.98706 484.45989,255.13361 484.31334,255.28016 484.60644,255.60881 484.45989,255.75536 484.39769,255.81756 482.65681,255.81756 482.59463,255.75536 482.44808,255.60881 482.59463,255.34086 482.59463,255.13361 482.59463,253.67549 482.74118,255.4267 481.97288,253.8901 481.55838,253.0611 482.38738,251.61035 481.97288,250.78134 481.8418,250.51919 481.48221,250.42174 481.35113,250.15959 481.16576,249.78885 481.5365,249.28683 481.35113,248.91609 481.22005,248.65393 480.86045,248.55649 480.72938,248.29433 480.47054,247.77667 481.12376,246.20171 480.72938,245.80733 480.58283,245.66078 480.25417,245.95387 480.10762,245.80733 479.94304,245.64274 480.10762,244.19809 480.10762,243.94207 480.10762,242.49409 480.05272,243.21056 479.48587,242.07681 479.3005,241.70607 479.67124,241.20405 479.48587,240.83331 479.3548,240.57116 478.9952,240.47371 478.86412,240.21156 478.67875,239.84082 479.15722,239.26115 478.86412,238.96805 478.71757,238.82151 478.38892,239.1146 478.24237,238.96805 478.09582,238.82151 478.38892,238.49285 478.24237,238.3463 478.09582,238.19975 477.76716,238.49285 477.62062,238.3463 477.47407,238.19975 477.76716,237.8711 477.62062,237.72455 475.96261,237.72455 477.82787,237.9318 476.99886,237.1028 476.58418,236.68811 476.17005,237.51748 475.75536,237.1028 475.60881,236.95625 475.90191,236.62759 475.75536,236.48105 475.46226,236.18795 474.8826,236.66642 474.51186,236.48105 474.2497,236.34997 474.15226,235.99037 473.8901,235.85929 473.23633,235.53241 471.52815,235.85929 470.78134,235.85929 470.57409,235.85929 470.30614,235.71274 470.15959,235.85929 470.01304,236.00584 470.30614,236.3345 470.15959,236.48105 470.01304,236.62759 469.68439,236.3345 469.53784,236.48105 469.39129,236.62759 469.68439,236.95625 469.53784,237.1028 469.39129,237.24935 469.06264,236.95625 468.91609,237.1028 468.87909,237.1398 468.91609,241.03952 468.91609,241.45506 468.91609,241.83448 469.15835,243.69981 468.91609,243.94207 468.76954,244.08862 468.44088,243.79552 468.29433,243.94207 468.14779,244.08862 468.44088,244.41727 468.29433,244.56382 468.00124,244.85692 467.42157,244.37845 467.05083,244.56382 464.46325,245.85761 467.71551,244.52092 466.42908,245.80733 466.28253,245.95387 465.95387,245.66078 465.80733,245.80733 465.66078,245.95387 465.90003,246.24371 465.80733,246.42908 465.67625,246.69123 465.31665,246.78868 465.18557,247.05083 464.82872,247.76455 465.55891,251.65152 465.18557,252.02485 465.03903,252.1714 464.71037,251.8783 464.56382,252.02485 464.41727,252.1714 464.71037,252.50005 464.56382,252.6466 464.41727,252.79315 464.08862,252.50005 463.94207,252.6466 463.79552,252.79315 464.08862,253.1218 463.94207,253.26835 463.79552,253.4149 463.50569,253.17565 463.32032,253.26835 463.05816,253.39943 462.90582,253.68285 462.69857,253.8901 462.28406,254.30461 461.71722,254.6093 461.45506,255.13361 461.36236,255.31898 461.60161,255.60881 461.45506,255.75536 461.30851,255.90191 460.97986,255.60881 460.83331,255.75536 460.68676,255.90191 460.97986,256.23056 460.83331,256.37711 460.68676,256.52366 460.35811,256.23056 460.21156,256.37711 459.91846,256.67021 460.50465,257.32752 460.21156,257.62062 460.06501,257.76716 459.73635,257.47407 459.58981,257.62062 459.44326,257.76716 459.68251,258.057 459.58981,258.24237 459.45873,258.50452 459.09913,258.60197 458.96805,258.86412 458.87535,259.04949 459.1146,259.33932 458.96805,259.48587 458.82151,259.63242 458.49285,259.33932 458.3463,259.48587 458.19975,259.63242 458.49285,259.96108 458.3463,260.10762 458.19975,260.25417 457.8711,259.96108 457.72455,260.10762 457.578,260.25417 457.8711,260.58283 457.72455,260.72938 457.578,260.87593 457.24935,260.58283 457.1028,260.72938 456.95625,260.87593 457.24935,261.20458 457.1028,261.35113 456.95625,261.49768 456.62759,261.20458 456.48105,261.35113 456.3345,261.49768 456.57375,261.78751 456.48105,261.97288 456.34997,262.23503 455.99037,262.33248 455.85929,262.59463 455.76659,262.78 456.00584,263.06984 455.85929,263.21639 455.71274,263.36293 455.42291,263.12369 455.23754,263.21639 452.64996,264.51018 455.90222,263.17349 454.61579,264.45989 453.32936,265.74632 454.66609,262.49406 453.37228,265.08164 453.27958,265.26701 453.51883,265.55685 453.37228,265.70339 453.22574,265.84994 452.89708,265.55685 452.75053,265.70339 452.60398,265.84994 452.89708,266.1786 452.75053,266.32515 452.60398,266.47169 452.27533,266.1786 452.12878,266.32515 451.98223,266.47169 452.27533,266.80035 452.12878,266.9469 451.98223,267.09345 451.65358,266.80035 451.50703,266.9469 451.36048,267.09345 451.65358,267.4221 451.50703,267.56865 451.36048,267.7152 451.09253,267.56865 450.88528,267.56865 450.88528,267.7759 451.03182,268.04385 450.88528,268.1904 450.73873,268.33695 450.41007,268.04385 450.26352,268.1904 449.84794,268.60599 450.67911,269.01832 450.26352,269.43391 450.11698,269.58045 449.78832,269.28736 449.64177,269.43391 449.34868,269.727 449.82714,270.30667 449.64177,270.67741 449.5107,270.93956 449.1511,271.03701 449.02002,271.29916 448.83465,271.6699 449.31312,272.24957 449.02002,272.54267 448.87347,272.68921 448.54482,272.39612 448.39827,272.54267 448.00388,272.93705 448.6571,274.51201 448.39827,275.02967 448.26719,275.29183 447.90759,275.38927 447.77652,275.65143 447.11331,276.97783 448.43972,279.29904 447.77652,280.62544 447.64544,280.8876 447.28584,280.98504 447.15476,281.2472 446.49156,282.5736 447.81797,284.89481 447.15476,286.22121 447.02369,286.48337 446.66409,286.58081 446.53301,286.84296 446.21354,287.48191 446.53301,293.73585 446.53301,294.92574 446.53301,295.64841 446.45801,302.31178 446.53301,302.38677 446.67956,302.53332 447.00822,302.24022 447.15476,302.38677 447.42431,302.65632 446.89282,305.59339 447.15476,306.11728 447.28584,306.37943 447.64544,306.47688 447.77652,306.73903 448.03535,307.2567 447.38213,308.83166 447.77652,309.22604 447.92306,309.37259 448.25172,309.07949 448.39827,309.22604 448.70914,309.53692 448.08739,310.78042 448.39827,311.0913 448.54482,311.23784 448.87347,310.94475 449.02002,311.0913 449.31312,311.38439 448.83465,311.96406 449.02002,312.3348 449.1511,312.59695 449.5107,312.6944 449.64177,312.95655 449.82714,313.32729 449.34868,313.90696 449.64177,314.20006 449.78832,314.34661 450.11698,314.05351 450.26352,314.20006 450.55662,314.49315 449.97043,315.15046 450.26352,315.44356 450.41007,315.59011 450.73873,315.29701 450.88528,315.44356 451.03182,315.59011 450.77031,315.89287 450.88528,316.06531 451.62139,317.16949 452.54328,318.13782 453.37228,319.17407 z"
       inkscape:connector-curvature="0"
       id="path3389"
       style="opacity:0.6;fill:none;stroke:#e20000;stroke-opacity:1;display:inline;filter:url(#filter3050)" />
    <path
       d="M 418.6296,144.31087 367.31296,119.44078"
       inkscape:connector-curvature="0"
       id="path3391"
       style="opacity:0.6;fill:none;stroke:#e20000;stroke-opacity:1" />
    <path
       d="M 423.01587,141.46555 374.21526,72.880911"
       inkscape:connector-curvature="0"
       id="path3393"
       style="opacity:0.6;fill:none;stroke:#e20000;stroke-opacity:1" />
    <path
       d="M 425.21409,141.0259 C 425.21409,140.43971 425.21409,139.85352 425.21409,141.0259 z"
       inkscape:connector-curvature="0"
       id="path3395"
       style="opacity:0.6;fill:none;stroke:#e20000;stroke-opacity:1" />
    <path
       d="M 425.21409,140.58626 420.81764,61.010492"
       inkscape:connector-curvature="0"
       id="path3397"
       style="opacity:0.6;fill:none;stroke:#e20000;stroke-opacity:1" />
    <path
       d="M 445.43777,144.10342 455.69131,63.079949"
       inkscape:connector-curvature="0"
       id="path3399"
       style="opacity:0.6;fill:none;stroke:#e20000;stroke-opacity:1" />
    <path
       d="M 509.0225,70.220946 481.55116,155.27665"
       inkscape:connector-curvature="0"
       id="path3401"
       style="fill:none;stroke:#0000e9;stroke-width:1;stroke-miterlimit:4;stroke-opacity:1;stroke-dasharray:none;stroke-dashoffset:0" />
    <path
       d="M 559.37749,87.162907 522.57607,171.37057"
       inkscape:connector-curvature="0"
       id="path3403"
       style="fill:none;stroke:#0000e9;stroke-width:1;stroke-miterlimit:4;stroke-opacity:1;stroke-dasharray:none;stroke-dashoffset:0" />
    <path
       d="M 648.08829,167.88086 574.98222,210.15687"
       inkscape:connector-curvature="0"
       id="path3405"
       style="fill:none;stroke:#0000e9;stroke-width:1;stroke-miterlimit:4;stroke-opacity:1;stroke-dasharray:none;stroke-dashoffset:0" />
    <path
       d="M 662.83581,194.48965 587.60315,228.67529"
       inkscape:connector-curvature="0"
       id="path3407"
       style="fill:none;stroke:#0000e9;stroke-width:1;stroke-miterlimit:4;stroke-opacity:1;stroke-dasharray:none;stroke-dashoffset:0" />
    <path
       d="M 604.14966,279.95376 674.93252,280.83305"
       inkscape:connector-curvature="0"
       id="path3409"
       style="fill:none;stroke:#0000e9;stroke-width:1;stroke-miterlimit:4;stroke-opacity:1;stroke-dasharray:none;stroke-dashoffset:0" />
    <path
       d="M 592.27924,329.19402 642.39878,343.26266"
       inkscape:connector-curvature="0"
       id="path3411"
       style="fill:none;stroke:#0000e9;stroke-width:1;stroke-miterlimit:4;stroke-opacity:1;stroke-dasharray:none;stroke-dashoffset:0" />
    <path
       d="M 469.61825,425.03665 C 487.9902,406.10459 501.44428,416.67976 514.02241,432.51062"
       inkscape:connector-curvature="0"
       id="path3413"
       style="fill:none;stroke:#0000e9;stroke-width:1;stroke-miterlimit:4;stroke-opacity:1;stroke-dasharray:none;stroke-dashoffset:0" />
    <path
       d="M 620.41653,280.39341 C 624.02766,295.26495 618.9899,310.88667 610.54834,323.18818 609.11707,329.3035 608.70027,330.05375 608.24669,332.682 600.33164,356.97122 576.01854,381.79161 557.86583,400.14481"
       inkscape:connector-curvature="0"
       id="path3415"
       style="fill:none;stroke:#0000e9;stroke-width:1;stroke-miterlimit:4;stroke-opacity:1;stroke-dasharray:none;stroke-dashoffset:0" />
    <path
       d="M 575.89275,431.47132 C 576.00325,415.2015 542.79251,365.75294 535.76386,434.99541"
       inkscape:connector-curvature="0"
       id="path3417"
       style="fill:none;stroke:#0000e9;stroke-width:1;stroke-miterlimit:4;stroke-opacity:1;stroke-dasharray:none;stroke-dashoffset:0" />
    <path
       d="M 489.76308,415.27055 C 499.39455,415.98864 506.22194,423.95644 512.1152,430.78237 512.89818,431.57045 514.48399,433.53689 512.50098,433.95547 498.89904,436.8419 484.58993,433.88687 472.53426,427.2469 469.28959,426.60099 469.28071,424.54975 472.10858,423.12921 476.92518,418.75462 482.99211,414.85019 489.76308,415.27055 z"
       inkscape:connector-curvature="0"
       id="path3419"
       style="fill:#c7a1db;stroke:none" />
    <path
       d="M 608.797,334.16976 C 619.18605,337.0159 629.69413,339.76651 639.97059,343.00388 640.82673,344.78577 638.48259,346.43259 637.81358,347.99111 623.08461,368.46338 608.79723,389.2793 595.35793,410.56273 588.93312,419.68509 580.92511,428.19132 570.86387,433.17235 570.01117,429.95671 570.54657,426.20525 570.16534,422.78646 569.73802,411.51291 566.76095,399.63253 558.3752,391.59841 555.71813,389.95166 555.19781,387.80063 558.574,386.70575 562.58624,384.38714 565.9835,381.31082 568.59695,377.51602 577.25054,367.42359 589.33669,360.79977 597.3944,350.20169 601.53572,345.41775 604.8256,339.95496 607.97267,334.45828 608.17311,334.22094 608.47742,334.04851 608.797,334.16976 z"
       inkscape:connector-curvature="0"
       id="path3423"
       style="fill:none;stroke:none" />
    <path
       d="M 607.57424,280.07967 C 611.71382,280.40036 616.03185,280.06187 620.06291,281.00018 623.20616,293.28719 619.76765,306.4967 613.79857,317.39477 611.32734,320.99535 609.43315,324.94643 608.7728,329.26558 608.33787,330.68155 608.12731,333.86627 605.86949,332.67755 601.79312,331.36944 597.26808,330.90186 593.54681,328.77037 592.98244,326.73242 594.96744,324.59348 595.23019,322.524 598.89733,312.18388 600.66127,301.35148 601.85885,290.48003 602.55884,287.13445 603.15854,283.66468 604.04334,280.43689 605.06978,279.80705 606.43088,280.15907 607.57424,280.07967 z"
       inkscape:connector-curvature="0"
       id="path3425"
       style="fill:#c7afc8;stroke:none" />
    <path
       d="M 368.72329,120.50223 C 385.04298,128.25871 401.326,136.144 417.55137,144.09194 418.35084,145.73742 415.76474,147.05025 415.27071,148.55709 413.62289,151.52347 412.24552,154.86062 408.95081,156.38827 401.95211,160.72286 394.35786,165.33476 385.89692,165.68951 380.56434,165.91384 374.4496,162.86159 373.80668,157.06147 370.96652,145.41427 369.17413,133.49565 367.95391,121.57387 367.89461,121.09374 368.01301,120.29139 368.72329,120.50223 z"
       inkscape:connector-curvature="0"
       id="path3427"
       style="fill:#6a72bc;stroke:none" />
    <path
       d="M 373.39452,73.65255 C 376.92506,76.421573 379.0504,80.769271 381.89942,84.241103 395.53185,103.32511 409.3346,122.37839 422.63477,141.67389 422.15602,143.14028 420.08673,143.67813 418.81535,144.13316 401.88326,135.92921 384.93989,127.74799 368.03634,119.48555 366.88708,116.25579 367.23159,112.44091 366.69561,109.0042 365.31432,97.037076 365.94379,84.088174 372.79,73.789939 372.94506,73.611711 373.18676,73.627609 373.39452,73.65255 z"
       inkscape:connector-curvature="0"
       id="path3429"
       style="fill:none;stroke:none" />
    <path
       d="M 420.32663,60.312068 C 421.78098,77.436607 422.36076,94.685745 423.42868,111.86035 423.83267,121.56897 424.72105,131.30698 424.80552,141.00069 423.83212,142.78772 422.49268,139.84023 421.86389,139.14021 405.84591,117.05671 390.01391,94.630371 374.17763,72.51222 376.12468,68.725495 380.1513,66.389172 383.80861,64.474958 391.51236,60.962322 400.31988,61.351048 408.60686,60.58 412.49866,60.52234 416.50042,60.02006 420.32663,60.312068 z"
       inkscape:connector-curvature="0"
       id="path3431"
       style="fill:#b1daa9;stroke:none" />
    <path
       d="M 373.8479,73.781696 C 382.83426,85.108013 390.98562,97.137884 399.49407,108.85991 407.26717,119.77684 415.04027,130.69377 422.81337,141.61069 422.12769,143.09606 419.07664,145.13559 417.34376,143.42456 400.88276,135.42312 384.40547,127.45524 367.92643,119.49105 366.53634,111.82567 366.2255,103.77493 366.27776,95.91508 366.44357,88.556071 368.29871,81.075013 372.10306,74.770897 372.51751,74.263626 373.11037,73.579137 373.8479,73.781696 z"
       inkscape:connector-curvature="0"
       id="path3447"
       style="fill:#746bdb;stroke:none" />
    <path
       d="M 647.46653,280.74464 C 656.35884,280.90899 665.26662,280.86806 674.1475,281.28045 675.17291,282.99959 673.66575,285.38769 673.56001,287.27123 670.53894,300.17209 663.48107,311.65791 656.42918,322.7054 651.88365,329.32947 646.91107,335.70817 641.94349,342.02018 640.09071,343.4098 637.63651,341.14717 635.59611,341.08593 626.76597,338.55832 617.84214,336.27288 609.1075,333.46083 608.08845,331.90827 609.45353,329.68427 609.61584,327.96527 610.97989,321.24601 615.92462,316.15562 617.94162,309.66504 621.44349,301.02366 622.43239,291.37875 620.99165,282.14601 619.88408,278.95454 625.09411,281.06336 626.87153,280.50804 633.73653,280.58694 640.60153,280.66577 647.46653,280.74464 z"
       inkscape:connector-curvature="0"
       id="path3449"
       style="fill:#cda392;stroke:none" />
    <path
       d="M 427.24682,60.633917 C 436.50543,61.117008 445.78376,61.580093 455.00222,62.547748 455.84485,63.743643 454.81421,65.535512 454.93022,66.944404 451.80614,92.599962 448.66743,118.26256 445.13191,143.86127 443.93309,144.66218 442.22753,143.34712 440.84604,143.29628 435.96964,142.02992 430.917,141.06822 425.86731,141.58798 424.92274,140.22033 425.53243,138.07021 425.19693,136.40271 423.78227,111.25382 422.38444,86.104 420.98072,60.954508 422.10465,59.746467 424.5378,60.884068 426.15582,60.595216 426.51949,60.608116 426.88315,60.621016 427.24682,60.633916 z"
       inkscape:connector-curvature="0"
       id="path5953"
       style="fill:#dbc198;stroke:none" />
    <path
       d="M 457.26579,62.547748 C 472.34427,63.638362 487.29458,66.269288 502.09023,69.241298 504.11346,69.877908 506.57228,69.834685 508.2786,71.145414 507.39373,75.204873 505.77218,79.231494 504.59079,83.270195 496.83875,107.33765 489.15749,131.4321 481.20324,155.43168 479.88795,156.10389 478.25167,154.69023 476.82362,154.55342 466.70521,151.379 456.58221,148.15023 446.53085,144.80361 444.7998,143.85345 446.3175,141.47984 446.13329,139.99371 449.35279,114.29638 452.55727,88.592296 456.00285,62.926628 456.22827,62.411778 456.8321,62.566319 457.26579,62.547748 z"
       inkscape:connector-curvature="0"
       id="path5956"
       style="fill:#d7ab8f;stroke:none" />
    <path
       d="M 509.86213,71.232847 C 518.78436,73.035222 527.47106,75.959598 536.03401,79.014464 543.39148,81.869673 550.8436,84.657933 557.71761,88.535043 558.85502,89.861389 556.87737,91.476841 556.69076,92.841223 545.29228,118.95023 533.91169,145.08026 522.44289,171.15035 521.22809,171.99261 519.81053,170.23667 518.54869,170.07853 506.70676,164.9704 494.82159,159.9903 482.47305,156.22527 480.94085,155.56582 482.71281,153.66036 482.723,152.50078 491.33129,125.49739 499.96304,98.493623 508.88093,71.592298 509.06648,71.197978 509.49543,71.196206 509.86213,71.232847 z"
       inkscape:connector-curvature="0"
       id="path5958"
       style="fill:#736cd4;stroke:none" />
    <path
       d="M 559.24285,89.14708 C 575.24209,96.876811 590.91839,105.51887 604.67932,116.84419 615.85692,125.89166 625.80231,136.44169 633.92256,148.35529 638.34114,154.72119 643.08196,160.90564 646.94875,167.61414 646.60202,168.98732 644.60489,169.21967 643.62055,170.12266 621.69027,183.12544 599.44518,195.56304 577.60396,208.68864 576.57345,209.37791 575.28049,209.8953 575.06838,211.17565 573.80352,211.70598 573.14581,209.61763 572.28907,208.95182 566.21506,201.16691 559.58169,193.73107 552.11792,187.29202 544.29841,181.85926 535.64383,177.74626 527.03414,173.73277 525.69982,172.97409 524.00917,172.68815 522.88006,171.65553 525.45215,164.92515 528.60314,158.31515 531.41299,151.63886 540.43648,130.88115 549.56606,110.16738 558.56281,89.399667 558.77326,89.166928 558.90984,89.026901 559.24285,89.14708 z"
       inkscape:connector-curvature="0"
       id="path5960"
       style="fill:#7edfd0;stroke:none" />
    <path
       d="M 647.29849,168.85764 C 649.17442,169.90575 649.69634,172.38014 650.95128,174.01624 654.57353,180.54056 658.48986,186.9638 661.53078,193.76659 661.89752,195.51251 659.24191,195.48756 658.29478,196.29716 634.68076,207.10355 611.02739,217.83298 587.38684,228.5847 585.8994,228.06534 585.48755,225.83354 584.42381,224.65018 581.74806,219.90931 577.34613,216.47311 574.76722,211.6711 574.62906,209.92579 577.11348,209.66208 578.12971,208.70559 600.98129,195.34174 623.80527,181.94427 646.84189,168.90622 646.98627,168.85262 647.14583,168.82752 647.29849,168.85762 z"
       inkscape:connector-curvature="0"
       id="path5962"
       style="fill:#70bb86;stroke:none" />
    <path
       d="M 662.38569,195.26268 C 665.36111,201.04924 668.53963,206.90136 669.74043,213.37751 673.78487,230.10776 676.76432,247.28198 675.99267,264.56818 676.00318,269.95352 675.15528,275.35373 674.70416,280.65644 664.13936,280.71744 653.50144,280.3219 642.90738,280.28379 630.13145,280.14284 617.355,280.00145 604.58218,279.67524 603.44111,278.48509 604.42321,276.13831 604.09643,274.51664 604.64615,262.08207 599.5576,250.31353 593.20541,239.93763 591.31486,236.40449 589.06959,232.98914 587.57143,229.29389 588.84649,227.87172 591.14761,227.55772 592.80122,226.54012 615.83315,216.05213 638.8567,205.52222 661.96795,195.2141 L 662.27675,195.25 662.38569,195.2627 z"
       inkscape:connector-curvature="0"
       id="path5964"
       style="fill:#e19179;stroke:none" />
    <path
       d="M 608.79843,334.10769 C 619.42564,336.97637 630.05116,339.90142 640.61465,342.98709 641.50116,344.00572 639.56545,345.10984 639.25952,346.09175 624.80838,366.3811 610.32875,386.62383 597.27161,407.85121 592.64631,415.52503 586.24756,421.96514 579.5858,427.87568 578.54245,428.43547 577.53021,429.95736 576.27126,429.66194 575.2337,427.60532 575.11992,425.00211 574.15518,422.83366 570.94358,414.27186 565.8025,406.21437 558.4268,400.73232 558.24613,399.07512 560.74289,398.02852 561.6058,396.62796 577.2997,380.28038 593.39656,363.8188 603.85491,343.52158 605.52065,340.59792 606.4705,337.32188 608.05039,334.37971 608.22176,334.15801 608.51835,334.02375 608.79843,334.10769 z"
       inkscape:connector-curvature="0"
       id="path5966"
       style="fill:#d5be93;stroke:none" />
    <path
       d="M 552.8796,399.4791 C 558.98199,400.12227 563.3568,405.18683 566.81532,409.80728 571.14721,415.95175 574.66299,422.90963 575.73871,430.42098 574.74575,431.82211 572.6083,432.24849 571.13386,433.20915 566.36526,435.5411 561.13837,437.25097 555.84264,437.4837 552.07223,438.58493 548.08904,440.03045 544.08764,439.03808 541.12148,438.41663 538.16676,437.2887 535.6357,435.69616 537.0195,428.09933 537.60022,420.21152 540.23536,412.85027 542.04518,407.94173 544.21024,402.09517 549.44051,399.96346 550.52936,399.54917 551.71407,399.39921 552.8796,399.4791 z"
       inkscape:connector-curvature="0"
       id="path5968"
       style="fill:#b9abdd;stroke:none" />
  </g>
</svg>
