<?xml version="1.0" encoding="UTF-8" standalone="no"?>
<!-- Created with Inkscape (http://www.inkscape.org/) -->

<svg
   xmlns:dc="http://purl.org/dc/elements/1.1/"
   xmlns:cc="http://creativecommons.org/ns#"
   xmlns:rdf="http://www.w3.org/1999/02/22-rdf-syntax-ns#"
   xmlns:svg="http://www.w3.org/2000/svg"
   xmlns="http://www.w3.org/2000/svg"
   xmlns:xlink="http://www.w3.org/1999/xlink"
   xmlns:inkscape="http://www.inkscape.org/namespaces/inkscape"
   version="1.1"
   width="740"
   height="520"
   id="svg2"
   style="enable-background:new">
  <defs
     id="defs4">
    <filter
       color-interpolation-filters="sRGB"
       id="filter3050">
      <feBlend
         in2="BackgroundImage"
         mode="lighten"
         id="feBlend3052" />
    </filter>
  </defs>
  <metadata
     id="metadata7">
    <rdf:RDF>
      <cc:Work
         rdf:about="">
        <dc:format>image/svg+xml</dc:format>
        <dc:type
           rdf:resource="http://purl.org/dc/dcmitype/StillImage" />
        <dc:title />
      </cc:Work>
    </rdf:RDF>
  </metadata>
  <g
     id="layer1"
     style="display:none">
    <image
       xlink:href="pngs/coronal-0500.png"
       id="MRISLICE"
       height="520"
       width="740"
       y="0"
       x="0" />
  </g>
  <g
     id="layer3"
     style="display:inline">
    <path
       d="M 372.12067,208.50222 373.05126,102.18259 C 415.35283,40.997076 504.64539,102.4766 537.81556,112.13063 578.05673,126.45588 611.16466,147.51808 621.75209,189.84964 632.17781,222.83064 644.04856,254.80639 617.39983,313.5783 605.61035,333.97053 605.81507,359.01427 568.28141,375.44264 L 538.43731,401.8671 C 519.52251,418.5837 509.24373,446.40377 468.80108,435.44172 450.3445,426.31642 430.40629,434.52482 411.59989,419.89791 406.81293,398.54456 385.92778,395.58914 370.56425,386.3233 L 371.86083,238.18861 C 362.68664,237.24898 353.0033,237.96408 345.38329,231.97334"
       inkscape:connector-curvature="0"
       id="path2990"
       style="fill:none;stroke:#0000e9;stroke-width:1;stroke-miterlimit:4;stroke-opacity:1;stroke-dasharray:none;stroke-dashoffset:0" />
    <path
       d="M 372.68704,210.2985 C 396.24088,207.22893 412.22963,198.69807 425.27843,175.54934 434.27174,163.88691 440.91024,164.01263 455.70657,170.43093 484.73091,185.44274 518.10411,198.17362 540.92432,224.66776 547.03759,237.91003 549.93865,253.15153 548.59409,270.49265"
       inkscape:connector-curvature="0"
       id="path3822"
       style="fill:none;stroke:#0000e9;stroke-width:1;stroke-miterlimit:4;stroke-opacity:1;stroke-dasharray:none;stroke-dashoffset:0" />
    <path
       d="M 549.08503,267.5763 546.66475,270.54561 C 546.98439,283.04101 545.80817,294.7771 540.02911,311.49995 L 543.19446,312.49995 C 549.0665,295.50806 550.03443,283.33812 549.70678,270.52958 z"
       inkscape:connector-curvature="0"
       id="path2994"
       style="font-size:medium;font-style:normal;font-variant:normal;font-weight:normal;font-stretch:normal;text-indent:0;text-align:start;text-decoration:none;line-height:normal;letter-spacing:normal;word-spacing:normal;text-transform:none;direction:ltr;block-progression:tb;writing-mode:lr-tb;text-anchor:start;baseline-shift:baseline;color:#000000;fill:#73a0a6;fill-opacity:1;stroke:none;stroke-width:3.20000005;marker:none;visibility:visible;display:inline;overflow:visible;enable-background:accumulate;font-family:Sans;-inkscape-font-specification:Sans" />
    <path
       d="M 400.40835,233.37228 C 409.68652,242.39334 417.68052,252.44173 420.72018,266.4536"
       inkscape:connector-curvature="0"
       id="path3806"
       style="fill:none;stroke:#0000e9;stroke-width:1;stroke-miterlimit:4;stroke-opacity:1;stroke-dasharray:none;stroke-dashoffset:0" />
    <path
       d="M 422.51821,258.40261 C 418.70043,247.57498 420.70297,262.50484 420.67168,265.31006 423.29908,276.41785 426.46609,289.05428 426.46773,301.59375 L 428.55561,301 C 427.64804,289.12075 425.41101,269.7749 422.51821,258.40261 z"
       inkscape:connector-curvature="0"
       id="path3810"
       style="font-size:medium;font-style:normal;font-variant:normal;font-weight:normal;font-stretch:normal;text-indent:0;text-align:start;text-decoration:none;line-height:normal;letter-spacing:normal;word-spacing:normal;text-transform:none;direction:ltr;block-progression:tb;writing-mode:lr-tb;text-anchor:start;baseline-shift:baseline;color:#000000;fill:#a7b0c5;fill-opacity:1;stroke:none;stroke-width:4.0999999;marker:none;visibility:visible;display:inline;overflow:visible;enable-background:accumulate;font-family:Sans;-inkscape-font-specification:Sans" />
    <path
       d="M 421.1018,265.48357 C 422.58903,257.50604 420.74005,232.61773 423.41318,214.09797 435.08619,200.96788 451.13392,196.58721 469.42283,196.68891 491.95193,201.5169 511.34824,209.47768 527.24578,220.93724 544.07994,241.96783 552.78067,269.21811 541.54607,311.71305"
       inkscape:connector-curvature="0"
       id="path2998"
       style="fill:none;stroke:#0000e9;stroke-width:1;stroke-miterlimit:4;stroke-opacity:1;stroke-dasharray:none;stroke-dashoffset:0" />
    <path
       d="M 542.16783,311.2734 C 535.67436,323.34604 531.78585,337.81205 519.163,345.28766 512.96733,354.82556 502.33337,363.47581 503.6192,374.51001 L 507.34971,387.87768 C 516.97084,380.52645 528.30248,374.89851 539.9917,399.69097"
       inkscape:connector-curvature="0"
       id="path3000"
       style="fill:none;stroke:#0000e9;stroke-width:1;stroke-miterlimit:4;stroke-opacity:1;stroke-dasharray:none;stroke-dashoffset:0" />
    <path
       d="M 519.163,345.28767 C 521.96366,349.28313 508.65688,369.1279 504.8627,375.13176"
       inkscape:connector-curvature="0"
       id="path3002"
       style="fill:none;stroke:#0000e9;stroke-width:1;stroke-miterlimit:4;stroke-opacity:1;stroke-dasharray:none;stroke-dashoffset:0" />
    <path
       d="M 504.8627,381.34928 C 455.19862,409.4771 427.84118,390.49857 402.89536,366.42723 382.12345,331.93914 400.69089,309.17563 423.76177,283.6321"
       inkscape:connector-curvature="0"
       id="path3004"
       style="fill:none;stroke:#0000e9;stroke-width:1;stroke-miterlimit:4;stroke-opacity:1;stroke-dasharray:none;stroke-dashoffset:0" />
    <path
       d="M 512.94548,353.99219 C 502.35848,355.35647 494.13841,351.51351 491.80591,334.71788 474.96143,314.52165 455.11631,298.77233 428.3872,298.34537"
       inkscape:connector-curvature="0"
       id="path3006"
       style="fill:none;stroke:#0000e9;stroke-width:1;stroke-miterlimit:4;stroke-opacity:1;stroke-dasharray:none;stroke-dashoffset:0" />
    <path
       d="M 426.52194,301.65188 C 414.8566,324.00536 419.328,346.3534 440.82223,362.07497 468.40719,377.35118 484.47074,368.43244 495.53642,349.01817"
       inkscape:connector-curvature="0"
       id="path3008"
       style="fill:none;stroke:#0000e9;stroke-width:1;stroke-miterlimit:4;stroke-opacity:1;stroke-dasharray:none;stroke-dashoffset:0" />
    <path
       d="M 522.27176,382.59279 C 486.21014,421.31112 450.14851,410.49346 414.08689,391.91907 411.5008,401.24535 409.87766,410.57163 412.22164,419.89791"
       inkscape:connector-curvature="0"
       id="path3010"
       style="fill:none;stroke:#0000e9;stroke-width:1;stroke-miterlimit:4;stroke-opacity:1;stroke-dasharray:none;stroke-dashoffset:0" />
    <path
       d="M 401.65185,313.5783 C 404.81877,315.34546 406.38933,359.64446 402.83287,367.00592"
       inkscape:connector-curvature="0"
       id="path3012"
       style="fill:none;stroke:#0000e9;stroke-width:1;stroke-miterlimit:4;stroke-opacity:1;stroke-dasharray:none;stroke-dashoffset:0" />
    <path
       d="M 416.5739,377.61877 C 414.05169,379.08516 412.67856,383.42422 413.46514,393.16257"
       inkscape:connector-curvature="0"
       id="path3016"
       style="fill:none;stroke:#0000e9;stroke-width:1;stroke-miterlimit:4;stroke-opacity:1;stroke-dasharray:none;stroke-dashoffset:0" />
    <path
       d="M 448.905,317.93057 C 439.16038,314.83609 434.54865,330.23147 442.51672,335.03671 447.22586,339.92975 458.03382,340.59651 460.41267,333.04084 461.68434,325.94225 454.49211,320.66575 448.905,317.93057 z"
       inkscape:connector-curvature="0"
       id="path3005"
       style="fill:none;stroke:#0000e9;stroke-width:1;stroke-miterlimit:4;stroke-opacity:1;stroke-dasharray:none;stroke-dashoffset:0" />
    <path
       d="M 422.48054,214.71973 C 409.06354,229.13849 393.17257,239.10408 371.49687,238.65718"
       inkscape:connector-curvature="0"
       id="path3007"
       style="fill:none;stroke:#0000e9;stroke-width:1;stroke-miterlimit:4;stroke-opacity:1;stroke-dasharray:none;stroke-dashoffset:0" />
    <path
       d="M 457.29866,368.29249 454.1899,395.33871"
       inkscape:connector-curvature="0"
       id="path3009"
       style="fill:none;stroke:#0000e9;stroke-width:1;stroke-miterlimit:4;stroke-opacity:1;stroke-dasharray:none;stroke-dashoffset:0" />
    <path
       d="M 540.61344,400.15729 C 540.13978,394.3967 532.84136,384.29308 540.458,383.68086 553.00633,378.70817 571.46777,367.12812 578.38488,370.31319"
       inkscape:connector-curvature="0"
       id="path3011"
       style="fill:none;stroke:#0000e9;stroke-width:1;stroke-miterlimit:4;stroke-opacity:1;stroke-dasharray:none;stroke-dashoffset:0" />
    <path
       d="M 495.94213,349.15443 C 492.39842,354.07295 489.20289,359.35329 484.38611,363.17847 479.21862,367.52868 472.61132,370.02172 465.79687,369.78882 463.10986,369.99471 460.44844,369.27765 457.7821,369.36137 456.77936,370.81681 457.24347,372.96541 456.77175,374.65594 456.05307,381.22426 454.96112,387.806 454.63448,394.38689 455.62326,395.66912 457.71465,394.7774 459.08389,395.07665 472.82766,395.42208 486.04463,390.68104 498.14182,384.5821 500.44249,383.30939 503.06571,382.43682 505.17126,380.92207 503.94891,376.66568 502.70417,372.03266 504.17063,367.66127 505.554,362.85522 508.80801,358.86127 511.5399,354.78593 510.79006,353.70359 508.80519,354.57171 507.53198,354.25474 503.47646,354.12178 499.75487,352.19464 496.96219,349.33901 496.68208,349.10225 496.29287,348.83782 495.94213,349.15443 z"
       inkscape:connector-curvature="0"
       id="path3021"
       style="fill:#d87090;stroke:none" />
    <path
       d="M 518.37378,347.47375 C 515.81062,349.52356 514.08863,352.61367 511.98245,355.17111 508.3153,360.19844 504.1822,365.3967 503.71403,371.85809 503.68073,372.69861 503.43563,374.89406 504.83124,374.43253 509.32867,368.2533 513.21643,361.58169 516.64578,354.77242 517.53053,352.53462 519.14638,350.3181 519.11211,347.86235 518.99293,347.58394 518.68054,347.38455 518.37378,347.47375 z"
       inkscape:connector-curvature="0"
       id="path3023"
       style="fill:#a7d36c;stroke:none" />
    <path
       d="M 575.76927,369.89569 C 567.78562,370.54191 560.75489,374.78566 553.54377,377.92122 548.53399,380.31399 543.48821,382.66177 538.34756,384.64287 536.30848,386.22234 537.70183,389.17184 538.1727,391.1907 539.00599,393.69531 539.64045,396.32683 540.84429,398.66144 542.18151,398.95274 543.00833,397.04733 544.12932,396.48529 552.27078,389.46011 560.15743,382.17531 568.33562,375.2106 571.05126,373.67127 574.2869,372.81026 576.61446,370.71174 576.88634,370.14264 576.254,369.79068 575.76927,369.89569 z"
       inkscape:connector-curvature="0"
       id="path3025"
       style="fill:#6abbd5;stroke:none" />
    <path
       d="M 522.70661,381.99071 C 521.86642,382.33188 521.84686,383.59511 520.97737,384.08912 509.68275,396.1588 494.87582,405.838 478.21248,408.1723 460.8589,410.68723 443.54157,405.56097 427.78256,398.71973 423.25125,396.88053 419.00729,394.41251 414.49261,392.58964 413.18517,393.5836 413.59742,395.78925 412.99126,397.23547 411.56049,402.81589 411.0906,408.58795 411.56843,414.33153 411.85164,416.90065 411.58383,420.34451 414.3979,421.61284 421.88567,426.61731 430.8539,428.74112 439.74949,429.45209 449.41818,430.57532 459.43358,430.86452 468.37131,434.98536 476.00394,437.58097 484.17937,437.99264 492.16304,437.23921 503.51727,435.89991 513.04453,428.58181 520.61792,420.47133 526.91639,413.66339 532.92987,406.66429 539.71736,400.32268 539.75626,398.66165 538.29791,397.10149 537.65256,395.53351 534.31965,389.78002 529.93548,383.28545 522.93006,381.98099 522.85556,381.98499 522.78019,381.97299 522.70661,381.99099 z"
       inkscape:connector-curvature="0"
       id="path3037"
       style="fill:#c7a1db;stroke:none" />
    <path
       d="M 549.45202,260.10535 C 581.99721,276.54793 553.57986,321.78935 542.52208,323.03899"
       inkscape:connector-curvature="0"
       id="path3026"
       style="fill:none;stroke:#0000e9;stroke-width:1;stroke-miterlimit:4;stroke-opacity:1;stroke-dasharray:none;stroke-dashoffset:0" />
    <path
       d="M 521.41911,380.6325 C 521.07563,378.45294 522.74093,380.84963 521.92228,379.82395 523.36731,376.09291 527.24075,374.22157 529.45043,371.03142 536.92554,362.85996 547.14015,357.84526 557.46785,354.29455 563.70224,351.86542 570.81163,349.79854 574.71136,343.90431 577.23809,339.70683 577.91101,334.24926 581.99949,331.08612 585.86272,329.68014 587.0432,335.39769 585.55632,337.95656 583.56955,345.97258 576.61204,351.93076 568.90246,354.28215 562.44244,356.6603 555.98416,359.28774 550.4301,363.43303 543.1613,368.04019 536.36597,373.35597 529.51466,378.53649 528.78024,379.09587 526.00565,382.75442 526.25524,380.19281"
       inkscape:connector-curvature="0"
       id="path3028"
       style="fill:none;stroke:#0000e9;stroke-width:1;stroke-miterlimit:4;stroke-opacity:1;stroke-dasharray:none;stroke-dashoffset:0" />
    <path
       d="M 535.9274,325.45703 C 549.80954,319.54671 560.56014,328.97954 542.96173,347.21947 L 520.10018,362.1674 C 515.5098,366.77651 516.73018,375.25946 515.26408,381.95143"
       inkscape:connector-curvature="0"
       id="path3036"
       style="fill:none;stroke:#0000e9;stroke-width:1;stroke-miterlimit:4;stroke-opacity:1;stroke-dasharray:none;stroke-dashoffset:0" />
    <path
       d="M 521.85876,360.84847 C 522.8445,357.93879 524.73423,355.20991 520.10018,351.17627"
       inkscape:connector-curvature="0"
       id="path3038"
       style="fill:none;stroke:#0000e9;stroke-width:1;stroke-miterlimit:4;stroke-opacity:1;stroke-dasharray:none;stroke-dashoffset:0" />
    <path
       d="M 415.46306,378.90503 C 413.49886,382.68257 413.38796,387.2681 413.52418,391.33577 430.72756,399.9158 449.08318,408.40074 468.72875,408.39462 481.24027,408.48502 493.49787,404.61996 503.94164,397.79603 510.39769,393.68495 516.24826,388.47008 521.25267,382.71071 520.67207,380.9581 518.08977,382.56643 516.80126,382.73821 513.27251,383.82421 510.33972,386.32271 507.2802,388.09639 506.31084,386.23221 506.49626,383.70916 505.20562,382.10622 501.81073,382.437 499.01177,385.12402 495.81426,386.26884 483.28697,392.14544 469.60073,396.23485 455.6219,395.29558 440.94698,394.77604 427.63677,387.368 416.20496,378.69897 415.96298,378.78537 415.57013,378.36882 415.46306,378.90506 z"
       inkscape:connector-curvature="0"
       id="path3040"
       style="fill:#8791c7;stroke:none" />
    <path
       d="M 518.91156,351.02878 C 514.84122,359.63904 510.0394,368.01105 504.62309,375.75882 505.15035,379.34231 505.9498,383.04181 507.35714,386.36526 509.35436,386.9737 511.09727,384.48984 512.92077,383.91184 514.52107,383.47724 515.34718,382.30279 515.21579,380.62239 516.40002,374.62731 515.58333,367.68574 519.57103,362.6519 522.63465,360.09752 524.09072,354.89285 520.62515,352.0193 520.15703,351.70888 519.63031,350.2907 518.91156,351.02878 z"
       inkscape:connector-curvature="0"
       id="path3048"
       style="fill:#7c797c;stroke:none" />
    <path
       d="M 372.58494,210.20744 C 362.3377,212.16906 353.13986,206.98869 349.26924,205.08256 L 345.8496,232.43966"
       inkscape:connector-curvature="0"
       id="path3030"
       style="fill:none;stroke:#0000e9;stroke-width:0.93800002;stroke-linecap:round;stroke-miterlimit:4;stroke-opacity:1;stroke-dasharray:none;stroke-dashoffset:0" />
    <path
       d="M 583.02329,330.95433 C 581.17211,331.42476 580.0964,333.32812 579.09397,334.8081 576.82264,338.81168 575.97263,343.74974 572.25886,346.76782 567.90716,351.09388 561.74405,352.60546 556.23024,354.88092 546.45523,358.37513 536.91105,363.29049 529.78392,370.9748 526.88152,374.08633 523.52095,376.92326 521.42489,380.66858 521.28022,381.88758 522.96946,381.5608 523.74677,381.81578 524.71706,381.83858 525.72958,382.81951 526.65255,382.2829 527.23351,381.58595 525.9992,381.17617 526.14421,380.54493 527.88804,380.60433 528.72953,378.74764 530.10241,377.99143 538.44062,371.65944 546.77622,365.29385 555.79189,359.93847 561.42816,356.58033 567.79367,354.89558 573.70144,352.12599 579.15508,349.12555 583.72512,344.19088 585.39408,338.09611 586.46219,335.90001 586.27053,332.89676 584.21858,331.34589 583.87484,331.09891 583.45475,330.91348 583.02329,330.95433 z"
       inkscape:connector-curvature="0"
       id="path3034"
       style="fill:#d5be93;stroke:none" />
    <path
       d="M 445.6232,317.77872 C 441.57526,318.28437 438.86592,322.35428 438.72347,326.23439 438.45497,329.11798 439.2492,332.22838 441.59083,334.10054 444.40892,336.74979 448.11121,338.87571 452.11484,338.48325 455.34311,338.57125 458.66468,336.84854 459.92541,333.79142 461.30673,330.17637 459.34517,326.23898 456.79294,323.66584 454.42509,321.30825 451.62371,319.28645 448.52898,318.01915 447.57936,317.81115 446.59362,317.76705 445.6232,317.77872 z"
       inkscape:connector-curvature="0"
       id="path3055"
       style="fill:#bfb879;stroke:none" />
    <path
       d="M 422.18137,215.64366 C 418.96068,218.27872 416.17955,221.38053 412.887,223.93509 409.04848,227.14324 404.84813,229.86026 400.48077,232.254 399.88593,233.2022 401.36941,233.82744 401.76529,234.54323 409.47494,242.28985 416.36904,251.26552 419.64655,261.82014 419.72435,262.61486 420.80135,263.39569 421.29521,262.47273 421.69181,258.45562 421.5115,254.35003 421.65685,250.30032 421.82432,238.95798 421.80408,227.56982 422.94388,216.28939 422.99658,215.85637 422.6231,215.47704 422.18137,215.64366 z"
       inkscape:connector-curvature="0"
       id="path3816"
       style="fill:#a7b0c5;stroke:none" />
    <path
       d="M 428.1233,298.55377 C 427.63095,299.35525 428.76081,300.84464 427.45696,300.90313 426.11052,301.40183 426.1851,303.21534 425.42988,304.2518 420.95832,313.78585 418.8538,324.86383 421.62467,335.20224 424.39436,345.92309 431.55457,355.19293 440.5364,361.51233 447.14059,365.65139 454.65564,368.48352 462.38127,369.49464 469.22391,370.23419 476.36756,368.69249 481.95922,364.59671 487.57694,360.68063 491.80694,355.09427 495.25848,349.25035 496.00666,349.93873 496.94785,348.92363 496.28203,348.19246 493.67672,344.32495 492.5498,339.69357 491.66576,335.17484 490.50558,332.86129 488.37716,331.18374 486.77233,329.18024 476.13025,317.43854 463.40577,306.87195 448.15217,301.85029 441.76816,299.75334 435.00737,298.59162 428.30216,298.4867 L 428.1233,298.5538 z M 445.9564,317.5959 C 447.70455,317.41535 449.39167,317.81285 450.82536,318.81782 454.74283,321.15266 458.77688,324.1658 460.21739,328.6626 460.79811,330.99247 460.85822,333.67462 459.19384,335.55266 456.62261,338.76511 451.9102,339.49164 448.10581,338.28321 445.01856,337.517 442.31617,335.42197 440.21354,333.05218 438.25779,330.47133 438.06465,326.87086 438.874,323.84711 439.82586,320.72426 442.42845,317.48508 445.9564,317.5959 z"
       inkscape:connector-curvature="0"
       id="path3044"
       style="fill:#8a7294;stroke:none" />
    <path
       d="M 442.94246,166.74514 C 444.66544,168.95922 448.26744,172.76066 444.48121,174.87858 442.06099,176.54592 436.96195,174.42902 434.16121,177.62945 419.39454,194.50342 405.45031,203.59119 401.5366,201.66111"
       inkscape:connector-curvature="0"
       id="path3031"
       style="fill:none;stroke:#0000e9;stroke-width:1;stroke-linecap:round;stroke-miterlimit:4;stroke-opacity:1;stroke-dasharray:none;stroke-dashoffset:0" />
    <path
       d="M 444.21105,166.65135 C 443.3573,166.78567 443.79657,167.82052 444.20105,168.20573 445.23578,169.67307 446.61847,171.44043 446.04202,173.3449 445.41318,174.60035 444.00214,175.49765 442.57496,175.53021 440.19596,175.8995 437.55943,175.55001 435.3848,176.74996 433.01193,178.70939 431.16903,181.21557 428.97953,183.3602 423.11164,189.36904 416.83727,195.17622 409.56752,199.48763 407.05277,200.87165 404.17652,202.3969 401.25158,201.73176 400.10642,201.97632 399.20367,202.86749 398.09972,203.26087 390.73818,206.87791 382.69364,208.9291 374.59034,210.07698 369.0946,210.93879 363.36649,210.87352 358.08405,208.98052 355.25826,208.06362 352.59692,206.72433 349.88417,205.54485 348.86013,205.51555 349.22101,206.93841 348.99966,207.60919 347.97233,215.71109 346.97533,223.81681 345.96422,231.92074 346.34419,232.92406 347.58751,233.26608 348.4432,233.82412 354.42421,237.15308 361.44159,237.27122 368.09332,237.8147 369.45729,238.00145 370.95308,237.8741 372.2381,238.30342 373.64174,238.72857 375.18113,238.38322 376.63388,238.41689 388.85636,237.89262 400.60523,233.0687 410.28437,225.71992 414.55105,222.56241 418.39891,218.84391 422.07056,215.046 422.44049,215.0183 423.21358,215.23498 423.29949,214.54083 423.41294,213.56805 424.45077,213.00868 425.00445,212.28212 429.27067,208.04713 434.22125,204.40393 439.80764,202.02375 449.1328,197.95817 459.37895,196.39716 469.51802,196.75289 473.17846,197.23843 476.75993,198.39157 480.35011,199.2739 496.80838,203.76305 512.81855,210.56508 526.7192,220.49605 528.65622,222.21183 529.97605,224.52873 531.50819,226.57634 539.31545,237.76569 544.3836,250.8442 545.95043,264.42542 546.27276,266.21845 546.17729,268.06962 546.56185,269.83791 547.12523,270.7106 548.09274,269.69257 548.33482,269.02671 549.02046,267.36825 548.63354,265.49443 548.76552,263.74669 548.89267,257.13457 548.39625,250.50297 547.07188,244.02548 545.75873,237.53194 543.79932,231.13833 540.99522,225.15433 539.3339,222.71853 537.13144,220.70462 535.10372,218.57793 522.47615,206.07346 507.23059,196.56957 491.51207,188.46089 479.90859,182.40212 468.06373,176.77966 456.36066,170.91772 452.51977,169.10164 448.51566,167.50486 444.35163,166.64649 444.30463,166.64733 444.25743,166.64349 444.21076,166.65149 z"
       inkscape:connector-curvature="0"
       id="path3801"
       style="fill:#73a0a6;stroke:none" />
    <path
       d="M 440.61947,166.15103 C 437.4733,166.14903 434.36259,167.13735 431.85665,169.05092 428.03417,171.72743 425.22429,175.56325 422.96252,179.59254 417.94591,187.6593 411.51323,194.87337 403.59607,200.13853 403.08564,200.42829 402.17235,201.22637 402.99861,201.71234 404.2988,201.90467 405.53165,201.12753 406.73883,200.72142 412.47916,198.08817 417.35851,193.95054 422.06775,189.81922 426.5173,185.77557 430.61898,181.36114 434.71282,176.98312 437.39536,174.94113 441.05889,176.11315 444.08282,174.96728 445.31784,174.43332 446.40133,173.14122 445.91893,171.72737 445.39152,169.68294 443.79476,168.10025 442.64987,166.4279 442.03821,166.10381 441.2898,166.16505 440.61947,166.15103 z"
       inkscape:connector-curvature="0"
       id="path3803"
       style="fill:#b46a9f;stroke:none" />
    <path
       d="M 543.125,306.75 A 1.750175,1.750175 0 0 0 541.5625,307.875 L 535.84375,322.40625 A 1.750175,1.750175 0 1 0 539.09375,323.6875 L 544.8125,309.1875 A 1.750175,1.750175 0 0 0 543.125,306.75 z"
       inkscape:connector-curvature="0"
       id="path3039"
       style="font-size:medium;font-style:normal;font-variant:normal;font-weight:normal;font-stretch:normal;text-indent:0;text-align:start;text-decoration:none;line-height:normal;letter-spacing:normal;word-spacing:normal;text-transform:none;direction:ltr;block-progression:tb;writing-mode:lr-tb;text-anchor:start;baseline-shift:baseline;color:#000000;fill:#73a0a6;fill-opacity:1;stroke:none;stroke-width:3.5;marker:none;visibility:visible;display:inline;overflow:visible;enable-background:accumulate;font-family:Sans;-inkscape-font-specification:Sans" />
    <path
       d="M 543.32255,323.89274 C 540.56064,324.07447 537.77641,324.73045 535.28529,325.82306 531.9252,332.60171 527.81529,339.24584 521.63424,343.77095 520.93721,344.55693 519.42511,344.71851 519.60919,346.03299 519.77291,347.67518 518.93047,349.25708 519.11459,350.87596 519.40901,351.78602 520.49329,351.02998 520.89378,351.76899 522.37995,353.20742 523.52683,355.29164 522.99583,357.42255 523.10971,358.27175 522.1976,359.38234 523.00283,359.95738 525.81549,358.50731 528.40475,356.48172 531.13798,354.82113 535.57438,351.75556 540.45013,349.21856 544.35532,345.4702 547.83821,341.45848 551.24619,336.84854 552.01254,331.44914 552.40367,327.90661 549.57399,324.60115 546.11168,324.11256 545.19271,323.93585 544.25884,323.85428 543.32268,323.89274 z"
       inkscape:connector-curvature="0"
       id="path3032"
       style="fill:#c9ca98;stroke:none" />
    <path
       d="M 466.00683,196.86278 C 455.16661,197.17244 444.0477,199.22111 434.70007,204.97253 430.63671,207.49067 426.65363,210.40294 423.72534,214.22189 422.87653,217.10642 422.91015,220.19635 422.61213,223.17835 422.00905,234.37666 421.846,245.59969 421.87058,256.81251 421.99575,258.98481 422.90719,261.04033 423.1913,263.20442 425.53513,274.6126 426.6833,286.24759 427.94318,297.82316 428.70115,298.73296 430.26034,298.1324 431.34989,298.40877 445.09996,299.0698 458.29702,304.55716 469.25514,312.71958 477.61594,318.91728 485.02552,326.31879 491.57494,334.32744 492.42751,335.90681 492.26216,337.83655 492.88888,339.51328 494.15691,344.93237 497.08611,350.55723 502.47677,352.79941 505.46285,354.14586 508.88323,354.37892 512.08714,353.87791 514.62727,351.85043 516.24634,348.88265 518.26278,346.36273 520.01057,344.06981 522.86244,342.91628 524.79485,340.741 529.8006,335.94062 533.15515,329.74466 536.01345,323.50805 538.1118,317.3093 540.74183,311.26299 542.48813,304.93327 545.82083,294.09397 546.7445,282.65001 546.28142,271.35553 545.73294,256.18432 540.98313,241.18188 532.5612,228.56011 530.63496,225.87223 529.01417,222.88999 526.51986,220.67231 514.19495,211.7741 500.10101,205.56979 485.62768,201.04468 480.16717,199.46469 474.68977,197.77849 469.06374,196.93147 468.04772,196.84207 467.02578,196.85227 466.00683,196.86277 z"
       inkscape:connector-curvature="0"
       id="path3042"
       style="fill:#d0cf6e;stroke:none" />
    <path
       d="M 401.13995,313.76716 C 399.87439,314.60506 399.5472,316.34098 398.78947,317.5931 395.77402,324.09464 393.77109,331.20988 394.11249,338.43537 394.08929,347.74722 397.52387,356.73865 402.08106,364.70417 402.70725,365.54819 403.63059,364.58425 403.5786,363.81114 404.90182,355.677 404.65503,347.37982 404.59618,339.16376 404.31192,331.47484 404.2616,323.69127 402.5894,316.15086 402.24293,315.43983 402.28858,313.6787 401.13995,313.76716 z"
       inkscape:connector-curvature="0"
       id="path3043"
       style="fill:#6da591;stroke:none" />
    <path
       d="M 424.2694,283.52782 C 421.88513,285.67923 419.90964,288.3206 417.71281,290.68805 411.7451,297.50463 405.97026,304.58083 401.48342,312.4757 401.02172,313.51089 402.43104,313.98388 402.50697,314.94871 404.08798,320.49723 404.126,326.34507 404.57049,332.07322 405.05551,342.32311 405.27003,352.6659 403.99764,362.85629 403.96884,364.13836 403.16523,365.4128 403.37939,366.64823 407.40086,370.45776 411.37238,374.3748 415.87493,377.59814 416.65017,377.95401 417.06778,378.89428 417.85234,379.31656 427.93946,387.26162 439.83799,393.41214 452.75693,394.86493 454.36668,395.46791 454.22068,393.33812 454.39366,392.34365 455.28451,384.67197 456.31312,376.99224 456.96114,369.30671 456.70519,368.16844 455.16026,368.56985 454.37523,368.05041 447.33826,365.78639 440.33402,362.72599 435.06007,357.42214 427.41253,350.38716 421.64005,340.93166 420.52613,330.4822 419.56461,322.22432 420.97644,313.79613 424.29188,306.2207 424.97176,304.49728 425.79232,302.77163 426.75614,301.23041 426.86513,295.68135 426.08487,290.13569 425.22426,284.66128 425.12456,284.15835 424.96091,283.37177 424.2694,283.52782 z"
       inkscape:connector-curvature="0"
       id="path3045"
       style="fill:#95c990;stroke:none" />
    <path
       d="M 564.06469,292.044 C 560.85764,283.52194 555.56999,282.19253 549.5564,283.91057"
       inkscape:connector-curvature="0"
       id="path3035"
       style="fill:none;stroke:#0000e9;stroke-width:1;stroke-linecap:round;stroke-miterlimit:4;stroke-opacity:1;stroke-dasharray:none;stroke-dashoffset:0" />
    <path
       d="M 549.16845,260.70062 C 548.94893,264.0729 548.71782,267.51116 549.20965,270.85367 549.4219,274.96789 548.98002,279.11337 549.34704,283.21182 549.80583,284.21403 551.07093,283.24712 551.86307,283.35139 555.70955,282.56097 559.84505,284.31872 561.93804,287.64142 562.37573,288.25173 563.33962,289.79922 564.04767,288.62495 564.78416,285.51825 564.34354,282.22312 564.00917,279.0787 562.81342,271.3983 557.62093,264.74941 550.87894,261.05096 550.36094,260.8513 549.65317,260.01808 549.16844,260.70062 z"
       inkscape:connector-curvature="0"
       id="path3041"
       style="fill:#d39ccd;stroke:none" />
    <path
       d="M 553.17472,283.46599 C 551.81065,283.57874 550.33888,283.63679 549.10113,284.19416 548.33607,291.04662 547.16152,297.87335 545.26229,304.50046 544.58907,307.13701 544.32827,309.837 543.15905,312.32457 541.78085,316.09058 540.12484,319.7736 538.8519,323.56987 539.13503,324.68555 540.49426,323.77624 541.24247,323.83778 541.99669,323.86458 542.61646,323.46959 542.98732,322.89667 548.23484,320.89937 551.76667,316.22628 554.94825,311.83453 558.90533,305.94232 561.97863,299.36774 563.48577,292.41002 563.71141,290.09934 561.99302,288.14433 560.62808,286.45421 558.77323,284.3479 555.95446,283.30839 553.17472,283.46599 z"
       inkscape:connector-curvature="0"
       id="path3046"
       style="fill:#bc90cc;stroke:none" />
  </g>
</svg>
