<?xml version="1.0" encoding="UTF-8" standalone="no"?>
<!-- Created with Inkscape (http://www.inkscape.org/) -->

<svg
   xmlns:dc="http://purl.org/dc/elements/1.1/"
   xmlns:cc="http://creativecommons.org/ns#"
   xmlns:rdf="http://www.w3.org/1999/02/22-rdf-syntax-ns#"
   xmlns:svg="http://www.w3.org/2000/svg"
   xmlns="http://www.w3.org/2000/svg"
   xmlns:xlink="http://www.w3.org/1999/xlink"
   xmlns:inkscape="http://www.inkscape.org/namespaces/inkscape"
   version="1.1"
   width="740"
   height="520"
   id="svg2"
   style="enable-background:new">
  <defs
     id="defs4">
    <filter
       color-interpolation-filters="sRGB"
       id="filter3050">
      <feBlend
         in2="BackgroundImage"
         mode="lighten"
         id="feBlend3052" />
    </filter>
  </defs>
  <metadata
     id="metadata7">
    <rdf:RDF>
      <cc:Work
         rdf:about="">
        <dc:format>image/svg+xml</dc:format>
        <dc:type
           rdf:resource="http://purl.org/dc/dcmitype/StillImage" />
        <dc:title />
      </cc:Work>
    </rdf:RDF>
  </metadata>
  <g
     id="layer1"
     style="display:none">
    <image
       xlink:href="pngs/coronal-0552.png"
       id="MRISLICE"
       height="520"
       width="740"
       y="0"
       x="0" />
  </g>
  <g
     id="layer3"
     style="display:inline">
    <path
       d="M 346.22053,193.12385 347.53947,179.49485 C 355.82959,181.75541 364.18346,183.50596 373.05126,181.14511 L 376.16002,174.30584 372.4295,166.84481 374.29476,87.260542 C 387.56772,53.843107 465.58031,60.784804 570.14667,105.29135 603.39895,117.78187 640.68753,156.83244 654.20152,209.27382 663.16763,244.06707 666.92217,289.03791 642.89167,324.14809 642.90437,347.28533 603.90796,383.49836 587.55573,393.78433 L 552.11586,412.43689 C 531.1416,442.69472 499.97254,456.73354 442.68749,429.22419 436.22659,411.31431 419.64905,415.66105 405.38237,414.9239 392.84928,405.28919 363.91482,403.24092 372.4295,398.75834 373.20338,379.29002 372.86356,364.2765 368.69899,364.56198 L 370.2811,325.89905 C 369.80809,321.60636 370.75189,317.44146 369.74155,314.24608 M 346.22053,193.12385 372.58968,200.59759 369.89818,314.02476"
       inkscape:connector-curvature="0"
       id="path2990"
       style="fill:none;stroke:#0000e9;stroke-width:1;stroke-miterlimit:4;stroke-opacity:1;stroke-dasharray:none;stroke-dashoffset:0" />
    <path
       d="M 372.49846,181.32721 C 395.82291,184.40235 421.98754,167.9249 426.97249,151.97658 445.06133,150.18535 462.87578,159.86336 479.47305,163.26952 514.58578,173.8834 549.97021,191.86913 571.0179,223.6214 577.19366,234.35356 583.51449,245.84179 588.26394,257.84708 594.16848,272.77212 591.70275,290.00175 588.02439,306.38747 586.44253,323.76106 581.09137,341.73764 568.28159,353.37044 557.57969,370.99038 529.65394,364.95939 529.08279,395.61216 534.65566,404.16994 553.39154,398.53616 550.88603,415.89521"
       inkscape:connector-curvature="0"
       id="path2992"
       style="fill:none;stroke:#0000e9;stroke-width:1;stroke-miterlimit:4;stroke-opacity:1;stroke-dasharray:none;stroke-dashoffset:0" />
    <path
       d="M 372.4295,201.04118 447.03976,174.30584 C 480.76274,172.55834 507.38044,185.02142 534.7068,196.06716 555.79933,213.56466 575.29891,231.08739 585.13768,266.36286 587.12287,291.98557 586.38834,314.8937 580.0947,337.20488"
       inkscape:connector-curvature="0"
       id="path2996"
       style="fill:none;stroke:#0000e9;stroke-width:1;stroke-miterlimit:4;stroke-opacity:1;stroke-dasharray:none;stroke-dashoffset:0" />
    <path
       d="M 450.55692,174.78319 C 449.20348,189.1778 439.31083,194.892 430.72981,214.24883"
       inkscape:connector-curvature="0"
       id="path3065"
       style="fill:none;stroke:#0000e9;stroke-width:1;stroke-miterlimit:4;stroke-opacity:1;stroke-dasharray:none;stroke-dashoffset:0" />
    <path
       d="M 431.49806,210.25108 428.46231,210.06255 430.27997,271.74994 432.65625,271.71864 z"
       inkscape:connector-curvature="0"
       id="path19"
       style="font-size:medium;font-style:normal;font-variant:normal;font-weight:normal;font-stretch:normal;text-indent:0;text-align:start;text-decoration:none;line-height:normal;letter-spacing:normal;word-spacing:normal;text-transform:none;direction:ltr;block-progression:tb;writing-mode:lr-tb;text-anchor:start;baseline-shift:baseline;color:#000000;fill:#a7b0c5;fill-opacity:1;stroke:none;stroke-width:1;marker:none;visibility:visible;display:inline;overflow:visible;enable-background:accumulate;font-family:Sans;-inkscape-font-specification:Sans" />
    <path
       d="M 429.37316,215.0904 C 424.68179,204.52977 414.65214,198.23975 407.24762,189.84964"
       inkscape:connector-curvature="0"
       id="path3000"
       style="fill:none;stroke:#0000e9;stroke-width:1;stroke-miterlimit:4;stroke-opacity:1;stroke-dasharray:none;stroke-dashoffset:0" />
    <path
       d="M 369.79811,319.4758 C 373.99345,320.1985 374.22481,319.12694 378.71942,319.4258 386.30928,319.9653 387.03753,315.98748 393.446,314.45128 399.88361,312.23973 407.41124,313.25297 414.2078,314.65803 422.10001,314.70893 429.92011,318.48553 434.01803,325.38036 438.23027,331.47524 446.11903,331.40371 452.63104,332.64793 456.12546,332.9033 465.23591,336.13587 457.24846,337.36072 450.21085,337.17321 443.17644,336.90239 436.17866,335.90687 429.1594,335.12546 424.23099,334.65553 417.43324,335.91827 409.36328,337.17977 401.12408,333.95568 394.95254,329.7843 390.33334,325.46429 384.11584,323.14878 378.48696,323.28553 375.38844,322.64421 371.48773,324.32168 368.44145,323.37633"
       inkscape:connector-curvature="0"
       id="path3010"
       style="fill:none;stroke:#0000e9;stroke-width:1;stroke-miterlimit:4;stroke-opacity:1;stroke-dasharray:none;stroke-dashoffset:0" />
    <path
       d="M 529.73278,397.51484 C 521.77446,411.8222 502.77706,424.91118 486.37473,417.71853 472.20084,409.63802 454.85893,407.76271 440.15879,415.53943 L 438.20514,416.93252 436.46994,418.65441"
       inkscape:connector-curvature="0"
       id="path3015"
       style="fill:none;stroke:#0000e9;stroke-width:1;stroke-miterlimit:4;stroke-opacity:1;stroke-dasharray:none;stroke-dashoffset:0" />
    <path
       d="M 442.68749,414.30214 C 444.58954,410.7466 442.8924,415.43283 445.11766,412.23296 450.61505,408.03843 458.61145,402.85138 457.36594,394.94799 453.37774,389.13503 445.53249,387.80397 439.88312,383.96277 432.89506,381.26836 424.49858,387.69165 423.88322,394.84534 424.77158,402.79648 431.04066,409.70367 437.74007,413.69992 439.23769,414.48652 441.06679,415.45096 442.68749,414.30214 z"
       inkscape:connector-curvature="0"
       id="path3017"
       style="fill:none;stroke:#0000e9;stroke-width:1;stroke-miterlimit:4;stroke-opacity:1;stroke-dasharray:none;stroke-dashoffset:0" />
    <path
       d="M 529.11103,393.16257 C 528.63333,390.01328 525.32823,387.98192 522.12528,387.52821 516.23057,386.4053 509.8907,386.89298 504.51668,383.77117 498.06716,380.43549 490.08528,374.86248 484.70879,370.13413 477.56077,362.31149 472.98454,353.47586 463.90168,349.44905 453.7703,345.84979 448.30524,343.85384 439.65704,339.06357 438.66881,338.92733 436.39251,336.96433 435.06041,335.72512"
       inkscape:connector-curvature="0"
       id="path3019"
       style="fill:none;stroke:#0000e9;stroke-width:1;stroke-miterlimit:4;stroke-opacity:1;stroke-dasharray:none;stroke-dashoffset:0" />
    <path
       d="M 567.03791,353.99219 C 555.84637,354.40669 546.31284,360.62421 538.43731,372.64475"
       inkscape:connector-curvature="0"
       id="path3039"
       style="fill:none;stroke:#0000e9;stroke-width:1;stroke-miterlimit:4;stroke-opacity:1;stroke-dasharray:none;stroke-dashoffset:0" />
    <path
       d="M 432.11771,270.05566 C 441.18606,279.74124 446.65155,300.23538 450.77027,324.76984"
       inkscape:connector-curvature="0"
       id="path3041"
       style="fill:none;stroke:#0000e9;stroke-width:1;stroke-miterlimit:4;stroke-opacity:1;stroke-dasharray:none;stroke-dashoffset:0" />
    <path
       d="M 442.06574,285.59946 C 440.61943,279.8166 441.17166,254.38467 446.30933,271.1266 448.63805,289.54368 460.444,307.48316 453.07907,323.02932 L 450.77023,324.14812"
       inkscape:connector-curvature="0"
       id="path3043"
       style="fill:none;stroke:#0000e9;stroke-width:1;stroke-miterlimit:4;stroke-opacity:1;stroke-dasharray:none;stroke-dashoffset:0" />
    <path
       d="M 534.06236,376.3678 C 537.71735,365.2553 519.46327,357.51343 506.10621,349.01817 494.56391,338.2157 468.84865,331.31634 450.14852,322.90459"
       inkscape:connector-curvature="0"
       id="path3053"
       style="fill:none;stroke:#0000e9;stroke-width:1;stroke-miterlimit:4;stroke-opacity:1;stroke-dasharray:none;stroke-dashoffset:0" />
    <path
       d="M 448.90501,344.04416 C 438.06518,351.70272 435.89732,364.23967 435.22647,377.61877"
       inkscape:connector-curvature="0"
       id="path3055"
       style="fill:none;stroke:#0000e9;stroke-width:1;stroke-miterlimit:4;stroke-opacity:1;stroke-dasharray:none;stroke-dashoffset:0" />
    <path
       d="M 437.09172,381.97104 C 435.73637,381.86932 435.36433,380.22929 435.35244,379.1004 435.29094,377.55345 436.16811,375.70999 437.87544,375.54928 438.90361,375.59938 439.92022,375.54528 440.95341,375.48358 444.14029,377.63089 449.66355,379.85532 456.14173,381.28427 458.54083,383.85222 462.44495,384.50265 464.50779,387.43913 465.27992,388.49021 465.54023,389.97654 464.76604,391.09895 463.71381,392.48057 461.77806,392.21836 460.25258,392.10051 459.37356,392.01911 455.85666,392.55045 454.97167,392.57866"
       inkscape:connector-curvature="0"
       id="path3057"
       style="fill:none;stroke:#0000e9;stroke-width:1;stroke-miterlimit:4;stroke-opacity:1;stroke-dasharray:none;stroke-dashoffset:0" />
    <path
       d="M 464.95742,389.61416 C 469.03846,391.23905 475.78551,388.57435 479.95524,390.24496 489.31012,389.77026 493.67583,390.62838 493.83586,397.8651 494.39433,403.00794 489.64651,406.49567 485.54828,408.46679 481.10302,409.77842 476.30298,405.90981 471.95776,408.90457 469.86204,409.82988 468.19517,413.06841 470.41952,409.5474"
       inkscape:connector-curvature="0"
       id="path3059"
       style="fill:none;stroke:#0000e9;stroke-width:1;stroke-miterlimit:4;stroke-opacity:1;stroke-dasharray:none;stroke-dashoffset:0" />
    <path
       d="M 588.29061,392.76064 C 575.44107,393.25032 560.61313,397.22877 547.76359,405.59762"
       inkscape:connector-curvature="0"
       id="path3006"
       style="fill:none;stroke:#0000e9;stroke-width:1;stroke-miterlimit:4;stroke-opacity:1;stroke-dasharray:none;stroke-dashoffset:0" />
    <path
       d="M 431.31383,271.07934 419.03077,314.41988"
       inkscape:connector-curvature="0"
       id="path3009"
       style="fill:none;stroke:#0000e9;stroke-width:1;stroke-miterlimit:4;stroke-opacity:1;stroke-dasharray:none;stroke-dashoffset:0" />
    <path
       d="M 450.77026,324.14809 449.52676,331.60912"
       inkscape:connector-curvature="0"
       id="path3011"
       style="fill:none;stroke:#0000e9;stroke-width:1;stroke-miterlimit:4;stroke-opacity:1;stroke-dasharray:none;stroke-dashoffset:0" />
    <path
       d="M 431.49595,322.28284 C 431.31665,326.7952 431.23547,331.32392 426.21105,335.02876"
       inkscape:connector-curvature="0"
       id="path3024"
       style="fill:none;stroke:#0000e9;stroke-width:1;stroke-miterlimit:4;stroke-opacity:1;stroke-dasharray:none;stroke-dashoffset:0" />
    <path
       d="M 431.98828,323.92613 C 430.82784,324.93356 431.71339,326.88417 431.04594,328.18124 430.5509,330.53535 429.02622,332.39342 427.68459,334.26275 427.9287,335.61489 430.03559,334.88852 431.02502,335.28404 439.91877,336.07311 448.84187,337.27753 457.77524,337.06768 458.82795,337.15908 460.91455,336.11634 459.50081,335.06909 454.38662,332.19371 448.21811,332.62684 442.71556,330.92352 438.95279,330.12043 435.52372,327.98388 433.33865,324.83932 432.96375,324.47397 432.60025,323.82486 431.98828,323.92613 z"
       inkscape:connector-curvature="0"
       id="path3034"
       style="fill:#d68d95;stroke:none" />
    <path
       d="M 564.66435,354.43084 C 554.53916,355.53691 545.79755,362.33042 540.24115,370.56725 539.93538,371.97868 541.78681,371.42036 542.35717,370.84097 550.28873,366.13075 559.67549,363.32301 565.89223,356.18542 567.64484,355.1614 566.27142,354.15883 564.86836,354.42112 L 564.83916,354.42112 564.6643,354.43112 z"
       inkscape:connector-curvature="0"
       id="path3038"
       style="fill:#a5c0bd;stroke:none" />
    <path
       d="M 584.39526,393.27091 C 571.95074,394.29769 559.81265,398.53962 549.16912,404.98705 548.5506,406.21368 550.26418,407.22376 550.41262,408.46498 550.95799,409.61762 550.86197,411.00168 551.46183,412.10806 552.9863,412.33146 554.32322,410.77902 555.76328,410.32488 565.72208,405.02819 575.80089,399.91877 585.5999,394.35898 586.30712,393.44752 585.10852,393.10807 584.39526,393.27091 z"
       inkscape:connector-curvature="0"
       id="path3040"
       style="fill:#6abbd5;stroke:none" />
    <path
       d="M 439.55617,375.67727 C 437.96967,375.62897 436.13253,376.13702 435.76737,377.90198 435.15537,379.30633 435.81837,380.88338 436.82629,381.77821 436.08057,382.57396 436.85099,383.62773 437.84635,383.35202 443.39041,385.4757 448.82173,388.20605 453.95361,391.26965 455.54016,393.18316 458.22253,391.86526 460.35572,392.07598 462.13631,392.04228 465.29836,391.81522 464.97028,389.26838 464.25902,385.82138 460.30544,384.68926 457.81042,382.79828 453.82681,380.16997 448.8322,379.86019 444.6079,377.66882 442.87593,377.1152 441.49418,375.39049 439.55617,375.67727 z"
       inkscape:connector-curvature="0"
       id="path3042"
       style="fill:#a1d081;stroke:none" />
    <path
       d="M 435.51478,383.76005 C 431.46707,383.74515 428.14065,386.84402 425.89705,389.929 423.88373,392.51215 423.77381,396.02279 425.09072,398.9444 427.5164,405.47214 432.80568,410.57139 438.75755,413.96322 440.09047,414.76599 442.0434,415.10119 442.92723,413.46814 444.5831,412.28154 446.46953,411.20606 448.0238,409.77234 452.12348,406.49624 456.78602,402.69174 457.24696,397.05 457.78387,395.10135 456.46739,393.86469 455.06111,392.77545 450.66484,388.89913 444.78758,387.27181 439.88647,384.16807 438.51876,383.57426 436.96237,383.80802 435.51478,383.76005 z"
       inkscape:connector-curvature="0"
       id="path3044"
       style="fill:#a4a7da;stroke:none" />
    <path
       d="M 530.11824,397.64261 C 527.5518,401.27396 525.0045,404.93401 521.69545,407.98895 514.54126,415.16022 504.77481,420.43743 494.39664,419.70509 487.27877,419.5745 481.59466,414.75163 474.88381,413.01624 463.79478,409.59835 451.15406,409.98717 440.80939,415.49855 439.15914,416.48295 437.52154,417.69919 436.42798,419.27764 438.83195,421.84657 441.14253,424.68454 442.37348,428.03074 443.55788,430.33696 446.64918,430.41934 448.65109,431.72359 462.90467,438.00792 478.0538,443.04233 493.74575,443.66198 506.77391,444.23986 520.12849,441.21055 530.93133,433.76596 538.46153,428.49557 545.08667,421.86873 550.36405,414.35219 551.8055,410.53656 549.60249,405.83605 545.98264,404.13214 541.0367,401.44066 535.10495,400.8503 530.4777,397.60375 L 530.4194,397.59375 530.11823,397.64235 z"
       inkscape:connector-curvature="0"
       id="path3048"
       style="fill:#c7a1db;stroke:none" />
    <path
       d="M 448.91159,344.2205 C 443.84936,348.00889 440.01713,353.38961 438.28352,359.46314 436.60643,364.59239 435.88292,370.06603 435.58278,375.45383 436.61323,376.34438 438.0925,374.97794 439.36187,375.24982 442.47797,375.49625 444.89843,377.80717 447.88194,378.60243 451.39693,380.20754 455.62042,380.30018 458.62647,382.89543 461.37859,384.63614 464.75238,386.19165 465.66976,389.62783 468.22164,390.27443 471.11892,389.67543 473.81078,389.832 479.32012,389.98586 485.07975,389.32459 490.37469,391.08507 493.95257,392.62899 494.27962,397.25127 493.6486,400.63479 492.70888,404.32526 489.14029,406.79231 485.85727,408.35812 481.42924,409.94532 476.37512,406.29617 472.13015,409.05759 471.36982,409.4167 469.43803,410.47952 470.71178,411.3503 475.67264,412.83391 480.58513,414.43285 485.18694,416.87806 490.2731,419.48521 496.17621,420.22244 501.74996,418.89153 513.28128,416.41503 522.89768,408.15782 529.03018,398.30322 530.20579,396.88789 528.70347,395.34755 529.01078,393.76637 528.48391,389.80233 524.31637,387.76599 520.6985,387.54992 514.51908,386.59387 507.99662,386.45214 502.65432,382.92457 496.08676,379.15896 489.65725,374.88255 484.14748,369.69291 478.33042,363.37979 473.75306,355.5663 466.28456,350.953 460.9001,348.16281 454.96672,346.5845 449.40708,344.14278 L 449.09996,344.19098 448.91162,344.22048 z"
       inkscape:connector-curvature="0"
       id="path3050"
       style="fill:#818fb2;stroke:none" />
    <path
       d="M 589.12445,257.53187 C 598.65231,264.22166 606.37596,273.01637 608.90848,287.86738 605.43114,292.10374 598.12337,290.59445 590.00374,287.86738"
       inkscape:connector-curvature="0"
       id="path3029"
       style="fill:none;stroke:#0000e9;stroke-width:1;stroke-miterlimit:4;stroke-opacity:1;stroke-dasharray:none;stroke-dashoffset:0" />
    <path
       d="M 609.34813,286.54844 C 607.52799,300.12351 611.29872,315.93492 598.79665,325.23721 593.84738,328.48736 589.38495,327.84281 585.60729,321.72005"
       inkscape:connector-curvature="0"
       id="path3033"
       style="fill:none;stroke:#0000e9;stroke-width:1;stroke-miterlimit:4;stroke-opacity:1;stroke-dasharray:none;stroke-dashoffset:0" />
    <path
       d="M 599.67594,325.67686 C 604.49074,347.00817 585.25454,355.67548 578.13333,356.45202 574.23078,356.04252 571.65196,354.23011 570.65936,350.73663"
       inkscape:connector-curvature="0"
       id="path3035"
       style="fill:none;stroke:#0000e9;stroke-width:1;stroke-miterlimit:4;stroke-opacity:1;stroke-dasharray:none;stroke-dashoffset:0" />
    <path
       d="M 579.89191,356.01237 578.57297,356.01237"
       inkscape:connector-curvature="0"
       id="path3037"
       style="fill:none;stroke:#0000e9;stroke-width:1;stroke-miterlimit:4;stroke-opacity:1;stroke-dasharray:none;stroke-dashoffset:0" />
    <path
       d="M 529.77236,390.74434 C 541.89576,391.14987 540.46387,381.6261 553.45612,375.03125 570.38017,366.44063 576.80598,362.50578 578.57297,355.57273"
       inkscape:connector-curvature="0"
       id="path3045"
       style="fill:none;stroke:#0000e9;stroke-width:1;stroke-miterlimit:4;stroke-opacity:1;stroke-dasharray:none;stroke-dashoffset:0" />
    <path
       d="M 547.35817,379.75321 C 558.81775,375.79168 570.25479,371.57271 581.38894,366.90056 591.75844,358.8059 603.04289,350.92724 611.13409,340.52487 614.24228,330.82198 627.81544,326.18921 621.68283,342.0601 615.04778,352.40277 603.09588,357.7144 593.44923,364.87052 581.00311,373.33092 567.12358,379.33168 552.75079,383.59323 545.27051,386.94014 539.11249,392.59066 533.72917,398.65799"
       inkscape:connector-curvature="0"
       id="path3047"
       style="fill:none;stroke:#0000e9;stroke-width:1;stroke-miterlimit:4;stroke-opacity:1;stroke-dasharray:none;stroke-dashoffset:0" />
    <path
       d="M 585.6999,323.66285 C 584.18263,325.53662 584.08538,328.42472 582.99333,330.61474 580.61206,337.66187 576.74988,344.01956 572.27698,349.87669 570.74379,351.76198 572.12147,354.13943 574.15921,354.85018 578.68297,357.4093 583.89634,354.56051 587.95308,352.39091 595.57987,348.22029 600.76531,339.69716 599.94715,330.86204 599.80496,329.13072 600.02505,327.18713 599.16403,325.64126 595.85073,327.13514 591.19836,328.46356 588.33777,325.27031 587.55246,324.71471 586.7977,323.59518 585.6999,323.66285 z"
       inkscape:connector-curvature="0"
       id="path3056"
       style="fill:#c9ca98;stroke:none" />
    <path
       d="M 569.74902,351.99249 C 566.10273,357.48192 561.13925,361.84882 555.1959,364.67359 546.76663,369.15246 536.61648,372.90757 532.28302,382.0807 531.01294,384.72888 529.93103,387.65345 530.0161,390.59882 534.20744,390.93238 538.05172,388.56882 540.75489,385.47595 545.36366,380.50585 550.2725,376.01095 556.46691,373.13633 563.5836,369.03553 572.01434,365.8869 576.81082,358.88942 577.77342,358.0084 577.78238,356.00022 576.0964,356.25155 573.55362,355.63844 571.78881,353.53811 570.13371,351.80014 L 569.74902,351.99249 z"
       inkscape:connector-curvature="0"
       id="path3060"
       style="fill:#7c797c;stroke:none" />
    <path
       d="M 619.77239,332.09854 C 615.17804,333.09221 612.96827,337.65188 610.71243,341.30938 602.23541,351.4609 591.59074,359.49828 581.01738,367.37463 569.61792,371.88444 558.12088,376.17766 546.58522,380.29464 542.03467,384.6856 537.89705,391.0644 530.84963,391.04287 528.57553,390.99117 529.64238,394.1745 529.72758,395.68222 530.42258,396.94895 531.95302,398.67507 533.40961,398.38878 540.33879,391.40813 547.83181,384.25728 557.63622,381.74932 570.02817,377.60155 582.05102,372.22065 592.86977,364.81935 602.70839,358.06023 613.77586,352.26771 620.95394,342.45768 622.38696,339.63721 623.63035,335.88076 622.23166,332.84045 621.62253,332.15765 620.65232,331.96691 619.77239,332.09854 z"
       inkscape:connector-curvature="0"
       id="path3062"
       style="fill:#d5be93;stroke:none" />
    <path
       d="M 474.02454,390.07675 C 470.78398,390.59833 466.52849,389.11184 464.09131,391.94524 461.8382,393.07223 458.61791,391.40204 456.68604,393.20922 456.48532,394.36582 458.13633,394.86808 457.74393,396.16309 457.83563,401.95502 453.05627,405.75296 449.3632,409.50357 448.18109,410.02195 447.55198,412.2081 449.4044,411.71553 455.87586,410.03624 462.56817,410.8453 469.14721,410.61642 471.33754,408.67323 474.6662,406.88425 477.89639,407.72313 481.56817,408.41572 485.74433,408.9601 488.77241,406.23334 493.39627,403.54461 495.44447,396.19604 491.39051,392.22002 487.00528,389.85173 481.63801,390.75162 476.84131,390.10149 475.903,390.06629 474.96341,390.05709 474.02452,390.07679 z"
       inkscape:connector-curvature="0"
       id="path3046"
       style="fill:#dbafbc;stroke:none" />
    <path
       d="M 401.23855,313.33395 C 396.13189,313.35895 391.10647,314.91405 386.8127,317.68231 382.54622,320.41612 377.28446,319.32349 372.49787,319.80216 371.11112,319.6226 369.67221,320.01676 370.20922,321.72155 369.6314,323.62789 371.33821,323.71574 372.72921,323.35082 377.74693,323.06598 383.02598,322.89891 387.68313,325.0387 392.00883,326.68634 395.20578,330.20901 399.35632,332.20434 405.04521,335.21714 411.63952,336.7151 418.05498,335.66654 420.76237,335.17681 423.56599,335.35372 426.25024,334.91777 428.70084,332.86415 430.55522,330.06248 430.96654,326.84951 431.12009,325.23788 431.58184,323.53343 431.2512,321.95511 426.99872,317.59462 421.05441,315.11777 415.01868,314.79714 410.43886,314.15734 405.89008,313.17734 401.23855,313.33395 z"
       inkscape:connector-curvature="0"
       id="path3049"
       style="fill:#bfb879;stroke:none" />
    <path
       d="M 432.4327,271.37738 C 430.85989,272.25712 430.86985,274.60836 430.15465,276.12368 426.37431,288.84143 422.85836,301.67593 419.22047,314.42399 419.7585,315.7511 421.90564,315.50456 423.08465,316.23839 428.11275,318.02046 431.893,321.92934 434.95857,326.10127 438.27103,329.95145 443.61268,331.46154 448.53906,331.55662 450.31283,331.3019 449.52124,328.57527 450.11155,327.23707 450.982,322.30091 448.98442,317.45406 448.31915,312.61552 445.55962,299.5995 442.43302,286.32154 435.5026,274.81644 434.51528,273.74351 434.02271,271.70391 432.48128,271.36766 L 432.43268,271.37766 z"
       inkscape:connector-curvature="0"
       id="path3849"
       style="fill:#79a89f;stroke:none" />
    <path
       d="M 443.39108,266.1022 C 441.84682,267.08416 442.20813,269.51482 441.81548,271.11353 441.23794,275.86922 441.80118,280.65147 441.963,285.39594 441.22912,286.96372 442.6173,288.77606 442.92975,290.37213 446.52125,300.89012 448.45093,311.90139 450.72581,322.71078 451.71434,324.10147 453.36793,322.50946 453.58199,321.31184 456.62006,313.03294 454.86306,303.93349 452.43932,295.71782 450.0114,287.53273 447.5384,279.34142 445.90712,270.96954 445.30742,269.37596 445.16831,267.21066 443.7311,266.11191 443.6204,266.09651 443.50244,266.07861 443.39108,266.10191 z"
       inkscape:connector-curvature="0"
       id="path3853"
       style="fill:#9de082;stroke:none" />
    <path
       d="M 448.54438,174.32365 C 444.18102,175.24992 440.02056,177.09826 435.77013,178.47984 426.30342,181.88903 416.77834,185.16846 407.38947,188.74951 406.84798,189.76624 408.3226,190.53331 408.79771,191.29121 415.02565,197.80058 422.2853,203.46952 427.37958,210.91037 427.68657,211.67988 428.87734,211.82246 428.93208,210.84167 428.90208,210.07389 430.10146,210.72056 430.60136,210.62184 431.3456,210.84466 432.27762,210.92654 432.60037,210.0242 436.69617,201.80727 442.31401,194.4984 446.85449,186.56501 448.71013,182.93192 450.06499,178.92279 450.34417,174.85259 450.06067,174.15515 449.12631,174.35396 448.54438,174.32364 z"
       inkscape:connector-curvature="0"
       id="path3052"
       style="fill:#a7b0c5;stroke:none" />
    <path
       d="M 445.14069,153.55578 C 449.22052,157.53452 446.11274,157.021 446.01999,158.39188 420.3324,152.26623 435.89944,173.83207 395.90044,178.61556"
       inkscape:connector-curvature="0"
       id="path3051"
       style="fill:none;stroke:#0000e9;stroke-width:1;stroke-linecap:round;stroke-miterlimit:4;stroke-opacity:1;stroke-dasharray:none;stroke-dashoffset:0" />
    <path
       d="M 429.77218,151.90176 C 428.53606,151.90576 426.74799,151.94316 426.53667,153.52295 423.05059,161.80724 416.0548,167.96663 408.64174,172.6956 406.77482,173.9837 404.46694,174.77417 402.8027,176.26084 402.26238,177.2299 403.68166,177.44982 404.302,177.08613 411.87281,175.35603 419.45616,172.16956 424.59261,166.13527 427.33255,163.25962 429.63699,159.56768 433.45421,157.99496 437.29285,156.6938 441.40971,157.52471 445.31776,157.98796 446.46278,157.95396 447.67325,156.56788 446.64356,155.56992 445.83316,154.18125 444.46892,153.13031 442.80756,153.02756 438.5207,152.2446 434.13356,151.85432 429.77218,151.90163 z"
       inkscape:connector-curvature="0"
       id="path3063"
       style="fill:#b46a9f;stroke:none" />
    <path
       d="M 446.99639,154.01202 C 445.97686,154.40279 446.95819,155.43092 447.18097,156.08129 447.5805,157.06754 446.40524,157.63927 446.08805,158.43715 443.38962,157.93345 440.6637,157.33422 437.8887,157.48179 435.20591,157.33072 432.51724,158.30639 430.47624,160.03039 426.6118,163.69156 423.75516,168.33467 419.2342,171.26121 412.68586,175.73209 404.78581,177.3958 397.08244,178.57342 393.66161,179.25567 390.39971,180.52114 386.93902,180.99509 382.33491,181.83307 377.63294,181.90316 372.97389,181.51969 370.83466,181.55319 368.76901,182.29703 366.6155,182.16573 362.20329,182.27207 357.75496,182.13233 353.47505,181.03876 351.66076,180.65215 349.87083,180.13353 348.04552,179.80988 347.13942,180.10815 347.58444,181.34377 347.34845,182.06561 347.04591,185.63912 346.58095,189.22645 346.469,192.80412 347.0399,193.56148 348.26491,193.41991 349.08015,193.82358 357.0554,196.12303 365.0481,198.36408 373.03218,200.63371 375.80294,199.87121 378.49696,198.70584 381.23801,197.78739 403.15401,189.91768 425.07032,182.04882 446.98668,174.1801 454.17299,174.1689 461.39147,174.01861 468.52016,175.03114 486.95619,177.20951 504.51316,183.64818 521.61474,190.64195 526.03374,192.46161 530.51323,194.18628 534.88427,196.09021 546.82423,206.04142 558.5829,216.33961 567.63736,229.04842 575.72171,240.36563 581.7122,253.24017 585.26749,266.69462 585.99385,278.31615 586.59827,289.97725 585.85599,301.615 585.45442,309.72017 584.43291,317.78532 582.95609,325.75161 582.91549,326.63476 584.20504,326.52474 584.32589,325.76621 585.73198,321.62581 586.36133,317.25256 587.11917,312.95997 587.6843,308.88329 588.17511,304.80761 589.10175,300.79498 589.84902,296.77149 590.67873,292.7393 591.034,288.66511 591.0932,288.17593 590.32988,288.26585 590.39282,287.94135 591.39104,287.98145 591.2933,286.67688 591.37889,285.9838 591.62453,278.58205 591.16634,271.15122 590.05491,263.83233 588.57884,257.91922 585.88277,252.41501 583.33001,246.90512 579.37317,238.78245 575.15792,230.77358 570.47372,223.05692 559.76806,207.02756 544.85368,194.13712 528.35339,184.34497 513.73606,175.66505 497.93013,169.11893 481.72071,164.09923 476.72804,162.62201 471.65302,161.50165 466.71717,159.85512 460.3175,157.87671 453.98093,155.68012 447.48699,154.04606 447.32043,154.01516 447.16345,153.99676 446.99639,154.01206 z"
       inkscape:connector-curvature="0"
       id="path3066"
       style="fill:#73a0a6;stroke:none" />
    <path
       d="M 589.03275,258.06321 C 588.30673,258.7195 589.17686,259.72747 589.28533,260.47735 590.8299,265.28049 591.63026,270.31766 591.73541,275.38454 591.94825,279.47801 591.68761,283.57196 591.43718,287.65472 591.6897,288.7185 593.12998,288.60834 593.9339,288.9808 596.96727,289.8009 600.07868,290.5713 603.26011,290.30224 605.22268,290.29224 607.29427,289.51299 608.56936,287.99474 609.03571,287.0576 608.26914,285.99467 608.21972,285.03059 606.12834,275.26907 600.4549,266.367 592.54233,260.27058 591.45927,259.52871 590.50839,258.43636 589.25619,258.00978 L 589.10501,258.04598 589.03271,258.06328 z"
       inkscape:connector-curvature="0"
       id="path3068"
       style="fill:#d39ccd;stroke:none" />
    <path
       d="M 591.41289,288.75736 C 590.89031,290.27112 590.90876,291.97057 590.56676,293.54959 589.86801,298.41095 588.63895,303.20147 587.93497,308.06568 587.44603,312.5826 586.66141,317.0431 585.71997,321.48678 586.38171,323.13539 587.78794,324.43549 589.12504,325.59131 591.1272,327.19801 593.96875,327.45638 596.29364,326.41873 601.36888,324.24895 604.69046,319.34686 606.50009,314.30263 608.41437,308.72219 608.30508,302.72102 608.61313,296.89412 608.69573,294.29014 608.84706,291.65762 608.96764,289.07938 608.52186,288.14646 607.64083,289.31169 607.01498,289.52483 603.53591,291.24699 599.43698,290.48875 595.79372,289.65404 594.44085,289.3604 593.13032,288.85321 591.76263,288.61164 591.64605,288.66024 591.52947,288.70874 591.41289,288.75736 z"
       inkscape:connector-curvature="0"
       id="path3070"
       style="fill:#bc90cc;stroke:none" />
    <path
       d="M 451.62067,324.09813 C 450.25522,325.00405 450.63888,327.21264 450.18372,328.6313 450.13892,329.74214 449.02578,331.89668 450.84348,332.15177 454.02002,332.77934 457.5388,333.20122 460.16976,335.20224 461.35048,336.11287 459.83721,337.04064 458.89711,337.1355 452.03654,337.77043 445.1347,336.79123 438.29186,336.52346 436.83717,336.89626 438.23476,338.33324 439.04962,338.55387 447.17544,343.14179 455.97941,346.21838 464.59975,349.70655 472.26974,353.08819 476.66943,360.73902 482.124,366.72132 488.07173,373.74368 496.0825,378.71979 504.03243,383.22287 510.59626,387.2451 518.78171,385.85842 525.74518,388.53691 527.03667,388.76715 527.61165,390.93907 529.00938,390.37302 529.9615,388.72302 529.81076,386.58428 530.66091,384.8064 531.52136,381.98184 533.23931,379.5129 534.68287,377.01507 534.78087,376.28766 533.9289,375.85393 534.19712,375.00409 534.46105,372.32429 533.88217,369.61065 532.07928,367.55278 525.92247,359.91163 516.56906,356.00352 508.57889,350.63592 503.72123,347.61218 499.43888,343.69789 494.16212,341.3129 480.82527,334.77725 466.68861,329.99805 452.93218,324.37015 452.5054,324.25646 452.07133,324.04939 451.62067,324.09813 z"
       inkscape:connector-curvature="0"
       id="path3054"
       style="fill:#e1aa66;stroke:none" />
    <path
       d="M 450.70164,174.53761 C 450.27601,181.7479 446.4668,188.24427 442.54072,194.15844 438.42293,200.45445 434.30957,206.80945 431.22332,213.66913 431.57587,232.40301 431.85701,251.13856 432.34053,269.86969 435.29843,273.44319 437.67573,277.54284 439.71412,281.72184 440.08131,282.83591 441.40556,282.2283 441.12278,281.16809 441.72673,276.16559 440.88786,270.90799 442.48286,266.07118 442.8507,265.1458 443.85006,265.25052 444.26068,266.10998 446.96473,269.93231 446.7293,274.94904 448.09812,279.30261 450.55661,289.38352 454.64619,299.13853 455.51051,309.5452 455.87335,314.15681 454.91548,318.67695 453.42181,322.99059 453.14339,324.81961 455.69682,324.7488 456.77823,325.501 470.96312,331.38114 485.77789,336.00549 499.10116,343.6347 503.3652,346.27875 507.12587,349.63912 511.56181,352.07043 518.85937,356.77208 527.18283,360.613 532.60777,367.54301 534.54105,369.7742 534.2756,372.87243 534.83248,375.58693 535.80127,376.64995 536.94138,374.72694 537.72751,374.21713 538.47928,373.73687 538.70214,372.88721 538.64071,372.16729 541.47991,367.74221 545.12755,363.73854 549.20078,360.40258 554.43193,356.50285 560.75018,353.96005 567.31902,353.93247 572.17659,349.41401 576.48632,344.06987 579.40433,338.07779 582.63718,328.6879 583.91809,318.75271 585.06197,308.91682 586.07611,296.09029 585.99615,283.1767 585.27212,270.33596 584.82059,263.03596 581.62592,256.35368 578.94871,249.66965 572.7352,235.01804 563.05422,222.07493 551.52322,211.20819 545.99043,205.9541 540.28603,200.79722 534.2919,196.09438 514.79813,188.30347 495.35185,179.72378 474.56138,176.10165 466.72638,174.80916 458.69672,174.36556 450.80413,174.494 L 450.70164,174.5376 z"
       inkscape:connector-curvature="0"
       id="path3058"
       style="fill:#d0cf6e;stroke:none" />
  </g>
</svg>
