<?xml version="1.0" encoding="UTF-8" standalone="no"?>
<!-- Created with Inkscape (http://www.inkscape.org/) -->

<svg
   xmlns:dc="http://purl.org/dc/elements/1.1/"
   xmlns:cc="http://creativecommons.org/ns#"
   xmlns:rdf="http://www.w3.org/1999/02/22-rdf-syntax-ns#"
   xmlns:svg="http://www.w3.org/2000/svg"
   xmlns="http://www.w3.org/2000/svg"
   xmlns:xlink="http://www.w3.org/1999/xlink"
   xmlns:inkscape="http://www.inkscape.org/namespaces/inkscape"
   version="1.1"
   width="740"
   height="520"
   id="svg2"
   style="enable-background:new">
  <defs
     id="defs4">
    <filter
       color-interpolation-filters="sRGB"
       id="filter3050">
      <feBlend
         in2="BackgroundImage"
         mode="lighten"
         id="feBlend3052" />
    </filter>
  </defs>
  <metadata
     id="metadata7">
    <rdf:RDF>
      <cc:Work
         rdf:about="">
        <dc:format>image/svg+xml</dc:format>
        <dc:type
           rdf:resource="http://purl.org/dc/dcmitype/StillImage" />
        <dc:title />
      </cc:Work>
    </rdf:RDF>
  </metadata>
  <g
     id="layer1"
     style="display:none">
    <image
       xlink:href="pngs/coronal-0532.png"
       id="MRISLICE"
       height="520"
       width="740"
       y="0"
       x="0" />
  </g>
  <g
     id="layer3"
     style="display:inline">
    <path
       d="M 372.23243,214.56361 369.32074,392.54082 M 374.29476,88.504047 372.62403,192.18185 C 365.21854,191.29069 356.80515,193.08727 350.51274,189.22789 L 350.04642,208.03589 C 357.84687,208.74841 364.91251,212.21174 372.23243,214.56361"
       inkscape:connector-curvature="0"
       id="path2990"
       style="fill:none;stroke:#0000e9;stroke-width:1;stroke-miterlimit:4;stroke-opacity:1;stroke-dasharray:none;stroke-dashoffset:0" />
    <path
       d="M 369.5341,392.72292 C 368.45465,407.04591 387.90091,402.67393 399.16484,403.11061 410.42809,411.49245 424.46643,407.38636 432.73946,429.22419 453.87903,435.92108 475.0186,441.38216 496.15817,444.768 521.29075,443.29649 534.11817,420.56934 548.38535,405.59761 L 586.31222,380.72753 C 635.51274,368.1296 647.80937,281.55838 652.21795,257.62062 645.00808,172.44089 615.88528,142.90847 583.82522,120.83516 546.82062,95.237075 502.17678,86.8273 458.85305,75.447253 425.50553,66.915 394.86989,65.743587 373.05126,88.504047"
       inkscape:connector-curvature="0"
       id="path2992"
       style="fill:none;stroke:#0000e9;stroke-width:1;stroke-miterlimit:4;stroke-opacity:1;stroke-dasharray:none;stroke-dashoffset:0" />
    <path
       d="M 583.82522,381.97104 C 547.96664,387.60248 544.73485,396.07104 546.52009,404.97586"
       inkscape:connector-curvature="0"
       id="path2994"
       style="fill:none;stroke:#0000e9;stroke-width:1;stroke-miterlimit:4;stroke-opacity:1;stroke-dasharray:none;stroke-dashoffset:0" />
    <path
       d="M 548.38535,393.78432 C 534.72538,377.88462 515.86906,403.55581 499.26693,411.19338 479.51436,418.43116 465.09667,409.66431 448.28326,408.08462 447.66151,408.91362 447.03976,409.74263 446.418,410.57163"
       inkscape:connector-curvature="0"
       id="path2996"
       style="fill:none;stroke:#0000e9;stroke-width:1;stroke-miterlimit:4;stroke-opacity:1;stroke-dasharray:none;stroke-dashoffset:0" />
    <path
       d="M 430.25245,424.25018 C 435.0982,418.59028 436.77422,411.34551 447.66151,408.70638"
       inkscape:connector-curvature="0"
       id="path2998"
       style="fill:none;stroke:#0000e9;stroke-width:1;stroke-miterlimit:4;stroke-opacity:1;stroke-dasharray:none;stroke-dashoffset:0" />
    <path
       d="M 372.58494,192.02577 C 390.92079,194.27051 407.76865,186.34379 422.79142,168.71007 430.94069,154.41302 439.61129,159.28035 454.13657,161.14237 476.29802,167.46639 495.01463,174.7841 514.24972,183.68249 527.80712,189.95431 538.80575,201.00666 550.395,210.04096 560.97963,224.57259 582.13591,251.69164 579.47295,283.11245 578.35283,298.58224 572.73699,310.13329 569.99993,322.89754 568.00291,332.21059 563.49431,341.78389 561.329,341.18646 565.08496,319.08817 575.78768,301.23481 574.75648,280.0037"
       inkscape:connector-curvature="0"
       id="path3000"
       style="fill:none;stroke:#0000e9;stroke-width:1;stroke-miterlimit:4;stroke-opacity:1;stroke-dasharray:none;stroke-dashoffset:0" />
    <path
       d="M 372.4295,214.71972 C 441.02948,192.33664 439.35906,176.14627 464.44881,183.01036 498.08188,192.40574 532.77623,188.00452 563.3074,237.72455 569.6293,252.12822 577.13569,266.13706 573.87718,283.7342"
       inkscape:connector-curvature="0"
       id="path3004"
       style="fill:none;stroke:#0000e9;stroke-width:1;stroke-miterlimit:4;stroke-opacity:1;stroke-dasharray:none;stroke-dashoffset:0" />
    <path
       d="M 435.22647,189.22789 C 427.96347,206.8442 424.46187,224.4605 427.14369,242.07681"
       inkscape:connector-curvature="0"
       id="path3039"
       style="fill:none;stroke:#0000e9;stroke-width:1;stroke-miterlimit:4;stroke-opacity:1;stroke-dasharray:none;stroke-dashoffset:0" />
    <path
       d="M 425.98587,232.78125 424.90625,232.90625 C 428.77576,256.02603 435.93323,279.72816 432.15017,301.125 L 433.26462,301.3125 C 437.1016,279.61068 429.84183,255.82003 425.98587,232.78125 z"
       inkscape:connector-curvature="0"
       id="path3006"
       style="font-size:medium;font-style:normal;font-variant:normal;font-weight:normal;font-stretch:normal;text-indent:0;text-align:start;text-decoration:none;line-height:normal;letter-spacing:normal;word-spacing:normal;text-transform:none;direction:ltr;block-progression:tb;writing-mode:lr-tb;text-anchor:start;baseline-shift:baseline;color:#000000;fill:#a7b0c5;fill-opacity:1;stroke:none;stroke-width:1;marker:none;visibility:visible;display:inline;overflow:visible;enable-background:accumulate;font-family:Sans;-inkscape-font-specification:Sans" />
    <path
       d="M 426.52193,242.69857 C 421.27856,224.54331 413.67265,213.26862 403.51711,201.66293"
       inkscape:connector-curvature="0"
       id="path3008"
       style="fill:none;stroke:#0000e9;stroke-width:1;stroke-miterlimit:4;stroke-opacity:1;stroke-dasharray:none;stroke-dashoffset:0" />
    <path
       d="M 437.71347,317.30882 C 430.54169,312.99256 418.24679,318.48595 419.34744,327.60173 421.94713,338.42944 437.6812,344.50452 445.93199,336.0863 450.23093,330.20636 445.16465,322.53523 440.2226,318.82025 439.43008,318.24805 438.59062,317.74046 437.71347,317.30882 z"
       inkscape:connector-curvature="0"
       id="path3010"
       style="fill:none;stroke:#0000e9;stroke-width:1;stroke-miterlimit:4;stroke-opacity:1;stroke-dasharray:none;stroke-dashoffset:0" />
    <path
       d="M 560.89474,340.91428 C 556.60018,344.53865 552.87041,343.43865 549.12806,347.66913 543.19289,354.37845 537.22607,361.22546 528.92443,366.22907 524.90177,371.76208 513.4305,389.02278 523.04843,394.25069"
       inkscape:connector-curvature="0"
       id="path3012"
       style="fill:none;stroke:#0000e9;stroke-width:1;stroke-miterlimit:4;stroke-opacity:1;stroke-dasharray:none;stroke-dashoffset:0" />
    <path
       d="M 548.38535,347.77467 C 545.70758,346.44048 541.71504,347.49911 539.4005,350.0006 533.96841,356.21569 526.94461,360.75616 521.33952,366.7773 517.91097,370.99312 515.00489,376.76262 516.5443,382.27023 517.1403,383.67912 518.50724,386.34353 520.40645,385.0798"
       inkscape:connector-curvature="0"
       id="path3014"
       style="fill:none;stroke:#0000e9;stroke-width:1;stroke-miterlimit:4;stroke-opacity:1;stroke-dasharray:none;stroke-dashoffset:0" />
    <path
       d="M 509.99216,403.42149 C 512.42407,370.69154 493.12298,395.9796 477.18233,390.76166 458.92687,382.12259 457.01858,353.81529 432.94474,352.90749 409.47135,351.16087 396.24999,321.30567 416.27274,305.89243 433.6906,290.21508 450.22686,314.97462 454.6864,330.34095 458.85468,339.56071 460.81512,356.04695 446.44151,355.24586 L 445.1745,356.47924"
       inkscape:connector-curvature="0"
       id="path3016"
       style="fill:none;stroke:#0000e9;stroke-width:1;stroke-miterlimit:4;stroke-opacity:1;stroke-dasharray:none;stroke-dashoffset:0" />
    <path
       d="M 457.60954,336.58313 C 463.65266,343.92265 466.67882,353.59323 474.38709,359.55554 476.19562,360.93383 478.22533,362.02095 480.37679,362.7575 486.57947,368.09477 494.61968,371.59356 499.07837,378.74261 500.49725,381.29888 501.83935,384.5186 500.5704,387.38745 L 500.527,387.5173 500.5105,387.5668"
       inkscape:connector-curvature="0"
       id="path3018"
       style="fill:none;stroke:#0000e9;stroke-width:1;stroke-miterlimit:4;stroke-opacity:1;stroke-dasharray:none;stroke-dashoffset:0" />
    <path
       d="M 434.60471,391.91907 C 437.8092,398.8704 430.91362,406.03104 423.71283,404.5671 414.85746,405.39533 407.45712,399.91633 399.78651,396.489 389.79573,391.63723 396.43695,378.33863 404.81008,375.94446 412.97594,372.7864 421.41113,377.7128 426.05137,384.38654 428.11435,387.9073 432.83002,388.41595 434.60471,391.91907 z"
       inkscape:connector-curvature="0"
       id="path3020"
       style="fill:none;stroke:#0000e9;stroke-width:1;stroke-miterlimit:4;stroke-opacity:1;stroke-dasharray:none;stroke-dashoffset:0" />
    <path
       d="M 435.84822,392.54082 C 445.77658,386.69358 438.14457,373.0358 428.9366,371.31216 423.74143,365.39519 409.30256,371.05912 413.13888,375.28563 L 413.4652,373.88823"
       inkscape:connector-curvature="0"
       id="path3022"
       style="fill:none;stroke:#0000e9;stroke-width:1;stroke-miterlimit:4;stroke-opacity:1;stroke-dasharray:none;stroke-dashoffset:0" />
    <path
       d="M 416.5739,370.15775 C 411.09102,359.36988 403.21735,347.69062 411.44445,341.09083"
       inkscape:connector-curvature="0"
       id="path3024"
       style="fill:none;stroke:#0000e9;stroke-width:1;stroke-miterlimit:4;stroke-opacity:1;stroke-dasharray:none;stroke-dashoffset:0" />
    <path
       d="M 439.42329,389.5875 C 463.41275,390.91593 468.17641,416.48971 430.25245,403.11061"
       inkscape:connector-curvature="0"
       id="path3026"
       style="fill:none;stroke:#0000e9;stroke-width:1;stroke-miterlimit:4;stroke-opacity:1;stroke-dasharray:none;stroke-dashoffset:0" />
    <path
       d="M 431.43596,316.3269 C 425.64172,316.293 419.08963,320.76369 419.66172,327.08446 421.74406,337.02404 434.88397,343.22205 443.60864,337.48482 448.50541,334.67437 447.83893,327.69306 444.5841,323.93825 441.42548,319.96091 436.99479,315.5357 431.43596,316.3269 z"
       inkscape:connector-curvature="0"
       id="path3011"
       style="fill:#bfb879;stroke:none" />
    <path
       d="M 427.14942,301.25531 C 419.82937,301.85813 414.06059,307.6398 410.07196,313.37303 406.29289,318.80696 406.50379,325.94872 407.76382,332.1816 411.09864,342.33028 419.98834,350.90048 430.81771,352.26789 435.53983,353.0378 440.43261,353.70325 444.74897,355.73009 446.00455,355.51653 446.89838,354.4744 448.3623,354.83706 452.52434,354.82356 456.38363,351.8298 456.93538,347.59666 458.6666,340.30805 455.34091,333.01756 452.8824,326.30135 448.68438,316.48387 442.7146,305.98033 432.23282,301.99722 430.59492,301.47203 428.87473,301.16123 427.14942,301.25531 z M 431.5184,315.7636 C 439.0108,315.46658 445.13377,321.85426 447.35936,328.56827 448.98775,333.75114 444.8024,338.97216 439.70679,339.77922 431.3402,341.64401 421.53381,336.46855 419.38694,328.00497 418.06484,321.73955 423.88066,316.56336 429.66364,315.95595 430.27734,315.85567 430.897,315.78969 431.5184,315.7636 z"
       inkscape:connector-curvature="0"
       id="path3013"
       style="fill:#79a89f;stroke:none" />
    <path
       d="M 537.19809,389.12938 C 528.36126,390.07705 521.66327,396.68661 514.57658,401.39723 507.2469,406.68988 499.84051,412.89201 490.4624,413.58947 476.66489,415.83797 463.34283,410.36012 449.85984,408.56994 448.3419,408.15283 447.57514,409.79679 446.65867,410.34226 444.37416,408.7557 441.91663,411.65946 439.9953,412.66413 436.22676,415.69706 433.87796,420.05105 430.99632,423.86135 431.49342,426.57423 432.99572,429.86038 436.23521,430.05367 455.315,435.80675 474.62784,440.98096 494.31895,444.09876 502.61737,444.92852 510.78341,441.43728 517.56519,436.94079 529.44295,428.35071 538.23226,416.36089 547.9694,405.65729 548.33724,404.54362 546.87439,404.64307 546.37568,404.69557 545.31513,401.27409 546.40028,397.62211 547.9694,394.58373 546.98469,391.68158 543.53445,390.08458 540.70151,389.37668 539.55305,389.1302 538.36958,389.07797 537.19809,389.12938 z"
       inkscape:connector-curvature="0"
       id="path3015"
       style="fill:#c7a1db;stroke:none" />
    <path
       d="M 421.58516,369.2217 C 418.54398,369.43861 414.71466,370.26451 413.08078,373.0686 413.09828,373.94157 413.95576,374.3874 414.30354,375.10195 418.79031,376.92174 422.73765,380.00715 425.83049,383.71625 428.67716,386.79041 432.39945,388.95537 435.2966,391.84969 437.78518,392.10588 439.2371,389.03536 439.89913,387.02733 441.38147,380.18484 435.81161,374.05767 429.82161,371.70092 427.24213,370.18612 424.66967,368.9153 421.58516,369.2217 z"
       inkscape:connector-curvature="0"
       id="path3017"
       style="fill:#a1d081;stroke:none" />
    <path
       d="M 409.46745,375.41795 C 401.96717,375.65116 394.19392,382.49975 395.26141,390.39336 396.32236,395.85489 402.57613,397.23258 406.71966,399.65339 412.50581,402.64552 418.83441,405.05668 425.47328,404.35209 431.47684,404.69361 437.00889,397.98036 434.34861,392.26185 432.3238,388.94334 428.32733,387.559 425.9404,384.5818 422.471,381.04023 418.84849,376.45724 413.53416,376.00872 412.37354,375.65627 410.91247,375.21898 409.46745,375.41795 z"
       inkscape:connector-curvature="0"
       id="path3021"
       style="fill:#a4a7da;stroke:none" />
    <path
       d="M 578.92316,383.27661 C 569.47081,384.83247 559.60613,386.79018 551.59184,392.31057 547.64136,394.84231 545.41475,399.99924 546.93898,404.50322 548.56955,406.39056 550.58905,403.36159 552.12708,402.79949 561.42319,396.52618 571.08101,390.70681 580.09097,384.05972 580.35816,383.25494 579.44332,383.19787 578.92316,383.27661 z"
       inkscape:connector-curvature="0"
       id="path3023"
       style="fill:#6abbd5;stroke:none" />
    <path
       d="M 545.675,347.55544 C 540.24156,348.01521 537.27448,353.28 533.28304,356.30001 527.22612,362.01368 519.41119,367.17578 516.9332,375.61029 516.49646,378.34709 515.83212,382.03222 518.03231,384.14216 520.08464,384.41342 519.91229,381.20856 520.73935,379.97875 523.41739,374.34706 526.17662,368.2214 531.19419,364.38561 537.04221,360.02522 542.53985,355.01721 546.92524,349.19037 547.59021,348.19886 546.78629,347.29042 545.675,347.55544 z"
       inkscape:connector-curvature="0"
       id="path3025"
       style="fill:#a5c0bd;stroke:none" />
    <path
       d="M 458.35049,339.58687 C 457.15805,343.59193 458.34449,348.72616 455.41036,352.19919 453.43911,354.95122 449.79963,354.93256 446.94719,356.05983 446.83095,357.77674 449.2406,358.71766 450.10552,360.09745 458.76562,368.22463 463.23052,380.23784 472.77634,387.60436 476.15397,390.55111 480.72287,391.97994 485.1551,390.84675 490.40053,389.87322 495.38394,387.90392 500.44651,386.27169 501.39175,381.84272 498.05241,377.6278 495.17267,374.53359 490.22598,369.92109 484.47229,366.11127 478.87642,362.37972 475.08272,360.8122 471.75359,357.78569 469.16301,354.54855 465.49733,349.79168 462.84326,344.21978 459.11987,339.47696 458.88755,339.31075 458.53155,339.28039 458.35049,339.58687 z"
       inkscape:connector-curvature="0"
       id="path3027"
       style="fill:#e1aa66;stroke:none" />
    <path
       d="M 434.01888,188.66495 C 424.65016,193.42035 415.09009,198.10648 405.64803,202.73359 405.49497,204.62613 407.98835,206.00986 408.80889,207.6371 415.3753,215.96193 420.59014,225.36078 424.44286,235.1849 425.81966,236.59699 426.32755,233.87328 426.16022,232.8905 425.8732,218.09998 429.17271,203.46524 434.67835,189.83276 434.90519,189.34045 434.82403,188.39247 434.01888,188.66495 z"
       inkscape:connector-curvature="0"
       id="path3029"
       style="fill:#a7b0c5;stroke:none" />
    <path
       d="M 467.52487,383.52791 453.27412,394.70114"
       inkscape:connector-curvature="0"
       id="path3028"
       style="fill:none;stroke:#0000e9;stroke-width:1;stroke-miterlimit:4;stroke-opacity:1;stroke-dasharray:none;stroke-dashoffset:0" />
    <path
       d="M 411.2945,341.32852 C 409.36443,343.03015 408.0358,345.46146 408.02058,348.08036 407.93278,353.64029 410.82633,358.62186 413.20187,363.47137 414.25034,365.44523 415.18591,367.48563 416.3608,369.38508 417.28828,369.80343 418.38502,369.08641 419.35299,369.01592 422.49918,368.42836 425.99714,368.63586 428.55297,370.76459 429.90033,371.74217 431.7024,371.85023 433.04611,372.83386 437.53126,375.478 440.91663,380.5853 440.49256,385.89066 440.50686,387.05341 439.70301,388.08496 439.80766,389.218 440.49049,389.85237 441.62083,389.58853 442.48255,389.84231 446.33141,390.43208 450.07274,391.75596 453.33077,393.886 454.24291,394.31989 454.88086,393.07219 455.6177,392.72887 459.42948,389.74408 463.28558,386.78989 467.0676,383.77281 467.59352,382.81101 466.28104,382.10937 465.89211,381.35998 460.71494,374.79755 456.63897,367.32209 450.89533,361.18033 446.98835,357.11849 441.8471,354.10299 436.20529,353.36079 432.64854,352.88071 428.98691,352.73899 425.62295,351.43893 420.18175,349.56701 415.52313,345.9187 411.99397,341.40624 411.74884,341.21542 411.57679,341.20399 411.2945,341.32854 z"
       inkscape:connector-curvature="0"
       id="path3032"
       style="fill:#8791c4;stroke:none" />
    <path
       d="M 439.18022,389.74746 C 438.21519,390.74094 437.22636,392.01384 435.89659,392.46277 434.99101,392.36088 435.16879,393.47326 435.36227,394.00744 435.89196,397.0252 434.58355,400.14429 432.36038,402.18736 431.8396,402.53085 431.47661,403.4678 432.29238,403.68345 436.62116,405.1161 441.11577,406.32156 445.68434,406.7145 449.24073,406.90522 453.26017,407.1005 456.24441,404.82009 458.14794,403.39324 458.36237,400.61913 457.25476,398.64629 456.39747,396.93789 455.01136,395.49368 453.52425,394.3766 449.56593,391.3403 444.52644,390.09527 439.63093,389.65512 439.47706,389.61982 439.33052,389.72592 439.18023,389.74742 z"
       inkscape:connector-curvature="0"
       id="path3030"
       style="fill:#dbafbc;stroke:none" />
    <path
       d="M 579.47294,263.83814 C 595.62075,259.78389 596.45647,274.44443 598.1255,288.08647 594.2866,318.29912 585.58463,331.8384 570.14666,322.28284"
       inkscape:connector-curvature="0"
       id="path3033"
       style="fill:none;stroke:#0000e9;stroke-width:1;stroke-miterlimit:4;stroke-opacity:1;stroke-dasharray:none;stroke-dashoffset:0" />
    <path
       d="M 597.50375,288.08647 C 592.55356,283.43166 586.0479,284.99872 579.47294,286.84297"
       inkscape:connector-curvature="0"
       id="path3036"
       style="fill:none;stroke:#0000e9;stroke-width:1;stroke-miterlimit:4;stroke-opacity:1;stroke-dasharray:none;stroke-dashoffset:0" />
    <path
       d="M 582.5817,325.3916 C 580.46466,344.91598 566.38133,353.67071 547.76359,358.34446 538.05497,368.22698 526.89719,377.94849 531.59803,389.43206"
       inkscape:connector-curvature="0"
       id="path3038"
       style="fill:none;stroke:#0000e9;stroke-width:1;stroke-miterlimit:4;stroke-opacity:1;stroke-dasharray:none;stroke-dashoffset:0" />
    <path
       d="M 537.1938,387.56681 C 535.63725,386.77548 538.96652,385.43864 537.40336,386.9978 538.67091,380.38977 539.75345,374.39782 545.61675,370.01458 552.28332,364.59343 560.24363,360.47559 568.65183,359.72761 574.43935,358.69681 579.38693,355.26909 585.04286,353.83426 589.32997,352.33611 593.79991,350.8173 597.36932,347.93778 601.13375,344.28017 602.48238,339.02219 604.96751,334.54088 606.32208,331.69106 608.53589,323.27881 612.41121,328.3681 613.42353,331.42567 610.83333,334.31641 610.28503,337.34293 608.87355,341.60604 606.86887,345.65694 603.98339,349.11858 601.85391,352.21308 598.74738,354.41983 595.30481,355.84025 589.69777,358.91372 583.85899,361.57821 577.64739,363.17461 571.76507,364.811 566.12444,367.14026 560.57734,369.65513 553.90159,372.28786 547.56295,376.02973 542.82803,381.50888 540.88901,383.46992 538.96468,385.45058 537.1938,387.56681 z"
       inkscape:connector-curvature="0"
       id="path3040"
       style="fill:none;stroke:#0000e9;stroke-width:1;stroke-miterlimit:4;stroke-opacity:1;stroke-dasharray:none;stroke-dashoffset:0" />
    <path
       d="M 547.76359,357.72271 545.3143,351.83816"
       inkscape:connector-curvature="0"
       id="path3050"
       style="fill:none;stroke:#0000e9;stroke-width:1;stroke-miterlimit:4;stroke-opacity:1;stroke-dasharray:none;stroke-dashoffset:0" />
    <path
       d="M 584.03381,263.37269 C 582.43565,263.42039 580.61287,263.87632 579.14723,263.69328 578.15103,264.39471 579.37525,265.89052 579.18723,266.91604 579.81986,273.37499 580.00108,279.98346 579.39014,286.39694 581.44512,286.53426 583.53874,285.3957 585.65623,285.2603 589.34261,284.61664 593.31468,284.92933 596.45918,287.02841 597.91258,287.6979 597.83236,285.624 597.5861,284.77456 596.49072,278.60129 596.31222,271.70038 592.14577,266.65632 590.16378,264.30892 587.06508,263.19853 584.03385,263.37269 z"
       inkscape:connector-curvature="0"
       id="path3052"
       style="fill:#d39ccd;stroke:none" />
    <path
       d="M 544.86343,352.89527 C 540.19183,357.30254 535.8044,362.13768 530.30083,365.5829 526.79677,368.58835 524.84299,372.96211 522.68522,376.94754 521.5208,379.62305 519.8426,382.40918 520.05164,385.42068 519.15127,387.12944 519.70308,389.384 520.32365,391.12331 521.07178,392.35588 522.25038,394.05357 523.78215,394.10578 526.26189,392.56627 529.01287,391.36013 531.41804,389.77294 529.45953,384.28722 530.5986,378.09382 534.00258,373.4672 537.82796,367.8703 542.82607,363.2727 547.51559,358.36475 547.47579,356.55259 546.26271,354.82259 545.59204,353.109 545.35119,353.0348 545.15316,352.67545 544.86343,352.89527 z"
       inkscape:connector-curvature="0"
       id="path3058"
       style="fill:#7c797c;stroke:none" />
    <path
       d="M 609.94339,327.04399 C 607.46742,327.83526 606.87543,330.93942 605.79058,333.0135 603.60449,337.70902 601.62839,342.60967 598.61584,346.84291 595.75905,350.08846 591.38602,351.35634 587.56168,353.08479 581.80956,355.0091 576.18829,357.60359 570.42327,359.39453 564.42527,360.62074 558.27178,361.82825 553.00949,365.18834 547.67039,368.43848 541.87328,372.20105 539.7969,378.47312 539.25272,380.43596 537.86012,382.55357 538.45161,384.63377 539.6665,385.32177 540.40448,383.16888 541.34664,382.6908 546.18642,377.27455 552.21888,373.04476 558.91161,370.22709 566.23848,366.80728 573.83118,364.04978 581.58852,361.74255 587.98004,359.5287 594.13789,356.52011 599.87877,352.96328 605.95533,348.06305 609.11996,340.61725 611.47834,333.3878 612.42893,331.40463 613.17185,327.27717 609.94339,327.04399 z"
       inkscape:connector-curvature="0"
       id="path3060"
       style="fill:#d5be93;stroke:none" />
    <path
       d="M 467.33872,383.91487 C 463.05026,387.40002 458.46774,390.64774 454.3595,394.27839 455.19097,395.86301 457.10752,397.08439 457.6627,398.99236 458.82101,401.4154 457.92681,404.5386 455.40885,405.65677 454.43127,406.73977 452.43652,406.10765 451.84349,407.53174 451.93539,408.99204 454.18865,408.43213 455.12794,408.97111 464.92779,410.79069 474.57251,414.12728 484.66026,413.642 491.99217,413.7001 499.44961,411.7671 505.39936,407.39853 506.9299,406.15778 509.13756,405.38665 510.16189,403.68465 509.46933,401.65672 510.26424,399.25986 509.98702,397.10768 509.7462,393.68847 509.54942,389.5123 506.61596,387.24708 504.63734,386.45453 502.29539,386.48836 500.32072,387.21798 493.89939,388.36768 487.93619,392.07025 481.22127,391.46338 477.13358,391.85169 473.69197,389.02787 470.75641,386.58613 469.60051,385.84173 468.71079,383.89358 467.33872,383.91492 z"
       inkscape:connector-curvature="0"
       id="path3062"
       style="fill:#aac7db;stroke:none" />
    <path
       d="M 444.04157,157.29278 C 448.20014,162.47709 445.94342,163.57895 443.82175,164.76675"
       inkscape:connector-curvature="0"
       id="path3037"
       style="fill:none;stroke:#0000e9;stroke-width:1;stroke-linecap:round;stroke-miterlimit:4;stroke-opacity:1;stroke-dasharray:none;stroke-dashoffset:0" />
    <path
       d="M 444.04157,165.42621 C 430.30541,155.47594 420.74054,189.45773 399.19776,188.28776"
       inkscape:connector-curvature="0"
       id="path3041"
       style="fill:none;stroke:#0000e9;stroke-width:1;stroke-linecap:round;stroke-miterlimit:4;stroke-opacity:1;stroke-dasharray:none;stroke-dashoffset:0" />
    <path
       d="M 436.90816,159.0269 C 432.67507,159.0086 428.59929,161.04596 425.99946,164.37133 423.72763,167.3584 421.68368,170.52969 418.96514,173.14363 413.81098,178.48485 407.93604,183.0261 401.53733,186.77262 400.54612,187.19651 401.27899,188.47856 402.18306,188.11904 408.24514,187.37162 413.64501,184.02535 417.91583,179.78221 423.13903,175.08326 427.72496,169.65924 433.3223,165.4361 436.16315,163.36588 440.14695,162.85651 443.22118,164.73541 444.78841,164.43179 446.7283,162.77815 446.03079,160.95034 445.70226,159.35492 443.67672,159.76121 442.49518,159.40146 440.64215,159.14484 438.78673,158.97321 436.90816,159.0269 z"
       inkscape:connector-curvature="0"
       id="path3045"
       style="fill:#b46a9f;stroke:none" />
    <path
       d="M 570.37578,322.86339 C 569.50613,324.14008 569.54146,325.88644 568.95544,327.325 567.4937,331.84552 566.05182,336.54052 563.10103,340.32554 562.29018,341.58669 560.62831,341.05225 559.59074,341.98795 556.20786,344.08033 551.86711,344.65017 549.21786,347.85447 548.00076,349.23726 546.51354,350.50062 545.58392,352.06544 546.45367,353.96412 546.93366,356.1393 548.21492,357.80831 549.19596,358.30306 550.34158,357.28129 551.37277,357.21719 561.04268,354.38915 570.81414,349.71683 576.76438,341.26666 579.89051,336.66077 581.80102,331.17796 582.362,325.67337 581.59605,324.87473 580.06911,325.49701 578.99696,325.29328 576.01699,325.54625 573.36399,324.12043 570.78795,322.83591 570.64857,322.77641 570.51152,322.82191 570.37578,322.86341 z"
       inkscape:connector-curvature="0"
       id="path3042"
       style="fill:#c9ca98;stroke:none" />
    <path
       d="M 446.52638,160.18096 C 446.12709,161.23734 446.74398,162.72604 445.72952,163.62256 445.10694,164.15681 444.18031,164.64936 443.94347,165.38801 441.66561,164.11629 438.91227,163.14875 436.35272,164.20646 431.08662,166.34956 427.48507,171.01624 423.45786,174.81751 418.60759,179.50686 413.84292,184.82529 407.3065,187.15214 404.72612,188.01684 401.93461,188.53398 399.18897,188.38694 397.89469,187.97632 396.61593,189.15187 395.36268,189.4311 389.37973,191.67731 382.98559,192.7498 376.57482,192.33725 369.89701,192.01313 363.15914,192.23299 356.52624,191.43936 354.74142,191.19242 353.06744,190.5302 351.38443,189.96005 350.22825,190.34704 350.76975,192.00026 350.56723,192.93431 350.47263,197.81744 350.1606,202.74245 350.18835,207.59882 351.30171,208.39111 353.02778,208.21749 354.37415,208.63139 360.59608,210.02649 366.53667,212.55866 372.59731,214.49774 383.04586,211.03672 393.48155,207.32092 403.57855,202.96392 404.0972,202.72118 403.34949,201.55618 404.06628,202.10524 405.08147,202.87545 406.31058,201.62567 407.3224,201.39082 417.9831,196.77122 428.16069,191.14709 438.47538,185.86585 443.83126,183.20845 449.59961,180.87014 455.69682,181.41182 462.4978,181.84189 468.92541,184.34877 475.61588,185.5515 492.10843,189.07677 509.17885,191.39536 524.31935,199.24482 540.32924,207.316 552.92604,220.81956 562.26273,235.94234 565.73019,242.07657 568.31426,248.67598 570.84401,255.24358 573.68183,262.92701 575.17926,271.12235 574.75581,279.34539 574.86542,285.29752 574.77941,291.29805 573.40006,297.10486 570.31749,311.37941 564.56008,324.95857 561.84392,339.3226 561.84592,340.38256 563.16131,340.071 563.46511,339.3501 567.44398,333.51484 568.91282,326.40428 570.68802,319.69076 573.85617,307.44849 578.56417,295.46744 579.33643,282.73403 580.63517,266.98269 575.74519,251.39155 568.35617,237.65286 563.34453,228.35322 557.38355,219.58167 550.9627,211.20729 548.41377,208.1005 544.88787,205.9786 541.91615,203.29791 532.90636,195.84727 523.90197,188.15292 513.14421,183.33726 495.65557,175.25321 477.62328,168.29622 459.17237,162.74272 455.10837,161.51211 450.88926,160.60429 446.70362,160.14056 L 446.52638,160.18096 z"
       inkscape:connector-curvature="0"
       id="path3044"
       style="fill:#73a0a6;stroke:none" />
    <path
       d="M 589.13626,285.19817 C 585.91,285.3503 582.65006,285.92656 579.62207,287.04605 578.54965,287.75324 579.13722,289.26761 578.70156,290.30904 576.94338,300.8533 573.00457,310.89723 570.55439,321.29028 570.25328,322.8368 572.30959,323.15835 573.28976,323.75715 576.04949,325.14884 579.33831,325.4369 582.30803,324.64945 587.62245,322.66837 590.47124,317.28396 592.46795,312.31191 595.43938,304.64585 596.89376,296.46573 597.9223,288.35125 597.65126,287.69748 596.7282,287.96279 596.33545,287.34831 594.32266,285.74364 591.66851,285.15234 589.13626,285.19817 z"
       inkscape:connector-curvature="0"
       id="path3048"
       style="fill:#bc90cc;stroke:none" />
    <path
       d="M 453.79426,181.57931 C 446.95233,181.69023 440.70858,184.91458 434.83457,188.09842 433.98512,188.42464 434.42588,189.49016 435.17804,189.57536 431.58963,198.92037 428.48007,208.56252 427.14846,218.52848 426.44573,225.18482 426.12496,231.95034 426.87361,238.61458 428.411,249.05302 430.90839,259.30579 432.40965,269.75563 433.99959,280.14523 434.58078,290.8117 432.88364,301.22461 433.37308,302.3202 434.99541,302.35507 435.90581,303.11093 443.74006,307.86986 448.7522,315.98656 452.54028,324.11691 454.21686,328.12852 455.51803,332.29679 457.02978,336.355 457.48083,336.86865 458.24915,336.90406 458.56167,337.64646 464.12381,344.94224 467.45729,354.16726 475.01401,359.79358 477.64201,361.62786 480.76367,362.63027 483.17492,364.77393 488.47495,368.79461 494.5505,372.20053 498.50068,377.71599 500.14148,380.12047 501.22549,382.9321 501.22098,385.86316 501.91601,386.81529 503.45929,386.11078 504.53206,386.34402 507.48551,386.29292 509.21673,389.28609 509.69102,391.85333 510.51244,395.61028 509.9894,399.50135 510.36423,403.29784 511.25864,404.0342 512.0923,402.54002 512.89216,402.18954 516.13552,399.70873 519.47364,397.33224 522.70604,394.88726 522.80681,393.80163 521.18443,393.33079 520.69589,392.40288 519.03332,390.54952 519.6576,387.9305 519.04035,385.7189 518.06244,384.85076 517.05733,383.9177 516.62919,382.62599 515.6838,379.75164 516.06685,376.46925 517.15125,373.66301 518.57262,369.80588 521.17853,366.51521 524.24739,363.80534 529.33964,359.15595 534.63433,354.69598 539.55254,349.83287 541.73644,347.5421 545.27468,346.4179 548.31796,347.57282 549.55479,347.60272 550.07067,346.10331 551.19169,345.73429 554.43946,343.69453 558.48247,342.96233 561.34932,340.36676 564.10056,325.64524 569.96684,311.75677 573.13812,297.14134 573.96022,292.81196 574.66619,288.39328 574.6005,283.98228 574.5436,283.43451 573.60105,283.55596 573.93416,282.86255 574.53513,278.26121 574.50372,273.56167 574.13946,268.93999 572.58405,258.05963 567.78167,248.01881 563.25903,238.12179 560.17372,232.70788 556.47636,227.62444 552.55242,222.78572 543.78307,212.3559 533.12724,203.20535 520.53665,197.69048 505.58889,190.86666 489.13363,188.84998 473.24435,185.23515 466.76216,184.04324 460.44051,181.51183 453.79426,181.57931 z"
       inkscape:connector-curvature="0"
       id="path3051"
       style="fill:#d0cf6e;stroke:none" />
  </g>
</svg>
