<?xml version="1.0" encoding="UTF-8" standalone="no"?>
<!-- Created with Inkscape (http://www.inkscape.org/) -->

<svg
   xmlns:dc="http://purl.org/dc/elements/1.1/"
   xmlns:cc="http://creativecommons.org/ns#"
   xmlns:rdf="http://www.w3.org/1999/02/22-rdf-syntax-ns#"
   xmlns:svg="http://www.w3.org/2000/svg"
   xmlns="http://www.w3.org/2000/svg"
   xmlns:xlink="http://www.w3.org/1999/xlink"
   xmlns:inkscape="http://www.inkscape.org/namespaces/inkscape"
   version="1.1"
   width="740"
   height="520"
   id="svg2"
   style="enable-background:new">
  <defs
     id="defs4">
    <filter
       color-interpolation-filters="sRGB"
       id="filter3050">
      <feBlend
         in2="BackgroundImage"
         mode="lighten"
         id="feBlend3052" />
    </filter>
  </defs>
  <metadata
     id="metadata7">
    <rdf:RDF>
      <cc:Work
         rdf:about="">
        <dc:format>image/svg+xml</dc:format>
        <dc:type
           rdf:resource="http://purl.org/dc/dcmitype/StillImage" />
        <dc:title />
      </cc:Work>
    </rdf:RDF>
  </metadata>
  <g
     id="layer1"
     style="display:none">
    <image
       xlink:href="pngs/coronal-0548.png"
       id="MRISLICE"
       height="520"
       width="740"
       y="0"
       x="0" />
  </g>
  <g
     id="layer3"
     style="display:inline">
    <path
       d="M 372.44547,201.47832 C 371.39762,258.41196 370.34976,315.3456 369.3019,372.27924 380.92185,385.81149 366.26035,406.25312 390.46032,406.84112 403.4573,421.16564 436.02833,404.51405 438.65267,427.43209 467.62706,443.775 507.84226,453.97753 535.51037,429.47737 549.17046,403.43592 578.93456,400.45 599.10636,382.01519 621.37058,361.33895 641.92841,336.19306 647.79442,305.59265 665.79317,275.14878 666.60193,236.75486 650.16629,205.46136 636.71394,176.98859 628.42475,144.53858 600.27398,126.35831 569.49384,102.59322 532.23284,87.841571 494.90696,78.428909 459.58855,76.959727 422.75366,56.062822 388.36848,72.509155 382.86479,75.77566 378.12488,80.306285 374.57764,85.630619 373.98021,118.09088 373.38278,150.55114 372.78536,183.01139"
       inkscape:connector-curvature="0"
       id="path2990"
       style="fill:none;stroke:#0000e9;stroke-width:1;stroke-miterlimit:4;stroke-opacity:1;stroke-dasharray:none;stroke-dashoffset:0" />
    <path
       d="M 425.90018,314.82181 C 419.68685,316.20557 413.29802,313.06201 407.11318,315.42068 400.14509,315.44298 393.6158,323.43117 399.99183,328.93651 405.77441,334.97066 414.7287,336.71328 422.7627,336.84707 430.75265,337.42662 441.2904,329.0196 434.77017,321.04598 432.70416,317.98162 429.46797,315.75364 425.90018,314.82181 z"
       inkscape:connector-curvature="0"
       id="path2995"
       style="fill:none;stroke:#0000e9;stroke-width:1;stroke-miterlimit:4;stroke-opacity:1;stroke-dasharray:none;stroke-dashoffset:0" />
    <path
       d="M 548.64289,412.91425 C 541.80362,404.60141 536.5031,401.07797 529.66383,402.70867 529.43303,394.25762 528.59658,384.16664 526.62402,380.72753 534.32577,364.67812 551.7037,359.42081 562.37477,352.12693"
       inkscape:connector-curvature="0"
       id="path3813"
       style="fill:none;stroke:#0000e9;stroke-width:1;stroke-miterlimit:4;stroke-opacity:1;stroke-dasharray:none;stroke-dashoffset:0" />
    <path
       d="M 585.31522,315.23478 C 586.26302,306.89274 589.91337,279.62656 588.75898,272.18978 584.75267,246.38045 569.6802,225.38449 554.60287,204.77169 521.28168,172.96075 476.78301,165.74027 435.84822,150.67926 431.33899,150.41897 425.07118,152.14672 419.68266,166.11638 412.20678,173.12811 405.84178,175.78468 398.82217,179.65694 390.17807,184.42531 376.48193,185.11256 372.89582,183.78755 362.94779,186.07805 356.26395,181.97411 347.8703,181.76686"
       inkscape:connector-curvature="0"
       id="path2997"
       style="fill:none;stroke:#0000e9;stroke-width:1;stroke-miterlimit:4;stroke-opacity:1;stroke-dasharray:none;stroke-dashoffset:0" />
    <path
       d="M 591.90799,387.5668 C 576.0257,394.35086 556.07713,393.00236 544.65483,408.70638"
       inkscape:connector-curvature="0"
       id="path2999"
       style="fill:none;stroke:#0000e9;stroke-width:1;stroke-miterlimit:4;stroke-opacity:1;stroke-dasharray:none;stroke-dashoffset:0" />
    <path
       d="M 526.62402,404.35411 C 502.41761,429.14974 468.39506,415.28384 450.14852,409.32813 L 437.71347,426.11543"
       inkscape:connector-curvature="0"
       id="path3001"
       style="fill:none;stroke:#0000e9;stroke-width:1;stroke-miterlimit:4;stroke-opacity:1;stroke-dasharray:none;stroke-dashoffset:0" />
    <path
       d="M 372.4295,201.66293 C 398.07735,199.12701 421.71114,186.52072 445.79625,176.17109 482.00177,179.2382 518.48717,173.33342 563.78476,226.27547"
       inkscape:connector-curvature="0"
       id="path3005"
       style="fill:none;stroke:#0000e9;stroke-width:1;stroke-miterlimit:4;stroke-opacity:1;stroke-dasharray:none;stroke-dashoffset:0" />
    <path
       d="M 563.52722,226.56425 C 575.39238,239.29786 582.38625,256.2949 585.82937,273.81996 587.36607,281.64161 583.53235,306.82206 583.77188,314.52198"
       inkscape:connector-curvature="0"
       id="path3007"
       style="fill:none;stroke:#0000e9;stroke-width:1;stroke-miterlimit:4;stroke-opacity:1;stroke-dasharray:none;stroke-dashoffset:0" />
    <path
       d="M 452.01377,177.4146 C 443.26795,194.05689 427.54165,206.81856 430.71876,227.93195"
       inkscape:connector-curvature="0"
       id="path3823"
       style="fill:none;stroke:#0000e9;stroke-width:1;stroke-miterlimit:4;stroke-opacity:1;stroke-dasharray:none;stroke-dashoffset:0" />
    <path
       d="M 430.0625,218.0625 428.5625,218.21875 C 431.03043,238.32825 430.91427,270.06656 427.65625,290.46875 L 429.125,290.6875 C 432.41996,270.05405 432.55435,238.3669 430.0625,218.0625 z"
       inkscape:connector-curvature="0"
       id="path3009"
       style="font-size:medium;font-style:normal;font-variant:normal;font-weight:normal;font-stretch:normal;text-indent:0;text-align:start;text-decoration:none;line-height:normal;letter-spacing:normal;word-spacing:normal;text-transform:none;direction:ltr;block-progression:tb;writing-mode:lr-tb;text-anchor:start;baseline-shift:baseline;color:#000000;fill:#a7b0c5;fill-opacity:1;stroke:none;stroke-width:1.5;marker:none;visibility:visible;display:inline;overflow:visible;enable-background:accumulate;font-family:Sans;-inkscape-font-specification:Sans" />
    <path
       d="M 430.8742,230.26352 C 427.92597,211.86493 417.24002,203.40229 406.26166,193.03383"
       inkscape:connector-curvature="0"
       id="path3011"
       style="fill:none;stroke:#0000e9;stroke-width:1;stroke-miterlimit:4;stroke-opacity:1;stroke-dasharray:none;stroke-dashoffset:0" />
    <path
       d="M 561.90846,351.50518 C 561.73711,347.94454 546.10716,349.82572 541.3079,353.67115 537.40821,356.29639 534.21241,359.90895 531.33469,363.57771 528.56896,368.11177 526.68482,373.42492 526.68046,378.75381 526.88913,379.38423 527.99639,378.33246 527.86795,378.24057"
       inkscape:connector-curvature="0"
       id="path3013"
       style="fill:none;stroke:#0000e9;stroke-width:1;stroke-miterlimit:4;stroke-opacity:1;stroke-dasharray:none;stroke-dashoffset:0" />
    <path
       d="M 443.46468,293.21592 C 444.1503,289.05569 444.6573,280.01626 449.57117,285.69529 452.42062,288.99531 453.20207,293.43819 454.06852,297.57353 454.73946,301.83279 454.13342,306.19167 454.97895,310.43496 455.32372,313.12469 455.96004,315.88115 455.42839,318.58442 455.04111,320.16618 453.47384,321.63949 451.76403,321.09605 450.67082,320.83602 449.6789,320.02871 449.34777,318.9339"
       inkscape:connector-curvature="0"
       id="path3015"
       style="fill:none;stroke:#0000e9;stroke-width:1;stroke-miterlimit:4;stroke-opacity:1;stroke-dasharray:none;stroke-dashoffset:0" />
    <path
       d="M 429.6307,289.95173 400.40835,317.93057"
       inkscape:connector-curvature="0"
       id="path3017"
       style="fill:none;stroke:#0000e9;stroke-width:1;stroke-miterlimit:4;stroke-opacity:1;stroke-dasharray:none;stroke-dashoffset:0" />
    <path
       d="M 397.37502,325.2472 C 397.43632,327.76195 396.8827,335.56784 399.64075,341.05923 403.40991,345.64466 406.08439,353.85889 413.33904,353.21533 420.4305,351.93868 427.4394,350.41426 434.33109,348.29596 441.16559,346.94349 449.3193,343.69975 449.80751,335.59159 452.06902,328.49465 450.03974,321.49559 448.08917,314.64545 447.29417,306.21403 447.71847,295.82774 440.04925,290.30001 438.87116,288.04462 434.69452,289.40112 429.11554,290.86876"
       inkscape:connector-curvature="0"
       id="path3019"
       style="fill:none;stroke:#0000e9;stroke-width:1;stroke-miterlimit:4;stroke-opacity:1;stroke-dasharray:none;stroke-dashoffset:0" />
    <path
       d="M 451.39202,327.25685 C 468.78512,332.40398 477.68269,350.00388 491.6435,360.13251 500.4242,364.73118 518.51227,366.02891 516.17566,379.99923 513.15599,383.36329 511.69482,388.68771 515.06869,390.95335 517.62496,392.66996 525.8477,387.05116 527.28361,385.89262"
       inkscape:connector-curvature="0"
       id="path3021"
       style="fill:none;stroke:#0000e9;stroke-width:1;stroke-miterlimit:4;stroke-opacity:1;stroke-dasharray:none;stroke-dashoffset:0" />
    <path
       d="M 433.36121,388.81031 C 428.89255,389.88423 420.65551,388.45785 416.45659,393.40944 410.9984,400.09874 418.43608,405.45874 422.99099,410.32028 428.1958,414.12899 435.49226,412.092 441.2528,410.89917 446.43204,407.74556 450.72329,403.75628 450.42631,397.59021 448.90275,392.38228 454.8679,388.33611 449.10189,384.06803 444.69832,379.53525 437.01476,374.58483 431.15246,379.58532 425.12376,386.61332 436.01427,390.43668 441.68126,390.20071 442.8733,390.94029 450.7632,392.37632 450.07956,393.41986"
       inkscape:connector-curvature="0"
       id="path3023"
       style="fill:none;stroke:#0000e9;stroke-width:1;stroke-miterlimit:4;stroke-opacity:1;stroke-dasharray:none;stroke-dashoffset:0" />
    <path
       d="M 451.64309,389.57645 C 455.35309,392.63307 463.12403,394.78495 467.41715,396.73417 470.49709,398.21732 476.8408,398.89995 476.24061,403.39554 474.07192,407.79238 468.38457,407.79404 464.85654,410.63007 463.93723,411.52794 459.27666,412.79485 461.75421,413.14562"
       inkscape:connector-curvature="0"
       id="path3025"
       style="fill:none;stroke:#0000e9;stroke-width:1;stroke-miterlimit:4;stroke-opacity:1;stroke-dasharray:none;stroke-dashoffset:0" />
    <path
       d="M 437.09172,347.77467 C 430.01864,358.1372 434.0041,368.49974 436.46997,378.86227"
       inkscape:connector-curvature="0"
       id="path3027"
       style="fill:none;stroke:#0000e9;stroke-width:1;stroke-miterlimit:4;stroke-opacity:1;stroke-dasharray:none;stroke-dashoffset:0" />
    <path
       d="M 515.10599,391.69925 C 509.7624,387.3773 496.56008,385.26306 489.52531,379.93794 480.23795,373.84855 472.3952,365.68309 466.54069,356.73847 459.00667,348.98892 446.47327,347.90372 436.38885,349.0254"
       inkscape:connector-curvature="0"
       id="path3029"
       style="fill:none;stroke:#0000e9;stroke-width:1;stroke-miterlimit:4;stroke-opacity:1;stroke-dasharray:none;stroke-dashoffset:0" />
    <path
       d="M 529.55254,402.39493 525.15609,405.25262"
       inkscape:connector-curvature="0"
       id="path3010"
       style="fill:none;stroke:#0000e9;stroke-width:1;stroke-miterlimit:4;stroke-opacity:1;stroke-dasharray:none;stroke-dashoffset:0" />
    <path
       d="M 450.41642,409.42925 446.23979,407.67067"
       inkscape:connector-curvature="0"
       id="path3012"
       style="fill:none;stroke:#0000e9;stroke-width:1;stroke-miterlimit:4;stroke-opacity:1;stroke-dasharray:none;stroke-dashoffset:0" />
    <path
       d="M 412.28838,314.85953 C 407.13072,315.31298 400.56721,316.13308 398.2747,321.5229 396.37912,325.12791 399.5064,328.45137 402.19029,330.46693 408.38687,335.35525 416.713,336.65775 424.43358,336.55327 429.96359,335.89861 436.42577,332.08245 436.35895,325.8644 435.8601,320.80269 431.21194,317.16245 426.72798,315.54647 423.21745,314.98004 419.55942,315.62297 416.00312,314.98953 414.76747,314.90143 413.5281,314.80622 412.28838,314.85953 z"
       inkscape:connector-curvature="0"
       id="path3014"
       style="fill:#bfb879;stroke:none" />
    <path
       d="M 532.02298,402.59621 C 526.91539,402.84493 524.19006,407.95511 520.02892,410.15261 511.47459,416.34103 500.90708,419.18192 490.35287,418.57456 476.5855,418.63256 463.50773,413.93571 450.57873,409.74044 447.61738,412.43188 445.53388,416.35114 442.93202,419.53363 441.6522,421.77763 439.30065,423.62745 438.62587,426.10348 439.7026,428.56413 443.088,429.08104 445.1656,430.51367 461.0237,438.31657 478.40402,444.08126 496.24538,443.84562 505.24094,443.43113 514.27438,441.82873 522.35079,437.7266 528.73404,434.63499 535.12377,430.59751 538.52149,424.1663 541.21355,420.18198 544.57543,416.93076 547.97386,413.5049 547.07823,410.31204 543.71666,408.1802 541.28301,405.97598 538.66293,403.87535 535.43824,402.42748 532.02298,402.59621 z"
       inkscape:connector-curvature="0"
       id="path3016"
       style="fill:#c7a1db;stroke:none" />
    <path
       d="M 437.07338,289.4975 C 434.0322,290.03957 430.57479,290.19477 428.00227,291.87761 420.3902,299.34856 412.324,306.44845 405.10293,314.25502 405.4866,316.06981 408.07006,314.46148 409.334,314.76941 415.49896,314.75791 421.80261,314.25013 427.88205,315.38161 432.14879,317.19721 436.57157,321.13589 436.89477,326.02926 436.68684,332.56079 429.77981,336.85896 423.71916,336.97917 414.99734,337.13775 405.93303,334.90784 399.42876,328.90069 398.60171,327.71294 397.2002,328.52721 397.64271,329.84868 397.68361,335.29183 399.27307,340.62157 402.64367,344.934 405.24207,348.44973 408.32736,353.70476 413.48367,352.86135 422.93535,351.00457 432.44268,348.94884 441.55226,345.75834 447.30984,343.58451 449.94658,337.4166 450.29021,331.67595 451.12954,323.39626 447.49538,315.58941 447.22308,307.37747 446.65073,301.65927 445.52711,295.4885 440.92539,291.54972 439.84585,290.56988 438.72932,289.16698 437.07338,289.4975 z"
       inkscape:connector-curvature="0"
       id="path3018"
       style="fill:#79a89f;stroke:none" />
    <path
       d="M 434.83394,378.05851 C 431.71987,378.66438 428.13407,382.33426 430.4787,385.51874 434.07364,390.19597 440.66643,389.3504 445.67394,391.19291 447.19028,391.30816 449.40446,392.94494 450.68864,391.70125 451.81566,389.27678 451.49564,386.30302 449.20483,384.68067 446.00537,381.57277 442.03749,377.98598 437.2932,378.18216 436.13279,379.02713 435.9382,378.11856 434.83394,378.05851 z"
       inkscape:connector-curvature="0"
       id="path3020"
       style="fill:#a1d081;stroke:none" />
    <path
       d="M 432.86927,389.20077 C 427.8162,389.85178 422.01628,389.3883 417.75647,392.60802 414.40595,394.98831 414.13422,399.8774 416.71231,402.93968 420.17833,408.2459 425.88652,413.40248 432.73188,412.13101 438.71568,411.79104 445.03439,409.60294 448.2868,404.23118 450.48904,401.00152 450.2566,396.68053 449.78737,393.08834 444.81204,390.99628 439.37922,390.32112 434.14699,389.21451 433.72111,389.20951 433.29525,389.16361 432.86927,389.20081 z"
       inkscape:connector-curvature="0"
       id="path3022"
       style="fill:#a4a7da;stroke:none" />
    <path
       d="M 583.33781,390.97309 C 574.67929,392.85029 565.90296,394.88845 557.75999,398.44897 552.89714,400.75096 548.59413,404.23895 545.21234,408.33907 546.73557,409.78353 548.34215,414.45756 550.65251,411.57633 560.89811,403.95456 572.86964,398.90717 583.77746,392.34698 584.41255,391.91635 584.25767,390.78954 583.33781,390.97309 z"
       inkscape:connector-curvature="0"
       id="path3028"
       style="fill:#6abbd5;stroke:none" />
    <path
       d="M 451.27941,327.5955 C 450.27865,332.8655 450.69839,339.29443 446.34714,343.21664 444.71595,345.2114 441.53637,345.51416 440.2608,347.69552 441.38825,349.26829 444.10891,348.2764 445.82465,348.63513 455.11246,348.81792 464.84482,352.57742 469.79218,360.74607 476.53566,369.4519 484.66597,377.28491 494.47294,382.46561 500.80812,385.27352 507.50439,387.49871 513.76397,390.32736 514.67998,387.781 512.92588,384.46652 514.62952,381.96036 517.40284,377.59117 515.70294,371.53808 511.31845,368.92214 503.40203,363.52924 492.70516,363.05413 486.03885,355.70531 477.02897,347.48217 469.3836,337.58675 459.08311,330.89284 456.6141,329.57607 453.95777,328.21297 451.27941,327.5955 z"
       inkscape:connector-curvature="0"
       id="path3044"
       style="fill:#e1aa66;stroke:none" />
    <path
       d="M 408.86996,352.05557 415.46463,393.82185"
       inkscape:connector-curvature="0"
       id="path3050"
       style="fill:none;stroke:#0000e9;stroke-width:1;stroke-miterlimit:4;stroke-opacity:1;stroke-dasharray:none;stroke-dashoffset:0" />
    <path
       d="M 434.72402,348.5336 C 426.51296,350.56722 418.3045,352.83418 409.87034,353.60325 408.85671,355.08134 410.34243,357.34405 410.19944,359.06326 411.98186,370.16594 413.49999,381.37289 415.59946,392.3882 417.48087,393.19522 418.99878,390.60771 420.8752,390.38232 424.24406,389.13185 428.02269,389.59231 431.44042,388.61 431.67864,386.91633 429.20184,385.91335 429.37959,384.04868 429.01315,380.5943 432.02984,378.0993 435.13619,377.37157 436.17784,375.73074 434.44855,373.42371 434.41363,371.57697 432.65049,364.33471 432.30223,356.28636 435.64453,349.42663 435.78641,348.87185 435.30757,348.32697 434.72402,348.5336 z"
       inkscape:connector-curvature="0"
       id="path3054"
       style="fill:#d97f90;stroke:none" />
    <path
       d="M 589.56411,272.4798 C 600.41317,261.17404 611.3759,286.8684 608.90849,301.93602 602.46036,292.92648 594.30242,297.16514 587.85429,296.66028"
       inkscape:connector-curvature="0"
       id="path3031"
       style="fill:none;stroke:#0000e9;stroke-width:1;stroke-miterlimit:4;stroke-opacity:1;stroke-dasharray:none;stroke-dashoffset:0" />
    <path
       d="M 608.90849,302.37566 C 606.467,330.39088 587.041,337.99077 580.33156,328.97419"
       inkscape:connector-curvature="0"
       id="path3033"
       style="fill:none;stroke:#0000e9;stroke-width:1;stroke-miterlimit:4;stroke-opacity:1;stroke-dasharray:none;stroke-dashoffset:0" />
    <path
       d="M 594.40021,330.51295 C 597.08832,348.61201 587.43192,348.32172 568.04218,358.13823 566.9364,358.69806 565.01783,359.34869 564.66158,359.41274 563.21595,359.67265 564.28731,354.00262 561.78646,352.89713"
       inkscape:connector-curvature="0"
       id="path3037"
       style="fill:none;stroke:#0000e9;stroke-width:1;stroke-miterlimit:4;stroke-opacity:1;stroke-dasharray:none;stroke-dashoffset:0" />
    <path
       d="M 564.06469,359.08989 C 545.61668,371.29431 534.39345,386.50958 530.00324,402.22845"
       inkscape:connector-curvature="0"
       id="path3039"
       style="fill:none;stroke:#0000e9;stroke-width:1;stroke-miterlimit:4;stroke-opacity:1;stroke-dasharray:none;stroke-dashoffset:0" />
    <path
       d="M 589.12446,367.44314 C 596.85861,362.61234 603.62377,357.44041 612.19018,352.63318 618.62665,341.11715 616.74143,340.24454 606.67184,350.01279 595.72964,359.43297 579.15531,368.39829 564.52827,369.75593 554.18083,376.87536 544.15612,380.55577 536.8729,390.55205 533.66208,411.40938 544.11014,385.46956 554.0853,380.97843 564.69516,374.16817 577.0991,370.7613 589.12446,367.44314 z"
       inkscape:connector-curvature="0"
       id="path3041"
       style="fill:none;stroke:#0000e9;stroke-width:1;stroke-miterlimit:4;stroke-opacity:1;stroke-dasharray:none;stroke-dashoffset:0" />
    <path
       d="M 614.54653,344.00242 C 610.21879,346.24655 607.25891,350.35697 603.21193,353.09757 592.3016,361.51828 579.42686,367.62228 565.75966,369.914 557.36733,373.95491 549.55167,379.25306 542.31664,385.12173 539.23404,387.78979 536.01825,391.28492 536.77056,395.71567 536.47924,396.75866 537.50282,398.4815 538.43296,397.13078 544.03047,390.73604 548.54961,383.19591 556.37598,379.32515 566.27814,373.66522 577.33659,370.71854 588.1266,367.27613 595.64442,363.39237 602.29353,358.07295 609.6301,353.82028 613.22983,352.39722 613.9787,348.25034 615.37086,345.03283 615.56637,344.47651 615.18251,343.83893 614.54653,344.00242 z"
       inkscape:connector-curvature="0"
       id="path3055"
       style="fill:#d5be93;stroke:none" />
    <path
       d="M 452.09766,390.63228 C 450.36765,392.02064 450.82343,394.89525 450.57264,396.91096 450.90901,400.4644 449.40932,403.63277 447.56382,406.51446 446.8058,408.59311 450.08959,408.58757 451.24685,409.33005 454.37569,410.3729 457.48723,411.6841 460.67074,412.43593 465.56594,409.63766 471.20941,407.84938 475.49502,404.13763 477.08366,401.87168 474.38251,399.49306 472.28011,398.95806 465.55229,396.2513 458.67588,393.59236 452.09766,390.63228 z"
       inkscape:connector-curvature="0"
       id="path3040"
       style="fill:#dbafbc;stroke:none" />
    <path
       d="M 372.58494,201.66293 348.64749,196.53347"
       inkscape:connector-curvature="0"
       id="path3042"
       style="fill:none;stroke:#0000e9;stroke-width:0.93800002;stroke-linecap:round;stroke-miterlimit:4;stroke-opacity:1;stroke-dasharray:none;stroke-dashoffset:0" />
    <path
       d="M 348.33661,181.30055 348.64749,196.37803"
       inkscape:connector-curvature="0"
       id="path3045"
       style="fill:none;stroke:#0000e9;stroke-width:0.93800002;stroke-linecap:round;stroke-miterlimit:4;stroke-opacity:1;stroke-dasharray:none;stroke-dashoffset:0" />
    <path
       d="M 446.80904,284.20669 C 444.33647,285.8842 444.45928,289.57316 443.91013,292.23022 443.95903,295.59351 446.65867,298.28269 446.85269,301.68806 448.3166,307.62635 447.39356,314.2137 450.1476,319.76299 451.93933,321.99179 455.59385,320.05046 455.38212,317.35868 455.05657,311.32777 454.101,305.32819 453.93392,299.28078 453.19718,293.87754 451.95138,287.59254 447.26243,284.22043 447.11582,284.17363 446.95893,284.19453 446.80904,284.20673 z"
       inkscape:connector-curvature="0"
       id="path3056"
       style="fill:#9de082;stroke:none" />
    <path
       d="M 445.88287,176.34665 C 433.2271,181.96766 420.56167,187.59839 407.79084,192.88137 407.06138,194.02601 409.01362,194.88179 409.52008,195.74726 416.8397,202.76699 424.43641,210.07927 428.15322,219.75272 428.25262,221.26097 430.05749,220.25112 429.98933,219.17954 431.11732,210.74553 435.23693,203.13666 439.89448,196.13513 443.81955,189.89015 448.13916,183.88653 451.78951,177.47357 451.39482,175.87968 448.56094,176.90692 447.20919,176.39574 446.76855,176.39274 446.31937,176.25338 445.88287,176.34664 z"
       inkscape:connector-curvature="0"
       id="path3819"
       style="fill:#a7b0c5;stroke:none" />
    <path
       d="M 555.92516,349.75428 C 551.76408,349.85979 547.55685,350.66534 543.75727,352.40644 538.71738,354.95256 534.83424,359.2655 531.47767,363.69513 529.05387,367.34872 527.54856,371.61343 526.96511,375.95044 526.95511,376.62175 526.54757,377.85176 527.50428,378.03428 528.48745,377.65312 528.90306,376.38412 529.58327,375.59585 534.91515,367.95919 543.05542,362.93507 551.1201,358.55177 554.64301,356.51849 558.32328,354.72425 561.67151,352.41615 562.45255,351.52188 561.26159,350.55654 560.46686,350.23516 559.04289,349.6654 557.43018,349.78294 555.92516,349.75428 z"
       inkscape:connector-curvature="0"
       id="path3839"
       style="fill:#a5c0bd;stroke:none" />
    <path
       d="M 443.16229,152.89632 C 447.08013,157.05346 444.92516,158.1742 443.16229,159.49099 426.92002,154.37908 425.94249,177.66092 403.15458,177.51644"
       inkscape:connector-curvature="0"
       id="path3047"
       style="fill:none;stroke:#0000e9;stroke-width:1;stroke-linecap:round;stroke-miterlimit:4;stroke-opacity:1;stroke-dasharray:none;stroke-dashoffset:0" />
    <path
       d="M 434.5304,150.82014 C 429.63044,151.04058 425.76855,154.7789 423.38814,158.78871 421.8077,161.12847 420.94164,163.8773 419.54812,166.28329 415.73699,170.18649 410.99239,173.03438 406.33129,175.84557 405.45712,176.20557 405.88148,177.54709 406.80528,177.2332 412.51713,176.60931 417.73666,173.75788 421.93239,169.93047 426.351,166.18803 429.9276,160.98683 435.61577,159.09097 438.05692,158.21062 440.59982,158.97293 443.08287,159.12527 444.59148,158.73897 445.8924,156.80368 444.8071,155.38141 444.35711,154.20544 443.39516,153.41955 442.1784,153.12137 439.68767,152.2924 437.19195,150.89351 434.5304,150.82009 z"
       inkscape:connector-curvature="0"
       id="path3049"
       style="fill:#b46a9f;stroke:none" />
    <path
       d="M 561.46248,353.0788 C 559.54705,353.78897 557.90369,355.10025 556.07073,355.99812 548.43579,360.34372 540.3552,364.26907 534.09748,370.57834 531.1716,373.49301 528.59472,376.84561 526.87138,380.59052 527.15479,381.92478 527.75671,383.22481 527.97988,384.59988 529.00447,389.31456 529.32096,394.15322 529.57826,398.96217 529.76005,399.80321 530.90543,399.55121 530.98691,398.78244 533.68033,391.19429 537.71008,384.11986 542.83628,377.90704 548.735,370.64223 555.8597,364.47632 563.63861,359.27689 564.1779,358.49561 563.52043,357.4694 563.50746,356.59559 563.18051,355.39543 563.07369,353.81487 561.91422,353.10795 561.76802,353.06505 561.61299,353.04785 561.46248,353.07875 z"
       inkscape:connector-curvature="0"
       id="path3048"
       style="fill:#7c797c;stroke:none" />
    <path
       d="M 584.75785,314.51093 C 583.15604,329.94086 572.03466,340.83766 562.0639,352.28237"
       inkscape:connector-curvature="0"
       id="path3043"
       style="fill:none;stroke:#0000e9;stroke-width:1;stroke-linecap:round;stroke-miterlimit:4;stroke-opacity:1;stroke-dasharray:none;stroke-dashoffset:0" />
    <path
       d="M 445.20861,154.30937 C 444.57902,155.22757 445.87471,156.36156 445.28421,157.37315 444.83772,158.29594 443.948,159.26387 442.98981,159.55764 440.15038,158.64813 437.00359,158.59117 434.24931,159.86471 429.5658,162.20165 426.3152,166.551 422.40205,169.86869 418.27052,173.83565 412.89058,176.72219 407.13302,177.37049 405.12963,177.59523 402.98014,177.30319 401.21665,178.5242 396.05806,181.41567 390.43942,183.31487 384.57196,183.99916 380.68789,184.58998 376.73686,184.51647 372.83902,184.06876 369.9054,184.3348 366.95622,184.84664 364.01168,184.39757 358.94533,183.88776 354.0455,182.44862 348.98132,181.92456 347.80591,182.51447 348.74283,184.38694 348.4843,185.50297 348.568,189.02919 348.58489,192.55951 348.74089,196.08251 349.53972,197.00732 351.11434,196.74063 352.21862,197.18432 359.00934,198.65531 365.803,200.14585 372.60537,201.54373 388.79822,199.77729 404.24866,194.24423 419.09782,187.78982 428.02944,183.97147 436.85582,179.94018 445.75133,176.05118 463.51821,177.4721 481.58233,177.18422 498.92091,181.7803 514.41207,185.6748 528.75139,193.51071 541.02849,203.64111 549.18604,210.23974 556.73036,217.82457 563.52127,225.84786 564.87261,228.29211 567.09703,230.21175 568.66925,232.54695 577.67639,244.62211 582.98075,259.17607 585.91569,273.85848 586.80022,282.62287 585.50161,291.46493 584.85037,300.19436 584.51655,304.70381 583.94474,309.21978 583.87545,313.73567 584.07716,314.72651 585.38564,314.28844 585.33866,313.40593 586.47672,305.53414 587.2538,297.59929 588.03619,289.68057 588.66337,282.05294 589.57387,274.19561 587.56735,266.68147 583.3898,247.55516 572.85039,230.65286 561.70773,214.84299 557.90574,209.4307 554.1087,203.86095 548.81142,199.77866 530.80267,184.52716 508.78372,174.9751 486.57252,167.52468 472.95528,162.98173 459.23688,158.73977 445.60707,154.23379 L 445.3911,154.27479 445.20864,154.30939 z"
       inkscape:connector-curvature="0"
       id="path3053"
       style="fill:#73a0a6;stroke:none" />
    <path
       d="M 595.22378,269.86735 C 593.09817,269.77665 591.36678,271.07328 589.76256,272.27853 588.52747,272.62489 589.21128,274.27102 589.08248,275.19804 588.88675,281.95592 588.53405,288.77502 587.68798,295.4492 587.3196,296.74785 589.08446,296.63411 589.87231,296.5536 593.94324,296.34985 598.1532,295.54955 602.15506,296.6307 604.48758,297.29387 606.27477,298.97146 608.104,300.45699 609.35231,300.62581 608.89426,298.86694 609.01613,298.11454 609.18397,290.41208 607.22311,282.62517 603.2473,276.02234 601.48338,273.28053 599.06481,270.28886 595.6222,269.86044 595.48936,269.8609 595.35645,269.85744 595.22378,269.86744 z"
       inkscape:connector-curvature="0"
       id="path3057"
       style="fill:#d39ccd;stroke:none" />
    <path
       d="M 596.30228,296.34223 C 593.58489,296.52889 590.77896,296.31463 588.12076,296.91926 586.84815,297.7403 587.48692,299.57618 587.10408,300.81424 586.52432,305.51629 586.13879,310.29319 585.37985,314.94471 584.28988,315.95967 584.57589,317.74215 584.06778,319.06638 583.28495,322.42832 581.87647,325.68395 580.50568,328.82785 581.5532,330.62278 583.73364,331.78713 585.78514,332.19391 590.55892,333.14578 595.20209,330.56033 598.54117,327.38302 604.16293,321.85566 607.01945,314.12863 608.24139,306.47467 608.44861,304.92781 608.90957,303.32312 608.68791,301.78284 606.25127,298.61772 602.52887,296.18716 598.4112,296.3491 597.7084,296.3269 597.00525,296.3351 596.30228,296.3421 z"
       inkscape:connector-curvature="0"
       id="path3059"
       style="fill:#bc90cc;stroke:none" />
    <path
       d="M 579.93237,329.83082 C 575.33964,337.67498 569.18246,344.32246 563.26594,351.17425 562.57157,351.78512 561.96227,352.75419 562.72438,353.57853 563.80301,355.1266 563.38428,357.29074 564.42801,358.81992 565.71695,359.55243 567.10033,358.17647 568.30813,357.82432 574.85428,354.61143 581.70076,351.96124 587.99711,348.28218 591.69532,346.05008 594.36475,342.12685 594.61239,337.75817 594.726,335.70355 594.89979,333.48997 594.24144,331.52758 593.43335,330.81466 592.34111,332.00032 591.43461,332.03163 587.91764,333.16663 583.76268,332.73039 581.06583,330.05751 580.74391,329.80934 580.32431,329.46655 579.93237,329.83082 z"
       inkscape:connector-curvature="0"
       id="path3061"
       style="fill:#c9ca98;stroke:none" />
    <path
       d="M 441.59632,348.84681 C 439.79874,349.02206 437.79567,348.77601 436.15599,349.47827 432.98238,355.33093 432.61121,362.33106 434.26068,368.69124 434.96656,371.569 435.35634,374.63444 436.41829,377.35997 442.24838,377.55389 446.94463,381.46632 450.77688,385.50104 452.1561,386.97289 451.20722,389.8116 453.48733,390.61106 460.24712,394.28244 467.8565,396.17397 474.69491,399.63618 476.47088,400.71856 477.09764,403.36315 475.46238,404.83364 471.9124,408.38915 466.38282,408.9246 462.76504,412.3821 462.51241,413.80514 464.81933,413.60819 465.66007,414.14049 478.37682,417.83807 492.05601,420.06737 505.10247,416.70522 513.26959,414.79175 520.54363,410.03347 526.47891,404.25342 527.70204,403.0993 530.07767,402.64049 529.37995,400.46195 529.23284,395.7213 528.97301,390.86446 527.90083,386.27547 526.51844,386.08841 525.30206,387.81337 523.95905,388.31835 521.09574,390.0004 517.88789,391.70419 514.46761,391.4854 506.17773,386.54306 496.11243,385.13366 488.28301,379.28143 479.82197,373.51179 472.74479,366.04699 466.86472,357.66791 461.73775,351.25898 453.05179,349.44433 445.24912,348.91481 444.03262,348.85751 442.81424,348.81611 441.59632,348.84681 z"
       inkscape:connector-curvature="0"
       id="path3046"
       style="fill:#8791c4;stroke:none" />
    <path
       d="M 453.51453,176.92263 C 451.43978,177.21315 451.2905,179.93203 450.01646,181.21939 444.95153,189.55453 438.78606,197.27936 434.48309,206.01869 432.0568,211.17472 430.3805,216.77024 430.65543,222.53398 431.20866,244.17301 432.25228,265.96261 429.20791,287.47793 429.12881,288.44425 428.59961,290.57406 430.2474,290.21753 433.19178,290.10141 436.21187,288.26036 439.10737,289.41119 440.48039,290.09953 441.40876,291.49145 442.88646,291.94677 444.05574,291.31658 443.64361,289.4626 444.11053,288.3717 444.58625,286.76878 444.75434,284.18771 446.72383,283.77656 449.8101,284.35583 451.20082,287.78962 452.30017,290.36325 454.6099,296.09135 454.56292,302.40855 454.93323,308.51895 455.19368,312.15894 456.34499,316.07629 455.14663,319.61474 454.33344,321.2013 452.34195,321.62793 450.75551,321.0234 449.38401,321.39463 450.65533,323.10851 450.49321,324.05444 450.48321,325.62329 451.11417,327.41887 452.93164,327.59066 459.12848,329.88991 464.78861,333.63499 469.34007,338.4616 476.38252,345.17259 482.91203,352.44901 490.2562,358.81427 495.90904,362.63012 502.94621,363.60099 508.88933,366.90676 512.66605,368.71766 516.29497,372.05056 516.34064,376.57306 516.40024,378.28271 516.70164,380.26351 515.272,381.51794 513.46611,383.94061 512.86209,387.47585 514.52396,390.1156 516.24794,392.15726 519.10097,390.37277 520.97464,389.53271 523.24872,388.20456 525.68753,387.02713 527.73619,385.36503 527.6232,383.11092 526.40069,380.97889 526.6287,378.64233 526.6763,370.33777 530.82615,362.39606 537.02361,356.99759 541.21377,352.5843 547.14414,350.16047 553.18806,349.80176 555.72514,349.77846 558.47241,349.23806 560.90278,350.09031 561.64599,350.74596 562.8631,351.60284 563.48694,350.30404 571.08755,341.6473 579.45537,332.90885 583.01677,321.68772 583.55436,319.43547 584.63514,317.09109 584.2282,314.74759 583.18599,313.50006 584.05924,311.46856 583.85903,309.94844 584.62714,298.781 586.04929,287.63991 585.75829,276.42246 586.06356,272.24613 584.24534,268.29978 583.32809,264.30292 579.6675,250.93322 573.45522,238.10695 564.23498,227.66344 560.90379,222.47192 556.127,218.37118 551.87505,213.93152 537.58256,199.45576 520.04011,187.72567 500.22477,182.46623 485.09925,178.20058 469.28062,177.75704 453.67969,176.91292 L 453.51453,176.92292 z"
       inkscape:connector-curvature="0"
       id="path3051"
       style="fill:#d0cf6e;stroke:none" />
  </g>
</svg>
