<?xml version="1.0" encoding="UTF-8" standalone="no"?>
<!-- Created with Inkscape (http://www.inkscape.org/) -->

<svg
   xmlns:dc="http://purl.org/dc/elements/1.1/"
   xmlns:cc="http://creativecommons.org/ns#"
   xmlns:rdf="http://www.w3.org/1999/02/22-rdf-syntax-ns#"
   xmlns:svg="http://www.w3.org/2000/svg"
   xmlns="http://www.w3.org/2000/svg"
   xmlns:xlink="http://www.w3.org/1999/xlink"
   xmlns:inkscape="http://www.inkscape.org/namespaces/inkscape"
   version="1.1"
   width="740"
   height="520"
   id="svg2"
   style="enable-background:new">
  <defs
     id="defs4">
    <filter
       color-interpolation-filters="sRGB"
       id="filter3050">
      <feBlend
         in2="BackgroundImage"
         mode="lighten"
         id="feBlend3052" />
    </filter>
  </defs>
  <metadata
     id="metadata7">
    <rdf:RDF>
      <cc:Work
         rdf:about="">
        <dc:format>image/svg+xml</dc:format>
        <dc:type
           rdf:resource="http://purl.org/dc/dcmitype/StillImage" />
        <dc:title />
      </cc:Work>
    </rdf:RDF>
  </metadata>
  <g
     id="layer1"
     style="display:none">
    <image
       xlink:href="pngs/coronal-0584.png"
       id="MRISLICE"
       height="520"
       width="740"
       y="0"
       x="0" />
  </g>
  <g
     id="layer3"
     style="display:inline">
    <path
       d="M 373.82343,169.17961 C 374.47041,139.15054 374.54361,108.97431 373.67301,78.556013 387.45688,52.219133 443.4522,56.368296 516.67599,72.960244 578.89653,96.412563 641.14136,119.81187 667.76175,220.93724 693.01888,282.79557 662.57682,331.29357 590.66449,411.19338 573.04818,431.38536 555.43187,438.25164 537.81556,433.57646 532.03148,437.30384 524.71531,435.01743 517.29774,432.33295 511.38728,438.44048 503.91782,441.94968 493.04941,439.79398 465.07795,431.40378 454.07669,414.39681 429.6307,414.9239 406.45727,424.18342 386.76292,415.61872 371.80775,401.8671 378.15693,361.83512 374.27366,338.43087 367.45549,319.79582 369.82964,273.56391 372.31963,227.3617 373.54412,180.83492 L 357.66291,178.03633"
       inkscape:connector-curvature="0"
       id="path2990"
       style="fill:none;stroke:#0000e9;stroke-width:1;stroke-miterlimit:4;stroke-opacity:1;stroke-dasharray:none;stroke-dashoffset:0" />
    <path
       d="M 539.05907,432.33295 C 531.80529,426.43571 524.55152,427.06164 517.29774,431.08945 515.9564,412.12022 483.809,417.36238 460.23447,423.26421"
       inkscape:connector-curvature="0"
       id="path2992"
       style="fill:none;stroke:#0000e9;stroke-width:1;stroke-miterlimit:4;stroke-opacity:1;stroke-dasharray:none;stroke-dashoffset:0" />
    <path
       d="M 357.50745,177.72548 C 357.76185,177.72848 355.69939,168.14422 357.97462,168.21785 363.6811,168.40251 373.20703,168.71831 373.82847,168.71082 399.94702,168.39631 415.59036,158.41239 421.54792,139.48772 474.5752,151.19816 524.4932,165.60349 562.68564,195.4454 591.83069,238.23192 616.8957,256.64626 599.04252,318.55231 592.37048,334.71488 587.47872,351.10519 566.41616,359.58796"
       inkscape:connector-curvature="0"
       id="path2994"
       style="fill:none;stroke:#0000e9;stroke-width:1;stroke-miterlimit:4;stroke-opacity:1;stroke-dasharray:none;stroke-dashoffset:0" />
    <path
       d="M 373.00706,180.52336 C 390.69567,178.16163 414.0248,170.8237 433.36121,161.87079 445.18235,161.40751 457.2295,161.88389 468.20076,166.38425 470.57543,167.35833 472.89062,169.20597 475.52046,169.07311 503.25517,167.67203 530.93229,179.26227 552.73761,196.68891 572.37366,215.21337 595.82741,249.59051 599.0048,271.66338 601.53708,286.23105 602.59955,338.41197 563.11882,357.90481 556.53431,358.90701 550.47039,360.37196 540.30259,358.18901"
       inkscape:connector-curvature="0"
       id="path2996"
       style="fill:none;stroke:#0000e9;stroke-width:1;stroke-miterlimit:4;stroke-opacity:1;stroke-dasharray:none;stroke-dashoffset:0" />
    <path
       d="M 462.58356,238.96805 C 462.69496,261.89314 446.31257,282.27568 450.21001,305.50546 451.99555,314.87204 457.8801,323.60756 466.70489,327.5822 475.4823,334.06742 486.04212,337.36314 496.10047,341.09074 505.15963,347.6804 502.04261,360.60616 507.93365,369.14811 513.8622,379.4129 528.3061,381.41372 538.60038,377.29824 548.58664,371.50789 556.81854,379.15625 561.21352,387.72541 569.03053,396.99032 574.58855,409.88635 582.58171,418.96524"
       inkscape:connector-curvature="0"
       id="path3000"
       style="fill:none;stroke:#0000e9;stroke-width:1;stroke-miterlimit:4;stroke-opacity:1;stroke-dasharray:none;stroke-dashoffset:0" />
    <path
       d="M 524.75877,379.48403 C 538.95303,381.00348 533.64362,409.02034 534.08505,429.22419"
       inkscape:connector-curvature="0"
       id="path3008"
       style="fill:none;stroke:#0000e9;stroke-width:1;stroke-miterlimit:4;stroke-opacity:1;stroke-dasharray:none;stroke-dashoffset:0" />
    <path
       d="M 463.20531,241.45506 C 465.50066,245.07675 474.87186,250.60009 474.86908,255.10601 475.56357,263.68831 467.20428,270.7916 465.18937,278.95142 459.10102,295.68508 456.55675,305.21821 460.85553,316.00858 461.12162,318.94935 461.54234,322.6402 463.02317,325.28492"
       inkscape:connector-curvature="0"
       id="path3010"
       style="fill:none;stroke:#0000e9;stroke-width:1;stroke-miterlimit:4;stroke-opacity:1;stroke-dasharray:none;stroke-dashoffset:0" />
    <path
       d="M 471.7746,267.52447 C 485.06919,280.04459 488.67332,310.15037 497.40168,340.9354"
       inkscape:connector-curvature="0"
       id="path3030"
       style="fill:none;stroke:#0000e9;stroke-width:1;stroke-miterlimit:4;stroke-opacity:1;stroke-dasharray:none;stroke-dashoffset:0" />
    <path
       d="M 545.05565,360.83146 C 524.66405,363.92278 516.40627,361.51252 497.40168,342.1789"
       inkscape:connector-curvature="0"
       id="path3032"
       style="fill:none;stroke:#0000e9;stroke-width:1;stroke-miterlimit:4;stroke-opacity:1;stroke-dasharray:none;stroke-dashoffset:0" />
    <path
       d="M 544.72915,361.16444 C 530.79709,353.66477 509.20876,337.35296 498.02343,341.55715"
       inkscape:connector-curvature="0"
       id="path3034"
       style="fill:none;stroke:#0000e9;stroke-width:1;stroke-miterlimit:4;stroke-opacity:1;stroke-dasharray:none;stroke-dashoffset:0" />
    <path
       d="M 550.56148,359.89883 C 537.7217,341.30884 506.1527,323.49534 488.69715,307.98254"
       inkscape:connector-curvature="0"
       id="path3036"
       style="fill:none;stroke:#0000e9;stroke-width:1;stroke-miterlimit:4;stroke-opacity:1;stroke-dasharray:none;stroke-dashoffset:0" />
    <path
       d="M 524.75877,379.48403 C 524.47921,380.77499 521.96358,379.04572 523.59128,378.83861 524.207,380.51955 520.86057,379.36185 520.63854,381.05799 519.29056,382.75233 518.52128,384.8079 517.44946,386.66843 516.67309,388.85069 518.04744,391.28856 516.83699,393.38747 514.55469,398.78156 510.16366,402.86564 507.36391,407.95753 506.23584,409.43687 505.29752,411.1166 505.39054,413.04056 505.27827,414.63339 504.70415,416.54909 504.66725,417.9048 504.47057,417.8251 504.52118,417.24029 504.24099,417.41094"
       inkscape:connector-curvature="0"
       id="path3038"
       style="fill:none;stroke:#0000e9;stroke-width:1;stroke-miterlimit:4;stroke-opacity:1;stroke-dasharray:none;stroke-dashoffset:0" />
    <path
       d="M 472.53159,401.8671 C 470.12442,399.96263 471.08809,396.11509 468.59162,394.27737 463.48359,388.98583 458.48715,383.02686 451.41671,380.34666 446.47598,378.6287 440.45062,379.33642 436.64292,383.13964 431.68161,387.61373 429.46318,395.49786 432.68125,401.5853 435.82032,406.53276 441.41628,408.94946 446.48608,411.408 453.82584,414.58491 462.97022,414.82236 469.71975,410.09923 472.07755,408.48625 474.22203,405.38975 472.93852,402.47576 472.82615,402.25858 472.69048,402.05314 472.53159,401.8671 z"
       inkscape:connector-curvature="0"
       id="path3052"
       style="fill:none;stroke:#0000e9;stroke-width:1;stroke-miterlimit:4;stroke-opacity:1;stroke-dasharray:none;stroke-dashoffset:0" />
    <path
       d="M 506.1062,411.19338 C 493.86814,413.41048 481.6332,414.89088 469.42283,410.57163"
       inkscape:connector-curvature="0"
       id="path3094"
       style="fill:none;stroke:#0000e9;stroke-width:1;stroke-miterlimit:4;stroke-opacity:1;stroke-dasharray:none;stroke-dashoffset:0" />
    <path
       d="M 518.54125,386.94505 C 508.65811,375.82918 486.83272,383.4797 465.69232,390.05381"
       inkscape:connector-curvature="0"
       id="path3096"
       style="fill:none;stroke:#0000e9;stroke-width:1;stroke-miterlimit:4;stroke-opacity:1;stroke-dasharray:none;stroke-dashoffset:0" />
    <path
       d="M 482.47963,383.83629 C 480.50485,383.10508 478.947,381.53086 477.45659,380.11047 475.72748,377.71462 475.53078,374.40696 473.14777,372.4411 468.98138,368.41615 463.16475,367.06033 458.00726,364.78725 454.08022,363.22079 450.31352,361.23627 446.30114,359.89793 442.31364,358.76769 437.15514,359.43782 434.8439,363.26519 433.07913,366.41729 434.42094,370.11496 435.69153,373.18071 436.66749,375.21075 437.57525,377.41611 439.39481,378.8422 440.06546,379.46838 440.63199,380.42375 440.20048,381.34928"
       inkscape:connector-curvature="0"
       id="path3098"
       style="fill:none;stroke:#0000e9;stroke-width:1;stroke-miterlimit:4;stroke-opacity:1;stroke-dasharray:none;stroke-dashoffset:0" />
    <path
       d="M 439.57873,359.58796 C 427.24261,357.95821 456.30557,330.4328 450.77027,309.22604"
       inkscape:connector-curvature="0"
       id="path3116"
       style="fill:none;stroke:#0000e9;stroke-width:1;stroke-miterlimit:4;stroke-opacity:1;stroke-dasharray:none;stroke-dashoffset:0" />
    <path
       d="M 400.95635,162.56852 C 424.62205,161.24679 410.77037,146.72876 447.99838,145.862"
       inkscape:connector-curvature="0"
       id="path3011"
       style="fill:none;stroke:#0000e9;stroke-width:1;stroke-miterlimit:4;stroke-opacity:1;stroke-dasharray:none;stroke-dashoffset:0" />
    <path
       d="M 546.47889,374.91711 562.74576,361.06829"
       inkscape:connector-curvature="0"
       id="path3015"
       style="fill:none;stroke:#0000e9;stroke-width:1;stroke-miterlimit:4;stroke-opacity:1;stroke-dasharray:none;stroke-dashoffset:0" />
    <path
       d="M 544.74937,375.70661 C 541.07603,375.65071 537.99936,378.09208 534.47103,378.65022 532.65884,379.29058 530.56104,378.93591 528.80726,379.69943 528.39619,381.03905 530.41372,381.71853 530.90567,382.8179 534.34076,387.92661 534.53616,394.394 534.82077,400.3824 534.88447,409.86781 534.18247,419.34175 534.25731,428.82756 535.33417,430.32287 537.86938,430.51713 538.76501,432.16947 537.75532,433.60733 539.96425,434.02477 540.97029,434.05416 546.13226,435.07271 551.59537,434.7809 556.77011,433.7977 566.39432,431.78654 574.90673,426.20327 582.03507,419.60814 582.50289,418.28469 580.70361,417.30118 580.15836,416.24839 573.32053,407.01275 567.94178,396.71819 561.01155,387.58382 558.1272,382.69336 554.36632,377.67758 548.73247,375.91062 547.44473,375.62302 546.07161,375.71893 544.74937,375.70661 z"
       inkscape:connector-curvature="0"
       id="path3029"
       style="fill:#b9abdd;stroke:none" />
    <path
       d="M 523.94982,380.00059 C 522.098,379.7658 520.59257,380.93176 519.85014,382.5556 519.04022,383.86054 518.31407,385.33867 518.15004,386.82043 516.67571,388.80134 518.15204,391.68427 516.82882,393.79571 513.90547,399.72972 509.16775,404.60152 506.1716,410.47615 505.65705,413.00051 504.8848,415.62502 504.94752,418.18977 506.14505,419.4603 508.3226,419.21388 509.73441,420.23063 513.65123,421.79908 516.59365,425.35954 517.23684,429.54646 517.9688,431.15217 519.90336,429.3387 521.04544,429.24967 524.92546,427.70373 529.36249,427.43912 533.37325,428.81784 534.81322,428.05705 533.61268,425.47961 534.00472,424.02841 533.98692,412.62284 535.36233,401.09394 533.4704,389.77375 532.44733,385.91104 530.68384,381.11292 526.32997,380.10745 525.5477,379.95947 524.74263,379.96621 523.94982,380.00059 z"
       inkscape:connector-curvature="0"
       id="path3031"
       style="fill:#d5be6c;stroke:none" />
    <path
       d="M 445.48277,379.78686 C 443.66712,379.92623 441.51559,379.98712 440.13958,381.16637 437.09719,382.1602 435.12133,385.11161 433.45575,387.70448 430.61088,392.52395 430.46339,399.30035 434.57296,403.48144 438.16964,407.60306 443.398,409.7426 448.30008,411.85567 455.57125,414.65104 464.73168,414.07278 470.77059,408.83434 473.01857,407.06822 473.96708,403.53472 471.80037,401.32474 470.18768,398.86274 470.45115,395.36775 467.74066,393.62926 462.55638,388.87273 457.92682,382.93564 451.12183,380.46161 449.30604,379.8828 447.3841,379.70742 445.48277,379.78686 z"
       inkscape:connector-curvature="0"
       id="path3041"
       style="fill:#a4a7da;stroke:none" />
    <path
       d="M 442.34486,359.6965 C 438.53754,359.5616 434.36787,362.17799 434.23294,366.27347 434.38185,371.47698 437.14027,376.27979 440.61561,380.0103 442.67937,379.997 444.79258,379.04962 446.97886,379.36912 453.60032,379.70633 458.85046,384.35256 463.45897,388.62728 464.60161,390.70613 466.59743,389.7092 468.30616,389.07497 472.76067,387.50176 477.50074,386.57338 481.8164,384.70259 482.22505,383.16566 479.84762,383.01057 479.12538,381.99214 475.61073,378.98366 475.35194,373.50932 471.15918,371.13091 465.57384,367.29755 458.85789,365.63324 452.78556,362.74209 449.41317,361.45007 446.07772,359.44547 442.34486,359.6965 z"
       inkscape:connector-curvature="0"
       id="path3043"
       style="fill:#a1d081;stroke:none" />
    <path
       d="M 492.67764,418.30635 C 483.30486,418.17113 474.12183,420.4045 465.01797,422.31176 463.85985,422.88977 461.72244,422.46444 461.20144,423.90211 462.29479,425.51677 464.57612,426.10507 466.12462,427.27226 475.17916,432.42935 484.51567,437.4593 494.70804,439.87337 500.8426,440.78249 507.34682,439.71984 512.46684,436.13314 514.2885,434.87507 516.16997,433.5144 517.30485,431.62544 516.86627,427.19167 514.55241,422.90934 510.42538,420.96588 505.66219,418.33158 500.09926,418.12803 494.77605,418.29663 494.07657,418.29863 493.37711,418.30363 492.67764,418.30663 z"
       inkscape:connector-curvature="0"
       id="path3045"
       style="fill:#c7a1db;stroke:none" />
    <path
       d="M 452.15689,314.32802 C 451.01206,315.38312 451.83331,317.32491 451.34084,318.70943 449.5569,331.14766 442.19854,341.75059 437.39027,353.13895 436.80793,354.97964 435.86112,358.00092 438.20632,358.95817 440.77484,359.9207 443.69487,358.71057 446.2891,359.86165 453.18118,362.33458 459.90024,365.29378 466.6218,368.16442 470.48144,369.75892 474.25082,372.26381 475.79392,376.32582 477.10068,379.3425 479.2036,382.12503 482.205,383.56595 481.88426,385.11176 483.92971,384.44047 484.74085,384.20879 491.41541,382.30396 498.27965,381.01406 505.25837,381.39396 509.63376,381.0459 513.62694,383.04361 517.2757,385.19805 518.74702,384.74767 519.08755,382.67533 520.05416,381.58411 520.27203,380.62975 521.89651,380.10404 521.46281,379.12625 519.16244,377.79484 516.38824,377.31509 514.17666,375.73576 508.21384,372.10152 505.21558,365.31205 503.98069,358.72506 502.41419,352.79763 501.77745,345.56788 496.35957,341.71426 492.08789,339.41448 487.2736,338.23615 482.83274,336.26553 476.46911,333.8988 470.61983,330.47745 464.9028,326.81164 459.87651,324.09938 456.10174,319.6594 453.10894,314.84291 452.86497,314.58267 452.58283,314.1731 452.15689,314.32802 z"
       inkscape:connector-curvature="0"
       id="path3047"
       style="fill:#8791c4;stroke:none" />
    <path
       d="M 502.49161,381.53305 C 491.0543,381.99236 480.16038,385.91323 469.27817,389.11955 468.34778,389.74028 466.22187,389.5109 466.06082,390.88848 467.34993,393.38142 470.19174,394.90211 470.71425,397.87348 471.19792,400.50162 473.91867,402.30565 473.27898,405.1402 473.15269,407.1545 471.55173,408.48749 470.49081,409.99764 470.50611,411.36464 472.55951,411.03087 473.46356,411.53259 483.73993,414.28894 494.60317,413.13403 504.89119,411.06628 506.2315,410.58941 506.31822,408.73269 507.29069,407.76102 510.36403,402.52765 514.73509,398.05027 516.98621,392.36514 517.31241,390.12595 517.29364,387.69467 516.88901,385.52587 512.76824,382.41717 507.57685,381.34565 502.49156,381.53305 z"
       inkscape:connector-curvature="0"
       id="path3028"
       style="fill:#dbafbc;stroke:none" />
    <path
       d="M 605.27569,272.23178 C 608.57533,263.36359 621.72292,280.23897 624.55001,289.01909 618.12833,289.14745 611.26044,285.7061 605.58657,291.81697"
       inkscape:connector-curvature="0"
       id="path3042"
       style="fill:none;stroke:#0000e9;stroke-width:1;stroke-miterlimit:4;stroke-opacity:1;stroke-dasharray:none;stroke-dashoffset:0" />
    <path
       d="M 624.23913,288.70821 C 636.23748,308.8539 598.86744,344.94639 597.81467,321.3502"
       inkscape:connector-curvature="0"
       id="path3044"
       style="fill:none;stroke:#0000e9;stroke-width:1;stroke-miterlimit:4;stroke-opacity:1;stroke-dasharray:none;stroke-dashoffset:0" />
    <path
       d="M 609.62796,326.94597 C 617.62672,342.93475 592.52292,360.36714 584.447,348.08554"
       inkscape:connector-curvature="0"
       id="path3048"
       style="fill:none;stroke:#0000e9;stroke-width:1;stroke-miterlimit:4;stroke-opacity:1;stroke-dasharray:none;stroke-dashoffset:0" />
    <path
       d="M 591.90802,353.05956 C 577.98988,375.55765 538.27581,392.73179 563.92918,360.2097"
       inkscape:connector-curvature="0"
       id="path3050"
       style="fill:none;stroke:#0000e9;stroke-width:1;stroke-miterlimit:4;stroke-opacity:1;stroke-dasharray:none;stroke-dashoffset:0" />
    <path
       d="M 573.45142,387.29746 C 579.99622,383.75039 600.10229,362.3902 606.53099,357.79954 611.94303,353.57912 615.76461,347.46958 621.63009,343.85995 626.56554,344.9763 621.00857,350.05961 618.98455,351.62726 615.06757,357.22009 610.69072,360.48711 605.84095,364.1905 597.30158,371.36135 590.52671,381.93588 581.19928,386.784 578.0929,389.01423 573.57082,393.04138 570.45191,392.78799 570.19818,389.89009 573.88364,388.73129 574.18809,386.01242"
       inkscape:connector-curvature="0"
       id="path3053"
       style="fill:none;stroke:#0000e9;stroke-width:1;stroke-miterlimit:4;stroke-opacity:1;stroke-dasharray:none;stroke-dashoffset:0" />
    <path
       d="M 597.1468,324.66355 C 595.21779,327.33368 594.40201,330.78192 592.82368,333.66924 590.50766,338.53834 587.80769,343.19339 584.37174,347.32836 584.43124,348.71161 586.29897,349.50208 587.25705,350.48569 589.81774,352.52141 593.47766,351.9983 596.43761,351.31146 603.80131,348.83678 610.11154,342.17023 610.90306,334.26185 611.04168,331.91697 610.80596,329.3134 609.41669,327.38372 606.69707,328.45466 603.27971,330.14407 600.44986,328.37463 598.88659,327.5879 598.94104,325.24223 597.37024,324.61498 L 597.1468,324.66358 z"
       inkscape:connector-curvature="0"
       id="path3062"
       style="fill:#c9ca98;stroke:none" />
    <path
       d="M 613.51637,288.64079 C 610.72511,288.47383 608.02084,289.56121 606.0942,291.53582 604.4061,291.93395 604.77403,294.14492 604.40381,295.50921 602.89775,304.40394 600.85794,313.26574 598.128,321.82681 597.8943,325.12219 600.20664,329.34295 603.95693,328.85066 610.08262,327.62274 614.5736,322.62951 618.41865,318.03526 623.5548,311.31724 627.46775,302.82653 625.99998,294.17827 625.68476,292.47614 625.29756,290.52606 624.14444,289.22368 620.62263,288.75824 617.06676,288.60603 613.51637,288.64079 z"
       inkscape:connector-curvature="0"
       id="path3064"
       style="fill:#bc90cc;stroke:none" />
    <path
       d="M 583.58483,348.25127 C 578.7367,353.03213 573.0748,357.31595 566.57408,359.5011 564.38003,359.01715 563.30174,361.72315 562.08581,363.0276 559.47861,366.90228 556.30654,370.80354 555.66427,375.55979 555.76796,378.12079 558.89834,378.37663 560.79373,377.72621 568.57351,375.38799 575.26438,370.3831 581.31646,365.1174 585.23801,361.38981 589.11487,357.3649 591.7679,352.64525 591.17713,351.75938 589.54359,352.4226 588.63296,351.64467 586.7287,350.94195 585.28649,349.47526 583.92485,348.11526 L 583.63621,348.23072 583.58481,348.25122 z"
       inkscape:connector-curvature="0"
       id="path3066"
       style="fill:#ca818c;stroke:none" />
    <path
       d="M 621.62829,344.29732 C 618.58062,345.74873 616.52109,348.72129 613.98312,350.89433 606.66617,358.13174 598.72246,364.64555 591.37645,371.8902 585.63868,377.19677 580.11179,382.81723 573.80195,387.43137 572.99836,389.10921 571.04499,390.27411 570.7029,392.17223 571.64664,393.25133 573.19507,391.76604 574.20997,391.39504 578.31856,388.77217 582.26202,385.96533 586.22728,383.1374 594.56205,376.36382 600.79617,367.39561 609.52648,361.03051 613.56216,358.20554 616.53498,354.27244 619.81161,350.67028 621.31411,349.24655 623.17554,347.60867 623.47412,345.44367 623.24802,344.71257 622.3948,344.14841 621.62829,344.29732 z"
       inkscape:connector-curvature="0"
       id="path3068"
       style="fill:#d5be93;stroke:none" />
    <path
       d="M 415.95217,170.26443 C 417.82019,186.65758 436.04132,205.5721 430.16141,216.56934"
       inkscape:connector-curvature="0"
       id="path3056"
       style="fill:none;stroke:#0000e9;stroke-width:0.93800002;stroke-linecap:round;stroke-miterlimit:4;stroke-opacity:1;stroke-dasharray:none;stroke-dashoffset:0" />
    <path
       d="M 469.73373,167.46654 C 471.86663,170.71965 476.39343,172.52724 464.25904,192.35993 462.30762,195.54936 448.29664,205.87003 446.36069,213.54237 445.95176,215.16298 449.37893,233.37195 446.97764,234.00461 M 429.94159,217.10004 C 438.69328,222.13345 445.5425,227.80763 446.67352,235.29747"
       inkscape:connector-curvature="0"
       id="path3061"
       style="fill:none;stroke:#0000e9;stroke-width:0.93800002;stroke-linecap:round;stroke-miterlimit:4;stroke-opacity:1;stroke-dasharray:none;stroke-dashoffset:0" />
    <path
       d="M 471.10001,267.7735 C 470.08945,268.71814 469.44627,270.39913 468.61945,271.63074 465.69815,276.30552 464.44705,281.73984 462.6025,286.88432 460.49955,293.0704 458.71887,299.49994 458.96168,306.10506 458.82738,309.66574 460.08068,313.0158 460.91261,316.40237 461.48945,319.45996 461.64655,322.82481 463.38561,325.49753 465.33266,326.91805 467.60998,327.86724 469.54065,329.34442 477.46048,334.37127 486.42704,337.35904 495.16371,340.63781 495.77629,340.95553 497.27561,341.30149 497.03908,340.12947 494.13336,329.57046 491.77465,318.85696 488.88503,308.29641 487.8647,303.02661 486.23637,297.73875 484.6939,292.5442 481.88793,283.72851 478.59404,274.56786 471.87626,267.93836 471.67792,267.7575 471.35445,267.55512 471.10001,267.7735 z"
       inkscape:connector-curvature="0"
       id="path3040"
       style="fill:#78a9c2;stroke:none" />
    <path
       d="M 462.71241,242.37025 C 462.11333,244.82072 462.18821,247.44909 461.60213,249.9301 459.14585,262.40118 453.71532,274.11701 451.04733,286.56429 449.10164,295.84105 448.96618,306.06637 453.57627,314.59741 455.4331,318.04307 457.90772,321.21748 460.90574,323.72521 462.07438,324.1675 461.9908,322.57695 461.68199,321.91167 460.98938,318.80781 460.71064,315.55805 459.60249,312.557 458.33188,307.94261 458.58903,303.0348 459.26653,298.3457 460.68823,290.78932 463.44042,283.56129 466.00168,276.32092 468.54501,269.77049 473.9464,264.27637 474.73395,257.05715 475.24192,254.11815 473.4032,251.5123 471.34044,249.63813 468.71296,247.13392 466.12815,244.55904 463.32379,242.26721 463.14595,242.09672 462.9227,242.29631 462.71241,242.37025 z"
       inkscape:connector-curvature="0"
       id="path3046"
       style="fill:#9de082;stroke:none" />
    <path
       d="M 566.8825,358.81076 C 558.28274,362.22754 551.15602,361.96172 544.18855,361.29777"
       inkscape:connector-curvature="0"
       id="path3049"
       style="fill:none;stroke:#0000e9;stroke-width:1;stroke-linecap:round;stroke-miterlimit:4;stroke-opacity:1;stroke-dasharray:none;stroke-dashoffset:0" />
    <path
       d="M 490.19763,310.58389 C 490.61905,314.65914 491.98502,318.67984 492.8545,322.70901 494.48371,328.72853 495.65381,334.9465 497.78495,340.76801 498.60897,341.80301 500.0465,340.57429 501.17544,340.86511 509.2786,340.59266 516.53779,344.87033 523.44168,348.54511 529.04558,351.54914 534.35914,355.14804 539.97336,358.07647 542.97606,358.34941 546.05735,359.34153 549.04064,358.95421 549.00294,357.36732 547.23186,356.15814 546.32047,354.87396 534.66179,341.77749 519.76275,332.1525 505.83423,321.65187 500.69499,318.06787 495.99736,313.92474 490.88739,310.35068 490.61247,310.19102 490.42601,310.4856 490.19763,310.58384 z"
       inkscape:connector-curvature="0"
       id="path3051"
       style="fill:#e1aa66;stroke:none" />
    <path
       d="M 502.26156,348.05417 C 501.80636,349.92713 502.98782,351.95725 503.20993,353.85694 504.66992,360.22309 505.68013,367.21602 510.47064,372.06934 513.81404,375.79016 518.65377,378.18119 523.60515,378.61717 526.33962,379.39712 529.54521,378.90781 532.43597,378.73375 535.50555,378.32685 538.37538,377.17636 541.17936,375.93586 543.16373,375.15432 545.53383,375.69094 547.11979,373.97965 551.91055,370.03931 556.77501,366.09211 561.2503,361.82015 561.39122,360.30655 559.38617,361.23622 558.58842,361.27611 551.29087,362.58455 543.87206,360.72966 536.55508,361.89787 527.33027,362.85715 517.95209,360.13846 510.66699,354.45679 507.83633,352.56022 505.59735,349.89731 502.84446,347.93759 502.63244,347.83819 502.45128,347.97689 502.26156,348.05417 z"
       inkscape:connector-curvature="0"
       id="path3054"
       style="fill:#e1aa66;stroke:none" />
    <path
       d="M 501.22207,341.12746 C 500.32682,341.21886 498.08304,341.11946 498.56991,342.56526 502.42166,347.22506 507.11873,351.23117 511.97881,354.82844 518.78339,359.92198 527.42476,362.62387 535.94036,361.64258 537.85945,361.34979 539.98103,361.58698 541.7914,360.92638 542.23895,359.56972 540.06827,359.13159 539.34325,358.36165 530.02458,352.78346 520.84532,346.82393 510.70379,342.85671 507.65761,341.82015 504.47524,340.93095 501.22207,341.12746 z"
       inkscape:connector-curvature="0"
       id="path3057"
       style="fill:#d68d95;stroke:none" />
    <path
       d="M 444.99311,146.11279 C 437.66273,146.5992 429.97002,147.26128 423.52606,151.06567 418.55594,154.17675 415.18303,159.7466 409.30629,161.28742 407.1302,162.05373 404.77243,162.06279 402.6017,162.77809 393.42626,167.19054 383.18086,168.85162 373.03559,168.70567 368.05213,168.79717 363.06157,168.27963 358.08763,168.466 356.65774,168.87395 357.15589,170.79848 357.07095,171.90759 357.24359,173.89395 357.22826,175.98448 357.78537,177.87715 362.56999,178.83803 367.41232,179.66463 372.22497,180.50128 389.70523,177.94753 406.73018,172.72184 423.10434,166.1638 426.57379,164.82937 429.93013,163.13697 433.36302,161.78224 445.33091,161.31085 457.70602,161.86164 468.85073,166.57003 471.0803,167.67493 473.35483,168.94557 475.93314,168.83695 484.36401,168.93215 492.85111,169.22663 501.06847,171.22065 520.01644,175.38898 537.72145,184.51603 552.80234,196.6445 560.85112,204.20497 567.90767,212.71314 574.48234,221.59437 583.23407,233.70065 591.21546,246.6397 596.27225,260.77087 598.79714,267.68827 599.9744,275.01777 599.9955,282.37531 600.18833,290.25179 599.84516,298.13457 598.40434,305.89021 595.82098,320.624 589.98177,335.20735 579.46957,346.10324 574.67672,351.03925 569.06572,355.22254 562.76305,358.06983 558.76828,358.89034 554.7184,359.05368 550.70029,359.5399 550.03159,359.79662 549.34914,359.11342 548.57076,359.30634 546.89449,359.35844 545.24188,359.00035 543.58353,359.03843 542.59472,359.6706 543.91681,360.79972 544.66891,360.7764 545.88357,361.67995 547.65118,361.30561 549.08583,361.53302 554.81565,361.83928 560.55974,360.94913 565.96385,359.05805 568.20599,358.78252 570.26188,357.74945 572.22391,356.62684 580.59888,352.13819 587.02639,344.62837 591.24817,336.18748 594.54355,329.43607 597.59664,322.52749 599.79029,315.33725 602.22355,306.16562 604.20642,296.7807 604.66695,287.27334 604.91403,280.09988 604.93586,272.85345 603.36751,265.81118 600.45996,250.72729 592.37269,237.31349 583.58473,224.94489 576.78091,215.33678 569.78855,205.84514 563.01301,196.2428 559.94022,193.07298 556.0422,190.83777 552.47333,188.2713 525.02437,169.51785 493.3636,158.16826 461.50447,149.38969 457.06925,148.23439 452.6449,146.91457 448.18084,145.94569 447.11826,146.00139 446.05569,146.05709 444.99311,146.11279 z"
       inkscape:connector-curvature="0"
       id="path3063"
       style="fill:#73a0a6;stroke:none" />
    <path
       d="M 421.93922,139.96463 C 420.87312,140.43696 421.00947,142.01437 420.41895,142.92219 417.70508,149.80156 413.03444,155.87682 406.98441,160.11274 406.11605,160.52762 406.55745,161.92283 407.52023,161.53472 411.28302,160.78601 414.56781,158.58222 417.27486,155.90176 420.06703,153.20098 422.99895,150.52579 426.7341,149.19718 432.12376,146.96006 438.02774,146.41473 443.78408,145.86549 444.6828,145.04684 443.13178,144.52667 442.4995,144.4916 435.74804,142.91772 429.00201,141.13083 422.18652,139.95776 422.10412,139.96076 422.02097,139.95076 421.93922,139.96476 z"
       inkscape:connector-curvature="0"
       id="path3065"
       style="fill:#b46a9f;stroke:none" />
    <path
       d="M 608.12608,269.84947 C 606.88697,269.86347 605.9579,270.9447 605.48363,271.87502 604.79951,271.44967 604.34988,272.3688 604.63843,272.93394 605.14781,278.20322 605.06042,283.54342 604.82629,288.83618 604.87609,289.72656 604.48065,290.63208 604.67729,291.49907 605.24154,292.27539 606.02945,291.29458 606.45026,290.8676 608.51913,289.04055 611.20314,288.04548 613.96957,288.1863 617.14417,288.0809 620.26334,288.76514 623.41243,288.8712 624.43827,288.7779 624.00841,287.55144 623.65531,287.00108 621.14367,281.52929 617.66454,276.4376 613.20552,272.38104 611.75471,271.20676 610.06198,269.8968 608.12608,269.84947 z"
       inkscape:connector-curvature="0"
       id="path3071"
       style="fill:#d39ccd;stroke:none" />
    <path
       d="M 458.11023,261.48865 C 447.89316,263.04536 443.04486,265.1864 441.64885,261.37698 439.56399,255.6878 449.91391,245.89036 446.67946,233.79101"
       inkscape:connector-curvature="0"
       id="path3039"
       style="fill:none;stroke:#0000e9;stroke-width:1;stroke-linecap:round;stroke-miterlimit:4;stroke-opacity:1;stroke-dasharray:none;stroke-dashoffset:0" />
    <path
       d="M 471.44288,168.40417 C 470.68647,169.30364 472.01641,170.32872 472.11609,171.31682 473.08008,175.49942 470.98898,179.61647 469.32746,183.32326 467.07504,187.85795 464.81018,192.56992 460.93461,195.94241 456.46296,200.4879 451.5541,204.72384 448.0043,210.06055 446.73882,211.97618 446.17335,214.27199 446.65102,216.53844 447.12096,221.90382 448.11312,227.2863 447.72952,232.66792 447.73552,233.60201 446.65912,234.23492 447.09753,235.23023 447.65865,239.60268 447.06873,244.10405 445.39391,248.17916 444.1606,251.79742 442.20266,255.21901 441.55388,259.00542 441.27375,260.81717 442.11226,263.07103 444.18488,263.237 447.49465,263.55926 450.76985,262.51746 454.03206,262.08441 455.45948,261.69623 457.10679,261.7609 458.38405,261.00443 460.52354,254.91048 461.89666,248.49683 462.36833,242.03099 462.5832,241.22349 462.03438,239.70012 462.70493,239.4206 462.65353,240.38817 462.67233,241.48695 463.65292,241.96917 467.1232,245.24735 470.88238,248.40144 473.88841,252.17031 475.38428,254.24939 474.9513,257.03742 474.60283,259.40385 474.02663,262.12494 472.29874,264.49181 471.53905,267.11137 476.87761,272.20694 480.15659,278.98503 482.67554,285.8031 485.33868,292.85501 487.09033,300.1973 489.12486,307.44882 489.95969,309.46995 492.1512,310.51097 493.67287,311.96787 508.9612,324.18331 525.60689,334.71472 540.05974,347.91521 543.72304,351.23493 546.94037,355.00396 550.05693,358.80486 551.40763,359.69364 553.17601,358.97038 554.66516,358.98823 558.66595,358.42157 563.00393,358.39203 566.42601,355.95454 577.93564,349.39057 586.78149,338.73267 592.00869,326.62147 598.69328,311.15601 600.73864,293.95997 599.54232,277.2316 598.90209,267.305 595.42667,257.828 590.98505,249.01281 582.34483,231.64709 570.83429,215.79086 557.53777,201.70042 550.78392,194.43086 542.33579,189.01468 533.77632,184.12148 517.45624,175.02226 499.05022,169.09977 480.23579,169.17062 477.42256,169.09662 474.51553,169.46176 471.85505,168.36982 471.71542,168.33762 471.57777,168.34012 471.44288,168.40412 z"
       inkscape:connector-curvature="0"
       id="path3055"
       style="fill:#d0cf6e;stroke:none" />
    <path
       d="M 433.48639,161.95375 C 427.75779,164.49897 421.91374,167.0114 416.0998,169.15294 415.53308,170.19805 416.4818,171.4507 416.4692,172.56349 418.21092,181.01493 422.81946,188.44394 426.34562,196.195 428.96414,201.76133 432.17755,207.66862 431.10269,214.01048 431.12079,215.03687 430.28192,215.91565 430.40888,216.90252 431.78664,218.48176 433.90349,219.18433 435.51288,220.52273 439.54713,223.40405 443.4065,226.86193 445.61098,231.38334 445.80362,232.11058 446.52328,233.95104 447.44513,232.92896 448.05949,230.48676 447.46513,227.87997 447.38663,225.38794 447.09208,221.39268 446.3228,217.38442 446.41467,213.39223 447.42824,209.36534 450.57841,206.3009 453.33422,203.33564 456.90597,199.57338 460.74074,196.04411 464.26721,192.25622 467.35453,186.68683 470.91423,181.13693 472.12017,174.79276 472.66342,172.48185 471.70607,170.22804 470.29912,168.43267 469.76309,167.12982 468.59756,166.56162 467.30929,166.21963 456.601,161.94578 444.85224,161.74308 433.48635,161.95375 z"
       inkscape:connector-curvature="0"
       id="path3058"
       style="fill:#a7b0c5;stroke:none" />
  </g>
</svg>
