<?xml version="1.0" encoding="UTF-8" standalone="no"?>
<!-- Created with Inkscape (http://www.inkscape.org/) -->

<svg
   xmlns:dc="http://purl.org/dc/elements/1.1/"
   xmlns:cc="http://creativecommons.org/ns#"
   xmlns:rdf="http://www.w3.org/1999/02/22-rdf-syntax-ns#"
   xmlns:svg="http://www.w3.org/2000/svg"
   xmlns="http://www.w3.org/2000/svg"
   xmlns:xlink="http://www.w3.org/1999/xlink"
   xmlns:inkscape="http://www.inkscape.org/namespaces/inkscape"
   version="1.1"
   width="740"
   height="520"
   id="svg2"
   style="display:inline;enable-background:new">
  <defs
     id="defs4">
    <filter
       color-interpolation-filters="sRGB"
       id="filter3050">
      <feBlend
         in2="BackgroundImage"
         mode="lighten"
         id="feBlend3052" />
    </filter>
  </defs>
  <metadata
     id="metadata7">
    <rdf:RDF>
      <cc:Work
         rdf:about="">
        <dc:format>image/svg+xml</dc:format>
        <dc:type
           rdf:resource="http://purl.org/dc/dcmitype/StillImage" />
        <dc:title />
      </cc:Work>
    </rdf:RDF>
  </metadata>
  <g
     id="g3889"
     style="display:none">
    <image
       xlink:href="pngs/coronal-0540.png"
       id="image3891"
       height="520"
       width="740"
       y="0"
       x="0" />
  </g>
  <g
     id="g3897"
     style="display:inline">
    <path
       d="M 409.82651,320.84076 C 409.31468,317.4003 411.4667,320.51951 412.02474,319.96147 412.12836,319.85784 411.92111,319.62545 412.02474,319.52182 412.23199,319.31457 412.69678,319.72907 412.90403,319.52182 413.00765,319.4182 412.8004,319.1858 412.90403,319.08218 413.11128,318.87493 413.57607,319.28943 413.78332,319.08218 413.88694,318.97855 413.67969,318.74616 413.78332,318.64253 414.95571,318.64253 413.63677,318.78908 414.22296,318.20289 414.32659,318.09926 414.55898,318.30651 414.66261,318.20289 414.76623,318.09926 414.55898,317.86687 414.66261,317.76324 414.86986,317.55599 415.33465,317.97049 415.5419,317.76324 415.64553,317.65962 415.43827,317.42722 415.5419,317.3236 415.64553,317.21997 415.87792,317.42722 415.98154,317.3236 416.08517,317.21997 415.87792,316.98758 415.98154,316.88395 416.1888,316.6767 416.59868,317.01503 416.86084,316.88395 417.37297,316.62789 417.66764,316.26073 418.17977,316.00466 418.44192,315.87359 418.79691,316.13574 419.05906,316.00466 420.1456,315.46139 418.9073,315.56502 419.93835,315.56502 421.11074,315.56502 419.7918,315.71157 420.378,315.12537 420.4006,315.10277 422.76504,315.12537 423.01587,315.12537 423.74502,315.12537 430.40922,315.04477 430.48983,315.12537 430.59346,315.229 430.38621,315.46139 430.48983,315.56502 430.78293,315.85811 431.95532,315.27192 432.24841,315.56502 432.35204,315.66864 432.14479,315.90104 432.24841,316.00466 432.46824,316.22449 433.34753,315.78484 433.56735,316.00466 433.67098,316.10829 433.46372,316.34068 433.56735,316.44431 433.78717,316.66413 434.66646,316.22449 434.88629,316.44431 434.98991,316.54793 434.78266,316.78033 434.88629,316.88395 434.98991,316.98758 435.2223,316.78033 435.32593,316.88395 435.42956,316.98758 435.2223,317.21997 435.32593,317.3236 435.42956,317.42722 435.61903,317.3236 435.76558,317.3236 435.76558,317.47015 435.66195,317.65962 435.76558,317.76324 435.97283,317.97049 436.43761,317.55599 436.64487,317.76324 436.74849,317.86687 436.54124,318.09926 436.64487,318.20289 436.74849,318.30651 436.95343,318.13739 437.08451,318.20289 438.91421,319.11774 436.61451,318.17259 437.52416,319.08218 437.62778,319.1858 437.86018,318.97855 437.9638,319.08218 438.06743,319.1858 437.8983,319.39075 437.9638,319.52182 438.0565,319.70719 438.31076,319.7761 438.40345,319.96147 438.46895,320.09255 438.29982,320.29749 438.40345,320.40111 438.50707,320.50474 438.73947,320.29749 438.84309,320.40111 438.94672,320.50474 438.73947,320.73713 438.84309,320.84076 438.94672,320.94438 439.17911,320.73713 439.28274,320.84076 439.38636,320.94438 439.21724,321.14933 439.28274,321.2804 439.5388,321.79254 439.90596,322.08721 440.16203,322.59934 440.22753,322.73042 440.0584,322.93536 440.16203,323.03899 440.26565,323.14261 440.49805,322.93536 440.60167,323.03899 440.62787,323.06519 440.60167,325.82267 440.60167,326.1165 440.60167,326.85178 440.8629,329.55085 440.60167,330.07331 440.50897,330.25868 440.25471,330.32758 440.16203,330.51295 439.9768,330.8834 440.35263,332.96022 440.16203,333.15082 440.0584,333.25445 439.82601,333.0472 439.72238,333.15082 439.51513,333.35807 439.92963,333.82286 439.72238,334.03011 439.61876,334.13374 439.38636,333.92649 439.28274,334.03011 439.07549,334.23736 439.48999,334.70215 439.28274,334.9094 439.17911,335.01303 438.94672,334.80578 438.84309,334.9094 438.73947,335.01303 438.90859,335.21797 438.84309,335.34905 438.5793,335.87662 437.78794,336.14041 437.52416,336.66798 437.45866,336.79906 437.62778,337.004 437.52416,337.10763 437.42053,337.21125 437.18814,337.004 437.08451,337.10763 436.17487,338.01727 438.47456,337.07203 436.64487,337.98692 436.38271,338.118 435.97283,337.77967 435.76558,337.98692 435.66195,338.09054 435.8692,338.32294 435.76558,338.42656 435.54575,338.64639 434.66646,338.20674 434.44664,338.42656 434.34301,338.53019 434.55027,338.76258 434.44664,338.86621 434.25604,339.05681 432.17921,338.68099 431.80877,338.86621 431.6234,338.95891 431.55449,339.21317 431.36912,339.30585 431.23035,339.37525 429.70564,339.40095 429.61054,339.30585 429.50692,339.20223 429.71417,338.96983 429.61054,338.86621 429.40731,338.66298 428.55705,338.99893 428.29161,338.86621 428.10624,338.77351 428.03733,338.51925 427.85196,338.42656 427.50025,338.25071 426.88474,338.60242 426.53303,338.42656 426.34766,338.33386 426.27875,338.0796 426.09338,337.98692 425.72734,337.8039 424.61367,338.26579 424.3348,337.98692 424.23118,337.88329 424.43843,337.6509 424.3348,337.54727 424.12755,337.34002 423.71767,337.67835 423.45551,337.54727 423.27014,337.45457 423.20124,337.20031 423.01587,337.10763 422.66415,336.93177 422.04865,337.28349 421.69693,337.10763 420.61039,336.56436 421.84869,336.66798 420.81764,336.66798 420.52454,336.66798 420.1456,336.87523 419.93835,336.66798 419.83473,336.56436 420.04198,336.33196 419.93835,336.22834 419.7311,336.02109 419.32121,336.35942 419.05906,336.22834 418.54693,335.97227 418.25226,335.60511 417.74013,335.34905 417.47797,335.21797 417.06809,335.5563 416.86084,335.34905 416.75721,335.24542 416.96446,335.01303 416.86084,334.9094 416.65358,334.70215 416.1888,335.11665 415.98154,334.9094 415.87792,334.80578 416.08517,334.57338 415.98154,334.46976 415.87792,334.36613 415.64553,334.57338 415.5419,334.46976 415.43827,334.36613 415.64553,334.13374 415.5419,334.03011 415.43827,333.92649 415.20588,334.13374 415.10225,334.03011 414.99863,333.92649 415.20588,333.69409 415.10225,333.59047 414.99863,333.48684 414.79369,333.65597 414.66261,333.59047 414.47724,333.49777 414.36951,333.29737 414.22296,333.15082 414.07642,333.00427 413.96869,332.80386 413.78332,332.71118 413.65224,332.64568 413.49022,332.71118 413.34367,332.71118 413.19713,332.56463 413.0894,332.36422 412.90403,332.27153 412.77295,332.20603 412.56801,332.37516 412.46438,332.27153 412.36076,332.16791 412.56801,331.93551 412.46438,331.83189 412.36076,331.72826 412.12836,331.93551 412.02474,331.83189 411.92111,331.72826 412.12836,331.49587 412.02474,331.39224 411.92111,331.28862 411.73164,331.39224 411.58509,331.39224 411.58509,331.24569 411.68872,331.05622 411.58509,330.9526 411.48147,330.84897 411.24907,331.05622 411.14545,330.9526 411.04182,330.84897 411.24907,330.61658 411.14545,330.51295 411.04182,330.40933 410.80943,330.61658 410.7058,330.51295 410.60218,330.40933 410.7713,330.20438 410.7058,330.07331 410.6131,329.88794 410.35884,329.81903 410.26616,329.63366 410.20066,329.50259 410.36978,329.29764 410.26616,329.19402 410.16253,329.09039 409.93014,329.29764 409.82651,329.19402 409.61926,328.98677 410.03376,328.52198 409.82651,328.31473 409.72289,328.2111 409.49049,328.41835 409.38687,328.31473 409.0205,327.94836 409.75324,326.48287 409.38687,326.1165 409.28324,326.01288 409.05085,326.22013 408.94722,326.1165 408.8436,326.01288 408.94722,325.8234 408.94722,325.67686 408.94722,324.93294 408.71403,323.73857 408.94722,323.03899 409.19679,322.2903 409.53342,321.5735 409.82651,320.84076 z"
       inkscape:connector-curvature="0"
       id="path3899"
       style="fill:none;stroke:#0000e9;stroke-width:1;stroke-miterlimit:4;stroke-opacity:1;stroke-dasharray:none;stroke-dashoffset:0" />
    <path
       d="M 368.06023,174.87858 C 368.06023,145.862 368.06023,116.84542 368.06023,87.828845 383.60253,67.884379 411.58002,63.693965 434.96345,69.335793 493.93443,79.045719 553.2811,96.519555 602.75433,130.98941 636.4188,158.78216 649.69802,203.041 656.37488,244.58467 659.10301,273.3903 645.50758,299.95964 636.00654,326.15663 631.02811,350.98901 611.10704,369.30447 591.73803,383.79693 579.13239,389.93036 555.93514,382.54014 552.42113,400.53563 551.48819,417.08774 532.80263,425.94766 522.39112,436.9341 518.0153,438.37686 514.4728,441.28092 510.50525,443.50175"
       inkscape:connector-curvature="0"
       id="path3901"
       style="fill:none;stroke:#0000e9;stroke-width:1;stroke-miterlimit:4;stroke-opacity:1;stroke-dasharray:none;stroke-dashoffset:0" />
    <path
       d="M 509.18631,443.0621 C 505.43041,444.94719 513.31141,442.9747 511.5933,443.1268 507.36304,445.70618 499.05201,445.25731 494.34007,445.92041 489.69934,446.25788 485.29601,445.07887 480.97065,443.60145 474.02657,442.07913 467.28687,439.89072 460.3857,438.22605 455.64676,436.22768 450.3846,435.54458 445.88408,432.9415 441.79962,431.17061 437.41791,429.36251 434.68087,425.64739 430.59488,421.42393 427.93017,415.69039 422.65931,412.70393 416.94187,410.56688 410.77503,408.40701 404.53777,409.09386 398.36421,411.99988 392.6815,406.57096 386.93965,404.99984 381.26184,403.4602 374.05088,400.53423 373.72998,394.06188 373.34589,389.46562 369.43397,389.26947 366.74129,388.54615"
       inkscape:connector-curvature="0"
       id="path3903"
       style="fill:none;stroke:#0000e9;stroke-width:1;stroke-miterlimit:4;stroke-opacity:1;stroke-dasharray:none;stroke-dashoffset:0" />
    <path
       d="M 368.49987,173.99929 C 372.02353,174.93347 366.30273,172.97978 371.26294,175.3202 372.5325,177.51336 371.0298,184.4756 371.52743,187.21605 373.24608,187.22505 384.07728,188.35685 389.11535,186.70725 405.92746,183.93285 418.97861,169.58208 424.49147,154.47415 429.28079,155.26335 434.18354,154.47815 437.9638,156.41348 443.96684,159.31471 455.93888,161.67091 464.27304,164.79777 490.16673,173.27176 515.14677,184.30118 539.52182,196.42119 545.45717,203.85244 553.40188,209.63113 559.07595,217.40295 568.21531,228.61106 574.66811,237.89469 580.40882,251.04909 580.80559,256.79933 582.42004,265.68302 582.52124,271.34722 584.0494,278.57297 583.67342,286.43581 582.56934,293.56782 581.73984,298.45676 581.37787,303.59708 579.52951,308.09105 577.94186,313.55464 577.42606,318.34619 574.51719,323.70642 570.58589,317.43589 575.55809,311.43344 576.47833,305.45328 577.81351,298.58185 578.32425,291.379 578.21058,283.91057 579.47497,277.02772 578.07542,269.10812 577.29534,262.84029 576.62577,257.21587 573.79954,251.86657 572.05554,246.54073 570.2542,243.58989 569.51961,240.55387 567.65909,237.30819 567.15084,234.8923 566.00263,233.28372 564.99266,231.61339 563.896,228.98447 561.89543,226.2542 560.62477,224.11883 558.41437,221.0866 557.95782,222.17548 557.12095,219.42683 533.65398,197.57156 503.68553,181.86284 471.34863,179.49672 461.71455,178.59938 452.00859,178.60371 442.36023,179.27503 418.38553,191.04994 394.2811,203.45627 367.62056,207.85196"
       inkscape:connector-curvature="0"
       id="path3905"
       style="fill:none;stroke:#0000e9;stroke-width:1;stroke-miterlimit:4;stroke-opacity:1;stroke-dasharray:none;stroke-dashoffset:0" />
    <path
       d="M 441.48096,180.15432 C 442.06716,180.15432 443.23954,180.74051 443.23954,180.15432 443.23954,179.56813 441.29559,179.59821 441.48096,180.15432 441.75118,180.96499 443.01192,180.93944 443.67919,181.47326 443.79362,181.56476 443.67919,181.76635 443.67919,181.9129 443.67919,183.05933 443.93609,186.85757 443.67919,187.62829 443.57556,187.93916 443.34317,188.1967 443.23954,188.50758 443.06368,189.03515 443.4154,189.73858 443.23954,190.26616 443.17404,190.46277 442.89258,190.52043 442.7999,190.7058 442.62833,191.04893 442.53182,192.12126 442.36025,192.46438 442.26755,192.64975 442.01329,192.71866 441.92061,192.90403 441.74904,193.24716 441.65253,194.31948 441.48096,194.66261 441.38826,194.84798 441.10686,194.90564 441.04132,195.10225 440.94862,195.38031 441.13402,195.70349 441.04132,195.98154 440.97582,196.17816 440.69436,196.23582 440.60167,196.42119 440.40506,196.81442 440.7407,197.32304 440.60167,197.74013 440.53617,197.93674 440.25471,197.9944 440.16203,198.17977 440.03095,198.44192 440.2931,198.79691 440.16203,199.05906 440.06933,199.24443 439.81507,199.31334 439.72238,199.49871 439.48788,199.96771 439.95689,199.90899 439.72238,200.378 439.62968,200.56337 439.37542,200.63227 439.28274,200.81764 439.21724,200.94872 439.34824,201.12621 439.28274,201.25729 439.19004,201.44266 438.93578,201.51156 438.84309,201.69693 438.77759,201.82801 438.90859,202.0055 438.84309,202.13658 438.75039,202.32195 438.49613,202.39085 438.40345,202.57622 438.33795,202.7073 438.46895,202.88479 438.40345,203.01587 438.31075,203.20124 438.02934,203.2589 437.9638,203.45551 437.82477,203.8726 438.16042,204.38122 437.9638,204.77445 437.8711,204.95982 437.61684,205.02872 437.52416,205.21409 437.32754,205.60732 437.66318,206.11594 437.52416,206.53303 437.45866,206.72964 437.1772,206.7873 437.08451,206.97267 436.8879,207.3659 437.22354,207.87452 437.08451,208.29161 437.01901,208.48822 436.73755,208.54588 436.64487,208.73125 436.51379,208.99341 436.77594,209.34839 436.64487,209.61054 436.55217,209.79591 436.29791,209.86482 436.20522,210.05019 435.91212,210.63638 436.49832,211.66222 436.20522,212.24841 436.11252,212.43379 435.85826,212.50269 435.76558,212.68806 435.59198,213.03525 435.88917,213.63622 435.76558,214.00699 435.66195,214.31787 435.42956,214.57541 435.32593,214.88629 435.05055,215.71241 435.32593,221.03363 435.32593,222.36025 435.32593,222.65575 435.45566,223.41972 435.32593,223.67919 435.23323,223.86456 434.97897,223.93346 434.88629,224.11883 434.41733,225.05674 435.35524,226.69808 434.88629,227.63599 434.79359,227.82136 434.53933,227.89027 434.44664,228.07564 434.26408,228.44076 434.44664,229.41742 434.44664,229.83422 434.44664,230.7109 434.66601,234.67123 434.44664,235.10996 434.35394,235.29533 434.09968,235.36424 434.00699,235.54961 433.81038,235.94284 434.00699,236.4289 434.00699,236.86854 434.00699,238.10641 434.30446,243.01047 434.00699,243.90286 433.90337,244.21374 433.67098,244.47128 433.56735,244.78215 433.10247,246.17678 434.03359,249.09881 433.56735,250.49754 433.46372,250.80842 433.23133,251.06595 433.1277,251.37683 432.83308,252.26071 433.1277,257.97227 433.1277,259.29044 433.1277,264.41964 433.1277,269.54883 433.1277,274.67802 433.1277,277.75554 433.1277,280.83305 433.1277,283.91057 433.1277,284.68659 433.33914,289.20308 433.1277,289.62596 433.035,289.81133 432.78074,289.88023 432.68806,290.0656 432.33634,290.76903 433.03978,292.00004 432.68806,292.70347 432.14479,293.79001 432.24841,292.55172 432.24841,293.58276 432.24841,293.85105 432.41972,295.17004 432.24841,295.34134 432.14479,295.44497 431.91239,295.23772 431.80877,295.34134 431.58895,295.56117 432.02859,296.44046 431.80877,296.66028 431.70514,296.7639 431.47275,296.55665 431.36912,296.66028 431.16589,296.86351 431.50185,297.71377 431.36912,297.97921 431.27642,298.16458 431.02216,298.23349 430.92948,298.41886 430.86398,298.54994 431.0331,298.75488 430.92948,298.8585 430.82585,298.96213 430.59346,298.75488 430.48983,298.8585 430.38621,298.96213 430.63638,299.29815 430.48983,299.29815 429.79229,299.29815 430.05019,295.01176 430.05019,294.46205 430.05019,293.72452 429.80067,291.00427 430.05019,290.50525 430.14289,290.31988 430.4243,290.26222 430.48983,290.0656 430.78938,289.16697 430.48983,286.71603 430.48983,285.66915 430.48983,284.6938 430.21424,280.50495 430.48983,279.95376 430.58253,279.76839 430.86394,279.71073 430.92948,279.51412 431.05884,279.12603 430.92948,278.2174 430.92948,277.75554 430.92948,276.7084 430.6562,271.26776 430.92948,270.72122 431.02218,270.53585 431.27644,270.46694 431.36912,270.28157 431.66627,269.68728 431.36912,263.4691 431.36912,262.36796 431.36912,261.16813 431.66827,257.11036 431.36912,256.21293 431.2655,255.90205 431.0331,255.64451 430.92948,255.33364 430.64027,254.466 431.33553,253.06822 430.92948,252.25612 430.83678,252.07075 430.55537,252.01309 430.48983,251.81648 430.22605,251.02511 430.75362,249.96997 430.48983,249.1786 430.38621,248.86773 430.15381,248.61019 430.05019,248.29931 429.75857,247.42446 430.45921,246.03983 430.05019,245.2218 429.95749,245.03643 429.67608,244.97877 429.61054,244.78215 429.21486,243.59511 430.00622,242.01239 429.61054,240.82535 429.50692,240.51447 429.27452,240.25693 429.1709,239.94606 428.92122,239.19702 429.52099,238.00836 429.1709,237.30819 429.0782,237.12282 428.82394,237.05391 428.73125,236.86854 428.55766,236.52135 428.85484,235.92038 428.73125,235.54961 428.62763,235.23873 428.39523,234.98119 428.29161,234.67032 428.19891,234.39226 428.42269,234.05318 428.29161,233.79103 428.19891,233.60565 427.94465,233.53675 427.85196,233.35138 427.72089,233.08923 427.98304,232.73424 427.85196,232.47209 427.75926,232.28672 427.505,232.21782 427.41232,232.03244 427.17746,231.56272 427.64718,231.62288 427.41232,231.15315 427.15625,230.64102 426.78909,230.34635 426.53303,229.83422 426.44463,229.65734 426.13689,228.11915 426.09338,228.07564 425.98976,227.97201 425.75736,228.17926 425.65374,228.07564 425.55011,227.97201 425.71924,227.76707 425.65374,227.63599 425.56104,227.45062 425.30678,227.38172 425.21409,227.19635 425.14859,227.06527 425.27959,226.88778 425.21409,226.7567 423.75597,225.29858 425.42134,227.1712 424.77445,225.87741 424.58908,225.50667 424.08053,225.36886 423.89516,224.99812 423.82966,224.86705 423.96066,224.68955 423.89516,224.55848 423.80246,224.37311 423.57047,224.29128 423.45551,224.11883 422.4869,223.89743 423.22312,223.2144 423.01587,222.7999 422.8305,222.42916 422.32195,222.29135 422.13658,221.92061 422.07108,221.78953 422.2402,221.58459 422.13658,221.48096 422.03295,221.37734 421.80056,221.58459 421.69693,221.48096 421.59331,221.37734 421.76243,221.17239 421.69693,221.04132 421.60423,220.85595 421.34997,220.78704 421.25729,220.60167 421.19179,220.47059 421.32279,220.2931 421.25729,220.16203 420.9935,219.63445 420.20214,219.37067 419.93835,218.84309 419.87285,218.71201 420.04198,218.50707 419.93835,218.40345 419.83473,218.29982 419.60233,218.50707 419.49871,218.40345 419.39508,218.29982 419.56421,218.09488 419.49871,217.9638 419.26527,217.49693 418.85285,217.55138 418.61942,217.08451 418.55392,216.95343 418.68492,216.77594 418.61942,216.64487 417.70457,214.81517 418.64972,217.11486 417.74013,216.20522 417.53287,215.99797 417.94738,215.53318 417.74013,215.32593 417.6365,215.2223 417.40411,215.42956 417.30048,215.32593 417.19685,215.2223 417.40411,214.98991 417.30048,214.88629 417.19685,214.78266 416.96446,214.98991 416.86084,214.88629 416.75721,214.78266 416.96446,214.55027 416.86084,214.44664 416.75721,214.34301 416.52482,214.55027 416.42119,214.44664 416.31756,214.34301 416.48669,214.13807 416.42119,214.00699 416.06947,213.30356 415.01433,212.95185 414.66261,212.24841 414.59711,212.11734 414.76623,211.91239 414.66261,211.80877 413.75297,210.89913 414.69821,213.19882 413.78332,211.36912 413.71782,211.23805 413.84882,211.06056 413.78332,210.92948 413.63677,210.63638 412.75748,209.75709 412.46438,209.61054 412.33331,209.54504 412.12836,209.71417 412.02474,209.61054 411.92111,209.50692 412.09024,209.30198 412.02474,209.1709 411.76095,208.64332 410.96959,208.37954 410.7058,207.85196 410.6403,207.72089 410.7713,207.54339 410.7058,207.41232 410.52043,207.04158 410.01188,206.90377 409.82651,206.53303 409.76101,206.40195 409.89201,206.22446 409.82651,206.09338 409.73381,205.90801 409.47955,205.83911 409.38687,205.65374 409.32137,205.52266 409.49049,205.31772 409.38687,205.21409 409.28324,205.11047 409.05085,205.31772 408.94722,205.21409 408.8436,205.11047 409.01272,204.90552 408.94722,204.77445 407.4891,203.31633 409.15447,205.18895 408.50758,203.89516 407.59273,202.06546 408.53788,204.36515 407.62829,203.45551 407.52466,203.35189 407.69379,203.14694 407.62829,203.01587 407.53559,202.8305 407.28133,202.76159 407.18864,202.57622 407.12314,202.44514 407.29227,202.2402 407.18864,202.13658 407.08502,202.03295 406.85262,202.2402 406.749,202.13658 406.64537,202.03295 406.85262,201.80056 406.749,201.69693 406.64537,201.59331 406.41298,201.80056 406.30935,201.69693 406.20573,201.59331 406.37485,201.38836 406.30935,201.25729 406.21665,201.07192 405.96239,201.00301 405.86971,200.81764 405.80421,200.68656 405.97333,200.48162 405.86971,200.378 405.76608,200.27437 405.53369,200.48162 405.43006,200.378 405.32644,200.27437 405.43006,200.0849 405.43006,199.93835 405.28351,199.93835 405.09404,200.04198 404.99042,199.93835 404.88679,199.83473 405.05592,199.62978 404.99042,199.49871 404.89772,199.31334 404.64346,199.24443 404.55077,199.05906 404.48527,198.92798 404.6544,198.72304 404.55077,198.61942 404.44715,198.51579 404.21475,198.72304 404.11113,198.61942 403.8913,198.39959 404.33095,197.5203 404.11113,197.30048 404.0075,197.19685 403.77511,197.40411 403.67148,197.30048 403.46423,197.09323 403.87873,196.62844 403.67148,196.42119 403.56786,196.31756 403.33546,196.52482 403.23184,196.42119 403.12821,196.31756 403.33546,196.08517 403.23184,195.98154 403.12821,195.87792 402.79219,195.835 402.79219,195.98154 402.79219,196.12809 403.10076,195.91604 403.23184,195.98154 403.60258,196.16692 403.81803,196.56774 404.11113,196.86084"
       inkscape:connector-curvature="0"
       id="path3907"
       style="fill:none;stroke:#0000e9;stroke-width:1;stroke-miterlimit:4;stroke-opacity:1;stroke-dasharray:none;stroke-dashoffset:0" />
    <path
       d="M 576.01237,321.2804 634.04553,334.46976"
       inkscape:connector-curvature="0"
       id="path3909"
       style="fill:none;stroke:#0000e9;stroke-width:1;stroke-miterlimit:4;stroke-opacity:1;stroke-dasharray:none;stroke-dashoffset:0" />
    <path
       d="M 582.60705,273.35909 654.2692,271.16086"
       inkscape:connector-curvature="0"
       id="path3911"
       style="fill:none;stroke:#0000e9;stroke-width:1;stroke-miterlimit:4;stroke-opacity:1;stroke-dasharray:none;stroke-dashoffset:0" />
    <path
       d="M 572.05556,233.79103 650.75204,214.00699"
       inkscape:connector-curvature="0"
       id="path3913"
       style="fill:none;stroke:#0000e9;stroke-width:1;stroke-miterlimit:4;stroke-opacity:1;stroke-dasharray:none;stroke-dashoffset:0" />
    <path
       d="M 515.78099,184.11113 557.98692,104.09571"
       inkscape:connector-curvature="0"
       id="path3915"
       style="fill:none;stroke:#0000e9;stroke-width:1;stroke-miterlimit:4;stroke-opacity:1;stroke-dasharray:none;stroke-dashoffset:0" />
    <path
       d="M 489.40228,173.12 524.57389,90.466716"
       inkscape:connector-curvature="0"
       id="path3917"
       style="fill:none;stroke:#0000e9;stroke-width:1;stroke-miterlimit:4;stroke-opacity:1;stroke-dasharray:none;stroke-dashoffset:0" />
    <path
       d="M 465.66144,165.64603 C 474.07631,140.50132 482.22757,107.17938 491.60051,79.475588"
       inkscape:connector-curvature="0"
       id="path3919"
       style="fill:none;stroke:#0000e9;stroke-width:1;stroke-miterlimit:4;stroke-opacity:1;stroke-dasharray:none;stroke-dashoffset:0" />
    <path
       d="M 436.20522,154.6549 443.67919,70.24304"
       inkscape:connector-curvature="0"
       id="path3921"
       style="fill:none;stroke:#0000e9;stroke-width:1;stroke-miterlimit:4;stroke-opacity:1;stroke-dasharray:none;stroke-dashoffset:0" />
    <path
       d="M 423.45551,156.41348 C 406.17922,130.28543 391.97719,102.75312 374.6549,79.915233"
       inkscape:connector-curvature="0"
       id="path3923"
       style="fill:none;stroke:#0000e9;stroke-width:1;stroke-miterlimit:4;stroke-opacity:1;stroke-dasharray:none;stroke-dashoffset:0" />
    <path
       d="M 423.45551,156.41348 C 403.73378,147.43368 388.23163,137.22593 368.93952,128.71584"
       inkscape:connector-curvature="0"
       id="path3925"
       style="fill:none;stroke:#0000e9;stroke-width:1;stroke-miterlimit:4;stroke-opacity:1;stroke-dasharray:none;stroke-dashoffset:0" />
    <path
       d="M 584.36563,275.11767 C 599.91922,279.54181 593.93649,308.63294 580.71006,320.21347 L 579.53003,320.40106"
       inkscape:connector-curvature="0"
       id="path3927"
       style="fill:none;stroke:#0000e9;stroke-width:1;stroke-miterlimit:4;stroke-opacity:1;stroke-dasharray:none;stroke-dashoffset:0" />
    <path
       d="M 444.00346,430.67593 C 441.11975,424.92987 444.73454,415.06112 451.7984,413.62252 465.10573,412.21736 478.16035,417.41934 491.30681,417.09614 500.78291,418.29633 506.68518,417.73821 513.22752,414.51522 520.66516,413.48066 531.39535,399.89766 538.34775,398.16564 543.61105,398.39332 546.19825,406.81602 550.12281,410.9436"
       inkscape:connector-curvature="0"
       id="path3929"
       style="fill:none;stroke:#0000e9;stroke-width:1;stroke-miterlimit:4;stroke-opacity:1;stroke-dasharray:none;stroke-dashoffset:0" />
    <path
       d="M 452.69191,413.16624 C 450.40941,398.69399 473.4042,400.34105 484.87694,400.13019 499.33351,400.8909 510.71242,391.43858 525.00513,389.38409 528.41648,389.7979 536.1076,396.81646 536.48795,399.12183"
       inkscape:connector-curvature="0"
       id="path3931"
       style="fill:none;stroke:#0000e9;stroke-width:1;stroke-miterlimit:4;stroke-opacity:1;stroke-dasharray:none;stroke-dashoffset:0" />
    <path
       d="M 596.67569,326.1165 C 595.43805,335.6522 584.57499,345.16369 578.51676,351.89965 568.1971,362.30417 553.02763,371.83525 541.95379,381.36859 535.79492,386.89612 538.7767,388.98564 539.47899,397.67033"
       inkscape:connector-curvature="0"
       id="path3933"
       style="fill:none;stroke:#0000e9;stroke-width:1;stroke-miterlimit:4;stroke-opacity:1;stroke-dasharray:none;stroke-dashoffset:0" />
    <path
       d="M 369.07367,129.10232 C 387.37694,137.41589 404.75713,147.87783 422.93019,156.51145 423.31943,158.38454 421.24816,160.41062 420.53725,162.24898 413.89288,173.63904 403.31863,183.66786 389.98429,186.28366 384.15397,187.71392 378.02555,186.99429 372.06875,187.23165 370.93094,185.43684 372.17192,182.44818 371.92833,180.19816 372.00293,177.90394 372.21047,174.49572 369.20904,174.08527 366.99655,172.76929 368.75679,169.05307 368.19438,166.77441 368.28098,154.30882 367.99045,141.80834 368.45542,129.36336 368.69479,129.46881 368.83408,128.99568 369.07367,129.10232 z"
       inkscape:connector-curvature="0"
       id="path5973"
       style="fill:#6a72bc;stroke:none" />
    <path
       d="M 375.62713,81.771775 C 392.36245,104.46906 405.66887,129.49159 421.02048,153.13167 421.94196,154.04855 420.88486,155.30888 419.86642,154.36818 402.93686,146.28323 386.79158,136.45494 369.66444,128.85502 367.63684,128.47707 368.69122,125.57134 368.29407,124.14269 368.18534,112.11099 368.06754,100.01814 368.31807,88.022979 370.51554,85.754946 372.45348,82.900283 375.37987,81.593169 L 375.62717,81.771775 z"
       inkscape:connector-curvature="0"
       id="path5975"
       style="fill:#746bdb;stroke:none" />
    <path
       d="M 414.32964,67.59322 C 424.02311,67.803762 433.8045,69.087036 443.20882,71.110381 441.106,98.303236 438.52273,125.50542 436.13329,152.69203 436.11589,154.04916 435.6228,155.86702 433.78723,155.03058 430.30845,154.76701 426.60579,154.23596 423.23245,154.69791 419.65185,151.11685 417.56298,146.2058 414.65071,142.04884 402.18197,121.735 390.16847,101.11275 376.43772,81.661864 375.33483,79.91548 378.37664,79.01956 379.28168,77.979836 389.28655,70.383609 401.87503,67.234063 414.32964,67.59322 z"
       inkscape:connector-curvature="0"
       id="path5977"
       style="fill:#b1daa9;stroke:none" />
    <path
       d="M 444.80254,71.234031 C 459.85501,73.936957 474.78423,77.30974 489.59139,81.098568 491.30143,81.817464 489.32238,84.122418 489.35782,85.398847 481.19818,111.72 474.02754,138.38444 465.71316,164.63114 463.36215,164.90391 461.02114,163.06641 458.65316,162.73194 451.39062,160.38883 443.79734,158.77331 436.87519,155.54972 436.5518,151.00312 437.52569,146.20738 437.69458,141.57875 439.69964,118.23089 441.50644,94.850153 443.95073,71.550026 444.09085,71.192168 444.48456,71.192298 444.80254,71.234031 z"
       inkscape:connector-curvature="0"
       id="path5979"
       style="fill:#dbc198;stroke:none" />
    <path
       d="M 492.00943,81.785514 C 502.48493,84.797666 512.98777,87.889055 523.22424,91.608835 523.40753,93.945559 521.34694,96.17576 520.79526,98.477166 510.36269,123.21572 499.92689,147.9405 489.28913,172.58597 487.6275,173.97504 485.40745,171.53708 483.60026,171.39142 478.0886,169.19579 472.25778,167.61195 466.90844,165.112 465.72103,163.38955 467.82176,161.14171 467.90703,159.27404 475.93996,133.64142 482.7448,107.61994 491.03397,82.074031 491.19993,81.724376 491.68898,81.662455 492.00943,81.785514 z"
       inkscape:connector-curvature="0"
       id="path5981"
       style="fill:#d7ab8f;stroke:none" />
    <path
       d="M 524.77673,92.282041 C 535.65893,95.806666 546.14045,100.48929 556.62353,105.04549 556.7472,107.38718 554.31753,109.79399 553.45394,112.15617 540.75657,136.17262 528.10738,160.21454 515.42054,184.23657 513.25997,184.48384 510.96075,182.39924 508.75716,181.74982 502.4776,178.86682 495.79485,176.61464 489.61886,173.61639 498.71227,151.32385 508.45933,129.21678 517.84328,107.00101 520.03516,102.13185 521.89257,97.027814 524.30961,92.309519 524.46045,92.253439 524.62151,92.264459 524.77673,92.282039 z"
       inkscape:connector-curvature="0"
       id="path5983"
       style="fill:#736cd4;stroke:none" />
    <path
       d="M 558.06611,106.07591 C 567.99661,109.84924 577.25213,115.34465 586.61119,120.39945 605.42782,130.99553 620.80635,147.16209 631.21883,166.02861 639.3944,180.70478 645.24937,196.63083 649.31995,212.90967 648.20105,214.75783 645.25224,214.56767 643.421,215.44012 619.80063,221.63055 596.09257,227.68208 572.36832,233.35317 569.5314,232.39374 568.6102,228.81727 566.6391,226.78949 558.36085,215.56008 548.64002,205.41843 538.68239,195.71106 531.24568,191.95805 523.38887,188.82642 516.3273,184.47013 517.59853,180.43701 520.2934,176.62528 522.12122,172.69116 533.85763,150.51199 545.3963,128.18843 557.42038,106.18582 557.60444,106.04365 557.84791,106.04703 558.06611,106.07591 z"
       inkscape:connector-curvature="0"
       id="path5985"
       style="fill:#bf9784;stroke:none" />
    <path
       d="M 649.30621,214.83312 C 651.14683,216.10909 650.53873,219.06789 651.45548,220.93771 653.94822,230.7094 656.57247,240.59429 656.02454,250.78785 655.81465,257.25598 656.21425,263.95843 654.44457,270.2284 652.60799,271.45239 649.86081,270.59716 647.71339,271.03741 626.22815,271.87557 604.73547,272.63548 583.2358,272.96245 582.19376,271.89297 583.01687,269.69426 582.51841,268.21101 581.72153,262.13879 581.57992,255.84978 580.20469,249.93269 577.79985,244.68812 574.75636,239.74567 572.23093,234.58967 573.55605,233.0209 576.53666,233.29778 578.48248,232.45293 602.07043,226.52476 625.65585,220.40314 649.30621,214.83312 z"
       inkscape:connector-curvature="0"
       id="path5987"
       style="fill:#e19179;stroke:none" />
    <path
       d="M 653.27676,271.69847 C 654.90407,272.13222 653.46264,274.59336 653.43621,275.75329 649.81371,291.4457 643.33472,306.23141 637.09232,320.99368 635.50287,325.02036 635.63669,329.58758 634.11098,333.59226 632.37266,334.78543 630.09827,332.82339 628.18621,332.88488 614.05648,329.51023 599.74331,326.83966 585.81871,322.83469 585.37801,322.31532 585.16986,321.91789 584.54099,322.65609 582.92578,322.60529 580.40058,322.61799 579.59498,321.00742 579.97378,319.97356 581.58454,320.53816 582.04051,319.30379 588.03624,312.92024 592.08497,304.57856 593.3393,295.89392 593.47463,290.10811 594.43099,283.44222 590.2289,278.81522 588.63783,276.90294 586.54514,275.19452 584.01891,274.99581 582.98098,273.32804 586.08418,273.6966 587.02647,273.58845 609.09674,272.68385 631.1895,271.90373 653.27676,271.69847 z"
       inkscape:connector-curvature="0"
       id="path5989"
       style="fill:#cda392;stroke:none" />
    <path
       d="M 584.51351,275.50415 C 591.30574,277.62051 593.80146,285.38159 593.30642,291.85345 592.64472,302.09473 588.35039,312.24702 581.01009,319.44118 579.83187,319.68521 579.80595,320.60782 579.43012,321.48828 578.50591,321.73854 577.15698,321.50598 576.43504,320.87003 576.86087,317.52623 578.4647,314.23381 579.14043,310.86226 582.74127,299.61481 583.54946,287.71565 583.82657,275.97127 583.89567,275.6912 584.10186,275.399 584.51351,275.50415 z"
       inkscape:connector-curvature="0"
       id="path5993"
       style="fill:#c7afc8;stroke:none" />
    <path
       d="M 467.2002,399.97688 C 461.31608,388.64684 422.29619,392.62358 425.27102,407.13473 426.02346,410.80513 432.06562,417.00803 445.87741,416.24375"
       inkscape:connector-curvature="0"
       id="path6187"
       style="fill:none;stroke:#0000e9;stroke-width:1;stroke-linecap:round;stroke-miterlimit:4;stroke-opacity:1;stroke-dasharray:none;stroke-dashoffset:0" />
    <path
       d="M 449.71695,393.61491 C 454.73911,393.75249 460.12293,394.25019 464.38735,397.14032 465.2927,398.03362 466.82906,398.84971 466.89745,400.22333 466.20985,401.1141 464.61657,400.85139 463.57717,401.21574 459.81212,402.06944 455.62223,403.49177 453.48828,406.96913 452.33899,408.86399 452.64422,411.15166 452.45788,413.22887 451.66117,413.80608 450.40427,413.7468 449.51141,414.36547 448.38424,414.83498 447.53327,415.73291 446.49517,416.32533 440.3241,416.14113 433.4832,415.85492 428.55216,411.6541 426.29644,409.82242 424.64359,406.85092 425.51586,403.89849 426.7364,399.65091 431.02176,397.39141 434.87892,395.97114 439.60189,394.28102 444.69431,393.58538 449.71695,393.61491 z"
       inkscape:connector-curvature="0"
       id="path6189"
       style="fill:#a4a7da;stroke:none" />
    <path
       d="M 538.80691,398.35484 C 542.22824,399.01648 543.92303,402.49498 545.80483,405.05021 546.91363,406.92317 548.4386,408.63805 549.27596,410.61681 544.82947,418.19069 537.58602,423.41911 531.04748,429.05446 527.96589,431.47339 525.20524,434.21735 522.16909,436.67953 519.71585,437.99997 517.1594,439.14217 514.82659,440.69045 513.05002,441.58238 511.51193,443.10246 509.5499,443.54898 509.01728,443.44297 508.7013,442.91363 508.22409,443.52148 507.7774,444.20364 507.09843,444.65097 506.24569,444.70303 501.9405,445.30242 497.5838,445.53516 493.26242,445.8571 486.81168,445.8693 480.80824,443.216 474.58714,441.83896 465.29621,439.31435 455.86886,437.06002 446.96229,433.36156 445.60373,432.54612 443.88706,432.20979 442.68949,431.20455 442.13274,430.41441 443.31607,430.00129 443.88478,430.31152 442.82088,426.8531 442.91863,422.89249 444.79155,419.69134 446.42036,416.40357 449.57523,413.54218 453.43332,413.65309 465.58557,412.92025 477.35827,416.93933 489.44236,417.21468 495.59784,417.52061 501.91637,418.46808 507.92184,416.64818 511.41814,415.40244 515.08938,414.36226 518.32906,412.49216 524.77284,408.51939 529.9033,402.59703 536.59494,398.9662 537.29433,398.67642 538.03461,398.33831 538.80691,398.35482 z"
       inkscape:connector-curvature="0"
       id="path6191"
       style="fill:#c7a1db;stroke:none" />
    <path
       d="M 525.41147,389.48637 C 529.57509,391.50513 533.37922,394.46901 535.97669,398.32049 536.19163,399.43919 534.53902,399.57333 533.89156,400.2294 527.8515,404.30922 522.79952,409.8177 516.35753,413.32338 513.54075,414.39049 510.71559,415.4759 507.84627,416.42837 502.6997,418.05748 497.21096,417.29469 491.89654,417.18735 482.8348,416.94204 473.94458,415.0795 464.98547,413.88454 461.03487,413.35531 456.98791,413.48536 453.04362,413.151 452.45434,412.2113 452.83394,410.76634 452.88377,409.62074 453.44644,405.50479 457.5132,403.04475 461.20954,402.08495 468.39014,399.99544 475.97585,400.51649 483.37027,400.20971 488.3042,400.14931 493.28824,400.08258 497.98172,398.40034 507.12671,395.56526 515.76668,390.91506 525.29986,389.47242 L 525.41147,389.48642 z"
       inkscape:connector-curvature="0"
       id="path6193"
       style="fill:#aac7db;stroke:none" />
    <path
       d="M 597.64379,326.29425 C 609.4091,328.99924 621.18114,331.68367 632.95966,334.33152 633.94521,334.94925 632.66218,336.28914 632.51314,337.18234 626.49973,352.01907 615.37225,364.11047 603.33661,374.37364 599.24171,377.67802 595.30983,381.28737 590.75373,383.94959 586.01308,386.27794 580.55279,386.17201 575.41988,386.8704 569.16875,387.61523 562.33456,387.81651 557.1827,391.89068 553.60943,394.65219 552.3613,399.23419 551.86574,403.53441 551.41867,405.49635 550.91181,407.5423 549.81178,409.24292 548.7775,409.78397 548.33996,408.10074 547.77155,407.54617 545.51846,404.46776 543.86367,400.63647 540.48306,398.62961 538.68709,398.29782 539.56888,396.23914 539.22595,394.98193 538.88494,391.47658 537.30162,387.48615 539.50072,384.28619 542.49901,380.52006 546.63718,377.86423 550.33674,374.84455 561.30364,366.34777 572.85735,358.52582 582.19976,348.17926 587.6999,342.20264 593.86373,336.30063 596.30425,328.32761 596.55754,327.63619 596.56448,326.16255 597.64379,326.29425 z"
       inkscape:connector-curvature="0"
       id="path6195"
       style="fill:#d5be93;stroke:none" />
    <path
       d="M 369.91956,209.61422 366.21198,389.43206 C 368.01732,396.30836 372.25693,402.76941 379.89053,402.48885 397.57295,408.74211 416.53069,399.69146 432.73946,423.62843 444.97789,439.79583 505.28726,452.91782 521.02826,436.68522 541.69981,420.9662 538.62697,416.24463 577.6077,388.81031 626.6893,369.76757 632.72173,340.39303 641.64816,311.71305 663.14413,286.09457 662.0144,242.20149 640.40466,181.76686 615.37908,132.77284 570.09444,99.986068 503.6192,84.151782 462.9085,79.037886 399.14025,49.759876 372.4295,87.882294 L 370.36374,188.0717"
       inkscape:connector-curvature="0"
       id="path2990"
       style="fill:none;stroke:#0000e9;stroke-width:1;stroke-miterlimit:4;stroke-opacity:1;stroke-dasharray:none;stroke-dashoffset:0" />
    <path
       d="M 577.6077,390.67556 C 576.19678,389.31306 574.97535,387.59784 572.87164,387.31742 568.57891,386.21661 563.91759,386.66611 559.97531,388.74057 556.7859,389.84137 553.73014,391.60034 551.97027,394.58817 549.12863,397.64972 547.1834,401.88079 547.82926,406.10985 547.66716,408.06884 552.22705,409.5171 549.69404,410.53857 L 549.62884,409.94992"
       inkscape:connector-curvature="0"
       id="path2992"
       style="fill:none;stroke:#0000e9;stroke-width:1;stroke-miterlimit:4;stroke-opacity:1;stroke-dasharray:none;stroke-dashoffset:0" />
    <path
       d="M 435.84822,319.79583 C 433.6849,316.09856 428.62858,318.13887 425.37127,316.22202 421.25278,316.29882 416.44948,316.19872 413.17354,319.07707 408.55335,322.88284 410.956,329.55051 414.54027,333.12773 417.65576,336.33882 422.13423,337.39294 426.41844,337.88484 431.82963,339.72209 438.97338,337.69645 441.09351,331.95715 442.81989,327.30673 440.3745,321.76866 435.84822,319.79583 z"
       inkscape:connector-curvature="0"
       id="path2994"
       style="fill:none;stroke:#0000e9;stroke-width:1;stroke-miterlimit:4;stroke-opacity:1;stroke-dasharray:none;stroke-dashoffset:0" />
    <path
       d="M 548.07447,411.50426 C 538.59965,403.94117 522.56947,404.09909 512.87188,410.99706 500.49018,421.65191 483.95444,424.05602 469.02859,417.43933 457.53558,413.85156 441.31461,407.16398 434.06029,421.30728 433.69813,421.91935 432.89675,423.67821 433.98299,424.25018"
       inkscape:connector-curvature="0"
       id="path2996"
       style="fill:none;stroke:#0000e9;stroke-width:1;stroke-miterlimit:4;stroke-opacity:1;stroke-dasharray:none;stroke-dashoffset:0" />
    <path
       d="M 370.56425,187.98438 C 391.19444,189.42704 417.17773,177.13297 420.78177,165.60131 427.28633,150.15327 432.66791,151.63269 446.418,156.89678 479.48352,168.41034 514.00781,173.35945 544.03308,198.55417 556.00881,214.27415 587.73157,241.00531 585.06872,289.32997 580.94773,309.69074 579.65824,332.47851 564.5509,343.42241"
       inkscape:connector-curvature="0"
       id="path2998"
       style="fill:none;stroke:#0000e9;stroke-width:1;stroke-miterlimit:4;stroke-opacity:1;stroke-dasharray:none;stroke-dashoffset:0" />
    <path
       d="M 369.9425,209.43483 C 380.59512,208.45257 393.04788,197.58413 403.631,199.14182 404.37987,199.25205 405.01453,198.52354 405.70635,198.20978 417.72245,192.76014 429.73038,186.4311 440.82223,181.76686 509.49273,174.3729 550.81788,207.18636 567.29545,237.24719 586.35023,260.32718 585.12517,318.60902 563.92915,342.80065 553.15211,351.95508 542.37508,358.16272 531.59804,365.80548"
       inkscape:connector-curvature="0"
       id="path3002"
       style="fill:none;stroke:#0000e9;stroke-width:1;stroke-miterlimit:4;stroke-opacity:1;stroke-dasharray:none;stroke-dashoffset:0" />
    <path
       d="M 532.84155,365.18373 C 516.25835,380.10892 522.94497,394.14737 519.163,406.21937"
       inkscape:connector-curvature="0"
       id="path3004"
       style="fill:none;stroke:#0000e9;stroke-width:1;stroke-miterlimit:4;stroke-opacity:1;stroke-dasharray:none;stroke-dashoffset:0" />
    <path
       d="M 407.24762,197.93242 C 415.28957,206.67778 423.67446,215.08018 425.27843,230.26352"
       inkscape:connector-curvature="0"
       id="path3049"
       style="fill:none;stroke:#0000e9;stroke-width:1;stroke-miterlimit:4;stroke-opacity:1;stroke-dasharray:none;stroke-dashoffset:0" />
    <path
       d="M 425.78125,224.90625 424.15625,225.34375 C 430.59573,249.53435 432.79924,277.84593 430.65625,296.6875 L 432.34375,296.875 C 434.52298,277.71485 432.28045,249.32105 425.78125,224.90625 z"
       inkscape:connector-curvature="0"
       id="path3006"
       style="font-size:medium;font-style:normal;font-variant:normal;font-weight:normal;font-stretch:normal;text-indent:0;text-align:start;text-decoration:none;line-height:normal;letter-spacing:normal;word-spacing:normal;text-transform:none;direction:ltr;block-progression:tb;writing-mode:lr-tb;text-anchor:start;baseline-shift:baseline;color:#000000;fill:#a7b0c5;fill-opacity:1;stroke:none;stroke-width:1.70000005;marker:none;visibility:visible;display:inline;overflow:visible;enable-background:accumulate;font-family:Sans;-inkscape-font-specification:Sans" />
    <path
       d="M 426.52194,230.26352 C 427.61201,219.00741 432.68593,202.97067 442.06574,181.76686"
       inkscape:connector-curvature="0"
       id="path3010"
       style="fill:none;stroke:#0000e9;stroke-width:1;stroke-miterlimit:4;stroke-opacity:1;stroke-dasharray:none;stroke-dashoffset:0" />
    <path
       d="M 442.68749,409.94988 C 450.3649,412.51306 469.83118,416.72881 468.00624,403.87917 462.74889,392.96473 449.26592,396.60332 440.10693,392.92759 430.33291,388.27777 416.70656,377.72973 407.40873,388.89862 397.428,401.95748 416.17201,412.40292 427.64361,412.53902 432.67928,412.74294 438.98339,414.56808 442.68749,409.94988 z"
       inkscape:connector-curvature="0"
       id="path3023"
       style="fill:none;stroke:#0000e9;stroke-width:1;stroke-miterlimit:4;stroke-opacity:1;stroke-dasharray:none;stroke-dashoffset:0" />
    <path
       d="M 448.28326,393.78432 C 448.75315,393.23968 450.77753,393.39142 449.85193,394.27601 449.28006,394.46267 448.79081,393.55492 449.63794,393.93825 451.74824,394.16772 453.68325,391.51496 452.41967,389.66219 451.72795,388.49159 450.51382,387.79451 449.39064,387.09964 449.40134,385.67104 447.44449,386.0181 446.91891,384.97088 446.13613,384.1536 444.96643,384.57968 443.99824,384.38765 443.00625,384.08706 442.05067,383.54581 440.97524,383.66658 440.14144,383.70348 439.31008,383.96197 438.62909,384.45033 436.39985,384.99731 434.11426,384.22503 431.86851,384.57142 430.91877,383.54848 429.47684,384.38602 428.54038,384.9869 428.1313,385.23095 427.31587,386.34904 427.35797,386.2716 427.81518,385.5939 428.29279,384.88766 429.00898,384.45841"
       inkscape:connector-curvature="0"
       id="path3025"
       style="fill:none;stroke:#0000e9;stroke-width:1;stroke-miterlimit:4;stroke-opacity:1;stroke-dasharray:none;stroke-dashoffset:0" />
    <path
       d="M 432.11771,384.45804 C 418.50673,378.1976 413.75964,361.62942 414.70861,347.77467"
       inkscape:connector-curvature="0"
       id="path3027"
       style="fill:none;stroke:#0000e9;stroke-width:1;stroke-miterlimit:4;stroke-opacity:1;stroke-dasharray:none;stroke-dashoffset:0" />
    <path
       d="M 414.08689,347.77467 C 369.06767,326.77224 403.55593,313.69892 432.11771,297.41275 442.53285,298.50773 438.76034,311.45081 443.65276,317.47989 449.8306,323.72119 459.83168,332.06376 455.967,339.52418 453.80571,348.5489 442.8567,348.39217 435.15268,347.12955 429.62916,350.254 417.49254,352.18182 416.11257,347.17435 L 413.46515,347.7748"
       inkscape:connector-curvature="0"
       id="path3029"
       style="fill:none;stroke:#0000e9;stroke-width:1;stroke-miterlimit:4;stroke-opacity:1;stroke-dasharray:none;stroke-dashoffset:0" />
    <path
       d="M 455.12253,330.36561 C 473.02161,350.95193 518.73985,369.00923 504.24095,392.54082"
       inkscape:connector-curvature="0"
       id="path3031"
       style="fill:none;stroke:#0000e9;stroke-width:1;stroke-miterlimit:4;stroke-opacity:1;stroke-dasharray:none;stroke-dashoffset:0" />
    <path
       d="M 442.37662,347.77467 C 453.79197,348.9118 465.37478,359.97558 469.87467,370.27661 477.0302,381.40364 489.88095,386.66731 502.05195,390.23128 508.66392,394.03511 512.87614,393.81379 516.98687,393.16256"
       inkscape:connector-curvature="0"
       id="path3033"
       style="fill:none;stroke:#0000e9;stroke-width:1;stroke-miterlimit:4;stroke-opacity:1;stroke-dasharray:none;stroke-dashoffset:0" />
    <path
       d="M 548.38535,353.99219 C 545.12671,354.38257 548.13234,352.47994 547.23401,353.82377 543.45444,352.0866 538.82258,350.61572 535.87304,354.67367 531.71721,358.78751 527.43574,362.872 524.60044,368.06072 519.336,376.95769 514.7901,395.25755 519.84722,402.23459"
       inkscape:connector-curvature="0"
       id="path3065"
       style="fill:none;stroke:#0000e9;stroke-width:1;stroke-miterlimit:4;stroke-opacity:1;stroke-dasharray:none;stroke-dashoffset:0" />
    <path
       d="M 423.59706,316.39554 C 419.24515,316.55568 413.83919,317.17195 411.57976,321.46671 409.54963,326.41191 412.77529,331.98806 416.8938,334.75666 420.78601,337.07078 425.44451,337.73361 429.88259,338.26373 435.30733,338.74994 441.42011,334.8084 441.39471,328.97631 441.49865,325.22585 439.08764,321.83532 436.00296,319.97062 433.32011,316.84471 428.87386,317.79497 425.37488,316.51212 424.79084,316.41013 424.18992,316.37503 423.59706,316.39554 z"
       inkscape:connector-curvature="0"
       id="path3019"
       style="fill:#bfb879;stroke:none" />
    <path
       d="M 567.85326,386.97412 C 563.18396,387.21334 558.63483,389.05174 554.85476,391.72469 551.15552,395.37532 547.3283,400.16152 548.03491,405.7044 548.37079,407.10845 549.46917,408.69454 550.89109,408.98803 557.79998,403.32819 564.87726,397.78956 572.16563,392.52641 573.26766,391.54468 574.89072,390.75693 575.60573,389.52913 575.36416,387.86918 573.0362,387.73362 571.71666,387.31845 570.45031,387.05695 569.14672,386.94767 567.85326,386.97412 z"
       inkscape:connector-curvature="0"
       id="path3024"
       style="fill:#6abbd5;stroke:none" />
    <path
       d="M 540.68075,352.4183 C 537.2916,352.3314 535.51911,355.76737 533.21284,357.69383 529.35822,361.53381 525.77024,365.71897 523.5807,370.7666 519.41108,379.19624 516.97192,388.8483 518.30739,398.27252 518.63048,399.54885 520.34103,398.97381 520.26008,397.76734 520.8782,390.02549 520.7223,381.75774 524.81636,374.93739 527.74196,369.73746 531.70781,365.10591 536.84859,362.01457 540.17373,359.51779 544.01652,357.51768 546.9177,354.56529 546.63411,353.26923 544.73579,353.25002 543.69236,352.75832 542.71075,352.50955 541.6939,352.38553 540.68075,352.4183 z"
       inkscape:connector-curvature="0"
       id="path3026"
       style="fill:#a5c0bd;stroke:none" />
    <path
       d="M 529.76123,406.07356 C 522.68511,406.07956 515.78814,408.68702 510.35091,413.15571 500.79089,420.39511 488.00584,422.84069 476.38911,420.05827 468.08641,417.73304 460.06414,414.12383 451.44961,413.09742 446.33837,412.59332 440.44847,413.37356 437.02302,417.60512 435.58648,419.41233 433.44793,421.48278 433.79768,423.9878 435.49238,427.20431 439.07721,428.88999 442.03241,430.78941 455.21047,438.12518 470.152,441.73686 485.06308,443.40783 495.28271,444.02662 506.09798,444.54733 515.61637,440.15335 522.76441,435.84321 528.70455,429.85606 534.8454,424.25841 539.0785,420.18155 543.38136,416.13924 547.42287,411.88306 547.33007,410.46936 545.31479,410.10205 544.34326,409.32805 539.86773,407.00875 534.80059,405.9787 529.76123,406.07356 z"
       inkscape:connector-curvature="0"
       id="path3028"
       style="fill:#c7a1db;stroke:none" />
    <path
       d="M 440.70496,383.85564 C 439.0151,384.52726 437.22194,384.86104 435.37149,384.68141 433.17862,384.88729 430.64147,384.05031 428.6488,385.18658 427.57402,386.4512 429.80972,387.22907 430.62092,387.72216 435.13187,389.89272 439.28689,392.97086 444.27075,393.91793 445.57886,394.05752 447.56171,395.02348 448.51572,393.77453 449.92381,393.58446 452.32533,393.4665 452.62511,391.51096 452.7912,389.40646 450.48696,388.28193 449.20548,387.05184 448.64046,385.93586 447.13211,385.72282 446.26187,384.86599 444.40558,384.60344 442.57502,383.97248 440.70496,383.85564 z"
       inkscape:connector-curvature="0"
       id="path3032"
       style="fill:#a1d081;stroke:none" />
    <path
       d="M 457.40483,333.77545 C 456.49586,334.94585 457.24328,336.76541 456.56735,338.09789 455.77941,341.61299 453.79682,345.13864 450.23525,346.49223 449.30265,347.01848 447.04272,347.2407 447.39851,348.71693 454.37442,351.15506 460.31326,356.25905 464.93163,362.01818 468.56956,366.29954 470.33639,371.89452 474.58073,375.68543 481.77218,382.94566 491.5161,386.72378 501.05377,389.82058 502.22673,390.01905 503.03591,390.9615 504.10424,391.20009 505.69996,390.48094 505.93635,388.26004 506.40667,386.75068 507.14191,382.95049 506.68165,378.98767 504.80371,375.57857 500.82428,368.02942 494.06761,362.47908 487.52719,357.17422 477.83974,349.52505 467.54076,342.5473 458.50261,334.25148 458.16648,334.0316 457.87599,333.57994 457.40483,333.77545 z"
       inkscape:connector-curvature="0"
       id="path3034"
       style="fill:#e1aa66;stroke:none" />
    <path
       d="M 440.70496,182.11652 C 429.86052,186.6573 419.35584,192.04907 408.72359,197.03857 407.42646,197.39522 407.92332,198.66486 408.74299,199.28271 415.74893,206.90232 422.84397,215.30595 424.687,225.8255 424.90711,226.57277 425.00488,229.03869 426.3172,228.09703 427.50144,224.9794 427.53426,221.52488 428.59048,218.33358 431.81151,206.17235 436.43457,194.37353 441.31697,182.80628 441.42534,182.43713 441.10223,181.99302 440.70493,182.11652 z"
       inkscape:connector-curvature="0"
       id="path3036"
       style="fill:#a7b0c5;stroke:none" />
    <path
       d="M 432.03929,297.64583 C 421.80034,303.55226 411.07075,308.7147 401.48247,315.64274 398.00479,318.646 393.73069,321.73892 392.86891,326.54759 392.21375,329.76868 393.41828,333.02216 395.68622,335.32012 400.59232,340.59808 407.04814,344.2786 413.56159,347.20141 414.54288,347.80358 416.2013,346.20629 416.54406,347.72602 418.53869,350.67645 422.59383,349.74644 425.61662,349.71045 428.9396,349.58974 432.04608,348.34157 435.03147,347.09455 440.34375,347.34025 446.18365,348.28572 451.07073,345.6276 454.66253,343.59038 456.53738,339.29959 456.61793,335.3104 455.31364,328.49645 449.40876,323.97517 445.07328,318.99678 443.35196,317.25406 441.74031,315.3079 441.41414,312.79132 439.95083,308.2811 440.0536,302.7452 436.37212,299.30707 435.15702,298.34786 433.56385,297.72272 432.03929,297.64583 z M 423.43191,316.12352 C 426.28396,316.05512 428.95769,317.22987 431.80613,317.32817 435.32132,317.90432 437.70434,320.86354 440.04435,323.27367 443.54139,327.97235 441.21411,335.54322 435.76009,337.5934 430.47958,339.8659 424.70946,337.9072 419.5071,336.43733 414.18019,334.58946 409.96285,328.89759 410.67628,323.14738 411.47996,318.57398 416.39934,316.45989 420.60488,316.28868 421.54391,316.18493 422.48779,316.14429 423.43191,316.12352 z"
       inkscape:connector-curvature="0"
       id="path3038"
       style="fill:#79a89f;stroke:none" />
    <path
       d="M 435.84821,390.67556 428.38719,412.43689"
       inkscape:connector-curvature="0"
       id="path3022"
       style="fill:none;stroke:#0000e9;stroke-width:1;stroke-miterlimit:4;stroke-opacity:1;stroke-dasharray:none;stroke-dashoffset:0" />
    <path
       d="M 416.2428,384.40551 C 408.09154,385.06774 401.61233,396.01361 407.53827,402.68891 411.247,407.47452 417.49193,409.4487 422.92664,411.58773 425.67737,412.31583 429.28455,412.76192 429.26347,408.78469 431.04685,402.72729 434.04837,396.64712 435.08966,390.6036 429.21264,387.72094 422.98153,384.19669 416.2428,384.40551 z"
       inkscape:connector-curvature="0"
       id="path3037"
       style="fill:#a4a7da;stroke:none" />
    <path
       d="M 584.75784,266.01428 C 587.22169,245.52354 601.32917,276.92049 604.96478,289.95173 596.76282,283.0062 591.22893,285.39892 586.31221,289.95173"
       inkscape:connector-curvature="0"
       id="path3021"
       style="fill:none;stroke:#0000e9;stroke-width:1;stroke-miterlimit:4;stroke-opacity:1;stroke-dasharray:none;stroke-dashoffset:0" />
    <path
       d="M 604.96478,290.57348 C 601.38761,306.50065 596.64685,341.4356 577.91856,321.35021"
       inkscape:connector-curvature="0"
       id="path3039"
       style="fill:none;stroke:#0000e9;stroke-width:1;stroke-miterlimit:4;stroke-opacity:1;stroke-dasharray:none;stroke-dashoffset:0" />
    <path
       d="M 590.66448,326.94598 C 591.33261,341.01271 575.99586,354.62182 561.44213,356.4792 562.85023,353.10832 560.93294,349.49878 557.40075,347.77467"
       inkscape:connector-curvature="0"
       id="path3041"
       style="fill:none;stroke:#0000e9;stroke-width:1;stroke-miterlimit:4;stroke-opacity:1;stroke-dasharray:none;stroke-dashoffset:0" />
    <path
       d="M 562.68564,357.10095 C 522.14313,375.59564 534.83556,396.25963 531.59803,406.21937"
       inkscape:connector-curvature="0"
       id="path3043"
       style="fill:none;stroke:#0000e9;stroke-width:1;stroke-miterlimit:4;stroke-opacity:1;stroke-dasharray:none;stroke-dashoffset:0" />
    <path
       d="M 616.46719,335.6505 C 614.64124,334.248 618.19919,331.59839 616.57974,333.9469 616.81203,329.12746 611.80195,328.85606 610.51193,332.58335 607.31209,336.73582 606.69912,342.15211 604.1273,346.5997 600.05654,352.40214 593.13395,355.01874 587.12675,358.28605 580.95652,361.32095 574.27342,363.10079 567.85103,365.43763 560.72121,368.98895 552.57459,370.80317 546.38491,376.03131 542.91249,379.35205 540.46495,383.65228 538.35841,387.92484 537.30728,392.36219 535.94074,397.16562 536.91264,401.73365 539.66204,407.48895 542.89523,399.10813 543.44645,396.23324 546.00596,389.73495 546.52979,381.65575 552.75028,377.31625 558.01846,373.78435 564.6351,373.37182 570.15672,370.32718 575.96237,367.7186 582.00285,365.65835 588.05884,363.75728 594.82444,360.7555 602.19091,358.13233 607.01848,352.19732 610.06601,348.88808 612.96361,345.16338 614.56037,340.96197 614.84122,339.37169 617.92268,334.31927 616.14642,334.98445"
       inkscape:connector-curvature="0"
       id="path3045"
       style="fill:none;stroke:#0000e9;stroke-width:1;stroke-miterlimit:4;stroke-opacity:1;stroke-dasharray:none;stroke-dashoffset:0" />
    <path
       d="M 587.98391,259.43723 C 585.84022,260.14709 585.73379,262.97394 585.12782,264.80204 585.30428,265.90546 583.74948,265.55774 583.96195,266.65538 585.04074,274.09341 585.66359,281.62869 585.26375,289.14532 585.94088,290.41793 587.35293,288.51958 588.24786,288.18721 591.43523,285.6596 595.91753,284.69865 599.69034,286.53202 601.02298,286.8502 602.30901,288.31991 603.68315,287.92124 604.15415,286.22892 602.79579,284.47244 602.39107,282.83065 599.12088,275.14607 596.24261,266.97174 590.48064,260.74874 589.79347,260.13285 588.98561,259.34308 587.98391,259.43723 z"
       inkscape:connector-curvature="0"
       id="path3051"
       style="fill:#d39ccd;stroke:none" />
    <path
       d="M 595.06606,285.90055 C 591.72062,285.73046 589.22323,288.15588 586.5364,289.68935 585.27116,289.33139 584.88498,290.79898 584.79367,291.80094 582.91495,301.74258 581.33808,311.73412 578.64792,321.50557 580.47577,324.00834 583.3499,325.99801 586.36153,326.98476 590.60394,328.2618 594.14657,324.56607 595.9404,321.16555 600.61027,312.39998 602.18385,302.37681 604.2706,292.77354 604.3367,291.56614 605.32211,289.76698 603.67344,289.18418 601.1475,287.39492 598.26939,285.77039 595.06606,285.90055 z"
       inkscape:connector-curvature="0"
       id="path3053"
       style="fill:#bc90cc;stroke:none" />
    <path
       d="M 578.22046,323.16682 C 575.59733,330.31621 572.11053,337.46982 566.09213,342.38935 565.22107,343.52807 563.64042,343.10015 562.66694,344.15095 561.23841,345.30134 559.55212,346.2933 558.41183,347.69688 559.95921,349.64206 562.25444,351.53361 561.96971,354.35134 561.69878,355.42641 562.56145,356.52965 563.68004,355.89878 574.69236,353.33074 584.8091,345.6266 589.10223,334.99946 589.92716,332.69249 590.62189,330.17397 590.45149,327.73281 587.61869,327.46917 584.60428,327.23499 582.25214,325.40124 581.0221,324.63425 580.02817,323.40034 578.66735,322.8948 L 578.4018,323.05644 578.22046,323.16682 z"
       inkscape:connector-curvature="0"
       id="path3055"
       style="fill:#c9ca98;stroke:none" />
    <path
       d="M 557.39177,348.46435 C 549.90802,353.53261 542.43503,358.60541 535.04755,363.80414 527.40636,369.35265 522.0078,378.16727 521.35314,387.69101 520.77719,393.4683 520.62125,399.29964 519.81463,405.04379 520.2015,407.02354 522.77932,406.86396 524.21546,406.22901 526.64207,405.68359 529.24141,405.90179 531.60848,405.3061 532.51583,400.38504 531.77377,395.28882 532.22052,390.30633 532.52486,381.94817 537.14044,374.47965 543.31491,369.06961 548.31261,364.42807 554.27439,361.06272 560.2868,357.92664 562.03271,356.2981 561.8568,353.269 560.89884,351.25252 560.0815,350.1402 558.93353,348.40501 557.39177,348.46435 z"
       inkscape:connector-curvature="0"
       id="path3057"
       style="fill:#7c797c;stroke:none" />
    <path
       d="M 613.39803,330.35582 C 611.00364,330.91214 610.13249,333.74044 608.99719,335.62129 606.54276,340.14361 605.94298,345.83252 601.94419,349.36784 597.06224,353.89756 590.80909,356.48268 584.93149,359.41389 574.72236,363.63824 563.99136,366.66537 554.08104,371.60491 548.94411,373.76993 544.54109,377.47097 541.68163,382.26274 538.00507,387.9415 536.17019,394.91613 537.14596,401.6533 537.40125,403.1483 539.38059,404.10271 540.35187,402.65393 542.99879,399.17354 543.53106,394.61448 545.08233,390.6034 546.80433,385.22145 548.68367,379.12945 554.10814,376.39462 560.40376,373.35203 567.29277,371.6278 573.69992,368.71048 583.34776,364.81603 593.6461,362.12068 602.35221,356.2654 608.58679,351.12958 613.72453,344.35283 616.00162,336.50534 616.20946,335.40868 615.43161,334.40575 616.14734,333.33829 616.57651,331.85721 614.86913,330.1535 613.39803,330.35582 z"
       inkscape:connector-curvature="0"
       id="path3059"
       style="fill:#d5be93;stroke:none" />
    <path
       d="M 435.80037,391.56926 C 433.40975,398.22067 431.06904,404.9395 428.95139,411.68877 429.63562,413.21307 431.8442,412.47401 433.17736,412.70883 436.01842,412.65683 439.24435,413.01933 441.435,410.795 442.62252,408.94708 444.47309,410.56724 446.08843,410.785 451.57163,412.27353 457.42305,412.73467 463.04089,411.87306 466.58206,410.9231 469.06893,406.79093 467.37372,403.32397 465.02212,398.0963 458.97702,396.42991 453.7822,395.6489 447.9917,394.77396 441.96009,394.49176 436.80553,391.45031 436.50812,391.24175 435.97262,391.15302 435.80037,391.56897 z"
       inkscape:connector-curvature="0"
       id="path3042"
       style="fill:#dbafbc;stroke:none" />
    <path
       d="M 370.40101,209.39073 C 363.59219,207.0008 357.58644,203.40626 349.73769,202.57623"
       inkscape:connector-curvature="0"
       id="path3035"
       style="fill:none;stroke:#0000e9;stroke-width:0.93800002;stroke-linecap:round;stroke-miterlimit:4;stroke-opacity:1;stroke-dasharray:none;stroke-dashoffset:0" />
    <path
       d="M 370.40101,187.84812 C 363.28315,186.9962 354.53636,190.48809 349.07822,185.21025"
       inkscape:connector-curvature="0"
       id="path3044"
       style="fill:none;stroke:#0000e9;stroke-width:0.93800002;stroke-linecap:round;stroke-miterlimit:4;stroke-opacity:1;stroke-dasharray:none;stroke-dashoffset:0" />
    <path
       d="M 349.29804,184.7706 349.29804,202.13658"
       inkscape:connector-curvature="0"
       id="path3046"
       style="fill:none;stroke:#0000e9;stroke-width:0.93800002;stroke-linecap:round;stroke-miterlimit:4;stroke-opacity:1;stroke-dasharray:none;stroke-dashoffset:0" />
    <path
       d="M 444.04156,156.41349 C 446.97055,159.18933 446.15422,160.08261 443.82175,161.68923 427.05246,156.12564 424.49915,183.05955 401.83563,181.47326"
       inkscape:connector-curvature="0"
       id="path3040"
       style="fill:none;stroke:#0000e9;stroke-width:1;stroke-linecap:round;stroke-miterlimit:4;stroke-opacity:1;stroke-dasharray:none;stroke-dashoffset:0" />
    <path
       d="M 432.70635,153.38199 C 428.66493,153.43239 425.64166,156.64137 423.78293,159.92171 421.25937,163.86856 420.30029,168.78481 416.728,172.03256 413.64081,175.32093 409.70112,177.53929 406.00478,180.04921 405.19889,180.63455 406.17711,181.56052 406.91841,181.23763 412.41379,180.40992 417.37534,177.44709 421.25099,173.57952 425.53312,169.73992 429.12505,165.06197 434.10772,162.11993 437.00444,160.56249 440.48573,160.6588 443.56696,161.41238 444.86002,161.05126 446.4137,159.53118 445.38049,158.18374 444.55399,156.58554 443.02736,155.57347 441.28341,155.20288 438.50835,154.30451 435.6589,153.33423 432.70635,153.38199 z"
       inkscape:connector-curvature="0"
       id="path3047"
       style="fill:#b46a9f;stroke:none" />
    <path
       d="M 445.53864,157.0525 C 445.10317,157.93944 446.39085,158.82506 445.87381,159.76295 445.46087,160.61123 444.64124,161.32011 443.82397,161.71079 442.17513,161.25929 440.48095,160.99978 438.76255,161.11625 434.83287,161.17455 431.56927,163.82765 428.85126,166.40331 424.13317,170.80256 420.03796,176.15824 414.1936,179.11499 410.89444,180.91071 407.15876,181.57556 403.43054,181.55647 401.76764,181.53157 400.36451,182.64105 398.81113,183.10146 390.4498,186.36654 381.51373,188.32004 372.50251,188.12645 369.00144,187.71954 365.45055,187.76097 361.93242,188.06235 358.1654,188.27051 354.12139,188.57523 350.74693,186.57478 350.30148,186.18786 349.39922,186.10284 349.41966,186.8577 349.26163,191.92052 349.35206,196.98726 349.32736,202.05177 349.68555,202.94504 350.97616,202.55917 351.74636,202.8241 358.12861,203.86481 363.91441,207.06054 370.00061,209.11448 371.55675,209.42715 373.10884,208.7214 374.60547,208.36644 382.18494,205.94974 389.03349,201.5193 396.76996,199.52104 399.08479,198.94085 401.47144,198.92783 403.83753,198.99158 405.41801,198.4673 406.83602,197.49628 408.3924,196.85334 419.16944,191.84956 429.75803,186.44772 440.65205,181.71853 459.36619,179.6954 478.53396,180.43172 496.78946,185.12845 515.12894,189.80901 532.55934,198.6066 546.65192,211.38495 554.70307,218.62605 561.6493,227.10167 567.02789,236.51645 568.86958,239.2798 570.94559,241.91316 572.37606,244.93323 577.3477,254.8774 579.60688,265.95058 580.46855,276.97289 581.59714,293.79668 579.78657,311.03871 573.53381,326.73799 571.57708,331.65098 569.01597,336.28661 565.92053,340.57619 565.36932,341.0836 566.03273,342.05641 566.66371,341.54768 571.3521,337.53638 574.46714,331.9911 576.67978,326.30154 577.2759,324.78547 577.87712,323.21442 578.17098,321.63218 579.26251,319.13081 579.69909,316.38321 580.36918,313.74479 582.06341,305.82158 583.3977,297.82343 584.82652,289.85129 585.46242,284.14322 585.05826,278.3517 584.50024,272.66135 582.90448,257.9403 577.53872,243.79577 569.65569,231.32552 564.11548,222.38056 557.29969,214.33888 550.42907,206.39095 548.09439,203.80669 546.06427,200.94757 543.61518,198.47184 539.48471,194.74501 534.8465,191.59184 530.16893,188.58172 514.50826,178.69439 496.87102,172.45191 479.22497,167.17051 468.14233,163.82004 457.04465,160.56728 446.05352,156.93103 445.86545,156.84183 445.71116,157.00523 445.53863,157.05246 z"
       inkscape:connector-curvature="0"
       id="path3048"
       style="fill:#73a0a6;stroke:none" />
    <path
       d="M 435.38635,347.34556 C 431.58977,348.83748 427.70515,350.43962 423.51489,350.1387 421.35339,350.0501 418.97056,350.72693 417.26811,349.00681 416.54778,348.37275 414.78016,347.81704 414.88797,349.34683 414.59805,359.05408 416.68338,369.40992 423.03875,376.99537 426.22936,380.32318 429.79532,384.48573 434.84159,384.39991 437.54524,384.92202 440.04338,383.15829 442.73794,383.90375 445.6603,383.96385 448.40585,385.21888 450.33898,387.40969 451.67805,388.50036 453.63111,390.05443 452.67883,392.01457 452.61493,393.12044 450.42333,393.66722 451.44505,394.7833 453.1623,395.50081 455.22538,395.32646 457.00195,395.8908 461.5206,396.80012 466.35301,399.35523 468.02834,403.91529 468.61491,406.98302 467.41383,410.59348 464.28811,411.72605 462.93796,412.6002 460.76908,412.1581 459.82898,413.56216 460.1761,414.95966 462.30422,414.84462 463.39682,415.49952 470.5148,417.655 477.45537,420.96311 485.0488,420.91632 494.99171,421.17701 504.7549,417.40149 512.40835,411.20827 514.80085,409.30482 517.74291,408.20196 520.47785,406.95269 520.94749,405.8433 518.51348,406.34936 519.34232,405.09079 520.35271,401.797 517.55236,399.00985 517.687,395.73623 518.32223,393.18754 516.1273,393.14682 514.25172,393.38436 511.28018,393.52716 508.32141,393.29656 505.51805,392.30601 504.737,392.37261 504.20167,392.17283 503.8568,391.48996 500.25703,389.33584 495.93299,388.82029 492.15038,387.03083 482.35857,383.08801 472.58331,376.9882 467.98948,367.17363 463.28665,359.32194 456.26144,352.36367 447.60596,349.19479 443.69776,347.78824 439.44762,347.92365 435.38635,347.34556 z"
       inkscape:connector-curvature="0"
       id="path3052"
       style="fill:#8791c4;stroke:none" />
    <path
       d="M 458.9255,180.9103 C 453.58816,181.09443 448.16398,180.9792 442.89595,181.84293 440.94045,183.59208 440.48684,186.4889 439.27231,188.75021 434.12309,201.21197 429.24894,213.9507 427.12871,227.31827 426.64645,233.39787 428.96497,239.2127 429.66787,245.18543 431.89819,258.50621 433.00081,272.02151 432.55972,285.52974 432.61052,289.25814 432.23687,293.00603 432.19016,296.71163 433.00309,298.01644 435.10594,297.58603 436.2024,298.68375 440.32873,301.74293 440.15305,307.37498 441.45815,311.88627 442.39008,317.10553 447.18653,320.19706 450.3632,324.016 453.59705,327.44457 456.00094,331.68081 459.72952,334.71327 471.94215,345.96607 486.52805,354.43736 498.27075,366.13413 503.41559,371.39147 508.27343,378.41497 506.86841,386.13706 506.69214,387.99424 505.60179,389.66908 505.49862,391.49968 506.99459,392.53671 509.01918,392.89279 510.79322,393.21921 512.87256,393.11809 515.21924,393.64135 517.13704,392.71404 518.11892,390.89419 517.58204,388.58298 518.10853,386.59366 519.82743,376.0442 524.37364,365.58259 532.18233,358.13085 534.38055,356.13968 536.21909,353.54405 538.91779,352.27101 541.82626,351.26895 544.58263,352.93808 547.42802,353.22306 548.18316,354.62196 549.85172,352.94021 550.7408,352.51388 557.16183,347.88061 564.34429,343.59941 568.27615,336.45519 575.39523,324.60859 578.77296,310.83561 580.06029,297.15851 580.35213,288.03991 580.59611,278.84559 579.45781,269.77612 577.67273,258.4064 574.41423,246.82587 567.40256,237.54308 561.94781,228.36982 555.36947,219.87835 547.48778,212.65991 523.9233,190.39038 490.92839,180.52941 458.9255,180.9103 z"
       inkscape:connector-curvature="0"
       id="path3054"
       style="fill:#d0cf6e;stroke:none" />
  </g>
</svg>
