<?xml version="1.0" encoding="UTF-8" standalone="no"?>
<!-- Created with Inkscape (http://www.inkscape.org/) -->

<svg
   xmlns:dc="http://purl.org/dc/elements/1.1/"
   xmlns:cc="http://creativecommons.org/ns#"
   xmlns:rdf="http://www.w3.org/1999/02/22-rdf-syntax-ns#"
   xmlns:svg="http://www.w3.org/2000/svg"
   xmlns="http://www.w3.org/2000/svg"
   xmlns:xlink="http://www.w3.org/1999/xlink"
   xmlns:inkscape="http://www.inkscape.org/namespaces/inkscape"
   version="1.1"
   width="740"
   height="520"
   id="svg2"
   style="enable-background:new">
  <defs
     id="defs4">
    <filter
       color-interpolation-filters="sRGB"
       id="filter3050">
      <feBlend
         in2="BackgroundImage"
         mode="lighten"
         id="feBlend3052" />
    </filter>
  </defs>
  <metadata
     id="metadata7">
    <rdf:RDF>
      <cc:Work
         rdf:about="">
        <dc:format>image/svg+xml</dc:format>
        <dc:type
           rdf:resource="http://purl.org/dc/dcmitype/StillImage" />
        <dc:title />
      </cc:Work>
    </rdf:RDF>
  </metadata>
  <g
     id="layer1"
     style="display:none">
    <image
       xlink:href="pngs/coronal-0592.png"
       id="MRISLICE"
       height="520"
       width="740"
       y="0"
       x="0" />
  </g>
  <g
     id="layer3"
     style="display:inline">
    <path
       d="M 373.41141,164.76384 374.29476,77.312509 C 394.5295,40.64628 474.29881,59.298395 524.13702,74.8255 573.89223,97.580381 627.84521,103.16254 660.30072,196.68891 685.76952,256.47484 686.52773,307.2203 644.13517,342.1789 621.12955,372.64651 589.51174,422.06091 575.12069,433.57646 563.08798,440.56207 548.17249,442.93523 527.86753,436.68522 521.02826,427.26615 514.18898,428.61742 507.34971,432.33295 489.41368,435.92694 473.33626,424.65209 456.98779,415.54565 L 411.59989,416.78915 C 390.10598,415.01467 377.8444,411.0848 374.91651,404.97586 381.49975,371.89975 380.14516,344.9975 371.80775,323.52634 L 373.28484,177.29467"
       inkscape:connector-curvature="0"
       id="path2990"
       style="fill:none;stroke:#0000e9;stroke-width:1;stroke-miterlimit:4;stroke-opacity:1;stroke-dasharray:none;stroke-dashoffset:0" />
    <path
       d="M 510.42799,326.55615 C 513.30072,329.63192 516.44821,332.46031 518.9355,335.87916 523.0783,340.89116 528.06134,345.30781 533.98486,348.09387 537.48977,350.03643 541.49323,350.84334 544.94502,352.91238 548.29459,354.6379 551.89434,355.82049 555.32665,357.32495 556.24225,357.89837 556.97994,358.65559 557.53817,359.52512 M 558.79637,363.26583 C 558.99849,365.4488 558.40091,367.72339 556.98918,369.42805 553.59284,375.13988 547.42929,379.33995 540.6679,379.43895 536.53469,379.58804 532.58891,378.06008 528.53717,377.50351 524.35066,376.34499 521.25166,373.00872 518.6017,369.7478 515.05378,364.91555 513.70322,358.95894 511.00488,353.67647 509.28346,350.20558 508.27969,346.31497 505.57431,343.41819 504.18687,341.59518 502.65824,339.45561 503.83337,337.10762"
       inkscape:connector-curvature="0"
       id="path2992"
       style="fill:none;stroke:#0000e9;stroke-width:1;stroke-miterlimit:4;stroke-opacity:1;stroke-dasharray:none;stroke-dashoffset:0" />
    <path
       d="M 554.3925,374.03782 579.01263,429.87275"
       inkscape:connector-curvature="0"
       id="path2994"
       style="fill:none;stroke:#0000e9;stroke-width:1;stroke-miterlimit:4;stroke-opacity:1;stroke-dasharray:none;stroke-dashoffset:0" />
    <path
       d="M 535.04811,378.43427 546.47889,440.42423"
       inkscape:connector-curvature="0"
       id="path2996"
       style="fill:none;stroke:#0000e9;stroke-width:1;stroke-miterlimit:4;stroke-opacity:1;stroke-dasharray:none;stroke-dashoffset:0" />
    <path
       d="M 520.10018,395.14079 526.25521,434.70885"
       inkscape:connector-curvature="0"
       id="path2998"
       style="fill:none;stroke:#0000e9;stroke-width:1;stroke-miterlimit:4;stroke-opacity:1;stroke-dasharray:none;stroke-dashoffset:0" />
    <path
       d="M 535.48776,387.22717 C 530.08553,390.15509 524.54682,392.60531 521.41911,403.49404"
       inkscape:connector-curvature="0"
       id="path3000"
       style="fill:none;stroke:#0000e9;stroke-width:1;stroke-miterlimit:4;stroke-opacity:1;stroke-dasharray:none;stroke-dashoffset:0" />
    <path
       d="M 523.1777,389.86504 C 522.25157,390.27679 522.39052,387.99312 522.88775,389.39171 522.14376,386.27625 518.4172,385.17366 517.251,382.25098 514.87582,379.83435 511.44776,378.54597 508.071,378.84817 502.07181,377.69315 495.1639,379.63458 488.07385,380.60901 482.11723,381.35315 476.33928,383.09929 470.64333,384.93217 466.96917,386.12591 463.85427,388.46767 461.17499,391.19063 458.59046,393.03228 456.10243,396.57521 458.03596,399.72198 462.68068,405.86285 470.39597,408.66867 477.77191,409.81051 482.14923,410.35284 486.54593,412.79695 490.97807,411.30041 494.17009,410.31874 497.23738,408.96725 500.41893,407.95849 504.64414,406.09635 508.45777,403.36281 512.89552,401.97267 515.89815,400.79865 518.43564,398.72951 520.46815,396.26312 522.11036,394.59003 523.70367,392.34354 523.1777,389.86504 z"
       inkscape:connector-curvature="0"
       id="path3002"
       style="fill:none;stroke:#0000e9;stroke-width:1;stroke-miterlimit:4;stroke-opacity:1;stroke-dasharray:none;stroke-dashoffset:0" />
    <path
       d="M 461.62738,404.37333 461.62738,418.44198"
       inkscape:connector-curvature="0"
       id="path3004"
       style="fill:none;stroke:#0000e9;stroke-width:1;stroke-miterlimit:4;stroke-opacity:1;stroke-dasharray:none;stroke-dashoffset:0" />
    <path
       d="M 488.44573,381.07214 490.20431,410.96801"
       inkscape:connector-curvature="0"
       id="path3006"
       style="fill:none;stroke:#0000e9;stroke-width:1;stroke-miterlimit:4;stroke-opacity:1;stroke-dasharray:none;stroke-dashoffset:0" />
    <path
       d="M 502.51437,377.55498 C 502.0805,376.81056 503.7884,375.84396 503.79866,376.92859 503.05948,377.48893 502.69659,376.03787 503.41965,375.8544 503.71871,374.72832 502.89233,373.72402 502.12222,373.00902 500.57964,371.40273 498.93812,369.89065 497.45573,368.22765 496.49056,367.34407 495.43053,366.53994 494.22704,366.00976 492.69879,365.79764 491.43685,366.86893 490.22231,367.61959 489.47586,368.19199 489.14099,369.19239 489.31042,370.10516 489.25132,371.15563 489.41973,372.20127 489.70305,373.20795 489.95392,374.63962 490.71331,375.95551 491.81383,376.90236 492.47731,377.5341 493.20197,378.1057 493.79602,378.8072 494.42229,379.29632 495.22461,378.8897 495.9202,378.8738"
       inkscape:connector-curvature="0"
       id="path3022"
       style="fill:none;stroke:#0000e9;stroke-width:1;stroke-miterlimit:4;stroke-opacity:1;stroke-dasharray:none;stroke-dashoffset:0" />
    <path
       d="M 488.88538,370.08101 C 477.33423,363.37381 452.65284,359.56495 461.62738,389.86504"
       inkscape:connector-curvature="0"
       id="path3024"
       style="fill:none;stroke:#0000e9;stroke-width:1;stroke-miterlimit:4;stroke-opacity:1;stroke-dasharray:none;stroke-dashoffset:0" />
    <path
       d="M 357.21166,164.76675 C 360.775,165.22337 381.04506,164.81715 384.2034,164.61814 403.40243,163.40861 417.81476,151.44189 424.69719,133.99158 L 435.68832,140.14661 C 441.6625,141.21018 448.60899,142.96331 456.19059,145.22537 481.34875,152.73162 515.47864,162.10489 540.32386,177.95609 573.43827,200.06843 595.73719,230.61918 608.9085,274.67802 608.11279,300.4952 600.16917,329.01853 584.72801,347.21947 576.74681,354.05102 568.37904,359.72285 559.2286,363.04669"
       inkscape:connector-curvature="0"
       id="path3053"
       style="fill:none;stroke:#0000e9;stroke-width:1;stroke-miterlimit:4;stroke-opacity:1;stroke-dasharray:none;stroke-dashoffset:0" />
    <path
       d="M 558.3493,358.87007 C 578.2358,352.605 590.6653,338.05196 596.81826,316.00466 614.08651,271.3123 598.14821,255.28746 581.6505,226.7567 569.28215,210.32374 543.05649,170.07866 483.60964,168.72355 473.11871,166.56701 456.81238,156.26805 441.84335,159.49099 L 434.42256,159.25744 410.87578,168.59713 373.69835,177.0768 355.45308,174.43893 356.77202,164.98656"
       inkscape:connector-curvature="0"
       id="path3055"
       style="fill:none;stroke:#0000e9;stroke-width:1;stroke-miterlimit:4;stroke-opacity:1;stroke-dasharray:none;stroke-dashoffset:0" />
    <path
       d="M 484.92857,167.84426 C 488.00567,185.14034 488.25913,204.81847 477.20186,219.5124 471.06501,226.2127 468.55853,235.26731 468.7915,244.20074 468.7423,252.00686 467.832,261.62411 461.51174,266.67416 459.24133,269.31509 451.13717,279.84121 450.69206,283.20978 448.72036,298.13127 448.20149,307.06821 449.81304,323.42702 453.04662,336.85596 456.85597,350.96393 465.92957,361.7259 467.06695,362.88263 468.42517,363.86176 469.98064,364.36563"
       inkscape:connector-curvature="0"
       id="path3059"
       style="fill:none;stroke:#0000e9;stroke-width:1;stroke-miterlimit:4;stroke-opacity:1;stroke-dasharray:none;stroke-dashoffset:0" />
    <path
       d="M 472.61851,225.87741 C 481.24414,234.6821 488.11462,247.84973 483.79435,260.29455 481.50447,266.42042 476.32848,271.04198 470.59566,273.93261 465.15743,286.45558 456.85226,298.83806 457.96399,313.08879 459.3108,321.41251 462.75165,329.35911 467.04449,336.58147 473.73228,347.34616 482.92304,356.23439 490.20441,366.56385"
       inkscape:connector-curvature="0"
       id="path3061"
       style="fill:none;stroke:#0000e9;stroke-width:1;stroke-miterlimit:4;stroke-opacity:1;stroke-dasharray:none;stroke-dashoffset:0" />
    <path
       d="M 460.74809,324.35792 C 460.77719,325.1074 460.30571,325.81976 459.62252,326.11646 458.48477,326.62626 457.13708,326.46846 456.0278,325.95865 455.59545,325.75249 455.19209,325.47543 454.87114,325.11764 453.78322,324.56472 452.89159,323.58025 451.64628,323.3727 451.30758,323.3228 450.95721,323.3585 450.6363,323.47829"
       inkscape:connector-curvature="0"
       id="path3063"
       style="fill:none;stroke:#0000e9;stroke-width:1;stroke-miterlimit:4;stroke-opacity:1;stroke-dasharray:none;stroke-dashoffset:0" />
    <path
       d="M 484.15596,259.24625 C 488.87499,264.78981 492.83229,267.11595 496.13829,274.05721 499.57542,284.51366 502.95869,295.01768 507.97623,304.83494 511.57092,315.75657 512.39967,329.18835 504.66578,338.556 500.27151,346.49847 490.89919,350.83998 482.01669,348.60258 477.36074,347.8781 472.98009,344.19214 469.98064,341.94373"
       inkscape:connector-curvature="0"
       id="path3065"
       style="fill:none;stroke:#0000e9;stroke-width:1;stroke-miterlimit:4;stroke-opacity:1;stroke-dasharray:none;stroke-dashoffset:0" />
    <path
       d="M 394.31212,163.04855 C 421.00057,159.97481 415.19391,150.89484 428.83736,145.76482 436.2753,142.96811 448.47863,151.73034 456.35164,144.54307"
       inkscape:connector-curvature="0"
       id="path3012"
       style="fill:none;stroke:#0000e9;stroke-width:1;stroke-miterlimit:4;stroke-opacity:1;stroke-dasharray:none;stroke-dashoffset:0" />
    <path
       d="M 450.96068,323.76391 C 450.5423,326.53535 452.08528,329.4877 452.53535,332.26563 455.45627,342.37317 458.71981,352.93736 465.7987,360.95514 466.85991,362.22715 468.69902,363.50316 469.79672,364.25248 470.17967,366.16239 473.01475,365.0398 474.41224,365.41862 479.24501,365.61657 483.7394,367.47269 488.13817,369.2397 490.33553,368.93805 490.07644,366.11916 488.64651,364.99438 482.7717,357.05321 476.09912,349.45043 470.01655,341.83058 466.7257,336.66518 463.90383,331.14352 461.11373,325.75605 460.04092,325.69875 459.18451,327.16129 457.87135,326.52543 455.35174,326.34316 453.47071,323.70624 450.99331,323.75402 L 450.96071,323.76402 z"
       inkscape:connector-curvature="0"
       id="path3039"
       style="fill:#b2b789;stroke:none" />
    <path
       d="M 493.51008,366.32705 C 490.97382,366.69274 488.90123,369.06338 489.71814,371.68523 490.14718,375.60058 493.47275,379.84006 497.83784,378.70581 499.36248,378.21503 501.60938,379.19618 502.78385,378.0326 502.32921,377.18716 502.08582,376.71995 502.86625,375.79316 503.56448,373.62855 500.56737,372.2988 499.59639,370.70976 497.75651,369.1987 496.03745,366.60269 493.51005,366.32705 z"
       inkscape:connector-curvature="0"
       id="path3041"
       style="fill:#9da2bc;stroke:none" />
    <path
       d="M 519.47662,398.16011 C 516.66002,399.98681 513.94774,402.00328 510.69844,403.13646 503.37442,406.6351 496.0013,410.8056 487.83591,411.8578 480.36224,410.67685 472.69759,409.54317 465.7987,406.33476 464.34943,405.74419 461.07328,402.74019 461.63581,406.19737 461.80748,410.12164 461.29811,414.22431 461.88311,418.04031 472.36194,423.81131 482.91427,430.44999 494.89771,432.3013 500.30154,432.51808 506.15039,433.17535 511.04093,430.40533 514.87426,429.34025 519.43787,428.90486 522.89761,431.33957 523.77599,432.0582 525.90032,432.53028 525.26327,430.69698 523.67363,419.92674 522.32818,409.04593 520.23226,398.39367 520.05508,398.16327 519.74699,398.11135 519.47662,398.16011 z"
       inkscape:connector-curvature="0"
       id="path3043"
       style="fill:#d5be6c;stroke:none" />
    <path
       d="M 535.50993,387.89714 C 528.73049,390.16572 523.73095,396.40212 521.90841,403.17481 522.73285,413.1691 524.75718,423.07442 526.46973,432.96077 526.38153,435.12352 527.91868,436.49675 529.90653,436.88625 535.06349,438.35978 540.5469,439.90976 545.91028,439.50049 544.02537,427.07265 541.36099,414.60847 539.2154,402.1591 538.16352,397.49667 537.80898,392.48349 536.21061,388.03453 536.01868,387.86783 535.748,387.86884 535.50993,387.89714 z"
       inkscape:connector-curvature="0"
       id="path3045"
       style="fill:#82c1d2;stroke:none" />
    <path
       d="M 553.65903,374.68031 C 550.05448,376.49804 546.73567,379.30991 542.46182,379.37902 540.34409,379.84347 537.66802,378.86952 535.83966,380.02474 535.4827,382.63471 536.91535,385.48416 537.07891,388.16729 540.243,405.31326 543.42173,422.4918 546.54227,439.62414 548.5961,440.75127 551.34855,439.80109 553.63155,439.88518 561.73718,439.05808 570.165,436.92687 576.65796,431.82044 580.01149,430.31027 577.62574,427.42665 576.67926,425.10362 569.2408,408.39408 561.96402,391.60758 554.3734,374.96883 554.24506,374.68356 553.91739,374.64423 553.65898,374.68031 z"
       inkscape:connector-curvature="0"
       id="path3047"
       style="fill:#b9abdd;stroke:none" />
    <path
       d="M 485.22552,381.32994 C 479.09435,382.68128 472.75935,384.10194 467.11763,386.92168 463.85868,389.36567 459.99677,391.6699 458.09117,395.39859 456.42792,398.88911 459.94255,401.44387 462.2678,403.40837 469.26465,408.69238 478.2453,409.55996 486.50324,411.40442 487.79569,411.7113 490.38832,411.72587 489.86927,409.68705 489.33296,400.27437 489.03252,390.8315 488.05573,381.45359 487.58733,380.44351 486.05094,381.48629 485.22552,381.32994 z"
       inkscape:connector-curvature="0"
       id="path3056"
       style="fill:#a4a7da;stroke:none" />
    <path
       d="M 472.06364,365.73628 C 466.41693,365.54566 460.91114,369.62128 460.26192,375.39473 459.68701,379.9029 460.23252,384.69109 461.93807,388.88634 463.49573,389.54033 464.8602,387.25619 466.30704,386.78429 473.02812,383.19796 480.71208,381.80078 488.14168,380.39938 489.5659,379.80561 492.35696,380.57334 492.86435,378.92563 491.13836,376.3727 489.21476,373.77776 488.79764,370.69603 484.01189,367.55936 477.86979,365.63861 472.06364,365.73628 z"
       inkscape:connector-curvature="0"
       id="path3058"
       style="fill:#a1d081;stroke:none" />
    <path
       d="M 503.36088,341.61075 C 499.68801,344.68126 495.84948,348.07136 490.9237,348.83571 486.19345,350.11585 481.39131,348.727 476.886,347.43605 475.12408,348.19029 477.92967,350.04161 478.27363,351.03564 482.64666,355.96924 486.12582,361.67057 490.94091,366.14845 492.45548,366.6186 494.27382,365.29835 495.61213,366.57435 498.86317,368.97333 502.32521,371.87875 503.86922,375.77942 503.93562,378.75167 507.45386,378.62007 509.62582,378.5959 513.80789,378.89031 517.12917,381.65427 519.73729,384.71351 522.35751,386.82336 524.76327,390.7314 522.5404,393.956 521.50959,395.2163 519.47799,398.28011 521.88093,399.16305 524.18536,397.90764 524.66606,394.65511 526.68955,393.00801 529.26967,390.27989 532.99943,388.15271 536.18314,386.79803 535.93547,384.35883 535.67773,381.65914 534.83672,379.42023 531.00296,377.83704 526.45449,377.81437 523.25842,374.74491 515.48763,368.76449 513.41807,358.53582 509.1221,350.1435 507.62761,347.11246 506.09762,343.81192 503.5807,341.56954 L 503.36088,341.61074 z"
       inkscape:connector-curvature="0"
       id="path3060"
       style="fill:#8791c4;stroke:none" />
    <path
       d="M 503.59993,378.94487 C 498.72046,379.37244 493.5893,379.39023 488.94051,380.93701 488.80948,389.0872 489.8264,397.3398 490.12061,405.5271 490.66858,407.19923 489.48765,410.09194 490.96013,411.02522 499.70049,408.12447 508.06734,404.11653 516.17103,399.78679 517.80574,398.69528 519.57026,397.22358 520.05915,395.36286 522.79825,394.45214 523.4583,390.61946 522.03755,388.3148 519.61165,385.29808 517.04936,382.04425 513.60186,380.12641 510.45284,378.8759 506.94164,378.92181 503.59993,378.94487 z"
       inkscape:connector-curvature="0"
       id="path3028"
       style="fill:#dbafbc;stroke:none" />
    <path
       d="M 609.78779,279.07447 C 611.38354,263.16584 617.3108,268.91474 624.73573,282.15199 633.48356,304.14073 614.45942,330.03353 599.67596,322.1597"
       inkscape:connector-curvature="0"
       id="path3030"
       style="fill:none;stroke:#0000e9;stroke-width:1;stroke-miterlimit:4;stroke-opacity:1;stroke-dasharray:none;stroke-dashoffset:0" />
    <path
       d="M 625.61502,282.59163 C 622.14957,287.9945 616.6223,289.78919 608.46886,286.98808"
       inkscape:connector-curvature="0"
       id="path3032"
       style="fill:none;stroke:#0000e9;stroke-width:1;stroke-miterlimit:4;stroke-opacity:1;stroke-dasharray:none;stroke-dashoffset:0" />
    <path
       d="M 605.39134,323.91827 C 612.57137,324.68828 616.05767,324.05196 609.78779,334.9094 598.82791,353.47522 590.34406,350.99483 581.6505,350.29698"
       inkscape:connector-curvature="0"
       id="path3036"
       style="fill:none;stroke:#0000e9;stroke-width:1;stroke-miterlimit:4;stroke-opacity:1;stroke-dasharray:none;stroke-dashoffset:0" />
    <path
       d="M 583.40909,350.73663 C 616.53951,347.04839 573.30487,373.78817 568.46115,378.87391"
       inkscape:connector-curvature="0"
       id="path3038"
       style="fill:none;stroke:#0000e9;stroke-width:1;stroke-miterlimit:4;stroke-opacity:1;stroke-dasharray:none;stroke-dashoffset:0" />
    <path
       d="M 569.34044,377.99462 C 556.21052,386.84707 548.2044,379.1454 568.90079,359.52952"
       inkscape:connector-curvature="0"
       id="path3040"
       style="fill:none;stroke:#0000e9;stroke-width:1;stroke-miterlimit:4;stroke-opacity:1;stroke-dasharray:none;stroke-dashoffset:0" />
    <path
       d="M 565.38363,397.33901 C 575.2888,391.46954 584.34266,381.34355 593.08128,369.64137 L 619.45998,343.70231 C 623.73402,340.42812 636.82448,330.01917 633.96827,340.18514 615.80336,354.55161 600.74796,370.99108 586.04696,387.66682 580.31761,397.21338 574.46615,405.66089 567.58186,404.81298"
       inkscape:connector-curvature="0"
       id="path3042"
       style="fill:none;stroke:#0000e9;stroke-width:1;stroke-miterlimit:4;stroke-opacity:1;stroke-dasharray:none;stroke-dashoffset:0" />
    <path
       d="M 632.26663,336.17697 C 626.75367,338.02572 622.13008,341.99501 617.82703,345.83542 606.47991,356.76732 594.95032,367.673 585.12843,379.9354 579.23505,386.51065 572.978,392.82264 565.55048,397.65859 565.70211,399.87301 567.03118,402.30829 568.29826,404.25327 570.38996,405.26205 572.75543,403.20561 574.48077,402.13748 580.84482,396.89889 584.12541,389.03447 589.82574,383.16083 603.0075,367.89172 617.46465,353.56975 632.84366,340.55968 634.26552,339.60089 634.6555,336.02657 632.26663,336.17697 z"
       inkscape:connector-curvature="0"
       id="path3044"
       style="fill:#d5be93;stroke:none" />
    <path
       d="M 613.56797,269.65316 C 610.97863,271.09707 610.92836,274.79682 610.27063,277.38817 610.00685,279.01314 608.6001,279.98615 608.72993,281.79265 608.78363,283.43776 607.31847,286.76452 609.84473,287.12906 615.00247,289.00548 621.37127,287.95387 624.71023,283.2959 623.75598,280.1533 621.37974,277.27119 619.48944,274.47552 617.88136,272.63864 616.23766,269.86866 613.56797,269.65316 z"
       inkscape:connector-curvature="0"
       id="path3046"
       style="fill:#d39ccd;stroke:none" />
    <path
       d="M 599.98019,322.72657 C 598.04085,323.90581 598.11966,326.80932 596.82024,328.56561 593.1976,336.03807 588.66707,343.00124 583.32863,349.28389 583.80905,351.01013 586.58015,349.78154 587.93116,350.14944 592.24368,350.34321 596.71282,349.59042 599.95271,346.49489 605.46991,341.80654 609.61653,335.47327 612.38642,328.81291 613.37545,327.11102 612.26113,325.12119 610.39428,324.93854 606.92049,324.15829 603.3881,323.5504 599.98019,322.72657 z"
       inkscape:connector-curvature="0"
       id="path3048"
       style="fill:#c9ca98;stroke:none" />
    <path
       d="M 624.68275,284.66979 C 621.51751,287.15607 617.51117,289.26168 613.33441,288.32434 611.65971,288.4504 609.91304,287.00234 608.37466,287.66487 607.24702,291.11685 607.38667,295.04538 606.34558,298.60508 604.9245,306.23109 602.42556,313.64238 600.21375,321.06417 600.41612,323.24873 603.64242,323.17199 605.33836,323.22117 614.70652,322.64096 621.34694,314.30445 624.36675,306.08875 626.80988,299.40287 627.23399,291.82869 625.38343,284.97205 625.25823,284.68395 624.95865,284.61718 624.68275,284.66979 z"
       inkscape:connector-curvature="0"
       id="path3050"
       style="fill:#bc90cc;stroke:none" />
    <path
       d="M 484.36916,260.46123 C 482.79339,262.09177 482.17337,264.56132 480.51614,266.23466 478.05329,269.80757 474.03576,271.90533 470.57403,274.40208 465.51986,285.66309 458.76964,296.69799 458.05156,309.31735 457.85928,316.48902 460.82358,323.28863 463.65312,329.72799 466.37256,334.981 468.98104,340.71093 473.71194,344.45605 480.08312,349.41916 489.4269,350.58585 496.45446,346.32131 499.03639,344.69745 501.76693,342.78729 503.26459,340.08436 503.60707,339.32339 503.06958,337.8889 503.71147,337.44191 505.46073,338.44099 506.22467,335.78098 507.00482,334.72175 512.04319,325.00659 511.03078,313.09113 506.98542,303.20669 502.37745,293.76118 499.37647,283.67153 495.66759,273.86776 493.56717,268.73866 489.1845,265.06424 485.51387,261.08231 485.18653,260.81369 484.87115,260.3068 484.36919,260.46123 z"
       inkscape:connector-curvature="0"
       id="path3051"
       style="fill:#78a9c2;stroke:none" />
    <path
       d="M 468.49021,250.78134 C 439.30163,246.65884 449.10158,268.21781 450.4594,281.55807"
       inkscape:connector-curvature="0"
       id="path3054"
       style="fill:none;stroke:#0000e9;stroke-width:1;stroke-linecap:round;stroke-miterlimit:4;stroke-opacity:1;stroke-dasharray:none;stroke-dashoffset:0" />
    <path
       d="M 472.7088,226.88662 C 471.36994,228.43148 471.052,230.8007 470.33288,232.7042 467.77394,242.40613 470.45596,253.29115 465.31578,262.30706 463.14747,265.96716 459.71815,268.60505 457.45644,272.23566 454.78217,276.30121 451.19099,280.1585 450.68048,285.20042 448.93139,297.59104 448.73381,310.21027 449.9177,322.66559 450.832,323.62839 452.58846,323.18123 453.66764,324.15196 455.41321,325.12488 457.63466,327.43991 459.64229,325.70634 461.56207,324.68534 459.90625,322.29309 459.66169,320.79061 457.31677,314.0281 457.18428,306.52962 459.34798,299.68221 461.90146,290.69233 466.58939,282.42031 470.43549,273.88719 477.44197,270.15759 483.92592,263.73097 484.6716,255.46865 485.218,249.81914 484.25849,244.06389 481.62702,239.0205 479.46506,234.6286 476.63456,230.50191 473.2528,226.97405 473.09659,226.85368 472.89188,226.85111 472.70877,226.88665 z"
       inkscape:connector-curvature="0"
       id="path3064"
       style="fill:#9de082;stroke:none" />
    <path
       d="M 394.19083,318.55232 C 399.65171,306.44806 407.89834,309.82823 406.62588,320.72845 403.94323,332.92423 392.63033,328.87097 394.19083,318.55232 z"
       inkscape:connector-curvature="0"
       id="path3067"
       style="fill:none;stroke:#0000e9;stroke-width:1;stroke-linecap:round;stroke-miterlimit:4;stroke-opacity:1;stroke-dasharray:none;stroke-dashoffset:0" />
    <path
       d="M 401.7385,311.1144 C 398.31249,311.55158 396.29441,314.90679 394.73019,317.6611 393.71381,319.06277 394.3451,320.90729 394.40879,322.51082 394.94924,325.33919 397.34851,328.41939 400.48139,328.07508 404.25176,327.36555 406.17166,323.27496 406.56772,319.79739 406.76565,316.9333 406.33592,313.50899 403.88864,311.65709 403.24985,311.26293 402.4923,311.05672 401.7385,311.1144 z"
       inkscape:connector-curvature="0"
       id="path3069"
       style="fill:#bfb195;stroke:none" />
    <path
       d="M 413.0466,167.84425 411.17191,172.94149 C 419.8811,188.53059 423.65935,191.14935 425.79631,203.67533"
       inkscape:connector-curvature="0"
       id="path3071"
       style="fill:none;stroke:#0000e9;stroke-width:1;stroke-linecap:round;stroke-miterlimit:4;stroke-opacity:1;stroke-dasharray:none;stroke-dashoffset:0" />
    <path
       d="M 425.57648,203.45551 C 439.73049,212.59806 458.73291,224.32767 449.31732,236.42889 444.52708,241.8559 451.9121,248.26328 454.97179,250.03848"
       inkscape:connector-curvature="0"
       id="path3073"
       style="fill:none;stroke:#0000e9;stroke-width:1;stroke-linecap:round;stroke-miterlimit:4;stroke-opacity:1;stroke-dasharray:none;stroke-dashoffset:0" />
    <path
       d="M 550.43569,359.74935 C 547.6731,358.22206 522.70948,347.60139 520.01214,350.02892 519.20335,350.75681 520.56197,354.40046 521.19929,356.45201 525.47453,360.73953 529.96035,366.09348 534.73174,364.59777 539.43097,363.12468 542.1398,372.00703 550.43569,359.74935 z"
       inkscape:connector-curvature="0"
       id="path3049"
       style="fill:none;stroke:#0000e9;stroke-width:1;stroke-linecap:round;stroke-miterlimit:4;stroke-opacity:1;stroke-dasharray:none;stroke-dashoffset:0" />
    <path
       d="M 424.90511,134.84518 C 423.70329,135.7287 423.52437,137.67319 422.61368,138.89796 418.44194,147.38433 411.76593,154.55065 403.6101,159.26838 402.64486,159.47917 401.49346,161.26676 403.10493,161.35708 409.18103,160.3041 414.58202,157.02692 418.78296,152.57789 422.75818,148.46286 428.1128,144.35022 434.21196,145.21096 440.30597,145.73853 446.56515,148.3824 452.6508,146.49332 453.57613,146.44872 454.74754,145.11474 453.37941,144.7155 447.53825,142.70701 441.33379,141.77164 435.44575,140.0135 431.83872,138.57465 428.73112,135.94905 425.02169,134.83547 L 424.90511,134.84547 z"
       inkscape:connector-curvature="0"
       id="path3052"
       style="fill:#b46a9f;stroke:none" />
    <path
       d="M 443.43138,159.36553 C 440.25595,159.56777 436.95616,159.08024 433.85709,159.691 427.01415,162.48949 419.97081,164.98468 413.24492,167.95356 412.78361,169.7572 411.22702,171.77428 411.89689,173.68526 415.60324,180.54093 420.14402,186.95722 423.30216,194.07678 424.52908,196.95313 425.12727,200.02392 425.93489,203.02419 431.80101,207.77634 438.54962,211.36506 444.09199,216.54729 448.40602,220.30892 452.69267,225.55486 451.68902,231.73165 451.33882,235.32266 447.06572,237.81129 448.14309,241.65053 449.10664,245.34908 452.19277,247.83367 455.0698,250.02476 455.70138,251.45 457.58641,250.1679 458.74203,250.40364 461.90232,250.13597 465.16457,250.63944 468.2626,250.23849 468.79493,243.10617 468.349,235.58741 471.27422,228.8949 473.72904,222.30217 479.31734,217.46753 481.97029,210.9321 487.61152,197.88545 487.30675,183.09535 484.98191,169.31356 484.06268,168.33617 482.36992,168.9266 481.23196,168.23521 471.69209,165.46751 462.61996,160.69399 452.67023,159.45297 449.59322,159.30623 446.51066,159.36837 443.43138,159.36557 z"
       inkscape:connector-curvature="0"
       id="path3057"
       style="fill:#a7b0c5;stroke:none" />
    <path
       d="M 455.76927,145.4344 C 452.43872,147.53667 448.47109,147.97381 444.62943,147.24598 438.98506,146.63683 432.9242,144.05424 427.41155,146.59047 420.1997,149.63203 416.45634,157.57697 408.88528,159.95814 402.24065,162.47497 395.00787,163.00933 388.05658,164.32012 377.81615,165.35219 367.49576,164.75601 357.241,165.29161 356.26337,166.65573 356.65129,168.80204 356.18268,170.45383 356.34921,171.66253 355.01896,173.6879 356.33751,174.37502 362.24923,175.18886 368.18282,176.30588 374.09826,176.81242 386.43425,173.93711 398.84552,171.3068 411.13489,168.27977 418.90332,165.29783 426.61738,162.04801 434.42549,159.24761 442.95368,159.08086 451.73032,157.94452 459.9941,160.63218 467.88647,162.68186 475.28163,166.48129 483.24294,168.32265 500.99944,169.2769 518.92236,172.86282 534.53852,181.53778 550.98949,190.32575 564.41693,203.64359 575.5954,218.3593 583.06286,227.88993 588.92888,238.57022 594.97374,249.02413 600.70159,258.86762 604.35565,270.01916 604.27087,281.49124 604.57279,295.13279 599.89646,308.17903 595.41781,320.85536 592.25316,329.88574 587.8409,338.65637 580.98979,345.44249 574.86225,351.87028 566.76289,356.08789 558.47495,359.08396 557.78432,360.14768 558.55155,361.75391 559.03841,362.73676 565.04384,360.88403 570.53045,357.4566 575.76743,353.96422 581.36118,350.13781 586.55125,345.60747 590.01137,339.70812 602.45322,320.45551 607.72909,297.37642 608.77858,274.6714 602.95087,255.9876 595.31032,237.74954 584.1708,221.56989 573.77634,205.88703 560.19128,192.44788 544.96155,181.43773 526.35677,168.18998 504.54424,160.62264 483.0195,153.56575 473.99482,150.75311 464.93236,147.86218 455.82853,145.42972 L 455.76923,145.43472 z"
       inkscape:connector-curvature="0"
       id="path3062"
       style="fill:#73a0a6;stroke:none" />
    <path
       d="M 581.72265,350.49601 C 578.9765,351.50955 576.91694,353.92913 574.38733,355.34165 572.34383,356.95629 569.46986,357.83485 568.22945,360.24045 563.90058,365.24611 558.59861,370.04053 556.62912,376.58045 556.15834,378.77966 557.54758,381.91545 560.21391,381.36989 567.46955,380.57286 572.71122,374.91126 578.39074,370.89453 584.06366,366.36579 590.31736,362.18685 594.54628,356.1695 595.52357,354.85934 596.34871,352.22182 594.26455,351.50636 590.22804,350.3537 585.84118,351.29242 581.72265,350.49601 z"
       inkscape:connector-curvature="0"
       id="path3066"
       style="fill:#ca818c;stroke:none" />
    <path
       d="M 521.33497,349.85483 C 519.45003,350.06172 520.19804,352.51913 520.51892,353.71164 521.41872,357.37607 524.83774,359.58833 527.37473,362.08919 529.65364,364.23069 532.84607,364.92483 535.88786,364.43686 538.76176,364.32232 541.45572,367.39061 544.26208,365.60264 546.72512,364.4521 548.5878,362.19157 549.94529,359.94859 547.49294,358.31678 544.46249,357.41147 541.74593,356.1695 535.25409,353.7106 528.75061,350.91473 521.85958,349.85483 521.68517,349.84133 521.50931,349.83883 521.33497,349.85483 z"
       inkscape:connector-curvature="0"
       id="path3068"
       style="fill:#d68d95;stroke:none" />
    <path
       d="M 462.01594,250.53965 C 457.76179,250.66327 452.68955,251.05178 450.11521,254.92106 446.57534,260.31356 448.35141,267.15387 449.21374,273.08373 449.76945,275.32073 449.64777,277.86045 450.63982,279.92715 452.05389,280.50723 452.61863,278.25387 453.38907,277.47331 456.49834,272.42026 460.36098,267.97978 464.12989,263.4309 466.61396,259.97178 467.60422,255.67016 468.25289,251.52085 467.59243,250.34446 465.60986,250.85277 464.37697,250.57411 463.59083,250.53621 462.80286,250.51641 462.01594,250.53961 z"
       inkscape:connector-curvature="0"
       id="path3074"
       style="fill:#b667d7;stroke:none" />
    <path
       d="M 559.00878,358.3205 548.78703,358.87006"
       inkscape:connector-curvature="0"
       id="path3070"
       style="fill:none;stroke:#0000e9;stroke-width:1;stroke-linecap:round;stroke-miterlimit:4;stroke-opacity:1;stroke-dasharray:none;stroke-dashoffset:0" />
    <path
       d="M 560.10789,362.82687 547.79783,363.1566"
       inkscape:connector-curvature="0"
       id="path3840"
       style="fill:none;stroke:#0000e9;stroke-width:1;stroke-linecap:round;stroke-miterlimit:4;stroke-opacity:1;stroke-dasharray:none;stroke-dashoffset:0" />
    <path
       d="M 554.40677,358.62727 C 553.23986,358.79347 551.91443,358.54417 550.85113,359.11301 550.3381,360.25891 549.2892,361.19708 548.811,362.37236 549.07416,363.30505 550.31675,362.83935 551.02114,362.97468 553.63696,362.92648 556.28485,362.92568 558.87679,362.71239 559.6747,362.19816 558.64335,361.25372 558.68618,360.50224 558.61298,359.9126 558.79609,358.69078 557.82155,358.91386 557.16605,359.54296 556.97767,358.73573 556.36918,358.53012 555.71504,358.56252 555.06091,358.59492 554.40677,358.62722 z"
       inkscape:connector-curvature="0"
       id="path3842"
       style="fill:#73a0a6;stroke:none" />
    <path
       d="M 510.57164,327.8206 C 508.86121,330.1817 508.55918,333.42981 506.71398,335.80628 505.83243,337.70592 502.94026,340.21243 505.11729,342.27393 511.6165,350.91628 513.40641,362.39012 520.0927,370.96077 523.43185,375.04397 528.20716,377.7325 533.45331,378.28123 538.1624,379.54755 543.27253,379.64056 547.70791,377.41806 553.0764,374.81568 557.67003,369.81373 558.78147,363.84402 557.9764,362.38398 555.52853,363.50139 554.13772,363.18455 551.04132,363.35754 547.48866,363.08084 545.24865,365.63008 541.64022,367.99823 537.85612,364.30296 534.01022,364.84696 528.75986,365.51147 525.32782,360.64388 522.09858,357.37299 520.40196,355.40342 519.03632,352.35823 519.92783,349.78911 523.95333,349.06127 528.02718,351.05903 531.90816,352.06977 538.56385,353.82585 544.46118,357.9214 551.36246,358.65071 552.4985,358.9671 554.22777,357.75111 552.72261,356.87839 542.86028,351.35117 530.98044,348.91265 523.03283,340.54283 518.82912,336.52922 515.4744,331.48829 510.94259,327.80686 L 510.61285,327.80686 510.57165,327.82056 z"
       inkscape:connector-curvature="0"
       id="path3072"
       style="fill:#e1aa66;stroke:none" />
    <path
       d="M 485.67673,169.13618 C 486.36658,177.46839 487.595,185.97077 486.48733,194.3883 485.70671,204.73354 481.69443,214.6323 475.21533,222.58261 474.2477,223.85501 472.62727,225.50601 474.27344,226.97699 479.7773,234.13682 485.09488,242.20917 485.12717,251.61086 485.44867,254.20923 484.83579,256.8271 484.56388,259.31839 489.86337,264.71019 495.41759,270.2663 497.60465,277.72896 500.70634,286.83219 504.02685,295.87181 508.00246,304.61558 510.5723,311.44245 510.99592,318.84076 510.54416,326.06202 515.57657,331.35746 520.12103,337.19445 525.56079,342.15028 534.61822,349.81594 546.5701,352.30199 556.77559,357.9775 561.27406,358.62784 565.35285,355.59815 569.22304,353.7734 581.69146,347.04396 590.17278,334.73995 594.57206,321.48654 600.31201,306.13991 605.95541,289.84221 603.30928,273.20843 600.93412,256.8223 590.89972,243.1634 582.66135,229.25205 575.5432,218.01506 566.73203,207.84484 557.24271,198.56493 538.31489,180.36984 512.60489,170.20109 486.49776,169.00288 486.19515,168.85809 485.94109,169.03078 485.67673,169.13618 z"
       inkscape:connector-curvature="0"
       id="path3075"
       style="fill:#d0cf6e;stroke:none" />
  </g>
</svg>
