<?xml version="1.0" encoding="UTF-8" standalone="no"?>
<!-- Created with Inkscape (http://www.inkscape.org/) -->

<svg
   xmlns:dc="http://purl.org/dc/elements/1.1/"
   xmlns:cc="http://creativecommons.org/ns#"
   xmlns:rdf="http://www.w3.org/1999/02/22-rdf-syntax-ns#"
   xmlns:svg="http://www.w3.org/2000/svg"
   xmlns="http://www.w3.org/2000/svg"
   xmlns:xlink="http://www.w3.org/1999/xlink"
   xmlns:inkscape="http://www.inkscape.org/namespaces/inkscape"
   version="1.1"
   width="740"
   height="520"
   id="svg2"
   style="display:inline;enable-background:new">
  <defs
     id="defs4">
    <filter
       color-interpolation-filters="sRGB"
       id="filter3050">
      <feBlend
         in2="BackgroundImage"
         mode="lighten"
         id="feBlend3052" />
    </filter>
  </defs>
  <metadata
     id="metadata7">
    <rdf:RDF>
      <cc:Work
         rdf:about="">
        <dc:format>image/svg+xml</dc:format>
        <dc:type
           rdf:resource="http://purl.org/dc/dcmitype/StillImage" />
        <dc:title />
      </cc:Work>
    </rdf:RDF>
  </metadata>
  <g
     id="g3677"
     style="display:none">
    <image
       xlink:href="pngs/coronal-0557.png"
       id="image3679"
       height="520"
       width="740"
       y="0"
       x="0" />
  </g>
  <g
     id="g3685"
     style="display:inline">
    <path
       d="M 372.54451,401.24535 C 374.48893,403.61678 380.11393,405.01041 385.60131,406.21937 393.69834,409.91083 401.60278,412.19313 410.12619,413.81973 418.9173,414.29464 426.90317,416.25444 434.71972,419.89791 440.76782,422.00023 444.7864,425.66192 449.02002,427.35894 454.51831,431.01403 459.75021,434.5521 465.80733,437.30697 473.18949,440.39439 481.3531,442.18628 489.43391,442.90274 497.95235,445.30629 507.67486,443.44 515.54749,441.65924 521.48449,437.88676 530.33847,431.16113 536.21617,427.23932 544.23298,425.72339 545.56718,424.37857 543.51247,415.09282 544.24739,407.13598 554.35199,402.98785 560.9354,402.48885 569.76205,398.77596 582.25039,403.0601 588.91424,393.78432 591.31089,391.58738 595.03921,388.34838 598.24052,385.70155 600.64138,382.39287 602.78404,381.31917 604.45804,378.86227 608.6043,374.23608 611.85059,372.53209 613.78432,369.53599 618.3003,366.14744 620.59395,362.59134 623.11061,359.58796 625.36789,357.30521 627.43973,354.64093 629.94988,350.88343 631.85409,346.65764 633.36096,343.21844 634.9239,338.44839 636.07449,334.64275 639.16705,329.90329 641.76317,325.39159 643.8798,321.69446 645.71503,319.49294 647.98069,314.82181 650.27943,309.6263 653.12526,304.98075 654.81996,299.27801 659.00149,293.07146 661.10519,288.09299 662.28099,280.62544 665.91876,270.00525 663.56694,257.27613 663.52449,245.80733 662.25835,236.24874 661.82163,226.66624 659.17223,217.82848 656.31436,211.55385 655.16392,204.04084 652.33295,197.93242 650.45855,190.74524 647.05537,184.69372 644.25018,178.03635 642.37147,173.88466 639.18334,168.29091 636.78915,163.1143 634.32624,159.24463 632.23861,154.25303 628.70638,150.0575 626.66904,146.11445 623.56696,142.9188 621.24535,138.86597 615.45125,134.29322 609.34547,128.72646 602.59279,123.94392 596.01899,118.91322 588.77075,115.11931 582.07497,110.88712 575.52615,107.87917 569.64272,105.37079 562.80065,102.18259 557.25758,99.100344 553.72558,97.424017 549.74386,95.34332 542.43336,92.748581 534.90136,88.650678 527.36078,87.260542 520.89068,84.485278 513.67171,83.594358 506.84296,81.043021 500.64542,79.639645 495.39876,77.848784 488.1904,76.069005 482.66351,73.397405 475.62617,72.634139 470.20582,71.044156 461.18219,69.330819 452.43144,68.656787 442.8025,67.364475 435.07041,65.934327 427.26352,64.90307 419.10346,64.117209 409.10169,65.508103 396.27973,62.980268 388.08831,67.986227 383.60735,68.780065 380.51741,70.779078 378.76203,73.581996 376.18198,75.621879 372.907,78.720607 371.30101,81.043021 367.39229,84.030059 367.54089,81.456932 367.15288,90.308925 368.04153,119.81775 368.93017,149.32657 369.81881,178.83539 373.30413,185.14354 382.11047,180.61089 386.52532,178.83539 393.40031,177.06283 398.13656,174.7188 404.99042,171.80106 408.34742,169.98641 410.19426,167.57034 413.78332,164.76674 418.74605,162.64915 417.01414,156.12304 420.378,152.45668 421.7278,147.27936 429.25114,149.28905 433.56735,150.6981 443.32358,151.77938 453.1765,155.88106 461.70464,158.61171 466.75712,159.256 472.20231,161.31418 477.97151,162.56852 482.36485,165.12506 486.39416,166.83708 491.16086,168.72355 495.24765,170.87169 501.65246,173.06951 506.54844,174.87858 511.02562,175.85681 516.1779,178.55853 521.49637,179.71468 526.0715,181.52985 532.68427,184.44724 536.44431,187.18864 542.18917,191.435 549.4748,195.13726 555.47425,199.94029 556.46391,201.57972 558.02226,202.60215 560.18515,205.21409 561.67771,207.80084 566.52693,212.27622 567.65911,214.88629 571.14606,219.71307 573.64816,221.83496 576.01237,226.7567 578.65314,230.22363 579.51785,233.23709 581.72776,236.86854 583.25046,241.64648 585.19128,244.51475 587.44314,248.73896 588.67531,252.87539 590.60927,256.41603 591.39995,260.60938 587.79955,260.63368 586.7991,257.85969 585.24492,255.33364 581.42873,249.94726 578.22405,243.41922 575.57272,238.62712 572.4094,232.95887 568.45601,227.00602 564.5816,221.92061 562.05467,217.52591 558.9366,215.15 555.78869,210.92948 553.32419,209.80577 551.3957,207.25424 549.63366,205.21409 546.36649,203.16215 544.08726,200.05408 539.96147,198.17977 534.32969,193.81821 528.6967,192.31064 522.81531,188.50758 516.9496,187.34653 511.04998,183.44636 505.2295,182.35255 498.41606,179.18919 493.16133,176.36062 485.44547,176.19751 475.07516,174.44775 464.18156,174.15598 453.6119,173.12 446.34241,173.96738 447.35869,172.53614 439.28274,174.43893 431.87443,175.59062 425.43404,179.66598 417.74013,181.47326 410.80422,184.27796 404.12142,186.19064 397.0768,188.50758 390.18653,192.32651 384.01496,192.63083 376.85313,195.10225 374.48453,195.50119 365.3332,196.1813 366.74129,196.42119"
       inkscape:connector-curvature="0"
       id="path3687"
       style="fill:none;stroke:#e20000;stroke-opacity:1" />
    <path
       d="M 405.86971,186.30935 C 406.4559,186.749 407.11016,187.11016 407.62829,187.62829 407.73191,187.73191 407.52466,187.96431 407.62829,188.06793 407.73191,188.17156 407.96431,187.96431 408.06793,188.06793 408.17156,188.17156 408.00243,188.3765 408.06793,188.50758 408.41965,189.21101 409.4748,189.56273 409.82651,190.26616 409.89201,190.39724 409.72289,190.60218 409.82651,190.7058 409.93014,190.80943 410.13508,190.6403 410.26616,190.7058 412.09586,191.62065 409.79616,190.6755 410.7058,191.58509 410.80943,191.68872 411.04182,191.48147 411.14545,191.58509 411.24907,191.68872 411.07995,191.89366 411.14545,192.02474 412.0603,193.85444 411.11515,191.55474 412.02474,192.46438 412.12836,192.56801 411.95924,192.77295 412.02474,192.90403 412.21011,193.27477 412.71866,193.41258 412.90403,193.78332 412.96953,193.9144 412.8004,194.11934 412.90403,194.22296 413.00765,194.32659 413.24005,194.11934 413.34367,194.22296 413.4473,194.32659 413.27817,194.53153 413.34367,194.66261 413.52904,195.03335 414.03759,195.17116 414.22296,195.5419 414.28846,195.67298 414.15746,195.85047 414.22296,195.98154 414.66261,196.86084 415.98154,197.30048 416.42119,198.17977 416.48669,198.31085 416.35569,198.48834 416.42119,198.61942 416.66837,199.11378 417.56653,199.41757 417.74013,199.93835 417.83283,200.21641 417.60905,200.55549 417.74013,200.81764 418.19495,200.81764 418.34778,200.71402 418.61942,201.25729 418.68492,201.38836 418.55392,201.56585 418.61942,201.69693 418.71212,201.8823 418.96638,201.95121 419.05906,202.13658 419.12456,202.26765 418.99356,202.44514 419.05906,202.57622 419.2925,203.04309 419.70492,202.98864 419.93835,203.45551 420.00385,203.58659 419.87285,203.76408 419.93835,203.89516 420.03105,204.08053 420.28531,204.14943 420.378,204.3348 420.50907,204.59696 420.24692,204.95194 420.378,205.21409 420.56337,205.58483 421.12621,205.70015 421.25729,206.09338 421.34999,206.37144 421.16459,206.69462 421.25729,206.97267 421.32279,207.16929 421.60425,207.22695 421.69693,207.41232 421.76243,207.54339 421.63143,207.72089 421.69693,207.85196 421.78963,208.03733 422.04389,208.10624 422.13658,208.29161 422.20208,208.42269 422.07108,208.60018 422.13658,208.73125 422.22928,208.91662 422.48354,208.98553 422.57622,209.1709 422.64172,209.30198 422.51072,209.47947 422.57622,209.61054 422.67993,209.81797 423.39207,210.73914 423.45551,210.92948 423.54821,211.20754 423.36281,211.53071 423.45551,211.80877 423.52101,212.00538 423.80247,212.06304 423.89516,212.24841 424.02623,212.51057 423.76408,212.86555 423.89516,213.1277 423.98786,213.31308 424.24212,213.38198 424.3348,213.56735 424.5084,213.91454 424.21121,214.51551 424.3348,214.88629 424.43843,215.19716 424.67082,215.4547 424.77445,215.76558 424.82075,215.9046 424.70895,216.07414 424.77445,216.20522 424.86715,216.39059 425.12141,216.4595 425.21409,216.64487 425.41071,217.0381 425.07506,217.54672 425.21409,217.9638 425.27959,218.16042 425.56105,218.21808 425.65374,218.40345 425.88668,218.86932 425.48769,219.66388 425.65374,220.16203 425.75736,220.4729 425.98976,220.73044 426.09338,221.04132 426.41072,221.99334 425.68032,224.17199 426.09338,224.99812 426.18608,225.18349 426.44034,225.2524 426.53303,225.43777 426.89652,226.16474 426.20906,229.7416 426.53303,230.71351 426.63665,231.02439 426.86905,231.28192 426.97267,231.5928 427.40661,232.89461 426.59842,236.69045 426.97267,238.18748 427.33707,239.64507 427.41232,238.70651 427.41232,240.3857 427.41232,241.15471 427.1338,243.78547 427.41232,244.34251 427.50502,244.52788 427.78642,244.58554 427.85196,244.78215 427.93006,245.01638 427.91786,248.16741 427.85196,248.29931 427.75926,248.48469 427.47786,248.54234 427.41232,248.73896 427.16683,249.47542 427.41232,254.60047 427.41232,255.77328 427.41232,258.2646 427.41232,260.75593 427.41232,263.24725 427.41232,264.12963 427.13696,265.49869 427.41232,266.32476 427.47782,266.52138 427.78642,266.56779 427.85196,266.76441 428.10753,267.53112 427.85196,269.37153 427.85196,270.28157 427.85196,270.96276 427.61634,272.88784 427.85196,273.35909 427.94466,273.54446 428.22607,273.60212 428.29161,273.79873 428.42097,274.18682 428.29161,275.09545 428.29161,275.55731 428.29161,276.53907 428.00829,281.58535 428.29161,282.15199 428.38431,282.33736 428.63857,282.40626 428.73125,282.59163 428.96573,283.06059 428.49678,283.88126 428.73125,284.35021 428.82395,284.53559 429.07821,284.60449 429.1709,284.78986 429.30362,285.05531 428.96767,285.90556 429.1709,286.10879 429.27452,286.21242 429.50692,286.00517 429.61054,286.10879 429.71417,286.21242 429.50692,286.44481 429.61054,286.54844 429.71417,286.65207 429.90364,286.54844 430.05019,286.54844 431.11482,286.54844 430.01999,286.13897 430.48983,285.66915 430.59346,285.56552 430.82585,285.77278 430.92948,285.66915 431.13673,285.4619 430.83678,285.06792 430.92948,284.78986 431.0331,284.47898 431.2655,284.22145 431.36912,283.91057 431.41552,283.77154 431.30362,283.602 431.36912,283.47092 431.46182,283.28555 431.71608,283.21665 431.80877,283.03128 431.93985,282.76913 431.71607,282.43004 431.80877,282.15199 431.91239,281.84111 432.16894,281.59061 432.24841,281.2727 432.56049,280.02442 431.85443,278.05819 432.24841,276.87625 432.31391,276.67963 432.62252,276.63322 432.68806,276.4366 433.10298,275.19183 432.34122,272.10857 432.68806,270.72122 432.76756,270.40331 433.04823,270.15983 433.1277,269.84193 433.25648,269.32682 433.1277,268.17555 433.1277,267.6437 433.1277,266.38379 432.83761,262.35896 433.1277,261.48867 433.23133,261.17779 433.46372,260.92025 433.56735,260.60938 433.91362,259.57055 433.15255,256.60288 433.56735,255.77328 433.66005,255.58791 433.91431,255.51901 434.00699,255.33364 434.20896,254.9297 434.00699,252.35264 434.00699,251.81648 434.00699,250.70137 434.10089,250.65541 434.44664,249.61825 434.71043,248.82689 434.18285,247.77174 434.44664,246.98038 434.55027,246.6695 434.78266,246.41196 434.88629,246.10109 435.18575,245.20269 434.88629,238.19761 434.88629,236.86854 434.88629,234.67032 434.88629,232.47209 434.88629,230.27386 434.88629,229.56968 434.57737,227.81417 434.88629,227.19635 434.97899,227.01098 435.26039,226.95332 435.32593,226.7567 435.65569,225.76744 434.89498,223.66179 435.32593,222.7999 435.41863,222.61453 435.70004,222.55687 435.76558,222.36025 435.9046,221.94317 435.56896,221.43455 435.76558,221.04132 435.85828,220.85595 436.13968,220.79829 436.20522,220.60167 436.38108,220.0741 436.02936,219.37067 436.20522,218.84309 436.30885,218.53222 436.54124,218.27468 436.64487,217.9638 436.858,217.32441 436.3474,216.36051 436.64487,215.76558 436.73757,215.5802 436.99183,215.5113 437.08451,215.32593 437.26037,214.97421 436.90865,214.35871 437.08451,214.00699 437.17721,213.82162 437.43147,213.75272 437.52416,213.56735 437.75863,213.0984 437.28968,212.27772 437.52416,211.80877 437.61686,211.6234 437.87112,211.55449 437.9638,211.36912 438.19828,210.90017 437.72932,210.0795 437.9638,209.61054 438.0565,209.42517 438.31076,209.35627 438.40345,209.1709 438.81378,208.35023 437.99311,206.91405 438.40345,206.09338 438.49615,205.90801 438.75041,205.83911 438.84309,205.65374 438.97581,205.38829 438.63986,204.53803 438.84309,204.3348 438.94672,204.23118 439.17911,204.43843 439.28274,204.3348 439.56161,204.05593 439.09971,202.94227 439.28274,202.57622 439.37544,202.39085 439.6297,202.32195 439.72238,202.13658 439.85346,201.87442 439.51513,201.46454 439.72238,201.25729 439.82601,201.15366 440.0584,201.36091 440.16203,201.25729 440.36928,201.05004 440.03095,200.64015 440.16203,200.378 440.25473,200.19263 440.50899,200.12372 440.60167,199.93835 440.73439,199.6729 440.39844,198.82265 440.60167,198.61942 440.7053,198.51579 440.93769,198.72304 441.04132,198.61942 441.24857,198.41216 440.91024,198.00228 441.04132,197.74013 441.13402,197.55475 441.38828,197.48585 441.48096,197.30048 441.61204,197.03833 441.27371,196.62844 441.48096,196.42119 441.58459,196.31756 441.81698,196.52482 441.92061,196.42119 442.12786,196.21394 441.71336,195.74915 441.92061,195.5419 442.02423,195.43827 442.25663,195.64553 442.36025,195.5419 442.46388,195.43827 442.25663,195.20588 442.36025,195.10225 442.46388,194.99863 442.69627,195.20588 442.7999,195.10225 442.90352,194.99863 442.7344,194.79369 442.7999,194.66261 442.8926,194.47724 443.14686,194.40834 443.23954,194.22296 443.30504,194.09189 443.13592,193.88694 443.23954,193.78332 443.34317,193.67969 443.57556,193.88694 443.67919,193.78332 443.78281,193.67969 443.61369,193.47475 443.67919,193.34367 443.77189,193.1583 443.97228,193.05058 444.11883,192.90403 444.73715,192.28572 445.54168,191.09349 446.31706,190.7058 446.92349,190.40259 446.71031,191.23824 447.19635,190.26616 447.26185,190.13508 447.13085,189.95759 447.19635,189.82651 447.46014,189.29894 448.2515,189.03515 448.51528,188.50758 448.58078,188.3765 448.41166,188.17156 448.51528,188.06793 449.42493,187.15829 448.47968,189.45799 449.39457,187.62829 449.46007,187.49721 449.32907,187.31972 449.39457,187.18864 449.48727,187.00327 449.74153,186.93437 449.83422,186.749 449.9653,186.48684 449.70314,186.13186 449.83422,185.86971 450.09028,185.35758 450.45744,185.0629 450.71351,184.55077 450.84459,184.28862 450.58243,183.93364 450.71351,183.67148 452.17163,182.21336 450.50626,184.08598 451.15315,182.79219 451.24585,182.60682 451.50011,182.53792 451.5928,182.35255 451.6583,182.22147 451.5273,182.04398 451.5928,181.9129 453.05092,180.45478 451.38555,182.3274 452.03244,181.03361 452.12514,180.84824 452.3794,180.77934 452.47209,180.59397 452.53759,180.46289 452.40659,180.2854 452.47209,180.15432 453.93021,178.6962 452.26484,180.56882 452.91174,179.27503 453.00444,179.08966 453.25869,179.02076 453.35138,178.83539 453.48246,178.57323 453.14413,178.16335 453.35138,177.95609 453.45501,177.85247 453.6874,178.05972 453.79103,177.95609 453.89465,177.85247 453.72553,177.64753 453.79103,177.51645 453.88373,177.33108 454.13799,177.26218 454.23067,177.0768 454.36175,176.81465 454.02342,176.40477 454.23067,176.19751 454.3343,176.09389 454.56669,176.30114 454.67032,176.19751 454.87757,175.99026 454.46306,175.52547 454.67032,175.31822 454.77394,175.2146 455.00634,175.42185 455.10996,175.31822 455.40309,175.02509 454.81683,174.73206 455.10996,174.43893 455.21359,174.33531 455.44598,174.54256 455.54961,174.43893 455.75686,174.23168 455.34236,173.76689 455.54961,173.55964 455.65323,173.45602 455.88563,173.66327 455.98925,173.55964 456.09288,173.45602 456.1358,173.12 455.98925,173.12 455.8427,173.12 456.09288,173.45602 455.98925,173.55964 455.15059,174.39831 455.10996,172.22456 455.10996,171.36142"
       inkscape:connector-curvature="0"
       id="path3689"
       style="opacity:0.6;fill:none;stroke:#e20000;stroke-opacity:1" />
    <path
       d="M 370.25845,308.97034 C 371.37161,308.66443 377.3941,309.35932 378.17206,308.97034 378.35744,308.87764 378.42634,308.62338 378.61171,308.5307 379.42436,308.12437 382.63516,308.93702 383.44781,308.5307 383.63318,308.438 383.70208,308.18374 383.88745,308.09105 384.37694,307.8463 389.02894,308.09105 390.04248,308.09105 390.87063,308.09105 395.36259,307.89341 395.75787,308.09105 395.94324,308.18375 396.01214,308.43801 396.19751,308.5307 397.01819,308.94103 398.45436,308.12036 399.27503,308.5307 399.4604,308.6234 399.5293,308.87766 399.71468,308.97034 400.27289,309.24945 401.32859,308.77557 401.9129,308.97034 402.10952,309.03584 402.16718,309.3173 402.35255,309.40999 402.8215,309.64446 403.64217,309.17551 404.11113,309.40999 404.2965,309.50269 404.3654,309.75695 404.55077,309.84963 404.90249,310.02549 405.51799,309.67377 405.86971,309.84963 406.05508,309.94233 406.12398,310.19659 406.30935,310.28928 406.77831,310.52375 407.59898,310.0548 408.06793,310.28928 408.2533,310.38198 408.32221,310.63624 408.50758,310.72892 408.85929,310.90478 409.4748,310.55306 409.82651,310.72892 410.01188,310.82162 410.08079,311.07588 410.26616,311.16857 410.61787,311.34443 411.23338,310.99271 411.58509,311.16857 411.77046,311.26127 411.83937,311.51553 412.02474,311.60821 412.37645,311.78407 412.99196,311.43235 413.34367,311.60821 413.52904,311.70091 413.59795,311.95517 413.78332,312.04786 414.04877,312.18058 414.89902,311.84463 415.10225,312.04786 415.20588,312.15148 414.99863,312.38388 415.10225,312.4875 415.30951,312.69475 415.77429,312.28025 415.98154,312.4875 416.08517,312.59113 415.87792,312.82352 415.98154,312.92715 416.08517,313.03077 416.29011,312.86165 416.42119,312.92715 417.87931,314.38527 416.00669,312.7199 417.30048,313.36679 417.67122,313.55216 417.80903,314.06071 418.17977,314.24608 418.31085,314.31158 418.48834,314.18058 418.61942,314.24608 419.13155,314.50215 419.42622,314.86931 419.93835,315.12537 420.06943,315.19087 420.24692,315.05987 420.378,315.12537 420.56337,315.21807 420.63227,315.47233 420.81764,315.56502 420.94872,315.63052 421.12621,315.49952 421.25729,315.56502 421.44266,315.65772 421.51156,315.91198 421.69693,316.00466 421.82801,316.07016 422.0055,315.93916 422.13658,316.00466 422.32195,316.09736 422.39085,316.35162 422.57622,316.44431 422.92794,316.62017 423.54344,316.26845 423.89516,316.44431 424.40729,316.70037 424.70196,317.06753 425.21409,317.3236 425.56581,317.49946 426.18131,317.14774 426.53303,317.3236 426.7184,317.4163 426.7873,317.67056 426.97267,317.76324 427.23483,317.89432 427.58981,317.63217 427.85196,317.76324 428.03733,317.85594 428.10624,318.1102 428.29161,318.20289 428.76056,318.43737 429.58123,317.96841 430.05019,318.20289 430.23556,318.29559 430.30446,318.54985 430.48983,318.64253 430.84155,318.81839 431.45705,318.46668 431.80877,318.64253 431.99414,318.73523 432.0518,319.01664 432.24841,319.08218 432.67062,319.22292 433.58504,318.8712 434.00699,319.08218 434.19237,319.17488 434.26127,319.42914 434.44664,319.52182 434.83987,319.71844 435.34849,319.3828 435.76558,319.52182 435.96219,319.58732 436.01985,319.86878 436.20522,319.96147 436.62717,320.17245 437.54159,319.82073 437.9638,319.96147 438.16042,320.02697 438.21808,320.30843 438.40345,320.40111 438.6656,320.53219 439.00468,320.30841 439.28274,320.40111 439.59361,320.50474 439.85115,320.73713 440.16203,320.84076 440.5328,320.96435 441.13377,320.66717 441.48096,320.84076 441.66633,320.93346 441.73524,321.18772 441.92061,321.2804 442.05168,321.3459 442.22122,321.2341 442.36025,321.2804 442.67113,321.38403 442.92867,321.61642 443.23954,321.72005 443.63522,321.85194 444.1628,321.58816 444.55848,321.72005 444.86935,321.82368 445.12689,322.05607 445.43777,322.1597 445.71582,322.2524 446.0549,322.02862 446.31706,322.1597 446.50243,322.2524 446.57133,322.50665 446.7567,322.59934 447.01886,322.73042 447.37384,322.46826 447.63599,322.59934 449.09411,324.05746 447.22149,322.39209 448.51528,323.03899 448.70065,323.13169 448.76956,323.38595 448.95493,323.47863 449.08601,323.54413 449.25555,323.43233 449.39457,323.47863 449.70545,323.58226 449.96299,323.81465 450.27386,323.91828 450.55192,324.01098 450.9459,323.71102 451.15315,323.91828 451.25678,324.0219 451.04953,324.2543 451.15315,324.35792 451.25678,324.46155 451.46172,324.29242 451.5928,324.35792 451.77817,324.45062 451.84707,324.70488 452.03244,324.79757 452.2946,324.92864 452.64958,324.66649 452.91174,324.79757 453.09711,324.89027 453.16601,325.14453 453.35138,325.23721 453.48246,325.30271 453.64448,325.23721 453.79103,325.23721 454.08412,325.38376 454.39766,325.49509 454.67032,325.67686 454.84964,325.7964 455.82574,326.47439 455.98925,326.55615 456.12033,326.62165 456.29782,326.49065 456.4289,326.55615 456.61427,326.64885 456.68317,326.90311 456.86854,326.99579 456.99962,327.06129 457.17711,326.93029 457.30819,326.99579 457.49356,327.08849 457.56246,327.34275 457.74783,327.43544 458.00999,327.56651 458.36497,327.30436 458.62712,327.43544 460.6392,328.44148 456.76152,327.25322 459.94606,328.31473 460.08509,328.36103 460.28208,328.2111 460.3857,328.31473 460.48933,328.41835 460.28208,328.65075 460.3857,328.75437 460.59295,328.96162 461.05774,328.54712 461.26499,328.75437 461.36862,328.858 461.16137,329.09039 461.26499,329.19402 461.36862,329.29764 461.57356,329.12852 461.70464,329.19402 461.89001,329.28672 461.95891,329.54098 462.14428,329.63366 462.27536,329.69916 462.45285,329.56816 462.58393,329.63366 463.09606,329.88973 463.39073,330.25689 463.90286,330.51295 464.03394,330.57845 464.21143,330.44745 464.34251,330.51295 464.52788,330.60565 464.59678,330.85991 464.78215,330.9526 464.91323,331.0181 465.09072,330.8871 465.2218,330.9526 465.40717,331.0453 465.47607,331.29956 465.66144,331.39224 465.79252,331.45774 465.97001,331.32674 466.10109,331.39224 466.28646,331.48494 466.35536,331.7392 466.54073,331.83189 466.67181,331.89739 466.8493,331.76639 466.98038,331.83189 467.35112,332.01726 467.48893,332.52581 467.85967,332.71118 467.99075,332.77668 468.16824,332.64568 468.29931,332.71118 469.75743,334.1693 467.88481,332.50393 469.1786,333.15082 469.54935,333.33619 469.68715,333.84474 470.05789,334.03011 470.18897,334.09561 470.36646,333.96461 470.49754,334.03011 470.68291,334.12281 470.75181,334.37707 470.93719,334.46976 471.06826,334.53526 471.24575,334.40426 471.37683,334.46976 471.61026,334.58648 472.02269,335.23233 472.25612,335.34905 472.3872,335.41455 472.56469,335.28355 472.69577,335.34905 472.88114,335.44175 472.95004,335.69601 473.13541,335.78869 473.26649,335.85419 473.47143,335.68507 473.57506,335.78869 473.67868,335.89232 473.47143,336.12471 473.57506,336.22834 473.67868,336.33196 473.88362,336.16284 474.0147,336.22834 474.20007,336.32104 474.26898,336.5753 474.45435,336.66798 474.58542,336.73348 474.76291,336.60248 474.89399,336.66798 475.26473,336.85335 475.40254,337.3619 475.77328,337.54727 475.90436,337.61277 476.08185,337.48177 476.21293,337.54727 476.3983,337.63997 476.4672,337.89423 476.65257,337.98692 476.78365,338.05242 476.96114,337.92142 477.09222,337.98692 477.61979,338.25071 477.88358,339.04207 478.41115,339.30585 478.54223,339.37135 478.74717,339.20223 478.8508,339.30585 478.95442,339.40948 478.74717,339.64187 478.8508,339.7455 478.95442,339.84913 479.18682,339.64187 479.29044,339.7455 479.39407,339.84913 479.18682,340.08152 479.29044,340.18515 479.39407,340.28877 479.59901,340.11965 479.73009,340.18515 480.19696,340.41858 480.14251,340.831 480.60938,341.06444 480.74045,341.12994 480.91795,340.99894 481.04902,341.06444 481.23439,341.15714 481.3033,341.4114 481.48867,341.50408 481.61974,341.56958 481.82469,341.40046 481.92831,341.50408 482.03194,341.60771 481.82469,341.8401 481.92831,341.94373 482.03194,342.04735 482.23688,341.87823 482.36796,341.94373 482.7387,342.1291 482.87651,342.63765 483.24725,342.82302 483.37833,342.88852 483.58327,342.71939 483.68689,342.82302 483.79052,342.92664 483.58327,343.15904 483.68689,343.26266 483.79052,343.36629 484.02291,343.15904 484.12654,343.26266 484.23016,343.36629 484.02291,343.59868 484.12654,343.70231 484.23016,343.80593 484.46256,343.59868 484.56618,343.70231 484.56618,344.87469 484.41964,343.55576 485.00583,344.14195 485.10945,344.24558 484.9022,344.47797 485.00583,344.5816 485.21308,344.78885 485.67787,344.37435 485.88512,344.5816 485.98874,344.68522 485.78149,344.91762 485.88512,345.02124 485.98874,345.12487 486.22114,344.91762 486.32476,345.02124 486.42839,345.12487 486.22114,345.35726 486.32476,345.46089 486.42839,345.56451 486.66078,345.35726 486.76441,345.46089 486.86803,345.56451 486.66078,345.79691 486.76441,345.90053 486.86803,346.00416 487.10043,345.79691 487.20405,345.90053 487.30768,346.00416 487.10043,346.23655 487.20405,346.34018 487.30768,346.4438 487.54007,346.23655 487.6437,346.34018 487.74733,346.4438 487.54007,346.6762 487.6437,346.77982 487.74733,346.88345 487.97972,346.6762 488.08334,346.77982 488.18697,346.88345 487.97972,347.11584 488.08334,347.21947 488.18697,347.32309 488.41936,347.11584 488.52299,347.21947 488.62662,347.32309 488.41936,347.55549 488.52299,347.65911 488.62662,347.76274 488.85901,347.55549 488.96264,347.65911 489.06626,347.76274 488.85901,347.99513 488.96264,348.09876 489.15803,348.29416 489.79308,347.75681 489.40228,348.5384 489.06706,349.20885 488.24695,348.97805 487.6437,348.97805 486.3717,348.97805 487.18639,348.96035 486.76441,348.5384 486.4135,348.18749 485.02743,348.76903 484.56618,348.5384 484.05405,348.28234 483.75938,347.91518 483.24725,347.65911 482.77829,347.42463 481.95762,347.89359 481.48867,347.65911 481.3033,347.56641 481.23439,347.31215 481.04902,347.21947 480.69731,347.04361 480.0818,347.39533 479.73009,347.21947 478.64355,346.6762 479.88184,346.77982 478.8508,346.77982 477.82692,346.77982 478.33354,346.74102 477.53186,346.34018 477.40079,346.27468 477.22329,346.40568 477.09222,346.34018 476.90685,346.24748 476.83794,345.99322 476.65257,345.90053 476.39042,345.76945 476.03544,346.03161 475.77328,345.90053 475.58791,345.80783 475.51901,345.55357 475.33364,345.46089 474.98192,345.28503 474.36642,345.63674 474.0147,345.46089 473.82933,345.36819 473.76043,345.11393 473.57506,345.02124 473.18183,344.82463 472.6732,345.16027 472.25612,345.02124 472.05951,344.95574 472.00185,344.67428 471.81648,344.5816 471.55432,344.45052 471.19934,344.71267 470.93719,344.5816 470.75181,344.4889 470.68291,344.23464 470.49754,344.14195 470.02859,343.90747 469.20791,344.37643 468.73896,344.14195 468.55359,344.04925 468.48469,343.79499 468.29931,343.70231 468.03716,343.57123 467.68218,343.83338 467.42002,343.70231 467.23465,343.60961 467.16575,343.35535 466.98038,343.26266 466.71823,343.13158 466.36324,343.39374 466.10109,343.26266 465.91572,343.16996 465.84681,342.9157 465.66144,342.82302 465.39929,342.69194 465.04431,342.95409 464.78215,342.82302 464.59678,342.73032 464.52788,342.47606 464.34251,342.38337 464.08035,342.25229 463.72537,342.51445 463.46322,342.38337 463.27785,342.29067 463.20894,342.03641 463.02357,341.94373 462.76142,341.81265 462.40644,342.0748 462.14428,341.94373 461.95891,341.85103 461.90125,341.56962 461.70464,341.50408 461.28755,341.36505 460.77893,341.7007 460.3857,341.50408 459.87357,341.24802 459.5789,340.88086 459.06677,340.62479 458.64481,340.41381 457.7304,340.76553 457.30819,340.62479 457.11157,340.55929 457.05391,340.27783 456.86854,340.18515 456.52135,340.01155 455.92038,340.30874 455.54961,340.18515 455.23873,340.08152 454.98119,339.84913 454.67032,339.7455 454.53129,339.6992 454.37722,339.7455 454.23067,339.7455 453.93757,339.7455 453.62944,339.8382 453.35138,339.7455 453.24689,339.7107 452.13694,338.90104 452.03244,338.86621 451.61536,338.72718 451.10674,339.06282 450.71351,338.86621 450.52814,338.77351 450.45924,338.51925 450.27386,338.42656 449.80491,338.19209 448.98424,338.66104 448.51528,338.42656 448.32991,338.33386 448.27225,338.05246 448.07564,337.98692 447.67996,337.85503 447.15238,338.11881 446.7567,337.98692 446.44583,337.88329 446.18829,337.6509 445.87741,337.54727 445.48173,337.41538 444.95416,337.67917 444.55848,337.54727 444.36186,337.48177 444.3042,337.20031 444.11883,337.10763 443.7256,336.91101 443.21698,337.24666 442.7999,337.10763 442.60328,337.04213 442.54562,336.76067 442.36025,336.66798 441.8913,336.43351 441.07063,336.90246 440.60167,336.66798 440.4163,336.57528 440.3474,336.32102 440.16203,336.22834 439.69307,335.99386 438.8724,336.46282 438.40345,336.22834 438.21808,336.13564 438.16042,335.85423 437.9638,335.78869 435.96241,335.78869 437.9387,335.99594 436.64487,335.34905 435.82419,334.93871 434.38802,335.75938 433.56735,335.34905 433.38198,335.25635 433.31308,335.00209 433.1277,334.9094 433.1227,334.9074 428.41611,334.8471 428.29161,334.9094 428.10624,335.0021 428.03733,335.25636 427.85196,335.34905 427.58981,335.48013 427.23483,335.21797 426.97267,335.34905 426.7873,335.44175 426.7184,335.69601 426.53303,335.78869 426.27087,335.91977 425.91589,335.65762 425.65374,335.78869 425.14161,336.04476 424.84693,336.41192 424.3348,336.66798 423.86585,336.90246 423.04518,336.43351 422.57622,336.66798 422.39085,336.76068 422.32195,337.01494 422.13658,337.10763 421.29184,337.53 417.11637,336.72936 415.98154,337.10763 415.67067,337.21125 415.41313,337.44365 415.10225,337.54727 414.35321,337.79695 413.16456,337.19719 412.46438,337.54727 412.27901,337.63997 412.22135,337.92138 412.02474,337.98692 411.85908,338.04212 410.33686,338.05762 410.26616,337.98692 410.16253,337.88329 410.36978,337.6509 410.26616,337.54727 410.06293,337.34404 409.21267,337.68 408.94722,337.54727 408.76185,337.45457 408.69295,337.20031 408.50758,337.10763 407.70374,336.70571 406.28457,337.39246 405.43006,337.10763 405.23345,337.04213 405.18703,336.73352 404.99042,336.66798 404.19906,336.4042 403.14391,336.93177 402.35255,336.66798 402.04167,336.56436 401.78413,336.33196 401.47326,336.22834 401.1952,336.13564 400.87202,336.32104 400.59397,336.22834 400.28309,336.12471 400.03258,335.86817 399.71468,335.78869 398.61125,335.51284 397.30094,336.06455 396.19751,335.78869 395.87961,335.70919 395.6291,335.45267 395.31822,335.34905 393.99929,334.9094 392.24071,335.78869 390.92177,335.34905 390.6109,335.24542 390.36039,334.98888 390.04248,334.9094 388.95752,334.63816 385.02865,335.26018 384.3271,334.9094 384.14173,334.8167 384.08407,334.5353 383.88745,334.46976 383.09609,334.20597 382.04094,334.73355 381.24958,334.46976 380.9387,334.36613 380.68117,334.13374 380.37029,334.03011 379.78559,333.83521 375.77781,334.27373 375.53419,334.03011 375.43057,333.92649 375.63782,333.69409 375.53419,333.59047 375.36665,333.42293 369.10706,333.75801 368.93952,333.59047 368.79894,333.44989 369.49038,333.26204 368.49987,332.27153"
       inkscape:connector-curvature="0"
       id="path3691"
       style="opacity:0.6;fill:none;stroke:#e20000;stroke-opacity:1" />
    <path
       d="M 488.08334,348.97805 C 488.37644,349.56424 488.5694,350.21232 488.96264,350.73663 489.13849,350.97111 489.63467,350.52938 489.84193,350.73663 489.94555,350.84025 489.7383,351.07265 489.84193,351.17627 489.94555,351.2799 490.15049,351.11077 490.28157,351.17627 490.65231,351.36164 490.79012,351.87019 491.16086,352.05556 491.29194,352.12106 491.46943,351.99006 491.60051,352.05556 491.78588,352.14826 491.85478,352.40252 492.04015,352.49521 492.17123,352.56071 492.34872,352.42971 492.4798,352.49521 492.85054,352.68058 492.98835,353.18913 493.35909,353.3745 493.49016,353.44 493.69511,353.27087 493.79873,353.3745 493.90236,353.47812 493.69511,353.71052 493.79873,353.81414 494.00598,354.02139 494.41587,353.68307 494.67802,353.81414 494.86339,353.90684 494.9323,354.1611 495.11767,354.25379 495.24874,354.31929 495.41076,354.25379 495.55731,354.25379 495.70386,354.40034 495.81159,354.60075 495.99696,354.69343 496.12803,354.75893 496.30553,354.62793 496.4366,354.69343 496.94873,354.9495 497.24341,355.31666 497.75554,355.57272 497.88661,355.63822 498.06411,355.50722 498.19518,355.57272 498.38055,355.66542 498.44946,355.91968 498.63483,356.01237 498.7659,356.07787 498.9434,355.94687 499.07447,356.01237 499.25984,356.10507 499.32875,356.35933 499.51412,356.45201 499.6452,356.51751 499.82269,356.38651 499.95376,356.45201 500.46589,356.70808 500.76057,357.07524 501.2727,357.3313 501.40378,357.3968 501.58127,357.2658 501.71234,357.3313 502.22447,357.58737 502.51915,357.95453 503.03128,358.2106 503.29343,358.34167 503.64842,358.07952 503.91057,358.2106 504.11799,358.31431 505.03916,359.02644 505.2295,359.08989 505.50756,359.18259 505.83074,358.99719 506.10879,359.08989 506.29914,359.15329 507.22031,359.86546 507.42773,359.96918 507.77945,360.14503 508.39495,359.79332 508.74667,359.96918 508.93204,360.06188 509.00094,360.31614 509.18631,360.40882 509.65527,360.6433 510.47594,360.17434 510.94489,360.40882 511.13026,360.50152 511.19917,360.75578 511.38454,360.84847 511.80649,361.05944 512.72091,360.70773 513.14312,360.84847 513.33973,360.91397 513.39739,361.19543 513.58276,361.28811 514.04864,361.52105 514.84319,361.12206 515.34134,361.28811 515.65222,361.39174 515.90976,361.62413 516.22063,361.72776 516.84444,361.93569 517.83567,361.43616 518.41886,361.72776 518.60423,361.82046 518.67313,362.07472 518.8585,362.1674 519.21022,362.34326 519.82572,361.99154 520.17744,362.1674 520.36281,362.2601 520.43171,362.51436 520.61708,362.60705 521.08604,362.84152 521.90671,362.37257 522.37566,362.60705 523.17734,363.00789 522.67073,363.04669 523.6946,363.04669 524.9666,363.04669 524.15191,363.06439 524.57389,363.48634 524.85276,363.76521 525.96643,363.30331 526.33247,363.48634 526.51784,363.57904 526.58675,363.8333 526.77212,363.92598 527.03427,364.05706 527.44416,363.71873 527.65141,363.92598 527.75503,364.02961 527.54778,364.262 527.65141,364.36563 527.87123,364.58545 528.75052,364.1458 528.97034,364.36563 529.07397,364.46925 528.86672,364.70165 528.97034,364.80527 529.33671,365.17164 530.8022,364.4389 531.16857,364.80527 531.27219,364.9089 531.06494,365.14129 531.16857,365.24492 531.38839,365.46474 532.26768,365.02509 532.4875,365.24492 532.59113,365.34854 532.38388,365.58094 532.4875,365.68456 532.59113,365.78819 532.7806,365.68456 532.92715,365.68456 533.0737,365.68456 533.36679,365.83111 533.36679,365.68456 533.36679,365.53801 532.4875,366.05093 532.4875,365.24492"
       inkscape:connector-curvature="0"
       id="path3693"
       style="opacity:0.6;fill:none;stroke:#e20000;stroke-opacity:1" />
    <path
       d="M 418.61942,157.29278 C 403.24449,145.69016 387.11558,129.8801 368.49987,124.75903"
       inkscape:connector-curvature="0"
       id="path3695"
       style="opacity:0.6;fill:none;stroke:#e20000;stroke-opacity:1" />
    <path
       d="M 420.378,153.77561 374.65491,78.156652"
       inkscape:connector-curvature="0"
       id="path3697"
       style="opacity:0.6;fill:none;stroke:#e20000;stroke-opacity:1" />
    <path
       d="M 426.53303,149.37916 C 431.76373,122.6961 424.77838,92.739198 425.65374,64.967299"
       inkscape:connector-curvature="0"
       id="path3699"
       style="opacity:0.6;fill:none;stroke:#e20000;stroke-opacity:1" />
    <path
       d="M 467.42003,159.93065 491.60051,76.837717"
       inkscape:connector-curvature="0"
       id="path3701"
       style="fill:none;stroke:#0000e9;stroke-width:1;stroke-miterlimit:4;stroke-opacity:1;stroke-dasharray:none;stroke-dashoffset:0" />
    <path
       d="M 521.93602,179.71468 554.46976,96.182102"
       inkscape:connector-curvature="0"
       id="path3703"
       style="fill:none;stroke:#0000e9;stroke-width:1;stroke-miterlimit:4;stroke-opacity:1;stroke-dasharray:none;stroke-dashoffset:0" />
    <path
       d="M 490.28157,167.84426 525.01353,86.509909"
       inkscape:connector-curvature="0"
       id="path3705"
       style="fill:none;stroke:#0000e9;stroke-width:1;stroke-miterlimit:4;stroke-opacity:1;stroke-dasharray:none;stroke-dashoffset:0" />
    <path
       d="M 580.40882,232.91174 657.34672,213.12771"
       inkscape:connector-curvature="0"
       id="path3707"
       style="fill:none;stroke:#0000e9;stroke-width:1;stroke-miterlimit:4;stroke-opacity:1;stroke-dasharray:none;stroke-dashoffset:0" />
    <path
       d="M 590.52066,260.60938 C 592.52647,274.56235 595.29377,288.90178 592.23722,302.91738 590.56444,310.78726 586.55397,317.92639 581.82689,324.35298 580.85321,325.78049 579.91149,327.23296 579.08989,328.75437"
       inkscape:connector-curvature="0"
       id="path3709"
       style="fill:none;stroke:#0000e9;stroke-width:1;stroke-miterlimit:4;stroke-opacity:1;stroke-dasharray:none;stroke-dashoffset:0" />
    <path
       d="M 634.28695,339.21947 580.65024,321.19402"
       inkscape:connector-curvature="0"
       id="path3711"
       style="fill:none;stroke:#0000e9;stroke-width:1;stroke-miterlimit:4;stroke-opacity:1;stroke-dasharray:none;stroke-dashoffset:0" />
    <path
       d="M 593.59818,269.84192 663.94139,271.60051"
       inkscape:connector-curvature="0"
       id="path3713"
       style="fill:none;stroke:#0000e9;stroke-width:1;stroke-miterlimit:4;stroke-opacity:1;stroke-dasharray:none;stroke-dashoffset:0" />
    <path
       d="M 603.71001,327.43543 C 604.41198,334.80116 592.49663,349.44243 585.9952,353.48735 574.70148,367.91859 551.38779,376.6736 540.64076,385.36059 538.44724,390.48524 537.97566,396.89759 542.04365,401.26233 543.70083,403.07638 547.26866,408.89552 547.43544,408.76978"
       inkscape:connector-curvature="0"
       id="path3715"
       style="fill:none;stroke:#0000e9;stroke-width:1;stroke-miterlimit:4;stroke-opacity:1;stroke-dasharray:none;stroke-dashoffset:0" />
    <path
       d="M 459.50641,434.70885 C 457.83824,433.7682 458.88841,431.34641 458.0597,429.76078 458.25943,427.21693 457.64166,424.27511 459.50641,422.83843 459.97447,421.9229 461.05062,420.52658 461.70464,419.98074 462.87195,419.21383 464.11305,417.9802 465.88126,417.56269 468.40707,416.70317 471.08789,416.07268 473.99283,416.16992 476.94205,415.722 479.48412,416.71917 482.14813,417.12304 484.49256,417.24882 486.73688,418.39378 489.08491,418.40488 491.90606,419.46087 495.1283,418.76494 498.1204,418.94373 500.60632,418.24474 503.16598,418.60686 505.44933,417.7825 507.14266,417.28165 508.906,416.98242 510.50525,416.24375 512.3239,416.28515 513.95815,414.98878 516.00081,414.70499 517.37473,413.85861 518.99657,413.56421 520.17744,412.28695 521.49024,411.74036 523.00896,410.56769 523.6946,409.8689 524.43859,409.24244 524.94432,408.33502 525.89283,407.89049 526.29639,407.28157 526.54894,406.04883 527.21176,406.57156 527.61535,405.96263 527.86783,404.7299 528.5307,405.25262 528.92107,404.17468 530.02996,403.73884 531.43225,403.05363 530.48017,402.45361 534.09247,401.78793 533.9944,400.78717 535.75039,400.78517 536.49956,398.69755 538.20289,399.09759 538.32536,398.43349 541.98134,398.29421 539.26579,398.13087 538.9668,398.12787 539.04048,398.4912 539.08218,398.65795"
       inkscape:connector-curvature="0"
       id="path3717"
       style="fill:none;stroke:#0000e9;stroke-width:1;stroke-miterlimit:4;stroke-opacity:1;stroke-dasharray:none;stroke-dashoffset:0" />
    <path
       d="M 482.8076,398.65795 C 491.78745,398.43169 501.06803,398.84035 509.74004,396.16596 515.50629,393.96677 521.34279,391.74886 527.12287,389.75475 527.62199,388.6794 535.54773,398.25877 532.48778,400.85602"
       inkscape:connector-curvature="0"
       id="path3719"
       style="fill:none;stroke:#0000e9;stroke-width:1;stroke-miterlimit:4;stroke-opacity:1;stroke-dasharray:none;stroke-dashoffset:0" />
    <path
       d="M 469.1786,415.80411 C 469.66405,415.97955 470.9318,415.71801 469.93506,415.20037 472.07457,414.93576 474.39532,413.5892 476.30615,412.34809 478.25247,411.01309 479.7772,409.04578 480.26394,406.71324 481.30465,403.82594 483.1747,400.65831 481.83787,397.55157 479.85933,394.14699 475.68576,393.45456 472.47178,391.72095 468.703,390.39229 464.91222,392.32394 461.18471,392.82151 458.79272,393.0585 456.36833,392.78161 453.98388,393.19459 450.35155,393.69214 446.6459,394.94305 443.95428,397.51601 441.46784,400.36582 441.84615,404.56536 443.08863,407.87649 443.60638,409.52131 444.51565,410.95866 445.80331,412.10703 447.72728,414.32692 450.21164,416.89737 453.44312,416.4162 457.58091,415.98493 461.73665,418.08371 465.8348,416.73174 466.9585,416.45682 468.06547,416.11445 469.1786,415.80411 z"
       inkscape:connector-curvature="0"
       id="path3721"
       style="fill:none;stroke:#0000e9;stroke-width:1;stroke-miterlimit:4;stroke-opacity:1;stroke-dasharray:none;stroke-dashoffset:0" />
    <path
       d="M 469.68848,391.6671 C 473.81099,392.16448 477.9098,394.12555 480.96812,396.9291 483.22485,400.61671 480.53409,405.00367 479.18206,408.53848 477.16135,412.54351 472.44522,414.13148 468.50693,415.54533 463.20876,418.07115 457.17438,416.23957 451.62181,415.77889 448.0865,414.90248 445.66588,411.64462 443.83185,408.70335 441.81614,404.6997 441.74856,398.61965 446.23616,396.24216 452.5762,392.11645 460.65367,393.79238 467.60016,391.72206 468.29214,391.65376 468.99467,391.59696 469.68848,391.66706 z"
       inkscape:connector-curvature="0"
       id="path3723"
       style="fill:#a4a7da;stroke:none" />
    <path
       d="M 539.20461,399.12733 C 542.22082,400.47519 543.40329,404.13382 545.45582,406.54634 546.61961,407.74285 546.29603,409.37977 545.00243,410.32454 541.82989,414.24571 545.17762,419.52439 543.40872,423.78867 541.14328,426.80608 536.67402,426.23596 533.89613,428.64617 526.85489,432.87744 520.79414,438.93434 513.08695,441.9103 504.06319,444.29216 494.54347,444.03423 485.44426,442.17133 476.12419,440.81952 466.65652,438.19793 458.72844,433.1206 458.09703,428.9818 457.74796,424.0543 461.22256,420.98594 466.5183,415.82855 474.78796,415.82931 481.61716,417.2621 490.66539,419.40068 500.27527,419.85622 509.19542,416.9762 515.7885,415.2828 522.44399,412.42887 526.78464,407.08216 530.23598,403.89132 534.12251,400.81275 538.51767,399.11359 538.7456,399.09769 538.97922,399.07939 539.20461,399.12729 z"
       inkscape:connector-curvature="0"
       id="path3727"
       style="fill:#c7a1db;stroke:none" />
    <path
       d="M 374.61247,78.584819 C 389.13303,102.74207 403.96111,126.75413 418.25774,151.02172 419.44695,152.52476 419.37261,155.57016 417.49161,156.09975 402.41849,144.44057 387.94431,130.94058 369.58403,124.7613 367.70008,123.73577 368.90945,120.83767 368.35615,119.10378 367.99577,107.86755 367.19382,96.590244 367.79797,85.358101 367.95152,82.531422 371.25823,81.82619 372.63288,79.703251 373.19713,79.395199 373.84924,77.783662 374.61247,78.584819 z"
       inkscape:connector-curvature="0"
       id="path3743"
       style="fill:#746bdb;stroke:none" />
    <path
       d="M 369.73516,125.47572 C 385.92332,130.53896 398.84157,142.21834 412.0238,152.41634 413.84373,154.19255 416.55721,155.41402 417.80761,157.56981 417.38413,160.85709 415.30232,163.92788 412.44943,165.59334 408.7312,169.02137 404.68023,172.05264 399.83951,173.70219 392.84499,176.65673 385.68221,179.19055 378.40441,181.33813 375.56167,182.02571 370.76903,181.91838 370.29845,178.21939 369.41405,160.79774 368.66721,143.34267 368.63605,125.90162 368.74991,125.37087 369.33206,125.38771 369.73516,125.47572 z"
       inkscape:connector-curvature="0"
       id="path3745"
       style="fill:#6a72bc;stroke:none" />
    <path
       d="M 584.80527,321.28041 C 604.20712,330.40983 630.16637,276.89267 594.03782,271.16087"
       inkscape:connector-curvature="0"
       id="path3747"
       style="fill:none;stroke:#0000e9;stroke-width:1;stroke-miterlimit:4;stroke-opacity:1;stroke-dasharray:none;stroke-dashoffset:0" />
    <path
       d="M 593.45755,271.24508 C 599.89976,272.46615 606.80531,275.44339 609.71068,281.74161 614.10731,291.14101 610.92096,302.37127 605.53908,310.6442 601.75422,316.15318 596.20776,321.8887 589.08857,322.13401 587.88044,321.66296 585.03875,322.03461 585.00812,320.30673 590.73129,311.3107 593.83367,300.70015 593.7412,289.985 593.96475,283.82473 592.79839,277.7261 592.53704,271.6023 592.69346,271.21419 593.11789,271.20156 593.45755,271.24508 z"
       inkscape:connector-curvature="0"
       id="path6025"
       style="fill:#c7afc8;stroke:none" />
    <path
       d="M 421.1304,64.680571 C 423.26168,64.669181 426.30579,64.618311 425.38007,67.674853 425.58451,88.65086 428.4185,109.52187 427.86917,130.51737 427.55746,136.38316 428.00623,142.4977 426.36492,148.17193 424.75275,149.46017 422.21265,148.96423 420.8831,150.8098 419.02982,152.48944 418.16787,149.07245 417.2835,148.00706 403.07353,124.78868 389.03626,101.46518 374.92644,78.185919 376.34374,75.587857 379.09387,73.538534 381.27382,71.398898 384.15237,68.607895 388.30363,68.576004 391.6467,66.672713 399.2074,64.457893 407.35797,65.168518 415.18145,64.708049 417.16415,64.686219 419.1477,64.641539 421.1304,64.680569 z"
       inkscape:connector-curvature="0"
       id="path6047"
       style="fill:#b1daa9;stroke:none" />
    <path
       d="M 429.23635,65.546122 C 442.88037,67.744987 456.67887,68.950452 470.28822,71.357681 477.15287,72.900507 484.08083,74.609407 490.66302,77.100546 491.13219,79.457996 489.37834,81.933237 489.06805,84.316466 481.97762,109.24422 474.65373,134.10475 467.44426,158.99819 465.62473,159.75471 463.17806,158.41108 461.1825,158.09429 451.85396,154.96623 442.45079,151.84181 432.75351,150.15033 430.87938,149.45815 426.65557,149.66105 427.20299,146.56447 429.75105,130.11922 428.14516,113.39369 427.16089,96.880603 426.49156,86.3898 425.6442,75.780585 425.82909,65.3263 426.91607,65.102768 428.12219,65.518616 429.23634,65.546122 z"
       inkscape:connector-curvature="0"
       id="path6049"
       style="fill:#dbc198;stroke:none" />
    <path
       d="M 492.65516,77.663841 C 503.05433,80.357423 513.53776,82.971293 523.71884,86.37431 524.50061,88.119697 522.42086,90.136825 522.1526,91.938568 511.98162,116.5263 501.67412,141.05683 490.70213,165.30022 490.30736,166.77144 489.12897,168.16333 487.66794,166.95302 481.72653,164.17543 475.73571,161.42255 469.32649,159.98739 466.73648,159.1926 469.16493,156.19972 469.27039,154.52298 476.79042,129.1271 483.70787,103.53476 491.85829,78.337048 491.98951,78.00084 492.16717,77.540399 492.65514,77.663841 z"
       inkscape:connector-curvature="0"
       id="path6051"
       style="fill:#d7ab8f;stroke:none" />
    <path
       d="M 525.82089,86.992561 C 534.99025,89.631061 544.03987,93.073976 552.6942,97.049443 554.23989,98.135658 552.06487,100.14315 551.97358,101.58165 541.96275,127.46469 532.16224,153.47687 521.52061,179.08447 519.45128,179.54442 517.17255,177.80946 515.068,177.43023 507.07179,174.49543 498.65096,172.30403 491.15762,168.25821 490.42783,166.49535 492.51294,164.54971 492.85004,162.7557 503.53881,137.5216 514.15511,112.26797 525.05151,87.12995 525.25168,86.927019 525.56507,86.976711 525.82089,86.992561 z"
       inkscape:connector-curvature="0"
       id="path6053"
       style="fill:#736cd4;stroke:none" />
    <path
       d="M 554.59017,98.560723 C 560.79027,101.00742 566.60925,104.43811 572.80713,106.97061 584.73827,112.01367 595.59036,119.19572 605.95757,126.84767 611.6911,131.52749 617.87513,135.85275 622.68117,141.48671 631.02972,153.06452 637.93104,165.5451 643.98926,178.45249 649.313,189.29402 653.62864,200.68566 656.60158,212.38759 655.89827,213.90124 653.31413,213.44599 651.91934,214.18156 628.16643,220.40033 604.42144,226.74216 580.55671,232.47388 578.62896,232.44008 578.8098,229.79974 577.59319,228.7191 571.63116,219.19113 564.91889,209.84394 557.19194,201.67636 549.80669,194.82034 540.82532,189.81102 532.30863,184.47182 529.26814,182.69307 525.93848,181.47217 522.79833,179.89507 522.42414,177.72729 524.36919,175.50921 524.80369,173.33379 534.36112,148.46859 543.89679,123.58625 553.80705,98.862979 553.95729,98.572293 554.30274,98.511498 554.59017,98.560723 z"
       inkscape:connector-curvature="0"
       id="path6055"
       style="fill:#bf9784;stroke:none" />
    <path
       d="M 656.68401,213.66531 C 658.70447,215.11581 658.62265,218.23839 659.52771,220.4247 662.91281,235.75042 663.6514,251.55416 664.10302,267.20584 664.09982,269.0259 664.18064,272.08149 661.45141,271.20387 638.47619,270.91724 615.51084,270.06569 592.53704,269.66511 591.1447,266.9524 591.27112,263.4184 591.32801,260.30891 589.64937,250.79114 583.91654,242.61878 580.63914,233.62795 582.02434,232.08575 585.01777,232.36861 586.96973,231.49262 610.19915,225.53754 633.43011,219.42897 656.68401,213.66531 z"
       inkscape:connector-curvature="0"
       id="path6057"
       style="fill:#e19179;stroke:none" />
    <path
       d="M 602.90992,270.2971 C 622.94901,270.69922 642.99486,271.17027 663.01765,272.0282 664.40412,273.06698 662.9127,275.34999 662.94296,276.78975 661.5131,283.80742 659.99019,290.97517 655.92565,297.02149 652.82425,303.15001 650.54255,309.74021 647.00966,315.74792 642.90579,323.52343 637.9291,330.86383 634.26211,338.7993 624.22759,335.5289 614.00887,332.46185 604.24259,328.42643 602.97798,327.5944 601.08126,328.07138 599.65379,327.25862 596.02935,326.07174 592.17809,325.12882 588.78632,323.5079 589.75029,321.95339 592.60898,322.4022 594.2544,321.40584 603.06698,317.80155 608.00955,308.76962 610.94718,300.15175 612.82309,292.58301 613.16684,283.23404 607.34758,277.2902 604.59158,274.50286 600.84732,273.08815 597.42809,271.36873 597.01053,269.6115 599.86504,270.54286 600.8216,270.26962 601.5177,270.27862 602.21381,270.28792 602.90992,270.29712 z"
       inkscape:connector-curvature="0"
       id="path6059"
       style="fill:#cda392;stroke:none" />
    <path
       d="M 605.10814,329.71788 C 614.53209,332.99968 624.25876,335.74234 633.49273,339.59616 634.24242,341.56863 632.39849,343.73827 631.91275,345.65502 627.97424,355.51923 619.90645,362.81071 612.74036,370.34421 604.37368,378.58307 596.43199,387.21263 587.51366,394.87572 583.28959,400.03795 575.95759,399.58875 569.9674,400.50032 562.22586,401.65277 554.09358,402.8065 547.54211,407.38394 545.58443,406.81813 544.87617,404.09258 543.42149,402.72913 540.46253,399.14365 538.17065,394.47444 539.62239,389.75251 540.05953,386.95228 541.48818,384.389 544.17093,383.19315 557.64321,374.46141 572.62852,367.69703 583.95454,356.12682 591.6067,348.8157 600.01033,341.44205 603.58312,331.11925 603.90513,330.56887 604.29466,329.53166 605.10814,329.71788 z"
       inkscape:connector-curvature="0"
       id="path6061"
       style="fill:#d5be93;stroke:none" />
    <path
       d="M 527.56767,390.21135 C 530.01939,391.74215 531.33687,394.617 532.46396,397.19635 532.91385,398.65808 533.15087,400.58344 532.32795,401.91778 531.11679,402.64423 529.9599,403.52545 528.85974,404.45336 524.30133,409.11207 519.34672,413.86663 512.81057,415.48268 506.92953,417.41085 500.84197,418.90691 494.60509,418.77309 488.21486,418.90757 482.18359,416.2839 475.81652,416.06264 474.8401,415.81964 470.93904,416.4543 472.44185,414.78859 475.69318,413.0173 479.31613,410.95556 480.35675,407.1063 481.44822,404.49664 482.15494,401.74272 482.64608,399.01303 492.35262,398.40354 502.45772,399.14607 511.67922,395.52728 516.94395,393.92338 521.99196,391.37893 527.37337,390.20164 527.43827,390.2022 527.50341,390.19764 527.56767,390.21164 z"
       inkscape:connector-curvature="0"
       id="path8942"
       style="fill:#aac7db;stroke:none" />
  </g>
</svg>
