<?xml version="1.0" encoding="UTF-8" standalone="no"?>
<!-- Created with Inkscape (http://www.inkscape.org/) -->

<svg
   xmlns:dc="http://purl.org/dc/elements/1.1/"
   xmlns:cc="http://creativecommons.org/ns#"
   xmlns:rdf="http://www.w3.org/1999/02/22-rdf-syntax-ns#"
   xmlns:svg="http://www.w3.org/2000/svg"
   xmlns="http://www.w3.org/2000/svg"
   xmlns:xlink="http://www.w3.org/1999/xlink"
   xmlns:inkscape="http://www.inkscape.org/namespaces/inkscape"
   version="1.1"
   width="740"
   height="520"
   id="svg2"
   style="enable-background:new">
  <defs
     id="defs4">
    <filter
       color-interpolation-filters="sRGB"
       id="filter3050">
      <feBlend
         in2="BackgroundImage"
         mode="lighten"
         id="feBlend3052" />
    </filter>
  </defs>
  <metadata
     id="metadata7">
    <rdf:RDF>
      <cc:Work
         rdf:about="">
        <dc:format>image/svg+xml</dc:format>
        <dc:type
           rdf:resource="http://purl.org/dc/dcmitype/StillImage" />
        <dc:title />
      </cc:Work>
    </rdf:RDF>
  </metadata>
  <g
     id="layer1"
     style="display:none">
    <image
       xlink:href="pngs/coronal-0508.png"
       id="MRISLICE"
       height="520"
       width="740"
       y="0"
       x="0" />
  </g>
  <g
     id="layer3"
     style="display:inline">
    <path
       d="M 343.143,222.79991 C 351.91447,227.67338 359.87735,234.16405 371.98515,232.36486 L 369.32074,387.5668 399.7866,401.24535 C 418.15034,401.57165 400.26244,422.55405 440.82223,430.4677 454.50239,433.16035 469.83013,434.20542 481.85787,438.55048 500.92712,445.78015 522.28097,427.87935 544.65483,398.75834 551.66175,387.5668 571.29991,376.37527 591.28624,365.18373 619.49244,345.85374 624.9671,311.36938 634.18714,279.38194 647.81102,227.14689 626.47373,154.07057 572.63368,125.18742 539.50525,105.10123 504.79515,94.505105 470.04458,84.151782 435.60945,74.607543 400.6886,62.343337 374.29476,97.830328 L 372.51531,201.48323 C 363.11971,209.44477 346.49046,199.06964 342.70336,197.74014 z"
       inkscape:connector-curvature="0"
       id="path2990"
       style="fill:none;stroke:#0000e9;stroke-width:1;stroke-miterlimit:4;stroke-opacity:1;stroke-dasharray:none;stroke-dashoffset:0" />
    <path
       d="M 372.4295,201.66293 C 384.69126,203.2717 401.64923,201.2288 419.42513,181.87354 425.62778,173.54343 429.96887,167.84284 434.92828,165.43863 442.22348,161.90206 449.68544,166.67307 457.95052,169.42203 482.70465,180.08086 503.41618,185.3829 532.12957,209.45158 541.44598,216.64661 547.46779,226.54996 553.24622,237.72455 560.13337,256.77869 560.82931,282.16871 551.71733,302.36711"
       inkscape:connector-curvature="0"
       id="path3048"
       style="fill:none;stroke:#0000e9;stroke-width:1;stroke-miterlimit:4;stroke-opacity:1;stroke-dasharray:none;stroke-dashoffset:0" />
    <path
       d="M 550.3125,298.17249 C 549.11987,307.56765 547.77962,314.48146 546.32001,324.04555 L 549.50858,324.60033 C 550.92797,315.2998 552.04544,308.3932 553.28125,298.65792 z"
       inkscape:connector-curvature="0"
       id="path3045"
       style="font-size:medium;font-style:normal;font-variant:normal;font-weight:normal;font-stretch:normal;text-indent:0;text-align:start;text-decoration:none;line-height:normal;letter-spacing:normal;word-spacing:normal;text-transform:none;direction:ltr;block-progression:tb;writing-mode:lr-tb;text-anchor:start;baseline-shift:baseline;color:#000000;fill:#73a0a6;fill-opacity:1;fill-rule:nonzero;stroke:none;stroke-width:3;marker:none;visibility:visible;display:inline;overflow:visible;enable-background:accumulate;font-family:Sans;-inkscape-font-specification:Sans" />
    <path
       d="M 550.47837,303.4808 C 554.28123,276.48109 554.67146,249.44912 537.19381,224.046 506.58193,195.45493 473.48643,191.70001 439.57873,196.06716 417.79389,214.66827 395.84686,231.4854 372.4295,232.12878"
       inkscape:connector-curvature="0"
       id="path2992"
       style="fill:none;stroke:#0000e9;stroke-width:1;stroke-miterlimit:4;stroke-opacity:1;stroke-dasharray:none;stroke-dashoffset:0" />
    <path
       d="M 427.14369,207.88045 C 422.30055,221.72262 420.48721,240.77237 420.61529,252.95747"
       inkscape:connector-curvature="0"
       id="path3040"
       style="fill:none;stroke:#0000e9;stroke-width:1;stroke-miterlimit:4;stroke-opacity:1;stroke-dasharray:none;stroke-dashoffset:0" />
    <path
       d="M 417.50654,248.44977 C 408.57442,241.39472 402.76368,234.82951 397.92134,225.91126"
       inkscape:connector-curvature="0"
       id="path2996"
       style="fill:none;stroke:#0000e9;stroke-width:1;stroke-miterlimit:4;stroke-opacity:1;stroke-dasharray:none;stroke-dashoffset:0" />
    <path
       d="M 438.76771,334.406 C 450.16715,344.17495 463.75438,337.20813 453.23987,323.32391 444.35897,312.02906 425.02964,322.38055 438.76771,334.406 z"
       inkscape:connector-curvature="0"
       id="path2998"
       style="fill:none;stroke:#0000e9;stroke-width:1;stroke-miterlimit:4;stroke-opacity:1;stroke-dasharray:none;stroke-dashoffset:0" />
    <path
       d="M 575.12069,372.64475 C 557.63589,378.61715 535.9234,386.3226 544.40376,398.02345"
       inkscape:connector-curvature="0"
       id="path3000"
       style="fill:none;stroke:#0000e9;stroke-width:1;stroke-miterlimit:4;stroke-opacity:1;stroke-dasharray:none;stroke-dashoffset:0" />
    <path
       d="M 547.5188,324.63608 C 547.14176,328.13701 543.10141,335.06073 541.12483,337.70871 536.61625,341.40644 530.79098,344.11148 528.32471,349.7358 521.49649,357.25679 514.52542,365.10132 515.37573,372.42073 514.08587,374.44865 512.9882,377.41676 515.24126,379.25499 517.46948,381.57409 520.81449,380.39411 523.50674,381.57713 529.76296,383.55547 534.64853,388.23147 538.88115,393.04985 540.78184,394.73884 542.73875,397.21183 544.99723,397.96526 L 544.65487,397.51479"
       inkscape:connector-curvature="0"
       id="path3002"
       style="fill:none;stroke:#0000e9;stroke-width:1;stroke-miterlimit:4;stroke-opacity:1;stroke-dasharray:none;stroke-dashoffset:0" />
    <path
       d="M 530.35454,347.77467 C 528.93274,348.10727 530.37944,345.83882 530.41064,346.62783 529.46174,345.60635 528.10921,344.01001 526.56631,344.82312 523.55695,347.14824 521.15376,350.14563 518.28628,352.63648 516.27625,354.5387 514.57924,356.76204 513.28225,359.20366 511.20092,362.32297 509.61356,365.93759 509.47643,369.72738 509.75331,371.70073 509.72197,373.6696 509.54793,375.64761 509.64283,377.10504 509.95367,379.36946 511.83863,379.29868 512.29039,379.30978 512.75864,379.66662 512.32305,380.10569"
       inkscape:connector-curvature="0"
       id="path3013"
       style="fill:none;stroke:#0000e9;stroke-width:1;stroke-miterlimit:4;stroke-opacity:1;stroke-dasharray:none;stroke-dashoffset:0" />
    <path
       d="M 521.65001,381.34928 C 495.43261,423.1067 450.37337,409.66256 419.68266,390.05381 L 409.11288,406.21937"
       inkscape:connector-curvature="0"
       id="path3015"
       style="fill:none;stroke:#0000e9;stroke-width:1;stroke-miterlimit:4;stroke-opacity:1;stroke-dasharray:none;stroke-dashoffset:0" />
    <path
       d="M 515.43249,357.10095 C 505.69171,358.59239 495.95092,348.2389 486.21014,340.31364 464.49349,303.52723 437.46761,302.16778 428.23176,299.43344"
       inkscape:connector-curvature="0"
       id="path3036"
       style="fill:none;stroke:#0000e9;stroke-width:1;stroke-miterlimit:4;stroke-opacity:1;stroke-dasharray:none;stroke-dashoffset:0" />
    <path
       d="M 426.52194,293.68224 C 410.42005,306.06635 371.80944,327.90922 419.06091,389.43206"
       inkscape:connector-curvature="0"
       id="path3070"
       style="fill:none;stroke:#0000e9;stroke-width:1;stroke-miterlimit:4;stroke-opacity:1;stroke-dasharray:none;stroke-dashoffset:0" />
    <path
       d="M 372.4295,356.4792 C 373.29217,353.33464 376.74085,351.79948 379.76329,351.6842 384.3425,350.59598 389.62795,352.42713 392.0541,356.57902 398.06322,364.1732 402.02119,373.08293 406.44366,381.62776 407.64093,384.45835 408.55989,387.48685 408.4834,390.58978 407.41317,392.85574 404.30974,392.23843 402.649,391.02419 398.11089,388.61536 392.9523,387.75689 388.35182,385.47936 383.62994,383.349 378.62147,381.09996 375.53902,376.72737 371.80739,371.27754 370.24315,364.35177 371.40158,357.83536 371.63111,357.31173 371.97358,356.82958 372.4295,356.4792 z"
       inkscape:connector-curvature="0"
       id="path3072"
       style="fill:none;stroke:#0000e9;stroke-width:1;stroke-miterlimit:4;stroke-opacity:1;stroke-dasharray:none;stroke-dashoffset:0" />
    <path
       d="M 406.00412,311.0913 C 403.56703,322.79718 408.56172,349.36662 397.29959,343.42241"
       inkscape:connector-curvature="0"
       id="path3099"
       style="fill:none;stroke:#0000e9;stroke-width:1;stroke-miterlimit:4;stroke-opacity:1;stroke-dasharray:none;stroke-dashoffset:0" />
    <path
       d="M 513.56723,377.61877 C 479.16361,417.7483 438.54248,393.39447 410.35638,376.99702"
       inkscape:connector-curvature="0"
       id="path3101"
       style="fill:none;stroke:#0000e9;stroke-width:1;stroke-miterlimit:4;stroke-opacity:1;stroke-dasharray:none;stroke-dashoffset:0" />
    <path
       d="M 489.94065,344.66591 C 496.1013,379.69077 464.68015,369.46078 450.77027,365.18373 426.14792,366.07942 408.04841,313.65649 428.09841,303.2973"
       inkscape:connector-curvature="0"
       id="path3103"
       style="fill:none;stroke:#0000e9;stroke-width:1;stroke-miterlimit:4;stroke-opacity:1;stroke-dasharray:none;stroke-dashoffset:0" />
    <path
       d="M 465.07057,367.67074 C 459.6112,377.03112 462.45715,388.46783 463.20531,399.38009"
       inkscape:connector-curvature="0"
       id="path3105"
       style="fill:none;stroke:#0000e9;stroke-width:1;stroke-miterlimit:4;stroke-opacity:1;stroke-dasharray:none;stroke-dashoffset:0" />
    <path
       d="M 381.87734,351.62168 C 378.68685,351.84564 374.99569,352.37307 373.21167,355.39105 370.38233,358.79727 371.16045,363.66736 371.90016,367.68037 373.18731,373.53519 376.53227,379.1372 381.97449,381.97096 388.98911,386.33326 397.11534,388.23389 404.58363,391.61179 406.148,392.39187 408.53572,391.59019 408.22408,389.54856 408.00354,383.94858 404.62779,379.15559 402.43402,374.16991 398.81148,367.26146 395.14038,360.16489 389.84354,354.38071 387.69568,352.40016 384.77855,351.46201 381.87734,351.62168 z"
       inkscape:connector-curvature="0"
       id="path3032"
       style="fill:#a4a7da;stroke:none" />
    <path
       d="M 527.6102,344.93785 C 524.77731,345.95118 522.99543,348.71857 520.72584,350.59303 518.86513,352.72484 516.22524,354.43158 515.12658,357.10087 514.98385,357.68759 514.04778,357.94153 513.85498,358.6604 511.44127,362.49106 509.32566,366.79773 509.80724,371.46916 510.12443,373.90477 509.14604,376.99645 511.00747,378.96906 512.45001,379.51704 513.40674,377.50619 513.8345,376.39462 514.19366,374.07462 515.41891,371.98171 515.27231,369.57477 516.71245,362.29245 522.11173,356.66244 526.74022,351.19798 527.74949,349.65775 529.65434,348.18833 529.54346,346.22021 529.17963,345.53374 528.45578,344.81768 527.6102,344.93785 z"
       inkscape:connector-curvature="0"
       id="path3034"
       style="fill:#a5c0bd;stroke:none" />
    <path
       d="M 574.76582,373.074 C 569.21138,374.58647 563.86745,376.84386 558.53477,378.99754 553.34963,381.35391 547.84278,383.87808 544.26544,388.47532 542.24254,391.02328 542.0753,395.07565 544.38909,397.4743 545.48529,397.78095 546.05657,396.22762 546.7934,395.64016 553.05735,388.30127 561.23891,382.99976 569.30671,377.82616 571.2967,376.46269 573.60427,375.4508 575.37033,373.8159 575.51717,373.36317 575.21098,373.04157 574.76582,373.074 z"
       inkscape:connector-curvature="0"
       id="path3037"
       style="fill:#6abbd5;stroke:none" />
    <path
       d="M 404.32778,314.21651 C 402.658,315.81542 401.70203,318.13647 400.55645,320.14485 397.73518,325.94778 396.2246,332.42145 396.55842,338.89159 396.74615,340.38756 396.07004,342.66686 397.7331,343.52161 399.43744,344.45595 401.91787,344.38717 402.9058,342.47058 404.76145,338.9599 404.62467,334.80579 404.90453,330.93046 405.06121,325.5014 405.37729,320.0547 405.11776,314.62868 405.05906,314.29392 404.66528,313.99408 404.32778,314.21651 z"
       inkscape:connector-curvature="0"
       id="path3039"
       style="fill:#6da591;stroke:none" />
    <path
       d="M 490.299,344.68941 C 489.96665,346.12025 490.66276,347.67761 490.60123,349.15413 490.93535,354.43302 490.95991,360.20659 487.58557,364.57648 484.44193,368.67106 479.08572,370.12494 474.13518,369.9484 471.0077,370.0138 467.91583,369.49934 464.83393,369.16528 463.6725,369.67712 463.71875,371.32549 463.20305,372.33612 460.8797,380.00608 462.39111,388.09187 463.01125,395.89288 463.30483,396.84115 462.88047,398.28673 463.79665,398.88941 467.72201,399.61754 471.77405,399.13456 475.74161,399.01055 487.08987,398.01426 497.73647,392.60626 506.07127,385.01998 507.826,383.34684 509.81166,381.76749 511.25771,379.84728 510.49311,378.90621 509.49445,377.87138 509.65026,376.54308 509.56016,373.43195 509.28869,370.23607 509.67746,367.16631 510.41178,363.86374 512.06593,360.84192 513.84751,357.98181 513.95969,356.70057 512.20339,357.43229 511.38824,357.15747 504.33988,355.84391 498.7472,350.94028 493.39027,346.54417 492.47695,345.89638 491.71401,344.94218 490.66996,344.52455 L 490.46909,344.61385 490.29901,344.68945 z"
       inkscape:connector-curvature="0"
       id="path3041"
       style="fill:#d87090;stroke:none" />
    <path
       d="M 522.05649,381.48908 C 519.99182,383.63149 518.60351,386.38484 516.61118,388.59487 509.69005,397.18644 500.25467,403.94672 489.58854,406.83722 476.51824,410.4587 462.43939,408.79015 449.71426,404.59793 439.47417,401.24732 429.75356,396.4829 420.60151,390.81093 419.48528,390.11458 418.99961,391.89854 418.37581,392.48021 415.28838,396.92239 412.34182,401.47065 409.43178,406.03365 409.63427,407.79717 410.76094,409.4205 411.34702,411.12038 412.93621,415.03649 415.19721,418.74826 418.60699,421.3759 425.57825,426.96187 434.54767,429.14851 443.15055,430.76092 456.26385,433.19306 469.75235,434.26421 482.39938,438.59005 485.54604,439.71234 488.85006,440.18479 492.18088,439.88077 500.16228,439.51064 507.38828,435.39242 513.72385,430.83925 525.16588,422.31816 534.56557,411.39212 543.32433,400.20148 544.03081,399.47427 544.9141,397.74624 543.42737,397.35065 537.88147,392.66027 533.39454,386.54163 526.86609,383.13893 525.38954,382.49365 523.92402,381.70525 522.3244,381.40665 L 522.1143,381.47125 522.0565,381.48905 z"
       inkscape:connector-curvature="0"
       id="path3043"
       style="fill:#c7a1db;stroke:none" />
    <path
       d="M 560.3277,265.22565 C 566.34092,261.35438 582.45138,279.48367 570.65936,304.13425 569.6142,308.1548 560.21343,320.10341 550.65551,318.42272"
       inkscape:connector-curvature="0"
       id="path3022"
       style="fill:none;stroke:#0000e9;stroke-width:1;stroke-miterlimit:4;stroke-opacity:1;stroke-dasharray:none;stroke-dashoffset:0" />
    <path
       d="M 561.86645,316.44431 C 568.99861,322.6808 564.54232,347.18329 540.32384,350.73663 537.82582,348.8315 534.76168,346.92638 531.0913,345.02125"
       inkscape:connector-curvature="0"
       id="path3028"
       style="fill:none;stroke:#0000e9;stroke-width:1;stroke-miterlimit:4;stroke-opacity:1;stroke-dasharray:none;stroke-dashoffset:0" />
    <path
       d="M 540.32384,351.17628 C 529.71966,359.2293 521.54383,368.36159 521.4191,381.07214"
       inkscape:connector-curvature="0"
       id="path3031"
       style="fill:none;stroke:#0000e9;stroke-width:1;stroke-miterlimit:4;stroke-opacity:1;stroke-dasharray:none;stroke-dashoffset:0" />
    <path
       d="M 528.45342,382.39108 C 531.00064,378.08416 533.29753,373.46756 537.17287,370.16733 541.54264,365.40539 546.92267,362.58613 552.31339,359.09306 559.73794,358.56507 565.58231,355.31382 571.41867,351.52775 577.13732,348.00922 582.27651,342.6978 586.46279,337.43294 589.10162,335.21989 591.53139,328.84133 595.48716,330.88134 597.95588,334.25444 596.47722,339.13601 593.78872,341.95305 590.00361,346.21961 584.97113,349.07053 580.6594,352.74113 573.86917,357.47378 565.4091,358.9172 558.56807,363.57658 551.32515,367.75206 544.12198,372.17632 538.01303,377.93474 535.16964,379.97398 533.06554,383.03523 530.43403,385.16328 L 530.28155,385.07108 530.21195,385.02898"
       inkscape:connector-curvature="0"
       id="path3035"
       style="fill:none;stroke:#0000e9;stroke-width:1;stroke-miterlimit:4;stroke-opacity:1;stroke-dasharray:none;stroke-dashoffset:0" />
    <path
       d="M 575.05581,283.91057 C 569.40176,288.00367 563.8211,292.61045 557.03036,288.74667"
       inkscape:connector-curvature="0"
       id="path3042"
       style="fill:none;stroke:#0000e9;stroke-width:1;stroke-miterlimit:4;stroke-opacity:1;stroke-dasharray:none;stroke-dashoffset:0" />
    <path
       d="M 513.39411,378.67539 C 512.44407,378.70869 513.06688,380.24779 511.92405,380.29659 505.46563,386.01716 499.07954,392.16492 490.91726,395.38191 477.30996,401.5473 461.56883,400.42192 447.75735,395.57588 435.76199,391.69222 424.78886,385.37905 413.71832,379.48599 411.92758,380.08072 414.40465,382.22348 414.78996,383.14054 417.73623,387.9936 422.03773,391.80035 427.15498,394.18662 440.87048,401.5635 455.82651,407.66306 471.55913,408.42013 481.48121,408.55154 491.6791,407.06951 500.31317,401.93965 508.71561,397.31071 515.57153,390.16825 520.73069,382.15134 520.13642,380.50204 517.44994,381.30742 516.26554,380.13172 515.29553,379.71317 514.48198,378.74973 513.39411,378.67539 z"
       inkscape:connector-curvature="0"
       id="path3044"
       style="fill:#8791c7;stroke:none" />
    <path
       d="M 593.56065,330.80903 C 590.43295,332.28949 588.6617,335.74013 586.2278,338.11533 577.74587,347.85612 567.18411,356.92487 554.00633,359.17988 548.25385,361.11366 543.46421,365.24271 538.81348,369.00817 534.40581,372.82853 530.89476,377.81598 528.72674,383.20923 528.90528,385.2824 531.50578,384.15143 532.20268,383.00315 539.62946,375.57007 548.04762,369.27062 557.18002,364.05719 566.15533,358.39495 576.97814,356.14922 585.07486,348.99214 589.49769,345.27308 595.85864,341.75866 596.32217,335.31539 596.40247,333.58243 595.84648,330.63629 593.56065,330.80903 z"
       inkscape:connector-curvature="0"
       id="path3046"
       style="fill:#d5be93;stroke:none" />
    <path
       d="M 531.41956,346.10044 C 529.98801,346.81584 530.09401,348.85107 528.57043,349.66228 523.84071,355.52663 517.94085,361.13017 515.9725,368.62056 515.82707,370.76189 515.61799,372.8988 514.56192,374.77354 513.81562,376.95243 514.76607,379.45179 517.14484,380.00807 518.42951,380.51966 520.90043,381.27785 521.18407,379.23869 522.04991,373.9462 523.52728,368.67952 526.83077,364.33197 530.37127,359.34809 534.97948,355.32354 539.42935,351.25253 539.52495,349.29849 536.49744,349.00494 535.35804,347.79529 534.11451,347.17743 532.87441,346.06712 531.41956,346.10044 z"
       inkscape:connector-curvature="0"
       id="path3052"
       style="fill:#7c797c;stroke:none" />
    <path
       d="M 442.83794,318.65971 C 438.94474,318.80348 434.4988,321.40918 434.16869,325.59786 434.01398,329.67385 437.13572,333.00233 440.17259,335.3044 443.13468,337.42028 446.69504,339.12069 450.4493,338.66356 453.73035,338.73586 456.9689,335.96537 456.80354,332.55662 456.84224,328.63255 454.57009,325.11704 452.06362,322.29365 449.69103,319.84488 446.25018,318.44941 442.83794,318.65971 z"
       inkscape:connector-curvature="0"
       id="path3049"
       style="fill:#bfb879;stroke:none" />
    <path
       d="M 416.15625,243.8125 C 415.67286,243.8864 415.37495,244.51726 415.625,244.9375 426.87626,263.68059 426.85684,281.53011 426.71875,299.4375 426.71275,299.83373 427.18239,303.2757 427.57866,303.2757 427.97494,303.2757 428.22435,299.83373 428.21875,299.4375 428.35688,281.52403 428.37457,263.29217 416.90625,244.1875 416.76042,243.92923 416.45036,243.7742 416.15625,243.8125 z"
       inkscape:connector-curvature="0"
       id="path3038"
       style="font-size:medium;font-style:normal;font-variant:normal;font-weight:normal;font-stretch:normal;text-indent:0;text-align:start;text-decoration:none;line-height:normal;letter-spacing:normal;word-spacing:normal;text-transform:none;direction:ltr;block-progression:tb;writing-mode:lr-tb;text-anchor:start;baseline-shift:baseline;color:#000000;fill:#a7b0c5;fill-opacity:1;stroke:none;stroke-width:1.5;marker:none;visibility:visible;display:inline;overflow:visible;enable-background:accumulate;font-family:Sans;-inkscape-font-specification:Sans" />
    <path
       d="M 426.09331,207.65619 C 423.88816,208.80917 422.01803,210.60072 419.95202,212.01142 413.1363,216.99705 406.0504,221.70887 398.39567,225.3519 397.75642,226.31658 399.11554,227.37739 399.47417,228.33325 402.59558,233.52556 406.40053,238.29851 410.85645,242.42463 412.55557,243.90144 414.04284,245.78615 416.07078,246.79834 416.988,246.79734 416.65221,245.68001 416.19443,245.21837 415.98705,244.9388 415.90739,243.8132 416.42112,244.41464 417.73341,245.9165 418.34043,247.96325 419.6635,249.42934 420.85642,249.72038 420.54759,248.00275 420.64583,247.29981 420.79992,236.51492 422.44216,225.77789 424.86958,215.28801 425.31578,212.8859 426.40119,210.58978 426.75965,208.17827 426.72575,207.84805 426.41421,207.61619 426.09331,207.65619 z"
       inkscape:connector-curvature="0"
       id="path3812"
       style="fill:#a7b0c5;stroke:none" />
    <path
       d="M 428.02363,299.65193 C 427.62159,300.8411 427.36654,302.37815 427.8725,303.60873 422.50695,306.62668 420.06506,312.95448 419.74486,318.84468 419.19527,329.19033 422.35012,339.50759 427.49064,348.39395 431.59254,355.2814 437.3832,361.86982 445.26596,364.32097 448.60477,365.05424 452.02999,365.24124 455.26068,366.42018 458.17244,367.13388 461.04815,368.24271 464.03331,368.52508 464.50875,368.50448 464.9555,367.41706 465.06373,368.38082 465.7816,369.44794 467.42654,369.08254 468.51907,369.41811 473.1234,369.93942 478.02292,370.0361 482.37476,368.27091 485.41612,366.94434 487.87244,364.46844 489.07247,361.37398 491.08947,356.83578 490.56625,351.69611 490.14411,346.87943 490.23581,346.19938 489.46851,345.13252 490.35706,344.88042 490.92756,343.89983 489.34021,343.357 488.86476,342.69666 486.66545,341.12791 485.07399,338.95334 483.75552,336.6302 474.92638,322.67047 462.27418,310.67374 446.69481,304.72158 440.71046,302.45072 434.43359,300.95068 428.21283,299.61665 L 428.02363,299.65195 z M 443.34938,318.46049 C 448.293,318.20902 452.83576,321.53851 455.00553,325.84394 456.84332,328.87996 457.99339,333.03024 455.93422,336.23864 453.54761,339.38438 448.94522,339.52392 445.50639,338.36817 440.964,336.75825 436.69711,333.64394 434.61144,329.20432 433.19383,326.33832 433.96312,322.57735 436.62419,320.7068 438.49988,319.15832 440.95204,318.44831 443.34938,318.46049 z"
       inkscape:connector-curvature="0"
       id="path3814"
       style="fill:#8a7294;stroke:none" />
    <path
       d="M 426.31313,294.06706 C 419.27088,299.13261 412.23861,304.42846 406.56345,311.04835 405.2095,313.2019 405.82748,315.93962 405.5193,318.35058 405.1709,325.18864 405.5153,332.09934 404.44079,338.86964 403.97677,340.79918 403.38341,343.22747 401.39762,344.10417 399.99101,344.68855 398.58743,343.99681 397.22786,343.79504 396.70911,344.89238 397.44656,346.28906 397.53888,347.49341 399.80156,358.06251 404.74716,367.8968 410.50652,376.94703 425.22969,385.35757 440.15509,394.10409 456.85473,397.83017 458.72111,398.10988 460.66701,398.858 462.5289,398.66138 463.4976,398.00357 462.6091,396.55748 462.70305,395.6059 462.03931,388.78198 461.38623,381.81411 462.26099,374.98237 462.547,373.0143 463.51618,371.17911 463.86337,369.26849 463.30261,368.36227 461.80706,368.61578 460.89306,368.17317 456.95091,367.35779 453.15333,365.6842 449.13346,365.23461 442.61121,364.81149 436.82544,360.86051 432.64677,355.98832 425.28656,347.44733 420.80948,336.57193 419.61542,325.41238 419.05127,318.94611 419.62542,311.84296 423.82639,306.61755 424.84185,305.24556 426.50634,304.46938 427.54277,303.12787 427.58547,301.61687 427.05469,300.11311 427.16012,298.5666 427.01095,297.1096 427.36771,295.52792 426.87643,294.14262 426.68841,294.12792 426.5049,293.92545 426.31313,294.06702 z"
       inkscape:connector-curvature="0"
       id="path3816"
       style="fill:#95c990;stroke:none" />
    <path
       d="M 562.06318,264.94744 C 561.06213,265.0982 559.11986,264.62353 559.38326,266.21735 559.0745,273.44868 558.44496,280.67427 556.7943,287.72655 556.57065,288.92063 558.23452,289.03825 558.9994,289.45765 562.43872,290.82061 566.24084,289.62072 569.20741,287.70594 571.06572,286.53469 573.20454,285.514 574.52437,283.70792 574.44417,281.07498 573.61978,278.43689 572.807,275.91796 571.14453,271.71241 568.50367,267.48308 564.3507,265.38708 563.64681,265.03109 562.84688,264.9081 562.06318,264.94744 z"
       inkscape:connector-curvature="0"
       id="path3047"
       style="fill:#d39ccd;stroke:none" />
    <path
       d="M 398.53829,198.39961 C 413.88973,203.98854 428.72659,171.52473 441.16255,168.87889 443.78907,168.32008 443.66168,165.21148 443.6019,164.76676"
       inkscape:connector-curvature="0"
       id="path3050"
       style="fill:none;stroke:#0000e9;stroke-width:1;stroke-linecap:round;stroke-miterlimit:4;stroke-opacity:1;stroke-dasharray:none;stroke-dashoffset:0" />
    <path
       d="M 439.93114,164.43357 C 434.89552,164.35467 430.93361,168.0856 427.75846,171.57094 423.41409,176.47276 419.8803,182.07931 415.04997,186.44331 410.56555,190.84669 405.17736,194.28901 399.77231,197.46878 398.85183,198.3048 400.34335,198.99068 401.09811,198.85641 406.75147,199.24524 411.57206,195.56027 415.5171,191.93887 422.54411,185.49377 428.18305,177.65632 435.57862,171.61579 437.39992,170.05803 439.62668,169.26266 441.81337,168.40412 443.01092,167.77675 443.70001,166.20682 443.42082,164.90756 442.55971,164.08826 441.10133,164.57725 439.99987,164.43264 L 439.93117,164.43357 z"
       inkscape:connector-curvature="0"
       id="path3055"
       style="fill:#b46a9f;stroke:none" />
    <path
       d="M 443.8536,164.90756 C 443.46397,165.8522 443.75121,167.11891 442.87813,167.89578 441.43538,169.38206 439.13908,169.34848 437.51309,170.61608 431.91025,174.26991 427.74944,179.687 423.18067,184.46682 418.65132,189.16195 414.31636,194.28565 408.51025,197.46191 405.26126,199.20476 401.2868,199.54733 397.82142,198.30438 392.45914,200.39071 386.81209,202.0193 381.01911,202.02859 378.1711,202.21321 375.3124,202.05699 372.47996,201.88584 371.21767,202.35417 370.13963,203.33804 368.81167,203.68564 365.78822,204.76626 362.43011,204.49363 359.29748,204.11154 353.6672,203.13496 348.55754,200.37834 343.31916,198.25504 342.27372,198.94136 343.12529,200.84155 342.88572,202.01591 342.98602,208.83584 343.14816,215.65464 343.29852,222.4736 344.26818,223.67792 346.01712,224.16582 347.28967,225.08399 353.06611,228.26551 358.95391,231.94621 365.69208,232.42629 368.4082,232.73319 371.14734,232.37509 373.78516,231.91223 387.81411,231.15032 400.7214,224.63778 412.27471,217.08794 421.86421,210.75178 430.69565,203.31147 439.52584,195.95063 445.64893,195.24367 451.76146,194.56406 457.93597,194.68345 465.87807,194.64395 473.86229,194.5321 481.69201,196.03526 497.73009,198.5882 513.21804,205.09407 526.19775,214.74546 530.06628,217.75058 534.06245,220.62727 537.35374,224.28026 544.73848,234.63302 549.31055,246.81849 551.35427,259.31856 552.9226,268.33247 552.65971,277.5269 552.36629,286.64048 552.28039,290.50146 551.56577,294.31574 551.36056,298.16125 551.46374,299.25584 553.04729,299.02992 553.2634,298.10625 558.10467,285.58928 558.99687,271.86822 557.78066,258.59536 557.03233,251.59429 555.70224,244.57397 553.08793,238.02132 549.63046,230.63197 545.29602,223.60523 540.08639,217.31382 532.532,209.13881 523.48264,202.50497 514.30672,196.3078 502.63562,188.44208 489.75833,182.53469 476.71822,177.26293 466.16225,173.09025 455.78462,168.37392 444.98706,164.90066 444.60779,164.82706 444.2053,164.62515 443.8536,164.90766 z"
       inkscape:connector-curvature="0"
       id="path3057"
       style="fill:#73a0a6;stroke:none" />
    <path
       d="M 573.91015,285.02685 C 570.58514,287.06911 567.37238,289.7715 563.33119,290.22016 561.06029,290.5067 558.7838,289.77146 556.76428,288.82136 555.7825,289.26773 556.02355,290.87082 555.59163,291.80566 554.84433,294.94699 553.42603,297.88217 552.70415,301.03268 551.73432,306.6065 550.93538,312.24201 550.26646,317.84625 550.87623,318.65002 552.24139,318.40899 553.15066,318.43988 559.7442,317.69118 565.00089,312.82213 568.67994,307.6225 571.2354,303.39536 572.93435,298.62953 573.99946,293.81288 574.47806,291.0361 575.00963,288.14138 574.57649,285.33598 574.46889,285.08631 574.17184,284.93348 573.91015,285.02685 z"
       inkscape:connector-curvature="0"
       id="path3051"
       style="fill:#bc90cc;stroke:none" />
    <path
       d="M 561.97104,315.42419 C 559.4296,316.49938 557.13583,318.29497 554.29099,318.46736 552.92635,318.82104 551.13278,318.14874 550.08001,319.27108 549.38238,320.75733 549.69513,322.6555 549.11142,324.11405 548.39921,323.82823 547.19,324.06875 547.54519,325.06203 546.67234,328.99036 544.49854,332.61109 542.38623,336.03942 539.79802,339.70095 535.43523,341.52868 532.33621,344.68806 531.77829,345.80875 533.67977,346.04451 534.2488,346.63866 536.34069,347.7519 538.22066,349.23643 540.2773,350.37597 542.26686,350.6422 544.21428,349.67642 546.12321,349.21503 555.7349,346.19493 563.6272,337.40856 564.66387,327.26026 565.01967,323.63373 564.55946,319.52957 562.026,316.78434 562.61517,316.45218 563.03913,315.3902 561.971,315.42419 z"
       inkscape:connector-curvature="0"
       id="path3053"
       style="fill:#c9ca98;stroke:none" />
    <path
       d="M 459.87033,194.77595 C 453.154,194.82045 446.39931,195.14747 439.78405,196.30784 437.93175,197.33217 436.47784,199.04315 434.75804,200.29601 432.06882,202.64872 429.08392,204.72552 426.54661,207.2028 426.10063,207.86742 427.38921,208.14101 426.93817,208.81025 422.57838,222.82939 420.87721,237.55786 420.71444,252.19773 424.81233,261.54057 426.95174,271.60719 427.47393,281.77674 427.84426,287.45019 427.77981,293.13867 427.78311,298.82072 428.43754,299.84436 430.10458,299.55845 431.17832,300.02888 439.48065,301.95652 447.84027,304.1289 455.27498,308.4545 468.00867,315.50213 478.03737,326.52854 485.50027,338.86964 487.63238,341.8383 490.81154,343.82991 493.49794,346.26146 498.69103,350.50137 504.0087,355.21848 510.70623,356.7903 511.84569,356.8456 513.15294,357.51294 514.21459,356.96378 515.99632,355.13949 517.51967,353.08003 519.44504,351.36274 521.88916,349.03135 524.24544,346.60584 526.92308,344.56441 528.33429,344.17354 529.26863,345.53478 530.35781,346.06882 533.30388,343.27625 536.69831,340.87008 539.91322,338.36817 542.76295,335.99468 544.20684,332.42565 545.85696,329.19654 546.66488,327.64711 547.03442,325.87117 547.62762,324.28578 547.58192,323.52885 546.35839,323.90267 546.9338,322.95998 548.22387,314.83289 549.4102,306.68444 550.73948,298.56655 551.7592,294.37697 551.8,290.00065 552.18064,285.715 553.45437,267.85771 551.00498,249.37716 542.61404,233.39323 540.23577,229.05074 537.95204,224.42243 533.94035,221.33364 521.01371,209.86955 505.30643,201.43768 488.41139,197.57883 479.49141,195.51872 470.32943,194.60193 461.17554,194.77082 460.74047,194.77282 460.3054,194.77382 459.87033,194.77582 z"
       inkscape:connector-curvature="0"
       id="path3056"
       style="fill:#d0cf6e;stroke:none" />
  </g>
</svg>
