<?xml version="1.0" encoding="UTF-8" standalone="no"?>
<!-- Created with Inkscape (http://www.inkscape.org/) -->

<svg
   xmlns:dc="http://purl.org/dc/elements/1.1/"
   xmlns:cc="http://creativecommons.org/ns#"
   xmlns:rdf="http://www.w3.org/1999/02/22-rdf-syntax-ns#"
   xmlns:svg="http://www.w3.org/2000/svg"
   xmlns="http://www.w3.org/2000/svg"
   xmlns:xlink="http://www.w3.org/1999/xlink"
   xmlns:inkscape="http://www.inkscape.org/namespaces/inkscape"
   version="1.1"
   width="740"
   height="520"
   id="svg2"
   style="display:inline;enable-background:new">
  <defs
     id="defs4">
    <filter
       color-interpolation-filters="sRGB"
       id="filter3050">
      <feBlend
         in2="BackgroundImage"
         mode="lighten"
         id="feBlend3052" />
    </filter>
  </defs>
  <metadata
     id="metadata7">
    <rdf:RDF>
      <cc:Work
         rdf:about="">
        <dc:format>image/svg+xml</dc:format>
        <dc:type
           rdf:resource="http://purl.org/dc/dcmitype/StillImage" />
        <dc:title />
      </cc:Work>
    </rdf:RDF>
  </metadata>
  <g
     id="g3965"
     style="display:none">
    <image
       xlink:href="pngs/coronal-0531.png"
       id="image3967"
       height="520"
       width="740"
       y="0"
       x="0" />
  </g>
  <g
     id="g3973"
     style="display:inline">
    <path
       d="M 431.12395,317.44356 C 432.31082,318.43481 434.22021,315.83377 431.88462,316.93108 435.19064,316.69452 438.69171,317.00278 441.011,319.98282 444.65577,323.55618 446.86679,328.55488 446.75751,333.68435 445.97197,337.31049 442.38428,339.74474 438.96581,340.59671 435.74376,342.19171 432.66456,340.03716 429.81797,338.69775 426.82893,336.79419 423.01618,334.72759 422.34748,330.91592 422.08004,327.63504 423.9357,324.73958 426.18358,322.55561 427.66503,320.69885 429.42749,319.0971 431.12395,317.44356 z"
       inkscape:connector-curvature="0"
       id="path3976"
       style="fill:none;stroke:#0000e9;stroke-width:1;stroke-miterlimit:4;stroke-opacity:1;stroke-dasharray:none;stroke-dashoffset:0" />
    <path
       d="M 368.814,394.40608 C 366.25621,394.55275 367.40576,391.93921 371.30101,394.40608 372.63301,396.87242 375.21775,399.39756 377.51853,400.6236 382.20475,404.43259 391.42805,402.72969 398.6581,403.11061 404.84514,403.56891 407.25062,406.00324 411.09314,409.32813 414.28067,411.43014 416.44436,413.66891 419.17592,415.54565 421.64219,418.0654 424.75703,420.04967 427.2587,423.00667 429.6594,424.78747 430.9783,426.32282 433.47622,429.22419 437.22293,431.49065 443.13966,434.04491 449.02002,435.44172 457.61597,436.53525 465.74913,440.38443 474.51186,441.03748 482.80608,444.31456 493.65552,444.06899 502.4907,444.768 504.76194,446.48768 510.38065,442.70296 513.06049,441.65924 515.65051,439.69919 518.91592,437.41432 521.76501,436.06347 524.59557,433.62982 526.06166,431.57565 527.98254,429.22419 531.02859,426.49294 532.87485,422.3331 536.24237,420.51689 536.95796,418.84478 539.96225,416.75338 541.66108,414.30214 543.27268,411.82969 545.94793,409.05727 547.25685,406.84112 552.90695,403.23946 548.41465,394.15275 552.85262,390.05381 554.69189,386.402 561.15556,386.08048 565.54002,384.39426 575.63029,381.26721 587.26392,383.43808 597.19711,375.75447 620.02998,362.95578 630.06489,337.19501 637.08746,313.55288 648.50488,287.83713 654.24738,258.67101 648.235,230.8174 642.17061,188.56819 622.87775,144.48369 583.90755,123.06808 531.19338,91.168861 469.94779,77.959833 409.70668,69.180167 394.09,70.232613 371.18524,78.523816 368.814,95.718639 368.814,123.36513 368.814,151.01161 368.814,178.6581 375.33626,183.14475 365.44822,194.65552 376.68305,190.91827 384.71902,191.466 390.49411,188.58502 395.54934,186.11913 399.49558,184.81447 405.5889,182.10112 408.60613,179.27985 410.15021,177.25672 412.87218,173.63095 414.82365,172.44058 417.01956,170.07698 418.28153,166.77943 420.41942,164.3578 420.51822,156.69524 428.23431,155.30879 436.14952,155.81785 441.85316,158.21889 464.0748,165.50184 475.19598,170.1551 503.21645,181.57153 532.90994,192.84909 554.90419,214.23729 583.50579,250.44707 580.51343,300.73154 562.80065,340.93539"
       inkscape:connector-curvature="0"
       id="path3978"
       style="fill:none;stroke:#0000e9;stroke-width:1;stroke-miterlimit:4;stroke-opacity:1;stroke-dasharray:none;stroke-dashoffset:0" />
    <path
       d="M 368.814,215.96323 C 394.86421,207.91299 419.82423,198.04577 440.93724,181.76686 500.24115,183.26135 546.29482,199.66235 565.90941,245.80733 579.19237,270.67741 565.2066,316.06532 560.93539,340.9354"
       inkscape:connector-curvature="0"
       id="path3980"
       style="fill:none;stroke:#0000e9;stroke-width:1;stroke-miterlimit:4;stroke-opacity:1;stroke-dasharray:none;stroke-dashoffset:0" />
    <path
       d="M 421.04118,160.62729 369.43575,133.2702"
       inkscape:connector-curvature="0"
       id="path3982"
       style="fill:none;stroke:#0000e9;stroke-width:1;stroke-miterlimit:4;stroke-opacity:1;stroke-dasharray:none;stroke-dashoffset:0" />
    <path
       d="M 422.90643,156.27502 376.27502,81.043021"
       inkscape:connector-curvature="0"
       id="path3984"
       style="fill:none;stroke:#0000e9;stroke-width:1;stroke-miterlimit:4;stroke-opacity:1;stroke-dasharray:none;stroke-dashoffset:0" />
    <path
       d="M 435.96323,155.03152 443.42425,72.960244"
       inkscape:connector-curvature="0"
       id="path3986"
       style="fill:none;stroke:#0000e9;stroke-width:1;stroke-miterlimit:4;stroke-opacity:1;stroke-dasharray:none;stroke-dashoffset:0" />
    <path
       d="M 465.39893,165.52587 491.1483,84.591427"
       inkscape:connector-curvature="0"
       id="path3988"
       style="fill:none;stroke:#0000e9;stroke-width:1;stroke-miterlimit:4;stroke-opacity:1;stroke-dasharray:none;stroke-dashoffset:0" />
    <path
       d="M 489.62062,175.53005 522.95064,94.08052"
       inkscape:connector-curvature="0"
       id="path3990"
       style="fill:none;stroke:#0000e9;stroke-width:1;stroke-miterlimit:4;stroke-opacity:1;stroke-dasharray:none;stroke-dashoffset:0" />
    <path
       d="M 517.41275,187.98438 554.09612,107.77836"
       inkscape:connector-curvature="0"
       id="path3994"
       style="fill:none;stroke:#0000e9;stroke-width:1;stroke-miterlimit:4;stroke-opacity:1;stroke-dasharray:none;stroke-dashoffset:0" />
    <path
       d="M 566.53117,233.99404 646.11543,214.71972"
       inkscape:connector-curvature="0"
       id="path3996"
       style="fill:none;stroke:#0000e9;stroke-width:1;stroke-miterlimit:4;stroke-opacity:1;stroke-dasharray:none;stroke-dashoffset:0" />
    <path
       d="M 577.10095,275.65143 649.84595,270.67741"
       inkscape:connector-curvature="0"
       id="path3998"
       style="fill:none;stroke:#0000e9;stroke-width:1;stroke-miterlimit:4;stroke-opacity:1;stroke-dasharray:none;stroke-dashoffset:0" />
    <path
       d="M 575.2357,324.14809 629.94988,334.71788"
       inkscape:connector-curvature="0"
       id="path4000"
       style="fill:none;stroke:#0000e9;stroke-width:1;stroke-miterlimit:4;stroke-opacity:1;stroke-dasharray:none;stroke-dashoffset:0" />
    <path
       d="M 399.27985,204.14994 C 403.23543,208.81912 398.43116,202.08492 401.63483,206.518 408.30164,213.34504 414.10796,220.97956 417.54613,229.93343 428.2098,248.5006 427.25402,270.52781 428.35443,291.2043 429.26733,298.19841 425.96459,308.95308 432.66389,312.96171 437.53676,303.76 434.33376,291.84835 433.06585,281.80183 434.10655,265.71725 431.10338,249.74845 429.53368,233.82365 429.67599,222.48769 434.07444,211.91227 439.01473,201.92746 442.69324,195.34171 440.51453,185.18881 438.45023,183.01036"
       inkscape:connector-curvature="0"
       id="path4002"
       style="fill:none;stroke:#0000e9;stroke-width:1;stroke-miterlimit:4;stroke-opacity:1;stroke-dasharray:none;stroke-dashoffset:0" />
    <path
       d="M 576.4792,276.27318 C 590.70098,277.97937 593.9157,295.02129 587.88096,305.8966 584.42549,315.3147 577.20811,323.54574 567.77472,327.25685"
       inkscape:connector-curvature="0"
       id="path4004"
       style="fill:none;stroke:#0000e9;stroke-width:1;stroke-miterlimit:4;stroke-opacity:1;stroke-dasharray:none;stroke-dashoffset:0" />
    <path
       d="M 585.80548,324.76984 C 584.66353,326.82598 586.93066,327.1405 585.87048,324.88305 585.96468,329.70532 584.9393,334.57717 583.21637,339.05934 581.29153,342.42868 579.41336,345.98977 576.55739,348.66407 574.13711,350.35494 572.24736,352.65424 569.61781,354.09233 564.85979,357.27295 558.84146,358.09132 554.37205,361.81521 551.71083,363.58902 549.08597,365.37224 546.3405,367.03246 543.68139,369.26514 540.77568,371.24995 537.93058,373.26651 535.75377,376.39836 533.90011,380.03805 534.80433,383.95983 535.10582,387.29905 536.31667,390.68172 538.42938,393.22445 541.75872,394.91729 542.59423,398.6948 545.38445,400.94293 545.2703,401.71505 547.63686,404.2875 548.14175,405.60649"
       inkscape:connector-curvature="0"
       id="path4006"
       style="fill:none;stroke:#0000e9;stroke-width:1;stroke-miterlimit:4;stroke-opacity:1;stroke-dasharray:none;stroke-dashoffset:0" />
    <path
       d="M 398.96898,402.79973 C 397.7416,397.48455 386.9758,384.63126 389.51656,379.59065 390.87873,374.625 396.06061,372.73134 400.72283,372.6067 410.14831,372.15232 419.97252,374.15905 427.80718,379.58935 431.312,382.99223 435.73415,387.54615 433.89147,392.884 432.63534,397.26109 432.03629,402.63135 426.85986,404.10223 423.63214,407.68465 418.4882,407.98881 415.15302,411.40489 414.48997,413.0972 414.75958,411.62887 414.82361,413.05857"
       inkscape:connector-curvature="0"
       id="path4008"
       style="fill:none;stroke:#0000e9;stroke-width:1;stroke-miterlimit:4;stroke-opacity:1;stroke-dasharray:none;stroke-dashoffset:0" />
    <path
       d="M 444.95362,397.3247 C 441.05606,398.2064 435.1694,397.2482 432.73823,399.13333 432.19781,400.03193 432.14246,401.14852 431.55423,402.15703 433.02629,404.39573 433.51295,406.60019 435.80916,408.25529 437.5458,409.65014 439.22233,410.39168 439.85536,412.81651 437.83443,418.17875 432.72171,422.58827 432.23271,428.42906"
       inkscape:connector-curvature="0"
       id="path4010"
       style="fill:none;stroke:#0000e9;stroke-width:1;stroke-miterlimit:4;stroke-opacity:1;stroke-dasharray:none;stroke-dashoffset:0" />
    <path
       d="M 439.85714,412.53562 C 455.38972,406.7896 471.08091,415.69763 486.88303,413.85396 501.24585,413.49022 517.06874,411.71346 527.905,401.31763 529.37034,397.14481 542.24953,396.72993 537.30882,391.91904"
       inkscape:connector-curvature="0"
       id="path4014"
       style="fill:none;stroke:#0000e9;stroke-width:1;stroke-miterlimit:4;stroke-opacity:1;stroke-dasharray:none;stroke-dashoffset:0" />
    <path
       d="M 444.66776,397.51484 C 446.51133,398.09817 451.83117,398.37632 456.43437,398.28094 462.40982,398.06175 468.38356,397.39459 474.30384,396.92446 481.0958,397.91821 488.12921,398.14224 494.79921,396.19981 502.08872,394.5596 509.43407,391.96842 515.28064,387.10737 519.87508,382.3074 528.947,380.92506 531.38375,388.52067 531.30395,390.36976 535.79038,397.4028 534.57078,396.08603"
       inkscape:connector-curvature="0"
       id="path4016"
       style="fill:none;stroke:#0000e9;stroke-width:1;stroke-miterlimit:4;stroke-opacity:1;stroke-dasharray:none;stroke-dashoffset:0" />
    <path
       d="M 404.84816,373.15913 C 410.13872,373.00652 415.02389,374.81182 420.06166,376.0153 426.37622,378.42911 432.48279,383.44587 433.79849,390.35446 432.68977,394.7468 432.53229,400.78309 427.61983,402.73121 423.24863,405.65779 418.70794,409.15772 413.59155,410.5614 408.90464,407.10708 404.27911,402.80615 398.06718,402.73121 394.24406,402.86653 393.42778,398.44342 390.62558,396.66913 385.30424,400.61683 388.36963,392.22282 388.41059,389.67442 386.60907,386.58579 389.24531,383.601 389.7901,380.54244 390.38375,378.40805 391.71451,376.87544 392.97658,375.19925 396.46633,373.12729 400.90311,373.15697 404.84816,373.15913 z"
       inkscape:connector-curvature="0"
       id="path4018"
       style="fill:none;stroke:none" />
    <path
       d="M 587.25468,326.02255 C 601.12157,328.82423 615.07521,331.6001 628.77606,334.97967 628.71276,338.39116 625.92109,341.58556 624.61809,344.77226 616.8681,360.13011 604.40455,373.59052 588.09016,379.8041 576.99538,382.84902 564.65967,382.65616 554.28239,388.00346 549.5778,391.64614 551.01281,398.35618 549.21122,403.23639 546.80698,404.81457 545.91057,400.44879 544.48979,399.35044 540.7577,394.42947 534.8237,390.10792 535.14408,383.20431 534.82079,376.71618 539.47038,371.48462 544.9425,368.64695 552.75589,362.79505 561.53886,358.52665 570.05892,353.8613 579.01684,349.1189 584.64534,339.66781 585.85574,329.73363 586.42508,328.69365 585.73306,326.24498 587.25468,326.02255 z"
       inkscape:connector-curvature="0"
       id="path4024"
       style="fill:none;stroke:none" />
    <path
       d="M 376.88875,82.703757 C 391.73725,107.06583 407.39165,130.96563 421.55775,155.72077 423.07462,157.18749 422.19441,160.27761 419.86736,159.31527 402.93457,150.96854 386.41667,141.71652 369.64145,133.02682 369.10191,120.96907 369.35463,108.58416 369.53598,96.402483 369.57208,91.02051 372.71478,85.986796 376.50015,82.4706 L 376.88875,82.703757 z"
       inkscape:connector-curvature="0"
       id="path4042"
       style="fill:#746bdb;stroke:none" />
    <path
       d="M 370.69066,134.40633 C 386.85139,143.1193 403.47434,151.15512 419.18732,160.59764 422.1232,162.82912 418.29751,166.24786 417.10834,168.4084 412.03869,175.155 406.36893,182.02852 398.00337,184.70804 391.05329,188.10283 383.75239,190.8624 375.91726,190.92748 373.48617,191.67858 370.87977,190.14925 371.36306,187.41244 371.57481,182.40454 369.17811,177.97254 369.61755,172.93599 369.43404,160.19082 368.79348,147.3168 369.95233,134.63949 370.10028,134.40523 370.43272,134.25876 370.69066,134.40633 z"
       inkscape:connector-curvature="0"
       id="path4044"
       style="fill:#6a72bc;stroke:none" />
    <path
       d="M 438.86175,184.41074 C 440.32776,186.24973 440.25684,188.91611 440.62986,191.17229 441.23133,195.73241 439.79105,200.17808 437.74147,204.19118 432.89824,214.52631 428.45819,225.68279 429.82691,237.3471 431.11703,250.91359 433.39112,264.43815 432.99396,278.11072 433.05416,286.96351 435.74344,295.67442 434.81065,304.56433 434.52237,307.25601 434.09935,310.13573 432.58594,312.40424 431.24334,311.79625 429.74281,310.26963 429.66176,308.66401 429.79924,308.09631 430.84934,307.73552 429.73946,307.53708 428.04639,306.13812 428.8583,303.46155 428.55425,301.543 428.44871,287.48685 428.08552,273.39711 426.57301,259.41439 425.48699,250.06429 423.33912,240.816 419.00775,232.4223 415.43387,224.59863 411.40613,216.78473 405.46936,210.45697 404.01234,208.61755 402.08299,207.05131 400.94457,205.02571 402.28424,203.594 404.61118,203.29253 406.31689,202.28611 417.11832,197.5162 427.31883,191.53271 437.13248,184.94506 437.67051,184.71196 438.23788,184.22479 438.86173,184.41074 z"
       inkscape:connector-curvature="0"
       id="path4048"
       style="fill:#a7b0c5;stroke:none" />
    <path
       d="M 434.67464,317.10624 C 440.0497,317.43798 443.3149,322.51659 445.27357,326.96684 446.64668,330.19353 447.48171,334.56622 444.54495,337.21603 442.2167,339.39203 438.97002,340.96143 435.73356,340.83968 431.53157,339.78124 427.62776,337.3695 424.48373,334.389 421.64758,331.78069 422.39557,327.28333 424.78489,324.64498 426.7896,322.25067 428.69901,319.50852 431.42015,317.88343 432.57787,317.81103 433.42873,316.7975 434.67464,317.10624 z"
       inkscape:connector-curvature="0"
       id="path4050"
       style="fill:#bfb879;stroke:none" />
    <path
       d="M 405.02484,372.81134 C 413.23127,373.11916 421.80043,375.18061 428.22396,380.50552 431.50143,383.43087 435.14444,387.69993 433.78087,392.43539 432.71306,396.61011 431.73887,401.93852 427.2719,403.78236 423.4927,406.73823 418.8399,408.44561 414.92429,411.15595 412.96785,411.33209 411.73958,409.15481 410.1965,408.27667 407.19139,405.73423 403.8668,403.43688 399.85652,403.04403 398.29423,402.16345 398.39769,399.95519 397.29371,398.63959 394.61576,393.30116 390.88323,388.32438 389.4616,382.45821 388.9273,377.20116 394.15824,373.13502 399.0599,373.01535 401.04197,372.83899 403.03518,372.75457 405.02484,372.81134 z"
       inkscape:connector-curvature="0"
       id="path4052"
       style="fill:#a4a7da;stroke:none" />
    <path
       d="M 409.69962,69.654056 C 420.75466,70.86783 431.70501,72.936196 442.67301,74.764931 443.48802,76.418931 442.29801,78.890113 442.46719,80.849357 440.09858,105.39859 438.22563,130.01689 435.65242,154.53304 433.94197,156.37284 430.83384,155.28016 428.59062,155.97563 426.45462,155.93183 424.69444,157.72029 422.65542,157.65178 421.63364,156.82343 423.39161,155.70449 421.92725,154.86278 407.6198,130.48935 392.12822,106.70304 377.72918,82.348809 378.05437,79.986979 381.04435,79.005072 382.72495,77.689172 390.72899,73.083785 399.85641,70.219491 409.09511,69.626579 L 409.5343,69.646539 409.69962,69.654039 z"
       inkscape:connector-curvature="0"
       id="path5955"
       style="fill:#b1daa9;stroke:none" />
    <path
       d="M 444.40411,75.14962 C 459.5062,77.78782 474.47641,81.195015 489.33035,84.945463 491.47573,85.639634 489.13259,88.377508 489.09858,89.866124 481.19117,115.09822 473.32969,140.42288 464.94378,165.45548 462.69217,165.80108 460.38516,163.87755 458.1148,163.46469 451.07852,160.81233 443.83196,158.56873 436.90266,155.71459 435.45768,153.8378 437.04413,151.10717 436.79534,148.9343 438.98072,124.48586 441.15846,100.03575 443.51108,75.603004 443.59528,75.129578 444.04509,75.11069 444.40411,75.14962 z"
       inkscape:connector-curvature="0"
       id="path5957"
       style="fill:#dbc198;stroke:none" />
    <path
       d="M 491.81709,85.659887 C 501.56652,88.231724 511.38639,90.975684 520.76497,94.658873 523.13093,95.518634 520.51864,98.148667 520.31125,99.668831 510.08045,124.7379 499.93709,149.88504 489.52269,174.85289 487.65256,175.96694 485.53651,173.61481 483.62527,173.33662 477.71163,170.90409 471.65144,168.71107 465.93298,165.86764 466.43727,161.7757 468.396,157.75212 469.443,153.69347 476.63147,131.10817 483.72238,108.48893 491.08893,85.962143 491.3365,85.830286 491.51072,85.553587 491.81709,85.659887 z"
       inkscape:connector-curvature="0"
       id="path5959"
       style="fill:#d7ab8f;stroke:none" />
    <path
       d="M 523.3891,95.400774 C 533.65605,98.654434 543.52998,103.05728 553.4361,107.24371 553.71666,109.47409 551.57257,111.90318 550.87615,114.19348 539.72077,138.49459 528.7548,162.90501 517.3852,187.09426 516.21672,188.58299 514.1895,186.15337 512.72767,185.93302 505.36022,182.43537 497.82977,179.30216 490.3745,176.00696 489.76555,174.15298 491.75395,172.17255 492.11793,170.28194 502.22588,145.38179 512.33779,120.48092 522.67468,95.675552 522.9606,95.461864 523.01993,95.339144 523.3891,95.400774 z"
       inkscape:connector-curvature="0"
       id="path5961"
       style="fill:#736cd4;stroke:none" />
    <path
       d="M 555.00234,108.30161 C 564.17716,111.94999 572.69572,117.19163 581.34593,121.95764 593.60976,128.53613 604.55761,137.42515 613.52395,148.05757 626.66397,163.23888 635.22958,181.80526 641.31464,200.79635 642.51607,205.26478 644.10371,209.76392 644.70368,214.31104 642.78117,215.76377 639.66776,215.63265 637.33886,216.53287 614.09514,222.17911 590.87822,228.10441 567.5597,233.33943 565.12293,231.54454 564.696,228.03004 562.84519,225.692 558.80225,218.30971 553.47025,211.74388 546.74558,206.72743 538.13708,199.65807 528.33038,194.28765 518.77283,188.61928 516.85361,187.49057 519.44796,185.34089 519.62464,183.86562 531.06516,158.73037 542.48582,133.57809 554.178,108.56265 554.33139,108.21854 554.71274,108.24922 555.00234,108.30161 z"
       inkscape:connector-curvature="0"
       id="path5963"
       style="fill:#bf9784;stroke:none" />
    <path
       d="M 645.06089,215.62998 C 647.1385,222.77324 647.8095,230.33533 649.02809,237.6864 650.62501,248.02889 650.91903,258.67077 649.33369,269.01938 648.3851,271.14846 645.20087,270.21244 643.37289,270.77739 621.27691,272.48331 599.16127,273.99682 577.03955,275.3118 575.70011,274.34996 576.46413,271.97503 576.05238,270.50392 575.31033,258.13495 572.22305,245.99999 567.46353,234.60341 568.89992,232.86534 572.42726,233.21281 574.64338,232.2732 597.94618,226.64442 621.23461,220.92263 644.56629,215.43763 L 644.97604,215.59698 645.06089,215.62998 z"
       inkscape:connector-curvature="0"
       id="path5965"
       style="fill:#e19179;stroke:none" />
    <path
       d="M 648.64675,271.17639 C 649.70636,272.58091 648.27919,274.83352 648.28755,276.51264 646.03264,289.80582 641.31251,302.49108 636.42563,315.00652 634.37857,321.37845 632.22184,327.72816 629.83818,334.0319 626.77042,334.43193 623.39515,332.93159 620.20914,332.60085 608.91732,330.25 597.39829,328.60443 586.31331,325.51378 585.69555,324.66371 585.36542,325.02688 584.66464,325.36265 581.83954,325.13133 578.57419,325.13691 576.13278,323.74146 576.40511,321.58273 579.12161,320.60133 580.1995,318.86415 585.90767,311.96575 590.47266,303.49396 591.08071,294.4501 591.21725,286.94677 586.95722,279.60704 580.07585,276.57578 579.33902,274.93398 582.22301,275.67667 583.04203,275.41292 604.91418,274.07787 626.76498,272.29757 648.64675,271.17639 z"
       inkscape:connector-curvature="0"
       id="path5967"
       style="fill:#cda392;stroke:none" />
    <path
       d="M 587.11017,326.65411 C 600.87852,329.48375 614.79153,331.74884 628.47803,334.92493 629.4421,336.56812 627.35523,338.53836 627.0217,340.1732 620.78074,353.57854 612.05478,366.41948 599.16007,374.17658 593.96877,378.1445 587.83936,380.67774 581.35357,381.47236 572.38974,382.73762 563.17621,383.88256 554.9199,387.77852 551.78257,389.79586 550.37096,393.38872 550.43406,397.02025 549.88563,399.36279 550.61711,402.45047 548.88852,404.29269 546.74672,404.41184 546.21664,401.27982 544.86302,400.11606 542.12182,395.47316 536.91279,392.59432 535.72664,387.0641 533.61918,381.43757 535.82324,374.75381 540.84155,371.48964 548.87221,365.47153 557.26322,359.80699 566.55676,355.91799 576.81259,350.79718 585.20297,340.83702 585.76376,329.04468 585.91274,328.23143 585.85306,326.53154 587.11017,326.65411 z"
       inkscape:connector-curvature="0"
       id="path5969"
       style="fill:#d5be93;stroke:none" />
    <path
       d="M 578.46839,276.8643 C 585.32,278.63858 590.05167,285.27548 590.24264,292.25188 591.1696,300.55004 586.87674,308.21186 582.61754,314.97603 579.36807,319.61944 574.95606,323.53873 569.8541,325.95342 568.29826,325.32779 570.05202,323.01913 570.07956,321.79624 574.41863,307.8244 576.09226,293.19195 576.76477,278.60914 576.87815,277.72815 577.37698,276.63046 578.46839,276.8643 z"
       inkscape:connector-curvature="0"
       id="path5971"
       style="fill:#c7afc8;stroke:none" />
    <path
       d="M 539.28734,393.85367 C 541.13143,395.18379 542.16439,397.30288 543.56986,399.03883 544.32777,400.05979 545.28777,400.93309 545.83455,402.10044 546.5317,403.30146 547.48687,404.38585 548.04507,405.64525 548.12817,406.37954 547.20339,406.63897 546.93235,407.24087 545.02908,409.87148 542.97571,412.39027 541.00127,414.96694 539.40067,416.88379 537.57948,418.59167 536.0003,420.5209 533.11652,422.44679 531.32701,425.53343 529.01585,428.0631 526.5237,430.67152 524.49268,433.7696 521.62253,436.01152 518.92004,437.49717 516.31443,439.16239 513.84975,440.98157 511.59693,442.41878 509.13242,443.49705 506.67828,444.54106 505.37297,445.07798 503.82899,445.37723 502.50828,444.7529 498.05335,444.33715 493.56756,444.26658 489.1098,443.8505 484.34415,443.45975 479.52868,442.83122 475.03234,441.16417 473.59953,440.74128 472.05107,440.80929 470.58603,440.46482 463.22871,439.1267 456.19145,436.38379 448.79257,435.3177 444.25813,434.20266 439.87485,432.49339 435.70525,430.39592 434.47862,429.69326 432.91463,429.04216 432.43983,427.58613 432.55037,426.19019 433.20223,424.8707 433.76564,423.59841 435.60454,419.90405 438.29937,416.733 439.91723,412.92672 440.30743,412.15992 441.33419,412.21897 442.03459,411.90707 448.56885,410.02709 455.50456,410.56056 462.12962,411.62175 467.49557,412.43518 472.82701,413.57407 478.24162,413.97206 481.63722,414.15719 485.0403,414.12888 488.43262,413.85538 497.96353,413.4833 507.68235,412.56401 516.51991,408.796 520.66653,407.00108 524.61766,404.57896 527.85313,401.39634 528.33842,400.74445 528.7749,400.02101 529.51179,399.60072 531.86677,398.00043 534.69006,397.30295 537.09712,395.81771 537.76412,395.35865 538.33882,394.76199 538.60836,393.99496 538.73047,393.75394 539.07636,393.72136 539.28734,393.85367 z"
       inkscape:connector-curvature="0"
       id="path8936"
       style="fill:#c7a1db;stroke:none" />
    <path
       d="M 524.30506,383.25754 C 526.68153,383.25821 529.05786,384.42952 530.31239,386.47931 530.99603,387.41086 531.30775,388.5441 531.56951,389.63583 532.39154,391.94255 533.79237,394.00797 534.62985,396.3095 534.62685,397.16395 533.53678,397.32286 532.94777,397.66962 531.30853,398.44875 529.4435,399.094 528.26186,400.53078 527.34327,402.08889 525.74468,403.08091 524.34999,404.17423 517.73466,409.09408 509.62567,411.49043 501.56061,412.67407 496.17288,413.52132 490.70546,413.56274 485.27625,413.9537 482.78348,414.06804 480.22205,413.9637 477.70987,413.81818 469.76779,413.16497 462.00893,410.99622 454.04099,410.62762 450.00778,410.47069 445.90735,410.60952 442.02716,411.78972 441.33985,411.88302 440.69546,412.37603 440.00654,412.25351 439.33972,411.81249 439.19804,410.89177 438.55708,410.4125 436.87334,408.745 434.59243,407.62094 433.47712,405.44244 432.91211,404.34429 432.21173,403.29822 431.72884,402.16571 431.91273,401.30617 432.27893,400.46686 432.6047,399.64119 433.21574,398.48184 434.70399,398.34472 435.85739,398.14708 438.58662,397.80986 441.3589,397.83716 444.08699,397.56318 445.58705,397.6685 447.04128,398.11296 448.5554,398.12235 452.56736,398.26456 456.60692,398.27562 460.61834,398.10935 465.23377,397.85547 469.82702,397.25482 474.4431,397.04308 476.99565,397.30222 479.55546,397.66858 482.13002,397.65188 485.90859,397.74588 489.70047,397.56118 493.36675,396.60575 499.04244,395.30098 504.72595,393.7198 509.84514,390.84373 512.30499,389.52501 514.57499,387.867 516.64218,385.99507 518.80914,384.29552 521.5267,383.21059 524.30506,383.25759 z"
       inkscape:connector-curvature="0"
       id="path8940"
       style="fill:#aac7db;stroke:none" />
  </g>
</svg>
