<?xml version="1.0" encoding="UTF-8" standalone="no"?>
<!-- Created with Inkscape (http://www.inkscape.org/) -->

<svg
   xmlns:dc="http://purl.org/dc/elements/1.1/"
   xmlns:cc="http://creativecommons.org/ns#"
   xmlns:rdf="http://www.w3.org/1999/02/22-rdf-syntax-ns#"
   xmlns:svg="http://www.w3.org/2000/svg"
   xmlns="http://www.w3.org/2000/svg"
   xmlns:xlink="http://www.w3.org/1999/xlink"
   xmlns:inkscape="http://www.inkscape.org/namespaces/inkscape"
   version="1.1"
   width="740"
   height="520"
   id="svg2"
   style="display:inline;enable-background:new">
  <defs
     id="defs4">
    <filter
       color-interpolation-filters="sRGB"
       id="filter3050">
      <feBlend
         in2="BackgroundImage"
         mode="lighten"
         id="feBlend3052" />
    </filter>
  </defs>
  <metadata
     id="metadata7">
    <rdf:RDF>
      <cc:Work
         rdf:about="">
        <dc:format>image/svg+xml</dc:format>
        <dc:type
           rdf:resource="http://purl.org/dc/dcmitype/StillImage" />
        <dc:title />
      </cc:Work>
    </rdf:RDF>
  </metadata>
  <g
     id="g4057"
     style="display:none">
    <image
       xlink:href="pngs/coronal-0523.png"
       id="image4059"
       height="520"
       width="740"
       y="0"
       x="0" />
  </g>
  <g
     id="g4065"
     style="display:inline">
    <path
       d="M 432.24841,317.76324 C 431.04266,317.04723 432.91358,314.83203 433.59468,316.2758 435.09927,316.2896 436.73819,315.31021 438.13305,316.2718 439.84423,317.18443 441.43233,318.34121 443.23947,319.06009 445.08159,320.37098 446.27888,322.3535 447.59827,324.14394 449.27814,326.6539 450.63215,329.84315 449.57732,332.86548 448.91412,335.64654 446.70722,337.8186 444.23081,339.09735 442.50124,339.98552 440.41567,340.18225 438.61315,339.39293 437.44808,338.90901 436.22852,338.60476 434.99242,338.38208 432.81541,337.75856 430.67708,336.79435 428.92324,335.35177 427.79802,334.20996 426.80023,332.8724 426.38625,331.30741 425.87421,330.07374 425.1864,328.65127 425.85535,327.33576 426.90477,324.42253 428.15777,321.4794 430.4249,319.28909 430.98487,318.72677 431.59495,318.21335 432.24841,317.76324 z"
       inkscape:connector-curvature="0"
       id="path4067"
       style="fill:none;stroke:#0000e9;stroke-width:1;stroke-miterlimit:4;stroke-opacity:1;stroke-dasharray:none;stroke-dashoffset:0" />
    <path
       d="M 370.67926,194.82365 C 370.67926,194.28608 370.62866,189.27849 370.67926,189.22789 370.8258,189.08134 371.15446,189.37443 371.30101,189.22789 371.51501,189.01388 371.51501,185.08963 371.30101,184.87562 371.15446,184.72907 370.8258,185.02217 370.67926,184.87562 370.53271,184.72907 370.8258,184.40042 370.67926,184.25387 370.53271,184.10732 370.26475,184.25387 370.0575,184.25387 369.43575,183.42487 368.814,182.59586 368.19225,181.76686 L 368.19225,95.34332 C 381.88232,76.048873 399.01367,71.933358 419.2826,70.730774"
       inkscape:connector-curvature="0"
       id="path4069"
       style="fill:none;stroke:#0000e9;stroke-width:1;stroke-miterlimit:4;stroke-opacity:1;stroke-dasharray:none;stroke-dashoffset:0" />
    <path
       d="M 418.55417,71.094988 C 487.28903,82.688151 545.53641,103.10356 580.83146,122.70041 609.25682,142.22257 619.95555,160.13322 630.57163,178.03635 642.24019,212.17405 652.15658,246.01972 644.25018,276.89493 L 623.73236,340.31364 C 610.78037,362.80388 603.9932,372.81722 588.42505,376.2244 582.30057,385.1741 570.98039,379.38707 569.63993,380.72753 569.49338,380.87408 569.78647,381.20273 569.63993,381.34928 569.22542,381.76378 567.56742,380.93478 567.15292,381.34928 567.00637,381.49583 567.29947,381.82449 567.15292,381.97104 566.84204,382.28191 565.59854,381.66016 565.28766,381.97104 565.14111,382.11758 565.43421,382.44624 565.28766,382.59279 564.99456,382.88588 564.33725,382.29969 564.04416,382.59279 563.89761,382.73934 564.19071,383.06799 564.04416,383.21454 563.75106,383.50764 563.09375,382.92144 562.80065,383.21454 562.6541,383.36109 562.9472,383.68974 562.80065,383.83629 562.51324,384.12371 561.31079,383.64859 560.9354,383.83629 560.41109,384.09845 560.2162,384.81764 559.69189,385.0798 559.50652,385.1725 559.21669,384.93325 559.07014,385.0798 558.92359,385.22634 559.21669,385.555 559.07014,385.70155 558.92359,385.8481 558.63376,385.60885 558.44839,385.70155 558.18623,385.83262 558.08879,386.19222 557.82664,386.3233 557.64127,386.416 557.35143,386.17675 557.20488,386.3233 557.05834,386.46985 557.35143,386.7985 557.20488,386.94505 557.05834,387.0916 556.7685,386.85235 556.58313,386.94505 556.32098,387.07613 556.22353,387.43573 555.96138,387.5668 555.77601,387.6595 555.48618,387.42026 555.33963,387.5668 555.19308,387.71335 555.48618,388.04201 555.33963,388.18856 555.19308,388.3351 554.90325,388.09586 554.71788,388.18856 554.45572,388.31963 554.35828,388.67923 554.09612,388.81031 553.91075,388.90301 553.62092,388.66376 553.47437,388.81031 553.32782,388.95686 553.62092,389.28551 553.47437,389.43206 553.32782,389.57861 552.99917,389.28551 552.85262,389.43206 552.70607,389.57861 552.99917,389.90726 552.85262,390.05381 552.70607,390.20036 552.37742,389.90726 552.23087,390.05381 552.08432,390.20036 552.37742,390.52902 552.23087,390.67556 552.08432,390.82211 551.75566,390.52902 551.60912,390.67556 551.46257,390.82211 551.70182,391.11195 551.60912,391.29732 551.34696,391.82162 550.62776,392.01651 550.36561,392.54082 550.27291,392.72619 550.51216,393.01602 550.36561,393.16257 550.21906,393.30912 549.89041,393.01602 549.74386,393.16257 549.57928,393.32715 549.74386,394.77181 549.74386,395.02783 549.74386,396.8267 549.71886,395.67456 549.12211,396.27133 548.72772,396.66572 549.38094,398.24068 549.12211,398.75834 548.99103,399.0205 548.63143,399.11794 548.50035,399.38009 548.31498,399.75084 548.68573,400.25286 548.50035,400.6236 548.36928,400.88575 548.00968,400.9832 547.8786,401.24535 547.7859,401.43072 548.02515,401.72055 547.8786,401.8671 547.73205,402.01365 547.4034,401.72055 547.25685,401.8671 546.96375,402.1602 547.54995,402.81751 547.25685,403.11061 547.1103,403.25715 546.78165,402.96406 546.6351,403.11061 546.342,403.4037 546.82047,403.98337 546.6351,404.35411 546.27297,405.07837 545.75373,405.4951 545.39159,406.21937 545.29889,406.40474 545.48429,406.65575 545.39159,406.84112 545.26052,407.10327 544.90092,407.20072 544.76984,407.46287 544.67714,407.64824 544.91639,407.93807 544.76984,408.08462 544.62329,408.23117 544.29464,407.93807 544.14809,408.08462 544.00154,408.23117 544.24079,408.521 544.14809,408.70638 544.01701,408.96853 543.65742,409.06597 543.52634,409.32813 543.43364,409.5135 543.67289,409.80333 543.52634,409.94988 543.37979,410.09643 543.05113,409.80333 542.90459,409.94988 542.75804,410.09643 542.99729,410.38626 542.90459,410.57163 542.77351,410.83379 542.41391,410.93123 542.28283,411.19338 542.19013,411.37875 542.42938,411.66859 542.28283,411.81514 542.13629,411.96168 541.80763,411.66859 541.66108,411.81514 541.51453,411.96168 541.80763,412.29034 541.66108,412.43689 541.51453,412.58344 541.18588,412.29034 541.03933,412.43689 540.89278,412.58344 541.13203,412.87327 541.03933,413.05864 539.71519,415.70692 541.11993,411.65387 539.79583,414.30214 539.70313,414.48751 539.94237,414.77735 539.79583,414.9239 539.64928,415.07044 539.32062,414.77735 539.17407,414.9239 539.02753,415.07044 539.32062,415.3991 539.17407,415.54565 539.02753,415.6922 538.69887,415.3991 538.55232,415.54565 538.55232,417.20365 538.75957,415.3384 537.93057,416.1674 537.78402,416.31395 538.07712,416.6426 537.93057,416.78915 537.78402,416.9357 537.45537,416.6426 537.30882,416.78915 537.16227,416.9357 537.40152,417.22553 537.30882,417.4109 537.04666,417.93521 536.32747,418.1301 536.06531,418.65441 535.97261,418.83978 536.21186,419.12961 536.06531,419.27616 535.91876,419.42271 535.65081,419.27616 535.44356,419.27616 535.44356,419.48341 535.59011,419.75136 535.44356,419.89791 535.29701,420.04446 534.96836,419.75136 534.82181,419.89791 534.82181,421.55592 535.02906,419.69066 534.20006,420.51966 534.05351,420.66621 534.34661,420.99487 534.20006,421.14142 534.05351,421.28797 533.76368,421.04872 533.5783,421.14142 533.31615,421.27249 533.21871,421.63209 532.95655,421.76317 532.77118,421.85587 532.48135,421.61662 532.3348,421.76317 532.18825,421.90972 532.48135,422.23837 532.3348,422.38492 532.18825,422.53147 531.8596,422.23837 531.71305,422.38492 531.5665,422.53147 531.8596,422.86012 531.71305,423.00667 531.5665,423.15322 531.23784,422.86012 531.0913,423.00667 530.94475,423.15322 531.23784,423.48188 531.0913,423.62843 530.94475,423.77497 530.65491,423.53573 530.46954,423.62843 530.20739,423.7595 530.10995,424.1191 529.84779,424.25018 529.66242,424.34288 529.37259,424.10363 529.22604,424.25018 529.07949,424.39673 529.37259,424.72538 529.22604,424.87193 529.07949,425.01848 528.81154,424.87193 528.60429,424.87193 528.60429,425.07918 528.69699,425.30831 528.60429,425.49368 527.3105,428.08126 528.64719,424.82901 527.36078,426.11543 527.21424,426.26198 527.50733,426.59064 527.36078,426.73719 527.21424,426.88373 526.88558,426.59064 526.73903,426.73719 526.59248,426.88373 526.83173,427.17357 526.73903,427.35894 526.47688,427.88325 525.75768,428.07813 525.49553,428.60244 525.40283,428.78781 525.64208,429.07765 525.49553,429.22419 525.34898,429.37074 525.05915,429.13149 524.87378,429.22419 524.27289,429.52464 522.68721,431.11031 522.38677,431.7112 522.29407,431.89657 522.53332,432.18641 522.38677,432.33295 522.24022,432.4795 521.91156,432.18641 521.76501,432.33295 521.61847,432.4795 521.91156,432.80816 521.76501,432.95471 521.61847,433.10126 521.28981,432.80816 521.14326,432.95471 520.99671,433.10126 521.28981,433.42991 521.14326,433.57646 519.85684,434.86289 521.19356,431.61063 519.89976,434.19821 519.89976,435.85622 520.10701,433.99096 519.27801,434.81996 519.13146,434.96651 519.42455,435.29517 519.27801,435.44172 519.13146,435.58826 518.8028,435.29517 518.65625,435.44172 518.50971,435.58826 518.8028,435.91692 518.65625,436.06347 516.99825,436.06347 518.86351,435.85622 518.0345,436.68522 517.88795,436.83177 517.5593,436.53867 517.41275,436.68522 517.2662,436.83177 517.5593,437.16042 517.41275,437.30697 517.2662,437.45352 516.93755,437.16042 516.791,437.30697 516.64445,437.45352 516.93755,437.78218 516.791,437.92872 516.64445,438.07527 516.31579,437.78218 516.16925,437.92872 516.0227,438.07527 516.31579,438.40393 516.16925,438.55048 516.0227,438.69702 515.75474,438.55048 515.54749,438.55048 515.54749,438.75773 515.69404,439.02568 515.54749,439.17223 515.40095,439.31878 515.07229,439.02568 514.92574,439.17223 514.77919,439.31878 515.07229,439.64743 514.92574,439.79398 514.77919,439.94053 514.48936,439.70128 514.30399,439.79398 513.57973,440.15611 513.163,440.67535 512.43873,441.03748 512.25336,441.13018 511.96353,440.89094 511.81698,441.03748 511.67043,441.18403 511.96353,441.51269 511.81698,441.65924 511.52388,441.95233 510.86657,441.36614 510.57348,441.65924 510.42693,441.80578 510.72003,442.13444 510.57348,442.28099 510.28038,442.57408 509.70071,442.09562 509.32997,442.28099 508.60571,442.64312 508.18898,443.16236 507.46472,443.52449 506.72584,443.89393 502.90879,443.52449 501.86895,443.52449 483.35124,447.15233 446.85459,433.81132 429.7457,427.35894 426.85213,426.16307 423.70839,423.46617 419.17592,412.43689 418.34692,411.60789 417.51791,410.77888 416.68891,409.94988 L 370.0575,391.29732"
       inkscape:connector-curvature="0"
       id="path4071"
       style="fill:none;stroke:#0000e9;stroke-width:1;stroke-miterlimit:4;stroke-opacity:1;stroke-dasharray:none;stroke-dashoffset:0" />
    <path
       d="M 370.67926,193.58015 C 395.82259,197.67466 414.13563,185.54724 426.01519,158.14028 469.62489,168.20851 507.37023,184.14111 541.03933,204.14994 560.65619,226.60066 567.73972,242.78472 570.88343,256.99886 572.35067,284.79354 569.62341,306.71591 562.80065,322.90459 560.77948,327.70998 558.17348,321.93599 559.07014,321.03933 559.21669,320.89278 559.54534,321.18588 559.69189,321.03933 559.93415,320.79707 559.69189,318.93174 559.69189,318.55232 L 566.53117,259.48587 C 546.02298,204.84413 521.82589,201.84706 498.13844,191.71489 477.82445,186.96521 458.19056,178.81505 434.71972,189.84964 413.81565,202.21866 393.17222,215.8909 370.67926,220.31549"
       inkscape:connector-curvature="0"
       id="path4073"
       style="fill:none;stroke:#0000e9;stroke-width:1;stroke-miterlimit:4;stroke-opacity:1;stroke-dasharray:none;stroke-dashoffset:0" />
    <path
       d="M 436.58498,189.22789 C 436.58498,190.05689 436.74756,190.90199 436.58498,191.71489 436.52748,192.0023 436.0943,192.07449 435.96323,192.33665 435.7206,192.8219 435.5841,194.3384 435.34147,194.82365 434.67365,196.15931 434.7658,194.73155 434.09797,196.06716 434.00527,196.25253 434.09797,196.48166 434.09797,196.68891 433.89072,197.10341 433.73328,197.54682 433.47622,197.93242 433.31364,198.17629 432.94715,198.27611 432.85447,198.55417 432.72339,198.9474 432.955,199.39555 432.85447,199.79767 432.78117,200.09071 431.77972,202.65329 431.61096,202.90643 431.44838,203.1503 431.08189,203.25013 430.98921,203.52818 430.85813,203.92141 431.12029,204.37846 430.98921,204.77169 430.89651,205.04974 430.57471,205.18619 430.36746,205.39344 430.16021,205.80794 429.89225,206.1973 429.7457,206.63694 429.49128,207.40023 429.37838,208.36067 429.12395,209.12395 428.9774,209.5636 428.6146,209.91787 428.5022,210.36746 428.26384,211.3209 428.81237,212.54571 428.5022,213.47622 428.35565,213.91586 427.99285,214.27013 427.88045,214.71972 427.72965,215.32291 428.07706,215.99513 427.88045,216.58498 427.7339,217.02462 427.40524,217.38884 427.2587,217.82848 426.88562,218.9477 427.54568,220.41107 427.2587,221.55899 427.1463,222.00858 426.78349,222.36285 426.63694,222.8025 426.13954,224.2947 427.13435,226.28431 426.63694,227.77652 426.4904,228.21616 426.16174,228.58037 426.01519,229.02002 425.56696,230.36471 426.55699,234.15395 426.01519,235.23754 425.7252,235.81752 424.82854,236.59475 425.39344,237.72455 425.52452,237.9867 425.88412,238.08415 426.01519,238.3463 426.66619,239.64829 425.51203,243.05434 426.01519,244.56382 426.16174,245.00347 426.4904,245.36768 426.63694,245.80733 426.93836,246.71156 426.21626,248.07472 426.63694,248.91609 426.76802,249.17824 427.16601,249.25978 427.2587,249.53784 427.69732,250.85372 427.2587,253.12382 427.2587,254.51186 427.2587,256.22619 427.341,256.00237 427.88045,257.62062 428.5022,259.48587 427.2587,261.97288 427.88045,263.83814 427.97315,264.11619 428.40952,264.18183 428.5022,264.45989 428.87578,265.58062 428.5022,269.88912 428.5022,271.29916 428.5022,271.95234 428.31925,273.23733 428.5022,273.78617 428.5949,274.06423 428.99288,274.14577 429.12395,274.40792 429.45084,275.06169 429.12395,276.76988 429.12395,277.51668 429.12395,278.45866 428.69172,281.00448 429.12395,281.86895 429.25503,282.1311 429.61463,282.22855 429.7457,282.4907 430.40891,283.8171 429.0825,286.13831 429.7457,287.46472 429.87678,287.72687 430.23638,287.82432 430.36746,288.08647 430.78196,288.91547 429.95296,290.36623 430.36746,291.19523 430.49853,291.45738 430.85813,291.55483 430.98921,291.81698 431.48661,292.81178 430.49181,294.55269 430.98921,295.54749 431.12029,295.80965 431.47988,295.90709 431.61096,296.16925 431.67746,296.30226 431.67746,301.632 431.61096,301.76501 430.84266,303.30162 430.98921,301.5504 430.98921,303.00852 430.98921,303.79309 431.07241,311.00809 430.98921,311.0913 430.84266,311.23784 430.51401,310.94475 430.36746,311.0913 430.22091,311.23784 430.51401,311.5665 430.36746,311.71305 429.48712,312.59339 429.8178,311.23549 429.7457,311.0913 429.61463,310.82914 429.25503,310.7317 429.12395,310.46954 428.93858,310.0988 429.30932,309.59678 429.12395,309.22604 428.99288,308.96389 428.63328,308.86644 428.5022,308.60429 428.1706,307.94109 428.8338,306.78048 428.5022,306.11728 428.37112,305.85513 428.01153,305.75768 427.88045,305.49553 427.69508,305.12479 428.01153,304.64525 427.88045,304.25202 427.7339,303.81238 427.40524,303.44816 427.2587,303.00852 426.86887,301.83904 427.7694,299.05592 427.2587,298.0345 426.4904,296.4979 426.63694,298.24912 426.63694,296.791 426.63694,295.72628 426.99505,292.53319 426.63694,291.81698 426.50587,291.55483 426.14627,291.45738 426.01519,291.19523 425.35199,289.86882 426.67839,287.54762 426.01519,286.22121 425.88412,285.95906 425.52452,285.86161 425.39344,285.59946 425.14474,285.10206 425.64214,284.23161 425.39344,283.7342 425.26236,283.47205 424.90277,283.37461 424.77169,283.11245 424.58822,282.74552 424.77169,281.66509 424.77169,281.2472 424.77169,279.79922 424.71679,280.51569 424.14994,279.38194 423.75591,278.5939 424.14994,276.55184 424.14994,275.65143 424.14994,275.23353 424.3334,274.15311 424.14994,273.78617 424.01886,273.52402 423.65926,273.42657 423.52818,273.16442 423.11368,272.33542 423.94269,270.88466 423.52818,270.05566 423.39711,269.7935 423.03751,269.69606 422.90643,269.43391 422.24323,268.1075 423.56963,265.78629 422.90643,264.45989 422.77536,264.19774 422.41576,264.10029 422.28468,263.83814 422.03598,263.34074 422.53338,262.47028 422.28468,261.97288 422.1536,261.71073 421.794,261.61328 421.66293,261.35113 421.41423,260.85373 421.91163,259.98327 421.66293,259.48587 421.53185,259.22372 421.17225,259.12627 421.04118,258.86412 420.79247,258.36672 421.28988,257.49627 421.04118,256.99886 420.9101,256.73671 420.5505,256.63927 420.41942,256.37711 420.16059,255.85945 420.81381,254.28449 420.41942,253.8901 420.27288,253.74356 419.94422,254.03665 419.79767,253.8901 419.52812,253.62056 420.05962,250.68348 419.79767,250.15959 419.66659,249.89744 419.307,249.79999 419.17592,249.53784 418.98822,249.16244 419.46333,247.96 419.17592,247.67258 419.02937,247.52603 418.70072,247.81913 418.55417,247.67258 418.05791,247.17632 418.88032,245.21613 418.55417,244.56382 418.42309,244.30167 418.06349,244.20422 417.93242,243.94207 417.68371,243.44467 418.18112,242.57422 417.93242,242.07681 417.80134,241.81466 417.44174,241.71722 417.31066,241.45506 416.97891,240.79156 417.64241,240.87506 417.31066,240.21156 417.17959,239.9494 416.81999,239.85196 416.68891,239.58981 416.50354,239.21906 416.98201,238.6394 416.68891,238.3463 416.54236,238.19975 416.21371,238.49285 416.06716,238.3463 415.77406,238.0532 416.25253,237.47354 416.06716,237.1028 415.93608,236.84064 415.57648,236.7432 415.44541,236.48105 415.35271,236.29567 415.59196,236.00584 415.44541,235.85929 415.29886,235.71274 414.9702,236.00584 414.82365,235.85929 414.53056,235.5662 415.11675,234.90889 414.82365,234.61579 414.67711,234.46924 414.34845,234.76234 414.2019,234.61579 414.05535,234.46924 414.2946,234.17941 414.2019,233.99404 414.07083,233.73188 413.71123,233.63444 413.58015,233.37228 413.48745,233.18691 413.67285,232.9359 413.58015,232.75053 413.318,232.22623 412.5988,232.03134 412.33665,231.50703 412.24395,231.32166 412.42935,231.07065 412.33665,230.88528 411.83924,229.89047 410.34704,229.39307 409.84964,228.39827 409.75694,228.2129 409.94234,227.96189 409.84964,227.77652 409.71856,227.51436 409.35896,227.41692 409.22789,227.15476 409.13519,226.96939 409.37443,226.67956 409.22789,226.53301 409.08134,226.38646 408.75268,226.67956 408.60613,226.53301 408.31304,226.23991 408.89923,225.5826 408.60613,225.28951 408.45959,225.14296 408.13093,225.43606 407.98438,225.28951 407.69128,224.99641 408.16975,224.41674 407.98438,224.046 407.8533,223.78385 407.49371,223.6864 407.36263,223.42425 407.26993,223.23888 407.50918,222.94905 407.36263,222.8025 407.21608,222.65595 406.88743,222.94905 406.74088,222.8025 406.44778,222.5094 406.92625,221.92974 406.74088,221.55899 406.6098,221.29684 406.2502,221.1994 406.11913,220.93724 406.02643,220.75187 406.26567,220.46204 406.11913,220.31549 405.97258,220.16894 405.64392,220.46204 405.49737,220.31549 405.20428,220.02239 405.79047,219.36508 405.49737,219.07199 405.35082,218.92544 405.02217,219.21853 404.87562,219.07199 404.72907,218.92544 404.96832,218.6356 404.87562,218.45023 404.74454,218.18808 404.38495,218.09064 404.25387,217.82848 404.16117,217.64311 404.40042,217.35328 404.25387,217.20673 404.10732,217.06018 403.77867,217.35328 403.63212,217.20673 403.48557,217.06018 403.77867,216.73153 403.63212,216.58498 403.48557,216.43843 403.15691,216.73153 403.01036,216.58498 402.86382,216.43843 403.10306,216.1486 403.01036,215.96323 402.87929,215.70107 402.51969,215.60363 402.38861,215.34147 402.29591,215.1561 402.53516,214.86627 402.38861,214.71972 402.24206,214.57317 401.91341,214.86627 401.76686,214.71972 401.62031,214.57317 401.85956,214.28334 401.76686,214.09797 401.50471,213.57366 400.78551,213.37877 400.52336,212.85447 400.43066,212.66909 400.61606,212.41808 400.52336,212.23271 400.39228,211.97056 400.03268,211.87311 399.9016,211.61096 399.8089,211.42559 400.04815,211.13576 399.9016,210.98921 399.75506,210.84266 399.4264,211.13576 399.27985,210.98921 399.1333,210.84266 399.4264,210.51401 399.27985,210.36746 399.1333,210.22091 398.80465,210.51401 398.6581,210.36746 398.51155,210.22091 398.86535,209.7457 398.6581,209.7457 398.45085,209.7457 398.45085,210.36746 398.6581,210.36746 398.86535,210.36746 398.86535,209.7457 398.6581,209.7457 398.45085,209.7457 398.6581,210.16021 398.6581,210.36746"
       inkscape:connector-curvature="0"
       id="path4075"
       style="fill:none;stroke:#0000e9;stroke-width:1;stroke-miterlimit:4;stroke-opacity:1;stroke-dasharray:none;stroke-dashoffset:0" />
    <path
       d="M 421.66293,166.22306 366.94874,134.5137"
       inkscape:connector-curvature="0"
       id="path4077"
       style="fill:none;stroke:#0000e9;stroke-width:1;stroke-miterlimit:4;stroke-opacity:1;stroke-dasharray:none;stroke-dashoffset:0" />
    <path
       d="M 426.63694,157.51853 373.16626,88.504047"
       inkscape:connector-curvature="0"
       id="path4079"
       style="fill:none;stroke:#0000e9;stroke-width:1;stroke-miterlimit:4;stroke-opacity:1;stroke-dasharray:none;stroke-dashoffset:0" />
    <path
       d="M 435.96323,159.38379 447.77652,76.690757"
       inkscape:connector-curvature="0"
       id="path4081"
       style="fill:none;stroke:#0000e9;stroke-width:1;stroke-miterlimit:4;stroke-opacity:1;stroke-dasharray:none;stroke-dashoffset:0" />
    <path
       d="M 486.83562,179.12899 522.89724,97.057713"
       inkscape:connector-curvature="0"
       id="path4083"
       style="fill:none;stroke:#0000e9;stroke-width:1;stroke-miterlimit:4;stroke-opacity:1;stroke-dasharray:none;stroke-dashoffset:0" />
    <path
       d="M 517.00852,188.9584 553.82981,109.55623"
       inkscape:connector-curvature="0"
       id="path4085"
       style="fill:none;stroke:#0000e9;stroke-width:1;stroke-miterlimit:4;stroke-opacity:1;stroke-dasharray:none;stroke-dashoffset:0" />
    <path
       d="M 564.36419,236.5306 643.11335,216.38993"
       inkscape:connector-curvature="0"
       id="path4087"
       style="fill:none;stroke:#0000e9;stroke-width:1;stroke-miterlimit:4;stroke-opacity:1;stroke-dasharray:none;stroke-dashoffset:0" />
    <path
       d="M 584.95207,275.21178 646.55508,270.52655"
       inkscape:connector-curvature="0"
       id="path4089"
       style="fill:none;stroke:#0000e9;stroke-width:1;stroke-miterlimit:4;stroke-opacity:1;stroke-dasharray:none;stroke-dashoffset:0" />
    <path
       d="M 570.88343,268.1904 C 578.66101,266.87509 585.1209,274.1216 586.39776,281.24317 589.12958,291.5181 587.35519,302.37122 583.40074,312.07308 578.81718,325.81576 573.59584,340.1164 562.65918,350.17601 553.36962,359.17401 542.25109,366.56259 535.04514,377.50555 532.04823,382.07658 531.74386,388.9301 536.32151,392.61316 539.9056,396.0171 545.01034,398.11752 547.06879,402.89977 546.92423,402.55555 546.77966,402.21132 546.6351,401.8671"
       inkscape:connector-curvature="0"
       id="path4091"
       style="fill:none;stroke:#0000e9;stroke-width:1;stroke-miterlimit:4;stroke-opacity:1;stroke-dasharray:none;stroke-dashoffset:0" />
    <path
       d="M 431.61096,309.84779 C 436.01687,312.27743 441.18648,309.30029 445.74148,311.21439 454.56192,312.85668 463.47813,315.95673 470.04568,322.31161 472.9949,325.13362 476.36533,327.47893 479.40162,330.16695 484.16402,335.00583 489.77421,338.98986 493.87215,344.45945 497.66897,348.5941 499.81976,354.4602 498.25596,360.01989 497.23929,364.75723 493.64497,368.52486 489.21837,370.30927 484.99265,372.69848 480.17108,375.56404 475.14456,374.01385 469.38121,373.2284 463.54956,373.02764 457.83099,371.88645 453.12631,371.5926 449.25399,368.87848 445.25287,366.71269 441.75537,365.06782 437.83443,364.37793 434.72937,361.91533 431.01602,359.21861 427.28429,356.48367 423.79869,353.52094 418.44137,347.90504 414.77842,340.32626 414.70241,332.49731 415.6228,325.9393 419.49908,320.34381 422.28502,314.50409 424.0777,312.07254 427.56648,311.05332 428.50222,307.98254"
       inkscape:connector-curvature="0"
       id="path4093"
       style="fill:none;stroke:#0000e9;stroke-width:1;stroke-miterlimit:4;stroke-opacity:1;stroke-dasharray:none;stroke-dashoffset:0" />
    <path
       d="M 370.0575,258.24237 C 377.77713,256.85126 376.32817,268.16878 378.58101,272.98806 379.6334,279.2161 380.87381,285.398 381.99882,291.61161 383.02363,299.62709 382.14686,307.89092 384.2832,315.75668 384.68716,323.74698 388.26845,331.07561 389.34861,338.9383 390.94442,346.83864 395.41886,353.57304 398.7809,360.75142 403.47949,369.41668 389.7997,366.15546 385.86995,370.13388 379.68398,374.16025 377.39419,383.74442 383.34272,388.87617 387.13227,394.09318 393.99105,395.33878 398.76818,399.39659 404.42552,403.15458 410.38682,406.70118 417.4151,405.91653 422.82286,405.67535 428.26554,401.39946 430.14879,396.39512 429.57592,390.26977 421.89325,388.5259 418.41138,384.14926 411.78145,378.75352 406.90916,371.29871 399.39516,366.98034 398.31422,366.34413 397.80689,367.42814 398.03636,365.80548"
       inkscape:connector-curvature="0"
       id="path4095"
       style="fill:none;stroke:#0000e9;stroke-width:1;stroke-miterlimit:4;stroke-opacity:1;stroke-dasharray:none;stroke-dashoffset:0" />
    <path
       d="M 422.28468,419.27616 C 423.96751,417.82695 422.15457,415.67397 422.28968,418.80402 423.31832,414.61996 422.71302,409.66976 426.39454,406.80595 430.53855,403.96452 435.59603,406.40232 440.0401,407.04975 444.61526,407.66821 448.71221,409.94251 453.23332,410.53787 457.28475,411.40238 461.18278,412.39813 465.39375,412.74143 471.02751,413.10667 476.64703,413.729 482.25041,414.36277 487.23199,413.67351 492.01458,414.52825 496.8718,415.1212 501.76743,414.62335 507.03582,415.70869 511.49173,413.03845 514.8593,410.27047 518.94225,409.19918 522.92849,407.57539 526.75081,405.88668 529.1617,401.84848 533.48622,401.01403 538.55245,397.74665 544.8439,402.22226 543.52652,408.08462 541.77475,408.20651 544.98456,410.80035 543.16207,408.67947 542.37891,408.13893 543.03772,406.0635 541.66126,406.21937"
       inkscape:connector-curvature="0"
       id="path4097"
       style="fill:none;stroke:#0000e9;stroke-width:1;stroke-miterlimit:4;stroke-opacity:1;stroke-dasharray:none;stroke-dashoffset:0" />
    <path
       d="M 434.71972,404.97586 C 433.46993,401.57012 432.12471,398.02191 431.44359,394.53108 432.02082,389.87895 435.09916,390.07331 438.94177,389.81418 451.69825,394.21582 461.51205,396.72375 473.65569,397.77415 489.42832,398.58649 497.82858,394.5802 506.97245,392.44798 511.74239,392.0295 519.58372,382.92719 524.37309,383.07069 529.37998,382.38661 531.92012,392.16194 535.35919,396.07058 536.73656,397.72738 536.65223,400.14615 535.44359,401.86718"
       inkscape:connector-curvature="0"
       id="path4099"
       style="fill:none;stroke:#0000e9;stroke-width:1;stroke-miterlimit:4;stroke-opacity:1;stroke-dasharray:none;stroke-dashoffset:0" />
    <path
       d="M 578.31322,325.42284 626.18813,333.82564"
       inkscape:connector-curvature="0"
       id="path4101"
       style="fill:none;stroke:#0000e9;stroke-width:1;stroke-miterlimit:4;stroke-opacity:1;stroke-dasharray:none;stroke-dashoffset:0" />
    <path
       d="M 561.06444,323.91828 C 561.38146,325.02266 561.68404,326.17187 561.54396,327.33033 560.73445,327.85051 561.02669,329.24255 561.90335,329.52191 562.77398,330.00782 563.22216,330.93852 563.81442,331.69591 564.6281,332.21526 565.6756,331.44755 566.46286,332.04907 567.6461,332.73431 569.02225,332.17998 570.21346,331.81757 572.32668,331.25611 574.12914,329.9691 575.99374,328.88721 576.80619,328.551 577.51098,327.95205 577.95737,327.19286 L 578.07596,327.08353 578.21081,326.99523"
       inkscape:connector-curvature="0"
       id="path4103"
       style="fill:none;stroke:#0000e9;stroke-width:1;stroke-miterlimit:4;stroke-opacity:1;stroke-dasharray:none;stroke-dashoffset:0" />
    <path
       d="M 369.48712,136.41189 C 386.81891,146.16075 404.05482,156.20899 421.07673,166.51384 421.17613,168.7951 418.76802,170.59338 417.76565,172.55896 410.9504,182.67137 400.80474,191.13024 388.52434,193.28243 382.74426,194.01437 376.62443,194.52047 370.95719,193.18107 370.87249,190.20529 372.34301,186.70747 370.94349,183.9073 367.74861,183.03193 368.759,178.83674 368.44301,176.37838 368.44357,163.17668 368.03969,149.93193 368.77274,136.75536 368.84434,136.45846 369.20961,136.28634 369.48716,136.41189 z"
       inkscape:connector-curvature="0"
       id="path4105"
       style="fill:#6a72bc;stroke:none" />
    <path
       d="M 373.16915,90.359064 C 376.78337,92.916105 379.03856,97.117177 381.98865,100.3987 396.70497,119.26491 411.3271,138.22038 425.99526,157.13017 425.29109,160.03778 423.28554,162.70785 422.09341,165.52464 419.8271,165.69894 417.55689,163.09424 415.3015,162.22614 399.74272,153.24256 384.18871,144.25073 368.63531,135.25782 368.04945,128.73905 368.54721,121.936 368.37427,115.30893 368.43527,108.71968 368.23458,102.08806 368.45667,95.524895 369.99104,93.902856 370.93413,91.211734 373.04546,90.345326 L 373.16911,90.359066 z"
       inkscape:connector-curvature="0"
       id="path4107"
       style="fill:#746bdb;stroke:none" />
    <path
       d="M 428.57818,73.157949 C 434.64234,74.501409 441.00623,75.018529 446.86467,76.991105 448.03551,78.90219 446.41482,81.46543 446.543,83.572844 442.9716,108.98127 439.29573,134.37677 435.70867,159.78178 434.42168,160.74746 432.61714,159.07526 431.1294,159.14123 428.68487,158.72651 426.21504,157.87012 425.16574,155.38581 408.28079,133.27618 391.12826,111.32394 374.24079,89.246213 374.64479,86.783542 377.54495,85.600672 379.13184,83.901777 389.87125,75.0378 404.0442,71.933566 417.62106,71.148923 421.27343,71.818599 424.9258,72.488274 428.57818,73.157949 z"
       inkscape:connector-curvature="0"
       id="path4109"
       style="fill:#b1daa9;stroke:none" />
    <path
       d="M 573.83967,268.37412 C 581.38845,269.6695 586.06979,277.12958 586.78304,284.33313 588.42917,294.28179 586.39083,304.40095 582.60604,313.62369 580.70132,318.24297 579.67567,323.36685 577.08206,327.63004 574.43538,329.54488 571.41588,331.53492 568.11055,331.91658 565.0375,332.23458 560.63942,329.9352 561.85934,326.31111 563.48728,320.946 566.06969,315.91297 567.14226,310.33153 570.38189,296.71101 571.66287,282.5946 571.47658,268.58021 571.67455,267.51638 573.19735,268.48031 573.83967,268.37412 z"
       inkscape:connector-curvature="0"
       id="path4119"
       style="fill:#c7afc8;stroke:none" />
    <path
       d="M 398.24266,367.06071 C 402.80687,368.70992 405.93412,372.88526 409.53889,375.9674 414.9962,381.50783 420.74749,386.59203 426.84707,391.36485 429.04094,393.11326 430.68168,396.33289 428.57818,398.82507 424.78848,404.63021 416.98864,407.34973 410.41534,404.93889 402.58526,402.41205 396.22848,396.89828 388.99638,393.20586 384.48507,390.13341 379.33759,385.70832 380.34086,379.61808 380.97743,374.91338 384.44591,370.56474 388.83151,368.91547 391.9252,368.16632 395.04968,367.19846 398.24266,367.06071 z"
       inkscape:connector-curvature="0"
       id="path4123"
       style="fill:#a4a7da;stroke:none" />
    <path
       d="M 537.77503,400.25392 C 540.15505,400.70451 542.96888,402.73452 543.00956,405.30984 542.61593,405.91742 541.81493,405.99855 542.36383,406.98599 543.51832,409.82276 541.37804,412.15578 539.45069,413.93944 536.87199,417.17356 534.37217,420.42997 530.89184,422.74452 530.29013,424.0207 528.54787,423.55801 528.22649,425.01144 525.90408,427.82982 523.34551,430.71629 520.39531,432.8014 519.7258,434.29851 518.4066,435.41807 517.04302,436.05752 516.38074,437.45579 515.13754,438.57323 514.17159,439.71207 512.94768,440.14517 511.94075,440.77723 510.98416,441.51187 507.87936,442.94282 504.39922,443.48738 500.94102,443.50401 489.35652,444.09552 477.78527,442.48078 466.67728,439.22784 453.99912,435.72784 441.41093,431.69431 429.27886,426.67384 425.39359,424.77853 422.22069,420.49828 423.13752,415.98583 423.19022,411.72556 424.99138,406.17706 430.02076,405.88687 435.64124,405.80497 441.12695,407.62537 446.52119,409.00561 461.51384,413.48797 477.34197,414.13262 492.90157,414.86091 498.49633,415.40008 504.38168,415.37359 509.81635,414.089 514.26274,411.49717 519.00839,409.32134 523.73387,407.30198 527.50659,405.51836 530.37443,401.10496 534.87612,401.32555 536.08411,402.36998 535.96276,400.6652 536.93696,400.32261 537.20391,400.21383 537.49383,400.23101 537.77503,400.25391 z"
       inkscape:connector-curvature="0"
       id="path4125"
       style="fill:#c7a1db;stroke:none" />
    <path
       d="M 428.41331,310.38771 C 429.694,310.50046 429.1241,312.99149 430.61154,311.89899 432.72699,309.68862 436.31327,311.22367 439.00542,310.91881 451.05841,311.23133 463.07227,315.84935 471.88322,324.12662 480.18748,331.59245 489.16414,338.63778 495.8164,347.64763 501.05504,354.7029 498.14538,365.9366 490.11574,369.50103 485.71439,371.68447 481.21557,375.05791 476.00489,373.88895 466.33727,372.5836 455.91253,372.75725 447.32028,367.61204 441.33168,364.87585 435.20442,362.47542 430.10273,358.16311 421.48003,352.40447 414.71975,342.65259 415.12778,331.98528 416.20674,325.99032 419.48422,320.56374 422.43688,315.2925 423.96692,313.40916 425.93798,310.8068 428.41331,310.38771 z M 434.00505,315.71841 C 432.36007,315.34433 431.41825,316.23249 431.61448,317.8342 428.62411,320.32965 426.63843,324.29067 425.48692,328.1109 425.50242,332.72457 429.04196,336.72068 433.44175,337.9617 437.28341,339.17056 441.87612,341.5085 445.50451,338.51126 449.85981,335.8503 451.42322,329.8293 448.65072,325.44555 445.82284,320.14408 440.29792,315.52546 434.00505,315.71841 z"
       inkscape:connector-curvature="0"
       id="path4129"
       style="fill:#8a7294;stroke:none" />
    <path
       d="M 436.16206,316.24048 C 440.84529,317.2898 445.18932,320.32179 447.45544,324.63496 449.96704,328.01466 450.53862,332.98145 447.33179,336.12069 445.15481,339.14049 441.13797,340.28574 437.68707,338.84099 432.94007,337.69745 427.50063,335.39869 426.29752,330.13052 425.17136,326.77015 428.00479,323.62807 429.58112,320.89798 430.74352,319.44901 432.10537,318.19159 432.83724,316.5977 433.8512,316.14591 435.0728,316.21413 436.16206,316.24048 z"
       inkscape:connector-curvature="0"
       id="path4131"
       style="fill:#bfb879;stroke:none" />
    <path
       d="M 436.38385,189.89747 C 436.73064,191.56113 435.16698,193.16685 435.05118,194.89843 432.375,197.23428 432.5778,201.33432 430.65473,204.22715 427.71841,210.71954 427.27706,218.01059 426.32697,225.0416 425.92671,229.28314 425.74053,233.58724 425.29655,237.79131 426.2105,241.51891 425.7749,245.60841 426.78036,249.40069 427.8288,258.76448 427.67813,268.2573 428.90823,277.57843 428.80853,281.80539 429.61494,285.96998 430.009,290.10908 429.9579,291.61279 431.27653,292.6607 430.79212,294.31318 431.37913,298.30507 431.38703,302.53472 430.40743,306.48586 429.00758,307.73653 428.21153,304.86119 427.98938,303.8892 427.09199,298.73987 426.77943,293.41834 426.39567,288.18563 426.50847,285.93265 424.98635,284.204 425.11795,281.87947 424.29405,279.45022 424.06038,276.95672 424.431,274.4055 423.42424,271.4968 423.1793,268.32801 423.23572,265.20043 422.74116,263.15651 422.11999,261.06309 421.54583,259.00419 420.51012,255.50684 420.47363,251.70955 419.33387,248.26036 419.27707,247.3691 418.29346,246.80001 418.81179,245.71866 418.47731,243.13584 417.41992,240.60185 416.72347,238.09356 415.68111,235.67278 414.09416,233.43302 412.71171,231.10046 408.1869,226.09995 406.61367,219.12557 402.07743,214.16809 401.65223,212.90637 398.91488,210.94503 400.69017,209.80515 412.52028,203.37056 424.00763,196.42917 435.72439,189.81503 435.94107,189.74193 436.19136,189.71673 436.38385,189.89743 z"
       inkscape:connector-curvature="0"
       id="path4133"
       style="fill:#a7b0c5;stroke:none" />
    <path
       d="M 641.91468,217.30612 C 646.38446,234.21318 647.98828,252.14105 645.55549,269.54146 644.87903,271.36971 641.97452,270.08012 640.49945,270.69786 622.02046,272.16349 603.53824,273.59791 585.06307,275.10572 581.63358,272.39155 578.66222,268.08537 573.79716,268.0027 570.06208,268.85217 571.67856,264.33514 571.22197,262.15269 571.5042,253.47964 567.70101,245.60024 564.60583,237.72214 565.19171,236.17859 567.72531,236.62259 569.0543,235.89917 593.12971,229.47551 617.23171,223.07377 641.43382,217.18247 L 641.85961,217.29196 641.91468,217.30616 z"
       inkscape:connector-curvature="0"
       id="path5900"
       style="fill:#e19179;stroke:none" />
    <path
       d="M 645.10211,271.2863 C 643.79446,278.99345 640.60885,286.39903 638.46621,293.9555 634.27059,306.62992 630.55652,319.50031 625.89511,331.99854 625.14216,334.52109 622.02316,332.31169 620.2759,332.50688 606.81678,330.19289 593.3352,327.93354 579.93846,325.30769 578.88662,323.97507 580.69363,321.83132 580.83078,320.24609 584.70978,309.30616 589.30512,297.96391 587.5086,286.09685 587.31437,282.58278 585.85534,279.32204 585.11803,275.98501 587.33924,274.82018 590.4098,275.41712 592.92746,274.90449 610.18106,273.59172 627.42246,271.94135 644.70368,271.09396 L 645.0996,271.28509 645.1021,271.28609 z"
       inkscape:connector-curvature="0"
       id="path5902"
       style="fill:#cda392;stroke:none" />
    <path
       d="M 601.64594,329.77284 C 609.32729,331.26878 617.20502,332.26584 624.74104,334.22425 625.51475,336.74288 623.33902,339.22272 622.51534,341.51961 617.19938,351.18996 611.53861,361.04607 603.30834,368.53031 599.26624,372.28367 594.0836,374.2271 588.96492,376.01801 586.06313,377.82111 583.65994,380.95569 579.84229,380.81289 574.50953,381.23693 568.70406,379.50816 563.89141,382.54399 562.79651,382.54199 562.59595,383.24977 561.83057,383.7118 560.00385,384.12979 558.30441,385.36014 556.76092,386.22602 556.26163,387.3672 554.96702,387.13964 554.35661,388.14947 552.10005,389.19378 550.47832,391.47159 549.49303,393.67251 548.82243,396.27069 549.19305,399.29671 547.22611,401.39378 543.9649,398.81745 540.98424,395.71492 537.55392,393.17791 533.38209,390.32333 531.94243,384.59995 534.13293,380.07099 538.2809,371.90056 545.76689,366.08346 552.24081,359.8061 561.33035,351.83957 570.72876,343.64369 575.6974,332.42965 576.95011,330.30186 577.45223,327.5053 579.1416,325.8023 586.64305,327.12581 594.14449,328.44933 601.64594,329.77284 z"
       inkscape:connector-curvature="0"
       id="path5904"
       style="fill:#d5be93;stroke:none" />
    <path
       d="M 449.21273,77.390542 C 468.89987,81.276745 488.2786,86.843603 507.49318,92.66821 512.21563,94.437039 517.46869,95.374286 521.71296,98.095079 521.45687,100.75536 519.48135,103.35675 518.64008,105.98715 508.23201,129.53175 498.24046,153.3075 487.20081,176.54426 485.23923,177.0525 483.13162,175.18811 481.14492,174.80352 466.38175,169.19011 451.25776,164.44685 436.03711,160.29112 435.24945,158.92023 436.66114,156.85569 436.53099,155.20468 440.45388,129.43466 444.35124,103.64857 447.81136,77.816448 448.07543,77.290676 448.72992,77.371829 449.21273,77.390542 z"
       inkscape:connector-curvature="0"
       id="path6159"
       style="fill:#dbc198;stroke:none" />
    <path
       d="M 523.56771,98.20499 C 533.25554,101.51995 542.98165,105.0968 552.26829,109.29229 553.24403,111.33052 551.09543,113.59997 550.61962,115.57097 539.69247,140.16854 527.65629,164.36238 517.17912,189.10162 517.82633,190.85787 515.65182,190.39901 514.84375,189.61592 506.27783,185.32595 497.4249,181.58546 488.75331,177.61589 488.19115,175.899 490.11042,174.08245 490.42016,172.36148 501.05324,147.66606 511.55811,122.85943 522.70216,98.383596 522.87926,98.079905 523.28821,98.126543 523.56771,98.20499 z"
       inkscape:connector-curvature="0"
       id="path6161"
       style="fill:#736cd4;stroke:none" />
    <path
       d="M 554.68634,110.55627 C 563.42556,113.45706 571.49824,118.19239 579.55377,122.60529 591.5509,129.98977 602.09245,139.60645 611.28664,150.22595 618.41832,158.9811 625.08182,168.26736 630.058,178.41275 634.67325,190.02159 638.05976,202.11731 641.36512,214.16139 642.1563,215.67899 641.52028,217.08664 639.66311,216.98233 614.66511,223.42238 589.68255,230.0059 564.60583,236.08869 561.98304,234.53212 561.3179,230.99991 559.52343,228.67133 554.1912,220.15026 548.28504,211.74982 541.3596,204.46172 533.89009,199.05413 525.21261,195.55905 517.46763,190.55794 516.03977,189.15703 518.63375,187.1607 518.79569,185.60873 530.4107,160.61225 541.94722,135.55599 553.84827,110.7074 554.06655,110.51138 554.4159,110.50717 554.68634,110.55627 z"
       inkscape:connector-curvature="0"
       id="path6163"
       style="fill:#bf9784;stroke:none" />
    <path
       d="M 525.02017,383.25328 C 527.72775,383.40415 529.19741,386.16617 530.44902,388.21676 532.14519,391.26646 533.90527,394.28371 535.86704,397.16393 536.29512,398.15179 536.49806,400.04162 535.02896,400.20023 532.28148,401.09959 529.63094,402.34818 527.44508,404.28755 524.6652,406.79951 521.17886,408.20856 517.71107,409.47399 514.92144,410.42253 512.60981,412.23966 510.04475,413.58879 506.36501,415.10786 502.24732,414.75299 498.34609,414.9121 493.72647,414.80468 489.17455,413.95251 484.53847,414.05592 477.56766,413.98352 470.64427,413.07514 463.71916,412.37068 456.72763,411.41755 449.87731,409.69697 443.14431,407.67824 440.36873,406.84384 437.39728,406.56989 434.63875,405.68205 433.9458,405.22722 434.93646,404.5737 434.41892,403.9853 433.59377,400.70172 431.86056,397.55358 431.70549,394.12076 431.79409,391.51289 434.4445,390.14107 436.76828,390.08152 440.2512,389.81488 443.46193,391.64333 446.75146,392.44109 455.31864,395.05597 464.13736,397.14049 473.08673,397.78625 480.95328,398.08859 488.91494,397.61488 496.47771,395.42048 500.71598,394.16364 505.10935,393.25135 509.28911,391.77827 513.94867,389.51581 517.69885,385.61981 522.49908,383.56241 523.31531,383.33063 524.17136,383.21404 525.02017,383.25328 z"
       inkscape:connector-curvature="0"
       id="path8930"
       style="fill:#aac7db;stroke:none" />
  </g>
</svg>
