<?xml version="1.0" encoding="UTF-8" standalone="no"?>
<!-- Created with Inkscape (http://www.inkscape.org/) -->

<svg
   xmlns:dc="http://purl.org/dc/elements/1.1/"
   xmlns:cc="http://creativecommons.org/ns#"
   xmlns:rdf="http://www.w3.org/1999/02/22-rdf-syntax-ns#"
   xmlns:svg="http://www.w3.org/2000/svg"
   xmlns="http://www.w3.org/2000/svg"
   xmlns:xlink="http://www.w3.org/1999/xlink"
   xmlns:inkscape="http://www.inkscape.org/namespaces/inkscape"
   version="1.1"
   width="740"
   height="520"
   id="svg2"
   style="enable-background:new">
  <defs
     id="defs4">
    <filter
       color-interpolation-filters="sRGB"
       id="filter3050">
      <feBlend
         in2="BackgroundImage"
         mode="lighten"
         id="feBlend3052" />
    </filter>
  </defs>
  <metadata
     id="metadata7">
    <rdf:RDF>
      <cc:Work
         rdf:about="">
        <dc:format>image/svg+xml</dc:format>
        <dc:type
           rdf:resource="http://purl.org/dc/dcmitype/StillImage" />
        <dc:title />
      </cc:Work>
    </rdf:RDF>
  </metadata>
  <g
     id="layer1"
     style="display:none">
    <image
       xlink:href="pngs/coronal-0696.png"
       id="MRISLICE"
       height="520"
       width="740"
       y="0"
       x="0" />
  </g>
  <g
     id="layer3"
     style="display:inline">
    <path
       d="M 362.7996,120.52318 362.68184,147.725 M 372.68184,147.725 371.80775,349.63993 C 374.34032,383.2601 375.60554,415.61292 369.9425,441.03748 L 396.67784,434.81996 C 416.30481,434.31086 434.38274,430.39387 445.79625,411.81514 479.17985,392.89898 490.15664,415.99557 511.70197,419.27616 545.18983,432.01243 575.39983,471.79103 614.91282,434.81996 630.66387,414.50939 644.75692,390.05381 657.19196,361.45322 682.40218,317.25912 707.4618,288.1068 687.03606,199.17592 661.85813,128.36362 607.54131,80.861365 523.51526,57.416442 503.80478,58.272662 405.54178,10.258499 373.05126,62.390459 L 372.7996,120.52318"
       inkscape:connector-curvature="0"
       id="path2990"
       style="fill:none;stroke:#0000e9;stroke-width:1;stroke-miterlimit:4;stroke-opacity:1;stroke-dasharray:none;stroke-dashoffset:0" />
    <path
       d="M 432.73946,383.83629 C 432.15237,383.10057 431.23261,382.6941 430.72848,381.8836 436.01609,384.81414 428.46905,380.77863 426.64262,381.2573 425.46451,381.44376 424.11981,382.13433 423.92608,383.43114 423.63014,385.32681 424.62778,387.11869 425.74701,388.56756 426.81269,390.0213 427.67784,391.61032 428.72052,393.07843 429.75014,394.33738 431.34995,395.36489 433.03609,395.09071 434.46071,394.82616 435.58603,393.33955 435.28022,391.8883 435.20402,390.85546 435.19322,389.81344 435.33072,388.78668 435.30212,387.64929 434.57826,386.70717 433.89251,385.86427 433.46183,385.21608 433.0747,384.53871 432.73951,383.83629 z"
       inkscape:connector-curvature="0"
       id="path2992"
       style="fill:none;stroke:#0000e9;stroke-width:1;stroke-miterlimit:4;stroke-opacity:1;stroke-dasharray:none;stroke-dashoffset:0" />
    <path
       d="M 408.18025,325.08072 C 400.15623,321.13172 396.36795,336.14361 404.38485,338.22697 409.2086,340.0771 416.19586,326.81163 408.98095,325.21668 L 408.18025,325.08072 z"
       inkscape:connector-curvature="0"
       id="path2994"
       style="fill:none;stroke:#0000e9;stroke-width:1;stroke-miterlimit:4;stroke-opacity:1;stroke-dasharray:none;stroke-dashoffset:0" />
    <path
       d="M 362.94779,121.14603 C 366.73231,121.9083 379.54201,120.99393 382.82307,120.67872 389.27587,120.05808 394.61457,114.6855 399.25396,110.87428 409.44463,102.50272 418.28377,91.463139 440.20048,97.208936 495.79683,101.52822 548.03345,124.52431 586.34994,176.7932 587.67679,179.91513 624.49521,213.19736 621.75209,287.46508"
       inkscape:connector-curvature="0"
       id="path3046"
       style="fill:none;stroke:#0000e9;stroke-width:1;stroke-miterlimit:4;stroke-opacity:1;stroke-dasharray:none;stroke-dashoffset:0" />
    <path
       d="M 620.15625,284 C 618.40211,299.90812 612.90126,324.90634 608.78125,347.5 L 608.75005,347.6875 608.75005,347.875 C 609.00029,350.40595 607.85498,356.03365 606.25005,361.0625 605.44758,363.57692 604.56293,365.97053 603.7188,367.875 602.87467,369.77947 601.95526,371.23311 601.6563,371.53125 L 603.62505,373.53125 C 604.6076,372.55136 605.35166,371.02688 606.25005,369 607.14844,366.97312 608.0767,364.50571 608.9063,361.90625 610.51412,356.8682 611.74578,351.60272 611.5,348 L 611.5312,348 C 615.63761,325.48088 621.14877,300.5338 622.93745,284.3125 621.07022,279.61196 620.15825,279.58163 620.15625,284 z"
       inkscape:connector-curvature="0"
       id="path3044"
       style="font-size:medium;font-style:normal;font-variant:normal;font-weight:normal;font-stretch:normal;text-indent:0;text-align:start;text-decoration:none;line-height:normal;letter-spacing:normal;word-spacing:normal;text-transform:none;direction:ltr;block-progression:tb;writing-mode:lr-tb;text-anchor:start;baseline-shift:baseline;color:#000000;fill:#73a0a6;fill-opacity:1;stroke:none;stroke-width:2.79999995;marker:none;visibility:visible;display:inline;overflow:visible;enable-background:accumulate;font-family:Sans;-inkscape-font-specification:Sans" />
    <path
       d="M 619.34375,285.625 C 602.46635,295.63905 595.79764,310.61942 581.875,323.625 L 581.875,323.6562 C 577.73886,327.39624 573.47868,331.38957 570.125,334.7812 568.44358,336.48164 566.97825,338.02567 565.875,339.31245 564.77175,340.59923 564.03276,341.5338 563.6875,342.4687 L 565.65625,343.18745 C 565.74855,342.93767 566.41895,341.91188 567.46875,340.68745 568.51855,339.46302 569.93392,337.95981 571.59375,336.2812 574.91341,332.92398 579.18803,328.91606 583.3125,325.18745 L 583.3125,325.15625 C 597.57212,311.83589 604.14774,297.10287 620.4375,287.4375 L 619.34375,285.625 z"
       inkscape:connector-curvature="0"
       id="path2996"
       style="font-size:medium;font-style:normal;font-variant:normal;font-weight:normal;font-stretch:normal;text-indent:0;text-align:start;text-decoration:none;line-height:normal;letter-spacing:normal;word-spacing:normal;text-transform:none;direction:ltr;block-progression:tb;writing-mode:lr-tb;text-anchor:start;baseline-shift:baseline;color:#000000;fill:#73a0a6;fill-opacity:1;stroke:none;stroke-width:2.0999999;marker:none;visibility:visible;display:inline;overflow:visible;enable-background:accumulate;font-family:Sans;-inkscape-font-specification:Sans" />
    <path
       d="M 362.63691,147.72593 C 365.62508,147.47501 379.45929,147.91605 382.09746,146.87402 389.50069,143.94988 396.85884,139.96721 402.76973,134.89824 418.31789,121.56467 431.65924,104.6183 467.92179,108.87747 509.33619,115.03693 542.74416,139.70847 570.14667,176.79284 593.79282,196.66934 608.98372,222.82494 617.7107,257.62061 618.46115,268.2124 620.0136,273.07478 620.19771,287.7756"
       inkscape:connector-curvature="0"
       id="path2998"
       style="fill:none;stroke:#0000e9;stroke-width:1;stroke-miterlimit:4;stroke-opacity:1;stroke-dasharray:none;stroke-dashoffset:0" />
    <path
       d="M 443.931,96.586824 C 429.00895,104.27999 414.08689,119.38862 399.16484,110.26537"
       inkscape:connector-curvature="0"
       id="path3000"
       style="fill:none;stroke:#0000e9;stroke-width:1;stroke-miterlimit:4;stroke-opacity:1;stroke-dasharray:none;stroke-dashoffset:0" />
    <path
       d="M 466.93582,374.51001 C 466.33753,375.73093 465.3866,373.77951 464.50805,374.53771 463.14879,374.76582 461.78007,374.39013 460.54233,373.85659 458.70175,373.52162 457.26207,374.98511 455.7819,375.81352 453.42678,377.27614 450.76566,378.56079 449.23518,380.98083 448.29632,382.43577 447.05612,383.75259 446.55521,385.44236 446.27181,386.58631 446.25382,387.77099 446.02596,388.9277 445.75126,390.49142 446.25707,392.14141 447.41301,393.24178 448.75142,394.60709 450.87237,395.06038 452.65904,394.38853 454.97889,393.73156 457.13593,392.59362 459.21418,391.39638 461.37727,389.88613 463.2755,388.02179 465.07126,386.10103 466.49538,384.38636 467.15658,382.21152 467.56969,380.05992 467.88995,378.70156 468.37211,377.12951 467.53389,375.85884 467.3066,375.42293 467.06163,374.98884 466.93579,374.50997 z"
       inkscape:connector-curvature="0"
       id="path3002"
       style="fill:none;stroke:#0000e9;stroke-width:1;stroke-miterlimit:4;stroke-opacity:1;stroke-dasharray:none;stroke-dashoffset:0" />
    <path
       d="M 482.47963,406.21937 C 479.16768,393.47286 481.52348,378.46235 491.45671,369.18274 500.07089,360.48091 510.31734,353.53119 518.41093,344.28702 527.72359,334.96188 535.06474,328.80126 541.86315,315.68237 546.80258,302.8736 536.51212,313.93639 533.53073,315.59907 520.84713,323.34227 509.59076,333.12961 498.53568,342.99341 496.44215,348.54507 491.23143,351.55857 486.99284,355.12452 481.16454,360.27403 477.85508,367.45619 475.81001,374.82416 473.38463,383.78577 465.59039,389.42772 459.92291,396.24837 455.18902,400.36329 449.93327,404.37955 447.00467,410.09654 446.76829,410.72104 444.42334,413.75307 446.418,413.05861"
       inkscape:connector-curvature="0"
       id="path3004"
       style="fill:none;stroke:#0000e9;stroke-width:1;stroke-miterlimit:4;stroke-opacity:1;stroke-dasharray:none;stroke-dashoffset:0" />
    <path
       d="M 535.32855,314.82181 C 534.69593,313.41191 537.88908,312.78029 535.8133,314.19262 541.00077,308.39312 541.14591,301.80106 544.47597,294.86499 546.09139,289.6058 548.09506,283.43781 547.17558,278.1605 542.86637,273.77823 536.90339,278.58164 532.33464,280.10605 525.76387,283.53368 520.09346,288.42625 514.10916,292.71817 506.65379,300.21172 501.38157,309.45236 495.70893,318.27893 488.34474,328.50655 480.33841,339.14356 468.68574,344.72881 465.86712,347.18448 459.01832,345.31533 456.87912,347.9395 460.85837,359.51717 475.05743,362.97579 479.57744,361.19505 480.94147,360.85869 485.06621,360.59713 483.10138,358.34446"
       inkscape:connector-curvature="0"
       id="path3006"
       style="fill:none;stroke:#0000e9;stroke-width:1;stroke-miterlimit:4;stroke-opacity:1;stroke-dasharray:none;stroke-dashoffset:0" />
    <path
       d="M 504.24095,304.87378 C 485.8819,318.2913 461.81923,328.34488 456.98779,347.77467"
       inkscape:connector-curvature="0"
       id="path3008"
       style="fill:none;stroke:#0000e9;stroke-width:1;stroke-miterlimit:4;stroke-opacity:1;stroke-dasharray:none;stroke-dashoffset:0" />
    <path
       d="M 584.64738,214.92125 C 597.96392,227.36494 566.36793,300.9522 554.78842,312.2124 552.07658,314.68328 549.29608,317.81402 546.69214,320.2878 546.26002,320.69832 542.72399,323.7332 542.30271,324.10153"
       inkscape:connector-curvature="0"
       id="path3052"
       style="fill:none;stroke:#0000e9;stroke-width:1;stroke-miterlimit:4;stroke-opacity:1;stroke-dasharray:none;stroke-dashoffset:0" />
    <path
       d="M 545.12115,321.81652 C 545.40605,335.83769 550.48756,346.38559 565.65001,342.22309"
       inkscape:connector-curvature="0"
       id="path3054"
       style="fill:none;stroke:#0000e9;stroke-width:1;stroke-miterlimit:4;stroke-opacity:1;stroke-dasharray:none;stroke-dashoffset:0" />
    <path
       d="M 580.75417,325.36036 C 578.35442,313.60434 570.56112,308.56548 554.91374,311.71305"
       inkscape:connector-curvature="0"
       id="path3056"
       style="fill:none;stroke:#0000e9;stroke-width:1;stroke-miterlimit:4;stroke-opacity:1;stroke-dasharray:none;stroke-dashoffset:0" />
    <path
       d="M 578.32697,185.70804 C 576.96266,191.93259 575.3997,209.37874 576.62854,217.88194 M 585.64395,214.15143 C 583.27363,217.88813 576.93934,215.40003 576.08369,220.06423 575.35679,223.31419 574.63137,226.57353 573.32814,229.64995 571.93903,233.48971 570.24125,237.32984 567.37213,240.30226 565.81487,243.08981 560.82324,243.0084 560.25893,239.52906 559.76096,236.85037 559.66132,234.10832 558.98415,231.45462 558.5009,229.4113 558.91745,227.30235 559.97272,225.51298 561.7979,221.14033 563.36112,216.36304 562.55364,211.57245 563.71748,208.14949 563.10509,204.38638 564.51909,201.03084 565.15164,197.58691 566.32742,194.12232 565.7449,190.58889 565.45899,187.43179 566.89893,184.47451 568.21119,181.68709 569.55716,180.2264 569.61816,176.73946 570.84681,176.20914 570.87711,176.6132 570.82201,177.01553 570.76831,177.41458"
       inkscape:connector-curvature="0"
       id="path3060"
       style="fill:none;stroke:#0000e9;stroke-width:1;stroke-miterlimit:4;stroke-opacity:1;stroke-dasharray:none;stroke-dashoffset:0" />
    <path
       d="M 531.1248,196.53355 C 535.20155,202.91675 532.35759,209.0362 532.69278,210.75425 532.95532,212.64175 533.27499,214.5367 533.64362,216.39762 534.4201,218.88288 535.28996,221.33773 536.16604,223.78653 536.69871,225.76897 536.94379,227.8612 537.98883,229.66708 538.76141,231.8698 540.03099,233.83008 540.99555,235.94496 542.31544,238.7669 546.17999,239.97881 548.87997,238.43308 551.05627,237.95101 552.41438,235.97478 554.33459,235.1749 555.51802,234.61621 557.65506,232.88426 558.97671,232.61196"
       inkscape:connector-curvature="0"
       id="path3062"
       style="fill:none;stroke:#0000e9;stroke-width:1;stroke-miterlimit:4;stroke-opacity:1;stroke-dasharray:none;stroke-dashoffset:0" />
    <path
       d="M 565.79441,241.45506 C 566.92852,241.67226 566.1467,244.57452 565.79841,242.56102 566.08745,242.44743 566.47102,244.82697 566.33766,245.57914 566.27786,247.85089 565.39294,249.96443 564.27459,251.90288 562.76937,254.9341 560.49271,257.65429 557.56518,259.38599 555.96962,259.90417 555.0112,258.16243 553.91779,257.33813 551.99504,256.33508 550.80654,254.32593 548.98253,253.26151 548.1,251.55224 546.53328,250.35395 545.44778,248.79059 543.39605,247.59409 542.57655,245.2418 541.13766,243.47267 539.42616,240.73727 538.25235,237.5867 538.29189,234.32432 538.01454,232.4831 536.91236,230.4067 538.14062,228.67567"
       inkscape:connector-curvature="0"
       id="path3064"
       style="fill:none;stroke:#0000e9;stroke-width:1;stroke-miterlimit:4;stroke-opacity:1;stroke-dasharray:none;stroke-dashoffset:0" />
    <path
       d="M 538.0731,236.82049 C 537.62407,233.61978 532.59344,231.8018 533.32989,233.55284 533.27109,240.46029 537.20927,247.539 541.52521,252.30958 545.53262,256.76674 550.25676,259.84202 552.71475,265.32111 555.51673,270.47376 547.35835,274.82641 547.82891,280.59117"
       inkscape:connector-curvature="0"
       id="path3066"
       style="fill:none;stroke:#0000e9;stroke-width:1;stroke-miterlimit:4;stroke-opacity:1;stroke-dasharray:none;stroke-dashoffset:0" />
    <path
       d="M 530.66541,196.06716 C 546.39385,198.84244 559.07409,196.39338 562.37476,186.74088 563.73785,177.81322 564.92601,168.90448 557.40074,160.93817"
       inkscape:connector-curvature="0"
       id="path3105"
       style="fill:none;stroke:#0000e9;stroke-width:1;stroke-miterlimit:4;stroke-opacity:1;stroke-dasharray:none;stroke-dashoffset:0" />
    <path
       d="M 567.34878,293.99312 C 575.13197,298.54699 589.47434,299.82127 603.72127,301.14327"
       inkscape:connector-curvature="0"
       id="path3109"
       style="fill:none;stroke:#0000e9;stroke-width:1;stroke-miterlimit:4;stroke-opacity:1;stroke-dasharray:none;stroke-dashoffset:0" />
    <path
       d="M 427.7859,95.964997 C 419.62259,95.872607 412.19795,100.00859 406.22165,105.26486 404.41951,106.82276 402.4289,108.23696 400.86598,110.03214 400.70337,111.46948 402.77932,111.64116 403.76101,112.13055 407.0035,113.02739 410.50775,112.66908 413.81591,112.31513 422.4607,110.11373 429.73392,104.62408 437.3584,100.20436 438.16406,99.377288 440.31509,99.141597 440.21123,97.762249 438.72303,96.475089 436.38018,96.717769 434.51831,96.314733 432.28509,96.05572 430.03479,95.911686 427.7859,95.964997 z"
       inkscape:connector-curvature="0"
       id="path3113"
       style="fill:#b46a9f;stroke:none" />
    <path
       d="M 426.82424,381.4755 C 424.91964,381.5525 423.34326,383.50833 424.31781,385.34202 425.71533,388.47828 427.68112,391.49624 430.06901,393.99797 431.3309,395.11853 433.39843,395.39471 434.43099,393.81339 435.39581,392.04818 435.10409,389.77135 434.80987,387.84846 433.56497,385.1517 431.7406,382.21486 428.52435,381.74751 427.97028,381.60328 427.40453,381.42714 426.82424,381.4755 z"
       inkscape:connector-curvature="0"
       id="path3119"
       style="fill:#bfb195;stroke:none" />
    <path
       d="M 558.48025,233.01276 C 554.19921,234.73701 550.86095,238.97528 546.02578,239.20113 543.21842,239.31721 541.27396,236.98055 540.01227,234.76144 539.42444,233.74544 538.15868,234.61218 538.53561,235.59691 539.22219,242.12612 543.96814,247.09391 548.17276,251.74304 550.68123,254.52822 553.50778,257.14328 556.69271,259.12634 558.51718,259.08084 559.75161,257.18908 561.07412,256.12445 563.72971,253.09681 565.84598,249.23331 566.14529,245.15635 566.49071,243.57324 565.25041,241.99217 563.58056,242.32932 561.55367,242.32632 559.97401,240.55705 559.99708,238.57493 559.60358,236.82533 559.61479,234.98058 559.05343,233.27506 558.84655,233.25466 558.71268,232.92597 558.48025,233.01276 z"
       inkscape:connector-curvature="0"
       id="path3131"
       style="fill:#b667d7;stroke:none" />
    <path
       d="M 501.16248,307.39957 C 491.52054,313.66264 481.63639,319.63832 472.58098,326.72156 466.36517,331.75946 460.29364,337.86666 457.94099,345.71504 458.173,347.22461 460.31377,346.15557 461.28662,346.26998 464.54348,346.08032 467.79477,345.43687 470.50114,343.50778 482.5631,336.84168 490.59274,325.19358 498.15087,314.06397 499.36477,311.99579 501.04161,310.09746 501.89109,307.86588 501.91919,307.51955 501.4557,307.2402 501.16248,307.39957 z"
       inkscape:connector-curvature="0"
       id="path3139"
       style="fill:#d78578;stroke:none" />
    <path
       d="M 459.29136,374.23791 C 455.87098,375.57411 452.75801,377.84504 450.09499,380.35467 447.15984,383.2461 445.35447,387.8624 446.69117,391.89956 448.09666,394.80528 451.94287,394.7895 454.4804,393.51514 459.17694,391.49239 463.77888,388.33904 466.2375,383.74878 467.14246,381.15318 468.43939,378.00255 467.17013,375.36484 465.07412,374.47204 462.48715,374.7075 460.20456,374.2282 459.90251,374.2006 459.5913,374.1864 459.29136,374.2382 z"
       inkscape:connector-curvature="0"
       id="path3141"
       style="fill:#d2db9f;stroke:none" />
    <path
       d="M 563.01709,169.08887 C 562.28083,170.16693 563.3875,171.55199 563.23082,172.78052 563.55322,177.83487 563.52825,183.11628 561.9776,187.96488 559.3768,194.15962 552.1572,196.53335 545.93989,197.05007 541.42947,197.5986 536.91129,196.8489 532.41523,196.70826 531.5095,197.74685 532.91612,199.2723 532.96127,200.45753 534.22447,205.17353 532.14426,210.09935 533.54216,214.82651 534.64947,219.40186 536.36061,223.78957 537.64184,228.30104 538.58346,229.78284 538.93379,231.7155 539.86654,233.27506 540.8842,235.78868 542.50491,238.43968 545.43317,238.86111 548.62785,239.21437 551.29972,236.80102 553.86604,235.24433 555.35656,234.12252 557.38326,233.46338 558.67455,232.28414 558.89124,230.09689 558.51208,227.79655 559.65311,225.77738 561.59496,221.40127 562.70916,216.6881 562.52289,211.88359 563.09968,206.31609 564.42325,200.88669 565.41667,195.39676 565.69078,191.38794 565.24129,187.13798 567.22664,183.51757 567.93162,181.38069 569.54275,179.42653 569.72036,177.19108 568.28636,174.24076 566.06371,171.65686 563.88172,169.23459 563.65486,169.02464 563.30381,168.93515 563.01709,169.08887 z"
       inkscape:connector-curvature="0"
       id="path3145"
       style="fill:#d5aeb8;stroke:none" />
    <path
       d="M 577.69369,448.77749 C 582.13321,436.07252 581.56315,411.34456 591.32269,411.40765 598.9432,409.06289 603.63275,419.02816 605.39133,441.30352"
       inkscape:connector-curvature="0"
       id="path3027"
       style="fill:none;stroke:#0000e9;stroke-width:1;stroke-miterlimit:4;stroke-opacity:1;stroke-dasharray:none;stroke-dashoffset:0" />
    <path
       d="M 622.09785,287.86738 C 634.34688,291.95971 644.11748,298.70821 625.17536,336.22834"
       inkscape:connector-curvature="0"
       id="path3029"
       style="fill:none;stroke:#0000e9;stroke-width:1;stroke-miterlimit:4;stroke-opacity:1;stroke-dasharray:none;stroke-dashoffset:0" />
    <path
       d="M 613.30495,337.10762 C 633.00961,330.60284 626.70309,346.06861 623.85643,357.3313 614.94928,384.3836 603.93384,391.59085 603.41293,372.49906"
       inkscape:connector-curvature="0"
       id="path3031"
       style="fill:none;stroke:#0000e9;stroke-width:1;stroke-miterlimit:4;stroke-opacity:1;stroke-dasharray:none;stroke-dashoffset:0" />
    <path
       d="M 602.75346,420.6402 C 607.32856,410.68553 611.1823,400.41345 616.91726,391.04629 621.53093,381.71175 627.54236,373.10569 631.21248,363.31154 634.86593,356.85663 638.70716,350.46032 643.27852,344.60952 645.70035,338.19205 655.2784,339.33404 652.32282,346.94683 646.65138,358.54437 638.30682,368.71392 631.73249,379.84433 629.0085,388.03327 626.29123,396.28144 621.31848,403.44277 616.6603,409.83142 613.51768,417.13905 609.09489,423.6476 607.17403,424.41672 602.47216,432.82995 603.63279,429.87275"
       inkscape:connector-curvature="0"
       id="path3033"
       style="fill:none;stroke:#0000e9;stroke-width:1;stroke-miterlimit:4;stroke-opacity:1;stroke-dasharray:none;stroke-dashoffset:0" />
    <path
       d="M 592.49445,411.46807 C 587.98089,411.50397 585.35021,415.67534 584.38849,419.57402 581.43826,429.34405 580.70961,439.65477 577.73886,449.4012 579.03938,450.89178 582.2549,449.3815 584.26484,449.68971 591.82588,449.221 599.27376,446.27735 605.27591,441.93243 604.81286,438.58407 604.75834,434.94553 603.9527,431.678 603.1272,431.32555 602.62157,431.55618 603.30697,430.37281 603.85263,426.30891 601.96241,422.30365 600.74731,418.48125 599.40034,414.98275 596.76331,411.02713 592.49445,411.46807 z"
       inkscape:connector-curvature="0"
       id="path3038"
       style="fill:#9eae8b;stroke:none" />
    <path
       d="M 648.46128,340.7539 C 644.66233,341.60764 642.98867,345.83654 640.71253,348.54386 634.90047,356.71362 630.46533,365.69523 626.08059,374.689 618.6961,388.28541 610.993,401.73773 605.03258,416.04312 604.35999,418.48375 601.71953,420.62649 602.83436,423.29727 603.45579,424.41535 603.12971,427.73067 605.04632,427.35025 612.23467,420.43079 615.65418,410.70534 621.409,402.76806 626.24297,395.6226 628.5739,387.22331 631.9816,379.39429 638.27414,368.08555 646.65196,357.93748 652.23948,346.20824 653.65064,343.61201 651.17401,340.58509 648.46128,340.7539 z"
       inkscape:connector-curvature="0"
       id="path3040"
       style="fill:#d5be93;stroke:none" />
    <path
       d="M 405.38973,324.5646 C 401.8266,324.98529 399.88817,328.94376 400.16895,332.23091 399.96955,335.30022 402.7011,338.38956 405.81564,338.18673 408.91345,337.38307 410.66685,334.18831 411.58849,331.34553 412.32914,329.30088 411.90388,326.37878 409.54575,325.63624 408.22444,325.15916 406.8188,324.57685 405.38973,324.5646 z"
       inkscape:connector-curvature="0"
       id="path3049"
       style="fill:#cc6bc8;stroke:none" />
    <path
       d="M 533.77417,234.92666 C 526.73854,222.26484 509.09279,210.53218 519.163,239.58981 528.10741,251.46882 531.46198,269.5956 519.34663,281.7982 503.69143,297.56615 507.38521,294.88917 509.21496,296.48012"
       inkscape:connector-curvature="0"
       id="path3034"
       style="fill:none;stroke:#0000e9;stroke-width:1;stroke-linecap:round;stroke-miterlimit:4;stroke-opacity:1;stroke-dasharray:none;stroke-dashoffset:0" />
    <path
       d="M 518.93507,221.62761 C 516.24627,222.25385 516.17164,225.74197 516.47782,227.96028 517.18091,233.44088 518.65782,238.978 521.96611,243.4958 526.80335,251.77795 528.78282,262.10295 525.92007,271.43578 523.72443,278.75828 517.37437,283.63546 512.51837,289.16719 510.91497,291.0968 508.7793,292.74725 507.78239,295.06236 508.50588,295.86507 509.98341,297.39898 510.87172,295.88812 515.62202,290.79435 521.52573,286.96849 527.19272,283.0062 531.3586,280.45139 535.7973,278.00372 540.51181,276.66238 542.8134,276.51006 545.41054,276.12086 547.25394,277.79902 548.59115,278.34642 548.36089,276.29445 549.09005,275.70061 550.43331,272.86479 553.34811,270.33485 553.00514,266.95722 551.94705,262.6064 548.21323,259.62678 545.38868,256.38744 539.87264,250.88586 534.40261,244.54758 533.43938,236.50108 532.60858,231.37293 528.25573,227.86671 524.6893,224.51917 523.01831,223.23716 521.14396,221.64927 518.93507,221.62761 z"
       inkscape:connector-curvature="0"
       id="path3041"
       style="fill:#8678d2;stroke:none" />
    <path
       d="M 542.81979,276.58003 C 537.95208,277.30446 533.50425,279.78689 529.28345,282.18155 521.29805,287.42403 513.09289,292.83972 507.4965,300.76036 500.31412,310.70807 494.43481,321.64935 486.23459,330.77585 480.76361,337.03209 474.30287,342.68634 466.5483,345.8471 463.6614,346.67895 460.30885,346.07796 457.67861,347.65407 456.90464,349.29647 458.6401,350.93915 459.42729,352.25892 463.83874,358.13832 471.25055,362.08755 478.69189,361.23547 480.51882,361.0113 482.4155,360.41049 483.29927,358.67154 487.5505,353.66829 493.78421,350.5707 497.36388,344.94362 499.15698,341.34004 502.86722,339.26078 505.66622,336.48217 514.32129,328.86714 523.49384,321.84354 533.1131,315.49906 536.46355,313.43162 538.80582,310.13429 540.02503,306.41831 542.86278,298.0732 546.96319,289.83438 547.08462,280.85458 547.37209,279.12465 546.6038,277.32966 544.81134,276.85205 544.17376,276.6243 543.49699,276.53724 542.81979,276.58003 z"
       inkscape:connector-curvature="0"
       id="path3047"
       style="fill:#76bd94;stroke:none" />
    <path
       d="M 546.37223,320.4213 C 548.96457,314.29483 550.90285,308.68603 552.38882,305.21921 560.9857,285.16238 549.08442,296.53811 542.35103,323.279"
       inkscape:connector-curvature="0"
       id="path3035"
       style="fill:none;stroke:#0000e9;stroke-width:1;stroke-linecap:round;stroke-miterlimit:4;stroke-opacity:1;stroke-dasharray:none;stroke-dashoffset:0" />
    <path
       d="M 546.03925,310.83883 543.29147,310.83883"
       inkscape:connector-curvature="0"
       id="path3037"
       style="fill:none;stroke:#0000e9;stroke-width:1;stroke-linecap:round;stroke-miterlimit:4;stroke-opacity:1;stroke-dasharray:none;stroke-dashoffset:0" />
    <path
       d="M 554.56007,295.40756 C 553.67574,295.86257 553.20397,296.83727 552.60227,297.59892 549.27322,302.74286 547.04453,308.52763 545.05929,314.30599 544.20263,316.91778 543.37742,319.54734 542.73774,322.21905 542.66064,322.93206 543.59296,323.02361 543.95019,322.54535 544.73446,321.83642 545.67942,321.24089 546.31034,320.39999 548.84385,314.2589 551.15142,308.0394 553.64526,301.88596 554.32306,299.98313 555.14109,298.05768 555.26762,296.02238 555.25762,295.66253 554.93808,295.32234 554.56007,295.40756 z"
       inkscape:connector-curvature="0"
       id="path3039"
       style="fill:#b667d7;stroke:none" />
    <path
       d="M 542.1978,309.68916 C 540.59793,310.05642 539.34866,311.2596 538.04865,312.19308 537.28469,312.70428 536.70719,313.42328 536.05994,314.0547 535.29169,314.2012 534.80147,314.94119 534.11388,315.28026 527.35793,319.48567 520.89822,324.12803 514.73735,329.16782 509.24877,333.64071 503.91497,338.3021 498.64506,343.02204 497.66339,345.24278 496.29247,347.2741 494.52524,348.941 491.14812,352.32925 486.78698,354.70097 483.84864,358.54129 483.50577,359.06419 483.84564,359.90099 483.16857,360.22431 482.21827,360.58553 481.6343,361.43593 481.14736,362.28322 479.14411,365.66597 477.56107,369.28202 476.42782,373.04527 475.54375,375.90531 474.66541,378.78607 472.98943,381.30486 469.52921,386.56567 464.79482,390.81498 460.63332,395.50926 457.50403,398.68144 453.81741,401.30154 450.89119,404.69313 449.50806,406.2958 448.15524,407.96341 447.23445,409.87673 447.01831,410.46667 447.79429,410.78592 448.19617,410.42629 454.2382,407.32719 460.76128,404.89423 467.57491,404.4739 471.26873,404.34894 474.98919,404.60083 478.54886,405.61423 479.65114,405.84408 480.69982,406.37632 481.82216,406.54161 482.59578,406.44671 482.27111,405.53502 482.14756,405.04959 481.37427,401.64604 480.98318,398.1378 481.08306,394.63342 481.05206,389.8705 481.97084,385.15088 483.6666,380.70902 485.33551,376.46517 487.85331,372.58897 491.15475,369.44693 499.02923,361.38589 508.36905,354.82316 516.11952,346.59948 522.28614,340.21344 528.9345,334.26429 534.42483,327.26197 537.33117,323.4241 540.01052,319.38518 542.03293,315.00268 542.55615,313.50619 543.14559,311.94877 543.08739,310.34176 543.04209,309.90417 542.625,309.632 542.1978,309.68916 z"
       inkscape:connector-curvature="0"
       id="path3045"
       style="fill:#85dbce;stroke:none" />
    <path
       d="M 620.33029,335.87014 C 617.92319,335.89054 615.52456,336.41202 613.33032,337.34021 612.40633,340.03544 612.16701,342.96994 611.62803,345.77758 610.98333,350.33676 610.70744,354.95145 609.24522,359.35832 607.86476,364.09034 606.19931,368.76966 603.74056,373.04764 603.55587,375.56979 603.98511,378.20486 604.94958,380.54908 605.59681,382.13532 607.39833,383.83818 609.18117,382.78165 612.81426,380.76656 614.92192,376.90666 616.96556,373.43806 621.7305,364.53352 624.84275,354.804 626.7317,344.89916 626.93494,342.44569 627.23187,339.62327 625.72968,337.50507 624.40852,335.83662 622.28469,335.74213 620.33029,335.87014 z"
       inkscape:connector-curvature="0"
       id="path3826"
       style="fill:#ca818c;stroke:none" />
    <path
       d="M 622.46669,288.28543 C 621.611,289.05461 621.93862,290.52442 621.58835,291.57065 619.11894,306.49152 616.27513,321.37735 613.40588,336.19988 613.95901,337.32337 615.49302,336.16388 616.39409,336.12428 619.08547,335.41732 621.93773,335.34178 624.60996,335.98003 625.90408,335.33518 626.11108,333.57617 626.85627,332.44913 630.74187,324.07196 634.58504,315.40888 635.56674,306.1185 636.05998,301.66787 635.15312,296.90588 631.98776,293.58175 629.63914,291.00939 626.3054,289.62248 623.1399,288.34722 622.92434,288.28012 622.69256,288.21851 622.46669,288.28542 z"
       inkscape:connector-curvature="0"
       id="path3830"
       style="fill:#c9ca98;stroke:none" />
    <path
       d="M 562.16661,311.01646 C 559.8989,311.07706 557.58569,311.2109 555.39333,311.75836 552.0441,315.15568 548.48856,318.41876 545.27104,321.90354 545.38095,327.35219 546.16961,333.16084 549.26578,337.80733 551.45873,341.23537 555.52062,343.03332 559.515,342.98003 560.97451,342.98089 562.5134,342.8628 563.89085,342.45108 567.93246,337.15718 572.93463,332.62446 577.69845,327.98401 578.59144,326.95644 580.07541,326.22055 580.56302,324.96832 579.59839,320.47146 577.36198,315.97783 573.30887,313.49633 569.98838,311.32494 566.04491,310.89221 562.16661,311.01646 z"
       inkscape:connector-curvature="0"
       id="path3832"
       style="fill:#a7c0ab;stroke:none" />
    <path
       d="M 442.52131,97.568744 C 434.06432,102.10822 426.335,108.17252 417.3585,111.63739 411.77822,113.68911 405.23798,113.79066 399.97191,110.88175 398.64233,111.11062 397.76131,112.58564 396.60158,113.29698 392.56389,116.58352 388.21588,120.27094 382.75884,120.73302 376.7878,121.30737 370.74183,121.59675 364.73302,121.42439 363.33028,120.87031 362.78477,122.05527 362.90709,123.26023 362.71346,131.2179 362.81369,139.17938 362.78755,147.13873 363.45667,148.16787 365.11654,147.35526 366.22196,147.53749 371.18835,147.30646 376.21762,147.53949 381.14273,146.95326 386.67087,145.11098 391.85883,142.31119 396.75384,139.18473 407.07651,132.07958 415.24023,122.19165 426.20452,115.98598 435.15045,110.62588 445.59003,108.26974 455.9579,108.18329 468.93432,107.91217 481.70056,111.06593 493.84301,115.38124 518.64393,124.41637 539.98408,141.01608 557.26992,160.66461 561.7182,165.56327 565.65455,170.86429 569.84667,175.99044 570.11896,176.37454 570.66499,176.29843 570.96639,175.97674 570.71,178.02868 573.03993,178.85635 574.15172,180.13624 581.81326,187.23027 588.83495,195.0919 594.70037,203.78429 595.03632,204.33872 595.74839,204.39002 595.79948,205.10323 599.16301,210.90101 602.6881,216.60742 605.49915,222.6959 610.69907,233.643 614.70461,245.13901 617.56191,256.91953 618.41414,262.28152 618.81993,267.71097 619.43779,273.10594 619.84624,276.24591 619.77856,279.46771 620.38525,282.57694 620.68693,283.57836 621.97863,282.90517 621.80721,282.04112 621.72841,270.22541 621.08729,258.37889 618.93081,246.74254 614.71117,222.84266 604.97175,199.68275 589.44522,180.94335 583.85977,173.85054 578.50561,166.56888 572.38149,159.93656 550.88983,136.02395 523.11725,117.78048 492.56588,107.71611 476.39379,102.35281 459.55128,99.021548 442.59389,97.55495 L 442.52129,97.56877 z"
       inkscape:connector-curvature="0"
       id="path3838"
       style="fill:#73a0a6;stroke:none" />
    <path
       d="M 584.22529,215.91597 C 581.81173,216.50556 579.1517,216.99931 577.12372,218.46127 575.28124,222.51093 574.79964,227.04748 572.92689,231.10033 571.4641,235.04055 569.15218,238.61392 566.47621,241.81584 566.5791,245.77803 566.09224,249.82474 563.76576,253.11424 562.05872,255.65841 560.15104,258.55779 557.07221,259.51634 554.38087,258.59938 552.34912,256.30135 550.25307,254.4906 547.87931,252.1622 545.83268,249.50704 543.49081,247.1493 541.08861,244.00582 539.30128,240.46693 538.05048,236.73496 537.08879,235.26898 535.77573,233.06611 533.82451,233.18903 533.11906,233.91327 534.19102,234.98587 533.75651,235.91891 534.15877,240.6133 536.53234,244.96393 539.07055,248.84941 543.25915,254.45017 549.12792,258.66781 552.65195,264.70409 554.43371,267.88089 552.35136,271.34529 550.56324,273.97315 547.14879,278.58303 547.63664,284.56995 546.08836,289.83945 544.75073,295.34698 542.3106,300.46577 540.66379,305.90488 540.32857,307.22614 539.32186,308.48074 539.43,309.86855 540.57889,310.87844 542.12621,308.47903 543.19938,310.00456 544.51412,311.05798 546.42559,310.38495 546.79388,308.71248 548.98309,304.14669 550.62127,299.11898 554.16747,295.37395 554.58693,294.87943 555.65026,294.51844 555.44012,295.58768 555.43112,299.49858 553.14396,302.94554 552.00676,306.63897 550.83368,309.962 549.2069,313.20756 548.32883,316.59124 549.16107,317.94385 550.49784,315.85988 551.23358,315.32831 558.24809,308.99217 562.74941,300.59216 566.82884,292.20461 575.27518,274.93088 582.26701,256.79252 586.32371,237.95903 587.36917,232.29542 587.90088,226.35492 587.18446,220.60482 586.69365,219.05718 586.29302,216.02752 584.2253,215.91597 z"
       inkscape:connector-curvature="0"
       id="path3050"
       style="fill:#9de082;stroke:none" />
    <path
       d="M 566.49564,294.13045 C 563.39065,299.4865 560.56328,305.09573 556.95563,310.13085 556.4074,311.6147 558.73606,310.86568 559.50907,310.86713 566.58745,309.82641 574.91951,311.82027 578.47408,318.51479 579.62601,320.25328 579.66662,322.70033 581.13596,324.18828 582.5584,324.24688 583.29065,322.39686 584.35006,321.64895 590.21726,315.30416 595.82339,308.69414 601.09032,301.85378 601.20675,300.44341 599.02915,301.09504 598.12266,300.74606 587.5587,299.57068 576.60151,298.80978 566.93281,294.11102 566.79023,294.07132 566.63472,294.06692 566.49564,294.13042 z"
       inkscape:connector-curvature="0"
       id="path3053"
       style="fill:#d17697;stroke:none" />
    <path
       d="M 578.77331,186.01358 C 577.56919,189.10063 577.61453,192.6102 577.11206,195.8839 576.55611,202.89331 576.20297,209.97777 576.56803,216.99433 577.45488,218.12902 579.20196,216.67097 580.36315,216.61355 582.18898,216.23428 583.98556,215.59419 585.39885,214.38102 585.66295,214.51785 585.44175,215.65688 585.87488,216.03255 589.00609,221.76618 587.98921,228.76493 587.13782,234.99599 583.97343,252.98482 577.33098,270.20531 569.85505,286.79572 568.9741,289.00458 567.55397,291.06706 566.96002,293.35326 568.76299,294.94094 571.3732,295.51325 573.59528,296.39401 582.71759,299.09225 592.28339,299.80812 601.72956,300.824 605.0415,298.10619 607.81292,294.63308 611.18221,291.91232 613.79668,289.4849 617.00659,287.60815 619.83617,285.51947 619.83417,276.41803 618.5616,267.27095 617.51776,258.21006 614.80655,246.01923 610.52394,234.15836 605.22692,222.87183 598.81378,209.4329 590.36595,196.93335 579.96824,186.27588 579.64349,186.00506 579.18867,185.66717 578.77331,186.01358 z"
       inkscape:connector-curvature="0"
       id="path3042"
       style="fill:#d0cf6e;stroke:none" />
    <path
       d="M 570.36994,177.7948 C 569.16206,179.02745 569.16229,181.08003 568.0578,182.45794 565.15035,187.31109 566.48733,193.17835 565.23077,198.47777 564.52532,201.65064 563.53193,204.78996 563.38494,208.0955 562.80752,213.70076 562.91345,219.53259 560.45274,224.70536 559.24976,227.21651 558.71879,229.99175 559.39213,232.73243 559.93819,235.47038 559.92964,238.4856 561.23795,240.98036 562.83906,242.95121 565.86456,242.10391 567.14094,240.20716 572.05332,234.75515 574.11367,227.42077 575.81027,220.44311 576.74243,216.01283 575.87087,211.44814 576.23646,206.95903 576.44148,199.86417 576.68863,192.59335 578.39443,185.72214 578.71874,184.3368 576.79536,183.48922 576.12309,182.45353 574.35974,180.86283 572.76677,178.92687 570.68081,177.78508 L 570.39908,177.78508 570.36998,177.79508 z"
       inkscape:connector-curvature="0"
       id="path3048"
       style="fill:#a7b0c5;stroke:none" />
  </g>
</svg>
