<?xml version="1.0" encoding="UTF-8" standalone="no"?>
<!-- Created with Inkscape (http://www.inkscape.org/) -->

<svg
   xmlns:dc="http://purl.org/dc/elements/1.1/"
   xmlns:cc="http://creativecommons.org/ns#"
   xmlns:rdf="http://www.w3.org/1999/02/22-rdf-syntax-ns#"
   xmlns:svg="http://www.w3.org/2000/svg"
   xmlns="http://www.w3.org/2000/svg"
   xmlns:xlink="http://www.w3.org/1999/xlink"
   xmlns:inkscape="http://www.inkscape.org/namespaces/inkscape"
   version="1.1"
   width="740"
   height="520"
   id="svg2"
   style="display:inline;enable-background:new">
  <defs
     id="defs4">
    <filter
       color-interpolation-filters="sRGB"
       id="filter3050">
      <feBlend
         in2="BackgroundImage"
         mode="lighten"
         id="feBlend3052" />
    </filter>
  </defs>
  <metadata
     id="metadata7">
    <rdf:RDF>
      <cc:Work
         rdf:about="">
        <dc:format>image/svg+xml</dc:format>
        <dc:type
           rdf:resource="http://purl.org/dc/dcmitype/StillImage" />
        <dc:title />
      </cc:Work>
    </rdf:RDF>
  </metadata>
  <g
     id="g3223"
     style="display:none">
    <image
       xlink:href="pngs/coronal-0605.png"
       id="image3225"
       height="520"
       width="740"
       y="0"
       x="0" />
  </g>
  <g
     id="g3231"
     style="display:inline">
    <path
       d="M 581.96829,213.55165 C 574.8942,207.2536 560.70047,186.08737 546.42797,180.05578 523.99296,164.04627 496.67063,157.7539 471.43847,147.60355 453.11693,145.94862 436.42725,132.52301 418.55417,135.75721 410.23054,152.56284 390.73797,165.11722 372.01641,158.06355 369.66758,143.72156 370.90756,128.27069 368.74578,113.33651 368.94749,100.34518 368.54072,84.78547 370.82536,73.781035 371.56638,72.501823 381.52037,57.683594 392.03211,58.297789 406.19797,51.527287 422.84398,56.876616 438.0827,55.516246 467.32808,55.428876 495.63511,64.653807 523.31594,73.152317 544.48969,80.4496 565.78471,88.068001 585.36721,98.98296 604.5677,111.33793 623.21364,125.02689 636.03302,144.1853 654.18961,169.52431 668.52744,198.25708 675.41711,228.85839 678.91609,248.08366 680.37475,267.97486 679.26531,287.48901 674.97857,304.73212 666.97675,321.52612 652.95471,332.85262 640.48261,346.10945 632.62804,362.62899 622.32051,377.50406 613.08526,397.6354 602.19227,417.19485 587.04898,433.57646 576.15597,450.589 556.70373,444.83299 537.6029,444.76676 509.8368,445.16708 486.89646,427.73422 463.16648,415.90082 441.80413,408.08138 418.20125,412.48367 396.63753,417.14494 381.24035,422.537 365.04563,410.12534 366.85916,393.67423 367.44781,373.21701 359.5622,351.51814 369.59791,332.2399 L 369.43575,330.36561"
       inkscape:connector-curvature="0"
       id="path3233"
       style="fill:none;stroke:#e20000;stroke-opacity:1" />
    <path
       d="M 353.99158,221.92061 C 354.87087,223.09299 355.45707,226.31706 356.62945,225.43777 357.80184,224.55848 352.95533,220.88435 353.99158,221.92061 355.31863,223.24766 356.18169,224.99001 357.50874,226.31706 357.71599,226.52431 358.18078,226.10981 358.38803,226.31706 358.59528,226.52431 358.18078,226.9891 358.38803,227.19635 358.59528,227.4036 359.06007,226.9891 359.26732,227.19635 359.47458,227.4036 359.06007,227.86839 359.26732,228.07564 359.47458,228.28289 359.93936,227.86839 360.14661,228.07564 360.35387,228.28289 359.93936,228.74768 360.14661,228.95493 360.35387,229.16218 360.81865,228.74768 361.0259,228.95493 361.23316,229.16218 360.81865,229.62697 361.0259,229.83422 361.23316,230.04147 361.69794,229.62697 361.9052,229.83422 362.11245,230.04147 361.69794,230.50626 361.9052,230.71351 362.11245,230.92076 362.57723,230.50626 362.78449,230.71351 362.99174,230.92076 362.57723,231.38555 362.78449,231.5928 363.19899,232.0073 364.12856,231.1783 364.54307,231.5928 364.75032,231.80005 364.54307,232.17899 364.54307,232.47209 364.83616,232.47209 365.1602,232.34101 365.42236,232.47209 365.93445,232.72814 368.43656,234.73362 368.93952,234.23067 369.14677,234.02342 368.73227,233.55863 368.93952,233.35138 369.37916,232.91174 371.13774,233.79103 371.57739,233.35138 371.78464,233.14413 371.37014,232.67934 371.57739,232.47209 371.78464,232.26484 372.19452,232.60317 372.45668,232.47209 372.82742,232.28672 372.96523,231.77817 373.33597,231.5928 373.59812,231.46172 374.00801,231.80005 374.21526,231.5928 374.42251,231.38555 374.08418,230.97566 374.21526,230.71351 376.04496,227.05411 374.15456,231.6535 375.97384,229.83422 376.18109,229.62697 375.76659,229.16218 375.97384,228.95493 376.18109,228.74768 376.64588,229.16218 376.85313,228.95493 377.4385,228.36956 376.26776,227.78171 376.85313,227.19635 377.06038,226.9891 377.52517,227.4036 377.73242,227.19635 378.14692,226.78185 377.31792,225.85227 377.73242,225.43777 377.93967,225.23052 378.40446,225.64502 378.61171,225.43777 379.02621,225.02327 378.19721,224.09369 378.61171,223.67919 378.81896,223.47194 379.28375,223.88644 379.491,223.67919 379.69825,223.47194 379.28375,223.00715 379.491,222.7999 379.69825,222.59265 380.16304,223.00715 380.37029,222.7999 380.57754,222.59265 380.16304,222.12786 380.37029,221.92061 380.95388,221.33702 381.54528,222.50419 382.12887,221.92061 382.33612,221.71336 381.92162,221.24857 382.12887,221.04132 382.58382,220.58637 387.40846,221.47904 388.2839,221.04132 388.65464,220.85595 388.79245,220.3474 389.16319,220.16203 390.0893,219.69897 394.89337,220.16203 396.19751,220.16203 396.78371,220.16203 397.54159,219.74753 397.9561,220.16203 398.16335,220.36928 397.74884,220.83407 397.9561,221.04132 398.65791,221.74313 401.43005,220.58007 402.35255,221.04132 402.72329,221.22669 402.8611,221.73524 403.23184,221.92061 403.49399,222.05168 403.90388,221.71336 404.11113,221.92061 404.31838,222.12786 403.90388,222.59265 404.11113,222.7999 404.52563,223.2144 405.45521,222.3854 405.86971,222.7999 406.00674,222.93693 406.00674,226.18003 405.86971,226.31706 405.66246,226.52431 405.19767,226.10981 404.99042,226.31706 404.78317,226.52431 405.19767,226.9891 404.99042,227.19635 404.78317,227.4036 404.40422,227.19635 404.11113,227.19635 404.11113,227.48945 404.31838,227.86839 404.11113,228.07564 403.90388,228.28289 403.43909,227.86839 403.23184,228.07564 403.02459,228.28289 403.43909,228.74768 403.23184,228.95493 402.81734,229.36943 401.88776,228.54043 401.47326,228.95493 401.26601,229.16218 401.68051,229.62697 401.47326,229.83422 401.03361,230.27386 399.27503,229.39457 398.83539,229.83422 398.62813,230.04147 399.04264,230.50626 398.83539,230.71351 398.42088,231.12801 397.49131,230.29901 397.0768,230.71351 396.86955,230.92076 397.28406,231.38555 397.0768,231.5928 396.6623,232.0073 395.84253,231.33065 395.31822,231.5928 394.94748,231.77817 394.80968,232.28672 394.43893,232.47209 393.91463,232.73424 393.09486,232.05759 392.68035,232.47209 392.4731,232.67934 392.81143,233.08923 392.68035,233.35138 392.16822,234.37564 391.4339,234.96499 390.92177,235.98925 390.7907,236.2514 391.12902,236.66129 390.92177,236.86854 390.71452,237.07579 390.24973,236.66129 390.04248,236.86854 389.73983,237.17119 389.73983,242.72092 390.04248,243.02357 390.24973,243.23082 390.71452,242.81632 390.92177,243.02357 391.33627,243.43807 390.50727,244.36765 390.92177,244.78215 391.12902,244.9894 391.59381,244.5749 391.80106,244.78215 392.21556,245.19666 391.53891,246.01643 391.80106,246.54073 391.98643,246.91148 392.49498,247.04928 392.68035,247.42002 392.81143,247.68218 392.4731,248.09206 392.68035,248.29931 392.8876,248.50657 393.35239,248.09206 393.55964,248.29931 393.76689,248.50657 393.42857,248.91645 393.55964,249.1786 393.93039,249.92009 394.94748,250.1957 395.31822,250.93719 395.4493,251.19934 395.11097,251.60922 395.31822,251.81648 395.52548,252.02373 395.99026,251.60922 396.19751,251.81648 396.19751,254.16125 395.90442,251.52338 397.0768,252.69577 397.28406,252.90302 396.94573,253.3129 397.0768,253.57506 397.44755,254.31654 398.46464,254.59215 398.83539,255.33364 398.96646,255.59579 398.62813,256.00568 398.83539,256.21293 399.04264,256.42018 399.50742,256.00568 399.71468,256.21293 399.92193,256.42018 399.50742,256.88497 399.71468,257.09222 399.92193,257.29947 400.38672,256.88497 400.59397,257.09222 401.00847,257.50672 400.17946,258.4363 400.59397,258.8508 400.80122,259.05805 401.26601,258.64355 401.47326,258.8508 401.68051,259.05805 401.26601,259.52284 401.47326,259.73009 401.68051,259.93734 402.1453,259.52284 402.35255,259.73009 402.5598,259.93734 402.1453,260.40213 402.35255,260.60938 402.44045,260.69728 404.90249,260.69728 404.99042,260.60938 405.19767,260.40213 404.78317,259.93734 404.99042,259.73009 405.19767,259.52284 405.66246,259.93734 405.86971,259.73009 406.28421,259.31559 405.45521,258.38601 405.86971,257.97151 406.07696,257.76426 406.54175,258.17876 406.749,257.97151 407.1635,257.55701 406.48684,256.73723 406.749,256.21293 406.93437,255.84219 407.44292,255.70438 407.62829,255.33364 407.89373,254.80274 407.22182,253.10223 407.62829,252.69577 407.83554,252.48852 408.30033,252.90302 408.50758,252.69577 408.92208,252.28126 408.09308,251.35169 408.50758,250.93719 408.71483,250.72993 409.17962,251.14444 409.38687,250.93719 409.97223,250.35182 408.8015,249.76397 409.38687,249.1786 409.59412,248.97135 410.05891,249.38586 410.26616,249.1786 410.68066,248.7641 410.004,247.94433 410.26616,247.42002 410.45153,247.04928 410.96008,246.91148 411.14545,246.54073 411.41089,246.00984 410.73898,244.30933 411.14545,243.90286 411.3527,243.69561 411.81749,244.11011 412.02474,243.90286 412.75748,243.17012 411.292,240.23915 412.02474,239.50641 412.23199,239.29916 412.69678,239.71366 412.90403,239.50641 413.72935,238.68109 412.23968,237.29842 412.02474,236.86854 411.91891,236.65688 411.91891,228.2873 412.02474,228.07564 412.21011,227.7049 412.71866,227.56709 412.90403,227.19635 413.16618,226.67204 412.64188,225.96208 412.90403,225.43777 413.0894,225.06703 413.59795,224.92922 413.78332,224.55848 413.9144,224.29632 413.57607,223.88644 413.78332,223.67919 413.99057,223.47194 414.45536,223.88644 414.66261,223.67919 414.86986,223.47194 414.45536,223.00715 414.66261,222.7999 414.86986,222.59265 415.33465,223.00715 415.5419,222.7999 415.74915,222.59265 415.41082,222.18276 415.5419,221.92061 415.835,221.33441 417.59358,219.57583 418.17977,219.28274 418.44192,219.15166 418.85181,219.48999 419.05906,219.28274 419.26631,219.07549 418.85181,218.6107 419.05906,218.40345 419.19609,218.26641 422.43919,218.26641 422.57622,218.40345 422.78347,218.6107 422.36897,219.07549 422.57622,219.28274 422.99072,219.69724 423.8105,219.02058 424.3348,219.28274 424.70554,219.46811 424.84335,219.97666 425.21409,220.16203 425.47625,220.2931 425.88613,219.95478 426.09338,220.16203 426.30063,220.36928 425.88613,220.83407 426.09338,221.04132 426.50788,221.45582 427.43746,220.62682 427.85196,221.04132 428.05921,221.24857 427.64471,221.71336 427.85196,221.92061 428.26646,222.33511 429.19604,221.50611 429.61054,221.92061 429.81779,222.12786 429.40329,222.59265 429.61054,222.7999 429.81779,223.00715 430.28258,222.59265 430.48983,222.7999 430.69708,223.00715 430.28258,223.47194 430.48983,223.67919 430.90434,224.09369 431.83391,223.26469 432.24841,223.67919 432.45567,223.88644 432.04116,224.35123 432.24841,224.55848 432.66292,224.97298 433.48269,224.29632 434.007,224.55848 435.03126,225.07061 435.6206,225.80493 436.64487,226.31706 437.16917,226.57921 437.98894,225.90256 438.40345,226.31706 438.6107,226.52431 438.1962,226.9891 438.40345,227.19635 438.84309,227.63599 440.60167,226.7567 441.04132,227.19635 441.24857,227.4036 440.83407,227.86839 441.04132,228.07564 441.62751,228.66183 443.97228,227.48945 444.55848,228.07564 444.76573,228.28289 444.35123,228.74768 444.55848,228.95493 444.99812,229.39457 446.7567,228.51528 447.19635,228.95493 447.4036,229.16218 446.9891,229.62697 447.19635,229.83422 447.3024,229.94027 456.72582,229.83422 457.74783,229.83422 459.05198,229.83422 463.85605,230.29727 464.78215,229.83422 465.15289,229.64885 465.2907,229.1403 465.66144,228.95493 466.18575,228.69278 467.00552,229.36943 467.42002,228.95493 467.62728,228.74768 467.21277,228.28289 467.42002,228.07564 467.62728,227.86839 468.09206,228.28289 468.29931,228.07564 468.50657,227.86839 468.09206,227.4036 468.29931,227.19635 468.50657,226.9891 468.91645,227.32743 469.1786,227.19635 469.92009,226.82561 470.56644,226.17925 470.93719,225.43777 471.06826,225.17561 470.72993,224.76573 470.93719,224.55848 471.14444,224.35123 471.60922,224.76573 471.81648,224.55848 472.23098,224.14398 471.40197,223.2144 471.81648,222.7999 472.02373,222.59265 472.48852,223.00715 472.69577,222.7999 473.13451,222.36115 472.69577,219.09194 472.69577,218.40345 472.69577,217.71495 473.13451,214.44574 472.69577,214.007 472.48852,213.79974 472.02373,214.21425 471.81648,214.007 471.37683,213.56735 472.25612,211.80877 471.81648,211.36912 471.60922,211.16187 471.14444,211.57638 470.93719,211.36912 470.52268,210.95462 471.19934,210.13485 470.93719,209.61054 470.75181,209.2398 470.24327,209.10199 470.0579,208.73125 469.92682,208.4691 470.26515,208.05921 470.0579,207.85196 469.85064,207.64471 469.38586,208.05921 469.1786,207.85196 468.97135,207.64471 469.38586,207.17992 469.1786,206.97267 468.97135,206.76542 468.50657,207.17992 468.29931,206.97267 468.09206,206.76542 468.43039,206.35554 468.29931,206.09338 468.00622,205.50719 466.24764,203.74861 465.66144,203.45551 465.39929,203.32444 464.9894,203.66276 464.78215,203.45551 464.5749,203.24826 464.9894,202.78347 464.78215,202.57622 464.5749,202.36897 464.16502,202.7073 463.90286,202.57622 463.16138,202.20548 462.88577,201.18838 462.14428,200.81764 459.79951,200.81764 462.43738,201.11074 461.26499,199.93835 461.05774,199.7311 460.59295,200.1456 460.3857,199.93835 460.17845,199.7311 460.59295,199.26631 460.3857,199.05906 460.17845,198.85181 459.71366,199.26631 459.50641,199.05906 459.29916,198.85181 459.71366,198.38702 459.50641,198.17977 459.09191,197.76527 458.16233,198.59427 457.74783,198.17977 457.54058,197.97252 457.95508,197.50773 457.74783,197.30048 457.54058,197.09323 457.1307,197.43156 456.86854,197.30048 456.4978,197.11511 456.35999,196.60656 455.98925,196.42119 455.46494,196.15904 454.64517,196.83569 454.23067,196.42119 454.02342,196.21394 454.43792,195.74915 454.23067,195.5419 453.81617,195.1274 452.9964,195.80405 452.47209,195.5419 451.44783,195.02977 450.85848,194.29545 449.83422,193.78332 449.30991,193.52117 448.49014,194.19782 448.07564,193.78332 447.86839,193.57607 448.28289,193.11128 448.07564,192.90403 447.66114,192.48953 446.84137,193.16618 446.31706,192.90403 445.94632,192.71866 445.80851,192.21011 445.43777,192.02474 444.49986,191.55578 442.85852,192.49369 441.92061,192.02474 441.54987,191.83937 441.41206,191.33082 441.04132,191.14545 440.33788,190.79373 439.10688,191.49716 438.40345,191.14545 438.03271,190.96008 437.8949,190.45153 437.52416,190.26616 436.99326,190.00071 435.29275,190.67262 434.88629,190.26616 434.67903,190.05891 435.09354,189.59412 434.88629,189.38687 434.47178,188.97237 433.65201,189.64902 433.1277,189.38687 432.75696,189.2015 432.61916,188.69295 432.24841,188.50758 431.54498,188.15586 430.31398,188.85929 429.61054,188.50758 429.2398,188.32221 429.10199,187.81366 428.73125,187.62829 428.20695,187.36613 427.38717,188.04279 426.97267,187.62829 426.76542,187.42104 427.17992,186.95625 426.97267,186.749 426.55817,186.3345 425.7384,187.01115 425.21409,186.749 424.18983,186.23687 423.60048,185.50255 422.57622,184.99042 422.31407,184.85934 421.95909,185.12149 421.69693,184.99042 421.32619,184.80505 421.18838,184.2965 420.81764,184.11113 420.29333,183.84897 419.47356,184.52563 419.05906,184.11113 418.85181,183.90388 419.26631,183.43909 419.05906,183.23184 418.64456,182.81734 413.82479,183.49399 413.30048,183.23184 412.92974,183.04647 412.79193,182.53792 412.42119,182.35255 412.15904,182.22147 411.74915,182.5598 411.5419,182.35255 411.33465,182.1453 411.74915,181.68051 411.5419,181.47326 411.1274,181.05875 410.19782,181.88776 409.78332,181.47326 409.57607,181.26601 409.99057,180.80122 409.78332,180.59397 409.57607,180.38672 409.11128,180.80122 408.90403,180.59397 408.69678,180.38672 409.19713,179.71468 408.90403,179.71468 408.49138,179.71468 408.87733,181.49994 409.78332,180.59397 409.99057,180.38672 409.78332,180.00777 409.78332,179.71468 409.78332,179.42158 409.99057,179.04264 409.78332,178.83539 409.57607,178.62813 409.11128,179.04264 408.90403,178.83539 408.48953,178.42088 409.31853,177.49131 408.90403,177.0768 408.69678,176.86955 408.23199,177.28406 408.02474,177.0768 407.73288,176.78494 407.73288,170.33435 408.02474,170.04248 408.23199,169.83523 408.69678,170.24973 408.90403,170.04248 409.34367,169.60284 408.46438,167.84426 408.90403,167.40461 409.11128,167.19736 409.57607,167.61186 409.78332,167.40461 409.99057,167.19736 409.57607,166.73257 409.78332,166.52532 409.99057,166.31807 410.45536,166.73257 410.66261,166.52532 411.07711,166.11082 410.24811,165.18124 410.66261,164.76674 410.86986,164.55949 411.33465,164.97399 411.5419,164.76674 411.74915,164.55949 411.33465,164.0947 411.5419,163.88745 411.74915,163.6802 412.21394,164.0947 412.42119,163.88745 412.62844,163.6802 412.21394,163.21541 412.42119,163.00816 412.62844,162.80091 413.03833,163.13924 413.30048,163.00816 413.67122,162.82279 417.80903,162.31424 418.17977,162.12887 418.44192,161.99779 418.79691,162.25995 419.05906,162.12887 419.4298,161.9435 419.56761,161.43495 419.93835,161.24958 420.2005,161.1185 421.79899,160.13716 422.06114,160.00608 422.43188,159.82071 422.56969,157.93391 422.94043,157.74854 423.20259,157.61746 422.36897,158.57754 422.57622,158.37029 422.78347,158.16304 422.36897,157.69825 422.57622,157.491 422.78347,157.28375 423.24826,157.69825 423.45551,157.491 423.66276,157.28375 423.24826,156.81896 423.45551,156.61171 423.66276,156.40446 424.12755,156.81896 424.3348,156.61171 424.54205,156.40446 424.12755,155.93967 424.3348,155.73242 424.7493,155.31792 425.67888,156.14692 426.09338,155.73242 426.30063,155.52517 425.88613,155.06038 426.09338,154.85313 426.50788,154.43863 427.32766,155.11528 427.85196,154.85313 428.2227,154.66776 428.36051,154.15921 428.73125,153.97384 429.65736,153.51079 434.46143,153.97384 435.76558,153.97384 436.35177,153.97384 437.10965,153.55934 437.52416,153.97384 437.73141,154.18109 437.31691,154.64588 437.52416,154.85313 437.93696,155.26593 443.26639,154.44033 443.67919,154.85313 443.88644,155.06038 443.47194,155.52517 443.67919,155.73242 444.09199,156.14522 449.42142,155.31962 449.83422,155.73242 450.04147,155.93967 449.62697,156.40446 449.83422,156.61171 450.33784,157.11533 460.00796,155.98319 461.26499,156.61171 461.63573,156.79708 461.77354,157.30563 462.14428,157.491 462.87637,157.85704 465.1037,156.93326 465.66144,157.491 465.86869,157.69825 465.45419,158.16304 465.66144,158.37029 466.07595,158.78479 466.89572,160.10814 467.42002,160.37029 468.44429,160.88242 469.03363,161.61674 470.0579,162.12887 470.5822,162.39102 471.40197,161.71437 471.81648,162.12887 472.02373,162.33612 471.60922,162.80091 471.81648,163.00816 472.02373,163.21541 472.43361,162.87708 472.69577,163.00816 473.06651,163.19353 473.20431,163.70208 473.57506,163.88745 474.09936,164.1496 474.80933,163.6253 475.33364,163.88745 475.70438,164.07282 475.84219,164.58137 476.21293,164.76674 477.15084,165.2357 478.79218,164.29779 479.73009,164.76674 480.10083,164.95211 480.23864,165.46066 480.60938,165.64603 481.34146,166.01208 483.56879,165.08829 484.12654,165.64603 484.33379,165.85328 483.91929,166.31807 484.12654,166.52532 484.68428,167.08307 486.91161,166.15928 487.6437,166.52532 488.01444,166.71069 488.15225,167.21924 488.52299,167.40461 489.44549,167.86586 492.21763,166.7028 492.91944,167.40461 493.12669,167.61186 492.71219,168.07665 492.91944,168.2839 493.65218,169.01664 496.58315,167.55116 497.31589,168.2839 497.52314,168.49115 497.10864,168.95594 497.31589,169.16319 497.90209,169.74939 500.24686,168.577 500.83305,169.16319 501.0403,169.37044 500.6258,169.83523 500.83305,170.04248 501.23952,170.44895 502.94003,169.77704 503.47092,170.04248 503.84167,170.22785 503.97947,170.7364 504.35021,170.92177 505.27552,171.38442 505.18349,170.45912 506.1088,170.92177 506.47954,171.10714 506.61734,171.61569 506.98809,171.80106 507.51239,172.06322 508.33216,171.38656 508.74667,171.80106 508.95392,172.00831 508.53942,172.4731 508.74667,172.68035 509.15313,173.08682 510.85364,172.41491 511.38454,172.68035 511.75528,172.86572 511.89309,173.37427 512.26383,173.55964 512.96726,173.91136 514.19827,173.20793 514.9017,173.55964 515.92596,174.07177 516.51531,174.80609 517.53957,175.31822 518.06388,175.58038 518.77384,175.05607 519.29815,175.31822 519.66889,175.5036 519.8067,176.01214 520.17744,176.19751 520.70175,176.45967 521.41171,175.93536 521.93602,176.19751 522.30676,176.38289 522.44457,176.89143 522.81531,177.0768 523.33962,177.33896 524.04958,176.81465 524.57389,177.0768 524.94463,177.26218 525.08244,177.77072 525.45318,177.9561 525.97749,178.21825 526.79726,177.54159 527.21176,177.9561 527.41901,178.16335 527.00451,178.62813 527.21176,178.83539 527.62626,179.24989 528.44603,178.57323 528.97034,178.83539 529.9946,179.34752 530.58395,180.08184 531.60821,180.59397 532.13252,180.85612 532.84249,180.33181 533.36679,180.59397 533.73753,180.77934 533.87534,181.28789 534.24608,181.47326 534.50824,181.60433 534.91812,181.26601 535.12537,181.47326 535.33262,181.68051 534.91812,182.1453 535.12537,182.35255 535.53987,182.76705 536.35965,182.09039 536.88395,182.35255 537.25469,182.53792 537.3925,183.04647 537.76324,183.23184 538.0254,183.36291 538.43528,183.02459 538.64253,183.23184 538.84978,183.43909 538.43528,183.90388 538.64253,184.11113 539.05704,184.52563 539.98661,183.69663 540.40111,184.11113 540.60837,184.31838 540.19386,184.78317 540.40111,184.99042 540.60837,185.19767 541.01825,184.85934 541.2804,184.99042 542.30467,185.50255 542.89401,186.23687 543.91828,186.749 544.18043,186.88007 544.59032,186.54175 544.79757,186.749 545.00482,186.95625 544.59032,187.42104 544.79757,187.62829 545.00482,187.83554 545.4147,187.49721 545.67686,187.62829 546.0476,187.81366 546.18541,188.32221 546.55615,188.50758 546.8183,188.63865 547.22819,188.30033 547.43544,188.50758 547.64269,188.71483 547.22819,189.17962 547.43544,189.38687 547.64269,189.59412 548.05257,189.25579 548.31473,189.38687 549.33899,189.899 549.92834,190.63332 550.9526,191.14545 551.21475,191.27653 551.62464,190.9382 551.83189,191.14545 552.03914,191.3527 551.62464,191.81749 551.83189,192.02474 552.03914,192.23199 552.44902,191.89366 552.71118,192.02474 553.08192,192.21011 553.21973,192.71866 553.59047,192.90403 553.85262,193.03511 554.26251,192.69678 554.46976,192.90403 554.67701,193.11128 554.26251,193.57607 554.46976,193.78332 554.67701,193.99057 555.1418,193.57607 555.34905,193.78332 555.5563,193.99057 555.21797,194.40046 555.34905,194.66261 555.71979,195.40409 556.36615,196.05045 557.10763,196.42119 557.36978,196.55227 557.69382,196.42119 557.98692,196.42119 558.28002,196.71429 558.49547,197.11511 558.86621,197.30048 559.12836,197.43156 559.53825,197.09323 559.7455,197.30048 559.95275,197.50773 559.53825,197.97252 559.7455,198.17977 559.95275,198.38702 560.36264,198.04869 560.62479,198.17977 560.99553,198.36514 561.13334,198.87369 561.50408,199.05906 561.76623,199.19014 562.17612,198.85181 562.38337,199.05906 562.59062,199.26631 562.17612,199.7311 562.38337,199.93835 562.59062,200.1456 563.05541,199.7311 563.26266,199.93835 563.46991,200.1456 563.05541,200.61039 563.26266,200.81764 563.46991,201.02489 563.8798,200.68656 564.14195,200.81764 564.88343,201.18838 565.15905,202.20548 565.90053,202.57622 566.16269,202.7073 566.57257,202.36897 566.77982,202.57622 566.98707,202.78347 566.57257,203.24826 566.77982,203.45551 566.98707,203.66276 567.45186,203.24826 567.65911,203.45551 567.86636,203.66276 567.45186,204.12755 567.65911,204.3348 569.47839,206.15409 567.58801,201.5547 569.41769,205.21409 569.54877,205.47625 569.21044,205.88613 569.41769,206.09338 569.62494,206.30063 570.08973,205.88613 570.29698,206.09338 570.50423,206.30063 570.08973,206.76542 570.29698,206.97267 570.50423,207.17992 570.96902,206.76542 571.17627,206.97267 571.38352,207.17992 570.96902,207.64471 571.17627,207.85196 571.38352,208.05921 571.84831,207.64471 572.05556,207.85196 572.26281,208.05921 571.84831,208.524 572.05556,208.73125 572.26281,208.9385 572.7276,208.524 572.93485,208.73125 573.1421,208.9385 572.80378,209.34839 572.93485,209.61054 573.12022,209.98129 573.62877,210.11909 573.81414,210.48983 573.94522,210.75199 573.60689,211.16187 573.81414,211.36912 574.02139,211.57638 574.48618,211.16187 574.69343,211.36912"
       inkscape:connector-curvature="0"
       id="path3235"
       style="opacity:0.6;fill:none;stroke:#e20000;stroke-opacity:1" />
    <path
       d="M 399.9016,324.76984 C 400.73061,324.35534 402.80311,324.35534 402.38861,323.52634 401.97411,322.69734 399.24622,325.42523 399.9016,324.76984 402.37566,322.29578 403.82733,323.33113 404.25387,322.90459 404.40042,322.75804 404.10732,322.42938 404.25387,322.28283 404.43521,322.10149 407.80304,322.10149 407.98438,322.28283 408.13093,322.42938 407.83783,322.75804 407.98438,322.90459 408.2718,323.192 409.47424,322.71689 409.84964,322.90459 410.5739,323.26672 410.99063,323.78596 411.71489,324.14809 412.08564,324.33346 412.6653,323.85499 412.9584,324.14809 413.10495,324.29464 412.81185,324.62329 412.9584,324.76984 413.10495,324.91639 413.4336,324.62329 413.58015,324.76984 413.58015,326.42785 413.3729,324.56259 414.2019,325.39159 414.34845,325.53814 414.05535,325.8668 414.2019,326.01335 414.34845,326.15989 414.63828,325.92065 414.82365,326.01335 415.34796,326.2755 415.80501,326.73254 416.06716,327.25685 416.15986,327.44222 415.92061,327.73205 416.06716,327.8786 416.21371,328.02515 416.54236,327.73205 416.68891,327.8786 416.98201,328.1717 416.50354,328.75137 416.68891,329.12211 416.81999,329.38426 417.17959,329.48171 417.31066,329.74386 417.49413,330.11079 417.31066,331.19122 417.31066,331.60912 417.31066,331.86513 417.47524,333.30979 417.31066,333.47437 417.16411,333.62092 416.83546,333.32782 416.68891,333.47437 416.39581,333.76747 416.87428,334.34713 416.68891,334.71788 416.55783,334.98003 416.19824,335.07747 416.06716,335.33963 415.97446,335.525 416.21371,335.81483 416.06716,335.96138 415.92061,336.10793 415.63078,335.86868 415.44541,335.96138 414.9211,336.22353 414.72621,336.94273 414.2019,337.20488 414.01653,337.29758 413.7267,337.05834 413.58015,337.20488 413.4336,337.35143 413.7267,337.68009 413.58015,337.82664 413.28705,338.11973 412.70739,337.64127 412.33665,337.82664 412.07449,337.95771 411.97705,338.31731 411.71489,338.44839 411.34415,338.63376 410.84213,338.26302 410.47139,338.44839 410.20924,338.57947 410.11179,338.93906 409.84964,339.07014 409.48028,339.25482 407.11024,339.25482 406.74088,339.07014 406.47872,338.93906 406.38128,338.57947 406.11913,338.44839 405.74373,338.26069 404.54128,338.7358 404.25387,338.44839 404.10732,338.30184 404.40042,337.97318 404.25387,337.82664 404.10732,337.68009 403.81749,337.91934 403.63212,337.82664 403.36996,337.69556 403.27252,337.33596 403.01036,337.20488 402.82499,337.11218 402.53516,337.35143 402.38861,337.20488 402.24206,337.05834 402.53516,336.72968 402.38861,336.58313 400.73061,336.58313 402.59586,336.79038 401.76686,335.96138 401.47376,335.66828 400.81645,336.25448 400.52336,335.96138 400.37681,335.81483 400.6699,335.48618 400.52336,335.33963 400.37681,335.19308 400.04815,335.48618 399.9016,335.33963 399.75506,335.19308 400.04815,334.86442 399.9016,334.71788 399.75506,334.57133 399.4264,334.86442 399.27985,334.71788 399.1333,334.57133 399.4264,334.24267 399.27985,334.09612 399.1333,333.94958 398.80465,334.24267 398.6581,334.09612 398.365,333.80303 398.9512,333.14572 398.6581,332.85262 398.51155,332.70607 398.1829,332.99917 398.03635,332.85262 397.72547,332.54174 398.34722,331.29824 398.03635,330.98736 397.8898,330.84081 397.56114,331.13391 397.4146,330.98736 397.3177,330.89046 397.3177,328.59725 397.4146,328.50035 397.56114,328.35381 397.8898,328.6469 398.03635,328.50035 398.32944,328.20726 397.82309,327.61228 398.03635,327.25685 398.5695,326.36827 399.27985,325.59885 399.9016,324.76984 z"
       inkscape:connector-curvature="0"
       id="path3237"
       style="opacity:0.6;fill:none;stroke:#e20000;stroke-opacity:1" />
    <path
       d="M 424.14994,307.36078 C 424.97894,306.73903 425.74836,306.02868 426.63694,305.49553 426.66974,305.47593 432.14236,305.45033 432.23271,305.49553 432.49487,305.6266 432.59231,305.9862 432.85447,306.11728 433.22521,306.30265 433.80487,305.82418 434.09797,306.11728 434.24452,306.26383 433.95142,306.59248 434.09797,306.73903 434.39107,307.03213 434.97073,306.55366 435.34147,306.73903 435.60363,306.87011 435.70107,307.22971 435.96323,307.36078 437.62123,307.36078 435.75598,307.15353 436.58498,307.98254 436.73153,308.12908 437.06018,307.83599 437.20673,307.98254 437.35328,308.12908 437.06018,308.45774 437.20673,308.60429 437.49983,308.89738 438.15714,308.31119 438.45023,308.60429 438.59678,308.75084 438.30369,309.07949 438.45023,309.22604 438.59678,309.37259 438.92544,309.07949 439.07199,309.22604 439.21853,309.37259 438.92544,309.70124 439.07199,309.84779 439.21853,309.99434 439.54719,309.70124 439.69374,309.84779 439.84029,309.99434 439.54719,310.323 439.69374,310.46954 439.84029,310.61609 440.10824,310.46954 440.31549,310.46954 440.52274,310.67679 440.72999,310.88405 440.93724,311.0913 441.44168,311.59574 442.48576,312.32307 442.8025,312.95655 442.8952,313.14192 442.65595,313.43176 442.8025,313.5783 442.94905,313.72485 443.2777,313.43176 443.42425,313.5783 443.71735,313.8714 443.23888,314.45107 443.42425,314.82181 443.78638,315.54607 444.30562,315.9628 444.66776,316.68707 444.85545,317.06246 444.38034,318.26491 444.66776,318.55232 444.8143,318.69887 445.14296,318.40577 445.28951,318.55232 445.38641,318.64922 445.38641,320.94243 445.28951,321.03933 445.14296,321.18588 444.8143,320.89278 444.66776,321.03933 444.37466,321.33243 444.96085,321.98974 444.66776,322.28283 444.52121,322.42938 444.19255,322.13629 444.046,322.28283 443.89945,322.42938 444.19255,322.75804 444.046,322.90459 443.75291,323.19768 443.0956,322.61149 442.8025,322.90459 442.65595,323.05113 442.94905,323.37979 442.8025,323.52634 442.49162,323.83721 441.24812,323.21546 440.93724,323.52634 440.79069,323.67289 441.08379,324.00154 440.93724,324.14809 440.35365,324.73168 439.37595,323.67832 439.07199,323.52634 438.55432,323.26751 436.97936,323.92072 436.58498,323.52634 436.43843,323.37979 436.73153,323.05113 436.58498,322.90459 436.37097,322.69058 432.44672,322.69058 432.23271,322.90459 432.08616,323.05113 432.37926,323.37979 432.23271,323.52634 431.93962,323.81943 431.28231,323.23324 430.98921,323.52634 430.84266,323.67289 431.13576,324.00154 430.98921,324.14809 430.84266,324.29464 430.55283,324.05539 430.36746,324.14809 430.1053,324.27917 430.00786,324.63877 429.7457,324.76984 429.12717,325.07911 425.55104,324.92745 425.39344,324.76984 425.24689,324.62329 425.53999,324.29464 425.39344,324.14809 425.08256,323.83721 423.83906,324.45897 423.52818,324.14809 423.38164,324.00154 423.67473,323.67289 423.52818,323.52634 423.23509,323.23324 422.65542,323.71171 422.28468,323.52634 422.02253,323.39526 421.92508,323.03566 421.66293,322.90459 421.47756,322.81189 421.18772,323.05113 421.04118,322.90459 420.89463,322.75804 421.18772,322.42938 421.04118,322.28283 420.89463,322.13629 420.56597,322.42938 420.41942,322.28283 420.27288,322.13629 420.56597,321.80763 420.41942,321.66108 420.27288,321.51453 419.94422,321.80763 419.79767,321.66108 419.65112,321.51453 419.94422,321.18588 419.79767,321.03933 419.65112,320.89278 419.32247,321.18588 419.17592,321.03933 419.02937,320.89278 419.32247,320.56413 419.17592,320.41758 419.02937,320.27103 418.70072,320.56413 418.55417,320.41758 418.40762,320.27103 418.70072,319.94237 418.55417,319.79583 418.40762,319.64928 418.07896,319.94237 417.93242,319.79583 417.63932,319.50273 418.11779,318.92306 417.93242,318.55232 417.80134,318.29017 417.44174,318.19272 417.31066,317.93057 417.00139,317.31203 417.15306,313.73591 417.31066,313.5783 417.45721,313.43176 417.78587,313.72485 417.93242,313.5783 418.07896,313.43176 417.83972,313.14192 417.93242,312.95655 418.06349,312.6944 418.42309,312.59695 418.55417,312.3348 418.64687,312.14943 418.40762,311.8596 418.55417,311.71305 418.70072,311.5665 419.02937,311.8596 419.17592,311.71305 419.32247,311.5665 419.02937,311.23784 419.17592,311.0913 419.32247,310.94475 419.65112,311.23784 419.79767,311.0913 419.94422,310.94475 419.65112,310.61609 419.79767,310.46954 419.94422,310.323 420.27288,310.61609 420.41942,310.46954 420.56597,310.323 420.27288,309.99434 420.41942,309.84779 420.56597,309.70124 420.89463,309.99434 421.04118,309.84779 421.18772,309.70124 421.04118,309.43329 421.04118,309.22604 422.07743,308.60429 423.11368,307.98254 424.14994,307.36078 z"
       inkscape:connector-curvature="0"
       id="path3239"
       style="opacity:0.6;fill:none;stroke:#e20000;stroke-opacity:1" />
    <path
       d="M 452.75053,315.44356 C 453.16503,316.27256 453.16503,318.34507 453.99404,317.93057 454.82304,317.51607 452.75053,314.51671 452.75053,315.44356 452.75053,316.55964 453.6411,317.49352 453.99404,318.55232 454.12511,318.94555 453.70094,319.50273 453.99404,319.79583 454.14058,319.94237 454.46924,319.64928 454.61579,319.79583 454.90889,320.08892 454.43042,320.66859 454.61579,321.03933 454.74687,321.30148 455.10646,321.39893 455.23754,321.66108 455.42291,322.03182 454.94444,322.61149 455.23754,322.90459 455.38409,323.05113 455.71274,322.75804 455.85929,322.90459 456.00584,323.05113 455.76659,323.34097 455.85929,323.52634 455.99037,323.78849 456.34997,323.88594 456.48105,324.14809 456.57375,324.33346 456.3345,324.62329 456.48105,324.76984 456.62759,324.91639 456.95625,324.62329 457.1028,324.76984 457.24935,324.91639 456.95625,325.24505 457.1028,325.39159 457.24935,325.53814 457.53918,325.29889 457.72455,325.39159 457.9867,325.52267 458.08415,325.88227 458.3463,326.01335 458.53167,326.10605 458.82151,325.8668 458.96805,326.01335 459.1146,326.15989 458.82151,326.48855 458.96805,326.6351 459.1146,326.78165 459.44326,326.48855 459.58981,326.6351 459.73635,326.78165 459.44326,327.1103 459.58981,327.25685 459.8829,327.54995 460.54021,326.96375 460.83331,327.25685 460.97986,327.4034 460.68676,327.73205 460.83331,327.8786 460.97986,328.02515 461.30851,327.73205 461.45506,327.8786 461.60161,328.02515 461.30851,328.35381 461.45506,328.50035 463.11307,328.50035 461.24781,328.2931 462.07681,329.12211 462.22336,329.26866 462.55202,328.97556 462.69857,329.12211 462.84511,329.26866 462.55202,329.59731 462.69857,329.74386 462.99166,330.03696 463.64897,329.45076 463.94207,329.74386 464.08862,329.89041 463.79552,330.21906 463.94207,330.36561 464.08862,330.51216 464.41727,330.21906 464.56382,330.36561 464.71037,330.51216 464.47112,330.80199 464.56382,330.98736 464.82598,331.51167 465.28302,331.96871 465.80733,332.23087 465.9927,332.32357 466.28253,332.08432 466.42908,332.23087 466.57563,332.37742 466.33638,332.66725 466.42908,332.85262 467.72287,335.4402 466.38618,332.18794 467.67258,333.47437 467.81913,333.62092 467.57988,333.91075 467.67258,334.09612 468.96637,336.68371 467.62968,333.43145 468.91609,334.71788 469.06264,334.86442 468.76954,335.19308 468.91609,335.33963 469.06264,335.48618 469.35247,335.24693 469.53784,335.33963 469.79999,335.4707 469.89744,335.8303 470.15959,335.96138 470.34496,336.05408 470.63479,335.81483 470.78134,335.96138 470.92789,336.10793 470.63479,336.43658 470.78134,336.58313 470.92789,336.72968 471.21772,336.49043 471.4031,336.58313 471.66525,336.71421 471.76269,337.07381 472.02485,337.20488 472.21022,337.29758 472.50005,337.05834 472.6466,337.20488 472.79315,337.35143 472.50005,337.68009 472.6466,337.82664 472.79315,337.97318 473.1218,337.68009 473.26835,337.82664 473.4149,337.97318 473.1218,338.30184 473.26835,338.44839 473.4149,338.59494 473.70473,338.35569 473.8901,338.44839 474.15226,338.57947 474.2497,338.93906 474.51186,339.07014 474.63939,339.13394 476.28943,339.15784 476.37711,339.07014 476.52366,338.92359 476.23056,338.59494 476.37711,338.44839 476.52366,338.30184 476.85232,338.59494 476.99886,338.44839 477.08656,338.36069 477.06266,336.71067 476.99886,336.58313 476.86779,336.32098 476.50819,336.22353 476.37711,335.96138 476.05096,335.30907 476.87337,333.34888 476.37711,332.85262 476.23056,332.70607 475.90191,332.99917 475.75536,332.85262 475.34086,332.43812 476.16986,330.78011 475.75536,330.36561 475.60881,330.21906 475.28016,330.51216 475.13361,330.36561 474.84051,330.07251 475.31898,329.49285 475.13361,329.12211 475.00253,328.85995 474.64293,328.76251 474.51186,328.50035 474.32649,328.12961 474.69723,327.62759 474.51186,327.25685 474.38078,326.9947 474.02118,326.89725 473.8901,326.6351 473.6414,326.1377 474.1388,325.26724 473.8901,324.76984 473.75903,324.50769 473.39943,324.41024 473.26835,324.14809 472.68805,322.98749 473.84865,320.95643 473.26835,319.79583 473.13727,319.53367 472.77768,319.43623 472.6466,319.17407 472.15055,318.18197 473.16908,312.85728 472.6466,312.3348 472.50005,312.18825 472.1714,312.48135 472.02485,312.3348 471.93365,312.2436 472.02485,304.47668 472.02485,303.63027 472.02485,303.25085 472.26711,301.38552 472.02485,301.14326 471.8783,300.99671 471.54964,301.28981 471.4031,301.14326 471.3062,301.04636 471.3062,298.75315 471.4031,298.65625 471.54964,298.50971 471.8783,298.8028 472.02485,298.65625 472.235,298.4461 471.84761,295.45746 472.02485,294.92574 472.1714,294.4861 472.50005,294.12188 472.6466,293.68224 472.88143,292.97775 472.31717,291.85408 472.6466,291.19523 472.77768,290.93308 473.13727,290.83563 473.26835,290.57348 473.45372,290.20274 473.08298,289.70071 473.26835,289.32997 473.63048,288.60571 474.14972,288.18898 474.51186,287.46472 474.69723,287.09398 474.32649,286.59195 474.51186,286.22121 474.64293,285.95906 475.00253,285.86161 475.13361,285.59946 475.31898,285.22872 475.00253,284.74919 475.13361,284.35596 475.28016,283.91631 475.60881,283.5521 475.75536,283.11245 475.88644,282.71922 475.62428,282.26218 475.75536,281.86895 475.90191,281.4293 476.23056,281.06509 476.37711,280.62544 476.44261,280.42883 476.28441,280.18906 476.37711,280.00369 476.50819,279.74154 476.86779,279.64409 476.99886,279.38194 477.18423,279.0112 476.81349,278.50918 476.99886,278.13844 477.37192,277.39233 478.49107,277.01928 478.86412,276.27318 479.04949,275.90244 478.67875,275.40042 478.86412,275.02967 480.92621,272.96758 478.57102,275.61587 479.48587,273.78617 479.74803,273.26186 480.46722,273.06697 480.72938,272.54267 480.91475,272.17193 480.43628,271.59226 480.72938,271.29916 480.87593,271.15261 481.20458,271.44571 481.35113,271.29916 481.76492,270.88537 480.93734,270.46945 481.35113,270.05566 481.49768,269.90911 481.82633,270.20221 481.97288,270.05566 482.11943,269.90911 481.88018,269.61928 481.97288,269.43391 482.33501,268.70964 482.85425,268.29291 483.21639,267.56865 483.30909,267.38328 483.06984,267.09345 483.21639,266.9469 483.36293,266.80035 483.69159,267.09345 483.83814,266.9469 483.98469,266.80035 483.74544,266.51052 483.83814,266.32515 485.13193,263.73756 483.79524,266.98982 485.08164,265.70339 485.22819,265.55685 484.93509,265.22819 485.08164,265.08164 485.22819,264.93509 485.55685,265.22819 485.70339,265.08164 485.84994,264.93509 485.55685,264.60644 485.70339,264.45989 485.84994,264.31334 486.1786,264.60644 486.32515,264.45989 486.47169,264.31334 486.1786,263.98469 486.32515,263.83814 486.47169,263.69159 486.80035,263.98469 486.9469,263.83814 487.09345,263.69159 486.80035,263.36293 486.9469,263.21639 487.09345,263.06984 487.4221,263.36293 487.56865,263.21639 487.7152,263.06984 487.4221,262.74118 487.56865,262.59463 487.7152,262.44808 488.04385,262.74118 488.1904,262.59463 488.33695,262.44808 488.1904,262.18013 488.1904,261.97288 488.39765,261.97288 488.62678,262.06558 488.81215,261.97288 491.39974,260.67909 488.14748,262.01578 489.43391,260.72938 489.58045,260.58283 489.87029,260.82208 490.05566,260.72938 491.43039,260.04201 490.2486,260.34349 490.67741,259.48587 491.9712,256.89829 490.63451,260.15055 491.92091,258.86412 492.06746,258.71757 491.77437,258.38892 491.92091,258.24237 492.06746,258.09582 492.3573,258.33507 492.54267,258.24237 492.80482,258.11129 492.90226,257.75169 493.16442,257.62062 493.34979,257.52792 493.63962,257.76716 493.78617,257.62062 493.93272,257.47407 493.63962,257.14541 493.78617,256.99886 493.93272,256.85232 494.26137,257.14541 494.40792,256.99886 494.55447,256.85232 494.26137,256.52366 494.40792,256.37711 496.06593,256.37711 494.20067,256.58436 495.02967,255.75536 495.17622,255.60881 495.50488,255.90191 495.65143,255.75536 495.79798,255.60881 495.55873,255.31898 495.65143,255.13361 495.91358,254.6093 496.37062,254.15226 496.89493,253.8901 497.39233,253.6414 498.26279,254.1388 498.76019,253.8901 499.48445,253.52797 499.90118,253.00873 500.62544,252.6466 500.81081,252.5539 501.10065,252.79315 501.2472,252.6466 501.39374,252.50005 501.10065,252.1714 501.2472,252.02485 501.54029,251.73175 502.1976,252.31794 502.4907,252.02485 502.63725,251.8783 502.398,251.58847 502.4907,251.4031 503.78449,248.81551 502.4478,252.06777 503.7342,250.78134 503.88075,250.63479 503.6415,250.34496 503.7342,250.15959 503.99636,249.63528 504.71555,249.44039 504.97771,248.91609 505.07041,248.73072 504.83116,248.44088 504.97771,248.29433 505.12426,248.14779 505.45291,248.44088 505.59946,248.29433 505.74601,248.14779 505.45291,247.81913 505.59946,247.67258 505.74601,247.52603 506.07466,247.81913 506.22121,247.67258 506.36776,247.52603 506.12851,247.2362 506.22121,247.05083 506.58334,246.32657 507.10259,245.90984 507.46472,245.18557 507.7916,244.5318 507.46472,242.82362 507.46472,242.07681 507.46472,241.86956 507.61127,241.60161 507.46472,241.45506 507.31817,241.30851 506.98951,241.60161 506.84296,241.45506 506.69642,241.30851 506.93566,241.01868 506.84296,240.83331 506.71189,240.57116 506.35229,240.47371 506.22121,240.21156 506.03584,239.84082 506.51431,239.26115 506.22121,238.96805 506.07466,238.82151 505.74601,239.1146 505.59946,238.96805 505.28858,238.65718 505.91034,237.41367 505.59946,237.1028 505.45291,236.95625 505.12426,237.24935 504.97771,237.1028 504.68461,236.8097 505.16308,236.23003 504.97771,235.85929 504.84663,235.59714 504.48703,235.49969 504.35596,235.23754 504.10726,234.74014 504.60466,233.86969 504.35596,233.37228 503.99383,232.64802 503.47458,232.23129 503.11245,231.50703 502.92708,231.13629 503.40555,230.55662 503.11245,230.26352 502.9659,230.11698 502.63725,230.41007 502.4907,230.26352 502.34415,230.11698 502.63725,229.78832 502.4907,229.64177 502.34415,229.49522 502.0155,229.78832 501.86895,229.64177 501.7224,229.49522 502.0155,229.16657 501.86895,229.02002 501.7224,228.87347 501.43257,229.11272 501.2472,229.02002 500.98504,228.88894 500.8876,228.52934 500.62544,228.39827 500.25005,228.21057 499.0476,228.68568 498.76019,228.39827 498.61364,228.25172 498.90674,227.92306 498.76019,227.77652 498.61364,227.62997 498.28498,227.92306 498.13844,227.77652 497.99189,227.62997 498.13844,227.36201 498.13844,227.15476 497.93118,227.15476 497.66323,227.30131 497.51668,227.15476 497.22359,226.86167 497.80978,226.20436 497.51668,225.91126 497.37013,225.76471 497.04148,226.05781 496.89493,225.91126 496.32406,225.34039 497.43666,219.5337 496.89493,218.45023 496.59449,217.84935 495.00881,216.26367 494.40792,215.96323 494.22255,215.87053 493.97154,216.05593 493.78617,215.96323 493.52402,215.83215 493.42657,215.47255 493.16442,215.34147 492.79368,215.1561 492.21401,215.63457 491.92091,215.34147 491.77437,215.19493 492.06746,214.86627 491.92091,214.71972 491.74676,214.54557 489.06652,214.59254 488.81215,214.71972 488.55,214.8508 488.45256,215.2104 488.1904,215.34147 488.00503,215.43417 487.7152,215.19493 487.56865,215.34147 487.4221,215.48802 487.7152,215.81668 487.56865,215.96323 487.4221,216.10977 487.09345,215.81668 486.9469,215.96323 486.80035,216.10977 487.09345,216.43843 486.9469,216.58498 486.80035,216.73153 486.47169,216.43843 486.32515,216.58498 486.11877,216.79136 486.11877,221.35262 486.32515,221.55899 486.47169,221.70554 486.80035,221.41245 486.9469,221.55899 487.23999,221.85209 486.6538,222.5094 486.9469,222.8025 487.09345,222.94905 487.4221,222.65595 487.56865,222.8025 487.86175,223.0956 487.38328,223.67526 487.56865,224.046 487.69973,224.30816 488.05932,224.4056 488.1904,224.66776 488.2652,224.81742 488.2652,230.73561 488.1904,230.88528 488.05932,231.14743 487.69973,231.24487 487.56865,231.50703 487.31995,232.00443 487.81735,232.87488 487.56865,233.37228 487.20652,234.09655 486.68728,234.51328 486.32515,235.23754 486.23245,235.42291 486.41785,235.67392 486.32515,235.85929 486.06299,236.3836 485.3438,236.57849 485.08164,237.1028 484.98894,237.28817 485.22819,237.578 485.08164,237.72455 484.93509,237.8711 484.60644,237.578 484.45989,237.72455 484.31334,237.8711 484.55259,238.16093 484.45989,238.3463 484.32881,238.60845 483.96921,238.7059 483.83814,238.96805 483.74544,239.15342 483.98469,239.44326 483.83814,239.58981 483.69159,239.73635 483.36293,239.44326 483.21639,239.58981 483.06984,239.73635 483.36293,240.06501 483.21639,240.21156 483.06984,240.35811 482.74118,240.06501 482.59463,240.21156 482.44808,240.35811 482.68733,240.64794 482.59463,240.83331 482.46356,241.09546 482.10396,241.19291 481.97288,241.45506 481.88018,241.64043 482.11943,241.93027 481.97288,242.07681 481.82633,242.22336 481.49768,241.93027 481.35113,242.07681 481.20458,242.22336 481.49768,242.55202 481.35113,242.69857 481.20458,242.84511 480.87593,242.55202 480.72938,242.69857 480.58283,242.84511 480.87593,243.17377 480.72938,243.32032 480.58283,243.46687 480.25417,243.17377 480.10762,243.32032 479.96108,243.46687 480.25417,243.79552 480.10762,243.94207 479.96108,244.08862 479.67124,243.84937 479.48587,243.94207 479.22372,244.07315 479.12627,244.43275 478.86412,244.56382 478.67875,244.65652 478.38892,244.41727 478.24237,244.56382 478.09582,244.71037 478.38892,245.03903 478.24237,245.18557 478.09582,245.33212 477.76716,245.03903 477.62062,245.18557 477.47407,245.33212 477.76716,245.66078 477.62062,245.80733 477.47407,245.95387 477.18423,245.71463 476.99886,245.80733 476.73671,245.9384 476.63927,246.298 476.37711,246.42908 476.19174,246.52178 475.90191,246.28253 475.75536,246.42908 474.46893,247.71551 477.72119,246.37878 475.13361,247.67258 474.94824,247.76528 474.6584,247.52603 474.51186,247.67258 474.36531,247.81913 474.6584,248.14779 474.51186,248.29433 474.36531,248.44088 474.07547,248.20163 473.8901,248.29433 473.3658,248.55649 472.90875,249.01353 472.6466,249.53784 472.5539,249.72321 472.79315,250.01304 472.6466,250.15959 472.50005,250.30614 472.1714,250.01304 472.02485,250.15959 471.8783,250.30614 472.11755,250.59597 472.02485,250.78134 471.89377,251.0435 471.53417,251.14094 471.4031,251.4031 471.3104,251.58847 471.54964,251.8783 471.4031,252.02485 471.25655,252.1714 470.92789,251.8783 470.78134,252.02485 470.63479,252.1714 470.87404,252.46123 470.78134,252.6466 470.65027,252.90875 470.29067,253.0062 470.15959,253.26835 470.06689,253.45372 470.30614,253.74356 470.15959,253.8901 470.01304,254.03665 469.68439,253.74356 469.53784,253.8901 469.39129,254.03665 469.63054,254.32649 469.53784,254.51186 469.17571,255.23612 468.65647,255.65285 468.29433,256.37711 468.20163,256.56248 468.44088,256.85232 468.29433,256.99886 468.14779,257.14541 467.81913,256.85232 467.67258,256.99886 467.52603,257.14541 467.76528,257.43525 467.67258,257.62062 467.54151,257.88277 467.18191,257.98021 467.05083,258.24237 466.86546,258.61311 467.2362,259.11513 467.05083,259.48587 466.6887,260.21013 466.16946,260.62687 465.80733,261.35113 465.62196,261.72187 465.9927,262.22389 465.80733,262.59463 465.67625,262.85679 465.31665,262.95423 465.18557,263.21639 465.0002,263.58713 465.37094,264.08915 465.18557,264.45989 465.0545,264.72204 464.6949,264.81949 464.56382,265.08164 463.89889,266.41151 465.22876,264.99524 464.56382,266.32515 464.43275,266.5873 464.07315,266.68474 463.94207,266.9469 463.84937,267.13227 464.08862,267.4221 463.94207,267.56865 463.79552,267.7152 463.46687,267.4221 463.32032,267.56865 463.02722,267.86175 463.50569,268.44141 463.32032,268.81215 463.18924,269.07431 462.82964,269.17175 462.69857,269.43391 462.60587,269.61928 462.84511,269.90911 462.69857,270.05566 462.55202,270.20221 462.22336,269.90911 462.07681,270.05566 461.78372,270.34875 462.36991,271.00607 462.07681,271.29916 461.93027,271.44571 461.60161,271.15261 461.45506,271.29916 461.16197,271.59226 461.64043,272.17193 461.45506,272.54267 461.32398,272.80482 460.96439,272.90226 460.83331,273.16442 460.74061,273.34979 460.97986,273.63962 460.83331,273.78617 460.68676,273.93272 460.35811,273.63962 460.21156,273.78617 460.06501,273.93272 460.30426,274.22255 460.21156,274.40792 460.08048,274.67008 459.72088,274.76752 459.58981,275.02967 459.49711,275.21505 459.68251,275.46606 459.58981,275.65143 459.45873,275.91358 459.09913,276.01103 458.96805,276.27318 458.87535,276.45855 459.06075,276.70956 458.96805,276.89493 458.83698,277.15708 458.47738,277.25453 458.3463,277.51668 458.3463,279.17469 458.55355,277.30943 457.72455,278.13844 457.43145,278.43153 457.90992,279.0112 457.72455,279.38194 457.36242,280.1062 456.84318,280.52293 456.48105,281.2472 456.38835,281.43257 456.62759,281.7224 456.48105,281.86895 456.3345,282.0155 456.00584,281.7224 455.85929,281.86895 455.5662,282.16204 456.15239,282.81936 455.85929,283.11245 455.71274,283.259 455.38409,282.9659 455.23754,283.11245 454.94444,283.40555 455.42291,283.98521 455.23754,284.35596 454.67067,285.4897 454.61579,284.77324 454.61579,286.22121 454.61579,286.63571 454.90889,287.17162 454.61579,287.46472 454.46924,287.61127 454.14058,287.31817 453.99404,287.46472 453.52045,287.93831 454.44412,292.78207 453.99404,293.68224 453.86296,293.94439 453.50336,294.04184 453.37228,294.30399 453.10292,294.84272 453.37228,300.13852 453.37228,301.14326 453.37228,305.92345 453.6889,310.75174 452.75053,315.44356 z"
       inkscape:connector-curvature="0"
       id="path3241"
       style="opacity:0.6;fill:none;stroke:#e20000;stroke-opacity:1" />
    <path
       d="M 476.99886,340.31364 C 477.82787,340.9354 478.75313,341.44616 479.48587,342.1789 479.63242,342.32545 479.39317,342.61528 479.48587,342.80065 479.74803,343.32496 480.46722,343.51985 480.72938,344.04416 480.82208,344.22953 480.58283,344.51936 480.72938,344.66591 480.87593,344.81246 481.16576,344.57321 481.35113,344.66591 481.61328,344.79699 481.71073,345.15658 481.97288,345.28766 482.15825,345.38036 482.44808,345.14111 482.59463,345.28766 482.74118,345.43421 482.44808,345.76287 482.59463,345.90941 482.74118,346.05596 483.03101,345.81671 483.21639,345.90941 485.80397,347.20321 482.55171,345.86651 483.83814,347.15292 485.12456,348.43935 483.78784,345.18709 485.08164,347.77467 485.17434,347.96004 484.93509,348.24987 485.08164,348.39642 485.22819,348.54297 485.55685,348.24987 485.70339,348.39642 485.84994,348.54297 485.55685,348.87163 485.70339,349.01817 485.84994,349.16472 486.1786,348.87163 486.32515,349.01817 486.47169,349.16472 486.23245,349.45456 486.32515,349.63993 487.61894,352.22751 486.28225,348.97525 487.56865,350.26168 487.7152,350.40823 487.4221,350.73688 487.56865,350.88343 487.7152,351.02998 488.04385,350.73688 488.1904,350.88343 488.33695,351.02998 488.04385,351.35863 488.1904,351.50518 488.33695,351.65173 488.66561,351.35863 488.81215,351.50518 488.9587,351.65173 488.66561,351.98039 488.81215,352.12693 488.9587,352.27348 489.24854,352.03423 489.43391,352.12693 489.69606,352.25801 489.7935,352.61761 490.05566,352.74869 490.24103,352.84139 490.53086,352.60214 490.67741,352.74869 490.82396,352.89524 490.53086,353.22389 490.67741,353.37044 490.82396,353.51699 491.15261,353.22389 491.29916,353.37044 491.44571,353.51699 491.15261,353.84564 491.29916,353.99219 491.44571,354.13874 491.77437,353.84564 491.92091,353.99219 492.06746,354.13874 491.77437,354.46739 491.92091,354.61394 492.21401,354.90704 492.87132,354.32085 493.16442,354.61394 493.31097,354.76049 493.01787,355.08915 493.16442,355.2357 495.24234,357.31362 492.33,353.15777 494.40792,355.2357 494.55447,355.38224 494.26137,355.7109 494.40792,355.85745 494.70102,356.15054 495.35833,355.56435 495.65143,355.85745 495.79798,356.004 495.50488,356.33265 495.65143,356.4792 495.79798,356.62575 496.08781,356.3865 496.27318,356.4792 496.53533,356.61028 496.63278,356.96987 496.89493,357.10095 497.0803,357.19365 497.33131,357.00825 497.51668,357.10095 497.77884,357.23203 497.87628,357.59163 498.13844,357.7227 498.32381,357.8154 498.57482,357.63 498.76019,357.7227 499.48445,358.08483 499.90118,358.60408 500.62544,358.96621 500.99619,359.15158 501.57585,358.67311 501.86895,358.96621 502.0155,359.11276 501.7224,359.44141 501.86895,359.58796 502.17982,359.89884 503.42333,359.27708 503.7342,359.58796 503.88075,359.73451 503.58766,360.06316 503.7342,360.20971 504.12859,360.6041 505.70355,359.95088 506.22121,360.20971 506.48337,360.34079 506.58081,360.70039 506.84296,360.83146 507.4615,361.14073 511.03763,360.98907 511.19523,360.83146 511.34178,360.68492 511.04868,360.35626 511.19523,360.20971 511.61081,359.79413 512.02315,360.6253 512.43873,360.20971 512.58528,360.06316 512.29219,359.73451 512.43873,359.58796 512.58528,359.44141 512.87511,359.68066 513.06049,359.58796 513.32264,359.45688 513.42008,359.09728 513.68224,358.96621 513.86761,358.87351 514.15744,359.11276 514.30399,358.96621 514.45054,358.81966 514.15744,358.491 514.30399,358.34446 514.45054,358.19791 514.77919,358.491 514.92574,358.34446 515.07229,358.19791 514.83304,357.90807 514.92574,357.7227 515.1879,357.1984 515.90709,357.00351 516.16925,356.4792 516.26195,356.29383 516.0227,356.004 516.16925,355.85745 516.31579,355.7109 516.64445,356.004 516.791,355.85745 516.93755,355.7109 516.6983,355.42107 516.791,355.2357 516.92207,354.97354 517.28167,354.8761 517.41275,354.61394 517.50545,354.42857 517.32005,354.17756 517.41275,353.99219 517.6749,353.46788 518.3941,353.27299 518.65625,352.74869 518.74895,352.56332 518.50971,352.27348 518.65625,352.12693 518.8028,351.98039 519.13146,352.27348 519.27801,352.12693 519.42455,351.98039 519.18531,351.69055 519.27801,351.50518 519.40908,351.24303 519.76868,351.14558 519.89976,350.88343 520.08513,350.51269 519.71439,350.01067 519.89976,349.63993 520.26189,348.91566 520.78113,348.49893 521.14326,347.77467 521.32863,347.40393 520.95789,346.90191 521.14326,346.53117 521.27434,346.26901 521.63394,346.17157 521.76501,345.90941 522.01051,345.41842 521.59023,344.56851 521.76501,344.04416 521.91156,343.60451 522.24022,343.2403 522.38677,342.80065 522.56155,342.2763 522.14127,341.42639 522.38677,340.9354 522.51784,340.67324 522.87744,340.5758 523.00852,340.31364 523.25722,339.81624 522.75982,338.94579 523.00852,338.44839 523.1396,338.18623 523.49919,338.08879 523.63027,337.82664 524.12767,336.83183 523.13287,335.09093 523.63027,334.09612 523.76135,333.83397 524.12095,333.73653 524.25202,333.47437 524.87774,332.22294 523.62631,322.91251 524.25202,321.66108 524.3831,321.39893 524.7427,321.30148 524.87378,321.03933 525.28828,320.21033 524.45927,318.75957 524.87378,317.93057 525.00485,317.66842 525.36445,317.57097 525.49553,317.30882 525.75436,316.79115 525.10114,315.21619 525.49553,314.82181 525.64208,314.67526 525.97073,314.96836 526.11728,314.82181 526.43898,314.50011 525.80777,311.08857 526.11728,310.46954 526.24836,310.20739 526.60795,310.10995 526.73903,309.84779 527.31933,308.68719 526.15873,306.65613 526.73903,305.49553 526.87011,305.23337 527.22971,305.13593 527.36078,304.87378 527.68026,304.23483 527.36078,297.98089 527.36078,296.791 527.36078,295.89059 527.75481,293.84853 527.36078,293.06049 527.22971,292.79833 526.87011,292.70089 526.73903,292.43873 526.32453,291.60973 527.15353,290.15898 526.73903,289.32997 526.60795,289.06782 526.24836,288.97037 526.11728,288.70822 525.93191,288.33748 526.30265,287.83546 526.11728,287.46472 525.75515,286.74045 525.23591,286.32372 524.87378,285.59946 524.6884,285.22872 525.16687,284.64905 524.87378,284.35596 524.72723,284.20941 524.39857,284.5025 524.25202,284.35596 523.96461,284.06854 524.43972,282.8661 524.25202,282.4907 523.88989,281.76644 523.37065,281.34971 523.00852,280.62544 522.75982,280.12804 523.25722,279.25759 523.00852,278.76019 522.87744,278.49803 522.51784,278.40059 522.38677,278.13844 522.13807,277.64103 522.63547,276.77058 522.38677,276.27318 522.25569,276.01103 521.89609,275.91358 521.76501,275.65143 521.57964,275.28069 522.05811,274.70102 521.76501,274.40792 521.61847,274.26137 521.28981,274.55447 521.14326,274.40792 520.85017,274.11483 521.32863,273.53516 521.14326,273.16442 520.78113,272.44016 520.26189,272.02342 519.89976,271.29916 519.80706,271.11379 519.99246,270.86278 519.89976,270.67741 519.76868,270.41526 519.40908,270.31781 519.27801,270.05566 519.18531,269.87029 519.37071,269.61928 519.27801,269.43391 519.01585,268.9096 518.29666,268.71471 518.0345,268.1904 517.9418,268.00503 518.1272,267.75402 518.0345,267.56865 517.90343,267.3065 517.54383,267.20905 517.41275,266.9469 517.32005,266.76153 517.5593,266.47169 517.41275,266.32515 517.2662,266.1786 516.93755,266.47169 516.791,266.32515 516.64445,266.1786 516.8837,265.88876 516.791,265.70339 516.42887,264.97913 515.90962,264.5624 515.54749,263.83814 515.45479,263.65277 515.69404,263.36293 515.54749,263.21639 515.40095,263.06984 515.07229,263.36293 514.92574,263.21639 514.77919,263.06984 515.01844,262.78 514.92574,262.59463 514.79467,262.33248 514.43507,262.23503 514.30399,261.97288 514.21129,261.78751 514.39669,261.5365 514.30399,261.35113 514.17291,261.08898 513.81331,260.99153 513.68224,260.72938 513.58954,260.54401 513.77494,260.293 513.68224,260.10762 513.55116,259.84547 513.19156,259.74803 513.06049,259.48587 512.96779,259.3005 513.15319,259.04949 513.06049,258.86412 512.69835,258.13986 512.17911,257.72313 511.81698,256.99886 511.63161,256.62812 512.11008,256.04846 511.81698,255.75536 511.67043,255.60881 511.34178,255.90191 511.19523,255.75536 510.90213,255.46226 511.3806,254.8826 511.19523,254.51186 511.06415,254.2497 510.70455,254.15226 510.57348,253.8901 510.38578,253.51471 510.86089,252.31226 510.57348,252.02485 510.42693,251.8783 510.09827,252.1714 509.95173,252.02485 509.53704,251.61016 510.36641,251.19603 509.95173,250.78134 509.80518,250.63479 509.47652,250.92789 509.32997,250.78134 509.03688,250.48825 509.62307,249.83094 509.32997,249.53784 509.18342,249.39129 508.85477,249.68439 508.70822,249.53784 508.56167,249.39129 508.80092,249.10146 508.70822,248.91609 508.57714,248.65393 508.21755,248.55649 508.08647,248.29433 507.99377,248.10896 508.23302,247.81913 508.08647,247.67258 507.93992,247.52603 507.61127,247.81913 507.46472,247.67258 507.17162,247.37949 507.75781,246.72218 507.46472,246.42908 506.74503,245.70939 505.59946,247.82937 505.59946,248.29433"
       inkscape:connector-curvature="0"
       id="path3243"
       style="opacity:0.6;fill:none;stroke:#e20000;stroke-opacity:1" />
    <path
       d="M 572.12693,210.98921 C 572.39457,214.27835 575.22981,212.20857 572.12693,210.98921 579.57866,218.23034 585.14679,227.02058 590.52544,235.82405 596.95321,244.72665 603.32918,254.28511 604.46601,265.50832 605.08263,273.08894 607.45959,281.08478 603.88292,288.33025 599.11973,295.99409 599.34649,305.5916 594.35463,313.13301 589.9205,321.98212 586.90372,331.65207 580.39148,339.31452 575.5521,346.14009 570.20121,354.94323 560.80871,355.16221 554.08673,355.65023 547.57247,356.4997 541.3802,359.33329 534.25924,361.49044 539.01009,368.80066 544.82572,367.5209 552.34033,367.84 559.94373,365.32796 565.44114,360.09637 571.71282,355.09673 580.03662,352.40658 583.94303,344.80464 588.24503,338.02804 593.76037,331.94427 596.8077,324.38291 601.77186,316.19615 606.11183,307.48312 607.75329,297.97254 609.7485,289.0521 612.90616,280.25049 612.11198,270.95064 611.82263,258.42848 606.54319,246.55845 598.85012,236.84191 594.76519,229.90973 589.3114,223.97989 584.58217,217.50305 582.85294,217.742 581.19805,211.03879 580.83146,215.34147"
       inkscape:connector-curvature="0"
       id="path3245"
       style="opacity:0.6;fill:none;stroke:#e20000;stroke-opacity:1" />
    <path
       d="M 479.48587,166.22306 C 478.83638,168.35219 481.37941,168.14487 481.97288,169.33182 482.11636,169.61878 482.11636,171.53186 481.97288,171.81883 481.8418,172.08098 481.48221,172.17843 481.35113,172.44058 481.0923,172.95824 481.74551,174.5332 481.35113,174.92759 481.20458,175.07414 480.87593,174.78104 480.72938,174.92759 480.21125,175.44571 481.2475,177.51822 480.72938,178.03635 480.58283,178.1829 480.25417,177.8898 480.10762,178.03635 479.96108,178.1829 480.25417,178.51155 480.10762,178.6581 479.96108,178.80465 479.63242,178.51155 479.48587,178.6581 479.19278,178.9512 479.67124,179.53086 479.48587,179.9016 479.3548,180.16376 478.9952,180.2612 478.86412,180.52336 478.77142,180.70873 479.01067,180.99856 478.86412,181.14511 478.71757,181.29166 478.38892,180.99856 478.24237,181.14511 478.09582,181.29166 478.38892,181.62031 478.24237,181.76686 478.09582,181.91341 477.76716,181.62031 477.62062,181.76686 477.32752,182.05996 477.91371,182.71727 477.62062,183.01036 477.47407,183.15691 477.14541,182.86382 476.99886,183.01036 476.85232,183.15691 477.14541,183.48557 476.99886,183.63212 476.85232,183.77867 476.52366,183.48557 476.37711,183.63212 476.23056,183.77867 476.52366,184.10732 476.37711,184.25387 476.23056,184.40042 475.90191,184.10732 475.75536,184.25387 475.60881,184.40042 475.90191,184.72907 475.75536,184.87562 475.60881,185.02217 475.28016,184.72907 475.13361,184.87562 474.98706,185.02217 475.22631,185.312 475.13361,185.49737 475.00253,185.75953 474.64293,185.85697 474.51186,186.11913 474.32649,186.48987 474.80495,187.06953 474.51186,187.36263 474.36531,187.50918 474.03665,187.21608 473.8901,187.36263 473.57986,187.67287 473.8901,189.98455 473.8901,190.47139 473.8901,191.2182 473.56322,192.92638 473.8901,193.58015 474.02118,193.8423 474.38078,193.93975 474.51186,194.2019 474.76056,194.6993 474.26315,195.56976 474.51186,196.06716 474.64293,196.32931 475.00253,196.42676 475.13361,196.68891 475.31898,197.05965 474.84051,197.63932 475.13361,197.93242 475.28016,198.07896 475.60881,197.78587 475.75536,197.93242 476.04277,198.21983 475.56766,199.42227 475.75536,199.79767 475.88644,200.05983 476.24604,200.15727 476.37711,200.41942 476.56481,200.79482 476.0897,201.99727 476.37711,202.28468 476.52366,202.43123 476.85232,202.13813 476.99886,202.28468 477.29196,202.57778 476.81349,203.15744 476.99886,203.52818 477.12994,203.79034 477.48954,203.88778 477.62062,204.14994 477.80599,204.52068 477.32752,205.10034 477.62062,205.39344 477.76716,205.53999 478.09582,205.24689 478.24237,205.39344 478.53547,205.68654 477.94927,206.34385 478.24237,206.63694 478.38892,206.78349 478.71757,206.4904 478.86412,206.63694 479.15153,206.92436 478.67642,208.1268 478.86412,208.5022 478.9952,208.76435 479.3548,208.8618 479.48587,209.12395 479.67124,209.49469 479.3005,209.99672 479.48587,210.36746 479.61695,210.62961 479.97655,210.72706 480.10762,210.98921 480.293,211.35995 479.81453,211.93962 480.10762,212.23271 480.25417,212.37926 480.58283,212.08616 480.72938,212.23271 480.87593,212.37926 480.63668,212.66909 480.72938,212.85447 480.86045,213.11662 481.22005,213.21406 481.35113,213.47622 481.5365,213.84696 481.05803,214.42662 481.35113,214.71972 481.49768,214.86627 481.82633,214.57317 481.97288,214.71972 482.26598,215.01282 481.78751,215.59248 481.97288,215.96323 482.53975,217.09697 482.59463,216.38051 482.59463,217.82848 482.59463,218.24298 482.30154,218.77889 482.59463,219.07199 482.74118,219.21853 483.06984,218.92544 483.21639,219.07199 483.63089,219.48649 482.80188,221.14449 483.21639,221.55899 483.36293,221.70554 483.69159,221.41245 483.83814,221.55899 484.12555,221.84641 483.65044,223.04885 483.83814,223.42425 483.96921,223.6864 484.32881,223.78385 484.45989,224.046 484.71872,224.56367 484.0655,226.13863 484.45989,226.53301 484.60644,226.67956 484.93509,226.38646 485.08164,226.53301 485.3239,226.77527 485.08164,228.6406 485.08164,229.02002 485.08164,229.92043 484.68762,231.96249 485.08164,232.75053 485.21272,233.01269 485.57232,233.11013 485.70339,233.37228 485.76719,233.49982 485.79109,235.14986 485.70339,235.23754 485.55685,235.38409 485.22819,235.09099 485.08164,235.23754 484.77077,235.54842 485.39252,236.79192 485.08164,237.1028 484.37404,237.8104 483.83814,236.27379 483.83814,235.85929"
       inkscape:connector-curvature="0"
       id="path3247"
       style="opacity:0.6;fill:none;stroke:#e20000;stroke-opacity:1" />
    <path
       d="M 350.16144,174.30584 C 350.99044,174.09858 351.81052,173.85167 352.64845,173.68408 353.78669,173.45643 355.21474,173.68408 356.37896,173.68408 359.07322,173.68408 361.76748,173.68408 364.46174,173.68408 364.94857,173.68408 367.26026,173.37384 367.5705,173.68408 367.71704,173.83063 367.42395,174.15929 367.5705,174.30584 367.81275,174.54809 369.67808,174.30584 370.0575,174.30584 374.82427,174.30584 379.59104,174.30584 384.3578,174.30584 385.25821,174.30584 387.30027,174.69986 388.08831,174.30584 388.35047,174.17476 388.44791,173.81516 388.71007,173.68408 388.90632,173.58598 391.06258,173.54959 391.19708,173.68408 391.34362,173.83063 391.05053,174.15929 391.19708,174.30584 391.43933,174.54809 393.30466,174.30584 393.68408,174.30584 395.90864,174.30584 394.11631,174.92759 395.54934,174.92759 396.99731,174.92759 396.28085,174.98249 397.4146,175.54934 397.78534,175.73471 398.365,175.25624 398.6581,175.54934 398.80465,175.69589 398.51155,176.02454 398.6581,176.17109 398.9512,176.46419 399.60851,175.878 399.9016,176.17109 400.04815,176.31764 399.75506,176.6463 399.9016,176.79284 400.1947,177.08594 400.85201,176.49975 401.14511,176.79284 401.29166,176.93939 401.05241,177.22923 401.14511,177.4146 401.47902,178.08242 402.0547,177.99027 402.38861,178.6581 402.57398,179.02884 402.09552,179.60851 402.38861,179.9016 402.53516,180.04815 402.86382,179.75506 403.01036,179.9016 403.07256,179.9638 403.07256,181.70469 403.01036,181.76686 402.86382,181.91341 402.53516,181.62031 402.38861,181.76686 402.24206,181.91341 402.53516,182.24206 402.38861,182.38861 402.24206,182.53516 401.95223,182.29591 401.76686,182.38861 400.43121,183.05644 401.85906,182.96429 400.52336,183.63212 400.15262,183.81749 399.65059,183.44675 399.27985,183.63212 399.0177,183.76319 398.92025,184.12279 398.6581,184.25387 398.1607,184.50257 397.29025,184.00517 396.79284,184.25387 396.53069,184.38495 396.43325,184.74454 396.17109,184.87562 395.60112,185.16061 392.62239,184.87562 391.81883,184.87562 390.89666,184.87562 387.49967,184.54819 386.84481,184.87562 386.58266,185.0067 386.48521,185.3663 386.22306,185.49737 385.68433,185.76674 380.38853,185.49737 379.38379,185.49737 378.66111,185.49737 371.99775,185.42237 371.92276,185.49737 371.77621,185.64392 372.06931,185.97258 371.92276,186.11913 371.83956,186.20233 364.62455,186.11913 363.83998,186.11913 363.42548,186.11913 362.88958,186.41222 362.59648,186.11913 362.44993,185.97258 362.74303,185.64392 362.59648,185.49737 362.35422,185.25511 360.48889,185.49737 360.10947,185.49737 358.73025,185.49737 349.44444,185.76063 348.91793,185.49737 348.65578,185.3663 348.55833,185.0067 348.29618,184.87562 347.30138,184.37822 345.56047,185.37302 344.56567,184.87562 344.30351,184.74454 344.20607,184.38495 343.94392,184.25387 343.57317,184.0685 342.99351,184.54697 342.70041,184.25387 342.55386,184.10732 342.84696,183.77867 342.70041,183.63212 342.40731,183.33902 341.82765,183.81749 341.45691,183.63212 341.19475,183.50104 341.09731,183.14144 340.83516,183.01036 340.64978,182.91766 340.35995,183.15691 340.2134,183.01036 340.06685,182.86382 340.35995,182.53516 340.2134,182.38861 339.92031,182.09552 339.263,182.68171 338.9699,182.38861 338.82335,182.24206 339.11645,181.91341 338.9699,181.76686 338.82335,181.62031 338.4947,181.91341 338.34815,181.76686 338.18357,181.60228 338.34815,180.15762 338.34815,179.9016 338.34815,179.64559 338.18357,178.20093 338.34815,178.03635 338.4947,177.8898 338.82335,178.1829 338.9699,178.03635 339.11645,177.8898 338.82335,177.56114 338.9699,177.4146 339.11645,177.26805 339.4451,177.56114 339.59165,177.4146 339.7382,177.26805 339.4451,176.93939 339.59165,176.79284 339.88475,176.49975 340.54206,177.08594 340.83516,176.79284 340.9817,176.6463 340.68861,176.31764 340.83516,176.17109 340.9817,176.02454 341.27154,176.26379 341.45691,176.17109 341.71906,176.04002 341.81651,175.68042 342.07866,175.54934 342.26403,175.45664 342.55386,175.69589 342.70041,175.54934 342.84696,175.40279 342.55386,175.07414 342.70041,174.92759 342.99351,174.63449 343.65082,175.22068 343.94392,174.92759 344.09046,174.78104 343.79737,174.45238 343.94392,174.30584 344.18617,174.06358 346.0515,174.30584 346.43092,174.30584 347.67443,174.30584 350.71755,173.19361 350.16144,174.30584 349.57524,175.47822 347.67443,175.13484 346.43092,175.54934"
       inkscape:connector-curvature="0"
       id="path3249"
       style="opacity:0.6;fill:none;stroke:#e20000;stroke-opacity:1" />
    <path
       d="M 419.91729,135.01583 368.19225,107.15661"
       inkscape:connector-curvature="0"
       id="path3251"
       style="opacity:0.6;fill:none;stroke:#e20000;stroke-opacity:1" />
    <path
       d="M 419.79767,135.75721 383.73605,61.146954"
       inkscape:connector-curvature="0"
       id="path3253"
       style="opacity:0.6;fill:none;stroke:#e20000;stroke-opacity:1" />
    <path
       d="M 425.74471,134.18073 424.5271,55.444509"
       inkscape:connector-curvature="0"
       id="path3255"
       style="opacity:0.6;fill:none;stroke:#e20000;stroke-opacity:1" />
    <path
       d="M 444.66776,140.10947 457.19117,56.066261"
       inkscape:connector-curvature="0"
       id="path3257"
       style="opacity:0.6;fill:none;stroke:#e20000;stroke-opacity:1" />
    <path
       d="M 581.45322,213.47622 657.30697,178.03635"
       inkscape:connector-curvature="0"
       id="path3259"
       style="opacity:0.6;fill:none;stroke:#e20000;stroke-width:1;stroke-miterlimit:4;stroke-opacity:1;stroke-dasharray:none;stroke-dashoffset:0" />
    <path
       d="M 598.10797,322.70954 650.07224,337.41824"
       inkscape:connector-curvature="0"
       id="path3261"
       style="opacity:0.6;fill:none;stroke:#e20000;stroke-opacity:1" />
    <path
       d="M 512.26383,68.484459 487.20405,152.45668"
       inkscape:connector-curvature="0"
       id="path3263"
       style="fill:none;stroke:#0000e9;stroke-width:1;stroke-miterlimit:4;stroke-opacity:1;stroke-dasharray:none;stroke-dashoffset:0" />
    <path
       d="M 570.09876,90.466716 532.72892,171.80106"
       inkscape:connector-curvature="0"
       id="path3265"
       style="fill:none;stroke:#0000e9;stroke-width:1;stroke-miterlimit:4;stroke-opacity:1;stroke-dasharray:none;stroke-dashoffset:0" />
    <path
       d="M 666.13962,198.61942 593.15852,228.07564"
       inkscape:connector-curvature="0"
       id="path3267"
       style="fill:none;stroke:#0000e9;stroke-width:1;stroke-miterlimit:4;stroke-opacity:1;stroke-dasharray:none;stroke-dashoffset:0" />
    <path
       d="M 611.62362,277.31589 679.76862,275.11767"
       inkscape:connector-curvature="0"
       id="path3269"
       style="fill:none;stroke:#0000e9;stroke-width:1;stroke-miterlimit:4;stroke-opacity:1;stroke-dasharray:none;stroke-dashoffset:0" />
    <path
       d="M 575.71065,443.81263 C 566.17426,387.51217 543.18031,383.98492 543.76363,443.99473"
       inkscape:connector-curvature="0"
       id="path3271"
       style="fill:none;stroke:#0000e9;stroke-width:1;stroke-miterlimit:4;stroke-opacity:1;stroke-dasharray:none;stroke-dashoffset:0" />
    <path
       d="M 617.45484,328.78562 C 597.26431,363.8715 567.67379,391.91024 560.52727,400.94076"
       inkscape:connector-curvature="0"
       id="path3273"
       style="fill:none;stroke:#0000e9;stroke-width:1;stroke-miterlimit:4;stroke-opacity:1;stroke-dasharray:none;stroke-dashoffset:0" />
    <path
       d="M 665.32431,199.47349 C 667.61678,201.1554 667.60349,204.67635 668.82886,207.08993 676.46536,228.464 679.14309,251.22932 679.33558,273.83883 678.66168,276.11793 674.53763,274.44286 672.4696,275.08473 652.57958,275.74505 632.69236,276.50272 612.80046,277.09833 611.63391,275.36341 612.63289,272.47265 612.23716,270.27009 611.86076,257.95673 606.45009,246.46126 599.19881,236.72721 597.47029,233.96559 595.27723,231.40916 593.90945,228.46259 597.48202,226.18036 601.99317,225.044 605.93064,223.21361 625.60831,215.30312 645.22571,207.16427 664.9671,199.45975 665.08628,199.46175 665.20591,199.45275 665.32431,199.47345 z"
       inkscape:connector-curvature="0"
       id="path3279"
       style="fill:#e19179;stroke:none" />
    <path
       d="M 656.29785,179.08495 C 659.22518,182.32373 660.45191,186.99662 662.48036,190.90041 663.46148,193.34503 664.76287,195.68415 665.43422,198.22325 662.86149,200.16418 659.13786,200.85872 656.15564,202.36592 635.46967,210.60159 614.98677,219.39766 594.07432,227.02 591.776,228.1504 591.07823,224.64181 589.65952,223.56859 587.62757,220.61422 585.02247,218.10839 582.79468,215.39688 580.3181,212.67624 585.54409,212.41057 587.03748,211.15535 610.06152,200.4659 632.98681,189.47538 656.1055,179.04373 L 656.29785,179.08493 z"
       inkscape:connector-curvature="0"
       id="path3281"
       style="fill:#70bb86;stroke:none" />
    <path
       d="M 570.45714,92.117645 C 582.34651,96.543425 592.85435,104.04699 603.04172,111.49956 615.82788,120.88183 627.3048,132.01121 636.30773,145.08114 643.75504,155.44697 650.20793,166.4609 656.32532,177.6561 655.24492,179.53403 651.99932,179.87212 650.10391,181.15531 627.45919,191.72007 604.85395,202.38768 582.16269,212.84145 580.04157,212.05785 578.85262,209.39442 577.08801,207.89787 568.26443,198.42849 560.45457,187.74183 549.16182,181.17326 543.8113,178.29986 538.98554,174.55055 533.48573,171.92697 533.28077,169.66274 535.48613,167.2686 536.16018,164.96185 547.26711,140.74182 558.34705,116.49965 569.71523,92.406162 569.86083,92.141566 570.1878,92.06139 570.45714,92.117645 z"
       inkscape:connector-curvature="0"
       id="path3283"
       style="fill:#7edfd0;stroke:none" />
    <path
       d="M 512.69876,70.36895 C 524.61086,73.423765 536.09074,78.057939 547.65979,82.223217 554.81582,85.118291 562.31512,87.495983 569.00081,91.348266 569.16051,93.453927 567.17074,95.484423 566.57746,97.563227 555.28111,121.96858 544.20621,146.48669 532.78504,170.82786 530.503,170.96311 528.13983,168.80873 525.82031,168.04994 513.66539,162.12932 500.48696,158.52508 488.14733,153.1871 486.31493,152.07807 488.69059,149.7246 488.6464,148.17774 496.51512,122.40129 504.03155,96.51566 511.9019,70.739901 512.02116,70.399736 512.39389,70.314118 512.69876,70.36895 z"
       inkscape:connector-curvature="0"
       id="path3285"
       style="fill:#736cd4;stroke:none" />
    <path
       d="M 458.89719,57.165858 C 476.40002,59.763204 493.653,64.1333 510.43184,69.682005 512.39944,70.412675 510.14993,72.967065 510.19713,74.362629 502.48446,100.40758 494.72965,126.50149 486.89708,152.47268 484.57921,152.90318 482.25576,151.11404 480.0016,150.59659 471.03194,146.90997 461.3457,145.90052 452.32999,142.30588 450.06825,141.16151 446.71601,141.11616 445.24071,138.87116 448.96128,111.7797 453.15725,84.72159 457.33095,57.687936 457.47827,56.947325 458.36913,57.149271 458.89719,57.165858 z"
       inkscape:connector-curvature="0"
       id="path3287"
       style="fill:#d7ab8f;stroke:none" />
    <path
       d="M 438.52238,55.8744 C 444.46467,56.111276 450.50251,55.975308 456.36923,56.946035 456.89744,59.743461 455.60829,62.858431 455.47747,65.766242 451.80302,89.943584 448.63546,114.24457 444.30646,138.29412 443.60885,140.06134 441.18415,138.00779 439.8688,137.95065 435.41174,136.63901 430.92873,135.49833 426.30849,134.98304 425.3325,132.22228 426.16169,128.78531 425.83456,125.76435 425.51876,102.62752 425.18495,79.490804 424.78347,56.355262 426.68843,55.136045 429.92264,56.209234 432.31239,55.846922 434.3824,55.855022 436.45275,55.825032 438.52238,55.874402 z"
       inkscape:connector-curvature="0"
       id="path3289"
       style="fill:#dbc198;stroke:none" />
    <path
       d="M 415.3311,55.283627 C 418.14687,55.368597 421.00296,55.210517 423.79427,55.572144 424.66217,59.078255 424.03262,63.00075 424.36719,66.6456 424.84048,89.294914 425.33061,111.94494 425.55285,134.59835 424.29708,135.64143 421.86932,135.01901 420.19468,134.7907 418.15268,133.25965 417.8056,130.117 416.36132,128.03523 405.85761,106.15286 394.88681,84.471766 385.00933,62.30421 384.254,61.179517 384.55434,59.785937 386.10844,59.693817 389.60964,58.390683 393.43234,58.448631 396.83853,56.781168 402.78055,54.856598 409.17335,55.368309 415.3311,55.283627 z"
       inkscape:connector-curvature="0"
       id="path3291"
       style="fill:#b1daa9;stroke:none" />
    <path
       d="M 383.3057,61.823348 C 385.65178,64.806142 386.84745,68.871382 388.7678,72.247056 398.42146,92.22676 408.31134,112.14235 417.63924,132.249 416.85983,133.99707 414.71075,131.38883 413.55866,131.22403 398.77833,123.4084 384.07105,115.45552 369.33323,107.56018 368.82371,102.2874 369.46031,96.711004 369.43313,91.321554 369.94537,84.919847 369.24188,77.933202 372.32832,72.100053 375.35953,68.245203 378.59193,64.123684 382.96224,61.823348 383.07212,61.790858 383.19421,61.814348 383.30571,61.823348 z"
       inkscape:connector-curvature="0"
       id="path3293"
       style="fill:#746bdb;stroke:none" />
    <path
       d="M 370.40487,108.75547 C 386.42371,117.24119 402.43841,125.80771 418.32618,134.50218 418.52916,136.75628 416.27738,138.63854 415.3311,140.58852 408.79896,150.1703 398.5923,158.07461 386.85034,159.47952 382.15179,159.63902 376.9786,160.02593 372.713,157.78964 371.13389,155.14739 371.81386,151.61849 371.24294,148.65326 370.51107,136.50069 370.05334,124.32925 369.15463,112.19019 369.3194,111.22813 368.81465,108.70564 370.40487,108.75547 z"
       inkscape:connector-curvature="0"
       id="path3295"
       style="fill:#6a72bc;stroke:none" />
    <path
       d="M 628.33014,278.19518 C 627.0619,295.67648 627.57384,313.84247 611.62362,325.67686"
       inkscape:connector-curvature="0"
       id="path3297"
       style="fill:none;stroke:#0000e9;stroke-width:1;stroke-miterlimit:4;stroke-opacity:1;stroke-dasharray:none;stroke-dashoffset:0" />
    <path
       d="M 628.24849,276.94171 C 627.34824,287.02931 627.26585,297.52159 624.15429,307.3047 621.8278,314.68688 617.17448,321.38516 610.92372,325.92092 607.04612,325.07059 603.06256,323.92954 599.28687,322.6648 598.59744,320.34429 601.03013,318.16488 601.61924,316.00604 606.98462,305.7269 608.8472,294.10519 611.42106,282.92052 612.21628,281.1439 611.1343,277.36529 613.65777,277.34013 618.51723,277.44628 623.46682,277.21555 628.24849,276.94171 z"
       inkscape:connector-curvature="0"
       id="path3299"
       style="fill:#c7afc8;stroke:none" />
    <path
       d="M 679.11817,275.4002 C 679.5274,281.76644 679.35166,288.31734 677.05068,294.36762 672.89548,307.7982 665.95038,320.46613 655.60431,330.09869 653.22279,332.16429 651.25885,335.01036 648.52162,336.52461 636.47138,333.29345 624.36202,330.09308 612.45698,326.41277 612.30313,324.65724 614.82813,323.75791 615.71358,322.45305 622.23885,315.86372 625.93685,306.8439 626.77101,297.63822 627.67478,291.06795 628.27719,284.26506 628.4216,277.73582 631.06714,276.42643 634.46118,277.14937 637.36526,276.71482 651.14303,276.15489 664.9371,276.01134 678.70601,275.23533 L 679.11421,275.39861 679.11821,275.40061 z"
       inkscape:connector-curvature="0"
       id="path3301"
       style="fill:#cda392;stroke:none" />
    <path
       d="M 555.8815,400.62545 C 559.85968,401.00898 562.29439,404.81525 564.27515,407.86304 570.05453,418.00922 572.80313,429.559 574.95149,440.95785 575.21655,442.00611 575.44354,443.57577 573.95117,443.70122 569.85876,445.26442 565.41614,445.41214 561.05953,445.27503 555.35503,445.1131 549.54666,445.44503 543.91277,444.58527 543.10379,444.07513 544.21035,443.17815 543.89337,442.36056 544.19447,431.09449 544.26068,419.49726 548.09991,408.76652 549.48454,405.40175 551.56063,400.52983 555.88153,400.62545 z"
       inkscape:connector-curvature="0"
       id="path5913"
       style="fill:#b9abdd;stroke:none" />
    <path
       d="M 618.77561,328.72565 C 628.37013,331.54741 638.19362,334.06902 647.77452,337.03187 648.85449,338.09822 646.86145,339.29539 646.46107,340.26304 637.86537,351.70291 630.81542,364.29815 623.02917,376.27628 619.00997,383.44432 615.90007,391.08304 611.7234,398.19426 604.81111,410.72196 596.58238,422.54918 587.16162,433.28649 584.19593,436.95634 581.00121,441.05598 576.35074,442.54515 575.02074,441.83487 575.37859,439.68787 574.81894,438.42097 572.48462,427.25038 569.74744,415.80096 563.62426,406.0755 562.62403,404.26869 560.88701,403.08565 559.82574,401.36378 559.81044,400.43816 561.13455,400.79906 561.44812,399.99399 581.19347,378.55633 600.95808,356.85453 615.94022,331.71053 616.7403,330.77617 617.23481,328.60296 618.77561,328.72565 z"
       inkscape:connector-curvature="0"
       id="path5915"
       style="fill:#d5be93;stroke:none" />
  </g>
</svg>
