<?xml version="1.0" encoding="UTF-8" standalone="no"?>
<!-- Created with Inkscape (http://www.inkscape.org/) -->

<svg
   xmlns:dc="http://purl.org/dc/elements/1.1/"
   xmlns:cc="http://creativecommons.org/ns#"
   xmlns:rdf="http://www.w3.org/1999/02/22-rdf-syntax-ns#"
   xmlns:svg="http://www.w3.org/2000/svg"
   xmlns="http://www.w3.org/2000/svg"
   xmlns:xlink="http://www.w3.org/1999/xlink"
   xmlns:inkscape="http://www.inkscape.org/namespaces/inkscape"
   version="1.1"
   width="740"
   height="520"
   id="svg2"
   style="enable-background:new">
  <defs
     id="defs4">
    <filter
       color-interpolation-filters="sRGB"
       id="filter3050">
      <feBlend
         in2="BackgroundImage"
         mode="lighten"
         id="feBlend3052" />
    </filter>
  </defs>
  <metadata
     id="metadata7">
    <rdf:RDF>
      <cc:Work
         rdf:about="">
        <dc:format>image/svg+xml</dc:format>
        <dc:type
           rdf:resource="http://purl.org/dc/dcmitype/StillImage" />
        <dc:title />
      </cc:Work>
    </rdf:RDF>
  </metadata>
  <g
     id="layer1"
     style="display:none">
    <image
       xlink:href="pngs/coronal-0648.png"
       id="MRISLICE"
       height="520"
       width="740"
       y="0"
       x="0" />
  </g>
  <g
     id="layer3"
     style="display:inline">
    <path
       d="M 374.29476,69.229732 374.99701,136.99665 M 360.99701,136.99665 361.19033,155.65205 M 375.19033,155.65205 378.02527,429.22419 C 399.91039,434.19682 419.94326,434.53881 435.22647,423.00667 461.27808,385.23461 481.65035,364.81611 478.12736,417.4109"
       inkscape:connector-curvature="0"
       id="path2990"
       style="fill:none;stroke:#0000e9;stroke-width:1;stroke-miterlimit:4;stroke-opacity:1;stroke-dasharray:none;stroke-dashoffset:0" />
    <path
       d="M 478.43824,415.54565 C 503.35247,437.17013 536.64617,457.31911 575.74244,449.74201 609.74747,437.86492 623.19908,401.32372 641.64816,370.7795 651.46973,334.66165 695.01914,308.94267 686.41431,289.32997 690.6045,145.93292 616.78912,106.01265 541.54607,67.986227 482.75797,55.34922 401.17887,21.560814 374.29476,69.851484"
       inkscape:connector-curvature="0"
       id="path2992"
       style="fill:none;stroke:#0000e9;stroke-width:1;stroke-miterlimit:4;stroke-opacity:1;stroke-dasharray:none;stroke-dashoffset:0" />
    <path
       d="M 429.94157,365.80548 C 421.7369,367.29805 420.95779,379.30599 429.2532,381.40156 437.40434,379.57036 433.27364,370.55362 429.94157,365.80548 z"
       inkscape:connector-curvature="0"
       id="path2996"
       style="fill:none;stroke:#0000e9;stroke-width:1;stroke-miterlimit:4;stroke-opacity:1;stroke-dasharray:none;stroke-dashoffset:0" />
    <path
       d="M 592.84062,320.72845 C 590.52172,324.89734 589.11746,322.9056 584.56171,326.7157 577.92639,331.59272 573.11699,339.22944 567.91628,345.55253 563.72812,352.56865 558.15486,360.48988 559.89973,369.03147"
       inkscape:connector-curvature="0"
       id="path3035"
       style="fill:none;stroke:#0000e9;stroke-width:1;stroke-miterlimit:4;stroke-opacity:1;stroke-dasharray:none;stroke-dashoffset:0" />
    <path
       d="M 593.90625,321.5625 C 592.30615,321.8152 590.55375,322.63138 588.625,323.875 584.7675,326.36224 580.23704,330.55063 575.90625,335.53125 571.57546,340.51187 567.4461,346.27936 564.46875,351.9375 561.4914,357.59564 559.63168,363.12364 560,367.78125 L 562,367.625 C 561.68491,363.64046 563.36668,358.35443 566.25,352.875 569.13332,347.39557 573.16513,341.72125 577.40625,336.84375 581.64737,331.96625 586.09469,327.87907 589.6875,325.5625 591.4839,324.40422 593.09276,323.70908 594.21875,323.53125 595.27001,323.36523 595.7596,323.53425 596.15625,324.09375 598.95446,342.84357 590.13595,362.00885 575.5,381.9375 L 577.125,383.125 C 591.96989,362.91186 601.14763,343.14368 598.09375,323.5 L 598.06255,323.3125 597.93755,323.125 C 597.10059,321.77512 595.5064,321.3098 593.9063,321.5625 z"
       inkscape:connector-curvature="0"
       id="path3000"
       style="font-size:medium;font-style:normal;font-variant:normal;font-weight:normal;font-stretch:normal;text-indent:0;text-align:start;text-decoration:none;line-height:normal;letter-spacing:normal;word-spacing:normal;text-transform:none;direction:ltr;block-progression:tb;writing-mode:lr-tb;text-anchor:start;baseline-shift:baseline;color:#000000;fill:#73a0a6;fill-opacity:1;stroke:none;stroke-width:2;marker:none;visibility:visible;display:inline;overflow:visible;enable-background:accumulate;font-family:Sans;-inkscape-font-specification:Sans" />
    <path
       d="M 559.57688,366.42723 C 546.37938,375.87456 538.08012,373.89269 529.73278,372.023"
       inkscape:connector-curvature="0"
       id="path3002"
       style="fill:none;stroke:#0000e9;stroke-width:1;stroke-miterlimit:4;stroke-opacity:1;stroke-dasharray:none;stroke-dashoffset:0" />
    <path
       d="M 498.64518,342.1789 C 503.09387,352.82097 503.72328,365.1605 522.27176,369.53599 L 530.65166,372.27924"
       inkscape:connector-curvature="0"
       id="path3004"
       style="fill:none;stroke:#0000e9;stroke-width:1;stroke-miterlimit:4;stroke-opacity:1;stroke-dasharray:none;stroke-dashoffset:0" />
    <path
       d="M 360.46078,137.62246 C 368.25514,139.79675 388.03067,141.67248 398.41841,130.68766 400.35515,128.6396 402.187,127.29812 404.13886,125.80917 415.7095,111.28706 417.90671,102.69046 443.931,115.86114 494.71411,123.85354 543.81913,154.5003 591.28624,207.2587 617.09087,244.04021 632.15376,282.5575 601.95627,317.67562 600.42821,319.45268 600.10319,327.37607 598.33887,329.13505"
       inkscape:connector-curvature="0"
       id="path3006"
       style="fill:none;stroke:#0000e9;stroke-width:1;stroke-miterlimit:4;stroke-opacity:1;stroke-dasharray:none;stroke-dashoffset:0" />
    <path
       d="M 444.55275,115.23939 C 439.45026,126.33394 419.70897,121.56099 405.38237,122.07866"
       inkscape:connector-curvature="0"
       id="path3008"
       style="fill:none;stroke:#0000e9;stroke-width:1;stroke-miterlimit:4;stroke-opacity:1;stroke-dasharray:none;stroke-dashoffset:0" />
    <path
       d="M 361.39341,155.18696 C 371.34729,158.7398 380.32005,154.41535 386.87744,151.42447 390.91756,150.43891 396.02966,147.77177 401.67201,144.58076 411.57509,138.98012 422.91809,130.80858 433.35265,129.19679 451.59948,126.37826 471.49157,130.4133 497.40168,145.08349 530.04595,169.09104 572.14558,186.12688 596.26026,227.77652 611.37238,253.10425 632.42097,276.16214 593.1515,322.28283"
       inkscape:connector-curvature="0"
       id="path3010"
       style="fill:none;stroke:#0000e9;stroke-width:1;stroke-miterlimit:4;stroke-opacity:1;stroke-dasharray:none;stroke-dashoffset:0" />
    <path
       d="M 498.02343,144.46174 C 492.16464,152.37314 506.53719,155.90037 506.20861,163.51234 504.41233,172.33068 500.16914,183.81358 508.49761,190.61725 513.8549,196.02836 522.27549,200.31003 517.24273,209.1297 514.65775,217.06601 508.23478,216.56903 502.27049,219.64131 496.1993,227.14251 509.77806,232.24726 515.92418,231.293 525.46094,231.12283 533.51773,222.64682 532.83045,213.04714 532.99255,199.94422 524.29334,188.01023 526.76901,174.67084 527.43053,173.07536 529.08109,163.91393 529.73206,166.2231"
       inkscape:connector-curvature="0"
       id="path3012"
       style="fill:none;stroke:#0000e9;stroke-width:1;stroke-miterlimit:4;stroke-opacity:1;stroke-dasharray:none;stroke-dashoffset:0" />
    <path
       d="M 530.66541,220.31549 C 530.70491,217.28372 527.92816,206.43983 516.67599,212.23271"
       inkscape:connector-curvature="0"
       id="path3014"
       style="fill:none;stroke:#0000e9;stroke-width:1;stroke-miterlimit:4;stroke-opacity:1;stroke-dasharray:none;stroke-dashoffset:0" />
    <path
       d="M 504.8627,217.82848 C 490.26423,209.39347 480.19981,231.24939 495.08332,238.5441 505.23777,254.02993 500.57413,274.8974 486.15257,285.80504 478.85057,298.19421 464.41744,301.94483 455.4158,312.54411 443.82596,322.07338 455.86841,333.45857 465.27631,322.17426 475.34491,311.04508 487.96301,302.98475 499.9927,294.23238 512.14348,281.44463 520.7935,264.24155 523.07599,246.65769 526.07812,242.63047 518.36322,229.31927 522.89351,229.64177"
       inkscape:connector-curvature="0"
       id="path3016"
       style="fill:none;stroke:#0000e9;stroke-width:1;stroke-miterlimit:4;stroke-opacity:1;stroke-dasharray:none;stroke-dashoffset:0" />
    <path
       d="M 531.59804,201.04118 C 548.10232,205.52568 554.03388,226.56849 550.1139,241.62763 544.72149,256.43779 524.71528,261.91559 524.06093,279.09301 519.34612,296.94113 523.99153,318.24499 511.77423,333.44659 507.7776,337.1928 503.65408,340.51 498.89993,343.24369 467.73904,348.98369 457.20601,332.52148 474.39685,313.5783"
       inkscape:connector-curvature="0"
       id="path3018"
       style="fill:none;stroke:#0000e9;stroke-width:1;stroke-miterlimit:4;stroke-opacity:1;stroke-dasharray:none;stroke-dashoffset:0" />
    <path
       d="M 466.00319,326.6351 C 461.64507,331.08807 453.42382,332.47612 448.2035,335.59296 440.73504,337.43947 432.3918,340.057 428.40949,347.24655 424.60862,354.45506 434.38496,358.69051 440.1009,356.15718 443.94329,355.21843 450.49837,352.3211 452.18379,352.0884 453.27194,351.32006 467.34662,333.94213 466.00319,333.16352"
       inkscape:connector-curvature="0"
       id="path3020"
       style="fill:none;stroke:#0000e9;stroke-width:1;stroke-miterlimit:4;stroke-opacity:1;stroke-dasharray:none;stroke-dashoffset:0" />
    <path
       d="M 547.14184,248.29433 C 565.83001,277.17644 571.83013,335.8506 516.05424,329.12211"
       inkscape:connector-curvature="0"
       id="path3022"
       style="fill:none;stroke:#0000e9;stroke-width:1;stroke-miterlimit:4;stroke-opacity:1;stroke-dasharray:none;stroke-dashoffset:0" />
    <path
       d="M 573.25543,340.31364 C 568.2773,331.50652 565.73649,322.09006 554.60287,314.82181"
       inkscape:connector-curvature="0"
       id="path3061"
       style="fill:none;stroke:#0000e9;stroke-width:1;stroke-miterlimit:4;stroke-opacity:1;stroke-dasharray:none;stroke-dashoffset:0" />
    <path
       d="M 601.71811,309.79714 C 585.22804,309.82294 571.17161,315.43244 563.26321,322.15675"
       inkscape:connector-curvature="0"
       id="path3063"
       style="fill:none;stroke:#0000e9;stroke-width:1;stroke-miterlimit:4;stroke-opacity:1;stroke-dasharray:none;stroke-dashoffset:0" />
    <path
       d="M 478.12735,394.71696 C 469.86015,407.33232 450.90895,416.38634 433.05033,425.80456"
       inkscape:connector-curvature="0"
       id="path3009"
       style="fill:none;stroke:#0000e9;stroke-width:1;stroke-miterlimit:4;stroke-opacity:1;stroke-dasharray:none;stroke-dashoffset:0" />
    <path
       d="M 423.28945,109.7677 C 416.54527,109.7279 412.28986,115.86475 408.5476,120.6077 407.94506,122.40338 410.94017,121.6924 411.94111,121.98159 419.73382,122.05559 427.67089,122.84054 435.37969,121.48699 438.59046,120.64106 441.96956,119.08931 443.69173,116.18377 438.57581,113.31095 432.85455,110.92698 426.97147,109.93257 425.75377,109.73745 424.51943,109.73137 423.28945,109.7677 z"
       inkscape:connector-curvature="0"
       id="path3011"
       style="fill:#b46a9f;stroke:none" />
    <path
       d="M 546.40382,248.8879 C 539.95449,255.84161 532.48734,261.9549 527.04569,269.75731 524.01845,275.81581 523.62341,282.80533 522.58551,289.4217 520.92647,302.36382 521.30633,315.98528 515.79353,328.02402 516.62346,329.84261 519.44247,328.9773 521.0555,329.29317 529.88272,329.39772 539.29697,328.67821 546.62927,323.2694 556.94637,316.14171 560.3533,302.7202 560.08777,290.7641 559.38981,276.05909 554.94881,261.46102 547.18694,248.98408 L 546.81599,248.75051 546.40382,248.8879 z"
       inkscape:connector-curvature="0"
       id="path3031"
       style="fill:#78a9c2;stroke:none" />
    <path
       d="M 498.16651,216.35416 C 490.1786,216.37886 485.40755,226.62353 489.59343,233.15685 491.50432,236.62446 495.82218,237.89089 497.19104,241.78489 502.95028,253.46793 501.37802,268.30013 493.53649,278.55021 489.89214,283.27937 485.3201,287.20133 481.66113,291.94417 472.42331,301.10475 459.08666,306.23735 451.88012,317.5275 449.59067,321.07847 452.06679,326.35057 456.359,326.5677 461.1684,326.82606 464.31365,322.2417 467.60612,319.46298 477.00574,309.62128 488.78224,302.53022 499.30684,293.99274 509.57217,284.30886 516.36324,271.23481 520.39606,257.77698 521.48955,253.07956 522.90064,248.42011 523.51479,243.63964 522.95175,239.48941 521.99788,235.36623 520.91814,231.32958 518.75069,230.52814 516.10608,231.93256 513.74643,231.4807 508.9263,231.09495 503.11356,229.53364 500.79064,224.85855 500.09157,222.52514 501.35135,219.55274 503.66207,218.70352 504.27932,216.91827 501.26915,216.79312 500.11743,216.46408 499.47341,216.37058 498.81748,216.31225 498.16651,216.35416 z"
       inkscape:connector-curvature="0"
       id="path3039"
       style="fill:#8678d2;stroke:none" />
    <path
       d="M 470.34518,386.04344 C 464.12422,387.25252 459.99705,392.711 455.66008,396.8812 448.33946,404.78313 442.11356,413.70702 435.99791,422.54772 436.04091,424.43434 438.44992,422.57242 439.30096,422.23564 452.65089,414.93558 467.12659,408.12772 476.80247,396.04537 478.07221,393.62784 476.16074,390.82603 475.09884,388.65383 474.08663,387.06363 472.31231,385.77778 470.34518,386.04344 z"
       inkscape:connector-curvature="0"
       id="path3026"
       style="fill:#85dbce;stroke:none" />
    <path
       d="M 597.47772,436.90707 C 585.39837,422.31316 589.80005,394.00578 568.46114,405.69226 551.41811,406.67469 562.0571,430.94267 564.94398,450.09643"
       inkscape:connector-curvature="0"
       id="path3024"
       style="fill:none;stroke:#0000e9;stroke-width:1;stroke-miterlimit:4;stroke-opacity:1;stroke-dasharray:none;stroke-dashoffset:0" />
    <path
       d="M 586.92624,414.04553 C 597.5924,396.44379 607.10279,378.26416 619.89962,361.72776 627.22365,352.07472 660.03334,321.3589 624.29607,367.0035 612.75279,385.66861 591.80178,421.05857 590.00375,422.39878"
       inkscape:connector-curvature="0"
       id="path3030"
       style="fill:none;stroke:#0000e9;stroke-width:1;stroke-miterlimit:4;stroke-opacity:1;stroke-dasharray:none;stroke-dashoffset:0" />
    <path
       d="M 607.14991,312.26768 C 618.29009,325.6105 609.2936,351.59769 594.4002,355.13308 604.6122,358.60662 593.6845,373.91709 588.68482,385.90824 576.19627,402.62719 573.86388,398.01241 576.59458,381.95143"
       inkscape:connector-curvature="0"
       id="path3032"
       style="fill:none;stroke:#0000e9;stroke-width:1;stroke-miterlimit:4;stroke-opacity:1;stroke-dasharray:none;stroke-dashoffset:0" />
    <path
       d="M 576.2174,403.46712 C 572.29833,403.77393 568.88245,405.96484 565.07514,406.66829 561.39672,407.91519 559.47411,411.68437 559.60706,415.40624 558.97467,426.10629 562.85416,436.36923 564.57247,446.80447 565.08548,448.21355 564.51587,451.23901 566.91616,450.57785 578.19038,450.38597 588.29718,444.07598 596.75707,437.18241 596.50183,435.03636 594.17186,433.21641 593.43225,430.98616 589.59252,423.17614 588.20954,414.23198 583.54024,406.86064 581.89594,404.42833 579.1543,403.13453 576.2174,403.46712 z"
       inkscape:connector-curvature="0"
       id="path3034"
       style="fill:#b9abdd;stroke:none" />
    <path
       d="M 638.57831,344.14251 C 634.22271,346.5647 630.86161,350.62065 627.24371,354.02079 613.06844,368.90221 603.33111,387.26756 592.7337,404.73751 591.06404,407.77628 588.97397,410.66953 587.56574,413.79878 588.52873,415.94704 588.70161,418.65467 590.12117,420.51711 592.12174,420.30118 592.62996,417.46963 593.88849,416.21711 607.61506,394.65225 619.77594,372.01151 635.32092,351.7362 636.59932,349.37396 639.19145,347.28362 639.41638,344.5272 639.2678,344.22013 638.90226,344.0697 638.57831,344.14251 z"
       inkscape:connector-curvature="0"
       id="path3040"
       style="fill:#d5be93;stroke:none" />
    <path
       d="M 532.21449,201.79925 C 531.08722,203.19298 532.54362,205.41757 532.51675,207.04751 533.50667,213.70651 533.2552,221.39375 527.873,226.1446 526.16481,228.19104 523.54676,229.17888 521.5531,230.87078 522.51562,236.76248 524.82764,242.82112 523.03207,248.87375 519.89544,265.36262 512.48339,281.434 500.75804,293.47382 491.47145,301.6478 479.90263,307.46104 471.91442,317.05497 468.35121,321.88435 465.30007,328.15285 467.1058,334.24234 469.94997,341.5202 478.45567,343.86933 485.55716,344.17558 489.75789,344.18158 494.15018,343.97374 498.18321,342.85664 503.39236,340.7051 507.805,336.71553 511.72978,332.68985 519.81096,322.9963 520.14297,309.65129 521.29238,297.66024 522.18939,288.55866 522.87613,279.15685 526.05946,270.58997 529.99843,262.82931 537.46349,257.6333 543.20927,251.2046 549.7855,245.5972 551.83097,236.47535 550.81698,228.16422 549.79374,217.30556 543.84541,205.75344 533.08005,201.90916 532.80281,201.82046 532.50656,201.75453 532.21449,201.79925 z"
       inkscape:connector-curvature="0"
       id="path3059"
       style="fill:#9de082;stroke:none" />
    <path
       d="M 521.81414,210.99058 C 519.80829,211.25929 517.74165,211.78268 515.96136,212.52934 512.66549,217.21966 506.24119,217.16878 502.08507,220.62156 499.49794,223.28386 502.22568,227.05252 504.84659,228.35656 513.1862,233.86012 526.31183,230.83227 530.55209,221.5558 530.63049,216.73305 527.54947,210.33584 521.81414,210.99058 z"
       inkscape:connector-curvature="0"
       id="path3062"
       style="fill:#b667d7;stroke:none" />
    <path
       d="M 497.30392,146.34901 C 495.69497,149.55883 499.08552,152.41356 501.04186,154.52603 503.90831,157.38596 507.2994,160.8803 505.97318,165.30871 504.72405,172.10535 502.42603,179.56455 505.3824,186.23307 508.82096,191.79433 515.33479,194.97785 518.24202,200.82379 519.66492,204.12169 518.29262,207.62442 516.99178,210.67459 517.44813,212.35838 519.54253,210.40883 520.70129,210.59219 525.19947,209.34816 529.15011,212.99301 530.42844,216.99452 531.67111,218.62458 532.68845,215.96084 532.47553,214.85125 533.09668,201.63513 525.02298,189.58665 526.40294,176.28613 526.51306,172.75258 528.42612,169.4772 528.29891,165.927 518.49809,159.53819 508.72852,153.13039 498.89764,146.76122 498.4265,146.57496 497.88326,145.98187 497.30392,146.34905 z"
       inkscape:connector-curvature="0"
       id="path3064"
       style="fill:#a7b0c5;stroke:none" />
    <path
       d="M 519.44072,378.21445 C 521.3021,371.22351 525.49265,371.57718 525.1561,379.09374 522.43599,389.60703 517.3208,384.31664 519.44072,378.21445 z"
       inkscape:connector-curvature="0"
       id="path3041"
       style="fill:none;stroke:#0000e9;stroke-width:1;stroke-linecap:round;stroke-miterlimit:4;stroke-opacity:1;stroke-dasharray:none;stroke-dashoffset:0" />
    <path
       d="M 429.20426,366.1757 C 424.87444,367.15095 422.51465,372.37801 424.03843,376.43179 424.83101,378.80683 426.99372,381.0195 429.58208,381.1305 432.60857,380.65425 434.53574,377.294 433.71977,374.3813 433.08193,371.5948 431.79046,368.95401 430.26216,366.56039 429.99326,366.26746 429.60162,366.10714 429.20426,366.1757 z"
       inkscape:connector-curvature="0"
       id="path3043"
       style="fill:#bfb195;stroke:none" />
    <path
       d="M 465.39255,327.45945 C 460.5305,331.10381 454.44704,332.58419 449.05012,335.26315 444.55283,336.9152 439.71406,337.87538 435.56538,340.42211 432.32654,342.35821 429.2303,345.11512 427.96776,348.78224 427.0423,351.61159 428.93153,354.57955 431.56049,355.64482 435.01221,357.49299 439.08364,356.59113 442.54148,355.25191 445.67204,354.08944 448.95326,353.25375 451.96964,351.8254 454.67601,349.62042 456.51122,346.52668 458.79101,343.89118 461.43131,340.46724 464.27362,336.96262 466.20315,333.15423 466.27135,331.37348 466.27595,329.56557 466.05889,327.79605 465.99219,327.52644 465.62243,327.37601 465.39255,327.45945 z"
       inkscape:connector-curvature="0"
       id="path3045"
       style="fill:#d3c5a0;stroke:none" />
    <path
       d="M 554.61304,315.56155 C 550.66327,321.50295 544.66257,326.04363 537.79982,327.97176 530.94258,329.98527 523.58394,329.93569 516.52191,329.23177 516.72566,328.51498 515.77632,327.90287 515.2648,328.63412 513.69441,330.90625 512.23212,333.34179 510.0503,335.1406 506.90565,338.11843 503.32173,340.57171 499.73983,342.97068 498.79512,343.98946 500.23547,345.31084 500.34644,346.42294 502.50711,352.56822 504.69711,359.12951 509.83793,363.476 514.68399,367.83372 521.28679,368.98501 527.25614,371.04168 533.4723,373.04386 540.20289,374.27591 546.65202,372.64989 551.05274,371.52947 555.21121,369.36263 558.83775,366.6909 559.89601,365.34827 559.37891,363.43952 559.92999,361.88916 561.22678,355.94 564.63381,350.68917 567.85058,345.61921 569.13412,343.49262 571.05325,341.70103 572.26067,339.54282 571.60609,336.97896 570.15202,334.65449 568.92211,332.32302 568.75508,331.70154 567.86643,331.40047 567.74056,331.01096 567.8614,329.2779 566.3991,327.8938 565.67973,326.41529 562.92393,322.11315 559.41048,318.14534 555.09861,315.39948 554.90019,315.25535 554.77285,315.49648 554.61304,315.56155 z"
       inkscape:connector-curvature="0"
       id="path3047"
       style="fill:#a7c0ab;stroke:none" />
    <path
       d="M 522.73876,373.43671 C 520.82312,374.02774 520.2925,376.34839 519.65438,378.0049 519.01097,380.18437 518.46963,383.32184 520.70541,384.76444 522.30465,385.2957 523.31066,383.29488 523.97527,382.16779 525.20539,379.62975 525.58634,376.26602 523.88597,373.86262 523.57909,373.56433 523.17479,373.37871 522.73877,373.43671 z"
       inkscape:connector-curvature="0"
       id="path3049"
       style="fill:#b667d7;stroke:none" />
    <path
       d="M 606.32968,312.42509 C 604.74901,314.55398 602.78806,316.48602 601.55541,318.82743 600.34329,322.33481 600.15566,326.23898 598.36799,329.50256 597.99147,332.53161 598.28009,335.63016 597.69786,338.64873 596.92871,344.07046 595.3962,349.34777 593.3945,354.44555 593.51203,355.72432 595.10786,354.73137 595.87437,354.53485 599.81918,353.25567 602.72175,350.08974 605.39544,347.05402 609.44499,341.74382 611.59115,335.06776 611.93538,328.42417 612.21396,322.7616 610.74177,316.86369 607.07158,312.45257 606.80872,312.25345 606.60623,312.25622 606.32968,312.42507 z"
       inkscape:connector-curvature="0"
       id="path3811"
       style="fill:#c9ca98;stroke:none" />
    <path
       d="M 593.3052,355.05693 C 592.15595,356.86326 591.52847,359.03692 590.45494,360.92409 586.56411,368.70179 581.82134,376.13517 576.68112,383.09118 575.87606,386.81348 575.43391,390.79332 576.10408,394.58378 576.2555,395.94112 577.79701,396.61338 578.91369,395.89584 581.6537,394.4535 583.53778,391.83628 585.60454,389.60342 587.71855,387.27897 589.31283,384.57084 590.506,381.67223 593.14449,375.84933 596.4341,370.23207 598.084,364.02638 598.87918,361.22905 598.59934,357.61899 595.8469,355.98431 595.08079,355.59198 594.17974,354.96728 593.3052,355.05693 z"
       inkscape:connector-curvature="0"
       id="path3813"
       style="fill:#ca818c;stroke:none" />
    <path
       d="M 444.34544,116.32481 C 440.83337,121.17446 434.59102,122.61777 428.89893,122.61004 421.71403,122.97601 414.46979,122.20028 407.33781,122.17983 403.4787,126.73303 398.87013,130.94309 394.00295,134.46249 385.54092,139.70229 375.09741,139.8774 365.47036,138.77589 364.24196,138.88715 362.44193,137.66537 361.51641,138.70789 360.99917,143.97665 361.35487,149.30898 361.24439,154.60143 362.36572,155.77635 364.47887,155.73318 366.07021,156.07839 373.82357,157.32573 381.04928,153.60544 388.04773,150.90006 399.06141,146.88448 408.60194,139.69142 419.02184,134.40513 425.28924,130.96088 432.20386,128.60901 439.43884,128.42983 455.87994,127.259 472.07276,132.13097 486.63732,139.36879 490.40349,141.25671 494.28776,143.17929 498.059,144.9157 499.88517,147.26225 502.89243,148.44493 505.19943,150.29774 513.1429,155.56473 521.08178,160.90519 529.33118,165.66667 530.40758,166.27296 531.40409,167.42805 532.6051,168.01767 551.12537,179.77878 569.26666,192.54353 583.44711,209.47045 591.94244,219.30024 598.20644,230.8277 605.05138,241.85465 611.87221,253.0722 617.25756,266.21531 615.37428,279.64868 613.5151,294.50156 605.20086,307.53406 596.07238,319.07429 595.46193,319.80313 594.14943,321.66872 595.75179,322.04704 597.09863,322.32884 598.13392,323.64828 597.88907,325.06837 597.89107,326.32416 599.6257,326.16209 599.64746,324.97127 600.53071,321.68424 600.83892,318.03548 603.43626,315.52841 611.2284,305.99664 616.72886,294.30635 618.11602,282.00301 618.30211,274.08082 618.66489,265.99437 616.38419,258.30616 612.01232,240.24053 602.5108,223.93699 592.01157,208.80077 585.8137,201.07055 578.65936,194.15322 571.6589,187.12688 543.76873,159.93925 511.32241,136.32888 474.1604,123.63045 464.59882,120.34431 454.76246,117.9429 444.81176,116.15971 L 444.51872,116.2635 444.34544,116.3249 z"
       inkscape:connector-curvature="0"
       id="path3817"
       style="fill:#73a0a6;stroke:none" />
    <path
       d="M 529.33313,166.77717 C 528.40139,167.6328 528.52723,169.2127 528.04349,170.34762 527.12388,173.72702 526.19854,177.16809 526.55379,180.70821 526.77802,186.97186 528.85539,192.99463 530.52155,198.96743 530.8578,199.76446 530.94934,201.26614 532.10839,201.11757 539.7185,203.35788 545.56856,209.68928 548.42524,216.94859 551.52515,224.77448 552.36031,233.65084 550.07202,241.81222 549.45646,243.97744 548.08729,245.82698 547.10235,247.79353 547.96851,249.69079 549.3534,251.47368 550.25479,253.42484 556.02643,264.34131 559.62146,276.45691 560.29377,288.77869 560.57785,295.43013 560.18395,302.18446 557.93458,308.46141 557.28705,310.66299 556.14638,312.66934 555.17807,314.71697 555.79568,315.86988 557.41199,316.43878 558.30702,317.46146 560.01196,318.80783 561.30802,320.70311 563.08963,321.89633 565.0298,320.80626 566.748,319.18708 568.7638,318.13874 578.57375,312.57779 589.87743,309.76869 601.13955,309.77174 601.66888,309.84344 602.26794,310.35704 602.6577,309.61375 609.30931,299.72004 614.8057,288.45699 615.41643,276.3589 616.04959,265.03162 611.82638,254.09453 606.20131,244.46642 601.3954,236.29305 596.48547,228.15092 591.31502,220.1986 579.9663,203.45154 564.40348,189.93827 547.85502,178.49694 541.9354,174.50917 536.09604,170.34018 529.87582,166.85273 529.70653,166.77213 529.52216,166.71938 529.33313,166.77713 z"
       inkscape:connector-curvature="0"
       id="path3033"
       style="fill:#d0cf6e;stroke:none" />
    <path
       d="M 600.01983,309.96409 C 588.25873,310.25941 576.4116,313.39408 566.53123,319.89045 565.51509,320.66689 564.29455,321.28775 563.50867,322.30163 563.81068,323.75886 565.17297,324.83421 565.83145,326.16933 568.39276,330.13887 570.2599,334.51215 572.5538,338.60507 573.63124,338.84139 574.03453,337.10509 574.82018,336.49089 579.12994,331.23688 583.90903,325.96406 590.32016,323.28396 591.30074,322.79149 591.97649,321.91208 592.52525,320.98956 593.65805,321.94791 594.57403,320.29217 595.21808,319.56072 597.49373,316.71683 599.79198,313.82667 601.78528,310.80903 602.10766,309.80696 600.67007,309.96606 600.01983,309.96409 z"
       inkscape:connector-curvature="0"
       id="path3036"
       style="fill:#d17697;stroke:none" />
  </g>
</svg>
