<?xml version="1.0" encoding="UTF-8" standalone="no"?>
<!-- Created with Inkscape (http://www.inkscape.org/) -->

<svg
   xmlns:dc="http://purl.org/dc/elements/1.1/"
   xmlns:cc="http://creativecommons.org/ns#"
   xmlns:rdf="http://www.w3.org/1999/02/22-rdf-syntax-ns#"
   xmlns:svg="http://www.w3.org/2000/svg"
   xmlns="http://www.w3.org/2000/svg"
   xmlns:xlink="http://www.w3.org/1999/xlink"
   xmlns:inkscape="http://www.inkscape.org/namespaces/inkscape"
   version="1.1"
   width="740"
   height="520"
   id="svg2"
   style="enable-background:new">
  <defs
     id="defs4">
    <filter
       color-interpolation-filters="sRGB"
       id="filter3050">
      <feBlend
         in2="BackgroundImage"
         mode="lighten"
         id="feBlend3052" />
    </filter>
  </defs>
  <metadata
     id="metadata7">
    <rdf:RDF>
      <cc:Work
         rdf:about="">
        <dc:format>image/svg+xml</dc:format>
        <dc:type
           rdf:resource="http://purl.org/dc/dcmitype/StillImage" />
        <dc:title />
      </cc:Work>
    </rdf:RDF>
  </metadata>
  <g
     id="layer1"
     style="display:none">
    <image
       xlink:href="pngs/coronal-0672.png"
       id="MRISLICE"
       height="520"
       width="740"
       y="0"
       x="0" />
  </g>
  <g
     id="layer3"
     style="display:inline">
    <path
       d="M 373.4052,149.12536 374.29476,354.61394 370.56425,436.06347 C 398.16695,433.42675 433.35027,442.16095 445.79625,416.78915 482.74806,398.14843 489.18566,424.96815 511.08022,429.22419 541.82471,443.50448 583.71565,473.02493 614.29107,429.84595 643.11957,394.75494 657.07898,341.4347 675.84453,320.41758 709.72926,288.09806 690.77643,179.10936 632.94363,120.2134 611.53288,84.425107 405.68795,-0.05981173 373.05126,67.364475 L 373.31167,127.5192 M 365.31167,127.5192 365.40517,149.12536"
       inkscape:connector-curvature="0"
       id="path2990"
       style="fill:none;stroke:#0000e9;stroke-width:1;stroke-miterlimit:4;stroke-opacity:1;stroke-dasharray:none;stroke-dashoffset:0" />
    <path
       d="M 409.53767,317.20662 C 408.20058,315.54322 406.11989,314.55664 404.13868,315.09548 401.1964,315.87239 398.96403,318.79546 398.14398,322.00137 397.48972,324.42868 397.93534,327.27853 399.56132,329.09113 400.05637,329.64488 400.62543,330.09387 401.07399,330.70096 402.55082,332.39071 404.81893,333.16532 406.8562,332.48845 410.32641,331.40391 413.02913,327.35338 412.62397,323.23518 412.46058,321.49545 411.63369,319.93089 410.56027,318.71091 410.25031,318.18123 409.90453,317.68708 409.53767,317.20662 z"
       inkscape:connector-curvature="0"
       id="path2992"
       style="fill:none;stroke:#0000e9;stroke-width:0.89679974;stroke-miterlimit:4;stroke-opacity:1;stroke-dasharray:none;stroke-dashoffset:0" />
    <path
       d="M 434.60471,381.34928 C 434.44108,375.01335 423.9832,375.40236 426.05956,382.1736 425.29412,387.03602 431.52415,395.45508 435.31478,388.85337 436.43428,386.45963 435.95246,383.54648 434.60471,381.34928 z"
       inkscape:connector-curvature="0"
       id="path2994"
       style="fill:none;stroke:#0000e9;stroke-width:1;stroke-miterlimit:4;stroke-opacity:1;stroke-dasharray:none;stroke-dashoffset:0" />
    <path
       d="M 475.0186,409.94988 C 481.86346,381.55115 545.4974,320.46371 508.59321,345.28766 475.35176,366.9994 460.34223,393.58091 447.66151,414.30214"
       inkscape:connector-curvature="0"
       id="path2996"
       style="fill:none;stroke:#0000e9;stroke-width:1;stroke-miterlimit:4;stroke-opacity:1;stroke-dasharray:none;stroke-dashoffset:0" />
    <path
       d="M 515.43249,306.73903 C 513.96689,307.86348 512.94699,304.07153 514.66631,306.15778 511.11028,304.57937 510.69498,308.49498 505.54903,309.30093 500.67077,314.48398 495.71147,315.09767 490.44127,318.67464 485.34584,322.72436 478.34692,327.24745 478.53424,334.08135 477.46216,338.62776 481.87129,340.32316 485.5313,340.49436 489.38284,341.9495 494.93596,341.92664 498.46392,340.51886 503.84576,338.19463 509.09492,336.70451 514.11501,333.70533 518.99139,330.02393 522.83065,322.04121 522.43797,315.32288 522.13718,311.38281 518.60896,308.55361 515.43249,306.73902 z"
       inkscape:connector-curvature="0"
       id="path3026"
       style="fill:none;stroke:#0000e9;stroke-width:1;stroke-miterlimit:4;stroke-opacity:1;stroke-dasharray:none;stroke-dashoffset:0" />
    <path
       d="M 365.90111,128.14074 C 369.23805,129.26141 380.1435,127.7581 383.12089,127.29934 403.98284,124.08494 417.1784,88.209358 438.95698,105.29135 482.0136,102.96801 526.93446,128.32922 571.64771,174.0483 596.36201,202.91556 623.04146,229.24673 616.70264,276.89493 614.72715,282.39829 614.45855,287.5533 613.15692,292.42642"
       inkscape:connector-curvature="0"
       id="path3820"
       style="fill:none;stroke:#0000e9;stroke-width:1;stroke-miterlimit:4;stroke-opacity:1;stroke-dasharray:none;stroke-dashoffset:0" />
    <path
       d="M 610.99676,291.4666 C 608.31364,304.27364 605.23968,323.12552 603.94935,332.59609 602.29103,344.76751 603.60304,360.58916 599.84375,371.87176 L 601.81573,372.46875 C 605.78794,360.54712 604.41034,344.68089 606.01831,332.87887 607.29971,323.47396 610.36826,304.59626 613.0334,291.87507 L 610.99676,291.4666 z"
       inkscape:connector-curvature="0"
       id="path3028"
       style="font-size:medium;font-style:normal;font-variant:normal;font-weight:normal;font-stretch:normal;text-indent:0;text-align:start;text-decoration:none;line-height:normal;letter-spacing:normal;word-spacing:normal;text-transform:none;direction:ltr;block-progression:tb;writing-mode:lr-tb;text-anchor:start;baseline-shift:baseline;color:#000000;fill:#73a0a6;fill-opacity:1;stroke:none;stroke-width:2;marker:none;visibility:visible;display:inline;overflow:visible;enable-background:accumulate;font-family:Sans;-inkscape-font-specification:Sans" />
    <path
       d="M 405.38237,112.13063 C 412.01651,115.81672 424.0509,111.94247 438.95698,104.04785"
       inkscape:connector-curvature="0"
       id="path3030"
       style="fill:none;stroke:#0000e9;stroke-width:1;stroke-miterlimit:4;stroke-opacity:1;stroke-dasharray:none;stroke-dashoffset:0" />
    <path
       d="M 365.43479,148.65856 C 367.10759,148.56156 377.70439,148.85509 379.52696,148.06993 399.77105,139.34879 430.59436,93.430973 501.75394,127.05268 539.94564,150.6025 568.01604,182.67336 598.12551,214.71972 619.93351,248.1668 611.88006,284.32771 608.6953,293.68223"
       inkscape:connector-curvature="0"
       id="path3032"
       style="fill:none;stroke:#0000e9;stroke-width:1;stroke-miterlimit:4;stroke-opacity:1;stroke-dasharray:none;stroke-dashoffset:0" />
    <path
       d="M 610.1875,291.8125 C 605.09446,295.89932 594.56392,306.40889 584.5,317.65625 574.43608,328.90361 564.92268,340.7147 561.96875,347.84375 L 563.8125,348.59375 C 566.47315,342.17251 575.95605,330.15887 585.96875,318.96875 595.98145,307.77863 606.60357,297.2539 611.4375,293.375 L 610.1875,291.8125 z"
       inkscape:connector-curvature="0"
       id="path3036"
       style="font-size:medium;font-style:normal;font-variant:normal;font-weight:normal;font-stretch:normal;text-indent:0;text-align:start;text-decoration:none;line-height:normal;letter-spacing:normal;word-spacing:normal;text-transform:none;direction:ltr;block-progression:tb;writing-mode:lr-tb;text-anchor:start;baseline-shift:baseline;color:#000000;fill:#73a0a6;fill-opacity:1;stroke:none;stroke-width:2;marker:none;visibility:visible;display:inline;overflow:visible;enable-background:accumulate;font-family:Sans;-inkscape-font-specification:Sans" />
    <path
       d="M 545.27659,161.87079 C 542.00769,165.08508 540.50748,169.25572 539.18839,173.76875 538.71937,178.04119 537.1231,182.09963 537.07585,186.33359 538.58782,192.18584 539.68459,198.15872 541.96472,203.79741 542.60984,208.38245 542.43847,213.98767 538.86446,217.43127 536.01633,219.77288 532.12179,218.94664 528.75568,219.8191 525.3868,220.63826 518.82123,217.24396 517.96538,219.81919 519.45641,223.43035 521.94868,225.78141 524.37365,228.4191 527.89919,232.1507 533.13202,237.46896 538.55603,234.06657 543.72816,231.9063 548.14892,228.01522 551.29566,223.43085 553.65891,219.75678 556.79258,211.81818 554.99857,206.98621 551.98425,202.45818 553.38661,200.68227 553.65589,196.66911 549.86261,191.78991 551.02518,185.30243 550.86329,179.57094 551.48451,175.07972 549.92492,168.60344 550.41194,165.82146 550.56892,165.87276 550.10042,167.63685 550.25066,166.22306"
       inkscape:connector-curvature="0"
       id="path3048"
       style="fill:none;stroke:#0000e9;stroke-width:1;stroke-miterlimit:4;stroke-opacity:1;stroke-dasharray:none;stroke-dashoffset:0" />
    <path
       d="M 521.65001,231.50703 C 519.86089,222.4518 505.08207,212.2866 501.70004,225.86238 503.68015,236.78263 519.40166,239.71695 519.36519,252.0701 521.27166,262.74711 515.22544,271.96752 508.90915,279.87509 501.79253,290.21628 493.09242,299.80371 481.79697,305.59794 477.34781,316.70958 493.79397,305.82297 497.82193,303.41256 513.16483,292.49583 527.61044,279.0233 536.00012,261.93939 541.83545,250.04578 535.17092,234.20958 522.06956,231.11077"
       inkscape:connector-curvature="0"
       id="path3051"
       style="fill:none;stroke:#0000e9;stroke-width:1;stroke-miterlimit:4;stroke-opacity:1;stroke-dasharray:none;stroke-dashoffset:0" />
    <path
       d="M 555.87334,206.88182 C 560.79063,210.0511 562.93052,208.29814 566.15957,214.22201 569.84793,221.32479 572.18224,230.88239 572.18747,238.73386 571.65963,247.94909 567.23685,257.52131 561.19865,262.61749 557.02165,269.47213 549.29809,276.15921 545.2679,283.11861 542.16432,290.21491 540.95279,296.21391 538.2464,303.61197 533.98226,311.4416 530.09063,320.83436 523.51526,327.25685 519.94161,335.71419 514.04302,339.80841 507.47275,345.42871 500.74193,349.14158 492.34726,352.44445 484.87687,354.45083 469.41202,361.4669 452.99104,347.90903 463.22564,335.97377 467.44631,329.74113 472.50502,324.35901 478.32113,319.60856 484.40763,315.39405 490.26359,310.91267 496.15817,306.42816 498.78192,304.22454 504.47322,299.81355 504.24095,297.41275"
       inkscape:connector-curvature="0"
       id="path3058"
       style="fill:none;stroke:#0000e9;stroke-width:1;stroke-miterlimit:4;stroke-opacity:1;stroke-dasharray:none;stroke-dashoffset:0" />
    <path
       d="M 564.5509,259.48587 C 593.71418,286.01396 549.24188,312.54205 518.54125,339.07014"
       inkscape:connector-curvature="0"
       id="path3068"
       style="fill:none;stroke:#0000e9;stroke-width:1;stroke-miterlimit:4;stroke-opacity:1;stroke-dasharray:none;stroke-dashoffset:0" />
    <path
       d="M 525.38052,333.47437 C 526.47018,336.01362 528.20452,338.42261 530.40606,340.57175 M 534.70595,344.04544 C 542.26509,349.11381 552.70205,351.52615 562.06389,348.39642"
       inkscape:connector-curvature="0"
       id="path3070"
       style="fill:none;stroke:#0000e9;stroke-width:1;stroke-miterlimit:4;stroke-opacity:1;stroke-dasharray:none;stroke-dashoffset:0" />
    <path
       d="M 562.06389,303.00852 C 571.87585,305.83886 579.98677,310.37023 583.20346,319.79583"
       inkscape:connector-curvature="0"
       id="path3072"
       style="fill:none;stroke:#0000e9;stroke-width:1;stroke-miterlimit:4;stroke-opacity:1;stroke-dasharray:none;stroke-dashoffset:0" />
    <path
       d="M 575.12068,309.22604 C 585.69047,300.00381 595.48764,292.38832 606.05743,296.35135"
       inkscape:connector-curvature="0"
       id="path3074"
       style="fill:none;stroke:#0000e9;stroke-width:1;stroke-miterlimit:4;stroke-opacity:1;stroke-dasharray:none;stroke-dashoffset:0" />
    <path
       d="M 554.60286,215.96323 540.30256,214.40885"
       inkscape:connector-curvature="0"
       id="path3010"
       style="fill:none;stroke:#0000e9;stroke-width:1;stroke-miterlimit:4;stroke-opacity:1;stroke-dasharray:none;stroke-dashoffset:0" />
    <path
       d="M 427.21956,101.01647 C 419.74321,101.4212 413.56984,106.54808 408.23238,111.33439 406.76947,112.84363 409.43315,113.37062 410.52678,113.16167 419.16509,113.30237 427.1331,109.44718 434.76222,105.81135 435.88841,105.51094 437.1656,104.00457 435.61403,103.32461 433.05188,101.9723 430.15207,100.97061 427.21956,101.01647 z"
       inkscape:connector-curvature="0"
       id="path3014"
       style="fill:#b46a9f;stroke:none" />
    <path
       d="M 512.45575,306.05596 C 509.20172,308.29437 505.42757,309.64341 502.44009,312.18352 495.55751,316.3424 488.01608,319.78636 482.55989,325.88121 479.58934,328.83347 477.51938,333.77781 479.52359,337.76537 482.19567,340.38258 486.34652,340.51361 489.85525,341.14514 497.58681,341.75243 504.67843,337.74786 511.46655,334.67411 518.21488,331.24499 522.03582,323.50568 522.19664,316.14032 521.97482,311.10271 516.75678,307.39938 512.45575,306.05596 z"
       inkscape:connector-curvature="0"
       id="path3027"
       style="fill:#7f8281;stroke:none" />
    <path
       d="M 429.34909,377.33343 C 426.9022,377.35563 425.46055,379.92876 426.23036,382.15578 426.37891,385.73727 428.13129,390.0731 431.87705,391.03112 435.60291,390.38056 436.4342,385.49224 434.91335,382.54047 434.21405,379.8122 432.62511,376.95521 429.34909,377.33343 z"
       inkscape:connector-curvature="0"
       id="path3029"
       style="fill:#bfb195;stroke:none" />
    <path
       d="M 563.35841,259.70088 C 560.20132,264.56435 556.63596,269.33191 552.74972,273.71872 548.05259,278.78253 544.401,284.71418 542.54111,291.40734 538.90502,303.26553 533.61025,314.82621 526.10336,324.69209 522.71749,328.73503 520.63687,333.66977 517.04455,337.54554 515.76363,338.50849 517.39642,339.82351 518.29479,338.71335 528.66141,330.5001 538.8837,322.0512 548.96004,313.47497 557.89908,305.24688 567.841,296.97885 572.27497,285.29647 575.08766,278.54596 573.61337,270.59285 569.00352,265.01218 567.32914,263.2642 565.84721,260.24433 563.35841,259.70088 z"
       inkscape:connector-curvature="0"
       id="path3035"
       style="fill:#78a9c2;stroke:none" />
    <path
       d="M 545.70392,162.01723 C 543.14223,164.20059 541.72941,167.65528 540.46939,170.75518 539.12374,175.98608 537.41629,181.31105 537.52926,186.76101 538.54556,193.33455 541.32154,199.49927 542.32414,206.02296 542.78383,208.68938 541.79675,211.32678 541.92572,213.96405 545.19116,215.18131 549.03743,215.08034 552.54589,215.46159 555.38969,215.88756 555.0993,212.218 555.27994,210.36446 554.94545,206.46262 552.0529,203.01369 553.09545,198.93368 553.59587,195.565 550.73413,192.96497 551.00713,189.59122 550.40047,181.54554 550.62975,173.40902 550.04541,165.397 548.68287,164.34994 547.53145,162.22434 545.70392,162.01723 z"
       inkscape:connector-curvature="0"
       id="path3039"
       style="fill:#a7b0c5;stroke:none" />
    <path
       d="M 541.91198,214.81586 C 539.98284,215.48072 539.49594,218.11144 537.2957,218.48415 531.95024,220.15069 526.19159,220.35209 520.68536,219.26727 519.33304,218.67009 517.9199,219.87284 518.88556,221.1495 522.47303,226.2862 526.72124,231.33918 532.30848,234.33885 536.50217,236.05183 540.48517,232.68563 543.82169,230.53318 548.18212,226.99484 552.50878,222.54791 553.85109,216.94539 552.63766,215.14571 549.62894,216.11946 547.80823,215.48571 545.83832,215.32608 543.86552,215.02411 541.91198,214.81586 z"
       inkscape:connector-curvature="0"
       id="path3043"
       style="fill:#b667d7;stroke:none" />
    <path
       d="M 508.08678,219.6657 C 503.49449,219.7866 500.29326,226.03707 503.44303,229.65389 507.83767,235.96474 514.98251,240.09759 518.54209,247.00613 521.54806,256.33505 519.03161,266.73792 513.17018,274.38778 505.16453,285.80953 496.61531,297.2645 484.35109,304.47256 482.42605,305.3764 480.31401,307.88737 481.8592,309.95781 485.6814,310.45643 489.26355,307.87771 492.54169,306.20292 496.73679,303.75221 500.8876,301.03689 504.43223,297.81262 509.49164,294.7585 513.44443,290.0531 517.76506,286.04097 525.84457,278.13241 532.94309,268.87002 537.08962,258.2583 539.92692,247.92478 534.27713,236.01558 524.24374,232.08567 522.69678,231.70162 520.81401,231.34698 520.60293,229.40659 518.09471,224.83611 513.91164,219.50625 508.08678,219.6657 z"
       inkscape:connector-curvature="0"
       id="path3045"
       style="fill:#8678d2;stroke:none" />
    <path
       d="M 518.61079,339.93611 C 511.88885,342.83621 505.95674,347.47414 499.98082,351.7241 479.4624,366.94679 463.93603,387.59491 450.99731,409.42421 450.38448,411.13129 448.19873,412.68555 448.5973,414.55213 450.93397,414.87175 453.29191,412.93408 455.61788,412.53251 461.57512,410.39052 467.9603,409.70935 474.23411,410.41672 475.65156,410.23722 474.82911,408.16223 475.64771,407.19587 481.34609,391.94855 491.79413,379.18141 501.35939,366.18438 507.3116,357.93683 514.16088,350.21351 519.27025,341.44739 519.69917,340.81075 519.56754,339.72803 518.61079,339.93611 z"
       inkscape:connector-curvature="0"
       id="path3047"
       style="fill:#85dbce;stroke:none" />
    <path
       d="M 598.79666,444.82068 596.15879,423.27807 C 599.53119,415.33372 587.8691,419.41696 580.33156,420.20056 573.43333,420.79872 565.29075,420.3303 566.26292,427.67452 L 567.58185,452.29465"
       inkscape:connector-curvature="0"
       id="path3021"
       style="fill:none;stroke:#0000e9;stroke-width:1;stroke-miterlimit:4;stroke-opacity:1;stroke-dasharray:none;stroke-dashoffset:0" />
    <path
       d="M 612.7853,292.23716 C 633.16435,301.91321 619.04684,323.47686 615.94282,340.62479 614.31347,333.78897 609.22725,334.68129 605.33799,334.6252"
       inkscape:connector-curvature="0"
       id="path3025"
       style="fill:none;stroke:#0000e9;stroke-width:1;stroke-miterlimit:4;stroke-opacity:1;stroke-dasharray:none;stroke-dashoffset:0" />
    <path
       d="M 615.94282,339.97637 C 613.7551,351.49652 622.69801,359.37131 606.99447,371.93114 603.92564,372.97516 602.11153,373.08752 601.10866,372.58418"
       inkscape:connector-curvature="0"
       id="path3031"
       style="fill:none;stroke:#0000e9;stroke-width:1;stroke-miterlimit:4;stroke-opacity:1;stroke-dasharray:none;stroke-dashoffset:0" />
    <path
       d="M 597.47772,421.95914 C 608.1279,400.67015 623.81036,377.36824 629.13217,358.2106 647.29689,335.8659 667.6853,310.28674 635.72685,360.84847 625.02431,383.56347 614.58031,406.27846 597.03808,428.99346"
       inkscape:connector-curvature="0"
       id="path3033"
       style="fill:none;stroke:#0000e9;stroke-width:1;stroke-miterlimit:4;stroke-opacity:1;stroke-dasharray:none;stroke-dashoffset:0" />
    <path
       d="M 591.88627,418.89638 C 585.34992,419.51835 578.85121,420.56207 572.32206,421.27321 569.43072,421.55839 566.15313,423.52573 566.66163,426.87868 566.86494,435.02442 567.02306,443.26826 567.93935,451.33394 570.21527,452.64653 573.31594,451.57865 575.85296,451.85602 582.62896,451.94972 589.35473,450.52312 595.21108,447.1161 597.01872,446.35104 599.2844,444.98829 598.26726,442.62619 597.73147,435.67585 596.08601,428.7191 596.3102,421.75407 597.18318,418.90988 593.78664,418.75285 591.88627,418.89638 z"
       inkscape:connector-curvature="0"
       id="path3038"
       style="fill:#9eae8b;stroke:none" />
    <path
       d="M 649.78203,334.52573 C 645.98823,337.41268 643.35777,341.73729 640.12358,345.25582 636.29391,350.3641 631.38972,354.83355 628.63785,360.6434 622.22481,379.14344 611.6289,395.82089 602.46523,413.08482 600.60001,416.32008 599.15135,420.07885 596.70862,422.79823 596.61262,423.99437 595.98308,427.04734 597.86269,426.79625 602.57386,421.84759 605.92676,415.68381 609.76059,410.03478 619.66593,394.53079 627.2093,377.65799 635.49357,361.30286 640.10364,352.39805 646.35704,344.30978 650.5102,335.17146 650.577,334.76145 650.20801,334.37558 649.78203,334.52573 z"
       inkscape:connector-curvature="0"
       id="path3044"
       style="fill:#d5be93;stroke:none" />
    <path
       d="M 555.55428,207.50525 C 555.97864,213.59214 554.19747,219.71733 550.53077,224.57117 546.88433,229.42805 541.80686,233.60539 535.80394,235.12464 534.26214,235.57618 532.76429,234.60254 531.26709,234.79434 530.47683,235.98285 532.43241,236.93465 532.93805,237.87395 539.07921,245.05137 539.92816,256.14882 534.96846,264.23041 527.83905,277.68121 516.95229,288.6846 505.23122,298.15476 502.5731,300.69884 500.19874,303.56048 497.20985,305.72625 488.81384,312.79563 479.04757,318.30037 471.50117,326.34733 467.43368,330.7339 463.14365,335.20271 460.7468,340.7545 460.2509,343.89414 460.22837,347.46824 462.50519,349.9642 467.38366,356.123 476.49685,357.66117 483.59151,354.73785 492.04213,351.86259 500.89842,349.44606 508.33026,344.33928 514.32507,339.6554 520.15056,334.3212 523.40775,327.29939 525.16548,324.99391 527.29088,322.83864 528.81894,320.30468 532.58926,314.21741 536.09434,307.9137 538.7864,301.27324 541.85051,293.18074 543.29722,284.05197 549.17239,277.36575 553.39225,272.3102 557.6347,267.22112 561.69408,262.01542 569.59886,253.91353 573.57529,241.95993 571.28267,230.77238 570.06665,224.35162 568.26751,217.82362 564.69598,212.3044 562.57666,209.43338 558.79917,208.82263 555.86516,207.2138 L 555.63836,207.42642 555.55426,207.50522 z M 515.74272,306.62613 C 519.01807,308.90165 522.88729,311.94184 522.5237,316.37015 522.32072,322.98831 519.41041,329.91165 513.94546,333.85693 508.54887,337.08287 502.49302,339.1612 496.57526,341.16252 491.70968,342.38291 486.63092,341.16052 481.96409,339.91902 479.64685,339.19315 477.78415,336.95043 478.33963,334.41124 478.34763,330.21469 480.75537,326.63189 483.76225,323.91714 488.74726,318.90125 495.17146,315.97036 501.22173,312.51605 503.39699,311.53141 504.71034,309.25971 507.05762,308.70512 509.41204,307.80488 511.53533,305.5073 514.03878,305.48736 514.60676,305.86695 515.17474,306.24654 515.74272,306.62613 z"
       inkscape:connector-curvature="0"
       id="path3034"
       style="fill:#9de082;stroke:none" />
    <path
       d="M 528.9556,346.06485 C 529.0075,340.18204 535.30571,336.29421 534.55137,346.99748 532.68289,357.63907 528.27962,351.97362 528.9556,346.06485 z"
       inkscape:connector-curvature="0"
       id="path3046"
       style="fill:none;stroke:#0000e9;stroke-width:1;stroke-linecap:round;stroke-miterlimit:4;stroke-opacity:1;stroke-dasharray:none;stroke-dashoffset:0" />
    <path
       d="M 532.24786,340.42894 C 530.54092,340.77909 529.83107,342.68883 529.33339,344.1546 528.80927,346.64942 528.83109,349.42758 530.03286,351.72249 530.41075,352.52062 531.53721,353.29691 532.28671,352.47053 533.95136,350.73465 534.27468,348.15765 534.48228,345.86927 534.51058,344.11572 534.57058,342.01548 533.21449,340.70582 532.93433,340.49913 532.59413,340.40282 532.24786,340.42894 z"
       inkscape:connector-curvature="0"
       id="path3052"
       style="fill:#b667d7;stroke:none" />
    <path
       d="M 405.04612,314.9954 C 401.80361,315.37656 399.48916,318.24673 398.45943,321.15949 397.46024,323.82673 397.77329,327.05373 399.78551,329.17912 401.25583,331.00779 403.28587,332.9749 405.84274,332.63761 409.41523,332.08166 411.92334,328.65679 412.50714,325.25431 412.9918,322.80617 411.90289,320.3935 410.39902,318.51704 409.16974,316.70011 407.42279,314.90023 405.04612,314.9954 z"
       inkscape:connector-curvature="0"
       id="path3054"
       style="fill:#cc6bc8;stroke:none" />
    <path
       d="M 599.86086,295.39563 C 593.7331,295.65207 588.25825,298.90672 583.47452,302.49426 580.91106,304.50723 578.29049,306.51064 575.91951,308.73596 575.68374,309.61735 576.96509,310.08615 577.39296,310.75861 579.52097,312.71923 581.29242,315.08217 582.4704,317.71487 582.80155,318.25735 582.88295,319.6234 583.77303,319.07078 590.20035,312.0473 596.66955,305.01643 603.48451,298.4121 603.97709,297.7992 605.38569,297.15262 604.81059,296.19225 603.87113,295.52583 602.57785,295.64864 601.47403,295.43667 600.93753,295.39467 600.39885,295.38237 599.86086,295.39567 z"
       inkscape:connector-curvature="0"
       id="path3826"
       style="fill:#d17697;stroke:none" />
    <path
       d="M 561.76397,302.16204 C 558.46341,305.17908 555.39012,308.48493 551.98776,311.39968 543.4712,318.91078 534.54504,325.93721 525.74607,333.13793 525.29579,333.93129 526.26823,334.7088 526.52326,335.45978 527.66635,337.34042 529.0529,339.10172 530.62675,340.62315 531.37282,340.80462 532.18935,339.86681 532.98365,340.30751 534.38952,341.01692 534.15976,342.84445 534.93634,343.98459 537.93136,346.18642 541.47998,347.58067 545.03881,348.59266 549.01606,349.71144 553.2351,349.91091 557.32427,349.40549 558.97131,349.06135 560.69509,348.84205 562.23515,348.15227 562.97639,346.78719 563.63947,345.24277 564.48883,343.88874 569.62994,335.43768 576.10313,327.9755 582.51009,320.45515 583.46318,319.68725 582.58799,318.55499 582.22766,317.70242 579.87323,312.36838 575.11313,308.51523 569.95847,306.05771 567.54501,304.88371 565.00057,303.9846 562.43916,303.23554 562.71791,302.72627 562.52466,301.82342 561.76397,302.16204 z"
       inkscape:connector-curvature="0"
       id="path3828"
       style="fill:#a7c0ab;stroke:none" />
    <path
       d="M 550.65598,166.80084 C 550.29059,169.5119 551.08492,172.33853 550.95714,175.09735 551.32511,180.71579 550.68263,186.43169 551.62747,191.99152 551.96134,193.71678 553.13481,195.12122 553.70645,196.70324 553.54535,199.67971 552.68303,202.89085 554.41564,205.59235 554.72637,206.71688 555.70705,206.96061 556.66949,207.15644 559.63105,208.63891 563.2432,209.39113 565.10201,212.36362 568.6768,217.69938 570.27438,224.11228 571.52354,230.34585 572.94034,236.90971 572.31857,243.80015 569.83315,249.98933 568.7219,253.30066 566.71281,256.23652 564.97257,259.17676 567.90959,262.71485 571.28561,266.27162 572.87391,270.76945 575.78511,277.93517 573.4652,286.01889 569.37655,292.19076 567.40119,295.62396 564.67437,298.48351 562.32355,301.6239 561.7587,303.12006 564.13379,303.36828 565.06547,303.81429 568.68514,305.01698 572.08726,306.81855 575.34149,308.68662 581.87275,303.48217 588.42242,297.39928 596.80165,295.45496 599.80275,294.68503 602.89394,295.43456 605.8284,295.88971 607.581,294.82245 609.13534,293.27477 609.26435,291.08042 613.08025,277.23026 613.43858,262.48115 611.10413,248.33319 608.95266,236.62754 604.80525,225.11525 598.00629,215.30722 588.81847,204.58649 578.85101,194.54381 569.07902,184.34713 563.2147,178.42825 557.51603,172.29167 551.36517,166.7037 551.11088,166.50215 550.88671,166.7087 550.65598,166.8008 z"
       inkscape:connector-curvature="0"
       id="path3836"
       style="fill:#d0cf6e;stroke:none" />
    <path
       d="M 437.98525,105.03761 C 435.00102,105.86392 432.33898,107.65512 429.46026,108.76085 422.7391,111.66135 415.43829,114.48319 407.98634,113.24661 407.08347,112.85969 405.99311,112.79142 405.32099,113.64504 399.86758,118.28979 394.52773,123.47558 387.76266,126.15432 382.71059,127.93898 377.25298,128.14292 371.94309,128.5563 369.90972,128.70685 367.86383,128.621 365.87695,128.36727 365.04083,129.24026 365.72953,130.91873 365.50563,132.10326 365.56523,137.49 365.38645,142.92734 365.59493,148.28249 366.6232,148.95038 368.22251,148.40644 369.47618,148.5741 372.76794,148.43712 376.13869,148.6264 379.36821,147.92362 385.29198,145.30033 390.31211,141.04858 395.60677,137.37572 405.34646,130.17352 415.57328,123.40581 427.08344,119.39477 437.07344,115.755 447.80404,114.4168 458.42838,114.98247 472.32064,115.74284 485.82523,119.86861 498.50112,125.45472 505.45685,128.75272 511.65929,133.36992 517.91825,137.79117 537.87833,152.22945 555.44974,169.49387 572.45549,187.27253 580.98404,196.24858 589.59348,205.18185 597.82375,214.40621 600.79531,218.1285 602.80928,222.52898 604.85807,226.82618 609.11382,236.41217 611.70999,246.74587 612.51539,257.20947 612.94453,265.40228 612.99628,273.64942 611.58009,281.75099 611.1648,285.06563 610.21423,288.28067 609.63233,291.55706 609.99135,292.62702 611.54734,292.32491 612.42821,292.66304 613.56124,292.5253 613.15818,290.88406 613.53946,290.06835 614.41945,285.39207 615.49828,280.75155 616.59565,276.1386 617.80729,267.75402 617.8131,259.16712 616.67785,250.77266 614.76493,236.28903 608.85603,222.57264 600.78375,210.48022 592.70837,198.27903 582.94378,187.33384 573.36927,176.29785 566.1206,168.10851 557.87283,160.8616 549.73011,153.59042 532.30016,138.4115 513.15179,124.83975 491.83183,115.68992 476.64225,109.23489 460.2369,105.06465 443.63882,105.35614 441.76257,105.31484 439.80968,105.43264 437.98525,105.03761 z"
       inkscape:connector-curvature="0"
       id="path3838"
       style="fill:#73a0a6;stroke:none" />
    <path
       d="M 612.85341,292.5648 C 612.1051,292.77493 612.30773,293.78037 612.06916,294.35785 609.6311,306.89963 607.5096,319.50227 605.67965,332.14719 605.63565,332.87999 605.36108,333.63575 605.54431,334.35857 606.18666,334.8183 607.07358,334.46698 607.82154,334.57839 609.996,334.61209 612.47778,334.85417 613.98469,336.61823 614.62223,337.14958 614.88829,337.97243 615.48441,338.52489 616.18091,338.89258 616.44252,337.96769 616.55261,337.47043 618.43596,329.98436 621.29242,322.74035 622.83372,315.15528 623.74116,310.34199 624.02798,305.08786 621.81805,300.57459 620.00756,297.02941 616.85308,294.21881 613.23467,292.60946 613.11032,292.57956 612.98257,292.54176 612.85341,292.56476 z"
       inkscape:connector-curvature="0"
       id="path3840"
       style="fill:#c9ca98;stroke:none" />
    <path
       d="M 605.48936,334.75356 C 605.07553,335.51036 605.28114,336.46685 605.1209,337.30482 604.43868,346.31542 604.58499,355.40763 603.25546,364.35591 602.86174,366.98476 602.20372,369.56778 601.50851,372.1234 601.44591,372.91328 602.41059,372.86028 602.94766,372.80348 604.32777,372.6651 605.70449,372.32569 606.97659,371.77306 609.61854,369.79085 611.97584,367.38874 613.8014,364.62882 615.77065,361.70201 616.6745,358.12951 616.42455,354.62017 616.23146,350.0906 615.12236,345.59315 615.71826,341.05336 615.95885,340.00365 615.32125,339.01641 614.92455,338.08525 613.92623,336.47177 612.33939,335.11756 610.39758,334.89439 608.84831,334.6959 607.26268,334.65274 605.71183,334.67628 605.63763,334.70208 605.56351,334.72778 605.48936,334.75358 z"
       inkscape:connector-curvature="0"
       id="path3842"
       style="fill:#ca818c;stroke:none" />
  </g>
</svg>
