<?xml version="1.0" encoding="UTF-8" standalone="no"?>
<!-- Created with Inkscape (http://www.inkscape.org/) -->

<svg
   xmlns:dc="http://purl.org/dc/elements/1.1/"
   xmlns:cc="http://creativecommons.org/ns#"
   xmlns:rdf="http://www.w3.org/1999/02/22-rdf-syntax-ns#"
   xmlns:svg="http://www.w3.org/2000/svg"
   xmlns="http://www.w3.org/2000/svg"
   xmlns:xlink="http://www.w3.org/1999/xlink"
   xmlns:inkscape="http://www.inkscape.org/namespaces/inkscape"
   version="1.1"
   width="740"
   height="520"
   id="svg2"
   style="display:inline;enable-background:new">
  <defs
     id="defs4">
    <filter
       color-interpolation-filters="sRGB"
       id="filter3050">
      <feBlend
         in2="BackgroundImage"
         mode="lighten"
         id="feBlend3052" />
    </filter>
  </defs>
  <metadata
     id="metadata7">
    <rdf:RDF>
      <cc:Work
         rdf:about="">
        <dc:format>image/svg+xml</dc:format>
        <dc:type
           rdf:resource="http://purl.org/dc/dcmitype/StillImage" />
        <dc:title />
      </cc:Work>
    </rdf:RDF>
  </metadata>
  <g
     id="g2439"
     style="display:none">
    <image
       xlink:href="pngs/coronal-0669.png"
       id="image2441"
       height="520"
       width="740"
       y="0"
       x="0" />
  </g>
  <g
     id="g2447"
     style="display:inline">
    <path
       d="M 512.43873,352.74869 C 513.16059,345.61817 501.00397,367.49816 497.65498,372.3235 492.53524,385.68673 470.75348,399.72866 485.21156,414.16545 497.11954,425.79852 514.04303,429.69619 528.29024,437.70685 546.37672,445.73531 566.69442,456.31019 586.83705,451.39741 605.1831,447.7519 614.34547,431.72289 625.20081,418.21876 634.3255,399.68711 643.02486,381.00552 651.39248,362.1237 657.12101,347.59151 660.89776,331.61811 671.60727,319.79583 690.83631,309.97919 691.58117,284.96886 690.86754,265.79543 688.74672,244.24238 688.32764,221.77309 681.18031,201.1661 675.30944,182.75186 665.93934,166.00677 654.78297,150.38988 644.70339,135.30263 631.90447,121.60387 618.35844,109.56652 603.06038,96.654171 584.90461,86.846887 567.0077,77.954034 534.74188,64.826324 502.05932,50.971399 467.09666,47.298905 441.7751,41.24355 413.8705,37.494286 389.01524,47.257965 368.50648,54.403346 365.09374,76.428276 367.55508,95.337461 369.85742,107.54705 362.6693,138.60164 383.60808,127.666 400.1904,124.20004 406.92532,97.866312 426.01519,105.29135 443.5699,110.63098 463.40259,105.60414 480.90365,113.78388 499.5909,120.02417 516.4459,129.84763 531.71305,141.97473 550.07739,157.48381 570.48569,171.36004 584.06861,191.70456 593.48524,204.93174 604.0232,217.5373 609.90399,232.84063 619.45994,252.71531 619.86366,276.12472 612.54082,296.791 608.07484,317.53121 611.58105,339.28492 602.93613,359.19925 L 602.47032,359.80498 601.97104,359.58796"
       inkscape:connector-curvature="0"
       id="path2449"
       style="fill:none;stroke:#e20000;stroke-opacity:1" />
    <path
       d="M 368.19225,150.0575 C 382.16697,155.61359 390.0414,139.0908 401.23637,133.85615 410.95285,127.74932 420.85887,121.62994 431.89916,117.92445 443.18057,111.75695 456.30615,116.68437 468.21204,117.61642 484.52853,120.69369 498.81289,129.57734 513.06049,137.62246 522.08475,144.15728 528.47421,153.37215 536.93428,160.52684 547.61243,170.67291 560.85163,177.70028 570.25603,189.16843 582.9277,200.45155 592.19399,214.95024 601.34928,229.02002 607.60785,245.15048 616.65882,262.31236 612.0219,280.06696 612.0415,294.33281 605.54893,307.54888 604.60334,321.83177 603.83817,333.84519 600.81754,345.74337 601.18524,357.74901 L 601.42756,359.11885 601.97104,360.83146"
       inkscape:connector-curvature="0"
       id="path2451"
       style="opacity:0.6;fill:none;stroke:#e20000;stroke-opacity:1" />
    <path
       d="M 415.71489,103.77836 372.6319,59.847314"
       inkscape:connector-curvature="0"
       id="path2453"
       style="opacity:0.6;fill:none;stroke:#e20000;stroke-opacity:1" />
    <path
       d="M 425.92146,103.86575 425.45057,41.690532"
       inkscape:connector-curvature="0"
       id="path2455"
       style="opacity:0.6;fill:none;stroke:#e20000;stroke-opacity:1" />
    <path
       d="M 449.64177,109.02187 453.14599,45.345614"
       inkscape:connector-curvature="0"
       id="path2457"
       style="opacity:0.6;fill:none;stroke:#e20000;stroke-opacity:1" />
    <path
       d="M 533.80644,64.527653 513.58276,127.83655"
       inkscape:connector-curvature="0"
       id="path2459"
       style="fill:none;stroke:#0000e9;stroke-width:0.99000001;stroke-miterlimit:4;stroke-opacity:1;stroke-dasharray:none;stroke-dashoffset:0" />
    <path
       d="M 649.4331,141.0259 585.24492,191.14545"
       inkscape:connector-curvature="0"
       id="path2461"
       style="fill:none;stroke:#0000e9;stroke-width:0.99000001;stroke-miterlimit:4;stroke-opacity:1;stroke-dasharray:none;stroke-dashoffset:0" />
    <path
       d="M 514.46205,57.493331 496.87625,119.48329"
       inkscape:connector-curvature="0"
       id="path2463"
       style="fill:none;stroke:#0000e9;stroke-width:0.99000001;stroke-miterlimit:4;stroke-opacity:1;stroke-dasharray:none;stroke-dashoffset:0" />
    <path
       d="M 657.34672,154.21526 592.27924,202.13658"
       inkscape:connector-curvature="0"
       id="path2465"
       style="fill:none;stroke:#0000e9;stroke-width:0.99000001;stroke-miterlimit:4;stroke-opacity:1;stroke-dasharray:none;stroke-dashoffset:0" />
    <path
       d="M 685.48401,224.11883 615.58043,246.98038"
       inkscape:connector-curvature="0"
       id="path2467"
       style="fill:none;stroke:#0000e9;stroke-width:0.99000001;stroke-miterlimit:4;stroke-opacity:1;stroke-dasharray:none;stroke-dashoffset:0" />
    <path
       d="M 616.45972,279.95376 690.3201,292.70347"
       inkscape:connector-curvature="0"
       id="path2469"
       style="fill:none;stroke:#0000e9;stroke-width:0.99000001;stroke-miterlimit:4;stroke-opacity:1;stroke-dasharray:none;stroke-dashoffset:0" />
    <path
       d="M 609.4254,322.59934 660.42423,339.30585"
       inkscape:connector-curvature="0"
       id="path2471"
       style="fill:none;stroke:#0000e9;stroke-width:0.99000001;stroke-miterlimit:4;stroke-opacity:1;stroke-dasharray:none;stroke-dashoffset:0" />
    <path
       d="M 620.85617,326.1165 C 620.79727,330.7854 619.25993,335.28211 618.8376,339.92059 617.82818,342.85112 617.13359,345.84514 616.40059,348.87187 615.87298,352.38751 614.25163,355.57961 613.32366,358.98073 612.26149,362.39291 611.11032,365.72388 608.57146,368.31725 605.94645,371.36129 604.30686,375.29841 601.9767,378.66454 600.03274,381.65308 598.24981,384.86778 595.84273,387.42131 593.55387,389.84394 592.23595,393.12077 589.25169,394.89322 586.98366,397.54712 585.01586,399.16136 583.06099,401.96558 579.80538,403.92923 577.57838,407.36352 574.43671,409.38626 572.14101,411.72892 569.31086,413.65876 566.88299,415.88852 566.92799,415.68277 567.09048,415.78776 567.21947,415.80412"
       inkscape:connector-curvature="0"
       id="path2473"
       style="fill:none;stroke:#0000e9;stroke-width:0.99000001;stroke-miterlimit:4;stroke-opacity:1;stroke-dasharray:none;stroke-dashoffset:0" />
    <path
       d="M 558.86621,449.65678 C 579.89363,411.38472 557.54029,387.35836 534.24608,438.66565"
       inkscape:connector-curvature="0"
       id="path2475"
       style="fill:none;stroke:#0000e9;stroke-width:0.99000001;stroke-miterlimit:4;stroke-opacity:1;stroke-dasharray:none;stroke-dashoffset:0" />
    <path
       d="M 551.57435,413.27291 C 549.81255,412.34058 547.27898,409.99662 545.62706,408.91021 544.13105,407.83118 542.28787,408.09067 540.69325,407.38317 538.62949,407.25509 536.65227,405.57278 534.60119,405.2594 532.6348,405.5125 531.16512,403.40907 529.19819,403.97053 527.42783,403.53031 525.84655,403.09827 524.06655,402.89736 522.49505,403.30407 521.05897,402.97426 519.78464,402.7051 518.2789,403.14231 516.8102,404.85345 515.90774,406.15857 515.52337,407.26415 515.17472,407.93853 514.9017,409.20942 513.75002,409.73561 514.49055,411.37057 513.07604,412.10178 513.3411,414.06317 511.49298,415.19369 511.76909,416.91279 510.44963,417.82465 510.0323,419.54603 508.95664,420.55608 507.64558,421.82226 506.6788,423.27476 505.71198,424.77664 505.23105,425.31768 504.79832,426.35556 504.20639,426.65178 504.41413,427.01854 504.91075,426.83465 505.2295,426.79522"
       inkscape:connector-curvature="0"
       id="path2477"
       style="fill:none;stroke:#0000e9;stroke-width:0.99000001;stroke-miterlimit:4;stroke-opacity:1;stroke-dasharray:none;stroke-dashoffset:0" />
    <path
       d="M 521.50374,403.31076 C 530.22763,403.6636 538.47454,406.59471 546.33497,410.07232 548.90309,411.29846 551.30763,413.68199 547.86756,415.78455 542.12747,422.6563 537.76165,430.59688 533.72506,438.49805 530.40785,439.64486 527.27966,436.1208 524.21017,435.23114 518.20877,432.04455 511.63754,429.87356 505.74621,426.58761 507.01208,421.94354 511.6927,418.67741 513.09066,413.91941 515.16274,410.30274 515.2678,404.88003 519.9105,403.42734 520.42928,403.30138 520.96965,403.26443 521.50374,403.31076 z"
       inkscape:connector-curvature="0"
       id="path2479"
       style="fill:#82c1d2;stroke:none" />
    <path
       d="M 559.93579,409.78087 C 566.63857,411.40736 567.40441,419.84964 566.67112,425.59327 565.50981,433.88146 562.73495,442.15516 558.20655,449.18441 550.48796,447.24837 542.96248,443.76513 535.59031,440.61589 533.09781,439.56486 536.39956,436.68343 536.58123,435.03955 541.57436,425.57329 546.89829,414.69504 557.1962,410.11118 558.0778,409.82668 559.00842,409.65453 559.93579,409.78087 z"
       inkscape:connector-curvature="0"
       id="path2481"
       style="fill:#9eae8b;stroke:none" />
    <path
       d="M 622.46074,327.26271 C 634.52582,331.25381 646.71236,335.05192 658.71666,339.15372 659.52445,341.5057 657.0075,344.27127 656.67653,346.73132 648.15813,369.79442 637.5075,392.02999 626.56042,414.01656 620.51077,424.89425 612.61863,434.88518 603.14441,443.00128 593.76008,450.67376 581.21876,453.57874 569.28496,451.72253 566.42794,451.00023 562.21973,451.65813 560.22724,449.20384 561.68621,442.49563 565.99105,436.4958 566.65849,429.48264 567.41979,425.07426 566.9462,420.40568 567.47454,415.99839 581.18248,404.48746 594.42372,392.17582 603.65673,376.63192 607.76397,370.0272 612.90991,363.76177 614.6658,355.95156 617.7085,346.82787 619.46946,337.32241 621.41153,327.96218 621.56441,327.55849 621.97921,327.04889 622.46074,327.26271 z"
       inkscape:connector-curvature="0"
       id="path2483"
       style="fill:#d5be93;stroke:none" />
    <path
       d="M 618.96338,280.8256 C 642.13255,284.60539 665.28995,288.6327 688.36646,292.94977 689.5725,295.22373 687.25243,298.14453 686.87037,300.52737 684.44944,308.7747 678.32376,315.28115 671.36543,319.89884 665.90889,324.84697 663.37405,332.13718 659.51328,338.22109 654.18522,337.37862 648.80641,334.81062 643.46212,333.3517 632.52559,329.78836 621.58581,326.235 610.64745,322.67729 609.63852,314.15669 611.61405,305.22764 613.1036,296.71662 614.74188,291.64525 615.23246,286.12021 617.33128,281.25306 617.75602,280.83067 618.38143,280.74171 618.96338,280.8256 z"
       inkscape:connector-curvature="0"
       id="path2485"
       style="fill:#9b7d71;stroke:none" />
    <path
       d="M 686.34576,224.94564 C 688.61124,241.10029 690.1648,257.46008 690.69056,273.79198 690.50164,279.7601 690.94071,286.11421 688.98821,291.78398 674.15782,289.90818 659.20139,286.79803 644.32794,284.4251 635.44563,282.90144 626.56333,281.37778 617.68102,279.85412 616.77491,274.86656 618.12152,269.1976 617.62272,263.94115 617.70662,258.30252 615.97411,252.55372 616.12663,247.13441 639.40415,239.67914 662.51769,231.72796 685.89887,224.67362 L 686.34575,224.94564 z"
       inkscape:connector-curvature="0"
       id="path2487"
       style="fill:#c1dfbe;stroke:none" />
    <path
       d="M 657.06513,155.56199 C 662.29332,160.63563 665.27208,167.84923 669.00315,174.11435 677.14575,189.43277 683.55092,205.9361 685.95717,223.1581 682.34861,225.41512 677.47575,226.01902 673.44081,227.70506 654.20595,233.90594 635.09995,240.56842 615.71861,246.20178 613.39425,243.4659 613.49755,239.06628 611.6578,235.88459 606.94385,224.1246 600.02895,213.42792 593.02466,203.02887 594.07799,200.41098 597.83183,199.15572 599.88667,197.07482 618.76371,183.14882 637.46725,168.88336 656.71539,155.52313 656.83297,155.52613 656.95248,155.50933 657.06513,155.56203 z"
       inkscape:connector-curvature="0"
       id="path2489"
       style="fill:#e19179;stroke:none" />
    <path
       d="M 648.06915,143.16581 C 651.56999,145.91468 654.38096,149.98668 656.15193,154.08533 652.04868,158.22003 646.5105,161.3232 641.90586,165.09649 625.52547,177.1493 609.32765,189.48382 592.61664,201.06647 589.35162,199.89149 587.939,195.57636 585.58792,193.15551 584.51355,189.97232 590.69383,188.45487 592.48517,185.97864 610.97896,171.73215 629.14752,156.88148 647.95257,143.14638 L 648.06915,143.16578 z"
       inkscape:connector-curvature="0"
       id="path2491"
       style="fill:#70bb86;stroke:none" />
    <path
       d="M 535.18229,65.757672 C 554.75232,73.126256 574.35403,80.916579 592.19098,91.993596 606.11032,100.00153 618.9362,109.60596 629.91452,121.35839 635.89775,127.74494 642.67125,133.71006 647.23367,141.2034 646.27444,143.81015 642.55078,145.0818 640.66593,147.22505 622.56323,161.39491 604.749,175.99872 586.1271,189.46691 584.49748,191.09526 582.57088,189.93176 581.91084,188.02911 567.15495,168.82869 547.40136,154.38399 528.53885,139.30377 524.09054,135.49594 518.76254,132.71432 514.45074,128.94323 513.692,125.36268 516.5065,121.79445 517.02038,118.24725 522.74245,100.94812 527.64399,83.315035 534.30795,66.379424 534.44954,66.058207 534.77937,65.641272 535.18229,65.757672 z"
       inkscape:connector-curvature="0"
       id="path2493"
       style="fill:#7edfd0;stroke:none" />
    <path
       d="M 454.2768,44.948407 C 471.77445,48.625941 489.66183,50.530079 506.77178,55.960042 508.73059,57.048686 512.50557,56.647151 513.45983,58.782391 508.19031,78.341631 503.01945,98.016125 496.67252,117.22709 495.79153,120.72145 492.02613,117.20939 489.95701,116.9087 479.00489,112.28612 467.61448,108.56328 455.63688,108.2894 453.58095,107.76104 448.94751,108.96173 450.23861,105.25988 451.25896,85.294099 452.32745,65.329499 453.5579,45.375862 453.78321,45.273325 453.9574,44.80437 454.2768,44.948407 z"
       inkscape:connector-curvature="0"
       id="path2495"
       style="fill:#b7bfb2;stroke:none" />
    <path
       d="M 373.39074,61.599705 C 387.46292,75.268047 401.33623,89.338817 414.69839,103.68455 413.48085,105.88026 409.90542,106.1438 408.29712,108.32119 399.57744,115.21877 392.75013,125.47828 381.31808,128.26319 378.33419,129.64549 374.37674,130.48 372.01123,127.50543 367.77085,122.97963 369.51585,116.06618 368.49444,110.46553 368.1733,97.632741 366.25205,84.540555 368.74703,71.839185 369.94529,68.448902 370.25602,64.019462 373.00214,61.521986 L 373.39074,61.599706 z"
       inkscape:connector-curvature="0"
       id="path2497"
       style="fill:#6d70b9;stroke:none" />
    <path
       d="M 425.40419,41.917366 C 425.40419,62.661865 425.40419,83.406364 425.40419,104.15086 423.12192,104.8578 420.2679,103.30791 417.71,103.66512 410.60875,98.88532 405.16435,91.852232 398.89307,86.007156 390.39371,77.391874 381.87742,68.796249 373.50732,60.064755 376.69832,54.574876 382.44692,50.194173 388.58002,47.944911 400.11268,43.415466 412.55584,41.799024 424.87958,41.412192 L 425.32744,41.843465 425.40424,41.917365 z"
       inkscape:connector-curvature="0"
       id="path2499"
       style="fill:#cce198;stroke:none" />
    <path
       d="M 431.21368,41.839647 C 438.28891,42.696662 445.6415,42.790784 452.37268,45.162134 452.67583,55.922849 451.4599,66.908816 451.07331,77.741043 450.34356,87.536322 450.31326,97.515524 449.34164,107.22076 446.6626,108.91975 442.87174,107.18386 439.84764,107.3402 435.32595,106.63017 430.34362,106.61384 426.2591,104.71433 426.3556,83.791615 425.87541,62.872635 425.42362,41.956225 426.77265,40.740443 429.47591,42.079086 431.21368,41.839647 z"
       inkscape:connector-curvature="0"
       id="path2501"
       style="fill:#b08fc6;stroke:none" />
    <path
       d="M 515.0997,58.549234 C 520.94498,60.422124 526.89381,62.50421 532.54761,64.805614 532.90726,68.099116 530.55458,71.632907 529.98289,74.986805 524.40338,92.483858 519.25305,110.17232 513.09843,127.42771 510.70367,128.19339 508.34219,125.17139 506.05883,124.54402 503.32458,122.61345 499.09353,121.71341 497.55463,118.58717 503.10294,98.674846 508.74905,78.784333 514.40022,58.898969 514.52122,58.556113 514.83265,58.487689 515.0997,58.549234 z"
       inkscape:connector-curvature="0"
       id="path2503"
       style="fill:#bec1ac;stroke:none" />
  </g>
</svg>
