<?xml version="1.0" encoding="UTF-8" standalone="no"?>
<!-- Created with Inkscape (http://www.inkscape.org/) -->

<svg
   xmlns:dc="http://purl.org/dc/elements/1.1/"
   xmlns:cc="http://creativecommons.org/ns#"
   xmlns:rdf="http://www.w3.org/1999/02/22-rdf-syntax-ns#"
   xmlns:svg="http://www.w3.org/2000/svg"
   xmlns="http://www.w3.org/2000/svg"
   xmlns:xlink="http://www.w3.org/1999/xlink"
   xmlns:inkscape="http://www.inkscape.org/namespaces/inkscape"
   version="1.1"
   width="740"
   height="520"
   id="svg2"
   style="display:inline;enable-background:new">
  <defs
     id="defs4">
    <filter
       color-interpolation-filters="sRGB"
       id="filter3050">
      <feBlend
         in2="BackgroundImage"
         mode="lighten"
         id="feBlend3052" />
    </filter>
  </defs>
  <metadata
     id="metadata7">
    <rdf:RDF>
      <cc:Work
         rdf:about="">
        <dc:format>image/svg+xml</dc:format>
        <dc:type
           rdf:resource="http://purl.org/dc/dcmitype/StillImage" />
        <dc:title />
      </cc:Work>
    </rdf:RDF>
  </metadata>
  <g
     id="g2946"
     style="display:none">
    <image
       xlink:href="pngs/coronal-0621.png"
       id="image2948"
       height="520"
       width="740"
       y="0"
       x="0" />
  </g>
  <g
     id="g2954"
     style="display:inline">
    <path
       d="M 598.86227,231.50703 C 594.5286,227.94668 583.9746,206.87833 574.03835,199.04503 537.84498,162.65025 488.77134,142.391 439.68827,130.48017 417.62751,120.84973 402.22764,145.44154 382.97653,150.95338 360.2527,153.14411 369.5991,123.18853 367.46083,108.86427 368.37844,92.443495 361.06656,71.740296 378.21717,60.848025 403.86673,46.558627 434.66132,53.126594 462.41196,56.091302 497.27721,60.264251 529.86753,74.02547 562.81532,85.325162 598.38164,98.613166 631.19686,122.60903 648.59313,157.06013 669.85801,189.55921 677.17254,228.66775 681.28888,266.63579 685.34931,289.74557 677.04141,314.16342 658.53817,328.88907 643.80002,341.9638 637.97751,361.40965 628.37916,378.0821 617.43492,398.15749 609.30085,421.2062 591.68099,436.5096 573.81568,453.15489 550.21101,448.63576 529.17528,443.99211 509.42799,445.97404 484.75422,440.02923 478.86412,418.65441"
       inkscape:connector-curvature="0"
       id="path2956"
       style="fill:none;stroke:#e20000;stroke-opacity:1" />
    <path
       d="M 370.0575,166.22306 C 393.97376,167.75685 413.57147,149.14178 437.33805,149.76799 452.07642,147.04283 468.10152,148.59017 481.49059,155.40569 497.44412,166.12504 517.34787,168.36967 533.54023,178.71524 549.37451,186.67174 564.26544,196.89245 575.49656,210.74513 587.30395,223.37118 597.32652,237.73537 605.62239,252.85663 611.07289,266.27076 611.20178,281.02019 605.46329,294.46257 602.55221,308.23598 596.30559,321.30631 588.66712,332.97398 582.61686,340.14069 573.24701,352.83091 572.67955,358.97272 582.63346,353.30081 587.85806,342.03946 593.93815,332.76089 602.87675,317.85693 609.60897,301.60104 614.46731,284.95714 617.52884,269.94098 612.77451,254.50082 605.37071,241.51214 602.33526,237.10021 598.61814,232.9884 596.99702,227.77652"
       inkscape:connector-curvature="0"
       id="path2958"
       style="opacity:0.6;fill:none;stroke:#e20000;stroke-opacity:1" />
    <path
       d="M 396.17109,206.63694 C 396.52117,203.86015 398.82137,205.93356 399.9016,205.39344 400.16376,205.26236 400.2612,204.90277 400.52336,204.77169 401.04102,204.51286 402.61598,205.16607 403.01036,204.77169 403.15691,204.62514 402.86382,204.29648 403.01036,204.14994 403.42487,203.73543 405.08287,204.56444 405.49737,204.14994 405.64392,204.00339 405.35082,203.67473 405.49737,203.52818 405.81907,203.20648 409.23061,203.8377 409.84964,203.52818 410.11179,203.39711 410.20924,203.03751 410.47139,202.90643 411.37156,202.45635 416.21532,203.38002 416.68891,202.90643 416.83546,202.75988 416.54236,202.43123 416.68891,202.28468 416.86307,202.11053 419.54331,202.1575 419.79767,202.28468 420.05983,202.41576 420.15727,202.77536 420.41942,202.90643 421.41423,203.40383 423.15513,202.40903 424.14994,202.90643 424.41209,203.03751 424.50953,203.39711 424.77169,203.52818 425.76649,204.02559 427.5074,203.03078 428.5022,203.52818 428.76435,203.65926 428.8618,204.01886 429.12395,204.14994 429.62135,204.39864 430.49181,203.90124 430.98921,204.14994 431.25136,204.28101 431.34881,204.64061 431.61096,204.77169 432.10836,205.02039 432.97882,204.52299 433.47622,204.77169 433.73837,204.90277 433.83582,205.26236 434.09797,205.39344 434.46871,205.57881 434.97073,205.20807 435.34147,205.39344 435.60363,205.52452 435.70107,205.88412 435.96323,206.01519 436.33397,206.20056 436.83599,205.82982 437.20673,206.01519 437.93099,206.37732 438.34772,206.89657 439.07199,207.2587 439.73519,207.5903 440.89579,206.9271 441.55899,207.2587 442.0833,207.52085 442.27819,208.24005 442.8025,208.5022 443.17324,208.68757 443.67526,208.31683 444.046,208.5022 444.30816,208.63328 444.4056,208.99288 444.66776,209.12395 445.0385,209.30932 445.54052,208.93858 445.91126,209.12395 446.63552,209.48608 447.05225,210.00533 447.77652,210.36746 448.26177,210.61009 449.77827,210.74658 450.26352,210.98921 451.59339,211.65414 450.17712,211.56778 451.50703,212.23271 451.87777,212.41808 452.37979,212.04734 452.75053,212.23271 453.27484,212.49487 453.46973,213.21406 453.99404,213.47622 454.36478,213.66159 454.94444,213.18312 455.23754,213.47622 455.38409,213.62277 455.09099,213.95142 455.23754,214.09797 455.53064,214.39107 456.18795,213.80487 456.48105,214.09797 456.62759,214.24452 456.3345,214.57317 456.48105,214.71972 456.77414,215.01282 457.43145,214.42662 457.72455,214.71972 457.8711,214.86627 457.578,215.19493 457.72455,215.34147 457.8711,215.48802 458.16093,215.24877 458.3463,215.34147 459.07056,215.7036 459.4873,216.22285 460.21156,216.58498 460.39693,216.67768 460.68676,216.43843 460.83331,216.58498 460.97986,216.73153 460.68676,217.06018 460.83331,217.20673 460.97986,217.35328 461.30851,217.06018 461.45506,217.20673 461.60161,217.35328 461.30851,217.68193 461.45506,217.82848 461.60161,217.97503 461.93027,217.68193 462.07681,217.82848 462.22336,217.97503 461.93027,218.30369 462.07681,218.45023 462.22336,218.59678 462.55202,218.30369 462.69857,218.45023 462.84511,218.59678 462.55202,218.92544 462.69857,219.07199 462.84511,219.21853 463.17377,218.92544 463.32032,219.07199 463.46687,219.21853 463.17377,219.54719 463.32032,219.69374 463.61341,219.98684 464.27073,219.40064 464.56382,219.69374 464.71037,219.84029 464.41727,220.16894 464.56382,220.31549 464.71037,220.46204 465.0002,220.22279 465.18557,220.31549 465.44773,220.44657 465.54517,220.80617 465.80733,220.93724 465.9927,221.02994 466.28253,220.79069 466.42908,220.93724 466.57563,221.08379 466.28253,221.41245 466.42908,221.55899 466.57563,221.70554 466.86546,221.46629 467.05083,221.55899 467.31298,221.69007 467.41043,222.04967 467.67258,222.18075 468.04798,222.36845 469.25043,221.89333 469.53784,222.18075 469.68439,222.3273 469.39129,222.65595 469.53784,222.8025 469.68439,222.94905 469.97422,222.7098 470.15959,222.8025 470.42174,222.93358 470.51919,223.29317 470.78134,223.42425 471.29901,223.68308 472.87397,223.02987 473.26835,223.42425 473.4149,223.5708 473.1218,223.89945 473.26835,224.046 473.56145,224.3391 474.09735,224.046 474.51186,224.046 475.6688,224.046 479.907,224.45719 480.72938,224.046 481.45364,223.68387 481.87037,223.16463 482.59463,222.8025 482.96537,222.61713 483.54504,223.0956 483.83814,222.8025 483.98469,222.65595 483.69159,222.3273 483.83814,222.18075 484.13123,221.88765 484.78854,222.47384 485.08164,222.18075 485.22819,222.0342 484.93509,221.70554 485.08164,221.55899 485.22819,221.41245 485.55685,221.70554 485.70339,221.55899 485.70339,219.90099 485.49614,221.76625 486.32515,220.93724 486.47169,220.79069 486.1786,220.46204 486.32515,220.31549 486.47169,220.16894 486.80035,220.46204 486.9469,220.31549 487.09345,220.16894 486.8542,219.87911 486.9469,219.69374 487.20905,219.16943 487.92825,218.97454 488.1904,218.45023 488.2831,218.26486 488.04385,217.97503 488.1904,217.82848 488.33695,217.68193 488.66561,217.97503 488.81215,217.82848 488.9587,217.68193 488.66561,217.35328 488.81215,217.20673 488.9587,217.06018 489.28736,217.35328 489.43391,217.20673 489.727,216.91363 489.14081,216.25632 489.43391,215.96323 489.58045,215.81668 489.90911,216.10977 490.05566,215.96323 490.34875,215.67013 489.76256,215.01282 490.05566,214.71972 490.20221,214.57317 490.53086,214.86627 490.67741,214.71972 490.84199,214.55514 490.67741,213.11048 490.67741,212.85447 490.67741,212.05091 490.9624,209.07217 490.67741,208.5022 490.54633,208.24005 490.18673,208.1426 490.05566,207.88045 489.80696,207.38305 490.30436,206.51259 490.05566,206.01519 489.92458,205.75304 489.56498,205.65559 489.43391,205.39344 489.24854,205.0227 489.61928,204.52068 489.43391,204.14994 489.30283,203.88778 488.94323,203.79034 488.81215,203.52818 488.62678,203.15744 488.99752,202.65542 488.81215,202.28468 488.68108,202.02253 488.32148,201.92508 488.1904,201.66293 488.00503,201.29219 488.37577,200.79016 488.1904,200.41942 487.92825,199.89512 487.20905,199.70023 486.9469,199.17592 486.8542,198.99055 487.0396,198.73954 486.9469,198.55417 486.81582,198.29201 486.45622,198.19457 486.32515,197.93242 486.23245,197.74704 486.47169,197.45721 486.32515,197.31066 486.1786,197.16411 485.84994,197.45721 485.70339,197.31066 485.55685,197.16411 485.79609,196.87428 485.70339,196.68891 485.44124,196.1646 484.72204,195.96971 484.45989,195.44541 484.36719,195.26004 484.60644,194.9702 484.45989,194.82365 484.31334,194.67711 483.98469,194.9702 483.83814,194.82365 483.69159,194.67711 483.83814,194.40915 483.83814,194.2019 483.63089,193.99465 483.42364,193.7874 483.21639,193.58015 482.80188,193.16565 482.49719,192.5988 481.97288,192.33665 481.78751,192.24395 481.49768,192.48319 481.35113,192.33665 481.20458,192.1901 481.44383,191.90026 481.35113,191.71489 480.05734,189.12731 481.39403,192.37957 480.10762,191.09314 479.96108,190.94659 480.25417,190.61794 480.10762,190.47139 479.96108,190.32484 479.63242,190.61794 479.48587,190.47139 479.33932,190.32484 479.63242,189.99619 479.48587,189.84964 479.33932,189.70309 479.04949,189.94234 478.86412,189.84964 478.19629,189.51572 478.28844,188.94005 477.62062,188.60613 477.43525,188.51343 477.14541,188.75268 476.99886,188.60613 476.85232,188.45959 477.14541,188.13093 476.99886,187.98438 476.85232,187.83783 476.56248,188.07708 476.37711,187.98438 475.8528,187.72223 475.39576,187.26518 475.13361,186.74088 475.04091,186.55551 475.28016,186.26567 475.13361,186.11913 474.98706,185.97258 474.6584,186.26567 474.51186,186.11913 474.36531,185.97258 474.6584,185.64392 474.51186,185.49737 474.36531,185.35082 474.07547,185.59007 473.8901,185.49737 473.3658,185.23522 473.17091,184.51602 472.6466,184.25387 472.46123,184.16117 472.1714,184.40042 472.02485,184.25387 471.8783,184.10732 472.1714,183.77867 472.02485,183.63212 471.8783,183.48557 471.58847,183.72482 471.4031,183.63212 471.14094,183.50104 471.0435,183.14144 470.78134,183.01036 470.59597,182.91766 470.30614,183.15691 470.15959,183.01036 470.01304,182.86382 470.30614,182.53516 470.15959,182.38861 470.01304,182.24206 469.72321,182.48131 469.53784,182.38861 469.01353,182.12646 468.81864,181.40726 468.29433,181.14511 467.92359,180.95974 467.34393,181.43821 467.05083,181.14511 466.90428,180.99856 467.19738,180.6699 467.05083,180.52336 466.90428,180.37681 466.61445,180.61606 466.42908,180.52336 466.16692,180.39228 466.06948,180.03268 465.80733,179.9016 465.62196,179.8089 465.33212,180.04815 465.18557,179.9016 465.03903,179.75506 465.33212,179.4264 465.18557,179.27985 465.03903,179.1333 464.74919,179.37255 464.56382,179.27985 464.30167,179.14878 464.20422,178.78918 463.94207,178.6581 463.7567,178.5654 463.46687,178.80465 463.32032,178.6581 463.17377,178.51155 463.46687,178.1829 463.32032,178.03635 463.17377,177.8898 462.84511,178.1829 462.69857,178.03635 462.55202,177.8898 462.84511,177.56114 462.69857,177.4146 462.55202,177.26805 462.22336,177.56114 462.07681,177.4146 461.93027,177.26805 462.22336,176.93939 462.07681,176.79284 461.93027,176.6463 461.60161,176.93939 461.45506,176.79284 461.30851,176.6463 461.60161,176.31764 461.45506,176.17109 461.30851,176.02454 461.01868,176.26379 460.83331,176.17109 459.58981,175.54934 458.96805,173.68408 457.72455,173.06233 457.53918,172.96963 457.24935,173.20888 457.1028,173.06233 456.95625,172.91578 457.24935,172.58713 457.1028,172.44058 455.44479,172.44058 457.31005,172.64783 456.48105,171.81883 456.3345,171.67228 456.00584,171.96538 455.85929,171.81883 455.71274,171.67228 456.00584,171.34362 455.85929,171.19708 455.71274,171.05053 455.38409,171.34362 455.23754,171.19708 455.23754,169.53907 455.44479,171.40433 454.61579,170.57532 454.46924,170.42877 454.76234,170.10012 454.61579,169.95357 454.46924,169.80702 454.14058,170.10012 453.99404,169.95357 453.84749,169.80702 454.14058,169.47837 453.99404,169.33182 453.84749,169.18527 453.51883,169.47837 453.37228,169.33182 453.22574,169.18527 453.51883,168.85662 453.37228,168.71007 453.22574,168.56352 452.89708,168.85662 452.75053,168.71007 452.60398,168.56352 452.89708,168.23486 452.75053,168.08831 452.60398,167.94177 452.27533,168.23486 452.12878,168.08831 451.98223,167.94177 452.27533,167.61311 452.12878,167.46656 450.47077,167.46656 452.33603,167.67381 451.50703,166.84481 451.36048,166.69826 451.03182,166.99136 450.88528,166.84481 450.73873,166.69826 451.03182,166.36961 450.88528,166.22306 450.73873,166.07651 450.41007,166.36961 450.26352,166.22306 450.11698,166.07651 450.35622,165.78668 450.26352,165.60131 450.13245,165.33915 449.77285,165.24171 449.64177,164.97955 449.54907,164.79418 449.78832,164.50435 449.64177,164.3578 449.49522,164.21125 449.16657,164.50435 449.02002,164.3578 448.72692,164.06471 449.31312,163.40739 449.02002,163.1143 448.87347,162.96775 448.54482,163.26085 448.39827,163.1143 448.25172,162.96775 448.49097,162.67792 448.39827,162.49255 448.26719,162.23039 447.90759,162.13295 447.77652,161.87079 447.68382,161.68542 447.92306,161.39559 447.77652,161.24904 447.62997,161.10249 447.30131,161.39559 447.15476,161.24904 447.00822,161.10249 447.24746,160.81266 447.15476,160.62729 447.02369,160.36514 446.66409,160.26769 446.53301,160.00554 446.44031,159.82017 446.67956,159.53033 446.53301,159.38379 446.38646,159.23724 446.09663,159.47649 445.91126,159.38379 445.38695,159.12163 444.92991,158.66459 444.66776,158.14028 444.57506,157.95491 444.8143,157.66508 444.66776,157.51853 444.52121,157.37198 444.19255,157.66508 444.046,157.51853 443.89945,157.37198 444.19255,157.04333 444.046,156.89678 443.89945,156.75023 443.5708,157.04333 443.42425,156.89678 443.2777,156.75023 443.51695,156.4604 443.42425,156.27502 443.29317,156.01287 442.93358,155.91543 442.8025,155.65327 442.7098,155.4679 442.8952,155.21689 442.8025,155.03152 442.23563,153.89777 442.18075,154.61424 442.18075,153.16626 442.18075,151.50826 442.388,153.37352 441.55899,152.54451 441.52699,152.51251 441.55899,149.16873 441.55899,148.814 441.55899,148.3995 441.14449,147.5705 441.55899,147.5705 442.12415,147.5705 444.10413,152.60264 441.55899,150.0575"
       inkscape:connector-curvature="0"
       id="path2960"
       style="opacity:0.6;fill:none;stroke:#e20000;stroke-opacity:1" />
    <path
       d="M 489.43391,160.62729 C 490.26291,161.04179 491.17943,161.31468 491.92091,161.87079 492.08671,161.99514 491.82821,162.30718 491.92091,162.49255 493.08455,164.81982 492.00081,161.40878 493.16442,163.73605 493.25712,163.92142 493.01787,164.21125 493.16442,164.3578 493.31097,164.50435 493.63962,164.21125 493.78617,164.3578 493.93272,164.50435 493.69347,164.79418 493.78617,164.97955 494.28357,165.97436 495.77578,166.47176 496.27318,167.46656 496.36588,167.65193 496.18048,167.90294 496.27318,168.08831 496.53533,168.61262 497.25453,168.80751 497.51668,169.33182 497.60938,169.51719 497.42398,169.7682 497.51668,169.95357 497.64776,170.21572 498.00736,170.31317 498.13844,170.57532 498.32381,170.94606 497.95306,171.44809 498.13844,171.81883 498.50057,172.54309 499.01981,172.95982 499.38194,173.68408 499.56731,174.05482 499.19657,174.55685 499.38194,174.92759 499.51302,175.18974 499.87261,175.28719 500.00369,175.54934 500.25239,176.04674 499.75499,176.91719 500.00369,177.4146 500.13477,177.67675 500.49437,177.77419 500.62544,178.03635 500.95719,178.69985 500.29369,178.61635 500.62544,179.27985 500.75652,179.54201 501.11612,179.63945 501.2472,179.9016 501.43257,180.27235 501.06183,180.77437 501.2472,181.14511 501.37827,181.40726 501.73787,181.50471 501.86895,181.76686 502.05432,182.1376 501.68358,182.63962 501.86895,183.01036 502.00002,183.27252 502.35962,183.36996 502.4907,183.63212 502.7394,184.12952 502.242,184.99997 502.4907,185.49737 504.47423,186.32844 502.5617,188.12646 503.11245,189.22789 503.24353,189.49004 503.60313,189.58748 503.7342,189.84964 504.12823,190.63768 503.7342,192.67974 503.7342,193.58015 503.7342,193.99465 503.44111,194.53056 503.7342,194.82365 503.88075,194.9702 504.20941,194.67711 504.35596,194.82365 504.59821,195.06591 504.35596,196.93124 504.35596,197.31066 504.35596,202.28468 504.35596,207.2587 504.35596,212.23271 504.35596,213.38966 504.76714,217.62786 504.35596,218.45023 504.22488,218.71239 503.86528,218.80983 503.7342,219.07199 503.3197,219.90099 504.14871,221.35174 503.7342,222.18075 503.60313,222.4429 503.24353,222.54035 503.11245,222.8025 502.92708,223.17324 503.40555,223.75291 503.11245,224.046 502.9659,224.19255 502.63725,223.89945 502.4907,224.046 502.1976,224.3391 502.67607,224.91877 502.4907,225.28951 502.35962,225.55166 502.00002,225.64911 501.86895,225.91126 501.68358,226.282 502.16204,226.86167 501.86895,227.15476 501.7224,227.30131 501.39374,227.00822 501.2472,227.15476 500.9541,227.44786 501.54029,228.10517 501.2472,228.39827 501.10065,228.54482 500.77199,228.25172 500.62544,228.39827 500.33235,228.69136 500.81081,229.27103 500.62544,229.64177 500.49437,229.90393 500.13477,230.00137 500.00369,230.26352 499.91099,230.44889 500.09639,230.69991 500.00369,230.88528 497.9416,232.94737 500.29679,230.29908 499.38194,232.12878 499.25086,232.39093 498.89126,232.48838 498.76019,232.75053 498.66749,232.9359 498.90674,233.22574 498.76019,233.37228 498.61364,233.51883 498.28498,233.22574 498.13844,233.37228 497.99189,233.51883 498.23114,233.80867 498.13844,233.99404 497.76538,234.74014 496.64623,235.11319 496.27318,235.85929 496.18048,236.04466 496.41973,236.3345 496.27318,236.48105 496.12663,236.62759 495.79798,236.3345 495.65143,236.48105 495.50488,236.62759 495.79798,236.95625 495.65143,237.1028 495.35833,237.39589 494.70102,236.8097 494.40792,237.1028 494.26137,237.24935 494.55447,237.578 494.40792,237.72455 494.26137,237.8711 493.99342,237.72455 493.78617,237.72455 493.78617,237.9318 493.93272,238.19975 493.78617,238.3463 493.63962,238.49285 493.31097,238.19975 493.16442,238.3463 493.01787,238.49285 493.31097,238.82151 493.16442,238.96805 492.87132,239.26115 492.21401,238.67496 491.92091,238.96805 491.77437,239.1146 492.06746,239.44326 491.92091,239.58981 491.77437,239.73635 491.44571,239.44326 491.29916,239.58981 491.15261,239.73635 491.44571,240.06501 491.29916,240.21156 491.15261,240.35811 490.86278,240.11886 490.67741,240.21156 490.41526,240.34263 490.31781,240.70223 490.05566,240.83331 489.87029,240.92601 489.58045,240.68676 489.43391,240.83331 489.28736,240.97986 489.58045,241.30851 489.43391,241.45506 489.12303,241.76594 487.87953,241.14419 487.56865,241.45506 487.4221,241.60161 487.7152,241.93027 487.56865,242.07681 487.4221,242.22336 487.15415,242.07681 486.9469,242.07681 486.73965,242.07681 486.47169,242.22336 486.32515,242.07681 486.1786,241.93027 486.5324,241.45506 486.32515,241.45506 486.11789,241.45506 486.47169,241.93027 486.32515,242.07681 486.28185,242.12011 481.82754,242.07681 481.35113,242.07681 480.93663,242.07681 480.40072,242.36991 480.10762,242.07681 479.96108,241.93027 480.25417,241.60161 480.10762,241.45506 479.81453,241.16197 479.15722,241.74816 478.86412,241.45506 478.71757,241.30851 479.01067,240.97986 478.86412,240.83331 478.57102,240.54021 477.91371,241.12641 477.62062,240.83331 477.47407,240.68676 477.76716,240.35811 477.62062,240.21156 477.47407,240.06501 477.18423,240.30426 476.99886,240.21156 474.41128,238.91777 477.66354,240.25446 476.37711,238.96805 476.23056,238.82151 475.90191,239.1146 475.75536,238.96805 475.60881,238.82151 475.90191,238.49285 475.75536,238.3463 475.60881,238.19975 475.28016,238.49285 475.13361,238.3463 474.84051,238.0532 475.4267,237.39589 475.13361,237.1028 474.98706,236.95625 474.6584,237.24935 474.51186,237.1028 474.21876,236.8097 474.80495,236.15239 474.51186,235.85929 474.36531,235.71274 474.03665,236.00584 473.8901,235.85929 473.8151,235.78429 473.8901,229.12094 473.8901,228.39827 473.8901,226.94015 473.74356,228.69136 474.51186,227.15476 474.69955,226.77937 474.22444,225.57692 474.51186,225.28951 474.6584,225.14296 474.98706,225.43606 475.13361,225.28951 475.4267,224.99641 474.84051,224.3391 475.13361,224.046 475.28016,223.89945 475.60881,224.19255 475.75536,224.046 475.90191,223.89945 475.96261,223.42425 475.75536,223.42425 475.54811,223.42425 475.90191,223.89945 475.75536,224.046 475.60881,224.19255 475.28016,223.89945 475.13361,224.046 474.67618,224.50343 475.92705,225.4612 474.51186,224.046"
       inkscape:connector-curvature="0"
       id="path2962"
       style="opacity:0.6;fill:none;stroke:#e20000;stroke-opacity:1" />
    <path
       d="M 395.54934,209.7457 C 396.37834,209.3312 398.45085,209.3312 398.03635,208.5022 397.62185,207.6732 394.62249,209.7457 395.54934,209.7457 396.66542,209.7457 397.56369,208.72108 398.6581,208.5022 398.86133,208.4616 398.51155,208.9774 398.6581,209.12395 398.9512,209.41705 399.53086,208.93858 399.9016,209.12395 400.16376,209.25503 400.2612,209.61463 400.52336,209.7457 400.8941,209.93108 401.39612,209.56033 401.76686,209.7457 402.49112,210.10784 402.90786,210.62708 403.63212,210.98921 403.81749,211.08191 404.10732,210.84266 404.25387,210.98921 404.40042,211.13576 404.10732,211.46441 404.25387,211.61096 404.40042,211.75751 404.69025,211.51826 404.87562,211.61096 405.13777,211.74204 405.23522,212.10164 405.49737,212.23271 405.68274,212.32541 405.97258,212.08616 406.11913,212.23271 406.26567,212.37926 405.97258,212.70792 406.11913,212.85447 406.26567,213.00101 406.59433,212.70792 406.74088,212.85447 406.88743,213.00101 406.59433,213.32967 406.74088,213.47622 406.88743,213.62277 407.21608,213.32967 407.36263,213.47622 407.50918,213.62277 407.21608,213.95142 407.36263,214.09797 407.50918,214.24452 407.83783,213.95142 407.98438,214.09797 408.13093,214.24452 407.83783,214.57317 407.98438,214.71972 408.13093,214.86627 408.45959,214.57317 408.60613,214.71972 408.75268,214.86627 408.45959,215.19493 408.60613,215.34147 410.26414,215.34147 408.39888,215.13422 409.22789,215.96323 409.37443,216.10977 409.70309,215.81668 409.84964,215.96323 409.99619,216.10977 409.70309,216.43843 409.84964,216.58498 409.99619,216.73153 410.32484,216.43843 410.47139,216.58498 410.76449,216.87807 410.17829,217.53539 410.47139,217.82848 410.61794,217.97503 410.94659,217.68193 411.09314,217.82848 411.23969,217.97503 410.94659,218.30369 411.09314,218.45023 411.23969,218.59678 411.56835,218.30369 411.71489,218.45023 412.00799,218.74333 411.4218,219.40064 411.71489,219.69374 411.86144,219.84029 412.1901,219.54719 412.33665,219.69374 412.64752,220.00461 412.02577,221.24812 412.33665,221.55899 412.48319,221.70554 412.81185,221.41245 412.9584,221.55899 413.0251,221.62569 412.9584,227.73747 412.9584,228.39827 412.9584,228.87468 413.0017,233.32898 412.9584,233.37228 412.81185,233.51883 412.48319,233.22574 412.33665,233.37228 412.04355,233.66538 412.62974,234.32269 412.33665,234.61579 412.1901,234.76234 411.86144,234.46924 411.71489,234.61579 411.71489,236.27379 411.92214,234.40854 411.09314,235.23754 410.94659,235.38409 411.23969,235.71274 411.09314,235.85929 410.94659,236.00584 410.61794,235.71274 410.47139,235.85929 410.32484,236.00584 410.61794,236.3345 410.47139,236.48105 410.25738,236.69505 406.33313,236.69505 406.11913,236.48105 405.97258,236.3345 406.26567,236.00584 406.11913,235.85929 405.80825,235.54842 404.56475,236.17017 404.25387,235.85929 404.10732,235.71274 404.40042,235.38409 404.25387,235.23754 403.96077,234.94444 403.30346,235.53064 403.01036,235.23754 402.86382,235.09099 403.15691,234.76234 403.01036,234.61579 402.71727,234.32269 402.05996,234.90889 401.76686,234.61579 401.62031,234.46924 401.91341,234.14058 401.76686,233.99404 401.62031,233.84749 401.29166,234.14058 401.14511,233.99404 400.99856,233.84749 401.29166,233.51883 401.14511,233.37228 400.99856,233.22574 400.6699,233.51883 400.52336,233.37228 400.37681,233.22574 400.6699,232.89708 400.52336,232.75053 400.37681,232.60398 400.08698,232.84323 399.9016,232.75053 399.63945,232.61946 399.54201,232.25986 399.27985,232.12878 399.09448,232.03608 398.80465,232.27533 398.6581,232.12878 398.51155,231.98223 398.7508,231.6924 398.6581,231.50703 398.39595,230.98272 397.67675,230.78783 397.4146,230.26352 397.3219,230.07815 397.5073,229.82714 397.4146,229.64177 396.1208,227.05419 397.4575,230.30645 396.17109,229.02002 395.878,228.72692 396.35646,228.14726 396.17109,227.77652 395.90894,227.25221 395.18974,227.05732 394.92759,226.53301 394.74222,226.16227 395.22068,225.5826 394.92759,225.28951 394.78104,225.14296 394.45238,225.43606 394.30584,225.28951 393.99496,224.97863 394.61671,223.73513 394.30584,223.42425 394.15929,223.2777 393.83063,223.5708 393.68408,223.42425 393.37321,223.11337 393.99496,221.86987 393.68408,221.55899 393.53754,221.41245 393.20888,221.70554 393.06233,221.55899 392.89775,221.39441 393.06233,219.94975 393.06233,219.69374 393.06233,218.03573 393.26958,219.90099 392.44058,219.07199 392.39728,219.02869 392.44058,214.57438 392.44058,214.09797 392.44058,213.68347 392.14748,213.14756 392.44058,212.85447 392.95528,212.33977 402.11562,216.31198 395.54934,209.7457 394.61097,208.80734 391.61158,211.19646 392.44058,212.23271 393.26958,213.26897 395.54934,211.07276 395.54934,209.7457 395.54934,208.62963 393.47683,210.57471 392.44058,210.98921"
       inkscape:connector-curvature="0"
       id="path2964"
       style="opacity:0.6;fill:none;stroke:#e20000;stroke-opacity:1" />
    <path
       d="M 379.38379,174.92759 C 380.08968,175.01389 382.65556,173.76559 383.73605,174.30584 383.9982,174.43691 384.09565,174.79651 384.3578,174.92759 384.72854,175.11296 385.23056,174.74222 385.60131,174.92759 385.86346,175.05866 385.9609,175.41826 386.22306,175.54934 386.5938,175.73471 387.17347,175.25624 387.46656,175.54934 387.61311,175.69589 387.32001,176.02454 387.46656,176.17109 387.61311,176.31764 387.94177,176.02454 388.08831,176.17109 388.23486,176.31764 387.94177,176.6463 388.08831,176.79284 388.23486,176.93939 388.56352,176.6463 388.71007,176.79284 388.85662,176.93939 388.56352,177.26805 388.71007,177.4146 388.85662,177.56114 389.18527,177.26805 389.33182,177.4146 389.47837,177.56114 389.18527,177.8898 389.33182,178.03635 389.62492,178.32944 390.28223,177.74325 390.57532,178.03635 390.72187,178.1829 390.42877,178.51155 390.57532,178.6581 390.72187,178.80465 391.0117,178.5654 391.19708,178.6581 391.92134,179.02023 392.33807,179.53947 393.06233,179.9016 393.43307,180.08698 394.01274,179.60851 394.30584,179.9016 394.45238,180.04815 394.15929,180.37681 394.30584,180.52336 394.80209,181.01961 396.76229,180.1972 397.4146,180.52336 397.67675,180.65443 397.77419,181.01403 398.03635,181.14511 398.82439,181.53913 400.86645,181.14511 401.76686,181.14511 402.02288,181.14511 403.46754,180.98053 403.63212,181.14511 403.77867,181.29166 403.48557,181.62031 403.63212,181.76686 404.04662,182.18136 405.70462,181.35236 406.11913,181.76686 406.26567,181.91341 405.97258,182.24206 406.11913,182.38861 406.18583,182.45531 412.2976,182.38861 412.9584,182.38861 413.21441,182.38861 414.65907,182.55319 414.82365,182.38861 414.9702,182.24206 414.67711,181.91341 414.82365,181.76686 415.0932,181.49731 418.03028,182.0288 418.55417,181.76686 418.81632,181.63578 418.91377,181.27619 419.17592,181.14511 420.00492,180.73061 421.45568,181.55961 422.28468,181.14511 422.54683,181.01403 422.64428,180.65443 422.90643,180.52336 423.40383,180.27466 424.27429,180.77206 424.77169,180.52336 425.03384,180.39228 425.13129,180.03268 425.39344,179.9016 425.9111,179.64277 427.48606,180.29599 427.88045,179.9016 428.027,179.75506 427.7339,179.4264 427.88045,179.27985 428.17355,178.98676 428.83086,179.57295 429.12395,179.27985 429.2705,179.1333 428.9774,178.80465 429.12395,178.6581 429.41137,178.37069 430.61381,178.8458 430.98921,178.6581 431.25136,178.52702 431.34881,178.16742 431.61096,178.03635 431.9817,177.85098 432.56137,178.32944 432.85447,178.03635 433.00101,177.8898 432.70792,177.56114 432.85447,177.4146 433.14756,177.1215 433.80487,177.70769 434.09797,177.4146 434.24452,177.26805 433.95142,176.93939 434.09797,176.79284 434.39107,176.49975 434.97073,176.97821 435.34147,176.79284 435.60363,176.66177 435.70107,176.30217 435.96323,176.17109 436.1486,176.07839 436.39961,176.26379 436.58498,176.17109 436.84713,176.04002 436.94458,175.68042 437.20673,175.54934 437.3921,175.45664 437.64311,175.64204 437.82848,175.54934 438.09064,175.41826 438.18808,175.05866 438.45023,174.92759 438.6356,174.83489 438.92544,175.07414 439.07199,174.92759 439.21853,174.78104 438.92544,174.45238 439.07199,174.30584 440.72999,174.30584 438.86474,174.51309 439.69374,173.68408 439.84029,173.53754 440.16894,173.83063 440.31549,173.68408 440.46204,173.53754 440.16894,173.20888 440.31549,173.06233 440.46204,172.91578 440.79069,173.20888 440.93724,173.06233 441.08379,172.91578 440.79069,172.58713 440.93724,172.44058 441.08379,172.29403 441.41245,172.58713 441.55899,172.44058 441.70554,172.29403 441.41245,171.96538 441.55899,171.81883 441.70554,171.67228 442.0342,171.96538 442.18075,171.81883 442.3273,171.67228 442.0342,171.34362 442.18075,171.19708 442.3273,171.05053 442.65595,171.34362 442.8025,171.19708 442.94905,171.05053 442.65595,170.72187 442.8025,170.57532 442.94905,170.42877 443.2777,170.72187 443.42425,170.57532 443.5708,170.42877 443.2777,170.10012 443.42425,169.95357 443.5708,169.80702 443.89945,170.10012 444.046,169.95357 444.3391,169.66047 443.75291,169.00316 444.046,168.71007 444.19255,168.56352 444.52121,168.85662 444.66776,168.71007 444.96085,168.41697 444.37466,167.75966 444.66776,167.46656 444.8143,167.32001 445.14296,167.61311 445.28951,167.46656 445.5826,167.17347 444.99641,166.51616 445.28951,166.22306 445.43606,166.07651 445.76471,166.36961 445.91126,166.22306 445.94326,166.19106 445.91126,162.84728 445.91126,162.49255 445.91126,162.23653 446.07584,160.79187 445.91126,160.62729 445.76471,160.48074 445.43606,160.77384 445.28951,160.62729 445.14296,160.48074 445.38221,160.19091 445.28951,160.00554 445.09768,159.62187 442.56441,157.08861 442.18075,156.89678 441.99538,156.80408 441.70554,157.04333 441.55899,156.89678 441.41245,156.75023 441.70554,156.42157 441.55899,156.27502 441.41245,156.12848 441.12261,156.36772 440.93724,156.27502 440.67509,156.14395 440.57764,155.78435 440.31549,155.65327 439.94475,155.4679 439.44273,155.83864 439.07199,155.65327 438.80983,155.5222 438.71239,155.1626 438.45023,155.03152 438.26486,154.93882 438.01385,155.12422 437.82848,155.03152 437.10422,154.66939 436.68749,154.15015 435.96323,153.78802 435.46582,153.53932 434.59537,154.03672 434.09797,153.78802 433.83582,153.65694 433.73837,153.29734 433.47622,153.16626 433.10548,152.98089 432.60345,153.35164 432.23271,153.16626 431.97056,153.03519 431.87311,152.67559 431.61096,152.54451 431.24022,152.35914 430.7382,152.72988 430.36746,152.54451 430.1053,152.41344 430.00786,152.05384 429.7457,151.92276 429.0934,151.59661 427.1332,152.41902 426.63694,151.92276 426.4904,151.77621 426.78349,151.44756 426.63694,151.30101 426.22244,150.88651 424.56444,151.71551 424.14994,151.30101 424.00339,151.15446 424.29648,150.8258 424.14994,150.67926 423.23803,149.76735 423.59036,151.86058 423.52818,151.92276 423.23509,152.21586 422.69918,151.92276 422.28468,151.92276"
       inkscape:connector-curvature="0"
       id="path2966"
       style="opacity:0.6;fill:none;stroke:#e20000;stroke-opacity:1" />
    <path
       d="M 383.73605,176.17109 C 384.56505,176.17109 386.22306,177.00009 386.22306,176.17109 386.22306,175.34209 383.14986,175.5849 383.73605,176.17109 385.67543,178.11047 387.66779,175.96083 389.33182,176.79284 389.59397,176.92392 389.69142,177.28352 389.95357,177.4146 390.13894,177.5073 390.42877,177.26805 390.57532,177.4146 390.72187,177.56114 390.42877,177.8898 390.57532,178.03635 390.86842,178.32944 391.44809,177.85098 391.81883,178.03635 392.08098,178.16742 392.17843,178.52702 392.44058,178.6581 392.62595,178.7508 392.87696,178.5654 393.06233,178.6581 393.58664,178.92025 393.78153,179.63945 394.30584,179.9016 394.67658,180.08698 395.25624,179.60851 395.54934,179.9016 395.69589,180.04815 395.40279,180.37681 395.54934,180.52336 395.69589,180.6699 396.02454,180.37681 396.17109,180.52336 396.31764,180.6699 396.02454,180.99856 396.17109,181.14511 396.31764,181.29166 396.60747,181.05241 396.79284,181.14511 397.055,181.27619 397.15244,181.63578 397.4146,181.76686 397.59997,181.85956 397.8898,181.62031 398.03635,181.76686 398.1829,181.91341 397.8898,182.24206 398.03635,182.38861 398.1829,182.53516 398.51155,182.24206 398.6581,182.38861 398.80465,182.53516 398.51155,182.86382 398.6581,183.01036 398.80465,183.15691 399.1333,182.86382 399.27985,183.01036 399.4264,183.15691 399.18715,183.44675 399.27985,183.63212 399.41093,183.89427 399.77053,183.99172 399.9016,184.25387 399.9943,184.43924 399.75506,184.72907 399.9016,184.87562 400.04815,185.02217 400.33799,184.78292 400.52336,184.87562 403.11094,186.16941 399.85868,184.83272 401.14511,186.11913 401.29166,186.26567 401.62031,185.97258 401.76686,186.11913 401.91341,186.26567 401.62031,186.59433 401.76686,186.74088 401.91341,186.88743 402.24206,186.59433 402.38861,186.74088 402.68171,187.03397 402.09552,187.69128 402.38861,187.98438 402.53516,188.13093 402.86382,187.83783 403.01036,187.98438 403.15691,188.13093 402.91766,188.42076 403.01036,188.60613 403.14144,188.86829 403.50104,188.96573 403.63212,189.22789 403.72482,189.41326 403.48557,189.70309 403.63212,189.84964 403.77867,189.99619 404.10732,189.70309 404.25387,189.84964 404.73991,190.33568 403.71305,190.93127 403.63212,191.09314 403.44442,191.46854 403.91953,192.67098 403.63212,192.9584 403.48557,193.10495 403.15691,192.81185 403.01036,192.9584 402.86382,193.10495 403.10306,193.39478 403.01036,193.58015 401.71657,196.16773 403.05326,192.91548 401.76686,194.2019 401.62031,194.34845 401.91341,194.67711 401.76686,194.82365 401.47376,195.11675 400.8941,194.63828 400.52336,194.82365 400.2612,194.95473 400.16376,195.31433 399.9016,195.44541 399.24783,195.77229 397.53965,195.44541 396.79284,195.44541 396.53683,195.44541 395.09217,195.60999 394.92759,195.44541 394.78104,195.29886 395.07414,194.9702 394.92759,194.82365 394.64017,194.53624 393.43773,195.01135 393.06233,194.82365 392.53802,194.5615 392.34313,193.8423 391.81883,193.58015 391.44809,193.39478 390.86842,193.87325 390.57532,193.58015 390.42877,193.4336 390.72187,193.10495 390.57532,192.9584 390.42877,192.81185 390.10012,193.10495 389.95357,192.9584 389.80702,192.81185 390.10012,192.48319 389.95357,192.33665 389.80702,192.1901 389.47837,192.48319 389.33182,192.33665 389.18527,192.1901 389.47837,191.86144 389.33182,191.71489 389.18527,191.56835 388.85662,191.86144 388.71007,191.71489 388.56352,191.56835 388.85662,191.23969 388.71007,191.09314 388.56352,190.94659 388.27369,191.18584 388.08831,191.09314 387.34221,190.72009 386.96916,189.60094 386.22306,189.22789 386.03769,189.13519 385.74785,189.37443 385.60131,189.22789 385.45476,189.08134 385.74785,188.75268 385.60131,188.60613 385.45476,188.45959 385.1261,188.75268 384.97955,188.60613 384.83301,188.45959 385.1261,188.13093 384.97955,187.98438 384.83301,187.83783 384.50435,188.13093 384.3578,187.98438 384.21125,187.83783 384.50435,187.50918 384.3578,187.36263 384.21125,187.21608 383.8826,187.50918 383.73605,187.36263 383.5895,187.21608 383.8826,186.88743 383.73605,186.74088 383.5895,186.59433 383.26085,186.88743 383.1143,186.74088 382.96775,186.59433 383.207,186.3045 383.1143,186.11913 382.98322,185.85697 382.62362,185.75953 382.49255,185.49737 382.39985,185.312 382.58525,185.06099 382.49255,184.87562 382.36147,184.61347 382.00187,184.51602 381.87079,184.25387 381.77809,184.0685 382.01734,183.77867 381.87079,183.63212 381.04179,182.80311 381.24904,184.66837 381.24904,183.01036 381.24904,181.21149 381.22404,182.36364 380.62729,181.76686 380.59029,181.72986 380.62729,177.83014 380.62729,177.4146 380.62729,176.19369 380.58609,174.91934 380.62729,174.92759 381.7217,175.14647 383.32155,177.20735 383.73605,176.17109 384.15055,175.13484 381.04179,173.89133 380.62729,174.92759 380.21279,175.96384 382.6998,175.75659 383.73605,176.17109 z"
       inkscape:connector-curvature="0"
       id="path2968"
       style="opacity:0.6;fill:none;stroke:#e20000;stroke-opacity:1" />
    <path
       d="M 497.51668,234.61579 C 495.83972,235.33315 497.50168,238.99799 496.89493,240.21156 496.76385,240.47371 496.40426,240.57116 496.27318,240.83331 495.77578,241.82811 496.77058,243.56902 496.27318,244.56382 496.1421,244.82598 495.7825,244.92342 495.65143,245.18557 495.31983,245.84878 495.98303,247.00938 495.65143,247.67258 495.52035,247.93474 495.16075,248.03218 495.02967,248.29433 494.78097,248.79174 495.27838,249.66219 495.02967,250.15959 494.8986,250.42174 494.539,250.51919 494.40792,250.78134 494.22255,251.15208 494.70102,251.73175 494.40792,252.02485 494.26137,252.1714 493.93272,251.8783 493.78617,252.02485 493.49876,252.31226 493.97387,253.51471 493.78617,253.8901 493.65509,254.15226 493.2955,254.2497 493.16442,254.51186 492.97905,254.8826 493.45752,255.46226 493.16442,255.75536 493.01787,255.90191 492.68921,255.60881 492.54267,255.75536 492.24957,256.04846 492.72804,256.62812 492.54267,256.99886 492.41159,257.26102 492.05199,257.35846 491.92091,257.62062 491.67221,258.11802 492.16962,258.98847 491.92091,259.48587 491.78984,259.74803 491.43024,259.84547 491.29916,260.10762 491.11379,260.47837 491.59226,261.05803 491.29916,261.35113 490.47016,262.18013 490.67741,260.31488 490.67741,261.97288 490.67741,263.77175 490.65241,262.61961 490.05566,263.21639 489.76256,263.50948 490.24103,264.08915 490.05566,264.45989 489.92458,264.72204 489.56498,264.81949 489.43391,265.08164 489.24854,265.45238 489.727,266.03205 489.43391,266.32515 489.28736,266.47169 488.9587,266.1786 488.81215,266.32515 488.51906,266.61824 489.10525,267.27555 488.81215,267.56865 488.66561,267.7152 488.33695,267.4221 488.1904,267.56865 488.04385,267.7152 488.2831,268.00503 488.1904,268.1904 488.05932,268.45256 487.69973,268.55 487.56865,268.81215 487.38328,269.1829 487.86175,269.76256 487.56865,270.05566 487.4221,270.20221 487.09345,269.90911 486.9469,270.05566 486.6538,270.34875 487.13227,270.92842 486.9469,271.29916 486.68474,271.82347 485.96555,272.01836 485.70339,272.54267 485.61069,272.72804 485.84994,273.01787 485.70339,273.16442 485.55685,273.31097 485.22819,273.01787 485.08164,273.16442 484.66606,273.58 485.49723,273.99234 485.08164,274.40792 484.93509,274.55447 484.60644,274.26137 484.45989,274.40792 484.31334,274.55447 484.55259,274.8443 484.45989,275.02967 482.3978,277.09177 484.75299,274.44348 483.83814,276.27318 483.57598,276.79749 482.85679,276.99238 482.59463,277.51668 482.50193,277.70205 482.74118,277.99189 482.59463,278.13844 482.44808,278.28498 482.11943,277.99189 481.97288,278.13844 481.82633,278.28498 482.06558,278.57482 481.97288,278.76019 481.71073,279.28449 480.99153,279.47938 480.72938,280.00369 480.63668,280.18906 480.82208,280.44007 480.72938,280.62544 480.5983,280.8876 480.2387,280.98504 480.10762,281.2472 480.01492,281.43257 480.25417,281.7224 480.10762,281.86895 479.96108,282.0155 479.69312,281.86895 479.48587,281.86895 479.48587,282.0762 479.63242,282.34415 479.48587,282.4907 479.33932,282.63725 479.01067,282.34415 478.86412,282.4907 478.71757,282.63725 478.95682,282.92708 478.86412,283.11245 478.60197,283.63676 477.88277,283.83165 477.62062,284.35596 477.52792,284.54133 477.76716,284.83116 477.62062,284.97771 477.47407,285.12426 477.14541,284.83116 476.99886,284.97771 476.85232,285.12426 477.09156,285.41409 476.99886,285.59946 476.73671,286.12377 476.01751,286.31866 475.75536,286.84296 475.66266,287.02834 475.90191,287.31817 475.75536,287.46472 475.60881,287.61127 475.28016,287.31817 475.13361,287.46472 474.98706,287.61127 475.28016,287.93992 475.13361,288.08647 474.98706,288.23302 474.6584,287.93992 474.51186,288.08647 474.36531,288.23302 474.60456,288.52285 474.51186,288.70822 474.14972,289.43248 473.63048,289.84922 473.26835,290.57348 473.17565,290.75885 473.4149,291.04868 473.26835,291.19523 473.1218,291.34178 472.79315,291.04868 472.6466,291.19523 472.50005,291.34178 472.7393,291.63161 472.6466,291.81698 470.58451,293.87907 472.9397,291.23079 472.02485,293.06049 471.76269,293.58479 471.0435,293.77968 470.78134,294.30399 470.68864,294.48936 470.78134,294.71849 470.78134,294.92574 470.57409,295.13299 470.29067,295.28534 470.15959,295.54749 470.06689,295.73286 470.30614,296.0227 470.15959,296.16925 470.01304,296.31579 469.68439,296.0227 469.53784,296.16925 469.39129,296.31579 469.63054,296.60563 469.53784,296.791 469.40676,297.05315 469.04716,297.1506 468.91609,297.41275 468.82339,297.59812 469.06264,297.88795 468.91609,298.0345 468.76954,298.18105 468.44088,297.88795 468.29433,298.0345 468.00124,298.3276 468.58743,298.98491 468.29433,299.27801 468.14779,299.42455 467.81913,299.13146 467.67258,299.27801 467.37949,299.5711 467.67258,300.10701 467.67258,300.52151 467.67258,301.97963 467.81913,300.22841 467.05083,301.76501 466.80213,302.26242 467.29953,303.13287 467.05083,303.63027 466.91975,303.89242 466.56016,303.98987 466.42908,304.25202 466.18038,304.74942 466.67778,305.61988 466.42908,306.11728 466.298,306.37943 465.9384,306.47688 465.80733,306.73903 465.74903,306.85564 465.74903,311.59644 465.80733,311.71305 466.06948,312.23736 466.78868,312.43225 467.05083,312.95655 467.14353,313.14192 466.90428,313.43176 467.05083,313.5783 467.19738,313.72485 467.52603,313.43176 467.67258,313.5783 467.81913,313.72485 467.52603,314.05351 467.67258,314.20006 467.96568,314.49315 468.62299,313.90696 468.91609,314.20006 469.06264,314.34661 468.76954,314.67526 468.91609,314.82181 469.09743,315.00315 472.46526,315.00315 472.6466,314.82181 472.79315,314.67526 472.50005,314.34661 472.6466,314.20006 472.9397,313.90696 473.51936,314.38543 473.8901,314.20006 474.15226,314.06898 474.2497,313.70938 474.51186,313.5783 474.69723,313.4856 474.98706,313.72485 475.13361,313.5783 475.28016,313.43176 474.98706,313.1031 475.13361,312.95655 475.28016,312.81 475.60881,313.1031 475.75536,312.95655 475.90191,312.81 475.60881,312.48135 475.75536,312.3348 475.90191,312.18825 476.23056,312.48135 476.37711,312.3348 476.52366,312.18825 476.23056,311.8596 476.37711,311.71305 476.52366,311.5665 476.81349,311.80575 476.99886,311.71305 477.72313,311.35092 478.13986,310.83168 478.86412,310.46954 479.04949,310.37684 479.33932,310.61609 479.48587,310.46954 479.63242,310.323 479.33932,309.99434 479.48587,309.84779 479.63242,309.70124 479.96108,309.99434 480.10762,309.84779 480.25417,309.70124 480.01492,309.41141 480.10762,309.22604 480.36978,308.70173 481.08898,308.50684 481.35113,307.98254 481.44383,307.79717 481.20458,307.50733 481.35113,307.36078 481.49768,307.21424 481.82633,307.50733 481.97288,307.36078 482.11943,307.21424 481.82633,306.88558 481.97288,306.73903 482.11943,306.59248 482.44808,306.88558 482.59463,306.73903 482.74118,306.59248 482.50193,306.30265 482.59463,306.11728 482.72571,305.85513 483.08531,305.75768 483.21639,305.49553 483.30909,305.31016 483.06984,305.02032 483.21639,304.87378 483.36293,304.72723 483.69159,305.02032 483.83814,304.87378 483.98469,304.72723 483.69159,304.39857 483.83814,304.25202 483.98469,304.10547 484.31334,304.39857 484.45989,304.25202 484.60644,304.10547 484.36719,303.81564 484.45989,303.63027 484.59097,303.36812 484.95056,303.27067 485.08164,303.00852 485.17434,302.82315 484.98894,302.57214 485.08164,302.38677 485.3438,301.86246 486.06299,301.66757 486.32515,301.14326 486.41785,300.95789 486.1786,300.66806 486.32515,300.52151 486.47169,300.37496 486.80035,300.66806 486.9469,300.52151 487.09345,300.37496 486.9469,300.10701 486.9469,299.89976 487.15415,299.89976 487.4221,300.04631 487.56865,299.89976 487.7152,299.75321 487.47595,299.46338 487.56865,299.27801 489.63074,297.21591 487.27555,299.8642 488.1904,298.0345 488.45256,297.51019 489.24854,297.34711 489.43391,296.791 489.56498,296.39777 489.30283,295.94072 489.43391,295.54749 489.52361,295.27831 490.53074,293.97558 490.67741,293.68224 490.77011,293.49687 490.58471,293.24586 490.67741,293.06049 491.03954,292.33622 491.55878,291.91949 491.92091,291.19523 492.01361,291.00986 491.82821,290.75885 491.92091,290.57348 492.18307,290.04917 492.90226,289.85428 493.16442,289.32997 493.25712,289.1446 493.07172,288.89359 493.16442,288.70822 493.52655,287.98396 494.04579,287.56723 494.40792,286.84296 494.50062,286.65759 494.31522,286.40658 494.40792,286.22121 494.67008,285.69691 495.38927,285.50202 495.65143,284.97771 495.74413,284.79234 495.55873,284.54133 495.65143,284.35596 496.01356,283.63169 496.5328,283.21496 496.89493,282.4907 496.98763,282.30533 496.80223,282.05432 496.89493,281.86895 497.02601,281.60679 497.38561,281.50935 497.51668,281.2472 497.60938,281.06183 497.37013,280.77199 497.51668,280.62544 497.66323,280.4789 497.99189,280.77199 498.13844,280.62544 498.28498,280.4789 498.04574,280.18906 498.13844,280.00369 498.26951,279.74154 498.62911,279.64409 498.76019,279.38194 499.09265,278.717 498.42772,278.80337 498.76019,278.13844 498.89126,277.87628 499.25086,277.77884 499.38194,277.51668 499.47464,277.33131 499.23539,277.04148 499.38194,276.89493 499.52849,276.74838 499.85714,277.04148 500.00369,276.89493 500.31457,276.58406 499.69282,275.34055 500.00369,275.02967 500.15024,274.88313 500.4789,275.17622 500.62544,275.02967 500.77199,274.88313 500.53274,274.59329 500.62544,274.40792 500.98757,273.68366 501.50682,273.26693 501.86895,272.54267 502.05432,272.17193 501.57585,271.59226 501.86895,271.29916 502.0155,271.15261 502.34415,271.44571 502.4907,271.29916 502.90628,270.88358 502.07512,270.47124 502.4907,270.05566 502.63725,269.90911 502.9659,270.20221 503.11245,270.05566 503.40555,269.76256 502.92708,269.1829 503.11245,268.81215 503.24353,268.55 503.60313,268.45256 503.7342,268.1904 503.91957,267.81966 503.44111,267.23999 503.7342,266.9469 503.88075,266.80035 504.20941,267.09345 504.35596,266.9469 504.64905,266.6538 504.06286,265.99649 504.35596,265.70339 504.5025,265.55685 504.83116,265.84994 504.97771,265.70339 505.27081,265.4103 504.68461,264.75299 504.97771,264.45989 505.12426,264.31334 505.45291,264.60644 505.59946,264.45989 505.74601,264.31334 505.50676,264.02351 505.59946,263.83814 505.86161,263.31383 506.58081,263.11894 506.84296,262.59463 506.93566,262.40926 506.69642,262.11943 506.84296,261.97288 506.98951,261.82633 507.31817,262.11943 507.46472,261.97288 507.61127,261.82633 507.31817,261.49768 507.46472,261.35113 507.61127,261.20458 507.93992,261.49768 508.08647,261.35113 508.23302,261.20458 507.99377,260.91475 508.08647,260.72938 508.21755,260.46722 508.57714,260.36978 508.70822,260.10762 508.80092,259.92225 508.56167,259.63242 508.70822,259.48587 508.85477,259.33932 509.18342,259.63242 509.32997,259.48587 509.47652,259.33932 509.32997,259.07137 509.32997,258.86412 509.53722,258.86412 509.80518,259.01067 509.95173,258.86412 510.09827,258.71757 509.85903,258.42774 509.95173,258.24237 510.32478,257.49627 511.44393,257.12321 511.81698,256.37711 511.90968,256.19174 511.67043,255.90191 511.81698,255.75536 511.96353,255.60881 512.29219,255.90191 512.43873,255.75536 512.58528,255.60881 512.29219,255.28016 512.43873,255.13361 512.58528,254.98706 512.91394,255.28016 513.06049,255.13361 513.20703,254.98706 512.91394,254.6584 513.06049,254.51186 513.20703,254.36531 513.47499,254.51186 513.68224,254.51186 513.68224,254.30461 513.58954,254.07547 513.68224,253.8901 514.97603,251.30252 513.63934,254.55478 514.92574,253.26835 515.07229,253.1218 514.77919,252.79315 514.92574,252.6466 515.21884,252.3535 515.87615,252.9397 516.16925,252.6466 516.31579,252.50005 516.0227,252.1714 516.16925,252.02485 516.31579,251.8783 516.64445,252.1714 516.791,252.02485 516.93755,251.8783 516.64445,251.54964 516.791,251.4031 516.93755,251.25655 517.2662,251.54964 517.41275,251.4031 517.5593,251.25655 517.2662,250.92789 517.41275,250.78134 519.07076,250.78134 517.2055,250.98859 518.0345,250.15959 518.18105,250.01304 518.50971,250.30614 518.65625,250.15959 518.8028,250.01304 518.50971,249.68439 518.65625,249.53784 518.8028,249.39129 519.13146,249.68439 519.27801,249.53784 519.5711,249.24474 519.09264,248.66508 519.27801,248.29433 519.40908,248.03218 519.76868,247.93474 519.89976,247.67258 520.08746,247.29719 519.61234,246.09474 519.89976,245.80733 520.04631,245.66078 520.37496,245.95387 520.52151,245.80733 520.83239,245.49645 520.21063,244.25295 520.52151,243.94207 520.66806,243.79552 520.99671,244.08862 521.14326,243.94207 521.38552,243.69981 521.14326,241.83448 521.14326,241.45506 521.14326,240.02203 521.76501,241.81436 521.76501,239.58981 521.76501,238.6894 521.37099,236.64734 521.76501,235.85929 521.89609,235.59714 522.25569,235.49969 522.38677,235.23754 522.88417,234.24274 521.88937,232.50183 522.38677,231.50703 522.51784,231.24487 522.87744,231.14743 523.00852,230.88528 523.26735,230.36761 522.61413,228.79265 523.00852,228.39827 523.15507,228.25172 523.48372,228.54482 523.63027,228.39827 523.80443,228.22411 523.75745,225.54387 523.63027,225.28951 523.49919,225.02735 523.1396,224.92991 523.00852,224.66776 522.75982,224.17035 523.25722,223.2999 523.00852,222.8025 522.87744,222.54035 522.51784,222.4429 522.38677,222.18075 522.29407,221.99538 522.53332,221.70554 522.38677,221.55899 522.24022,221.41245 521.91156,221.70554 521.76501,221.55899 521.61847,221.41245 521.91156,221.08379 521.76501,220.93724 521.18142,220.35365 520.20373,221.40701 519.89976,221.55899 519.40236,221.8077 518.5319,221.31029 518.0345,221.55899 517.77235,221.69007 517.6749,222.04967 517.41275,222.18075 517.28521,222.24455 515.63518,222.26845 515.54749,222.18075 515.40095,222.0342 515.69404,221.70554 515.54749,221.55899 515.40095,221.41245 515.07229,221.70554 514.92574,221.55899 514.77919,221.41245 515.07229,221.08379 514.92574,220.93724 514.77919,220.79069 514.45054,221.08379 514.30399,220.93724 513.88949,220.52274 514.71849,218.86474 514.30399,218.45023 514.15744,218.30369 513.82879,218.59678 513.68224,218.45023 512.39581,217.16381 515.64807,218.50053 513.06049,217.20673 512.06568,216.70933 512.60453,217.49688 512.43873,217.82848 512.30766,218.09064 511.94806,218.18808 511.81698,218.45023 511.74488,218.59443 512.07557,219.95233 511.19523,219.07199 511.04868,218.92544 511.34178,218.59678 511.19523,218.45023 511.04868,218.30369 510.72003,218.59678 510.57348,218.45023 510.2626,218.13936 510.88435,216.89585 510.57348,216.58498 510.42693,216.43843 510.09827,216.73153 509.95173,216.58498 509.66431,216.29756 510.13942,215.09512 509.95173,214.71972 509.82065,214.45757 509.46105,214.36012 509.32997,214.09797 509.23727,213.9126 509.47652,213.62277 509.32997,213.47622 509.18342,213.32967 508.85477,213.62277 508.70822,213.47622 508.41512,213.18312 509.00132,212.52581 508.70822,212.23271 508.56167,212.08616 508.23302,212.37926 508.08647,212.23271 507.93992,212.08616 508.23302,211.75751 508.08647,211.61096 507.79337,211.31786 507.13606,211.90406 506.84296,211.61096 506.69642,211.46441 506.98951,211.13576 506.84296,210.98921 506.69642,210.84266 506.36776,211.13576 506.22121,210.98921 506.07466,210.84266 506.36776,210.51401 506.22121,210.36746 506.07466,210.22091 505.74601,210.51401 505.59946,210.36746 505.45291,210.22091 505.74601,209.89225 505.59946,209.7457 505.45291,209.59916 505.12426,209.89225 504.97771,209.7457 504.38093,209.14893 505.53308,209.12395 503.7342,209.12395"
       inkscape:connector-curvature="0"
       id="path2970"
       style="opacity:0.6;fill:none;stroke:#e20000;stroke-opacity:1" />
    <path
       d="M 518.0345,248.91609 C 518.86351,248.91609 520.52151,249.74509 520.52151,248.91609 520.52151,248.08708 517.44831,248.32989 518.0345,248.91609 518.15198,249.03356 521.64754,249.42036 521.76501,249.53784 521.91156,249.68439 521.61847,250.01304 521.76501,250.15959 521.91156,250.30614 522.24022,250.01304 522.38677,250.15959 522.53332,250.30614 522.38677,250.57409 522.38677,250.78134 522.59402,250.78134 522.86197,250.63479 523.00852,250.78134 523.15507,250.92789 522.86197,251.25655 523.00852,251.4031 523.15507,251.54964 523.48372,251.25655 523.63027,251.4031 523.77682,251.54964 523.48372,251.8783 523.63027,252.02485 523.77682,252.1714 524.10547,251.8783 524.25202,252.02485 524.39857,252.1714 524.10547,252.50005 524.25202,252.6466 524.39857,252.79315 524.72723,252.50005 524.87378,252.6466 525.02032,252.79315 524.72723,253.1218 524.87378,253.26835 525.02032,253.4149 525.34898,253.1218 525.49553,253.26835 525.64208,253.4149 525.34898,253.74356 525.49553,253.8901 525.64208,254.03665 525.93191,253.7974 526.11728,253.8901 526.64159,254.15226 527.09863,254.6093 527.36078,255.13361 527.45348,255.31898 527.21424,255.60881 527.36078,255.75536 528.64721,257.04179 527.31048,253.78953 528.60429,256.37711 528.69699,256.56248 528.45774,256.85232 528.60429,256.99886 528.75084,257.14541 529.07949,256.85232 529.22604,256.99886 529.37259,257.14541 529.13334,257.43525 529.22604,257.62062 529.35712,257.88277 529.71672,257.98021 529.84779,258.24237 529.94049,258.42774 529.75509,258.67875 529.84779,258.86412 530.10995,259.38843 530.82914,259.58332 531.0913,260.10762 531.184,260.293 530.94475,260.58283 531.0913,260.72938 531.23784,260.87593 531.52768,260.63668 531.71305,260.72938 532.23736,260.99153 532.6944,261.44857 532.95655,261.97288 533.04925,262.15825 532.86385,262.40926 532.95655,262.59463 533.21871,263.11894 533.9379,263.31383 534.20006,263.83814 534.29276,264.02351 534.05351,264.31334 534.20006,264.45989 535.48648,265.74632 534.14976,262.49406 535.44356,265.08164 535.53626,265.26701 535.29701,265.55685 535.44356,265.70339 535.59011,265.84994 535.91876,265.55685 536.06531,265.70339 536.21186,265.84994 535.97261,266.13977 536.06531,266.32515 536.32747,266.84945 537.04666,267.04434 537.30882,267.56865 537.49419,267.93939 537.01572,268.51906 537.30882,268.81215 537.45537,268.9587 537.78402,268.66561 537.93057,268.81215 538.22367,269.10525 537.7452,269.68492 537.93057,270.05566 538.06165,270.31781 538.42124,270.41526 538.55232,270.67741 538.64502,270.86278 538.40577,271.15261 538.55232,271.29916 538.69887,271.44571 539.02753,271.15261 539.17407,271.29916 539.32062,271.44571 539.08137,271.73554 539.17407,271.92091 539.5362,272.64518 540.05545,273.06191 540.41758,273.78617 540.51028,273.97154 540.32488,274.22255 540.41758,274.40792 540.67973,274.93223 541.39893,275.12712 541.66108,275.65143 541.75378,275.8368 541.56838,276.08781 541.66108,276.27318 541.79216,276.53533 542.15176,276.63278 542.28283,276.89493 543.04851,278.42628 540.47805,276.33365 542.90459,278.76019 543.05113,278.90674 543.37979,278.61364 543.52634,278.76019 543.67289,278.90674 543.43364,279.19657 543.52634,279.38194 543.88847,280.1062 544.40771,280.52293 544.76984,281.2472 545.60101,282.90953 543.93867,280.82836 544.76984,282.4907 545.13197,283.21496 545.65122,283.63169 546.01335,284.35596 546.26205,284.85336 545.76465,285.72381 546.01335,286.22121 546.14442,286.48337 546.50402,286.58081 546.6351,286.84296 546.89393,287.36063 546.24071,288.93559 546.6351,289.32997 547.4641,290.15898 547.25685,288.29372 547.25685,289.95173 547.25685,290.69853 546.92997,292.40672 547.25685,293.06049 547.38793,293.32264 547.74753,293.42008 547.8786,293.68224 548.20476,294.33454 547.38234,296.29474 547.8786,296.791 548.02515,296.93755 548.35381,296.64445 548.50035,296.791 548.79345,297.08409 548.50035,297.62 548.50035,298.0345 548.50035,298.95667 548.82778,302.35366 548.50035,303.00852 548.36928,303.27067 548.00968,303.36812 547.8786,303.63027 547.4641,304.45927 548.2931,305.91003 547.8786,306.73903 547.74753,307.00119 547.38793,307.09863 547.25685,307.36078 546.92525,308.02399 547.58845,309.18459 547.25685,309.84779 547.12577,310.10995 546.76618,310.20739 546.6351,310.46954 546.3864,310.96695 546.8838,311.8374 546.6351,312.3348 546.27297,313.05906 545.75373,313.47579 545.39159,314.20006 545.29889,314.38543 545.53814,314.67526 545.39159,314.82181 545.24505,314.96836 544.91639,314.67526 544.76984,314.82181 544.35426,315.23739 545.18543,315.64973 544.76984,316.06531 544.62329,316.21186 544.29464,315.91876 544.14809,316.06531 543.85499,316.35841 544.44119,317.01572 544.14809,317.30882 544.00154,317.45537 543.67289,317.16227 543.52634,317.30882 543.23324,317.60191 543.81943,318.25922 543.52634,318.55232 543.37979,318.69887 543.05113,318.40577 542.90459,318.55232 542.61149,318.84542 543.19768,319.50273 542.90459,319.79583 542.75804,319.94237 542.42938,319.64928 542.28283,319.79583 542.13629,319.94237 542.37553,320.23221 542.28283,320.41758 542.15176,320.67973 541.79216,320.77718 541.66108,321.03933 541.47571,321.41007 541.84645,321.91209 541.66108,322.28283 541.53001,322.54499 541.17041,322.64243 541.03933,322.90459 540.79063,323.40199 541.28803,324.27244 541.03933,324.76984 540.6772,325.4941 540.15796,325.91084 539.79583,326.6351 539.70313,326.82047 539.88853,327.07148 539.79583,327.25685 539.66475,327.519 539.30515,327.61645 539.17407,327.8786 539.08137,328.06397 539.26677,328.31498 539.17407,328.50035 538.91192,329.02466 538.19272,329.21955 537.93057,329.74386 537.7452,330.1146 538.22367,330.69427 537.93057,330.98736 537.78402,331.13391 537.45537,330.84081 537.30882,330.98736 537.01572,331.28046 537.60191,331.93777 537.30882,332.23087 537.16227,332.37742 536.83361,332.08432 536.68707,332.23087 536.54052,332.37742 536.77977,332.66725 536.68707,332.85262 536.32493,333.57688 535.80569,333.99361 535.44356,334.71788 535.35086,334.90325 535.59011,335.19308 535.44356,335.33963 535.29701,335.48618 534.96836,335.19308 534.82181,335.33963 534.67526,335.48618 534.96836,335.81483 534.82181,335.96138 534.67526,336.10793 534.34661,335.81483 534.20006,335.96138 534.05351,336.10793 534.34661,336.43658 534.20006,336.58313 534.05351,336.72968 533.72485,336.43658 533.5783,336.58313 533.43176,336.72968 533.72485,337.05834 533.5783,337.20488 533.43176,337.35143 533.1031,337.05834 532.95655,337.20488 532.81,337.35143 533.1031,337.68009 532.95655,337.82664 532.81,337.97318 532.48135,337.68009 532.3348,337.82664 532.18825,337.97318 532.48135,338.30184 532.3348,338.44839 532.18825,338.59494 531.8596,338.30184 531.71305,338.44839 531.5665,338.59494 531.8596,338.92359 531.71305,339.07014 531.5665,339.21669 531.27667,338.97744 531.0913,339.07014 530.56699,339.33229 530.3721,340.05149 529.84779,340.31364 529.66242,340.40634 529.37259,340.1671 529.22604,340.31364 529.07949,340.46019 529.37259,340.78885 529.22604,340.9354 529.07949,341.08195 528.78966,340.8427 528.60429,340.9354 528.34213,341.06647 528.24469,341.42607 527.98254,341.55715 527.79717,341.64985 527.50733,341.4106 527.36078,341.55715 527.21424,341.7037 527.50733,342.03235 527.36078,342.1789 527.21424,342.32545 526.88558,342.03235 526.73903,342.1789 526.59248,342.32545 526.88558,342.6541 526.73903,342.80065 526.44593,343.09375 525.86627,342.61528 525.49553,342.80065 525.23337,342.93173 525.13593,343.29133 524.87378,343.42241 524.6884,343.51511 524.39857,343.27586 524.25202,343.42241 524.10547,343.56895 524.39857,343.89761 524.25202,344.04416 523.95893,344.33725 523.37926,343.85879 523.00852,344.04416 522.74637,344.17523 522.64892,344.53483 522.38677,344.66591 521.06036,345.32911 518.73915,344.00271 517.41275,344.66591 517.1506,344.79699 517.05315,345.15658 516.791,345.28766 516.53663,345.41484 513.85639,345.46182 513.68224,345.28766 513.53569,345.14111 513.82879,344.81246 513.68224,344.66591 513.61554,344.59921 507.50376,344.66591 506.84296,344.66591 506.25352,344.66591 504.87231,344.92409 504.35596,344.66591 504.0938,344.53483 503.99636,344.17523 503.7342,344.04416 503.071,343.71256 501.9104,344.37576 501.2472,344.04416 500.98504,343.91308 500.8876,343.55348 500.62544,343.42241 500.2547,343.23703 499.75268,343.60778 499.38194,343.42241 498.65768,343.06027 498.24095,342.54103 497.51668,342.1789 497.14594,341.99353 496.56628,342.472 496.27318,342.1789 496.12663,342.03235 496.41973,341.7037 496.27318,341.55715 495.87879,341.16276 494.30383,341.81598 493.78617,341.55715 493.06191,341.19502 492.64518,340.67578 491.92091,340.31364 491.42351,340.06494 490.55306,340.56235 490.05566,340.31364 489.3314,339.95151 488.91466,339.43227 488.1904,339.07014 488.00503,338.97744 487.75402,339.16284 487.56865,339.07014 487.3065,338.93906 487.20905,338.57947 486.9469,338.44839 486.57616,338.26302 486.07413,338.63376 485.70339,338.44839 485.44124,338.31731 485.3438,337.95771 485.08164,337.82664 484.7109,337.64127 484.13123,338.11973 483.83814,337.82664 483.69159,337.68009 483.98469,337.35143 483.83814,337.20488 483.54504,336.91179 482.96537,337.39025 482.59463,337.20488 482.33248,337.07381 482.23503,336.71421 481.97288,336.58313 481.60214,336.39776 481.02247,336.87623 480.72938,336.58313 480.1326,335.98636 481.28475,335.96138 479.48587,335.96138 478.02775,335.96138 479.77897,336.10793 478.24237,335.33963 477.87163,335.15426 477.36961,335.525 476.99886,335.33963 476.73671,335.20855 476.63927,334.84895 476.37711,334.71788 476.00637,334.53251 475.4267,335.01097 475.13361,334.71788 474.98706,334.57133 475.28016,334.24267 475.13361,334.09612 474.98706,333.94958 474.69723,334.18882 474.51186,334.09612 474.2497,333.96505 474.15226,333.60545 473.8901,333.47437 473.51936,333.289 472.9397,333.76747 472.6466,333.47437 472.50005,333.32782 472.79315,332.99917 472.6466,332.85262 472.3535,332.55952 471.69619,333.14572 471.4031,332.85262 471.25655,332.70607 471.54964,332.37742 471.4031,332.23087 471.09222,331.91999 469.84872,332.54174 469.53784,332.23087 469.39129,332.08432 469.68439,331.75566 469.53784,331.60912 469.22696,331.29824 467.98346,331.91999 467.67258,331.60912 466.84358,330.78011 468.70884,330.98736 467.05083,330.98736 465.39283,330.98736 467.25808,331.19461 466.42908,330.36561 466.28253,330.21906 465.95387,330.51216 465.80733,330.36561 465.66078,330.21906 465.95387,329.89041 465.80733,329.74386 465.51423,329.45076 464.85692,330.03696 464.56382,329.74386 464.41727,329.59731 464.71037,329.26866 464.56382,329.12211 464.41727,328.97556 464.08862,329.26866 463.94207,329.12211 463.79552,328.97556 464.08862,328.6469 463.94207,328.50035 463.64897,328.20726 462.99166,328.79345 462.69857,328.50035 462.55202,328.35381 462.84511,328.02515 462.69857,327.8786 462.55202,327.73205 462.28406,327.8786 462.07681,327.8786 461.86956,327.8786 461.45506,327.67135 461.45506,327.8786 461.45506,328.08585 461.93027,327.73205 462.07681,327.8786 462.22336,328.02515 461.93027,328.35381 462.07681,328.50035 463.2655,329.68904 464.84236,325.45628 465.18557,324.76984"
       inkscape:connector-curvature="0"
       id="path2972"
       style="opacity:0.6;fill:none;stroke:#e20000;stroke-opacity:1" />
    <path
       d="M 414.82366,131.40495 366.94875,99.073832"
       inkscape:connector-curvature="0"
       id="path2974"
       style="opacity:0.6;fill:none;stroke:#e20000;stroke-opacity:1" />
    <path
       d="M 487.83814,145.70524 C 493.95756,130.71755 506.25048,99.363509 518.92574,67.986227"
       inkscape:connector-curvature="0"
       id="path2976"
       style="opacity:0.6;fill:none;stroke:#e20000;stroke-width:1;stroke-miterlimit:4;stroke-opacity:1;stroke-dasharray:none;stroke-dashoffset:0" />
    <path
       d="M 615.64958,284.00369 682.17705,279.65143"
       inkscape:connector-curvature="0"
       id="path2978"
       style="opacity:0.6;fill:none;stroke:#e20000;stroke-opacity:1" />
    <path
       d="M 391.81883,54.929433 416.68891,131.40494"
       inkscape:connector-curvature="0"
       id="path2980"
       style="fill:none;stroke:#0000e9;stroke-width:1;stroke-miterlimit:4;stroke-opacity:1;stroke-dasharray:none;stroke-dashoffset:0" />
    <path
       d="M 417.31066,52.442425 418.55417,129.53968"
       inkscape:connector-curvature="0"
       id="path2982"
       style="fill:none;stroke:#0000e9;stroke-width:1;stroke-miterlimit:4;stroke-opacity:1;stroke-dasharray:none;stroke-dashoffset:0" />
    <path
       d="M 450.37093,55.088779 437.82848,129.53968"
       inkscape:connector-curvature="0"
       id="path2987"
       style="fill:none;stroke:#0000e9;stroke-width:1;stroke-miterlimit:4;stroke-opacity:1;stroke-dasharray:none;stroke-dashoffset:0" />
    <path
       d="M 571.50518,88.504047 535.44356,167.46656"
       inkscape:connector-curvature="0"
       id="path1617"
       style="fill:none;stroke:#0000e9;stroke-width:1;stroke-miterlimit:4;stroke-opacity:1;stroke-dasharray:none;stroke-dashoffset:0" />
    <path
       d="M 657.92872,173.37321 591.40125,218.76111"
       inkscape:connector-curvature="0"
       id="path3079"
       style="fill:none;stroke:#0000e9;stroke-width:1;stroke-miterlimit:4;stroke-opacity:1;stroke-dasharray:none;stroke-dashoffset:0" />
    <path
       d="M 666.94413,195.75629 598.5514,232.43966"
       inkscape:connector-curvature="0"
       id="path3081"
       style="fill:none;stroke:#0000e9;stroke-width:1;stroke-miterlimit:4;stroke-opacity:1;stroke-dasharray:none;stroke-dashoffset:0" />
    <path
       d="M 598.24053,325.70247 647.98069,341.55715"
       inkscape:connector-curvature="0"
       id="path3083"
       style="fill:none;stroke:#0000e9;stroke-width:1;stroke-miterlimit:4;stroke-opacity:1;stroke-dasharray:none;stroke-dashoffset:0" />
    <path
       d="M 546.23087,414.9239 C 543.96904,413.60808 544.2213,409.11151 537.35099,405.70473 535.69505,405.25473 534.22113,406.36591 532.67677,406.74467 530.00107,407.75459 528.24082,410.14293 526.90334,412.55478 520.83275,422.19714 518.66492,432.30368 514.66786,441.91841 514.52297,442.43735 514.41747,442.9871 514.52158,443.52449"
       inkscape:connector-curvature="0"
       id="path3085"
       style="fill:none;stroke:#0000e9;stroke-width:1;stroke-miterlimit:4;stroke-opacity:1;stroke-dasharray:none;stroke-dashoffset:0" />
    <path
       d="M 530.80468,408.24923 C 529.11102,406.89952 526.84489,406.13186 524.91123,405.27742 519.96216,402.48718 513.7204,403.39288 508.91387,406.05578 505.58372,407.82215 502.7818,410.42512 500.37641,413.29261 494.74014,418.6284 494.23606,427.25951 488.67731,432.65425 488.78311,433.05164 489.14219,432.31488 488.81218,432.33292"
       inkscape:connector-curvature="0"
       id="path1623"
       style="fill:none;stroke:#0000e9;stroke-width:1;stroke-miterlimit:4;stroke-opacity:1;stroke-dasharray:none;stroke-dashoffset:0" />
    <path
       d="M 614.40608,330.67648 560.31364,404.66498"
       inkscape:connector-curvature="0"
       id="path3089"
       style="fill:none;stroke:#0000e9;stroke-width:1;stroke-miterlimit:4;stroke-opacity:1;stroke-dasharray:none;stroke-dashoffset:0" />
    <path
       d="M 540.41758,445.38975 C 541.85742,443.64523 543.30088,441.79452 543.42845,439.44368 549.0622,428.94572 544.51964,394.9423 556.47647,401.03149 569.16156,413.61001 577.29202,423.51539 576.48215,440.08739 576.42955,441.58899 576.54475,444.03221 576.42355,444.91691 576.19582,444.52548 575.54657,444.42425 575.23573,444.76799"
       inkscape:connector-curvature="0"
       id="path3091"
       style="fill:none;stroke:#0000e9;stroke-width:1;stroke-miterlimit:4;stroke-opacity:1;stroke-dasharray:none;stroke-dashoffset:0" />
    <path
       d="M 391.08592,56.104426 C 393.5843,57.966478 393.24898,62.019449 394.61214,64.660508 401.30069,85.70891 408.46191,106.71224 414.94566,127.76135 413.57629,129.56291 411.28321,126.08293 409.71905,125.79895 395.70048,116.91089 381.42858,108.18348 367.75079,98.908171 366.61085,87.198429 365.55141,73.028419 374.80379,64.148344 379.59631,60.661362 385.1649,57.005884 391.08592,56.104426 z"
       inkscape:connector-curvature="0"
       id="path3093"
       style="fill:none;stroke:none" />
    <path
       d="M 368.68342,100.71514 C 384.29901,110.18092 399.67502,120.19193 414.75136,130.48152 414.92563,133.14216 410.72616,133.84572 409.13616,135.43611 400.36664,140.68397 392.29548,148.06264 382.14824,150.55245 374.08746,151.87915 367.35126,143.85112 368.19767,136.15501 367.86633,124.48637 367.34861,112.74977 368.04224,101.10373 368.10994,100.8456 368.41878,100.62796 368.68342,100.71514 z"
       inkscape:connector-curvature="0"
       id="path3095"
       style="fill:none;stroke:none" />
    <path
       d="M 417.12737,52.22947 C 417.43839,55.315456 417.22407,58.5217 417.36199,61.65405 417.7121,84.137473 418.07194,106.62501 418.43944,129.10554 419.55305,129.34119 418.72811,130.62533 417.97231,130.75421 416.85505,131.25299 415.78216,132.16667 414.55133,132.21053 413.88487,131.4252 414.18128,129.99979 414.65437,129.14676 415.06457,128.5083 415.56284,129.16586 415.99391,129.16046 408.21354,104.66137 400.04424,80.238062 392.33551,55.705375 392.68355,54.616584 394.2646,54.931729 395.14924,54.514714 402.27557,52.812712 409.66109,52.1197 416.95365,52.159943 L 417.12737,52.229433 z"
       inkscape:connector-curvature="0"
       id="path3097"
       style="fill:none;stroke:none" />
    <path
       d="M 444.17929,54.139179 C 458.22526,55.627139 472.33066,57.143198 486.08296,60.486555 496.63857,63.002895 507.09257,66.041642 517.35272,69.526758 518.11117,70.381498 516.91331,71.573426 516.78942,72.52184 507.58992,96.050293 497.86781,119.34725 488.5697,142.83071 489.127,142.25482 489.3793,140.9168 489.8278,140.0719 499.31779,116.8438 508.66613,93.539528 518.16331,70.323615 518.9863,69.609819 520.13506,70.671589 521.07342,70.773527 535.50311,75.731586 549.8835,80.847624 564.2227,86.056425 566.41212,87.003544 568.85267,87.580928 570.8383,88.891751 570.8433,90.289471 569.74282,91.539932 569.31706,92.87795 557.97603,117.81 546.60998,142.74275 535.18582,167.62944 534.2662,168.35167 533.28809,166.89789 532.40362,166.64224 504.54036,149.96703 473.67441,138.85246 442.28332,131.00838 440.94021,130.45031 439.10561,130.55977 438.10669,129.39406 438.01199,126.44077 438.48421,123.43708 438.60636,120.46715 440.20843,98.482935 441.7431,76.49033 443.46486,54.516999 443.61648,54.216152 443.85044,54.082991 444.17929,54.139179 z"
       inkscape:connector-curvature="0"
       id="path3099"
       style="fill:none;stroke:none" />
    <path
       d="M 444.17929,54.139179 C 458.22526,55.627139 472.33066,57.143198 486.08296,60.486555 496.63857,63.002895 507.09257,66.041642 517.35272,69.526758 518.11117,70.381498 516.91331,71.573426 516.78942,72.52184 507.58992,96.050293 497.86781,119.34725 488.5697,142.83071 489.127,142.25482 489.3793,140.9168 489.8278,140.0719 499.31779,116.8438 508.66613,93.539528 518.16331,70.323615 518.9863,69.609819 520.13506,70.671589 521.07342,70.773527 535.50311,75.731586 549.8835,80.847624 564.2227,86.056425 566.41212,87.003544 568.85267,87.580928 570.8383,88.891751 570.8433,90.289471 569.74282,91.539932 569.31706,92.87795 557.97603,117.81 546.60998,142.74275 535.18582,167.62944 534.2662,168.35167 533.28809,166.89789 532.40362,166.64224 504.54036,149.96703 473.67441,138.85246 442.28332,131.00838 440.94021,130.45031 439.10561,130.55977 438.10669,129.39406 438.01199,126.44077 438.48421,123.43708 438.60636,120.46715 440.20843,98.482935 441.7431,76.49033 443.46486,54.516999 443.61648,54.216152 443.85044,54.082991 444.17929,54.139179 z"
       inkscape:connector-curvature="0"
       id="path3101"
       style="fill:none;stroke:none" />
    <path
       d="M 422.22451,52.215732 C 429.09611,52.433752 435.9506,53.095217 442.76418,53.960573 443.45799,55.056841 442.75088,56.615241 442.85848,57.896216 441.17009,81.557915 439.53036,105.23002 437.72199,128.87885 437.16881,129.85951 435.9025,128.84235 435.02916,128.81705 429.80891,127.55603 424.28697,128.31999 419.32559,130.19094 418.18223,129.85329 418.92064,128.17633 418.67006,127.26495 418.182,102.37547 417.90951,77.482026 417.36779,52.593582 418.11947,51.501465 419.97535,52.410494 421.17869,52.182666 421.52729,52.193696 421.8759,52.204726 422.2245,52.215766 z"
       inkscape:connector-curvature="0"
       id="path3103"
       style="fill:none;stroke:none" />
    <path
       d="M 417.00836,52.723309 C 417.23215,77.632403 417.87467,102.55651 418.21301,127.45014 418.36552,129.48914 416.1505,128.93907 416.1989,127.20144 407.82636,103.78741 400.28467,80.012428 392.7406,56.356673 394.20479,53.693118 398.46203,54.525371 401.03063,53.644161 406.23601,53.072886 411.92222,51.916176 416.91995,52.641207 L 417.00835,52.723307 z"
       inkscape:connector-curvature="0"
       id="path3125"
       style="fill:#b1daa9;stroke:none" />
    <path
       d="M 389.41811,56.376102 C 393.48708,58.037694 393.74608,63.594642 395.4802,67.120756 402.25246,88.082638 409.27476,109.19614 415.80372,130.20916 414.51545,131.981 412.27108,128.40279 410.75807,128.07724 396.43148,118.39244 381.69501,109.03026 367.75394,98.94669 366.94405,87.622779 365.36518,73.983047 373.97146,65.061202 378.18255,61.089283 383.54304,58.369402 388.91294,56.356673 389.08152,56.358473 389.25075,56.347373 389.41811,56.376103 z"
       inkscape:connector-curvature="0"
       id="path3127"
       style="fill:#cce198;stroke:none" />
    <path
       d="M 369.26946,101.18111 C 383.96777,110.96819 398.81278,120.86054 413.25842,131.06407 413.13882,133.73028 409.25588,134.67649 407.61035,136.36161 399.71058,141.11487 392.45479,147.53404 383.5309,150.26067 378.17145,151.34696 371.69483,149.35153 369.77463,143.7517 366.58941,135.74431 368.25198,126.79319 367.73451,118.37644 368.00227,112.71003 367.43881,106.84328 368.56999,101.29769 368.72386,101.06113 369.06507,100.97391 369.26946,101.18111 z"
       inkscape:connector-curvature="0"
       id="path3129"
       style="fill:#6d70b9;stroke:none" />
    <path
       d="M 615.64958,283.11246 C 629.08038,306.06908 618.52776,321.77537 599.48403,326.01335"
       inkscape:connector-curvature="0"
       id="path3131"
       style="fill:none;stroke:#0000e9;stroke-width:1;stroke-miterlimit:4;stroke-opacity:1;stroke-dasharray:none;stroke-dashoffset:0" />
    <path
       d="M 519.16898,70.285423 C 531.11646,74.042475 542.86798,78.490452 554.68132,82.655218 559.84638,84.697474 565.34542,86.09176 570.2498,88.6854 571.38807,89.874343 569.52554,91.424288 569.34736,92.665878 558.14448,117.42157 546.85813,142.19496 535.47054,166.83187 534.7164,168.6552 532.85461,166.60486 531.75946,166.19069 517.97255,158.22316 503.6112,151.04118 488.64484,145.498 487.94817,144.08675 489.71325,142.32883 489.96529,140.80166 499.34247,117.41539 508.64663,93.980972 518.0712,70.625444 518.31003,70.263409 518.77855,70.221718 519.16898,70.285423 z"
       inkscape:connector-curvature="0"
       id="path5984"
       style="fill:#736cd4;stroke:none" />
    <path
       d="M 572.42593,89.46259 C 585.51596,95.376006 598.18359,102.37471 609.52956,111.23669 625.25064,123.28587 638.6783,138.55377 647.93967,156.1455 651.1415,161.76823 654.83316,167.25535 657.44082,173.1854 655.86221,174.95799 653.42191,176.00267 651.53163,177.51177 631.29006,191.32177 611.03024,205.10952 590.84534,218.94247 589.344,218.45077 588.8113,216.40324 587.72686,215.31882 583.20931,208.36858 577.89767,202.08751 571.72503,196.53903 560.71589,185.97107 548.50345,176.6143 535.57741,168.44454 535.26145,166.912 536.89682,165.35414 537.30226,163.79803 548.30399,140.00942 558.90032,116.00935 570.13435,92.340929 570.80061,91.497773 571.08167,89.448255 572.42593,89.46259 z"
       inkscape:connector-curvature="0"
       id="path5986"
       style="fill:#7edfd0;stroke:none" />
    <path
       d="M 657.74198,174.15688 C 659.40633,176.03521 660.02546,178.73067 661.17548,180.96204 663.14372,185.76866 665.35829,190.61829 666.67967,195.60733 646.75926,206.46046 626.69447,217.15515 606.67087,227.83158 604.15565,228.90053 601.8325,230.77908 599.10299,231.17349 597.84286,230.69145 597.98628,228.83213 597.06286,228.12302 595.14803,227.24168 594.34776,224.91932 593.02276,223.36269 592.26879,221.9254 590.81587,220.65175 590.6219,219.01047 591.96501,218.28484 593.48859,217.39882 594.84523,216.4296 615.79428,202.52946 636.40547,188.1047 657.33396,174.17631 657.45138,174.32078 657.61463,174.09301 657.74198,174.15691 z"
       inkscape:connector-curvature="0"
       id="path5988"
       style="fill:#70bb86;stroke:none" />
    <path
       d="M 666.6991,196.48167 C 668.30957,198.66061 668.62193,201.6206 669.55405,204.14423 675.72016,224.86688 678.74811,246.36747 681.33102,267.80069 681.65894,271.65911 682.23381,275.62059 681.95145,279.44672 662.4798,280.81066 642.92628,282.09466 623.41229,283.24803 620.93694,283.24303 618.31717,283.7932 615.90972,283.40067 614.84279,281.6753 615.53344,279.34603 615.28647,277.4066 615.45954,270.83219 614.91324,264.20468 612.74267,257.98655 610.0707,249.39047 605.91492,241.36903 600.44446,234.24811 599.61053,233.41444 599.31511,231.79679 600.85166,231.52323 622.59363,219.75163 644.37945,208.0102 666.22307,196.45253 666.37702,196.39363 666.55198,196.39993 666.6991,196.48163 z"
       inkscape:connector-curvature="0"
       id="path5990"
       style="fill:#e19179;stroke:none" />
    <path
       d="M 615.72514,284.15843 C 617.66894,286.71824 618.83498,290.02899 619.9414,293.09612 622.15767,300.18938 622.25577,308.57561 617.60983,314.75058 613.3323,320.76914 606.26953,324.29863 599.20985,325.83525 597.83634,325.00072 599.63994,323.27379 599.93846,322.26018 605.51705,311.37101 609.94987,299.93085 613.6073,288.26782 614.24941,286.93803 614.09249,284.85591 615.39483,284.03214 615.51495,284.02414 615.6154,284.11454 615.72514,284.15843 z"
       inkscape:connector-curvature="0"
       id="path5992"
       style="fill:#c7afc8;stroke:none" />
    <path
       d="M 554.16197,400.53294 C 557.30836,401.0177 558.99988,404.20531 561.20228,406.16294 568.18175,413.63062 574.91008,422.36319 576.01072,432.87376 576.11521,436.51488 576.6471,440.2497 576.09812,443.85157 575.6887,444.28738 575.32318,444.55515 575.58323,445.22137 574.72565,446.67006 572.51757,446.30322 571.11439,446.91176 563.81794,448.59177 556.21073,447.88426 548.80099,447.4333 546.24537,447.01463 543.51406,446.9359 541.11485,445.97913 540.6811,444.59474 542.39584,443.4793 542.80524,442.20976 544.982,436.78103 546.09005,430.95617 546.60115,425.10771 547.54808,418.20907 547.52597,411.03653 549.84852,404.41889 550.59624,402.62787 551.85013,400.26258 554.16193,400.53294 z"
       inkscape:connector-curvature="0"
       id="path6000"
       style="fill:#b9abdd;stroke:none" />
    <path
       d="M 518.50837,403.92343 C 522.4956,403.86213 526.11308,405.94375 529.55418,407.65394 529.88005,408.99862 528.09577,409.93989 527.61847,411.10548 521.67124,420.42086 518.38564,431.23546 514.72928,441.58801 514.60788,442.53057 514.31361,444.07228 512.96117,443.61842 504.95638,442.40622 497.00485,439.92297 490.42266,435.09847 489.55633,434.59762 488.08892,433.69067 489.15973,432.60175 494.11667,426.2925 495.77246,417.85781 501.64334,412.20051 505.99019,407.52102 511.84795,403.56654 518.50837,403.92343 z"
       inkscape:connector-curvature="0"
       id="path6004"
       style="fill:#c9b8ca;stroke:none" />
    <path
       d="M 536.68782,405.76149 C 538.92088,406.2664 540.69463,407.94513 542.23515,409.55087 543.63891,411.14447 544.40152,413.21185 545.8538,414.77203 546.03884,414.11806 547.10096,413.62992 547.35475,414.49516 547.34065,417.13063 546.88254,419.76771 546.66543,422.40125 546.01363,428.096 545.67986,433.96864 543.46113,439.30954 543.08442,441.38161 542.02507,443.26036 540.72435,444.89787 540.53846,445.23359 540.91386,445.8973 540.27746,446.01993 538.39541,446.04733 536.55122,445.36312 534.69476,445.07471 532.74632,444.72794 530.81575,444.1338 528.85858,443.9312 524.47206,444.30138 520.04972,444.23653 515.65997,443.9798 514.94371,444.0395 514.29418,443.42933 514.59619,442.69744 515.8962,438.70416 517.51928,434.79674 518.8568,430.79948 521.45597,423.38291 524.3236,415.9167 529.05678,409.56971 530.83869,407.28781 533.73355,406.2236 536.49838,405.75662 536.56158,405.75757 536.62491,405.75362 536.68782,405.76162 z"
       inkscape:connector-curvature="0"
       id="path6006"
       style="fill:#82c1d2;stroke:none" />
    <path
       d="M 681.94677,279.95722 C 681.99847,291.23337 678.46,302.43679 672.81479,312.16203 668.41308,319.88101 661.65588,325.79495 655.30858,331.81523 652.48686,334.60393 650.25622,337.96088 647.67268,340.97636 645.64652,341.08349 643.61651,339.78919 641.6002,339.37821 628.53094,335.1857 615.41808,331.08428 602.45965,326.5692 601.82893,325.22861 604.13066,325.02875 604.96609,324.52907 612.08964,321.8726 618.79439,316.55979 620.83048,308.93669 622.87328,301.43482 621.13714,293.42186 617.72172,286.63134 617.27461,285.79609 616.533,283.92055 618.21718,284.11518 639.31505,282.50235 660.44365,281.32586 681.54846,279.81149 L 681.84041,279.91831 681.94677,279.95721 z"
       inkscape:connector-curvature="0"
       id="path8982"
       style="fill:#cda392;stroke:none" />
    <path
       d="M 614.65182,331.20319 C 625.32973,334.53465 636.08185,337.80583 646.62348,341.47182 647.15088,343.02243 645.3768,344.45443 644.86509,345.84351 638.35618,357.56948 632.75489,369.84453 626.38193,381.65077 619.52726,394.57646 613.54997,408.01517 605.50041,420.25947 598.32457,430.55513 589.37032,440.48628 577.38555,445.15869 575.84627,444.56483 577.01753,441.79075 576.57006,440.36136 576.48396,434.67598 576.41139,428.83289 573.91734,423.60138 570.91638,416.55121 565.86153,410.65846 560.77311,405.01682 560.88282,403.29654 562.84626,401.95023 563.66879,400.37894 580.47247,377.38218 597.27567,354.38506 614.07864,331.38777 614.27628,331.36797 614.43257,331.0965 614.65182,331.20319 z"
       inkscape:connector-curvature="0"
       id="path8984"
       style="fill:#d5be93;stroke:none" />
    <path
       d="M 420.25151,52.130431 C 430.10073,52.690706 439.95022,53.472011 449.72321,54.83881 450.71108,56.273372 449.26032,58.562676 449.31925,60.310077 445.44276,83.174081 441.59636,106.04318 437.71124,128.90572 436.80726,129.94444 435.25751,128.48393 434.06217,128.54391 429.201,127.69738 424.17218,128.40037 419.60025,130.05316 418.38502,129.38245 419.01685,127.40937 418.69853,126.2286 418.17005,101.71183 417.76868,77.18909 417.58448,52.667972 417.98523,51.648605 419.43332,52.28173 420.25151,52.130431 z"
       inkscape:connector-curvature="0"
       id="path3031"
       style="fill:#dbc198;stroke:none" />
    <path
       d="M 451.64802,55.076568 C 474.1567,56.921676 496.16177,62.488376 517.52777,69.610842 518.24022,71.197458 516.29686,73.161933 515.99442,74.879187 506.69001,98.128267 497.38801,121.37832 488.08708,144.62878 486.5335,145.207 484.6801,143.60524 483.00825,143.28806 468.92212,138.12802 454.41424,134.16541 439.95197,130.18887 438.5428,130.13717 438.10773,128.99909 438.55063,127.77895 442.21765,103.63016 446.39071,79.53407 450.60395,55.490061 450.75174,54.995335 451.25379,55.057449 451.64802,55.076568 z"
       inkscape:connector-curvature="0"
       id="path3033"
       style="fill:#d7ab8f;stroke:none" />
  </g>
</svg>
