<?xml version="1.0" encoding="UTF-8" standalone="no"?>
<!-- Created with Inkscape (http://www.inkscape.org/) -->

<svg
   xmlns:dc="http://purl.org/dc/elements/1.1/"
   xmlns:cc="http://creativecommons.org/ns#"
   xmlns:rdf="http://www.w3.org/1999/02/22-rdf-syntax-ns#"
   xmlns:svg="http://www.w3.org/2000/svg"
   xmlns="http://www.w3.org/2000/svg"
   xmlns:xlink="http://www.w3.org/1999/xlink"
   xmlns:inkscape="http://www.inkscape.org/namespaces/inkscape"
   version="1.1"
   width="740"
   height="520"
   id="svg2"
   style="enable-background:new">
  <defs
     id="defs4">
    <filter
       color-interpolation-filters="sRGB"
       id="filter3050">
      <feBlend
         in2="BackgroundImage"
         mode="lighten"
         id="feBlend3052" />
    </filter>
  </defs>
  <metadata
     id="metadata7">
    <rdf:RDF>
      <cc:Work
         rdf:about="">
        <dc:format>image/svg+xml</dc:format>
        <dc:type
           rdf:resource="http://purl.org/dc/dcmitype/StillImage" />
        <dc:title />
      </cc:Work>
    </rdf:RDF>
  </metadata>
  <g
     id="layer1"
     style="display:none">
    <image
       xlink:href="pngs/coronal-0656.png"
       id="MRISLICE"
       height="520"
       width="740"
       y="0"
       x="0" />
  </g>
  <g
     id="layer3"
     style="display:inline">
    <path
       d="M 360.90701,135.7559 360.04088,150.98921 M 374.04088,150.98921 374.91649,351.50518 C 374.72407,378.03327 374.38216,404.56136 369.32072,431.08945 394.41951,434.96057 418.18544,434.38879 438.33521,421.76317 450.77025,412.42323 463.20529,413.38076 475.64033,411.81514 504.9997,430.56852 532.74707,452.31562 573.25541,450.36377 614.71677,445.40097 623.54611,400.96688 639.78289,377.61877 652.87653,331.98714 705.94575,303.35882 688.9013,263.83814 681.25597,152.19732 635.70932,124.79082 595.01675,92.856311 512.61126,54.582961 397.73132,24.611473 373.67301,66.742723 L 373.97438,135.7559"
       inkscape:connector-curvature="0"
       id="path2992"
       style="fill:none;stroke:#0000e9;stroke-width:1;stroke-miterlimit:4;stroke-opacity:1;stroke-dasharray:none;stroke-dashoffset:0" />
    <path
       d="M 433.36121,368.91424 C 431.07164,366.50874 431.54982,369.62783 431.02917,367.95852 429.56652,367.55086 428.13834,368.52964 427.31066,369.66774 425.27691,371.93777 424.65559,375.08944 424.53286,378.04663 424.48806,380.2711 424.79052,382.53586 425.75545,384.56082 426.41179,386.20195 426.68135,388.0498 427.77809,389.47901 428.99601,390.85995 431.30185,390.37728 432.30675,388.99195 433.10648,387.83313 433.95305,386.59462 434.01271,385.13319 433.99601,383.75385 434.88649,382.51852 434.81075,381.12078 434.60788,379.54121 434.11891,377.81939 434.86285,376.30146 435.24724,375.09547 434.13655,373.9266 434.51652,372.70106 434.73521,371.33452 433.80832,370.1405 433.36126,368.91424 z"
       inkscape:connector-curvature="0"
       id="path2994"
       style="fill:none;stroke:#0000e9;stroke-width:1;stroke-miterlimit:4;stroke-opacity:1;stroke-dasharray:none;stroke-dashoffset:0" />
    <path
       d="M 601.96875,314.6875 C 582.2936,325.0306 563.77247,344.09014 561.875,362.0625 L 564.0625,362.3125 C 565.81695,345.69472 583.81815,326.70878 603,316.625 L 601.96875,314.6875 z"
       inkscape:connector-curvature="0"
       id="path3001"
       style="font-size:medium;font-style:normal;font-variant:normal;font-weight:normal;font-stretch:normal;text-indent:0;text-align:start;text-decoration:none;line-height:normal;letter-spacing:normal;word-spacing:normal;text-transform:none;direction:ltr;block-progression:tb;writing-mode:lr-tb;text-anchor:start;baseline-shift:baseline;color:#000000;fill:#73a0a6;fill-opacity:1;stroke:none;stroke-width:2.20000005;marker:none;visibility:visible;display:inline;overflow:visible;enable-background:accumulate;font-family:Sans;-inkscape-font-specification:Sans" />
    <path
       d="M 602.15625,314.0625 C 601.79229,338.13098 596.94668,369.83402 578.21875,389.8125 L 579.84375,391.3125 C 599.23216,370.62944 604.00708,338.42439 604.375,314.09375 L 602.15625,314.06255 z"
       inkscape:connector-curvature="0"
       id="path3046"
       style="font-size:medium;font-style:normal;font-variant:normal;font-weight:normal;font-stretch:normal;text-indent:0;text-align:start;text-decoration:none;line-height:normal;letter-spacing:normal;word-spacing:normal;text-transform:none;direction:ltr;block-progression:tb;writing-mode:lr-tb;text-anchor:start;baseline-shift:baseline;color:#000000;fill:#73a0a6;fill-opacity:1;stroke:none;stroke-width:2.20000005;marker:none;visibility:visible;display:inline;overflow:visible;enable-background:accumulate;font-family:Sans;-inkscape-font-specification:Sans" />
    <path
       d="M 600.63254,317.37218 C 602.98729,316.2123 605.05061,315.727 607.07816,312.39605 609.86843,307.81209 612.59098,303.25094 613.04759,299.27754 637.6737,239.80591 576.08613,188.61457 553.35936,166.22306 510.1944,131.72587 514.61199,127.50557 444.55275,113.37413 410.64506,97.977193 414.63817,108.88995 405.06366,119.7402 403.03135,122.04331 395.06759,131.64386 391.04485,133.07269 387.99769,134.15501 370.92276,136.84733 361.3934,135.75721"
       inkscape:connector-curvature="0"
       id="path3003"
       style="fill:none;stroke:#0000e9;stroke-width:1;stroke-miterlimit:4;stroke-opacity:1;stroke-dasharray:none;stroke-dashoffset:0" />
    <path
       d="M 360.35867,150.97909 C 363.82697,151.70829 376.31843,154.2683 386.15012,147.96982 389.82962,145.61262 394.00372,143.97042 397.97033,141.78182 419.5745,129.86154 442.63719,116.09741 478.12736,131.40494 517.21279,152.00577 575.83898,188.4012 587.55573,210.36746 600.64188,232.26671 633.4619,264.91637 599.44445,317.86161"
       inkscape:connector-curvature="0"
       id="path3018"
       style="fill:none;stroke:#0000e9;stroke-width:1;stroke-miterlimit:4;stroke-opacity:1;stroke-dasharray:none;stroke-dashoffset:0" />
    <path
       d="M 522.89351,155.65327 C 518.48519,162.87072 517.54784,172.19004 518.2273,180.41067 521.05001,189.4756 529.96464,197.09914 526.97895,207.3776 527.35977,216.09391 519.30636,220.48572 511.83881,216.64477 500.34334,218.02376 512.70213,230.08547 519.21561,230.86976 533.77299,232.39399 542.67222,218.26241 538.52607,203.04044 537.83765,193.68474 532.88739,187.99678 534.35675,178.88071 535.71072,177.30268 537.49407,169.13268 537.52031,166.22265"
       inkscape:connector-curvature="0"
       id="path3020"
       style="fill:none;stroke:#0000e9;stroke-width:1;stroke-miterlimit:4;stroke-opacity:1;stroke-dasharray:none;stroke-dashoffset:0" />
    <path
       d="M 484.96663,352.12693 C 482.85054,365.87043 450.49546,399.50141 431.49595,389.43206"
       inkscape:connector-curvature="0"
       id="path3024"
       style="fill:none;stroke:#0000e9;stroke-width:1;stroke-miterlimit:4;stroke-opacity:1;stroke-dasharray:none;stroke-dashoffset:0" />
    <path
       d="M 461.34005,340.9354 C 453.27148,347.91089 445.98939,350.95397 439.57873,349.63993 431.41217,351.62424 433.18006,346.51252 436.46997,340.31364 441.97307,339.37006 451.53453,334.36812 461.96181,328.50035"
       inkscape:connector-curvature="0"
       id="path3026"
       style="fill:none;stroke:#0000e9;stroke-width:1;stroke-miterlimit:4;stroke-opacity:1;stroke-dasharray:none;stroke-dashoffset:0" />
    <path
       d="M 433.36121,349.01817 C 427.08873,351.98209 428.31975,360.57363 428.38719,368.29249"
       inkscape:connector-curvature="0"
       id="path3028"
       style="fill:none;stroke:#0000e9;stroke-width:1;stroke-miterlimit:4;stroke-opacity:1;stroke-dasharray:none;stroke-dashoffset:0" />
    <path
       d="M 519.10699,230.54047 C 523.46409,240.05248 540.09488,232.99222 529.11878,253.0336 521.45962,273.38916 512.24273,289.63169 495.58701,301.31696 483.57265,312.20511 443.57311,332.8523 467.14513,349.92365 485.32925,359.01076 497.07063,344.65759 511.09978,338.21826 513.27919,335.24515 517.01906,332.37027 518.66186,329.02858 529.33203,307.32393 530.22269,279.04084 541.32796,259.71725 554.52869,258.50897 557.58109,244.08397 556.85145,223.23097 557.34992,215.46087 548.74632,181.93363 539.36994,214.09797"
       inkscape:connector-curvature="0"
       id="path3035"
       style="fill:none;stroke:#0000e9;stroke-width:1;stroke-miterlimit:4;stroke-opacity:1;stroke-dasharray:none;stroke-dashoffset:0" />
    <path
       d="M 521.02825,330.05474 C 509.44553,352.54689 512.69004,365.77918 522.65582,369.85792 M 529.11126,371.06649 C 537.82173,371.02769 551.87355,366.33566 562.57896,357.59393"
       inkscape:connector-curvature="0"
       id="path3042"
       style="fill:none;stroke:#0000e9;stroke-width:1;stroke-miterlimit:4;stroke-opacity:1;stroke-dasharray:none;stroke-dashoffset:0" />
    <path
       d="M 553.35937,251.71397 C 566.41899,281.94378 574.99717,327.3696 518.68564,329.12211"
       inkscape:connector-curvature="0"
       id="path3044"
       style="fill:none;stroke:#0000e9;stroke-width:1;stroke-miterlimit:4;stroke-opacity:1;stroke-dasharray:none;stroke-dashoffset:0" />
    <path
       d="M 539.8842,214.44665 C 534.22696,216.41228 528.98381,216.72158 524.49662,214.007"
       inkscape:connector-curvature="0"
       id="path3006"
       style="fill:none;stroke:#0000e9;stroke-width:1;stroke-miterlimit:4;stroke-opacity:1;stroke-dasharray:none;stroke-dashoffset:0" />
    <path
       d="M 405.3528,120.36259 C 411.944,116.99546 426.25777,120.85368 444.92086,112.88862"
       inkscape:connector-curvature="0"
       id="path3008"
       style="fill:none;stroke:#0000e9;stroke-width:1;stroke-miterlimit:4;stroke-opacity:1;stroke-dasharray:none;stroke-dashoffset:0" />
    <path
       d="M 580.7712,330.9526 C 575.73111,320.07637 569.28313,312.01592 560.10788,309.40999"
       inkscape:connector-curvature="0"
       id="path3010"
       style="fill:none;stroke:#0000e9;stroke-width:1;stroke-miterlimit:4;stroke-opacity:1;stroke-dasharray:none;stroke-dashoffset:0" />
    <path
       d="M 572.85758,317.3236 C 580.11518,307.92632 591.38933,302.44165 606.93008,302.15584"
       inkscape:connector-curvature="0"
       id="path3012"
       style="fill:none;stroke:#0000e9;stroke-width:1;stroke-miterlimit:4;stroke-opacity:1;stroke-dasharray:none;stroke-dashoffset:0" />
    <path
       d="M 419.6918,105.94218 C 416.28362,106.16997 413.02105,108.05973 411.42689,111.14351 409.72023,113.7459 407.67902,116.21435 406.3047,118.99897 406.89911,120.2378 408.53165,118.91007 409.56889,119.06697 419.48434,118.01928 429.66605,118.0607 439.19617,114.76422 440.19899,114.20081 442.05997,114.48906 442.42461,113.17976 441.48644,111.7215 439.30138,111.58884 437.8763,110.72803 432.03785,108.51577 426.03043,105.97728 419.6918,105.94218 z"
       inkscape:connector-curvature="0"
       id="path3050"
       style="fill:#b46a9f;stroke:none" />
    <path
       d="M 552.83418,253.03512 C 551.31038,254.21393 550.28171,256.04281 548.59989,257.08771 546.58722,258.90005 543.79066,259.28433 541.34148,260.11726 535.04703,271.24735 532.66398,283.92222 529.35321,296.13351 526.57162,306.50175 524.37794,317.06472 519.84246,326.8196 518.22843,328.57741 520.07376,329.19566 521.698,328.81115 532.71139,328.04453 544.35772,325.50271 552.63988,317.76534 560.30865,310.71738 563.27176,299.89846 562.65171,289.72831 562.52756,277.80848 558.92409,266.23679 554.59697,255.26529 554.12634,254.58377 553.98497,252.81969 552.83418,253.03512 z"
       inkscape:connector-curvature="0"
       id="path3058"
       style="fill:#78a9c2;stroke:none" />
    <path
       d="M 429.98956,368.11754 C 427.34444,368.98126 425.96629,371.90775 425.21956,374.39335 424.38933,378.43144 424.81382,382.65652 426.56021,386.39122 427.11043,388.05331 428.12214,390.6724 430.37816,389.90801 433.85678,388.54291 434.11136,384.15322 434.40012,380.95089 434.41282,377.41153 434.86419,373.69364 433.73951,370.28396 433.51367,369.25239 432.2166,367.58664 431.26221,368.91416 430.96222,368.49511 430.57619,368.00871 429.98956,368.11754 z"
       inkscape:connector-curvature="0"
       id="path3060"
       style="fill:#bfb195;stroke:none" />
    <path
       d="M 522.33918,157.6156 C 520.79571,159.11462 520.57733,161.58671 519.8036,163.54168 518.18494,168.88636 518.33979,174.54947 518.19093,180.06668 520.64631,186.89355 525.59125,192.7475 527.30348,199.74902 528.0207,204.08697 527.38078,208.61782 526.1377,212.7961 525.03845,214.27717 526.99546,215.24456 528.23611,215.33168 531.59114,216.00922 535.27977,215.77744 538.50473,214.6905 539.76269,213.0307 539.21803,210.59606 539.2792,208.62921 538.57943,201.18402 536.34266,194.03613 534.44787,186.84462 534.06502,183.99839 533.68191,180.85027 534.56049,178.06542 535.94285,174.61346 537.06274,170.85839 537.15436,167.10704 535.63608,165.1582 533.13288,164.1378 531.17972,162.64791 528.34765,160.92539 525.64316,158.89546 522.59177,157.60589 L 522.37804,157.60589 522.33914,157.61589 z"
       inkscape:connector-curvature="0"
       id="path3064"
       style="fill:#a7b0c5;stroke:none" />
    <path
       d="M 524.87476,214.87508 C 521.71878,218.501 516.34754,218.73899 512.11913,217.06093 509.72128,216.55113 506.28818,218.83489 507.63086,221.51034 509.80284,225.77975 513.95404,229.03411 518.47266,230.52575 524.73899,231.63317 531.45576,228.97353 535.1531,223.78362 536.8359,221.41675 538.33949,218.64923 538.65046,215.74942 537.66752,214.66914 535.98203,216.05154 534.71593,215.90486 531.57112,216.20662 528.30514,216.02578 525.37993,214.76822 L 525.07579,214.83252 524.87476,214.87502 z"
       inkscape:connector-curvature="0"
       id="path3066"
       style="fill:#b667d7;stroke:none" />
    <path
       d="M 459.86281,342.53827 C 455.58127,345.50177 451.19402,348.69314 445.98997,349.65928 442.21676,350.00329 438.27071,350.37913 434.55556,349.76614 432.45003,348.62207 430.78464,351.29306 429.90213,352.82633 427.91918,357.36838 428.52345,362.50231 428.37689,367.33064 429.42361,368.55748 431.79154,367.24644 433.08861,368.48671 434.7671,370.44801 434.7078,373.26657 434.92472,375.71458 434.88052,380.21492 434.99502,385.16663 432.55429,389.06282 432.91572,390.47479 434.94772,390.49619 436.1488,390.80178 445.42449,391.99401 454.08633,387.27216 461.28628,381.92919 470.63212,374.60079 479.39881,365.76061 484.13057,354.66244 484.75176,353.75439 484.13657,352.75603 483.02307,352.95262 478.66147,352.74279 474.10748,353.1794 470.02457,351.31081 465.79151,350.0105 462.65656,346.43135 460.53314,342.72286 460.30824,342.67796 460.12252,342.34764 459.86281,342.53827 z"
       inkscape:connector-curvature="0"
       id="path3070"
       style="fill:#aac7db;stroke:none" />
    <path
       d="M 461.52405,329.15117 C 455.98645,331.76248 450.7074,335.00935 445.04762,337.42825 442.39112,338.74193 439.55448,339.61794 436.78998,340.57587 435.1917,342.57728 434.32802,345.18096 434.02124,347.72602 433.76393,349.43242 435.57824,350.12417 436.99399,349.79529 441.76585,349.59451 446.8624,349.96323 451.14575,347.46693 454.3078,345.88081 457.52632,344.11313 459.9891,341.61536 460.08936,338.35321 459.43318,334.82598 461.3589,331.93934 461.48916,331.24299 463.04229,329.25351 461.52405,329.15117 z"
       inkscape:connector-curvature="0"
       id="path3072"
       style="fill:#d3c5a0;stroke:none" />
    <path
       d="M 525.3847,365.50003 C 524.54163,365.97786 524.026,366.92587 523.97569,367.88135 523.06041,369.87421 522.72205,372.26627 523.60985,374.32985 524.23474,375.52678 525.82181,375.67174 527.07332,375.13112 529.5986,371.11993 529.81268,365.22654 525.3847,365.50003 z"
       inkscape:connector-curvature="0"
       id="path3022"
       style="fill:none;stroke:#0000e9;stroke-width:1;stroke-miterlimit:4;stroke-opacity:1;stroke-dasharray:none;stroke-dashoffset:0" />
    <path
       d="M 448.905,415.23477 C 452.30687,406.84366 454.58135,398.6136 463.51618,389.43206 474.78124,378.81584 486.70855,366.94135 481.85786,386.94505 477.92649,393.76321 476.59304,402.52982 475.95122,411.81514"
       inkscape:connector-curvature="0"
       id="path3027"
       style="fill:none;stroke:#0000e9;stroke-width:1;stroke-miterlimit:4;stroke-opacity:1;stroke-dasharray:none;stroke-dashoffset:0" />
    <path
       d="M 480.64073,376.37821 C 477.62704,376.80133 475.35478,379.17297 473.04311,380.93953 466.34467,386.752 459.49505,392.76834 455.32351,400.75109 452.96985,405.23255 451.03378,409.94246 449.30228,414.68916 449.12635,415.79823 450.58425,415.44363 451.17764,415.12881 459.00851,412.85215 467.27141,412.75968 475.31003,411.6666 476.38339,410.80166 475.88665,409.08884 476.20941,407.89619 476.81552,400.89386 478.18109,393.92994 481.28646,387.59603 482.35764,384.43566 483.28528,380.94299 482.50235,377.62159 482.26875,376.7726 481.51889,376.27326 480.64073,376.37821 z"
       inkscape:connector-curvature="0"
       id="path3029"
       style="fill:#85dbce;stroke:none" />
    <path
       d="M 507.03882,217.20674 C 504.49727,211.53916 495.41464,211.71339 492.24868,216.59344 490.6097,221.05971 495.084,224.16321 497.61377,227.10912 502.83438,233.90692 504.92809,242.41494 508.14377,250.20779 509.21644,256.43089 506.50594,262.49182 504.26306,268.14035 500.37157,275.44395 494.14618,281.09817 489.28546,287.70721 485.64037,291.91711 482.84647,296.94604 478.21301,300.21313 474.56789,303.77576 470.6385,307.16821 467.50834,311.17799 466.08731,314.33908 468.18374,317.86446 470.66633,319.79583"
       inkscape:connector-curvature="0"
       id="path3030"
       style="fill:none;stroke:#0000e9;stroke-width:1;stroke-miterlimit:4;stroke-opacity:1;stroke-dasharray:none;stroke-dashoffset:0" />
    <path
       d="M 498.98481,213.23642 C 496.4059,213.49101 493.23204,214.62969 492.29126,217.2681 491.48659,221.38572 495.47491,224.14414 497.63444,227.02183 502.96296,233.94843 505.19166,242.54183 508.49568,250.53183 508.49368,254.79776 508.08588,259.02092 506.39726,262.96687 504.54664,269.47437 500.18914,274.81275 495.88377,279.92705 489.47283,287.69898 483.6336,295.93877 476.08489,302.66731 473.22005,305.8234 469.57678,308.36666 467.48918,312.11443 466.66684,315.02872 468.81784,317.96015 470.8991,319.68232 472.17671,319.88271 473.01387,318.11327 474.10126,317.58926 484.23099,309.38387 495.26462,302.1564 504.90249,293.32482 516.10733,282.27103 523.14536,267.8832 528.84834,253.44629 530.54227,249.427 533.45687,245.12655 532.12225,240.59351 530.85757,237.53132 527.01335,237.17259 524.47261,235.5834 522.26875,234.60626 520.45507,232.97841 518.96831,231.12151 515.46154,229.93392 512.11004,227.99539 509.68089,225.12743 508.01263,223.40751 505.95648,220.63634 507.66991,218.30759 508.39425,217.66049 507.74621,216.52748 506.88301,217.00579 505.80391,215.77559 504.69004,214.21396 502.91934,213.77074 501.67194,213.29411 500.31245,213.15721 498.98481,213.23642 z"
       inkscape:connector-curvature="0"
       id="path3037"
       style="fill:#8678d2;stroke:none" />
    <path
       d="M 607.10319,313.13866 C 613.98579,315.1449 622.15077,316.2317 620.1977,337.51576 617.65923,347.97749 608.48363,362.84009 599.16481,353.15063"
       inkscape:connector-curvature="0"
       id="path3033"
       style="fill:none;stroke:#0000e9;stroke-width:1;stroke-miterlimit:4;stroke-opacity:1;stroke-dasharray:none;stroke-dashoffset:0" />
    <path
       d="M 606.20828,355.54657 C 611.21606,373.06977 577.55576,419.02215 579.16206,390.36469"
       inkscape:connector-curvature="0"
       id="path3038"
       style="fill:none;stroke:#0000e9;stroke-width:1;stroke-miterlimit:4;stroke-opacity:1;stroke-dasharray:none;stroke-dashoffset:0" />
    <path
       d="M 595.32762,441.97011 C 591.63552,427.70043 595.34212,407.4001 576.98593,410.88251 555.68368,413.91299 570.04973,436.98571 567.34877,450.98552"
       inkscape:connector-curvature="0"
       id="path3040"
       style="fill:none;stroke:#0000e9;stroke-width:1;stroke-miterlimit:4;stroke-opacity:1;stroke-dasharray:none;stroke-dashoffset:0" />
    <path
       d="M 591.5971,418.34353 C 602.06434,397.51592 612.47059,376.62732 624.54996,357.41183 665.78425,309.39339 640.47026,346.96445 628.28048,362.07497 614.12191,385.55199 609.65598,404.16444 593.15148,428.29157"
       inkscape:connector-curvature="0"
       id="path3043"
       style="fill:none;stroke:#0000e9;stroke-width:1;stroke-miterlimit:4;stroke-opacity:1;stroke-dasharray:none;stroke-dashoffset:0" />
    <path
       d="M 580.0658,410.76123 C 575.02371,411.12808 568.91846,412.40602 566.63012,417.47421 563.82011,424.03572 566.17034,431.26344 566.97014,438.00174 567.6615,442.01021 567.40763,446.18268 567.97077,450.14534 574.85059,450.62255 581.78485,448.81072 588.10219,446.17163 590.3845,444.96761 593.20596,444.26792 594.91984,442.27629 595.01744,439.66654 594.0145,437.07479 593.8494,434.4331 592.70125,427.87282 592.855,420.6853 589.20749,414.88034 587.27287,411.8035 583.58184,410.50745 580.0658,410.76123 z"
       inkscape:connector-curvature="0"
       id="path3045"
       style="fill:#b9abdd;stroke:none" />
    <path
       d="M 644.92231,335.86925 C 641.46842,338.31983 638.87668,341.86936 635.91662,344.88465 630.31208,351.20938 624.28459,357.26899 620.30639,364.80645 609.9293,382.3327 600.74271,400.53149 591.66536,418.76629 592.17866,421.11713 592.54083,423.602 593.15173,425.93586 594.16052,427.0229 594.91113,424.8932 595.50124,424.26916 608.36883,404.93827 615.71662,382.6346 627.73669,362.82803 632.24831,356.28715 637.32,350.11079 641.63807,343.42738 642.99328,341.11991 644.91559,338.96922 645.67036,336.39385 645.67836,336.02765 645.27,335.73045 644.92231,335.86925 z"
       inkscape:connector-curvature="0"
       id="path3047"
       style="fill:#d5be93;stroke:none" />
    <path
       d="M 525.93806,365.71448 C 524.09164,365.93558 524.02553,368.27141 523.55436,369.65067 523.05708,371.48035 522.91262,374.30336 525.02443,375.15311 526.1084,375.58249 527.27187,374.97046 527.57986,373.85478 528.56949,371.6745 529.32661,368.89621 527.97829,366.70368 527.5056,366.08467 526.72634,365.66601 525.93806,365.71448 z"
       inkscape:connector-curvature="0"
       id="path3141"
       style="fill:#b667d7;stroke:none" />
    <path
       d="M 559.38595,309.42506 C 557.499,312.95075 555.07095,316.20557 551.98869,318.80544 545.70066,324.35618 537.36879,326.92476 529.23592,328.25424 526.58042,328.67318 523.86071,328.86277 521.22613,329.21596 520.62663,329.70621 521.15863,330.59964 520.61153,331.19073 516.75065,339.22535 513.17807,347.98203 513.98049,357.07734 514.32521,361.74396 516.67353,366.43368 520.85518,368.74968 521.53872,369.10794 522.79741,370.30633 523.31445,369.13437 523.94624,367.8802 524.03952,365.54097 525.86301,365.50042 527.98323,365.28946 529.00526,367.61886 528.93664,369.39382 528.56879,371.10779 530.14044,371.05994 531.33797,370.81738 540.51022,369.8365 549.2525,366.1953 557.05034,361.39249 559.07431,360.15615 560.96351,358.57281 562.9512,357.34638 564.29969,354.00714 565.40583,350.53996 567.27498,347.42662 570.7007,341.22747 575.24468,335.80565 580.20727,330.83715 580.40491,329.60188 579.16471,328.47197 578.74399,327.30447 574.6798,319.43126 568.47645,311.71352 559.57221,309.40928 L 559.38595,309.42508 z"
       inkscape:connector-curvature="0"
       id="path3826"
       style="fill:#a7c0ab;stroke:none" />
    <path
       d="M 605.7479,302.31518 C 594.95808,302.65158 583.78533,306.0478 576.10535,313.91851 574.95464,315.13361 573.53341,316.27427 572.8913,317.83328 575.70646,321.349 578.05396,325.24637 580.12484,329.25031 580.55512,330.38812 581.69013,329.58649 582.22002,328.98927 587.53957,324.17072 593.42059,320.02287 599.59717,316.37867 601.47114,315.19134 602.0834,312.83264 603.28021,311.07294 604.6613,308.35973 606.36558,305.74492 607.34849,302.86473 607.21145,302.08475 606.29574,302.36895 605.7479,302.31518 z"
       inkscape:connector-curvature="0"
       id="path3828"
       style="fill:#d17697;stroke:none" />
    <path
       d="M 606.79206,313.30631 C 605.977,314.26831 604.84602,314.99776 604.11297,315.96478 603.59393,321.96107 603.43994,327.99644 602.62975,333.96797 601.85476,340.23627 600.79447,346.45301 599.23566,352.57211 600.00086,354.20851 601.8526,355.22136 603.51533,355.86945 606.38237,356.45821 609.38803,355.43755 611.43581,353.36897 615.9415,349.06466 618.53472,343.11705 620.1658,337.20522 620.2437,331.44744 620.90529,325.19463 618.03736,319.95594 616.16663,316.51668 612.46522,314.72821 608.82752,313.76362 608.1525,313.63043 607.48789,313.17214 606.79206,313.30631 z"
       inkscape:connector-curvature="0"
       id="path3830"
       style="fill:#c9ca98;stroke:none" />
    <path
       d="M 599.27688,353.89104 C 598.28499,354.48483 598.48091,356.03166 597.97743,357.00143 594.32637,369.5596 588.30313,381.62214 579.37607,391.28149 579.26592,393.64904 579.19433,396.45021 580.73622,398.4532 582.01114,400.07765 584.39532,399.14765 585.84022,398.25398 590.83462,394.85475 594.25782,389.70656 597.50456,384.72803 601.82884,377.52387 605.61694,369.63601 606.53102,361.17267 606.59332,359.62772 606.70605,357.98282 606.21503,356.52205 603.96699,356.37136 601.6904,355.73021 600.01878,354.11774 599.80689,353.97047 599.54229,353.84429 599.27688,353.89104 z"
       inkscape:connector-curvature="0"
       id="path3832"
       style="fill:#ca818c;stroke:none" />
    <path
       d="M 443.98258,113.49191 C 434.28914,117.52357 423.68738,118.32707 413.30523,119.03342 410.40175,119.36538 407.19357,119.44161 404.6179,120.84607 400.09857,124.95355 396.60545,130.60094 390.93935,133.16453 384.05692,135.11125 376.80128,135.53667 369.6737,136.03221 366.82668,136.31608 363.89687,135.81707 361.10497,136.12761 360.71946,140.76247 360.34695,145.49183 360.48321,150.16561 361.00319,151.53651 363.06736,151.04548 364.22344,151.42854 371.65578,152.46197 379.63007,151.75441 386.09481,147.73801 398.342,141.60494 410.04672,134.3733 422.757,129.33816 435.84971,124.38461 450.47319,122.99288 464.11306,126.53331 471.75263,128.2492 478.89159,131.54947 485.68184,135.35446 497.57654,141.67765 509.10457,148.6168 520.66209,155.49907 521.29347,155.99109 522.12059,156.05878 522.73136,155.93624 523.56388,158.15461 526.39502,158.83054 528.13393,160.2399 542.9145,169.74705 557.48071,179.87609 570.79086,191.27896 578.22057,197.73026 584.86327,204.95822 589.80632,213.48421 597.73702,225.74343 606.46294,237.77355 611.02383,251.73727 613.80103,259.57517 614.77849,267.94385 614.35236,276.25499 613.94596,288.99488 609.15118,301.03043 603.17054,312.10288 602.60398,312.77199 601.9837,314.34596 603.36484,314.36645 604.47324,314.84162 605.59973,314.55485 606.06051,313.39374 609.49434,308.47573 612.17365,303.0567 613.69175,297.23912 617.36962,287.23659 619.19384,276.51097 618.37307,265.85104 616.75115,245.10772 606.69748,226.10064 594.28143,209.80523 582.73004,194.87484 569.26404,181.56045 555.47021,168.69969 544.06871,158.62674 532.30234,148.91573 520.21755,139.66729 509.42112,131.53078 496.82551,126.13223 483.833,122.59479 470.70882,118.95075 457.32734,116.13096 443.98258,113.49195 z"
       inkscape:connector-curvature="0"
       id="path3034"
       style="fill:#73a0a6;stroke:none" />
    <path
       d="M 538.00704,167.59406 C 536.94198,169.43197 537.06558,171.85906 536.33468,173.88878 535.78562,176.70832 534.0211,179.24579 534.38339,182.24409 534.39869,189.29184 537.93963,195.65227 538.67537,202.6018 539.22307,204.43594 539.00511,206.57582 539.84315,208.27996 541.23639,208.94784 541.72308,206.68559 542.29953,205.83328 543.50543,203.44182 545.19142,199.94546 548.38253,200.31376 551.09133,201.41903 552.46764,204.53263 553.62856,207.0656 557.73082,217.08159 557.41126,228.28549 556.53331,238.92068 556.13314,243.14924 555.1073,247.30702 553.6577,251.21 554.23128,254.42381 556.0956,257.30184 556.98019,260.43913 560.69464,271.02913 563.37735,282.12024 562.97927,293.43082 563.01597,298.58519 561.7023,303.68154 559.88494,308.42091 560.64989,310.03852 562.99132,310.00973 564.34803,311.00244 567.2779,312.35588 569.5442,314.64596 571.95082,316.71741 573.37131,316.91823 574.22069,315.08118 575.29112,314.34291 582.40519,306.74431 592.74104,302.98212 602.9694,302.25598 604.58882,301.87608 606.79933,302.7029 607.9625,301.48155 614.06398,287.41771 616.15722,271.30312 612.0552,256.3684 607.76322,239.64872 597.1359,225.70579 587.98051,211.37783 581.17085,199.91543 570.59786,191.39504 560.34804,183.19077 553.24562,177.74564 546.00305,172.42427 538.48307,167.60377 538.33392,167.52617 538.15879,167.52907 538.00704,167.59377 z"
       inkscape:connector-curvature="0"
       id="path3036"
       style="fill:#d0cf6e;stroke:none" />
    <path
       d="M 547.54705,200.55663 C 544.55007,201.38774 543.34214,204.78363 542.03458,207.28215 539.25265,213.05448 539.1774,220.04027 534.71369,224.97012 531.43115,228.90048 526.43297,231.09466 521.31688,231.15849 519.85165,231.26759 520.5958,232.93949 521.51118,233.32491 524.56177,235.76697 528.73637,236.44105 531.62436,239.0664 534.06721,242.2513 532.26046,246.62039 530.87632,249.86935 526.96573,258.26342 523.9969,267.06278 519.16989,275.02116 513.43323,285.19324 505.64125,294.29724 496.16435,301.19166 486.71249,308.94343 476.1349,315.43229 467.53791,324.15402 463.60912,328.39472 459.3598,333.7108 460.22974,339.91653 460.30644,340.73797 461.65476,341.06533 460.91949,341.88865 461.18836,344.53272 463.61378,346.37593 465.36847,348.14715 468.38202,350.79534 472.4382,352.06038 476.36615,352.47787 483.1293,353.21204 489.59039,350.52977 495.28895,347.1608 500.37661,344.0882 505.51422,341.10305 510.56919,337.98247 515.35122,333.9869 519.13379,328.81439 521.13904,322.87871 528.45521,304.28975 530.4084,283.95056 538.22526,265.58772 539.31403,263.60963 539.91259,261.14183 541.53354,259.57451 547.00277,258.92808 551.73642,254.95758 553.68685,249.83049 557.27183,241.13822 556.5513,231.47071 556.60131,222.25967 556.26211,215.45597 554.52063,208.54878 550.89868,202.7522 550.04261,201.78546 548.95266,200.5255 547.54705,200.55663 z"
       inkscape:connector-curvature="0"
       id="path3039"
       style="fill:#9de082;stroke:none" />
  </g>
</svg>
