<?xml version="1.0" encoding="UTF-8" standalone="no"?>
<!-- Created with Inkscape (http://www.inkscape.org/) -->

<svg
   xmlns:dc="http://purl.org/dc/elements/1.1/"
   xmlns:cc="http://creativecommons.org/ns#"
   xmlns:rdf="http://www.w3.org/1999/02/22-rdf-syntax-ns#"
   xmlns:svg="http://www.w3.org/2000/svg"
   xmlns="http://www.w3.org/2000/svg"
   xmlns:xlink="http://www.w3.org/1999/xlink"
   xmlns:inkscape="http://www.inkscape.org/namespaces/inkscape"
   version="1.1"
   width="740"
   height="520"
   id="svg2"
   style="display:inline;enable-background:new">
  <defs
     id="defs4">
    <filter
       color-interpolation-filters="sRGB"
       id="filter3050">
      <feBlend
         in2="BackgroundImage"
         mode="lighten"
         id="feBlend3052" />
    </filter>
  </defs>
  <metadata
     id="metadata7">
    <rdf:RDF>
      <cc:Work
         rdf:about="">
        <dc:format>image/svg+xml</dc:format>
        <dc:type
           rdf:resource="http://purl.org/dc/dcmitype/StillImage" />
        <dc:title />
      </cc:Work>
    </rdf:RDF>
  </metadata>
  <g
     id="g2581"
     style="display:none">
    <image
       xlink:href="pngs/coronal-0653.png"
       id="image2583"
       height="520"
       width="740"
       y="0"
       x="0" />
  </g>
  <g
     id="g2589"
     style="display:inline">
    <path
       d="M 503.11246,348.39642 C 498.65856,353.52619 479.06061,392.44131 480.10762,398.75834 478.96961,404.79346 475.83462,412.31527 480.10762,416.78915 483.62913,420.88131 488.14673,426.12688 493.78617,428.60244 498.49919,432.65059 504.14503,433.86293 508.70822,437.92872 513.85964,441.58078 519.38177,442.25692 525.49553,444.768 533.13213,447.40581 540.45671,448.98929 548.69339,449.6437 560.3692,448.65719 572.18477,455.83908 583.31847,450.36377 589.39663,447.9656 593.92524,442.67347 599.48403,441.03748 602.25337,436.96318 602.79774,432.99378 606.94505,431.08945 609.9026,429.03053 612.8934,424.18403 615.02783,421.14142 617.14612,417.2471 619.38701,414.5338 621.24535,411.19338 623.7388,406.79691 625.02446,404.78035 627.46287,400.6236 629.47851,396.2521 630.80436,394.88605 633.68039,391.29732 635.12232,388.43019 637.27327,385.89015 639.27616,383.83629 640.40179,380.03909 642.9867,376.93021 644.25018,373.26651 646.79548,368.3828 648.27194,363.65422 651.08945,357.7227 652.63854,351.79561 655.70862,345.94371 657.92872,340.9354 660.09426,336.64267 661.79619,332.63749 664.768,329.74386 666.5572,326.55475 668.4126,324.26611 670.98552,321.66108 672.73419,318.95427 676.20557,315.66447 677.20304,312.3348 679.14582,309.34666 681.18219,307.06313 682.79881,303.63027 686.31126,299.73332 686.79796,293.34216 688.39458,287.46471 691.58299,278.70847 689.67804,267.05974 687.79559,257.59118 687.55217,247.87704 684.84894,239.13149 684.04231,229.64177 681.87601,221.93899 680.24298,213.09142 677.82479,205.39344 676.55382,198.53823 675.54681,190.98492 671.60727,183.63212 669.58556,176.41231 665.47801,171.49796 662.90274,164.97955 660.75695,160.33597 658.18474,155.60794 655.44172,152.54451 651.3356,146.52717 643.18647,137.73204 636.76433,131.09299 630.46802,127.93769 623.58936,117.04198 618.54461,113.549 616.1688,111.30712 611.25559,107.67675 608.81031,105.91311 603.35887,101.72845 597.69037,96.739671 590.7795,92.856311 584.19582,89.94899 580.21535,87.269595 573.68128,84.744117 569.20913,82.786697 560.42235,79.26153 554.09612,77.312509 548.90177,75.275596 544.10188,73.434581 538.24141,71.065571 535.66926,68.656256 524.5936,68.012971 522.07592,65.528636 513.71586,62.320827 504.42318,59.459127 496.64257,57.352653 488.15716,55.584706 479.81505,53.338136 471.4031,51.198921 458.71061,49.044274 445.87303,47.094473 432.15289,47.630916 421.60233,46.577398 411.42409,42.611693 400.52336,44.9814 395.16802,46.241903 391.05872,48.910966 386.84481,51.198921 383.24587,55.284329 376.68054,57.174299 373.16626,63.633963 367.60442,69.216892 371.55641,63.96323 368.16709,71.802513 366.91869,82.537751 366.52615,95.773097 368.19229,107.15661 371.62636,115.41004 366.21516,132.42299 373.36568,135.76177 381.66566,138.22442 386.26455,133.09621 393.68412,131.40494 398.78881,129.92897 401.22545,126.39144 403.0104,123.32216 405.41974,119.93218 407.25154,119.589 409.84968,115.86114 412.19375,114.11917 414.37601,111.19911 418.55421,110.26537 425.00808,106.42934 430.53488,111.54903 435.34151,113.99588 446.4567,115.00721 457.87198,115.29675 468.29437,118.34815 476.67119,121.04769 485.53388,123.87474 493.78621,127.67443 498.0569,129.01427 505.4459,132.44988 508.70826,135.13545 514.46292,139.01143 519.42424,142.19307 525.49557,146.32699 528.84614,148.83842 532.29644,152.21286 537.62371,155.12135 543.61275,159.04046 547.13663,162.32936 552.85266,166.84481 560.7775,173.84263 568.30047,179.79413 575.61364,186.98473 580.2883,191.63733 584.5322,198.513 588.35922,201.38695 592.87608,206.00021 595.27827,209.12039 597.61881,214.71972 600.46121,218.22681 601.00646,220.68527 603.83633,225.28951 609.01511,233.60201 600.91069,223.79971 606.94509,228.39827 608.49641,232.41761 611.77958,238.92483 613.78436,242.07681 615.8215,248.4239 616.92567,256.41874 618.75838,261.97288 618.72398,271.26498 619.24734,281.10932 616.89313,288.08647 613.51588,293.81094 611.14761,298.43156 608.81035,303.00852 607.15778,309.0022 603.29317,313.69037 603.21458,320.41758 601.99993,327.74735 603.32333,337.1388 601.40016,344.71214 599.92157,350.03018 598.59872,355.41776 595.75355,359.58796 594.949,363.49933 592.06178,367.85536 590.15779,372.64475 588.73231,374.22234 584.67159,379.71848 583.94026,375.75351 585.78338,371.61833 587.09156,363.82992 590.15779,359.58796 592.81072,354.36841 595.43422,349.10799 595.1318,340.9354 595.0416,335.931 595.28673,327.95092 595.0459,324.63081 595.78701,325.604 594.08144,325.71136 594.51007,326.6351"
       inkscape:connector-curvature="0"
       id="path2591"
       style="fill:none;stroke:#e20000;stroke-opacity:1" />
    <path
       d="M 366.94874,155.03152 C 372.21128,156.55855 363.47187,153.9315 371.81975,155.77717 377.40548,154.98175 380.26393,153.69159 384.97955,150.67926 389.51666,148.96843 394.25608,144.22799 398.6581,143.21823 402.4458,141.18052 407.32904,138.84322 411.09314,135.13545 415.76144,133.1972 417.62742,131.53572 421.04118,129.53968 425.70311,126.46958 430.09088,125.41421 436.09935,125.08641 441.44033,125.27335 446.78565,125.15331 452.12878,125.18742 458.36317,126.00333 465.23276,126.86819 472.02485,128.29618 475.64859,130.55192 480.36469,131.03576 483.83814,133.2702 488.78909,134.11319 493.44592,138.42485 494.40792,138.86597 498.64618,141.54222 501.76677,142.99512 505.91034,146.01611 509.16151,148.3206 511.90187,152.08597 514.92574,154.40977 516.12768,156.70651 520.74575,158.75311 521.76501,160.62729 523.80732,162.10789 527.68774,164.91862 531.71305,167.46656 535.43702,169.3713 537.65904,171.16904 542.28283,174.92759 547.16271,177.98766 551.25753,181.29185 555.96138,184.25387 559.50071,186.60866 561.14275,188.58323 565.28766,191.09314 568.84041,194.14035 572.20022,196.30823 574.61394,198.55417 577.58067,201.00937 582.17334,204.61196 583.94022,207.88045 585.90129,210.43071 588.51759,212.10987 589.53599,215.34147 592.16103,217.40983 592.99869,220.08054 595.13176,222.8025 597.0309,226.13339 598.70922,227.77843 600.72753,232.12878 602.53538,235.76603 604.11317,238.2351 605.0798,241.45506 607.77555,245.30665 608.77607,249.06325 610.67556,253.26835 612.38257,258.78938 614.22058,264.2673 613.78432,271.92091 614.83112,278.69344 611.40961,282.19554 610.67556,287.46472 608.75797,292.56679 608.2452,297.05378 605.74194,302.41588 604.01792,304.90343 603.58326,308.84063 601.34928,311.0913 599.67145,314.19094 598.84748,316.82739 596.99702,319.17407 596.43519,320.70563 596.71651,322.86779 595.75351,319.79583"
       inkscape:connector-curvature="0"
       id="path2593"
       style="opacity:0.6;fill:none;stroke:#e20000;stroke-opacity:1" />
    <path
       d="M 484.45989,133.89195 C 484.66714,133.6847 484.95056,133.53235 485.08164,133.2702 485.17434,133.08483 484.87439,132.64845 485.08164,132.64845 485.28889,132.64845 484.93509,133.12365 485.08164,133.2702 485.22819,133.41675 485.55685,133.12365 485.70339,133.2702 485.84994,133.41675 485.55685,133.7454 485.70339,133.89195 485.84994,134.0385 486.1786,133.7454 486.32515,133.89195 486.47169,134.0385 486.1786,134.36715 486.32515,134.5137 486.47169,134.66025 486.80035,134.36715 486.9469,134.5137 487.09345,134.66025 486.80035,134.98891 486.9469,135.13545 487.09345,135.282 487.4221,134.98891 487.56865,135.13545 487.7152,135.282 487.4221,135.61066 487.56865,135.75721 487.7152,135.90375 488.04385,135.61066 488.1904,135.75721 488.33695,135.90375 488.0977,136.19359 488.1904,136.37896 488.32148,136.64111 488.68108,136.73856 488.81215,137.00071 488.90485,137.18608 488.66561,137.47591 488.81215,137.62246 488.9587,137.76901 489.28736,137.47591 489.43391,137.62246 489.58045,137.76901 489.34121,138.05884 489.43391,138.24421 489.56498,138.50637 489.92458,138.60381 490.05566,138.86597 490.14836,139.05134 489.90911,139.34117 490.05566,139.48772 490.20221,139.63427 490.53086,139.34117 490.67741,139.48772 490.82396,139.63427 490.53086,139.96292 490.67741,140.10947 490.82396,140.25602 491.15261,139.96292 491.29916,140.10947 492.58559,141.39587 489.33333,140.05917 491.92091,141.35297 492.10629,141.44567 492.39612,141.20643 492.54267,141.35297 492.68921,141.49952 492.44997,141.78936 492.54267,141.97473 492.67374,142.23688 493.03334,142.33433 493.16442,142.59648 493.25712,142.78185 493.01787,143.07168 493.16442,143.21823 493.31097,143.36478 493.63962,143.07168 493.78617,143.21823 493.93272,143.36478 493.63962,143.69343 493.78617,143.83998 493.93272,143.98653 494.26137,143.69343 494.40792,143.83998 495.69435,145.12639 492.44209,143.78968 495.02967,145.08349 495.21505,145.17619 495.44418,145.08349 495.65143,145.08349 495.65143,145.29074 495.50488,145.55869 495.65143,145.70524 495.79798,145.85179 496.12663,145.55869 496.27318,145.70524 497.55961,146.99164 494.30735,145.65494 496.89493,146.94874 497.0803,147.04144 497.37013,146.8022 497.51668,146.94874 497.66323,147.09529 497.42398,147.38512 497.51668,147.5705 497.64776,147.83265 498.00736,147.93009 498.13844,148.19225 498.23114,148.37762 497.99189,148.66745 498.13844,148.814 498.28498,148.96055 498.61364,148.66745 498.76019,148.814 499.05328,149.1071 498.57482,149.68676 498.76019,150.0575 498.89126,150.31966 499.25086,150.4171 499.38194,150.67926 499.56731,151.05 499.08884,151.62966 499.38194,151.92276 499.52849,152.06931 499.85714,151.77621 500.00369,151.92276 500.31457,152.23364 499.69282,153.47714 500.00369,153.78802 500.15024,153.93456 500.4789,153.64147 500.62544,153.78802 501.03995,154.20252 500.21094,155.86052 500.62544,156.27502 500.77199,156.42157 501.10065,156.12848 501.2472,156.27502 501.55807,156.5859 500.93632,157.82941 501.2472,158.14028 501.39374,158.28683 501.7224,157.99373 501.86895,158.14028 502.17982,158.45116 501.55807,159.69466 501.86895,160.00554 502.0155,160.15209 502.34415,159.85899 502.4907,160.00554 502.77811,160.29295 502.303,161.4954 502.4907,161.87079 502.62178,162.13295 502.98138,162.23039 503.11245,162.49255 503.21055,162.6888 503.24694,164.84506 503.11245,164.97955 502.9659,165.1261 502.63725,164.83301 502.4907,164.97955 502.17982,165.29043 502.80158,166.53393 502.4907,166.84481 502.34415,166.99136 502.0155,166.69826 501.86895,166.84481 501.7224,166.99136 502.0155,167.32001 501.86895,167.46656 501.7224,167.61311 501.39374,167.32001 501.2472,167.46656 501.10065,167.61311 501.39374,167.94177 501.2472,168.08831 501.10065,168.23486 500.77199,167.94177 500.62544,168.08831 500.4789,168.23486 500.77199,168.56352 500.62544,168.71007 500.4789,168.85662 500.15024,168.56352 500.00369,168.71007 499.85714,168.85662 500.15024,169.18527 500.00369,169.33182 499.85714,169.47837 499.52849,169.18527 499.38194,169.33182 499.23539,169.47837 499.47464,169.7682 499.38194,169.95357 499.17469,170.36807 497.93118,171.61158 497.51668,171.81883 497.33131,171.91153 497.04148,171.67228 496.89493,171.81883 496.74838,171.96538 497.04148,172.29403 496.89493,172.44058 496.74838,172.58713 496.41973,172.29403 496.27318,172.44058 496.12663,172.58713 496.41973,172.91578 496.27318,173.06233 496.12663,173.20888 495.8368,172.96963 495.65143,173.06233 494.92717,173.42446 494.51043,173.9437 493.78617,174.30584 493.6008,174.39854 493.31097,174.15929 493.16442,174.30584 492.33542,175.13484 494.20067,174.92759 492.54267,174.92759 492.39612,175.07414 492.68921,175.40279 492.54267,175.54934 492.39612,175.69589 492.06746,175.40279 491.92091,175.54934 491.77437,175.69589 492.06746,176.02454 491.92091,176.17109 491.77437,176.31764 491.48453,176.07839 491.29916,176.17109 490.5749,176.53322 490.15817,177.05247 489.43391,177.4146 489.24854,177.5073 488.9587,177.26805 488.81215,177.4146 488.66561,177.56114 488.9587,177.8898 488.81215,178.03635 488.66561,178.1829 488.33695,177.8898 488.1904,178.03635 488.04385,178.1829 488.33695,178.51155 488.1904,178.6581 487.89731,178.9512 487.23999,178.365 486.9469,178.6581 486.80035,178.80465 487.09345,179.1333 486.9469,179.27985 486.6538,179.57295 486.07413,179.09448 485.70339,179.27985 485.44124,179.41093 485.3438,179.77053 485.08164,179.9016 484.7109,180.08698 484.20888,179.71623 483.83814,179.9016 483.57598,180.03268 483.47854,180.39228 483.21639,180.52336 482.84564,180.70873 482.34362,180.33799 481.97288,180.52336 481.71073,180.65443 481.61328,181.01403 481.35113,181.14511 480.85373,181.39381 479.98327,180.89641 479.48587,181.14511 479.22372,181.27619 479.12627,181.63578 478.86412,181.76686 478.48872,181.95456 477.28628,181.47945 476.99886,181.76686 476.85232,181.91341 477.14541,182.24206 476.99886,182.38861 476.71145,182.67603 475.50901,182.20091 475.13361,182.38861 474.87145,182.51969 474.77401,182.87929 474.51186,183.01036 474.13646,183.19806 472.93401,182.72295 472.6466,183.01036 472.50005,183.15691 472.79315,183.48557 472.6466,183.63212 472.3535,183.92521 471.8176,183.63212 471.4031,183.63212 469.95512,183.63212 470.67159,183.68702 469.53784,184.25387 469.02018,184.5127 467.44522,183.85948 467.05083,184.25387 466.90428,184.40042 467.19738,184.72907 467.05083,184.87562 466.63633,185.29012 464.97832,184.46112 464.56382,184.87562 464.41727,185.02217 464.71037,185.35082 464.56382,185.49737 464.41727,185.64392 464.14932,185.49737 463.94207,185.49737 463.19526,185.49737 461.48708,185.82426 460.83331,185.49737 460.57116,185.3663 460.47371,185.0067 460.21156,184.87562 460.19226,185.50122 456.58799,184.51127 455.85929,184.87562 455.59714,185.0067 455.49969,185.3663 455.23754,185.49737 454.07694,186.07768 452.04588,184.91707 450.88528,185.49737 450.62312,185.62845 450.52568,185.98805 450.26352,186.11913 448.94516,186.77831 445.36437,185.45994 444.046,186.11913 443.78385,186.2502 443.6864,186.6098 443.42425,186.74088 443.05351,186.92625 442.55149,186.55551 442.18075,186.74088 441.91859,186.87195 441.82115,187.23155 441.55899,187.36263 441.18825,187.548 440.60859,187.06953 440.31549,187.36263 440.16894,187.50918 440.46204,187.83783 440.31549,187.98438 440.16894,188.13093 439.84029,187.83783 439.69374,187.98438 439.54719,188.13093 439.84029,188.45959 439.69374,188.60613 439.54719,188.75268 439.25736,188.51343 439.07199,188.60613 438.80983,188.73721 438.71239,189.09681 438.45023,189.22789 438.26486,189.32059 437.97503,189.08134 437.82848,189.22789 437.68193,189.37443 437.97503,189.70309 437.82848,189.84964 437.68193,189.99619 437.35328,189.70309 437.20673,189.84964 437.06018,189.99619 437.35328,190.32484 437.20673,190.47139 437.06018,190.61794 436.73153,190.32484 436.58498,190.47139 436.43843,190.61794 436.73153,190.94659 436.58498,191.09314 436.43843,191.23969 436.10977,190.94659 435.96323,191.09314 435.81668,191.23969 436.10977,191.56835 435.96323,191.71489 435.81668,191.86144 435.48802,191.56835 435.34147,191.71489 435.19493,191.86144 435.48802,192.1901 435.34147,192.33665 435.19493,192.48319 434.90509,192.24395 434.71972,192.33665 432.65763,194.39874 435.30592,192.04355 433.47622,192.9584 432.14057,193.62622 433.56842,193.53408 432.23271,194.2019 432.04734,194.2946 431.79633,194.1092 431.61096,194.2019 431.34881,194.33298 431.25136,194.69258 430.98921,194.82365 430.80384,194.91635 430.55283,194.73095 430.36746,194.82365 430.1053,194.95473 430.00786,195.31433 429.7457,195.44541 429.56033,195.53811 429.30932,195.35271 429.12395,195.44541 428.8618,195.57648 428.76435,195.93608 428.5022,196.06716 428.31683,196.15986 428.06582,195.97446 427.88045,196.06716 427.13435,196.44021 426.76129,197.55936 426.01519,197.93242 425.82982,198.02512 425.53999,197.78587 425.39344,197.93242 425.24689,198.07896 425.53999,198.40762 425.39344,198.55417 425.24689,198.70072 424.95706,198.46147 424.77169,198.55417 422.1841,199.84796 425.43636,198.51127 424.14994,199.79767 424.00339,199.94422 423.67473,199.65112 423.52818,199.79767 423.38164,199.94422 423.67473,200.27288 423.52818,200.41942 423.38164,200.56597 423.05298,200.27288 422.90643,200.41942 422.75988,200.56597 423.05298,200.89463 422.90643,201.04118 422.75988,201.18772 422.43123,200.89463 422.28468,201.04118 422.13813,201.18772 422.43123,201.51638 422.28468,201.66293 421.99158,201.95602 421.41192,201.47756 421.04118,201.66293 420.77902,201.794 420.68158,202.1536 420.41942,202.28468 419.59042,202.69918 418.13967,201.87018 417.31066,202.28468 417.04851,202.41576 416.95106,202.77536 416.68891,202.90643 416.1,203.20089 410.32529,202.90643 409.22789,202.90643 408.42433,202.90643 405.44559,203.19142 404.87562,202.90643 404.61347,202.77536 404.51602,202.41576 404.25387,202.28468 403.87847,202.09698 402.67603,202.57209 402.38861,202.28468 402.24206,202.13813 402.53516,201.80948 402.38861,201.66293 402.09552,201.36983 401.51585,201.8483 401.14511,201.66293 400.88295,201.53185 400.78551,201.17225 400.52336,201.04118 400.15262,200.8558 399.57295,201.33427 399.27985,201.04118 399.1333,200.89463 399.4264,200.56597 399.27985,200.41942 399.1333,200.27288 398.84347,200.51212 398.6581,200.41942 398.39595,200.28835 398.2985,199.92875 398.03635,199.79767 397.85098,199.70497 397.56114,199.94422 397.4146,199.79767 397.26805,199.65112 397.56114,199.32247 397.4146,199.17592 397.26805,199.02937 396.97821,199.26862 396.79284,199.17592 396.53069,199.04484 396.43325,198.68524 396.17109,198.55417 395.98572,198.46147 395.69589,198.70072 395.54934,198.55417 395.40279,198.40762 395.69589,198.07896 395.54934,197.93242 395.40279,197.78587 395.07414,198.07896 394.92759,197.93242 394.78104,197.78587 395.07414,197.45721 394.92759,197.31066 394.78104,197.16411 394.49121,197.40336 394.30584,197.31066 393.78153,197.04851 393.32449,196.59147 393.06233,196.06716 392.96963,195.88179 393.20888,195.59196 393.06233,195.44541 392.91578,195.29886 392.62595,195.53811 392.44058,195.44541 391.91627,195.18325 391.45923,194.72621 391.19708,194.2019 391.10438,194.01653 391.34362,193.7267 391.19708,193.58015 391.05053,193.4336 390.76069,193.67285 390.57532,193.58015 390.05102,193.318 389.85613,192.5988 389.33182,192.33665 389.14645,192.24395 388.85662,192.48319 388.71007,192.33665 388.56352,192.1901 388.80277,191.90026 388.71007,191.71489 387.41628,189.12731 388.75297,192.37957 387.46656,191.09314 387.32001,190.94659 387.55926,190.65676 387.46656,190.47139 387.09351,189.72529 385.97436,189.35224 385.60131,188.60613 385.50861,188.42076 385.69401,188.16975 385.60131,187.98438 385.33915,187.46007 384.61996,187.26518 384.3578,186.74088 384.2651,186.55551 384.4505,186.3045 384.3578,186.11913 384.22673,185.85697 383.86713,185.75953 383.73605,185.49737 383.64335,185.312 383.8826,185.02217 383.73605,184.87562 383.5895,184.72907 383.26085,185.02217 383.1143,184.87562 382.96775,184.72907 383.26085,184.40042 383.1143,184.25387 382.96775,184.10732 382.63909,184.40042 382.49255,184.25387 382.19945,183.96077 382.67792,183.38111 382.49255,183.01036 382.36147,182.74821 382.00187,182.65077 381.87079,182.38861 381.77809,182.20324 382.01734,181.91341 381.87079,181.76686 381.72425,181.62031 381.39559,181.91341 381.24904,181.76686 381.10249,181.62031 381.39559,181.29166 381.24904,181.14511 381.10249,180.99856 380.77384,181.29166 380.62729,181.14511 380.48074,180.99856 380.77384,180.6699 380.62729,180.52336 380.48074,180.37681 380.15209,180.6699 380.00554,180.52336 378.71911,179.23693 381.97137,180.57366 379.38379,179.27985 379.19841,179.18715 378.90858,179.4264 378.76203,179.27985 378.61548,179.1333 378.85473,178.84347 378.76203,178.6581 378.63096,178.39595 378.27136,178.2985 378.14028,178.03635 378.04758,177.85098 378.28683,177.56114 378.14028,177.4146 377.99373,177.26805 377.66508,177.56114 377.51853,177.4146 377.37198,177.26805 377.61123,176.97821 377.51853,176.79284 377.25638,176.26854 376.53718,176.07365 376.27502,175.54934 376.18232,175.36397 376.42157,175.07414 376.27502,174.92759 376.12848,174.78104 375.79982,175.07414 375.65327,174.92759 375.36018,174.63449 375.94637,173.97718 375.65327,173.68408 375.50672,173.53754 375.17807,173.83063 375.03152,173.68408 374.88497,173.53754 375.17807,173.20888 375.03152,173.06233 374.88497,172.91578 374.61702,173.06233 374.40977,173.06233 374.40977,172.85508 374.55632,172.58713 374.40977,172.44058 374.26322,172.29403 373.93456,172.58713 373.78802,172.44058 373.49492,172.14748 374.08111,171.49017 373.78802,171.19708 373.64147,171.05053 373.31281,171.34362 373.16626,171.19708 373.01972,171.05053 373.31281,170.72187 373.16626,170.57532 373.01972,170.42877 372.69106,170.72187 372.54451,170.57532 372.39796,170.42877 372.69106,170.10012 372.54451,169.95357 372.39796,169.80702 372.06931,170.10012 371.92276,169.95357 371.77621,169.80702 372.06931,169.47837 371.92276,169.33182 371.77621,169.18527 371.44756,169.47837 371.30101,169.33182 371.15446,169.18527 371.44756,168.85662 371.30101,168.71007 371.15446,168.56352 370.8258,168.85662 370.67926,168.71007 370.53271,168.56352 370.8258,168.23486 370.67926,168.08831 370.53271,167.94177 370.20405,168.23486 370.0575,168.08831 369.91096,167.94177 370.20405,167.61311 370.0575,167.46656 369.91096,167.32001 369.5823,167.61311 369.43575,167.46656 369.2892,167.32001 369.5823,166.99136 369.43575,166.84481 368.60675,166.01581 368.814,167.88106 368.814,166.22306 368.814,164.56505 369.02125,166.43031 368.19225,165.60131 368.0457,165.45476 368.3388,165.1261 368.19225,164.97955 368.0457,164.83301 367.5705,164.7723 367.5705,164.97955 367.5705,165.1868 368.00688,164.88685 368.19225,164.97955 368.62414,165.1955 370.67926,167.69683 370.67926,165.60131"
       inkscape:connector-curvature="0"
       id="path2595"
       style="opacity:0.6;fill:none;stroke:#e20000;stroke-opacity:1" />
    <path
       d="M 508.70822,148.814 C 509.32997,149.643 509.74447,151.92276 510.57348,151.30101 511.40248,150.67926 507.97548,148.08126 508.70822,148.814 509.53722,149.85025 510.36623,150.88651 511.19523,151.92276 511.19523,152.13001 511.10253,152.35914 511.19523,152.54451 511.32631,152.80667 511.6859,152.90411 511.81698,153.16626 511.90968,153.35164 511.72428,153.60265 511.81698,153.78802 511.94806,154.05017 512.30766,154.14761 512.43873,154.40977 512.84992,155.23214 512.43873,159.47035 512.43873,160.62729 512.43873,161.04179 512.73183,161.5777 512.43873,161.87079 512.29219,162.01734 511.96353,161.72425 511.81698,161.87079 511.52957,162.15821 512.00468,163.36065 511.81698,163.73605 511.6859,163.9982 511.32631,164.09565 511.19523,164.3578 510.94653,164.8552 511.44393,165.72566 511.19523,166.22306 511.06415,166.48521 510.70455,166.58266 510.57348,166.84481 510.38811,167.21555 510.86657,167.79522 510.57348,168.08831 510.42693,168.23486 510.09827,167.94177 509.95173,168.08831 509.90113,168.13891 509.95173,173.14651 509.95173,173.68408 509.95173,173.9401 509.78714,175.38476 509.95173,175.54934 510.09827,175.69589 510.42693,175.40279 510.57348,175.54934 510.86657,175.84244 510.38811,176.4221 510.57348,176.79284 510.93561,177.51711 511.45485,177.93384 511.81698,178.6581 512.00235,179.02884 511.52388,179.60851 511.81698,179.9016 511.96353,180.04815 512.29219,179.75506 512.43873,179.9016 512.73183,180.1947 512.14564,180.85201 512.43873,181.14511 512.58528,181.29166 512.91394,180.99856 513.06049,181.14511 513.20703,181.29166 512.96779,181.58149 513.06049,181.76686 513.42262,182.49112 513.94186,182.90786 514.30399,183.63212 514.39669,183.81749 514.21129,184.0685 514.30399,184.25387 514.43507,184.51602 514.79467,184.61347 514.92574,184.87562 515.01844,185.06099 514.83304,185.312 514.92574,185.49737 515.05682,185.75953 515.41642,185.85697 515.54749,186.11913 515.64019,186.3045 515.40095,186.59433 515.54749,186.74088 515.69404,186.88743 516.0227,186.59433 516.16925,186.74088 516.31579,186.88743 516.07655,187.17726 516.16925,187.36263 516.53138,188.08689 517.05062,188.50362 517.41275,189.22789 517.50545,189.41326 517.2662,189.70309 517.41275,189.84964 517.5593,189.99619 517.88795,189.70309 518.0345,189.84964 518.3276,190.14273 517.84913,190.7224 518.0345,191.09314 518.29666,191.61745 519.01585,191.81234 519.27801,192.33665 519.37071,192.52202 519.18531,192.77303 519.27801,192.9584 519.40908,193.22055 519.76868,193.318 519.89976,193.58015 520.08513,193.95089 519.60666,194.53056 519.89976,194.82365 520.04631,194.9702 520.37496,194.67711 520.52151,194.82365 520.66806,194.9702 520.42881,195.26004 520.52151,195.44541 520.65259,195.70756 521.01219,195.80501 521.14326,196.06716 521.32863,196.4379 520.85017,197.01757 521.14326,197.31066 521.28981,197.45721 521.61847,197.16411 521.76501,197.31066 522.05811,197.60376 521.47192,198.26107 521.76501,198.55417 521.91156,198.70072 522.24022,198.40762 522.38677,198.55417 522.80145,198.96885 521.97208,199.38298 522.38677,199.79767 522.53332,199.94422 522.86197,199.65112 523.00852,199.79767 523.29593,200.08509 522.82082,201.28753 523.00852,201.66293 523.1396,201.92508 523.49919,202.02253 523.63027,202.28468 523.93954,202.90322 523.78787,206.47934 523.63027,206.63694 523.48372,206.78349 523.15507,206.4904 523.00852,206.63694 522.61413,207.03133 523.26735,208.60629 523.00852,209.12395 522.87744,209.38611 522.51784,209.48355 522.38677,209.7457 522.12794,210.26337 522.78115,211.83833 522.38677,212.23271 522.24022,212.37926 521.91156,212.08616 521.76501,212.23271 521.47192,212.52581 522.05811,213.18312 521.76501,213.47622 521.61847,213.62277 521.28981,213.32967 521.14326,213.47622 520.72858,213.8909 521.55795,214.30503 521.14326,214.71972 520.99671,214.86627 520.66806,214.57317 520.52151,214.71972 520.37496,214.86627 520.66806,215.19493 520.52151,215.34147 520.37496,215.48802 520.04631,215.19493 519.89976,215.34147 519.75321,215.48802 519.99246,215.77786 519.89976,215.96323 519.6376,216.48753 519.18056,216.94458 518.65625,217.20673 518.47088,217.29943 518.18105,217.06018 518.0345,217.20673 517.88795,217.35328 518.18105,217.68193 518.0345,217.82848 517.88795,217.97503 517.59812,217.73578 517.41275,217.82848 517.1506,217.95956 517.05315,218.31916 516.791,218.45023 516.42026,218.6356 515.91824,218.26486 515.54749,218.45023 515.28534,218.58131 515.1879,218.94091 514.92574,219.07199 514.26254,219.40359 513.10194,218.74039 512.43873,219.07199 512.17658,219.20306 512.07914,219.56266 511.81698,219.69374 511.16321,220.02062 509.45503,219.69374 508.70822,219.69374 508.50097,219.69374 508.23302,219.84029 508.08647,219.69374 507.93992,219.54719 508.23302,219.21853 508.08647,219.07199 507.77559,218.76111 506.53209,219.38286 506.22121,219.07199 506.07466,218.92544 506.36776,218.59678 506.22121,218.45023 505.92812,218.15714 505.27081,218.74333 504.97771,218.45023 504.83116,218.30369 505.12426,217.97503 504.97771,217.82848 504.68461,217.53539 504.10495,218.01385 503.7342,217.82848 503.2099,217.56633 503.01501,216.84713 502.4907,216.58498 502.30533,216.49228 502.05432,216.67768 501.86895,216.58498 501.60679,216.4539 501.50935,216.0943 501.2472,215.96323 501.06183,215.87053 500.81081,216.05593 500.62544,215.96323 500.21094,215.75598 498.96744,214.51247 498.76019,214.09797 498.66749,213.9126 498.90674,213.62277 498.76019,213.47622 498.61364,213.32967 498.32381,213.56892 498.13844,213.47622 497.53755,213.17577 495.95187,211.5901 495.65143,210.98921 495.55873,210.80384 495.74413,210.55283 495.65143,210.36746 495.27838,209.62135 494.15922,209.2483 493.78617,208.5022 493.69347,208.31683 493.93272,208.027 493.78617,207.88045 493.63962,207.7339 493.31097,208.027 493.16442,207.88045 493.01787,207.7339 493.31097,207.40524 493.16442,207.2587 493.01787,207.11215 492.68921,207.40524 492.54267,207.2587 492.39612,207.11215 492.63537,206.82232 492.54267,206.63694 492.41159,206.37479 492.05199,206.27735 491.92091,206.01519 491.82821,205.82982 492.06746,205.53999 491.92091,205.39344 491.77437,205.24689 491.48453,205.48614 491.29916,205.39344 490.88466,205.18619 489.64116,203.94269 489.43391,203.52818 489.34121,203.34281 489.58045,203.05298 489.43391,202.90643 489.28736,202.75988 488.9587,203.05298 488.81215,202.90643 488.66561,202.75988 488.9587,202.43123 488.81215,202.28468 487.15415,202.28468 489.0194,202.49193 488.1904,201.66293 488.04385,201.51638 487.7152,201.80948 487.56865,201.66293 487.4221,201.51638 487.7152,201.18772 487.56865,201.04118 487.4221,200.89463 487.09345,201.18772 486.9469,201.04118 486.80035,200.89463 487.09345,200.56597 486.9469,200.41942 486.80035,200.27288 486.47169,200.56597 486.32515,200.41942 486.1786,200.27288 486.47169,199.94422 486.32515,199.79767 484.66714,199.79767 486.5324,200.00492 485.70339,199.17592 485.55685,199.02937 485.22819,199.32247 485.08164,199.17592 484.93509,199.02937 485.22819,198.70072 485.08164,198.55417 483.42364,198.55417 485.28889,198.76142 484.45989,197.93242 484.31334,197.78587 483.98469,198.07896 483.83814,197.93242 483.69159,197.78587 483.98469,197.45721 483.83814,197.31066 483.69159,197.16411 483.36293,197.45721 483.21639,197.31066 483.06984,197.16411 483.36293,196.83546 483.21639,196.68891 483.06984,196.54236 482.74118,196.83546 482.59463,196.68891 482.44808,196.54236 482.74118,196.21371 482.59463,196.06716 482.44808,195.92061 482.15825,196.15986 481.97288,196.06716 481.44857,195.80501 481.25368,195.08581 480.72938,194.82365 480.54401,194.73095 480.25417,194.9702 480.10762,194.82365 479.96108,194.67711 480.25417,194.34845 480.10762,194.2019 479.81453,193.90881 479.15722,194.495 478.86412,194.2019 478.71757,194.05535 479.01067,193.7267 478.86412,193.58015 478.71757,193.4336 478.42774,193.67285 478.24237,193.58015 477.98021,193.44907 477.88277,193.08948 477.62062,192.9584 477.43525,192.8657 477.14541,193.10495 476.99886,192.9584 476.85232,192.81185 477.14541,192.48319 476.99886,192.33665 476.85232,192.1901 476.52366,192.48319 476.37711,192.33665 476.23056,192.1901 476.52366,191.86144 476.37711,191.71489 476.08402,191.4218 475.4267,192.00799 475.13361,191.71489 474.98706,191.56835 475.28016,191.23969 475.13361,191.09314 474.84051,190.80005 474.26084,191.27851 473.8901,191.09314 473.62795,190.96207 473.53051,190.60247 473.26835,190.47139 472.89761,190.28602 472.31794,190.76449 472.02485,190.47139 471.8783,190.32484 472.1714,189.99619 472.02485,189.84964 471.63046,189.45525 470.0555,190.10847 469.53784,189.84964 469.27569,189.71856 469.17824,189.35896 468.91609,189.22789 468.76642,189.15309 462.84823,189.15309 462.69857,189.22789 462.43641,189.35896 462.33897,189.71856 462.07681,189.84964 461.17664,190.29972 456.33288,189.37605 455.85929,189.84964 455.03029,190.67864 456.89555,190.47139 455.23754,190.47139 454.85812,190.47139 452.99279,190.22913 452.75053,190.47139 452.60398,190.61794 452.89708,190.94659 452.75053,191.09314 452.70723,191.13644 448.25292,191.09314 447.77652,191.09314 446.11851,191.09314 447.98377,190.88589 447.15476,191.71489 447.10416,191.76549 442.09657,191.71489 441.55899,191.71489 439.90099,191.71489 438.24298,191.71489 436.58498,191.71489 435.30042,191.71489 436.36187,190.07274 435.34147,191.09314 434.70086,191.73376 435.96323,192.00668 435.96323,191.71489 435.96323,191.50764 435.52684,191.80759 435.34147,191.71489 435.07932,191.58382 434.92697,191.30039 434.71972,191.09314 434.30522,190.88589 433.89072,190.67864 433.47622,190.47139"
       inkscape:connector-curvature="0"
       id="path2597"
       style="opacity:0.6;fill:none;stroke:#e20000;stroke-opacity:1" />
    <path
       d="M 527.98254,165.60131 C 527.56803,166.43031 527.08326,167.22775 526.73903,168.08831 526.66053,168.28459 526.66463,172.29169 526.73903,172.44058 526.87011,172.70273 527.22971,172.80018 527.36078,173.06233 527.60948,173.55973 527.11208,174.43019 527.36078,174.92759 527.49186,175.18974 527.85146,175.28719 527.98254,175.54934 528.23124,176.04674 527.73384,176.91719 527.98254,177.4146 528.34467,178.13886 528.86391,178.55559 529.22604,179.27985 529.31874,179.46522 529.13334,179.71623 529.22604,179.9016 529.58817,180.62587 530.10741,181.0426 530.46954,181.76686 530.56224,181.95223 530.323,182.24206 530.46954,182.38861 530.61609,182.53516 530.94475,182.24206 531.0913,182.38861 531.38439,182.68171 530.90593,183.26138 531.0913,183.63212 531.45343,184.35638 531.97267,184.77311 532.3348,185.49737 532.52017,185.86811 532.0417,186.44778 532.3348,186.74088 532.48135,186.88743 532.81,186.59433 532.95655,186.74088 533.24965,187.03397 532.66346,187.69128 532.95655,187.98438 533.1031,188.13093 533.43176,187.83783 533.5783,187.98438 533.8714,188.27748 533.39293,188.85714 533.5783,189.22789 533.94044,189.95215 534.45968,190.36888 534.82181,191.09314 534.91451,191.27851 534.67526,191.56835 534.82181,191.71489 534.96836,191.86144 535.29701,191.56835 535.44356,191.71489 535.73666,192.00799 535.15046,192.6653 535.44356,192.9584 535.59011,193.10495 535.91876,192.81185 536.06531,192.9584 536.21186,193.10495 535.97261,193.39478 536.06531,193.58015 536.42744,194.30441 536.94669,194.72114 537.30882,195.44541 537.49419,195.81615 537.12345,196.31817 537.30882,196.68891 537.43989,196.95106 537.79949,197.04851 537.93057,197.31066 538.11827,197.68606 537.64316,198.88851 537.93057,199.17592 538.07712,199.32247 538.40577,199.02937 538.55232,199.17592 539.04858,199.67218 538.22617,201.63237 538.55232,202.28468 538.6834,202.54683 539.043,202.64428 539.17407,202.90643 539.58526,203.7288 539.17407,207.96701 539.17407,209.12395 539.17407,210.16379 539.54351,213.98085 539.17407,214.71972 539.043,214.98188 538.6834,215.07932 538.55232,215.34147 538.36462,215.71687 538.83974,216.91932 538.55232,217.20673 538.40577,217.35328 538.07712,217.06018 537.93057,217.20673 537.61969,217.51761 538.24145,218.76111 537.93057,219.07199 537.78402,219.21853 537.45537,218.92544 537.30882,219.07199 537.01572,219.36508 537.60191,220.02239 537.30882,220.31549 537.16227,220.46204 536.83361,220.16894 536.68707,220.31549 536.39397,220.60859 536.98016,221.2659 536.68707,221.55899 536.54052,221.70554 536.21186,221.41245 536.06531,221.55899 535.91876,221.70554 536.15801,221.99538 536.06531,222.18075 535.93424,222.4429 535.57464,222.54035 535.44356,222.8025 535.35086,222.98787 535.59011,223.2777 535.44356,223.42425 535.29701,223.5708 534.96836,223.2777 534.82181,223.42425 534.67526,223.5708 534.91451,223.86063 534.82181,224.046 534.62998,224.42967 532.09671,226.96293 531.71305,227.15476 531.52768,227.24746 531.23784,227.00822 531.0913,227.15476 530.94475,227.30131 531.23784,227.62997 531.0913,227.77652 530.7982,228.06961 530.14089,227.48342 529.84779,227.77652 529.70124,227.92306 529.99434,228.25172 529.84779,228.39827 529.5547,228.69136 528.89738,228.10517 528.60429,228.39827 528.45774,228.54482 528.75084,228.87347 528.60429,229.02002 528.31119,229.31312 527.73153,228.83465 527.36078,229.02002 526.63652,229.38215 526.21979,229.90139 525.49553,230.26352 525.31016,230.35622 525.02032,230.11698 524.87378,230.26352 524.72723,230.41007 525.02032,230.73873 524.87378,230.88528 524.5629,231.19615 523.3194,230.5744 523.00852,230.88528 522.86197,231.03182 523.15507,231.36048 523.00852,231.50703 522.80214,231.71341 518.24088,231.71341 518.0345,231.50703 517.88795,231.36048 518.18105,231.03182 518.0345,230.88528 517.51638,230.36715 515.44387,231.4034 514.92574,230.88528 514.77919,230.73873 515.07229,230.41007 514.92574,230.26352 514.77919,230.11698 514.48936,230.35622 514.30399,230.26352 513.57973,229.90139 513.163,229.38215 512.43873,229.02002 512.25336,228.92732 511.96353,229.16657 511.81698,229.02002 511.67043,228.87347 511.96353,228.54482 511.81698,228.39827 511.52388,228.10517 510.86657,228.69136 510.57348,228.39827 510.42693,228.25172 510.72003,227.92306 510.57348,227.77652 510.28038,227.48342 509.62307,228.06961 509.32997,227.77652 509.18342,227.62997 509.47652,227.30131 509.32997,227.15476 509.03688,226.86167 508.37957,227.44786 508.08647,227.15476 507.93992,227.00822 508.23302,226.67956 508.08647,226.53301 507.93992,226.38646 507.65009,226.62571 507.46472,226.53301 506.94041,226.27086 506.74552,225.55166 506.22121,225.28951 506.03584,225.19681 505.74601,225.43606 505.59946,225.28951 505.45291,225.14296 505.69216,224.85313 505.59946,224.66776 505.46838,224.4056 505.10879,224.30816 504.97771,224.046 504.88501,223.86063 505.12426,223.5708 504.97771,223.42425 504.83116,223.2777 504.5025,223.5708 504.35596,223.42425 504.20941,223.2777 504.5025,222.94905 504.35596,222.8025 504.20941,222.65595 503.88075,222.94905 503.7342,222.8025 503.44111,222.5094 504.0273,221.85209 503.7342,221.55899 503.58766,221.41245 503.259,221.70554 503.11245,221.55899 502.80158,221.24812 503.42333,220.00461 503.11245,219.69374 502.51568,219.09696 502.4907,220.24911 502.4907,218.45023 502.4907,218.03573 502.7838,217.49983 502.4907,217.20673 501.89392,216.60995 501.86895,217.7621 501.86895,215.96323"
       inkscape:connector-curvature="0"
       id="path2599"
       style="opacity:0.6;fill:none;stroke:#e20000;stroke-opacity:1" />
    <path
       d="M 537.30882,207.88045 C 537.27462,211.5062 540.16185,208.24648 541.03933,209.12395 541.18588,209.2705 540.89278,209.59916 541.03933,209.7457 541.32674,210.03312 542.52919,209.55801 542.90459,209.7457 543.16674,209.87678 543.26418,210.23638 543.52634,210.36746 544.044,210.62629 545.61896,209.97307 546.01335,210.36746 546.15989,210.51401 545.8668,210.84266 546.01335,210.98921 546.32422,211.30009 547.56773,210.67833 547.8786,210.98921 548.02515,211.13576 547.73205,211.46441 547.8786,211.61096 548.1717,211.90406 548.75137,211.42559 549.12211,211.61096 549.38426,211.74204 549.48171,212.10164 549.74386,212.23271 549.92923,212.32541 550.21906,212.08616 550.36561,212.23271 550.51216,212.37926 550.21906,212.70792 550.36561,212.85447 550.51216,213.00101 550.84081,212.70792 550.98736,212.85447 551.13391,213.00101 550.84081,213.32967 550.98736,213.47622 551.13391,213.62277 551.46257,213.32967 551.60912,213.47622 552.0238,213.8909 551.19443,214.30503 551.60912,214.71972 551.75566,214.86627 552.02362,214.71972 552.23087,214.71972 552.23087,214.92697 552.08432,215.19493 552.23087,215.34147 552.37742,215.48802 552.70607,215.19493 552.85262,215.34147 552.99917,215.48802 552.70607,215.81668 552.85262,215.96323 552.99917,216.10977 553.32782,215.81668 553.47437,215.96323 553.62092,216.10977 553.38167,216.39961 553.47437,216.58498 553.60545,216.84713 553.96505,216.94458 554.09612,217.20673 554.18882,217.3921 553.94958,217.68193 554.09612,217.82848 554.24267,217.97503 554.57133,217.68193 554.71788,217.82848 554.86442,217.97503 554.62518,218.26486 554.71788,218.45023 554.84895,218.71239 555.20855,218.80983 555.33963,219.07199 555.525,219.44273 555.04653,220.02239 555.33963,220.31549 555.48618,220.46204 555.81483,220.16894 555.96138,220.31549 556.25448,220.60859 555.77601,221.18825 555.96138,221.55899 556.09246,221.82115 556.45206,221.91859 556.58313,222.18075 556.83183,222.67815 556.33443,223.5486 556.58313,224.046 556.71421,224.30816 557.07381,224.4056 557.20488,224.66776 557.30492,224.86783 557.30492,232.55046 557.20488,232.75053 557.07381,233.01269 556.71421,233.11013 556.58313,233.37228 556.27362,233.99131 556.90483,237.40285 556.58313,237.72455 556.43658,237.8711 556.10793,237.578 555.96138,237.72455 555.66828,238.01765 556.25448,238.67496 555.96138,238.96805 555.81483,239.1146 555.48618,238.82151 555.33963,238.96805 555.19308,239.1146 555.43233,239.40443 555.33963,239.58981 555.20855,239.85196 554.84895,239.9494 554.71788,240.21156 554.53251,240.5823 555.01097,241.16197 554.71788,241.45506 554.57133,241.60161 554.24267,241.30851 554.09612,241.45506 553.94958,241.60161 554.18882,241.89144 554.09612,242.07681 553.83397,242.60112 553.11477,242.79601 552.85262,243.32032 552.75992,243.50569 552.99917,243.79552 552.85262,243.94207 552.70607,244.08862 552.37742,243.79552 552.23087,243.94207 552.08432,244.08862 552.37742,244.41727 552.23087,244.56382 552.08432,244.71037 551.75566,244.41727 551.60912,244.56382 551.31602,244.85692 551.90221,245.51423 551.60912,245.80733 550.32269,247.09375 551.65942,243.8415 550.36561,246.42908 550.27291,246.61445 550.51216,246.90428 550.36561,247.05083 550.07251,247.34393 549.4152,246.75773 549.12211,247.05083 548.97556,247.19738 549.26866,247.52603 549.12211,247.67258 548.97556,247.81913 548.6469,247.52603 548.50035,247.67258 548.35381,247.81913 548.6469,248.14779 548.50035,248.29433 548.35381,248.44088 548.06397,248.20163 547.8786,248.29433 547.3543,248.55649 547.15941,249.27569 546.6351,249.53784 546.44973,249.63054 546.19872,249.44514 546.01335,249.53784 545.75119,249.66892 545.65375,250.02851 545.39159,250.15959 545.20622,250.25229 544.91639,250.01304 544.76984,250.15959 544.62329,250.30614 544.91639,250.63479 544.76984,250.78134 544.47675,251.07444 543.81943,250.48825 543.52634,250.78134 543.37979,250.92789 543.67289,251.25655 543.52634,251.4031 541.86833,251.4031 543.73359,251.19584 542.90459,252.02485 542.75804,252.1714 542.4682,251.93215 542.28283,252.02485 541.86833,252.2321 540.62483,253.4756 540.41758,253.8901 540.32488,254.07547 540.56413,254.36531 540.41758,254.51186 540.27103,254.6584 539.94237,254.36531 539.79583,254.51186 539.64928,254.6584 539.94237,254.98706 539.79583,255.13361 539.64928,255.28016 539.32062,254.98706 539.17407,255.13361 539.02753,255.28016 539.26677,255.56999 539.17407,255.75536 539.043,256.01751 538.6834,256.11496 538.55232,256.37711 538.45962,256.56248 538.69887,256.85232 538.55232,256.99886 538.40577,257.14541 538.07712,256.85232 537.93057,256.99886 537.78402,257.14541 538.02327,257.43525 537.93057,257.62062 537.79949,257.88277 537.43989,257.98021 537.30882,258.24237 537.21612,258.42774 537.45537,258.71757 537.30882,258.86412 537.16227,259.01067 536.83361,258.71757 536.68707,258.86412 536.39397,259.15722 536.98016,259.81453 536.68707,260.10762 536.54052,260.25417 536.21186,259.96108 536.06531,260.10762 535.77222,260.40072 536.35841,261.05803 536.06531,261.35113 535.91876,261.49768 535.59011,261.20458 535.44356,261.35113 535.29701,261.49768 535.53626,261.78751 535.44356,261.97288 535.31248,262.23503 534.95289,262.33248 534.82181,262.59463 534.63644,262.96537 535.00718,263.4674 534.82181,263.83814 534.69073,264.10029 534.33113,264.19774 534.20006,264.45989 533.95136,264.95729 534.44876,265.82774 534.20006,266.32515 534.06898,266.5873 533.70938,266.68474 533.5783,266.9469 533.1638,267.7759 533.99281,269.22666 533.5783,270.05566 533.44723,270.31781 533.08763,270.41526 532.95655,270.67741 532.62495,271.34061 533.28815,272.50122 532.95655,273.16442 532.82548,273.42657 532.46588,273.52402 532.3348,273.78617 532.14943,274.15691 532.52017,274.65893 532.3348,275.02967 532.20372,275.29183 531.84413,275.38927 531.71305,275.65143 531.52768,276.02217 532.00615,276.60183 531.71305,276.89493 531.5665,277.04148 531.23784,276.74838 531.0913,276.89493 530.7982,277.18803 531.38439,277.84534 531.0913,278.13844 530.94475,278.28498 530.61609,277.99189 530.46954,278.13844 530.05396,278.55402 530.88513,278.96636 530.46954,279.38194 530.323,279.52849 529.99434,279.23539 529.84779,279.38194 529.5547,279.67504 530.14089,280.33235 529.84779,280.62544 529.70124,280.77199 529.37259,280.4789 529.22604,280.62544 528.93294,280.91854 529.51914,281.57585 529.22604,281.86895 529.07949,282.0155 528.75084,281.7224 528.60429,281.86895 528.31119,282.16204 528.78966,282.74171 528.60429,283.11245 528.47321,283.37461 528.11361,283.47205 527.98254,283.7342 527.88984,283.91957 528.12908,284.20941 527.98254,284.35596 527.83599,284.5025 527.50733,284.20941 527.36078,284.35596 527.06769,284.64905 527.65388,285.30636 527.36078,285.59946 527.21424,285.74601 526.88558,285.45291 526.73903,285.59946 526.59248,285.74601 526.88558,286.07466 526.73903,286.22121 526.59248,286.36776 526.26383,286.07466 526.11728,286.22121 525.97073,286.36776 526.26383,286.69642 526.11728,286.84296 524.45927,286.84296 526.32453,286.63571 525.49553,287.46472 525.34898,287.61127 525.02032,287.31817 524.87378,287.46472 524.72723,287.61127 525.02032,287.93992 524.87378,288.08647 524.72723,288.23302 524.39857,287.93992 524.25202,288.08647 524.10547,288.23302 524.34472,288.52285 524.25202,288.70822 524.12095,288.97037 523.76135,289.06782 523.63027,289.32997 523.53757,289.51534 523.77682,289.80518 523.63027,289.95173 523.48372,290.09827 523.15507,289.80518 523.00852,289.95173 522.86197,290.09827 523.10122,290.38811 523.00852,290.57348 522.87744,290.83563 522.51784,290.93308 522.38677,291.19523 522.29407,291.3806 522.53332,291.67043 522.38677,291.81698 522.24022,291.96353 521.91156,291.67043 521.76501,291.81698 521.61847,291.96353 521.91156,292.29219 521.76501,292.43873 521.61847,292.58528 521.28981,292.29219 521.14326,292.43873 520.99671,292.58528 521.23596,292.87511 521.14326,293.06049 520.88111,293.58479 520.16191,293.77968 519.89976,294.30399 519.80706,294.48936 520.04631,294.77919 519.89976,294.92574 519.75321,295.07229 519.46338,294.83304 519.27801,294.92574 516.69042,296.21953 519.94268,294.88284 518.65625,296.16925 518.50971,296.31579 518.18105,296.0227 518.0345,296.16925 517.88795,296.31579 518.18105,296.64445 518.0345,296.791 517.88795,296.93755 517.5593,296.64445 517.41275,296.791 517.2662,296.93755 517.5593,297.2662 517.41275,297.41275 517.2662,297.5593 516.93755,297.2662 516.791,297.41275 516.64445,297.5593 516.8837,297.84913 516.791,298.0345 515.49721,300.62209 516.8339,297.36983 515.54749,298.65625 515.40095,298.8028 515.69404,299.13146 515.54749,299.27801 515.40095,299.42455 515.07229,299.13146 514.92574,299.27801 514.77919,299.42455 515.07229,299.75321 514.92574,299.89976 514.77919,300.04631 514.45054,299.75321 514.30399,299.89976 514.15744,300.04631 514.45054,300.37496 514.30399,300.52151 514.15744,300.66806 513.82879,300.37496 513.68224,300.52151 513.53569,300.66806 513.68224,300.93601 513.68224,301.14326 513.47499,301.14326 513.24586,301.05056 513.06049,301.14326 510.4729,302.43705 513.72516,301.10036 512.43873,302.38677 512.29219,302.53332 512.00235,302.29407 511.81698,302.38677 511.55483,302.51784 511.45738,302.87744 511.19523,303.00852 511.00986,303.10122 510.72003,302.86197 510.57348,303.00852 510.42693,303.15507 510.72003,303.48372 510.57348,303.63027 510.42693,303.77682 510.09827,303.48372 509.95173,303.63027 509.80518,303.77682 510.09827,304.10547 509.95173,304.25202 509.80518,304.39857 509.47652,304.10547 509.32997,304.25202 509.18342,304.39857 509.47652,304.72723 509.32997,304.87378 508.91439,305.28936 508.50205,304.45819 508.08647,304.87378 507.93992,305.02032 508.23302,305.34898 508.08647,305.49553 507.93992,305.64208 507.61127,305.34898 507.46472,305.49553 507.31817,305.64208 507.61127,305.97073 507.46472,306.11728 507.17162,306.41038 506.51431,305.82418 506.22121,306.11728 506.07466,306.26383 506.22121,306.53178 506.22121,306.73903 506.01396,306.73903 505.74601,306.59248 505.59946,306.73903 505.45291,306.88558 505.74601,307.21424 505.59946,307.36078 505.45291,307.50733 505.16308,307.26808 504.97771,307.36078 504.4534,307.62294 504.25851,308.34213 503.7342,308.60429 503.54883,308.69699 503.259,308.45774 503.11245,308.60429 502.9659,308.75084 503.259,309.07949 503.11245,309.22604 502.9659,309.37259 502.63725,309.07949 502.4907,309.22604 502.34415,309.37259 502.63725,309.70124 502.4907,309.84779 502.34415,309.99434 502.0155,309.70124 501.86895,309.84779 501.7224,309.99434 502.0155,310.323 501.86895,310.46954 501.7224,310.61609 501.43257,310.37684 501.2472,310.46954 500.72289,310.7317 500.528,311.45089 500.00369,311.71305 499.81832,311.80575 499.52849,311.5665 499.38194,311.71305 499.23539,311.8596 499.52849,312.18825 499.38194,312.3348 498.96455,312.75219 498.55583,311.91741 498.13844,312.3348 497.99189,312.48135 498.28498,312.81 498.13844,312.95655 497.99189,313.1031 497.66323,312.81 497.51668,312.95655 497.37013,313.1031 497.66323,313.43176 497.51668,313.5783 497.37013,313.72485 497.0803,313.4856 496.89493,313.5783 496.63278,313.70938 496.53533,314.06898 496.27318,314.20006 496.08781,314.29276 495.8368,314.10736 495.65143,314.20006 494.90532,314.57311 494.53227,315.69226 493.78617,316.06531 493.6008,316.15801 493.37167,316.06531 493.16442,316.06531 492.95717,316.27256 492.80482,316.55599 492.54267,316.68707 492.17193,316.87244 491.59226,316.39397 491.29916,316.68707 491.15261,316.83361 491.44571,317.16227 491.29916,317.30882 491.15261,317.45537 490.86278,317.21612 490.67741,317.30882 490.41526,317.43989 490.31781,317.79949 490.05566,317.93057 489.87029,318.02327 489.58045,317.78402 489.43391,317.93057 489.28736,318.07712 489.58045,318.40577 489.43391,318.55232 489.28736,318.69887 488.99752,318.45962 488.81215,318.55232 488.55,318.6834 488.45256,319.043 488.1904,319.17407 488.00503,319.26677 487.7152,319.02753 487.56865,319.17407 487.4221,319.32062 487.7152,319.64928 487.56865,319.79583 487.4221,319.94237 487.13227,319.70313 486.9469,319.79583 486.42259,320.05798 486.2277,320.77718 485.70339,321.03933 485.51802,321.13203 485.22819,320.89278 485.08164,321.03933 484.93509,321.18588 485.22819,321.51453 485.08164,321.66108 484.93509,321.80763 484.64526,321.56838 484.45989,321.66108 483.71379,322.03413 483.34074,323.15329 482.59463,323.52634 482.40926,323.61904 482.11943,323.37979 481.97288,323.52634 481.82633,323.67289 482.11943,324.00154 481.97288,324.14809 481.82633,324.29464 481.5365,324.05539 481.35113,324.14809 481.08898,324.27917 480.99153,324.63877 480.72938,324.76984 480.54401,324.86254 480.25417,324.62329 480.10762,324.76984 479.96108,324.91639 480.25417,325.24505 480.10762,325.39159 478.44962,325.39159 480.31488,325.18434 479.48587,326.01335 479.33932,326.15989 479.01067,325.8668 478.86412,326.01335 478.71757,326.15989 479.01067,326.48855 478.86412,326.6351 478.71757,326.78165 478.42774,326.5424 478.24237,326.6351 477.98021,326.76618 477.88277,327.12577 477.62062,327.25685 477.43525,327.34955 477.14541,327.1103 476.99886,327.25685 476.85232,327.4034 477.14541,327.73205 476.99886,327.8786 476.85232,328.02515 476.56248,327.7859 476.37711,327.8786 475.8528,328.14076 475.39576,328.5978 475.13361,329.12211 475.04091,329.30748 475.28016,329.59731 475.13361,329.74386 474.98706,329.89041 474.69723,329.65116 474.51186,329.74386 473.51705,330.24126 473.01965,331.73347 472.02485,332.23087 471.83948,332.32357 471.54964,332.08432 471.4031,332.23087 471.25655,332.37742 471.4958,332.66725 471.4031,332.85262 469.341,334.91471 471.69619,332.26643 470.78134,334.09612 470.40829,334.84223 469.28914,335.21528 468.91609,335.96138 468.82339,336.14675 469.06264,336.43658 468.91609,336.58313 468.76954,336.72968 468.44088,336.43658 468.29433,336.58313 467.00791,337.86956 470.26017,336.53283 467.67258,337.82664 467.48721,337.91934 467.19738,337.68009 467.05083,337.82664 466.90428,337.97318 467.19738,338.30184 467.05083,338.44839 466.90428,338.59494 466.57563,338.30184 466.42908,338.44839 466.28253,338.59494 466.57563,338.92359 466.42908,339.07014 466.28253,339.21669 466.01458,339.07014 465.80733,339.07014 465.60008,339.07014 465.33212,339.21669 465.18557,339.07014 465.03903,338.92359 465.33212,338.59494 465.18557,338.44839 465.03903,338.30184 464.71037,338.59494 464.56382,338.44839 464.27073,338.15529 464.85692,337.49798 464.56382,337.20488 464.41727,337.05834 464.08862,337.35143 463.94207,337.20488 463.69981,336.96263 463.94207,335.0973 463.94207,334.71788 463.94207,333.97107 463.61519,332.26289 463.94207,331.60912 464.07315,331.34696 464.43275,331.24952 464.56382,330.98736 464.74919,330.61662 464.37845,330.1146 464.56382,329.74386 466.62591,327.68177 464.27073,330.33005 465.18557,328.50035 465.31665,328.2382 465.67625,328.14076 465.80733,327.8786 465.90003,327.69323 465.71463,327.44222 465.80733,327.25685 465.9384,326.9947 466.298,326.89725 466.42908,326.6351 466.52178,326.44973 466.33638,326.19872 466.42908,326.01335 466.56016,325.75119 466.91975,325.65375 467.05083,325.39159 467.14353,325.20622 466.90428,324.91639 467.05083,324.76984 467.19738,324.62329 467.52603,324.91639 467.67258,324.76984 467.81913,324.62329 467.57988,324.33346 467.67258,324.14809 467.93474,323.62378 468.65393,323.42889 468.91609,322.90459 469.3449,322.04697 468.16311,322.34845 469.53784,321.66108 469.72321,321.56838 470.01304,321.80763 470.15959,321.66108 470.30614,321.51453 470.01304,321.18588 470.15959,321.03933 470.30614,320.89278 470.63479,321.18588 470.78134,321.03933 472.06777,319.7529 468.81551,321.08963 471.4031,319.79583 471.58847,319.70313 471.8783,319.94237 472.02485,319.79583 472.1714,319.64928 471.8783,319.32062 472.02485,319.17407 472.1714,319.02753 472.50005,319.32062 472.6466,319.17407 472.79315,319.02753 472.50005,318.69887 472.6466,318.55232 473.93303,317.26589 472.5963,320.51815 473.8901,317.93057 473.8901,316.27256 473.68285,318.13782 474.51186,317.30882 474.6584,317.16227 474.36531,316.83361 474.51186,316.68707 474.6584,316.54052 474.98706,316.83361 475.13361,316.68707 475.28016,316.54052 474.98706,316.21186 475.13361,316.06531 475.28016,315.91876 475.60881,316.21186 475.75536,316.06531 475.90191,315.91876 475.60881,315.59011 475.75536,315.44356 475.90191,315.29701 476.23056,315.59011 476.37711,315.44356 476.52366,315.29701 476.23056,314.96836 476.37711,314.82181 476.67021,314.52871 477.32752,315.11491 477.62062,314.82181 477.76716,314.67526 477.47407,314.34661 477.62062,314.20006 477.90803,313.91264 479.11048,314.38776 479.48587,314.20006 480.21013,313.83793 480.62687,313.31868 481.35113,312.95655 481.5365,312.86385 481.82633,313.1031 481.97288,312.95655 482.11943,312.81 481.82633,312.48135 481.97288,312.3348 482.11943,312.18825 482.40926,312.4275 482.59463,312.3348 482.85679,312.20372 482.95423,311.84413 483.21639,311.71305 483.40176,311.62035 483.69159,311.8596 483.83814,311.71305 483.98469,311.5665 483.69159,311.23784 483.83814,311.0913 483.98469,310.94475 484.27452,311.184 484.45989,311.0913 484.79236,310.92506 485.37093,310.01403 485.70339,309.84779 485.88876,309.75509 486.1786,309.99434 486.32515,309.84779 486.47169,309.70124 486.23245,309.41141 486.32515,309.22604 487.01251,307.85131 486.71103,309.0331 487.56865,308.60429 488.09296,308.34213 488.55,307.88509 488.81215,307.36078 488.90485,307.17541 488.66561,306.88558 488.81215,306.73903 490.09858,305.4526 488.76185,308.70486 490.05566,306.11728 490.48447,305.25966 489.30268,305.56114 490.67741,304.87378 490.86278,304.78108 491.15261,305.02032 491.29916,304.87378 491.44571,304.72723 491.20646,304.43739 491.29916,304.25202 491.43024,303.98987 491.78984,303.89242 491.92091,303.63027 492.01361,303.4449 491.77437,303.15507 491.92091,303.00852 492.06746,302.86197 492.39612,303.15507 492.54267,303.00852 492.68921,302.86197 492.44997,302.57214 492.54267,302.38677 493.83646,299.79918 492.49977,303.05144 493.78617,301.76501 493.93272,301.61847 493.69347,301.32863 493.78617,301.14326 494.28357,300.14846 495.77578,299.65106 496.27318,298.65625 496.36588,298.47088 496.12663,298.18105 496.27318,298.0345 496.41973,297.88795 496.70956,298.1272 496.89493,298.0345 497.64103,297.66145 498.01408,296.5423 498.76019,296.16925 498.94556,296.07655 499.23539,296.31579 499.38194,296.16925 499.52849,296.0227 499.28924,295.73286 499.38194,295.54749 500.67573,292.95991 499.33904,296.21217 500.62544,294.92574 501.91187,293.63931 498.65961,294.97604 501.2472,293.68224 501.43257,293.58954 501.68358,293.77494 501.86895,293.68224 503.36115,292.93614 504.10726,290.69783 505.59946,289.95173 505.78483,289.85903 506.03584,290.04443 506.22121,289.95173 506.96732,289.57867 507.34037,288.45952 508.08647,288.08647 508.27184,287.99377 508.56167,288.23302 508.70822,288.08647 508.85477,287.93992 508.61552,287.65009 508.70822,287.46472 508.97037,286.94041 509.42742,286.48337 509.95173,286.22121 510.1371,286.12851 510.38811,286.31391 510.57348,286.22121 511.17437,285.92077 512.76004,284.33509 513.06049,283.7342 513.15319,283.54883 512.96779,283.29782 513.06049,283.11245 513.63281,281.9678 514.35341,283.01355 514.92574,281.86895 515.01844,281.68358 514.83304,281.43257 514.92574,281.2472 515.28787,280.52293 515.80712,280.1062 516.16925,279.38194 516.26195,279.19657 516.07655,278.94556 516.16925,278.76019 516.30032,278.49803 516.65992,278.40059 516.791,278.13844 516.8837,277.95306 516.6983,277.70205 516.791,277.51668 517.15313,276.79242 517.67237,276.37569 518.0345,275.65143 518.1272,275.46606 517.9418,275.21505 518.0345,275.02967 518.16558,274.76752 518.52518,274.67008 518.65625,274.40792 518.99017,273.7401 518.32234,273.83224 518.65625,273.16442 518.78733,272.90226 519.14693,272.80482 519.27801,272.54267 519.46338,272.17193 519.09264,271.6699 519.27801,271.29916 519.40908,271.03701 519.76868,270.93956 519.89976,270.67741 520.08513,270.30667 519.71439,269.80465 519.89976,269.43391 520.03084,269.17175 520.39043,269.07431 520.52151,268.81215 520.70688,268.44141 520.33614,267.93939 520.52151,267.56865 520.65259,267.3065 521.01219,267.20905 521.14326,266.9469 521.32863,266.57616 520.95789,266.07413 521.14326,265.70339 521.27434,265.44124 521.63394,265.3438 521.76501,265.08164 522.01372,264.58424 521.51631,263.71379 521.76501,263.21639 521.89609,262.95423 522.25569,262.85679 522.38677,262.59463 522.57447,262.21924 522.09935,261.01679 522.38677,260.72938 522.53332,260.58283 522.86197,260.87593 523.00852,260.72938 523.4029,260.33499 522.74969,258.76003 523.00852,258.24237 523.1396,257.98021 523.49919,257.88277 523.63027,257.62062 524.12767,256.62581 523.13287,254.88491 523.63027,253.8901 524.39857,252.3535 524.25202,254.10472 524.25202,252.6466 524.25202,251.74619 523.858,249.70413 524.25202,248.91609 524.3831,248.65393 524.7427,248.55649 524.87378,248.29433 524.97381,248.09426 524.97381,240.41163 524.87378,240.21156 524.7427,239.9494 524.3831,239.85196 524.25202,239.58981 524.06665,239.21906 524.54512,238.6394 524.25202,238.3463 524.10547,238.19975 523.77682,238.49285 523.63027,238.3463 523.33717,238.0532 523.92337,237.39589 523.63027,237.1028 523.48372,236.95625 523.15507,237.24935 523.00852,237.1028 522.86197,236.95625 523.10122,236.66642 523.00852,236.48105 522.96892,236.40185 521.24401,235.28791 521.14326,235.23754 520.76787,235.04984 519.56542,235.52495 519.27801,235.23754 519.13146,235.09099 519.42455,234.76234 519.27801,234.61579 518.98491,234.32269 518.40524,234.80116 518.0345,234.61579 517.77235,234.48471 517.6749,234.12511 517.41275,233.99404 517.03735,233.80634 515.83491,234.28145 515.54749,233.99404 515.40095,233.84749 515.69404,233.51883 515.54749,233.37228 515.40095,233.22574 515.11111,233.46498 514.92574,233.37228 512.86365,231.31019 515.51194,233.66538 513.68224,232.75053 513.15793,232.48838 512.96304,231.76918 512.43873,231.50703 512.25336,231.41433 512.00235,231.59973 511.81698,231.50703 511.55483,231.37595 511.45738,231.01635 511.19523,230.88528 511.00986,230.79258 510.72003,231.03182 510.57348,230.88528 510.42693,230.73873 510.72003,230.41007 510.57348,230.26352 510.28038,229.97043 509.62307,230.55662 509.32997,230.26352 509.18342,230.11698 509.47652,229.78832 509.32997,229.64177 509.18342,229.49522 508.89359,229.73447 508.70822,229.64177 508.18391,229.37962 507.98902,228.66042 507.46472,228.39827 507.27935,228.30557 506.98951,228.54482 506.84296,228.39827 506.54987,228.10517 507.13606,227.44786 506.84296,227.15476 506.69642,227.00822 506.36776,227.30131 506.22121,227.15476 505.92812,226.86167 506.51431,226.20436 506.22121,225.91126 506.07466,225.76471 505.74601,226.05781 505.59946,225.91126 505.22901,225.54081 506.22001,224.046 504.97771,224.046 504.90461,224.046 505.06911,225.81983 504.97771,225.91126 504.39846,226.49051 501.76996,224.30739 501.2472,224.046"
       inkscape:connector-curvature="0"
       id="path2601"
       style="opacity:0.6;fill:none;stroke:#e20000;stroke-opacity:1" />
    <path
       d="M 550.98736,243.94207 C 550.99636,244.85023 552.21675,247.70081 551.60912,248.91609 551.47804,249.17824 551.11844,249.27569 550.98736,249.53784 550.70238,250.10781 550.98736,253.08654 550.98736,253.8901 550.98736,254.14612 550.82278,255.59078 550.98736,255.75536 551.13391,255.90191 551.46257,255.60881 551.60912,255.75536 552.0238,256.17005 551.19443,256.58418 551.60912,256.99886 551.75566,257.14541 552.08432,256.85232 552.23087,256.99886 552.37742,257.14541 552.13817,257.43525 552.23087,257.62062 552.49302,258.14492 553.21222,258.33981 553.47437,258.86412 553.56707,259.04949 553.47437,259.27862 553.47437,259.48587 553.68162,259.69312 553.96505,259.84547 554.09612,260.10762 554.28149,260.47837 553.80303,261.05803 554.09612,261.35113 554.24267,261.49768 554.57133,261.20458 554.71788,261.35113 555.01097,261.64423 554.53251,262.22389 554.71788,262.59463 554.98003,263.11894 555.69923,263.31383 555.96138,263.83814 556.05408,264.02351 555.86868,264.27452 555.96138,264.45989 556.09246,264.72204 556.45206,264.81949 556.58313,265.08164 556.67583,265.26701 556.49043,265.51802 556.58313,265.70339 556.71421,265.96555 557.07381,266.06299 557.20488,266.32515 557.39025,266.69589 557.01951,267.19791 557.20488,267.56865 559.26698,269.63074 556.91179,266.98246 557.82664,268.81215 558.08879,269.33646 558.80799,269.53135 559.07014,270.05566 559.3482,270.61177 558.87353,271.33107 559.07014,271.92091 559.15984,272.1901 560.16697,273.49283 560.31364,273.78617 560.49902,274.15691 560.12827,274.65893 560.31364,275.02967 560.44472,275.29183 560.80432,275.38927 560.9354,275.65143 562.25953,278.2997 559.61126,274.24666 560.9354,276.89493 561.06647,277.15708 561.42607,277.25453 561.55715,277.51668 561.74252,277.88742 561.42607,278.36696 561.55715,278.76019 561.7037,279.19983 562.03235,279.56405 562.1789,280.00369 562.96947,282.3754 560.75588,277.59987 562.1789,281.86895 562.2716,282.147 562.66958,282.22855 562.80065,282.4907 563.09246,283.07431 562.80065,286.6929 562.80065,287.46472 562.80065,289.00663 563.22344,293.65738 562.80065,294.92574 562.70795,295.2038 562.27159,295.26944 562.1789,295.54749 561.86802,296.48012 562.48978,297.72363 562.1789,298.65625 562.03235,299.0959 561.7037,299.46011 561.55715,299.89976 561.42607,300.29299 561.74252,300.77252 561.55715,301.14326 561.42607,301.40542 561.02808,301.48696 560.9354,301.76501 560.80432,302.15825 561.06647,302.61529 560.9354,303.00852 560.8427,303.28658 560.44472,303.36812 560.31364,303.63027 560.22094,303.81564 560.40634,304.06665 560.31364,304.25202 560.05149,304.77633 559.33229,304.97122 559.07014,305.49553 558.97744,305.6809 559.16284,305.93191 559.07014,306.11728 558.80799,306.64159 558.08879,306.83648 557.82664,307.36078 557.73394,307.54615 557.91934,307.79717 557.82664,307.98254 557.21072,309.21438 555.48543,309.93996 554.71788,311.0913 554.46081,311.47689 554.35319,311.94921 554.09612,312.3348 553.77096,312.82254 553.17778,313.09056 552.85262,313.5783 551.44356,315.6919 552.76922,313.91175 552.23087,316.06531 552.02362,316.89432 550.96664,319.1948 550.36561,319.79583 550.03792,320.12352 549.4498,320.08989 549.12211,320.41758 548.46672,321.07296 548.39273,322.1334 547.8786,322.90459 547.47857,323.50464 546.05894,324.32495 545.39159,324.76984 543.278,326.1789 545.05815,324.85324 542.90459,325.39159 542.455,325.50399 542.11067,325.90095 541.66108,326.01335 541.25896,326.11388 540.8197,325.91282 540.41758,326.01335 539.96799,326.12574 539.62366,326.5227 539.17407,326.6351 538.36982,326.83616 537.49132,326.43404 536.68707,326.6351 536.23748,326.7475 535.89315,327.14445 535.44356,327.25685 533.91178,327.6398 528.02702,327.25685 526.11728,327.25685 525.49553,327.25685 524.84187,327.06024 524.25202,327.25685 523.11997,327.6342 522.27532,328.123 521.14326,328.50035 519.29241,329.11731 522.41898,327.02813 519.27801,329.12211 518.32146,329.7598 517.74754,330.97142 516.791,331.60912 515.10497,332.73313 512.98987,334.20205 511.81698,335.96138 511.55992,336.34697 511.45229,336.81929 511.19523,337.20488 510.71696,337.92229 509.80824,338.35273 509.32997,339.07014 508.72593,339.97621 508.94181,340.36517 508.08647,340.9354 507.70087,341.19246 507.22856,341.30009 506.84296,341.55715 505.95572,342.14865 504.60547,344.37549 503.7342,344.66591 503.34097,344.79699 502.88393,344.53483 502.4907,344.66591 501.93459,344.85128 501.80331,345.72404 501.2472,345.90941 500.85397,346.04049 500.39692,345.77834 500.00369,345.90941 499.72564,346.00211 499.64409,346.40009 499.38194,346.53117 499.19657,346.62387 498.96744,346.53117 498.76019,346.53117 498.34569,346.73842 497.90228,346.89585 497.51668,347.15292 497.27281,347.3155 497.17299,347.68198 496.89493,347.77467 492.77075,347.77467 497.77422,347.48157 495.02967,348.39642 494.63644,348.5275 494.1794,348.26535 493.78617,348.39642 493.50811,348.48912 493.44247,348.92549 493.16442,349.01817 492.77119,349.14925 492.31414,348.8871 491.92091,349.01817 491.64286,349.11087 491.57722,349.54724 491.29916,349.63993 488.46877,349.63993 491.26356,349.34683 489.43391,350.26168 488.6049,350.67618 487.15415,349.84718 486.32515,350.26168 486.06299,350.39276 485.96555,350.75235 485.70339,350.88343 485.29302,351.08862 480.94476,350.99112 480.72938,350.88343 480.46722,350.75235 480.36978,350.39276 480.10762,350.26168 479.73688,350.07631 479.23486,350.44705 478.86412,350.26168 478.60197,350.1306 478.50452,349.771 478.24237,349.63993 478.057,349.54723 477.80599,349.73263 477.62062,349.63993 476.47596,349.0676 477.52182,348.347 476.37711,347.77467 476.19174,347.68197 475.94073,347.86737 475.75536,347.77467 474.51186,347.15292 473.8901,345.28766 472.6466,344.66591 472.46123,344.57321 472.1714,344.81246 472.02485,344.66591 471.8783,344.51936 472.1714,344.19071 472.02485,344.04416 471.8783,343.89761 471.54964,344.19071 471.4031,344.04416 471.25655,343.89761 471.54964,343.56895 471.4031,343.42241 471.25655,343.27586 470.92789,343.56895 470.78134,343.42241 470.63479,343.27586 470.87404,342.98602 470.78134,342.80065 470.40829,342.05455 469.28914,341.6815 468.91609,340.9354 468.82339,340.75003 469.06264,340.46019 468.91609,340.31364 468.76954,340.1671 468.44088,340.46019 468.29433,340.31364 468.14779,340.1671 468.38703,339.87726 468.29433,339.69189 468.03218,339.16759 467.31298,338.9727 467.05083,338.44839 466.95813,338.26302 467.19738,337.97318 467.05083,337.82664 466.63614,337.41195 466.22201,338.24132 465.80733,337.82664 465.78893,337.80824 465.80733,332.62345 465.80733,332.23087"
       inkscape:connector-curvature="0"
       id="path2603"
       style="opacity:0.6;fill:none;stroke:#e20000;stroke-opacity:1" />
    <path
       d="M 423.84285,108.53803 370.0575,65.499219"
       inkscape:connector-curvature="0"
       id="path2605"
       style="opacity:0.6;fill:none;stroke:#e20000;stroke-opacity:1" />
    <path
       d="M 424.77169,108.40011 418.55417,46.846656"
       inkscape:connector-curvature="0"
       id="path2607"
       style="opacity:0.6;fill:none;stroke:#e20000;stroke-opacity:1" />
    <path
       d="M 432.33939,112.49484 431.56678,46.589118"
       inkscape:connector-curvature="0"
       id="path2609"
       style="opacity:0.6;fill:none;stroke:#e20000;stroke-opacity:1" />
    <path
       d="M 441.1506,115.05728 449.35299,47.908053"
       inkscape:connector-curvature="0"
       id="path2611"
       style="opacity:0.6;fill:none;stroke:#e20000;stroke-opacity:1" />
    <path
       d="M 503.44543,132.6172 534.03625,67.866609"
       inkscape:connector-curvature="0"
       id="path2613"
       style="opacity:0.6;fill:none;stroke:#e20000;stroke-opacity:1" />
    <path
       d="M 609.4254,304.57389 669.21713,323.03899"
       inkscape:connector-curvature="0"
       id="path2615"
       style="fill:none;stroke:#0000e9;stroke-width:0.99000001;stroke-miterlimit:4;stroke-opacity:1;stroke-dasharray:none;stroke-dashoffset:0" />
    <path
       d="M 619.09759,274.23838 690.75975,271.60051"
       inkscape:connector-curvature="0"
       id="path2617"
       style="fill:none;stroke:#0000e9;stroke-width:0.99000001;stroke-miterlimit:4;stroke-opacity:1;stroke-dasharray:none;stroke-dashoffset:0" />
    <path
       d="M 667.01891,173.99929 601.51179,218.40345"
       inkscape:connector-curvature="0"
       id="path2619"
       style="fill:none;stroke:#0000e9;stroke-width:0.99000001;stroke-miterlimit:4;stroke-opacity:1;stroke-dasharray:none;stroke-dashoffset:0" />
    <path
       d="M 655.58814,153.33597 591.8396,202.13658"
       inkscape:connector-curvature="0"
       id="path2621"
       style="fill:none;stroke:#0000e9;stroke-width:0.99000001;stroke-miterlimit:4;stroke-opacity:1;stroke-dasharray:none;stroke-dashoffset:0" />
    <path
       d="M 508.30702,60.131202 486.76441,123.00045"
       inkscape:connector-curvature="0"
       id="path2623"
       style="fill:none;stroke:#0000e9;stroke-width:0.99000001;stroke-miterlimit:4;stroke-opacity:1;stroke-dasharray:none;stroke-dashoffset:0" />
    <path
       d="M 491.60051,427.67452 514.02241,378.87392 504.35595,347.77467"
       inkscape:connector-curvature="0"
       id="path2625"
       style="fill:none;stroke:#0000e9;stroke-width:0.99000001;stroke-miterlimit:4;stroke-opacity:1;stroke-dasharray:none;stroke-dashoffset:0" />
    <path
       d="M 586.12421,448.77749 C 586.23448,427.71585 566.95335,376.82966 558.86621,449.21714"
       inkscape:connector-curvature="0"
       id="path2627"
       style="fill:none;stroke:#0000e9;stroke-width:0.99000001;stroke-miterlimit:4;stroke-opacity:1;stroke-dasharray:none;stroke-dashoffset:0" />
    <path
       d="M 628.76978,310.28928 C 617.59064,351.59414 600.7712,383.87849 572.93485,411.8473"
       inkscape:connector-curvature="0"
       id="path2629"
       style="fill:none;stroke:#0000e9;stroke-width:0.99000001;stroke-miterlimit:4;stroke-opacity:1;stroke-dasharray:none;stroke-dashoffset:0" />
    <path
       d="M 528.97034,445.26033 C 540.20926,433.62071 538.46741,404.13254 566.34018,415.36446"
       inkscape:connector-curvature="0"
       id="path2631"
       style="fill:none;stroke:#0000e9;stroke-width:0.99000001;stroke-miterlimit:4;stroke-opacity:1;stroke-dasharray:none;stroke-dashoffset:0" />
    <path
       d="M 540.84076,421.51949 C 540.25457,421.37294 539.22873,420.49365 539.08218,421.07985 538.93563,421.66604 541.26802,421.94675 540.84076,421.51949 538.49203,419.17076 539.08701,421.30209 537.76324,420.6402 537.57787,420.5475 537.50897,420.29324 537.3236,420.20056 536.97188,420.0247 536.35638,420.37642 536.00466,420.20056 535.49253,419.94449 535.19786,419.57733 534.68573,419.32127 534.55465,419.25577 534.34971,419.42489 534.24608,419.32127 534.14246,419.21764 534.31158,419.0127 534.24608,418.88162 533.33123,417.05192 534.27638,419.35162 533.36679,418.44198 533.26317,418.33835 533.47042,418.10596 533.36679,418.00233 533.26317,417.89871 533.03077,418.10596 532.92715,418.00233 532.82352,417.89871 533.03077,417.66631 532.92715,417.56269 532.82352,417.45906 532.61858,417.62819 532.4875,417.56269 531.62761,417.13274 531.74069,416.09017 531.16857,415.80411 531.03749,415.73861 530.86,415.86961 530.72892,415.80411 529.91953,415.39941 530.65902,414.88987 529.84963,414.48517 529.71855,414.41967 529.51361,414.5888 529.40999,414.48517 529.30636,414.38155 529.51361,414.14915 529.40999,414.04553 529.30636,413.9419 529.10142,414.11103 528.97034,414.04553 528.5996,413.86015 528.46179,413.35161 528.09105,413.16624 527.95997,413.10074 527.78248,413.23174 527.65141,413.16624 527.46604,413.07354 527.39713,412.81928 527.21176,412.72659 527.08068,412.66109 526.90319,412.79209 526.77212,412.72659 526.58675,412.63389 526.51784,412.37963 526.33247,412.28695 526.20139,412.22145 526.0239,412.35245 525.89283,412.28695 525.52208,412.10157 525.38428,411.59303 525.01354,411.40765 524.88246,411.34215 524.70497,411.47315 524.57389,411.40765 523.87046,411.05594 523.51874,410.00079 522.81531,409.64907 522.68423,409.58357 522.50674,409.71457 522.37566,409.64907 522.00492,409.4637 521.86712,408.95515 521.49637,408.76978 521.3653,408.70428 521.18781,408.83528 521.05673,408.76978 520.87136,408.67708 520.80245,408.42282 520.61708,408.33014 520.48601,408.26464 520.30852,408.39564 520.17744,408.33014 519.66531,408.07407 519.37063,407.70691 518.8585,407.45085 518.72743,407.38535 518.52248,407.55447 518.41886,407.45085 517.50922,406.54121 519.80891,407.48645 517.97921,406.57156 517.71706,406.44048 517.30717,406.77881 517.09992,406.57156 516.9963,406.46793 517.20355,406.23554 517.09992,406.13191 516.89267,405.92466 516.48279,406.26299 516.22063,406.13191 516.03526,406.03921 515.96636,405.78495 515.78099,405.69227 515.51883,405.56119 515.16385,405.82335 514.9017,405.69227 514.71633,405.59957 514.64742,405.34531 514.46205,405.25262 514.33098,405.18712 514.12603,405.35625 514.02241,405.25262 513.91878,405.149 514.12603,404.9166 514.02241,404.81298 513.81516,404.60573 513.40527,404.94405 513.14312,404.81298 512.95775,404.72028 512.88884,404.46602 512.70347,404.37333 512.43803,404.24061 511.58777,404.57657 511.38454,404.37333 511.28091,404.26971 511.48816,404.03731 511.38454,403.93369 511.16471,403.71387 510.28542,404.15351 510.0656,403.93369 509.96198,403.83006 510.16923,403.59767 510.0656,403.49404 509.62596,403.0544 507.86738,403.93369 507.42773,403.49404 507.32411,403.39042 507.53136,403.15802 507.42773,403.0544 507.23713,402.8638 505.1603,403.23962 504.78986,403.0544 504.60449,402.9617 504.53559,402.70744 504.35021,402.61475 503.9985,402.43889 503.383,402.79061 503.03128,402.61475 502.91682,402.55755 502.49567,401.83143 502.15199,402.17511 501.54855,402.77854 502.92783,402.61475 503.03128,402.61475"
       inkscape:connector-curvature="0"
       id="path2633"
       style="fill:none;stroke:#0000e9;stroke-width:0.99000001;stroke-miterlimit:4;stroke-opacity:1;stroke-dasharray:none;stroke-dashoffset:0" />
    <path
       d="M 503.83151,349.61027 C 507.55043,357.2203 509.34131,365.82213 512.11391,373.8808 514.17535,377.41478 513.3225,380.83248 511.20596,384.09031 508.20803,390.44574 505.44181,397.33111 501.57766,403.04209 500.07395,410.15317 495.86571,416.58562 493.20343,423.36561 492.61324,424.99287 490.82771,427.56423 489.22033,425.23087 484.85755,420.72745 477.70997,416.47591 478.47568,409.29847 480.21554,391.37677 488.84048,375.27325 496.87643,359.49525 499.00901,356.23796 500.29452,351.98268 503.44291,349.59084 L 503.83151,349.61024 z"
       inkscape:connector-curvature="0"
       id="path2635"
       style="fill:#bac5a9;stroke:none" />
    <path
       d="M 507.46487,403.81928 C 514.40157,404.91164 520.63798,408.25308 525.92314,412.73754 530.40587,414.60495 532.79664,419.80931 537.77529,420.95632 542.56982,421.74652 538.77271,425.84068 537.79939,428.4621 534.76611,433.86929 533.12625,440.533 528.50733,444.79663 522.72966,444.06414 517.15149,441.28561 511.73946,439.08428 505.26359,435.34918 498.83162,431.53329 492.58172,427.42643 493.92483,422.0995 497.31283,416.95776 499.3627,411.6689 501.16214,409.12941 501.3507,404.1076 504.22843,403.19814 505.30726,403.40519 506.38608,403.61223 507.46491,403.81928 z"
       inkscape:connector-curvature="0"
       id="path2637"
       style="fill:#82c1d2;stroke:none" />
    <path
       d="M 556.29184,413.43701 C 559.52039,413.81586 563.56664,413.94117 565.96786,416.02117 561.16289,426.38609 560.46537,438.15794 558.29311,449.09061 551.62932,450.39193 544.58174,448.55934 537.89186,447.71109 535.3121,446.87891 531.21597,447.1588 529.71194,445.26294 536.56579,436.09166 538.59571,423.45415 547.4513,415.74915 549.96834,413.85752 553.19915,413.27827 556.29184,413.43701 z"
       inkscape:connector-curvature="0"
       id="path2639"
       style="fill:#9eae8b;stroke:none" />
    <path
       d="M 571.60249,412.1935 C 578.65498,415.26581 580.59586,423.87605 582.70816,430.59014 584.18309,436.59552 586.06637,442.94659 585.74735,449.03232 579.72656,452.08678 572.87622,452.73557 566.30498,451.25267 563.3316,450.52692 557.52763,451.52545 559.62277,446.65695 560.91963,435.56698 562.37803,423.83973 568.33829,414.17534 569.12759,413.18372 570.20967,412.03358 571.60249,412.1935 z"
       inkscape:connector-curvature="0"
       id="path3788"
       style="fill:#b9abdd;stroke:none" />
    <path
       d="M 648.4083,316.94886 C 654.83957,319.00158 661.3758,320.85843 667.72147,323.08866 668.33904,325.53203 665.19479,327.62111 664.19643,329.72255 653.69632,345.05098 649.4521,363.51285 640.6791,379.75302 636.81546,387.46632 630.60292,393.64537 626.61962,401.28318 620.253,411.28601 615.1567,422.44755 606.6149,430.80721 601.87944,433.48332 601.38952,440.71961 595.79905,442.4084 592.73799,444.09045 589.96889,446.51058 586.83541,447.92482 585.50365,439.91364 584.39226,431.42133 581.22021,423.69592 579.60433,419.38202 577.38292,415.27103 574.03121,412.03807 576.28348,408.02634 580.55018,404.79331 583.35346,400.95682 605.57731,375.38757 619.93163,343.91105 628.80368,311.43081 632.86098,311.37701 637.17179,313.85917 641.32421,314.75685 643.68557,315.48752 646.04694,316.21819 648.4083,316.94886 z"
       inkscape:connector-curvature="0"
       id="path3790"
       style="fill:#d5be93;stroke:none" />
    <path
       d="M 655.84989,154.55498 C 659.87152,158.37509 661.51028,164.29965 664.37821,169.0402 667.80915,172.69944 665.88255,175.4808 661.78521,177.15957 641.49426,190.69356 621.54733,204.86178 600.88312,217.75997 597.75229,215.44662 596.53204,210.78803 594.03684,207.67823 593.33005,205.68385 590.59507,204.26019 590.76022,202.08016 596.33927,199.65317 601.14653,194.82279 606.34288,191.35493 622.77667,179.19466 638.72354,166.27591 655.42244,154.57441 L 655.77218,154.53551 655.8499,154.55491 z"
       inkscape:connector-curvature="0"
       id="path2645"
       style="fill:#70bb86;stroke:none" />
    <path
       d="M 534.37508,69.996696 C 546.46959,74.571815 558.58742,79.29386 570.64844,84.029612 583.30877,88.968206 595.56407,95.132709 605.93589,104.03584 615.98104,111.60312 624.9249,120.62455 633.68055,129.39345 641.51717,135.74789 648.01087,143.80439 654.23723,151.73767 656.36158,154.28245 651.13206,155.33788 650.07226,157.04524 630.30533,172.1657 610.64594,187.45607 590.70193,202.31331 588.05557,201.79007 586.57869,198.37651 584.5176,196.73914 572.29398,182.20466 557.47724,169.84424 542.45786,158.26606 530.30502,149.25443 517.67539,140.94788 505.36646,132.19134 503.60926,130.23975 507.24375,127.52067 507.38715,125.37149 516.07047,106.91203 524.41197,88.188547 533.65618,70.054985 533.88761,69.973675 534.13344,69.954713 534.37508,69.996695 z"
       inkscape:connector-curvature="0"
       id="path2647"
       style="fill:#7edfd0;stroke:none" />
    <path
       d="M 510.69021,61.952778 C 517.53853,64.381786 524.36981,66.965246 531.26632,69.180647 533.79339,70.776029 530.0407,73.819213 529.82673,75.825794 521.11321,94.145579 512.90951,112.75477 503.54006,130.7341 498.20289,129.77098 493.10228,126.6871 487.8998,124.87644 485.52146,122.655 489.68637,118.1726 489.87276,115.11089 495.84021,98.029672 501.40515,80.775235 507.50373,63.759745 508.05013,62.529042 509.30601,61.634746 510.69021,61.952778 z"
       inkscape:connector-curvature="0"
       id="path2649"
       style="fill:#bec1ac;stroke:none" />
    <path
       d="M 451.35175,48.526819 C 469.69401,51.057452 487.87595,55.248637 505.61905,60.495547 508.92784,61.534972 505.54205,65.174882 505.405,67.242536 499.09709,86.002251 492.40644,104.83058 486.44188,123.58395 483.71031,124.14832 480.95185,121.51392 478.19726,121.13184 467.12374,117.07504 455.3596,115.49949 443.69642,114.16052 440.36594,113.65109 442.74805,109.3225 442.48891,107.27492 444.81138,87.843268 447.05642,68.35512 449.70022,48.993133 449.95107,48.325346 450.81884,48.55454 451.35175,48.526819 z"
       inkscape:connector-curvature="0"
       id="path2651"
       style="fill:#b7bfb2;stroke:none" />
    <path
       d="M 438.35324,47.846778 C 441.79793,48.177536 445.92556,47.571492 448.9036,49.148571 446.18613,70.552381 443.74806,92.040226 440.9374,113.40276 438.56875,115.15338 434.87845,113.22525 432.83519,111.9261 432.37382,90.731314 431.90048,69.533719 431.99971,48.332522 433.48091,47.146735 436.46954,48.146046 438.35324,47.846778 z"
       inkscape:connector-curvature="0"
       id="path2653"
       style="fill:#dbc198;stroke:none" />
    <path
       d="M 420.16699,46.214679 C 423.69119,46.828455 427.83803,46.723049 430.91165,48.4491 431.65185,68.359594 431.95895,88.341507 431.55283,108.27331 432.04975,110.04075 430.26134,112.36418 429.14354,110.06085 427.08502,109.51037 424.61116,108.71953 424.86899,106.01946 422.7358,86.281276 420.72813,66.522197 419.07893,46.739282 419.18418,46.177782 419.75128,46.163436 420.16699,46.214679 z"
       inkscape:connector-curvature="0"
       id="path2655"
       style="fill:#b1daa9;stroke:none" />
    <path
       d="M 408.76173,44.757447 C 411.9504,45.007486 415.57805,44.748247 418.39888,45.981522 419.83083,66.227917 422.56411,86.415918 424.11123,106.62178 422.94282,108.49698 420.85146,104.87057 419.51389,104.42332 403.57,91.948259 387.82227,79.225586 372.00063,66.596489 374.01166,61.145198 379.69441,57.659141 384.12035,53.98716 391.13642,48.389982 399.61946,44.27976 408.76173,44.757447 z"
       inkscape:connector-curvature="0"
       id="path2657"
       style="fill:#cce198;stroke:none" />
    <path
       d="M 371.20401,67.198812 C 388.19767,80.380552 405.04924,93.821709 421.56593,107.59327 421.23049,109.86054 417.51584,109.79557 415.93131,111.12948 408.90897,115.16915 403.97246,121.73729 398.91084,127.87793 393.45057,131.72227 386.74454,133.88546 380.31657,135.57211 376.31754,136.64645 370.70987,135.40426 370.42682,130.44266 369.30044,121.97323 370.2179,113.27311 368.33263,104.89689 367.26302,92.691775 366.5079,79.96507 369.86336,68.073151 370.07665,67.576748 370.55647,66.886859 371.20401,67.198812 z"
       inkscape:connector-curvature="0"
       id="path3816"
       style="fill:#6d70b9;stroke:none" />
    <path
       d="M 689.4828,272.32648 C 689.82906,281.96738 687.66693,291.67078 684.12019,300.57735 679.665,307.67048 675.86562,315.30411 670.34449,321.61977 667.56662,323.70929 664.09118,320.29233 661.13189,320.16841 643.84614,314.86607 626.57511,309.51588 609.29621,304.19128 609.5495,300.68627 612.69515,297.33059 614.03707,293.87408 617.2815,288.0129 619.45312,281.54917 618.83622,274.77463 622.63055,273.62958 627.35076,274.57882 631.48306,274.06227 650.64494,273.42109 669.81233,272.85197 688.95819,271.82131 L 689.40606,272.25258 689.48279,272.32648 z"
       inkscape:connector-curvature="0"
       id="path2660"
       style="fill:#cda392;stroke:none" />
    <path
       d="M 667.26759,174.46337 C 669.77208,177.87254 670.68388,182.2138 672.48448,185.99493 676.18325,194.00794 676.91733,202.96346 679.2712,211.40989 681.61605,220.92474 684.21947,230.38863 685.39083,240.13374 687.05131,249.1889 687.66355,258.38749 689.28859,267.44836 689.21021,268.68678 690.21284,270.44139 689.2135,271.3887 666.62689,272.41493 644.02523,273.28242 621.42318,273.9311 619.06246,274.66328 618.33857,273.04946 618.8195,270.97096 618.8884,266.00223 619.01895,260.9773 617.45923,256.20017 615.91558,250.81514 615.3323,245.05533 612.84265,240.05681 610.63351,236.32637 608.98515,232.28521 606.96735,228.47809 605.18621,226.90151 603.69958,224.99437 602.64423,222.81431 602.14146,221.44525 600.75822,220.14788 600.9247,218.65635 607.14429,214.91803 613.25527,210.49789 619.40251,206.46001 635.21352,195.83361 650.91878,185.03992 666.77213,174.4828 666.92592,174.399 667.10921,174.3928 667.26759,174.4634 z"
       inkscape:connector-curvature="0"
       id="path8998"
       style="fill:#e19179;stroke:none;display:inline;enable-background:new" />
  </g>
</svg>
