<?xml version="1.0" encoding="UTF-8" standalone="no"?>
<!-- Created with Inkscape (http://www.inkscape.org/) -->

<svg
   xmlns:dc="http://purl.org/dc/elements/1.1/"
   xmlns:cc="http://creativecommons.org/ns#"
   xmlns:rdf="http://www.w3.org/1999/02/22-rdf-syntax-ns#"
   xmlns:svg="http://www.w3.org/2000/svg"
   xmlns="http://www.w3.org/2000/svg"
   xmlns:xlink="http://www.w3.org/1999/xlink"
   xmlns:inkscape="http://www.inkscape.org/namespaces/inkscape"
   version="1.1"
   width="740"
   height="520"
   id="svg2"
   style="enable-background:new">
  <defs
     id="defs4">
    <filter
       color-interpolation-filters="sRGB"
       id="filter3050">
      <feBlend
         in2="BackgroundImage"
         mode="lighten"
         id="feBlend3052" />
    </filter>
  </defs>
  <metadata
     id="metadata7">
    <rdf:RDF>
      <cc:Work
         rdf:about="">
        <dc:format>image/svg+xml</dc:format>
        <dc:type
           rdf:resource="http://purl.org/dc/dcmitype/StillImage" />
        <dc:title />
      </cc:Work>
    </rdf:RDF>
  </metadata>
  <g
     id="layer1"
     style="display:none">
    <image
       xlink:href="pngs/coronal-0680.png"
       id="MRISLICE"
       height="520"
       width="740"
       y="0"
       x="0" />
  </g>
  <g
     id="layer3"
     style="display:inline">
    <path
       d="M 410.97813,321.03933 C 409.21865,317.99908 401.01456,317.91687 399.74159,323.64183 398.63348,328.92094 402.64565,337.59154 409.0497,336.1642 414.41822,333.46818 415.19047,325.0984 410.97813,321.03933 z"
       inkscape:connector-curvature="0"
       id="path2990"
       style="fill:none;stroke:#0000e9;stroke-width:1;stroke-miterlimit:4;stroke-opacity:1;stroke-dasharray:none;stroke-dashoffset:0" />
    <path
       d="M 435.22647,383.21454 C 431.45976,378.37339 422.24319,377.40327 425.15679,384.46334 426.23277,388.38929 429.51224,395.15731 434.50242,392.56991 437.27299,390.52454 437.84333,385.62349 435.22647,383.21454 z"
       inkscape:connector-curvature="0"
       id="path2992"
       style="fill:none;stroke:#0000e9;stroke-width:1;stroke-miterlimit:4;stroke-opacity:1;stroke-dasharray:none;stroke-dashoffset:0" />
    <path
       d="M 557.08988,173.06233 C 556.37744,172.80546 554.89721,171.8205 556.31116,171.78772 553.26958,170.05002 550.8359,174.08867 550.34662,176.68453 549.26885,181.0869 549.9297,185.76513 548.47951,190.09084 548.65888,199.194 551.18986,208.66049 547.89975,217.49823 546.70257,220.22884 545.24369,223.06419 542.93094,224.99721 539.52939,227.02841 535.53121,225.17176 532.12863,224.10482 530.03343,223.36987 525.79931,221.93082 525.27536,224.9975 527.84454,232.87266 536.24339,238.68553 544.56127,237.81195 549.47424,237.154 553.25984,233.30885 555.96151,229.4092 558.45544,225.53722 560.42197,221.24109 561.46656,216.75584 562.70083,207.38412 556.91597,198.47746 558.97933,189.09271 560.04606,185.94088 561.16399,182.69482 559.26219,179.54934 558.73323,177.86383 555.55,171.46646 560.19866,173.68408"
       inkscape:connector-curvature="0"
       id="path2994"
       style="fill:none;stroke:#0000e9;stroke-width:1;stroke-miterlimit:4;stroke-opacity:1;stroke-dasharray:none;stroke-dashoffset:0" />
    <path
       d="M 363.18273,125.65378 363.22603,147.1038 M 373.22603,147.1038 373.67304,355.85745 374.29479,440.41573 C 385.30671,433.83898 434.91015,448.48756 458.85308,400.6236 508.46992,414.53493 568.27268,490.35135 618.64336,426.73719 645.39794,396.08332 654.92717,340.74308 680.81857,313.5783 706.24379,287.72344 693.09723,183.21673 644.75692,129.53968 624.98889,86.084674 394.16462,-2.1573556 373.05126,65.499219 L 373.18273,126.89728"
       inkscape:connector-curvature="0"
       id="path3040"
       style="fill:none;stroke:#0000e9;stroke-width:1;stroke-miterlimit:4;stroke-opacity:1;stroke-dasharray:none;stroke-dashoffset:0" />
    <path
       d="M 459.4748,400.00185 C 470.25396,376.79189 485.79782,358.34664 504.8627,343.42241 526.01139,329.22788 550.34927,311.75557 513.56723,357.10095 496.09713,374.04488 479.66014,390.90364 474.39685,406.84112"
       inkscape:connector-curvature="0"
       id="path3042"
       style="fill:none;stroke:#0000e9;stroke-width:1;stroke-miterlimit:4;stroke-opacity:1;stroke-dasharray:none;stroke-dashoffset:0" />
    <path
       d="M 529.42191,232.75053 C 535.14277,238.87609 533.21363,240.07127 538.42749,243.38001 556.90833,254.49652 540.50786,270.12288 531.51111,278.83396 513.21203,299.54178 489.5654,314.17371 468.52172,331.73711 460.11396,337.86353 451.86741,354.4802 462.96151,361.5437 472.16305,362.70649 483.47547,361.26525 490.87328,355.54657"
       inkscape:connector-curvature="0"
       id="path3044"
       style="fill:none;stroke:#0000e9;stroke-width:1;stroke-miterlimit:4;stroke-opacity:1;stroke-dasharray:none;stroke-dashoffset:0" />
    <path
       d="M 562.68565,208.81308 C 567.87368,210.49926 572.54671,211.89228 574.71689,216.46571 579.91578,227.42186 576.64382,246.31761 574.25041,256.72002 573.64353,259.35383 574.47944,262.12011 574.6667,264.81574 572.52048,280.98964 572.23589,295.93321 566.02214,303.25393 557.67545,314.51747 544.98757,321.70356 532.60682,327.39177 L 532.84154,326.6351"
       inkscape:connector-curvature="0"
       id="path3048"
       style="fill:none;stroke:#0000e9;stroke-width:1;stroke-miterlimit:4;stroke-opacity:1;stroke-dasharray:none;stroke-dashoffset:0" />
    <path
       d="M 574.49894,256.99886 509.83672,339.07014"
       inkscape:connector-curvature="0"
       id="path3059"
       style="fill:none;stroke:#0000e9;stroke-width:1;stroke-miterlimit:4;stroke-opacity:1;stroke-dasharray:none;stroke-dashoffset:0" />
    <path
       d="M 362.32604,125.80917 C 364.45661,125.54403 377.10919,125.07017 379.05716,124.92149 393.50421,123.81881 391.97112,119.10136 397.38485,115.14339 409.37718,106.3758 420.37177,96.758529 446.41801,103.42609 501.3771,104.31165 540.83838,136.84907 575.74244,173.68408 601.30475,207.20586 623.67867,230.86895 618.96398,277.33248"
       inkscape:connector-curvature="0"
       id="path3051"
       style="fill:none;stroke:#0000e9;stroke-width:1;stroke-miterlimit:4;stroke-opacity:1;stroke-dasharray:none;stroke-dashoffset:0" />
    <path
       d="M 617.96875,277.21875 C 617.48543,281.98201 616.71017,286.98968 615.625,292.28125 615.623,292.29195 615.627,292.30175 615.625,292.31245 614.0779,298.42751 610.58908,307.55471 609.21875,317.4062 L 609.18755,317.4062 C 606.74449,337.62369 607.61407,349.37246 599.4063,366.8437 594.50316,375.44882 599.4398,369.1537 601.18755,367.68745 609.55957,349.86657 608.76759,337.73638 611.18755,317.68745 611.18855,317.67545 611.18655,317.66825 611.18755,317.65625 612.52154,308.0999 615.9614,299.12262 617.56255,292.78125 L 617.56255,292.75005 617.59375,292.71885 C 618.69489,287.35453 619.47709,282.28297 619.96875,277.4376 L 617.96875,277.21885 z"
       inkscape:connector-curvature="0"
       id="path3037"
       style="font-size:medium;font-style:normal;font-variant:normal;font-weight:normal;font-stretch:normal;text-indent:0;text-align:start;text-decoration:none;line-height:normal;letter-spacing:normal;word-spacing:normal;text-transform:none;direction:ltr;block-progression:tb;writing-mode:lr-tb;text-anchor:start;baseline-shift:baseline;color:#000000;fill:#73a0a6;fill-opacity:1;stroke:none;stroke-width:2;marker:none;visibility:visible;display:inline;overflow:visible;enable-background:accumulate;font-family:Sans;-inkscape-font-specification:Sans" />
    <path
       d="M 617.9375,274.21875 C 610.55351,287.39274 618.31112,286.13371 578.65625,324.78125 L 578.65625,324.81245 C 575.21912,328.40439 571.40295,333.36788 567.96875,337.68745 566.25165,339.84723 564.62405,341.84933 563.21875,343.4062 561.81345,344.96307 560.56143,346.07832 559.875,346.43745 L 560.8125,348.2187 C 562.01239,347.59093 563.22558,346.36955 564.6875,344.74995 566.14942,343.13035 567.80635,341.10704 569.53125,338.93745 572.97156,334.6102 576.75953,329.67574 580.0625,326.2187 580.0746,326.2069 580.0816,326.1993 580.0937,326.1875 619.7878,287.49766 612.54457,287.90681 619.6562,275.21875 L 617.93745,274.21875 z"
       inkscape:connector-curvature="0"
       id="path3035"
       style="font-size:medium;font-style:normal;font-variant:normal;font-weight:normal;font-stretch:normal;text-indent:0;text-align:start;text-decoration:none;line-height:normal;letter-spacing:normal;word-spacing:normal;text-transform:none;direction:ltr;block-progression:tb;writing-mode:lr-tb;text-anchor:start;baseline-shift:baseline;color:#000000;fill:#73a0a6;fill-opacity:1;stroke:none;stroke-width:2;marker:none;visibility:visible;display:inline;overflow:visible;enable-background:accumulate;font-family:Sans;-inkscape-font-specification:Sans" />
    <path
       d="M 617.39983,276.89493 C 615.29645,217.58967 580.98687,193.36698 557.71163,171.81883 526.40049,129.25201 498.65289,121.41324 466.31407,112.13063 417.1925,108.00115 392.96869,142.75214 376.92002,147.66982 375.35017,148.15085 364.22139,147.56925 362.79234,147.41506"
       inkscape:connector-curvature="0"
       id="path3061"
       style="fill:none;stroke:#0000e9;stroke-width:1;stroke-miterlimit:4;stroke-opacity:1;stroke-dasharray:none;stroke-dashoffset:0" />
    <path
       d="M 444.55275,102.18259 C 428.26437,114.03881 412.16346,123.20481 397.29959,114.61763"
       inkscape:connector-curvature="0"
       id="path3063"
       style="fill:none;stroke:#0000e9;stroke-width:1;stroke-miterlimit:4;stroke-opacity:1;stroke-dasharray:none;stroke-dashoffset:0" />
    <path
       d="M 583.461,320.34862 C 579.15466,307.05084 573.64194,305.73076 565.17265,303.63027"
       inkscape:connector-curvature="0"
       id="path3065"
       style="fill:none;stroke:#0000e9;stroke-width:1;stroke-miterlimit:4;stroke-opacity:1;stroke-dasharray:none;stroke-dashoffset:0" />
    <path
       d="M 576.36419,307.36078 C 586.42669,300.24923 597.76125,292.03364 605.58654,296.48012"
       inkscape:connector-curvature="0"
       id="path3067"
       style="fill:none;stroke:#0000e9;stroke-width:1;stroke-miterlimit:4;stroke-opacity:1;stroke-dasharray:none;stroke-dashoffset:0" />
    <path
       d="M 549.0071,319.48495 C 544.01599,330.92495 546.9927,336.25749 548.26793,340.07816 550.10049,345.56859 557.56213,352.34473 561.37663,347.04673"
       inkscape:connector-curvature="0"
       id="path3069"
       style="fill:none;stroke:#0000e9;stroke-width:1;stroke-miterlimit:4;stroke-opacity:1;stroke-dasharray:none;stroke-dashoffset:0" />
    <path
       d="M 428.68533,101.56077 C 417.55758,101.48987 407.52158,107.4383 399.18125,114.28725 398.48113,115.64796 400.84405,115.93061 401.70016,116.37926 407.04047,118.42661 413.00819,117.75147 418.44585,116.45366 427.03165,113.85447 434.67048,108.83276 441.97528,103.71746 442.92187,102.47403 440.58277,102.24592 439.81178,102.16918 436.12805,101.68508 432.3991,101.52745 428.68533,101.56076 z"
       inkscape:connector-curvature="0"
       id="path3014"
       style="fill:#b46a9f;stroke:none" />
    <path
       d="M 427.33497,379.56167 C 425.54884,379.6837 424.20913,381.53656 425.01311,383.25332 426.08976,386.71273 427.37347,390.74807 430.81289,392.52131 433.01042,393.56069 435.59342,392.19512 436.18522,389.89829 437.94725,385.76788 434.47946,381.4401 430.59916,380.24171 429.55236,379.88956 428.45362,379.52162 427.33497,379.56167 z"
       inkscape:connector-curvature="0"
       id="path3020"
       style="fill:#bfb195;stroke:none" />
    <path
       d="M 546.20921,219.38287 C 549.8361,218.84495 553.46298,223.12893 557.08987,226.53302"
       inkscape:connector-curvature="0"
       id="path3026"
       style="fill:none;stroke:#0000e9;stroke-width:1;stroke-miterlimit:4;stroke-opacity:1;stroke-dasharray:none;stroke-dashoffset:0" />
    <path
       d="M 554.21125,171.64388 C 550.85529,173.12166 550.38638,177.29933 549.98839,180.51879 549.80886,184.07881 549.01834,187.56612 548.79657,191.093 549.01491,199.82569 551.05694,208.97156 548.06173,217.39124 547.18834,218.48314 548.12443,219.60511 549.28581,219.81024 552.04538,221.44113 554.47275,223.68732 556.77598,225.84318 558.33256,226.00146 558.57581,223.68143 559.24736,222.67124 560.97432,219.01704 561.72453,214.94869 561.19625,210.9017 560.591,204.90774 558.21333,199.19651 558.69952,193.08462 558.48573,190.48448 559.05148,187.98562 559.77788,185.52644 560.56819,182.80829 559.5173,180.15691 558.42751,177.71568 557.74972,176.27691 557.69324,174.65709 557.55317,173.14969 556.94128,172.7629 556.05013,172.99302 555.61991,172.1782 555.23904,171.82958 554.74867,171.55544 554.21125,171.64388 z"
       inkscape:connector-curvature="0"
       id="path3028"
       style="fill:#a7b0c5;stroke:none" />
    <path
       d="M 405.7388,319.242 C 402.65165,319.3204 399.65425,321.79904 399.88073,325.06121 399.69722,329.57222 402.07532,334.90668 406.76857,336.07788 410.81872,336.47558 413.48443,331.98341 413.30668,328.35455 413.69223,323.89202 410.67797,318.9248 405.7388,319.242 z"
       inkscape:connector-curvature="0"
       id="path3030"
       style="fill:#cc6bc8;stroke:none" />
    <path
       d="M 573.25241,259.26235 C 552.97823,284.49403 532.96163,309.98255 513.00075,335.45613 512.29021,335.86744 511.61237,337.69125 513.02015,337.45739 518.04536,334.79453 522.56124,331.13462 527.81623,328.85531 529.14172,327.97352 530.83077,328.14358 532.19731,327.48993 532.87362,326.45066 534.44356,326.65052 535.38181,325.8628 538.13957,324.32874 541.35173,323.34663 543.65115,321.14612 543.88683,320.85487 543.74825,319.74043 544.30205,320.25235 545.33338,321.12317 546.71905,319.52047 547.72168,319.16428 556.09984,313.74964 564.35876,307.13653 568.83211,298.02471 572.18709,289.60317 572.50422,280.33137 573.70482,271.39952 573.95137,267.45903 574.74469,263.42974 574.16558,259.50523 573.9994,259.10409 573.61907,259.0669 573.25238,259.26235 z"
       inkscape:connector-curvature="0"
       id="path3034"
       style="fill:#78a9c2;stroke:none" />
    <path
       d="M 547.80915,219.81024 C 545.80352,220.58682 545.36859,223.20505 543.74833,224.49281 540.78677,227.16261 536.60014,225.71138 533.2702,224.65335 530.91009,224.01283 527.87079,222.54047 525.67866,224.30823 525.50596,226.48094 527.21317,228.34519 528.28225,230.12744 532.406,235.45806 539.75534,239.05883 546.48792,237.11244 551.11308,235.52838 554.52368,231.50952 556.88284,227.41699 557.09178,225.93984 555.11201,225.21548 554.35697,224.17222 552.34646,222.63902 550.49132,220.049 547.80915,219.81024 z"
       inkscape:connector-curvature="0"
       id="path3041"
       style="fill:#b667d7;stroke:none" />
    <path
       d="M 530.98298,328.11168 C 526.43148,329.26939 522.5989,332.25014 518.58474,334.59165 508.67327,340.79638 499.10858,347.66729 490.92146,356.05191 477.90818,368.72203 467.08617,383.80828 459.69787,400.39028 461.39066,401.65285 463.96237,401.92756 465.97103,402.86765 468.73196,403.80244 471.31915,405.26913 474.12181,406.02499 475.3238,405.44877 475.02306,403.64607 475.83163,402.66364 483.80139,385.78431 497.72756,373.03749 510.49431,359.76275 518.19814,351.50596 525.24337,342.55897 530.92469,332.80397 531.41769,331.47409 533.11619,329.69695 532.00304,328.31569 531.71399,328.10005 531.32921,328.08328 530.98298,328.11168 z"
       inkscape:connector-curvature="0"
       id="path3043"
       style="fill:#85dbce;stroke:none" />
    <path
       d="M 525.69138,223.11338 C 519.01525,220.7258 517.47688,212.76722 512.07613,208.83562 506.14399,207.49814 500.97038,214.92931 503.65945,220.17902 506.37369,228.51638 514.97704,233.82307 516.19699,242.7991 522.37547,251.4912 524.44324,260.01873 521.31077,269.13188 516.9064,279.29206 507.74821,286.08746 500.83515,294.40445 495.25082,299.687 490.56,305.55703 483.66964,308.73945 479.81873,312.43034 478.55998,317.70634 483.41212,320.10673"
       inkscape:connector-curvature="0"
       id="path3023"
       style="fill:none;stroke:#0000e9;stroke-width:1;stroke-miterlimit:4;stroke-opacity:1;stroke-dasharray:none;stroke-dashoffset:0" />
    <path
       d="M 617.43929,293.27188 C 637.6186,299.85438 628.88841,323.63098 619.89962,347.21947"
       inkscape:connector-curvature="0"
       id="path3021"
       style="fill:none;stroke:#0000e9;stroke-width:1;stroke-miterlimit:4;stroke-opacity:1;stroke-dasharray:none;stroke-dashoffset:0" />
    <path
       d="M 607.84252,342.79635 C 625.01632,344.0312 620.91169,351.78336 616.82211,361.28811 612.86611,367.35537 613.22586,374.28579 604.0724,379.31356 597.65978,384.34001 598.92345,376.20711 600.55524,367.44314"
       inkscape:connector-curvature="0"
       id="path3024"
       style="fill:none;stroke:#0000e9;stroke-width:1;stroke-miterlimit:4;stroke-opacity:1;stroke-dasharray:none;stroke-dashoffset:0" />
    <path
       d="M 647.59726,340.18515 C 648.17246,341.59696 645.51158,341.24502 647.34962,340.43298 640.10337,347.19742 633.5785,354.8776 628.7456,363.5578 626.30366,368.85295 625.46459,374.72151 622.95204,379.99858 618.43352,391.19984 612.17991,401.5661 605.84667,411.80764 604.09187,414.91275 602.17803,418.63543 603.31413,422.25706 606.18713,426.06711 609.94975,419.86785 610.08807,416.97502 612.76369,410.39555 617.01245,404.60041 619.76044,398.05322 622.77373,392.37451 625.18843,386.39774 627.81193,380.54723 631.21551,375.15683 634.4057,369.6284 637.42393,364.02324 639.78393,360.638 642.21421,357.20599 643.37325,353.19513 645.05523,349.3862 648.54071,345.96352 648.21474,341.55272"
       inkscape:connector-curvature="0"
       id="path3027"
       style="fill:none;stroke:#0000e9;stroke-width:1;stroke-miterlimit:4;stroke-opacity:1;stroke-dasharray:none;stroke-dashoffset:0" />
    <path
       d="M 647.0204,341.71302 C 640.516,347.19593 635.02031,353.96551 630.5337,361.22227 626.16488,369.23076 624.51601,378.41022 620.29793,386.48835 615.66606,396.7304 609.27134,405.99816 604.10004,415.91687 603.32809,418.09261 602.09827,422.50589 605.40524,423.04737 608.99325,421.86165 609.55012,417.55927 610.99697,414.61168 616.51195,403.69076 622.15005,392.74888 627.25346,381.59116 631.6314,372.98843 636.89286,364.86882 641.6897,356.5373 643.45084,351.71008 647.00191,347.55321 647.9409,342.45492 647.9706,341.97524 647.51397,341.50498 647.0204,341.71302 z"
       inkscape:connector-curvature="0"
       id="path3039"
       style="fill:#d5be93;stroke:none" />
    <path
       d="M 608.90849,437.34672 594.83985,412.72659 574.17653,415.80411 565.82327,451.41537"
       inkscape:connector-curvature="0"
       id="path3029"
       style="fill:none;stroke:#0000e9;stroke-width:1;stroke-miterlimit:4;stroke-opacity:1;stroke-dasharray:none;stroke-dashoffset:0" />
    <path
       d="M 593.49635,413.279 C 587.19712,414.07397 580.84951,414.90039 574.64657,416.20539 572.10601,424.49889 570.45897,433.18861 568.33659,441.65066 567.92147,444.62639 566.44913,447.61921 566.59557,450.58014 568.92302,452.18801 572.20082,451.33448 574.89387,451.47317 584.82381,451.24248 594.38086,447.64478 602.43268,441.96548 604.39154,440.32913 607.1836,439.06887 608.32064,436.82749 603.67066,429.15174 599.79399,420.9312 594.52677,413.69117 594.2668,413.41932 593.89819,413.1864 593.49635,413.279 z"
       inkscape:connector-curvature="0"
       id="path3064"
       style="fill:#9eae8b;stroke:none" />
    <path
       d="M 510.39041,208.89655 C 505.19454,209.2611 501.62032,215.61004 503.9203,220.2921 506.72745,227.90845 513.89541,233.19976 516.0056,241.06251 516.84949,244.41804 519.51843,246.93057 520.57748,250.21793 522.04481,253.38361 522.84833,256.76713 522.55343,260.27853 522.7709,264.18027 522.34144,268.1295 520.31901,271.51865 515.92273,279.6068 508.89429,285.78552 502.71622,292.51299 496.86349,298.27841 491.4879,304.77271 484.23128,308.80514 481.26409,310.81298 479.14347,315.42989 481.71209,318.52893 482.412,319.73429 483.89123,319.71986 484.71209,318.62683 501.37466,306.11699 518.18721,293.45995 532.12258,277.96933 535.88408,274.51595 539.24493,270.5653 542.39121,266.53492 544.97429,262.37557 547.88656,257.34872 546.09258,252.31235 544.58403,247.33293 539.71971,244.7481 535.93082,241.68427 533.57218,239.11642 532.02477,235.89839 529.76187,233.2809 528.43757,230.32253 525.58282,227.9287 525.26388,224.55694 526.28353,222.98804 524.07309,222.81843 523.22376,222.00193 518.55812,218.66402 516.65671,212.63712 512.02251,209.27544 511.52409,209.00462 510.96113,208.84082 510.39041,208.89656 z"
       inkscape:connector-curvature="0"
       id="path3050"
       style="fill:#8678d2;stroke:none" />
    <path
       d="M 494.60076,319.302 C 499.62354,315.72054 505.59505,313.28255 511.92833,312.89876 515.87136,312.84956 518.54974,317.52921 517.15018,321.04917 516.36589,325.72354 513.8265,330.04949 510.12869,332.83038 505.78286,337.7279 499.86594,341.92447 493.27807,343.31396 489.87903,344.12169 485.88005,344.37577 482.91736,342.21904 480.57757,339.8768 480.86786,336.0692 482.28453,333.32137 484.55052,327.52381 489.72592,322.75923 494.60076,319.302 z"
       inkscape:connector-curvature="0"
       id="path3031"
       style="fill:none;stroke:#0000e9;stroke-width:1;stroke-linecap:round;stroke-miterlimit:4;stroke-opacity:1;stroke-dasharray:none;stroke-dashoffset:0" />
    <path
       d="M 511.22539,313.16104 C 502.5699,313.75161 494.74557,318.55714 488.6661,324.50252 485.25736,328.00774 482.00271,332.23009 481.37074,337.22475 481.0794,339.83089 482.63089,342.59511 485.27259,343.22865 489.6475,344.37487 494.31246,343.19965 498.36707,341.45555 504.10994,339.01367 508.47539,334.37658 512.79163,330.03243 515.32691,327.07689 516.7787,323.23575 517.29112,319.40538 517.47515,316.75418 515.68354,313.73363 512.97024,313.22287 512.39398,313.14327 511.80722,313.13187 511.22539,313.16107 z"
       inkscape:connector-curvature="0"
       id="path3055"
       style="fill:#7f8281;stroke:none" />
    <path
       d="M 561.98242,208.65602 C 560.88087,209.18642 561.70971,210.7137 561.61764,211.6296 562.25719,217.53592 559.74186,223.20593 556.8372,228.22023 553.94322,232.85915 549.66269,237.46626 543.88828,237.94051 540.0976,238.35201 536.53501,236.79514 533.13758,235.30951 531.94125,235.14012 532.52776,236.6214 532.98645,237.0887 534.42106,239.50844 536.16537,241.83692 538.62628,243.32616 542.14362,245.63773 545.86051,248.68753 546.62919,253.06705 547.25355,256.67621 546.38952,260.28891 544.61644,263.45367 541.63792,269.25824 536.63293,273.56174 532.30612,278.35457 523.84087,287.44554 514.73607,295.83904 504.97282,303.46824 492.2868,313.59224 479.01842,323.06863 466.63439,333.5702 462.52922,337.3729 459.53095,342.44606 458.2193,347.88614 457.15124,352.09636 457.92619,357.00269 461.25162,360.02313 462.62372,361.58661 464.75419,361.70119 466.68243,361.64989 474.66184,361.98108 483.09273,360.70662 489.77758,356.10201 495.19016,351.77783 500.02719,346.76722 505.68703,342.72926 507.11898,341.63664 508.81622,340.75779 510.11117,339.56036 510.61314,339.08142 509.61275,338.67868 510.27603,338.30325 531.49235,311.3736 552.70756,284.44308 573.92154,257.51159 575.60519,249.99492 577.0311,242.33434 577.26159,234.60883 577.26062,228.218 577.34499,221.35225 574.03145,215.656 571.5798,211.73781 566.87334,210.42494 562.81363,208.9308 562.5852,208.74755 562.27995,208.62124 561.98242,208.65602 z M 511.76671,312.90001 C 515.55091,312.5717 518.22442,316.84544 517.44595,320.27481 516.6706,324.37318 515.02494,328.51274 511.83987,331.35069 507.80383,335.5749 503.43478,339.7676 497.90634,341.91632 493.63832,343.57782 488.65867,344.90721 484.24767,343.12561 481.03138,341.7731 480.5408,337.55173 481.66475,334.64183 483.93835,327.95562 489.2742,322.94011 494.89396,318.99207 499.84907,315.53522 505.71731,313.15577 511.76671,312.90001 z"
       inkscape:connector-curvature="0"
       id="path3057"
       style="fill:#9de082;stroke:none" />
    <path
       d="M 532.68611,332.54174 C 533.74478,327.44928 538.8418,322.38345 537.97101,332.85262 537.13457,340.57072 532.58996,341.04051 532.68611,332.54174 z"
       inkscape:connector-curvature="0"
       id="path3032"
       style="fill:none;stroke:#0000e9;stroke-width:1;stroke-linecap:round;stroke-miterlimit:4;stroke-opacity:1;stroke-dasharray:none;stroke-dashoffset:0" />
    <path
       d="M 536.43799,326.91779 C 534.96686,327.34239 534.25788,328.94276 533.58668,330.1917 532.59358,331.9997 532.87077,334.17348 533.10579,336.1372 533.32231,337.1636 533.88782,338.60282 535.1022,338.65821 536.80573,337.98591 537.2892,335.90015 537.63549,334.29372 537.93778,332.15953 538.17171,329.88657 537.58439,327.79213 537.40674,327.33208 536.97726,326.85623 536.43803,326.91779 z"
       inkscape:connector-curvature="0"
       id="path3036"
       style="fill:#b667d7;stroke:none" />
    <path
       d="M 443.47431,103.05429 C 435.20187,108.91164 426.57685,114.78067 416.61753,117.18458 410.87973,118.63138 404.59496,118.2932 399.23754,115.71267 398.53489,115.36595 397.57931,114.78384 396.95462,115.58648 394.16613,117.96741 392.3323,121.52263 388.77944,122.92353 384.02721,125.03868 378.68332,124.87243 373.59511,125.34259 372.93223,126.01867 373.41747,127.08501 373.05304,125.51471 372.2271,125.03648 371.09423,125.53491 370.14771,125.44271 367.99353,125.5801 365.80529,125.61331 363.66884,125.77407 362.93386,126.27715 363.47994,127.4563 363.31201,128.23529 363.31201,134.44472 363.31201,140.65414 363.31201,146.86357 363.63171,147.71207 364.81512,147.37691 365.56091,147.52459 369.41855,147.62169 373.28865,147.65472 377.14113,147.58249 383.14769,145.25212 388.1538,141.10042 393.36385,137.4145 402.80297,130.46972 412.44375,123.59325 423.2868,119.02075 434.38608,114.13298 446.48243,111.65738 458.62952,111.8026 462.19681,111.7719 465.81867,111.7547 469.2262,112.89349 483.9855,117.17317 498.83473,121.678 512.26013,129.32874 530.11231,139.30823 544.64578,154.19824 556.82264,170.44645 557.76082,171.56801 558.68226,172.85438 560.00426,173.53092 561.40126,175.19809 563.18881,176.55817 564.76612,178.07387 576.59287,188.7166 588.49584,199.56144 597.42682,212.84118 605.02582,223.82439 610.55561,236.22466 613.72034,249.1811 615.73592,257.34895 616.85861,265.73585 617.36089,274.12848 617.59078,275.0938 619.18649,274.92544 619.14356,273.90017 620.48829,258.00497 618.14952,241.68299 611.629,227.09764 606.54298,215.24073 599.0771,204.62588 591.44851,194.30951 586.03514,187.16118 580.60746,180.01618 574.97488,173.04518 565.12776,162.69763 554.88568,152.69759 543.93099,143.51681 527.0054,129.38161 508.00631,117.30807 486.94963,110.38349 474.44969,106.18209 461.33419,103.9772 448.16174,103.54495 446.66037,103.50875 445.17581,103.19842 443.70609,103.00448 L 443.55413,103.03718 443.47433,103.05438 z"
       inkscape:connector-curvature="0"
       id="path3831"
       style="fill:#73a0a6;stroke:none" />
    <path
       d="M 558.54217,173.322 C 557.40913,173.61332 557.87966,175.09276 558.105,175.88672 558.60513,177.94402 559.66949,179.8112 560.18884,181.85651 560.9275,185.42281 558.65327,188.66232 558.70246,192.21257 558.4466,197.78152 560.19084,203.15914 561.19919,208.57728 561.45637,209.4437 562.54132,209.18849 563.1033,208.88816 566.0329,209.80997 569.05172,210.74281 571.54553,212.58467 573.62453,214.15318 575.02658,216.43266 575.74721,218.90905 577.02381,222.71328 577.46697,226.70797 577.42565,230.71247 577.5272,235.29242 577.35075,239.86705 576.59132,244.38793 576.02998,248.64748 575.12413,252.83891 574.32773,257.05801 573.75423,260.48943 575.16205,263.88726 574.44971,267.31263 573.52322,274.74594 572.84976,282.23425 571.51787,289.60014 570.6383,294.25406 569.32162,298.89652 566.5618,302.80673 566.02601,303.49305 566.7584,304.04551 567.44099,304.10366 570.24579,304.91987 573.08695,305.74783 575.52863,307.40186 576.41691,307.59001 577.05132,306.57447 577.80793,306.22969 583.2496,302.50443 588.66659,298.48402 594.92438,296.2249 598.02112,295.23169 601.58484,294.67905 604.7024,295.9626 605.34973,296.39412 606.37844,296.61613 606.73884,295.69391 609.77108,291.85157 612.51937,287.74448 614.32013,283.16325 615.25265,280.84685 616.26928,278.5603 617.23945,276.27054 616.82323,263.00557 614.44628,249.76791 609.91443,237.2896 603.93673,220.87546 593.74563,206.22491 581.38791,193.97455 574.44838,186.90293 567.05334,180.29412 559.60109,173.76888 559.31126,173.50395 558.95133,173.27533 558.54217,173.322 z"
       inkscape:connector-curvature="0"
       id="path3833"
       style="fill:#d0cf6e;stroke:none" />
    <path
       d="M 600.31128,295.32627 C 595.27349,295.54194 590.74462,298.14618 586.50399,300.64652 583.1328,302.74955 579.82654,304.98313 576.6167,307.32415 576.0798,308.09024 577.20788,308.65814 577.57444,309.21891 580.41857,312.0539 581.89548,315.90428 583.36368,319.56975 583.89356,320.41266 584.69606,319.39845 585.11211,318.97568 591.95118,312.14612 598.76209,305.25308 604.95985,297.82785 605.57359,297.2639 605.37738,296.19699 604.50811,296.04517 603.1598,295.56815 601.74962,295.27382 600.31128,295.32627 z"
       inkscape:connector-curvature="0"
       id="path3835"
       style="fill:#d17697;stroke:none" />
    <path
       d="M 565.60488,304.01137 C 562.62636,307.70966 559.32532,311.09809 555.54712,314.01969 553.38772,315.77272 551.04582,317.3777 548.73014,318.88971 548.38656,319.2014 548.76544,319.66016 548.90501,319.92434 546.91962,324.78634 545.46399,330.26241 546.91535,335.47852 547.94157,339.71448 549.67376,344.02127 553.19899,346.79569 554.98634,348.30908 557.66089,349.56817 559.91196,348.29664 560.61617,348.01335 560.93625,347.17441 560.42685,346.57225 563.39604,344.24406 565.58173,341.11546 568.01896,338.25599 572.6888,332.51876 577.12538,326.50648 582.56686,321.51138 583.08089,321.06965 583.57785,320.41467 583.15966,319.73004 581.47963,314.83045 579.02469,309.71798 574.4017,306.94527 571.81847,305.41685 568.87359,304.65951 565.97891,303.95308 565.85423,303.97248 565.72956,303.99198 565.60488,304.01138 z"
       inkscape:connector-curvature="0"
       id="path3837"
       style="fill:#a7c0ab;stroke:none" />
    <path
       d="M 617.09373,293.5776 C 616.2144,295.26099 615.96679,297.23242 615.32483,299.02213 613.26444,305.81353 611.29766,312.66893 610.57105,319.752 609.67258,327.22313 609.13394,334.74759 608.1949,342.20541 608.61167,343.15825 609.93092,342.75927 610.74804,343.05037 613.7416,343.49279 616.87698,344.22801 619.20671,346.29537 619.91173,346.88456 620.34765,345.9036 620.48908,345.3336 623.92513,336.18573 627.49237,326.97584 629.08089,317.2885 629.97273,311.60916 630.10441,305.31683 626.9349,300.276 624.79797,296.89223 621.23637,294.56235 617.44832,293.43187 617.33012,293.48047 617.21193,293.52897 617.09373,293.5776 z"
       inkscape:connector-curvature="0"
       id="path3839"
       style="fill:#c9ca98;stroke:none" />
    <path
       d="M 608.76808,343.02146 C 607.62852,343.13694 607.96732,344.62816 607.70414,345.39967 606.37157,353.02697 604.18362,360.53757 600.75331,367.50295 600.09981,369.67323 599.90765,372.02822 599.55481,374.28651 599.37602,376.22174 598.96196,378.40618 599.95183,380.18572 600.88462,381.30309 602.42327,380.31557 603.34391,379.70602 606.64905,377.77923 609.78606,375.34116 611.61127,371.8964 613.53624,368.36021 614.79915,364.4729 616.81685,360.97941 618.1945,357.85926 619.67146,354.69411 620.24621,351.30339 620.68149,348.98164 619.65697,346.45946 617.54547,345.30931 615.09181,343.86712 612.20309,343.34314 609.4044,343.02632 609.19246,343.02232 608.97991,343.00712 608.76808,343.02132 z"
       inkscape:connector-curvature="0"
       id="path3841"
       style="fill:#ca818c;stroke:none" />
  </g>
</svg>
