<?xml version="1.0" encoding="UTF-8" standalone="no"?>
<!-- Created with Inkscape (http://www.inkscape.org/) -->

<svg
   xmlns:dc="http://purl.org/dc/elements/1.1/"
   xmlns:cc="http://creativecommons.org/ns#"
   xmlns:rdf="http://www.w3.org/1999/02/22-rdf-syntax-ns#"
   xmlns:svg="http://www.w3.org/2000/svg"
   xmlns="http://www.w3.org/2000/svg"
   xmlns:xlink="http://www.w3.org/1999/xlink"
   xmlns:inkscape="http://www.inkscape.org/namespaces/inkscape"
   version="1.1"
   width="740"
   height="520"
   id="svg2"
   style="enable-background:new">
  <defs
     id="defs4">
    <filter
       color-interpolation-filters="sRGB"
       id="filter3050">
      <feBlend
         in2="BackgroundImage"
         mode="lighten"
         id="feBlend3052" />
    </filter>
  </defs>
  <metadata
     id="metadata7">
    <rdf:RDF>
      <cc:Work
         rdf:about="">
        <dc:format>image/svg+xml</dc:format>
        <dc:type
           rdf:resource="http://purl.org/dc/dcmitype/StillImage" />
        <dc:title />
      </cc:Work>
    </rdf:RDF>
  </metadata>
  <g
     id="layer1"
     style="display:none">
    <image
       xlink:href="pngs/coronal-0616.png"
       id="MRISLICE"
       height="520"
       width="740"
       y="0"
       x="0" />
  </g>
  <g
     id="layer3"
     style="display:inline">
    <path
       d="M 374.91651,153.33597 374.91651,73.581996 C 393.24338,36.261265 484.1044,53.886931 555.84637,81.043021 625.00026,112.15363 675.81095,160.69028 678.95329,254.51186 687.25339,284.33826 683.24476,310.47203 658.43547,330.36561 626.64136,364.57559 619.58368,405.26457 579.47295,440.41573 570.75853,451.6852 505.62759,452.15166 490.5624,431.08945 433.82135,380.02024 431.20317,430.7923 372.4295,416.78915 377.8336,380.90503 386.8874,338.05332 374.91651,335.33963 L 374.91651,166.96497"
       inkscape:connector-curvature="0"
       id="path2990"
       style="fill:none;stroke:#0000e9;stroke-width:1;stroke-miterlimit:4;stroke-opacity:1;stroke-dasharray:none;stroke-dashoffset:0" />
    <path
       d="M 356.11254,153.33597 C 359.75607,153.86208 382.37282,153.13048 385.3295,152.97236 422.81127,144.69898 406.27121,120.63966 440.52441,130.47442"
       inkscape:connector-curvature="0"
       id="path2992"
       style="fill:none;stroke:#0000e9;stroke-width:1;stroke-miterlimit:4;stroke-opacity:1;stroke-dasharray:none;stroke-dashoffset:0" />
    <path
       d="M 439.20548,130.03478 C 465.79151,134.73683 531.95859,155.47292 573.73688,198.17977 594.6433,222.15892 629.98695,267.57143 605.39134,312.04786"
       inkscape:connector-curvature="0"
       id="path2994"
       style="fill:none;stroke:#0000e9;stroke-width:1;stroke-miterlimit:4;stroke-opacity:1;stroke-dasharray:none;stroke-dashoffset:0" />
    <path
       d="M 600.99488,308.97037 C 620.83887,272.28226 599.74668,240.21432 575.93511,206.9727 538.11601,173.84259 494.30001,157.20395 447.11909,149.81884 428.00959,160.96704 404.4198,165.47145 381.87683,167.65075 379.94012,167.83798 365.62582,167.04474 358.5364,166.79815 356.66568,166.73305 355.29803,166.70605 354.79361,166.74515 L 356.33237,153.11615"
       inkscape:connector-curvature="0"
       id="path2996"
       style="fill:none;stroke:#0000e9;stroke-width:1;stroke-miterlimit:4;stroke-opacity:1;stroke-dasharray:none;stroke-dashoffset:0" />
    <path
       d="M 536.16882,368.32243 C 533.83712,367.46372 531.41341,369.01086 530.52153,371.18165 529.07758,373.3842 527.64404,376.67678 529.39458,379.04815 531.93601,380.97462 534.69051,377.92886 536.40992,376.2175 538.06679,374.39551 539.51324,371.30669 537.49306,369.20669 537.12306,368.81973 536.66439,368.52198 536.16882,368.32243 z"
       inkscape:connector-curvature="0"
       id="path3007"
       style="fill:none;stroke:#0000e9;stroke-width:1;stroke-miterlimit:4;stroke-opacity:1;stroke-dasharray:none;stroke-dashoffset:0" />
    <path
       d="M 473.4978,326.99579 C 465.61498,326.68166 461.52661,325.28045 461.71013,317.77177 461.81264,306.99001 464.51989,296.00296 470.75613,287.08738 475.21718,277.88975 486.16586,269.91416 486.62413,259.19262 503.78348,245.91783 487.07059,247.68648 478.29243,248.30066 479.86547,243.02644 487.76735,244.44115 490.75063,239.9499 497.1928,233.84651 499.8151,224.83967 500.70491,216.27384 504.21719,211.97542 508.56673,220.04291 510.63769,222.82509 514.8534,229.36316 513.97828,237.84365 511.95088,244.98182 510.64294,249.59837 508.10301,253.71178 504.49949,256.86867 486.7192,275.78383 473.18315,300.43778 473.4978,326.99579 z"
       inkscape:connector-curvature="0"
       id="path3009"
       style="fill:none;stroke:#0000e9;stroke-width:1;stroke-miterlimit:4;stroke-opacity:1;stroke-dasharray:none;stroke-dashoffset:0" />
    <path
       d="M 460.4703,223.52924 C 461.79726,225.18244 462.08496,231.29287 460.3246,236.45278 457.51223,244.69632 451.40284,252.92678 450.51105,254.8784 445.96306,264.8314 441.04166,275.57719 435.46128,285.4827 430.21097,293.15556 424.05098,300.14829 417.76178,306.97602 415.81218,311.14587 419.62115,314.96397 423.63957,315.34456 429.84242,316.79484 436.41769,316.07263 442.39066,318.57104 446.71258,319.78163 450.91305,322.68439 455.55051,321.86209 457.88618,321.3842 459.99911,320.22005 462.06702,319.08218"
       inkscape:connector-curvature="0"
       id="path3015"
       style="fill:none;stroke:#0000e9;stroke-width:1;stroke-miterlimit:4;stroke-opacity:1;stroke-dasharray:none;stroke-dashoffset:0" />
    <path
       d="M 601.65435,308.31087 C 596.28103,325.60596 571.19985,357.54164 571.36704,359.50499 M 571.82098,360.26553 C 577.99417,355.22469 585.41355,348.25302 589.33524,341.27705 596.53037,332.51344 603.38822,313.171 607.14992,309.41"
       inkscape:connector-curvature="0"
       id="path3021"
       style="fill:none;stroke:#0000e9;stroke-width:1;stroke-miterlimit:4;stroke-opacity:1;stroke-dasharray:none;stroke-dashoffset:0" />
    <path
       d="M 510.42799,249.1786 C 525.86995,262.07537 550.76677,281.41805 536.80669,327.87508 519.54914,355.84431 485.59999,344.12388 472.17886,327.87508"
       inkscape:connector-curvature="0"
       id="path3028"
       style="fill:none;stroke:#0000e9;stroke-width:1;stroke-miterlimit:4;stroke-opacity:1;stroke-dasharray:none;stroke-dashoffset:0" />
    <path
       d="M 538.12563,326.99579 C 547.87066,329.61347 557.72317,350.56074 564.71143,355.59042"
       inkscape:connector-curvature="0"
       id="path3030"
       style="fill:none;stroke:#0000e9;stroke-width:1;stroke-miterlimit:4;stroke-opacity:1;stroke-dasharray:none;stroke-dashoffset:0" />
    <path
       d="M 537.41663,363.73601 C 523.16119,360.04515 524.32323,349.46185 526.69486,338.86621"
       inkscape:connector-curvature="0"
       id="path3032"
       style="fill:none;stroke:#0000e9;stroke-width:1;stroke-miterlimit:4;stroke-opacity:1;stroke-dasharray:none;stroke-dashoffset:0" />
    <path
       d="M 527.1345,356.89166 C 525.52867,355.72216 521.32526,350.96 516.61589,352.24971 506.78468,355.44244 496.62677,364.27193 498.21974,375.60339 499.40918,382.57175 507.0444,388.23572 514.08475,387.03857 524.28524,383.45372 528.64715,371.58188 527.70571,361.50173 527.77791,359.96176 524.07559,355.93499 527.13445,356.89162"
       inkscape:connector-curvature="0"
       id="path3034"
       style="fill:none;stroke:#0000e9;stroke-width:1;stroke-miterlimit:4;stroke-opacity:1;stroke-dasharray:none;stroke-dashoffset:0" />
    <path
       d="M 418.30074,337.7455 C 415.99536,338.0551 416.66971,333.05015 414.98466,333.99837 410.33221,333.12013 408.79521,329.74039 403.63887,333.41551 399.43761,337.78074 404.49489,343.21705 407.17458,346.88139 409.84084,349.66891 414.69878,355.64091 418.47139,351.23839 421.70696,347.41609 419.27817,341.95945 418.30074,337.7455 z"
       inkscape:connector-curvature="0"
       id="path3036"
       style="fill:none;stroke:#0000e9;stroke-width:1;stroke-miterlimit:4;stroke-opacity:1;stroke-dasharray:none;stroke-dashoffset:0" />
    <path
       d="M 447.55873,320.40111 C 449.64724,324.65932 453.16124,327.93887 456.5626,331.12712 460.97774,336.78157 460.92882,344.42704 464.43172,350.54988 467.34034,356.82432 469.15144,363.5564 470.17451,370.37049 472.77784,378.20924 480.25559,383.41919 482.15695,391.59492 483.18216,394.73747 484.34121,399.26571 481.06656,401.48076 477.26859,402.75494 473.10191,402.56315 469.131,402.47442 464.99819,402.17074 460.94225,401.18658 456.76962,401.33186 450.37988,401.33786 443.05596,398.30731 440.97193,391.77021 439.32083,385.30025 438.24023,378.60293 435.73488,372.40118 433.23529,368.65982 432.28959,360.4465 430.75995,356.2907 432.88104,352.89015 431.39894,350.90928 431.33516,345.69114 431.85574,340.37513 426.94944,335.32364 424.45411,330.5837 425.34546,331.39189 445.976,320.50386 447.11909,320.40109"
       inkscape:connector-curvature="0"
       id="path3058"
       style="fill:none;stroke:#0000e9;stroke-width:1;stroke-miterlimit:4;stroke-opacity:1;stroke-dasharray:none;stroke-dashoffset:0" />
    <path
       d="M 499.8765,367.88279 C 489.80158,368.45109 483.31201,374.39741 477.89425,381.95143"
       inkscape:connector-curvature="0"
       id="path3064"
       style="fill:none;stroke:#0000e9;stroke-width:1;stroke-miterlimit:4;stroke-opacity:1;stroke-dasharray:none;stroke-dashoffset:0" />
    <path
       d="M 499.8986,214.93963 C 505.43955,185.51516 497.72649,178.62253 495.9197,161.68923"
       inkscape:connector-curvature="0"
       id="path3012"
       style="fill:none;stroke:#0000e9;stroke-width:1;stroke-miterlimit:4;stroke-opacity:1;stroke-dasharray:none;stroke-dashoffset:0" />
    <path
       d="M 407.77804,332.08144 C 404.07067,332.15164 401.25243,336.18349 402.85951,339.63784 405.19277,344.59817 408.90943,349.11701 413.61707,352.0166 417.45316,353.64942 420.55032,348.8545 419.74463,345.42193 419.34078,342.29111 418.74746,338.92735 416.51598,336.60155 416.20803,334.76226 414.7549,333.83224 413.0263,333.64768 411.28779,333.13047 409.63964,332.03535 407.77804,332.08144 z"
       inkscape:connector-curvature="0"
       id="path3029"
       style="fill:#bfb195;stroke:none" />
    <path
       d="M 534.54696,368.57199 C 530.88517,369.35046 528.88622,373.67433 528.91401,377.13133 529.28911,378.8335 531.16344,380.3131 532.73342,378.88991 535.58128,377.11078 539.2506,373.60471 537.51457,369.95962 536.88909,368.99762 535.6886,368.43377 534.54696,368.57199 z"
       inkscape:connector-curvature="0"
       id="path3035"
       style="fill:#ac65d7;stroke:none" />
    <path
       d="M 446.72785,320.99414 C 439.71301,324.0006 432.77268,327.55678 425.87218,330.61138 425.40293,333.11557 428.01455,335.13739 428.90848,337.31597 432.17327,342.33726 431.89636,348.62423 431.77991,354.39343 430.66835,358.06249 432.81462,361.84115 433.46693,365.45008 435.55072,372.12725 438.40962,378.53794 439.74202,385.4585 440.81434,390.47118 442.21026,396.31478 447.35984,398.63272 453.1677,401.96922 460.24093,400.67891 466.59431,401.99876 471.1984,402.21135 476.0145,402.53928 480.49809,401.38051 483.90857,399.47273 482.99775,394.92863 481.92694,391.90066 479.68155,382.65674 470.47202,376.56278 469.2734,366.86836 467.50577,356.70543 462.31949,347.63209 459.57368,337.75495 457.54189,330.95182 451.291,326.90838 447.55218,321.20023 447.35269,320.98557 447.00929,320.90529 446.72785,320.99414 z"
       inkscape:connector-curvature="0"
       id="path3041"
       style="fill:#aac7db;stroke:none" />
    <path
       d="M 614.62388,280.83305 C 623.54272,286.27085 637.12625,301.92429 619.89962,319.74164 615.28335,325.01738 609.78778,325.89667 600.99488,320.62093"
       inkscape:connector-curvature="0"
       id="path3019"
       style="fill:none;stroke:#0000e9;stroke-width:1;stroke-miterlimit:4;stroke-opacity:1;stroke-dasharray:none;stroke-dashoffset:0" />
    <path
       d="M 619.45998,319.96147 C 620.90987,328.35214 609.31386,339.75341 595.71914,351.61592 594.31542,344.56588 591.65947,343.77698 589.12446,342.38337"
       inkscape:connector-curvature="0"
       id="path3024"
       style="fill:none;stroke:#0000e9;stroke-width:1;stroke-miterlimit:4;stroke-opacity:1;stroke-dasharray:none;stroke-dashoffset:0" />
    <path
       d="M 597.03808,350.73663 C 588.49324,361.04577 587.82935,375.07557 577.25405,383.27037 569.49336,391.10823 557.38713,388.61582 568.90079,373.59817 583.30802,360.67917 581.00725,356.11417 582.09014,349.85734"
       inkscape:connector-curvature="0"
       id="path3026"
       style="fill:none;stroke:#0000e9;stroke-width:1;stroke-miterlimit:4;stroke-opacity:1;stroke-dasharray:none;stroke-dashoffset:0" />
    <path
       d="M 554.3925,447.8982 548.23747,422.39878 C 545.64606,410.73389 551.73857,406.66742 558.3493,403.0544 577.98394,387.94235 577.82617,416.66854 586.48659,432.07098"
       inkscape:connector-curvature="0"
       id="path3038"
       style="fill:none;stroke:#0000e9;stroke-width:1;stroke-miterlimit:4;stroke-opacity:1;stroke-dasharray:none;stroke-dashoffset:0" />
    <path
       d="M 578.57298,410.08872 C 593.39499,386.11884 612.25301,363.15106 619.89962,350.73663 633.65152,334.39257 637.34821,332.51754 630.01146,348.97805 612.86387,371.12657 594.98424,392.82137 579.89192,416.24375"
       inkscape:connector-curvature="0"
       id="path3040"
       style="fill:none;stroke:#0000e9;stroke-width:1;stroke-miterlimit:4;stroke-opacity:1;stroke-dasharray:none;stroke-dashoffset:0" />
    <path
       d="M 632.22359,338.48652 C 627.50349,342.23522 623.39812,346.90063 619.70734,351.69258 606.12595,371.21506 591.55236,390.02343 578.91662,410.14868 578.84412,411.50825 579.35616,413.05259 580.27677,414.05053 582.1082,413.62759 582.6387,410.86054 583.98627,409.65408 598.18148,388.51957 614.68929,369.03816 629.58572,348.44723 631.33837,345.57722 632.88893,342.21552 632.96549,338.83 632.84565,338.55701 632.50699,338.41871 632.22359,338.48652 z"
       inkscape:connector-curvature="0"
       id="path3042"
       style="fill:#d5be93;stroke:none" />
    <path
       d="M 567.38967,399.18503 C 561.68135,400.26117 557.01183,404.15943 552.41426,407.48333 547.91468,410.63578 547.50029,416.57064 548.53989,421.51076 550.09937,430.17018 552.43119,438.73096 554.51631,447.25748 557.70496,447.88834 561.11572,446.62026 564.33844,446.29927 570.02885,445.14702 576.06574,443.74566 580.14108,439.30002 582.43238,437.00645 585.43063,435.10035 587.06379,432.30954 585.56183,431.47413 584.87873,429.35239 584.1885,427.72693 580.62378,419.55413 579.05104,410.41999 574.17669,402.8808 572.56995,400.78014 570.22104,398.7815 567.38967,399.18503 z"
       inkscape:connector-curvature="0"
       id="path3044"
       style="fill:#b9abdd;stroke:none" />
    <path
       d="M 625.37359,292.26383 C 621.47783,297.31358 617.08743,300.63212 610.8653,297.53957"
       inkscape:connector-curvature="0"
       id="path3048"
       style="fill:none;stroke:#0000e9;stroke-width:1;stroke-miterlimit:4;stroke-opacity:1;stroke-dasharray:none;stroke-dashoffset:0" />
    <path
       d="M 435.53735,156.27502 C 430.4955,186.90009 461.95855,183.62775 477.50562,195.13453"
       inkscape:connector-curvature="0"
       id="path3047"
       style="fill:none;stroke:#0000e9;stroke-width:0.93800002;stroke-linecap:round;stroke-miterlimit:4;stroke-opacity:1;stroke-dasharray:none;stroke-dashoffset:0" />
    <path
       d="M 477.50561,195.4454 C 480.8124,198.68904 483.96668,202.69376 484.26433,207.49911 486.80073,212.53575 478.9077,221.60632 477.19478,224.97862 487.08182,223.91337 494.59183,233.16999 491.45229,238.34468"
       inkscape:connector-curvature="0"
       id="path3049"
       style="fill:none;stroke:#0000e9;stroke-width:0.93800002;stroke-linecap:round;stroke-miterlimit:4;stroke-opacity:1;stroke-dasharray:none;stroke-dashoffset:0" />
    <path
       d="M 484.34489,396.89308 506.41709,385.70155"
       inkscape:connector-curvature="0"
       id="path3054"
       style="fill:none;stroke:#0000e9;stroke-width:0.93800002;stroke-linecap:round;stroke-miterlimit:4;stroke-opacity:1;stroke-dasharray:none;stroke-dashoffset:0" />
    <path
       d="M 496.73526,368.46978 C 488.81627,369.85453 482.51125,375.72579 478.0827,382.11918 478.0094,383.66441 479.67804,384.79416 480.16168,386.23829 481.94568,389.44587 482.74582,393.03496 483.5716,396.53606 484.87458,397.13229 486.2204,395.42234 487.51584,395.1274 493.35359,392.08014 499.3994,389.30433 505.07062,386.01485 505.16922,384.71564 503.18666,384.52723 502.67467,383.44403 499.53067,380.64918 497.46541,376.61181 498.04236,372.33667 497.92978,371.1825 498.92244,368.20809 496.73526,368.46978 z"
       inkscape:connector-curvature="0"
       id="path3057"
       style="fill:#d5be6c;stroke:none" />
    <path
       d="M 477.50562,225.2895 C 465.0656,232.26629 463.33754,253.17294 479.68175,247.3617"
       inkscape:connector-curvature="0"
       id="path3815"
       style="fill:none;stroke:#0000e9;stroke-width:1;stroke-linecap:round;stroke-miterlimit:4;stroke-opacity:1;stroke-dasharray:none;stroke-dashoffset:0" />
    <path
       d="M 477.19474,225.2895 C 471.90985,227.29184 466.62495,230.50018 461.34006,223.73512"
       inkscape:connector-curvature="0"
       id="path3817"
       style="fill:none;stroke:#0000e9;stroke-width:1;stroke-linecap:round;stroke-miterlimit:4;stroke-opacity:1;stroke-dasharray:none;stroke-dashoffset:0" />
    <path
       d="M 447.18756,150.14736 C 443.44985,152.12605 439.39697,153.75884 435.85209,155.94933 434.22987,163.08241 435.21207,171.74128 440.77574,177.08671 447.00745,183.32959 455.95768,185.35431 463.93772,188.48992 469.9635,190.65577 476.48222,192.98662 480.325,198.42058 483.44978,202.12504 485.29128,207.13099 484.51548,211.97766 483.39357,216.50978 479.94684,220.21429 477.98372,224.36902 479.51866,225.18982 481.62841,224.78209 483.30747,225.54452 487.95823,227.02485 491.98268,231.01333 492.42002,235.98801 493.60746,237.058 494.52235,234.84006 495.12076,234.06446 498.23534,228.75971 499.70855,222.6314 500.59995,216.5874 500.67775,215.70306 502.48088,214.68311 501.07598,214.24611 499.03596,215.23603 500.28353,212.94179 500.29071,211.79615 502.06819,200.71205 502.29508,189.20227 499.23714,178.32665 497.8131,172.89264 496.67773,167.40923 495.66479,161.90236 493.88023,160.61538 491.40044,160.45903 489.36053,159.62267 475.65913,155.48647 461.64359,152.27367 447.48872,150.09878 L 447.18756,150.14738 z"
       inkscape:connector-curvature="0"
       id="path3039"
       style="fill:#a7b0c5;stroke:none" />
    <path
       d="M 502.68865,215.28561 C 500.75171,215.51182 500.53658,217.7365 500.47203,219.27434 499.28291,226.92598 496.43951,234.56376 490.88794,240.13154 488.10059,243.60361 482.9879,243.45891 479.82954,246.37321 478.99415,247.79238 481.19257,247.86846 482.07346,247.80338 485.78405,248.1393 489.88558,247.28584 493.30408,248.91851 495.05122,250.32918 493.57087,252.83855 492.41031,254.15483 490.89443,256.2869 488.48142,257.50519 486.91169,259.50772 486.29984,262.0753 486.05392,264.81156 484.57252,267.12789 479.269,276.39513 471.42839,284.10944 467.07729,293.97554 463.40861,301.99691 461.66256,310.9692 462.00274,319.79825 462.18088,323.49501 465.55662,326.16561 469.08489,326.42379 470.39836,326.45159 472.28035,327.36159 473.24286,326.36549 473.54929,307.91901 479.83286,289.90434 490.14455,274.73553 495.01116,267.25218 500.85022,260.50125 506.91462,253.97994 511.92535,248.13547 513.51598,240.08629 513.3653,232.55864 513.10758,226.19477 509.45309,220.42045 504.96193,216.13078 504.29753,215.65557 503.53399,215.21067 502.68865,215.28559 z"
       inkscape:connector-curvature="0"
       id="path3043"
       style="fill:#9de082;stroke:none" />
    <path
       d="M 479.36323,225.11706 C 476.05539,225.52251 473.76837,228.45957 471.74677,230.83912 468.85987,234.80857 466.59404,240.53855 469.12375,245.256 470.82449,248.3143 474.86621,248.59434 477.83799,247.59729 479.47207,246.19006 481.01247,244.59112 483.16175,243.97364 486.69515,242.78432 491.08344,241.16379 491.8177,237.00807 492.61208,231.68956 487.82676,227.30617 483.19089,225.81653 481.95203,225.42901 480.67702,225.03988 479.36323,225.11706 z"
       inkscape:connector-curvature="0"
       id="path3045"
       style="fill:#b667d7;stroke:none" />
    <path
       d="M 461.91531,225.47651 C 461.06247,226.54667 462.07816,228.18056 461.65301,229.4499 461.25125,240.03269 453.9591,248.31852 449.60157,257.50016 443.29408,270.34713 437.91045,283.94933 428.54102,294.9444 425.16168,299.36593 420.99903,303.17479 417.80977,307.74209 416.52434,310.52672 419.08886,313.67403 421.66658,314.60079 428.71833,316.70153 436.36761,315.88333 443.22389,318.71018 447.55764,320.01224 451.95945,322.93513 456.62002,321.31177 458.24915,320.70645 460.15174,320.21385 461.39071,319.02106 461.80642,309.47957 463.34506,299.82976 467.97739,291.37252 472.29196,282.64915 479.31717,275.67829 484.05551,267.22134 485.37295,264.78009 486.15734,262.05966 486.53281,259.362 488.81941,256.52473 492.72491,254.70649 493.73153,250.98778 493.78473,248.5084 490.64105,248.2968 488.80609,248.23847 483.39337,247.99387 477.89273,248.58638 472.53904,248.32927 469.97984,247.44036 467.84289,245.21353 467.86082,242.37069 467.1859,236.88467 470.07131,231.87073 473.51487,227.84695 473.59627,226.20364 471.4555,227.80295 470.49355,227.74985 467.58433,228.3717 464.63263,227.29499 462.38162,225.47657 462.23316,225.41167 462.06378,225.41167 461.91531,225.47657 z"
       inkscape:connector-curvature="0"
       id="path3053"
       style="fill:#8678d2;stroke:none" />
    <path
       d="M 576.67508,349.63992 C 561.0644,359.23215 534.98563,364.71158 538.64152,363.81793 541.2555,367.41528 549.33705,372.27817 551.12207,373.49847 554.275,375.65393 562.69447,366.54166 574.04479,359.70646"
       inkscape:connector-curvature="0"
       id="path3046"
       style="fill:none;stroke:#0000e9;stroke-width:1;stroke-linecap:round;stroke-miterlimit:4;stroke-opacity:1;stroke-dasharray:none;stroke-dashoffset:0" />
    <path
       d="M 391.28417,151.57738 C 408.0509,158.03358 420.67126,130.69276 438.98328,135.75974 442.49898,136.73254 444.01638,132.78909 442.94246,130.69423"
       inkscape:connector-curvature="0"
       id="path3050"
       style="fill:none;stroke:#0000e9;stroke-width:1;stroke-linecap:round;stroke-miterlimit:4;stroke-opacity:1;stroke-dasharray:none;stroke-dashoffset:0" />
    <path
       d="M 510.20689,249.88321 C 507.02376,255.24425 502.08315,259.21809 498.32695,264.16239 487.67562,277.14906 479.22785,292.23116 475.60481,308.72149 474.20457,314.71287 473.59637,320.98367 473.63391,327.05467 472.63016,326.90126 472.24083,328.14149 473.10496,328.64151 480.71823,337.06279 491.40658,342.63599 502.62988,344.28326 508.05405,344.59514 513.70438,344.77544 518.8418,342.73763 526.21957,340.11467 532.63935,334.75271 536.4276,327.91335 538.30283,323.46037 539.00521,318.60443 539.87968,313.87439 541.75754,301.49963 540.78673,288.35054 534.97815,277.09999 529.98085,266.76932 521.59407,258.66045 512.8865,251.42017 512.0506,251.01606 511.1841,249.28249 510.20689,249.88321 z"
       inkscape:connector-curvature="0"
       id="path3052"
       style="fill:#78a9c2;stroke:none" />
    <path
       d="M 426.55754,128.32133 C 422.82753,128.31233 419.17093,129.79684 416.58139,132.49789 412.42846,136.83589 409.00572,141.97379 403.98941,145.40075 400.90551,147.721 397.32624,149.18747 393.85206,150.77071 392.93384,151.11563 393.32805,152.34548 394.24362,152.27512 399.1171,152.93649 403.94112,151.15686 407.91384,148.42135 413.75028,144.86258 419.08871,140.44208 425.17678,137.32718 429.51348,135.27321 434.48561,134.4087 439.18359,135.64417 441.28722,136.22745 443.22121,134.24035 443.12666,132.18196 443.285,130.89335 441.87804,130.56977 440.90096,130.54016 436.16635,129.55013 431.43756,128.20679 426.55754,128.32133 z"
       inkscape:connector-curvature="0"
       id="path3055"
       style="fill:#b46a9f;stroke:none" />
    <path
       d="M 537.22446,326.98597 C 536.36509,329.2641 534.63457,331.25766 533.11652,333.14787 531.27623,335.3972 528.93049,337.23541 526.78289,339.16552 525.64264,344.6275 524.32983,350.68516 526.79659,355.98881 528.73806,360.36492 533.43354,362.58179 537.82893,363.68947 540.34491,363.58428 542.76894,362.61529 545.21449,362.03433 551.49283,360.21581 557.79993,358.27269 563.79477,355.71848 564.1405,354.69807 562.57365,354.05183 562.04605,353.21664 555.72123,346.06321 551.05944,337.46175 544.10074,330.83974 542.21607,329.09902 539.95929,327.74895 537.57476,326.83484 L 537.37292,326.92194 537.22442,326.98604 z"
       inkscape:connector-curvature="0"
       id="path3059"
       style="fill:#e1aa66;stroke:none" />
    <path
       d="M 575.5148,350.67185 C 571.4609,352.55886 567.44816,354.71335 563.23909,356.27046 555.74385,359.20398 548.06042,361.66025 540.23328,363.54521 539.06274,363.52831 539.41312,364.93662 540.16458,365.33127 543.6579,368.34768 547.4727,371.11809 551.43735,373.51279 553.37432,374.19773 555.17604,372.49231 556.76118,371.65117 561.94147,368.17167 566.79218,364.22246 572.01824,360.8043 572.74099,359.97263 570.72409,359.24402 571.7572,358.39312 573.10102,355.92018 575.00684,353.69943 576.17426,351.15271 576.11596,350.83098 575.8428,350.5862 575.51479,350.67185 z"
       inkscape:connector-curvature="0"
       id="path3061"
       style="fill:#d68d95;stroke:none" />
    <path
       d="M 614.36844,281.20105 C 613.49982,281.97086 613.91336,283.43455 613.67462,284.49152 613.31471,288.75525 612.72641,293.08774 611.60005,297.19314 611.98682,298.40978 613.6905,298.35602 614.73939,298.56704 618.96963,298.85245 622.43664,295.72871 624.86497,292.60435 625.44047,291.10722 623.79745,289.92884 623.12067,288.76403 620.71774,286.00069 618.16204,283.2685 615.06225,281.29036 614.85182,281.18265 614.59963,281.12854 614.36844,281.20106 z"
       inkscape:connector-curvature="0"
       id="path3063"
       style="fill:#d39ccd;stroke:none" />
    <path
       d="M 600.815,321.28432 C 597.26527,328.05355 594.15081,335.10964 589.58345,341.26757 588.87873,342.41128 590.6253,342.94857 591.30081,343.47953 593.71177,344.96759 594.75016,347.69897 595.61483,350.23221 596.2519,351.34161 597.28123,349.92672 597.88969,349.49039 604.60419,343.41769 611.52854,337.3021 616.51803,329.67693 617.88688,327.39493 619.21456,324.87381 619.30071,322.16361 618.8762,321.00734 617.56446,322.15961 616.92388,322.51396 613.29518,325.05549 608.47707,324.4164 604.64697,322.60226 603.48591,322.1245 602.3878,321.43495 601.16535,321.13322 L 600.9635,321.22032 600.815,321.28432 z"
       inkscape:connector-curvature="0"
       id="path3065"
       style="fill:#c9ca98;stroke:none" />
    <path
       d="M 588.75224,342.79946 C 586.58555,345.476 584.56225,348.43957 582.15756,350.98785 581.58171,354.7904 581.33442,358.80004 579.19625,362.14154 576.58598,366.5345 572.81272,370.00978 569.23612,373.6227 566.86121,376.58925 564.41594,380.02049 564.32446,383.96123 564.36396,386.24029 566.69089,387.84354 568.85143,387.35474 572.76781,387.22489 575.79878,384.29843 578.62752,381.91892 584.17114,376.89668 586.83511,369.65539 589.86738,362.99007 591.42901,359.42951 593.26932,355.98334 595.26448,352.67086 595.99808,350.72864 594.75288,348.74518 594.05546,346.97609 593.02945,344.98995 591.18294,343.36039 589.06824,342.66207 L 588.86664,342.74967 588.75224,342.79937 z"
       inkscape:connector-curvature="0"
       id="path3067"
       style="fill:#ca818c;stroke:none" />
    <path
       d="M 625.25653,293.05773 C 622.59676,295.20159 620.281,298.35047 616.60965,298.69104 614.93973,298.91553 613.24154,298.60004 611.64333,298.19177 610.69602,299.00404 610.66627,300.67909 610.09564,301.83003 609.11335,304.60004 607.87191,307.30308 606.77769,310.00468 604.65813,313.20259 602.89173,316.63272 601.41265,320.15773 601.61074,321.32039 603.18355,321.51202 604.04365,322.07431 606.95474,323.40675 610.18417,324.56669 613.41359,323.75046 617.3773,322.8634 620.05905,319.44987 622.51561,316.46884 625.9054,312.09254 628.44372,306.7101 627.95622,301.05378 627.84766,298.34031 627.03532,295.68262 625.91599,293.22947 625.71251,293.10694 625.51141,292.89086 625.25653,293.05773 z"
       inkscape:connector-curvature="0"
       id="path3069"
       style="fill:#bc90cc;stroke:none" />
    <path
       d="M 517.94877,352.19 C 513.35195,353.10539 509.18093,355.66701 505.65275,358.68313 503.02985,361.06972 500.44847,363.89314 499.46993,367.3715 499.56563,367.92715 499.36404,368.1607 498.96846,368.50496 497.97487,371.06293 498.15358,373.98217 498.61812,376.64526 500.11561,381.71122 504.65985,385.89697 509.87716,386.79832 512.44092,387.23444 515.20468,386.9229 517.31807,385.31537 524.669,380.68855 528.02525,371.55366 527.60739,363.13336 527.81764,361.19664 526.77795,359.55322 526.04099,357.86417 525.8655,356.99379 526.15612,355.91522 525.15483,355.40491 523.09609,353.76742 520.68925,352.14331 517.94877,352.19 z"
       inkscape:connector-curvature="0"
       id="path3071"
       style="fill:#a7c0ab;stroke:none" />
    <path
       d="M 444.26768,131.27505 C 442.95746,132.08019 443.61497,134.23813 442.19841,135.11243 440.93671,136.81213 438.58512,135.32094 436.77751,135.53988 431.37712,134.88982 426.08814,136.79316 421.64173,139.72699 414.75101,143.71648 408.8688,149.51102 401.1822,151.94831 398.03759,153.0394 394.52256,152.73787 391.29245,151.91921 388.40849,152.16004 385.64164,153.16873 382.69479,153.12386 374.08896,153.74712 365.44912,153.51078 356.83379,153.73589 355.84914,155.26697 356.28064,157.52783 355.82591,159.32696 355.66432,161.6545 355.02282,164.03056 355.17254,166.32637 358.86945,167.15413 362.80281,166.72428 366.58565,167.02263 375.24033,167.35142 383.95605,167.73683 392.53483,166.24026 410.84404,163.76602 429.17395,159.44957 445.48389,150.52311 447.52397,148.88732 450.05717,150.45041 452.35627,150.55541 487.59195,156.53662 522.17671,168.54471 551.9668,188.49575 560.39464,194.12161 568.51361,200.28285 576.14118,206.95586 587.04754,222.6001 598.51531,238.33076 604.87402,256.4416 608.49404,266.69895 609.89044,277.91109 608.21725,288.74801 607.1637,295.47017 604.6347,301.81241 601.91098,308.00817 598.89129,316.68556 594.11848,324.68201 589.25874,332.45938 583.97514,340.85598 578.11029,348.9115 572.92179,357.34031 572.73306,358.69597 574.36479,358.25659 574.80647,357.47632 577.37227,355.18957 580.02584,352.62668 582.18007,350.10273 585.46303,347.31089 587.57095,343.34324 590.13587,339.91663 596.08895,331.02937 600.2909,321.1291 605.22176,311.65624 608.6824,304.86787 611.76946,297.81514 612.74096,290.20429 615.69637,272.50593 610.46747,254.50944 602.3794,238.87081 594.51882,223.9722 584.2606,210.38688 572.98979,197.90947 562.75011,187.11372 550.63041,178.2263 538.20486,170.07293 514.04605,154.7788 487.59876,143.31313 460.17542,135.272 454.92236,133.78833 449.62191,132.29134 444.26768,131.27513 z"
       inkscape:connector-curvature="0"
       id="path3073"
       style="fill:#73a0a6;stroke:none" />
    <path
       d="M 496.35301,162.31408 C 496.36101,165.91404 497.63545,169.45551 498.29976,173.00176 500.65716,182.09 502.6568,191.42143 501.81277,200.87242 501.67547,205.34857 500.82313,209.7708 500.31668,214.19152 501.50212,215.31541 503.65027,214.62924 504.97982,215.73618 507.99152,218.10639 510.10311,221.52942 511.89681,224.89731 514.44128,230.65795 514.11258,237.3466 512.47153,243.32667 512.16533,245.36757 510.84532,247.33528 510.9739,249.34966 521.71626,258.12662 532.23443,268.13925 537.25264,281.41846 542.46919,294.65379 541.63399,309.59768 538.28242,323.24101 538.09162,324.42622 536.79662,326.37405 538.51558,326.95209 544.14835,329.11806 547.81967,334.34057 551.48494,338.86253 555.68469,344.12389 559.15869,350.02663 564.00186,354.72372 565.3312,355.85244 566.94673,354.0653 568.3221,353.75766 571.38475,352.39021 574.39313,350.70112 577.34594,349.2283 583.14253,341.65348 588.28771,333.54547 593.19616,325.35364 596.06768,320.13319 599.20539,314.95494 601.03081,309.2613 602.10555,305.74 604.18526,302.62491 605.2082,299.04125 609.08715,288.03964 609.77845,275.87308 606.89859,264.53401 602.67507,246.89856 592.59878,231.52183 582.52397,216.7271 579.06363,211.78377 575.83299,206.48799 570.83971,202.92883 548.97404,184.86295 523.66503,171.03652 496.7999,162.04206 L 496.53435,162.2037 496.35301,162.31408 z"
       inkscape:connector-curvature="0"
       id="path3051"
       style="fill:#d0cf6e;stroke:none" />
    <path
       d="M 460.97337,320.05453 C 457.71697,321.51263 454.06804,322.80484 450.4813,321.68663 449.47351,321.18943 448.60688,322.33134 449.41267,323.12443 453.01727,327.82957 458.26434,331.46823 459.94834,337.39784 461.63328,342.77554 463.39249,348.18594 465.72999,353.29704 468.01668,358.75711 469.21978,364.53328 470.47452,370.27073 471.96084,374.42327 474.49944,378.17978 477.33322,381.52055 478.83293,381.33309 479.27097,379.27741 480.39341,378.41179 484.69837,373.45831 490.14204,369.1858 496.81155,368.14317 498.40436,368.07847 499.38549,366.8376 499.79402,365.45215 503.27593,359.16727 509.45412,354.58885 516.18301,352.34678 519.17174,351.32679 522.20576,352.66257 524.56695,354.47434 526.01153,354.45104 525.14218,352.3275 525.42847,351.36565 525.51597,347.80362 525.29841,344.17243 526.07276,340.67921 525.36072,339.4932 523.85854,341.1448 522.88717,341.35198 511.82219,346.89285 498.36281,345.29463 487.58527,339.84238 481.78017,336.99344 476.41565,332.99937 472.25234,328.04016 471.8935,326.47294 469.60802,327.14688 468.45965,326.62015 465.61943,326.16604 462.60736,324.52535 461.96429,321.46319 461.83387,320.86407 461.84959,319.91798 460.97337,320.05453 z"
       inkscape:connector-curvature="0"
       id="path3056"
       style="fill:#b2b789;stroke:none" />
  </g>
</svg>
