<?xml version="1.0" encoding="UTF-8" standalone="no"?>
<!-- Created with Inkscape (http://www.inkscape.org/) -->

<svg
   xmlns:dc="http://purl.org/dc/elements/1.1/"
   xmlns:cc="http://creativecommons.org/ns#"
   xmlns:rdf="http://www.w3.org/1999/02/22-rdf-syntax-ns#"
   xmlns:svg="http://www.w3.org/2000/svg"
   xmlns="http://www.w3.org/2000/svg"
   xmlns:xlink="http://www.w3.org/1999/xlink"
   xmlns:inkscape="http://www.inkscape.org/namespaces/inkscape"
   version="1.1"
   width="740"
   height="520"
   id="svg2"
   style="display:inline;enable-background:new">
  <defs
     id="defs4">
    <filter
       color-interpolation-filters="sRGB"
       id="filter3050">
      <feBlend
         in2="BackgroundImage"
         mode="lighten"
         id="feBlend3052" />
    </filter>
  </defs>
  <metadata
     id="metadata7">
    <rdf:RDF>
      <cc:Work
         rdf:about="">
        <dc:format>image/svg+xml</dc:format>
        <dc:type
           rdf:resource="http://purl.org/dc/dcmitype/StillImage" />
        <dc:title />
      </cc:Work>
    </rdf:RDF>
  </metadata>
  <g
     id="g2368"
     style="display:none">
    <image
       xlink:href="pngs/coronal-0677.png"
       id="image2370"
       height="520"
       width="740"
       y="0"
       x="0" />
  </g>
  <g
     id="g2376"
     style="display:inline">
    <path
       d="M 367.5705,91.612807 C 366.01935,73.008702 370.13101,48.330423 392.55322,45.436893 413.91561,36.998976 436.72721,43.114525 458.3463,46.846656 479.35778,49.254109 500.09797,54.104006 520.55241,59.501678 540.60428,67.50572 561.53215,73.566584 580.20971,84.773534 597.9658,90.741972 610.98506,104.13506 624.97586,115.86114 639.44353,127.49701 652.93331,141.38814 662.48184,157.46539 676.72948,184.18706 687.89765,213.03981 690.04301,243.57178 695.99626,266.92378 695.78975,295.21641 677.24353,312.9527 664.25325,326.66814 664.78971,347.02896 654.1083,362.11833 649.43596,378.59666 641.4754,393.18533 630.67914,406.39358 621.01519,422.55123 613.06952,443.53385 594.00832,450.46687 574.16502,457.14867 554.53948,446.48725 536.9302,438.80228 520.53433,432.708 503.43651,428.08785 490.05566,416.1674 470.31668,401.13946 493.78193,377.49864 504.30479,363.87784 508.6644,354.81646 529.30042,340.94514 523.24854,333.49867 504.98909,343.13359 488.34791,356.96613 478.4337,375.42223 474.27886,383.55755 467.49806,392.63302 463.90286,399.53724"
       inkscape:connector-curvature="0"
       id="path2378"
       style="fill:none;stroke:#e20000;stroke-opacity:1" />
    <path
       d="M 367.5705,90.369303 C 367.32248,100.9553 362.1554,124.43343 375.39263,125.96545 387.84522,129.04132 396.98771,117.07873 405.08734,109.13589 411.5109,98.817486 422.74452,99.898593 432.42848,103.81023 450.91546,104.72625 469.32076,107.69635 487.37084,111.73255 503.96949,118.28182 519.59694,128.61926 534.49511,138.91024 551.98012,153.91945 569.58363,169.02013 583.87417,187.11942 594.48135,198.58266 602.1612,212.35578 609.53523,226.04113 618.35871,245.05409 623.33992,266.75954 617.64536,287.48486 616.70638,301.33929 614.13651,315.06835 612.21812,328.82771 611.0792,339.12267 612.26892,351.76949 604.94624,359.76 603.97228,346.6169 610.00471,331.76345 608.32753,317.65464 611.81289,299.24081 614.99581,280.33206 611.85811,261.55439 610.78688,243.68927 604.85064,225.9334 593.62388,211.90039 583.50322,195.8661 568.52799,183.7792 554.76462,170.9817 541.53401,161.15223 530.56723,148.36598 516.39099,139.84608 505.77247,130.05226 492.86232,123.072 479.643,117.55745 472.46758,119.79816 454.3342,113.92466 443.16563,115.17203 426.29527,115.52119 412.83585,126.08864 399.03097,134.2738 390.36518,142.30911 378.68832,147.54413 367.02046,148.16682 L 366.05226,147.5949 365.70524,146.94874"
       inkscape:connector-curvature="0"
       id="path2380"
       style="fill:none;stroke:#e20000;stroke-opacity:1" />
    <path
       d="M 372.45668,58.812267 415.98154,100.57855"
       inkscape:connector-curvature="0"
       id="path2382"
       style="fill:none;stroke:#0000e9;stroke-width:0.99000001;stroke-miterlimit:4;stroke-opacity:1;stroke-dasharray:none;stroke-dashoffset:0" />
    <path
       d="M 427.85196,41.666107 426.53303,101.0182"
       inkscape:connector-curvature="0"
       id="path2384"
       style="fill:none;stroke:#0000e9;stroke-width:0.99000001;stroke-miterlimit:4;stroke-opacity:1;stroke-dasharray:none;stroke-dashoffset:0" />
    <path
       d="M 455.98925,45.622913 448.07564,104.53536"
       inkscape:connector-curvature="0"
       id="path2386"
       style="fill:none;stroke:#0000e9;stroke-width:0.99000001;stroke-miterlimit:4;stroke-opacity:1;stroke-dasharray:none;stroke-dashoffset:0" />
    <path
       d="M 516.22063,57.493331 496.4366,113.76791"
       inkscape:connector-curvature="0"
       id="path2388"
       style="fill:none;stroke:#0000e9;stroke-width:0.99000001;stroke-miterlimit:4;stroke-opacity:1;stroke-dasharray:none;stroke-dashoffset:0" />
    <path
       d="M 529.84963,62.769073 507.86738,120.36258"
       inkscape:connector-curvature="0"
       id="path2390"
       style="fill:none;stroke:#0000e9;stroke-width:0.99000001;stroke-miterlimit:4;stroke-opacity:1;stroke-dasharray:none;stroke-dashoffset:0" />
    <path
       d="M 651.19168,141.90519 590.08101,192.02474"
       inkscape:connector-curvature="0"
       id="path2392"
       style="fill:none;stroke:#0000e9;stroke-width:0.99000001;stroke-miterlimit:4;stroke-opacity:1;stroke-dasharray:none;stroke-dashoffset:0" />
    <path
       d="M 665.69997,164.76674 599.75321,207.41232"
       inkscape:connector-curvature="0"
       id="path2394"
       style="fill:none;stroke:#0000e9;stroke-width:0.99000001;stroke-miterlimit:4;stroke-opacity:1;stroke-dasharray:none;stroke-dashoffset:0" />
    <path
       d="M 688.56152,229.39457 617.77866,244.78215"
       inkscape:connector-curvature="0"
       id="path2396"
       style="fill:none;stroke:#0000e9;stroke-width:0.99000001;stroke-miterlimit:4;stroke-opacity:1;stroke-dasharray:none;stroke-dashoffset:0" />
    <path
       d="M 617.77866,287.42773 688.12188,298.41886"
       inkscape:connector-curvature="0"
       id="path2398"
       style="fill:none;stroke:#0000e9;stroke-width:0.99000001;stroke-miterlimit:4;stroke-opacity:1;stroke-dasharray:none;stroke-dashoffset:0" />
    <path
       d="M 612.50291,319.08218 667.01891,332.71118"
       inkscape:connector-curvature="0"
       id="path2400"
       style="fill:none;stroke:#0000e9;stroke-width:0.99000001;stroke-miterlimit:4;stroke-opacity:1;stroke-dasharray:none;stroke-dashoffset:0" />
    <path
       d="M 618.65795,320.84076 C 620.55322,324.54916 618.98076,319.89347 619.21028,321.44325 622.30476,325.64925 620.24917,331.10342 621.04484,335.87488 620.69127,339.97256 619.56526,343.938 619.19154,348.04224 617.90822,353.38728 616.32368,358.80944 613.6292,363.60701 610.81018,371.2373 607.78288,378.72024 605.43437,386.50213 603.47725,390.35041 601.65097,394.33515 598.43427,397.33901 596.00133,401.5849 592.46037,404.61264 589.57182,408.33479 586.56418,412.33567 584.22007,416.79409 581.52224,420.99401 578.78969,424.62236 575.48408,427.66846 572.5403,431.04928 568.74625,434.35929 565.13203,438.25063 564.19428,443.39777 562.68123,446.14274 564.72527,449.68998 562.38337,450.09643"
       inkscape:connector-curvature="0"
       id="path2402"
       style="fill:none;stroke:#0000e9;stroke-width:0.99000001;stroke-miterlimit:4;stroke-opacity:1;stroke-dasharray:none;stroke-dashoffset:0" />
    <path
       d="M 528.09105,435.14849 C 529.8258,434.90733 527.71073,432.58675 528.99301,432.09147 529.48925,430.42973 530.56549,428.99203 531.22309,427.33417 532.09918,426.86874 532.15905,425.02774 532.68831,425.40321 533.19841,424.20449 534.44646,423.63776 535.23785,422.71299 535.63344,422.67939 535.73717,422.19405 536.42731,422.3716 536.74476,421.81188 538.30701,421.52675 539.15814,420.99237 540.09205,420.63057 540.70885,420.05906 541.96694,420.11136 543.55186,419.29749 545.24474,419.72067 546.92827,419.7264 548.81741,420.15026 550.21551,421.07299 551.95431,421.17204 553.08648,421.81836 554.56067,422.16829 555.71508,422.92511 557.88796,423.56068 559.0646,424.12496 560.84241,425.13614 562.49073,425.5182 563.76253,426.89316 565.3713,427.45699 566.72009,428.09054 567.83134,429.43747 569.20449,429.62701 570.21489,430.64515 571.57269,431.01514 572.31425,431.61523 571.73783,431.82305 572.05198,431.00539 572.05556,430.75204"
       inkscape:connector-curvature="0"
       id="path2404"
       style="fill:none;stroke:#0000e9;stroke-width:0.99000001;stroke-miterlimit:4;stroke-opacity:1;stroke-dasharray:none;stroke-dashoffset:0" />
    <path
       d="M 510.0656,428.11417 C 511.60065,428.55088 511.09168,426.77718 510.45306,426.17078 511.42862,425.32503 511.17657,423.76622 512.01659,422.68221 512.68383,421.50775 512.84066,420.16819 513.64723,419.01643 514.26843,418.20507 514.78559,417.00201 515.36845,416.42646 515.12013,415.61371 515.77579,415.89692 515.87067,415.40051 516.72607,414.89978 517.8625,414.05379 518.54777,412.87081 519.62068,412.14344 520.45074,411.41987 521.73659,411.00377 522.85051,410.61835 524.00527,410.06801 525.1141,410.85186 525.98663,411.19036 526.53336,411.70796 527.62648,411.44622 528.69498,412.07663 529.48247,413.54643 531.02534,413.12296 531.70339,414.28013 533.47404,412.86673 534.07049,414.03514 535.65485,413.57738 536.56238,414.71184 537.73169,415.51375 539.08748,415.81219 539.26772,417.52417 540.30632,418.0646 540.71242,418.36333 540.10326,418.95704 540.87477,419.10934 541.05224,419.97161 541.84693,420.23867 541.74004,420.96255 542.66207,421.44758 542.27272,422.50085 541.2804,421.51949"
       inkscape:connector-curvature="0"
       id="path2406"
       style="fill:none;stroke:#0000e9;stroke-width:0.99000001;stroke-miterlimit:4;stroke-opacity:1;stroke-dasharray:none;stroke-dashoffset:0" />
    <path
       d="M 524.05924,411.02772 C 527.78815,412.00962 531.17809,414.12346 535.07591,414.42793 537.1043,415.33187 540.75019,417.36838 539.70019,420.00427 536.6047,422.13974 532.65079,423.35813 531.13167,427.19327 529.53251,429.43376 528.65342,432.19129 527.82861,434.63487 523.68151,434.53026 519.73089,431.73181 515.70445,430.53519 513.2604,429.89021 510.3058,428.11867 511.66306,425.13372 513.33753,419.42402 516.84542,412.98267 522.87403,411.06658 523.26672,411.02288 523.66424,410.98338 524.05924,411.02768 z"
       inkscape:connector-curvature="0"
       id="path2408"
       style="fill:#82c1d2;stroke:none" />
    <path
       d="M 544.88794,420.00427 C 553.62836,421.4405 561.61401,425.98301 569.2917,430.24375 571.93912,432.52472 567.56845,434.87831 566.74641,436.96644 564.21468,440.34557 563.81632,444.67046 562.33585,448.41056 558.59644,448.48486 554.89425,445.78053 551.25424,444.6844 544.29158,441.50938 536.9699,438.94461 530.14075,435.58693 527.60295,432.88687 531.01164,429.08531 532.43346,426.59095 534.43298,424.1329 537.47306,421.03867 540.82712,421.36435 541.42073,422.70435 543.32615,422.10133 543.06154,420.58716 543.46912,420.02447 544.23948,419.94335 544.88794,420.00427 z"
       inkscape:connector-curvature="0"
       id="path2410"
       style="fill:#9eae8b;stroke:none" />
    <path
       d="M 620.60568,321.43713 C 635.45737,325.04177 650.27567,328.83273 665.04153,332.76467 665.99893,334.94246 663.70404,337.84842 663.37057,340.16741 661.13836,347.84418 657.82586,355.21868 654.08963,362.13054 648.87371,376.77783 642.0276,390.94866 632.59384,403.35297 622.43058,418.11924 615.9381,436.85641 600.28216,446.89504 589.78636,453.58834 576.13692,453.18297 564.68685,449.40148 562.79884,446.98916 564.43542,443.22714 565.52233,440.71638 571.15309,431.32436 580.27911,424.66815 585.62158,415.12871 592.52163,404.13575 602.99228,395.39633 607.05882,382.72335 611.77741,367.49297 620.302,353.21637 620.85772,336.98211 620.88762,331.99365 621.86534,326.6225 619.98393,321.92287 620.34294,322.27994 620.28873,321.24021 620.60568,321.43713 z"
       inkscape:connector-curvature="0"
       id="path2412"
       style="fill:#d5be93;stroke:none" />
    <path
       d="M 619.18731,288.19282 C 641.60844,291.39304 664.01341,294.87946 686.3754,298.52945 686.66544,301.24568 683.57645,304.1689 682.01571,306.64064 675.79624,313.90062 670.00001,321.52857 666.49876,330.49139 664.87201,333.36592 661.23709,330.15988 658.85665,330.28689 644.27788,326.56828 629.54223,323.12795 615.0682,319.18328 613.01573,317.16643 615.40013,313.64358 615.1367,311.14561 616.42283,303.59826 616.83139,295.88731 618.19639,288.36769 618.57157,287.99244 618.78757,288.23136 619.18731,288.19282 z"
       inkscape:connector-curvature="0"
       id="path2414"
       style="fill:#9b7d71;stroke:none" />
    <path
       d="M 687.89092,230.48646 C 689.57894,236.63231 689.31731,243.28969 690.95546,249.53701 693.82243,265.30473 694.5991,282.56449 687.52175,297.34424 685.32421,298.89557 682.12787,296.51405 679.60192,296.77733 659.39136,293.44367 639.02193,290.69284 618.89586,287.08533 617.79204,283.99874 620.14817,280.59805 619.84792,277.35102 620.8234,266.72389 619.48281,256.11823 617.49692,245.71938 620.72538,243.76157 625.23583,243.91881 628.88276,242.68834 648.41303,238.49077 667.93605,234.10815 687.54118,230.33102 L 687.89092,230.48646 z"
       inkscape:connector-curvature="0"
       id="path2416"
       style="fill:#c1dfbe;stroke:none" />
    <path
       d="M 665.3524,165.76595 C 668.75203,168.45024 669.55269,173.47951 671.66707,177.15178 678.65847,193.34663 684.76534,210.13517 687.58822,227.58786 687.38983,231.2679 680.94016,229.78864 678.19506,231.30396 657.92762,235.65978 637.69725,240.25258 617.38034,244.33987 614.94382,240.79972 614.33956,235.85648 612.37513,231.89681 609.13219,223.46784 603.83941,216.00483 600.06843,207.87022 617.26119,196.08581 635.22485,185.0189 652.73383,173.54202 656.96723,171.10326 660.96483,167.66678 665.3524,165.76595 z"
       inkscape:connector-curvature="0"
       id="path2418"
       style="fill:#e19179;stroke:none" />
    <path
       d="M 651.53785,142.66397 C 656.80581,149.13123 661.86208,156.14199 664.90552,163.92012 661.88408,167.23907 657.19774,169.24843 653.55512,172.03786 635.73809,183.6749 617.97036,195.5937 599.73813,206.52957 596.08208,203.66971 594.00873,198.75348 591.04933,195.09898 587.4866,191.66832 594.44095,189.91634 596.15543,187.48049 614.45534,172.61055 632.61511,157.56925 650.83838,142.60568 L 651.45798,142.65728 651.53785,142.66428 z"
       inkscape:connector-curvature="0"
       id="path2420"
       style="fill:#70bb86;stroke:none" />
    <path
       d="M 530.80136,64.303779 C 544.76558,68.13924 558.05119,74.416668 571.23468,80.411044 582.64249,86.453208 595.11565,90.798703 604.86735,99.510301 619.9374,112.07686 635.40525,124.38452 648.52624,139.03061 650.40786,140.51656 649.788,142.54444 647.81239,143.5472 628.79183,160.11385 609.15329,176.02498 589.42093,191.74353 586.60363,190.79669 585.03941,187.06658 582.85367,185.11798 569.26493,170.31003 555.0144,155.95378 539.67863,143.01688 529.80674,135.12867 519.22775,128.15724 508.59316,121.50497 507.68615,118.51238 510.74972,115.53147 511.20917,112.56987 517.48012,96.536217 523.17277,80.176485 530.00474,64.420357 530.25122,64.311372 530.53178,64.248492 530.80136,64.303779 z"
       inkscape:connector-curvature="0"
       id="path2422"
       style="fill:#7edfd0;stroke:none" />
    <path
       d="M 518.11374,59.44634 C 521.74838,60.310562 525.66824,61.375787 528.72238,63.448869 527.06377,70.078412 523.88739,76.653078 521.62737,83.242267 516.90171,95.653699 512.1737,108.06423 507.4468,120.47519 504.08897,120.14698 500.77302,117.32015 497.61535,115.69548 494.52597,114.39055 498.10444,111.29685 498.19824,109.18651 504.34452,92.769218 510.00971,76.177221 515.87931,59.660068 516.44955,58.978828 517.38307,59.541756 518.11374,59.44634 z"
       inkscape:connector-curvature="0"
       id="path2424"
       style="fill:none;stroke:none" />
    <path
       d="M 457.82321,47.186166 C 476.46749,49.673905 495.02149,53.364529 513.2563,58.008539 516.74096,58.626757 513.3274,62.526523 513.2304,64.52306 507.67053,81.202358 501.37392,97.846825 496.06097,114.4714 493.232,114.715 490.6952,112.02321 487.76729,111.83896 475.1028,108.25867 461.88886,106.94747 449.04096,104.56223 447.38747,102.91773 449.67485,99.96139 449.29355,97.858962 451.78031,81.066211 453.45575,63.989277 456.36598,47.361034 456.70633,47.085419 457.36144,47.173625 457.82321,47.186166 z"
       inkscape:connector-curvature="0"
       id="path2426"
       style="fill:#b7bfb2;stroke:none" />
    <path
       d="M 431.94278,42.639604 C 439.64015,44.051497 447.72983,44.820817 455.16134,47.030728 453.23591,66.001971 450.24045,84.961169 447.87518,103.88219 445.23451,105.65089 441.45014,103.764 438.43232,103.95989 434.61161,103.30278 430.16793,103.45523 426.96876,101.14258 427.5185,81.674382 427.01956,62.139403 428.48429,42.717313 429.31209,41.708118 430.85331,42.771393 431.94278,42.639593 z"
       inkscape:connector-curvature="0"
       id="path2428"
       style="fill:none;stroke:none" />
    <path
       d="M 421.97532,41.668116 C 424.06511,41.657766 427.73745,41.433854 427.212,44.561221 427.50037,63.227589 426.37534,81.891976 426.26929,100.5597 423.31656,101.21012 418.53428,101.91367 415.85537,100.04442 401.94025,86.246027 387.19978,73.131255 373.73124,58.882877 374.44326,55.417756 378.15838,53.170529 380.51223,50.722381 387.03389,46.197003 395.25917,44.966072 402.82433,42.980981 409.09216,41.642525 415.58597,41.615928 421.97532,41.668116 z"
       inkscape:connector-curvature="0"
       id="path2430"
       style="fill:#cce198;stroke:none" />
    <path
       d="M 373.14835,60.728704 C 387.3593,73.54331 401.43168,86.725394 414.88346,100.32654 414.22166,102.5108 410.86324,102.1878 409.63742,104.17363 401.0947,111.13211 394.71795,121.82533 383.73756,125.29377 377.93816,126.84039 369.56906,125.61656 367.98003,118.76538 366.17967,110.04238 367.56659,100.94802 367.41657,92.088325 367.93711,81.544307 367.43997,70.281779 372.5266,60.728704 372.71485,60.621733 372.96108,60.577419 373.14835,60.728704 z"
       inkscape:connector-curvature="0"
       id="path2432"
       style="fill:#6d70b9;stroke:none" />
    <path
       d="M 431.94278,42.639604 C 439.64015,44.051497 447.72983,44.820817 455.16134,47.030728 453.23591,66.001971 450.24045,84.961169 447.87518,103.88219 445.23451,105.65089 441.45014,103.764 438.43232,103.95989 434.61161,103.30278 430.16793,103.45523 426.96876,101.14258 427.5185,81.674382 427.01956,62.139403 428.48429,42.717313 429.31209,41.708118 430.85331,42.771393 431.94278,42.639593 z"
       inkscape:connector-curvature="0"
       id="path2434"
       style="fill:#b08fc6;stroke:none" />
    <path
       d="M 518.13478,59.446343 C 521.79862,60.306536 525.5461,61.441762 528.76286,63.410013 527.43464,69.357334 524.39434,75.267104 522.42421,81.184328 517.45191,94.317122 512.4302,107.43112 507.42899,120.55292 504.10497,120.25176 500.93064,117.20771 497.67525,115.85092 496.11968,113.20714 498.79162,109.90449 499.19616,107.17932 504.62569,91.294291 510.31462,75.498775 515.88093,59.660071 516.45632,58.976315 517.3989,59.54486 518.13478,59.446343 z"
       inkscape:connector-curvature="0"
       id="path2436"
       style="fill:#bec1ac;stroke:none" />
  </g>
</svg>
