<?xml version="1.0" encoding="UTF-8" standalone="no"?>
<!-- Created with Inkscape (http://www.inkscape.org/) -->

<svg
   xmlns:dc="http://purl.org/dc/elements/1.1/"
   xmlns:cc="http://creativecommons.org/ns#"
   xmlns:rdf="http://www.w3.org/1999/02/22-rdf-syntax-ns#"
   xmlns:svg="http://www.w3.org/2000/svg"
   xmlns="http://www.w3.org/2000/svg"
   xmlns:xlink="http://www.w3.org/1999/xlink"
   xmlns:inkscape="http://www.inkscape.org/namespaces/inkscape"
   version="1.1"
   width="740"
   height="520"
   id="svg2"
   style="enable-background:new">
  <defs
     id="defs4">
    <filter
       color-interpolation-filters="sRGB"
       id="filter3050">
      <feBlend
         in2="BackgroundImage"
         mode="lighten"
         id="feBlend3052" />
    </filter>
  </defs>
  <metadata
     id="metadata7">
    <rdf:RDF>
      <cc:Work
         rdf:about="">
        <dc:format>image/svg+xml</dc:format>
        <dc:type
           rdf:resource="http://purl.org/dc/dcmitype/StillImage" />
        <dc:title />
      </cc:Work>
    </rdf:RDF>
  </metadata>
  <g
     id="layer1"
     style="display:none">
    <image
       xlink:href="pngs/coronal-0704.png"
       id="MRISLICE"
       height="520"
       width="740"
       y="0"
       x="0" />
  </g>
  <g
     id="layer3"
     style="display:inline">
    <path
       d="M 373.41943,146.9523 371.80775,339.69189 373.05126,427.35894 C 385.43064,430.69947 398.75056,449.09279 431.49595,426.73719 458.36491,382.14973 481.10102,405.75417 504.8627,412.43689 534.08337,415.75896 577.41823,483.85834 618.64333,429.84595 638.12313,408.69222 654.74561,364.67997 672.73577,331.60912 701.58975,282.5868 697.68067,242.11136 688.90132,202.90643 666.73173,128.39045 615.68397,97.191738 560.82039,71.71674 521.32565,50.15384 485.90369,46.918404 449.52676,39.385631 399.94246,30.978756 385.8613,47.269723 373.67301,64.877467 L 373.31005,118.35308 M 357.31005,118.35308 357.10855,148.04037"
       inkscape:connector-curvature="0"
       id="path2990"
       style="fill:none;stroke:#0000e9;stroke-width:1;stroke-miterlimit:4;stroke-opacity:1;stroke-dasharray:none;stroke-dashoffset:0" />
    <path
       d="M 433.36121,382.59279 C 432.50122,382.78001 432.81081,380.86925 433.36821,381.35784 432.40343,381.5954 432.49635,380.32544 432.19205,379.75471 431.54135,378.7992 430.23383,378.59996 429.16979,378.81816 428.1044,378.75916 426.8077,378.65843 426.06133,379.58824 425.14074,380.52859 424.31189,381.5719 423.25139,382.36437 422.60288,383.28738 422.69755,384.47291 422.34104,385.50301 422.21667,386.90969 423.24028,388.01943 423.84638,389.18909 424.87991,390.91225 426.5003,392.1518 428.10964,393.29989 429.01652,393.94067 430.28402,394.21232 431.27605,393.59565 432.33985,392.96339 433.00859,391.8805 433.8586,391.01243 434.78535,389.93616 435.43758,388.53685 435.26675,387.08869 435.28325,385.98071 435.25225,384.76296 434.47781,383.88277 434.13773,383.42609 433.73701,383.0178 433.36121,382.59279 z"
       inkscape:connector-curvature="0"
       id="path2992"
       style="fill:none;stroke:#0000e9;stroke-width:1;stroke-miterlimit:4;stroke-opacity:1;stroke-dasharray:none;stroke-dashoffset:0" />
    <path
       d="M 409.73463,324.76984 C 407.98987,324.78324 406.2422,324.78314 404.50202,324.64001 404.06113,325.67739 402.70674,325.2515 401.96185,325.8814 401.04947,326.32784 400.2295,327.11925 400.02211,328.14541 399.47742,329.03363 398.73023,329.97574 399.14343,331.07496 399.32221,332.1158 398.84824,333.16384 399.12183,334.18171 399.48378,335.48537 400.31678,336.61156 400.58385,337.94822 400.86277,338.79439 401.54225,339.46081 402.33236,339.84531 402.87217,340.75575 403.99402,340.94968 404.87963,341.34569 405.77357,342.05185 406.72082,341.17951 407.55364,340.88803 408.54953,340.64058 409.28671,339.85359 409.78194,338.99572 410.57496,338.30961 411.02161,337.37288 411.10863,336.36942 411.73986,335.58919 411.62508,334.64585 411.60343,333.75758 412.21194,333.07785 412.42668,332.23646 412.26416,331.33662 412.20746,330.42892 412.60228,329.49855 412.14586,328.62961 411.83912,327.82418 411.09138,327.31928 410.73863,326.53669 410.40091,325.94949 410.09814,325.34202 409.73462,324.76984 z"
       inkscape:connector-curvature="0"
       id="path2994"
       style="fill:none;stroke:#0000e9;stroke-width:1;stroke-miterlimit:4;stroke-opacity:1;stroke-dasharray:none;stroke-dashoffset:0" />
    <path
       d="M 357.8229,118.63235 C 363.90864,119.43974 382.83599,118.11696 387.26775,118.12713 394.88299,118.14463 402.64387,109.70913 406.24996,106.00104 427.17231,84.431818 428.93546,95.387927 443.95252,99.766782 452.3577,100.52192 462.37635,98.735371 470.7342,99.978607 530.35381,108.84706 584.35785,152.61271 608.07354,203.9945 617.93759,227.08447 625.59044,247.24616 623.65206,272.38894"
       inkscape:connector-curvature="0"
       id="path3038"
       style="fill:none;stroke:#0000e9;stroke-width:1;stroke-miterlimit:4;stroke-opacity:1;stroke-dasharray:none;stroke-dashoffset:0" />
    <path
       d="M 621.75,265.40625 C 619.76638,257.06349 619.61063,263.70922 619,266.625 623.18764,276.33197 620.57046,293.9693 616.90625,312.5625 613.24204,331.1557 609.58653,339.37291 610.97304,353.86664 612.64387,365.69876 613.51592,352.05003 614.38144,352.15654 613.08,338.55199 616.16717,331.81224 619.84375,313.15625 623.52033,294.50026 626.60822,276.66763 621.75,265.40625 z"
       inkscape:connector-curvature="0"
       id="path2996"
       style="font-size:medium;font-style:normal;font-variant:normal;font-weight:normal;font-stretch:normal;text-indent:0;text-align:start;text-decoration:none;line-height:normal;letter-spacing:normal;word-spacing:normal;text-transform:none;direction:ltr;block-progression:tb;writing-mode:lr-tb;text-anchor:start;baseline-shift:baseline;color:#000000;fill:#73a0a6;fill-opacity:1;stroke:none;stroke-width:3;marker:none;visibility:visible;display:inline;overflow:visible;enable-background:accumulate;font-family:Sans;-inkscape-font-specification:Sans" />
    <path
       d="M 619.8125,267.375 C 602.26304,292.05579 581.68593,325.94252 563.03125,341.375 L 564.125,342.6875 C 583.24368,326.87118 603.70122,292.96693 621.1875,268.375 L 619.8125,267.375 z"
       inkscape:connector-curvature="0"
       id="path2998"
       style="font-size:medium;font-style:normal;font-variant:normal;font-weight:normal;font-stretch:normal;text-indent:0;text-align:start;text-decoration:none;line-height:normal;letter-spacing:normal;word-spacing:normal;text-transform:none;direction:ltr;block-progression:tb;writing-mode:lr-tb;text-anchor:start;baseline-shift:baseline;color:#000000;fill:#73a0a6;fill-opacity:1;stroke:none;stroke-width:1.70000005;marker:none;visibility:visible;display:inline;overflow:visible;enable-background:accumulate;font-family:Sans;-inkscape-font-specification:Sans" />
    <path
       d="M 356.8857,147.10419 C 359.39312,148.05353 377.50171,146.64786 381.59242,146.45387 388.71656,146.11603 391.41316,144.08931 394.76804,141.87047 426.19808,121.08341 429.67696,101.64896 477.50561,108.40011 510.38385,120.57833 543.24102,133.09367 574.49894,171.19708 593.09494,193.27503 608.56637,216.2972 614.91282,242.07681 617.96206,251.85948 618.66135,260.02928 620.27673,272.05724"
       inkscape:connector-curvature="0"
       id="path3000"
       style="fill:none;stroke:#0000e9;stroke-width:1;stroke-miterlimit:4;stroke-opacity:1;stroke-dasharray:none;stroke-dashoffset:0" />
    <path
       d="M 592.20325,195.11891 C 595.01896,201.91382 596.4337,213.7738 588.43404,218.90995 586.90159,222.1528 586.37812,225.74723 584.9377,229.03192 583.3774,232.90995 581.6515,236.75932 579.50277,240.34125 577.8035,242.54665 576.7754,245.38606 574.24846,246.82897 571.86715,248.04649 570.40489,251.39694 567.58063,251.37269 564.99273,250.0347 565.42565,246.64156 565.83444,244.57689 566.21659,233.38203 565.58526,222.69791 573.26022,215.89995 576.1805,212.73614 580.84496,209.50498 581.28726,205.23554 582.60043,200.52338 580.83949,189.04643 586.11766,185.46506"
       inkscape:connector-curvature="0"
       id="path3002"
       style="fill:none;stroke:#0000e9;stroke-width:1;stroke-miterlimit:4;stroke-opacity:1;stroke-dasharray:none;stroke-dashoffset:0" />
    <path
       d="M 589.42099,217.82848 C 590.1728,215.33654 594.4474,216.98459 596.15633,217.31183 600.21692,219.79449 598.35543,225.81157 596.15033,229.73616 593.72175,235.92487 591.96275,241.441 591.30896,247.65979 589.2803,250.86879 588.03723,254.4485 586.14886,257.72877 583.43347,263.71631 581.85107,270.16455 578.70251,275.97179 576.51777,280.58081 572.93624,284.32352 570.93848,289.03719 567.31852,294.89475 563.13485,300.40586 558.90804,305.84867 557.1295,307.03886 555.18964,310.30734 555.84682,311.71305"
       inkscape:connector-curvature="0"
       id="path3004"
       style="fill:none;stroke:#0000e9;stroke-width:1;stroke-miterlimit:4;stroke-opacity:1;stroke-dasharray:none;stroke-dashoffset:0" />
    <path
       d="M 572.01193,287.46472 C 575.34227,294.93874 582.10053,300.96088 598.12551,298.65625"
       inkscape:connector-curvature="0"
       id="path3008"
       style="fill:none;stroke:#0000e9;stroke-width:1;stroke-miterlimit:4;stroke-opacity:1;stroke-dasharray:none;stroke-dashoffset:0" />
    <path
       d="M 569.52492,250.78134 C 573.5355,267.97668 572.61924,286.68798 555.22462,310.46954 M 555.37956,310.23525 C 551.69723,316.79088 543.79699,325.04921 540.94909,324.81592 M 541.07976,325.23616 C 509.49418,360.22953 475.04279,359.67391 475.0186,400.6236"
       inkscape:connector-curvature="0"
       id="path3024"
       style="fill:none;stroke:#0000e9;stroke-width:1;stroke-miterlimit:4;stroke-opacity:1;stroke-dasharray:none;stroke-dashoffset:0" />
    <path
       d="M 567.03791,249.53784 C 540.29212,256.5046 544.21765,231.14078 540.30257,219.69374 534.04686,177.96171 488.21305,193.12321 458.23129,185.49737"
       inkscape:connector-curvature="0"
       id="path3080"
       style="fill:none;stroke:#0000e9;stroke-width:1;stroke-miterlimit:4;stroke-opacity:1;stroke-dasharray:none;stroke-dashoffset:0" />
    <path
       d="M 549.0071,245.18557 C 551.27095,270.76555 563.62012,294.56577 539.68082,324.76984 559.12235,282.95369 542.68493,305.01209 526.00227,320.41758 508.11335,345.13883 471.83172,365.49654 478.12736,379.48403"
       inkscape:connector-curvature="0"
       id="path3082"
       style="fill:none;stroke:#0000e9;stroke-width:1;stroke-miterlimit:4;stroke-opacity:1;stroke-dasharray:none;stroke-dashoffset:0" />
    <path
       d="M 545.89834,238.96805 C 539.84752,245.3706 532.59693,236.72492 528.93324,231.93445 521.73479,224.81051 513.44444,218.91043 504.95769,213.43205 496.35822,211.54706 503.51879,222.31065 507.59272,223.63514 514.37272,228.71182 518.87961,236.07309 522.67742,243.16636 527.02636,257.53984 522.89019,271.44967 519.09459,285.21866 513.6649,300.69663 503.36079,313.88485 492.77385,326.15629 486.44164,331.80132 479.19344,336.35535 472.9541,342.08683 468.70354,344.75029 462.17438,344.09862 458.50436,347.42204 457.62457,355.30213 463.89365,364.6403 470.86206,366.95392 475.00994,367.28364 479.1878,366.54262 483.10138,365.18373"
       inkscape:connector-curvature="0"
       id="path3084"
       style="fill:none;stroke:#0000e9;stroke-width:1;stroke-miterlimit:4;stroke-opacity:1;stroke-dasharray:none;stroke-dashoffset:0" />
    <path
       d="M 535.95031,237.72455 C 539.71341,259.75308 546.35637,282.50158 544.03308,303.00852"
       inkscape:connector-curvature="0"
       id="path3086"
       style="fill:none;stroke:#0000e9;stroke-width:1;stroke-miterlimit:4;stroke-opacity:1;stroke-dasharray:none;stroke-dashoffset:0" />
    <path
       d="M 545.27659,286.84296 C 540.19673,280.23566 527.39837,287.52164 514.18898,295.54749"
       inkscape:connector-curvature="0"
       id="path3094"
       style="fill:none;stroke:#0000e9;stroke-width:1;stroke-miterlimit:4;stroke-opacity:1;stroke-dasharray:none;stroke-dashoffset:0" />
    <path
       d="M 509.83672,303.63027 C 489.91423,316.13526 466.62353,326.23439 457.60954,346.53117"
       inkscape:connector-curvature="0"
       id="path3096"
       style="fill:none;stroke:#0000e9;stroke-width:1;stroke-miterlimit:4;stroke-opacity:1;stroke-dasharray:none;stroke-dashoffset:0" />
    <path
       d="M 591.90645,216.80004 C 588.24088,217.1592 587.89764,221.78478 586.74062,224.48009 583.77543,232.8027 580.51522,241.60253 573.75735,247.54772 571.8529,248.81697 569.3945,250.62232 570.25393,253.27684 572.39822,264.54334 572.02066,276.47041 568.09734,287.29998 567.9776,289.04861 566.1332,290.79076 566.73677,292.50143 568.66508,293.05182 569.62091,290.21333 570.5974,288.98427 574.49278,281.99409 579.34226,275.5133 581.93963,267.81937 584.44718,260.22387 588.54358,253.23073 591.2882,245.78913 592.33997,238.29318 595.54535,231.37651 597.97905,224.274 599.06601,221.10899 597.24099,217.19072 593.66503,216.9649 593.09066,216.84434 592.49453,216.76449 591.90645,216.80004 z"
       inkscape:connector-curvature="0"
       id="path3025"
       style="fill:#9de082;stroke:none" />
    <path
       d="M 566.40635,292.04873 C 565.67377,292.2996 565.66927,293.28243 565.26705,293.86543 564.62074,295.34339 563.74836,296.73651 563.18801,298.24154 563.18001,298.91779 564.10579,298.95279 564.4039,298.41328 565.83093,296.62356 567.10126,294.70369 568.40536,292.82498 568.70884,292.1413 567.84775,291.9435 567.3509,292.03499 567.03601,292.03404 566.7212,292.04499 566.40635,292.04869 z"
       inkscape:connector-curvature="0"
       id="path3031"
       style="fill:#9de082;stroke:none" />
    <path
       d="M 428.8778,378.93566 C 427.32274,378.68833 426.07845,379.68095 425.12021,380.7698 423.22878,382.30896 421.68369,385.0906 423.02502,387.45378 424.3068,390.11002 426.55725,392.29942 429.14571,393.67064 431.23985,394.1937 432.74936,392.04719 433.89322,390.65034 435.27468,389.00605 435.40153,386.52016 434.66875,384.56174 433.99465,383.31148 432.62456,382.48764 432.43618,380.96902 432.23462,379.56637 430.86596,378.75039 429.50982,378.93187 429.29915,378.92387 429.08847,378.93487 428.8778,378.93587 z"
       inkscape:connector-curvature="0"
       id="path3037"
       style="fill:#bfb195;stroke:none" />
    <path
       d="M 405.65217,324.85931 C 404.45612,324.87201 403.45786,325.59031 402.32049,325.80042 399.77016,327.29989 398.93131,330.48315 399.21549,333.27439 399.612,335.59171 400.51093,338.00424 402.19684,339.69046 403.22502,340.50591 404.46529,341.31559 405.76895,341.48339 409.2053,340.56473 411.53967,337.09798 411.6286,333.6316 412.31626,331.98755 412.49371,329.96213 411.76599,328.30778 410.99946,327.27993 410.45736,325.91355 409.5815,325.10661 408.29514,324.86481 406.95961,324.85316 405.65217,324.85931 z"
       inkscape:connector-curvature="0"
       id="path3039"
       style="fill:#cc6bc8;stroke:none" />
    <path
       d="M 547.56824,300.74752 C 545.30821,301.55169 543.77797,303.60212 541.9639,305.10188 535.93218,310.95338 529.76641,316.7016 524.18423,322.9835 516.46839,332.81722 506.97132,341.12066 497.88142,349.63693 492.83965,354.3445 487.67988,359.00953 483.31823,364.37241 482.89068,364.95774 482.82914,365.56791 482.14355,365.89056 480.14162,368.217 478.59901,371.03759 477.78832,373.98965 477.64093,375.57065 477.21145,377.50957 478.2417,378.86696 479.41111,379.55622 479.97814,377.73194 480.45367,377.00534 485.9018,367.38885 495.13572,360.92484 503.94733,354.62126 516.67984,345.87665 529.58101,337.03945 539.97749,325.51191 540.59292,324.99502 539.64672,324.6424 539.94999,324.15176 542.68438,317.29081 546.24323,310.69181 548.07655,303.50217 548.10785,302.73626 548.77053,300.84705 547.56821,300.74752 z"
       inkscape:connector-curvature="0"
       id="path3041"
       style="fill:#85dbce;stroke:none" />
    <path
       d="M 507.56054,305.2951 C 502.43009,308.0858 497.45405,311.30192 492.37217,314.23913 483.24053,319.68902 474.14997,325.42782 466.88331,333.28835 463.23987,337.00539 460.13685,341.32859 458.03864,346.09279 458.08774,347.36127 459.57113,346.46499 460.1684,346.16519 463.99129,344.36898 468.37568,344.09877 472.19145,342.30926 475.34592,340.01662 478.16248,337.347 481.3383,335.07445 486.69393,330.94678 492.33643,327.02123 496.46181,321.58456 500.56102,316.55768 504.67851,311.49814 508.19253,306.04383 508.37873,305.61998 508.02278,305.15576 507.56054,305.29506 z"
       inkscape:connector-curvature="0"
       id="path3047"
       style="fill:#d78578;stroke:none" />
    <path
       d="M 503.14348,213.40927 C 501.89677,213.2196 500.79219,214.30541 501.15133,215.55941 501.91914,218.81409 504.3905,221.47442 507.08654,223.31503 509.76357,224.75818 511.77059,227.25245 513.85296,229.43571 517.36718,233.66144 520.30451,238.33388 522.74203,243.23645 525.13599,250.55093 524.92349,258.46052 523.79075,265.98918 522.27218,274.46206 520.21755,282.91353 516.97169,290.88985 516.73697,291.80278 515.67579,292.71209 516.10614,293.67885 517.18082,294.05103 518.12019,292.75003 519.12072,292.45442 524.73538,289.35218 530.32078,285.84118 536.68016,284.50813 538.86985,284.14086 541.12886,284.19364 543.26796,284.7623 544.38005,284.43573 543.59146,282.75152 543.67523,281.88051 542.00287,267.8817 538.89209,254.0907 536.22677,240.27571 535.75597,238.70558 533.96327,238.12789 533.03934,236.86159 530.14514,233.74415 527.45904,230.4202 524.14766,227.72593 518.12839,222.57133 511.7622,217.81572 504.95701,213.76648 504.39825,213.48431 503.76642,213.37075 503.14348,213.40927 z"
       inkscape:connector-curvature="0"
       id="path3049"
       style="fill:#8678d2;stroke:none" />
    <path
       d="M 664.30378,323.03899 C 653.9639,324.2863 649.12054,335.78451 643.36476,343.14544 633.70008,357.34109 632.72077,375.25913 623.69512,389.79578 619.03177,398.28353 610.81139,406.16696 612.48682,416.73137 622.12904,420.91277 622.78993,401.77418 626.33195,395.76923 630.9236,383.39293 637.12489,371.7278 641.7678,359.36779 646.96659,346.73181 657.83053,337.69064 663.91573,325.59404 664.13424,324.75077 664.25884,323.90882 664.30378,323.03899 z"
       inkscape:connector-curvature="0"
       id="path3023"
       style="fill:none;stroke:#0000e9;stroke-width:1;stroke-miterlimit:4;stroke-opacity:1;stroke-dasharray:none;stroke-dashoffset:0" />
    <path
       d="M 621.6582,303.25495 C 639.76725,272.46235 637.80171,318.82554 629.57181,330.51295"
       inkscape:connector-curvature="0"
       id="path3027"
       style="fill:none;stroke:#0000e9;stroke-width:1;stroke-miterlimit:4;stroke-opacity:1;stroke-dasharray:none;stroke-dashoffset:0" />
    <path
       d="M 614.84371,335.12923 C 619.32648,332.11311 628.68028,326.50433 629.57181,330.07331 634.89585,356.81594 610.18844,375.41793 612.16355,347.9479"
       inkscape:connector-curvature="0"
       id="path3029"
       style="fill:none;stroke:#0000e9;stroke-width:1;stroke-miterlimit:4;stroke-opacity:1;stroke-dasharray:none;stroke-dashoffset:0" />
    <path
       d="M 662.35645,323.7797 C 655.02172,325.87441 651.02686,333.09372 646.70407,338.80002 641.19627,346.06813 637.4609,354.40672 634.68743,363.06665 631.02185,374.46893 626.96911,385.90315 620.17889,395.91106 616.42337,402.02488 611.48526,408.75503 612.85516,416.33874 614.76427,418.13544 618.111,416.37474 619.23001,414.33286 622.94297,407.84562 623.88052,400.1886 627.0447,393.42574 632.09934,381.11968 637.49857,368.93647 642.81388,356.73264 648.45933,345.39493 657.93455,336.47626 663.66165,325.20855 663.983,324.35662 663.22993,323.5733 662.35645,323.7797 z"
       inkscape:connector-curvature="0"
       id="path3035"
       style="fill:#d5be93;stroke:none" />
    <path
       d="M 564.5509,160.62729 C 575.29929,188.72604 582.88407,219.57572 533.4633,200.41942"
       inkscape:connector-curvature="0"
       id="path3032"
       style="fill:none;stroke:#0000e9;stroke-width:1;stroke-linecap:round;stroke-miterlimit:4;stroke-opacity:1;stroke-dasharray:none;stroke-dashoffset:0" />
    <path
       d="M 539.70288,284.61068 C 533.03289,284.66998 527.32258,288.56057 521.56648,291.44239 519.28162,292.86367 516.66476,293.98666 514.67504,295.74528 509.05102,306.64474 501.37439,316.38648 493.40178,325.59775 487.45308,331.23791 480.56052,335.7496 474.37034,341.12212 469.99288,344.94573 463.20405,344.03107 458.68082,347.56568 458.37876,354.98116 462.74439,362.54158 469.29917,366.08935 472.22969,367.15991 475.51345,366.4973 478.54773,366.25451 481.04756,366.08742 483.08509,364.44262 484.42833,362.43788 497.30607,348.57108 512.71609,337.03409 524.53796,322.11011 530.42624,315.39129 537.33862,309.58747 543.3071,302.96209 544.75203,300.76908 543.8583,297.84203 544.19058,295.36512 544.01161,292.29072 544.62274,289.04704 543.7637,286.06792 542.8452,284.75849 541.19647,284.49206 539.70288,284.61068 z"
       inkscape:connector-curvature="0"
       id="path3034"
       style="fill:#76bd94;stroke:none" />
    <path
       d="M 631.34618,292.99462 C 629.21992,293.32993 627.75433,295.15441 626.3633,296.63914 624.62134,298.59143 623.30858,300.86409 621.84017,303.01066 620.93337,303.27423 621.1888,304.55308 620.90269,305.26451 619.18713,314.60102 617.19707,323.88914 615.51093,333.22878 615.27337,333.91506 616.1144,334.36089 616.58789,333.85054 620.03171,331.86688 623.49009,329.56487 627.4748,328.88138 628.42462,328.5832 629.12072,329.47458 630.00553,329.53713 630.81406,328.66922 631.0929,327.38028 631.63539,326.31937 634.32655,319.02377 635.5544,311.19865 635.49443,303.4284 635.33822,300.24104 635.26,296.76628 633.37659,294.04869 632.90194,293.41607 632.16662,292.92963 631.34618,292.99462 z"
       inkscape:connector-curvature="0"
       id="path3800"
       style="fill:#c9ca98;stroke:none" />
    <path
       d="M 627.56878,329.07143 C 624.30908,329.49855 621.42041,331.28878 618.60195,332.86509 617.29374,333.7869 615.64767,334.39643 614.69171,335.71641 613.40087,340.85063 613.96364,346.21537 613.74284,351.46401 613.76224,352.97013 613.06739,354.37163 612.96407,355.87797 612.6101,357.40966 613.64359,358.82478 614.48284,360.0036 615.35688,361.07865 616.75527,361.53069 618.10164,361.25196 620.83008,360.89033 622.79522,358.64366 624.44059,356.62768 628.80631,350.70985 630.52068,343.13845 630.18135,335.86248 629.96021,333.78957 630.00363,331.58744 629.17174,329.64947 628.82645,329.13287 628.14217,329.03527 627.56878,329.07143 z"
       inkscape:connector-curvature="0"
       id="path3820"
       style="fill:#ca818c;stroke:none" />
    <path
       d="M 566.41305,162.7535 C 565.35545,163.11266 566.29462,164.46785 566.41305,165.20589 569.23527,173.70511 572.35919,182.31953 572.51313,191.36478 572.72351,195.60359 571.72668,200.17629 568.54259,203.14589 564.83959,206.55317 559.38015,206.64076 554.64,206.23491 547.46624,205.54672 540.71338,203.10523 533.9274,200.84462 532.84737,200.63123 533.09197,201.89233 533.66636,202.39025 537.41168,207.33437 539.3879,213.43138 540.41217,219.50206 542.1704,225.82891 542.44673,232.50752 544.32776,238.80523 544.53271,239.48653 545.38,239.02806 545.68791,239.27235 544.20991,240.43645 545.67991,242.22918 546.22734,243.45938 546.77319,244.40865 547.51082,246.32224 548.93029,245.66095 549.425,245.50089 549.1347,246.72107 549.41115,247.07605 550.19232,248.71318 552.21741,249.22918 553.77326,249.86505 556.66971,250.88243 559.86273,250.50954 562.87269,250.27104 563.99196,250.19564 565.75874,249.98978 565.6162,248.46368 565.74163,241.89536 565.84233,235.28343 566.70844,228.77583 567.34791,224.45515 568.95011,220.10378 572.13441,217.01284 574.8841,213.82695 578.40997,211.20138 580.44048,207.46678 581.88906,203.84734 581.60701,199.81784 582.07541,196.00166 582.37784,192.40635 582.77652,188.46493 585.42084,185.72495 585.52316,184.46438 583.97776,183.59545 583.42069,182.4974 578.21967,175.91153 572.93303,169.34333 567.28548,163.13132 567.05182,162.92562 566.74028,162.71 566.41305,162.7535 z"
       inkscape:connector-curvature="0"
       id="path3042"
       style="fill:#d5aeb8;stroke:none" />
    <path
       d="M 575.12067,330.98737 C 555.88002,345.3828 550.45767,333.7673 544.9657,322.28284"
       inkscape:connector-curvature="0"
       id="path3033"
       style="fill:none;stroke:#0000e9;stroke-width:1;stroke-linecap:round;stroke-miterlimit:4;stroke-opacity:1;stroke-dasharray:none;stroke-dashoffset:0" />
    <path
       d="M 602.3138,209.83037 C 599.34068,208.80649 598.48194,212.98586 594.83983,217.08452"
       inkscape:connector-curvature="0"
       id="path3040"
       style="fill:none;stroke:#0000e9;stroke-width:1;stroke-linecap:round;stroke-miterlimit:4;stroke-opacity:1;stroke-dasharray:none;stroke-dashoffset:0" />
    <path
       d="M 585.51607,186.30199 C 584.25615,187.05474 583.82398,188.70244 583.27663,189.99775 581.62495,195.61173 582.60544,201.72384 580.78988,207.30191 578.14766,212.95459 571.82602,215.83408 569.18407,221.54597 566.01681,227.90665 566.41291,235.26356 565.97731,242.19025 565.99331,244.39551 565.5223,246.63518 565.79386,248.8209 566.00476,249.3962 566.93247,249.22556 566.68002,250.04366 566.81617,251.37464 568.42861,251.45073 569.26294,250.72374 571.5174,249.23175 573.38975,247.20329 575.54162,245.56477 579.32345,241.28094 581.74089,235.93848 584.04601,230.74049 585.83849,226.88927 586.59353,222.62482 588.44933,218.81512 589.25427,218.03949 589.5807,216.82494 590.72312,216.41768 593.27771,214.1908 593.95154,210.56194 594.24715,207.34313 594.43503,203.30182 593.55448,199.29559 592.28248,195.50019 592.13584,193.74037 590.56996,192.43983 589.74829,190.95064 588.50962,189.43877 587.62971,187.51332 586.05189,186.33633 585.8806,186.28383 585.69244,186.24743 585.51607,186.30203 z"
       inkscape:connector-curvature="0"
       id="path3045"
       style="fill:#a7b0c5;stroke:none" />
    <path
       d="M 594.10289,198.34414 C 593.2411,199.01903 594.08289,200.33504 594.03789,201.24661 594.9223,206.0009 594.56205,211.1132 592.22067,215.42161 591.75637,216.60986 593.51488,216.55136 594.24716,216.70619 595.85755,216.52216 596.38809,214.56529 597.34969,213.50922 598.36883,211.97638 599.39844,210.41721 600.94487,209.38336 601.26369,208.07157 599.93229,206.96938 599.46107,205.83185 597.87679,203.38283 596.58728,200.6724 594.6868,198.46092 594.51978,198.31476 594.3115,198.31594 594.1029,198.34414 z"
       inkscape:connector-curvature="0"
       id="path3048"
       style="fill:#73a0a6;stroke:none" />
    <path
       d="M 601.25399,209.80239 C 599.01123,210.6288 598.11705,213.15036 596.69291,214.8785 595.83194,215.789 595.14152,217.13348 596.77511,217.6267 599.09017,219.62819 598.87555,223.1011 597.96352,225.71892 596.58594,229.58386 594.72059,233.33032 593.65602,237.33993 592.58707,240.59711 592.07437,244.01382 591.3345,247.33022 589.1945,252.52021 586.18235,257.32923 584.32177,262.64759 581.85077,269.57689 579.05812,276.40404 574.89399,282.51513 573.97472,284.11515 572.69014,285.60727 572.17559,287.39289 574.31881,292.64006 578.98577,296.79783 584.51249,298.15246 589.01303,299.42287 593.77329,299.15533 598.34134,298.50766 600.33778,296.8205 601.5197,294.32496 603.12248,292.2702 608.57775,284.28664 614.02088,276.2872 619.57483,268.37136 619.37047,264.7916 618.63474,261.18165 618.18021,257.59608 616.82705,248.10242 614.10362,238.86589 610.98158,229.81948 608.50789,222.95831 605.3338,216.36624 601.8585,209.96726 601.71396,209.79353 601.46319,209.75021 601.25399,209.80239 z"
       inkscape:connector-curvature="0"
       id="path3050"
       style="fill:#d0cf6e;stroke:none" />
    <path
       d="M 571.68099,288.54008 C 569.30704,291.40854 567.48486,294.72143 565.20019,297.66216 562.64616,301.27782 559.85373,304.75307 557.04905,308.17986 556.3889,309.08311 555.85066,310.32851 555.81942,311.32607 554.37448,311.12338 554.05375,312.99272 553.21712,313.81885 550.92889,317.05045 548.17957,319.85053 545.46794,322.69303 545.92665,324.50319 547.13447,326.24902 547.98996,327.98348 550.32747,332.10043 553.51348,336.72799 558.57407,337.4506 563.42713,337.91239 567.98857,335.4998 571.95576,332.97172 575.33541,330.09203 577.95798,326.42488 580.79473,323.05776 586.78602,315.42994 592.5535,307.61511 598.01161,299.60678 598.15043,298.36355 596.50796,299.06351 595.80651,299.05035 591.85765,299.25244 587.7388,299.32575 583.91549,298.2741 579.11605,296.96759 574.97403,293.56921 572.71827,289.11712 572.49994,288.7857 572.14175,288.31755 571.68099,288.54008 z"
       inkscape:connector-curvature="0"
       id="path3052"
       style="fill:#d17697;stroke:none" />
    <path
       d="M 392.60309,117.06525 C 416.29031,114.94602 420.67944,96.768162 441.84335,99.47945"
       inkscape:connector-curvature="0"
       id="path3036"
       style="fill:none;stroke:#0000e9;stroke-width:1;stroke-linecap:round;stroke-miterlimit:4;stroke-opacity:1;stroke-dasharray:none;stroke-dashoffset:0" />
    <path
       d="M 425.28691,93.331244 C 419.98733,93.756667 415.69171,97.468435 411.87087,100.8533 406.96522,105.1652 402.71643,110.2149 397.51858,114.14736 396.86938,114.5293 395.45407,115.50604 396.49016,116.20653 398.50585,116.29033 400.47979,115.41204 402.39409,114.85994 410.06585,112.32065 416.38474,107.15092 423.29429,103.15033 428.01273,100.38589 433.44242,98.903103 438.91591,99.129064 440.30948,98.090334 437.47669,97.573921 436.76311,97.028251 433.09093,95.32151 429.50739,93.016491 425.28691,93.331244 z"
       inkscape:connector-curvature="0"
       id="path3043"
       style="fill:#b46a9f;stroke:none" />
    <path
       d="M 437.56405,99.34266 C 432.94846,99.27612 428.42362,100.60911 424.39147,102.8032 417.58433,106.46521 411.57998,111.65583 404.30102,114.42751 400.52795,115.95273 396.51834,116.71694 392.49005,117.19508 390.41746,117.80024 388.30963,118.24572 386.13846,118.24369 377.00908,118.58247 367.86923,119.10548 358.73269,118.80156 357.88048,118.37679 357.17513,119.04402 357.44129,119.94293 357.24681,128.84853 357.2413,137.75655 357.25117,146.66382 357.6018,147.54076 358.84714,147.21641 359.62644,147.3318 367.65237,147.2717 375.67853,146.80373 383.67563,146.17808 387.19259,145.91493 390.56206,144.56289 393.45366,142.59329 402.88263,136.58749 411.29692,129.1726 419.90166,122.0941 425.89878,117.1172 432.37288,112.55103 439.83248,110.02902 450.7308,106.24657 462.62562,106.57179 473.98089,107.88162 475.89382,108.1177 477.842,108.21218 479.59733,109.08934 498.22314,116.0238 516.82589,123.37027 533.5616,134.22878 547.92491,143.42141 560.72894,154.91913 571.79359,167.85416 581.56529,179.20892 590.72992,191.13881 598.57355,203.87473 599.86164,205.76551 600.69042,207.9547 602.20692,209.66965 602.5459,209.97629 602.34257,210.61858 602.68293,210.98719 605.5946,216.40347 608.24921,221.92712 610.40491,227.68508 613.08716,234.72822 615.13961,242.05164 616.91344,249.36236 617.88301,253.48592 618.31776,257.69979 619.10594,261.85311 619.30246,262.42741 619.98581,262.05829 620.23773,262.00368 621.14452,264.15858 621.53086,266.523 622.5353,268.65352 623.2136,269.36756 623.9443,268.29644 623.86138,267.60918 624.05578,257.05101 622.74976,246.46324 619.88799,236.30299 616.85058,225.40949 612.63157,214.87935 608.13675,204.51038 598.98254,184.39954 585.64585,166.32112 569.80453,150.96348 555.63522,137.06107 539.28914,125.36555 521.55259,116.43346 505.20868,108.26031 487.59251,102.44491 469.47256,99.915837 461.36087,99.186024 453.21595,100.28623 445.09308,99.891547 443.4747,99.779859 441.88812,99.337495 440.24058,99.386137 439.34881,99.353237 438.45651,99.328107 437.56405,99.342657 z"
       inkscape:connector-curvature="0"
       id="path3051"
       style="fill:#73a0a6;stroke:none" />
    <path
       d="M 549.99432,248.62631 C 549.10311,248.93295 549.75752,250.07202 549.72641,250.73264 551.08664,260.21275 553.21117,269.58654 553.98434,279.13999 554.74818,288.58298 553.83605,298.2435 550.25566,307.04015 547.90482,313.06577 544.41717,318.63069 540.58546,323.83402 540.21951,324.6515 541.36812,324.90269 541.89697,324.53835 543.0969,324.04908 544.36948,323.26308 545.0543,322.20192 546.5063,321.53097 547.46299,320.11276 548.61966,319.04944 552.62796,314.90686 555.45515,309.83127 558.75921,305.13743 565.63427,294.67501 570.64977,282.66258 571.29434,270.03797 571.46983,263.85918 571.1214,257.61387 569.55036,251.62335 569.09478,250.73661 568.15402,251.71015 567.45681,251.30761 566.50023,251.16131 566.31739,249.60034 565.2344,250.06776 560.40194,251.03858 555.03587,251.29488 550.62578,248.75746 550.42851,248.66906 550.21377,248.59846 549.99432,248.62631 z"
       inkscape:connector-curvature="0"
       id="path3053"
       style="fill:#b667d7;stroke:none" />
  </g>
</svg>
