<?xml version="1.0" encoding="UTF-8" standalone="no"?>
<!-- Created with Inkscape (http://www.inkscape.org/) -->

<svg
   xmlns:dc="http://purl.org/dc/elements/1.1/"
   xmlns:cc="http://creativecommons.org/ns#"
   xmlns:rdf="http://www.w3.org/1999/02/22-rdf-syntax-ns#"
   xmlns:svg="http://www.w3.org/2000/svg"
   xmlns="http://www.w3.org/2000/svg"
   xmlns:xlink="http://www.w3.org/1999/xlink"
   xmlns:inkscape="http://www.inkscape.org/namespaces/inkscape"
   version="1.1"
   width="740"
   height="520"
   id="svg2"
   style="display:inline;enable-background:new">
  <defs
     id="defs4">
    <filter
       color-interpolation-filters="sRGB"
       id="filter3050">
      <feBlend
         in2="BackgroundImage"
         mode="lighten"
         id="feBlend3052" />
    </filter>
  </defs>
  <metadata
     id="metadata7">
    <rdf:RDF>
      <cc:Work
         rdf:about="">
        <dc:format>image/svg+xml</dc:format>
        <dc:type
           rdf:resource="http://purl.org/dc/dcmitype/StillImage" />
        <dc:title />
      </cc:Work>
    </rdf:RDF>
  </metadata>
  <g
     id="g2062"
     style="display:none">
    <image
       xlink:href="pngs/coronal-0709.png"
       id="image2064"
       height="520"
       width="740"
       y="0"
       x="0" />
  </g>
  <g
     id="g2070"
     style="display:inline">
    <path
       d="M 550.36561,307.36078 C 551.67493,303.97215 548.40688,314.47968 546.01335,315.44356 543.80543,319.7943 540.83034,323.69168 538.55232,326.01335 534.23624,331.20302 528.28572,335.29656 524.87378,337.82664 520.6739,341.64173 518.05513,342.72899 513.68224,345.90941 510.29496,347.80055 503.94603,349.99926 500.00369,353.37044 493.51532,362.2162 493.9857,359.79084 491.92091,362.07497 490.09284,365.97934 486.38257,366.51845 484.45989,370.7795 481.14494,372.10458 479.74222,374.78693 476.99886,378.24052 474.63025,385.64981 471.98763,398.62731 481.35113,401.8671 487.35776,403.06258 491.35877,406.51677 496.89493,408.08462 503.08578,411.91314 509.27582,412.69149 515.54749,416.78915 522.67113,420.42972 529.76978,423.02237 536.68707,426.11543 542.57637,430.21819 547.73703,431.85712 553.47437,435.44172 559.11449,438.25481 565.28526,447.37288 570.88343,446.0115 577.1397,448.0746 585.33352,451.01134 594.51001,449.12026 602.52663,448.76143 608.51694,444.83026 613.91907,441.52449 618.18541,440.14347 618.12298,436.28542 621.24535,435.30697 622.46523,430.21977 626.54185,428.66313 629.32813,423.98069 631.07426,421.1618 633.38085,416.9787 634.9239,416.03266 639.42685,411.53016 639.4543,405.31759 643.00667,400.6236 644.79337,395.32234 647.80045,390.03145 649.84595,383.83629 653.48968,375.21254 655.48521,365.30221 658.55048,356.4792 662.11492,354.32482 662.8974,348.01029 665.41917,343.1115 666.95173,340.545 668.55082,335.73776 670.98552,332.23087 672.67199,328.21149 673.84196,324.87185 676.58129,322.90459 678.60166,318.42416 682.36024,312.61389 684.04231,306.73903 687.49831,300.80632 689.06287,293.11128 690.88158,286.84296 691.8757,276.5036 693.69771,267.93248 694.7889,257.69994 695.20774,244.43896 693.99372,231.93577 692.12509,219.69374 689.98944,212.46612 688.46544,204.98515 685.90757,197.93242 685.03885,189.70206 680.3333,182.91752 679.06829,174.92759 676.66534,170.92929 676.08106,164.51023 673.47253,160.62729 668.09294,155.73828 663.83893,148.0358 657.92872,142.59648 652.79436,135.30663 646.3951,131.28513 640.20879,126.12005 635.21984,121.27919 632.28253,118.48607 626.84112,113.99588 622.77416,111.68769 619.7715,109.02709 615.99535,106.60155 614.26579,104.94132 610.45805,101.08557 606.94505,99.073832 603.76578,95.393215 596.74111,93.063372 592.023,90.369303 587.00168,86.639171 582.20587,84.603101 577.10095,81.664774 574.86515,79.039259 570.52801,77.800562 568.39642,76.069005 562.04379,72.724715 557.85759,71.86007 550.36561,67.986227 542.61381,65.127606 538.08278,62.373493 529.84779,60.525202 522.45084,57.821207 517.05385,55.311555 509.32997,53.064177 501.63041,50.537213 493.38045,47.662501 485.08164,46.846656 475.74105,44.723237 465.52996,44.700426 456.48105,41.872639 445.46121,38.766924 434.28384,37.181723 422.28468,36.898623 411.12743,34.879893 400.06663,37.080797 391.19708,40.007383 386.30899,42.375306 382.47467,44.357816 378.76203,48.09016 376.23613,49.792291 374.89833,52.625668 372.54451,55.551186 370.98583,60.041991 367.18815,65.34021 368.814,69.851484 371.09042,83.548319 366.98853,95.958263 368.19225,109.02187 364.52756,123.05286 378.96422,118.67446 387.10784,116.5911 385.26256,119.28978 392.20865,112.8937 396.17109,110.88712 398.40704,108.90549 399.88658,105.77177 403.63212,102.80434 407.9039,96.227432 413.73859,92.653244 421.66293,92.234559 431.20935,88.703626 433.64712,102.19856 444.66776,97.830328 456.48838,97.979248 470.79794,99.115894 483.21639,101.07383 490.0483,106.45919 495.98561,103.56267 504.67655,108.28714 506.10409,106.36189 512.38154,109.06454 516.16925,110.88712 522.0264,115.04285 527.20748,116.24363 533.5783,120.83516 540.21683,124.08466 545.78481,128.8786 552.23087,132.64845 562.93906,139.92124 570.98104,149.61142 579.58796,159.38379 585.74468,166.74722 590.63336,174.62201 596.27285,182.54586 602.17911,190.7818 605.4214,199.18741 610.05381,207.2587 611.68714,212.40045 614.61244,217.91807 616.02008,222.36025 618.74049,228.56443 619.69728,235.64963 622.17511,242.58393 624.3741,256.56439 626.95782,270.62291 626.57156,285.66915 627.8164,295.513 625.26298,304.03134 623.47795,313.34598 621.24986,322.21717 618.26108,330.43917 618.65795,340.62479 619.30334,351.66167 610.85011,353.2416 612.43661,340.18514 612.97818,330.60355 614.20766,320.47917 617.33901,312.4875 618.44582,301.36591 620.43513,289.52607 619.53724,277.75554 617.68594,266.64734 617.52177,255.00047 617.33901,243.90286 613.99553,237.11547 612.27336,232.36084 608.98575,225.87741 606.04101,220.94913 603.35459,216.35209 601.07214,212.68806 598.59008,207.94281 596.45728,205.36084 594.03782,201.69693 591.63499,198.56048 589.56283,196.47203 587.63829,194.17579 583.94198,190.67109 578.99147,181.89881 575.57469,178.08129 572.30059,173.30286 568.99754,168.47759 565.94769,164.13195 563.37268,161.09733 561.19292,157.68723 556.64809,153.43932 555.46684,151.46526 552.22227,149.11265 550.51295,147.62058 546.96408,144.76789 543.89533,141.88793 540.40111,139.70697 538.57527,138.07152 534.89958,135.52732 533.36679,133.99158 528.97123,131.34505 526.42895,128.12419 521.93602,126.07797 517.10944,122.98979 518.8395,124.08246 514.9017,122.56081 510.47366,120.53751 505.02627,118.4492 500.39341,116.84542 493.08872,114.29579 486.54244,110.07554 477.97151,110.25075 466.68895,107.20531 451.70974,107.40578 440.16203,109.8111 435.91277,110.61507 433.69919,113.73916 429.61054,115.96613 424.8131,116.91782 421.99099,121.34371 419.05906,123.4401 416.72658,126.17904 415.47388,127.9527 411.14545,131.79336 406.25106,137.34936 402.27136,139.19252 397.51645,142.34484 392.84246,143.52191 389.68548,146.94608 383.88745,147.18094 379.02042,149.17958 370.55665,149.42359 366.30165,148.06023"
       inkscape:connector-curvature="0"
       id="path2072"
       style="fill:none;stroke:#e20000;stroke-opacity:1" />
    <path
       d="M 412.9584,93.478063 373.85051,51.758184"
       inkscape:connector-curvature="0"
       id="path2074"
       style="opacity:0.6;fill:none;stroke:#e20000;stroke-opacity:1" />
    <path
       d="M 432.85447,96.586824 431.61096,38.142127"
       inkscape:connector-curvature="0"
       id="path2076"
       style="opacity:0.6;fill:none;stroke:#e20000;stroke-opacity:1" />
    <path
       d="M 461.45506,41.250887 457.1028,98.45208"
       inkscape:connector-curvature="0"
       id="path2078"
       style="fill:none;stroke:#0000e9;stroke-width:0.99000001;stroke-miterlimit:4;stroke-opacity:1;stroke-dasharray:none;stroke-dashoffset:0" />
    <path
       d="M 493.78617,46.846656 486.9469,102.80434"
       inkscape:connector-curvature="0"
       id="path2080"
       style="fill:none;stroke:#0000e9;stroke-width:0.99000001;stroke-miterlimit:4;stroke-opacity:1;stroke-dasharray:none;stroke-dashoffset:0" />
    <path
       d="M 541.66108,63.633963 518.0345,110.88712"
       inkscape:connector-curvature="0"
       id="path2082"
       style="fill:none;stroke:#0000e9;stroke-width:0.99000001;stroke-miterlimit:4;stroke-opacity:1;stroke-dasharray:none;stroke-dashoffset:0" />
    <path
       d="M 623.73236,111.50887 580.83146,158.14028"
       inkscape:connector-curvature="0"
       id="path2084"
       style="fill:none;stroke:#0000e9;stroke-width:0.99000001;stroke-miterlimit:4;stroke-opacity:1;stroke-dasharray:none;stroke-dashoffset:0" />
    <path
       d="M 671.60727,160.62729 608.18856,199.17592"
       inkscape:connector-curvature="0"
       id="path2086"
       style="fill:none;stroke:#0000e9;stroke-width:0.99000001;stroke-miterlimit:4;stroke-opacity:1;stroke-dasharray:none;stroke-dashoffset:0" />
    <path
       d="M 617.51484,224.66776 687.77282,197.31066"
       inkscape:connector-curvature="0"
       id="path2088"
       style="fill:none;stroke:#0000e9;stroke-width:0.99000001;stroke-miterlimit:4;stroke-opacity:1;stroke-dasharray:none;stroke-dashoffset:0" />
    <path
       d="M 621.8671,243.94207 692.74684,219.07199"
       inkscape:connector-curvature="0"
       id="path2090"
       style="fill:none;stroke:#0000e9;stroke-width:0.99000001;stroke-miterlimit:4;stroke-opacity:1;stroke-dasharray:none;stroke-dashoffset:0" />
    <path
       d="M 626.21937,270.67741 694.6121,261.97288"
       inkscape:connector-curvature="0"
       id="path2092"
       style="fill:none;stroke:#0000e9;stroke-width:0.99000001;stroke-miterlimit:4;stroke-opacity:1;stroke-dasharray:none;stroke-dashoffset:0" />
    <path
       d="M 626.21937,289.32997 685.90757,305.49553"
       inkscape:connector-curvature="0"
       id="path2094"
       style="fill:none;stroke:#0000e9;stroke-width:0.99000001;stroke-miterlimit:4;stroke-opacity:1;stroke-dasharray:none;stroke-dashoffset:0" />
    <path
       d="M 623.73236,311.0913 674.09428,326.01335"
       inkscape:connector-curvature="0"
       id="path2096"
       style="fill:none;stroke:#0000e9;stroke-width:0.99000001;stroke-miterlimit:4;stroke-opacity:1;stroke-dasharray:none;stroke-dashoffset:0" />
    <path
       d="M 635.54565,314.82181 C 637.43334,321.18469 634.45937,327.52653 632.79263,333.55835 630.63453,337.78194 629.71252,342.77055 626.88127,346.67793 623.94895,350.74714 621.96043,355.17963 618.46109,358.90042 615.70048,364.81958 611.08455,369.48726 606.92845,374.38431 604.11862,378.37234 602.25491,383.0248 599.88011,387.17801 598.15207,391.10058 596.84171,395.26366 594.53321,398.89416 591.16199,405.04787 589.50944,412.01678 588.57424,418.92827 587.37157,423.02732 588.18919,427.44183 587.02104,431.52714 587.05774,437.59869 587.04794,443.67038 587.04894,449.74201 587.6086,449.42006 586.79388,448.91769 587.04894,448.49851"
       inkscape:connector-curvature="0"
       id="path2098"
       style="fill:none;stroke:#0000e9;stroke-width:0.99000001;stroke-miterlimit:4;stroke-opacity:1;stroke-dasharray:none;stroke-dashoffset:0" />
    <path
       d="M 604.45804,379.48403 618.13659,436.68522"
       inkscape:connector-curvature="0"
       id="path2100"
       style="fill:none;stroke:#0000e9;stroke-width:0.99000001;stroke-miterlimit:4;stroke-opacity:1;stroke-dasharray:none;stroke-dashoffset:0" />
    <path
       d="M 588.09177,419.80465 C 585.77912,418.71076 577.48575,413.36805 574.9442,411.85956 572.51199,410.51693 570.08914,409.59204 567.34694,409.16375 564.89026,408.77501 562.82936,407.35198 560.45217,406.73491 557.98656,406.39934 555.35139,405.41086 552.91891,406.75051 550.79416,407.60086 549.30033,409.29353 547.40174,410.81499 545.65043,413.1434 543.6989,415.35447 542.01049,417.71994 541.31497,419.40646 539.98438,419.83279 539.16788,421.60132 537.86621,423.15997 536.61507,425.30328 536.00492,427.19769 536.45574,427.80448 537.09533,425.74116 537.30882,425.49364"
       inkscape:connector-curvature="0"
       id="path2102"
       style="fill:none;stroke:#0000e9;stroke-width:0.99000001;stroke-miterlimit:4;stroke-opacity:1;stroke-dasharray:none;stroke-dashoffset:0" />
    <path
       d="M 546.6351,407.46287 C 543.34058,404.83915 540.14017,402.30391 536.68707,400.00185 535.87753,399.46216 535.05754,398.56533 534.20006,398.13659 534.01469,398.04389 533.76368,398.22929 533.5783,398.13659 533.054,397.87444 532.89091,397.07846 532.3348,396.89309 529.50441,396.89309 532.2992,397.18618 530.46954,396.27133 530.28417,396.17863 529.99434,396.41788 529.84779,396.27133 529.70124,396.12478 530.03316,395.74227 529.84779,395.64958 529.47705,395.46421 528.97503,395.83495 528.60429,395.64958 528.41892,395.55688 528.75084,395.17438 528.60429,395.02783 528.45774,394.88128 528.16791,395.12053 527.98254,395.02783 527.23643,394.65478 526.86338,393.53562 526.11728,393.16257 525.93191,393.06987 525.6809,393.25527 525.49553,393.16257 524.97122,392.90042 524.77633,392.18122 524.25202,391.91907 524.06665,391.82637 523.81564,392.01177 523.63027,391.91907 523.10596,391.65691 522.91107,390.93772 522.38677,390.67556 522.2014,390.58286 521.91156,390.82211 521.76501,390.67556 521.61847,390.52902 521.91156,390.20036 521.76501,390.05381 521.61847,389.90726 521.28981,390.20036 521.14326,390.05381 520.99671,389.90726 521.28981,389.57861 521.14326,389.43206 520.99671,389.28551 520.70688,389.52476 520.52151,389.43206 520.25936,389.30098 520.16191,388.94138 519.89976,388.81031 519.71439,388.71761 519.42455,388.95686 519.27801,388.81031 519.13146,388.66376 519.42455,388.3351 519.27801,388.18856 518.98491,387.89546 518.40524,388.37393 518.0345,388.18856 517.31024,387.82643 516.89351,387.30718 516.16925,386.94505 515.65158,386.68622 514.07662,387.33944 513.68224,386.94505 513.53569,386.7985 513.82879,386.46985 513.68224,386.3233 513.55621,386.19727 510.69951,386.19727 510.57348,386.3233 510.42693,386.46985 510.72003,386.7985 510.57348,386.94505 510.15898,387.35955 508.50097,386.53055 508.08647,386.94505 507.93992,387.0916 508.23302,387.42026 508.08647,387.5668 507.77559,387.87768 506.53209,387.25593 506.22121,387.5668 505.39221,388.39581 507.25747,388.18856 505.59946,388.18856 504.63906,388.18856 502.36285,389.68776 501.86895,390.67556 501.77625,390.86094 502.0155,391.15077 501.86895,391.29732 501.7224,391.44386 501.39374,391.15077 501.2472,391.29732 501.10065,391.44386 501.3399,391.7337 501.2472,391.91907 501.11612,392.18122 500.75652,392.27867 500.62544,392.54082 500.53274,392.72619 500.77199,393.01602 500.62544,393.16257 500.4789,393.30912 500.15024,393.01602 500.00369,393.16257 499.71059,393.45567 500.29679,394.11298 500.00369,394.40608 499.85714,394.55263 499.52849,394.25953 499.38194,394.40608 499.23539,394.55263 499.47464,394.84246 499.38194,395.02783 499.25086,395.28998 498.89126,395.38743 498.76019,395.64958 498.66749,395.83495 498.90674,396.12478 498.76019,396.27133 498.61364,396.41788 498.28498,396.12478 498.13844,396.27133 497.72393,396.68583 498.55294,398.34384 498.13844,398.75834 497.99189,398.90489 497.66323,398.61179 497.51668,398.75834 497.20581,399.06922 497.82756,400.31272 497.51668,400.6236 497.37013,400.77015 497.04148,400.47705 496.89493,400.6236 496.60752,400.91101 497.08263,402.11346 496.89493,402.48885 496.76385,402.75101 496.40426,402.84845 496.27318,403.11061 495.93927,403.77843 496.60709,403.68628 496.27318,404.35411 494.21109,406.4162 496.56628,403.76792 495.65143,405.59761 495.24592,406.40863 494.11284,407.46287 495.02967,407.46287 495.23693,407.46287 495.23693,406.84112 495.02967,406.84112 494.82242,406.84112 495.17622,407.31632 495.02967,407.46287 494.88313,407.60942 494.55447,407.60942 494.40792,407.46287 494.26137,407.31632 494.61517,406.84112 494.40792,406.84112 494.20067,406.84112 494.26137,407.31632 494.40792,407.46287 494.70102,407.75597 495.35833,407.16977 495.65143,407.46287 495.79798,407.60942 495.65143,407.87737 495.65143,408.08462"
       inkscape:connector-curvature="0"
       id="path2104"
       style="fill:none;stroke:#0000e9;stroke-width:0.99000001;stroke-miterlimit:4;stroke-opacity:1;stroke-dasharray:none;stroke-dashoffset:0" />
    <path
       d="M 512.75009,387.10969 C 520.89412,387.55317 525.69842,395.73016 533.03476,398.04864 537.89681,400.79799 542.05764,405.21407 547.12133,407.2972 549.6637,407.43862 547.08253,410.57209 546.30528,411.45517 542.63409,415.70905 539.56202,420.58012 535.91036,424.74512 532.97774,425.07796 530.13599,422.42065 527.28772,421.6586 516.93834,416.82689 506.48155,412.24377 496.21537,407.27777 495.32586,404.92617 497.46009,402.01152 497.88665,399.56331 499.71747,394.87823 502.06147,388.80798 507.71779,388.08118 509.25773,387.28581 511.04019,387.05869 512.75009,387.10969 z"
       inkscape:connector-curvature="0"
       id="path2106"
       style="fill:#d764c6;stroke:none" />
    <path
       d="M 556.56419,406.69488 C 561.88987,407.22988 566.7082,409.6476 571.83597,410.96943 577.19785,413.03338 581.86483,416.82344 586.64144,419.61567 589.30007,419.77121 586.97828,423.24837 587.5011,424.76362 587.053,432.79436 586.92892,440.83797 586.69973,448.87688 582.73658,449.64715 578.22947,447.55315 574.16754,446.70074 570.20858,445.66025 565.9202,445.44761 562.93715,442.21247 555.70284,435.33021 546.23073,431.81232 538.08649,426.26064 535.92719,424.02549 540.38794,421.94373 541.21468,420.12084 543.9372,414.95791 548.16597,410.17756 553.31942,407.25834 554.33956,406.80833 555.44464,406.59113 556.56419,406.69488 z"
       inkscape:connector-curvature="0"
       id="path2108"
       style="fill:#9eae8b;stroke:none" />
    <path
       d="M 655.03417,320.6988 C 660.9732,322.45395 666.91223,324.20911 672.85126,325.96426 672.74967,329.23588 669.87322,332.45781 668.65151,335.6981 665.01824,342.72322 662.48149,350.32029 658.37609,357.05186 652.91341,372.98772 648.38475,389.42087 640.57238,404.50126 638.56533,410.18671 635.32321,415.23863 631.53758,419.81471 628.14579,425.31471 623.53019,429.98073 620.1772,435.47035 617.52301,437.34581 617.8823,432.09339 617.14615,430.72949 612.99214,413.50309 608.66962,396.23831 604.80826,378.98805 609.15904,371.23312 615.98048,365.00731 620.37103,357.14554 628.93515,345.03701 636.00317,330.97423 636.55648,315.88022 639.92792,315.36406 643.7815,317.82008 647.33495,318.42593 649.90136,319.18355 652.46777,319.94118 655.03417,320.6988 z"
       inkscape:connector-curvature="0"
       id="path2110"
       style="fill:#d5be93;stroke:none" />
    <path
       d="M 693.62166,263.07015 C 691.76748,277.05805 690.90912,291.81315 684.41196,304.5721 671.10484,301.43113 657.50596,297.29416 644.07785,293.81178 638.46722,292.04627 632.30428,291.11881 627.0359,288.834 626.9567,283.048 626.54089,277.24059 626.76388,271.4638 634.17123,269.6163 642.22409,269.22065 649.88905,267.99721 664.29262,266.15032 678.68724,264.17545 693.11649,262.56498 L 693.55613,263.00462 693.62166,263.07012 z"
       inkscape:connector-curvature="0"
       id="path2112"
       style="fill:#9b7d71;stroke:none" />
    <path
       d="M 407.98439,99.073839 368.81401,90.36931"
       inkscape:connector-curvature="0"
       id="path2114"
       style="fill:#9b7d71;fill-opacity:1;stroke:#0000e9;stroke-width:1;stroke-miterlimit:4;stroke-opacity:1;stroke-dasharray:none;stroke-dashoffset:0" />
    <path
       d="M 604.12822,382.32997 C 606.34687,385.18739 606.0992,389.60803 607.37652,392.99374 610.70788,408.05912 615.16468,422.95328 617.4376,438.20994 615.34102,441.25182 611.03531,442.41032 607.95157,444.44853 601.8727,448.17777 594.672,449.22663 587.65179,449.24604 586.44655,445.53044 587.39615,440.84876 587.21265,436.75358 587.74963,421.74575 590.1153,406.37354 597.7254,393.19928 599.83484,389.74927 600.67172,384.94263 603.77849,382.32997 L 603.89506,382.31057 604.12822,382.32997 z"
       inkscape:connector-curvature="0"
       id="path2116"
       style="fill:#bc94c3;stroke:none" />
    <path
       d="M 387.07845,94.789063 C 393.00241,96.168342 399.00521,97.356 404.83725,99.044179 405.38987,101.22489 402.10964,102.89644 401.1456,104.71767 396.73161,110.1 391.35083,114.86946 384.59145,116.86126 379.6423,117.84752 373.43806,120.04492 369.0865,116.55039 367.34897,112.76396 368.66431,108.11973 368.31913,104.03797 368.71479,99.776565 368.14618,94.81822 369.71543,91.017186 375.45605,92.065284 381.30702,93.568246 387.07845,94.789063 z"
       inkscape:connector-curvature="0"
       id="path2118"
       style="fill:#c68582;stroke:none" />
    <path
       d="M 374.97372,54.394608 C 387.76372,66.807545 400.02458,79.973586 411.94854,93.273543 412.09426,95.374918 408.78386,96.350362 407.36312,97.645237 403.09841,98.84467 398.65409,96.046428 394.35816,95.698671 386.20603,93.887606 378.05431,92.07468 369.90255,90.261931 368.91959,84.023061 369.52924,77.184394 369.26137,70.7156 368.80698,64.87785 370.50153,58.692004 374.54626,54.414037 374.67885,54.355747 374.83787,54.326777 374.97372,54.394607 z"
       inkscape:connector-curvature="0"
       id="path2120"
       style="fill:#6d70b9;stroke:none" />
    <path
       d="M 417.13628,37.024409 C 421.80614,37.43544 427.10413,36.410581 431.32,38.423351 431.57185,57.036585 432.01057,75.784266 432.58293,94.30332 429.68808,92.856708 426.35387,90.853468 422.71262,91.680303 419.80902,91.569692 416.7394,93.591968 413.96923,92.982096 401.61693,81.733345 390.6776,68.926375 379.28712,56.687319 378.14856,54.910769 374.17636,52.707335 376.87783,50.528087 386.33958,40.436094 400.69147,36.051079 414.3384,37.004979 415.27105,37.004314 416.20365,37.018929 417.13628,37.024409 z"
       inkscape:connector-curvature="0"
       id="path2122"
       style="fill:#cce198;stroke:none" />
    <path
       d="M 435.96371,38.792516 C 444.19146,39.731615 452.22858,41.889779 460.28976,43.747103 461.28711,49.110937 459.77452,55.07788 459.71848,60.654945 458.63885,73.088647 458.08249,85.712624 456.69526,98.033832 452.10259,99.577953 446.77881,97.365126 442.06465,98.752733 438.94538,99.133728 434.61374,97.967093 433.22814,95.236138 432.74609,76.461668 432.3073,57.686205 431.94175,38.909095 432.79311,37.73686 434.75134,38.963395 435.96371,38.792516 z"
       inkscape:connector-curvature="0"
       id="path2124"
       style="fill:none;stroke:none" />
    <path
       d="M 470.12122,44.835169 C 477.58998,46.056081 485.20371,46.795746 492.52372,48.70169 492.9935,54.12225 491.47897,59.884889 491.15589,65.414922 489.60066,77.434462 488.74353,89.641421 486.48107,101.51176 484.7351,102.58048 482.71817,100.13104 480.72108,100.46455 473.30305,99.006499 465.54859,99.144273 458.17192,97.567518 457.57855,91.587403 458.77307,85.193733 458.90695,79.079942 459.73081,67.43808 460.42183,55.780971 461.66927,44.174558 464.04656,43.281635 467.49353,44.836686 470.12122,44.835169 z"
       inkscape:connector-curvature="0"
       id="path2126"
       style="fill:none;stroke:none" />
    <path
       d="M 495.06902,49.245723 C 510.38631,53.539569 525.31417,59.230921 540.43749,64.226063 540.15869,67.840403 537.06243,71.357706 535.72393,74.935549 529.7758,86.831803 523.82768,98.728057 517.87955,110.62431 513.84754,110.02629 509.85468,107.38387 505.48337,107.4184 499.99912,105.95451 494.38955,104.83486 488.87093,103.49359 486.22738,101.65906 488.5006,97.638282 488.22975,95.02222 490.13422,79.808155 491.59359,64.422817 494.29183,49.381732 494.5123,49.170242 494.80549,49.222946 495.06902,49.245723 z"
       inkscape:connector-curvature="0"
       id="path2128"
       style="fill:none;stroke:none" />
    <path
       d="M 435.96371,38.170764 C 444.19146,39.109863 452.22858,41.268027 460.28976,43.125351 461.28711,48.489185 459.77452,54.456128 459.71848,60.033193 458.63885,72.466895 458.08249,85.090872 456.69526,97.41208 452.10259,98.956201 446.77881,96.743374 442.06465,98.130981 438.94538,98.511976 434.61374,97.345341 433.22814,94.614386 432.74609,75.839916 432.3073,57.064453 431.94175,38.287343 432.79311,37.115108 434.75134,38.341643 435.96371,38.170764 z"
       inkscape:connector-curvature="0"
       id="path2130"
       style="fill:#b08fc6;stroke:none" />
    <path
       d="M 470.12122,44.835169 C 477.58998,46.056081 485.20371,46.795746 492.52372,48.70169 492.9935,54.12225 491.47897,59.884889 491.15589,65.414922 489.60066,77.434462 488.74353,89.641421 486.48107,101.51176 484.7351,102.58048 482.71817,100.13104 480.72108,100.46455 473.30305,99.006499 465.54859,99.144273 458.17192,97.567518 457.57855,91.587403 458.77307,85.193733 458.90695,79.079942 459.73081,67.43808 460.42183,55.780971 461.66927,44.174558 464.04656,43.281635 467.49353,44.836686 470.12122,44.835169 z"
       inkscape:connector-curvature="0"
       id="path2132"
       style="fill:#cd8d77;stroke:none" />
    <path
       d="M 542.43876,65.275269 C 555.22306,70.481339 568.28707,75.434343 579.65383,83.402222 591.79524,90.894712 605.43106,96.427488 615.59403,106.65731 617.36916,108.67589 621.49083,109.5919 621.78987,112.56729 611.57373,124.69574 600.37363,136.15639 589.67798,147.90749 586.2081,151.19601 583.25204,155.66194 579.37472,158.20778 570.60699,149.14694 562.55528,139.12783 551.87877,132.11159 541.23817,124.70889 530.0756,117.91656 518.44301,112.08154 519.31563,107.68899 522.57449,103.48629 524.34237,99.164967 530.17879,87.884027 535.39807,76.171945 541.97244,65.333558 L 542.36104,65.255838 542.43874,65.275268 z"
       inkscape:connector-curvature="0"
       id="path2134"
       style="fill:#bf9784;stroke:none" />
    <path
       d="M 624.00486,112.7033 C 633.07991,119.06382 640.69977,127.3442 649.36291,134.25701 657.40937,142.04523 665.01812,150.5107 671.25802,159.82045 668.67102,162.7049 664.20728,164.22771 660.97385,166.63436 643.06256,177.5511 625.18235,188.53001 607.13983,199.22398 604.81505,198.13188 604.30531,194.5538 602.75026,192.54484 595.94177,181.14998 588.46266,170.21589 580.36563,159.66501 583.33219,155.3067 587.81037,151.54278 591.3304,147.36399 602.10589,135.83702 612.57365,123.89508 623.5774,112.66444 L 623.88828,112.66444 624.00486,112.70334 z"
       inkscape:connector-curvature="0"
       id="path2136"
       style="fill:#ada5be;stroke:none" />
    <path
       d="M 672.30722,161.21939 C 675.52362,162.99371 675.2981,167.83101 676.97036,170.79826 679.86428,179.62672 683.30124,188.31162 685.57774,197.31987 681.07883,200.17364 675.21241,201.48665 670.20086,203.76285 652.80772,210.3365 635.57171,217.5935 618.13707,223.89977 615.95225,223.26428 615.9166,219.64833 614.67209,217.94402 612.45244,211.76398 609.36051,205.88031 606.88725,199.86517 607.8538,198.3707 610.55944,198.24222 611.99727,196.91184 632.2173,185.39607 651.79419,172.66373 671.99635,161.19996 672.09939,161.21116 672.20798,161.17726 672.30722,161.21936 z"
       inkscape:connector-curvature="0"
       id="path2138"
       style="fill:#9970bd;stroke:none" />
    <path
       d="M 685.50003,199.06855 C 688.0623,205.2775 689.93769,212.0544 691.0375,218.6926 683.1636,222.38025 674.43736,224.83604 666.2258,228.00358 651.99087,232.85936 637.8755,238.43771 623.46082,242.55233 620.49236,237.78127 619.37282,231.84028 618.09821,226.36735 617.81729,223.63368 622.16817,224.1167 623.7066,222.77236 644.10769,214.71479 664.49273,206.56987 685.05314,198.93254 L 685.50002,199.06855 z"
       inkscape:connector-curvature="0"
       id="path2140"
       style="fill:#768e99;stroke:none" />
    <path
       d="M 691.4261,220.11097 C 693.25422,225.17769 692.99407,231.05962 693.75049,236.44929 694.09943,244.42705 695.13321,252.69398 693.91311,260.54428 690.45448,262.98409 685.44993,262.24644 681.4447,263.32745 663.44496,265.57855 645.42376,268.31565 627.40506,270.026 624.99794,268.06135 626.23768,263.96535 625.21632,261.26978 624.41818,255.66005 623.5034,250.04945 622.80021,244.43702 630.25042,240.84947 638.78021,238.66338 646.64524,235.63082 661.57812,230.50579 676.43694,224.92442 691.4261,220.11097 z"
       inkscape:connector-curvature="0"
       id="path2142"
       style="fill:#c1dfbe;stroke:none" />
    <path
       d="M 628.39598,290.36895 C 646.27683,295.14753 664.35699,299.55635 681.94438,305.23271 685.12043,306.4868 682.0646,310.21453 681.46676,312.22693 678.95913,316.55892 677.67822,322.45028 673.1427,325.10935 662.31939,322.49523 651.52481,318.78987 640.72137,315.74598 635.46508,313.8758 629.49843,312.97518 624.62661,310.53704 625.7044,304.22492 626.54018,297.83425 627.3662,291.47645 627.49501,291.00609 627.77206,290.25417 628.39598,290.36895 z"
       inkscape:connector-curvature="0"
       id="path2144"
       style="fill:#ba9676;stroke:none" />
    <path
       d="M 494.79393,49.082989 C 509.95736,53.800854 525.18952,58.700152 539.96802,64.444249 539.26986,68.785152 536.1436,72.873184 534.50978,77.062431 529.01564,88.279539 523.43784,99.504672 517.66008,110.5487 513.68439,110.12051 509.8692,107.16197 505.54474,107.40616 499.49403,106.25048 493.65433,104.25841 487.51645,103.31258 487.21491,98.299821 488.83086,92.705093 489.17023,87.47075 490.81993,74.796658 492.11741,62.058896 494.07032,49.434458 494.15362,49.105431 494.51272,49.00267 494.79393,49.082989 z"
       inkscape:connector-curvature="0"
       id="path3026"
       style="fill:#b477bd;stroke:none" />
  </g>
</svg>
