<?xml version="1.0" encoding="UTF-8" standalone="no"?>
<!-- Created with Inkscape (http://www.inkscape.org/) -->

<svg
   xmlns:dc="http://purl.org/dc/elements/1.1/"
   xmlns:cc="http://creativecommons.org/ns#"
   xmlns:rdf="http://www.w3.org/1999/02/22-rdf-syntax-ns#"
   xmlns:svg="http://www.w3.org/2000/svg"
   xmlns="http://www.w3.org/2000/svg"
   xmlns:xlink="http://www.w3.org/1999/xlink"
   xmlns:inkscape="http://www.inkscape.org/namespaces/inkscape"
   version="1.1"
   width="740"
   height="520"
   id="svg2"
   style="display:inline;enable-background:new">
  <defs
     id="defs4">
    <filter
       color-interpolation-filters="sRGB"
       id="filter3050">
      <feBlend
         in2="BackgroundImage"
         mode="lighten"
         id="feBlend3052" />
    </filter>
  </defs>
  <metadata
     id="metadata7">
    <rdf:RDF>
      <cc:Work
         rdf:about="">
        <dc:format>image/svg+xml</dc:format>
        <dc:type
           rdf:resource="http://purl.org/dc/dcmitype/StillImage" />
        <dc:title />
      </cc:Work>
    </rdf:RDF>
  </metadata>
  <g
     id="g1791"
     style="display:none">
    <image
       xlink:href="pngs/coronal-0733.png"
       id="image1793"
       height="520"
       width="740"
       y="0"
       x="0" />
  </g>
  <g
     id="g1799"
     style="display:inline">
    <path
       d="M 617.51484,242.07681 C 615.5383,247.21449 619.44599,257.40993 619.38009,264.45989 620.91554,272.11499 624.66095,282.97188 620.6236,290.57348 619.33108,296.85009 617.14053,302.86276 615.64958,309.84779 612.27318,317.85547 611.42205,330.17036 611.91907,340.9354 615.48989,346.37602 616.34059,331.08552 616.89309,326.6351 618.32437,319.44324 619.74412,312.51497 621.8671,307.36078 625.70032,301.81839 624.56621,292.19506 626.84112,284.97771 626.65706,272.16648 627.85758,259.94822 627.46287,247.05084 630.10724,239.23744 628.06883,228.03663 624.97586,220.3155 623.36492,213.23522 621.23289,206.95915 618.13659,200.41943 616.75458,194.26719 614.02504,190.00715 611.91907,184.87563 609.68892,179.71277 607.12617,176.16017 604.45805,171.81883 600.95575,169.06927 599.09989,165.24462 595.75352,161.8708 594.3995,158.80816 589.69399,155.07872 587.94672,152.47783 585.36295,150.20803 584.28062,147.79636 580.20971,145.70525 574.75315,141.44884 570.85571,138.24946 567.15292,134.51371 563.40374,132.70225 561.37694,130.75008 557.82664,128.29619 553.22318,125.26586 547.88843,122.53885 542.28284,120.21341 539.47781,119.86295 534.83446,117.03597 528.60429,114.61764 522.51048,111.39343 517.26589,109.04501 508.70822,107.15662 501.54414,104.76619 493.35284,102.9358 486.32515,101.56085 479.19422,100.25691 471.68499,97.726266 463.32032,97.208583 454.24086,93.949621 442.97701,97.300853 435.96323,89.125806 430.73947,86.336563 420.66206,86.660448 415.44541,90.991062 414.3257,95.04011 411.35543,101.21379 409.49738,105.4261 408.97949,106.98292 402.29501,113.90121 398.65811,117.10465 395.15831,118.69049 394.0116,123.17849 390.57533,125.94392 384.31564,127.51409 385.40127,134.78355 378.14029,132.0267 362.41654,137.00911 373.52594,115.31376 369.95879,106.23288 369.82983,92.675225 371.0717,79.743384 370.67926,66.120979 372.48168,60.547682 372.801,54.741611 376.27503,52.442433 377.85856,49.21227 379.7172,48.132296 381.8708,46.224912 387.85148,42.432198 394.56709,39.99873 401.76687,38.142135 410.21469,35.480911 418.54476,37.00063 428.15432,36.898631 438.64368,36.040287 447.20472,40.01059 457.1028,40.629143 465.02023,41.89287 472.3752,44.514533 480.10763,46.224912 487.26166,49.073534 495.11865,49.868395 501.86895,53.064185 509.5588,54.231357 512.64819,55.800444 518.65626,58.038202 523.83307,59.425669 530.79348,60.942059 537.30882,63.633971 544.79011,66.265388 551.85911,70.735863 559.07014,72.960252 565.84094,75.906753 574.72569,79.307244 580.20971,81.664781 586.90787,83.928965 593.31491,87.990694 600.72753,90.991062 608.69575,96.255918 616.26437,101.83437 623.73236,107.77837 632.19543,111.36437 637.66071,118.81542 645.49368,125.18743 650.10523,130.92063 655.17212,133.11774 659.12838,139.55157 663.43243,142.87579 667.10763,149.83552 670.361,152.36746 673.38775,157.63215 676.21195,159.26786 679.0683,164.35781 682.35372,170.62884 686.3142,176.93593 688.39458,183.01037 692.37274,190.48511 694.7731,198.46952 695.8556,206.63695 697.31275,217.54456 700.19625,231.68348 697.09911,243.32032 694.3897,251.38545 698.80625,265.36272 692.12509,270.05566 689.71583,275.72768 694.19033,288.13676 690.88158,294.92575 690.33892,301.73619 685.12141,307.28258 684.04231,313.57831 681.95575,318.53134 681.58418,324.61504 678.44654,327.87861 677.17453,331.70786 674.63541,334.30219 672.85077,338.44839 671.18895,341.9711 668.74761,347.67291 667.87676,353.37044 665.29942,359.2939 662.43445,364.93398 660.41573,370.7795 657.50708,374.98113 656.07224,378.55861 653.57646,382.59279 651.50994,388.08952 649.33323,391.71412 647.35894,395.64958 644.08277,399.54568 642.28525,403.94201 640.51967,407.46287 637.25936,412.44052 635.35038,415.77756 632.43689,419.89791 630.38626,423.90469 627.95044,426.41134 625.59762,430.4677 623.20348,433.35958 620.17265,436.30062 616.27134,438.55048 612.35517,442.9849 606.22567,441.83391 598.86228,442.90274 590.57184,442.09721 582.25233,442.11808 575.2357,437.30697 569.14143,436.40367 565.10435,433.85973 560.31365,431.7112 555.58329,428.72095 553.80619,427.83371 549.74386,424.87193 543.8506,423.22477 541.90861,418.58402 536.68707,416.1674 530.93588,412.23327 525.01133,409.93894 518.65625,406.84112 513.52396,403.88579 504.60883,400.77195 501.42426,398.13935 493.302,394.57 484.75127,392.4423 474.46972,393.31033 468.0952,391.35112 461.28349,388.87 458.3463,383.21454 454.1954,379.85197 457.92312,373.31785 461.45506,372.023 464.80999,369.28388 468.67832,368.58323 471.4031,365.80548 475.93094,364.42045 481.59954,360.43618 486.9469,357.7227 490.35872,356.4023 493.06534,354.60995 496.27318,352.74869 498.06239,350.71478 505.03483,347.20829 502.95895,344.70444 L 502.23033,344.23348 503.11245,344.04416"
       inkscape:connector-curvature="0"
       id="path1801"
       style="fill:none;stroke:#e20000;stroke-opacity:1" />
    <path
       d="M 567.1846,134.9663 600.9855,91.186104"
       inkscape:connector-curvature="0"
       id="path1803"
       style="opacity:0.6;fill:none;stroke:#e20000;stroke-opacity:1" />
    <path
       d="M 408.94722,105.85429 370.25845,104.53536"
       inkscape:connector-curvature="0"
       id="path1805"
       style="fill:none;stroke:#0000e9;stroke-width:0.99000001;stroke-miterlimit:4;stroke-opacity:1;stroke-dasharray:none;stroke-dashoffset:0" />
    <path
       d="M 416.42119,89.587425 384.3271,43.864333"
       inkscape:connector-curvature="0"
       id="path1807"
       style="fill:none;stroke:#0000e9;stroke-width:0.99000001;stroke-miterlimit:4;stroke-opacity:1;stroke-dasharray:none;stroke-dashoffset:0" />
    <path
       d="M 432.24841,36.390366 434.44664,87.828845"
       inkscape:connector-curvature="0"
       id="path1809"
       style="fill:none;stroke:#0000e9;stroke-width:0.99000001;stroke-miterlimit:4;stroke-opacity:1;stroke-dasharray:none;stroke-dashoffset:0" />
    <path
       d="M 461.26499,40.786817 452.47209,94.423522"
       inkscape:connector-curvature="0"
       id="path1811"
       style="fill:none;stroke:#0000e9;stroke-width:0.99000001;stroke-miterlimit:4;stroke-opacity:1;stroke-dasharray:none;stroke-dashoffset:0" />
    <path
       d="M 488.96264,48.700429 473.57506,98.380328"
       inkscape:connector-curvature="0"
       id="path1813"
       style="fill:none;stroke:#0000e9;stroke-width:0.99000001;stroke-miterlimit:4;stroke-opacity:1;stroke-dasharray:none;stroke-dashoffset:0" />
    <path
       d="M 554.07331,70.484459 532.09105,115.76791"
       inkscape:connector-curvature="0"
       id="path1815"
       style="fill:none;stroke:#0000e9;stroke-width:0.99000001;stroke-miterlimit:4;stroke-opacity:1;stroke-dasharray:none;stroke-dashoffset:0" />
    <path
       d="M 624.33014,108.25075 583.44314,147.37916"
       inkscape:connector-curvature="0"
       id="path1817"
       style="fill:none;stroke:#0000e9;stroke-width:0.99000001;stroke-miterlimit:4;stroke-opacity:1;stroke-dasharray:none;stroke-dashoffset:0" />
    <path
       d="M 628.33014,244.78215 697.79407,243.02357"
       inkscape:connector-curvature="0"
       id="path1819"
       style="fill:none;stroke:#0000e9;stroke-width:0.99000001;stroke-miterlimit:4;stroke-opacity:1;stroke-dasharray:none;stroke-dashoffset:0" />
    <path
       d="M 626.57156,262.36796 690.75975,271.60051"
       inkscape:connector-curvature="0"
       id="path1821"
       style="fill:none;stroke:#0000e9;stroke-width:0.99000001;stroke-miterlimit:4;stroke-opacity:1;stroke-dasharray:none;stroke-dashoffset:0" />
    <path
       d="M 626.57156,280.83305 690.3201,295.34134"
       inkscape:connector-curvature="0"
       id="path1823"
       style="fill:none;stroke:#0000e9;stroke-width:0.99000001;stroke-miterlimit:4;stroke-opacity:1;stroke-dasharray:none;stroke-dashoffset:0" />
    <path
       d="M 622.61475,308.5307 679.76862,326.1165"
       inkscape:connector-curvature="0"
       id="path1825"
       style="fill:none;stroke:#0000e9;stroke-width:0.99000001;stroke-miterlimit:4;stroke-opacity:1;stroke-dasharray:none;stroke-dashoffset:0" />
    <path
       d="M 499.07447,396.89937 C 529.64781,351.98062 582.74745,417.80733 558.86621,429.4331"
       inkscape:connector-curvature="0"
       id="path1827"
       style="fill:none;stroke:#0000e9;stroke-width:0.99000001;stroke-miterlimit:4;stroke-opacity:1;stroke-dasharray:none;stroke-dashoffset:0" />
    <path
       d="M 564.5816,414.92482 C 577.77938,410.9921 613.74482,402.61681 605.46859,439.98459"
       inkscape:connector-curvature="0"
       id="path1829"
       style="fill:none;stroke:#0000e9;stroke-width:0.99000001;stroke-miterlimit:4;stroke-opacity:1;stroke-dasharray:none;stroke-dashoffset:0" />
    <path
       d="M 601.95143,416.24375 601.51179,390.30469 630.96801,421.07985"
       inkscape:connector-curvature="0"
       id="path1831"
       style="fill:none;stroke:#0000e9;stroke-width:0.99000001;stroke-miterlimit:4;stroke-opacity:1;stroke-dasharray:none;stroke-dashoffset:0" />
    <path
       d="M 636.62627,312.65889 C 637.02127,319.45312 635.81024,332.5835 629.84734,342.30666 624.39612,351.19546 613.79012,358.12724 608.93396,366.80729 603.79003,376.00172 606.57728,386.91174 602.39108,390.30469"
       inkscape:connector-curvature="0"
       id="path1835"
       style="fill:none;stroke:#0000e9;stroke-width:0.99000001;stroke-miterlimit:4;stroke-opacity:1;stroke-dasharray:none;stroke-dashoffset:0" />
    <path
       d="M 525.9876,381.82137 C 540.35643,382.77479 551.84241,393.60277 559.60107,404.84562 563.1958,410.79339 566.32464,418.93365 562.70983,425.53831 561.18416,427.66388 558.13614,430.89624 555.5014,428.2779 552.34189,425.4766 548.22409,423.86951 544.4653,422.29354 541.25115,417.00776 534.66195,414.94407 529.60154,411.64604 520.67427,407.34667 511.61005,402.8638 502.65247,398.86126 502.28845,397.48049 499.18157,397.28258 500.76778,395.42219 506.37295,387.36071 515.88015,381.24941 525.9876,381.82137 z"
       inkscape:connector-curvature="0"
       id="path1837"
       style="fill:#d764c6;stroke:none" />
    <path
       d="M 588.06566,411.85976 C 595.33647,411.67931 602.95888,415.57039 605.18327,422.83757 606.95391,428.93729 605.48815,435.44777 605.74674,441.70386 601.38544,443.54154 596.39092,441.38352 591.69947,441.87472 583.76503,442.07091 576.93092,437.53719 569.54911,435.40862 566.05936,433.87094 562.35424,432.48678 559.15419,430.51233 562.19504,427.51668 565.59645,423.77795 565.15798,419.04877 563.69538,415.52522 566.25215,414.32103 569.45196,413.99704 575.51957,412.43558 581.79388,411.61341 588.06566,411.85976 z"
       inkscape:connector-curvature="0"
       id="path1839"
       style="fill:#9eae8b;stroke:none" />
    <path
       d="M 602.92942,392.79918 C 612.44888,402.02167 621.46161,411.83829 630.79169,421.28319 627.40769,428.44463 621.55094,434.83634 614.85929,439.314 612.31712,440.67577 608.90968,442.95364 606.05761,441.70386 605.52734,437.87181 607.07905,433.75186 606.59162,429.75465 606.84496,425.10309 605.87452,420.49848 602.77399,416.89207 601.06604,410.10727 602.26491,402.86494 602.03373,395.90818 602.3267,395.00984 601.50814,392.75592 602.92942,392.79918 z"
       inkscape:connector-curvature="0"
       id="path1841"
       style="fill:#bc94c3;stroke:none" />
    <path
       d="M 628.94586,281.68042 C 648.7402,286.47863 668.81639,290.30215 688.43977,295.72813 691.84513,296.56951 688.70583,300.42497 688.15223,302.32589 684.26155,309.44224 682.72121,317.46815 679.9101,324.93105 677.56442,326.09985 674.66274,323.54186 672.16024,323.35978 655.78348,318.41577 639.43221,313.39597 623.07808,308.3769 623.16278,304.56103 625.68594,300.65007 625.6428,296.56361 625.6498,293.29381 626.20173,289.94793 626.45885,286.80987 625.8946,285.26223 628.21267,284.95966 627.43034,283.19594 627.35904,282.28191 627.96737,281.46266 628.94586,281.68042 z"
       inkscape:connector-curvature="0"
       id="path1845"
       style="fill:#ba9676;stroke:none" />
    <path
       d="M 629.41218,262.989 C 649.58659,266.17413 669.8383,268.86506 690.05244,271.79067 692.0032,278.83235 692.82743,287.10261 690.26616,294.23204 687.86727,295.73345 684.69938,293.08017 682.06378,293.14677 664.0681,288.84853 645.79329,285.32989 627.9938,280.43691 627.02633,275.06726 626.9113,269.12192 628.32411,263.80505 628.54266,263.41453 628.8746,262.86529 629.41218,262.989 z"
       inkscape:connector-curvature="0"
       id="path1847"
       style="fill:#9b7d71;stroke:none" />
    <path
       d="M 696.17281,243.65639 C 697.11389,246.54662 695.38883,250.0175 695.74535,253.13811 695.44831,259.19076 696.68813,266.91678 690.84906,270.78033 687.06381,271.71456 682.96526,269.61421 679.07462,269.59511 662.21644,267.11923 645.34368,264.74388 628.47955,262.30896 627.53539,257.56165 628.17141,252.09599 628.36297,247.09546 628.98163,244.19364 633.21051,245.52163 635.31882,244.95819 655.59253,244.32946 675.90124,243.72582 696.17281,243.65639 z"
       inkscape:connector-curvature="0"
       id="path1849"
       style="fill:#c1dfbe;stroke:none" />
    <path
       d="M 463.07406,42.267003 C 471.2679,44.051939 479.36245,46.603129 487.40011,48.931408 489.08495,50.805518 486.21174,53.864532 486.22508,56.081249 481.83509,70.152943 477.96015,84.446139 472.65293,98.166402 469.79854,98.581193 466.76917,96.516364 463.7541,96.74803 460.29945,95.829494 456.01516,96.487686 453.02888,94.41646 453.43797,87.758293 455.28452,80.991653 456.10702,74.287874 457.93184,63.838893 459.24044,53.226589 461.48082,42.888755 461.81264,42.343197 462.47578,42.182857 463.07406,42.267003 z"
       inkscape:connector-curvature="0"
       id="path1851"
       style="fill:#abd9cd;stroke:none" />
    <path
       d="M 434.70662,37.292986 C 443.24234,38.481892 451.7999,40.086307 460.21789,41.878408 460.29709,47.433784 458.56233,53.255205 457.94555,58.891383 456.07769,70.609337 454.1267,82.31409 452.23226,94.027865 447.65183,95.323223 442.27123,93.966075 438.6148,90.688794 435.81294,89.569926 434.64461,87.001686 434.80217,84.141012 433.89767,68.656038 432.95954,53.095384 433.07452,37.603862 433.45445,37.102043 434.17795,37.279869 434.70662,37.292986 z"
       inkscape:connector-curvature="0"
       id="path1853"
       style="fill:#a36ed8;stroke:none" />
    <path
       d="M 419.57084,36.884962 C 423.59309,37.289496 428.10584,36.553662 431.81159,37.720441 432.70362,53.510664 433.83313,69.406476 433.5797,85.187327 433.88411,87.603563 431.48962,88.208976 429.90747,86.877716 425.867,86.694025 421.73197,87.464486 417.88046,88.87898 415.26968,88.57364 414.43335,84.704539 412.55345,83.125396 403.49327,70.361087 394.00147,57.746828 385.93794,44.384846 387.16302,42.660292 390.10269,43.358279 391.74695,41.886532 400.48317,38.35572 410.08891,36.29434 419.57084,36.884962 z"
       inkscape:connector-curvature="0"
       id="path1855"
       style="fill:#cce198;stroke:none" />
    <path
       d="M 384.65558,45.472912 C 390.79268,52.878146 395.98305,61.379478 401.71156,69.23167 406.24815,76.165336 411.67168,82.757222 415.64603,89.928187 414.19537,92.331074 413.95839,95.466717 412.30412,98.030394 410.6555,100.38649 411.01115,105.74642 406.84436,104.96682 394.77503,104.83795 382.6076,105.22334 370.60787,103.91761 369.71645,98.984607 370.84176,93.353861 370.66617,88.16008 371.5972,76.704294 369.39756,64.00131 375.87334,53.808276 377.72221,52.65279 377.68256,49.603894 380.12846,49.125706 380.8821,47.389633 382.66926,45.531725 384.65559,45.472912 z"
       inkscape:connector-curvature="0"
       id="path1857"
       style="fill:#6d70b9;stroke:none" />
    <path
       d="M 373.6972,104.8891 C 384.65054,105.28265 395.62759,105.62377 406.55291,106.40462 407.62911,108.09157 405.27289,110.446 404.18248,111.86438 402.25491,113.60082 399.1635,113.35327 398.23092,116.21134 394.67227,119.87792 392.29042,124.72172 387.64776,127.2916 384.93389,129.30397 382.84357,133.05419 378.84608,132.30448 375.86248,131.87854 371.36186,133.84906 370.47186,129.72032 368.69239,125.78788 369.30229,121.11756 371.57936,117.59616 370.38093,113.75533 370.74262,109.43348 369.9084,105.43313 370.61035,104.2273 372.55593,105.14978 373.6972,104.8891 z"
       inkscape:connector-curvature="0"
       id="path1859"
       style="fill:#c68582;stroke:none" />
    <path
       d="M 603.27037,171.36142 657.34672,135.75017"
       inkscape:connector-curvature="0"
       id="path1861"
       style="fill:#9b7d71;fill-opacity:1;stroke:#0000e9;stroke-width:1;stroke-miterlimit:4;stroke-opacity:1;stroke-dasharray:none;stroke-dashoffset:0" />
    <path
       d="M 620.41653,205.65374 687.24259,181.47326"
       inkscape:connector-curvature="0"
       id="path1863"
       style="fill:#9b7d71;fill-opacity:1;stroke:#0000e9;stroke-width:1;stroke-miterlimit:4;stroke-opacity:1;stroke-dasharray:none;stroke-dashoffset:0" />
    <path
       d="M 626.13192,226.31706 697.35442,219.72239"
       inkscape:connector-curvature="0"
       id="path1865"
       style="fill:#9b7d71;fill-opacity:1;stroke:#0000e9;stroke-width:1;stroke-miterlimit:4;stroke-opacity:1;stroke-dasharray:none;stroke-dashoffset:0" />
    <path
       d="M 489.63208,49.388135 C 495.90847,50.951633 501.88583,53.509136 508.23121,54.744081 515.64244,57.226325 523.12839,59.511439 530.67574,61.588054 538.33008,64.208105 545.89887,67.171742 552.92724,71.191785 552.70278,73.76792 550.66324,76.187246 549.76936,78.691139 543.78641,90.876977 538.17412,103.37139 531.59071,115.17004 529.0894,115.14904 526.82463,113.13334 524.44648,112.32608 508.65822,105.41355 491.36942,102.84184 474.8078,98.559694 473.95679,96.362782 475.68836,93.86981 475.98693,91.624852 480.16372,77.613821 484.57661,63.669882 488.94514,49.717869 489.05378,49.414469 489.36321,49.324302 489.63208,49.388135 z"
       inkscape:connector-curvature="0"
       id="path1867"
       style="fill:#a6a5bc;stroke:none" />
    <path
       d="M 554.466,71.700125 C 567.13029,75.971908 579.35102,81.697297 591.61607,87.067355 594.35721,88.494208 597.48016,89.436187 599.90057,91.346766 599.30316,93.732304 596.76115,95.619692 595.47169,97.813985 586.24797,109.87714 576.95671,121.88846 567.69657,133.92365 564.44993,133.4204 561.83926,130.50875 558.96729,128.85222 551.86729,124.1693 544.04841,120.63925 536.16577,117.6293 534.97463,116.82339 531.67516,116.34488 533.19454,114.31957 540.03867,100.10523 546.70983,85.740849 553.93018,71.741342 554.09522,71.671802 554.29138,71.675682 554.466,71.700122 z"
       inkscape:connector-curvature="0"
       id="path1869"
       style="fill:#dad3b7;stroke:none" />
    <path
       d="M 601.42559,92.212317 C 607.27739,95.191173 612.27391,99.719673 617.66489,103.47375 619.55008,105.01078 621.6693,106.30647 623.35289,108.05328 622.52559,110.1624 620.0258,111.45483 618.59176,113.25296 606.94398,124.51978 595.23824,135.85588 583.40014,146.83822 581.33001,146.91712 579.78594,144.54019 578.03314,143.59402 574.53985,140.72591 570.86646,137.90754 568.01256,134.44573 578.71723,120.36636 589.55397,106.2945 600.50509,92.404662 600.75867,92.192437 601.11089,92.175076 601.42559,92.212317 z"
       inkscape:connector-curvature="0"
       id="path1871"
       style="fill:#bf9784;stroke:none" />
    <path
       d="M 626.96348,109.79812 C 636.321,116.15033 644.12434,124.69725 652.34786,132.47594 653.13738,133.74321 656.04355,135.21248 654.81225,136.93247 637.98991,148.331 620.87532,159.46875 603.92333,170.60654 602.19006,170.41532 601.49341,167.86165 600.16267,166.80972 595.10771,160.17833 589.77567,153.88967 583.96069,147.90986 584.57668,145.69749 587.57402,144.261 589.06958,142.34492 600.80211,131.10988 612.54593,119.88663 624.28439,108.65779 625.27445,108.38026 626.08358,109.48439 626.96348,109.79812 z"
       inkscape:connector-curvature="0"
       id="path1873"
       style="fill:#ada5be;stroke:none" />
    <path
       d="M 656.9143,136.93247 C 660.55068,141.65139 664.87369,145.81348 668.42806,150.64263 674.743,158.20175 680.16255,166.41029 684.6381,175.18595 685.35808,177.13357 687.22755,179.09194 686.97504,181.19924 665.26152,189.34853 643.31708,197.17881 621.45418,204.95381 619.38557,204.49068 619.21963,201.5215 618.33544,199.91163 614.9333,189.87827 610.31768,180.28084 604.50036,171.43087 605.51912,169.37521 608.70962,168.50065 610.52645,166.88901 625.7565,156.85683 640.99158,146.8323 656.22736,136.80882 656.43658,136.92724 656.77539,136.53934 656.9143,136.93247 z"
       inkscape:connector-curvature="0"
       id="path1875"
       style="fill:#dcbf8c;stroke:none" />
    <path
       d="M 687.52459,181.83123 C 693.04863,191.7555 695.30376,203.02172 696.69474,214.20612 696.52352,215.78381 697.92615,218.15903 696.6335,219.35219 673.6646,221.83038 650.61046,223.94633 627.62295,225.98808 625.01834,221.94806 624.68304,216.7816 623.00049,212.28529 622.46148,210.14279 621.2648,208.04695 621.1794,205.84684 634.53032,200.55918 648.27666,195.94635 661.78684,190.94107 670.3714,187.97103 678.90058,184.48121 687.5246,181.83123 z"
       inkscape:connector-curvature="0"
       id="path1877"
       style="fill:#9970bd;stroke:none" />
    <path
       d="M 697.45782,220.21774 C 698.42308,224.98194 697.88259,230.04663 697.92481,234.91815 697.70883,237.52226 697.9349,240.59551 696.64723,242.80451 674.18223,243.31594 651.72444,244.11779 629.25788,244.56309 628.08026,242.60183 628.99989,239.4623 628.63963,237.03417 628.7525,233.56429 627.85616,230.16508 627.60921,226.75746 631.71349,225.66391 636.4232,225.8347 640.75653,225.22283 659.52212,223.48935 678.27816,221.63102 697.0594,220.08035 L 697.45782,220.21774 z"
       inkscape:connector-curvature="0"
       id="path1879"
       style="fill:#768e99;stroke:none" />
    <path
       d="M 637.85094,313.43468 C 651.3965,317.51085 664.96556,321.71806 678.47856,325.96687 679.43474,326.91461 677.7763,328.35318 677.55565,329.41565 674.56018,334.93375 671.38779,340.42169 669.48258,346.4264 668.34847,350.08787 667.55718,353.85933 665.82407,357.36861 662.94193,363.6246 660.80048,370.25143 657.04745,376.03451 652.63426,383.37202 649.90784,391.67175 645.00851,398.71149 641.71745,404.32695 638.81124,410.23423 635.07213,415.62117 633.76519,417.2291 632.9874,419.60838 631.14768,420.62863 628.01915,418.06472 625.39506,414.77139 622.46286,411.93132 615.82223,405.01995 609.20444,398.08668 602.57623,391.16341 602.46071,389.91159 604.01161,388.98957 604.16947,387.65634 606.10858,380.48174 605.49514,372.36937 609.74276,365.96006 615.10437,357.76043 623.26043,351.80386 628.93269,343.88111 634.76104,335.22953 636.5892,324.71712 636.97661,314.46446 637.01841,313.95531 637.10337,313.19947 637.85094,313.43468 z"
       inkscape:connector-curvature="0"
       id="path9022"
       style="fill:#d5be93;stroke:none" />
  </g>
</svg>
