<?xml version="1.0" encoding="UTF-8" standalone="no"?>
<!-- Created with Inkscape (http://www.inkscape.org/) -->

<svg
   xmlns:dc="http://purl.org/dc/elements/1.1/"
   xmlns:cc="http://creativecommons.org/ns#"
   xmlns:rdf="http://www.w3.org/1999/02/22-rdf-syntax-ns#"
   xmlns:svg="http://www.w3.org/2000/svg"
   xmlns="http://www.w3.org/2000/svg"
   xmlns:xlink="http://www.w3.org/1999/xlink"
   xmlns:inkscape="http://www.inkscape.org/namespaces/inkscape"
   version="1.1"
   width="740"
   height="520"
   id="svg2"
   style="display:inline;enable-background:new">
  <defs
     id="defs4">
    <filter
       color-interpolation-filters="sRGB"
       id="filter3050">
      <feBlend
         in2="BackgroundImage"
         mode="lighten"
         id="feBlend3052" />
    </filter>
  </defs>
  <metadata
     id="metadata7">
    <rdf:RDF>
      <cc:Work
         rdf:about="">
        <dc:format>image/svg+xml</dc:format>
        <dc:type
           rdf:resource="http://purl.org/dc/dcmitype/StillImage" />
        <dc:title />
      </cc:Work>
    </rdf:RDF>
  </metadata>
  <g
     id="g1057"
     style="display:none">
    <image
       xlink:href="pngs/coronal-0789.png"
       id="image1059"
       height="520"
       width="740"
       y="0"
       x="0" />
  </g>
  <g
     id="g1065"
     style="display:inline">
    <path
       d="M 475.13361,154.40977 474.51186,153.78802 M 474.51186,153.78802 473.89011,153.78802 M 473.89011,153.78802 473.22451,153.23012 473.26831,152.54452 M 473.26831,152.54452 C 468.96287,149.25405 464.01081,143.62152 459.4127,139.48496 458.06949,136.52665 449.60753,132.57242 445.28946,128.91794 439.98902,126.58656 435.545,122.76129 429.69119,120.64204 424.13723,118.70252 417.49708,116.04254 411.71485,113.99589 405.13645,111.08157 399.5886,109.72177 393.68404,107.15662 387.74933,105.89034 385.67456,103.90276 381.87075,100.31734 379.1436,94.996031 376.33013,88.793141 376.27498,81.975657 374.16831,76.628365 376.41494,60.704593 373.43824,66.732158 376.98649,62.257229 378.72039,59.370497 381.87075,55.551193 383.39845,52.290315 388.16738,48.433108 390.57528,44.981408 395.16723,42.282172 402.04513,39.229007 409.22784,38.763887 421.32017,37.113709 433.59725,37.679623 445.28946,39.385639 455.34278,41.52682 462.8928,42.557038 472.64655,44.359656 479.97185,47.052932 488.00451,48.038484 495.65138,49.955425 501.64955,52.100912 507.31375,54.417763 511.81694,54.929441 519.27175,57.666023 524.51964,59.548471 531.713,61.768714 538.45276,63.699835 545.24611,66.437315 552.23082,68.607987 557.511,71.861287 564.23997,72.977736 569.63988,76.069012 575.47855,77.374922 577.86742,80.358072 582.69667,82.908285 586.38929,85.319743 589.47236,87.250078 594.50996,89.125806 598.18174,91.201327 602.37734,94.036686 607.26885,97.15678 610.23668,99.296275 616.75523,105.22666 621.86705,107.77837 631.85228,115.80784 642.04787,124.22971 651.71115,133.89196 657.70384,139.7937 663.50039,148.34758 669.12021,154.40977 670.68832,158.63441 673.22313,161.28743 675.95948,166.22306 677.48623,169.54474 680.05941,174.12488 682.17701,178.03635 684.07179,183.16983 687.49584,187.66986 689.01628,192.9584 692.25092,200.05302 694.55149,205.84821 695.79176,212.60211 698.5057,223.78405 696.99089,236.68747 697.78178,248.73854 696.34975,255.22139 696.25772,262.68166 693.36854,266.9469 691.34971,268.65576 685.63665,271.62733 687.15102,275.02968 689.56083,277.36676 692.6044,278.02605 693.9903,282.4907 694.79659,290.68295 693.64039,301.13381 690.88153,306.11728 686.45847,312.97741 685.20639,317.6866 682.17701,324.14809 680.26238,329.50849 677.26716,335.36409 675.33773,340.9354 673.60176,345.98511 672.1799,349.51916 669.12021,353.37044 667.26355,358.4058 664.29759,361.5224 662.90269,366.42724 660.51435,369.48897 659.4473,373.03943 656.68517,375.75352 655.21955,379.56172 652.13067,381.85557 650.46765,385.70155 647.71212,388.32885 645.38566,394.31716 641.76312,395.64958 639.27716,397.98349 636.18798,400.45742 634.3021,403.11061 628.10254,408.08577 621.69231,408.13057 613.78428,407.46287 606.928,408.78529 601.594,410.32289 595.75347,413.68039 587.59854,417.54059 577.97505,418.36077 568.35015,416.21824 565.53871,414.84691 560.0995,414.17158 557.20484,411.19339 553.42746,409.65272 550.12284,407.63059 547.2568,405.59762 544.18647,402.62831 542.36394,401.76 540.41753,398.13659 538.11439,396.25872 534.92738,393.57625 532.95651,390.67557 530.05688,388.76409 528.78471,384.34026 526.11723,382.59279 526.01803,381.47522 523.55631,381.44746 522.38672,380.72753"
       inkscape:connector-curvature="0"
       id="path1067"
       style="fill:none;stroke:#e20000;stroke-opacity:1" />
    <path
       d="M 588.32243,345.46089 C 589.68612,345.46134 589.22355,344.72024 591.39995,344.14195 593.51708,342.67964 595.73858,341.59553 598.43427,339.7455 600.50248,338.33595 601.6021,337.06199 604.14966,335.78869 605.70788,334.2694 607.56076,333.04477 608.54611,330.9526 609.98244,328.96683 611.54327,328.26241 612.50291,326.1165 614.05619,324.91451 615.22348,322.35671 616.45972,320.84076 617.73722,318.47558 618.82899,315.72142 620.41653,313.36679 621.61642,310.40328 623.30643,308.30583 624.96411,305.57683 625.9671,303.81571 627.91836,300.40534 629.20943,298.41886 630.38444,295.1075 633.00181,291.77107 633.60588,288.30702 635.10806,285.70464 635.82572,281.89952 637.12304,278.63483 638.66286,272.53884 639.11431,266.99456 639.76091,260.16973 640.39331,252.73517 640.26966,244.803 638.00233,238.18748 637.42562,232.48991 635.77547,227.91726 634.04553,222.7999 631.83838,218.25752 630.3078,214.28156 628.33014,209.61054 626.63758,206.57707 625.51724,204.72813 623.93369,201.69693 621.81696,198.43015 620.04402,196.1133 618.65795,193.34367 616.6275,190.78513 614.04534,187.14754 611.62362,184.11113 610.35056,181.09445 606.80274,178.23203 605.02895,174.87858 602.94163,173.97075 600.6498,169.70539 598.87392,168.72355 597.53659,166.64247 596.28593,166.11424 594.03782,163.88745 591.5639,161.24417 587.17105,158.81134 583.48634,155.97384 578.9783,152.40799 573.91049,149.22921 568.97805,146.74129 565.24414,144.40062 562.37621,142.91555 558.42656,141.46555 552.94614,138.63834 547.21619,136.76206 541.72005,133.55194 536.5755,131.12207 531.15364,129.27232 525.89283,127.39691 521.38039,125.34095 516.42025,124.60721 511.82418,123.00045 505.70842,121.06504 499.45191,122.54419 494.67802,124.31939 491.96419,126.36573 488.6845,127.31883 485.88512,129.59513 480.8829,132.1366 475.56344,133.89869 469.61825,131.79336 466.68787,131.59582 466.40115,128.068 464.34251,126.51762 463.17704,123.70364 461.71859,120.39254 460.82535,117.28507 459.96396,112.49887 458.40502,107.95652 456.86854,104.09571 455.55782,101.43802 454.57696,98.954557 452.47209,97.501038 451.38789,95.605985 446.96235,92.76125 445.87741,90.906361 438.36341,88.497184 443.03637,84.077726 450.09542,86.025158 454.18248,86.803556 459.07547,88.953944 461.26499,90.466716 465.09781,91.265388 466.54525,93.707722 469.61825,94.863167 471.37764,96.657817 475.26049,97.76648 477.09222,99.699263 480.50199,100.69991 482.82316,102.47765 487.20405,103.65607 490.45804,105.90513 493.89649,106.10617 497.31589,108.05252 501.56164,109.44894 504.69973,110.66639 508.8978,111.88567 511.68753,112.89986 515.13239,114.45861 517.95759,115.66974 521.48572,115.14935 526.00699,118.58356 529.84963,118.604 534.60839,120.60376 540.04426,121.71181 544.35792,123.87974 549.39407,125.06419 553.19537,126.96805 557.10763,129.15549 560.61366,130.24849 564.07332,132.80049 567.65911,133.99158 569.83502,135.50588 573.37544,137.17582 576.01237,138.38803 578.24738,139.85923 582.24619,142.03469 584.36563,144.10342 585.92313,145.37741 587.69965,147.03463 590.08101,148.93952 592.03403,150.61772 593.51301,152.26403 595.7964,154.21526 596.92944,156.03761 599.36636,157.41173 601.07214,159.491 606.00563,163.33104 612.36318,170.67012 616.45972,175.75787 619.33786,178.38758 621.79352,183.26707 624.37333,186.30935 625.75315,189.33786 628.03597,192.07322 630.08872,195.5419 631.89338,199.43133 634.02585,203.14443 635.36446,206.97267 637.94436,211.44606 639.26366,215.60683 641.07985,220.16203 642.29508,224.3768 644.37639,228.77199 644.6131,233.77022 646.02702,243.11491 646.47969,253.30166 646.01311,262.56412 645.34852,268.52777 644.11443,273.08559 642.80248,278.16249 641.82967,282.32769 640.1808,286.82495 638.44198,290.0656 636.14554,293.17033 634.21313,297.771 633.16624,301.49637 631.50225,303.41719 630.47785,307.21846 628.33014,309.40999 626.54612,311.40408 625.57352,312.63644 624.37333,315.12537 622.61878,317.05036 621.96574,320.21881 619.97688,321.72005 619.15656,324.98688 616.80259,326.71733 614.70114,329.63366 612.68532,330.99521 611.95053,333.85445 609.4254,335.78869 607.32391,337.26989 604.87468,338.80006 602.83072,340.18515 601.35816,342.23434 600.17966,343.05121 597.99463,345.02124 595.12771,347.35982 593.42947,348.07717 590.52066,350.29698 587.88362,351.6912 585.76136,353.71364 582.60705,354.25379 577.48842,357.50391 574.34856,361.5436 568.09876,362.1674 563.55159,364.05546 558.63396,366.01317 553.88677,366.1397 548.71029,364.26554 556.4853,361.30322 559.7455,360.40882 562.55615,358.27046 567.76933,358.31309 570.29698,355.57272 573.20048,354.65985 574.2936,352.6815 577.3313,351.61592 579.92866,350.9594 583.09845,347.84655 585.68456,346.77982 586.29949,345.97799 587.47687,345.93009 588.32243,345.46089 z"
       inkscape:connector-curvature="0"
       id="path1069"
       style="opacity:0.6;fill:none;stroke:#e20000;stroke-opacity:1" />
    <path
       d="M 627.0112,199.93835 C 628.80825,204.17181 626.11997,198.89919 625.25262,198.17977 623.19409,195.43828 622.28254,193.08126 620.41653,190.7058 618.54866,187.4876 616.39549,183.47365 613.3822,180.15432 611.35031,177.05704 609.97925,174.99066 607.66682,172.24071 606.10253,168.61169 603.40392,167.33306 601.51179,164.3271 599.20719,162.22473 597.26941,159.73989 595.99155,158.12489 593.08853,155.81197 591.79685,153.50545 589.20172,152.45668 586.85093,149.91798 585.67534,150.1398 583.04669,147.62058 579.93585,146.38297 579.3289,144.63846 575.52518,142.91184 572.64278,141.20327 568.55636,138.77207 565.16497,137.46855 561.42688,134.87915 557.01346,133.02879 552.48241,131.37531 547.57828,129.29208 541.83369,127.52624 537.40603,125.99554 533.8916,125.87146 531.18652,123.34567 527.65141,122.12116 523.67274,121.00339 519.977,119.90218 516.66028,118.16436 513.85802,117.17029 509.11083,116.17211 506.54844,114.6472 502.83687,114.15563 500.5168,113.09296 497.31589,112.44897 495.50567,111.26341 492.53718,110.20063 489.84193,109.37146 487.59791,108.57058 485.14746,107.28826 482.8076,106.73359 478.88009,104.92398 475.76987,103.15642 471.81648,101.45784 470.13029,99.90516 467.3161,98.731859 464.78215,97.501038 462.73311,97.635925 458.75404,96.303021 462.01376,96.917134 458.48958,97.906608 461.546,104.23394 463.46322,105.41465 465.60536,108.12757 469.66634,111.01923 472.25612,111.13004 475.55151,111.64518 477.97147,113.24301 481.13146,113.24583 483.59605,114.78095 487.86008,113.99786 490.72122,115.52649 494.30543,116.24567 497.75049,117.30176 501.2727,118.16436 504.58207,119.95807 510.01677,119.10659 514.02241,120.36258 517.49682,121.6835 520.53149,121.79001 524.57389,122.56081 526.78615,123.61428 530.3976,122.49111 528.5307,123.4401"
       inkscape:connector-curvature="0"
       id="path1071"
       style="opacity:0.6;fill:none;stroke:#e20000;stroke-opacity:1" />
    <path
       d="M 474.51186,152.54451 C 479.74535,151.1331 474.77224,149.40941 474.51186,152.54451 480.57701,147.70126 489.37488,151.13536 495.55605,151.30386 501.3588,151.78282 506.48666,154.33015 512.34159,154.29319 515.92749,155.61398 522.4023,157.05645 524.74019,157.85976 529.06115,159.88082 533.96045,161.95479 537.93057,163.1143 541.62682,164.83005 545.42777,166.20534 549.74386,168.08831 553.30648,170.18459 556.49625,171.21225 559.07014,172.44058 561.00765,172.90854 564.91408,176.50201 567.77467,178.03635 570.69535,180.66194 575.14199,183.26091 577.7227,187.36263 580.38641,189.81336 582.63061,191.42628 584.56198,194.2019 587.27615,196.0387 589.87995,201.12243 592.64475,203.52818 593.69577,206.22949 596.87968,208.67385 597.61877,210.98921 599.652,212.13817 600.21271,216.30141 602.59279,219.69374 603.63758,222.98162 605.16506,228.01469 606.98244,231.16316 608.2312,237.41781 610.15722,243.1164 608.81031,249.53784 609.1661,255.99104 608.95328,261.29652 607.53806,266.30676 607.0422,271.96995 605.95248,277.19494 603.34928,281.86895 601.56805,284.82882 600.34974,288.99375 598.37527,292.43873 595.79972,296.42822 594.83047,299.2285 590.91424,303.00852 589.74788,306.01081 582.71711,311.91198 581.35234,314.26259 577.82181,315.63321 574.45569,318.86664 570.88343,321.03933 566.79653,323.55935 564.03853,326.1552 561.24627,328.81123 557.61086,331.66514 555.05525,334.05307 551.60912,336.58313 548.12772,340.02482 548.37148,339.71109 544.57211,343.07252 539.96047,347.74995 535.86085,349.81927 531.71305,354.61394 530.1405,356.41031 527.09514,359.89628 525.49553,362.69672 523.83425,365.3928 522.75746,368.75137 521.76501,372.023 520.77938,375.47187 523.59701,381.75156 521.14326,380.72753"
       inkscape:connector-curvature="0"
       id="path1073"
       style="fill:none;stroke:#0000e9;stroke-width:0.99000001;stroke-miterlimit:4;stroke-opacity:1;stroke-dasharray:none;stroke-dashoffset:0" />
    <path
       d="M 483.21639,130.16144 C 482.09076,130.41005 484.64286,133.08723 483.83814,133.89195 483.69159,134.0385 483.36293,133.7454 483.21639,133.89195 482.90551,134.20283 483.52726,135.44633 483.21639,135.75721 483.06984,135.90375 482.74118,135.61066 482.59463,135.75721 482.30154,136.0503 482.78,136.62997 482.59463,137.00071 482.2325,137.72497 481.71326,138.1417 481.35113,138.86597 481.16576,139.23671 481.5365,139.73873 481.35113,140.10947 481.22005,140.37162 480.86045,140.46907 480.72938,140.73122 480.54401,141.10196 481.02247,141.68163 480.72938,141.97473 480.58283,142.12128 480.25417,141.82818 480.10762,141.97473 479.96108,142.12128 480.20032,142.41111 480.10762,142.59648 479.74549,143.32074 479.22625,143.73747 478.86412,144.46174 478.67875,144.83248 479.15722,145.41214 478.86412,145.70524 478.71757,145.85179 478.38892,145.55869 478.24237,145.70524 477.82768,146.11993 478.65706,146.53406 478.24237,146.94874 477.41337,147.77775 477.62062,145.91249 477.62062,147.5705 477.62062,149.02861 477.76716,147.2774 476.99886,148.814 476.90616,148.99937 477.14541,149.2892 476.99886,149.43575 476.85232,149.5823 476.52366,149.2892 476.37711,149.43575 476.08402,149.72885 476.67021,150.38616 476.37711,150.67926 476.23056,150.8258 475.90191,150.53271 475.75536,150.67926 475.46226,150.97235 476.04846,151.62966 475.75536,151.92276 475.60881,152.06931 475.28016,151.77621 475.13361,151.92276 474.84051,152.21586 475.4267,152.87317 475.13361,153.16626 474.98706,153.31281 474.6584,153.01972 474.51186,153.16626 474.36531,153.31281 474.30461,153.78802 474.51186,153.78802 476.54969,153.78802 473.09577,153.16626 475.13361,153.16626"
       inkscape:connector-curvature="0"
       id="path1075"
       style="fill:none;stroke:#0000e9;stroke-width:0.99000001;stroke-miterlimit:4;stroke-opacity:1;stroke-dasharray:none;stroke-dashoffset:0" />
    <path
       d="M 551.60912,364.56198 C 542.49432,370.81758 533.70387,379.99231 523.00852,372.023"
       inkscape:connector-curvature="0"
       id="path1077"
       style="fill:none;stroke:#0000e9;stroke-width:0.99000001;stroke-miterlimit:4;stroke-opacity:1;stroke-dasharray:none;stroke-dashoffset:0" />
    <path
       d="M 552.3908,366.03339 C 583.51675,371.43088 608.34082,386.17104 626.21937,406.21937"
       inkscape:connector-curvature="0"
       id="path1081"
       style="fill:none;stroke:#0000e9;stroke-width:0.99000001;stroke-miterlimit:4;stroke-opacity:1;stroke-dasharray:none;stroke-dashoffset:0" />
    <path
       d="M 596.37527,345.90941 654.81996,380.10578"
       inkscape:connector-curvature="0"
       id="path1083"
       style="fill:none;stroke:#0000e9;stroke-width:0.99000001;stroke-miterlimit:4;stroke-opacity:1;stroke-dasharray:none;stroke-dashoffset:0" />
    <path
       d="M 620.6236,321.03933 671.60727,349.63993"
       inkscape:connector-curvature="0"
       id="path1085"
       style="fill:none;stroke:#0000e9;stroke-width:0.99000001;stroke-miterlimit:4;stroke-opacity:1;stroke-dasharray:none;stroke-dashoffset:0" />
    <path
       d="M 638.03266,288.70822 687.15107,312.3348"
       inkscape:connector-curvature="0"
       id="path1087"
       style="fill:none;stroke:#0000e9;stroke-width:0.99000001;stroke-miterlimit:4;stroke-opacity:1;stroke-dasharray:none;stroke-dashoffset:0" />
    <path
       d="M 644.25018,269.43391 691.50334,278.13844"
       inkscape:connector-curvature="0"
       id="path1089"
       style="fill:none;stroke:#0000e9;stroke-width:0.99000001;stroke-miterlimit:4;stroke-opacity:1;stroke-dasharray:none;stroke-dashoffset:0" />
    <path
       d="M 645.49368,246.42908 697.72086,240.21156"
       inkscape:connector-curvature="0"
       id="path1091"
       style="fill:none;stroke:#0000e9;stroke-width:0.99000001;stroke-miterlimit:4;stroke-opacity:1;stroke-dasharray:none;stroke-dashoffset:0" />
    <path
       d="M 634.9239,204.77169 682.79881,177.4146"
       inkscape:connector-curvature="0"
       id="path1093"
       style="fill:none;stroke:#0000e9;stroke-width:0.99000001;stroke-miterlimit:4;stroke-opacity:1;stroke-dasharray:none;stroke-dashoffset:0" />
    <path
       d="M 608.18856,164.97955 649.84595,132.64845"
       inkscape:connector-curvature="0"
       id="path1095"
       style="fill:none;stroke:#0000e9;stroke-width:0.99000001;stroke-miterlimit:4;stroke-opacity:1;stroke-dasharray:none;stroke-dashoffset:0" />
    <path
       d="M 593.26651,151.92276 628.70638,112.13063"
       inkscape:connector-curvature="0"
       id="path1097"
       style="fill:none;stroke:#0000e9;stroke-width:0.99000001;stroke-miterlimit:4;stroke-opacity:1;stroke-dasharray:none;stroke-dashoffset:0" />
    <path
       d="M 559.07014,128.29618 583.94022,81.664774"
       inkscape:connector-curvature="0"
       id="path1099"
       style="fill:none;stroke:#0000e9;stroke-width:0.99000001;stroke-miterlimit:4;stroke-opacity:1;stroke-dasharray:none;stroke-dashoffset:0" />
    <path
       d="M 508.08647,110.88712 531.0913,59.90345"
       inkscape:connector-curvature="0"
       id="path1101"
       style="fill:none;stroke:#0000e9;stroke-width:0.99000001;stroke-miterlimit:4;stroke-opacity:1;stroke-dasharray:none;stroke-dashoffset:0" />
    <path
       d="M 459.58981,87.882294 473.26835,43.116144"
       inkscape:connector-curvature="0"
       id="path1103"
       style="fill:none;stroke:#0000e9;stroke-width:0.99000001;stroke-miterlimit:4;stroke-opacity:1;stroke-dasharray:none;stroke-dashoffset:0" />
    <path
       d="M 451.50703,86.017038 427.88045,36.276871"
       inkscape:connector-curvature="0"
       id="path1105"
       style="fill:none;stroke:#0000e9;stroke-width:0.99000001;stroke-miterlimit:4;stroke-opacity:1;stroke-dasharray:none;stroke-dashoffset:0" />
    <path
       d="M 441.55899,85.395286 C 423.53205,73.679822 404.28175,63.799396 389.33182,47.468408"
       inkscape:connector-curvature="0"
       id="path1107"
       style="fill:none;stroke:#0000e9;stroke-width:0.99000001;stroke-miterlimit:4;stroke-opacity:1;stroke-dasharray:none;stroke-dashoffset:0" />
    <path
       d="M 452.75053,99.073832 C 430.24985,97.309457 401.57598,79.083238 374.40977,64.877467"
       inkscape:connector-curvature="0"
       id="path1109"
       style="fill:none;stroke:#0000e9;stroke-width:0.99000001;stroke-miterlimit:4;stroke-opacity:1;stroke-dasharray:none;stroke-dashoffset:0" />
    <path
       d="M 417.31066,114.61763 457.72455,107.77836"
       inkscape:connector-curvature="0"
       id="path1111"
       style="fill:none;stroke:#0000e9;stroke-width:0.99000001;stroke-miterlimit:4;stroke-opacity:1;stroke-dasharray:none;stroke-dashoffset:0" />
    <path
       d="M 448.39827,130.78319 460.21156,113.99588"
       inkscape:connector-curvature="0"
       id="path1113"
       style="fill:none;stroke:#0000e9;stroke-width:0.99000001;stroke-miterlimit:4;stroke-opacity:1;stroke-dasharray:none;stroke-dashoffset:0" />
    <path
       d="M 536.68707,396.89309 C 564.25807,392.05283 593.40729,384.90593 600.10578,410.57163"
       inkscape:connector-curvature="0"
       id="path1115"
       style="fill:none;stroke:#0000e9;stroke-width:0.99000001;stroke-miterlimit:4;stroke-opacity:1;stroke-dasharray:none;stroke-dashoffset:0" />
    <path
       d="M 572.72984,392.53059 C 582.83427,392.34073 594.32094,396.33736 598.27997,406.50058 600.62075,409.88503 599.59769,412.58228 595.42379,413.24271 584.85872,418.20497 572.0825,417.7573 561.44116,413.30101 553.91294,409.23031 545.41912,405.15569 540.78733,397.69892 541.93463,395.25937 545.93444,396.15996 548.13178,395.23134 556.27839,393.98889 564.45794,392.46553 572.72984,392.5306 z"
       inkscape:connector-curvature="0"
       id="path1117"
       style="fill:#d764c6;stroke:none" />
    <path
       d="M 621.30422,322.21432 C 637.84024,330.85658 654.09943,340.19884 670.34492,349.4354 669.36045,353.82631 666.21103,358.04989 664.30382,362.32851 661.00354,367.90194 658.40014,374.359 653.67419,378.79376 635.07013,368.25031 616.65735,357.22534 598.12453,346.50151 598.76806,343.90425 602.3214,341.80659 604.41429,339.7531 608.50815,337.09015 611.90629,333.82504 614.81469,329.94736 617.16101,327.80571 618.48505,324.53347 620.60475,322.27261 620.83526,322.23821 621.07169,322.15112 621.30422,322.21431 z"
       inkscape:connector-curvature="0"
       id="path1123"
       style="fill:#939f6c;stroke:none" />
    <path
       d="M 663.07819,301.11361 C 670.86305,304.85707 678.6479,308.60054 686.43275,312.344 685.88933,316.48878 682.95272,320.56906 681.59677,324.73293 677.94608,332.54037 675.7278,341.14944 671.21926,348.48334 668.85861,348.81026 666.68691,345.8751 664.39673,345.2194 650.27084,337.06654 635.63977,329.5513 621.98427,320.71823 623.28827,316.26052 626.65005,312.43186 629.34814,308.61349 633.55183,302.91856 634.78142,295.58433 639.10188,290.01922 647.14988,292.89654 655.10609,297.56478 663.07819,301.11361 z"
       inkscape:connector-curvature="0"
       id="path1125"
       style="fill:#ba9676;stroke:none" />
    <path
       d="M 668.01335,274.16454 C 675.84012,276.00538 684.33566,276.12379 691.6205,279.70202 695.61104,282.84148 693.119,288.70705 693.4785,292.96963 693.13458,299.62567 691.13714,306.80336 686.78249,311.70282 671.09754,304.21368 655.42381,296.70108 639.74306,289.20317 640.25575,285.75635 642.2752,282.19414 642.94012,278.52021 644.21506,275.96604 643.54778,271.0015 646.24176,270.15796 653.49896,271.49349 660.75615,272.82901 668.01335,274.16454 z"
       inkscape:connector-curvature="0"
       id="path1127"
       style="fill:#9b7d71;stroke:none" />
    <path
       d="M 697.50771,240.93966 C 697.53723,249.23526 696.763,257.8913 693.48575,265.55716 691.80358,268.81349 686.28601,270.38141 686.86021,274.59199 688.00093,276.114 686.52309,277.5807 684.92953,276.58677 671.90304,273.94642 658.58556,272.08831 645.72742,269.01566 645.90472,262.04534 646.74716,255.00691 646.19374,248.01209 647.3088,245.2103 651.60026,246.69049 653.89645,245.73039 668.22366,243.89298 682.66748,242.53046 696.92482,240.45392 L 697.40246,240.85195 697.50771,240.93965 z"
       inkscape:connector-curvature="0"
       id="path1129"
       style="fill:#c1dfbe;stroke:none" />
    <path
       d="M 681.53646,179.0559 C 685.37493,183.57556 686.96706,189.79789 689.52203,195.13724 693.32213,203.93836 696.30612,213.0951 696.63338,222.75341 696.78186,228.10432 698.2417,233.7884 697.06083,239.01612 692.44948,241.38422 686.71273,240.75414 681.69273,241.85821 670.25101,243.06555 658.76762,245.02742 647.34009,245.71938 645.10906,243.07613 646.00138,238.80137 645.10567,235.59648 643.78112,225.0052 639.63165,215.1464 635.1965,205.51922 639.21176,202.0306 644.82992,199.8686 649.44586,196.87711 660.14222,190.98804 670.60915,184.34085 681.53646,179.0559 z"
       inkscape:connector-curvature="0"
       id="path1131"
       style="fill:#768e99;stroke:none" />
    <path
       d="M 650.40999,133.22111 C 657.34875,140.34012 663.60437,148.26422 669.56773,156.20651 672.02788,161.46843 676.24569,166.26665 678.07796,171.53659 663.17496,180.91159 647.97321,189.91049 632.92322,199.08798 630.02876,196.39029 628.65147,191.76819 626.1025,188.47557 621.09253,180.34055 614.74472,173.11894 608.46116,165.92139 610.60116,162.67831 614.99264,160.65147 617.98152,157.86614 628.57704,149.65268 639.16372,141.42783 649.74938,133.20168 L 650.37086,133.21998 650.40999,133.22098 z"
       inkscape:connector-curvature="0"
       id="path1133"
       style="fill:none;stroke:none" />
    <path
       d="M 630.02818,114.99601 C 636.46655,120.32261 643.02539,125.78322 648.64189,131.91932 646.70295,135.22184 642.49515,137.17859 639.72363,139.94381 629.22032,148.2142 618.81749,156.6592 607.93655,164.38644 603.35053,161.9662 599.92901,157.35461 595.90578,154.00715 591.29577,151.50242 597.57197,148.50627 598.98039,145.96368 608.55247,135.26548 618.12454,124.56728 627.69661,113.86908 628.65578,113.4325 629.25153,114.6851 630.02818,114.99601 z"
       inkscape:connector-curvature="0"
       id="path1135"
       style="fill:#ada5be;stroke:none" />
    <path
       d="M 589.26456,87.017162 C 602.14451,93.256067 613.18918,102.44052 624.76272,110.70203 629.66046,112.98752 624.30757,116.03965 622.52415,118.52775 612.84204,129.25975 603.40338,140.26906 593.48082,150.74675 589.37019,148.75912 586.27573,144.61653 582.28928,142.23652 575.13906,137.13179 567.05277,133.57142 559.28445,129.52946 560.1932,125.51492 563.39157,121.72942 565.11338,117.77446 571.04679,106.65807 576.97621,95.539565 582.8916,84.413575 584.98869,84.138316 587.20948,86.398838 589.26456,87.017162 z"
       inkscape:connector-curvature="0"
       id="path1137"
       style="fill:#dad3b7;stroke:none" />
    <path
       d="M 531.18903,62.127649 C 546.89821,67.032125 562.58677,72.656728 577.33469,80.061311 579.87774,81.589099 584.40083,83.193252 580.91071,86.499525 573.38079,100.60347 566.02362,114.81152 558.27411,128.79113 555.28823,128.67425 552.48257,126.00427 549.41414,125.33263 538.32978,121.08083 527.02991,117.38405 515.64523,114.33539 513.69168,113.15309 510.03642,112.95561 509.19455,110.77975 515.79439,94.46544 522.86093,78.254295 530.41184,62.380236 530.56419,62.097173 530.91407,62.079676 531.18903,62.127649 z"
       inkscape:connector-curvature="0"
       id="path1139"
       style="fill:#b478b6;stroke:none" />
    <path
       d="M 475.8531,45.690079 C 489.25927,48.932622 502.68514,52.18848 515.67161,56.883934 520.10096,58.550339 524.92707,59.59693 529.09062,61.758484 525.58131,72.514325 520.16596,82.712467 515.72365,93.166419 513.10847,98.989468 510.4638,104.80447 507.89276,110.64374 502.88225,110.14008 497.80401,107.47501 492.88313,105.81438 485.2286,102.69386 477.4082,99.863713 470.65954,95.076277 467.11739,92.590071 462.69459,91.343169 459.37667,88.668691 464.20869,74.458906 468.51032,59.711438 472.93863,45.223764 473.81742,44.407439 474.90661,45.593948 475.8531,45.690079 z"
       inkscape:connector-curvature="0"
       id="path1141"
       style="fill:#a39ccb;stroke:none" />
    <path
       d="M 433.61281,38.578789 C 446.32658,39.579909 458.92458,42.109785 471.36482,44.81574 473.20234,46.283957 470.2647,49.262606 470.40945,51.167377 466.70881,63.477736 462.93821,75.765456 459.2018,88.066369 456.383,87.803631 451.5779,86.994698 450.71061,83.508701 443.76703,68.786671 436.59502,54.140373 429.82401,39.355979 430.32692,38.048966 432.58839,38.767329 433.61281,38.578789 z"
       inkscape:connector-curvature="0"
       id="path1143"
       style="fill:#abd9cd;stroke:none" />
    <path
       d="M 426.2878,38.073616 C 429.85415,37.79929 429.66343,43.006306 431.52029,45.009105 437.85661,58.281968 444.50274,71.536139 450.40012,84.938179 447.7472,85.29374 444.41852,86.400637 441.81217,85.734799 426.96647,74.764017 409.83149,66.365651 396.21545,53.569831 394.22651,51.28453 390.72866,49.446171 390.03188,46.408979 393.60022,42.775985 399.16742,41.524896 403.94358,40.05545 411.30136,38.778519 418.8157,38.157507 426.2878,38.073616 z"
       inkscape:connector-curvature="0"
       id="path1145"
       style="fill:#a36ed8;stroke:none" />
    <path
       d="M 456.28734,108.83677 C 460.39083,109.1554 459.50158,115.09775 457.35597,117.24986 454.22396,121.46717 451.5572,126.61378 447.90645,130.14058 438.83928,124.67431 429.36872,119.82386 419.37081,116.27837 417.12411,114.89361 421.2713,114.4183 422.24641,114.27711 433.55796,112.38886 444.8666,109.7462 456.28734,108.83677 z"
       inkscape:connector-curvature="0"
       id="path1151"
       style="fill:none;stroke:none" />
    <path
       d="M 459.7264,116.90012 C 463.0838,122.04091 463.76873,130.30717 470.50991,132.42449 474.49982,133.55852 478.67703,132.30928 482.57579,131.93875 483.78528,135.13999 481.04919,138.54102 480.03049,141.53705 477.77623,144.72509 477.27267,148.81392 474.221,151.44622 471.00273,151.56558 469.11753,147.61799 466.72111,145.96703 461.41789,140.51465 455.61819,135.70688 449.70065,131.04498 449.02364,128.68021 452.32302,126.81073 453.12029,124.73031 455.27163,122.18431 456.85289,118.85498 459.49324,116.84183 L 459.7264,116.90013 z"
       inkscape:connector-curvature="0"
       id="path1153"
       style="fill:#d2a09a;stroke:none" />
    <path
       d="M 650.22347,133.2794 C 657.42849,140.43681 663.97691,148.34423 669.74334,156.73761 673.41572,163.53586 678.44669,169.84138 680.8059,177.2295 679.92252,179.69071 676.11258,180.11745 674.21095,181.84858 661.25066,189.37126 648.20829,196.75137 635.20427,204.198 632.77224,201.87405 632.09565,197.61295 629.97767,194.71628 624.44234,184.51353 616.5784,175.83831 609.53757,166.67915 607.66278,164.09009 612.39877,163.08219 613.49609,161.4147 625.47527,151.97473 637.53852,142.6422 649.56286,133.25997 L 650.18434,133.27827 650.22347,133.27927 z"
       inkscape:connector-curvature="0"
       id="path1155"
       style="fill:#dcbf8c;stroke:none" />
    <path
       d="M 457.15794,108.27331 C 459.24041,109.15365 459.1037,112.29701 459.56722,114.12167 455.52563,119.29811 452.55684,125.49266 447.96766,130.15121 446.11381,129.8528 444.80939,127.66522 442.81087,127.10012 435.22775,122.60335 426.92112,119.50713 418.95904,115.88977 418.71407,113.85129 422.78492,114.71632 424.07295,113.89816 435.0712,111.8816 446.14742,110.10526 457.15794,108.27331 z"
       inkscape:connector-curvature="0"
       id="path1157"
       style="fill:#98d8de;stroke:none" />
    <path
       d="M 389.52692,48.193979 C 403.9803,63.250111 422.2349,73.663353 439.78697,84.560677 442.09812,84.980056 442.50797,86.920838 442.08186,88.964376 443.91029,91.221524 447.18285,92.330461 449.13191,94.670577 450.5087,95.299392 452.47152,98.170429 449.69013,98.102568 431.50328,95.644595 415.42932,85.694552 399.20265,77.758719 391.55337,73.513598 383.40954,69.94926 376.27447,64.899091 376.58603,61.902001 379.7888,59.514473 381.31114,56.892159 383.82582,53.968276 386.02249,49.700171 389.52692,48.193979 z"
       inkscape:connector-curvature="0"
       id="path661"
       style="fill:#cce198;stroke:none" />
    <path
       d="M 376.60526,66.821833 C 400.60172,78.248824 423.18493,94.322464 449.7935,99.032927 454.10042,98.528998 456.42859,102.7893 457.00895,106.35175 455.96768,108.6546 452.1085,107.6145 450.12429,108.62596 439.24598,110.86349 427.81799,111.946 417.27229,114.9524 414.36815,115.8076 411.36147,112.84076 408.44758,112.36852 400.89221,108.9648 392.29299,107.53849 385.43334,102.79571 376.3428,94.633057 376.30936,81.268264 375.48883,69.985053 375.71839,69.162349 375.09359,66.718923 376.60526,66.821833 z"
       inkscape:connector-curvature="0"
       id="path663"
       style="fill:#c68582;stroke:none" />
    <path
       d="M 572.05486,371.70303 C 549.1821,374.84314 540.6192,380.36822 566.20718,391.58512"
       inkscape:connector-curvature="0"
       id="path665"
       style="fill:none;stroke:#0000e9;stroke-width:1;stroke-linecap:round;stroke-miterlimit:4;stroke-opacity:1;stroke-dasharray:none;stroke-dashoffset:0" />
    <path
       d="M 572.95813,371.52679 C 577.86666,372.85705 582.54556,375.04884 587.17528,377.16248 600.59315,383.54834 612.81,392.39798 623.11653,403.12615 624.0159,404.26895 625.57739,405.1287 626.01113,406.54704 625.41615,407.67562 623.76425,407.23946 622.69989,407.45342 617.68273,407.74629 612.49314,407.02158 607.67336,408.75381 605.37272,409.36166 603.14288,410.11779 600.92462,410.91086 599.83813,410.40555 599.88979,408.77731 599.33844,407.8189 597.39782,402.16707 593.28946,397.22309 587.75274,394.83707 581.34572,391.80173 574.09145,392.30213 567.18355,392.01557 565.96236,391.6918 565.05598,390.70152 563.81343,390.32406 559.37618,388.16484 554.60538,385.96909 551.43869,382.03798 550.22703,380.70098 550.629,378.60437 552.08194,377.62299 555.87917,374.7521 560.76601,373.93443 565.31134,372.9231 567.83226,372.42428 570.42193,372.13777 572.87041,371.51948 L 572.95811,371.52648 z"
       inkscape:connector-curvature="0"
       id="path3035"
       style="fill:#81728f;stroke:none" />
    <path
       d="M 596.95697,346.41104 C 615.76239,357.45029 634.65091,368.36503 653.40163,379.48693 654.22587,380.55159 652.60075,381.60606 652.19554,382.5131 650.99753,384.29746 650.03092,386.19947 648.59192,387.80525 646.52924,390.68524 644.69927,393.88529 641.58332,395.76681 638.68679,398.05535 636.18552,400.73767 633.6365,403.36005 631.48057,405.04747 628.9355,406.24141 626.29767,406.91251 625.22694,406.76337 626.38817,405.86795 625.67635,405.50176 617.50311,396.65064 608.28359,388.74203 597.88939,382.61936 586.25292,375.52472 573.36311,370.66328 560.13857,367.46266 559.44093,367.09756 557.67231,367.18705 557.98224,366.01536 559.81516,364.93574 562.11043,364.77187 564.04247,363.88787 567.18173,362.4296 570.7375,362.10524 573.79378,360.50198 577.6236,358.41834 580.73381,355.01061 584.91808,353.6256 589.07004,351.63902 592.73773,348.72227 596.65421,346.38788 L 596.8254,346.35988 596.95697,346.41108 z"
       inkscape:connector-curvature="0"
       id="path3037"
       style="fill:#e1d672;stroke:none" />
  </g>
</svg>
