<?xml version="1.0" encoding="UTF-8" standalone="no"?>
<!-- Created with Inkscape (http://www.inkscape.org/) -->

<svg
   xmlns:dc="http://purl.org/dc/elements/1.1/"
   xmlns:cc="http://creativecommons.org/ns#"
   xmlns:rdf="http://www.w3.org/1999/02/22-rdf-syntax-ns#"
   xmlns:svg="http://www.w3.org/2000/svg"
   xmlns="http://www.w3.org/2000/svg"
   xmlns:xlink="http://www.w3.org/1999/xlink"
   xmlns:inkscape="http://www.inkscape.org/namespaces/inkscape"
   version="1.1"
   width="740"
   height="520"
   id="svg2"
   style="display:inline;enable-background:new">
  <defs
     id="defs4">
    <filter
       color-interpolation-filters="sRGB"
       id="filter3050">
      <feBlend
         in2="BackgroundImage"
         mode="lighten"
         id="feBlend3052" />
    </filter>
  </defs>
  <metadata
     id="metadata7">
    <rdf:RDF>
      <cc:Work
         rdf:about="">
        <dc:format>image/svg+xml</dc:format>
        <dc:type
           rdf:resource="http://purl.org/dc/dcmitype/StillImage" />
        <dc:title />
      </cc:Work>
    </rdf:RDF>
  </metadata>
  <g
     id="g1463"
     style="display:none">
    <image
       xlink:href="pngs/coronal-0757.png"
       id="image1465"
       height="520"
       width="740"
       y="0"
       x="0" />
  </g>
  <g
     id="g1471"
     style="display:inline">
    <path
       d="M 560.31365,187.36264 C 562.83016,194.92692 558.33427,183.52449 555.96138,181.14511 550.9169,175.17541 546.68192,169.86463 541.03933,165.60131 536.25179,163.37339 532.61638,160.84616 526.73904,158.76204 519.77091,154.58075 509.145,151.86351 503.11246,150.05751 494.27508,147.8507 484.76213,145.82714 474.94057,147.47219 467.63139,147.20719 462.06302,148.67387 458.34631,152.54452 453.16966,156.71149 445.96717,158.12182 438.40401,155.70411 431.08553,153.61763 421.23825,152.83482 414.20191,150.05751 406.08667,148.79114 398.52194,145.37768 390.57533,143.83999 383.41622,141.94279 380.07197,137.3967 378.76204,130.7832 377.3099,124.42773 375.71454,119.07491 373.78802,112.13063 368.92712,101.37612 371.28297,88.436201 368.81401,76.069012 369.32238,66.712548 365.62289,62.21527 370.05751,61.146962 371.84502,58.182189 372.89599,56.185625 376.27503,54.307689 379.54106,51.250023 381.85895,48.200637 386.22306,46.224912 389.24547,44.126947 393.44827,41.714018 396.79285,40.007391 403.77486,37.32116 410.67725,36.584483 417.93242,35.033375 430.03668,36.237561 441.60893,36.418575 452.75054,39.385639 460.68558,39.968625 467.57719,43.271824 475.13361,44.981408 484.23635,48.426078 494.99524,50.524367 504.35596,53.685937 508.40535,55.028619 513.51642,56.053173 518.65626,57.41645 529.52455,60.65214 542.09247,62.690589 552.23087,67.364483 560.37816,69.118847 565.20891,72.879535 574.03695,74.828479 581.45205,78.672616 585.16342,80.381931 592.023,83.530037 597.75913,86.689581 603.29086,90.048075 608.98737,93.480835 612.41696,96.762172 618.19001,98.687844 623.11061,103.4261 631.92177,109.25486 639.31454,117.65011 647.35894,123.32217 651.35808,127.88763 656.15088,132.68529 659.79398,136.37896 662.31932,140.22064 666.63669,145.3368 670.36377,151.92277 675.01196,157.68442 677.37617,162.87916 680.27346,168.9469 682.70605,172.80362 685.70484,179.67558 687.77282,183.01037 690.31707,187.82172 691.78476,193.43461 692.74684,197.93242 695.20386,207.39212 696.99473,219.01633 696.47735,230.26353 695.54519,242.75591 697.09299,257.43671 693.36859,268.19041 692.04004,271.72772 687.36743,273.07069 686.45755,276.17414 689.021,281.6107 693.66767,283.19211 692.14133,290.7359 692.44498,293.65255 691.0551,300.23313 687.77282,306.11728 685.36276,312.20568 683.07251,316.34738 681.5553,321.66109 679.56684,328.84825 678.77577,335.60966 674.71603,340.9354 672.58513,344.65339 669.91412,349.26431 669.12026,353.37044 667.29798,357.57564 665.32409,361.38339 663.97138,364.97 660.93131,371.09282 658.97955,378.44254 655.44172,385.0798 653.96823,388.85128 650.71459,391.99772 649.2242,395.64958 646.26868,397.55144 645.12394,401.51436 642.38492,404.97586 640.30442,408.35426 638.51768,409.88086 636.1674,411.81514 632.39762,415.08873 629.93426,416.76207 628.08462,420.51967 623.78143,424.26154 623.99667,429.38478 616.80856,428.622 602.52677,428.77821 591.31511,431.30768 576.77729,429.88593 570.16169,430.64988 566.71781,426.19854 560.9354,424.25018 558.49365,421.59221 551.81332,419.80238 549.12211,416.78915 546.72008,415.01776 544.08285,412.91293 539.79583,410.57163 535.06298,406.91505 531.1236,406.21681 526.11728,401.8671 522.32905,399.93985 517.97083,395.32238 513.06049,393.78433 515.15739,394.90869 511.58361,392.30477 508.30702,390.30469 503.06479,387.32289 497.59484,385.00029 491.16086,383.27037 482.81673,380.25053 475.56748,387.52157 467.85967,383.71001 463.0886,382.09836 459.08363,380.17449 458.18748,374.91711 457.08043,371.03201 459.808,369.66725 463.02357,367.88279 466.21012,364.77103 469.71643,364.13047 474.07633,361.20373 475.93899,360.27318 477.67478,358.77132 480.16973,356.89166 482.54626,354.89369 484.79602,352.1325 488.64819,350.73465 489.97969,349.27812 492.2279,347.34506 494.23838,345.90053 497.05507,343.19089 501.95895,337.69181 504.78986,334.46976 508.27805,331.90327 511.20694,326.48561 512.70347,323.03899 518.4827,316.98007 525.63326,308.98042 528.97034,303.6946 531.70432,300.51601 533.4922,297.32842 536.00466,294.46205 537.43764,288.92753 541.84406,286.11623 543.91828,281.71234 546.72203,277.61863 547.31287,274.68245 548.75437,269.40228 550.5254,262.25029 551.51095,254.53249 549.19402,246.98038 547.60024,239.24885 545.84383,230.77254 540.84076,224.99812 538.94044,221.26266 537.21756,216.52488 533.36679,213.1277 530.04133,210.20621 525.20742,207.61708 522.37566,204.77445 519.06101,203.78121 516.92823,201.42434 514.46205,199.05906 510.26292,197.74549 507.91634,195.11267 502.59163,193.34367 498.62623,191.33249 493.25736,190.76392 489.40228,187.18864 486.42211,184.9513 482.92333,182.30351 479.29044,180.59397 474.94044,178.47879 471.98135,175.40004 466.98038,173.55964 464.80116,171.46922 462.52263,167.39105 461.21782,164.96189 459.34826,161.54483 456.3424,159.87851 455.98925,155.53419 454.20028,155.03867 458.48661,151.66171 456.4289,154.6549"
       inkscape:connector-curvature="0"
       id="path1473"
       style="fill:none;stroke:#e20000;stroke-opacity:1" />
    <path
       d="M 426.63694,86.017038 C 442.04136,80.010454 449.44897,101.07742 465.45641,97.555106 486.61326,102.03421 508.30993,104.97033 528.60429,112.75238 543.99163,119.23122 560.726,124.08852 573.54913,135.29456 583.13163,141.95253 591.25779,150.47965 598.73826,159.43592 613.07379,176.44399 625.44151,195.39518 632.60038,216.5666 636.50978,235.62597 637.79524,255.42899 634.29503,274.66274 631.82623,291.35086 624.15876,308.06942 610.05381,317.93057 602.15694,327.24855 592.57442,335.13353 582.39037,341.85207 576.08912,345.01602 563.65087,358.97006 559.76928,347.89402 567.42871,335.88208 582.98351,334.09899 591.64106,323.01749 603.32989,317.3914 608.63936,305.34056 616.48678,296.52256 622.35288,287.85113 624.51284,281.64744 627.35772,270.53316 624.04142,260.87327 630.38719,250.44669 625.76112,240.74978 622.28083,228.79877 619.54983,216.61188 614.20333,205.2707 606.66607,185.20661 592.84431,167.96616 578.16138,152.64449 568.16015,142.01594 555.16752,135.13911 542.34908,128.5599 528.53797,126.08957 515.98831,118.90244 502.43189,115.1545 488.52613,112.44 471.30876,109.88297 460.30168,121.14367 452.12248,131.35363 434.95125,136.74132 427.62854,122.51443 420.45185,111.25198 423.70209,98.131594 426.58465,86.172018 L 426.63695,86.017038 426.63695,86.017038 z"
       inkscape:connector-curvature="0"
       id="path1475"
       style="opacity:0.6;fill:none;stroke:#e20000;stroke-opacity:1" />
    <path
       d="M 589.64137,156.85313 C 589.72487,156.05392 586.84333,152.91402 585.24492,151.57739 584.12016,148.8069 580.41691,147.06602 579.80257,145.37816 577.48783,144.24436 576.39925,141.94902 573.81414,141.46555 571.75582,139.72423 569.78404,139.20272 567.65911,137.50874 565.45878,136.144 562.32191,134.58132 559.7455,133.11229 557.29055,131.59402 555.02669,130.43278 553.15082,129.15549 550.88217,127.77066 548.21206,126.63906 545.67686,125.19868 542.98734,124.20589 540.39714,122.62964 537.3236,121.68152 533.37022,119.95292 529.50398,118.8421 525.45318,117.72471 521.31777,116.04759 517.25464,114.82585 513.17609,113.70196 509.93927,113.75186 507.17924,111.85972 503.87759,112.07527 499.36929,110.85573 494.62037,110.35369 490.21288,109.28902 486.29428,109.2892 483.10593,107.86859 479.25375,108.05252 474.72298,108.07102 470.19154,108.02042 465.66144,108.05252 463.14746,108.94121 460.00441,109.15703 457.30819,110.69039 455.03035,111.15295 452.40789,113.04634 449.83422,113.76791 447.17065,115.52227 444.76407,116.74863 442.7999,118.604 440.0999,119.38331 438.31967,122.87636 436.20522,119.92294 434.89585,116.60411 433.82293,114.38346 433.44292,110.69728 433.71962,106.10859 433.28803,99.53848 435.52622,96.832538 438.28961,93.277178 442.36351,95.773952 444.99812,97.061392 447.80983,98.112059 451.22358,99.465186 453.98752,100.16535 457.05875,100.82282 460.93863,101.50911 463.02357,102.77678 467.56408,102.9947 472.11826,103.90561 476.65257,104.09571 478.66814,104.85951 481.62469,105.94591 483.90672,106.73359 486.67104,107.55738 488.87321,108.4048 491.60051,109.37146 491.11279,109.76606 489.49636,109.41156 489.84193,108.49217"
       inkscape:connector-curvature="0"
       id="path1477"
       style="opacity:0.6;fill:none;stroke:#e20000;stroke-opacity:1" />
    <path
       d="M 628.33014,294.02241 686.72751,307.8777"
       inkscape:connector-curvature="0"
       id="path1479"
       style="opacity:0.6;fill:none;stroke:#e20000;stroke-opacity:1" />
    <path
       d="M 606.34788,319.52182 667.8982,354.69343"
       inkscape:connector-curvature="0"
       id="path1481"
       style="fill:none;stroke:#0000e9;stroke-width:0.99000001;stroke-miterlimit:4;stroke-opacity:1;stroke-dasharray:none;stroke-dashoffset:0" />
    <path
       d="M 634.9239,271.29916 C 652.97956,273.48809 668.78317,274.63822 686.52932,276.27318"
       inkscape:connector-curvature="0"
       id="path1483"
       style="fill:none;stroke:#0000e9;stroke-width:0.99000001;stroke-miterlimit:4;stroke-opacity:1;stroke-dasharray:none;stroke-dashoffset:0" />
    <path
       d="M 636.1674,250.15959 C 658.54304,249.6174 674.23357,248.47888 695.8556,246.42908"
       inkscape:connector-curvature="0"
       id="path1485"
       style="fill:none;stroke:#0000e9;stroke-width:0.99000001;stroke-miterlimit:4;stroke-opacity:1;stroke-dasharray:none;stroke-dashoffset:0" />
    <path
       d="M 634.30214,223.42425 C 653.20927,217.26979 673.98765,211.93204 695.23385,205.39344"
       inkscape:connector-curvature="0"
       id="path1487"
       style="fill:none;stroke:#0000e9;stroke-width:0.99000001;stroke-miterlimit:4;stroke-opacity:1;stroke-dasharray:none;stroke-dashoffset:0" />
    <path
       d="M 625.59761,197.93242 C 646.31662,187.52086 664.21629,178.50338 680.93355,166.84481"
       inkscape:connector-curvature="0"
       id="path1489"
       style="fill:none;stroke:#0000e9;stroke-width:0.99000001;stroke-miterlimit:4;stroke-opacity:1;stroke-dasharray:none;stroke-dashoffset:0" />
    <path
       d="M 601.97104,161.24904 651.08945,127.67443"
       inkscape:connector-curvature="0"
       id="path1491"
       style="fill:none;stroke:#0000e9;stroke-width:0.99000001;stroke-miterlimit:4;stroke-opacity:1;stroke-dasharray:none;stroke-dashoffset:0" />
    <path
       d="M 588.91424,145.08349 626.84112,105.29135"
       inkscape:connector-curvature="0"
       id="path1493"
       style="fill:none;stroke:#0000e9;stroke-width:0.99000001;stroke-miterlimit:4;stroke-opacity:1;stroke-dasharray:none;stroke-dashoffset:0" />
    <path
       d="M 566.53117,128.29618 596.37527,84.773534"
       inkscape:connector-curvature="0"
       id="path1495"
       style="fill:none;stroke:#0000e9;stroke-width:0.99000001;stroke-miterlimit:4;stroke-opacity:1;stroke-dasharray:none;stroke-dashoffset:0" />
    <path
       d="M 526.11728,111.50888 C 534.62443,102.15625 538.63973,79.552416 543.52634,63.012211"
       inkscape:connector-curvature="0"
       id="path1497"
       style="fill:none;stroke:#0000e9;stroke-width:0.99000001;stroke-miterlimit:4;stroke-opacity:1;stroke-dasharray:none;stroke-dashoffset:0" />
    <path
       d="M 478.86412,98.45208 494.40792,49.333665"
       inkscape:connector-curvature="0"
       id="path1499"
       style="fill:none;stroke:#0000e9;stroke-width:0.99000001;stroke-miterlimit:4;stroke-opacity:1;stroke-dasharray:none;stroke-dashoffset:0" />
    <path
       d="M 430.98921,84.773534 425.39344,35.033366"
       inkscape:connector-curvature="0"
       id="path1501"
       style="fill:none;stroke:#0000e9;stroke-width:0.99000001;stroke-miterlimit:4;stroke-opacity:1;stroke-dasharray:none;stroke-dashoffset:0" />
    <path
       d="M 425.39344,95.34332 C 406.61598,91.740459 387.98698,71.703035 370.67926,59.281698"
       inkscape:connector-curvature="0"
       id="path1503"
       style="fill:none;stroke:#0000e9;stroke-width:0.99000001;stroke-miterlimit:4;stroke-opacity:1;stroke-dasharray:none;stroke-dashoffset:0" />
    <path
       d="M 371.47246,108.54383 C 388.05251,113.51785 405.46157,114.34685 423.69963,111.03084"
       inkscape:connector-curvature="0"
       id="path1505"
       style="fill:none;stroke:#0000e9;stroke-width:0.99000001;stroke-miterlimit:4;stroke-opacity:1;stroke-dasharray:none;stroke-dashoffset:0" />
    <path
       d="M 428.5022,124.56567 393.06233,144.46174"
       inkscape:connector-curvature="0"
       id="path1507"
       style="fill:none;stroke:#0000e9;stroke-width:0.99000001;stroke-miterlimit:4;stroke-opacity:1;stroke-dasharray:none;stroke-dashoffset:0" />
    <path
       d="M 432.23271,128.91793 420.41942,151.30101"
       inkscape:connector-curvature="0"
       id="path1509"
       style="fill:none;stroke:#0000e9;stroke-width:0.99000001;stroke-miterlimit:4;stroke-opacity:1;stroke-dasharray:none;stroke-dashoffset:0" />
    <path
       d="M 428.5022,138.86597 C 430.92111,138.72882 428.13523,141.07927 428.5982,141.93624 429.83195,141.99434 428.6943,143.50631 429.75972,144.07331 429.86,144.6438 430.49151,144.36795 430.52038,145.12574 431.07866,145.02684 431.11613,145.81236 431.73414,146.10239 431.82234,146.40189 432.37664,146.368 432.38564,146.991 433.04803,146.79573 432.66228,147.69018 433.48464,147.716 433.1877,148.72261 435.11626,147.61474 434.84021,148.89815 437.17072,148.61396 439.53525,149.29901 441.84533,148.85255 442.86334,147.92545 444.00474,148.39628 445.20632,148.11638 445.27182,146.80012 447.34258,148.40699 447.2922,146.85305 448.52574,146.40639 450.61601,148.01409 451.06522,146.27379 452.05914,146.29639 453.40951,146.64872 453.74566,145.64904 454.94759,145.48811 455.78821,143.97944 457.10271,144.46168 456.92007,142.7329 459.67861,144.91931 459.70189,143.24712 460.48519,142.83338 462.19686,143.9313 462.23337,142.51991 463.20648,142.9996 464.0074,142.3238 464.43216,141.94598 465.20461,142.30864 465.93806,141.77857 466.13378,141.30288 467.26122,141.51198 469.11293,140.97864 469.21073,139.97276 468.36011,139.93466 468.45426,141.27698 469.10101,140.40064 468.68252,138.9987 466.40129,141.25183 466.42899,139.48766"
       inkscape:connector-curvature="0"
       id="path1511"
       style="fill:none;stroke:#0000e9;stroke-width:0.99000001;stroke-miterlimit:4;stroke-opacity:1;stroke-dasharray:none;stroke-dashoffset:0" />
    <path
       d="M 598.24052,429.22419 C 596.37072,401.91205 606.79535,405.89481 623.11061,424.87193"
       inkscape:connector-curvature="0"
       id="path1513"
       style="fill:none;stroke:#0000e9;stroke-width:0.99000001;stroke-miterlimit:4;stroke-opacity:1;stroke-dasharray:none;stroke-dashoffset:0" />
    <path
       d="M 521.14326,398.13659 C 527.9547,381.38161 574.55578,378.32368 598.24052,412.43689"
       inkscape:connector-curvature="0"
       id="path1515"
       style="fill:none;stroke:#0000e9;stroke-width:0.99000001;stroke-miterlimit:4;stroke-opacity:1;stroke-dasharray:none;stroke-dashoffset:0" />
    <path
       d="M 566.53117,387.5668 C 578.20349,384.34675 559.10493,340.99947 501.2472,385.70155"
       inkscape:connector-curvature="0"
       id="path1517"
       style="fill:none;stroke:#0000e9;stroke-width:0.99000001;stroke-miterlimit:4;stroke-opacity:1;stroke-dasharray:none;stroke-dashoffset:0" />
    <path
       d="M 603.21454,408.70638 C 560.46128,371.08927 597.67815,332.98476 648.60244,393.78432"
       inkscape:connector-curvature="0"
       id="path1519"
       style="fill:none;stroke:#0000e9;stroke-width:0.99000001;stroke-miterlimit:4;stroke-opacity:1;stroke-dasharray:none;stroke-dashoffset:0" />
    <path
       d="M 578.34446,343.42241 C 578.62434,352.29488 579.37313,360.37725 584.56198,370.7795"
       inkscape:connector-curvature="0"
       id="path1521"
       style="fill:none;stroke:#0000e9;stroke-width:0.99000001;stroke-miterlimit:4;stroke-opacity:1;stroke-dasharray:none;stroke-dashoffset:0" />
    <path
       d="M 456.48105,95.965079 462.07682,41.872648"
       inkscape:connector-curvature="0"
       id="path1523"
       style="fill:#e1ada0;fill-opacity:1;stroke:#0000e9;stroke-width:1;stroke-miterlimit:4;stroke-opacity:1;stroke-dasharray:none;stroke-dashoffset:0" />
    <path
       d="M 549.7832,386.5268 C 566.0953,386.98436 582.08958,394.38326 592.80067,406.69488 594.44912,409.43038 599.27766,411.24657 598.70766,414.70876 597.19245,419.26169 598.61196,424.41639 597.1918,428.92252 593.47078,430.66254 588.77964,429.28445 584.718,429.66918 579.00745,429.15259 572.75714,430.81256 567.80221,427.16977 558.59569,422.67564 550.02309,417.06743 541.60328,411.29973 535.03956,407.0288 527.94637,403.27728 521.90151,398.37895 522.70308,394.91941 526.42937,392.64473 529.09052,390.66534 535.3503,387.22411 542.7441,386.42101 549.7832,386.5268 z"
       inkscape:connector-curvature="0"
       id="path1525"
       style="fill:#d764c6;stroke:none" />
    <path
       d="M 549.68605,366.51415 C 557.95587,366.31949 566.41261,372.07363 568.96037,379.94011 570.01131,383.14693 568.07982,387.64932 564.84442,388.16769 555.55587,385.55456 545.39763,385.11998 535.98808,387.2457 529.98643,388.78779 524.60806,392.2074 520.89116,397.23259 516.14025,395.38931 511.77634,391.6812 507.01832,389.38297 504.35229,388.00023 498.93516,386.03829 504.3692,383.97467 515.14844,376.24722 526.97799,368.91237 540.24319,366.66959 543.38378,366.47329 546.54061,366.48524 549.68605,366.51415 z"
       inkscape:connector-curvature="0"
       id="path1527"
       style="fill:#6d7c6d;stroke:none" />
    <path
       d="M 601.34977,362.47277 C 616.45027,363.60796 628.82488,374.10657 639.24274,384.25847 642.32616,387.9469 646.89163,390.84977 648.66121,395.38677 644.35974,401.18793 640.31832,407.46896 634.93803,412.52289 631.09049,416.2063 627.65238,420.18534 624.2963,424.29824 619.78819,421.60904 616.52778,416.84647 612.24986,413.70902 609.79454,411.39509 606.62271,409.96256 603.54533,408.81273 594.71567,400.11894 585.19236,389.52446 585.00934,376.38447 584.78228,368.71209 591.53597,362.01168 599.25135,362.47277 599.9506,362.46227 600.65083,362.43027 601.34977,362.47277 z"
       inkscape:connector-curvature="0"
       id="path1529"
       style="fill:#81728f;stroke:none" />
    <path
       d="M 637.52797,337.75812 C 647.40244,343.64299 657.84383,348.95401 667.35264,355.22547 663.35878,366.1561 658.80616,377.00268 653.6653,387.46508 652.5272,389.47005 651.36999,391.50724 649.84643,393.23006 645.5214,390.4347 642.21622,385.76037 638.2496,382.32234 628.22366,372.58058 615.94702,362.97841 601.5052,361.65672 594.99923,360.96414 589.02124,364.4993 585.14535,369.52577 583.06401,368.75951 582.82687,364.87531 581.76458,362.80307 579.98625,356.98992 578.69596,350.72719 578.81125,344.69454 589.21662,337.77524 599.21436,330.31418 607.60615,321.08739 615.87485,324.82784 623.81923,330.20743 631.96301,334.5792 633.818,335.63884 635.67298,336.69848 637.52797,337.75812 z"
       inkscape:connector-curvature="0"
       id="path1531"
       style="fill:#939f6c;stroke:none" />
    <path
       d="M 629.44519,294.81837 C 648.22442,298.98356 666.95187,303.43435 685.6166,308.08889 686.38711,310.66791 683.73771,313.53293 683.20456,316.17162 679.71538,325.19559 678.69146,335.2235 673.00506,343.3582 670.83007,346.4945 670.2805,350.67278 667.97439,353.59337 664.37618,353.15351 661.38467,349.95763 658.02015,348.57227 641.76016,339.22638 625.32462,330.08928 609.25768,320.46564 610.88016,316.79529 615.30489,314.61107 617.76791,311.43081 622.75003,306.7574 625.68959,300.32136 629.36747,294.79894 L 629.44517,294.81834 z"
       inkscape:connector-curvature="0"
       id="path1533"
       style="fill:#ba9676;stroke:none" />
    <path
       d="M 651.42024,128.2471 C 660.66948,137.4236 667.84266,148.43014 674.87973,159.29682 676.10702,162.05908 678.52009,164.82389 678.93277,167.76721 662.3586,179.30674 642.81613,188.52543 626.02555,197.37816 621.96736,193.77239 620.23451,187.97549 616.90776,183.64249 612.62606,176.24608 606.60356,169.80185 602.36011,162.4046 602.53775,160.09261 606.31449,159.53925 607.67591,157.86429 621.99951,147.91798 636.40377,138.08845 650.75963,128.18881 L 651.37897,128.24351 651.42024,128.24751 z"
       inkscape:connector-curvature="0"
       id="path1543"
       style="fill:#dcbf8c;stroke:none" />
    <path
       d="M 626.72502,106.91323 C 634.21324,112.03812 640.69523,118.75934 647.68973,124.57487 648.89041,125.63628 651.22204,127.66792 648.5252,128.67455 633.0451,139.77723 617.22261,150.39195 601.56349,161.23882 598.55352,159.82558 596.75162,155.97657 594.18019,153.7195 592.14425,150.8817 588.89508,148.50128 587.49635,145.40357 591.18527,143.65058 593.88816,139.63171 597.13351,136.81562 606.91775,126.9521 616.22617,116.58929 626.27814,106.95209 L 626.56958,106.89379 626.72502,106.91319 z"
       inkscape:connector-curvature="0"
       id="path1545"
       style="fill:#ada5be;stroke:none" />
    <path
       d="M 596.31746,87.056022 C 604.29512,90.30159 611.2256,95.812477 618.44287,100.40927 620.71889,102.31564 624.14255,103.79513 625.28722,106.44691 612.704,119.20847 600.71802,132.77616 587.84609,145.26756 584.73007,145.43658 582.91944,141.47457 580.2903,140.21069 576.03533,136.26454 570.33628,133.47498 566.97853,128.75227 567.75227,125.61209 570.99476,123.23302 572.44517,120.28726 580.26939,109.30281 587.44924,97.699589 595.67628,87.094881 595.88001,87.033641 596.10881,87.009941 596.31746,87.056021 z"
       inkscape:connector-curvature="0"
       id="path1547"
       style="fill:#dad3b7;stroke:none" />
    <path
       d="M 544.73147,64.886674 C 561.53313,71.203892 579.20971,76.20985 594.43277,85.909666 593.21646,89.693035 589.78972,93.025017 587.76103,96.627591 580.52341,107.21071 573.48776,117.94687 565.85161,128.2471 561.77126,127.53763 558.12148,124.3285 554.08945,122.9664 545.32788,118.78158 535.87677,115.78815 527.24469,111.53751 528.43719,108.03489 531.38019,105.04844 532.45186,101.33689 537.21858,89.68656 539.53029,77.123076 543.50739,65.23641 543.79806,64.879978 544.30014,64.770189 544.73147,64.886674 z"
       inkscape:connector-curvature="0"
       id="path1549"
       style="fill:#b478b6;stroke:none" />
    <path
       d="M 495.28275,51.596723 C 510.68255,55.689082 526.20112,59.587054 541.50613,64.031765 543.37272,66.486149 540.77423,69.993848 540.56609,72.727949 536.95307,84.693754 534.53112,97.351141 528.0996,108.17616 526.98497,109.91037 525.27049,112.05727 523.03827,110.43579 508.9412,105.7999 494.08855,103.15261 479.62237,99.78251 477.73563,98.366113 480.74178,95.895558 480.55277,94.08513 485.1772,80.047723 489.32663,65.613163 494.19468,51.713302 494.50869,51.460207 494.92476,51.573415 495.28275,51.596723 z"
       inkscape:connector-curvature="0"
       id="path1551"
       style="fill:#a39ccb;stroke:none" />
    <path
       d="M 466.72101,42.853335 C 475.40847,45.752438 484.32957,48.148892 493.04832,50.800103 492.78265,55.389573 490.25,60.205386 489.13021,64.86276 485.51338,76.267699 481.93063,87.79153 478.45658,99.180187 475.74674,100.33392 472.49757,98.03147 469.61604,98.092121 465.59618,96.912978 461.05598,98.063281 457.16157,96.673749 456.70802,91.378487 458.1533,85.680451 458.39857,80.254667 459.77752,67.550948 460.79432,54.785456 462.52418,42.134434 463.63902,41.139229 465.43866,42.797138 466.72101,42.853335 z"
       inkscape:connector-curvature="0"
       id="path1553"
       style="fill:#abd9cd;stroke:none" />
    <path
       d="M 430.50395,36.363797 C 440.81,37.712298 451.33365,38.837365 461.3584,41.473822 460.96046,53.137191 459.2287,64.981266 458.23021,76.699964 457.23942,83.002651 457.50793,89.675584 455.7432,95.779981 453.43333,96.480551 451.14023,93.357434 449.02051,92.535212 443.90221,89.111953 438.50781,84.996002 432.2332,84.685592 429.87344,80.584592 430.63301,75.240567 429.67622,70.668719 428.39669,59.302737 427.24355,47.865874 425.78252,36.558095 426.77552,35.234114 429.05638,36.604355 430.50395,36.363797 z"
       inkscape:connector-curvature="0"
       id="path1555"
       style="fill:#a36ed8;stroke:none" />
    <path
       d="M 421.25539,35.644896 C 425.85109,34.622829 425.75814,38.77758 425.89753,42.08053 427.28436,56.028441 429.33143,69.991346 430.36794,83.927832 429.24223,85.690964 425.87626,85.060324 425.95739,87.891501 424.96055,89.814378 425.64227,94.908751 422.20745,94.050733 406.94602,89.136675 395.04452,77.654903 382.49894,68.126979 379.12655,64.941261 374.29837,62.499949 371.84553,58.844021 380.29875,50.633266 389.87301,42.943857 401.06788,38.967384 407.6712,37.303905 414.43983,35.769408 421.25539,35.644896 z"
       inkscape:connector-curvature="0"
       id="path1557"
       style="fill:#cce198;stroke:none" />
    <path
       d="M 428.81356,125.23549 C 432.60083,127.51725 431.44404,130.76702 429.16861,133.84425 425.75135,139.36055 423.82444,145.98023 419.64272,150.92162 415.98207,150.92172 412.19431,148.91917 408.47141,148.35501 404.31114,146.93242 399.36251,146.56979 395.74412,144.21835 401.15947,139.74645 407.98613,136.82888 414.01907,133.10945 418.96623,130.64212 423.7482,127.01842 428.81356,125.23549 z"
       inkscape:connector-curvature="0"
       id="path1563"
       style="fill:#98d8de;stroke:none" />
    <path
       d="M 468.29434,139.48772 C 469.12334,139.07322 471.19585,139.07322 470.78135,138.24422 470.36685,137.41522 467.63896,140.14311 468.29434,139.48772 469.14886,138.63321 470.45944,138.37739 471.4031,137.62247 471.56494,137.493 471.25655,137.14726 471.4031,137.00072 471.4537,136.95012 476.4613,137.00072 476.99887,137.00072 477.74568,137.00072 479.45386,137.3276 480.10763,137.00072 480.36978,136.86964 480.46723,136.51004 480.72938,136.37896 481.21581,136.13575 484.03721,136.23807 484.45989,136.37896 484.73795,136.47166 484.80359,136.90803 485.08165,137.00072 485.47488,137.13179 485.92302,136.90019 486.32515,137.00072 486.77474,137.11311 487.12901,137.47592 487.56865,137.62247 487.91511,137.73795 496.3771,137.79508 496.89494,137.62247 497.17299,137.52977 497.25453,137.13179 497.51669,137.00072 498.00194,136.75809 499.51844,136.62159 500.0037,136.37896 500.26585,136.24789 500.38158,135.91979 500.62545,135.75721 501.03995,135.54996 501.45445,135.34271 501.86895,135.13546 502.0762,135.13546 502.30533,135.22816 502.4907,135.13546 502.75286,135.00438 502.86858,134.67629 503.11246,134.51371 503.42557,133.14389 504.39152,134.18505 504.97771,133.89196 507.82323,132.4692 502.33936,134.14965 506.84297,132.64845 507.03958,132.58295 507.27935,132.74115 507.46472,132.64845 510.31024,131.22569 504.82637,132.90615 509.32998,131.40495 509.52659,131.33945 509.76636,131.49765 509.95173,131.40495 510.94653,130.90755 511.44393,129.41534 512.43874,128.91794 512.62411,128.82524 512.87512,129.01064 513.06049,128.91794 513.44415,128.72611 515.97742,126.19284 516.16925,125.80918 516.26195,125.62381 516.07655,125.3728 516.16925,125.18743 516.4314,124.66312 517.1506,124.46823 517.41275,123.94392 517.50545,123.75855 517.26621,123.46872 517.41275,123.32217 517.5593,123.17562 517.88796,123.46872 518.03451,123.32217 518.18105,123.17562 517.94181,122.88579 518.03451,122.70042 518.16558,122.43826 518.52518,122.34082 518.65626,122.07867 518.74896,121.8933 518.50971,121.60346 518.65626,121.45691 518.80281,121.31037 519.13146,121.60346 519.27801,121.45691 519.57111,121.16382 518.98491,120.50651 519.27801,120.21341 519.42456,120.06686 519.75321,120.35996 519.89976,120.21341 520.04631,120.06686 519.75321,119.73821 519.89976,119.59166 520.04631,119.44511 520.52151,119.79891 520.52151,119.59166 520.52151,119.38441 520.04631,119.44511 519.89976,119.59166 519.75321,119.73821 520.04631,120.06686 519.89976,120.21341 519.75321,120.35996 519.48526,120.21341 519.27801,120.21341"
       inkscape:connector-curvature="0"
       id="path1565"
       style="fill:none;stroke:#0000e9;stroke-width:1;stroke-miterlimit:4;stroke-opacity:1;stroke-dasharray:none;stroke-dashoffset:0" />
    <path
       d="M 486.88909,113.53877 C 497.22438,113.57467 507.28166,116.86672 516.73319,120.68892 518.36604,123.30301 515.06403,126.2026 513.39128,128.01394 510.48717,130.57845 506.61491,132.40102 503.21009,133.64857 498.77556,138.06546 491.98738,136.94564 486.3062,136.62132 481.03338,136.84275 475.35591,135.70491 470.31551,137.39851 469.22525,138.8171 467.26625,139.21116 465.94382,140.0021 464.14546,142.80109 459.71797,142.28823 456.9867,143.81033 451.54918,146.20576 445.60171,147.30299 439.8108,148.4929 434.66128,148.86784 428.63629,145.03321 429.26045,139.34149 427.32805,135.86081 431.28159,132.45163 432.62179,129.45174 435.15443,129.84554 437.56707,131.56126 440.33541,131.18099 448.44011,131.85317 455.30088,126.82714 460.65893,121.33011 466.56283,115.47363 474.83396,113.01375 483.02257,113.48049 484.31219,113.47249 485.60067,113.47449 486.88909,113.53879 z"
       inkscape:connector-curvature="0"
       id="path1567"
       style="fill:#e1ada0;stroke:none" />
    <path
       d="M 371.82529,60.379614 C 385.09913,70.228653 397.03916,82.013045 411.44824,90.120088 415.31245,92.26889 419.43649,93.959531 423.66695,95.237062 424.88498,96.786681 423.3382,98.936431 423.55802,100.7148 423.12542,104.11065 423.42248,107.6449 422.83997,110.97047 406.31553,113.93189 389.03018,113.4614 372.90037,108.67558 371.55212,105.85571 371.41758,102.48874 370.98796,99.392665 370.30236,91.403003 370.0864,83.375342 369.03421,75.420417 369.15633,71.440889 368.11362,67.528076 368.15554,63.573846 368.37647,61.891753 370.4224,60.612829 371.82529,60.379614 z"
       inkscape:connector-curvature="0"
       id="path885"
       style="fill:#6d70b9;stroke:none" />
    <path
       d="M 374.50265,109.61628 C 390.12146,113.66305 406.62347,114.09605 422.51951,111.38396 424.17273,112.21423 423.81316,114.67165 424.61145,116.16263 425.44881,118.87239 426.91631,121.33044 427.98795,123.9438 427.42972,125.37277 425.3301,125.6605 424.21121,126.64319 413.90298,132.59464 403.48734,138.35732 393.12017,144.20495 387.44377,143.35795 381.5879,139.79326 379.98143,133.93999 377.55053,126.10481 375.7337,118.02965 373.39656,110.19517 373.40556,109.62245 374.07027,109.53217 374.50265,109.61628 z"
       inkscape:connector-curvature="0"
       id="path3038"
       style="fill:#c68582;stroke:none" />
    <path
       d="M 679.29698,168.44727 C 680.77723,169.36564 681.26517,171.35405 682.2135,172.76724 686.08066,180.19226 690.38544,187.5216 692.11484,195.80774 692.84254,198.92652 693.69734,202.04608 694.20854,205.21451 693.57902,206.23612 691.93978,206.04232 690.90467,206.58358 672.2511,212.11719 653.46904,217.27437 634.92045,223.07915 633.52645,223.19028 633.75644,221.12223 633.41191,220.24381 632.19686,213.47521 629.20039,207.1819 626.34176,200.95124 625.87507,199.87598 624.32864,198.10631 626.31216,197.6962 644.15869,188.73461 662.03668,179.73656 678.62448,168.63732 678.82956,168.52604 679.04999,168.37997 679.29697,168.44727 z"
       inkscape:connector-curvature="0"
       id="path5954"
       style="fill:#9970bd;stroke:none" />
    <path
       d="M 694.14275,206.13552 C 695.00605,207.30096 694.77088,209.02535 695.1653,210.40026 697.14556,222.10784 696.0502,234.01112 695.83127,245.80466 695.13255,246.79756 693.49896,246.35441 692.39779,246.64497 673.95265,248.31879 655.46304,249.57481 636.94521,250.03691 635.88752,249.41202 636.68179,247.70216 636.4043,246.61603 636.13435,239.17602 635.1527,231.78769 634.25146,224.40976 634.15806,223.04413 636.08066,223.22182 636.94485,222.7245 655.30555,217.00409 673.86539,211.88234 692.32267,206.45714 692.92293,206.37154 693.52851,206.00324 694.14275,206.13552 z"
       inkscape:connector-curvature="0"
       id="path5970"
       style="fill:#768e99;stroke:none" />
    <path
       d="M 695.84589,246.87186 C 695.9876,250.80857 695.58483,254.83709 695.18803,258.78649 694.61933,262.51156 694.3175,266.50384 692.24226,269.75088 690.39718,271.83859 688.03039,273.37324 686.35804,275.62048 685.03095,276.50729 683.29074,275.59688 681.81947,275.72699 666.3673,274.35453 650.89452,273.10621 635.49791,271.20549 634.52173,270.45564 635.49866,268.95259 635.41751,267.90155 636.17139,262.12772 636.22526,256.256 636.60623,250.48313 637.67209,249.90354 639.22935,250.35024 640.4901,250.1457 658.41969,249.65416 676.30918,248.30684 694.17161,246.73425 694.72666,246.74505 695.34797,246.55191 695.84589,246.87186 z"
       inkscape:connector-curvature="0"
       id="path5982"
       style="fill:#c1dfbe;stroke:none" />
    <path
       d="M 635.60025,271.54904 C 651.23544,273.22788 666.89725,274.64888 682.55694,276.07898 683.89159,276.37235 685.49398,276.10428 686.66504,276.86311 688.30434,280.04701 691.3611,282.55569 692.08145,286.16822 692.71936,293.43312 690.73538,300.81636 687.07438,307.05903 686.26762,308.24215 684.62567,306.92821 683.48286,306.93866 665.55287,302.7306 647.52866,298.48846 629.67948,294.20146 628.70372,293.54872 630.00727,292.20495 630.08097,291.33752 632.49683,285.0856 633.81123,278.49356 634.92776,271.88528 635.09539,271.64532 635.29634,271.48395 635.60025,271.54904 z"
       inkscape:connector-curvature="0"
       id="path5994"
       style="fill:#9b7d71;stroke:none" />
  </g>
</svg>
