<?xml version="1.0" encoding="UTF-8" standalone="no"?>
<!-- Created with Inkscape (http://www.inkscape.org/) -->

<svg
   xmlns:dc="http://purl.org/dc/elements/1.1/"
   xmlns:cc="http://creativecommons.org/ns#"
   xmlns:rdf="http://www.w3.org/1999/02/22-rdf-syntax-ns#"
   xmlns:svg="http://www.w3.org/2000/svg"
   xmlns="http://www.w3.org/2000/svg"
   xmlns:xlink="http://www.w3.org/1999/xlink"
   xmlns:inkscape="http://www.inkscape.org/namespaces/inkscape"
   version="1.1"
   width="740"
   height="520"
   id="svg2"
   style="display:inline;enable-background:new">
  <defs
     id="defs4">
    <filter
       color-interpolation-filters="sRGB"
       id="filter3050">
      <feBlend
         in2="BackgroundImage"
         mode="lighten"
         id="feBlend3052" />
    </filter>
  </defs>
  <metadata
     id="metadata7">
    <rdf:RDF>
      <cc:Work
         rdf:about="">
        <dc:format>image/svg+xml</dc:format>
        <dc:type
           rdf:resource="http://purl.org/dc/dcmitype/StillImage" />
        <dc:title />
      </cc:Work>
    </rdf:RDF>
  </metadata>
  <g
     id="g2149"
     style="display:none">
    <image
       xlink:href="pngs/coronal-0701.png"
       id="image2151"
       height="520"
       width="740"
       y="0"
       x="0" />
  </g>
  <g
     id="g2157"
     style="display:inline">
    <path
       d="M 611.29732,217.20674 C 603.38129,202.81593 596.17831,187.90333 587.65052,173.97114 572.55205,154.06558 553.50591,136.91358 532.57163,123.28384 504.60227,107.49781 472.83553,97.964201 440.53023,98.962051 424.79713,88.187004 408.61165,97.787607 400.51954,110.99535 388.94292,122.04892 364.05052,125.76054 369.35178,102.28663 371.51936,86.702652 366.02173,68.659501 375.03153,54.929441 390.48395,36.202134 416.63838,37.044014 438.49243,39.637474 472.12097,41.429089 503.75958,53.490482 535.58951,63.373471 564.72968,74.197132 593.48421,86.535289 618.37692,105.48098 635.04703,116.82853 647.47288,133.39397 660.32485,148.65563 672.62774,163.56731 681.5775,181.02186 685.505,200.02116 692.81082,224.78851 695.42519,251.14046 693.2017,276.85587 690.61781,294.45259 684.13496,311.19383 673.47253,325.3916 658.31417,352.6383 652.04579,383.61951 637.41091,411.19339 627.54172,425.99139 617.27863,442.73104 602.16349,447.78357 584.82793,457.37613 567.01067,444.45879 550.79151,438.85277 529.55469,428.55088 508.73848,417.38275 487.56865,406.84112 469.07921,397.2183 480.96086,370.53893 494.4302,362.21737 509.99592,350.12952 526.19378,339.16955 539.68229,324.58431 555.10375,312.88774 563.99776,295.49079 578.2229,282.94417 581.95188,279.99807 585.54167,276.86026 588.76208,273.35909"
       inkscape:connector-curvature="0"
       id="path2988"
       style="fill:none;stroke:#e20000;stroke-opacity:1" />
    <path
       d="M 608.98575,211.80877 C 611.39769,214.83186 611.44426,218.02176 613.82185,220.60167 615.083,222.84121 616.58746,224.8955 617.77866,227.19635 619.84942,231.75493 619.63858,236.09549 621.29582,240.3857 621.971,246.55265 623.55217,252.2651 623.93369,258.8508 623.64391,265.06032 624.3495,270.0842 625.29903,275.75486 625.39013,283.44337 624.1982,289.66359 623.0544,295.78099 622.45935,302.36875 619.8868,306.99716 619.53724,313.80644 619.08994,319.74472 617.21744,326.25156 616.02008,331.83189 613.58304,337.02937 616.20399,345.633 614.2615,350.73663 607.92698,352.65654 610.7331,342.38808 610.74433,337.98692 612.13548,333.73322 612.37933,327.71359 613.78591,322.56665 615.44679,317.92525 615.97141,312.57791 617.33901,307.21176 619.99083,301.69753 619.52517,294.00475 619.53724,286.98809 620.1314,278.90113 618.49083,270.25502 618.65795,261.92831 618.32969,256.47903 615.38788,252.98576 615.14079,247.42002 613.69176,241.92578 612.47398,238.16881 609.86504,233.35138 608.11809,228.0153 606.74794,226.09743 604.41762,222.23797 602.65101,218.13338 599.43829,212.30616 597.55498,207.41232 595.82258,204.34841 592.62731,199.38683 590.08101,195.98154 588.60185,192.20813 588.32142,188.83897 585.21282,185.44717 579.13395,178.62511 573.76368,171.21466 566.64614,165.22104 563.14548,161.24275 561.85979,158.44235 557.54727,154.6549 549.43835,147.74656 540.0119,140.90976 531.16857,134.43123 525.01353,129.90387 516.4661,126.20824 511.38454,123.00045 505.4851,120.8414 500.0321,117.36647 493.79873,116.40578 488.30937,113.73415 481.28455,113.69936 475.77328,111.56968 472.03273,110.36877 468.089,108.25359 463.31743,107.60601 455.41643,108.64131 447.23199,108.16672 439.9422,110.25075 435.28706,111.51106 430.306,112.27372 426.09338,114.6472 423.62032,116.7269 421.69517,118.1285 419.05906,119.48329 417.58187,121.50549 415.90504,122.76404 413.78332,124.75904 412.46654,126.96955 411.36198,128.77359 409.38687,130.03478 406.24805,131.58808 401.01424,135.13856 397.0768,137.0691 394.63073,140.38004 391.39815,141.63241 387.40461,143.66378 383.34914,145.99907 378.13879,147.21109 374.21526,148.93952 370.54054,150.12405 369.21892,149.20534 370.25845,149.37916"
       inkscape:connector-curvature="0"
       id="path2160"
       style="opacity:0.6;fill:none;stroke:#e20000;stroke-opacity:1" />
    <path
       d="M 411.71489,99.695586 373.78802,54.307681"
       inkscape:connector-curvature="0"
       id="path2162"
       style="opacity:0.6;fill:none;stroke:#e20000;stroke-opacity:1" />
    <path
       d="M 425.39344,94.099815 427.2587,36.276871"
       inkscape:connector-curvature="0"
       id="path2164"
       style="opacity:0.6;fill:none;stroke:#e20000;stroke-opacity:1" />
    <path
       d="M 460.21156,99.073836 463.32032,41.87264"
       inkscape:connector-curvature="0"
       id="path2166"
       style="opacity:0.6;fill:none;stroke:#e20000;stroke-opacity:1" />
    <path
       d="M 504.9777,112.13063 524.25202,61.146954"
       inkscape:connector-curvature="0"
       id="path2168"
       style="opacity:0.6;fill:none;stroke:#e20000;stroke-opacity:1" />
    <path
       d="M 480.10762,102.18259 495.65143,51.820673"
       inkscape:connector-curvature="0"
       id="path2170"
       style="fill:none;stroke:#0000e9;stroke-width:0.99000001;stroke-miterlimit:4;stroke-opacity:1;stroke-dasharray:none;stroke-dashoffset:0" />
    <path
       d="M 598.24052,191.71489 659.17223,145.08349"
       inkscape:connector-curvature="0"
       id="path2172"
       style="fill:none;stroke:#0000e9;stroke-width:0.99000001;stroke-miterlimit:4;stroke-opacity:1;stroke-dasharray:none;stroke-dashoffset:0" />
    <path
       d="M 586.42723,171.19708 640.51967,125.18742"
       inkscape:connector-curvature="0"
       id="path2174"
       style="fill:none;stroke:#0000e9;stroke-width:0.99000001;stroke-miterlimit:4;stroke-opacity:1;stroke-dasharray:none;stroke-dashoffset:0" />
    <path
       d="M 620.00185,236.48105 690.88158,214.71972"
       inkscape:connector-curvature="0"
       id="path3777"
       style="fill:none;stroke:#0000e9;stroke-width:0.99000001;stroke-miterlimit:4;stroke-opacity:1;stroke-dasharray:none;stroke-dashoffset:0" />
    <path
       d="M 623.11061,294.30399 690.88158,292.43873"
       inkscape:connector-curvature="0"
       id="path3779"
       style="fill:none;stroke:#0000e9;stroke-width:0.99000001;stroke-miterlimit:4;stroke-opacity:1;stroke-dasharray:none;stroke-dashoffset:0" />
    <path
       d="M 624.35411,260.72938 694.6121,251.4031"
       inkscape:connector-curvature="0"
       id="path2178"
       style="fill:none;stroke:#0000e9;stroke-width:0.99000001;stroke-miterlimit:4;stroke-opacity:1;stroke-dasharray:none;stroke-dashoffset:0" />
    <path
       d="M 619.38009,314.20006 672.22902,328.50035"
       inkscape:connector-curvature="0"
       id="path2180"
       style="fill:none;stroke:#0000e9;stroke-width:0.99000001;stroke-miterlimit:4;stroke-opacity:1;stroke-dasharray:none;stroke-dashoffset:0" />
    <path
       d="M 578.96621,449.12026 C 595.03574,390.744 588.19298,401.48687 616.89309,438.55048"
       inkscape:connector-curvature="0"
       id="path2182"
       style="fill:none;stroke:#0000e9;stroke-width:0.99000001;stroke-miterlimit:4;stroke-opacity:1;stroke-dasharray:none;stroke-dashoffset:0" />
    <path
       d="M 633.68039,317.93057 C 628.3481,347.29818 628.64416,373.6225 596.37527,409.32813"
       inkscape:connector-curvature="0"
       id="path2184"
       style="fill:none;stroke:#0000e9;stroke-width:0.99000001;stroke-miterlimit:4;stroke-opacity:1;stroke-dasharray:none;stroke-dashoffset:0" />
    <path
       d="M 523.00852,398.13659 C 544.35534,410.85064 565.70216,406.88127 587.04898,419.27616"
       inkscape:connector-curvature="0"
       id="path2186"
       style="fill:none;stroke:#0000e9;stroke-width:0.99000001;stroke-miterlimit:4;stroke-opacity:1;stroke-dasharray:none;stroke-dashoffset:0" />
    <path
       d="M 552.85262,409.32813 537.93057,431.7112"
       inkscape:connector-curvature="0"
       id="path2188"
       style="fill:none;stroke:#0000e9;stroke-width:0.99000001;stroke-miterlimit:4;stroke-opacity:1;stroke-dasharray:none;stroke-dashoffset:0" />
    <path
       d="M 523.00852,398.13659 511.81698,416.78915"
       inkscape:connector-curvature="0"
       id="path2190"
       style="fill:none;stroke:#0000e9;stroke-width:0.99000001;stroke-miterlimit:4;stroke-opacity:1;stroke-dasharray:none;stroke-dashoffset:0" />
    <path
       d="M 526.72442,400.55757 C 534.78496,404.72065 543.81943,406.38694 552.41056,408.87351 547.94142,416.5033 542.58525,423.89119 537.72166,431.39259 534.74656,431.34669 531.85137,428.59027 528.95154,427.54954 523.38782,423.96078 516.61027,422.25469 511.62751,417.83062 513.75379,413.60421 516.96414,409.4796 519.26636,405.17694 521.13362,403.43098 521.95808,397.27526 525.29711,399.83045 525.77288,400.07282 526.24865,400.3152 526.72442,400.55757 z"
       inkscape:connector-curvature="0"
       id="path2192"
       style="fill:#d764c6;stroke:none" />
    <path
       d="M 555.09186,409.14552 C 565.57081,411.47426 576.56203,413.71375 585.82973,419.17127 587.58771,421.57736 584.48528,424.82665 584.49701,427.49719 582.36249,434.47431 581.02832,441.90014 578.36871,448.60735 575.37193,449.90311 572.09804,446.88519 569.14654,446.25523 564.03905,444.04735 559.16476,441.3474 553.92608,439.66966 548.74995,437.79009 543.51442,435.68891 538.82916,432.67495 539.13595,429.42798 542.29961,426.64802 543.71977,423.66398 547.32296,418.96476 549.79324,413.05009 554.39239,409.24267 554.61883,409.19727 554.86013,409.08516 555.09186,409.14557 z"
       inkscape:connector-curvature="0"
       id="path3778"
       style="fill:#9eae8b;stroke:none" />
    <path
       d="M 593.69878,408.50434 C 598.85488,412.24644 601.67652,418.5656 605.58754,423.52942 608.74541,428.60845 613.20937,433.16646 615.8487,438.40673 613.83776,440.72637 610.62007,442.49202 607.57162,442.62299 605.71633,443.89298 605.45564,446.85638 602.73362,447.09183 597.31087,448.34929 592.38183,452.5668 586.50977,450.88063 584.43398,450.15543 580.83478,451.33968 579.57335,449.34568 582.46604,437.05826 585.68949,424.7034 589.83226,412.79832 590.74315,411.22426 591.64604,408.67324 593.69878,408.50434 z"
       inkscape:connector-curvature="0"
       id="path2195"
       style="fill:#a0a0a0;stroke:none" />
    <path
       d="M 593.38791,408.9318 C 597.83504,410.81405 599.66883,416.09544 602.87167,419.47087 607.06308,425.64792 612.25667,431.371 615.51839,438.05699 614.23887,442.28731 608.15526,441.56668 605.78409,444.99342 601.01555,448.3656 595.19497,450.44429 589.48252,451.48295 586.26348,451.011 582.63843,451.14067 579.70936,449.81199 581.50564,438.79496 584.8946,427.90258 588.27788,417.24773 589.62093,414.67948 589.85597,409.42904 593.38791,408.9318 z"
       inkscape:connector-curvature="0"
       id="path2197"
       style="fill:#bc94c3;stroke:none" />
    <path
       d="M 634.96758,318.99147 C 646.82605,322.02393 658.90489,324.87104 670.46573,328.68692 669.30099,334.74342 665.46566,340.22731 663.17958,345.99883 656.59285,361.93702 651.94823,378.64747 644.69902,394.30643 641.52441,402.93159 637.21767,411.07049 631.57222,418.30909 627.22331,424.79802 623.93099,432.59059 617.34479,437.20209 614.30196,435.69112 612.82966,431.68525 610.51603,429.17969 606.16665,422.83819 601.25427,416.6767 597.40986,410.09758 599.13429,405.39217 603.6357,402.1296 606.21154,397.85684 617.44006,382.97695 625.33431,365.74539 628.94667,347.46727 631.10444,338.17179 632.42144,328.70043 634.32639,319.36064 L 634.8119,318.97223 634.81214,318.97204 634.85104,318.97204 634.96762,318.99144 z"
       inkscape:connector-curvature="0"
       id="path2199"
       style="fill:none;stroke:none" />
    <path
       d="M 634.44809,318.72334 C 646.58213,321.6966 658.70684,324.88024 670.70401,328.31192 671.74592,329.23075 670.07863,330.68139 669.92682,331.74127 658.20615,355.56649 651.57045,381.62736 640.00887,405.53037 635.31434,414.77457 629.22746,423.25535 622.88739,431.44505 621.01781,433.57341 619.2496,435.85832 617.00989,437.58485 615.53198,437.26249 615.02848,435.26725 613.96914,434.31094 607.95797,426.24942 602.45184,417.73891 596.48807,409.70189 599.37342,405.84725 602.88902,402.26607 605.73092,398.30761 616.56898,384.24541 624.41971,367.96705 628.10247,350.55421 630.49109,340.14205 631.68976,329.45762 633.7972,318.98564 633.97315,318.78189 634.16383,318.63243 634.44809,318.72334 z"
       inkscape:connector-curvature="0"
       id="path2201"
       style="fill:#d5be93;stroke:none" />
    <path
       d="M 688.66488,292.83984 C 689.81925,293.88929 688.11662,295.7792 687.98274,297.08758 684.3086,308.05736 678.36594,318.10836 671.8622,327.53059 669.62556,328.42922 667.19875,326.41931 664.9143,326.26525 649.97693,322.23675 635.0444,318.18293 620.10772,314.14889 619.45392,310.9467 621.06231,307.44557 621.62386,304.17247 622.55431,301.10794 622.63908,297.64151 623.74846,294.74719 638.08498,293.82707 652.64297,293.82667 667.06448,293.32269 674.26393,293.15178 681.46471,292.90284 688.66488,292.83984 z"
       inkscape:connector-curvature="0"
       id="path2203"
       style="fill:#9b7d71;stroke:none" />
    <path
       d="M 693.61089,251.92537 C 693.56442,262.62648 693.74485,273.58437 691.68744,284.18433 690.92104,286.84538 690.65301,290.02968 689.14574,292.31777 667.69962,292.60683 646.26428,293.82477 624.82017,293.92522 622.71912,293.92822 624.2734,291.63181 624.25687,290.51797 625.86173,281.01007 624.86615,271.35577 624.11948,261.83113 624.84362,260.25335 627.56625,261.08193 629.02018,260.46848 650.38504,257.40504 671.80961,254.76943 693.18498,251.78798 L 693.6034,251.92295 693.6109,251.92495 z"
       inkscape:connector-curvature="0"
       id="path2205"
       style="fill:#c1dfbe;stroke:none" />
    <path
       d="M 688.96714,216.25916 C 690.58056,219.38286 690.39611,223.32702 691.17151,226.77353 692.27011,234.76159 693.27695,242.81266 693.52846,250.86748 691.2334,252.08424 687.8971,251.69401 685.26539,252.36945 665.32416,255.03002 645.40595,258.01162 625.41094,260.18246 623.16094,260.10946 624.43546,257.04821 623.81723,255.73105 623.02451,249.41633 621.92196,242.99275 620.68476,236.86753 626.36563,234.45295 632.66224,233.05558 638.57651,231.03897 655.17442,226.08199 671.62547,220.50686 688.40384,216.23168 688.5913,216.22128 688.78419,216.19228 688.96714,216.25918 z"
       inkscape:connector-curvature="0"
       id="path2207"
       style="fill:#768e99;stroke:none" />
    <path
       d="M 657.93094,146.87767 C 662.28081,150.71645 665.37761,155.92368 668.73298,160.64351 676.75364,172.8204 682.19354,186.56105 685.51906,200.79829 686.56984,205.46104 688.24396,210.09712 688.71984,214.83031 680.36933,217.95478 671.57677,220.23934 663.04969,223.01243 649.02344,227.33174 634.98944,231.62586 620.95953,235.93328 619.46209,234.93078 619.80639,232.1687 619.04983,230.45146 617.23857,224.3768 612.87823,219.34274 610.2844,213.5526 605.95956,207.23434 602.4014,200.19491 599.08719,193.23275 598.12734,190.77761 601.7616,189.92114 602.96974,188.43521 621.10066,174.52647 639.19959,160.56634 657.50503,146.89141 L 657.88972,146.86391 657.93094,146.87761 z"
       inkscape:connector-curvature="0"
       id="path2209"
       style="fill:#9970bd;stroke:none" />
    <path
       d="M 640.71609,126.20061 C 646.51859,132.25365 651.94455,138.83097 656.9967,145.54499 656.61278,147.37298 653.97954,148.09872 652.79184,149.49548 634.75918,163.47882 616.67808,177.40769 598.42772,191.10322 596.76287,190.84838 596.44639,188.23994 595.41148,187.05061 592.80941,181.75083 589.04202,176.92387 586.95573,171.45658 589.86488,168.0252 593.96466,165.33912 597.33086,162.20818 611.57477,150.17579 625.75357,138.0482 640.16653,126.21435 640.28892,126.52544 640.56176,126.05532 640.71609,126.20065 z"
       inkscape:connector-curvature="0"
       id="path2211"
       style="fill:#bf9784;stroke:none" />
    <path
       d="M 524.89708,60.157668 C 551.4276,68.699715 577.30321,79.916597 601.29915,94.188947 613.93124,102.41257 626.61699,110.96006 636.96536,122.02398 637.64602,123.15892 640.6736,124.79721 638.73768,126.13191 621.45378,141.22511 603.85655,155.98199 586.40618,170.89328 584.40263,170.34469 583.23463,167.52711 581.57541,166.0878 567.6239,149.60826 551.2742,135.09307 533.03051,123.46656 524.69356,118.40285 515.60214,114.61504 506.73424,110.64816 506.1155,108.64608 508.06272,106.5075 508.32348,104.4983 513.35078,89.98497 519.36015,75.731659 524.03153,61.146869 523.79703,60.578425 524.28863,59.978989 524.89708,60.157668 z"
       inkscape:connector-curvature="0"
       id="path2213"
       style="fill:#7edfd0;stroke:none" />
    <path
       d="M 497.19943,51.522135 C 506.12444,54.259904 515.02256,57.084463 523.93535,59.861654 524.45574,61.96826 522.34094,64.458418 521.87393,66.714802 516.38451,81.057629 511.16626,95.552761 505.40156,109.76137 501.70293,109.36246 498.1026,107.41675 494.42123,106.52345 489.88317,104.91362 485.02228,104.1829 480.58909,102.3561 481.38414,97.600935 483.47961,92.794936 484.7397,88.015552 488.61567,76.073855 491.75246,63.836002 496.26519,52.140386 496.42618,51.777405 496.75927,51.413991 497.19943,51.522135 z"
       inkscape:connector-curvature="0"
       id="path2215"
       style="fill:#b477bd;stroke:none" />
    <path
       d="M 470.90316,44.570247 C 478.91632,46.536617 487.12659,48.2648 494.90504,51.013796 494.91844,54.21107 493.18364,57.458794 492.52959,60.650899 488.44947,74.359678 484.4902,88.171853 479.88841,101.6829 478.50553,103.21933 476.29069,101.3191 474.54472,101.48271 470.04861,100.40027 465.26132,100.47068 460.86002,99.182414 460.41572,94.174091 461.21369,88.915794 461.26837,83.82584 462.03081,70.398038 462.39173,56.934746 463.6078,43.539829 465.4447,42.593872 468.7052,44.480512 470.90316,44.570247 z"
       inkscape:connector-curvature="0"
       id="path2217"
       style="fill:#cd8d77;stroke:none" />
    <path
       d="M 431.29388,39.157116 C 441.57113,40.254733 452.13925,40.475602 462.124,43.1414 463.61298,44.292416 462.2139,46.821903 462.60678,48.429406 461.90301,65.286263 460.89151,82.128316 460.00821,98.97633 458.33647,99.929208 455.70493,98.688903 453.63389,98.97313 449.01063,98.471649 444.12035,99.582127 439.66088,98.08328 435.50102,95.473142 430.58699,94.395251 425.83954,93.728045 425.92954,76.398175 426.7274,59.031638 427.36456,41.698794 427.16137,38.17645 428.45053,38.882005 431.29388,39.157095 z"
       inkscape:connector-curvature="0"
       id="path3810"
       style="fill:#b08fc6;stroke:none" />
    <path
       d="M 426.65013,38.621299 C 426.83077,53.331384 425.87769,68.113831 425.47665,82.846225 425.16406,86.397982 425.54225,90.187806 424.75416,93.604416 421.13759,95.053627 417.12765,95.577108 413.73556,97.657395 412.42517,98.495604 410.6163,99.067358 409.91372,97.162864 398.3175,83.325157 386.75793,69.456801 375.19792,55.588853 376.0229,53.381837 378.56364,51.725313 380.36177,50.022483 389.81636,42.050074 402.28266,38.80251 414.4764,38.774667 418.51844,38.763077 422.67319,38.295323 426.65013,38.621299 z"
       inkscape:connector-curvature="0"
       id="path3812"
       style="fill:#cce198;stroke:none" />
    <path
       d="M 375.03305,56.715443 C 378.50729,59.528033 380.95444,63.60902 384.03778,66.897051 392.87088,77.564387 401.84281,88.140205 410.43822,98.990069 409.45668,101.36977 406.57192,102.52391 405.135,104.71919 401.61057,109.28686 397.8075,113.87879 392.34407,116.21866 386.33481,119.11079 378.31038,121.30122 372.46387,116.86439 367.84155,113.24865 369.40543,106.82831 369.45505,101.79281 370.09886,89.745234 369.48455,77.601961 370.99381,65.618257 371.81763,62.609387 372.45482,59.175512 374.48349,56.770399 374.65481,56.702419 374.8519,56.681949 375.03305,56.715439 z"
       inkscape:connector-curvature="0"
       id="path3814"
       style="fill:#6d70b9;stroke:none" />
  </g>
</svg>
