<?xml version="1.0" encoding="UTF-8" standalone="no"?>
<!-- Created with Inkscape (http://www.inkscape.org/) -->

<svg
   xmlns:dc="http://purl.org/dc/elements/1.1/"
   xmlns:cc="http://creativecommons.org/ns#"
   xmlns:rdf="http://www.w3.org/1999/02/22-rdf-syntax-ns#"
   xmlns:svg="http://www.w3.org/2000/svg"
   xmlns="http://www.w3.org/2000/svg"
   xmlns:xlink="http://www.w3.org/1999/xlink"
   xmlns:inkscape="http://www.inkscape.org/namespaces/inkscape"
   version="1.1"
   width="740"
   height="520"
   id="svg2"
   style="display:inline;enable-background:new">
  <defs
     id="defs4">
    <filter
       color-interpolation-filters="sRGB"
       id="filter3050">
      <feBlend
         in2="BackgroundImage"
         mode="lighten"
         id="feBlend3052" />
    </filter>
  </defs>
  <metadata
     id="metadata7">
    <rdf:RDF>
      <cc:Work
         rdf:about="">
        <dc:format>image/svg+xml</dc:format>
        <dc:type
           rdf:resource="http://purl.org/dc/dcmitype/StillImage" />
        <dc:title />
      </cc:Work>
    </rdf:RDF>
  </metadata>
  <g
     id="g1679"
     style="display:none">
    <image
       xlink:href="pngs/coronal-0741.png"
       id="image1681"
       height="520"
       width="740"
       y="0"
       x="0" />
  </g>
  <g
     id="g1687"
     style="display:inline">
    <path
       d="M 428.50221,158.14029 C 419.92958,158.24502 409.11676,160.01631 399.23363,158.19109 394.78903,156.88224 390.30508,154.25582 388.08832,151.30098 383.85996,149.08472 380.98866,144.91463 378.76204,141.9747 373.53188,136.49639 371.18113,131.53745 370.67926,123.94389 368.46402,112.84963 368.16999,100.2683 370.03475,89.096345 370.57545,78.233585 368.49472,66.629935 372.54452,58.038172 374.74486,55.651207 375.93182,51.653372 378.76204,49.955395 381.96907,45.923258 388.64843,43.746786 394.30584,41.872618 404.03279,35.621245 415.61382,35.148542 427.88045,35.655097 437.51045,37.040669 447.19994,38.821173 456.8188,39.945267 466.14491,40.504767 473.50522,43.41392 482.59464,45.60313 492.29447,48.619097 501.12967,52.975522 511.19523,54.929411 520.01806,57.885319 529.58942,58.864513 537.93057,61.768684 541.90484,62.193581 549.76439,66.269893 554.71788,68.607957 559.13536,71.123791 563.18434,72.961042 569.255,76.030647 573.20447,78.309044 581.45481,82.933771 586.42724,84.151759 589.71718,86.6934 596.78398,88.346717 600.44689,92.24661 608.64722,95.438627 615.63811,103.95028 623.11061,107.15659 628.24291,110.75072 633.83156,115.52042 638.03266,117.72637 645.10115,125.01545 653.62448,131.99241 659.79398,139.48769 661.84977,143.70228 665.89792,148.0118 667.87676,151.92274 670.74723,155.14812 673.44056,158.52102 676.58129,161.87077 678.46548,165.1737 681.16236,169.64763 682.17706,173.06231 683.54668,177.80428 686.82831,184.97639 689.63808,190.47137 691.84307,197.76438 692.05019,204.07359 694.6121,211.61094 695.76645,224.29173 698.19313,238.39252 696.47735,250.78132 694.73495,258.83655 697.36347,270.49662 690.88158,273.78614 685.17277,279.11562 696.97496,282.53548 692.74684,291.1952 690.91381,296.97466 689.1638,302.77009 687.15107,308.60426 685.28824,309.3024 684.26149,311.19499 681.5553,316.68704 679.0107,322.08912 675.67347,328.37668 674.09428,335.3396 671.18525,342.03791 669.84794,348.2911 667.03759,354.98845 668.2908,359.44051 663.97698,364.38965 663.0621,368.3224 661.45524,373.69584 658.79389,377.24088 656.46743,381.51176 654.65514,384.61063 653.16821,387.33376 651.63133,391.62359 647.96504,397.46181 645.1541,402.98878 641.51949,408.33011 639.10736,412.16279 635.10438,416.81142 633.60588,419.76088 630.98718,422.58812 630.18017,423.73771 627.45085,426.35556 624.08192,429.65195 620.92531,431.54281 618.2183,433.82953 615.44652,437.1688 608.45077,439.39603 602.23877,438.20037 594.82797,436.04557 586.89091,439.33523 579.96918,437.78633 575.35374,437.08107 571.84184,434.18117 566.77982,431.6313 563.72866,430.60958 562.69671,429.09871 559.30585,426.7952 556.08436,425.12255 551.63316,422.34973 548.50988,420.15335 542.66249,416.68714 535.79422,413.47433 531.16857,410.96798 526.31396,408.19378 520.98049,405.32862 517.66477,402.61669 513.43678,400.1045 507.90329,397.95395 504.35021,396.02005 499.65061,392.40967 494.13813,392.25807 489.40228,389.86501 482.9619,387.1591 476.18732,390.25432 470.05789,389.86501 467.38505,390.69327 465.79087,387.28718 463.26807,385.95536 461.52983,384.58264 459.49626,381.92128 457.30819,378.87389 455.1342,375.63241 457.74929,371.86894 459.50641,369.20169 464.5496,367.42573 467.53585,364.48658 474.0147,363.48631 479.72502,362.87768 484.70363,360.82743 488.08334,357.77092 492.48409,355.66688 493.40396,353.12986 495.99893,349.73211 498.29863,348.2544 501.89627,344.01963 504.35021,341.06441"
       inkscape:connector-curvature="0"
       id="path1689"
       style="fill:none;stroke:#e20000;stroke-opacity:1" />
    <path
       d="M 410.94722,110.25075 C 414.44837,106.20569 413.79553,100.774 415.34367,96.182102 413.62747,91.953038 417.04757,91.599004 419.05906,89.587425 421.74089,88.297421 425.72933,84.426568 430.05019,86.070264 434.94563,87.363135 437.84186,88.680639 441.92061,91.785651 444.49387,93.020716 446.31279,94.575021 448.71043,96.13495 450.98631,97.786875 457.29232,96.784999 461.46486,97.061392 469.09319,96.785392 476.97226,98.09867 483.24725,99.259618 490.07889,100.2263 497.11113,101.11744 503.47092,103.21642 509.57621,105.26736 514.7369,107.7604 521.05673,108.93181 525.15491,110.52938 528.3196,111.83835 532.4875,113.76791 536.28201,115.17272 540.47684,118.38656 543.47863,119.48329 545.85297,121.29147 550.60104,124.00403 553.59047,125.19868 556.65872,126.81885 558.54002,128.01128 561.50408,129.59513 564.69885,131.63684 568.48012,133.81466 570.73663,135.75016 574.98551,138.98747 581.56823,143.64349 586.34403,148.28005 589.87651,154.99094 597.39706,159.2842 601.27037,166.08568 604.48558,169.72339 605.34332,172.71558 608.74433,176.19751 611.36195,182.12163 615.46507,187.65735 617.97688,193.34367 620.78822,197.29107 621.688,204.63226 625.25262,208.73122 627.142,213.60738 629.07126,219.15228 629.64907,223.67916 631.32067,230.3149 633.31171,237.30483 632.72659,244.78212 633.62121,251.82786 633.46954,259.68553 631.8473,266.32473 630.65041,271.83451 630.21669,277.50022 628.76978,283.03125 627.48904,286.35447 626.35059,291.09331 624.81298,294.02238 622.57296,298.68218 620.56811,302.77368 619.09759,307.65138 617.05096,314.02638 616.5189,323.78551 613.04784,328.47127 613.25103,320.4488 616.5857,310.75004 618.65795,305.01351 620.61896,300.43829 621.4632,295.91476 622.17511,290.50522 623.57507,286.27476 625.13612,281.32207 623.49404,275.99693 624.29174,267.49074 623.8012,258.40531 623.93369,249.61822 623.16345,243.22248 622.79456,236.65784 620.87227,230.69267 620.00726,222.26676 616.54067,226.49842 619.09759,233.35135 619.52645,242.48579 619.94748,252.37732 619.09759,261.48864 616.3584,263.14944 619.24639,273.40832 616.89937,271.60048 615.85802,280.13579 614.77484,267.17009 615.58043,263.24722 615.42261,254.47681 617.64577,245.68598 615.14079,237.30816 614.73303,231.198 613.38708,225.84244 611.62362,220.162 610.04142,214.98764 608.19207,210.01858 605.90824,205.21406 604.20977,201.22731 602.9288,199.07421 601.07214,195.10222 600.17467,191.50622 598.56227,189.76042 597.11534,186.30932 594.96816,183.24715 593.90096,180.67014 591.83959,177.95606 590.35778,175.48395 587.79653,171.98851 586.12421,169.16316 583.98389,166.91513 582.65743,163.64008 580.40882,161.24955 578.30557,158.5219 577.06339,156.80948 575.13308,155.09452 572.67755,151.94375 569.82322,150.16191 567.21947,147.62055 564.88094,145.34063 563.31198,144.71778 561.06444,142.78446 557.0839,141.2474 554.33555,138.97257 551.39224,137.50871 548.59838,135.22681 545.87449,133.33325 542.59934,131.79333 539.38237,129.74628 535.69608,128.1591 531.60821,126.07794 527.10041,123.59068 522.27169,122.05506 517.53957,119.92291 514.21367,117.92579 510.32731,117.51577 506.10879,115.08681 501.5032,113.98342 498.23335,112.16035 493.79873,111.13001 488.15715,110.97886 483.95535,108.78614 478.41115,108.93178 471.6116,108.72814 463.16465,108.87648 457.30819,110.69036 455.34666,111.92401 453.48732,113.37277 451.5928,115.08681 448.10359,118.08079 446.93257,120.4883 444.99812,123.87971 441.95295,125.74181 439.22979,129.00166 435.32593,130.03475 432.81756,131.7849 429.44461,132.32119 426.97267,135.31049 423.76396,137.8358 418.26861,137.70202 414.22296,138.82765 408.86463,139.5545 403.76533,136.7402 402.35255,132.23297 401.32468,125.32563 403.48808,121.14914 405.43006,116.40575 406.57802,113.86773 409.67118,113.65394 410.94722,110.25075 z"
       inkscape:connector-curvature="0"
       id="path1691"
       style="opacity:0.6;fill:none;stroke:#e20000;stroke-opacity:1" />
    <path
       d="M 405.1865,116.79377 370.36838,115.86114"
       inkscape:connector-curvature="0"
       id="path1693"
       style="opacity:0.6;fill:none;stroke:#e20000;stroke-opacity:1" />
    <path
       d="M 378.45116,139.79859 405.5949,132.79931"
       inkscape:connector-curvature="0"
       id="path1695"
       style="opacity:0.6;fill:none;stroke:#e20000;stroke-opacity:1" />
    <path
       d="M 561.86802,130.47231 590.46862,86.63879"
       inkscape:connector-curvature="0"
       id="path1697"
       style="opacity:0.6;fill:none;stroke:#e20000;stroke-opacity:1" />
    <path
       d="M 625.59761,294.96993 688.03036,306.84571"
       inkscape:connector-curvature="0"
       id="path1699"
       style="opacity:0.6;fill:none;stroke:#e20000;stroke-opacity:1" />
    <path
       d="M 630.52836,269.40228 C 650.04061,272.25856 669.6478,273.34585 689.44081,275.11767"
       inkscape:connector-curvature="0"
       id="path1701"
       style="fill:none;stroke:#0000e9;stroke-width:0.99000001;stroke-miterlimit:4;stroke-opacity:1;stroke-dasharray:none;stroke-dashoffset:0" />
    <path
       d="M 632.72659,251.81648 696.91478,250.49754"
       inkscape:connector-curvature="0"
       id="path1703"
       style="fill:none;stroke:#0000e9;stroke-width:0.99000001;stroke-miterlimit:4;stroke-opacity:1;stroke-dasharray:none;stroke-dashoffset:0" />
    <path
       d="M 632.28695,232.03244 695.59584,214.88629"
       inkscape:connector-curvature="0"
       id="path1705"
       style="fill:none;stroke:#0000e9;stroke-width:0.99000001;stroke-miterlimit:4;stroke-opacity:1;stroke-dasharray:none;stroke-dashoffset:0" />
    <path
       d="M 625.69227,210.48983 686.36329,182.35255"
       inkscape:connector-curvature="0"
       id="path1707"
       style="fill:none;stroke:#0000e9;stroke-width:0.99000001;stroke-miterlimit:4;stroke-opacity:1;stroke-dasharray:none;stroke-dashoffset:0" />
    <path
       d="M 607.66682,173.99929 659.54494,140.14661"
       inkscape:connector-curvature="0"
       id="path1709"
       style="fill:none;stroke:#0000e9;stroke-width:0.99000001;stroke-miterlimit:4;stroke-opacity:1;stroke-dasharray:none;stroke-dashoffset:0" />
    <path
       d="M 590.9603,152.89632 C 606.30306,139.91968 622.26376,128.80449 635.36446,114.20755"
       inkscape:connector-curvature="0"
       id="path1711"
       style="fill:none;stroke:#0000e9;stroke-width:0.99000001;stroke-miterlimit:4;stroke-opacity:1;stroke-dasharray:none;stroke-dashoffset:0" />
    <path
       d="M 528.97034,110.69039 551.39224,65.846589"
       inkscape:connector-curvature="0"
       id="path1713"
       style="fill:none;stroke:#0000e9;stroke-width:0.99000001;stroke-miterlimit:4;stroke-opacity:1;stroke-dasharray:none;stroke-dashoffset:0" />
    <path
       d="M 494.23838,48.700429 480.60938,97.061392"
       inkscape:connector-curvature="0"
       id="path1715"
       style="fill:none;stroke:#0000e9;stroke-width:0.99000001;stroke-miterlimit:4;stroke-opacity:1;stroke-dasharray:none;stroke-dashoffset:0" />
    <path
       d="M 463.90286,40.786817 463.02357,94.863167"
       inkscape:connector-curvature="0"
       id="path1717"
       style="fill:none;stroke:#0000e9;stroke-width:0.99000001;stroke-miterlimit:4;stroke-opacity:1;stroke-dasharray:none;stroke-dashoffset:0" />
    <path
       d="M 437.08451,87.828845 436.64487,35.95072"
       inkscape:connector-curvature="0"
       id="path1719"
       style="fill:none;stroke:#0000e9;stroke-width:0.99000001;stroke-miterlimit:4;stroke-opacity:1;stroke-dasharray:none;stroke-dashoffset:0" />
    <path
       d="M 422.13658,86.949555 382.56852,46.502203"
       inkscape:connector-curvature="0"
       id="path1721"
       style="fill:none;stroke:#0000e9;stroke-width:0.99000001;stroke-miterlimit:4;stroke-opacity:1;stroke-dasharray:none;stroke-dashoffset:0" />
    <path
       d="M 461.26499,109.8111 C 460.32769,111.53436 462.16014,111.69784 461.28139,110.07503 461.17937,113.31617 461.79507,116.76945 460.49542,119.83834 459.27376,122.66423 459.22999,125.87648 457.6682,128.58595 456.79379,131.27645 455.54676,133.96597 453.59271,136.11279 451.77111,138.0478 449.91444,139.62975 447.67171,141.28783 445.55091,143.69684 442.62641,144.89823 439.86505,146.24639 437.29995,147.74756 434.21297,147.85568 431.8437,149.74411 429.46963,150.46642 427.14361,151.09788 424.73828,151.60452 421.86322,152.03004 418.98036,152.54182 416.24346,153.54574 413.04915,154.39995 410.1194,152.37186 406.96886,152.23685 404.42369,150.96193 401.84288,149.50503 399.91679,147.31873 398.21067,145.27979 397.23387,142.69244 396.58368,140.1508 395.95261,137.64831 398.45221,135.74918 399.18933,133.91143 399.77192,133.66228 399.08917,133.51574 398.83543,133.55194"
       inkscape:connector-curvature="0"
       id="path1723"
       style="fill:none;stroke:#0000e9;stroke-width:0.99000001;stroke-miterlimit:4;stroke-opacity:1;stroke-dasharray:none;stroke-dashoffset:0" />
    <path
       d="M 613.00745,328.15677 C 630.53425,338.4142 645.50063,341.10028 667.24426,353.61447"
       inkscape:connector-curvature="0"
       id="path1725"
       style="fill:none;stroke:#0000e9;stroke-width:0.99000001;stroke-miterlimit:4;stroke-opacity:1;stroke-dasharray:none;stroke-dashoffset:0" />
    <path
       d="M 500.83305,392.50291 C 542.08625,341.51365 605.17196,404.41185 581.28811,437.34672"
       inkscape:connector-curvature="0"
       id="path1727"
       style="fill:none;stroke:#0000e9;stroke-width:0.99000001;stroke-miterlimit:4;stroke-opacity:1;stroke-dasharray:none;stroke-dashoffset:0" />
    <path
       d="M 517.53957,377.11534 C 516.16401,376.66213 515.00191,378.1243 516.94182,377.55498 518.63204,376.33672 513.35914,378.52065 513.04695,376.99169 511.26753,377.45728 510.23709,376.49495 508.74667,376.45587 507.64561,375.99276 506.31953,375.81875 505.66915,374.91711 504.51454,374.81433 504.15617,373.66407 503.73407,374.10508 502.8955,372.45903 502.18438,371.07931 503.00484,368.95857 503.49098,367.9117 503.76779,366.81225 504.57004,366.12421 505.2587,365.85018 505.73143,363.79668 506.28529,364.43289 506.71178,363.07699 507.92804,362.39112 509.18631,362.1674 510.04193,361.0061 511.39212,360.3013 512.92329,359.52953 514.22903,358.88185 514.83713,358.36356 515.78098,357.77095 516.84628,357.31062 518.0606,355.79057 519.29815,355.79255 520.3417,354.85125 522.30018,354.83311 523.6946,354.25379 525.28655,353.62 527.05827,353.29624 528.75922,352.97172 530.99952,352.39819 533.19143,351.79002 535.56502,351.61592 537.62337,351.068 539.69138,350.16659 541.98933,350.3959 543.82478,349.22865 547.12299,350.51792 548.31473,348.97805 550.01143,348.85486 550.6222,348.11643 552.12138,347.6317 553.6182,347.52475 554.68481,346.9046 555.76811,346.31161 557.37027,345.95383 558.21265,345.2005 559.97403,345.05811 562.34409,344.05863 564.49495,344.73049 566.77982,343.70231 568.51805,343.47064 571.13031,342.43327 572.89857,344.11331 573.29126,344.08681 575.08495,344.94598 575.13308,346.34018 576.16123,346.6236 576.54717,348.00163 577.3313,348.75823 577.93482,349.53273 578.50298,350.57185 578.65024,352.05556 579.87089,352.80243 579.72793,355.31504 580.18901,357.11148 580.91721,359.41469 581.08173,361.88411 580.40882,363.92598 579.73529,364.77683 579.47571,366.60504 578.43042,367.0035 577.51632,367.75773 576.34572,368.67197 575.57272,369.20172 574.28349,370.3359 573.7428,370.84611 572.49521,371.61977 571.80655,372.49987 570.5238,372.273 569.87793,373.18709 568.33321,373.56206 568.14797,374.43223 567.00994,374.93141 565.71006,375.50982 564.46916,376.7734 562.80243,377.08677 561.55599,377.65522 560.14329,378.29155 558.24141,378.3672 556.70529,379.15792 559.06468,378.97086 558.42656,381.07214"
       inkscape:connector-curvature="0"
       id="path1729"
       style="fill:none;stroke:#0000e9;stroke-width:0.99000001;stroke-miterlimit:4;stroke-opacity:1;stroke-dasharray:none;stroke-dashoffset:0" />
    <path
       d="M 580.40882,361.72776 611.62362,437.34672"
       inkscape:connector-curvature="0"
       id="path1731"
       style="fill:none;stroke:#0000e9;stroke-width:0.99000001;stroke-miterlimit:4;stroke-opacity:1;stroke-dasharray:none;stroke-dashoffset:0" />
    <path
       d="M 601.51179,416.24375 C 595.09153,410.81665 589.9136,409.53068 587.0035,415.80411"
       inkscape:connector-curvature="0"
       id="path1733"
       style="fill:none;stroke:#0000e9;stroke-width:0.99000001;stroke-miterlimit:4;stroke-opacity:1;stroke-dasharray:none;stroke-dashoffset:0" />
    <path
       d="M 575.57272,347.21947 612.50291,327.87508 C 625.66163,347.49699 595.8391,369.28956 581.72776,364.36563"
       inkscape:connector-curvature="0"
       id="path1735"
       style="fill:none;stroke:#0000e9;stroke-width:0.99000001;stroke-miterlimit:4;stroke-opacity:1;stroke-dasharray:none;stroke-dashoffset:0" />
    <path
       d="M 613.82185,345.02124 644.59701,403.93369"
       inkscape:connector-curvature="0"
       id="path1737"
       style="fill:none;stroke:#0000e9;stroke-width:0.99000001;stroke-miterlimit:4;stroke-opacity:1;stroke-dasharray:none;stroke-dashoffset:0" />
    <path
       d="M 540.3999,373.8916 C 546.50288,374.03704 552.6738,375.98812 557.71093,379.40091 558.15034,379.81764 558.49374,381.33498 559.07108,380.19776 562.12124,380.80833 564.53417,383.38925 567.06712,385.13003 578.58839,394.49916 587.41342,409.00848 585.95813,424.34088 585.42031,428.94548 583.88519,433.71014 580.76482,437.18676 577.80747,437.83538 575.09877,435.34636 572.42034,434.41995 564.21829,430.64276 557.25206,424.89468 549.39284,420.50098 538.70545,414.3922 527.51147,409.02462 517.22236,402.24871 511.79902,399.11533 505.91027,396.6236 500.59828,393.41459 507.79037,384.10291 517.93207,376.29698 529.79346,374.16638 533.31014,373.76307 536.86708,373.89947 540.3999,373.8916 z"
       inkscape:connector-curvature="0"
       id="path1739"
       style="fill:#d764c6;stroke:none" />
    <path
       d="M 580.83351,364.92009 C 582.76827,367.36601 583.43493,370.83561 584.92771,373.60309 590.53494,387.09587 596.46453,400.50339 601.60674,414.16035 601.63634,416.02137 599.35663,414.20235 598.63445,413.78079 595.57651,411.53001 590.5445,410.20097 587.92279,413.77579 587.19756,415.00713 585.76757,414.50254 585.86195,413.04763 582.33685,399.11914 572.83304,387.28289 560.71975,379.92311 559.00475,379.01913 560.93862,377.67967 562.09364,377.62872 567.96953,375.13545 573.4026,371.46983 578.2506,367.40697 579.47333,366.89707 579.47794,364.9563 580.83351,364.92022 z"
       inkscape:connector-curvature="0"
       id="path1741"
       style="fill:#9eae8b;stroke:none" />
    <path
       d="M 614.56072,347.93205 C 624.62829,365.89928 633.95888,384.51282 643.58473,402.81003 643.93711,405.96402 640.02648,408.61561 638.75076,411.56449 632.38925,421.78695 623.51543,430.39088 613.2395,436.57058 610.6401,435.37012 610.34637,431.37041 608.80951,429.10956 599.88558,408.25313 591.14439,387.20081 582.79308,366.17659 585.14072,364.45073 588.74185,365.8033 591.47817,364.64164 601.01569,362.43482 608.07581,355.00877 614.11384,347.93205 614.23744,347.92205 614.41331,347.86735 614.56072,347.93205 z"
       inkscape:connector-curvature="0"
       id="path1743"
       style="fill:#81728f;stroke:none" />
    <path
       d="M 570.14431,343.81294 C 575.33221,344.44316 577.71022,350.30364 579.27629,354.61589 580.782,359.12801 581.25872,365.21009 576.43955,367.9447 571.13,371.93342 565.56919,376.51658 558.91391,377.83444 552.39126,376.84799 546.47187,372.67602 539.62016,373.52103 533.17091,373.25325 526.6688,373.44233 520.71501,376.16348 515.25467,377.37931 508.24892,377.27836 504.06372,373.09358 501.09997,368.72766 506.42483,364.8352 509.44576,362.38779 517.44342,355.5594 527.81528,353.15091 537.89862,351.30925 548.72573,350.34 558.54898,344.78358 569.36712,343.79351 569.62616,343.80051 569.88594,343.77991 570.14431,343.81291 z"
       inkscape:connector-curvature="0"
       id="path1745"
       style="fill:#6d7c6d;stroke:none" />
    <path
       d="M 612.69546,329.06576 C 616.35025,334.47496 615.88216,341.81797 612.69546,347.36859 606.74396,357.46923 595.22405,365.89237 583.02623,364.19475 579.64025,362.77427 581.55007,358.31965 580.17006,355.62623 579.82452,352.49638 577.60993,349.68612 577.41103,346.74684 589.06365,340.84493 600.35454,333.96193 612.38459,328.94918 L 612.69546,329.06576 z"
       inkscape:connector-curvature="0"
       id="path1747"
       style="fill:#88be7f;stroke:none" />
    <path
       d="M 626.16028,295.35514 C 646.03004,299.47477 666.20184,302.58728 685.90677,307.26558 686.45516,309.48836 683.41878,311.09881 683.02879,313.29271 676.02442,326.51942 671.33003,340.86583 667.1182,355.14049 666.35716,358.99662 665.65066,363.5265 662.74651,366.3126 656.52732,363.11355 651.32403,357.85756 645.63026,353.72138 634.60269,344.88117 623.57071,335.37933 616.03738,323.31455 617.9606,313.88312 619.58135,303.89749 624.85849,295.70487 625.22679,295.41304 625.69023,295.27222 626.16028,295.35514 z"
       inkscape:connector-curvature="0"
       id="path1751"
       style="fill:none;stroke:none" />
    <path
       d="M 659.48231,141.18005 C 662.57452,142.81524 663.34354,146.97777 665.83584,149.3794 671.38898,157.21867 678.88351,163.85501 681.8301,173.28946 682.81012,176.28837 684.67652,179.2917 684.77985,182.40998 665.67678,191.78062 646.17687,200.6184 626.84032,209.57278 624.28486,208.65445 623.89106,204.82604 622.48806,202.71408 618.70465,192.90056 613.11129,183.92388 608.1489,174.67694 611.54746,171.16683 616.72117,168.93408 620.77741,165.89128 633.6266,157.69358 646.17861,148.84291 659.28801,141.16062 L 659.40459,141.16062 659.48231,141.18002 z"
       inkscape:connector-curvature="0"
       id="path1761"
       style="fill:none;stroke:none" />
    <path
       d="M 636.43862,117.24259 C 644.27027,124.04289 651.87273,131.40006 658.72455,139.21764 657.52935,141.78237 653.66845,142.81195 651.54301,144.78457 636.9973,154.47596 622.42083,164.13693 607.64373,173.4723 604.8955,172.07299 603.76472,168.1966 601.60108,165.91412 598.68328,161.44599 594.28889,157.99855 591.41989,153.53737 597.15446,149.64503 603.51421,146.26459 608.79008,141.62693 618.04623,134.11208 626.19721,125.3076 634.0099,116.21282 634.95488,115.76462 635.63241,116.97137 636.43862,117.24259 z"
       inkscape:connector-curvature="0"
       id="path1763"
       style="fill:none;stroke:none" />
    <path
       d="M 593.65431,88.233972 C 603.26577,93.601485 612.095,100.41113 621.16684,106.65338 625.358,109.14554 629.17014,112.22932 633.13556,115.06646 631.57073,119.21396 627.25851,122.29478 624.29909,125.74727 614.18948,135.90612 603.84279,146.96931 590.37068,152.37159 582.70524,143.99144 573.48107,137.26636 564.29595,130.61026 562.06241,128.48677 566.14872,126.04608 566.6489,123.9622 574.49371,111.6272 582.54689,99.426196 590.50669,87.165336 591.60708,86.612268 592.62149,87.993666 593.65431,88.233972 z"
       inkscape:connector-curvature="0"
       id="path1765"
       style="fill:none;stroke:none" />
    <path
       d="M 459.78331,110.65591 C 462.52864,111.84886 460.6724,115.97136 460.50221,118.21408 458.40967,126.22697 456.02085,135.27606 448.60517,140.02553 438.85304,147.85191 426.41905,151.48302 414.23997,153.20707 406.96639,152.81177 399.34367,148.84757 397.33608,141.35492 395.48957,138.13224 400.03962,132.18878 403.4176,135.1374 408.39099,140.88181 417.14174,139.01978 423.54682,137.02208 429.00138,134.67714 433.83757,131.01855 439.2072,128.39527 443.72156,126.19108 446.53729,122.09353 449.38839,118.17522 452.32443,115.22901 455.55002,111.44202 459.78331,110.65591 z"
       inkscape:connector-curvature="0"
       id="path1767"
       style="fill:#e1ada0;stroke:none" />
    <path
       d="M 382.72491,116.40711 C 389.90953,116.59487 397.25342,116.55435 404.31136,117.5729 402.39627,122.44505 402.12708,127.70581 401.90208,132.90297 401.10927,134.6381 398.83198,132.62638 397.68582,134.14648 391.10875,136.10773 384.44567,138.52832 377.61488,139.23707 374.29801,136.971 372.75556,132.52983 371.9414,128.68672 371.46404,124.82694 369.75882,120.6611 370.3093,116.89286 374.2759,115.99523 378.62733,116.54798 382.72491,116.40711 z"
       inkscape:connector-curvature="0"
       id="path1769"
       style="fill:#c68582;stroke:none" />
    <path
       d="M 382.88035,47.450921 C 395.67946,60.702087 408.87742,73.593262 421.33183,87.145906 421.0435,89.052986 418.10292,88.930053 417.15443,90.565543 413.45801,92.582774 415.08981,97.010688 414.06426,100.32752 413.25692,106.81295 409.74971,112.75094 404.38908,116.44597 392.83733,116.11756 381.28508,115.66701 369.7264,115.76593 368.61506,111.86655 369.88759,107.05567 369.6704,102.8144 370.5092,89.5432 369.6113,76.122392 371.31964,62.936434 373.1378,56.767203 377.21068,51.417175 382.20031,47.431491 L 382.8218,47.449251 382.8804,47.450951 z"
       inkscape:connector-curvature="0"
       id="path1771"
       style="fill:#6d70b9;stroke:none" />
    <path
       d="M 424.63489,35.967937 C 428.51599,36.204546 432.83355,36.265006 436.31217,37.677755 435.97692,53.977771 437.04524,70.311294 436.75905,86.582443 436.08464,89.044651 433.18422,86.03582 431.6296,86.174418 428.49451,84.937869 425.23668,85.939353 422.16731,86.446435 409.55814,73.360869 396.3841,60.569843 384.24043,47.198334 384.64203,45.037869 388.37235,45.038874 389.97221,43.836987 398.6787,39.847003 407.62745,35.788233 417.4244,36.032597 419.82516,35.910758 422.23221,35.89861 424.63489,35.967937 z"
       inkscape:connector-curvature="0"
       id="path1773"
       style="fill:#cce198;stroke:none" />
    <path
       d="M 439.77066,37.833193 C 447.65644,39.003339 455.50242,40.00514 463.39724,41.077962 464.34566,45.872395 463.18162,51.393703 463.35834,56.466326 462.98823,69.616921 463.00273,82.773604 462.96975,95.928154 459.366,97.018685 454.81652,96.994444 450.96216,96.180741 445.90517,94.408305 441.39907,91.013573 437.16704,87.923096 437.16704,71.284751 437.16704,54.646406 437.16704,38.008061 437.76108,37.026855 438.9129,37.897815 439.77062,37.833193 z"
       inkscape:connector-curvature="0"
       id="path1775"
       style="fill:#a36ed8;stroke:none" />
    <path
       d="M 464.97105,41.408268 C 474.41607,43.814129 484.16666,45.91343 492.96933,50.112797 493.75531,52.328996 491.51343,54.988882 491.34323,57.395012 487.57871,70.885225 483.74093,84.671527 480.57314,98.143146 475.73713,98.048276 470.68915,97.167046 465.74824,96.996791 461.549,96.218702 463.56007,90.564032 463.28066,87.689939 464.06003,72.393391 463.4428,57.035052 464.27158,41.758003 464.35388,41.47664 464.7011,41.333992 464.97105,41.408268 z"
       inkscape:connector-curvature="0"
       id="path1777"
       style="fill:#abd9cd;stroke:none" />
    <path
       d="M 499.07027,51.822615 C 515.47622,56.956836 532.81042,59.686651 548.79101,66.142343 551.79608,67.57472 547.57736,70.879582 547.3638,72.912214 541.11598,85.659938 534.83376,98.405503 528.50635,111.10279 525.61224,111.2041 522.7213,108.82556 519.78239,108.38263 508.25535,104.60579 496.8266,100.5319 484.69225,99.056345 482.74322,98.991665 480.0548,97.80224 481.51006,95.443848 485.55373,80.474542 489.88112,65.583861 494.07682,50.65683 495.51637,49.868112 497.52009,51.653266 499.07027,51.822615 z"
       inkscape:connector-curvature="0"
       id="path1779"
       style="fill:#a39ccb;stroke:none" />
    <path
       d="M 551.31688,67.619004 C 564.27474,73.404959 576.58285,80.635247 589.67121,86.154989 588.98342,89.635071 585.49562,92.766329 583.83314,96.079902 576.5431,106.74965 570.12044,118.20028 562.17811,128.29812 559.88729,129.87774 557.69373,126.23832 555.47484,125.84997 546.68206,121.21582 538.28508,115.84578 529.16696,111.84112 529.80348,107.83206 532.93565,103.991 534.50695,100.04486 539.9212,89.314125 545.2141,78.516223 550.75341,67.852161 550.87564,67.658957 551.11284,67.55328 551.31688,67.619004 z"
       inkscape:connector-curvature="0"
       id="path1781"
       style="fill:#b478b6;stroke:none" />
    <path
       d="M 659.48231,141.18005 C 662.57452,142.81524 663.34354,146.97777 665.83584,149.3794 671.38898,157.21867 678.88351,163.85501 681.8301,173.28946 682.81012,176.28837 684.67652,179.2917 684.77985,182.40998 665.67678,191.78062 646.17687,200.6184 626.84032,209.57278 624.28486,208.65445 623.89106,204.82604 622.48806,202.71408 618.70465,192.90056 613.11129,183.92388 608.1489,174.67694 611.54746,171.16683 616.72117,168.93408 620.77741,165.89128 633.6266,157.69358 646.17861,148.84291 659.28801,141.16062 L 659.40459,141.16062 659.48231,141.18002 z"
       inkscape:connector-curvature="0"
       id="path1783"
       style="fill:#dcbf8c;stroke:none" />
    <path
       d="M 591.07381,86.86433 C 594.67779,88.469474 598.00917,90.513308 601.187,92.78069 609.00357,96.658511 615.22418,103.10735 622.78317,107.38215 626.29528,109.86759 630.08227,112.17697 633.24609,115.04719 633.4781,116.72776 631.43531,117.6839 630.60016,118.92472 618.63217,130.80797 605.0758,140.96916 592.06473,151.68199 591.22754,152.44101 589.67142,153.3833 589.01426,151.92486 585.04815,145.58972 578.55361,141.63749 572.79133,137.07284 569.65873,134.54427 566.08413,132.53594 562.95896,130.02753 563.04306,128.31986 564.77132,126.97723 565.46841,125.41379 573.71627,112.57459 582.10406,99.826038 590.43263,87.039198 590.64838,86.991258 590.80479,86.639254 591.07381,86.86433 z"
       inkscape:connector-curvature="0"
       id="path9024"
       style="fill:#dad3b7;stroke:none" />
    <path
       d="M 634.52846,115.76609 C 639.53214,118.82813 643.34296,123.42493 647.66889,127.33064 651.53093,131.30142 655.81206,134.97003 659.21396,139.33438 658.85713,140.77142 656.82432,141.13779 655.85261,142.15169 639.85828,152.84674 623.71443,163.32835 607.55996,173.78333 606.13439,173.68138 605.7265,171.58284 604.76303,170.66281 601.50688,165.45617 597.60081,160.83944 593.3417,156.49424 592.6761,155.40587 590.88049,154.50444 591.12239,153.1295 604.38947,141.84289 618.46115,131.40705 630.91627,119.2628 632.16526,118.17285 632.93645,116.64977 634.25644,115.68837 L 634.52846,115.76607 z"
       inkscape:connector-curvature="0"
       id="path9026"
       style="fill:#ada5be;stroke:none" />
    <path
       d="M 632.50776,269.93147 C 645.51935,271.4245 658.54783,272.78236 671.60853,273.79097 677.32117,274.34977 683.10686,274.63393 688.78604,275.27465 689.82421,276.39365 688.85125,278.27877 689.96154,279.47147 691.85632,282.63914 694.63909,286.29861 692.96344,290.17727 690.98534,295.43211 689.81024,301.02294 687.47453,306.11938 686.28186,307.02558 684.57982,305.69477 683.22075,305.75981 663.79791,302.02705 644.29696,298.34148 624.8913,294.74326 625.12769,293.06983 626.28266,291.45253 626.66523,289.7285 628.77623,284.02275 630.17669,278.16435 631.00196,272.14646 631.27986,271.29686 631.05176,269.49742 632.50776,269.93147 z"
       inkscape:connector-curvature="0"
       id="path9028"
       style="fill:#9b7d71;stroke:none;display:inline;enable-background:new" />
    <path
       d="M 696.23735,250.78344 C 695.61944,256.09513 695.56669,261.65928 694.80927,267.02672 694.45576,270.41507 692.01711,273.28696 689.13578,274.87634 670.07948,273.36453 650.98292,271.99093 632.03173,269.42629 631.04631,268.47745 632.2061,266.80492 632.13003,265.59838 633.08109,261.13149 633.21,256.49959 633.67258,252.01415 636.76593,251.58334 640.1766,251.93525 643.388,251.73784 660.87271,251.42196 678.35859,251.12578 695.839,250.61829 L 696.12617,250.73736 696.23731,250.78346 z"
       inkscape:connector-curvature="0"
       id="path9030"
       style="fill:#c1dfbe;stroke:none;display:inline;enable-background:new" />
    <path
       d="M 625.46185,294.68389 C 627.91855,295.68341 630.75994,295.83745 633.36529,296.49404 651.1856,300.03816 669.0891,303.2502 686.89164,306.82512 687.87433,307.47134 687.04075,308.8122 686.11682,309.01069 683.76675,311.42828 682.63114,314.73162 681.00704,317.68534 678.11744,323.45341 675.51919,329.39982 673.77736,335.64214 671.61924,341.27837 669.8949,347.09089 667.74052,352.72204 667.00298,353.84894 665.75064,352.44987 664.88977,352.17382 651.07803,344.36088 635.90567,339.28959 621.56415,332.53491 618.91922,331.19811 616.17537,329.8896 613.71321,328.26757 613.65671,327.00395 614.88125,325.81142 615.13339,324.4924 617.49445,317.02303 618.13223,308.98929 621.3904,301.76688 622.53788,299.44879 623.29512,296.82255 624.92094,294.80084 625.06945,294.67842 625.27726,294.64751 625.46185,294.68389 z"
       inkscape:connector-curvature="0"
       id="path5918"
       style="fill:#ba9676;stroke:none" />
    <path
       d="M 614.6802,329.33135 C 618.41141,331.12158 622.05706,333.24254 625.92152,334.83671 638.95232,340.56283 652.45212,345.42358 664.87008,352.48113 666.12665,353.03301 667.53193,353.68405 667.06382,355.33077 667.40806,360.29377 664.03107,364.41474 662.69977,368.96534 659.85667,376.639 654.72069,383.17574 651.75444,390.78307 649.73141,394.69115 647.45903,398.48794 645.08078,402.18603 644.46108,403.20928 643.60941,402.04644 643.4288,401.33423 633.74557,382.89145 624.0379,364.43966 614.49746,345.91681 614.88794,343.69205 615.9042,341.54336 615.70354,339.1993 615.84083,336.66915 615.72514,334.11468 614.64278,331.79206 614.56168,331.07394 613.43335,329.53299 614.68018,329.33135 z"
       inkscape:connector-curvature="0"
       id="path5941"
       style="fill:#d5be93;stroke:none" />
    <path
       d="M 694.72021,215.56489 C 695.34898,217.65838 695.26088,219.99705 695.61166,222.18079 696.54373,229.41882 696.86113,236.71289 696.69626,244.00648 696.50527,246.13527 697.01846,248.47907 696.10172,250.44625 675.39908,250.7472 654.67526,251.34997 633.9629,251.67426 632.91372,251.03821 633.40277,249.33598 633.15984,248.23915 632.92412,243.12694 632.77638,237.99994 632.11357,232.92516 632.25381,231.65325 634.12291,231.98796 634.99605,231.4909 654.75191,226.06951 674.51141,220.64558 694.32549,215.44793 L 694.54976,215.51433 694.72021,215.56483 z"
       inkscape:connector-curvature="0"
       id="path5998"
       style="fill:#768e99;stroke:none" />
    <path
       d="M 685.34932,183.15416 C 686.75504,183.96179 687.01797,185.92172 687.87513,187.20361 691.12426,193.41146 691.47766,200.58148 693.26724,207.26411 693.79291,209.80565 694.91123,212.3285 694.66904,214.92895 684.67694,217.82874 674.54877,220.40879 664.50411,223.18472 653.96383,225.97002 643.48772,229.03372 632.88108,231.54365 631.96912,231.90139 631.27608,231.24064 631.36384,230.27346 629.83303,223.73355 628.60209,217.14491 626.23666,210.8502 626.4836,209.72244 628.17409,209.75368 629.01401,209.0979 647.70031,200.46169 666.35047,191.70437 685.06424,183.15416 685.1581,183.13436 685.25545,183.13436 685.34932,183.15416 z"
       inkscape:connector-curvature="0"
       id="path6002"
       style="fill:#9970bd;stroke:none" />
  </g>
</svg>
