<?xml version="1.0" encoding="UTF-8" standalone="no"?>
<!-- Created with Inkscape (http://www.inkscape.org/) -->

<svg
   xmlns:dc="http://purl.org/dc/elements/1.1/"
   xmlns:cc="http://creativecommons.org/ns#"
   xmlns:rdf="http://www.w3.org/1999/02/22-rdf-syntax-ns#"
   xmlns:svg="http://www.w3.org/2000/svg"
   xmlns="http://www.w3.org/2000/svg"
   xmlns:xlink="http://www.w3.org/1999/xlink"
   xmlns:inkscape="http://www.inkscape.org/namespaces/inkscape"
   version="1.1"
   width="740"
   height="520"
   id="svg2"
   style="display:inline;enable-background:new">
  <defs
     id="defs4">
    <filter
       color-interpolation-filters="sRGB"
       id="filter3050">
      <feBlend
         in2="BackgroundImage"
         mode="lighten"
         id="feBlend3052" />
    </filter>
  </defs>
  <metadata
     id="metadata7">
    <rdf:RDF>
      <cc:Work
         rdf:about="">
        <dc:format>image/svg+xml</dc:format>
        <dc:type
           rdf:resource="http://purl.org/dc/dcmitype/StillImage" />
        <dc:title />
      </cc:Work>
    </rdf:RDF>
  </metadata>
  <g
     id="g1350"
     style="display:none">
    <image
       xlink:href="pngs/coronal-0765.png"
       id="image1352"
       height="520"
       width="740"
       y="0"
       x="0" />
  </g>
  <g
     id="g1358"
     style="display:inline">
    <path
       d="M 462.07682,155.03153 C 461.58166,155.09453 453.02066,155.38516 445.91126,153.78802 441.63035,151.10218 438.13807,150.30871 433.47622,146.94875 428.01501,142.75655 420.60577,142.15311 413.58016,140.10948 406.41664,138.65098 397.6825,138.37193 391.19708,135.13546 388.86714,132.46467 384.50701,131.90617 383.1143,128.91794 379.18253,124.85466 377.67783,123.1459 375.65328,117.7264 371.75259,110.67638 370.41707,102.6731 369.44963,94.268755 368.50002,83.850082 368.31623,71.524611 372.54452,61.768714 373.9878,57.662555 377.31229,55.025411 379.38379,51.820681 382.40092,50.089754 382.87035,47.06449 387.46657,45.60316 389.95938,42.650303 395.91168,40.957318 399.90161,38.763887 407.47143,35.937311 415.3604,33.462966 424.76758,33.738241 436.13739,34.061049 447.36651,35.180943 457.72455,37.520383 466.49803,39.360572 475.20265,43.071306 484.45989,43.737904 492.02981,46.104046 500.05836,46.417673 507.46472,50.577177 514.74158,53.173198 521.83157,56.179522 529.22604,58.038202 534.0938,60.328561 537.17917,61.320701 542.90459,63.012218 546.0026,64.423309 550.62889,66.759302 555.33963,67.986235 559.21243,70.848982 565.88012,72.425033 570.34883,75.5666 573.75277,77.07116 580.73425,79.378455 585.18373,82.286533 591.17902,85.289249 596.25051,88.507397 602.1022,91.892125 603.78581,92.128193 608.35871,95.317341 611.29732,97.208583 614.32729,98.874366 619.83098,102.92387 622.48886,104.04786 627.67575,107.83746 628.66364,108.2069 634.38929,113.49348 640.19649,117.50939 646.32335,125.30327 653.26558,130.47232 657.69048,133.78112 659.26558,138.04527 662.28099,139.48772 665.85626,145.14741 670.31578,151.78794 674.09428,156.27503 675.57335,161.33509 679.62254,166.28723 681.5553,172.44059 684.73569,176.35344 687.47721,184.48164 689.63808,190.4714 691.44,197.87319 694.3492,204.37411 694.6121,212.23272 696.63566,221.5905 695.20868,232.36684 696.55865,242.07682 694.57664,251.2918 697.82046,265.5598 692.12509,271.29917 688.18304,271.66646 683.51592,276.40761 687.77282,279.38194 693.91429,281.56084 694.69246,290.77058 693.99035,298.65626 691.91105,304.98272 689.88489,310.59376 687.15107,316.06532 685.29846,320.44636 683.42339,323.0128 681.5553,326.6351 678.12657,332.28111 675.62506,337.65611 674.09428,342.80066 671.22838,347.1063 669.3775,351.80739 667.87676,356.4792 665.90954,361.27511 663.82181,365.01066 661.65924,370.7795 660.08589,373.98455 657.60642,378.96854 656.06347,382.59279 654.34764,385.56104 654.24545,390.2047 651.7112,391.91907 649.50035,393.85297 647.96798,396.63802 645.49368,398.75834 643.93491,402.01019 641.18248,403.63694 639.89791,406.84112 637.33596,409.61733 635.47395,414.51737 631.81514,416.1674 627.84978,419.17355 624.82205,422.1804 620.00185,423.62843 610.33051,427.3476 599.74511,422.8171 590.15775,425.49368 585.63401,429.72828 577.89557,428.59339 573.37044,425.49368 567.582,423.95269 565.03482,420.77744 560.31365,419.27616 556.6434,416.29156 550.32914,414.65626 546.6351,411.19339 542.28335,408.68996 539.59154,406.00042 535.44356,403.73236 532.09109,400.97888 526.75745,400.02211 523.63027,397.51484 522.0757,396.96218 523.12417,395.79328 523.00852,396.27134 L 524.25203,396.27134"
       inkscape:connector-curvature="0"
       id="path1360"
       style="fill:none;stroke:#e20000;stroke-opacity:1" />
    <path
       d="M 626.13191,300.61708 C 625.92151,299.3012 628.21733,296.1878 629.64907,294.02241 631.03681,290.70159 633.20984,287.99257 634.04553,284.35021 636.0495,280.54213 637.11663,274.97065 638.44198,271.16086 638.49818,264.95444 640.66762,260.25576 640.20056,254.00764 640.48925,245.89448 639.44023,238.21089 639.32127,230.27386 637.76532,225.59437 637.37251,220.67436 634.92482,216.20522 633.78261,211.49592 631.81852,207.98066 630.52836,203.45551 628.79301,199.84192 627.00546,195.28797 625.20549,193.09918 623.19929,190.11671 620.45289,185.55497 618.65795,183.23184 617.34849,179.89582 615.64245,178.40281 614.2615,175.75787 611.56512,173.28943 610.16023,171.64813 608.10646,168.2839 604.39063,165.06032 602.01139,160.92234 598.43427,157.29277 595.52097,154.24235 594.77994,153.18064 592.27924,149.81881 589.56481,146.92896 587.30768,144.41249 583.92598,142.34484 581.04088,139.451 576.90125,137.16225 575.25828,135.3125 571.89938,133.47336 568.36339,131.6187 564.5816,129.15549 561.55598,127.37177 557.15881,125.7508 553.59047,123.87974 549.2964,122.46848 545.05161,120.22855 540.84076,118.604 535.50684,117.42497 531.51523,114.49317 526.33247,113.32826 521.98756,111.2804 516.95958,110.77435 512.70347,108.93181 507.26195,107.43526 502.72871,106.52096 497.31589,105.41465 491.84299,104.20414 486.78143,102.09969 481.48867,101.45784 477.93705,99.620079 472.70677,99.177387 469.61825,97.501038 465.79768,96.203121 461.27756,95.331591 456.86854,93.544231 454.09453,92.962212 451.63681,91.274101 449.83422,89.587425 446.32742,86.762069 444.54114,85.005532 440.60167,84.311684 434.36004,83.692613 429.2001,84.833332 430.91948,87.711451 431.02992,94.660416 432.50786,101.0552 433.56735,107.61288 435.00725,111.14582 436.51933,114.14931 437.9638,118.16436 440.25164,120.92773 440.85328,124.25112 442.7999,126.07797 444.1103,129.10052 448.46833,130.38378 452.47209,130.47442 455.18965,129.31209 457.70677,127.61669 459.94606,126.07797 462.0177,124.68697 464.28818,123.06735 465.26897,121.87667 466.75096,120.29444 468.15814,118.89255 470.05789,117.72471 474.35843,113.80211 480.65662,115.16461 486.32476,113.76791 492.38738,113.82341 497.93573,114.99659 503.47092,116.40578 507.4042,118.08058 511.10057,119.68302 515.78099,120.80223 520.29778,123.53853 525.85908,123.77543 530.72892,126.07797 534.80673,126.87857 538.65288,129.84923 542.59934,130.91407 545.89007,132.80468 548.90767,134.47062 552.71118,135.75016 555.30908,137.37033 557.55777,138.72838 559.7455,139.70697 561.78329,141.32007 565.36265,142.90256 567.21947,144.54307 569.83956,145.71541 572.50142,148.29663 574.69343,149.37916 576.2286,150.8106 577.57726,152.0337 579.08989,153.33597 580.68057,155.66495 583.9461,157.68432 585.68456,160.37029 587.4949,161.51745 588.28787,163.28369 590.08101,164.3271 591.05488,166.02365 593.62715,167.76863 594.91711,169.60284 597.27201,173.10776 600.42228,175.52776 602.39108,178.83539 603.95408,180.49805 606.25161,183.11616 607.66682,185.43006 609.72072,188.63673 611.15731,191.52982 612.50291,193.78332 614.00935,196.9334 615.96522,200.08208 616.89937,203.45551 618.92762,207.19011 619.16903,210.20216 621.73546,213.1277 622.60241,216.06475 624.94233,218.14246 625.25262,221.92061 627.25778,225.315 627.92392,230.38103 628.76978,234.67032 629.84949,241.5914 630.97448,247.77905 630.90179,255.67214 631.67666,259.98474 631.72498,267.25688 630.96799,271.60051 630.89369,277.82765 628.31257,282.03273 627.45083,287.42773 625.79777,289.75311 624.9974,293.20036 623.05438,294.9017 622.18549,297.61997 620.90906,296.42243 619.97686,299.73779 618.03156,302.52245 617.45516,305.3642 615.14077,308.09105 614.45198,310.78243 612.14584,312.01809 611.18396,314.68573 608.84684,317.68497 606.94204,320.23532 604.58928,323.47863 603.47715,325.46116 601.70232,326.19626 599.75319,327.87508 597.15827,328.72802 595.91925,331.05795 593.15851,331.83189 589.93634,333.78043 587.36506,334.26097 584.80525,336.22834 582.47491,337.40853 580.42517,338.76052 578.21058,340.18515 575.52159,342.202 572.76035,343.28261 570.29696,345.46089 567.96925,347.44404 564.67802,349.90416 561.94371,352.05556 557.01038,354.12225 549.29037,364.80388 555.90829,360.72885 558.87676,359.67516 567.41807,352.31843 570.73661,351.17627 574.03329,348.52928 577.93506,346.33899 580.84845,345.02124 583.29952,343.73872 586.24054,341.98086 589.2017,340.18515 592.17773,338.18001 596.24698,336.11108 598.43425,334.46976 600.23802,333.33878 602.80312,331.63416 603.70999,330.07331 605.35103,329.27643 607.41876,327.31305 608.98573,326.1165 610.16601,324.43726 612.20741,322.32494 612.94254,319.96147 614.53741,317.93732 615.51474,317.01112 617.33899,314.24608 618.73396,312.82763 620.06723,309.12923 621.73544,308.09105 622.73987,305.42081 626.60304,303.79592 624.20381,300.61907 L 626.13189,300.61707 626.13189,300.61707 z"
       inkscape:connector-curvature="0"
       id="path1362"
       style="opacity:0.6;fill:none;stroke:#e20000;stroke-opacity:1" />
    <path
       d="M 627.0112,211.36912 C 624.81026,210.63935 625.76884,206.4681 623.49404,203.45551 621.7774,200.64532 620.55167,196.40565 618.2183,193.78332 616.95086,191.09288 614.83321,187.19636 613.3822,184.55077 612.09819,182.37654 609.88705,178.30876 608.10646,175.31822 604.86697,170.34177 600.8097,165.95721 596.67569,161.68923 593.62384,157.48696 587.01013,151.39494 585.24492,148.93952 582.24604,146.48021 579.05145,143.88855 576.01237,142.34484 572.4436,139.98525 569.29331,137.84615 566.34018,136.18981 562.82265,133.7456 559.75563,131.74659 555.34905,130.47442 551.5813,127.80321 548.72689,127.35266 544.35792,125.63833 539.70842,123.59275 536.18129,122.78932 532.04786,120.80223 527.98173,119.31126 523.62487,118.25939 519.73779,116.40578 515.52034,115.05087 511.86619,113.53882 507.86738,112.88862 504.08537,111.44078 500.21624,110.19971 495.99696,109.8111 492.38212,108.46069 486.87778,108.00081 482.36796,107.17323 477.89822,106.3056 473.37622,105.61578 468.73896,104.53536 465.02185,103.30314 461.37885,102.25884 458.62712,100.57855 456.28936,99.54716 453.44758,98.859683 450.71351,97.061392 447.62868,95.961651 442.12467,95.277044 441.48096,98.819973 440.30231,102.25581 442.01031,107.33472 443.21098,110.71098 444.16699,112.72413 444.88528,115.5852 446.7567,116.84542 449.57662,118.09094 453.20899,115.56279 454.8904,114.12485 456.41681,113.12375 457.28207,111.44385 459.94606,111.13004 462.37522,110.22861 465.72854,110.14977 469.18981,110.25075 474.12667,110.11372 478.67127,110.37269 483.18041,110.69703 489.24277,111.16059 494.29267,111.90763 499.95376,112.44897 502.80009,114.13863 510.04891,114.37196 513.14703,113.73049 514.8563,113.56448 511.89507,115.21987 512.26383,113.76789"
       inkscape:connector-curvature="0"
       id="path1364"
       style="opacity:0.6;fill:none;stroke:#e20000;stroke-opacity:1" />
    <path
       d="M 514.02241,108.49217 535.56502,61.010492"
       inkscape:connector-curvature="0"
       id="path1366"
       style="opacity:0.6;fill:none;stroke:#e20000;stroke-opacity:1" />
    <path
       d="M 612.94256,319.52182 671.41536,348.09876"
       inkscape:connector-curvature="0"
       id="path1368"
       style="opacity:0.6;fill:none;stroke:#e20000;stroke-opacity:1" />
    <path
       d="M 461.45506,93.478063 475.75536,41.250887"
       inkscape:connector-curvature="0"
       id="path1370"
       style="fill:none;stroke:#0000e9;stroke-width:0.99000001;stroke-miterlimit:4;stroke-opacity:1;stroke-dasharray:none;stroke-dashoffset:0" />
    <path
       d="M 452.75053,90.369303 440.93724,33.789862"
       inkscape:connector-curvature="0"
       id="path1372"
       style="fill:none;stroke:#0000e9;stroke-width:0.99000001;stroke-miterlimit:4;stroke-opacity:1;stroke-dasharray:none;stroke-dashoffset:0" />
    <path
       d="M 561.55715,127.05268 583.94022,81.043021"
       inkscape:connector-curvature="0"
       id="path1374"
       style="fill:none;stroke:#0000e9;stroke-width:0.99000001;stroke-miterlimit:4;stroke-opacity:1;stroke-dasharray:none;stroke-dashoffset:0" />
    <path
       d="M 587.67074,144.46174 625.59761,106.53486"
       inkscape:connector-curvature="0"
       id="path1376"
       style="fill:none;stroke:#0000e9;stroke-width:0.99000001;stroke-miterlimit:4;stroke-opacity:1;stroke-dasharray:none;stroke-dashoffset:0" />
    <path
       d="M 606.94505,166.22306 656.06347,132.64845"
       inkscape:connector-curvature="0"
       id="path1378"
       style="fill:none;stroke:#0000e9;stroke-width:0.99000001;stroke-miterlimit:4;stroke-opacity:1;stroke-dasharray:none;stroke-dashoffset:0" />
    <path
       d="M 629.94988,201.66293 682.17705,172.44058"
       inkscape:connector-curvature="0"
       id="path1380"
       style="fill:none;stroke:#0000e9;stroke-width:0.99000001;stroke-miterlimit:4;stroke-opacity:1;stroke-dasharray:none;stroke-dashoffset:0" />
    <path
       d="M 638.03266,222.18075 694.6121,202.90643"
       inkscape:connector-curvature="0"
       id="path1382"
       style="fill:none;stroke:#0000e9;stroke-width:0.99000001;stroke-miterlimit:4;stroke-opacity:1;stroke-dasharray:none;stroke-dashoffset:0" />
    <path
       d="M 639.89791,245.80733 695.8556,241.45506"
       inkscape:connector-curvature="0"
       id="path1384"
       style="fill:none;stroke:#0000e9;stroke-width:0.99000001;stroke-miterlimit:4;stroke-opacity:1;stroke-dasharray:none;stroke-dashoffset:0" />
    <path
       d="M 637.4109,270.67741 689.01633,271.92091"
       inkscape:connector-curvature="0"
       id="path1386"
       style="fill:none;stroke:#0000e9;stroke-width:0.99000001;stroke-miterlimit:4;stroke-opacity:1;stroke-dasharray:none;stroke-dashoffset:0" />
    <path
       d="M 629.32813,293.68224 690.88158,304.87378"
       inkscape:connector-curvature="0"
       id="path1388"
       style="fill:none;stroke:#0000e9;stroke-width:0.99000001;stroke-miterlimit:4;stroke-opacity:1;stroke-dasharray:none;stroke-dashoffset:0" />
    <path
       d="M 437.82848,85.395286 C 430.2551,70.058734 411.30039,54.722183 398.03635,39.385631"
       inkscape:connector-curvature="0"
       id="path1390"
       style="fill:none;stroke:#0000e9;stroke-width:0.99000001;stroke-miterlimit:4;stroke-opacity:1;stroke-dasharray:none;stroke-dashoffset:0" />
    <path
       d="M 430.36746,94.721568 C 412.72764,81.991131 391.18256,76.946447 370.67926,69.851484"
       inkscape:connector-curvature="0"
       id="path1392"
       style="fill:none;stroke:#0000e9;stroke-width:0.99000001;stroke-miterlimit:4;stroke-opacity:1;stroke-dasharray:none;stroke-dashoffset:0" />
    <path
       d="M 433.47621,107.15661 C 418.52687,114.17584 393.39297,111.01051 372.54451,112.13063"
       inkscape:connector-curvature="0"
       id="path1394"
       style="fill:none;stroke:#0000e9;stroke-width:0.99000001;stroke-miterlimit:4;stroke-opacity:1;stroke-dasharray:none;stroke-dashoffset:0" />
    <path
       d="M 396.17109,137.00071 439.07199,118.9699"
       inkscape:connector-curvature="0"
       id="path1396"
       style="fill:none;stroke:#0000e9;stroke-width:0.99000001;stroke-miterlimit:4;stroke-opacity:1;stroke-dasharray:none;stroke-dashoffset:0" />
    <path
       d="M 429.12395,144.46174 C 442.49065,133.67635 441.87157,126.51268 440.31549,119.59165"
       inkscape:connector-curvature="0"
       id="path1398"
       style="fill:none;stroke:#0000e9;stroke-width:0.99000001;stroke-miterlimit:4;stroke-opacity:1;stroke-dasharray:none;stroke-dashoffset:0" />
    <path
       d="M 532.3348,402.48885 C 552.88262,361.93443 614.0332,395.30582 603.83629,423.62843"
       inkscape:connector-curvature="0"
       id="path1400"
       style="fill:none;stroke:#0000e9;stroke-width:0.99000001;stroke-miterlimit:4;stroke-opacity:1;stroke-dasharray:none;stroke-dashoffset:0" />
    <path
       d="M 583.94022,373.88826 C 598.83401,344.61616 649.749,387.09785 644.99144,399.41993"
       inkscape:connector-curvature="0"
       id="path1402"
       style="fill:none;stroke:#0000e9;stroke-width:0.99000001;stroke-miterlimit:4;stroke-opacity:1;stroke-dasharray:none;stroke-dashoffset:0" />
    <path
       d="M 603.21454,409.32813 C 612.74807,391.03177 623.60479,406.67101 633.13832,415.12913"
       inkscape:connector-curvature="0"
       id="path1404"
       style="fill:none;stroke:#0000e9;stroke-width:0.99000001;stroke-miterlimit:4;stroke-opacity:1;stroke-dasharray:none;stroke-dashoffset:0" />
    <path
       d="M 583.94022,373.88826 C 583.98022,379.9385 584.83593,388.12768 576.72428,386.0263"
       inkscape:connector-curvature="0"
       id="path1406"
       style="fill:none;stroke:#0000e9;stroke-width:0.99000001;stroke-miterlimit:4;stroke-opacity:1;stroke-dasharray:none;stroke-dashoffset:0" />
    <path
       d="M 584.60181,372.22824 C 582.57581,368.38922 580.41366,365.4466 576.77886,364.77841 565.35024,358.05493 550.35865,359.89302 539.68882,367.25904 531.59513,371.80379 521.66271,373.2201 514.94901,380.06039 511.99055,382.18169 512.20684,387.9848 516.1415,388.85101 520.91742,390.11012 525.82762,388.56594 530.66447,389.00088 535.39506,388.8515 540.1933,388.33612 544.63516,386.60903 546.45113,386.29839 545.11297,388.82766 544.14809,387.56663"
       inkscape:connector-curvature="0"
       id="path1408"
       style="fill:none;stroke:#0000e9;stroke-width:0.99000001;stroke-miterlimit:4;stroke-opacity:1;stroke-dasharray:none;stroke-dashoffset:0" />
    <path
       d="M 582.69672,377.61877 C 583.52572,377.61877 584.35473,377.61877 582.69672,377.61877 z"
       inkscape:connector-curvature="0"
       id="path1410"
       style="fill:none;stroke:#0000e9;stroke-width:0.99000001;stroke-miterlimit:4;stroke-opacity:1;stroke-dasharray:none;stroke-dashoffset:0" />
    <path
       d="M 583.94022,377.61877 C 601.58822,385.0798 612.41823,393.36781 613.49336,400.82884"
       inkscape:connector-curvature="0"
       id="path1412"
       style="fill:none;stroke:#0000e9;stroke-width:0.99000001;stroke-miterlimit:4;stroke-opacity:1;stroke-dasharray:none;stroke-dashoffset:0" />
    <path
       d="M 444.046,128.29618 C 440.32314,130.90378 441.55793,136.03086 442.87861,139.6261 444.6374,145.04162 450.89133,148.73768 456.43459,146.8524 464.76673,145.58376 470.88839,139.33769 477.75889,135.07502 483.13789,132.50338 489.25439,132.28114 495.08225,131.63892 502.3154,131.2431 509.63672,131.04848 516.83046,131.92892 523.23738,133.43174 529.54708,136.92141 536.30484,135.49499 537.71086,136.07762 539.61999,133.18309 540.62282,130.70358"
       inkscape:connector-curvature="0"
       id="path1414"
       style="fill:none;stroke:#0000e9;stroke-width:0.99000001;stroke-miterlimit:4;stroke-opacity:1;stroke-dasharray:none;stroke-dashoffset:0" />
    <path
       d="M 563.62884,384.29238 C 579.42833,384.7352 594.97358,393.94795 602.33291,407.97725 604.66414,412.94693 605.32867,419.18657 603.32383,424.22052 597.74508,424.76905 591.62824,423.72822 586.76968,426.99897 580.97166,429.89732 575.08075,425.60308 569.75657,423.59273 557.21089,417.21842 545.0563,410.088 533.55159,401.99288 534.98734,397.33 539.11711,393.38673 543.07217,390.35446 548.97895,385.87765 556.19756,383.63162 563.62884,384.29238 z"
       inkscape:connector-curvature="0"
       id="path1416"
       style="fill:#d764c6;stroke:none" />
    <path
       d="M 613.72263,401.11854 C 621.36902,402.67326 625.94261,410.0086 631.44257,414.91367 629.20669,418.54711 624.73017,421.13275 620.67848,422.8993 615.71581,424.74837 609.95325,425.43425 604.78495,424.25938 604.13386,420.51937 606.21362,416.48146 604.68785,412.69868 602.50177,408.04768 607.01361,403.87523 610.63335,401.72087 611.58727,401.27229 612.6708,401.05524 613.72268,401.11854 z"
       inkscape:connector-curvature="0"
       id="path1418"
       style="fill:none;stroke:none" />
    <path
       d="M 660.25689,299.59809 C 670.30664,301.54133 680.4881,303.16597 690.4313,305.44644 691.14558,308.33367 688.37957,311.30475 687.57512,314.07325 682.81892,324.00715 677.16338,333.50803 673.04167,343.72305 672.34729,347.57725 669.64195,347.69487 666.918,345.43565 649.40026,336.9105 631.91291,328.32258 614.34438,319.90218 615.08574,316.51016 618.64547,313.65216 620.46009,310.46659 622.84698,307.63707 624.52201,304.25917 626.02167,301.01646 627.98174,298.60371 628.60646,292.72331 633.01479,294.62391 642.09549,296.28197 651.17619,297.94003 660.25689,299.59809 z"
       inkscape:connector-curvature="0"
       id="path1426"
       style="fill:#ba9676;stroke:none" />
    <path
       d="M 695.8522,242.2026 C 695.10037,250.97273 696.42563,260.3257 693.26804,268.66592 692.20319,271.239 689.88711,272.16444 687.16767,271.49584 671.53943,270.99108 655.80576,271.45974 640.24425,270.12315 637.67587,269.17923 640.09187,265.70556 639.5667,263.79043 640.22723,257.99321 639.5896,251.73719 640.82714,246.22456 658.94499,244.2649 677.17264,243.47757 695.30816,241.67799 L 695.75573,242.10957 695.8522,242.20257 z"
       inkscape:connector-curvature="0"
       id="path1430"
       style="fill:#c1dfbe;stroke:none" />
    <path
       d="M 693.15146,204.33401 C 695.10237,215.68431 695.4382,227.40258 695.94935,238.9384 696.64482,242.48043 691.59509,240.79188 689.62823,241.5226 673.39442,242.7799 657.1854,244.46906 640.92429,245.31136 639.46281,240.94312 640.32128,235.56478 639.38934,230.83619 639.65361,228.16765 637.37383,225.17986 638.35956,222.69512 656.36323,216.22094 674.60809,209.99465 692.74344,204.10085 L 693.15146,204.33401 z"
       inkscape:connector-curvature="0"
       id="path1432"
       style="fill:#768e99;stroke:none" />
    <path
       d="M 681.31874,173.57671 C 684.84827,177.14119 686.10905,182.61665 688.02201,187.19697 689.72943,192.34167 691.56976,197.51828 692.68515,202.83792 686.31636,205.91049 678.88621,207.70421 672.11467,210.27649 660.78991,213.9864 649.53385,218.33812 638.1264,221.54877 635.2788,218.23709 634.79297,213.24739 632.94499,209.29387 632.62953,206.37114 628.06863,201.66547 632.83484,200.47558 649.00213,191.55693 665.03384,182.13237 681.31874,173.57671 z"
       inkscape:connector-curvature="0"
       id="path1434"
       style="fill:#9970bd;stroke:none" />
    <path
       d="M 656.00177,133.68743 C 663.06794,140.79134 668.56357,149.28404 674.22688,157.45002 676.05396,162.61069 679.93481,167.35172 680.65813,172.76066 663.9963,182.19382 647.25922,191.60654 630.56823,201.03095 628.24009,200.01339 627.99549,196.27695 626.29368,194.38598 620.87863,185.76526 615.92326,176.78415 609.09835,169.18559 604.78513,165.76447 611.63462,164.154 613.72274,162.04107 627.58297,152.54447 641.47472,143.10476 655.34116,133.62914 L 655.96051,133.68374 656.00178,133.68774 z"
       inkscape:connector-curvature="0"
       id="path1436"
       style="fill:#dcbf8c;stroke:none" />
    <path
       d="M 626.23539,107.55441 C 636.66241,114.84518 645.41245,124.43771 654.99143,132.69651 639.19516,143.94668 622.92287,154.86015 606.76678,165.6688 603.65594,164.11673 601.78227,160.18567 599.22804,157.76089 595.7015,153.42595 592.15467,149.23872 588.2308,145.24813 590.48388,141.3707 594.87402,138.4141 597.92751,134.88156 607.1946,125.75629 616.19744,116.30804 625.80794,107.57384 L 626.13824,107.53494 626.23534,107.55434 z"
       inkscape:connector-curvature="0"
       id="path1438"
       style="fill:#ada5be;stroke:none" />
    <path
       d="M 584.65572,82.684328 C 598.02572,89.449264 610.88679,97.316556 623.4958,105.41714 625.5905,107.16914 621.42751,109.03317 620.75627,110.59014 609.92037,121.94286 598.81727,133.12549 587.43418,143.90748 582.88624,141.70219 579.30773,137.52955 574.7824,134.99612 570.85261,131.99581 565.60332,130.07117 562.13664,126.77044 569.46821,112.12488 576.0177,97.023274 584.11169,82.800906 L 584.55857,82.664898 584.65567,82.684328 z"
       inkscape:connector-curvature="0"
       id="path1440"
       style="fill:#dad3b7;stroke:none" />
    <path
       d="M 537.09169,61.564186 C 552.29751,66.518606 566.70929,74.205844 581.27495,80.683063 584.55385,82.21038 580.53297,85.574265 580.16107,87.753004 573.98442,100.80852 567.60628,113.76733 561.32059,126.77044 557.74075,126.26574 554.32124,123.39599 550.66369,122.29307 539.1558,117.45096 527.29852,113.21726 515.46637,109.41967 513.37703,107.56056 517.00144,104.68674 517.1524,102.56912 523.44983,89.005225 528.93823,74.972481 536.25621,61.933352 536.43626,61.683755 536.77351,61.483445 537.09169,61.564186 z"
       inkscape:connector-curvature="0"
       id="path1442"
       style="fill:#b478b6;stroke:none" />
    <path
       d="M 477.01489,42.931054 C 488.75671,44.74481 500.41672,47.543821 511.31159,52.370498 518.98391,55.343267 526.99057,57.468769 534.54639,60.709277 534.83378,63.40607 532.26753,66.16324 531.56076,68.847822 525.52827,82.003249 519.86751,95.398762 513.48454,108.37046 505.13596,107.40035 496.82145,104.51766 488.53608,102.66556 479.41403,100.06136 469.87712,98.101256 461.27679,94.186741 462.61153,88.152453 465.06634,81.745779 466.61902,75.531541 469.81964,64.752641 472.65465,53.680846 475.79082,42.989343 476.18383,42.847404 476.60855,42.929813 477.01489,42.931053 z"
       inkscape:connector-curvature="0"
       id="path1444"
       style="fill:#a39ccb;stroke:none" />
    <path
       d="M 443.73173,35.431169 C 454.0032,36.86109 464.35805,39.043962 474.06157,42.736756 475.60878,44.504387 472.94637,47.37719 473.09527,49.453862 469.04515,64.226434 465.35502,79.15315 460.8882,93.778716 458.48175,94.673626 455.68223,92.526116 453.40774,91.563724 451.74026,89.687652 452.63583,86.380816 451.62238,84.038218 448.70079,67.94988 444.61812,51.933699 442.19678,35.839194 442.53513,35.363753 443.21991,35.41034 443.73173,35.431169 z"
       inkscape:connector-curvature="0"
       id="path1446"
       style="fill:#abd9cd;stroke:none" />
    <path
       d="M 428.75139,34.304243 C 432.68832,34.708528 437.00727,34.132967 440.73954,35.256301 444.63603,53.191054 448.55951,71.236733 452.0088,89.212724 450.6667,90.856186 448.5948,87.637126 447.28737,87.1726 444.30449,84.994247 440.22936,84.173809 438.89372,80.236179 430.72865,65.19022 420.78736,51.236951 410.05997,37.918177 408.3042,35.164502 413.12418,35.231303 414.67992,34.852742 419.34436,34.278552 424.05755,34.187742 428.75139,34.304243 z"
       inkscape:connector-curvature="0"
       id="path1448"
       style="fill:none;stroke:none" />
    <path
       d="M 426.3421,34.245954 C 431.02562,34.391241 435.72829,34.498922 440.38981,34.945425 442.74446,42.018918 443.66588,49.828822 445.45528,57.176588 447.52525,67.894012 450.27024,78.613423 451.96994,89.329303 450.22475,90.654934 448.43575,87.412684 446.82106,86.822865 443.5861,83.766233 437.93106,85.210857 435.68781,80.974509 425.49078,65.445563 410.88804,53.614838 398.92672,39.589136 407.48356,36.181249 416.94359,33.725555 426.3421,34.245954 z"
       inkscape:connector-curvature="0"
       id="path1450"
       style="fill:#a36ed8;stroke:none" />
    <path
       d="M 398.14953,40.327467 C 410.78875,53.676942 424.40299,66.408813 435.20207,81.246526 436.60043,82.500694 436.07598,84.691694 433.97799,84.277567 432.0257,84.138284 429.70579,85.267252 430.57778,87.580625 430.29169,89.487458 432.7533,95.863219 429.36476,93.657682 411.95693,81.739466 391.0271,76.461805 371.23932,69.627534 370.72591,63.068548 375.62062,57.069758 379.86887,52.39133 384.82894,46.842251 391.19294,42.627622 398.14953,40.327467 z"
       inkscape:connector-curvature="0"
       id="path1452"
       style="fill:#cce198;stroke:none" />
    <path
       d="M 372.65769,71.279063 C 383.66835,73.980239 394.27547,78.388769 405.06753,81.907033 414.41787,85.518136 423.48511,90.284184 431.52984,96.188006 431.47434,99.711572 433.14094,103.27481 432.59848,106.6995 426.81999,109.88419 419.7295,110.25602 413.24843,111.1985 399.99686,111.63912 386.73142,111.50869 373.47374,111.63466 370.60258,104.12631 369.96831,95.532343 369.38356,87.40763 369.43946,82.361428 368.74779,76.916887 370.32612,72.095112 370.86963,71.38998 371.80815,71.18134 372.65769,71.279063 z"
       inkscape:connector-curvature="0"
       id="path1454"
       style="fill:#6d70b9;stroke:none" />
    <path
       d="M 433.43396,107.92358 C 434.49614,111.48986 437.0111,115.0897 437.12561,118.72652 423.91037,125.46353 409.94247,130.84502 396.20655,136.46588 390.30163,135.15083 385.46995,130.58866 381.36222,126.34298 378.58037,122.32122 375.35458,118.01516 374.28979,113.2279 376.51421,111.74075 380.14908,112.88458 382.83824,112.35243 397.54422,111.47611 412.52304,112.4824 427.02214,109.78883 429.17955,109.58916 431.38839,107.53996 433.43396,107.92358 z"
       inkscape:connector-curvature="0"
       id="path1456"
       style="fill:#c68582;stroke:none" />
    <path
       d="M 438.07767,120.0866 C 441.47985,121.89781 441.11643,127.25155 439.86521,130.4038 437.62469,135.73469 433.7128,140.72259 428.67367,143.5966 419.65905,141.14054 410.21137,139.20867 400.90769,137.55859 398.66498,137.50379 399.57741,135.39196 401.41373,135.31953 413.5681,130.16944 425.62089,124.56705 437.99995,120.06717 L 438.07765,120.08657 z"
       inkscape:connector-curvature="0"
       id="path1458"
       style="fill:#98d8de;stroke:none" />
    <path
       d="M 613.61482,320.01488 C 632.59222,329.21221 651.54694,338.45895 670.47009,347.76542 671.13423,348.48621 670.25882,349.4701 670.08505,350.25737 668.52995,354.21174 667.17323,358.22006 665.29809,362.0358 663.04016,367.06718 660.97402,372.16804 658.49243,377.11017 656.68397,380.83313 654.98316,384.61233 653.77565,388.57238 652.94134,391.12727 650.58732,392.68668 649.00508,394.74009 648.06043,395.70009 647.30036,397.06841 646.19119,397.78668 645.22208,397.93163 645.38818,396.53588 645.16433,395.91667 643.9699,391.13722 640.63126,387.16816 637.38197,383.58417 629.63703,375.41179 620.05098,368.59117 609.22146,365.21999 603.38135,363.45667 596.6222,362.88123 591.10014,365.94877 588.61476,367.30234 586.72962,369.50388 584.98714,371.66539 584.08814,371.99561 583.91971,370.58566 583.44018,370.05786 582.00492,367.6383 579.85489,365.43139 577.06722,364.71863 573.35736,362.89115 569.46553,361.28096 565.33436,360.87315 563.08393,360.48933 560.76825,360.79365 558.52207,360.45965 557.69815,359.9487 558.683,359.20327 559.18359,358.91592 563.20284,356.05915 567.23493,353.21788 571.47641,350.7054 575.2108,347.9887 579.31612,345.87786 583.37816,343.70802 588.64774,340.6311 593.96464,337.49143 599.07744,334.15072 601.2019,332.87005 602.88124,331.0415 604.80742,329.51488 608.31302,327.26475 611.17895,324.00479 612.9429,320.26298 613.12381,320.02592 613.3211,319.93324 613.61482,320.01488 z"
       inkscape:connector-curvature="0"
       id="path827"
       style="fill:#939f6c;stroke:none" />
    <path
       d="M 600.67146,363.93299 C 608.82213,364.18968 616.46364,367.77377 623.22627,372.07736 629.57763,376.11562 635.2641,381.17579 640.08133,386.94966 642.39262,390.02096 644.79497,393.4062 645.1788,397.33288 645.46306,399.65128 643.55932,401.30609 642.3257,403.00807 640.69157,405.00137 639.48513,407.30762 637.89226,409.34525 636.49441,411.18204 635.4109,413.38853 633.51313,414.78228 632.58174,414.92105 632.07526,413.73969 631.37447,413.30051 627.73415,410.00573 624.41948,406.29507 620.38473,403.48875 618.42298,402.16972 616.26076,401.03419 613.88256,400.7442 613.10568,400.15999 613.27713,398.94556 612.7713,398.14953 610.81274,393.9584 607.2549,390.8036 603.57625,388.13266 597.59222,383.90615 591.06451,380.52611 584.30748,377.70747 583.666,377.00104 584.13049,375.85443 584.01459,374.95789 584.12051,372.72626 585.83466,371.02334 587.15217,369.37138 590.5286,365.53233 595.62726,363.75906 600.67146,363.93299 z"
       inkscape:connector-curvature="0"
       id="path3073"
       style="fill:#81728f;stroke:none" />
    <path
       d="M 561.15705,360.75427 C 566.31903,360.75127 571.43977,362.02149 575.9971,364.44046 577.51136,365.14702 579.2419,365.45327 580.44896,366.71173 582.16904,368.26937 583.48635,370.2696 584.47217,372.34119 584.32332,373.26164 583.71684,374.12358 583.84747,375.11281 583.84447,375.95764 584.00068,377.22428 583.18071,377.59376 583.57502,377.73736 583.97926,378.20802 583.84747,378.74121 583.74071,381.16011 583.57563,384.10603 581.42337,385.65171 579.00156,386.95415 576.22084,385.75866 573.77428,385.16933 566.89469,383.32638 559.47739,383.0296 552.56396,384.9311 550.34738,385.49174 548.28336,386.52047 546.18874,387.3589 545.60139,387.412 545.56461,386.38828 544.88611,386.60274 542.83452,387.00069 540.87065,387.84554 538.77675,388.10682 533.37159,389.14818 527.83967,388.766 522.38693,389.20258 519.90407,389.19258 517.24082,389.35216 514.95956,388.23604 512.38007,386.5393 512.54772,382.41493 514.71663,380.44686 520.11084,374.90478 527.73429,372.69396 534.64057,369.73136 537.52877,368.601 540.19023,367.0686 542.82497,365.46251 546.41974,363.53125 550.34793,361.92164 554.40678,361.51406 556.56573,360.80763 558.88543,360.72398 561.15705,360.75427 z"
       inkscape:connector-curvature="0"
       id="path3075"
       style="fill:#6d7c6d;stroke:none" />
    <path
       d="M 639.93261,270.8144 C 655.81695,271.1736 671.70235,271.55793 687.58249,272.04971 688.57839,272.51753 687.48987,273.43839 687.10181,273.9311 685.76772,275.35446 685.64849,277.89724 687.32406,279.1101 688.79823,280.04347 690.46081,280.82218 691.4073,282.38703 693.98985,286.32535 694.13683,291.23072 694.05262,295.78936 694.16246,297.26301 694.02506,298.70348 693.40736,300.06088 692.85806,301.54306 692.49799,303.12602 691.78978,304.53474 691.01291,305.24771 689.89217,304.41869 688.98989,304.44844 669.57489,300.86657 650.12718,297.43483 630.72206,293.81492 629.82251,293.20008 630.824,292.10164 631.07077,291.384 632.42707,288.82363 633.63491,286.18646 634.58821,283.46209 636.28534,279.44369 637.20293,275.14261 638.62053,271.04252 638.87878,270.62451 639.5235,270.87355 639.93261,270.81438 z"
       inkscape:connector-curvature="0"
       id="path3077"
       style="fill:#9b7d71;stroke:none" />
    <path
       d="M 487.70521,113.90937 C 493.50799,114.15868 499.29764,115.22298 504.79766,117.08446 508.25092,118.53389 511.77366,119.78877 515.37305,120.86121 517.7924,121.92313 520.21836,122.94421 522.78737,123.59438 528.78839,125.2173 534.66568,127.33489 540.19296,130.18031 540.89986,130.90197 539.85872,131.81743 539.60374,132.53722 538.79465,133.92798 537.71343,135.68075 535.85195,135.51367 531.99945,136.00684 528.10411,135.29956 524.43224,134.11139 520.64784,132.93893 516.84751,131.54149 512.86133,131.47388 503.97552,131.19299 495.03725,131.14966 486.24248,132.59924 482.3569,133.20088 478.38781,134.17688 475.23323,136.65664 469.5726,140.47891 464.1308,145.20817 457.25663,146.61148 454.91515,147.33458 452.34958,147.46203 450.01534,146.65278 446.31031,145.30213 443.44101,142.04985 442.49268,138.22488 441.62934,135.34625 441.09191,131.79005 443.11001,129.26024 443.58671,128.65689 444.3118,128.00411 445.03863,128.69646 447.38248,129.88845 450.07181,130.57998 452.68391,130.51136 458.26873,127.74004 463.33665,124.02486 467.72834,119.64136 469.22383,118.40099 470.73649,117.14296 472.468,116.23521 476.61925,114.48181 481.29118,114.85693 485.64674,113.99166 486.32862,113.91396 487.01827,113.89816 487.70521,113.90936 z"
       inkscape:connector-curvature="0"
       id="path3087"
       style="fill:#e1ada0;stroke:none" />
  </g>
</svg>
