<?xml version="1.0" encoding="UTF-8" standalone="no"?>
<!-- Created with Inkscape (http://www.inkscape.org/) -->

<svg
   xmlns:dc="http://purl.org/dc/elements/1.1/"
   xmlns:cc="http://creativecommons.org/ns#"
   xmlns:rdf="http://www.w3.org/1999/02/22-rdf-syntax-ns#"
   xmlns:svg="http://www.w3.org/2000/svg"
   xmlns="http://www.w3.org/2000/svg"
   xmlns:xlink="http://www.w3.org/1999/xlink"
   xmlns:inkscape="http://www.inkscape.org/namespaces/inkscape"
   version="1.1"
   width="740"
   height="520"
   id="svg2"
   style="display:inline;enable-background:new">
  <defs
     id="defs4">
    <filter
       color-interpolation-filters="sRGB"
       id="filter3050">
      <feBlend
         in2="BackgroundImage"
         mode="lighten"
         id="feBlend3052" />
    </filter>
  </defs>
  <metadata
     id="metadata7">
    <rdf:RDF>
      <cc:Work
         rdf:about="">
        <dc:format>image/svg+xml</dc:format>
        <dc:type
           rdf:resource="http://purl.org/dc/dcmitype/StillImage" />
        <dc:title />
      </cc:Work>
    </rdf:RDF>
  </metadata>
  <g
     id="g1971"
     style="display:none">
    <image
       xlink:href="pngs/coronal-0717.png"
       id="image1973"
       height="520"
       width="740"
       y="0"
       x="0" />
  </g>
  <g
     id="g1979"
     style="display:inline">
    <path
       d="M 561.55715,287.46472 C 559.7281,287.58595 559.04605,293.56824 556.58314,297.41275 553.01228,301.09761 554.36646,309.69699 551.60912,314.20006 547.95866,315.51308 545.54009,319.52273 542.90459,321.03933 541.34724,325.35298 538.5007,327.39368 536.68707,329.74386 533.7755,331.57108 530.06993,334.79832 527.98254,336.58314 524.63096,339.76171 519.21389,340.91082 516.16925,344.04416 513.44346,345.91643 509.53626,347.66973 508.08647,350.26168 503.13395,352.71456 500.0884,354.14672 496.27318,357.10095 492.51851,357.85763 488.12241,360.57849 483.83814,363.31847 479.81152,364.44609 476.42774,367.24535 473.26836,369.536 469.19883,372.4635 466.60522,379.38066 468.29434,385.70155 470.74345,391.27536 475.16575,393.72553 480.10763,396.27134 484.58335,399.01372 492.23522,402.04394 498.76019,404.35411 505.79343,408.22098 509.07518,408.95275 514.92575,412.43689 523.92202,415.46526 530.78385,421.69445 538.55232,426.11544 541.51843,429.58632 548.23069,431.69679 552.85262,435.44172 558.69639,437.64197 563.82268,442.06918 570.26168,443.52449 578.15452,448.31657 589.08013,449.36289 597.61877,446.0115 603.31246,444.31137 601.37496,445.03713 603.21454,444.14625 609.1367,446.26479 614.23742,442.43635 618.75834,438.55048 623.29685,436.58864 622.93861,431.79639 625.59762,428.60244 628.49234,426.01887 629.85544,421.07837 632.43689,418.03266 633.9761,412.45315 638.09552,408.75035 639.89791,404.35411 642.48441,402.11688 644.90632,396.72251 647.35894,392.54082 649.0485,388.79387 651.84711,384.79204 653.57646,379.48403 656.82266,373.48428 659.52405,367.41313 661.65924,360.83147 664.65923,355.53252 665.6405,348.64994 668.49851,342.80066 670.59715,336.20787 670.92626,339.06191 672.73144,334.80503 676.39294,329.05561 677.86566,322.67056 680.3118,317.30882 681.71725,311.97155 682.85394,309.6477 685.28582,306.73904 686.68418,301.51056 689.21916,296.81029 690.88159,291.19523 691.93194,282.59755 694.70223,273.52729 695.23312,264.15048 697.11306,250.31644 694.26995,235.95965 693.36859,222.18075 692.3052,214.14801 689.95713,206.59049 688.39458,198.55417 685.72368,192.55501 682.7937,184.08254 679.69005,177.4146 677.99397,173.38755 674.44457,167.65151 672.22902,163.1143 669.55607,159.11447 668.68148,157.33669 666.0115,153.16627 662.26856,149.09968 658.93944,145.16573 656.06347,140.73123 654.34334,137.54881 651.73717,134.55147 649.84595,132.0267 647.74203,130.43299 643.51219,126.86359 640.69454,124.35194 637.76799,122.06138 635.56646,118.7673 633.6137,117.38063 630.34194,114.11081 626.55843,111.27463 621.8671,107.77837 618.95989,105.56143 614.03182,102.29815 610.67557,100.31734 604.72004,96.299939 598.74914,93.485932 592.64476,88.504054 585.93978,85.479382 580.6615,78.952574 573.99219,76.690764 567.6174,73.862886 562.8482,71.939548 555.96138,69.851491 548.20496,67.603337 541.77121,65.5036 534.20006,61.768714 524.86735,59.38819 516.2588,54.859283 506.84297,53.685937 499.19498,50.874477 490.09605,50.691743 482.59464,47.468416 474.73228,45.85745 467.97065,43.527462 460.21157,42.4944 449.93261,41.594604 439.95542,39.911213 430.05659,38.142135 419.22535,36.143877 408.12981,38.163835 399.27986,40.629143 393.55673,44.429869 387.51574,44.490504 382.49255,48.090168 378.23838,50.071516 377.28511,53.406565 373.78802,56.794698 369.48382,62.658494 367.57279,71.222253 367.5705,79.799525 368.45131,91.657444 365.58283,102.68755 366.94875,113.99589 366.3605,122.26283 381.1761,121.769 381.8708,120.34815 385.28105,115.88314 391.00181,116.79281 392.57533,112.88713 396.65574,111.12953 399.90713,108.73387 405.01037,106.04786 407.61241,101.02977 411.19858,97.505843 412.09592,95.16627 412.81597,93.206634 419.22826,90.738497 422.90644,90.36931 428.40132,91.424408 434.84175,95.382313 441.24812,95.965079 452.8798,97.643528 465.79976,96.301942 476.99887,99.073839 484.74117,99.475532 491.70255,101.64712 498.13844,104.04786 504.59581,105.00147 509.04413,107.83609 514.92575,109.64362 519.74299,112.2586 525.95578,114.45344 531.71305,117.10465 536.11079,119.97591 541.75208,121.89477 546.01335,125.18743 553.83783,129.06107 561.19235,137.16797 569.01818,142.59649 572.03805,145.91263 575.65063,150.75194 577.71994,151.74571 580.53583,155.56114 584.45953,160.12259 588.29249,164.97956 589.83078,167.37721 591.42414,170.15117 593.88826,172.44059 596.40962,178.02539 598.5516,180.75468 601.97104,186.11913 604.21442,190.33161 605.6253,192.3585 608.18856,196.68892 610.74983,199.40792 612.30917,203.09375 614.40608,205.39345 617.32661,211.10917 618.05647,217.11876 619.09759,223.67919 619.62093,232.21406 622.73835,240.36065 623.49404,249.1786 625.54795,259.77271 625.77676,271.05272 627.10253,281.99465 626.59094,291.3486 626.14784,301.48657 623.49404,308.5307 621.28005,314.18741 620.47347,321.02053 619.09759,327.43544 617.85992,333.24061 617.42019,340.37451 615.14079,344.14195 611.30966,340.37732 613.42357,331.97605 614.70114,327.43544 614.52757,320.14752 617.45631,313.61309 619.09759,307.43159 619.49911,302.41906 622.14388,297.63098 622.17511,293.84279 622.29319,280.73442 619.9176,269.11671 618.2183,257.09222 617.34005,248.93314 615.62747,242.8246 613.82185,235.10996 611.94515,231.03836 610.69778,225.6707 608.54611,221.92061 606.86593,218.12318 605.64406,213.88189 602.35353,209.95907 600.05962,205.48045 598.97329,201.14756 596.23605,197.30048 595.23936,193.77788 592.78876,190.99666 590.52066,188.50758 588.53236,184.69312 585.66761,181.91318 583.92598,177.51645 581.28409,174.79352 577.8963,169.23153 575.57272,166.52532 573.12496,163.50662 568.44696,159.45906 566.34018,156.41348 563.99543,154.24099 562.62845,152.07595 559.7455,149.37916 556.10401,146.6333 553.83946,143.20592 547.12572,140.39628 539.22429,136.92743 534.15597,130.9599 527.21176,127.39691 523.10218,124.51716 517.39713,122.91296 512.70347,120.36258 505.96972,117.25998 499.15485,114.35609 492.4798,111.13004 481.28861,106.08687 465.26561,107.77244 451.61361,108.06862 445.30378,108.56152 439.11664,110.36998 434.44664,113.76791 431.54551,115.68451 428.41838,118.2525 426.09338,121.68152 423.77506,124.2787 421.40092,126.78833 418.17977,128.71584 416.21601,131.53001 413.6062,135.02518 410.7058,136.62945 407.23912,140.24672 403.89058,142.48071 398.39574,143.22413 389.55006,146.80367 376.97466,145.91753 365.862,146.74129 364.79685,146.78999 365.72777,147.39682 364.10342,146.74129"
       inkscape:connector-curvature="0"
       id="path1981"
       style="fill:none;stroke:#e20000;stroke-opacity:1" />
    <path
       d="M 366.32699,100.40011 405.54156,105.0541"
       inkscape:connector-curvature="0"
       id="path1983"
       style="opacity:0.6;fill:none;stroke:#e20000;stroke-opacity:1" />
    <path
       d="M 412.33665,94.721568 381.87079,48.711913"
       inkscape:connector-curvature="0"
       id="path1985"
       style="opacity:0.6;fill:none;stroke:#e20000;stroke-opacity:1" />
    <path
       d="M 475.13361,98.45208 479.48587,46.224904"
       inkscape:connector-curvature="0"
       id="path1987"
       style="opacity:0.6;fill:none;stroke:#e20000;stroke-opacity:1" />
    <path
       d="M 500.00369,103.4261 514.95698,55.733293"
       inkscape:connector-curvature="0"
       id="path1989"
       style="opacity:0.6;fill:none;stroke:#e20000;stroke-opacity:1" />
    <path
       d="M 622.40048,302.67555 679.69005,319.46285"
       inkscape:connector-curvature="0"
       id="path1991"
       style="opacity:0.6;fill:none;stroke:#e20000;stroke-opacity:1" />
    <path
       d="M 444.11883,39.467881 442.36025,95.302812"
       inkscape:connector-curvature="0"
       id="path1993"
       style="fill:none;stroke:#0000e9;stroke-width:0.99000001;stroke-miterlimit:4;stroke-opacity:1;stroke-dasharray:none;stroke-dashoffset:0" />
    <path
       d="M 546.1165,66.286234 524.13424,113.32826"
       inkscape:connector-curvature="0"
       id="path1995"
       style="fill:none;stroke:#0000e9;stroke-width:0.99000001;stroke-miterlimit:4;stroke-opacity:1;stroke-dasharray:none;stroke-dashoffset:0" />
    <path
       d="M 572.05556,76.837717 546.1165,124.31939"
       inkscape:connector-curvature="0"
       id="path1997"
       style="fill:none;stroke:#0000e9;stroke-width:0.99000001;stroke-miterlimit:4;stroke-opacity:1;stroke-dasharray:none;stroke-dashoffset:0" />
    <path
       d="M 633.16624,116.40578 584.80527,158.17206"
       inkscape:connector-curvature="0"
       id="path1999"
       style="fill:none;stroke:#0000e9;stroke-width:0.99000001;stroke-miterlimit:4;stroke-opacity:1;stroke-dasharray:none;stroke-dashoffset:0" />
    <path
       d="M 667.01891,155.53419 603.71001,187.18864"
       inkscape:connector-curvature="0"
       id="path2001"
       style="fill:none;stroke:#0000e9;stroke-width:0.99000001;stroke-miterlimit:4;stroke-opacity:1;stroke-dasharray:none;stroke-dashoffset:0" />
    <path
       d="M 684.36329,190.22296 617.09759,215.28274"
       inkscape:connector-curvature="0"
       id="path2003"
       style="fill:none;stroke:#0000e9;stroke-width:0.99000001;stroke-miterlimit:4;stroke-opacity:1;stroke-dasharray:none;stroke-dashoffset:0" />
    <path
       d="M 693.83726,217.63599 621.8109,236.0569"
       inkscape:connector-curvature="0"
       id="path2005"
       style="fill:none;stroke:#0000e9;stroke-width:0.99000001;stroke-miterlimit:4;stroke-opacity:1;stroke-dasharray:none;stroke-dashoffset:0" />
    <path
       d="M 688.27274,297.82418 626.8291,288.84917"
       inkscape:connector-curvature="0"
       id="path2007"
       style="fill:none;stroke:#0000e9;stroke-width:0.99000001;stroke-miterlimit:4;stroke-opacity:1;stroke-dasharray:none;stroke-dashoffset:0" />
    <path
       d="M 481.48867,396.45972 C 481.48867,395.87353 482.07486,394.70114 481.48867,394.70114 480.90247,394.70114 481.07417,396.87422 481.48867,396.45972 482.01706,395.93133 481.80547,394.99858 481.92831,394.2615 481.95241,394.11694 481.82469,393.92548 481.92831,393.82185 482.03194,393.71822 482.26433,393.92548 482.36796,393.82185 482.57119,393.61862 482.23524,392.76836 482.36796,392.50291 482.46066,392.31754 482.71492,392.24864 482.8076,392.06327 482.93868,391.80112 482.67653,391.44613 482.8076,391.18398 482.9003,390.99861 483.15456,390.9297 483.24725,390.74433 483.48068,390.27746 483.01381,390.33191 483.24725,389.86504 483.33995,389.67967 483.59421,389.61077 483.68689,389.4254 483.81797,389.16325 483.47964,388.75336 483.68689,388.54611 483.79052,388.44248 484.02291,388.64973 484.12654,388.54611 484.33379,388.33886 483.91929,387.87407 484.12654,387.66682 485.29893,387.66682 483.97999,387.81337 484.56618,387.22717 484.66981,387.12355 484.9022,387.3308 485.00583,387.22717 485.10945,387.12355 484.94033,386.9186 485.00583,386.78753 485.09853,386.60216 485.35279,386.53325 485.44547,386.34788 485.51097,386.21681 485.34185,386.01186 485.44547,385.90824 485.5491,385.80461 485.78149,386.01186 485.88512,385.90824 485.98874,385.80461 485.81962,385.59967 485.88512,385.46859 486.14891,384.94102 486.94027,384.67723 487.20405,384.14966 487.26955,384.01858 487.10043,383.81364 487.20405,383.71001 487.30768,383.60639 487.54007,383.81364 487.6437,383.71001 487.74733,383.60639 487.5782,383.40144 487.6437,383.27037 487.82907,382.89963 488.33762,382.76182 488.52299,382.39108 488.58849,382.26 488.41936,382.05506 488.52299,381.95143 488.62662,381.84781 488.83156,382.01693 488.96264,381.95143 489.33338,381.76606 489.47118,381.25751 489.84193,381.07214 489.973,381.00664 490.17795,381.17577 490.28157,381.07214 490.3852,380.96852 490.17795,380.73612 490.28157,380.6325 490.3852,380.52887 490.59014,380.698 490.72122,380.6325 490.90659,380.5398 490.97549,380.28554 491.16086,380.19285 491.29194,380.12735 491.46943,380.25835 491.60051,380.19285 491.78588,380.10015 491.85478,379.84589 492.04015,379.75321 492.17123,379.68771 492.34872,379.81871 492.4798,379.75321 492.66517,379.66051 492.73407,379.40625 492.91944,379.31356 493.05052,379.24806 493.22801,379.37906 493.35909,379.31356 493.54446,379.22086 493.61336,378.9666 493.79873,378.87392 494.25998,378.64329 495.64605,379.22482 495.99696,378.87392 496.10058,378.77029 495.89333,378.5379 495.99696,378.43427 496.21678,378.21445 497.09607,378.65409 497.31589,378.43427 497.41952,378.33065 497.21227,378.09825 497.31589,377.99463 497.60899,377.70153 498.78138,378.28772 499.07447,377.99463 499.1781,377.891 498.97085,377.65861 499.07447,377.55498 499.36757,377.26188 500.53996,377.84808 500.83305,377.55498 500.93668,377.45136 500.72943,377.21896 500.83305,377.11534 501.11193,376.83646 502.22559,377.29836 502.59163,377.11534 502.777,377.02264 502.84591,376.76838 503.03128,376.67569 503.18458,376.59909 509.03301,376.59909 509.18631,376.67569 509.37168,376.76839 509.44059,377.02265 509.62596,377.11534 510.44663,377.52567 511.8828,376.705 512.70347,377.11534 512.88884,377.20804 512.95775,377.4623 513.14312,377.55498 513.54615,377.7565 515.65243,377.55498 516.22063,377.55498 516.5575,377.55498 519.70717,377.52438 519.73779,377.55498 519.84142,377.65861 519.63417,377.891 519.73779,377.99463 520.0887,378.34553 521.47477,377.764 521.93602,377.99463 522.12139,378.08733 522.19029,378.34159 522.37566,378.43427 522.96186,378.72737 523.9877,378.14117 524.57389,378.43427 524.75926,378.52697 524.82816,378.78123 525.01354,378.87392 525.4804,379.10735 525.42596,378.64048 525.89283,378.87392 526.0782,378.96662 526.1471,379.22088 526.33247,379.31356 526.46355,379.37906 526.64104,379.24806 526.77212,379.31356 526.95749,379.40626 527.02639,379.66052 527.21176,379.75321 527.34284,379.81871 527.52033,379.68771 527.65141,379.75321 529.10953,381.21133 527.2369,379.54596 528.5307,380.19285 528.71607,380.28555 528.78497,380.53981 528.97034,380.6325 529.10142,380.698 529.30636,380.52887 529.40999,380.6325 529.51361,380.73612 529.30636,380.96852 529.40999,381.07214 529.51361,381.17577 529.71855,381.00664 529.84963,381.07214 530.36176,381.32821 530.65644,381.69537 531.16857,381.95143 531.29964,382.01693 531.50459,381.84781 531.60821,381.95143 531.71184,382.05506 531.50459,382.28745 531.60821,382.39108 531.81546,382.59833 532.22535,382.26 532.4875,382.39108 532.67287,382.48378 532.74178,382.73804 532.92715,382.83072 533.05822,382.89622 533.26317,382.7271 533.36679,382.83072 533.47042,382.93435 533.26317,383.16674 533.36679,383.27037 533.57404,383.47762 534.03883,383.06312 534.24608,383.27037 534.34971,383.37399 534.14246,383.60639 534.24608,383.71001 534.45333,383.91726 534.91812,383.50276 535.12537,383.71001 535.229,383.81364 535.02175,384.04603 535.12537,384.14966 535.229,384.25328 535.43394,384.08416 535.56502,384.14966 535.93576,384.33503 536.07357,384.84358 536.44431,385.02895 536.57539,385.09445 536.78033,384.92532 536.88395,385.02895 536.88395,386.20133 536.73741,384.8824 537.3236,385.46859 537.42722,385.57222 537.21997,385.80461 537.3236,385.90824 537.42722,386.01186 537.65962,385.80461 537.76324,385.90824 537.86687,386.01186 537.65962,386.24426 537.76324,386.34788 537.86687,386.45151 538.07181,386.28238 538.20289,386.34788 538.38826,386.44058 538.45716,386.69484 538.64253,386.78753 538.77361,386.85303 538.97855,386.6839 539.08218,386.78753 539.1858,386.89115 538.97855,387.12355 539.08218,387.22717 539.1858,387.3308 539.4182,387.12355 539.52182,387.22717 539.62545,387.3308 539.4182,387.56319 539.52182,387.66682 539.62545,387.77044 539.85784,387.56319 539.96147,387.66682 539.96147,388.83921 539.81492,387.52027 540.40111,388.10646 540.50474,388.21009 540.29749,388.44248 540.40111,388.54611 540.50474,388.64973 540.73713,388.44248 540.84076,388.54611 540.94438,388.64973 540.84076,388.83921 540.84076,388.98575 540.98731,388.98575 541.17678,388.88213 541.2804,388.98575 541.38403,389.08938 541.2149,389.29432 541.2804,389.4254 541.3731,389.61077 541.62736,389.67967 541.72005,389.86504 541.78555,389.99612 541.61642,390.20106 541.72005,390.30469 541.82368,390.40831 542.05607,390.20106 542.1597,390.30469 542.26332,390.40831 542.0942,390.61326 542.1597,390.74433 542.2524,390.9297 542.50665,390.99861 542.59934,391.18398 542.66484,391.31506 542.49571,391.52 542.59934,391.62362 542.70297,391.72725 542.93536,391.52 543.03899,391.62362 543.14261,391.72725 542.93536,391.95964 543.03899,392.06327 543.14261,392.16689 543.37501,391.95964 543.47863,392.06327 543.76779,392.35243 543.18947,392.6534 543.47863,392.94256 543.58226,393.04619 543.81465,392.83893 543.91828,392.94256 544.12553,393.14981 543.71102,393.6146 543.91828,393.82185 544.0219,393.92548 544.2543,393.71822 544.35792,393.82185 544.46155,393.92548 544.29242,394.13042 544.35792,394.2615 544.61399,394.77363 544.98115,395.0683 545.23721,395.58043 545.36829,395.84258 545.10613,396.19757 545.23721,396.45972 545.32991,396.64509 545.58417,396.714 545.67686,396.89937 545.80958,397.16481 545.47362,398.01507 545.67686,398.2183 545.78048,398.32193 546.01288,398.11468 546.1165,398.2183 546.1578,398.2596 546.1165,402.19115 546.1165,402.61475 546.1165,402.86558 546.1391,405.23001 546.1165,405.25262 546.01288,405.35625 545.78048,405.149 545.67686,405.25262 545.38376,405.54572 545.96995,406.71811 545.67686,407.0112 545.57323,407.11483 545.34084,406.90758 545.23721,407.0112 544.87084,407.37757 545.60358,408.84306 545.23721,409.20943 545.13359,409.31305 544.90119,409.1058 544.79757,409.20943 544.59362,409.41338 544.99941,411.44362 544.79757,411.8473 544.70487,412.03267 544.45061,412.10157 544.35792,412.28695 544.22684,412.5491 544.489,412.90408 544.35792,413.16624 544.26522,413.35161 544.01096,413.42051 543.91828,413.60588 543.7872,413.86803 544.12553,414.27792 543.91828,414.48517 543.81465,414.5888 543.58226,414.38155 543.47863,414.48517 543.27138,414.69242 543.60971,415.10231 543.47863,415.36446 543.38593,415.54983 543.13167,415.61874 543.03899,415.80411 542.90791,416.06626 543.24624,416.47615 543.03899,416.6834 542.93536,416.78702 542.70297,416.57977 542.59934,416.6834 542.32047,416.96227 542.78236,418.07593 542.59934,418.44198 542.50664,418.62735 542.25238,418.69625 542.1597,418.88162 542.02862,419.14378 542.29077,419.49876 542.1597,419.76091 542.067,419.94628 541.81274,420.01519 541.72005,420.20056 541.58897,420.46271 541.9273,420.8726 541.72005,421.07985 541.61642,421.18347 541.38403,420.97622 541.2804,421.07985 541.07315,421.2871 541.48766,421.75189 541.2804,421.95914 541.17678,422.06276 540.94438,421.85551 540.84076,421.95914 540.63351,422.16639 541.04801,422.63118 540.84076,422.83843 540.73713,422.94205 540.50474,422.7348 540.40111,422.83843 540.19386,423.04568 540.60837,423.51047 540.40111,423.71772 540.29749,423.82134 540.06509,423.61409 539.96147,423.71772 539.74165,423.93754 540.18129,424.81683 539.96147,425.03665 539.85784,425.14028 539.62545,424.93303 539.52182,425.03665 539.302,425.25648 539.74165,426.13577 539.52182,426.35559 539.4182,426.45921 539.1858,426.25196 539.08218,426.35559 538.78908,426.64869 539.22873,427.08833 539.52182,426.79523 540.08433,426.23273 539.22504,426.35559 539.08218,426.35559"
       inkscape:connector-curvature="0"
       id="path2009"
       style="fill:none;stroke:#0000e9;stroke-width:0.99000001;stroke-miterlimit:4;stroke-opacity:1;stroke-dasharray:none;stroke-dashoffset:0" />
    <path
       d="M 596.23605,392.50291 584.80527,447.8982"
       inkscape:connector-curvature="0"
       id="path2011"
       style="fill:none;stroke:#0000e9;stroke-width:0.99000001;stroke-miterlimit:4;stroke-opacity:1;stroke-dasharray:none;stroke-dashoffset:0" />
    <path
       d="M 545.67686,409.64907 C 560.77134,398.71639 575.86582,407.73567 590.9603,413.60588"
       inkscape:connector-curvature="0"
       id="path2013"
       style="fill:none;stroke:#0000e9;stroke-width:0.99000001;stroke-miterlimit:4;stroke-opacity:1;stroke-dasharray:none;stroke-dashoffset:0" />
    <path
       d="M 635.36446,307.65141 C 636.17181,311.2542 635.74151,315.00631 635.80411,318.64253 635.00202,320.1056 635.09728,321.8719 634.00866,323.25011 633.80082,325.038 632.5097,326.50497 632.28695,327.87508 631.59772,329.48475 631.1976,331.21916 630.75838,332.93521 630.57669,335.13982 629.38232,336.98503 629.23451,339.31796 628.93457,341.21491 628.35594,343.00934 627.92736,344.81012 627.3892,346.31912 626.52043,347.63452 626.11032,349.18892 625.98542,350.89869 624.88081,352.19181 623.89682,353.58562 623.56027,355.42908 622.28735,356.96657 621.73546,358.65024 620.75125,360.33719 620.19549,362.82497 619.31742,364.80527 618.42362,366.55106 617.76777,368.18871 616.89937,369.86119 615.69526,371.66275 615.54516,374.15827 614.2615,375.7964 613.69109,377.18182 613.14114,378.54523 612.72273,379.97303 612.11146,381.35758 611.32222,382.48451 611.18398,383.71001 610.11621,385.13876 609.70361,386.01403 608.70548,387.58164 606.93546,389.08859 607.69034,389.47583 606.12806,390.30469 605.17794,391.2147 603.35589,391.93359 601.97285,392.08142 599.68048,392.04682 596.58306,391.72329 595.7964,392.94256 595.50324,392.58653 596.05812,392.25437 596.23605,392.06327"
       inkscape:connector-curvature="0"
       id="path2015"
       style="fill:none;stroke:#0000e9;stroke-width:0.99000001;stroke-miterlimit:4;stroke-opacity:1;stroke-dasharray:none;stroke-dashoffset:0" />
    <path
       d="M 603.27037,391.62362 616.45972,439.98459"
       inkscape:connector-curvature="0"
       id="path2017"
       style="fill:none;stroke:#0000e9;stroke-width:0.99000001;stroke-miterlimit:4;stroke-opacity:1;stroke-dasharray:none;stroke-dashoffset:0" />
    <path
       d="M 369.11759,101.12529 C 380.24573,102.46185 391.5701,103.35087 402.53676,105.36098 403.13058,107.67701 399.33318,108.38778 397.98974,109.58596 393.34202,111.72516 390.06339,115.61724 385.20527,117.37785 382.58839,118.97967 380.24434,121.46478 376.8312,120.7882 372.25395,120.7328 366.63994,118.00557 367.21347,112.64714 367.42411,108.98358 365.99273,104.75085 367.50492,101.35845 367.9375,100.99583 368.58799,101.07404 369.11759,101.12529 z"
       inkscape:connector-curvature="0"
       id="path2019"
       style="fill:#c68582;stroke:none" />
    <path
       d="M 381.51377,49.636448 C 391.95818,64.301515 401.96224,79.360188 411.39673,94.694045 410.0795,98.312055 407.5325,101.8246 404.79062,104.54493 392.50216,103.30316 380.16618,101.89295 367.93237,100.15381 367.02659,95.285509 368.09605,89.7242 367.95087,84.591455 368.13838,74.231233 368.8234,62.929388 376.08048,54.81492 377.73541,53.408268 379.09434,49.554609 381.51376,49.636448 z"
       inkscape:connector-curvature="0"
       id="path2021"
       style="fill:#6d70b9;stroke:none" />
    <path
       d="M 454.20048,42.097703 C 462.30975,43.42521 470.64989,44.397509 478.44881,47.013431 478.85986,54.26313 477.54953,61.885351 477.25707,69.263374 476.47886,78.736177 475.91628,88.250759 474.8543,97.686227 472.63944,98.782095 469.68563,96.998199 467.18356,97.33391 459.2332,96.579551 451.19446,96.650914 443.28096,95.646103 442.24408,91.121215 443.32496,85.990912 443.08961,81.268554 443.60219,68.208192 443.41325,55.028489 444.72985,42.048444 446.10232,39.562257 451.66065,42.519836 454.20048,42.097704 z"
       inkscape:connector-curvature="0"
       id="path2023"
       style="fill:#a36ed8;stroke:none" />
    <path
       d="M 483.15081,48.043208 C 493.14504,50.895271 503.46364,53.070769 513.50008,55.465373 515.05428,57.659574 512.30042,60.582407 512.22835,62.970738 508.00656,76.36215 504.35739,90.051184 499.4718,103.16542 497.43795,104.77428 494.8374,101.7416 492.58332,101.81352 487.32872,99.90957 481.60862,99.774741 476.31154,98.21083 475.56183,92.214483 476.8779,85.875658 477.03001,79.779562 477.87213,69.04867 478.79332,58.324181 479.67288,47.596324 480.61137,46.550239 482.03539,47.98857 483.15081,48.043208 z"
       inkscape:connector-curvature="0"
       id="path2025"
       style="fill:#abd9cd;stroke:none" />
    <path
       d="M 515.87051,56.456291 C 525.66571,59.203028 535.42457,62.591251 544.74313,66.7152 545.03664,69.5013 542.25189,72.319765 541.55242,75.078014 535.73842,87.75788 529.72771,100.34655 523.93386,113.03573 520.33544,112.45335 516.81283,109.70357 513.08385,108.62967 509.216,106.87422 504.79768,105.76179 501.02618,104.17576 501.63725,97.054993 504.86659,90.26912 506.64537,83.34163 509.60209,74.405858 512.07924,65.203952 515.46249,56.49515 515.58762,56.45491 515.73857,56.4042 515.87051,56.45629 z"
       inkscape:connector-curvature="0"
       id="path2027"
       style="fill:#a6a5bc;stroke:none" />
    <path
       d="M 547.0747,67.55068 C 555.32035,69.931398 563.49547,72.725337 571.45904,75.983193 571.0086,79.587384 567.82921,82.982986 566.35481,86.508909 559.56098,98.884274 552.92599,111.35662 545.94777,123.62495 542.47743,123.38654 539.24485,120.41702 535.93069,119.10593 532.37142,117.0581 528.49626,115.39739 525.19679,112.97744 528.73297,103.04722 533.97161,93.588553 538.32295,83.919606 541.09177,78.49365 543.36931,72.722008 546.60838,67.589539 546.75422,67.532279 546.92186,67.505029 547.0747,67.550679 z"
       inkscape:connector-curvature="0"
       id="path2029"
       style="fill:#dad3b7;stroke:none" />
    <path
       d="M 574.82038,77.557003 C 579.55597,79.339066 583.25349,83.388171 587.72174,85.814648 601.99473,95.763501 617.43328,104.12089 630.73921,115.3673 633.14565,117.47455 628.14818,119.08354 627.33901,120.69105 613.04437,133.29334 598.72658,145.88006 584.03009,157.99618 580.98993,156.64795 579.71248,152.52153 576.93823,150.65173 570.88974,143.82658 564.03551,137.84664 556.79453,132.3044 553.67225,129.71607 550.34793,127.41802 546.8804,125.25705 547.17382,121.97004 550.02089,119.03268 551.23562,115.89737 558.05918,103.78891 563.96701,91.070409 571.57561,79.461118 572.36277,78.47859 573.44875,77.403834 574.82038,77.557003 z"
       inkscape:connector-curvature="0"
       id="path2031"
       style="fill:#bf9784;stroke:none" />
    <path
       d="M 421.86937,37.726009 C 429.03129,38.478428 436.41303,38.984885 443.30039,41.048497 443.84523,53.12213 442.92577,65.423182 442.70734,77.57488 442.49624,83.473324 442.26986,89.372603 441.80429,95.257507 438.04522,95.868339 434.01437,93.395698 430.24359,92.381904 425.00763,89.934499 418.86684,89.731538 413.99017,93.132103 410.47449,94.907784 409.58734,88.169063 407.266,86.351646 399.46572,74.04176 390.57306,62.344822 383.59275,49.578158 382.63429,46.744509 387.3554,46.738575 388.85822,45.53677 396.2532,42.400926 403.64461,39.070289 411.77962,38.419192 415.0901,37.933756 418.49502,37.628415 421.86937,37.726009 z"
       inkscape:connector-curvature="0"
       id="path2033"
       style="fill:#cce198;stroke:none" />
    <path
       d="M 509.12839,377.51353 C 516.26926,378.12291 524.40351,377.56693 530.44283,382.0018 536.32851,385.30281 541.9376,389.58534 544.66541,396.01065 546.90292,403.22619 544.37086,410.98411 541.9841,417.75255 541.12387,420.31614 540.3906,423.48029 538.44789,425.38844 522.70676,415.4429 506.0485,406.6361 488.61954,400.0072 486.60325,398.60482 482.31831,398.37254 481.96559,395.50548 482.61705,392.41303 484.45209,389.30794 485.54067,386.78152 488.36327,382.83532 492.38624,379.63138 497.25681,378.56274 501.08895,377.43115 505.16048,377.46933 509.12839,377.51353 z"
       inkscape:connector-curvature="0"
       id="path2035"
       style="fill:#d764c6;stroke:none" />
    <path
       d="M 562.75451,405.16207 C 572.31019,405.56333 581.01856,410.20449 589.82015,413.53629 592.07573,414.809 589.71191,418.12806 590.00466,420.11371 588.42628,429.17092 586.44674,438.15311 584.65184,447.16919 579.36404,447.60073 573.9435,444.79083 568.93317,442.89465 559.38249,438.43969 549.86241,433.5443 541.16805,427.64229 538.47326,425.3249 542.32773,422.2681 542.44208,419.65271 544.41294,415.72049 544.18237,409.69684 549.0371,408.03767 553.17645,405.71874 558.06017,405.05952 562.75451,405.16207 z"
       inkscape:connector-curvature="0"
       id="path2037"
       style="fill:#9eae8b;stroke:none" />
    <path
       d="M 603.22668,392.43558 C 607.31015,408.19502 612.04799,423.892 615.73944,439.68874 612.95292,444.51536 606.42877,443.9135 601.66453,444.68545 596.43634,445.49553 591.19646,448.51463 585.85648,447.42178 584.68013,445.05093 587.02415,441.9802 586.93676,439.39127 590.35523,423.86762 592.86136,408.04878 597.22289,392.78531 598.89537,391.87993 601.58074,391.78979 603.22668,392.43558 z"
       inkscape:connector-curvature="0"
       id="path2039"
       style="fill:#bc94c3;stroke:none" />
    <path
       d="M 637.07331,307.2944 C 650.84072,311.55589 664.93744,315.14264 678.51697,319.78773 677.75879,324.99436 674.57051,329.81571 672.33831,334.5932 666.13891,344.83391 663.70557,356.54894 658.668,367.33415 652.51781,382.87901 644.43212,397.55632 635.28577,411.5156 630.90001,420.00706 625.77835,427.96033 620.92719,436.13309 619.95201,437.3721 617.12297,440.6562 616.41948,437.72633 612.08797,422.77106 607.77868,407.68251 604.12045,392.61045 605.6296,390.30713 608.66167,389.33624 609.69679,386.49007 616.2784,374.14202 620.73335,360.74554 626.93098,348.21346 629.97746,338.84035 631.93487,329.1222 635.59665,319.94317 636.98801,315.90777 634.87362,311.15951 636.607,307.35269 636.7017,307.41809 636.93006,307.1743 637.07331,307.29439 z"
       inkscape:connector-curvature="0"
       id="path2041"
       style="fill:#d5be93;stroke:none" />
    <path
       d="M 632.93477,117.9126 C 638.06892,122.13355 643.02168,126.85809 648.15307,131.1635 654.61951,138.03929 659.2601,146.57381 665.67391,153.48848 667.81421,155.86797 662.56857,156.41451 661.43689,157.64636 642.28907,167.49976 623.04253,177.18884 603.67357,186.57735 600.91034,185.16303 599.83098,181.44365 597.93114,179.05047 594.80152,171.9756 588.96533,166.66099 585.31245,159.93916 584.27036,157.14989 588.71185,156.10141 589.90231,154.16713 604.01401,141.98821 618.09739,129.74818 632.50732,117.93203 L 632.85706,117.89313 632.93476,117.91253 z"
       inkscape:connector-curvature="0"
       id="path2043"
       style="fill:#ada5be;stroke:none" />
    <path
       d="M 694.6121,243.32032 623.73236,250.78135"
       inkscape:connector-curvature="0"
       id="path2045"
       style="fill:none;stroke:#0000e9;stroke-width:1;stroke-miterlimit:4;stroke-opacity:1;stroke-dasharray:none;stroke-dashoffset:0" />
    <path
       d="M 625.59762,270.05566 696.47735,269.43391"
       inkscape:connector-curvature="0"
       id="path2047"
       style="fill:none;stroke:#0000e9;stroke-width:1;stroke-miterlimit:4;stroke-opacity:1;stroke-dasharray:none;stroke-dashoffset:0" />
    <path
       d="M 667.02346,156.35631 C 672.11541,162.36 675.12584,170.0433 678.87561,176.97128 680.50349,181.14909 683.64317,185.22329 683.90792,189.73663 662.37127,198.22443 640.53547,206.41189 618.62395,213.92667 616.54791,213.31033 616.94445,209.88289 615.90378,208.21432 612.82028,200.96588 607.19128,195.13176 603.52703,188.18225 606.17671,185.41612 610.87175,184.33484 614.28746,182.19971 631.78406,173.56722 649.12269,164.51934 666.7903,156.29803 L 667.02346,156.35633 z"
       inkscape:connector-curvature="0"
       id="path2049"
       style="fill:#dcbf8c;stroke:none" />
    <path
       d="M 684.82111,190.92184 C 688.52385,199.1606 690.50554,208.20307 691.85469,217.09372 688.29961,219.16894 683.45413,219.46698 679.44274,220.87351 660.31066,225.79826 641.16002,231.10202 621.96587,235.51313 619.53463,231.22525 620.2397,225.67122 618.93114,220.94054 618.54287,218.73869 617.08658,214.7959 620.54749,214.37356 641.73965,206.41587 662.9636,198.54288 684.17993,190.64983 L 684.75231,190.89265 684.82112,190.92185 z"
       inkscape:connector-curvature="0"
       id="path2051"
       style="fill:#9970bd;stroke:none" />
    <path
       d="M 692.55416,218.97841 C 693.57413,226.66782 694.40346,234.73128 694.53599,242.3524 691.30518,243.92024 686.90656,243.33068 683.2902,244.13295 663.67942,246.29285 644.02035,248.58053 624.41401,250.43518 623.19807,246.25538 622.31135,241.35687 622.25731,236.89264 623.89226,234.82781 627.64182,235.46642 629.9305,234.2903 650.60237,229.03327 671.25932,223.69665 691.99069,218.68696 L 692.54295,218.97261 692.55416,218.97861 z"
       inkscape:connector-curvature="0"
       id="path2053"
       style="fill:#768e99;stroke:none" />
    <path
       d="M 695.31318,244.10108 C 695.2982,252.31697 695.45863,260.56039 694.51656,268.738 689.74908,269.88059 684.16391,268.95625 679.08982,269.3238 661.62195,269.46029 644.15404,269.60205 626.6873,269.8455 625.13398,265.08602 625.56953,259.32223 624.62774,254.24341 624.1091,252.80337 623.77981,250.31782 626.16269,250.76548 649.03986,248.52319 671.89059,246.01527 694.74972,243.5959 L 695.21266,244.01095 695.31318,244.10105 z"
       inkscape:connector-curvature="0"
       id="path2055"
       style="fill:#c1dfbe;stroke:none" />
    <path
       d="M 628.4554,289.45012 C 648.08837,292.29631 667.77751,294.97456 687.36641,298.15465 687.4641,301.49427 685.15623,305.12388 683.73305,308.33584 681.33026,311.32824 681.41222,315.98477 678.62302,318.57532 667.25771,315.85408 655.98331,311.96881 644.64297,308.84605 638.36704,306.77144 631.50444,305.41249 625.5798,302.85665 626.31079,298.55505 626.10016,294.01816 627.03703,289.761 627.30572,289.21707 627.97543,289.34605 628.4554,289.45012 z"
       inkscape:connector-curvature="0"
       id="path2057"
       style="fill:#939f6c;stroke:none" />
    <path
       d="M 673.24098,270.11752 C 680.10745,270.33667 687.14479,269.8765 693.91424,270.70041 693.1328,278.12714 691.49519,285.7394 689.83697,293.10496 689.52157,295.66641 687.49571,298.31219 684.63733,296.92469 665.72107,294.23685 646.75389,291.56497 627.91137,288.42034 626.54483,283.84509 627.25469,278.4272 626.7179,273.56179 624.97294,268.17055 631.51309,270.5721 634.55635,270.07866 647.45116,270.09716 660.34638,270.03736 673.24098,270.11756 z"
       inkscape:connector-curvature="0"
       id="path2059"
       style="fill:#9b7d71;stroke:none" />
  </g>
</svg>
