<?xml version="1.0" encoding="UTF-8" standalone="no"?>
<!-- Created with Inkscape (http://www.inkscape.org/) -->

<svg
   xmlns:dc="http://purl.org/dc/elements/1.1/"
   xmlns:cc="http://creativecommons.org/ns#"
   xmlns:rdf="http://www.w3.org/1999/02/22-rdf-syntax-ns#"
   xmlns:svg="http://www.w3.org/2000/svg"
   xmlns="http://www.w3.org/2000/svg"
   xmlns:xlink="http://www.w3.org/1999/xlink"
   xmlns:inkscape="http://www.inkscape.org/namespaces/inkscape"
   version="1.1"
   width="740"
   height="520"
   id="svg2"
   style="display:inline;enable-background:new">
  <defs
     id="defs4">
    <filter
       color-interpolation-filters="sRGB"
       id="filter3050">
      <feBlend
         in2="BackgroundImage"
         mode="lighten"
         id="feBlend3052" />
    </filter>
  </defs>
  <metadata
     id="metadata7">
    <rdf:RDF>
      <cc:Work
         rdf:about="">
        <dc:format>image/svg+xml</dc:format>
        <dc:type
           rdf:resource="http://purl.org/dc/dcmitype/StillImage" />
        <dc:title />
      </cc:Work>
    </rdf:RDF>
  </metadata>
  <g
     id="g1261"
     style="display:none">
    <image
       xlink:href="pngs/coronal-0773.png"
       id="image1263"
       height="520"
       width="740"
       y="0"
       x="0" />
  </g>
  <g
     id="g1269"
     style="display:inline">
    <path
       d="M 582.07497,219.69374 C 583.69905,231.50844 583.16983,215.04386 580.20971,210.98921 577.72136,205.50126 575.30119,200.97823 572.32005,196.74338 569.40677,193.53266 566.06798,188.54364 559.97258,183.99986 553.21906,178.63974 543.90627,172.80042 537.93057,169.33182 531.5336,166.72911 524.43498,163.49442 519.27801,161.24904 516.45873,160.12655 512.92258,159.36389 506.22121,157.51853 495.32595,155.98698 483.99447,156.252 473.26835,158.14028 463.10167,161.99909 453.41258,154.12256 447.15476,149.43575 441.31047,146.07274 436.67037,142.20721 430.98921,140.10947 426.12766,137.14068 421.11942,135.48095 417.93242,133.2702 411.76602,131.01554 402.70232,128.23159 398.27317,125.77084 392.91017,123.421 387.02293,121.29428 383.73605,117.7264 381.91938,113.94673 379.20372,110.17463 377.51853,105.91311 376.55868,97.670955 371.49873,92.975991 370.5315,85.437424 372.89494,75.551034 368.58227,63.010021 371.30101,61.768707 372.88521,58.214712 377.19719,55.613465 379.38656,52.265368 381.14724,51.827656 382.71822,48.474296 385.60131,47.468409 387.57297,44.75574 391.05827,43.531147 394.30584,41.250888 397.88891,38.856609 401.88189,36.962892 406.74088,35.655119 417.94552,34.389683 428.84633,34.152559 440.00462,35.655119 449.10331,36.61169 458.12251,37.760203 466.42908,40.629136 472.80615,42.367798 480.64568,44.550806 487.56865,46.224904 494.66215,47.471216 502.90819,51.734648 508.70822,53.064177 514.58498,55.783806 521.27652,56.674561 526.82618,60.022791 532.75766,61.858609 540.27318,65.104639 546.01335,67.364476 554.79047,70.291876 562.64404,74.659706 570.88343,77.312509 577.04805,80.828959 582.65168,82.998728 587.67074,86.017038 594.94202,89.69321 601.35305,92.021607 607.77009,97.151739 616.73366,100.04851 624.14141,107.45523 632.43689,112.75238 644.52787,123.09255 656.05803,134.79906 665.43514,146.92455 670.11468,152.95595 672.17983,156.91287 676.53589,162.51674 680.69085,167.07653 683.28434,172.60684 686.52932,177.4146 689.58158,185.23973 693.9415,193.50031 695.17006,202.03232 697.46416,212.50129 699.99016,225.75327 697.72086,237.72455 697.10415,248.19553 699.8879,261.3165 693.36859,268.1904 689.95445,271.07427 687.52547,276.10228 691.50334,281.86895 695.63309,288.59065 689.76192,295.77861 688.95254,302.01738 687.76512,309.19848 683.93018,314.62639 682.17705,321.03933 680.80476,327.14534 677.34391,332.8873 675.95953,339.69189 673.61529,344.52382 670.76688,350.57852 668.49851,356.4792 665.63197,359.89857 664.65348,367.06003 661.65924,370.15775 659.91425,375.06195 657.76643,378.34397 655.44171,381.97104 654.92408,389.22535 649.79412,386.18579 648.60244,393.78432 646.64546,396.4509 644.18809,398.15875 641.48719,401.80042 639.45804,404.11029 636.97086,408.08163 633.68039,410.57163 630.54717,412.71777 627.71565,414.39263 623.11061,416.78915 616.96709,419.03674 609.98738,420.59004 603.21454,418.03266 597.7515,416.82209 595.18328,422.94283 589.53599,422.38492 586.24526,425.70294 579.19735,424.60716 574.61394,423.00667 571.10653,420.20991 565.88251,419.26342 560.9354,417.4109 557.87025,415.07821 553.57643,413.83571 550.36561,411.19338 546.64915,409.26342 544.79771,406.81771 540.41758,404.35411 537.67552,402.52442 534.35325,400.22212 531.0913,398.75834 527.44381,395.98908 523.33827,391.96842 520.52151,388.81031 518.93669,386.65113 515.57374,383.67442 515.54749,383.83629 513.2479,383.37743 510.18608,379.38932 506.10879,378.43427 500.85586,375.47222 495.04913,375.23549 489.84193,373.59817 484.14554,373.62457 477.08944,376.61414 473.13541,372.71888 471.31128,370.64335 467.2254,368.93369 469.1786,366.12421 471.78896,363.29006 475.11354,361.03733 479.73009,358.2106 483.67362,354.83564 488.84827,350.78127 492.4798,347.21947 494.97338,344.01546 498.15162,342.50058 499.95376,339.7455 503.24404,337.16035 505.39947,333.38831 507.42773,330.51295 509.55448,328.18447 511.48544,326.14632 513.58276,322.59934 515.425,319.17188 518.11097,316.57965 519.29815,312.4875 521.66227,308.46036 523.39854,304.32778 524.57389,300.17744 526.88305,296.15394 528.5915,292.0185 530.72892,287.86738 532.55399,283.20786 534.99147,280.60043 535.56502,275.55731 537.37687,272.96246 537.9767,268.16298 540.40111,266.76441 541.53885,262.3681 541.17342,255.3535 540.40111,249.1786 539.13824,242.43708 536.10175,236.59548 533.36679,230.27386 530.75111,227.75213 529.32959,223.37602 526.77212,220.16203 525.54785,216.76533 522.1493,213.75728 520.56991,211.56427 517.30514,207.28607 515.43631,205.24995 512.26383,202.57622 508.76014,198.92988 505.50626,196.12066 500.83305,193.78332 494.97873,193.38847 490.09309,192.29061 485.44547,188.94722 482.68291,186.1385 481.67109,182.34147 479.29044,180.15432 477.27891,175.21816 473.93189,170.2024 470.05592,165.08119 468.55261,164.34638 464.94811,159.86794 463.02357,158.61171 461.08924,157.21693 462.47667,159.39347 461.70464,157.29277"
       inkscape:connector-curvature="0"
       id="path1271"
       style="fill:none;stroke:#e20000;stroke-opacity:1" />
    <path
       d="M 435.76558,88.26849 C 435.33833,86.830142 435.92102,86.779789 438.40345,84.311684 441.97537,82.097145 449.16371,83.02037 451.15315,87.3892 453.87053,88.766816 454.702,90.635949 457.30819,91.785651 459.88409,93.883351 462.85092,94.201926 466.10109,95.742457 470.59223,97.887267 474.62815,98.572011 479.29044,100.57855 484.66026,102.10518 489.45982,103.78914 494.72353,104.95224 499.72767,106.19943 505.28674,108.9386 510.94489,109.37146 515.17338,110.92478 519.68731,111.50867 523.66377,112.98666 528.61222,114.79386 533.79881,115.61856 538.64253,118.16436 542.86515,119.12502 546.54097,121.64512 550.51295,122.56081 554.54391,124.57173 558.05065,126.33091 561.94373,127.83655 564.55975,129.71371 568.88648,131.00655 570.73663,132.67265 573.1889,134.09189 576.38312,136.22582 577.77095,137.50874 580.3634,138.50496 581.75617,140.60395 583.92598,141.46555 586.47447,143.78506 589.68236,146.19618 592.27727,148.81432 594.51086,152.18602 597.67527,155.45296 599.31356,157.73242 601.17212,158.99985 603.92384,162.84048 605.46859,165.20639 607.59414,167.2151 609.14849,170.00114 611.18398,172.24071 612.68452,175.16832 615.24744,177.32803 616.89937,180.59397 619.15251,184.24239 620.52405,185.93498 622.17511,188.94722 623.66043,191.08745 627.46061,195.35092 627.705,197.41724 630.10816,200.55448 631.13941,203.2968 632.72659,206.97267 635.18281,210.53193 636.50136,215.85517 638.00233,220.16203 641.1637,226.85518 642.35956,232.94034 643.27807,240.3857 644.38811,249.52705 643.43017,258.67056 642.39878,267.20405 640.94367,272.11066 640.01495,275.96927 638.00233,280.39341 636.72392,285.28346 635.1655,288.98969 633.60588,292.70347 631.42699,295.58717 630.98626,298.96628 628.76978,302.37566 628.12954,305.20546 625.67261,307.83711 624.52446,309.53364 622.66813,311.51268 621.48121,314.44965 619.97688,316.44431 618.82621,318.77118 617.23542,320.0848 616.02008,322.1597 614.21613,323.9028 613.41684,326.27516 611.62362,327.43544 610.52908,328.83376 608.30444,330.86792 608.10646,331.83189 608.34005,332.58654 605.33664,334.9464 602.83072,336.66798 599.27165,339.31547 597.25283,339.88051 594.47746,342.82302 591.9366,343.96235 590.27385,345.59445 587.44314,347.21947 585.41849,349.35219 581.56668,350.1429 579.08989,352.05556 576.39263,352.99266 574.48423,354.87673 571.17627,356.01237 568.24849,357.68697 565.29875,359.43623 562.38337,359.96918 560.31797,361.13681 553.67149,365.81953 554.03011,361.28811 555.50244,359.81238 557.45598,358.25329 560.18515,357.3313 562.01638,355.89189 564.6733,354.75049 566.77982,352.93485 569.53737,351.56809 571.55506,350.04152 573.81414,348.97805 576.28657,347.67751 578.05789,345.99095 580.40882,345.02124 582.59113,343.03954 585.27195,341.77819 588.32243,340.18515 590.20795,339.0142 592.69778,337.73705 594.32633,336.54433 596.49372,334.83949 598.0671,333.86833 599.75321,332.27153 601.85436,331.22327 602.57679,329.91553 604.5893,328.31473 605.8635,326.25532 609.34065,324.59027 610.30469,322.1597 612.06086,320.6025 613.03921,318.43433 614.70114,316.00466 615.5382,313.70937 617.79999,311.57346 619.14477,310.04478 621.31445,307.57365 622.6387,303.07286 624.37333,300.61708 624.95588,297.30998 627.30676,295.01559 628.33014,291.82418 629.21189,290.99433 632.34412,283.06649 630.52836,285.66915 631.21198,289.65625 631.654,278.50318 632.72659,275.99696 635.0044,270.20382 634.50217,262.00206 635.36446,254.89399 636.07948,246.89254 634.35494,239.78891 632.28695,232.91174 631.60336,227.50506 629.2649,222.37245 628.33014,217.52416 626.3485,213.30545 625.84153,208.91179 623.49404,205.65374 622.29649,202.89396 620.29783,200.34093 618.65795,197.30048 617.79711,193.86112 614.18871,191.68914 612.50291,188.94722 611.42917,186.85648 609.66978,184.4526 608.10646,181.9129 606.41858,180.09132 605.29711,177.92532 603.71001,176.63716 602.73555,175.35526 600.80581,172.67965 599.75321,171.36142 597.12725,167.77208 593.69391,164.6295 589.64137,161.24958 585.16552,158.18941 581.80277,153.75348 576.89166,150.6981 574.79904,149.3154 570.92093,146.5726 569.45621,145.55891 565.37237,143.24722 561.58942,140.52936 557.98692,138.82768 552.94069,135.77475 548.60023,134.27673 543.47863,131.79336 538.91606,130.0594 534.48508,127.08286 529.40999,126.07797 526.12654,124.16363 521.2016,123.70514 517.09992,121.24187 511.42605,119.43491 504.97906,118.42008 499.07447,118.16436 493.89006,117.48224 486.74143,114.39076 481.92831,117.72471 478.09887,119.99336 476.87585,121.05618 474.0147,123.4401 468.79506,125.43893 466.00038,128.68252 459.94606,128.2762 457.04424,126.84579 454.50554,125.81797 452.91174,123.87974 450.37875,122.16097 449.88209,118.02461 448.07564,115.52649 447.07686,112.98394 445.49616,111.36251 444.11883,108.49217 441.95197,105.89089 440.51146,102.53743 438.40345,99.699263 437.2445,98.19456 436.00597,96.93262 434.44664,95.742457 433.22958,92.721047 434.54204,91.170227 435.76558,88.26849 z"
       inkscape:connector-curvature="0"
       id="path1273"
       style="opacity:0.6;fill:none;stroke:#e20000;stroke-opacity:1" />
    <path
       d="M 618.2183,189.82651 C 616.66005,187.65855 616.07671,184.2565 612.94256,181.47326 610.51009,176.32604 605.55013,172.7039 602.76685,167.87152 601.04557,164.75832 597.76474,161.42804 596.23605,159.491 594.02972,157.93547 592.65308,156.09307 590.08101,154.21526 587.27468,151.09438 585.10085,149.96504 582.1674,147.18094 578.29156,144.0251 574.34158,142.08436 570.29698,139.26732 566.48314,137.16672 563.58044,134.36005 560.18515,133.11229 556.04558,131.15843 551.97164,128.59215 547.43544,126.95726 543.53906,125.40286 539.46585,123.78456 535.3452,122.56081 531.09698,121.14549 527.57213,120.44464 523.6946,118.604 518.4587,117.31782 513.96918,114.46285 508.74667,113.76791 504.71987,112.19403 500.99318,111.35742 496.87625,110.25075 492.44094,109.44031 488.11122,108.45381 483.68689,107.61288 480.26598,106.79772 477.64599,105.87702 474.45435,104.975 470.23099,104.40986 466.51808,102.07604 463.02357,101.0182 458.99482,99.118438 454.88169,97.888234 451.15315,95.742457 449.28516,94.33661 442.62375,93.678612 446.31706,97.501038 448.04145,99.76732 448.2205,103.13822 449.83422,104.975 450.17777,107.06626 451.06703,109.28629 452.03244,110.25075 452.81271,112.2549 453.92191,113.93012 455.98925,114.6472 458.80543,115.9096 461.36293,113.20633 463.68304,112.88862 466.95966,111.66427 472.44895,111.64773 476.21293,112.88862 481.55512,113.27864 487.03075,113.53467 491.60051,114.6472 495.44749,114.6422 498.82757,116.45069 503.03128,116.40578 507.80788,117.36841 513.22378,117.65307 518.81727,118.16436 520.94111,118.38389 525.23925,117.54647 521.27988,119.03284 L 520.61708,118.604"
       inkscape:connector-curvature="0"
       id="path1275"
       style="opacity:0.6;fill:none;stroke:#e20000;stroke-opacity:1" />
    <path
       d="M 582.60705,222.7999 C 602.30824,271.03524 563.7753,302.77245 495.55731,373.15853"
       inkscape:connector-curvature="0"
       id="path1277"
       style="fill:none;stroke:#0000e9;stroke-width:0.99000001;stroke-miterlimit:4;stroke-opacity:1;stroke-dasharray:1.98, 3.96;stroke-dashoffset:0" />
    <path
       d="M 606.3233,331.60912 666.63325,358.96621"
       inkscape:connector-curvature="0"
       id="path3781"
       style="fill:none;stroke:#0000e9;stroke-width:0.99000001;stroke-miterlimit:4;stroke-opacity:1;stroke-dasharray:none;stroke-dashoffset:0" />
    <path
       d="M 456.48105,90.991055 468.91609,39.385631"
       inkscape:connector-curvature="0"
       id="path3783"
       style="fill:none;stroke:#0000e9;stroke-width:0.99000001;stroke-miterlimit:4;stroke-opacity:1;stroke-dasharray:none;stroke-dashoffset:0" />
    <path
       d="M 444.046,84.151781 429.7457,33.16811"
       inkscape:connector-curvature="0"
       id="path3785"
       style="fill:none;stroke:#0000e9;stroke-width:0.99000001;stroke-miterlimit:4;stroke-opacity:1;stroke-dasharray:none;stroke-dashoffset:0" />
    <path
       d="M 435.34147,84.773534 C 416.37328,76.00626 402.19467,60.852865 388.08831,45.603152"
       inkscape:connector-curvature="0"
       id="path3787"
       style="fill:none;stroke:#0000e9;stroke-width:0.99000001;stroke-miterlimit:4;stroke-opacity:1;stroke-dasharray:none;stroke-dashoffset:0" />
    <path
       d="M 432.85447,95.34332 C 411.59102,89.454533 391.5367,76.310993 371.92276,60.525202"
       inkscape:connector-curvature="0"
       id="path3789"
       style="fill:none;stroke:#0000e9;stroke-width:0.99000001;stroke-miterlimit:4;stroke-opacity:1;stroke-dasharray:none;stroke-dashoffset:0" />
    <path
       d="M 443.42425,110.26537 C 424.04823,113.72468 400.62336,112.60457 376.27502,102.80434"
       inkscape:connector-curvature="0"
       id="path3791"
       style="fill:none;stroke:#0000e9;stroke-width:0.99000001;stroke-miterlimit:4;stroke-opacity:1;stroke-dasharray:none;stroke-dashoffset:0" />
    <path
       d="M 446.53301,114.61763 C 438.66556,124.88663 422.21602,126.60416 407.98439,128.91793"
       inkscape:connector-curvature="0"
       id="path1285"
       style="fill:none;stroke:#0000e9;stroke-width:0.99000001;stroke-miterlimit:4;stroke-opacity:1;stroke-dasharray:none;stroke-dashoffset:0" />
    <path
       d="M 526.73903,112.75238 545.39159,64.877467"
       inkscape:connector-curvature="0"
       id="path3795"
       style="fill:none;stroke:#0000e9;stroke-width:0.99000001;stroke-miterlimit:4;stroke-opacity:1;stroke-dasharray:none;stroke-dashoffset:0" />
    <path
       d="M 603.21454,94.099815 C 593.45993,107.7043 582.8505,126.20859 575.85745,135.13545"
       inkscape:connector-curvature="0"
       id="path3797"
       style="fill:none;stroke:#0000e9;stroke-width:0.99000001;stroke-miterlimit:4;stroke-opacity:1;stroke-dasharray:none;stroke-dashoffset:0" />
    <path
       d="M 595.75351,153.78802 634.30214,117.10464"
       inkscape:connector-curvature="0"
       id="path3799"
       style="fill:none;stroke:#0000e9;stroke-width:0.99000001;stroke-miterlimit:4;stroke-opacity:1;stroke-dasharray:none;stroke-dashoffset:0" />
    <path
       d="M 609.43206,169.33182 655.44172,135.75721"
       inkscape:connector-curvature="0"
       id="path3801"
       style="fill:none;stroke:#0000e9;stroke-width:0.99000001;stroke-miterlimit:4;stroke-opacity:1;stroke-dasharray:none;stroke-dashoffset:0" />
    <path
       d="M 629.94988,201.66293 682.79881,172.44058"
       inkscape:connector-curvature="0"
       id="path1291"
       style="fill:none;stroke:#0000e9;stroke-width:0.99000001;stroke-miterlimit:4;stroke-opacity:1;stroke-dasharray:none;stroke-dashoffset:0" />
    <path
       d="M 641.14142,229.02002 694.6121,206.01519"
       inkscape:connector-curvature="0"
       id="path1293"
       style="fill:none;stroke:#0000e9;stroke-width:0.99000001;stroke-miterlimit:4;stroke-opacity:1;stroke-dasharray:none;stroke-dashoffset:0" />
    <path
       d="M 642.38492,250.78134 697.72086,247.05083"
       inkscape:connector-curvature="0"
       id="path1295"
       style="fill:none;stroke:#0000e9;stroke-width:0.99000001;stroke-miterlimit:4;stroke-opacity:1;stroke-dasharray:none;stroke-dashoffset:0" />
    <path
       d="M 640.51967,276.27317 691.50334,280.62544"
       inkscape:connector-curvature="0"
       id="path3809"
       style="fill:none;stroke:#0000e9;stroke-width:0.99000001;stroke-miterlimit:4;stroke-opacity:1;stroke-dasharray:none;stroke-dashoffset:0" />
    <path
       d="M 631.81514,295.54749 687.15107,309.84779"
       inkscape:connector-curvature="0"
       id="path3811"
       style="fill:none;stroke:#0000e9;stroke-width:0.99000001;stroke-miterlimit:4;stroke-opacity:1;stroke-dasharray:none;stroke-dashoffset:0" />
    <path
       d="M 523.63027,391.91907 C 554.18568,366.48899 597.42394,388.52786 596.99702,418.03266"
       inkscape:connector-curvature="0"
       id="path3813"
       style="fill:none;stroke:#0000e9;stroke-width:0.99000001;stroke-miterlimit:4;stroke-opacity:1;stroke-dasharray:none;stroke-dashoffset:0" />
    <path
       d="M 514.30399,383.83629 C 518.81884,358.25513 540.61413,367.23484 554.09612,359.58796"
       inkscape:connector-curvature="0"
       id="path3815"
       style="fill:none;stroke:#0000e9;stroke-width:0.99000001;stroke-miterlimit:4;stroke-opacity:1;stroke-dasharray:none;stroke-dashoffset:0" />
    <path
       d="M 563.42241,360.20971 C 597.49672,370.61702 621.30034,386.73028 625.59761,413.68039"
       inkscape:connector-curvature="0"
       id="path3817"
       style="fill:none;stroke:#0000e9;stroke-width:0.99000001;stroke-miterlimit:4;stroke-opacity:1;stroke-dasharray:none;stroke-dashoffset:0" />
    <path
       d="M 559.69189,362.07497 C 558.67704,367.83153 559.09874,373.94722 564.66591,381.34928"
       inkscape:connector-curvature="0"
       id="path3819"
       style="fill:none;stroke:#0000e9;stroke-width:0.99000001;stroke-miterlimit:4;stroke-opacity:1;stroke-dasharray:none;stroke-dashoffset:0" />
    <path
       d="M 593.26651,403.11061 C 600.53081,402.02174 605.55487,412.13406 611.29732,418.65441"
       inkscape:connector-curvature="0"
       id="path3821"
       style="fill:none;stroke:#0000e9;stroke-width:0.99000001;stroke-miterlimit:4;stroke-opacity:1;stroke-dasharray:none;stroke-dashoffset:0" />
    <path
       d="M 458.3463,127.67443 C 458.3463,128.50343 457.5173,130.16144 458.3463,130.16144 459.1753,130.16144 458.93249,127.08824 458.3463,127.67443 451.77465,134.24608 458.88345,129.08714 457.72455,131.40494 457.59347,131.66709 457.23387,131.76454 457.1028,132.02669 457.0101,132.21206 457.24935,132.5019 457.1028,132.64845 456.27379,133.47745 456.48105,131.61219 456.48105,133.2702 456.48105,134.9282 456.6883,133.06295 455.85929,133.89195 455.54842,134.20283 456.17017,135.44633 455.85929,135.75721 455.71274,135.90375 455.38409,135.61066 455.23754,135.75721 454.94444,136.0503 455.42291,136.62997 455.23754,137.00071 455.10646,137.26286 454.74687,137.36031 454.61579,137.62246 454.43042,137.9932 454.80116,138.49522 454.61579,138.86597 454.48471,139.12812 454.12511,139.22556 453.99404,139.48772 453.68477,140.10626 453.83643,143.68238 453.99404,143.83998 454.14058,143.98653 454.46924,143.69343 454.61579,143.83998 454.92666,144.15086 454.30491,145.39436 454.61579,145.70524 454.76234,145.85179 455.09099,145.55869 455.23754,145.70524 455.38409,145.85179 455.09099,146.18044 455.23754,146.32699 455.38409,146.47354 455.71274,146.18044 455.85929,146.32699 456.00584,146.47354 455.71274,146.8022 455.85929,146.94874 456.00584,147.09529 456.3345,146.8022 456.48105,146.94874 457.76747,148.23517 454.51521,146.89844 457.1028,148.19225 457.47354,148.37762 458.0532,147.89915 458.3463,148.19225 458.49285,148.3388 458.19975,148.66745 458.3463,148.814 458.49285,148.96055 458.78268,148.7213 458.96805,148.814 459.23021,148.94508 459.32765,149.30467 459.58981,149.43575 460.25301,149.76735 461.41361,149.10415 462.07681,149.43575 462.33897,149.56683 462.43641,149.92643 462.69857,150.0575 462.94853,150.18249 472.39663,150.18249 472.6466,150.0575 472.90875,149.92643 473.0062,149.56683 473.26835,149.43575 473.64375,149.24805 474.84619,149.72317 475.13361,149.43575 475.28016,149.2892 474.98706,148.96055 475.13361,148.814 475.17061,148.777 479.07033,148.814 479.48587,148.814 480.93385,148.814 480.21738,148.7591 481.35113,148.19225 481.72653,148.00455 482.92897,148.47966 483.21639,148.19225 483.36293,148.0457 483.06984,147.71704 483.21639,147.5705 483.50948,147.2774 484.16679,147.86359 484.45989,147.5705 484.60644,147.42395 484.31334,147.09529 484.45989,146.94874 484.77077,146.63787 486.01427,147.25962 486.32515,146.94874 486.47169,146.8022 486.47169,146.47354 486.32515,146.32699 486.1786,146.18044 485.88876,146.41969 485.70339,146.32699 484.69704,145.82381 483.34242,143.96602 482.59463,143.21823"
       inkscape:connector-curvature="0"
       id="path3823"
       style="fill:none;stroke:#0000e9;stroke-width:0.99000001;stroke-miterlimit:4;stroke-opacity:1;stroke-dasharray:none;stroke-dashoffset:0" />
    <path
       d="M 432.23271,140.73122 C 433.06171,140.52397 433.89072,140.31672 434.71972,140.10947 434.47678,139.56415 434.83926,139.30314 435.34147,139.48772 435.79224,138.64321 436.91903,137.85425 436.50505,136.80346 436.23182,135.93041 437.67672,136.83166 437.16551,135.89557 437.30287,135.53129 438.17557,136.04188 437.90362,135.24945 437.68949,134.55607 437.57697,133.63819 438.4885,133.83076 438.19622,132.67192 439.75323,132.37219 440.23716,131.54064 440.35339,131.11358 440.133,130.47383 440.87446,130.81926 441.06558,130.54725 440.70199,129.8252 441.42063,130.20266 441.81756,130.09324 441.23121,129.13846 442.04238,129.5809 442.43933,129.4715 441.85297,128.51671 442.66413,128.95915 443.06648,128.86105 442.46956,127.90777 443.26951,128.31468 444.15155,128.13878 444.67833,127.05271 445.60039,127.05268 446.27933,127.01338 446.59853,126.03064 447.46564,126.35915 448.47321,125.94792 448.75262,127.40327 449.67089,127.01228 450.39928,126.68591 450.21012,127.3789 450.3263,127.7105 450.93448,127.42926 450.9583,127.84514 450.88528,128.29618 451.33631,128.22318 451.75221,128.24698 451.47096,128.85515 451.74297,129.04627 452.46502,128.68268 452.08756,129.40132 452.19698,129.79825 453.15175,129.21191 452.70931,130.02307 452.83066,130.41251 453.78438,129.83487 453.39179,130.68369 453.03634,130.98458 453.47449,131.78792 453.42839,131.13661 453.00307,130.3833 455.74054,132.8199 455.85928,133.89195"
       inkscape:connector-curvature="0"
       id="path3825"
       style="fill:none;stroke:#0000e9;stroke-width:0.99000001;stroke-miterlimit:4;stroke-opacity:1;stroke-dasharray:none;stroke-dashoffset:0" />
    <path
       d="M 452.75053,143.83998 C 453.70558,145.96855 451.42572,145.86786 450.88528,146.94874 450.79258,147.13411 450.97798,147.38512 450.88528,147.5705 449.88787,149.5653 450.63917,146.81919 449.64177,148.814 449.54907,148.99937 449.78832,149.2892 449.64177,149.43575 449.49522,149.5823 449.16657,149.2892 449.02002,149.43575 448.87347,149.5823 449.16657,149.91096 449.02002,150.0575 448.87347,150.20405 448.54482,149.91096 448.39827,150.0575 448.25172,150.20405 448.19102,150.67926 448.39827,150.67926 448.81277,150.67926 448.39827,149.85025 448.39827,149.43575"
       inkscape:connector-curvature="0"
       id="path3827"
       style="fill:none;stroke:#0000e9;stroke-width:0.99000001;stroke-miterlimit:4;stroke-opacity:1;stroke-dasharray:none;stroke-dashoffset:0" />
    <path
       d="M 555.61579,381.18362 C 571.79462,381.81417 588.05881,391.56577 594.417,406.71431 595.66484,410.63438 597.22467,415.02616 596.55427,419.12992 592.9429,422.18848 587.77712,422.59228 583.45862,424.3371 575.65335,423.98761 569.02696,419.35654 561.71673,417.10923 550.65868,411.77068 541.04857,403.92119 530.5514,397.66005 528.75397,395.8014 525.45821,394.50216 524.8002,391.90884 531.60884,385.81382 540.74139,382.23469 549.84515,381.33905 551.76383,381.16875 553.69079,381.12519 555.61579,381.18362 z"
       inkscape:connector-curvature="0"
       id="path1307"
       style="fill:#d764c6;stroke:none" />
    <path
       d="M 563.1351,360.68523 C 576.2705,364.42755 589.0326,370.10242 600.50598,377.57176 613.19836,385.66957 622.58319,398.65735 625.43907,413.52911 626.02674,416.23534 621.72245,416.37996 619.90884,417.38125 616.5427,418.69658 611.92467,419.72928 609.68879,416.02116 605.31864,410.88282 601.60826,404.19504 594.63073,402.40091 590.01802,398.90037 587.35216,393.1644 582.35113,390.1213 577.17412,386.45036 571.38479,383.65006 565.44724,381.64993 562.83552,379.11664 561.52055,375.18078 560.27893,371.77962 560.08502,368.34839 558.84665,363.87929 561.21155,361.03496 561.74635,360.62426 562.49433,360.6407 563.1351,360.68523 z"
       inkscape:connector-curvature="0"
       id="path1309"
       style="fill:#81728f;stroke:none" />
    <path
       d="M 552.91505,360.9961 C 554.09792,361.49502 553.71107,363.99666 555.77122,363.40539 559.12417,361.47697 559.72729,364.02183 559.22972,367.1942 559.03671,372.17792 561.21225,376.85972 563.64027,381.00875 559.04718,381.49255 554.14884,379.79139 549.38139,380.87074 540.14248,381.70313 531.16094,385.41814 523.98415,391.26766 520.65452,389.29917 518.19405,385.49487 515.16304,382.87401 515.91243,374.28031 522.82595,366.48577 531.56175,365.40666 538.67579,363.92608 545.90716,362.77908 552.91505,360.9961 z"
       inkscape:connector-curvature="0"
       id="path1311"
       style="fill:#6d7c6d;stroke:none" />
    <path
       d="M 608.9116,333.42529 C 628.00502,341.53697 646.90599,350.4507 665.84077,359.05313 666.41482,361.63305 664.03352,364.42341 663.15947,366.86389 660.67738,372.04619 657.66212,377.17403 655.15441,382.29111 654.44601,386.7344 649.25656,388.72867 648.27628,393.09406 643.44053,399.07746 638.77416,405.39225 632.92677,410.46425 630.97983,411.39532 628.40682,414.89671 626.14579,413.16499 624.15338,406.95351 622.75552,400.32035 618.82077,394.86216 606.75089,376.47959 585.57998,367.03499 565.27237,360.52979 565.93353,357.92837 571.51152,356.96948 574.01054,355.00752 585.36882,349.49641 595.81924,342.51718 605.83243,334.80668 606.75143,334.23052 607.75907,333.38662 608.9116,333.42529 z"
       inkscape:connector-curvature="0"
       id="path1313"
       style="fill:#939f6c;stroke:none" />
    <path
       d="M 659.11808,302.94 C 667.95861,305.21976 676.79915,307.49952 685.63969,309.77928 685.6998,312.9813 682.94369,316.26637 682.27602,319.63711 678.01665,332.83706 673.16141,345.89342 666.98713,358.3148 660.2654,356.27507 653.78272,352.49438 647.16468,349.77351 634.54576,343.94274 621.8096,338.31983 609.30019,332.27893 609.31329,329.41791 612.62559,327.40599 614.07991,325.05106 620.8271,315.98441 627.48714,306.7807 632.05243,296.39218 637.77277,296.86715 643.68388,299.26389 649.47568,300.45871 652.68981,301.28581 655.90394,302.11291 659.11808,302.94 z"
       inkscape:connector-curvature="0"
       id="path1315"
       style="fill:#ba9676;stroke:none" />
    <path
       d="M 641.49529,276.94299 C 657.46053,278.04215 673.50709,278.95583 689.3702,280.90666 693.81517,282.92356 692.24287,288.91006 691.41033,292.66166 689.93662,298.06563 688.09074,303.39874 686.76662,308.88551 682.29942,308.94151 677.50818,306.64282 672.91967,305.81728 659.76355,302.34623 646.49876,299.18402 633.43194,295.44012 632.70047,293.04145 635.49717,290.53252 635.78016,288.05483 637.40518,284.47924 637.78958,280.0599 640.17407,276.96242 640.59987,276.84592 641.06325,276.97732 641.49529,276.94302 z"
       inkscape:connector-curvature="0"
       id="path1317"
       style="fill:#9b7d71;stroke:none" />
    <path
       d="M 697.35583,247.85665 C 697.69622,255.34608 697.33188,263.58933 691.88771,269.32963 689.08719,272.15837 689.01433,275.98832 689.58393,279.74088 686.65826,280.64635 682.86105,279.18015 679.59574,279.28569 666.82157,277.98257 653.86489,277.51292 641.20385,275.6412 640.18628,272.44583 642.7858,268.9774 642.70014,265.62312 643.73415,260.96924 643.16625,255.55748 644.81778,251.23743 662.09298,249.4458 679.49367,248.77861 696.8118,247.35148 L 697.26741,247.77455 697.35583,247.85665 z"
       inkscape:connector-curvature="0"
       id="path1319"
       style="fill:#c1dfbe;stroke:none" />
    <path
       d="M 695.74316,206.76273 C 698.83078,219.73699 697.91507,233.20783 697.04495,246.39942 691.90779,247.79168 685.91092,247.29539 680.45152,247.97978 668.56871,248.76553 656.69254,249.70083 644.79835,250.28537 643.35331,246.25105 643.97351,241.15014 643.04212,236.78757 643.18217,234.24895 641.11493,231.13082 642.33077,228.91265 659.89164,221.24 677.53433,213.65549 695.29628,206.49071 L 1435.7432,206.76273 z"
       inkscape:connector-curvature="0"
       id="path1321"
       style="fill:#768e99;stroke:none" />
    <path
       d="M 683.46356,173.01325 C 688.94455,182.46703 692.66462,192.97025 695.23799,203.53739 695.94217,206.54438 691.25006,206.31131 689.63598,207.71123 673.80225,214.64665 657.89935,221.42236 642.0199,228.25203 639.45379,224.92755 638.68793,219.92784 636.90524,215.92531 635.53621,210.93079 632.37387,206.46272 631.13923,201.53612 648.16592,191.71437 665.62496,182.48743 682.78352,172.83838 L 683.38568,172.99322 683.46356,173.01322 z"
       inkscape:connector-curvature="0"
       id="path1323"
       style="fill:#9970bd;stroke:none" />
    <path
       d="M 656.10647,136.23273 C 665.46514,147.36873 674.18999,159.09292 682.04519,171.32286 682.2948,173.53061 678.36345,173.68722 677.10048,175.09945 661.70374,183.55871 646.51914,192.4996 630.7895,200.29262 628.04151,198.92874 627.42191,194.91552 625.35963,192.69916 620.23418,185.20669 615.13988,177.51152 610.07738,169.90449 612.89266,166.42929 617.69371,164.18696 621.25179,161.17293 632.64648,152.8472 644.09402,144.59041 655.40699,136.15501 L 656.02494,136.22371 656.10646,136.23271 z"
       inkscape:connector-curvature="0"
       id="path1325"
       style="fill:#dcbf8c;stroke:none" />
    <path
       d="M 639.29973,119.42599 C 644.53778,124.43974 650.32089,129.30213 654.35779,135.3001 648.29985,141.01105 640.91677,145.5615 634.28174,150.73967 625.93831,156.48293 618.12514,163.29935 609.20304,168.0198 606.60325,167.47119 605.55188,163.87128 603.68499,162.0743 601.67487,159.00393 598.20246,156.6976 596.70971,153.56407 609.60466,141.22313 622.4774,128.98779 635.14176,116.43381 636.7695,116.39221 637.92286,118.65837 639.29973,119.42599 z"
       inkscape:connector-curvature="0"
       id="path1327"
       style="fill:#ada5be;stroke:none" />
    <path
       d="M 603.45184,95.507964 C 614.87534,99.841585 624.71342,107.55627 634.28685,115.01544 635.74816,115.87196 635.09274,117.35425 633.68453,117.52187 620.77493,128.71662 608.96003,141.51613 595.97138,152.63144 594.56217,151.96685 594.32158,149.76989 592.72661,148.95921 587.87352,144.04209 582.01107,140.00155 576.63878,135.86356 577.0896,132.43859 580.60696,129.98209 582.03447,126.85481 589.09125,116.52304 595.50462,105.54773 602.88837,95.527394 603.06674,95.472334 603.26979,95.468444 603.45184,95.507964 z"
       inkscape:connector-curvature="0"
       id="path1329"
       style="fill:#dad3b7;stroke:none" />
    <path
       d="M 545.78783,67.781707 C 565.05767,74.714531 583.52003,83.847322 601.51236,93.526129 601.56336,96.875506 598.29871,99.740244 596.94287,102.75521 589.87069,113.38846 583.37747,124.49786 575.45706,134.50348 572.54467,134.30667 570.23116,131.31059 567.39372,130.4038 554.64526,123.47419 541.05301,118.29541 527.31014,113.71364 527.53444,109.6835 530.31801,105.54951 531.50002,101.48051 536.00939,90.274209 539.98993,78.781302 545.14665,67.878856 L 545.61296,67.742848 545.78783,67.781708 z"
       inkscape:connector-curvature="0"
       id="path1331"
       style="fill:#b478b6;stroke:none" />
    <path
       d="M 469.60377,41.842988 C 494.8822,48.087399 519.37637,57.150714 543.55341,66.75193 543.84531,69.740023 541.31133,72.889169 540.66077,75.899927 535.95659,88.268308 531.09978,100.57804 526.31922,112.91702 521.6292,112.7385 516.7446,110.31751 511.94136,109.40083 499.03074,106.44754 486.34745,102.3228 473.75937,98.231972 468.39523,95.826558 461.97008,94.906064 457.44075,91.058551 457.08639,87.233753 459.20271,83.24539 459.68089,79.38459 462.77097,66.906678 465.3334,54.174812 468.88487,41.881847 469.10729,41.770507 469.36843,41.791947 469.60377,41.842987 z"
       inkscape:connector-curvature="0"
       id="path1333"
       style="fill:#a39ccb;stroke:none" />
    <path
       d="M 436.37889,35.644896 C 446.90484,36.745237 457.46485,38.198303 467.64137,41.318384 467.74694,45.797932 465.5474,50.613907 464.78998,55.219407 461.87342,66.602322 459.59099,78.243598 456.25553,89.465311 453.87279,90.558298 452.23711,86.851251 450.44603,85.793088 448.58737,83.993975 446.0613,83.307437 443.85935,82.237443 439.59101,66.765298 434.98482,51.37907 430.97742,35.839194 431.7421,34.423488 434.91578,35.909504 436.37889,35.644896 z"
       inkscape:connector-curvature="0"
       id="path1335"
       style="fill:#abd9cd;stroke:none" />
    <path
       d="M 429.96708,35.139723 C 434.36115,50.784507 438.7458,66.431934 443.12102,82.082005 441.45641,83.34319 438.80387,83.56074 436.86464,84.763311 426.95987,81.033787 418.46242,74.091429 410.38188,67.354253 402.62379,60.718012 395.57893,53.340094 388.89258,45.631789 390.66933,43.020454 394.70138,41.861524 397.44672,39.977479 406.29156,34.718943 417.04052,35.255811 426.97488,34.783544 427.92152,35.004263 429.2367,34.300564 429.96708,35.139723 z"
       inkscape:connector-curvature="0"
       id="path1337"
       style="fill:#a36ed8;stroke:none" />
    <path
       d="M 388.13482,46.272971 C 402.03405,60.886594 416.15722,75.925427 434.57193,84.86046 437.2806,87.203927 433.31251,90.565056 433.91131,93.44841 433.44862,96.523182 429.47081,93.49322 427.80038,93.37394 407.61227,86.152597 389.72424,74.077072 372.97961,60.903576 374.27073,57.602585 377.91017,54.994601 380.44064,52.296195 382.93687,50.360418 385.27832,47.250129 388.13482,46.272972 z"
       inkscape:connector-curvature="0"
       id="path1339"
       style="fill:#cce198;stroke:none" />
    <path
       d="M 372.16356,61.855633 C 382.05277,68.051844 390.94863,75.926282 401.17218,81.615691 411.36646,87.582859 422.45245,92.951826 433.77531,95.741121 437.68782,99.350791 441.40538,103.88489 443.31532,108.95335 442.17745,111.24918 438.38516,110.22412 436.26562,110.97974 416.61832,112.93849 396.38318,110.22944 378.07021,102.93013 375.32711,98.081233 373.01343,92.747289 371.31861,87.483549 371.47177,79.029411 370.45473,70.265465 371.58067,61.972211 371.70933,61.880721 371.91181,61.761545 372.16356,61.855633 z"
       inkscape:connector-curvature="0"
       id="path1341"
       style="fill:#6d70b9;stroke:none" />
    <path
       d="M 378.49766,104.09591 C 393.57673,109.46171 409.54726,112.68238 425.65367,112.04268 431.98331,112.01568 438.29088,111.68467 444.46167,110.27458 446.84014,111.85949 446.2767,115.12101 443.99536,116.53096 434.91214,125.09342 421.6922,125.93931 410.00641,128.39635 405.26257,130.31288 401.18079,126.03598 396.87821,124.73031 391.50755,121.91138 384.7451,120.25052 382.26703,114.16053 380.71518,110.94122 378.5897,107.76208 377.70104,104.3485 377.888,104.051 378.21604,104.0479 378.49766,104.09591 z"
       inkscape:connector-curvature="0"
       id="path1343"
       style="fill:#c68582;stroke:none" />
    <path
       d="M 447.53157,115.17087 C 449.63861,119.90436 452.2763,124.84887 456.83842,127.50877 456.96919,128.98344 455.37267,131.82483 453.80738,129.95692 451.59406,127.22926 447.95934,124.76459 444.59768,127.10074 441.23592,129.0225 438.31779,132.08201 437.11722,135.68869 435.76201,136.13692 436.2186,138.54289 434.70793,139.26377 432.05391,141.811 428.79065,137.86218 426.08112,137.20421 420.97249,134.38454 415.48824,132.28977 410.22645,129.85977 410.42391,127.85827 414.28248,128.71225 415.90219,127.96343 426.96846,126.15249 438.83219,123.55676 446.75438,115.03487 L 447.18184,114.91829 447.53157,115.17087 z"
       inkscape:connector-curvature="0"
       id="path1345"
       style="fill:#98d8de;stroke:none" />
    <path
       d="M 447.9396,126.8093 C 450.98541,128.56815 453.52785,131.50779 455.59492,134.23146 454.3834,137.27008 453.70441,140.66298 453.43822,143.69375 451.63894,144.49238 451.23337,147.25131 449.35797,148.37632 446.92715,150.66312 444.36775,146.45189 442.04995,145.81352 439.84784,144.06211 436.50291,143.16056 434.86337,140.99302 437.96538,135.59905 440.84909,128.99496 447.24013,126.86758 447.47339,126.85368 447.70315,126.74256 447.9396,126.80928 z"
       inkscape:connector-curvature="0"
       id="path1347"
       style="fill:#d2a09a;stroke:none" />
  </g>
</svg>
