<?xml version="1.0" encoding="UTF-8" standalone="no"?>
<!-- Created with Inkscape (http://www.inkscape.org/) -->

<svg
   xmlns:dc="http://purl.org/dc/elements/1.1/"
   xmlns:cc="http://creativecommons.org/ns#"
   xmlns:rdf="http://www.w3.org/1999/02/22-rdf-syntax-ns#"
   xmlns:svg="http://www.w3.org/2000/svg"
   xmlns="http://www.w3.org/2000/svg"
   xmlns:xlink="http://www.w3.org/1999/xlink"
   xmlns:inkscape="http://www.inkscape.org/namespaces/inkscape"
   version="1.1"
   width="740"
   height="520"
   id="svg2"
   style="enable-background:new">
  <defs
     id="defs4">
    <filter
       color-interpolation-filters="sRGB"
       id="filter3050">
      <feBlend
         in2="BackgroundImage"
         mode="lighten"
         id="feBlend3052" />
    </filter>
  </defs>
  <metadata
     id="metadata7">
    <rdf:RDF>
      <cc:Work
         rdf:about="">
        <dc:format>image/svg+xml</dc:format>
        <dc:type
           rdf:resource="http://purl.org/dc/dcmitype/StillImage" />
        <dc:title />
      </cc:Work>
    </rdf:RDF>
  </metadata>
  <g
     id="layer1"
     style="display:none">
    <image
       xlink:href="pngs/coronal-0724.png"
       id="MRISLICE"
       height="520"
       width="740"
       y="0"
       x="0" />
  </g>
  <g
     id="layer3"
     style="display:inline">
    <path
       d="M 361.3934,121.92321 C 366.5429,122.95771 378.73764,122.3479 382.42181,121.49198 390.10378,119.70728 395.02853,114.49026 400.56979,111.06601 411.80849,104.12101 415.69246,95.370179 422.31814,89.311685 427.24018,84.810992 442.56466,97.624933 453.25728,96.662255 496.08106,100.78033 564.59155,115.30253 608.6953,185.49737 618.52883,209.01818 633.30089,246.43902 623.29066,276.89633"
       inkscape:connector-curvature="0"
       id="path2990"
       style="fill:none;stroke:#0000e9;stroke-width:1;stroke-miterlimit:4;stroke-opacity:1;stroke-dasharray:none;stroke-dashoffset:0" />
    <path
       d="M 613.66932,217.82848 C 594.58213,173.60194 562.70031,139.15953 515.43249,116.48289 443.43399,94.267826 442.65342,112.11324 416.0897,137.33391 408.6282,144.41816 397.24716,146.64869 384.04868,145.54676 380.3058,145.23427 366.00241,144.49834 362.01515,143.68455"
       inkscape:connector-curvature="0"
       id="path2994"
       style="fill:none;stroke:#0000e9;stroke-width:1;stroke-miterlimit:4;stroke-opacity:1;stroke-dasharray:none;stroke-dashoffset:0" />
    <path
       d="M 429.00895,380.10578 C 428.05507,379.70528 426.77473,379.02088 428.67502,379.81242 426.62632,378.05476 423.51675,377.94256 420.98313,377.56393 417.95147,378.72827 416.87609,382.65291 417.79591,385.5734 418.52051,389.27584 421.05976,393.54667 425.33994,393.34763 429.67567,392.76058 434.12215,388.04708 432.12529,383.52881 431.5783,381.98097 430.14581,381.15915 429.00895,380.10578 z"
       inkscape:connector-curvature="0"
       id="path2996"
       style="fill:none;stroke:#0000e9;stroke-width:1;stroke-miterlimit:4;stroke-opacity:1;stroke-dasharray:none;stroke-dashoffset:0" />
    <path
       d="M 408.49113,334.09612 C 407.70046,333.45935 406.84332,331.53329 408.10022,333.49909 406.02824,333.36153 404.16839,328.66773 401.33439,331.52191 398.22029,333.56545 395.44822,337.54822 396.93273,341.38601 397.82064,344.43706 399.56355,348.19729 403.4226,347.29486 406.65589,347.18751 409.29113,344.48044 410.35918,341.58928 410.43088,338.99343 411.67001,335.4456 408.49113,334.09612 z"
       inkscape:connector-curvature="0"
       id="path2998"
       style="fill:none;stroke:#0000e9;stroke-width:1;stroke-miterlimit:4;stroke-opacity:1;stroke-dasharray:none;stroke-dashoffset:0" />
    <path
       d="M 403.51711,247.05083 C 400.61557,246.28959 404.07785,244.5203 402.69207,245.58193 398.45949,241.90895 391.84197,243.12083 390.23861,248.82873 388.39478,253.87042 388.71148,259.63163 390.03745,264.74811 391.95904,271.01252 400.30104,268.52685 402.25951,263.59527 405.20407,258.96888 405.29327,253.13317 403.37532,248.13723 403.34022,247.76612 403.45532,247.41101 403.51711,247.05083 z"
       inkscape:connector-curvature="0"
       id="path3000"
       style="fill:none;stroke:#0000e9;stroke-width:1;stroke-miterlimit:4;stroke-opacity:1;stroke-dasharray:none;stroke-dashoffset:0" />
    <path
       d="M 501.75394,315.44356 C 465.83063,323.71558 437.816,369.96032 459.4748,363.00759 455.61709,387.8462 488.46381,355.78749 502.37569,345.59853 557.38839,293.58358 535.37902,274.01625 501.75394,315.44356 z"
       inkscape:connector-curvature="0"
       id="path3002"
       style="fill:none;stroke:#0000e9;stroke-width:1;stroke-miterlimit:4;stroke-opacity:1;stroke-dasharray:none;stroke-dashoffset:0" />
    <path
       d="M 501.75394,316.06531 C 500.1063,346.91147 476.2994,339.70938 459.94569,363.50057"
       inkscape:connector-curvature="0"
       id="path3004"
       style="fill:none;stroke:#0000e9;stroke-width:1;stroke-miterlimit:4;stroke-opacity:1;stroke-dasharray:none;stroke-dashoffset:0" />
    <path
       d="M 588.17748,175.54934 C 598.91557,228.87616 595.13061,267.1096 556.46812,222.8025"
       inkscape:connector-curvature="0"
       id="path3008"
       style="fill:none;stroke:#0000e9;stroke-width:1;stroke-miterlimit:4;stroke-opacity:1;stroke-dasharray:none;stroke-dashoffset:0" />
    <path
       d="M 502.06481,347.15292 C 502.76317,355.63297 549.47325,323.32568 551.4941,289.32997"
       inkscape:connector-curvature="0"
       id="path3010"
       style="fill:none;stroke:#0000e9;stroke-width:1;stroke-miterlimit:4;stroke-opacity:1;stroke-dasharray:none;stroke-dashoffset:0" />
    <path
       d="M 535.95031,323.52634 C 535.69058,334.69088 536.60061,352.0475 556.15725,335.6505 568.89641,328.01869 572.77142,309.86477 579.44945,293.98323 586.10788,278.14832 589.98993,264.88153 588.17748,257.62062 586.24747,266.2877 577.63093,258.36395 575.40342,263.2128 568.94545,277.27056 558.91808,296.37346 546.83097,307.36078"
       inkscape:connector-curvature="0"
       id="path3018"
       style="fill:none;stroke:#0000e9;stroke-width:1;stroke-miterlimit:4;stroke-opacity:1;stroke-dasharray:none;stroke-dashoffset:0" />
    <path
       d="M 552.21338,290.68015 C 554.99347,265.68611 567.47951,247.61081 555.84637,221.55899"
       inkscape:connector-curvature="0"
       id="path3020"
       style="fill:none;stroke:#0000e9;stroke-width:1;stroke-miterlimit:4;stroke-opacity:1;stroke-dasharray:none;stroke-dashoffset:0" />
    <path
       d="M 602.47778,192.9584 C 598.76363,215.44248 607.22498,248.99518 588.49584,257.82926 588.18979,257.97361 587.87648,258.11137 587.55573,258.24237"
       inkscape:connector-curvature="0"
       id="path3022"
       style="fill:none;stroke:#0000e9;stroke-width:1;stroke-miterlimit:4;stroke-opacity:1;stroke-dasharray:none;stroke-dashoffset:0" />
    <path
       d="M 613.04756,217.20673 C 619.08955,241.25574 628.95119,276.51857 579.47295,291.81698"
       inkscape:connector-curvature="0"
       id="path3024"
       style="fill:none;stroke:#0000e9;stroke-width:1;stroke-miterlimit:4;stroke-opacity:1;stroke-dasharray:none;stroke-dashoffset:0" />
    <path
       d="M 616.4672,261.35112 C 618.54085,266.55671 623.9806,271.25222 623.52259,276.82152"
       inkscape:connector-curvature="0"
       id="path3036"
       style="fill:none;stroke:#0000e9;stroke-width:1;stroke-miterlimit:4;stroke-opacity:1;stroke-dasharray:none;stroke-dashoffset:0" />
    <path
       d="M 624.8125,267.03125 621.28612,265.78937 C 622.58201,277.41247 622.51609,296.83973 620.4375,306.125 619.69313,309.45019 617.32076,315.76418 615.25,322.21875 613.17924,328.67332 611.34219,335.27225 611.9375,340.0625 L 614.53125,339.75 C 614.06082,335.96461 615.67728,329.36326 617.71875,323 619.76022,316.63674 622.15463,310.49513 623,306.71875 625.19227,296.92564 626.15619,279.08301 624.8125,267.03125 z"
       inkscape:connector-curvature="0"
       id="path3026"
       style="font-size:medium;font-style:normal;font-variant:normal;font-weight:normal;font-stretch:normal;text-indent:0;text-align:start;text-decoration:none;line-height:normal;letter-spacing:normal;word-spacing:normal;text-transform:none;direction:ltr;block-progression:tb;writing-mode:lr-tb;text-anchor:start;baseline-shift:baseline;color:#000000;fill:#73a0a6;fill-opacity:1;stroke:none;stroke-width:2.5999999;marker:none;visibility:visible;display:inline;overflow:visible;enable-background:accumulate;font-family:Sans;-inkscape-font-specification:Sans" />
    <path
       d="M 589.11011,262.59463 C 595.6336,264.26082 603.27193,269.97558 612.73669,268.1904"
       inkscape:connector-curvature="0"
       id="path3028"
       style="fill:none;stroke:#0000e9;stroke-width:1;stroke-miterlimit:4;stroke-opacity:1;stroke-dasharray:none;stroke-dashoffset:0" />
    <path
       d="M 555.84637,223.11338 C 540.30503,212.85078 525.96474,181.01495 487.45364,182.69948 L 452.01378,184.25387 C 481.87487,190.58941 517.93251,176.60751 544.30624,220.40655 567.33382,240.60401 551.65019,255.43001 550.31956,266.01427 549.05716,267.25691 549.56712,267.72336 548.84061,269.17637 L 535.7461,297.25274"
       inkscape:connector-curvature="0"
       id="path3030"
       style="fill:none;stroke:#0000e9;stroke-width:1;stroke-miterlimit:4;stroke-opacity:1;stroke-dasharray:none;stroke-dashoffset:0" />
    <path
       d="M 361.93065,121.92293 361.74239,143.68532 M 371.74239,143.68532 369.32074,423.62843 C 394.84193,432.62783 418.78181,434.116 437.71347,411.81514 464.36307,365.04097 521.56357,417.67813 541.54606,426.73719 564.80518,436.93318 591.05445,471.93257 629.21311,421.76317 L 683.92729,312.3348 C 712.34449,236.28955 692.74265,184.90273 660.30071,140.10948 593.09729,65.920116 526.18904,58.667651 472.53158,43.116152 431.64696,29.661058 395.18907,28.278853 372.4295,64.255723 L 371.93065,121.92293"
       inkscape:connector-curvature="0"
       id="path3011"
       style="fill:none;stroke:#0000e9;stroke-width:1;stroke-miterlimit:4;stroke-opacity:1;stroke-dasharray:none;stroke-dashoffset:0" />
    <path
       d="M 602.58048,198.17915 C 601.25678,199.36783 602.29341,201.85497 601.83858,203.46863 601.20718,216.69788 602.24527,230.14353 599.55792,243.18782 598.04197,249.06841 594.59967,255.05499 588.93774,257.77854 588.42699,261.92283 588.80909,266.38879 587.72872,270.56947 590.34801,273.63818 593.21748,277.00197 596.82388,279.0189 602.08426,281.17869 606.97248,276.86647 609.77967,272.85013 615.37269,265.45538 618.24849,256.09366 617.55589,246.80116 617.86908,236.18568 615.09981,225.81985 612.24219,215.70814 609.76345,209.82147 607.04013,203.91222 603.55594,198.57758 603.31328,198.3077 602.95961,198.08393 602.58048,198.17915 z"
       inkscape:connector-curvature="0"
       id="path3023"
       style="opacity:0;fill:#d0cf6e;stroke:none" />
    <path
       d="M 488.17658,182.97018 C 480.78136,183.41233 473.18135,183.05638 465.91954,184.34407 464.66553,185.55982 467.34655,186.03606 468.15823,185.85369 485.03089,186.94359 502.97479,186.03484 518.28874,194.27821 528.6424,199.52542 536.61156,208.10745 542.96111,217.69304 548.05215,224.16971 554.98698,230.03782 556.50018,238.57155 558.49953,248.14165 552.89048,256.84337 550.49627,265.77459 545.9381,276.80867 540.01639,287.42487 535.97425,298.67928 535.12374,306.10027 530.85032,312.71699 526.7687,318.73428 519.75621,328.42074 511.36253,336.92404 503.15199,345.58392 501.78949,346.52474 502.51268,348.47112 504.15493,348.0844 510.03493,347.24979 514.71838,342.98587 519.39164,339.62189 533.75129,327.8777 546.69453,312.70361 550.63426,294.11213 550.80653,290.62244 552.74319,287.75333 552.99605,284.26109 555.50189,269.63865 561.17918,255.30546 560.27838,240.2477 559.79899,234.46369 558.73761,228.52869 556.01931,223.37631 552.02025,221.16804 549.04416,217.23273 545.61896,214.17124 535.5758,204.44235 526.40248,193.1742 513.13664,187.7381 505.35381,184.22285 496.71755,182.58957 488.17658,182.97018 z"
       inkscape:connector-curvature="0"
       id="path3029"
       style="fill:#85dbce;stroke:none" />
    <path
       d="M 396.60674,243.9572 C 391.83463,243.9532 390.06332,249.39431 389.51747,253.27218 389.14924,257.78149 388.97753,263.00851 391.74317,266.80501 394.76905,269.92912 399.58195,267.25054 401.51153,264.16714 405.09535,258.97192 405.16577,251.51488 402.04735,246.10047 400.87332,244.14617 398.68918,243.8846 396.60674,243.9572 z"
       inkscape:connector-curvature="0"
       id="path3031"
       style="fill:#749699;stroke:none" />
    <path
       d="M 403.02282,330.95198 C 398.521,332.84186 395.32882,338.64316 397.91194,343.26204 398.91715,345.71089 401.52947,348.25879 404.34175,346.8479 407.92966,345.78439 410.72294,342.40118 410.27696,338.53586 410.69608,336.43569 409.46933,334.78886 407.70778,333.82341 406.20574,332.88552 404.77639,331.28047 403.02282,330.95198 z"
       inkscape:connector-curvature="0"
       id="path3033"
       style="fill:#cc6bc8;stroke:none" />
    <path
       d="M 421.52913,378.03522 C 418.05178,378.31751 417.37941,382.83963 418.10814,385.59162 418.94726,389.14587 421.60231,393.8565 425.91184,392.85951 430.16373,392.05691 434.11499,386.80789 431.27001,382.76141 428.99042,379.89034 425.2008,378.01472 421.52913,378.03522 z"
       inkscape:connector-curvature="0"
       id="path3035"
       style="fill:#bfb195;stroke:none" />
    <path
       d="M 500.61029,316.00404 C 482.62391,321.12179 467.19823,333.48252 456.73913,348.8123 454.59513,352.60182 451.50416,356.84794 452.52411,361.42488 453.91692,364.67759 458.29552,363.57536 460.49267,361.86453 464.66275,357.42584 468.64428,352.79834 473.97055,349.66437 482.25022,343.88908 492.85182,340.13371 497.78008,330.71842 500.17425,326.36074 501.28637,321.28857 501.26976,316.34752 501.18666,316.08389 500.86566,315.95085 500.61029,316.00404 z"
       inkscape:connector-curvature="0"
       id="path3037"
       style="fill:#d78578;stroke:none" />
    <path
       d="M 530.82215,293.47223 C 523.55387,294.26367 517.88747,299.69569 512.59962,304.28319 508.95679,308.06626 504.62776,311.53636 502.13531,316.23761 501.24568,323.54709 499.55745,331.44286 494.09805,336.6811 485.29795,345.21585 472.4335,348.79385 464.47696,358.47101 462.51936,361.12293 458.65513,363.35385 459.51721,367.16774 459.36036,369.57317 460.95418,372.51364 463.76254,371.8115 472.0086,369.94878 478.48472,363.84449 485.15862,358.9587 499.424,348.00252 513.07322,336.08467 523.90805,321.63805 528.82607,314.79746 534.47473,307.56727 535.34226,298.8991 535.73706,296.44674 534.56304,293.25096 531.64649,293.47223 531.37118,293.48933 531.097,293.43193 530.82215,293.47223 z"
       inkscape:connector-curvature="0"
       id="path3039"
       style="fill:#76bd94;stroke:none" />
    <path
       d="M 625.53042,292.32232 C 637.9666,307.23764 641.54755,323.43821 615.06353,339.41769"
       inkscape:connector-curvature="0"
       id="path3021"
       style="fill:none;stroke:#0000e9;stroke-width:1;stroke-miterlimit:4;stroke-opacity:1;stroke-dasharray:none;stroke-dashoffset:0" />
    <path
       d="M 666.94165,319.96147 C 665.8469,321.21199 665.56596,318.34636 666.57115,319.90417 662.2691,320.34705 659.6181,324.16009 656.20792,326.34056 653.62206,329.72084 650.00754,332.22276 647.93816,336.01673 644.89384,340.0032 642.33283,344.33059 640.22347,348.87186 637.75286,352.94944 635.51672,357.18276 634.12618,361.75935 630.83246,370.09693 626.91942,378.34312 625.80225,387.33873 625.41941,390.22943 624.79265,393.13255 624.65012,396.02462 625.55772,399.4144 628.73383,397.11001 628.781,394.5797 632.68413,386.02436 635.55926,377.83715 640.50146,369.84523 645.32833,362.00264 648.6261,353.25354 654.36987,345.97651 656.15471,338.89558 662.33423,334.69776 665.22709,329.16885 665.71801,326.55883 668.52083,322.82733 666.88595,320.71058 L 667.09252,321.23491 667.38132,321.72004"
       inkscape:connector-curvature="0"
       id="path3034"
       style="fill:none;stroke:#0000e9;stroke-width:1;stroke-miterlimit:4;stroke-opacity:1;stroke-dasharray:none;stroke-dashoffset:0" />
    <path
       d="M 665.25554,320.552 C 661.06715,322.00967 657.94726,325.58905 654.69544,328.50171 646.08743,337.51609 639.93252,348.70666 635.02994,360.09258 631.25519,370.01575 626.66533,379.78673 625.59499,390.45909 625.64919,392.52444 624.30032,395.0605 625.39896,396.94034 627.69693,398.09033 628.58166,394.77201 629.19742,393.26561 635.07213,378.31013 643.08045,364.28047 651.05846,350.37469 654.35243,345.64955 656.18027,340.04161 660.06223,335.70602 663.20635,331.65637 666.91717,327.15299 666.91795,321.76102 666.80377,320.98776 666.03914,320.40902 665.25554,320.552 z"
       inkscape:connector-curvature="0"
       id="path3047"
       style="fill:#d5be93;stroke:none" />
    <path
       d="M 587.67891,260.24791 C 586.50778,260.90094 585.35892,262.14518 583.83202,261.9378 581.50501,262.09561 579.06743,261.288 576.81143,261.9996 575.4129,263.04666 574.95786,264.96309 574.04692,266.40677 567.73675,279.44468 560.75705,292.35817 551.11829,303.19723 548.92586,305.64708 546.14001,307.69609 544.90281,310.8483 542.41005,315.5493 539.12877,319.83017 536.01837,324.12894 535.96987,329.17041 535.98987,334.57292 538.41805,339.13672 539.62721,341.57555 542.60486,342.93599 545.20507,341.99441 550.45056,340.47088 554.49898,336.59262 558.88902,333.53124 565.33203,328.21858 569.00068,320.48095 572.01764,312.87297 574.60536,306.30535 577.11106,299.64981 579.61417,293.06328 579.97595,292.38501 579.59037,291.59396 580.2599,291.13983 582.66306,286.40326 584.16751,281.2499 585.80301,276.20749 587.20517,271.13903 588.7709,265.89919 588.3109,260.59137 588.2472,260.34207 587.91292,260.15535 587.67891,260.24789 z"
       inkscape:connector-curvature="0"
       id="path3025"
       style="fill:#a7b0c5;stroke:none" />
    <path
       d="M 625.07327,292.8946 C 623.99727,294.03947 624.46723,296.05536 624.08153,297.52344 622.98861,311.70343 615.09426,324.39814 614.02746,338.58367 614.79226,339.953 616.3508,338.2132 617.22868,337.80734 624.83712,332.80763 632.5095,326.14001 634.45784,316.82234 636.07465,308.46063 631.5046,300.54403 626.7248,294.07982 626.25923,293.63194 625.83625,292.78624 625.07327,292.8946 z"
       inkscape:connector-curvature="0"
       id="path3806"
       style="fill:#c9ca98;stroke:none" />
    <path
       d="M 589.46048,177.31197 C 588.31743,178.20425 589.54268,180.04998 589.42438,181.25021 592.05738,196.63912 594.56951,212.33909 592.87041,227.97505 592.13286,232.72793 591.11324,238.21315 586.88605,241.14842 582.378,243.78096 576.95423,241.25479 573.06731,238.60274 567.82519,235.18475 563.82369,230.40574 558.99463,226.48867 557.56482,226.74492 558.79661,228.64129 558.8865,229.54639 562.13712,240.87387 560.80973,252.96478 557.86933,264.20865 555.80467,272.86603 553.66585,281.52429 552.34966,290.32512 550.82862,291.45724 551.33177,293.90226 550.73699,295.57116 550.25056,298.35954 548.98443,301.00647 548.60943,303.77051 549.60767,304.90735 550.73432,302.94236 551.45589,302.323 560.95369,291.51397 567.65559,278.57836 574.03031,265.72032 575.10937,264.0356 575.96806,261.02523 578.51182,261.35536 581.15162,261.29536 584.54695,262.53898 586.65289,260.39359 587.42751,258.96162 588.25014,257.51247 589.87278,256.82372 596.79931,252.58306 599.5341,244.29886 600.36243,236.62396 601.57242,223.00404 600.7692,209.22326 601.90524,195.63422 599.03208,189.49064 594.91219,183.9449 591.01487,178.39032 590.61323,177.93168 590.192,177.14974 589.46049,177.31197 z"
       inkscape:connector-curvature="0"
       id="path3808"
       style="fill:#d5aeb8;stroke:none" />
    <path
       d="M 441.18389,93.983871 C 419.2594,96.910564 407.52308,118.24439 388.42647,119.04364"
       inkscape:connector-curvature="0"
       id="path3027"
       style="fill:none;stroke:#0000e9;stroke-width:1;stroke-linecap:round;stroke-miterlimit:4;stroke-opacity:1;stroke-dasharray:none;stroke-dashoffset:0" />
    <path
       d="M 440.61466,94.22881 C 432.88853,95.369377 425.80811,99.082151 419.49067,103.50712 412.87371,107.79267 406.79411,113.01137 399.62462,116.27976 396.39365,117.68489 392.94722,118.77103 389.42348,119.11685 386.15276,120.28062 382.98873,121.84912 379.46277,122.05697 373.76369,122.61296 367.95363,122.20429 362.25999,122.47598 361.58521,123.5179 362.14026,125.13886 361.95939,126.40534 362.01969,132.05527 361.83948,137.75623 362.04869,143.37455 363.13933,144.07707 364.80604,143.79263 366.12119,144.09569 367.79451,144.19703 369.49343,144.5828 371.17135,144.32775 371.86618,143.7944 372.52822,144.76717 373.30088,144.59565 380.35161,145.25178 387.45905,145.88183 394.54745,145.51288 402.52296,144.9453 410.84911,142.53532 416.5235,136.59961 423.76263,129.55888 430.54778,121.96593 438.10045,115.27682 444.76065,109.6969 453.31668,106.61814 461.97792,106.46607 473.84649,105.8254 485.56025,108.41922 497.02028,111.19993 503.25874,112.85692 509.61792,114.41892 515.67428,116.6179 537.50865,126.88849 557.58014,140.86798 574.37139,158.18876 584.55699,168.59232 593.33305,180.33246 600.99426,192.7431 601.32329,193.25736 601.93798,193.60912 602.55522,193.42374 602.05642,195.88698 604.11897,197.82744 605.02134,199.92912 608.04911,205.68131 611.20662,211.4587 613.51887,217.54927 614.15497,222.34537 615.72275,227.00251 616.54143,231.78278 618.01552,239.16135 618.5492,246.80256 617.79853,254.30085 617.54536,256.64063 616.73534,258.92001 616.52081,261.24587 617.8647,263.63522 619.01538,266.20395 620.85545,268.24585 622.02123,268.706 621.84672,267.00761 621.72098,266.33614 622.91635,266.63242 624.03224,267.41989 625.27938,267.37343 626.0031,266.3091 625.71381,264.76303 626.02673,263.52121 626.87936,253.86238 626.35526,244.08238 624.50481,234.56162 621.55345,218.56746 615.86099,203.22758 609.65193,188.24748 607.08181,182.41964 603.0494,177.38574 599.3774,172.21911 582.8551,150.08066 561.22512,131.77829 536.50498,119.39174 516.03737,109.01615 493.76175,102.56243 471.12467,99.057777 463.85471,97.833733 456.50235,97.063753 449.17115,96.505262 446.30475,96.241483 443.71467,94.880828 440.95128,94.22881 440.8393,94.21911 440.72666,94.21991 440.61468,94.22881 z"
       inkscape:connector-curvature="0"
       id="path3038"
       style="fill:#73a0a6;stroke:none" />
    <path
       d="M 424.71187,88.506554 C 422.47623,88.8013 421.15151,90.951045 419.61924,92.374668 414.10613,98.62099 409.17914,105.69262 402.03192,110.23355 398.79019,112.45701 395.4311,114.61129 392.45977,117.15218 391.86349,117.93513 393.15722,118.46998 393.80619,118.08643 402.22385,115.97683 408.98792,110.29049 416.05379,105.54412 422.72681,100.69796 429.91335,96.275232 438.03861,94.421154 438.92536,94.400184 439.11431,93.224975 438.21035,93.026655 434.20234,91.235637 430.17615,89.184495 425.79724,88.506554 425.43614,88.491094 425.07209,88.464574 424.71187,88.506554 z"
       inkscape:connector-curvature="0"
       id="path3040"
       style="fill:#b46a9f;stroke:none" />
    <path
       d="M 602.58764,197.76741 C 601.43517,199.13412 602.05262,201.30793 601.7452,202.98317 601.22093,214.52445 601.6858,226.11953 600.57666,237.62755 599.58401,244.83175 597.07611,252.75475 590.56062,256.83386 588.21791,257.37596 588.36835,259.46617 588.67202,261.38794 588.73092,263.18183 591.34868,262.73025 592.51182,263.59095 597.36135,265.32592 602.11823,267.86979 607.3285,268.22941 609.43994,267.98445 612.63308,269.0257 613.80832,266.62645 619.53502,254.82731 618.3496,241.04514 615.57685,228.61302 614.08866,222.80772 613.43727,216.67903 610.47732,211.36957 608.0985,206.86092 606.31114,201.88657 603.18024,197.83541 603.01387,197.70085 602.78,197.68861 602.58764,197.76741 z"
       inkscape:connector-curvature="0"
       id="path3041"
       style="fill:#d0cf6e;stroke:none" />
    <path
       d="M 589.48227,263.09024 C 588.09104,263.62585 588.76535,265.66277 588.3262,266.80132 587.02873,274.70376 584.10666,282.16708 581.57436,289.709 581.13572,290.98908 582.82727,290.78948 583.48819,290.28218 594.53487,286.30925 605.38436,280.08459 611.8962,270.04016 613.41443,267.899 609.88825,268.74089 608.71772,268.59857 601.93771,268.57937 596.00898,264.80805 589.63771,263.08052 L 589.48227,263.09052 z"
       inkscape:connector-curvature="0"
       id="path3043"
       style="fill:#d17697;stroke:none" />
  </g>
</svg>
