<?xml version="1.0" encoding="UTF-8" standalone="no"?>
<!-- Created with Inkscape (http://www.inkscape.org/) -->

<svg
   xmlns:dc="http://purl.org/dc/elements/1.1/"
   xmlns:cc="http://creativecommons.org/ns#"
   xmlns:rdf="http://www.w3.org/1999/02/22-rdf-syntax-ns#"
   xmlns:svg="http://www.w3.org/2000/svg"
   xmlns="http://www.w3.org/2000/svg"
   xmlns:xlink="http://www.w3.org/1999/xlink"
   xmlns:inkscape="http://www.inkscape.org/namespaces/inkscape"
   version="1.1"
   width="740"
   height="520"
   id="svg2"
   style="display:inline;enable-background:new">
  <defs
     id="defs4">
    <filter
       color-interpolation-filters="sRGB"
       id="filter3050">
      <feBlend
         in2="BackgroundImage"
         mode="lighten"
         id="feBlend3052" />
    </filter>
  </defs>
  <metadata
     id="metadata7">
    <rdf:RDF>
      <cc:Work
         rdf:about="">
        <dc:format>image/svg+xml</dc:format>
        <dc:type
           rdf:resource="http://purl.org/dc/dcmitype/StillImage" />
        <dc:title />
      </cc:Work>
    </rdf:RDF>
  </metadata>
  <g
     id="g217"
     style="display:none">
    <image
       xlink:href="pngs/coronal-0861.png"
       id="image219"
       height="520"
       width="740"
       y="0"
       x="0" />
  </g>
  <g
     id="g225"
     style="display:inline">
    <path
       d="M 654.81996,340.9354 C 671.31063,334.68784 674.39197,313.87634 682.11513,299.86548 691.16893,283.14544 687.78041,263.97823 678.77039,248.17646 672.12489,232.21096 693.1411,218.51413 678.08618,203.47788 671.08721,189.93266 663.91081,176.59755 653.47274,165.25096 637.32815,145.33832 616.02482,130.42498 597.9691,112.3343 573.34781,92.982947 544.40227,80.318106 514.83996,70.648242 489.04699,60.917422 458.7382,53.393915 432.92869,67.194098 419.03399,77.338341 437.34654,89.673023 444.94056,96.921394 479.818,127.16498 511.38377,164.31791 524.42039,209.40973 529.34459,230.52358 532.66224,251.97636 536.90094,273.25014 545.44864,301.93894 548.76056,332.38129 561.12693,359.82343 571.31242,376.88497 595.11401,373.38872 611.18848,368.25451 627.67173,362.54704 642.85761,352.96873 655.36831,340.8446"
       inkscape:connector-curvature="0"
       id="path227"
       style="fill:none;stroke:#e20000;stroke-opacity:1" />
    <path
       d="M 538.64253,140.14661 C 538.90469,140.27769 539.25967,140.01554 539.52182,140.14661 539.89257,140.33199 540.03037,140.84053 540.40111,141.0259 540.66327,141.15698 541.01825,140.89483 541.2804,141.0259 542.02189,141.39665 542.2975,142.41374 543.03899,142.78449 543.56329,143.04664 544.38306,142.36998 544.79757,142.78449 545.00482,142.99174 544.59032,143.45652 544.79757,143.66378 545.00482,143.87103 545.4147,143.5327 545.67686,143.66378 546.0476,143.84915 546.18541,144.3577 546.55615,144.54307 546.8183,144.67414 547.22819,144.33582 547.43544,144.54307 547.64269,144.75032 547.22819,145.21511 547.43544,145.42236 547.64269,145.62961 548.05257,145.29128 548.31473,145.42236 549.33899,145.93449 549.92834,146.66881 550.9526,147.18094 551.21475,147.31201 551.56973,147.04986 551.83189,147.18094 552.20263,147.36631 552.34044,147.87486 552.71118,148.06023 552.97333,148.1913 553.32831,147.92915 553.59047,148.06023 554.64562,148.5878 555.17319,150.17052 556.22834,150.6981 556.75265,150.96025 557.57242,150.2836 557.98692,150.6981 558.19417,150.90535 557.77967,151.37014 557.98692,151.57739 558.19417,151.78464 558.60406,151.44631 558.86621,151.57739 559.89047,152.08952 560.47982,152.82384 561.50408,153.33597 562.02839,153.59812 562.84816,152.92147 563.26266,153.33597 563.46991,153.54322 563.05541,154.00801 563.26266,154.21526 563.46991,154.42251 563.8798,154.08418 564.14195,154.21526 564.51269,154.40063 564.6505,154.90918 565.02124,155.09455 565.2834,155.22563 565.69328,154.8873 565.90053,155.09455 566.10778,155.3018 565.69328,155.76659 565.90053,155.97384 566.10778,156.18109 566.51767,155.84276 566.77982,155.97384 567.07292,156.70658 567.36601,157.43932 567.65911,158.17206 567.80566,158.17206 567.99513,158.06844 568.09876,158.17206 568.20238,158.27569 567.99513,158.50808 568.09876,158.61171 568.20238,158.71533 568.43478,158.50808 568.5384,158.61171 568.64203,158.71533 568.43478,158.94773 568.5384,159.05135 568.64203,159.15498 568.87442,158.94773 568.97805,159.05135 569.08167,159.15498 568.87442,159.38737 568.97805,159.491 569.08167,159.59463 569.28662,159.4255 569.41769,159.491 569.60306,159.5837 569.67197,159.83796 569.85734,159.93064 569.98841,159.99614 570.19336,159.82702 570.29698,159.93064 570.40061,160.03427 570.19336,160.26666 570.29698,160.37029 570.50423,160.57754 570.96902,160.16304 571.17627,160.37029 571.2799,160.47392 571.07265,160.70631 571.17627,160.80994 571.2799,160.91356 571.51229,160.70631 571.61592,160.80994 571.71954,160.91356 571.51229,161.14595 571.61592,161.24958 571.71954,161.35321 571.92449,161.18408 572.05556,161.24958 572.56769,161.50565 572.86237,161.87281 573.3745,162.12887 573.50558,162.19437 573.71052,162.02525 573.81414,162.12887 573.91777,162.2325 573.71052,162.46489 573.81414,162.56852 574.02139,162.77577 574.48618,162.36126 574.69343,162.56852 574.79706,162.67214 574.69343,162.86161 574.69343,163.00816 574.83998,163.00816 575.02945,162.90454 575.13308,163.00816 575.2367,163.11179 575.02945,163.34418 575.13308,163.44781 575.34033,163.65506 575.80512,163.24056 576.01237,163.44781 576.11599,163.55143 576.01237,163.7409 576.01237,163.88745 576.15892,163.88745 576.34839,163.78383 576.45201,163.88745 576.55564,163.99108 576.34839,164.22347 576.45201,164.3271 576.65927,164.53435 577.12405,164.11985 577.3313,164.3271 577.43493,164.43072 577.22768,164.66312 577.3313,164.76674 577.43493,164.87037 577.66732,164.66312 577.77095,164.76674 577.87458,164.87037 577.70545,165.07531 577.77095,165.20639 578.6858,167.03608 577.74065,164.73639 578.65024,165.64603 578.75387,165.74966 578.54661,165.98205 578.65024,166.08568 578.75387,166.1893 578.95881,166.02018 579.08989,166.08568 579.27526,166.17838 579.34416,166.43264 579.52953,166.52532 579.66061,166.59082 579.86555,166.4217 579.96918,166.52532 580.0728,166.62895 579.86555,166.86134 579.96918,166.96497 580.0728,167.06859 580.27774,166.89947 580.40882,166.96497 580.59419,167.05767 580.6631,167.31193 580.84847,167.40461 580.97954,167.47011 581.18449,167.30099 581.28811,167.40461 581.39174,167.50824 581.18449,167.74063 581.28811,167.84426 581.39174,167.94788 581.59668,167.77876 581.72776,167.84426 581.91313,167.93696 581.98203,168.19122 582.1674,168.2839 582.29848,168.3494 582.50342,168.18028 582.60705,168.2839 582.71067,168.38753 582.50342,168.61992 582.60705,168.72355 582.71067,168.82717 582.91561,168.65805 583.04669,168.72355 583.41743,168.90892 583.55524,169.41747 583.92598,169.60284 584.05706,169.66834 584.23455,169.53734 584.36563,169.60284 584.8932,169.86662 585.15699,170.65799 585.68456,170.92177 585.81564,170.98727 586.02058,170.81815 586.12421,170.92177 586.22783,171.0254 586.02058,171.25779 586.12421,171.36142 586.22783,171.46504 586.43278,171.29592 586.56385,171.36142 586.93459,171.54679 587.0724,172.05534 587.44314,172.24071 587.57422,172.30621 587.77916,172.13708 587.88279,172.24071 587.98641,172.34433 587.77916,172.57673 587.88279,172.68035 589.05517,172.68035 587.73624,172.53381 588.32243,173.12 588.42606,173.22362 588.65845,173.01637 588.76208,173.12 588.8657,173.22362 588.65845,173.45602 588.76208,173.55964 588.96933,173.76689 589.43412,173.35239 589.64137,173.55964 589.74499,173.66327 589.53774,173.89566 589.64137,173.99929 589.74499,174.10291 589.94994,173.93379 590.08101,173.99929 590.26638,174.09199 590.33529,174.34625 590.52066,174.43893 590.65174,174.50443 590.85668,174.33531 590.9603,174.43893 591.06393,174.54256 590.85668,174.77495 590.9603,174.87858 591.06393,174.9822 591.26887,174.81308 591.39995,174.87858 591.77069,175.06395 591.9085,175.5725 592.27924,175.75787 592.41032,175.82337 592.61526,175.65424 592.71888,175.75787 592.82251,175.86149 592.61526,176.09389 592.71888,176.19751 592.82251,176.30114 593.02745,176.13201 593.15853,176.19751 593.86196,176.54923 594.21368,177.60438 594.91711,177.95609 595.04819,178.02159 595.25313,177.85247 595.35675,177.95609 595.46038,178.05972 595.29125,178.26466 595.35675,178.39574 596.2716,180.22544 595.32645,177.92574 596.23605,178.83539 596.33967,178.93901 596.17055,179.14395 596.23605,179.27503 597.15089,181.10473 596.20565,178.80503 597.11534,179.71468 597.21896,179.8183 597.01171,180.0507 597.11534,180.15432 598.02498,181.06396 597.07974,178.76427 597.99463,180.59397 598.06013,180.72504 597.891,180.92999 597.99463,181.03361 598.09825,181.13724 598.30319,180.96811 598.43427,181.03361 598.88221,181.25758 599.39651,181.99585 599.75321,182.35255 600.0463,182.64564 600.44713,182.8611 600.6325,183.23184 600.698,183.36291 600.52887,183.56786 600.6325,183.67148 600.73612,183.77511 600.96852,183.56786 601.07214,183.67148 601.17577,183.77511 600.96852,184.0075 601.07214,184.11113 601.17577,184.21475 601.40816,184.0075 601.51179,184.11113 601.61541,184.21475 601.40816,184.44715 601.51179,184.55077 602.42143,185.46041 601.47619,183.16072 602.39108,184.99042 602.45658,185.12149 602.28745,185.32644 602.39108,185.43006 602.4947,185.53369 602.7271,185.32644 602.83072,185.43006 602.93435,185.53369 602.76522,185.73863 602.83072,185.86971 603.09451,186.39728 603.88587,186.66107 604.14966,187.18864 604.21516,187.31972 604.04603,187.52466 604.14966,187.62829 604.25328,187.73191 604.45823,187.56279 604.5893,187.62829 606.419,188.54314 604.11931,187.59799 605.02895,188.50758 605.13257,188.6112 605.36497,188.40395 605.46859,188.50758 605.57222,188.6112 605.40309,188.81615 605.46859,188.94722 605.65396,189.31796 605.97714,189.64114 606.34788,189.82651 606.47896,189.89201 606.6839,189.72289 606.78753,189.82651 606.89115,189.93014 606.72203,190.13508 606.78753,190.26616 606.88023,190.45153 607.13449,190.52043 607.22717,190.7058 607.29267,190.83688 607.12355,191.04182 607.22717,191.14545 607.3308,191.24907 607.53574,191.07995 607.66682,191.14545 609.49652,192.0603 607.19682,191.11515 608.10646,192.02474 609.0161,192.93438 608.07086,190.63469 608.98575,192.46438 609.05125,192.59546 608.88213,192.8004 608.98575,192.90403 609.08938,193.00765 609.32177,192.8004 609.4254,192.90403 609.52902,193.00765 609.3599,193.2126 609.4254,193.34367 609.461,193.41487 610.2487,194.63462 610.30469,194.66261 610.43577,194.72811 610.64071,194.55898 610.74433,194.66261 610.84796,194.76623 610.67883,194.97118 610.74433,195.10225 611.0004,195.61439 611.36756,195.90906 611.62362,196.42119 611.68912,196.55227 611.55812,196.72976 611.62362,196.86084 613.08174,198.31895 611.41637,196.44633 612.06327,197.74013 612.24864,198.11087 612.75719,198.24867 612.94256,198.61942 613.00806,198.75049 612.87706,198.92798 612.94256,199.05906 613.03526,199.24443 613.28952,199.31334 613.3822,199.49871 613.4477,199.62978 613.3167,199.80727 613.3822,199.93835 613.4749,200.12372 613.72916,200.19263 613.82185,200.378 613.88735,200.50907 613.71822,200.71402 613.82185,200.81764 613.92548,200.92127 614.15787,200.71402 614.2615,200.81764 614.36512,200.92127 614.196,201.12621 614.2615,201.25729 614.51756,201.76942 614.88472,202.06409 615.14079,202.57622 615.20629,202.7073 615.07529,202.88479 615.14079,203.01587 615.23349,203.20124 615.48775,203.27014 615.58043,203.45551 615.64593,203.58659 615.51493,203.76408 615.58043,203.89516 615.8365,204.40729 616.20366,204.70196 616.45972,205.21409 616.52522,205.34517 616.39422,205.52266 616.45972,205.65374 616.63967,206.01364 617.15906,206.61277 617.33901,206.97267 617.48556,207.26577 617.67503,207.54109 617.77866,207.85196 617.82496,207.99099 617.71316,208.16053 617.77866,208.29161 617.87256,208.47938 618.56406,208.98312 618.65795,209.1709 618.72345,209.30198 618.59245,209.47947 618.65795,209.61054 618.75065,209.79591 619.00491,209.86482 619.09759,210.05019 619.16309,210.18127 619.05129,210.35081 619.09759,210.48983 620.1591,213.67437 618.97084,209.79669 619.97688,211.80877 620.04238,211.93985 619.91138,212.11734 619.97688,212.24841 620.06958,212.43379 620.32384,212.50269 620.41653,212.68806 620.48203,212.81914 620.35103,212.99663 620.41653,213.1277 620.50923,213.31308 620.76349,213.38198 620.85617,213.56735 620.92167,213.69843 620.79067,213.87592 620.85617,214.00699 620.94887,214.19237 621.20313,214.26127 621.29582,214.44664 621.42689,214.70879 621.16474,215.06378 621.29582,215.32593 621.96618,216.66665 621.64435,214.52184 622.17511,216.64487 622.24621,216.92921 622.08241,217.2461 622.17511,217.52416 622.24061,217.72077 622.52207,217.77843 622.61475,217.9638 622.68025,218.09488 622.54925,218.27237 622.61475,218.40345 624.07287,219.86157 622.4075,217.98894 623.0544,219.28274 623.1471,219.46811 623.40136,219.53701 623.49404,219.72238 624.02168,220.77765 622.96641,219.5464 623.49404,220.60167 623.75011,221.1138 624.11727,221.40848 624.37333,221.92061 624.43883,222.05168 624.32703,222.22122 624.37333,222.36025 624.47696,222.67113 624.70935,222.92867 624.81298,223.23954 624.90568,223.5176 624.6819,223.85668 624.81298,224.11883 624.90568,224.3042 625.15994,224.37311 625.25262,224.55848 625.3837,224.82063 625.12155,225.17561 625.25262,225.43777 625.50869,225.9499 625.87585,226.24457 626.13191,226.7567 626.30777,227.10842 625.95606,227.72392 626.13191,228.07564 626.67518,229.16218 626.57156,227.92388 626.57156,228.95493 626.57156,229.24803 626.36431,229.62697 626.57156,229.83422 626.67518,229.93784 626.90758,229.73059 627.0112,229.83422 627.25738,230.08039 626.9157,231.74606 627.0112,232.03244 627.0767,232.22906 627.35816,232.28672 627.45085,232.47209 627.68533,232.94104 627.21637,233.76172 627.45085,234.23067 627.54355,234.41604 627.79781,234.48495 627.89049,234.67032 628.06635,235.02203 627.71464,235.63753 627.89049,235.98925 627.98319,236.17462 628.23745,236.24353 628.33014,236.4289 628.549,236.86662 628.10266,239.27894 628.33014,239.50641 628.43376,239.61004 628.66616,239.40279 628.76978,239.50641 628.88616,239.62279 628.76978,240.64432 628.76978,240.82535 628.76978,243.31667 628.76978,245.80799 628.76978,248.29931 628.76978,249.12984 630.9954,252.68418 630.76978,253.13541 630.67708,253.32078 630.42282,253.38969 630.33014,253.57506 630.15428,253.92677 630.506,254.54228 630.33014,254.89399 630.23744,255.07936 629.98318,255.14827 629.89049,255.33364 629.71464,255.68535 630.06635,256.30086 629.89049,256.65257 629.79779,256.83794 629.54353,256.90685 629.45085,257.09222 629.27499,257.44393 629.62671,258.05944 629.45085,258.41115 629.35815,258.59652 629.10389,258.66543 629.0112,258.8508 628.77673,259.31975 629.24568,260.14042 629.0112,260.60938 628.75514,261.12151 630.38798,261.41618 630.13191,261.92831 629.95606,262.28003 630.30777,262.89553 630.13191,263.24725 629.87585,263.75938 629.50869,264.05405 629.25262,264.56618 629.12155,264.82834 629.45987,265.23822 629.25262,265.44547 629.149,265.5491 628.9166,265.34185 628.81298,265.44547 628.60573,265.65272 631.43106,266.68436 631.29999,266.94651 626.41777,267.78596 629.26094,277.12717 628.65795,277.75554 628.40188,278.26767 628.03472,278.56234 627.77866,279.07447 627.71316,279.20555 627.84416,279.38304 627.77866,279.51412 627.68596,279.69949 627.4317,279.76839 627.33901,279.95376 627.27351,280.08484 627.44264,280.28978 627.33901,280.39341 627.23539,280.49703 627.00299,280.28978 626.89937,280.39341 626.69212,280.60066 627.10662,281.06545 626.89937,281.2727 626.79574,281.37632 624.56335,281.16907 624.45972,281.2727 624.3561,281.37632 624.52522,281.58127 624.45972,281.71234 624.36702,281.89771 624.11276,281.96662 624.02008,282.15199 623.95458,282.28307 624.1237,282.48801 624.02008,282.59163 623.91645,282.69526 623.68406,282.48801 623.58043,282.59163 623.47681,282.69526 623.64593,282.9002 623.58043,283.03128 623.32437,283.54341 622.95721,283.83808 622.70114,284.35021 622.63564,284.48129 622.80477,284.68623 622.70114,284.78986 622.59751,284.89348 622.36512,284.68623 622.2615,284.78986 622.15787,284.89348 622.327,285.09843 622.2615,285.2295 622.1688,285.41488 621.91454,285.48378 621.82185,285.66915 621.69077,285.9313 622.0291,288.34119 621.82185,288.54844 621.71822,288.65207 621.48583,288.44481 621.3822,288.54844 621.27858,288.65207 621.4477,288.85701 621.3822,288.98809 619.92409,290.4462 621.58946,288.57358 620.94256,289.86738 620.75719,290.23812 618.24864,292.37592 618.06327,292.74667 617.99777,292.87774 618.06327,293.03976 618.06327,293.18631 617.91672,293.33286 617.71631,293.44059 617.62362,293.62596 617.55812,293.75703 617.72725,293.96198 617.62362,294.0656 617.52,294.16923 617.2876,293.96198 617.18398,294.0656 617.08035,294.16923 617.2876,294.40162 617.18398,294.50525 617.08035,294.60887 616.84796,294.40162 616.74433,294.50525 616.64071,294.60887 616.80983,294.81381 616.74433,294.94489 610.80982,299.44966 607.14298,295.9955 605.46859,298.66028 605.36497,298.7639 605.57222,298.9963 605.46859,299.09992 605.36497,299.20355 605.13257,298.9963 605.02895,299.09992 604.92532,299.20355 605.09445,299.40849 605.02895,299.53957 604.8165,299.96446 603.69526,299.0857 603.27037,299.29815 603.13929,299.36365 602.93435,299.19452 602.83072,299.29815 602.7271,299.40177 602.93435,299.63417 602.83072,299.73779 602.7271,299.84142 602.4947,299.63417 602.39108,299.73779 602.28745,299.84142 602.39108,300.03089 602.39108,300.17744 602.24453,300.17744 602.05506,300.07381 601.95143,300.17744 601.84781,300.28106 602.05506,300.51346 601.95143,300.61708 601.74418,300.82433 601.27939,300.40983 601.07214,300.61708 600.96852,300.72071 601.17577,300.9531 601.07214,301.05673 600.96852,301.16035 600.76357,300.99123 600.6325,301.05673 600.44713,301.14943 600.37822,301.40369 600.19285,301.49637 600.06177,301.56187 599.85683,301.39275 599.75321,301.49637 599.64958,301.6 599.85683,301.83239 599.75321,301.93602 599.54596,302.14327 599.13607,301.80494 598.87392,301.93602 598.68855,302.02872 598.61964,302.28298 598.43427,302.37566 598.17212,302.50674 597.76223,302.16841 597.55498,302.37566 597.45136,302.47929 597.65861,302.71168 597.55498,302.81531 597.34773,303.02256 596.88294,302.60806 596.67569,302.81531 596.57206,302.91893 596.77932,303.15133 596.67569,303.25495 596.57206,303.35858 596.38259,303.25495 596.23605,303.25495 595.5033,303.9877 594.77056,304.72044 594.03782,305.45318 593.63479,304.64712 594.03782,300.43455 594.03782,299.29815 594.03782,299.00505 593.83057,298.62611 594.03782,298.41886 594.24507,298.21161 594.70986,298.62611 594.91711,298.41886 595.49893,297.83704 594.33529,297.2421 594.91711,296.66028 595.12436,296.45303 595.58915,296.86753 595.7964,296.66028 596.00365,296.45303 595.66532,296.04314 595.7964,295.78099 595.98177,295.41025 596.49032,295.27244 596.67569,294.9017 596.80677,294.63954 596.54461,294.28456 596.67569,294.02241 596.91273,293.54833 598.19723,292.7379 598.43427,292.26383 598.69642,291.73952 598.01977,290.91975 598.43427,290.50525 598.64152,290.298 599.10631,290.7125 599.31356,290.50525 599.52081,290.298 599.18248,289.88811 599.31356,289.62596 599.49893,289.25521 600.00748,289.11741 600.19285,288.74667 600.32393,288.48451 599.9856,288.07463 600.19285,287.86738 600.4001,287.66012 600.86489,288.07463 601.07214,287.86738 601.27939,287.66012 600.94106,287.25024 601.07214,286.98809 601.25751,286.61734 601.76606,286.47954 601.95143,286.1088 602.21359,285.58449 601.53693,284.76472 601.95143,284.35021 602.15868,284.14296 602.62347,284.55747 602.83072,284.35021 603.24522,283.93571 602.41622,283.00614 602.83072,282.59163 603.03797,282.38438 603.50276,282.79888 603.71001,282.59163 604.12451,282.17713 603.29551,281.24756 603.71001,280.83305 603.91726,280.6258 604.38205,281.0403 604.5893,280.83305 605.0038,280.41855 604.1748,279.48897 604.5893,279.07447 604.79655,278.86722 605.26134,279.28172 605.46859,279.07447 606.64651,277.89656 604.29068,278.49381 605.46859,277.31589 605.67584,277.10864 606.14063,277.52314 606.34788,277.31589 606.76238,276.90139 606.08573,276.08162 606.34788,275.55731 606.53325,275.18657 607.0418,275.04876 607.22717,274.67802 607.48933,274.15371 606.81267,273.33394 607.22717,272.91944 607.43442,272.71219 607.89921,273.12669 608.10646,272.91944 608.31371,272.71219 607.97539,272.3023 608.10646,272.04015 608.61859,271.01589 609.35291,270.42654 609.86504,269.40228 610.1272,268.87797 609.45054,268.0582 609.86504,267.6437 610.07229,267.43645 610.53708,267.85095 610.74433,267.6437 610.95158,267.43645 610.61326,267.02656 610.74433,266.76441 610.9297,266.39367 611.43825,266.25586 611.62362,265.88512 611.88578,265.36081 611.36147,264.65085 611.62362,264.12654 612.13575,263.10228 612.87007,262.51293 613.3822,261.48867 613.64765,260.95778 612.97574,259.25726 613.3822,258.8508 613.58946,258.64355 614.05424,259.05805 614.2615,258.8508 614.84769,258.2646 613.6753,255.91983 614.2615,255.33364 614.46875,255.12639 614.93353,255.54089 615.14079,255.33364 615.72698,254.74744 614.55459,252.40267 615.14079,251.81648 616.88779,250.63011 617.28827,239.6263 615.14079,237.74783 614.87534,237.21694 615.54725,235.51643 615.14079,235.10996 614.93353,234.90271 614.46875,235.31721 614.2615,235.10996 613.85503,234.7035 614.52694,233.00298 614.2615,232.47209 614.07612,232.10135 613.56758,231.96354 613.3822,231.5928 613.03049,230.88937 613.73392,229.65836 613.3822,228.95493 613.19683,228.58419 612.68829,228.44638 612.50291,228.07564 612.03396,227.13773 612.97187,225.49639 612.50291,224.55848 612.31754,224.18774 611.809,224.04993 611.62362,223.67919 611.35818,223.1483 612.03009,221.44778 611.62362,221.04132 611.41637,220.83407 610.95158,221.24857 610.74433,221.04132 610.32983,220.62682 611.15884,219.69724 610.74433,219.28274 610.53708,219.07549 610.07229,219.48999 609.86504,219.28274 609.45054,218.86824 610.27955,217.93866 609.86504,217.52416 609.65779,217.31691 609.193,217.73141 608.98575,217.52416 608.7785,217.31691 609.11683,216.90702 608.98575,216.64487 608.45818,215.58972 606.87546,215.06214 606.34788,214.007 606.05478,213.4208 605.76169,212.83461 605.46859,212.24841 605.32204,212.24841 605.13257,212.35204 605.02895,212.24841 604.8217,212.04116 605.16002,211.63128 605.02895,211.36912 604.93625,211.18375 604.68199,211.11485 604.5893,210.92948 604.45823,210.66733 604.79655,210.25744 604.5893,210.05019 604.48568,209.94656 604.25328,210.15381 604.14966,210.05019 604.04603,209.94656 604.21516,209.74162 604.14966,209.61054 604.05696,209.42517 603.8027,209.35627 603.71001,209.1709 603.64451,209.03982 603.81364,208.83488 603.71001,208.73125 603.60639,208.62763 603.37399,208.83488 603.27037,208.73125 603.16674,208.62763 603.33587,208.42269 603.27037,208.29161 603.17767,208.10624 602.92341,208.03733 602.83072,207.85196 602.76522,207.72089 602.93435,207.51594 602.83072,207.41232 602.7271,207.30869 602.4947,207.51594 602.39108,207.41232 602.28745,207.30869 602.4947,207.0763 602.39108,206.97267 602.28745,206.86905 602.05506,207.0763 601.95143,206.97267 601.74418,206.76542 602.15868,206.30063 601.95143,206.09338 601.84781,205.98976 601.61541,206.19701 601.51179,206.09338 601.40816,205.98976 601.57729,205.78481 601.51179,205.65374 601.36524,205.36064 600.48595,204.48135 600.19285,204.3348 600.06177,204.2693 599.85683,204.43843 599.75321,204.3348 599.64958,204.23118 599.85683,203.99878 599.75321,203.89516 599.64958,203.79153 599.44464,203.96066 599.31356,203.89516 599.12819,203.80246 599.05929,203.5482 598.87392,203.45551 598.74284,203.39001 598.5379,203.55914 598.43427,203.45551 598.33065,203.35189 598.43427,203.16242 598.43427,203.01587 598.28772,203.01587 598.09825,203.11949 597.99463,203.01587 597.891,202.91224 598.09825,202.67985 597.99463,202.57622 597.891,202.4726 597.65861,202.67985 597.55498,202.57622 597.45136,202.4726 597.65861,202.2402 597.55498,202.13658 597.34773,201.92933 596.88294,202.34383 596.67569,202.13658 596.57206,202.03295 596.77932,201.80056 596.67569,201.69693 596.46844,201.48968 596.00365,201.90418 595.7964,201.69693 595.69277,201.59331 595.90003,201.36091 595.7964,201.25729 595.69277,201.15366 595.46038,201.36091 595.35675,201.25729 595.25313,201.15366 595.46038,200.92127 595.35675,200.81764 595.25313,200.71402 595.02074,200.92127 594.91711,200.81764 594.81348,200.71402 595.02074,200.48162 594.91711,200.378 594.70986,200.17075 594.24507,200.58525 594.03782,200.378 593.93419,200.27437 594.14144,200.04198 594.03782,199.93835 593.83057,199.7311 593.36578,200.1456 593.15853,199.93835 593.0549,199.83473 593.26215,199.60233 593.15853,199.49871 592.95128,199.29146 592.54139,199.62978 592.27924,199.49871 592.09387,199.40601 592.02496,199.15175 591.83959,199.05906 591.63668,198.9576 590.28393,198.9576 590.08101,199.05906 589.89564,199.15176 589.82674,199.40602 589.64137,199.49871 588.8029,199.91794 586.52303,199.07947 585.68456,199.49871 585.49919,199.59141 585.43029,199.84567 585.24492,199.93835 584.5434,200.28911 580.77827,199.5689 580.40882,199.93835 580.3052,200.04198 580.51245,200.27437 580.40882,200.378 580.189,200.59782 579.30971,200.15817 579.08989,200.378 578.98626,200.48162 579.19351,200.71402 579.08989,200.81764 579.04859,200.85894 575.11703,200.81764 574.69343,200.81764 574.42514,200.81764 573.10616,200.98894 572.93485,200.81764 572.83123,200.71402 573.03848,200.48162 572.93485,200.378 572.7276,200.17075 572.31772,200.50907 572.05556,200.378 571.87019,200.2853 571.80129,200.03104 571.61592,199.93835 571.48484,199.87285 571.2799,200.04198 571.17627,199.93835 571.07265,199.83473 571.2799,199.60233 571.17627,199.49871 570.96902,199.29146 570.50423,199.70596 570.29698,199.49871 570.19336,199.39508 570.40061,199.16269 570.29698,199.05906 570.08973,198.85181 569.62494,199.26631 569.41769,199.05906 569.31407,198.95544 569.52132,198.72304 569.41769,198.61942 569.21044,198.41216 568.74565,198.82667 568.5384,198.61942 568.43478,198.51579 568.64203,198.2834 568.5384,198.17977 568.43478,198.07615 568.20238,198.2834 568.09876,198.17977 567.99513,198.07615 568.20238,197.84375 568.09876,197.74013 567.99513,197.6365 567.76274,197.84375 567.65911,197.74013 567.55549,197.6365 567.65911,197.44703 567.65911,197.30048 567.51256,197.30048 567.32309,197.40411 567.21947,197.30048 567.11584,197.19685 567.32309,196.96446 567.21947,196.86084 567.11584,196.75721 566.88345,196.96446 566.77982,196.86084 566.6762,196.75721 566.88345,196.52482 566.77982,196.42119 566.6762,196.31756 566.4438,196.52482 566.34018,196.42119 566.23655,196.31756 566.4438,196.08517 566.34018,195.98154 566.23655,195.87792 566.03161,196.04704 565.90053,195.98154 565.1971,195.62983 564.84538,194.57468 564.14195,194.22296 562.96956,194.22296 564.2885,194.36951 563.70231,193.78332 563.59868,193.67969 563.36629,193.88694 563.26266,193.78332 563.15904,193.67969 563.36629,193.4473 563.26266,193.34367 563.15904,193.24005 562.92664,193.4473 562.82302,193.34367 562.71939,193.24005 562.92664,193.00765 562.82302,192.90403 562.71939,192.8004 562.487,193.00765 562.38337,192.90403 562.27975,192.8004 562.487,192.56801 562.38337,192.46438 562.27975,192.36076 562.04735,192.56801 561.94373,192.46438 561.8401,192.36076 562.00923,192.15582 561.94373,192.02474 561.85103,191.83937 561.65063,191.73164 561.50408,191.58509 561.35753,191.43855 561.15712,191.33082 561.06444,191.14545 560.99894,191.01437 561.16806,190.80943 561.06444,190.7058 560.96081,190.60218 560.72842,190.80943 560.62479,190.7058 560.52116,190.60218 560.72842,190.36978 560.62479,190.26616 560.52116,190.16253 560.28877,190.36978 560.18515,190.26616 560.08152,190.16253 560.25065,189.95759 560.18515,189.82651 559.99977,189.45577 559.49123,189.31796 559.30585,188.94722 559.24035,188.81615 559.40948,188.6112 559.30585,188.50758 559.20223,188.40395 558.96983,188.6112 558.86621,188.50758 558.76258,188.40395 558.93171,188.19901 558.86621,188.06793 558.77351,187.88256 558.51925,187.81366 558.42656,187.62829 558.36106,187.49721 558.53019,187.29227 558.42656,187.18864 558.32294,187.08502 558.09054,187.29227 557.98692,187.18864 557.88329,187.08502 558.09054,186.85262 557.98692,186.749 557.88329,186.64537 557.6509,186.85262 557.54727,186.749 557.54727,185.57661 557.69382,186.89555 557.10763,186.30935 557.004,186.20573 557.17313,186.00078 557.10763,185.86971 556.92226,185.49897 556.41371,185.36116 556.22834,184.99042 556.16284,184.85934 556.33196,184.6544 556.22834,184.55077 556.12471,184.44715 555.89232,184.6544 555.78869,184.55077 555.68507,184.44715 555.89232,184.21475 555.78869,184.11113 555.68507,184.0075 555.4956,184.11113 555.34905,184.11113 555.34905,183.96458 555.45267,183.77511 555.34905,183.67148 555.24542,183.56786 555.01303,183.77511 554.9094,183.67148 554.80578,183.56786 554.9749,183.36291 554.9094,183.23184 554.8167,183.04647 554.61631,182.93874 554.46976,182.79219 554.32321,182.64564 554.1228,182.53792 554.03011,182.35255 553.96461,182.22147 554.13374,182.01653 554.03011,181.9129 553.92649,181.80928 553.69409,182.01653 553.59047,181.9129 553.48684,181.80928 553.69409,181.57688 553.59047,181.47326 553.48684,181.36963 553.25445,181.57688 553.15082,181.47326 553.0472,181.36963 553.21632,181.16469 553.15082,181.03361 553.05812,180.84824 552.80386,180.77934 552.71118,180.59397 552.64568,180.46289 552.8148,180.25795 552.71118,180.15432 552.60755,180.0507 552.37516,180.25795 552.27153,180.15432 552.06428,179.94707 552.47878,179.48228 552.27153,179.27503 552.16791,179.1714 551.93551,179.37866 551.83189,179.27503 551.72826,179.1714 551.89739,178.96646 551.83189,178.83539 551.73919,178.65001 551.48493,178.58111 551.39224,178.39574 551.32674,178.26466 551.49587,178.05972 551.39224,177.95609 551.28862,177.85247 551.05622,178.05972 550.9526,177.95609 550.84897,177.85247 550.9526,177.663 550.9526,177.51645 550.80605,177.51645 550.61658,177.62008 550.51295,177.51645 550.40933,177.41282 550.57845,177.20788 550.51295,177.0768 550.32758,176.70606 549.81903,176.56826 549.63366,176.19751 549.56816,176.06644 549.73729,175.86149 549.63366,175.75787 549.53004,175.65424 549.29764,175.86149 549.19402,175.75787 549.09039,175.65424 549.25952,175.4493 549.19402,175.31822 549.10132,175.13285 548.84706,175.06395 548.75437,174.87858 548.68887,174.7475 548.858,174.54256 548.75437,174.43893 548.65075,174.33531 548.41835,174.54256 548.31473,174.43893 548.10748,174.23168 548.52198,173.76689 548.31473,173.55964 548.2111,173.45602 547.97871,173.66327 547.87508,173.55964 547.77146,173.45602 547.94058,173.25108 547.87508,173.12 547.78238,172.93463 547.52812,172.86572 547.43544,172.68035 547.36994,172.54928 547.53906,172.34433 547.43544,172.24071 547.33181,172.13708 547.09942,172.34433 546.99579,172.24071 546.78854,172.03346 547.12687,171.62357 546.99579,171.36142 546.81042,170.99068 546.30187,170.85287 546.1165,170.48213 546.051,170.35105 546.22013,170.14611 546.1165,170.04248 546.01288,169.93886 545.78048,170.14611 545.67686,170.04248 545.57323,169.93886 545.74236,169.73391 545.67686,169.60284 545.58416,169.41747 545.3299,169.34856 545.23721,169.16319 545.17171,169.03212 545.34084,168.82717 545.23721,168.72355 545.13359,168.61992 544.90119,168.82717 544.79757,168.72355 544.59032,168.5163 545.00482,168.05151 544.79757,167.84426 544.69394,167.74063 544.46155,167.94788 544.35792,167.84426 544.2543,167.74063 544.42342,167.53569 544.35792,167.40461 544.10186,166.89248 543.7347,166.59781 543.47863,166.08568 543.41313,165.9546 543.58226,165.74966 543.47863,165.64603 543.37501,165.54241 543.14261,165.74966 543.03899,165.64603 542.93536,165.54241 543.10449,165.33746 543.03899,165.20639 542.78292,164.69426 542.41576,164.39958 542.1597,163.88745 542.0942,163.75637 542.26332,163.55143 542.1597,163.44781 542.05607,163.34418 541.82368,163.55143 541.72005,163.44781 541.5128,163.24056 541.9273,162.77577 541.72005,162.56852 541.61642,162.46489 541.38403,162.67214 541.2804,162.56852 541.17678,162.46489 541.3459,162.25995 541.2804,162.12887 541.1877,161.9435 540.93344,161.8746 540.84076,161.68923 540.77526,161.55815 540.90626,161.38066 540.84076,161.24958 540.74806,161.06421 540.4938,160.99531 540.40111,160.80994 540.33561,160.67886 540.46661,160.50137 540.40111,160.37029 540.30841,160.18492 540.05415,160.11602 539.96147,159.93064 539.89597,159.79957 540.06509,159.59463 539.96147,159.491 539.85784,159.38737 539.62545,159.59463 539.52182,159.491 539.4182,159.38737 539.58732,159.18243 539.52182,159.05135 539.42912,158.86598 539.17486,158.79708 539.08218,158.61171 539.01668,158.48063 539.14768,158.30314 539.08218,158.17206 538.82611,157.65993 538.45895,157.36526 538.20289,156.85313 538.13739,156.72205 538.30651,156.51711 538.20289,156.41348 538.09926,156.30986 537.86687,156.51711 537.76324,156.41348 537.55599,156.20623 537.97049,155.74144 537.76324,155.53419 537.65962,155.43057 537.42722,155.63782 537.3236,155.53419 537.11635,155.32694 537.53085,154.86215 537.3236,154.6549 537.21997,154.55128 536.98758,154.75853 536.88395,154.6549 536.59038,154.36133 537.17753,154.06919 536.88395,153.77561 536.78033,153.67199 536.54793,153.87924 536.44431,153.77561 536.22449,153.55579 536.66413,152.6765 536.44431,152.45668 536.34068,152.35305 536.10829,152.5603 536.00466,152.45668 535.90104,152.35305 536.07016,152.14811 536.00466,152.01703 535.91196,151.83166 535.6577,151.76276 535.56502,151.57739 535.43394,151.31523 535.77227,150.90535 535.56502,150.6981 535.46139,150.59447 535.229,150.80172 535.12537,150.6981 534.91812,150.49085 535.33262,150.02606 535.12537,149.81881 535.02175,149.71518 534.78935,149.92243 534.68573,149.81881 534.46591,149.59898 534.90555,148.71969 534.68573,148.49987 534.5821,148.39625 534.34971,148.6035 534.24608,148.49987 534.02626,148.28005 534.46591,147.40076 534.24608,147.18094 534.14246,147.07731 533.91006,147.28456 533.80644,147.18094 533.59919,146.97369 533.93751,146.5638 533.80644,146.30165 533.71374,146.11628 533.45948,146.04737 533.36679,145.862 533.23572,145.59985 533.57404,145.18996 533.36679,144.98271 533.26317,144.87909 533.03077,145.08634 532.92715,144.98271 532.7199,144.77546 533.1344,144.31067 532.92715,144.10342 532.82352,143.9998 532.59113,144.20705 532.4875,144.10342 532.28025,143.89617 532.69475,143.43138 532.4875,143.22413 532.38388,143.1205 532.15148,143.32776 532.04786,143.22413 531.91963,143.0959 531.91963,140.71449 532.04786,140.58626 532.15148,140.48263 532.38388,140.68988 532.4875,140.58626 532.59113,140.48263 532.38388,140.25024 532.4875,140.14661 532.59113,140.04299 532.82352,140.25024 532.92715,140.14661 533.03077,140.04299 532.82352,139.81059 532.92715,139.70697 533.1344,139.49972 533.59919,139.91422 533.80644,139.70697 533.91006,139.60334 533.70281,139.37095 533.80644,139.26732 534.01369,139.06007 534.47848,139.47457 534.68573,139.26732 534.78935,139.1637 534.5821,138.9313 534.68573,138.82768 534.81395,138.69945 537.19537,138.69945 537.3236,138.82768 537.42722,138.9313 537.21997,139.1637 537.3236,139.26732 537.53085,139.47457 537.99564,139.06007 538.20289,139.26732 538.24689,139.31132 538.24689,140.5423 538.20289,140.58626 538.09926,140.68988 537.90979,140.58626 537.76324,140.58626 537.6167,140.58626 537.42722,140.68988 537.3236,140.58626 537.21997,140.48263 537.3891,140.27769 537.3236,140.14661 537.2309,139.96124 537.0305,139.85352 536.88395,139.70697"
       inkscape:connector-curvature="0"
       id="path2989"
       style="opacity:0.6;fill:none;stroke:#e20000;stroke-opacity:1" />
    <path
       d="M 577.74885,164.82008 613.58641,126.95726"
       inkscape:connector-curvature="0"
       id="path230"
       style="fill:none;stroke:#0000e9;stroke-width:1;stroke-miterlimit:4;stroke-opacity:1;stroke-dasharray:none" />
    <path
       d="M 608.81031,191.09313 648.29157,159.38379"
       inkscape:connector-curvature="0"
       id="path232"
       style="fill:none;stroke:#0000e9;stroke-width:1;stroke-miterlimit:4;stroke-opacity:1;stroke-dasharray:none" />
    <path
       d="M 620.6236,212.23271 669.12026,187.6735"
       inkscape:connector-curvature="0"
       id="path234"
       style="fill:none;stroke:#0000e9;stroke-width:1;stroke-miterlimit:4;stroke-opacity:1;stroke-dasharray:none" />
    <path
       d="M 626.53023,226.22213 C 642.62706,230.56642 661.14111,230.56876 677.82479,243.94207"
       inkscape:connector-curvature="0"
       id="path236"
       style="fill:none;stroke:#0000e9;stroke-width:1;stroke-miterlimit:4;stroke-opacity:1;stroke-dasharray:none" />
    <path
       d="M 629.32812,246.42908 C 644.994,259.12888 666.08257,276.61363 685.28582,292.12786"
       inkscape:connector-curvature="0"
       id="path238"
       style="fill:none;stroke:#0000e9;stroke-width:1;stroke-miterlimit:4;stroke-opacity:1;stroke-dasharray:none" />
    <path
       d="M 621.8671,287.77559 C 628.10647,305.88817 634.43037,331.06638 638.96528,353.05956"
       inkscape:connector-curvature="0"
       id="path240"
       style="fill:none;stroke:#0000e9;stroke-width:1;stroke-miterlimit:4;stroke-opacity:1;stroke-dasharray:none" />
    <path
       d="M 610.67556,297.41275 C 606.37262,321.25969 602.78711,355.8359 593.88826,372.023"
       inkscape:connector-curvature="0"
       id="path242"
       style="fill:none;stroke:#0000e9;stroke-width:1;stroke-miterlimit:4;stroke-opacity:1;stroke-dasharray:none" />
    <path
       d="M 540.50024,161.65587 C 563.73742,204.20579 595.80179,294.69963 550.98736,326.6351"
       inkscape:connector-curvature="0"
       id="path3030"
       style="fill:none;stroke:#0000e9;stroke-width:1;stroke-miterlimit:4;stroke-opacity:1;stroke-dasharray:none" />
    <path
       d="M 594.51001,301.76502 549.74386,328.50035"
       inkscape:connector-curvature="0"
       id="path3032"
       style="fill:none;stroke:#0000e9;stroke-width:1;stroke-miterlimit:4;stroke-opacity:1;stroke-dasharray:none" />
    <path
       d="M 555.96138,198.55417 C 548.88058,213.26958 544.11482,237.62379 531.09129,238.96805"
       inkscape:connector-curvature="0"
       id="path3034"
       style="fill:none;stroke:#0000e9;stroke-width:1;stroke-miterlimit:4;stroke-opacity:1;stroke-dasharray:none" />
    <path
       d="M 544.76985,169.33182 C 539.45955,179.60547 532.12705,200.83219 524.25202,207.25869"
       inkscape:connector-curvature="0"
       id="path3036"
       style="fill:none;stroke:#0000e9;stroke-width:1;stroke-miterlimit:4;stroke-opacity:1;stroke-dasharray:none" />
    <path
       d="M 491.92091,63.012211 534.82181,138.24421"
       inkscape:connector-curvature="0"
       id="path3040"
       style="fill:none;stroke:#0000e9;stroke-width:1;stroke-miterlimit:4;stroke-opacity:1;stroke-dasharray:none" />
    <path
       d="M 471.4031,122.07866 C 479.77503,113.31383 516.21603,133.64219 533.42287,146.32699"
       inkscape:connector-curvature="0"
       id="path3042"
       style="fill:none;stroke:#0000e9;stroke-width:1;stroke-miterlimit:4;stroke-opacity:1;stroke-dasharray:none" />
    <path
       d="M 531.55761,141.19754 C 516.01857,129.09505 459.2555,84.230337 436.89585,89.436674"
       inkscape:connector-curvature="0"
       id="path3044"
       style="fill:none;stroke:#0000e9;stroke-width:1;stroke-miterlimit:4;stroke-opacity:1;stroke-dasharray:none" />
    <path
       d="M 535.78002,139.24434 C 537.09863,139.46075 537.41083,140.91696 538.94707,140.56556 544.04107,143.09007 549.02743,146.05396 554.04399,148.80378 558.29478,152.76253 565.28192,153.55518 568.26657,158.8101 579.87654,167.2316 592.45987,174.5838 602.13531,185.31898 612.68806,195.51898 618.48695,209.30525 624.29417,222.51684 627.91603,231.40679 627.88196,241.1326 629.56744,250.38252 631.89865,253.8824 627.9936,257.49969 629.13998,260.87459 629.97334,262.20597 629.70099,264.34842 628.47937,265.18799 630.2671,266.39417 629.5506,268.09337 628.67367,269.52083 627.92922,273.26562 629.59689,278.96419 625.60377,281.27583 622.46575,282.1979 622.30929,286.6159 620.90177,289.10602 618.05987,293.92912 613.01863,298.05772 607.10664,297.59682 605.34362,297.94975 604.28231,299.65685 602.36578,299.77295 599.68243,300.54082 597.43212,303.87504 594.59388,303.42575 593.57894,301.89982 593.82877,299.11554 595.29335,298.12142 598.79176,289.9885 604.59094,282.6089 607.24265,273.98967 610.54218,269.13966 611.99769,263.41918 614.37337,258.11556 616.43866,249.959 616.84413,240.97645 614.41227,232.87632 612.30353,228.29249 612.86419,222.6709 609.98229,218.28457 607.20419,214.81343 604.86035,210.93338 602.65727,207.11246 599.72373,203.64568 595.7924,200.45559 591.50459,199.08798 585.04805,199.01518 578.49092,201.25212 572.1137,200.07889 563.71669,195.63712 558.72922,187.31122 552.95596,180.12454 544.75116,168.51646 537.16153,156.13736 532.72959,142.56683 532.79799,141.39981 533.89827,140.83842 534.18682,139.71065 534.6022,139.32636 535.2251,139.16922 535.78006,139.24434 z"
       inkscape:connector-curvature="0"
       id="path276"
       style="fill:#b394dd;stroke:none" />
    <path
       d="M 465.5817,59.963528 C 474.25743,59.922978 482.89468,61.280904 491.26783,63.363735 494.70443,67.815466 497.15493,72.996602 500.10851,77.781776 511.60269,97.89192 523.1626,117.98024 534.45046,138.19743 534.55469,139.66929 532.46326,139.07232 532.08003,140.27641 530.42459,140.88814 529.18468,138.73521 527.87349,138.09057 508.10557,122.95096 488.03762,107.90363 465.79543,96.646902 457.64365,92.815653 449.08757,88.831154 439.89556,88.943005 438.13991,89.099282 436.15965,89.554722 435.17625,87.65367 431.67461,84.040086 427.50705,79.599432 428.27657,74.137533 429.36856,68.678153 435.00092,66.135999 439.68083,64.349318 447.9318,61.295718 456.75897,59.613188 465.5817,59.963528 z"
       inkscape:connector-curvature="0"
       id="path6344"
       style="fill:#a36ed8;stroke:none" />
    <path
       d="M 440.94477,89.176162 C 451.49416,89.664755 461.01079,94.826198 470.27398,99.405927 487.04209,108.35444 502.49763,119.52393 517.73116,130.84327 522.25992,134.44437 527.17561,137.63149 531.38056,141.59764 531.86407,142.32501 532.13477,144.45516 530.78795,144.11379 517.11611,135.17317 503.03016,126.5111 487.36245,121.5267 482.83021,120.25579 477.73505,119.13258 473.11073,120.69122 471.5812,122.4136 470.26411,120.65252 469.15816,119.44355 459.93192,110.06244 450.20804,101.29035 440.40074,92.547224 439.75854,91.627493 437.85671,90.829832 438.36061,89.525898 439.09406,89.023813 440.10868,89.20822 440.94477,89.176162 z"
       inkscape:connector-curvature="0"
       id="path6348"
       style="fill:#cce198;stroke:none" />
    <path
       d="M 477.96817,120.24434 C 488.00969,120.77217 497.19227,125.44924 506.05966,129.78888 515.45728,134.75168 524.71483,140.17033 533.18752,146.57165 534.11742,147.82859 534.45764,149.56507 534.9362,151.05021 536.04571,152.2244 536.28013,153.9914 537.00547,155.43162 537.80609,156.38862 538.45305,157.79034 539.13303,158.98727 539.39977,160.19323 540.69369,160.90659 540.72627,162.18346 541.68156,164.79205 543.47321,167.11471 544.29163,169.7222 539.9095,179.31598 535.88593,189.10669 530.73938,198.31309 528.875,201.17353 527.29697,204.61924 524.32756,206.46387 523.01412,206.35823 523.23984,204.22092 522.65831,203.27297 512.80316,173.57746 494.85658,147.0981 473.65476,124.31487 472.75276,123.53202 471.3529,121.74105 473.13987,121.0701 474.61323,120.30965 476.33879,120.2256 477.96817,120.24434 z"
       inkscape:connector-curvature="0"
       id="path6350"
       style="fill:#d2a09a;stroke:none" />
    <path
       d="M 544.87452,171.24744 C 546.88092,173.8147 547.84527,177.06698 549.34502,179.95356 552.00647,186.0204 554.76294,192.07472 556.95011,198.31309 556.83317,199.32308 555.50591,198.34349 555.43459,199.41087 550.75507,209.49116 547.88365,220.48283 542.15436,230.07102 539.63566,233.99943 536.0853,238.31253 531.08911,238.69783 529.82642,238.20225 530.46387,236.14848 529.90265,235.07022 528.17686,226.02811 526.25169,216.98488 524.25955,207.97939 525.80951,205.71286 527.99774,203.80946 529.36072,201.32416 535.23059,191.96391 539.05898,181.47487 543.99047,171.59718 544.19166,171.3306 544.5227,171.08337 544.87452,171.24744 z"
       inkscape:connector-curvature="0"
       id="path6354"
       style="fill:#c176ba;stroke:none" />
    <path
       d="M 556.9404,198.69197 C 558.50679,201.20679 559.05837,204.36604 560.23352,207.09985 568.04418,230.00904 574.13587,254.0277 573.17396,278.42196 572.51843,293.48069 568.37832,309.18594 557.80502,320.36108 555.62638,322.47097 553.53585,324.96477 550.76174,326.26773 549.38013,325.77638 549.6775,323.67358 549.12224,322.53678 545.27865,306.51537 541.851,290.38891 537.50529,274.4941 534.95427,263.01439 532.91992,251.41068 530.87538,239.81504 531.55086,238.33975 533.692,238.90916 534.85848,237.9595 541.17184,234.59667 544.19641,227.60328 546.93849,221.391 550.16301,213.97505 552.57705,206.11106 556.16321,198.85712 556.35767,198.62839 556.66013,198.53518 556.9404,198.69197 z"
       inkscape:connector-curvature="0"
       id="path6356"
       style="fill:#7786bc;stroke:none" />
    <path
       d="M 609.40073,297.75456 C 611.14316,297.88149 609.87231,300.01069 609.92027,301.02002 606.32391,321.21194 604.17162,341.77543 598.05332,361.4043 596.81729,365.0013 595.52735,368.73315 593.56822,371.94329 588.13145,372.52399 582.43325,372.32352 577.06093,371.07918 569.69452,369.27557 562.93828,364.24929 560.15085,357.05183 556.23711,347.85356 553.09081,338.3001 550.8686,328.56044 551.41589,327.07021 553.59768,326.81125 554.72155,325.76221 567.36455,318.15198 580.05709,310.61384 592.73,303.04917 594.32886,302.6308 593.13084,306.66092 594.44954,305.34188 596.06419,303.76459 597.79796,302.48265 599.95787,301.91253 601.06476,301.15804 602.47514,300.82251 603.29007,299.7364 604.27095,299.6654 605.63737,299.89446 606.01024,298.63862 606.73723,297.55756 608.28485,297.85136 609.40073,297.75456 z"
       inkscape:connector-curvature="0"
       id="path6358"
       style="fill:#9681a3;stroke:none" />
    <path
       d="M 622.0495,289.69122 C 623.42773,291.92486 623.76419,294.79034 624.70552,297.26483 630.37192,315.73686 634.83971,334.59224 638.86595,353.4791 637.6966,355.4752 635.14108,356.23521 633.3335,357.5605 621.70536,364.57245 608.87021,369.79522 595.39188,371.73335 594.10977,371.23848 595.51046,369.42236 595.75564,368.53677 600.4083,357.19789 602.78386,345.00004 604.95049,332.95095 607.01171,321.49149 608.59438,309.91551 610.79967,298.50261 611.09918,296.86153 613.16219,297.54453 614.18045,296.64707 616.01915,295.77135 617.81393,294.53334 618.63958,292.59596 619.61831,291.66197 620.554,289.69339 622.0495,289.69122 z"
       inkscape:connector-curvature="0"
       id="path6360"
       style="fill:#9ac497;stroke:none" />
    <path
       d="M 629.85055,247.39264 C 632.86949,249.1326 635.3171,251.81929 638.13826,253.88612 653.61848,266.57427 669.23209,279.12456 684.62302,291.90621 685.35032,293.59664 683.75967,295.32924 683.31123,296.93101 679.29456,304.90972 676.04748,313.21601 672.40171,321.38114 668.94491,328.96943 664.06064,336.53525 656.20701,340.11142 653.15223,342.03342 650.93637,345.01916 647.99076,347.11875 645.21716,349.26775 642.53057,351.71218 639.52656,353.45967 638.43245,351.6288 638.47773,349.10086 637.80739,347.0116 633.43782,326.92626 628.38721,306.97235 621.99121,287.45679 621.76888,285.40802 623.59714,283.85505 624.35193,282.08447 625.22963,280.94246 627.52111,282.40538 627.53841,280.4718 628.50279,278.66864 629.1169,276.72299 628.72739,274.65285 628.80679,272.20983 628.0593,268.52479 630.86089,267.31785 632.37712,267.14219 630.86689,266.45774 630.36544,266.05492 629.18459,265.73335 629.21301,264.51778 629.95741,263.77192 630.39231,262.73663 630.44826,261.47876 629.52996,260.72145 628.59633,259.1231 630.03879,257.62051 630.03513,255.97088 630.93323,254.25492 631.00937,252.18803 629.87112,250.56132 629.68525,249.79467 628.04081,247.54486 629.85052,247.39264 z"
       inkscape:connector-curvature="0"
       id="path6364"
       style="fill:#ba9676;stroke:none" />
    <path
       d="M 626.96523,226.54452 C 642.03292,230.17956 658.2118,231.55697 671.64469,239.9277 673.69479,241.38331 676.45903,242.4442 677.56031,244.83763 679.46614,250.81591 682.98776,256.15487 684.66856,262.24181 687.49907,271.33599 688.26532,281.37081 685.55565,290.58498 685.01014,292.1289 683.5218,290.23967 682.83548,289.78836 664.90854,275.34089 647.17196,260.66676 629.23851,246.22686 628.70291,243.5454 629.4719,240.56851 628.4516,237.94978 628.3698,236.34239 627.97913,234.78091 627.5967,233.27693 627.83862,232.20112 626.9105,231.19592 627.05266,230.04187 627.20293,228.95664 626.40453,228.30399 626.20747,227.37028 626.16077,226.9439 626.48938,226.44964 626.96523,226.54452 z"
       inkscape:connector-curvature="0"
       id="path6366"
       style="fill:#9b7d71;stroke:none" />
    <path
       d="M 669.39981,188.06389 C 673.07796,193.45202 675.30291,199.7234 679.13703,204.97634 683.32406,209.44925 684.48665,216.23792 682.37138,221.93464 680.54382,228.56911 677.61966,234.91682 677.08428,241.84545 676.40482,243.3372 674.8475,241.2024 673.90751,240.86425 662.65974,233.14763 648.98665,230.76418 635.8421,228.1151 632.54487,227.40263 629.0422,226.71299 625.85773,225.92277 624.72469,223.14273 624.01901,220.08336 622.52553,217.44168 622.13885,215.86775 621.48855,214.39433 620.64084,212.98255 621.13412,211.42152 623.6586,211.27009 624.93573,210.26316 639.59375,202.86534 654.21112,195.37388 668.89464,188.03475 L 669.205,188.05265 669.39981,188.06385 z"
       inkscape:connector-curvature="0"
       id="path6368"
       style="fill:#c1dfbe;stroke:none" />
    <path
       d="M 648.1728,160.07533 C 650.50419,161.36885 651.84855,163.95636 653.7227,165.81738 659.28493,172.2178 664.35282,179.09885 668.49633,186.4998 669.23089,188.21381 666.6212,188.45975 665.6591,189.20059 651.0775,196.50907 636.64482,204.17713 621.90378,211.12701 620.91999,211.83579 619.46002,211.56167 619.37791,210.20409 616.42998,205.40589 614.06642,200.13338 611.16884,195.24318 611.03763,194.24243 609.71942,194.0406 609.51731,192.93104 608.26042,191.29314 610.51626,190.30361 611.49742,189.35237 623.51707,179.48117 635.67215,169.72263 647.86193,160.08505 647.96216,160.05715 648.07068,160.06235 648.1728,160.07505 z"
       inkscape:connector-curvature="0"
       id="path6370"
       style="fill:#768e99;stroke:none" />
    <path
       d="M 614.03473,127.47221 C 625.52256,137.63237 637.2794,147.54451 647.56077,158.89983 647.74544,160.25193 645.69189,160.77671 644.96625,161.74682 632.77863,171.59354 620.5832,181.53738 608.21552,191.10465 606.90541,191.39452 607.50946,189.2192 606.16568,189.49198 605.1105,189.11697 606.52016,187.9701 605.38849,187.85016 603.85974,187.06104 602.93586,185.71138 602.24087,184.23623 601.17731,182.88037 599.53756,182.11044 598.52007,180.64173 597.83179,179.90989 597.49643,179.03161 596.48966,178.80561 595.36244,177.75743 593.96242,177.05921 593.04088,175.82315 592.08807,175.31226 591.38213,174.36927 590.311,174.06475 590.14771,173.20836 588.88213,173.50748 589.06749,172.50066 587.38043,172.0616 586.23287,170.57022 584.71523,169.77078 583.7703,168.68197 582.21933,168.32064 581.41217,167.21577 580.49249,167.15647 580.38109,165.9883 579.37205,166.10827 578.46071,165.76792 578.05812,164.68525 578.95431,164.01957 590.22967,151.69043 601.90679,139.70279 613.34497,127.51107 613.57556,127.49647 613.80545,127.17148 614.03473,127.47217 z"
       inkscape:connector-curvature="0"
       id="path6372"
       style="fill:#dad3b7;stroke:none" />
    <path
       d="M 493.988,64.063206 C 505.36718,67.253028 516.49826,71.366699 527.64743,75.294481 551.54693,83.950612 574.7703,95.079804 595.1032,110.45724 601.34654,115.44308 606.92972,121.19226 612.88837,126.50072 613.11218,127.98573 610.99413,128.96131 610.26359,130.17994 599.51306,141.47934 589.03312,153.09882 577.86624,163.971 576.77365,164.55723 576.46639,163.00249 575.51524,162.92179 574.19762,161.90092 572.46992,161.65622 571.36699,160.30849 570.1186,159.53986 568.76423,158.87136 567.92792,157.57861 567.18977,156.87991 567.18771,155.62744 566.09181,155.41219 565.37105,154.45306 563.75277,154.26848 563.28421,153.10005 561.29511,153.27968 559.44411,151.85388 558.04789,150.5839 556.77624,150.47296 555.4315,150.20825 554.77398,148.94208 554.02602,148.01567 552.77009,147.74649 551.85952,147.02825 549.45325,146.48013 547.69745,144.51087 545.56428,143.39489 545.16783,142.76277 544.80226,142.36835 543.95161,142.64684 542.41367,142.56774 541.77651,140.73013 540.2891,140.49986 539.60699,139.66186 538.35889,139.82902 537.78266,138.81918 536.56649,138.28119 534.76241,139.12192 534.41812,137.2625 520.7084,113.10498 506.84934,89.025567 493.29824,64.782107 493.13274,64.295826 493.54236,63.961409 493.988,64.063206 z"
       inkscape:connector-curvature="0"
       id="path6374"
       style="fill:#a6a5bc;stroke:none" />
  </g>
</svg>
