<?xml version="1.0" encoding="UTF-8" standalone="no"?>
<!-- Created with Inkscape (http://www.inkscape.org/) -->

<svg
   xmlns:dc="http://purl.org/dc/elements/1.1/"
   xmlns:cc="http://creativecommons.org/ns#"
   xmlns:rdf="http://www.w3.org/1999/02/22-rdf-syntax-ns#"
   xmlns:svg="http://www.w3.org/2000/svg"
   xmlns="http://www.w3.org/2000/svg"
   xmlns:xlink="http://www.w3.org/1999/xlink"
   xmlns:inkscape="http://www.inkscape.org/namespaces/inkscape"
   version="1.1"
   width="740"
   height="520"
   id="svg2"
   style="display:inline;enable-background:new">
  <defs
     id="defs4">
    <filter
       color-interpolation-filters="sRGB"
       id="filter3050">
      <feBlend
         in2="BackgroundImage"
         mode="lighten"
         id="feBlend3052" />
    </filter>
  </defs>
  <metadata
     id="metadata7">
    <rdf:RDF>
      <cc:Work
         rdf:about="">
        <dc:format>image/svg+xml</dc:format>
        <dc:type
           rdf:resource="http://purl.org/dc/dcmitype/StillImage" />
        <dc:title />
      </cc:Work>
    </rdf:RDF>
  </metadata>
  <g
     id="g846"
     style="display:none">
    <image
       xlink:href="pngs/coronal-0805.png"
       id="image848"
       height="520"
       width="740"
       y="0"
       x="0" />
  </g>
  <g
     id="g854"
     style="display:inline">
    <path
       d="M 385.60131,89.747558 C 387.23331,90.319259 388.94544,91.582495 396.1711,95.343327 403.72734,97.606284 411.57509,99.42933 418.55417,103.4261 425.40548,104.86875 430.63941,108.74553 437.20674,110.88713 442.22166,114.05201 448.57578,115.67032 453.37229,120.21341 458.35762,123.67982 462.28694,127.1605 465.87402,131.12897 470.15554,136.94709 474.12146,141.46651 476.37712,145.70525 481.01168,151.85675 485.6173,155.73994 487.56865,160.00554 491.27934,163.62017 495.02455,167.22584 500.62545,168.08832 507.42711,169.79048 514.9618,172.35805 522.38677,174.30584 530.15186,177.68124 536.25693,177.28627 542.90459,181.76687 546.43228,182.58439 550.7561,185.99164 552.85262,186.74088 556.81188,189.55332 561.50536,191.76038 564.04416,194.82366 569.44324,197.49238 574.00001,204.75319 578.34446,207.88045 580.2272,209.99071 584.15938,214.05254 586.42724,219.07199 589.85956,222.56796 590.56453,226.22015 593.26651,230.88528 595.82812,239.56949 598.36985,249.93708 596.37527,260.10763 595.91418,265.96797 592.8798,269.42326 591.40125,275.02968 589.1014,278.64564 587.50049,283.81153 584.56198,285.59946 581.96585,290.53581 578.50147,292.49198 577.10095,296.791 574.34576,300.34776 572.63045,303.82946 569.63993,305.49553 568.26865,308.02965 565.5679,309.10389 564.04416,311.71305 560.80703,314.34589 559.68495,317.42504 555.96138,321.03933 552.70955,325.51452 550.77391,327.65919 546.01335,332.23087 543.24996,335.86773 541.04323,338.55647 538.55232,340.31365 535.04032,345.25984 529.41037,349.70294 524.25203,353.37044 517.92718,355.45534 517.30464,361.04504 519.89976,366.42724 522.0265,369.29994 522.88249,372.62738 526.73904,375.13176 528.94318,379.83581 531.93404,379.79143 534.20006,383.83629 536.50435,385.67702 538.65664,387.66974 541.03933,389.43206 542.39928,392.59033 545.10088,393.7812 546.6351,396.27134 548.99176,398.63047 550.4134,400.73426 553.47437,403.11061 556.43353,405.18767 559.5357,407.4205 564.66591,408.70638 568.01737,411.95592 575.08989,410.22351 578.34446,411.19339 584.245,411.86547 590.04307,408.92704 593.88826,406.21937 597.05085,403.03517 601.67267,401.19801 606.3233,400.00185 611.65236,397.87823 619.57687,397.84536 624.35411,395.64958 630.01377,395.23039 635.10786,391.43013 639.27616,387.56681 641.45748,385.67675 644.12629,384.17022 645.49368,381.97104 649.03756,379.48322 651.10454,375.51218 654.81997,372.023 658.02811,367.22789 661.91397,364.69406 664.14625,360.20971 666.74319,358.82118 667.95716,354.11116 670.98552,352.12694 669.71917,345.8427 675.58342,339.69936 677.69005,334.09613 675.09543,329.83487 681.98332,324.17104 683.77283,318.55232 686.12026,313.81515 687.60392,309.51596 689.99035,304.25203 694.57757,297.96801 697.84518,285.61644 693.36859,278.13844 690.62422,275.62082 688.8788,273.159 685.90757,270.05566 685.40884,263.3682 696.47377,260.81251 692.6121,255.13361 695.11478,246.96099 697.91677,238.45909 695.53433,229.11329 694.1882,220.56078 695.20133,216.09151 693.36859,209.12396 690.70029,202.52206 690.07829,196.00733 686.52932,189.84964 684.21933,184.22958 680.05504,178.46189 677.20304,173.68409 673.94363,168.17506 670.87063,163.69971 667.25501,158.76204 663.84081,153.08506 659.07262,149.72324 656.86228,145.70801 653.95096,142.61 651.30878,140.11771 649.40125,138.24699 642.59246,133.41267 638.79497,125.59495 632.43689,121.45691 628.28564,117.0212 622.19008,113.69267 616.7029,107.85883 610.76254,103.78342 605.47302,99.511501 600.10578,96.586831 594.99726,92.441886 591.00222,89.971292 587.04899,87.26055 582.58022,88.856339 583.06012,84.484888 578.96621,82.286533 572.1256,77.043752 564.01174,73.996623 555.96138,71.094996 549.36413,68.351321 541.78456,65.7277 534.82181,63.633971 526.75809,60.120416 524.20685,59.974651 517.41275,56.794698 510.01516,55.537414 503.05702,52.237714 495.65143,50.577177 487.79068,47.701155 480.01398,48.003894 472.02485,45.60316 464.30235,42.952889 456.24064,42.715907 447.40713,41.314685 437.17092,40.470546 425.83585,39.597831 414.82366,40.629143 407.07572,40.249747 400.96583,42.836052 395.54935,46.224912 392.04749,48.843843 388.94625,52.73499 385.60131,55.551193 380.1948,62.196865 383.27212,73.995452 383.73606,82.286533 385.8352,84.033481 382.71473,87.955961 385.60131,89.747558 z"
       inkscape:connector-curvature="0"
       id="path856"
       style="fill:none;stroke:#e20000;stroke-opacity:1" />
    <path
       d="M 624.81298,311.60821 C 627.09831,308.75959 628.20829,306.67857 629.64907,303.25495 631.60047,300.71568 632.52672,296.65857 634.48517,293.14312 635.52938,289.54053 637.61847,285.45199 638.44198,281.71234 640.08656,277.50165 640.90711,273.21662 641.95914,268.96264 643.45202,264.85914 642.62416,259.421 642.83843,254.45435 641.75674,249.48181 641.53089,243.19504 639.76091,238.62712 639.02256,233.66741 636.80049,229.831 635.36446,224.55848 633.4499,220.18471 631.0567,215.86617 629.20943,211.36912 627.66441,208.62786 626.11482,206.51818 624.81298,203.89516 623.1666,201.8285 621.6544,199.67356 620.41653,197.74013 618.94729,196.20078 617.91248,192.5547 615.14079,189.82651 613.93693,188.18631 611.5659,185.12683 610.30469,183.67148 608.373,180.8743 606.73799,179.69059 604.14966,176.19751 600.88703,174.59052 600.82862,172.57696 597.55498,170.92177 595.23749,167.96204 590.19111,164.86565 587.63829,162.52134 584.46787,160.45924 583.20039,159.02079 579.52953,157.29277 576.4651,155.02316 573.06929,153.63756 569.85734,152.01703 566.23334,150.18998 563.72975,148.78813 560.14663,146.60474 557.11155,145.44083 553.1588,143.16527 549.63366,141.90519 544.49374,139.40748 540.71158,138.56658 536.00466,136.62945 530.91075,135.83437 526.07677,133.5203 520.13423,133.95733 512.54735,134.25182 505.41523,135.60363 498.19518,136.18981 492.61753,137.27909 486.44123,137.09491 483.68689,133.11229 481.81533,131.91206 480.50442,129.16814 479.29044,127.83655 477.33413,124.77708 476.17637,120.65761 474.45435,117.72471 473.63971,113.38925 471.14561,110.51501 469.1786,106.73359 465.79706,102.55547 461.80484,97.718638 458.18748,94.863167 455.27323,89.886323 463.42234,91.063026 466.05308,93.218515 471.56141,95.319204 476.10894,97.688922 481.04902,101.0182 485.67291,103.64399 490.16825,106.28645 494.67802,108.49217 498.72077,110.79461 502.29545,112.34033 506.98809,114.20755 512.54999,117.3112 518.17712,118.70259 524.13424,121.68152 529.0233,122.81219 533.23327,125.43857 538.20289,126.51762 542.70216,128.08793 546.40461,129.06853 550.9526,131.79336 556.32188,133.3828 560.30913,135.19934 565.46089,137.0691 569.35714,139.18289 573.80155,142.34913 577.3313,143.66378 580.55202,146.21946 583.55296,148.01167 585.68456,149.81881 589.16047,152.01736 591.6677,153.45712 594.03782,155.53419 597.11283,157.64246 599.68436,159.70901 601.51179,162.12887 603.93702,164.06741 604.40798,164.99078 606.78753,166.96497 608.39356,168.10298 610.55954,170.59642 612.06327,172.68035 615.5237,175.70322 617.44461,179.69035 621.29582,183.67148 622.58951,185.74577 624.29159,187.58666 625.69227,189.82651 627.97055,192.55286 629.60856,195.35726 631.40765,199.05906 633.55999,201.72516 635.43434,206.11664 637.12304,209.61054 639.01222,213.16203 640.28593,217.56872 642.39878,221.04132 643.4541,225.23541 644.89254,228.99962 645.5458,233.65453 647.55691,240.97175 647.19944,249.97504 646.89979,258.13915 646.56724,264.05433 645.22791,268.9329 644.15736,273.57891 643.35756,277.90695 641.67068,283.17437 639.76091,286.54844 638.78297,290.60394 636.91864,293.8979 635.80411,297.53957 633.74183,302.03515 632.39182,304.49216 630.08872,308.09105 629.08326,310.49814 626.33244,314.16204 624.81298,316.00466 623.11661,318.12072 621.99408,320.44248 620.41653,322.1597 619.42056,324.46554 617.68373,327.8767 616.02008,329.63366 615.22016,331.7375 613.5577,332.69122 612.06327,334.03011 611.18963,335.78622 608.39022,337.1286 607.22717,338.86621 605.7789,340.21998 603.78611,341.13322 602.83072,342.82302 600.90724,343.83051 600.27562,346.12984 597.99463,346.77982 596.14593,348.61166 594.62526,349.45879 591.83959,351.17627 590.09945,353.08215 586.54016,353.89581 584.36563,355.57272 581.75738,356.47907 579.70503,358.71088 577.3313,359.96918 575.24071,361.47713 573.63148,363.1729 570.73663,363.92598 568.26313,367.4503 563.8895,363.53305 568.5384,361.72776 570.94832,360.26356 573.06703,358.7854 575.13308,357.3313 577.51627,355.96943 579.76301,354.26957 583.04669,352.49521 584.61763,351.23789 585.74191,349.8811 587.44314,348.97805 589.11758,346.87553 592.144,345.76955 594.03782,343.70231 596.34517,342.38978 597.63787,341.37321 599.31356,339.7455 601.45452,339.06529 603.07435,337.05737 604.5893,335.78869 606.85573,334.67276 608.27082,332.35283 609.86504,331.39224 611.50825,328.79601 613.52918,326.30718 615.14079,323.47863 616.70768,322.25202 618.49336,318.89594 619.97688,317.76324 621.18498,315.86412 622.04257,312.913 624.81298,311.60821 621.47535,312.83256 624.55956,311.65071 624.81298,311.60821 z"
       inkscape:connector-curvature="0"
       id="path858"
       style="opacity:0.6;fill:none;stroke:#e20000;stroke-opacity:1" />
    <path
       d="M 483.24725,133.11229 495.11767,164.76674"
       inkscape:connector-curvature="0"
       id="path860"
       style="fill:none;stroke:#0000e9;stroke-width:0.99000001;stroke-miterlimit:4;stroke-opacity:1;stroke-dasharray:none;stroke-dashoffset:0" />
    <path
       d="M 456.4289,120.80223 472.69577,112.00933"
       inkscape:connector-curvature="0"
       id="path862"
       style="fill:none;stroke:#0000e9;stroke-width:0.99000001;stroke-miterlimit:4;stroke-opacity:1;stroke-dasharray:none;stroke-dashoffset:0" />
    <path
       d="M 437.9638,111.13004 459.94606,95.302812 383.00816,70.682685"
       inkscape:connector-curvature="0"
       id="path864"
       style="fill:none;stroke:#0000e9;stroke-width:0.99000001;stroke-miterlimit:4;stroke-opacity:1;stroke-dasharray:none;stroke-dashoffset:0" />
    <path
       d="M 457.74783,91.785651 386.52532,53.536525"
       inkscape:connector-curvature="0"
       id="path866"
       style="fill:none;stroke:#0000e9;stroke-width:0.99000001;stroke-miterlimit:4;stroke-opacity:1;stroke-dasharray:none;stroke-dashoffset:0" />
    <path
       d="M 428.7625,41.2798 463.05482,91.399344"
       inkscape:connector-curvature="0"
       id="path868"
       style="fill:none;stroke:#0000e9;stroke-width:0.99000001;stroke-miterlimit:4;stroke-opacity:1;stroke-dasharray:none;stroke-dashoffset:0" />
    <path
       d="M 468.73896,93.544231 468.29931,43.424688"
       inkscape:connector-curvature="0"
       id="path870"
       style="fill:none;stroke:#0000e9;stroke-width:0.99000001;stroke-miterlimit:4;stroke-opacity:1;stroke-dasharray:none;stroke-dashoffset:0" />
    <path
       d="M 511.82418,115.52649 531.60821,61.889783"
       inkscape:connector-curvature="0"
       id="path872"
       style="fill:none;stroke:#0000e9;stroke-width:0.99000001;stroke-miterlimit:4;stroke-opacity:1;stroke-dasharray:none;stroke-dashoffset:0" />
    <path
       d="M 572.05556,139.70697 601.51179,97.501038"
       inkscape:connector-curvature="0"
       id="path874"
       style="fill:none;stroke:#0000e9;stroke-width:0.99000001;stroke-miterlimit:4;stroke-opacity:1;stroke-dasharray:none;stroke-dashoffset:0" />
    <path
       d="M 618.2183,179.71468 658.22601,147.62058"
       inkscape:connector-curvature="0"
       id="path876"
       style="fill:none;stroke:#0000e9;stroke-width:0.99000001;stroke-miterlimit:4;stroke-opacity:1;stroke-dasharray:none;stroke-dashoffset:0" />
    <path
       d="M 645.4763,232.47209 696.03549,228.95493"
       inkscape:connector-curvature="0"
       id="path878"
       style="fill:none;stroke:#0000e9;stroke-width:0.99000001;stroke-miterlimit:4;stroke-opacity:1;stroke-dasharray:none;stroke-dashoffset:0" />
    <path
       d="M 647.23488,257.97151 688.56152,262.8076"
       inkscape:connector-curvature="0"
       id="path880"
       style="fill:none;stroke:#0000e9;stroke-width:0.99000001;stroke-miterlimit:4;stroke-opacity:1;stroke-dasharray:none;stroke-dashoffset:0" />
    <path
       d="M 641.95914,281.71234 696.47513,290.50525"
       inkscape:connector-curvature="0"
       id="path882"
       style="fill:none;stroke:#0000e9;stroke-width:0.99000001;stroke-miterlimit:4;stroke-opacity:1;stroke-dasharray:none;stroke-dashoffset:0" />
    <path
       d="M 621.37125,322.88812 C 641.01397,331.5309 655.92931,338.27402 672.29465,346.77982"
       inkscape:connector-curvature="0"
       id="path884"
       style="fill:none;stroke:#0000e9;stroke-width:0.99000001;stroke-miterlimit:4;stroke-opacity:1;stroke-dasharray:none;stroke-dashoffset:0" />
    <path
       d="M 587.88279,353.81414 C 607.46048,366.68319 623.07224,373.11842 644.59701,382.83072"
       inkscape:connector-curvature="0"
       id="path886"
       style="fill:none;stroke:#0000e9;stroke-width:0.99000001;stroke-miterlimit:4;stroke-opacity:1;stroke-dasharray:none;stroke-dashoffset:0" />
    <path
       d="M 503.03128,160.37029 C 508.75806,160.34609 485.79364,157.57135 497.24376,159.16814 503.96627,160.41838 510.1418,160.96669 516.66028,161.68923 520.95097,163.42631 526.0089,163.65957 530.28928,165.64603 536.15999,166.89187 542.03536,171.07525 547.87508,172.24071 549.94493,173.59117 552.24072,174.27113 555.34905,175.75787 558.77899,177.96978 561.2515,179.81343 564.5816,181.9129 567.25321,184.73662 569.32959,185.46208 572.05556,188.50758 573.91021,189.60104 576.404,191.98058 578.60509,195.13326 582.54017,197.45617 585.32466,203.12255 588.76208,205.65374 591.21711,208.64387 593.94218,211.96262 595.7964,215.32593 597.64734,216.57976 599.3781,222.24322 600.6767,222.52686 602.52793,227.56544 604.79034,229.82248 606.34788,234.23067 607.58303,239.54683 609.37439,244.81958 608.54611,250.93719 608.81293,255.64881 609.1937,262.98195 607.22717,266.32476 606.38807,270.62513 605.93087,275.12748 604.5893,279.07447 604.04132,282.7157 602.04483,285.85516 601.07214,289.62595 600.03673,292.13474 599.23574,294.36243 597.55498,296.66028 596.37632,300.49777 594.49778,302.83008 592.93871,305.673 590.65168,307.96965 589.85185,310.70536 587.11826,312.98706 585.52372,314.23953 583.36217,316.13727 583.17189,316.88199 581.19424,318.41734 579.72274,320.76502 578.0854,321.72202 577.86924,323.09065 574.09086,324.62502 573.4997,326.11454 571.95318,327.13093 570.56549,328.54819 569.41769,330.07331 568.00571,330.85383 566.7214,332.22871 565.90053,333.59047 564.41399,334.61207 563.73379,336.18385 561.50408,337.54727 560.54702,339.06567 557.78753,340.60217 556.22833,341.94373 553.87456,343.21967 551.86354,345.37845 549.63366,347.21947 548.25459,348.22616 546.36708,349.83625 544.79757,350.73663 542.34754,352.699 541.77995,353.84311 539.96147,355.13308 538.97185,357.30877 537.60788,358.24814 536.44431,359.96917 535.06332,361.73898 533.99155,363.818 533.36679,366.34403 532.0944,369.7298 531.28985,375.63494 532.92715,378.87392 533.6121,382.92291 538.75669,378.35159 540.82017,377.96606 544.22638,376.78566 546.12454,375.27459 549.19402,374.47746 552.12572,373.27175 554.9859,372.19121 557.54727,370.52066 559.63794,369.34658 561.2237,368.10121 562.82302,366.56385 564.76062,365.48228 568.2813,364.0069 565.02124,364.36563"
       inkscape:connector-curvature="0"
       id="path888"
       style="fill:none;stroke:#0000e9;stroke-width:0.99000001;stroke-miterlimit:4;stroke-opacity:1;stroke-dasharray:none;stroke-dashoffset:0" />
    <path
       d="M 559.30585,369.64137 C 559.89205,369.78792 560.91789,370.66721 561.06444,370.08101 561.21098,369.49482 558.70162,369.64137 559.30585,369.64137 560.05311,369.64137 560.76699,369.95817 561.50408,370.08101 561.85287,370.13911 562.51085,369.92493 562.82302,370.08101 563.33515,370.33708 563.62982,370.70424 564.14195,370.9603 564.27303,371.0258 564.44257,370.914 564.5816,370.9603 564.89247,371.06393 565.15001,371.29632 565.46089,371.39995 565.73894,371.49265 566.07802,371.26887 566.34018,371.39995 566.52555,371.49265 566.59445,371.74691 566.77982,371.83959 566.9109,371.90509 567.08839,371.77409 567.21947,371.83959 567.7316,372.09566 568.02627,372.46282 568.5384,372.71888 568.80056,372.84996 569.15554,372.58781 569.41769,372.71888 569.60306,372.81158 569.67197,373.06584 569.85734,373.15853 570.11949,373.28961 570.47447,373.02745 570.73663,373.15853 570.922,373.25123 570.9909,373.50549 571.17627,373.59817 571.30735,373.66367 571.51229,373.49455 571.61592,373.59817 571.71954,373.7018 571.51229,373.93419 571.61592,374.03782 571.71954,374.14144 571.95194,373.93419 572.05556,374.03782 572.15919,374.14144 571.95194,374.37384 572.05556,374.47746 572.26281,374.68472 572.7276,374.27021 572.93485,374.47746 573.03848,374.58109 572.83123,374.81348 572.93485,374.91711 573.03848,375.02074 573.24342,374.85161 573.3745,374.91711 573.88663,375.17317 574.1813,375.54033 574.69343,375.7964 574.82451,375.8619 575.02945,375.69277 575.13308,375.7964 575.2367,375.90003 575.02945,376.13242 575.13308,376.23605 575.34033,376.4433 575.80512,376.02879 576.01237,376.23605 576.11599,376.33967 575.90874,376.57206 576.01237,376.67569 576.11599,376.77932 576.32094,376.61019 576.45201,376.67569 577.91013,378.13381 576.03751,376.46844 577.3313,377.11534 577.70205,377.30071 577.83985,377.80925 578.2106,377.99463 578.34167,378.06013 578.51916,377.92913 578.65024,377.99463 579.35367,378.34634 579.70539,379.40149 580.40882,379.75321 580.5399,379.81871 580.71739,379.68771 580.84847,379.75321 581.21921,379.93858 581.38287,380.40257 581.72776,380.6325 582.45149,381.11499 583.20225,381.46894 583.92598,381.95143 584.43326,382.28962 584.73763,382.93218 585.24492,383.27037 585.51757,383.45214 585.85155,383.52824 586.12421,383.71001 586.63149,384.0482 586.93586,384.69076 587.44314,385.02895 587.7158,385.21072 588.04978,385.28682 588.32243,385.46859 588.83976,385.81348 589.14397,386.41448 589.64137,386.78753 589.90352,386.98414 590.248,387.0454 590.52066,387.22717 591.27791,387.73201 593.09334,389.54744 593.59817,390.30469 593.77995,390.57735 593.80611,390.95227 594.03782,391.18398 594.53609,391.68225 595.43207,391.77426 595.7964,392.50291 596.09961,393.10934 595.26397,392.89617 596.23605,393.3822 596.84247,393.68542 596.6293,392.84977 597.11534,393.82185 597.18084,393.95293 597.04984,394.13042 597.11534,394.2615 597.46705,394.96493 598.5222,395.31664 598.87392,396.02008 598.93942,396.15115 598.77029,396.3561 598.87392,396.45972 598.97754,396.56335 599.20994,396.3561 599.31356,396.45972 599.41719,396.56335 599.24806,396.76829 599.31356,396.89937 599.40626,397.08474 599.68767,397.1424 599.75321,397.33901 599.84591,397.61707 599.62213,397.95615 599.75321,398.2183 599.81871,398.34938 600.08923,398.11468 600.19285,398.2183 600.29648,398.32193 600.12735,398.52687 600.19285,398.65795 600.28555,398.84332 600.53981,398.91222 600.6325,399.09759 600.698,399.22867 600.52887,399.43361 600.6325,399.53724 600.73612,399.64086 600.96852,399.43361 601.07214,399.53724 601.17577,399.64086 601.00664,399.8458 601.07214,399.97688 601.16484,400.16225 601.4191,400.23116 601.51179,400.41653 601.64286,400.67868 601.38071,401.03366 601.51179,401.29582 601.60449,401.48119 601.95143,401.52821 601.95143,401.73546 601.95143,401.88201 601.61541,401.83909 601.51179,401.73546 601.30454,401.52821 601.51179,401.14927 601.51179,400.85617"
       inkscape:connector-curvature="0"
       id="path890"
       style="fill:none;stroke:#0000e9;stroke-width:0.99000001;stroke-miterlimit:4;stroke-opacity:1;stroke-dasharray:none;stroke-dashoffset:0" />
    <path
       d="M 533.36679,380.19285 C 533.95299,380.6325 534.53918,381.07214 535.12537,381.51179 535.12537,381.65833 535.02175,381.84781 535.12537,381.95143 535.229,382.05506 535.46139,381.84781 535.56502,381.95143 535.66864,382.05506 535.49952,382.26 535.56502,382.39108 535.65772,382.57645 535.91198,382.64535 536.00466,382.83072 536.07016,382.9618 535.90104,383.16674 536.00466,383.27037 536.10829,383.37399 536.34068,383.16674 536.44431,383.27037 536.54793,383.37399 536.37881,383.57894 536.44431,383.71001 536.62968,384.08075 537.13823,384.21856 537.3236,384.5893 537.3891,384.72038 537.21997,384.92532 537.3236,385.02895 538.23324,385.93859 537.288,383.63889 538.20289,385.46859 538.26839,385.59967 538.09926,385.80461 538.20289,385.90824 538.30651,386.01186 538.51146,385.84274 538.64253,385.90824 539.01328,386.09361 539.15108,386.60216 539.52182,386.78753 539.6529,386.85303 539.85784,386.6839 539.96147,386.78753 540.06509,386.89115 539.85784,387.12355 539.96147,387.22717 540.16872,387.43442 540.63351,387.01992 540.84076,387.22717 540.94438,387.3308 540.73713,387.56319 540.84076,387.66682 541.04801,387.87407 541.4579,387.53574 541.72005,387.66682 541.90542,387.75952 541.97432,388.01378 542.1597,388.10646 542.29077,388.17196 542.46826,388.04096 542.59934,388.10646 543.11147,388.36253 543.40614,388.72969 543.91828,388.98575 544.28432,389.16878 545.39798,388.70688 545.67686,388.98575 545.78048,389.08938 545.57323,389.32177 545.67686,389.4254 545.84816,389.5967 547.16715,389.4254 547.43544,389.4254 547.73094,389.4254 548.49491,389.29567 548.75437,389.4254 548.93974,389.5181 549.00865,389.77236 549.19402,389.86504 549.79621,390.16614 550.10762,389.62806 550.51295,389.4254 550.98191,389.19092 551.80258,389.65988 552.27153,389.4254 552.4569,389.3327 552.52581,389.07844 552.71118,388.98575 552.97662,388.85303 553.82688,389.18899 554.03011,388.98575 554.13374,388.88213 553.92649,388.64973 554.03011,388.54611 554.23736,388.33886 554.70215,388.75336 554.9094,388.54611 555.01303,388.44248 554.80578,388.21009 554.9094,388.10646 555.11665,387.89921 555.52654,388.23754 555.78869,388.10646 555.97406,388.01376 556.04297,387.7595 556.22834,387.66682 556.58006,387.49096 557.19556,387.84268 557.54727,387.66682 557.73264,387.57412 557.80155,387.31986 557.98692,387.22717 558.118,387.16167 558.32294,387.3308 558.42656,387.22717 558.53019,387.12355 558.32294,386.89115 558.42656,386.78753 558.63382,386.58028 559.0986,386.99478 559.30585,386.78753 559.40948,386.6839 559.20223,386.45151 559.30585,386.34788 559.51311,386.14063 559.92299,386.47896 560.18515,386.34788 560.69728,386.09182 560.99195,385.72466 561.50408,385.46859 561.76623,385.33752 562.17612,385.67584 562.38337,385.46859 562.487,385.36497 562.27975,385.13257 562.38337,385.02895 562.59062,384.8217 563.00051,385.16002 563.26266,385.02895 563.44803,384.93625 563.51694,384.68199 563.70231,384.5893 564.05402,384.41344 564.66953,384.76516 565.02124,384.5893 565.20661,384.4966 565.27552,384.24234 565.46089,384.14966 565.72304,384.01858 566.13293,384.35691 566.34018,384.14966 566.4438,384.04603 566.23655,383.81364 566.34018,383.71001 566.54743,383.50276 566.95731,383.84109 567.21947,383.71001 567.40484,383.61731 567.47374,383.36305 567.65911,383.27037 568.24531,382.97727 569.27114,383.56346 569.85734,383.27037 570.36947,383.0143 570.66414,382.64714 571.17627,382.39108 571.76247,382.09798 572.78831,382.68417 573.3745,382.39108 573.55987,382.29838 573.62877,382.04412 573.81414,381.95143 573.95562,381.88073 579.38806,381.88073 579.52953,381.95143 579.7149,382.04413 579.7838,382.29839 579.96918,382.39108 580.33522,382.5741 581.44888,382.1122 581.72776,382.39108 581.83138,382.4947 581.62413,382.7271 581.72776,382.83072 582.09413,383.19709 583.55961,382.46435 583.92598,382.83072 584.02961,382.93435 583.82236,383.16674 583.92598,383.27037 584.02961,383.37399 584.23455,383.20487 584.36563,383.27037 584.73637,383.45574 584.87418,383.96429 585.24492,384.14966 585.37599,384.21516 585.55349,384.08416 585.68456,384.14966 586.0553,384.33503 586.19311,384.84358 586.56385,385.02895 586.69493,385.09445 586.89987,384.92532 587.0035,385.02895 587.10712,385.13257 586.938,385.33752 587.0035,385.46859 587.18887,385.83933 587.69742,385.97714 587.88279,386.34788 587.94829,386.47896 587.77916,386.6839 587.88279,386.78753 587.98641,386.89115 588.21881,386.6839 588.32243,386.78753 588.42606,386.89115 588.25693,387.0961 588.32243,387.22717 588.41513,387.41254 588.66939,387.48145 588.76208,387.66682 588.86353,387.86973 588.86353,389.22249 588.76208,389.4254 588.66938,389.61077 588.41512,389.67967 588.32243,389.86504 588.25693,389.99612 588.38793,390.17361 588.32243,390.30469 588.13706,390.67543 587.62851,390.81324 587.44314,391.18398 587.44314,392.35637 587.58969,391.03743 587.0035,391.62362 586.89987,391.72725 587.10712,391.95964 587.0035,392.06327 586.89987,392.16689 586.66748,391.95964 586.56385,392.06327 586.46023,392.16689 586.66748,392.39929 586.56385,392.50291 586.46023,392.60654 586.22783,392.39929 586.12421,392.50291 586.02058,392.60654 586.22783,392.83893 586.12421,392.94256 585.91696,393.14981 585.50707,392.81148 585.24492,392.94256 584.73279,393.19862 584.43811,393.56578 583.92598,393.82185 583.66383,393.95293 583.25394,393.6146 583.04669,393.82185 582.94307,393.92548 583.15032,394.15787 583.04669,394.2615 582.82687,394.48132 581.94758,394.04167 581.72776,394.2615 581.62413,394.36512 581.83138,394.59751 581.72776,394.70114 581.50793,394.92096 580.62864,394.48132 580.40882,394.70114 580.3052,394.80477 580.51245,395.03716 580.40882,395.14079 579.96918,395.58043 578.2106,394.70114 577.77095,395.14079 577.66732,395.24441 577.87458,395.47681 577.77095,395.58043 577.43607,395.91531 574.01102,395.26217 573.3745,395.58043 573.18913,395.67313 573.12022,395.92739 572.93485,396.02008 572.4736,396.2507 571.08754,395.66917 570.73663,396.02008 570.633,396.1237 570.84025,396.3561 570.73663,396.45972 570.52938,396.66697 570.15043,396.45972 569.85734,396.45972 569.14688,396.45972 565.40218,396.65019 565.02124,396.45972 564.83587,396.36702 564.76697,396.11276 564.5816,396.02008 564.11264,395.7856 563.29197,396.25455 562.82302,396.02008 562.63765,395.92738 562.56874,395.67312 562.38337,395.58043 562.12122,395.44935 561.76623,395.71151 561.50408,395.58043 561.31871,395.48773 561.24981,395.23347 561.06444,395.14079 560.80228,395.00971 560.3924,395.34804 560.18515,395.14079 560.08152,395.03716 560.28877,394.80477 560.18515,394.70114 559.97789,394.49389 559.56801,394.83222 559.30585,394.70114 559.12048,394.60844 559.05158,394.35418 558.86621,394.2615 558.60406,394.13042 558.26498,394.3542 557.98692,394.2615 557.67604,394.15787 557.41851,393.92548 557.10763,393.82185 556.9686,393.77555 556.79906,393.88735 556.66798,393.82185 556.48261,393.72915 556.41371,393.47489 556.22834,393.3822 555.96619,393.25113 555.6112,393.51328 555.34905,393.3822 555.16368,393.2895 555.09477,393.03525 554.9094,392.94256 554.64396,392.80984 553.7937,393.14579 553.59047,392.94256 553.48684,392.83893 553.69409,392.60654 553.59047,392.50291 553.38322,392.29566 552.97333,392.63399 552.71118,392.50291 552.52581,392.41021 552.4569,392.15595 552.27153,392.06327 552.00938,391.93219 551.59949,392.27052 551.39224,392.06327 551.28862,391.95964 551.49587,391.72725 551.39224,391.62362 551.18499,391.41637 550.77511,391.7547 550.51295,391.62362 550.00082,391.36756 549.70615,391.0004 549.19402,390.74433 549.06294,390.67883 548.858,390.84796 548.75437,390.74433 548.65075,390.64071 548.858,390.40831 548.75437,390.30469 548.53455,390.08487 547.65526,390.52451 547.43544,390.30469 547.33181,390.20106 547.58198,389.86504 547.43544,389.86504 547.22819,389.86504 546.99579,390.09744 546.99579,390.30469 546.99579,390.45124 547.30436,390.23919 547.43544,390.30469 547.62081,390.39739 547.7824,390.55896 547.87508,390.74433 548.00616,391.00649 547.87508,391.33053 547.87508,391.62362"
       inkscape:connector-curvature="0"
       id="path892"
       style="fill:none;stroke:#0000e9;stroke-width:0.99000001;stroke-miterlimit:4;stroke-opacity:1;stroke-dasharray:none;stroke-dashoffset:0" />
    <path
       d="M 509.18631,170.92177 C 509.68994,174.22995 505.06014,171.8786 503.03128,173.99929 501.87625,175.32873 499.35547,178.45134 498.97917,181.99892 498.67121,186.71817 499.34957,190.65 503.03128,193.78332 503.50675,195.36529 506.46992,197.00955 507.86738,198.17977 509.92248,200.38836 513.47442,202.60604 514.33685,204.33284 515.58441,205.35296 518.00181,207.47277 518.8585,208.29161 522.01202,211.73342 524.72389,214.23974 526.33247,218.40345 527.84832,220.39919 529.97607,222.77893 530.72892,225.43777 532.6275,227.64871 533.17939,232.33024 533.80644,235.98925 534.07012,241.36787 532.18793,245.56386 532.04786,250.49754 531.88421,254.86671 530.78562,258.63011 529.84963,262.36796 529.78433,265.83559 527.92658,268.56538 527.73384,271.68294 526.75379,273.62552 529.22435,280.04934 528.06249,281.69176 M 527.6514,281.2727 C 528.16923,285.56782 518.90192,304.80185 516.66028,306.77211 515.08428,308.35512 515.10417,311.37354 513.58276,313.36679 512.89618,316.87515 511.59108,318.46055 510.94489,321.72005 509.33855,324.23026 508.448,327.47109 506.54844,329.63366 505.78485,331.82519 504.19878,333.14783 501.87895,334.42554 501.49931,335.71973 499.19915,338.29259 498.19518,340.62479 497.46328,344.46549 495.93486,348.53762 497.75554,352.05556 498.7191,354.18863 501.18836,356.18153 504.3829,357.29536 507.18729,358.07071 510.32302,359.78178 513.14312,360.40882 514.20153,361.34603 519.34604,362.26352 518.41886,363.48634 518.06872,363.81117 519.09557,364.61677 517.97921,363.48634"
       inkscape:connector-curvature="0"
       id="path894"
       style="fill:none;stroke:#0000e9;stroke-width:0.99000001;stroke-miterlimit:4;stroke-opacity:1;stroke-dasharray:none;stroke-dashoffset:0" />
    <path
       d="M 521.65459,134.22826 C 530.85414,134.904 539.74379,138.04745 548.18442,141.59232 558.31051,145.71434 567.81921,151.16416 577.43456,156.29295 587.18834,161.84274 595.8482,169.1035 603.88196,176.8601 610.76357,184.16124 616.77637,192.21739 622.15471,200.62842 631.57023,214.51886 638.42033,230.36108 641.37545,246.92854 642.8763,256.33834 643.17632,266.16504 640.11562,275.29642 636.60172,287.2659 632.54791,299.36545 625.53449,309.77032 621.50339,314.20148 618.41768,319.4726 614.58458,324.1 611.45603,328.95225 607.80908,333.42545 603.06986,336.77877 595.77849,342.18396 588.56925,347.78376 581.32267,353.19901 576.38881,356.40217 571.10349,359.32538 566.62204,363.03607 561.06169,368.64921 554.01611,372.54278 546.64567,375.19501 542.49791,376.68502 538.55322,379.17309 534.32186,380.3471 532.25543,378.62862 532.61273,375.29332 532.45337,372.83191 532.92847,362.52341 540.29699,354.16675 548.33567,348.44618 555.33551,342.97567 562.39391,337.6378 568.59226,331.30504 576.41194,323.58784 584.64837,316.10209 591.6947,307.77131 599.80012,295.77838 604.89821,281.98295 607.3315,267.76453 609.70863,259.01009 608.97353,249.69985 608.1161,240.75104 606.68015,232.27504 602.02404,224.68008 597.60848,217.48132 592.85203,209.67493 586.5707,202.73697 580.33347,196.16327 576.84561,192.69715 573.64133,188.86977 569.59075,185.94926 561.57463,178.6978 552.15642,173.3149 541.89679,169.90777 529.96385,164.44039 517.06497,161.18178 503.95887,159.92003 500.32233,159.20024 496.4703,158.93009 492.94027,158.25762 490.21064,150.83316 487.19247,143.47637 484.73814,135.97311 485.78495,134.63954 487.76455,136.71061 489.20328,136.57762 497.406,137.3127 505.57601,135.25692 513.74437,134.69722 516.3718,134.44044 519.01151,134.17514 521.65459,134.22826 z"
       inkscape:connector-curvature="0"
       id="path896"
       style="fill:#9799b4;stroke:none" />
    <path
       d="M 497.55654,159.42543 C 510.69381,161.24486 524.03139,162.85265 536.34148,168.0672 543.51962,171.45257 551.41018,173.24634 558.00489,177.86987 564.69035,182.25494 571.11329,187.46333 576.72014,193.15445 583.60072,200.53362 590.9736,207.79186 596.35304,216.5106 601.80441,225.544 608.08883,235.01165 608.18224,245.98056 608.22234,252.14553 608.83526,258.47788 607.70138,264.54183 605.83533,271.14108 605.11555,278.20037 602.52181,284.68307 598.37215,296.25717 592.6449,307.65679 583.47968,316.02152 572.55316,326.36462 562.38761,337.59631 550.08039,346.35704 543.97649,350.95436 538.09706,356.05711 534.47299,362.88494 532.09114,367.98489 531.40686,373.72458 532.3572,379.24799 531.59989,381.02148 529.84326,378.54466 529.04612,377.92905 527.16159,375.43237 525.06003,373.23201 523.0697,370.75734 520.13668,366.99441 517.15527,361.45742 519.99218,356.85356 522.87486,353.4602 527.44675,352.09135 530.48871,348.80256 539.02928,341.33421 546.12326,332.37659 553.84535,324.15339 560.00975,316.40684 566.74982,309.10417 573.57393,301.99409 577.07605,297.96731 579.03257,293.02856 582.5317,288.99709 589.20256,281.3524 593.3405,272.01519 596.16112,262.31645 598.27662,252.17851 596.74826,241.4283 593.5503,231.67835 591.60831,226.3285 588.6678,221.42069 585.4993,216.79911 580.37411,208.67863 572.90872,202.43718 565.97631,195.88849 556.4871,187.67135 545.05197,181.68611 533.23649,177.46461 521.55408,173.79504 509.74756,170.50229 498.02366,166.99556 496.61985,166.53301 494.5192,165.87026 494.90493,164.01422 494.94143,162.31606 492.82792,160.23811 493.81956,158.84839 495.06822,158.99624 496.31065,159.24113 497.55654,159.42543 z"
       inkscape:connector-curvature="0"
       id="path898"
       style="fill:#9fa085;stroke:none" />
    <path
       d="M 513.14312,341.06444 C 510.73833,345.46231 514.5217,338.19482 512.70347,343.26266 516.30156,345.24208 510.72216,338.23714 515.34134,342.38337 516.71777,339.13256 518.98877,339.00287 520.61708,336.22834 522.77373,334.50052 523.72452,330.46409 525.89086,329.31922 527.40818,327.48819 529.25501,324.25252 530.72892,322.1597 532.63398,319.5411 534.2016,317.57344 536.71151,314.77857 540.74841,311.11731 544.43938,307.58439 547.94103,303.72757 549.30375,301.4013 551.10693,300.66082 551.83189,299.73779 553.0085,297.08104 556.24624,294.32638 557.98692,293.14312 559.42948,291.27028 561.52354,289.77311 563.26266,286.98809 564.83758,284.95404 567.55126,282.05061 568.97805,279.51412 570.44805,277.34818 571.48357,275.50087 572.93485,272.4798 574.25447,269.89883 575.60984,267.24146 576.45201,264.56619 578.33921,261.24223 576.5833,257.03239 576.53441,253.20411 575.23431,249.5074 574.9456,245.49462 573.35936,241.91805 572.84697,237.81954 571.78627,234.33489 570.29694,230.27386 568.39289,226.86294 566.45999,223.86645 564.41985,221.15754 563.43189,217.95476 559.84679,214.88034 558.42849,213.69255 556.92106,211.49092 553.84992,209.81993 551.3922,208.29161 550.36213,206.97151 548.55148,205.57363 546.33628,204.3348 544.01366,202.60334 541.33732,202.23198 539.08214,200.378 536.74518,198.97975 536.01009,197.08978 533.8064,196.42119 533.07364,195.50851 527.08805,192.46625 529.46986,195.86678 531.54227,198.87946 536.28974,202.16144 538.42267,204.99427 541.57959,207.90195 544.13745,211.77796 546.55611,215.32593 548.30193,218.84678 549.58007,221.38633 550.51291,224.99812 552.12232,228.63522 552.64432,232.6691 552.71114,236.86854 554.03147,242.16813 552.41019,248.12961 551.3922,253.13541 550.88904,256.62306 549.91854,259.48525 548.31469,262.36796 547.65431,265.03267 546.50599,268.68741 545.23717,270.28157 544.81015,273.05667 542.06729,275.65904 540.37359,278.34631 538.07249,281.08175 537.14346,281.70629 536.00462,283.47092 534.03476,285.10968 532.38146,286.89714 529.84959,287.42773 527.99041,288.68393 527.67016,280.25447 530.28924,279.07447 531.62321,276.74961 533.37329,275.55233 534.68569,274.23838 536.03435,271.45922 537.43432,270.69878 538.59828,267.81031 540.16932,267.36981 541.64256,262.88667 543.03895,261.04902 544.82173,258.17543 546.45354,255.62628 546.55611,251.81648 548.53231,247.24214 547.40165,241.06771 546.41746,236.37148 545.42988,232.34659 543.86755,229.02872 542.15966,225.43777 541.35068,223.29888 539.53316,219.4107 537.7632,216.20522 535.94366,213.31178 535.44398,211.09771 533.36675,208.29161 531.21511,205.00694 530.37036,204.05364 527.68434,201.19134 525.81534,200.09541 524.47758,198.30819 521.95657,197.71156 519.41282,196.50486 516.63566,194.12208 515.77897,192.77883 513.79229,191.73213 510.8067,186.87165 512.11266,184.42712 514.66943,181.91318 519.18293,183.72707 522.37562,184.55077 525.75713,185.92522 529.38859,185.97602 532.10944,188.59196 535.02468,190.09393 539.44096,193.48197 543.47859,195.10225 546.73373,198.15156 550.47579,200.7293 553.78558,202.96871 554.78982,203.80638 557.44148,205.89618 559.30581,207.85196 563.07549,210.00469 565.39759,213.43842 568.53836,216.64487 568.93185,219.03251 573.33847,223.31206 574.69339,226.7567 577.69982,229.48527 578.41743,232.36397 579.52949,235.98925 581.2851,238.92382 581.67853,241.69346 582.46525,245.23293 583.26371,249.95417 583.35124,255.68279 582.68944,260.54068 581.86122,264.22654 581.24307,267.29333 579.96914,270.72122 578.46671,272.95876 577.41167,275.36302 576.01233,278.19518 575.15015,279.51106 573.67781,283.49371 572.45096,283.19789 570.46046,287.0343 568.67239,286.95742 565.90049,289.84578 564.29098,291.34681 562.97098,292.75736 562.50853,293.5808 560.43149,294.86352 558.90164,298.58041 557.10759,300.61708 555.2973,302.0455 553.33247,305.10378 551.3922,307.65141 549.71505,309.43673 547.58449,312.54402 546.50893,313.61129 544.52074,316.60265 541.92494,319.07686 539.52178,322.1597 537.0531,325.3148 536.42071,326.07181 534.65821,328.02621 531.8288,330.98898 530.12746,332.99291 528.09101,336.22834 525.90272,338.67481 524.51505,341.23628 521.93598,343.70231 519.82003,344.98117 517.38146,346.44718 514.75598,347.63434 512.46469,347.55784 513.1649,342.83701 513.14308,341.06444 z"
       inkscape:connector-curvature="0"
       id="path900"
       style="fill:none;stroke:#0000e9;stroke-width:1;stroke-miterlimit:4;stroke-opacity:1;stroke-dasharray:none;stroke-dashoffset:0" />
    <path
       d="M 516.14528,172.76591 C 523.75391,175.21777 531.56305,177.18495 538.99309,180.08875 548.10926,183.93446 556.75559,189.00498 564.46503,195.22902 571.63027,202.0793 579.40039,208.58962 584.94975,216.88155 587.54988,221.25132 590.68315,225.47327 592.45119,230.35942 596.1896,239.89942 597.60524,250.57509 596.05079,260.74989 594.54478,266.33481 592.63369,271.90581 590.05083,277.07002 587.21495,282.61628 583.00897,287.14564 579.50914,292.25321 577.24009,295.27138 575.71601,298.82248 573.02144,301.66171 567.45879,307.83664 561.49696,313.70115 556.34095,320.30423 550.27177,327.46712 543.96021,334.36918 537.58592,341.24383 532.89595,345.6478 528.44666,350.67239 522.73996,353.70735 519.7794,354.89854 518.33846,358.24766 518.2336,361.23627 516.52382,362.41365 514.32988,360.35258 512.53185,360.07877 507.58647,357.85286 501.27939,356.84843 498.1061,352.03121 496.06528,346.96555 498.22602,341.22966 500.77144,336.7398 502.44175,333.92198 505.66425,332.52427 507.01528,329.46587 512.32163,321.56664 513.3891,311.64407 518.85981,303.78082 521.99325,298.4807 524.10524,292.62391 526.83416,287.16981 527.92106,285.75865 529.05571,288.23939 530.42001,287.37589 535.83609,285.60469 538.78396,280.06541 542.3866,276.02755 545.43854,271.51668 547.42248,266.56813 549.14615,261.45057 553.03665,250.95143 554.57086,239.28142 551.73522,228.32474 549.58948,218.3812 543.79214,209.6198 536.53635,202.69699 534.57489,200.37564 531.61572,198.63494 530.3101,195.90223 531.27628,194.38181 533.24132,196.46038 534.34934,197.01508 539.66593,201.69013 546.58254,204.04855 551.89393,208.83055 560.71339,214.74101 567.11287,223.88326 571.07345,233.65676 573.07453,240.19258 574.5861,246.91891 576.1431,253.56444 577.03318,258.11671 577.53978,263.0455 575.09895,267.23465 570.14945,279.88202 560.81326,289.96742 551.37533,299.45568 542.78761,308.65818 533.2056,317.0405 526.57312,327.80951 522.68172,332.30257 519.90488,337.96012 514.89504,341.32859 513.83443,341.56202 513.75554,339.67644 513.04029,341.23239 512.17736,343.23926 512.62413,346.03714 514.05697,347.60725 516.90488,347.63455 519.40849,345.31716 521.81945,343.92522 526.80207,339.13461 530.39515,333.02876 535.08109,327.89311 544.06694,317.08779 553.09927,306.07846 561.57986,295.04218 565.66494,289.74244 571.64677,286.20697 575.05773,280.43771 577.93067,274.99129 581.21292,269.56276 582.24804,263.34454 584.1127,254.95083 583.48178,245.84491 580.67695,237.75092 578.85127,233.83893 577.96645,229.48811 574.87913,226.23771 572.45751,222.93867 570.34476,219.37272 568.27071,215.90605 556.84763,203.98058 543.16381,194.06709 528.55152,186.32618 523.74936,184.838 518.73773,182.53286 513.61733,183.27614 510.54814,184.05736 511.71858,188.12792 513.04029,189.98073 515.97363,194.59403 520.66697,197.22101 525.24044,199.90022 533.7857,206.49917 537.83832,217.01934 542.34495,226.48851 546.1656,234.66867 549.10164,244.30402 546.11131,253.19361 545.02387,258.19831 541.95511,262.3712 539.40526,266.67133 536.20711,270.74062 533.79928,275.76606 529.38959,278.69287 527.76524,278.36759 528.22217,275.84724 527.87831,274.54372 527.61006,269.79825 529.95912,265.34008 530.53294,260.67265 532.0379,253.25969 533.02691,245.77502 533.85474,238.28674 534.21945,230.44405 530.40268,223.20161 525.96095,217.01364 522.31523,210.90922 516.69495,206.25341 511.68376,201.28919 507.60812,197.21229 501.71163,194.0483 499.75477,188.33206 498.45242,183.25181 499.50846,177.03443 504.01383,173.87873 505.93188,172.72293 508.76483,173.79893 509.92156,171.26834 511.92218,171.16453 514.13495,172.39105 516.14528,172.76588 z"
       inkscape:connector-curvature="0"
       id="path902"
       style="fill:none;stroke:none" />
    <path
       d="M 471.90599,113.13904 C 473.88238,114.4657 473.7498,117.47577 475.01099,119.3765 477.04167,124.49475 480.07532,129.06635 482.88338,133.70619 487.10921,143.54232 490.78057,153.70386 494.28668,163.80814 493.59283,165.59102 491.57601,163.17358 490.75364,162.58554 486.67826,159.07115 484.2294,154.17736 480.54603,150.29072 473.90425,142.06192 468.50244,132.80809 460.69504,125.72388 459.29505,124.19402 457.42213,123.11135 456.2299,121.47856 460.27614,118.66268 465.07018,116.59463 469.43131,114.12354 470.23983,113.82559 470.99912,113.05798 471.90599,113.13904 z"
       inkscape:connector-curvature="0"
       id="path904"
       style="fill:#d2a09a;stroke:none" />
    <path
       d="M 459.59593,96.391306 C 464.25647,100.90463 468.5035,105.97901 471.78234,111.61402 470.7043,113.61702 467.32886,114.19318 465.39793,115.65235 462.17983,117.43708 458.59596,119.18673 455.79025,121.34117 452.81894,119.64417 450.18597,117.19215 446.99735,115.74943 444.56623,114.06541 441.18851,113.45127 439.26234,111.18811 439.56548,109.24705 442.45729,108.78357 443.63937,107.37174 448.74191,103.69001 453.85335,100.02063 458.96394,96.350089 L 459.40265,96.378699 459.59593,96.391299 z"
       inkscape:connector-curvature="0"
       id="path906"
       style="fill:#98d8de;stroke:none" />
    <path
       d="M 383.77089,71.386489 C 408.40307,78.874781 432.97947,86.860597 457.34186,95.035397 459.28217,95.881231 456.29275,97.353855 455.55778,98.064284 449.66142,102.38157 443.77386,106.97853 437.61367,110.76221 430.60377,107.89022 423.75396,104.71676 416.62901,102.18006 407.4598,97.737995 396.98182,96.370105 388.30337,90.761467 385.74543,89.941242 384.16008,88.285063 384.78757,85.468872 384.08551,80.937445 382.9482,76.362195 383.08394,71.716223 383.16544,71.42431 383.51445,71.359241 383.77089,71.386489 z"
       inkscape:connector-curvature="0"
       id="path908"
       style="fill:#c68582;stroke:none" />
    <path
       d="M 422.30853,73.035159 C 433.9344,79.472788 445.99051,85.373106 457.19162,92.420761 457.74126,94.255605 454.86151,92.998473 454.07289,92.874145 431.19054,86.023018 408.41368,78.709099 385.81753,71.014899 384.09722,70.694446 382.21077,69.754921 382.60308,67.690723 382.75122,63.030583 383.4981,57.388855 387.33446,54.415147 399.0236,60.363113 410.65347,66.875873 422.30853,73.035159 z"
       inkscape:connector-curvature="0"
       id="path910"
       style="fill:#cce198;stroke:none" />
    <path
       d="M 454.48114,89.617012 C 432.41035,77.978145 410.46717,66.099118 388.46959,54.322763 388.16304,52.386347 391.51109,51.140433 392.53926,49.486333 398.4822,43.492639 406.90794,40.58374 415.29627,40.787184 402.28584,24.469627 471.08023,102.26629 454.48114,89.617012 z"
       inkscape:connector-curvature="0"
       id="path912"
       style="fill:none;stroke:none" />
    <path
       d="M 426.76088,40.374101 C 427.83096,40.244071 428.91465,40.569635 429.13131,41.705039 439.60959,57.934683 450.92225,73.574895 461.48185,89.735388 461.74338,91.243865 459.80484,90.712615 459.10171,90.191987 473.83859,74.767608 397.47925,42.86702 418.68782,40.568398 421.37074,40.340358 424.07053,40.367491 426.76088,40.374101 z"
       inkscape:connector-curvature="0"
       id="path914"
       style="fill:none;stroke:none" />
    <path
       d="M 432.70639,40.47125 C 444.41477,41.030032 456.07286,42.407244 467.61194,44.454349 468.56577,45.897309 467.82791,48.158609 468.12653,49.912968 468.37522,64.313128 468.65124,78.730783 468.20453,93.12588 467.30009,94.2353 465.71645,92.495156 464.60338,92.258772 462.31323,91.176684 461.54973,88.337752 459.92315,86.498724 449.57357,71.34251 439.154,56.216318 428.85928,41.034713 428.60134,39.451141 431.90467,40.760137 432.70637,40.47125 z"
       inkscape:connector-curvature="0"
       id="path916"
       style="fill:none;stroke:none" />
    <path
       d="M 469.21489,45.056671 C 477.15955,47.304441 485.48122,48.024377 493.49883,50.080518 501.7099,52.399987 509.82382,55.130126 518.04801,57.360409 522.28421,59.097399 526.74614,60.466551 530.84607,62.426871 531.42074,63.684469 529.97381,65.085726 529.80247,66.39097 523.71004,82.714725 517.77286,99.124237 511.63004,115.41181 510.00902,115.92439 508.36116,114.48819 506.80839,114.06313 496.1096,109.28179 485.74095,103.67568 475.7517,97.616677 473.55196,96.294947 470.86264,95.392328 468.8943,93.844781 468.7549,77.755624 468.56665,61.612715 468.54457,45.503556 468.76073,45.325828 468.82405,44.874232 469.21489,45.056671 z"
       inkscape:connector-curvature="0"
       id="path918"
       style="fill:none;stroke:none" />
    <path
       d="M 426.73174,40.354671 C 427.80485,40.220522 428.91636,40.556223 429.13131,41.705039 439.84602,58.198898 451.20996,74.246322 462.18132,90.570868 462.11612,92.115421 459.73029,90.948924 458.63539,91.435492 457.26672,91.977016 455.94058,90.275125 454.61144,89.88971 432.59573,78.083238 410.57882,66.267745 388.62999,54.344093 387.86602,53.211625 389.78892,52.29354 390.30588,51.420007 395.90017,45.302575 403.72917,41.066856 412.13028,40.859845 416.98795,40.506081 421.86048,40.301698 426.73174,40.354671 z"
       inkscape:connector-curvature="0"
       id="path920"
       style="fill:#a36ed8;stroke:none" />
    <path
       d="M 432.70639,40.47125 C 444.41477,41.030032 456.07286,42.407244 467.61194,44.454349 468.56577,45.897309 467.82791,48.158609 468.12653,49.912968 468.37522,64.313128 468.65124,78.730783 468.20453,93.12588 467.30009,94.2353 465.71645,92.495156 464.60338,92.258772 462.31323,91.176684 461.54973,88.337752 459.92315,86.498724 449.57357,71.34251 439.154,56.216318 428.85928,41.034713 428.60134,39.451141 431.90467,40.760137 432.70637,40.47125 z"
       inkscape:connector-curvature="0"
       id="path922"
       style="fill:#abd9cd;stroke:none" />
    <path
       d="M 469.21489,45.056671 C 477.15955,47.304441 485.48122,48.024377 493.49883,50.080518 501.7099,52.399987 509.82382,55.130126 518.04801,57.360409 522.28421,59.097399 526.74614,60.466551 530.84607,62.426871 531.42074,63.684469 529.97381,65.085726 529.80247,66.39097 523.71004,82.714725 517.77286,99.124237 511.63004,115.41181 510.00902,115.92439 508.36116,114.48819 506.80839,114.06313 496.1096,109.28179 485.74095,103.67568 475.7517,97.616677 473.55196,96.294947 470.86264,95.392328 468.8943,93.844781 468.7549,77.755624 468.56665,61.612715 468.54457,45.503556 468.76073,45.325828 468.82405,44.874232 469.21489,45.056671 z"
       inkscape:connector-curvature="0"
       id="path924"
       style="fill:#a39ccb;stroke:none" />
    <path
       d="M 531.973,62.84461 C 545.08911,67.298949 558.36642,71.5123 570.87136,77.494644 575.51384,79.959039 580.14646,82.830576 583.40355,86.956934 584.91196,88.205629 587.17888,87.167875 588.6593,88.608463 592.77974,91.395891 597.12554,94.087625 600.62803,97.633583 600.56893,99.283359 598.77666,100.54111 598.07301,102.01499 589.31593,114.70053 580.50441,127.35069 571.65827,139.97101 570.32789,140.40592 569.14448,138.70673 567.87918,138.30977 562.15615,135.33134 555.94479,133.43375 549.98438,131.03333 542.50988,127.36402 534.36621,125.39271 526.66867,122.27051 521.73159,120.35979 516.59318,118.73085 512.03807,116.03356 511.72073,114.54458 513.14325,113.02447 513.4187,111.52089 519.46518,95.421896 525.35798,79.265658 531.3221,63.136057 531.51814,62.960289 531.64395,62.677587 531.973,62.84461 z"
       inkscape:connector-curvature="0"
       id="path926"
       style="fill:#b478b6;stroke:none" />
    <path
       d="M 601.81324,98.061037 C 606.88298,100.70046 611.42175,104.32534 615.97878,107.76438 624.3303,115.23044 633.76468,121.55212 641.00305,130.19785 645.97679,136.17944 652.42259,140.65621 657.2949,146.752 657.49874,148.38821 655.36767,149.18197 654.46895,150.27341 642.62895,160.07418 630.52008,169.58046 618.55197,179.23855 617.11483,179.21965 616.57623,177.0514 615.48576,176.20294 610.99092,170.49079 605.48699,165.6629 600.3463,160.51798 594.05279,154.47625 586.25188,150.19186 579.25171,144.92556 577.17199,143.21743 574.49608,142.41067 572.41603,140.76763 571.68192,139.161 573.89785,137.98181 574.41522,136.63306 583.45817,123.83473 592.28329,110.83709 601.3955,98.109612 601.53007,98.074772 601.66464,98.034052 601.81324,98.061042 z"
       inkscape:connector-curvature="0"
       id="path928"
       style="fill:#dad3b7;stroke:none" />
    <path
       d="M 658.4024,148.31609 C 668.34287,159.00357 675.82449,171.67538 683.31671,184.14146 687.09615,190.38885 689.63972,197.23016 691.56723,204.25991 693.30919,208.90321 694.34616,213.76836 694.44459,218.73923 694.52064,221.99287 695.21756,225.25756 695.11492,228.49297 693.37023,229.33927 691.12526,228.86616 689.21282,229.24324 675.02774,230.22856 660.85345,231.51872 646.6474,232.11662 645.36002,232.35349 645.1361,231.11942 645.07415,230.16161 643.86423,225.14141 642.31525,220.2033 639.97029,215.5961 637.17076,208.80638 633.75722,202.28477 629.97667,196.02585 626.89703,190.37341 622.61821,185.45666 618.83371,180.29747 618.41663,178.84979 620.78261,178.3322 621.51257,177.30322 633.57557,167.61278 645.65308,157.94041 657.72236,148.2578 657.94864,148.2798 658.22358,147.98672 658.4024,148.3161 z"
       inkscape:connector-curvature="0"
       id="path930"
       style="fill:#768e99;stroke:none" />
    <path
       d="M 695.12463,229.34788 C 696.19846,230.37607 695.7148,232.4335 696.09612,233.89444 696.85622,241.11473 694.31979,248.02002 692.6862,254.92715 692.90282,256.52416 693.63372,258.3709 692.28789,259.73601 691.11093,261.02065 689.85039,263.40975 687.78312,262.68556 674.41907,260.93997 661.0215,259.46139 647.63831,257.87076 646.62859,256.47557 647.41859,254.15952 647.11317,252.41177 646.90971,245.95316 647.27703,239.36398 645.67591,233.07839 646.67868,231.90303 648.90125,232.67718 650.36278,232.26441 665.28114,231.28089 680.19633,230.10269 695.12463,229.34788 z"
       inkscape:connector-curvature="0"
       id="path932"
       style="fill:#c1dfbe;stroke:none" />
    <path
       d="M 647.90062,258.39536 C 661.3257,259.74571 674.75571,261.23009 688.12021,263.0585 689.04875,264.23335 687.01793,265.37279 686.66297,266.48785 685.8194,267.93914 685.16719,269.98866 686.76984,271.20928 689.12874,274.30875 692.38639,276.86473 694.21143,280.35098 695.07439,283.24416 695.8097,286.45344 695.06634,289.43439 694.27789,290.77384 692.24116,289.31821 691.00075,289.47169 674.96813,286.81943 658.88339,284.42536 642.89746,281.52645 641.91932,280.26889 643.46691,278.52593 643.50043,277.12594 645.03978,271.12422 646.2338,265.02379 647.05542,258.91022 647.18878,258.5912 647.53772,258.32078 647.90062,258.39533 z"
       inkscape:connector-curvature="0"
       id="path3063"
       style="fill:#9b7d71;stroke:none" />
    <path
       d="M 578.40039,382.34408 C 580.51748,382.32618 582.57009,383.00191 584.50133,383.76245 586.1044,385.06333 588.05876,386.53362 588.73702,388.53245 587.99605,390.95101 585.6559,392.78947 583.35498,393.67162 581.63939,394.03509 580.0431,394.99484 578.20609,394.95399 576.83774,395.50091 575.36794,395.58228 573.86431,395.56836 570.59964,395.8566 567.32496,396.86999 564.06123,395.90605 561.64973,395.64281 559.65321,394.07019 557.30939,393.72991 555.41257,392.93062 553.44234,392.42377 551.5679,391.60236 550.66148,391.74259 549.36945,390.55986 550.51869,389.94111 552.83335,389.4255 555.09166,388.72211 557.28025,387.76498 559.24257,387.32637 560.77233,385.70091 562.80801,385.46255 564.28702,384.4148 566.28601,384.67018 567.6946,383.60701 569.04149,383.36711 570.42254,383.31687 571.61941,382.58695 573.84943,382.22078 576.14566,382.37705 578.40039,382.34408 z"
       inkscape:connector-curvature="0"
       id="path3071"
       style="fill:#81728f;stroke:none" />
    <path
       d="M 643.06968,282.03242 C 660.2287,284.88377 677.43262,287.517 694.57795,290.42607 695.57979,291.34035 694.34115,292.93645 694.31112,294.07751 693.1128,299.51918 689.65684,304.01064 687.70091,309.18832 685.05032,315.52246 682.3004,321.83138 678.51847,327.57524 677.24623,329.49929 676.83664,331.82589 677.17861,334.10416 676.40329,337.33661 674.1662,340.00835 672.87,343.06636 672.20678,344.55382 671.38484,346.98441 669.50769,345.15433 653.98093,337.32426 638.19849,330.1173 622.30051,323.06487 620.47258,322.75014 621.55498,321.10712 622.24271,320.18277 625.2089,315.47952 628.8874,311.26035 631.42888,306.27469 635.98662,299.07802 638.17473,290.59633 641.729,282.91647 641.99725,282.42674 642.44332,281.91218 643.06966,282.03242 z"
       inkscape:connector-curvature="0"
       id="path5934"
       style="fill:#ba9676;stroke:none" />
    <path
       d="M 620.90033,322.95148 C 637.76158,330.22011 654.47412,337.83511 670.77651,346.28661 671.16448,348.09705 670.92614,350.2635 670.39763,352.10583 668.39347,354.48903 666.7662,357.25936 664.69499,359.55714 662.8775,361.58291 661.41357,364.16719 659.41981,366.15354 654.79042,371.22911 650.80811,376.9485 645.72184,381.57105 644.29318,383.27179 642.42214,381.35654 640.8644,380.92986 623.03099,372.99968 605.15021,364.96988 588.82181,354.19452 588.13252,352.97127 590.41724,352.81515 591.00765,352.03782 595.89168,348.91149 600.52153,345.42904 604.62013,341.30615 610.3654,336.05355 616.61658,330.96906 619.88027,323.72867 620.11262,323.35986 620.33209,322.76218 620.90033,322.95148 z"
       inkscape:connector-curvature="0"
       id="path5936"
       style="fill:#939f6c;stroke:none" />
    <path
       d="M 587.88918,354.03909 C 601.63975,363.0621 616.33786,370.35643 631.33642,377.04965 635.39214,378.90985 639.51323,380.65317 643.51656,382.61054 644.38477,383.78198 642.28915,384.53241 641.72902,385.35985 636.62097,389.65968 631.29728,394.51524 624.41711,395.57018 617.27453,397.69124 609.73474,398.43884 602.66551,400.95223 601.12265,400.64822 600.97824,398.51683 599.93562,397.60059 599.51295,395.9147 597.81555,395.03056 597.04059,393.57863 592.32088,388.80318 587.4657,384.11625 581.86595,380.37612 581.19111,379.42976 579.89552,379.44419 579.29151,378.43314 577.35187,376.62801 574.95028,375.72713 572.80197,374.2266 570.955,372.74655 568.39701,372.702 566.45816,371.34128 564.59105,370.94583 562.97009,369.89486 561.05669,369.7189 559.93234,368.63933 562.03452,367.57965 562.76651,366.96959 564.29444,366.04131 566.09181,364.35635 567.94454,365.46378 569.76063,365.48828 571.04765,363.86122 572.71454,363.36537 577.70114,360.30043 582.29269,356.29432 587.70454,354.03547 L 587.88918,354.03947 z"
       inkscape:connector-curvature="0"
       id="path5939"
       style="fill:#e1d672;stroke:none" />
  </g>
</svg>
