<?xml version="1.0" encoding="UTF-8" standalone="no"?>
<!-- Created with Inkscape (http://www.inkscape.org/) -->

<svg
   xmlns:dc="http://purl.org/dc/elements/1.1/"
   xmlns:cc="http://creativecommons.org/ns#"
   xmlns:rdf="http://www.w3.org/1999/02/22-rdf-syntax-ns#"
   xmlns:svg="http://www.w3.org/2000/svg"
   xmlns="http://www.w3.org/2000/svg"
   xmlns:xlink="http://www.w3.org/1999/xlink"
   xmlns:inkscape="http://www.inkscape.org/namespaces/inkscape"
   version="1.1"
   width="740"
   height="520"
   id="svg2"
   style="display:inline;enable-background:new">
  <defs
     id="defs4">
    <filter
       color-interpolation-filters="sRGB"
       id="filter3050">
      <feBlend
         in2="BackgroundImage"
         mode="lighten"
         id="feBlend3052" />
    </filter>
  </defs>
  <metadata
     id="metadata7">
    <rdf:RDF>
      <cc:Work
         rdf:about="">
        <dc:format>image/svg+xml</dc:format>
        <dc:type
           rdf:resource="http://purl.org/dc/dcmitype/StillImage" />
        <dc:title />
      </cc:Work>
    </rdf:RDF>
  </metadata>
  <g
     id="g736"
     style="display:none">
    <image
       xlink:href="pngs/coronal-0813.png"
       id="image738"
       height="520"
       width="740"
       y="0"
       x="0" />
  </g>
  <g
     id="g744"
     style="display:inline">
    <path
       d="M 518.65626,355.2357 C 518.66526,357.55056 522.52777,351.73986 525.49553,350.26168 528.27664,348.55376 529.81782,345.37685 532.95656,342.80066 537.56504,338.7589 538.95208,336.6245 543.52634,334.71788 546.68649,331.86216 550.24998,329.49038 553.47437,326.6351 555.94938,324.71275 557.33144,322.93103 559.6919,321.03933 562.8726,316.79298 567.43384,311.94927 570.88343,307.98254 572.0968,305.85798 574.44704,303.77522 575.85745,301.76502 579.69675,297.7437 580.59468,293.0186 583.31847,288.08647 586.16927,284.06834 587.81997,279.61812 590.15775,274.40793 591.05376,264.31817 594.02615,253.91801 591.45208,243.89585 589.46485,238.58017 588.6106,231.19909 585.80548,225.91126 583.20405,221.23234 580.67706,216.9362 578.96621,213.47622 573.64823,207.49401 566.06072,200.18604 559.6919,196.68892 553.67533,191.60691 546.54885,188.72067 542.28284,186.11913 535.62676,183.44899 529.08663,178.97852 521.76502,178.03635 516.49257,175.94565 509.27144,176.30105 505.59946,172.44059 502.09447,170.82535 499.73995,168.39987 496.27318,164.35781 489.88765,157.07588 485.05741,149.0224 477.71036,141.79847 471.64505,133.14735 464.99637,126.20596 457.76076,119.52337 451.70745,115.29202 445.13209,109.97605 440.93725,107.15662 435.15985,104.54748 430.05198,101.33043 423.8271,99.769321 416.39988,97.435661 406.9575,94.335014 401.14511,92.234566 395.4202,89.483325 393.40237,85.640676 388.8729,83.255696 391.09335,86.747499 385.30539,71.165318 386.84482,65.499227 386.23496,61.682766 389.32317,55.235787 393.06234,52.442433 397.00837,50.581913 400.51913,48.031191 404.87563,46.846664 411.78047,43.285068 421.80976,42.281636 431.47484,42.393388 441.18138,43.729909 450.13067,46.598903 460.21156,46.846664 468.80906,48.00219 477.84537,47.644365 485.7034,50.577177 493.5109,50.706671 500.32011,53.909792 507.46472,55.551193 513.45706,58.122152 520.074,58.840017 526.11728,61.768714 535.01695,64.221597 539.86136,67.274632 548.50036,70.473243 552.77671,73.363404 560.77171,75.81024 566.46562,78.845047 574.68911,83.069203 582.21774,86.919683 590.24108,92.497372 596.90079,95.569802 601.8682,98.820928 607.56681,102.1826 612.19729,106.36126 621.08986,111.32727 626.44057,117.55004 635.68458,123.6777 642.07635,132.32556 650.4677,140.10948 653.46236,144.19909 656.17179,147.2345 659.79398,152.54452 664.69802,159.71082 669.84281,166.56928 674.71603,173.68409 678.2133,180.30108 682.91905,185.69416 684.66406,192.9584 688.05,198.06534 689.35583,203.80887 691.50334,210.36746 693.5047,219.4785 695.61883,228.64877 694.6121,238.96806 692.9273,245.56052 693.90158,255.60462 689.01633,258.24237 684.97653,259.99341 681.55631,265.0861 683.42056,270.05566 686.87378,272.91056 693.55338,274.30796 692.74684,280.62545 694.29712,288.61954 691.84548,296.63867 689.01633,304.25203 688.17971,308.56163 684.10929,312.35787 682.79881,316.68707 679.4238,322.48785 676.98673,330.1041 674.71603,336.58314 673.43392,341.59465 671.29424,343.65538 669.74201,348.39642 667.25844,352.43693 665.09068,356.30653 662.90274,359.58796 659.74004,362.21561 658.1301,366.18219 654.81996,370.15775 652.08931,373.37791 648.27872,376.38238 644.07312,379.4868 642.39255,381.09247 637.63031,383.47211 634.30215,385.0798 630.67152,387.54107 627.52373,391.87772 623.73236,390.05381 615.73272,391.11874 609.65868,389.96171 604.45805,395.02783 601.82671,397.1599 597.22603,398.74547 593.88826,400.6236 591.06907,402.23541 588.42717,405.2529 584.56198,406.21937 577.59976,409.03703 569.20908,406.39004 562.1789,404.35411 559.44629,402.12816 554.71308,400.51795 552.23087,397.51484 547.51818,394.77837 542.35397,387.34258 538.55232,385.0798 535.87318,380.66652 532.99348,377.61894 530.46955,373.26651 527.78239,369.20966 524.61513,364.84338 523.00852,360.83147 522.47213,358.48102 518.06787,358.24825 518.65626,355.2357 z"
       inkscape:connector-curvature="0"
       id="path746"
       style="fill:none;stroke:#e20000;stroke-opacity:1" />
    <path
       d="M 607.22717,341.06444 C 608.13396,339.25939 610.80404,338.49501 611.62362,336.66798 613.59481,335.57937 614.28489,332.88427 616.45972,331.39224 617.58796,328.82014 619.36548,327.48242 620.41653,324.79757 622.75551,322.36468 625.11438,318.38932 626.57156,316.00466 629.0843,312.12922 630.28099,309.52481 632.28695,305.89283 633.72083,302.36992 636.31217,298.28939 636.6834,294.02241 638.27322,290.34155 639.68512,287.02576 640.6402,283.91057 642.5784,279.66941 643.21817,274.46192 644.59701,269.84193 645.64921,262.99979 647.20094,255.83178 646.79523,248.06572 647.03948,242.38993 646.5329,237.63772 645.91594,232.47209 644.56436,228.75678 644.00294,222.44083 641.95914,219.28274 640.73082,215.89723 639.26552,212.59459 638.00233,208.73125 636.33014,207.12774 635.35928,203.60588 634.04553,201.69693 631.93814,198.2113 630.37818,195.68248 628.33014,192.46438 626.65756,189.94722 624.74356,187.79346 623.0544,185.86971 620.2277,183.13391 617.24716,178.44606 615.58043,176.63716 613.08624,174.07647 610.43225,170.60216 606.78753,168.72355 604.40588,166.81702 601.49241,164.29758 599.70806,163.03917 596.74109,160.10158 594.35081,158.71795 590.9603,155.09455 586.77236,152.30029 582.85167,150.79497 579.52953,148.49987 576.89262,146.79527 572.60193,144.7343 568.97805,142.78449 565.00517,141.43701 561.16191,138.25297 557.10763,137.50874 551.64761,134.19519 545.56166,133.55637 539.96147,130.47442 535.7203,129.53502 531.43656,126.78022 528.5307,125.63833 525.21618,123.28419 522.7585,122.35185 519.73779,120.80223 516.43276,118.67805 513.9399,117.45517 510.94489,115.96613 507.38009,114.41191 503.96866,113.03226 500.39341,111.13004 495.74486,109.70797 492.6205,108.00838 488.96264,105.41465 486.49398,104.03358 485.59728,102.09681 483.24725,101.0182 481.49128,99.198059 479.15163,98.075504 477.53186,96.621747 473.19731,94.951543 471.1057,92.954292 465.75215,93.09118 458.33472,94.669639 464.19144,97.208084 468.73896,102.77678 471.02712,106.00916 474.23657,111.35526 475.31283,113.10842 477.07384,117.52093 479.92026,119.65347 481.92831,123.4401 483.37079,127.66484 486.61631,131.66516 488.96264,134.87087 491.5523,136.6227 492.93669,138.94588 495.99696,140.14661 500.19985,143.047 505.64707,143.60299 510.94489,142.34484 517.47054,139.13488 523.98486,141.08366 530.94875,141.0259 537.90899,141.79985 545.04647,141.42445 551.39224,144.10342 555.79276,145.24278 559.42053,147.98387 563.26266,148.93952 567.73691,151.7566 573.18888,153.75612 577.77095,156.85313 581.51803,158.77308 583.06948,160.70521 587.0035,163.00816 591.01515,166.12122 593.26736,168.44767 596.36124,170.4841 597.1382,171.90766 602.53243,176.33093 603.71195,178.52094 605.51582,179.56905 606.99823,182.55541 609.86504,184.11113 611.0918,185.76028 613.31708,187.79888 614.70114,188.94722 616.64462,191.48222 620.51903,193.74811 620.41653,194.22296 622.27842,195.91934 623.34258,199.23651 625.25262,200.81764 626.78855,203.41842 629.40212,205.99093 630.08872,210.05019 631.99244,212.23907 632.96634,215.7058 634.04553,218.84309 636.45702,223.83076 637.00163,229.18615 638.88162,234.23067 640.00489,239.73474 641.22754,244.09595 641.07985,249.90695 641.15371,257.49165 641.07165,265.01952 639.76091,272.04015 639.18268,276.72812 636.87706,280.77993 635.36446,285.2295 634.47638,289.26123 632.35423,292.16447 631.40765,296.22063 629.8876,299.41365 628.38192,303.49513 627.01121,305.89283 625.39259,308.39651 623.08393,311.48223 621.29582,314.24608 619.92761,316.22029 618.93095,318.83505 616.89937,320.84076 615.23313,324.10509 613.97161,326.15342 612.06327,329.19402 610.30333,329.99295 609.53931,332.11538 607.66682,333.15082 606.91401,335.00213 603.47994,337.15036 602.39108,338.86621 598.51031,342.3294 590.99402,349.03008 585.54696,353.54344 580.01965,358.47612 564.32921,371.13225 564.45068,372.40234 578.26986,362.24947 593.40799,351.21731 607.22717,341.06444 z"
       inkscape:connector-curvature="0"
       id="path748"
       style="opacity:0.6;fill:none;stroke:#e20000;stroke-opacity:1" />
    <path
       d="M 516.66028,175.31822 C 513.63375,177.40359 512.37265,179.20912 509.49971,181.347 506.03106,184.77643 505.1126,190.06377 506.98809,193.78332 508.75568,196.3643 509.39697,197.24591 510.92406,199.7593 513.13004,203.3342 514.01627,203.17377 515.34134,205.21409 517.01484,206.68204 517.83646,208.09383 520.17744,209.61054 522.62418,211.14621 523.36954,212.64717 525.01353,214.007 526.62502,214.90755 527.79551,218.03825 529.84963,219.28274 530.87108,222.82984 533.34453,225.39119 533.31197,228.37595 534.76025,233.38404 535.38661,237.2673 535.14422,243.20485 535.05492,247.25578 534.55162,251.40931 532.3495,253.95097 532.596,257.29415 528.7456,259.66315 528.97034,263.24725 526.89605,267.0977 525.50031,269.94613 525.45318,273.79873 523.43318,278.55071 521.15659,283.54469 520.17743,289.18631 516.17653,301.8312 515.70361,310.91189 511.38454,320.40111 510.29357,322.75672 508.28397,324.60996 506.98809,327.87508 505.02308,330.58047 505.27258,332.52278 503.47092,335.34905 503.2838,339.52772 501.22519,342.98263 502.1314,346.80839 504.72197,348.36981 506.52047,350.17374 508.74667,351.17627 509.23067,354.01489 513.05405,352.56221 514.02241,354.69343 516.5573,354.85092 516.84401,356.75793 519.70856,357.10619 517.2403,356.7874 519.0854,358.5198 517.53957,358.2106"
       inkscape:connector-curvature="0"
       id="path750"
       style="fill:none;stroke:#0000e9;stroke-width:0.99000001;stroke-miterlimit:4;stroke-opacity:1;stroke-dasharray:none;stroke-dashoffset:0" />
    <path
       d="M 586.42723,356.4792 C 601.71896,371.69192 605.4674,383.11123 606.94505,393.78432"
       inkscape:connector-curvature="0"
       id="path752"
       style="fill:none;stroke:#0000e9;stroke-width:0.99000001;stroke-miterlimit:4;stroke-opacity:1;stroke-dasharray:none;stroke-dashoffset:0" />
    <path
       d="M 619.38009,324.76984 663.52449,358.96621"
       inkscape:connector-curvature="0"
       id="path754"
       style="fill:none;stroke:#0000e9;stroke-width:0.99000001;stroke-miterlimit:4;stroke-opacity:1;stroke-dasharray:none;stroke-dashoffset:0" />
    <path
       d="M 642.07404,278.76019 C 659.0686,279.61838 676.99579,281.09227 693.36859,283.11246"
       inkscape:connector-curvature="0"
       id="path756"
       style="fill:none;stroke:#0000e9;stroke-width:0.99000001;stroke-miterlimit:4;stroke-opacity:1;stroke-dasharray:none;stroke-dashoffset:0" />
    <path
       d="M 645.49368,227.15476 693.36859,215.96323"
       inkscape:connector-curvature="0"
       id="path758"
       style="fill:none;stroke:#0000e9;stroke-width:0.99000001;stroke-miterlimit:4;stroke-opacity:1;stroke-dasharray:none;stroke-dashoffset:0" />
    <path
       d="M 615.25593,174.35781 C 630.18393,161.09495 641.8545,154.33075 652.87193,142.64844"
       inkscape:connector-curvature="0"
       id="path760"
       style="fill:none;stroke:#0000e9;stroke-width:0.99000001;stroke-miterlimit:4;stroke-opacity:1;stroke-dasharray:none;stroke-dashoffset:0" />
    <path
       d="M 567.15292,140.73122 598.86227,95.965072"
       inkscape:connector-curvature="0"
       id="path762"
       style="fill:none;stroke:#0000e9;stroke-width:0.99000001;stroke-miterlimit:4;stroke-opacity:1;stroke-dasharray:none;stroke-dashoffset:0" />
    <path
       d="M 508.70822,114.61763 537.30882,64.255715"
       inkscape:connector-curvature="0"
       id="path764"
       style="fill:none;stroke:#0000e9;stroke-width:0.99000001;stroke-miterlimit:4;stroke-opacity:1;stroke-dasharray:none;stroke-dashoffset:0" />
    <path
       d="M 647.04806,249.84871 C 684.067,253.25668 687.2686,253.21056 691.50334,253.89011"
       inkscape:connector-curvature="0"
       id="path766"
       style="fill:none;stroke:#0000e9;stroke-width:0.99000001;stroke-miterlimit:4;stroke-opacity:1;stroke-dasharray:none;stroke-dashoffset:0" />
    <path
       d="M 470.78134,92.856311 C 466.11636,71.047776 459.03822,59.22894 451.14281,45.496476"
       inkscape:connector-curvature="0"
       id="path768"
       style="fill:none;stroke:#0000e9;stroke-width:0.99000001;stroke-miterlimit:4;stroke-opacity:1;stroke-dasharray:none;stroke-dashoffset:0" />
    <path
       d="M 467.67258,91.612807 C 455.17194,72.080542 440.99074,54.78902 423.52818,41.872639"
       inkscape:connector-curvature="0"
       id="path770"
       style="fill:none;stroke:#0000e9;stroke-width:0.99000001;stroke-miterlimit:4;stroke-opacity:1;stroke-dasharray:none;stroke-dashoffset:0" />
    <path
       d="M 463.83539,94.250678 C 444.34592,71.707802 413.23765,63.578524 399.27985,49.955417"
       inkscape:connector-curvature="0"
       id="path772"
       style="fill:none;stroke:#0000e9;stroke-width:0.99000001;stroke-miterlimit:4;stroke-opacity:1;stroke-dasharray:none;stroke-dashoffset:0" />
    <path
       d="M 388.71007,71.71674 466.42908,100.31734"
       inkscape:connector-curvature="0"
       id="path774"
       style="fill:none;stroke:#0000e9;stroke-width:0.99000001;stroke-miterlimit:4;stroke-opacity:1;stroke-dasharray:none;stroke-dashoffset:0" />
    <path
       d="M 448.68705,112.6457 470.15959,102.80434"
       inkscape:connector-curvature="0"
       id="path776"
       style="fill:none;stroke:#0000e9;stroke-width:0.99000001;stroke-miterlimit:4;stroke-opacity:1;stroke-dasharray:none;stroke-dashoffset:0" />
    <path
       d="M 467.67258,128.91793 482.59463,122.70041"
       inkscape:connector-curvature="0"
       id="path778"
       style="fill:none;stroke:#0000e9;stroke-width:0.99000001;stroke-miterlimit:4;stroke-opacity:1;stroke-dasharray:none;stroke-dashoffset:0" />
    <path
       d="M 494.40792,139.48772 C 493.67157,141.61272 497.11906,141.52279 497.17833,143.52701 497.56833,144.38499 498.00994,144.50096 498.46367,145.17055 498.76132,145.11505 499.01157,145.8653 499.50521,146.10239 499.59341,146.40189 500.14771,146.36798 500.1567,146.99099 500.75401,146.93099 500.85548,147.9155 501.78254,147.96286 502.56074,148.94347 503.5412,149.19038 504.05944,150.14456 504.35709,150.08906 504.60732,150.83933 505.10098,151.07641 505.33644,151.29574 505.94098,151.49985 505.57843,152.29919 505.59993,153.02568 506.49991,152.17677 506.18105,153.03354 507.04911,153.20348 506.75584,153.75604 507.41374,153.91485 507.33474,154.78818 508.32666,154.12264 508.04631,154.8988 508.97992,155.15364 508.68331,155.77595 509.7128,155.9759 510.67834,156.37934 510.5111,157.22083 511.79295,156.93522 511.61807,158.32565 514.01801,156.68357 513.81951,158.30422 514.61049,159.32524 514.03536,156.78166 514.78601,158.04641 514.78901,159.48133 516.31098,158.12201 516.34689,159.43832 516.93995,159.34682 517.28999,160.6754 517.95115,160.656 518.03955,161.52687 518.69532,161.10352 518.82524,161.83271 519.44783,162.02184 519.34769,162.59458 519.92205,162.60979 519.63215,163.50911 520.14034,163.83152 520.55533,164.01935 520.43893,165.71449 520.86592,167.68443 520.46043,169.19893 519.01249,169.5253 520.86018,171.22847 519.17654,171.47545 519.76522,172.53639 517.9833,172.46706 518.64891,173.59351 518.04008,174.15061 518.13492,174.97985 517.49795,174.97811 517.60455,175.76926 516.67857,175.44678 516.57582,176.22178 515.66314,175.97602 516.49302,177.17198 516.04266,176.30348 515.18848,176.05652 515.79734,177.7029 516.24624,176.56994 516.44609,176.2614 516.44032,175.8128 516.16924,175.54933"
       inkscape:connector-curvature="0"
       id="path780"
       style="fill:none;stroke:#0000e9;stroke-width:0.99000001;stroke-miterlimit:4;stroke-opacity:1;stroke-dasharray:none;stroke-dashoffset:0" />
    <path
       d="M 518.65625,162.49255 C 524.68045,165.58654 533.38643,160.79139 539.79583,164.3578 544.89242,164.83669 549.44677,165.44407 554.71788,166.84481 560.76076,166.27798 563.07161,169.09592 569.01817,168.71007 569.51535,170.06538 575.19642,170.89022 577.7227,173.06233 581.53121,174.78126 585.01169,177.57352 586.36469,180.28774 588.12822,180.75362 589.27285,182.53133 592.023,184.87562 595.00353,188.23228 597.6789,192.34582 600.72753,196.06716 604.02003,200.12626 606.05169,205.09046 608.81031,209.12395 610.24734,212.02001 612.55831,215.60042 613.16257,219.69374 615.30805,225.05923 615.68826,232.17253 615.64958,238.96805 616.53432,246.99812 616.27578,255.44455 616.98294,263.6317 615.90047,268.27808 615.22033,272.8102 614.40608,277.51668 612.67092,281.90907 610.10338,285.4274 608.05381,289.32997 606.4993,293.59001 602.0281,295.71052 599.82017,299.02047 591.09466,315.71692 595.68373,309.59939 585.24963,322.39487 578.6741,329.97405 560.58789,347.52783 556.71788,349.01817 554.41759,351.35358 552.90561,351.72326 551.12211,353.99219 548.06306,357.07331 544.20983,358.99462 542.28283,362.07497 540.49621,364.92091 537.44662,368.72006 538.6749,374.23402 537.21009,377.36552 537.87953,383.76939 536.87607,384.72491 536.47741,383.76745 536.42714,382.1571 537.30882,381.34928"
       inkscape:connector-curvature="0"
       id="path782"
       style="fill:none;stroke:#0000e9;stroke-width:0.99000001;stroke-miterlimit:4;stroke-opacity:1;stroke-dasharray:none;stroke-dashoffset:0" />
    <path
       d="M 539.79583,372.023 C 539.0443,370.78282 539.55974,367.7543 541.30027,369.5829 541.96017,370.27159 543.015,370.2671 543.23192,369.44071 545.19773,369.24094 547.16459,369.92581 549.12211,369.53601 549.7799,368.42021 551.64593,369.33482 552.12071,368.27776 553.67057,368.47647 556.04478,367.9144 557.07316,368.509 557.40707,369.7973 559.77846,367.8986 559.69189,369.53604 560.61625,369.42325 561.64467,369.50004 561.95487,370.17954 563.58231,370.41209 563.34167,372.53503 564.12939,373.28389 563.61297,374.77131 565.28498,375.39091 564.58568,376.90171 564.26875,378.29832 565.85095,378.59824 565.29554,380.06644 565.29354,382.98107 565.31864,385.8958 565.28754,388.81036 563.36017,388.9515 565.98887,391.88504 564.00098,392.19073 563.92868,393.27433 564.28745,394.62671 563.47936,395.31106 563.93693,397.18937 561.69958,398.3764 562.23771,400.18354 561.41348,401.06164 560.33909,402.20568 560.95728,403.70463 561.31675,403.32548 560.56103,403.1253 560.31352,403.11066"
       inkscape:connector-curvature="0"
       id="path784"
       style="fill:none;stroke:#0000e9;stroke-width:0.99000001;stroke-miterlimit:4;stroke-opacity:1;stroke-dasharray:none;stroke-dashoffset:0" />
    <path
       d="M 511.19523,156.89678 500.62544,167.46656"
       inkscape:connector-curvature="0"
       id="path786"
       style="fill:none;stroke:#0000e9;stroke-width:0.99000001;stroke-miterlimit:4;stroke-opacity:1;stroke-dasharray:none;stroke-dashoffset:0" />
    <path
       d="M 529.84779,190.47139 C 533.89074,191.96611 538.08447,189.71481 541.6902,191.6745 542.99956,192.55722 544.91134,193.38303 545.39159,194.82365 546.46014,194.64346 548.9836,198.5911 550.98736,199.17592 551.59301,200.49693 552.93859,201.29184 553.80801,202.22972 554.85284,203.43565 555.91958,204.39283 556.89401,205.39344 558.03901,206.15502 558.71366,207.27111 560.00277,208.5022 561.40158,209.65546 562.2582,210.91306 563.73328,213.16534 565.40146,215.09096 566.7449,216.70104 568.08554,219.07199 569.74445,221.47959 570.88108,224.62505 572.43781,226.53301 574.30719,229.153 575.38129,231.93694 576.44181,235.58141 577.49315,238.01334 578.47255,240.5275 578.92881,243.66419 579.79905,246.282 580.55734,249.65176 580.83146,252.6466 582.57788,254.88192 581.09795,260.73548 580.20971,262.59463 580.03455,265.97013 578.52657,267.71439 578.03358,270.67741 576.98434,274.11361 575.00531,278.26636 573.99219,281.86895 572.21716,284.28049 571.17727,287.95523 569.63993,289.32997 569.40558,291.79501 566.92328,293.74958 565.90941,296.16925 564.59189,297.78781 563.78951,299.56283 562.48977,300.52151 561.10614,302.51832 559.25965,304.11454 558.44562,305.67259 556.91789,305.67559 555.71613,310.01924 554.09612,309.84779 553.46457,312.28575 551.52865,311.39623 549.9959,314.48999 549.39645,314.48599 546.58939,317.69246 545.39159,319.17407 542.61347,322.23644 540.78158,323.81228 539.26734,326.05998 536.81529,327.61329 536.23494,330.74576 534.20006,331.60912 533.84604,332.65556 531.28229,333.98836 530.46954,335.96138 529.48729,336.58494 527.93791,338.27039 526.11728,339.69189 524.64978,341.88591 522.77885,342.60448 521.14326,343.42241 519.17503,345.52087 514.72467,345.80525 513.06049,344.04416 509.80315,344.411 509.65971,339.57368 510.57348,336.89401 511.49259,334.0324 512.23637,330.41702 513.37136,328.50035 514.31052,325.67137 516.04337,323.27433 516.69749,320.17714 525.10507,312.38919 523.05557,294.02486 524.96704,289.99836 524.5644,286.57809 527.84351,284.32618 528.60429,281.86895 530.36868,278.93479 532.47915,276.92279 534.20006,273.78617 535.71973,272.78512 536.37198,270.27336 537.84584,269.2716 540.21431,266.03066 541.32654,262.36301 542.90459,259.48587 543.2111,255.73476 545.91284,254.05705 546.01335,250.78134 547.72516,246.82022 548.10126,242.42726 548.58038,237.89459 548.91551,233.02136 547.27239,229.04386 546.6351,224.66776 546.28396,220.16922 543.835,216.03904 541.66108,212.23272 540.42553,209.32948 537.4263,208.21128 536.39075,206.61675 533.32752,204.69175 533.36677,204.54699 531.0913,201.66293 529.53231,200.95138 528.28785,198.36128 527.36078,197.31066 525.5007,195.58226 523.72255,191.13228 526.11728,189.84964 527.08362,187.98845 528.49514,191.20446 529.84779,190.47139 z"
       inkscape:connector-curvature="0"
       id="path788"
       style="fill:none;stroke:#0000e9;stroke-width:0.99000001;stroke-miterlimit:4;stroke-opacity:1;stroke-dasharray:none;stroke-dashoffset:0" />
    <path
       d="M 514.30399,326.6351 C 511.93612,329.44131 514.1931,334.46466 514.52711,337.57839 518.18934,340.48447 523.02149,334.53331 526.2654,332.38821 530.49472,328.25301 535.2344,324.40189 537.94375,319.02175 541.07157,314.27471 544.92095,309.80916 549.12211,306.11728 551.73726,301.26347 556.83406,298.35487 560.16438,293.91362 563.52032,289.01665 568.6506,285.33362 570.3616,279.34726 573.47658,274.10714 573.6672,267.76714 574.46955,261.82856 574.96711,255.65321 574.91909,249.17152 572.29519,243.47136 570.31983,238.31989 568.51837,232.9788 565.48993,228.37811 562.30969,224.18436 558.92247,220.04505 556.58313,215.34147 553.0857,212.02684 550.37332,208.03133 546.95873,204.52465 544.23642,199.85383 537.72973,200.8007 534.89282,196.33039 530.37987,199.96458 536.41945,203.48313 540.13478,204.78526 543.8628,206.98468 546.70504,211.27806 548.49598,215.41922 551.47926,220.45677 553.85395,226.60668 552.65493,232.60221 552.10022,237.86151 550.95593,242.80779 551.76532,248.167 550.75996,252.46828 550.56104,257.04685 548.74274,261.28036 546.24591,266.39586 543.31262,271.30504 541.0113,276.45539 537.78012,281.13464 535.93361,286.7681 532.33885,291.15767 530.41151,293.58779 527.78095,297.36611 524.25202,295.54753"
       inkscape:connector-curvature="0"
       id="path790"
       style="fill:none;stroke:#0000e9;stroke-width:0.99000001;stroke-miterlimit:4;stroke-opacity:1;stroke-dasharray:none;stroke-dashoffset:0" />
    <path
       d="M 527.11136,189.93656 C 532.80283,192.31351 540.2608,189.70093 544.9673,194.77457 555.61953,204.51778 566.31477,214.77784 572.67618,227.98707 577.19714,236.55596 579.54772,246.18967 581.10664,255.70627 579.87802,265.25402 576.58676,274.53811 572.67413,283.27709 568.61212,291.18 563.76515,298.78699 557.6765,305.38458 548.75313,314.21068 540.4708,323.78383 531.9688,333.11441 527.4176,337.61777 522.81745,343.08362 516.38614,344.69454 512.81743,344.58657 509.03975,341.46687 510.47949,337.64154 510.38219,335.63606 513.2226,334.25854 513.60768,336.78663 513.87611,340.50429 518.38953,338.85922 520.2138,337.40838 528.36407,332.05294 535.09357,324.79387 540.18758,316.5214 545.65124,309.49234 551.98006,302.81235 558.49041,296.93621 564.47553,288.89406 571.80063,281.12774 573.6804,270.88143 575.10784,263.06196 574.10496,254.99137 574.24794,247.07946 570.58981,236.63897 565.44562,226.85578 558.70414,218.12913 557.08898,216.82763 557.80172,214.25843 555.92568,213.71858 550.51861,208.64131 546.66591,201.10159 539.09952,198.91311 537.20007,198.53695 534.55751,194.14494 533.63976,197.24215 532.64832,198.2429 533.21534,202.08398 530.97788,200.81722 528.63932,198.43158 525.7123,195.62369 525.20724,192.19041 525.39372,191.26444 525.94594,189.82987 527.11136,189.93656 z"
       inkscape:connector-curvature="0"
       id="path792"
       style="fill:none;stroke:none" />
    <path
       d="M 535.33014,197.8639 C 536.8094,198.75191 537.8217,200.61357 539.83785,200.37034 547.7214,203.74509 552.13397,211.74559 557.46063,218.07084 562.67822,225.31294 568.2007,232.45596 570.96041,241.07072 572.78621,245.37035 574.82284,249.63798 574.02823,254.44332 574.66933,266.82286 572.15902,280.22543 563.21184,289.30032 554.45817,299.8068 543.88771,308.83881 536.34049,320.36849 530.8004,327.15447 524.88331,334.69186 516.42499,337.77755 513.52693,337.83405 513.66808,333.5405 513.74369,331.46288 514.07164,325.10249 518.50333,319.7622 518.85371,313.47093 520.10415,311.71404 522.92776,311.54879 523.14769,308.86608 523.8392,305.9589 526.1378,302.88083 525.38211,299.88953 523.59198,298.19957 525.51511,296.12932 527.51938,296.39218 533.70706,291.87137 536.54075,284.26655 540.4754,277.888 545.65527,268.37928 551.42142,258.49667 551.43942,247.3943 551.53042,241.86992 552.54829,236.41272 553.01122,230.99163 553.05512,220.4901 547.70122,210.30374 539.81842,203.57625 537.49149,202.7971 534.15725,201.5282 534.1255,198.64109 534.2105,198.11861 534.82334,197.74831 535.33014,197.8639 z"
       inkscape:connector-curvature="0"
       id="path794"
       style="fill:none;stroke:none" />
    <path
       d="M 535.91304,203.61511 C 537.63449,203.64641 538.90216,204.97908 539.99328,205.75238 544.60883,208.05009 546.73296,213.53029 549.18916,217.80677 552.78558,223.69181 552.96162,230.61165 551.75348,237.22631 551.20055,245.39871 551.72208,253.93237 547.7715,261.40663 542.53173,271.95805 537.70646,283.03004 530.43385,292.33136 529.19577,293.49978 526.27549,297.0561 524.89637,294.42977 523.77215,287.16732 529.83523,281.3684 533.4066,275.6412 537.93594,270.37316 541.62748,264.36527 543.54893,257.72697 549.13985,247.08946 549.56549,234.33467 546.34681,222.88942 544.73694,215.86076 540.80274,209.44545 535.21357,204.87804 534.44663,204.29931 535.01264,203.32228 535.91304,203.61511 z"
       inkscape:connector-curvature="0"
       id="path796"
       style="fill:none;stroke:none" />
    <path
       d="M 532.22138,200.87551 C 533.36475,200.99047 535.69259,203.6042 533.52318,203.38195 532.58869,203.24819 529.91324,201.18172 532.22138,200.87551 z"
       inkscape:connector-curvature="0"
       id="path798"
       style="fill:none;stroke:none" />
    <path
       d="M 516.71644,177.40437 C 529.98048,179.1768 541.55436,186.75176 553.30089,192.66947 556.04922,194.50426 559.08452,196.09657 561.54088,198.2525 562.92443,200.15742 565.61152,200.58899 567.09779,202.54647 573.41511,207.60321 578.83341,213.61302 582.50558,220.92702 588.16849,229.90208 590.23757,240.53088 592.16217,250.80998 591.91063,259.79209 591.16723,269.01132 588.37703,277.56704 587.36383,280.23656 585.5638,282.40413 584.56514,285.0452 580.85543,291.12109 578.8493,298.38545 573.55096,303.50845 572.7325,305.06573 570.66589,306.03436 569.97339,307.35056 566.0032,314.22089 559.58751,319.42863 554.09929,325.12878 547.52763,331.54843 538.97231,335.66694 532.66827,342.28525 527.72598,346.61434 523.58464,352.26799 517.62964,355.30319 515.39137,354.44852 513.06525,353.2734 510.79037,352.29157 508.14079,349.77977 504.36598,348.63638 502.1247,345.68546 502.155,344.56896 503.67291,343.97896 502.97961,342.5767 502.09056,339.55892 504.16729,337.22738 504.4757,334.26076 505.38941,333.32813 505.75263,332.43342 505.93293,331.07428 506.74639,328.50881 508.43327,325.94395 509.95489,324.06014 511.3557,320.85415 513.59421,317.94427 514.96776,314.59785 515.25473,313.28444 517.77494,310.759 518.32911,313.17948 517.83289,317.79268 515.48476,321.92533 514.05456,326.13913 511.52037,330.00378 510.76519,335.04954 509.72173,339.48737 509.03892,343.33592 512.89637,345.89008 516.38614,345.4523 522.4941,345.05237 526.51838,339.54926 531.01674,336.06773 532.29822,333.05938 535.8054,331.51664 537.3897,328.54842 538.21109,326.54721 540.71397,326.59374 541.06192,324.62361 543.3629,320.91316 547.03105,318.07551 550.03847,315.04474 550.37729,313.4616 551.75546,312.92049 552.99179,312.67431 553.70139,310.60306 555.8494,310.3576 556.43086,308.30261 557.64743,306.91125 559.3178,306.11053 560.08365,304.16408 565.37673,298.00879 569.58459,290.99616 573.21816,283.68512 576.27643,277.33751 578.3046,270.52069 580.60147,263.84734 582.05115,259.48706 581.896,254.25135 580.97063,249.83849 579.65245,246.64999 579.8096,242.87214 578.2699,239.6573 574.9666,228.98037 569.10929,219.16044 562.23296,210.46078 560.45739,208.65633 558.90774,206.14775 557.55778,204.25629 550.76723,200.20434 546.22181,192.24665 538.32233,189.97542 536.23241,190.2519 534.12436,191.88673 532.02709,190.2863 529.98947,190.1932 527.76568,188.58224 525.86785,189.23709 522.80691,192.50913 526.38886,197.18303 528.54916,200.00117 533.29907,206.22547 541.1269,209.67793 543.89866,217.3908 547.33854,226.693 549.81361,237.11805 546.79003,246.8839 544.35281,254.47452 541.79152,262.28404 537.37027,268.95737 532.85066,274.78597 528.60873,280.94319 524.89637,287.26019 522.5411,288.54445 522.55273,283.92957 524.02203,283.06337 524.40989,281.44274 523.38672,279.47211 524.62435,278.12821 525.23707,275.04845 525.30524,271.74017 526.93649,269.15166 528.32521,262.66075 532.59777,257.00013 534.55295,250.79055 533.7652,248.99611 536.06788,248.13126 535.34957,246.12741 535.40887,241.5831 535.80248,236.7371 534.63067,232.44886 535.19662,229.45864 533.14253,226.92692 532.72656,223.99692 530.33756,220.64402 528.47605,216.72078 525.59584,213.64086 522.74667,209.91948 517.43825,208.01337 515.35636,203.57625 511.28941,201.33695 509.74104,196.0861 507.13757,192.443 505.5413,191.21511 506.04093,187.95352 507.37073,186.80837 507.6447,183.19705 510.68037,179.94877 513.82141,178.70616 514.18679,177.52123 515.6383,177.3158 516.71644,177.40437 z"
       inkscape:connector-curvature="0"
       id="path800"
       style="fill:none;stroke:none" />
    <path
       d="M 522.62309,298.64603 C 525.18665,299.55289 524.81755,302.60518 523.49742,304.39723 522.71896,307.69265 521.59058,312.3383 517.37705,312.38286 515.81208,310.7348 519.21464,308.15577 519.32003,306.22363 520.92132,304.00009 520.09064,300.3823 522.23449,298.66546 522.36044,298.62946 522.49446,298.60656 522.62309,298.64606 z"
       inkscape:connector-curvature="0"
       id="path802"
       style="fill:none;stroke:none" />
    <path
       d="M 523.80669,286.97251 C 524.33214,286.96751 525.13739,287.20157 524.89893,287.8415 524.51118,288.7037 525.12536,289.69428 524.78559,290.54806 524.20084,290.95785 524.00875,291.6348 524.10208,292.31351 524.06468,294.30519 524.27056,296.29774 524.27725,298.27963 524.20695,298.70184 523.7456,298.77178 523.56626,299.12458 523.13189,299.55623 522.58024,298.8362 522.17176,299.2654 521.61772,299.63631 521.05933,299.06072 521.10356,298.48915 521.05526,297.71612 520.70992,296.87418 521.01426,296.12606 521.19414,295.72646 521.69306,295.93641 521.96224,295.80663 522.28164,295.19231 521.97024,294.43956 522.03934,293.7734 522.02574,292.4548 521.80762,291.11169 521.91384,289.80911 522.32565,289.23227 523.08321,288.78183 523.07508,287.96171 523.03208,287.48158 523.20945,286.91181 523.80668,286.97251 z"
       inkscape:connector-curvature="0"
       id="path804"
       style="fill:none;stroke:none" />
    <path
       d="M 522.84153,298.74332 C 523.59773,298.68052 524.31795,299.0795 524.58981,299.80122 525.35726,301.3203 524.71816,303.04912 524.04136,304.47174 523.27164,306.64063 522.85931,309.03456 521.35773,310.8473 520.41202,312.06001 518.84511,312.97379 517.27384,312.72266 516.3022,312.24914 516.45517,310.89594 516.89258,310.09166 517.5554,308.69889 518.57834,307.47085 518.99464,305.97342 520.19652,303.90659 519.89377,301.26591 521.18599,299.24136 521.56217,298.8361 522.17816,298.82299 522.6904,298.73989 522.74,298.75349 522.79181,298.73189 522.84153,298.74289 z"
       inkscape:connector-curvature="0"
       id="path806"
       style="fill:none;stroke:none" />
    <path
       d="M 513.39603,331.47229 C 513.81166,332.13105 513.56274,333.00688 513.64677,333.75295 513.54374,334.41726 513.87689,335.27221 513.43052,335.80886 512.90282,336.05441 512.23015,335.90756 511.66533,335.88786 511.03086,335.63739 511.26934,334.74909 511.35924,334.20294 511.48404,333.77892 512.02108,333.55634 511.87445,333.05574 511.78055,332.29478 512.33241,331.52278 513.06973,331.35211 513.1785,331.39221 513.28726,331.43221 513.39603,331.47233 z"
       inkscape:connector-curvature="0"
       id="path808"
       style="fill:none;stroke:none" />
    <path
       d="M 535.03413,197.22788 C 538.8388,200.39074 544.55962,201.20463 547.53567,205.5564 551.63786,210.45457 556.33366,214.91718 559.46324,220.56192 564.00698,226.68798 568.44662,233.03295 570.8441,240.39383 573.33339,246.12444 574.80775,252.28902 574.2713,258.57186 574.01641,268.19903 572.355,278.24428 566.15408,285.93754 557.01781,298.33325 544.78871,308.01556 536.31822,320.95149 531.21333,327.14239 525.76378,333.41613 518.76726,337.50215 517.01538,338.54194 514.33067,337.94292 514.38455,335.52374 513.26731,332.11412 513.3652,328.45374 515.00904,325.22121 516.21416,320.18962 520.61135,316.77564 521.72112,311.74169 523.18352,306.69879 523.64749,301.33114 524.42769,296.20298 529.31617,296.89925 532.03088,291.87073 534.34899,288.44743 539.92684,278.96153 545.41775,269.22804 549.54242,259.03923 552.8178,250.88393 551.25844,241.82733 552.79854,233.29252 554.16568,224.2272 549.59401,215.70487 544.51398,208.60369 542.21761,204.9875 537.84931,203.99562 534.80057,201.26712 533.70663,200.41316 533.07784,197.29047 535.03413,197.22788 z"
       inkscape:connector-curvature="0"
       id="path810"
       style="fill:#a3a2b1;stroke:none" />
    <path
       d="M 527.18921,189.75391 C 530.31735,191.55417 534.30648,190.66117 537.80939,191.16902 543.76763,191.46098 547.27073,197.03904 551.48327,200.49386 559.75028,208.195 567.23385,216.84543 572.32648,227.00109 577.26123,235.98232 579.75274,246.10466 581.26556,256.15406 580.07805,265.28895 576.66079,273.97178 573.13212,282.42286 569.06483,291.38881 563.61451,299.64958 556.76116,306.78241 548.11299,315.7473 539.80925,325.04864 531.42765,334.27012 527.01157,338.53069 522.65274,343.89788 516.29425,344.98985 514.62035,344.74013 513.08299,343.8655 511.52685,343.32744 509.75603,340.60767 510.46253,336.64499 512.00771,333.95751 513.89487,332.89208 513.84177,336.10904 514.24716,337.19989 515.23501,339.20975 518.3754,338.22856 519.92133,337.48841 526.63415,332.73671 532.63424,327.05723 537.39762,320.38219 546.20784,306.94547 559.49656,297.06693 568.40594,283.76927 574.42175,273.82031 575.3778,261.59257 574.35489,250.20511 572.92954,243.16792 570.01178,236.40361 566.67484,230.06387 563.13705,224.72059 559.41822,219.46387 555.79362,214.22291 552.12594,210.33467 549.0587,205.85529 545.04979,202.36623 541.62596,200.2677 537.72296,198.64674 534.60822,196.22494 532.52317,197.76064 532.88105,201.05509 535.1303,202.29753 538.78556,204.57753 542.99601,206.53148 545.37953,210.38975 548.81123,215.90278 551.99083,221.9546 552.68863,228.49764 552.29213,234.81649 551.33998,241.10672 551.32463,247.45621 551.0076,254.37562 548.82863,260.9895 545.41697,266.98373 540.58127,276.10371 536.45118,285.82872 529.75839,293.78494 528.69268,295.07449 525.73505,297.01413 524.66125,294.82909 523.97701,287.00966 529.81664,280.95569 533.87772,274.95408 538.14578,269.35677 542.09236,263.23291 544.14302,256.4838 547.58509,249.2308 549.19216,240.93578 548.44586,232.88535 547.40878,225.67217 545.84504,218.50958 541.93106,212.29946 538.77152,207.47609 533.4389,204.5777 529.8683,200.03061 527.8542,197.40999 524.35242,194.24623 525.62297,190.61946 525.92592,190.05089 526.52352,189.642 527.18921,189.75391 z"
       inkscape:connector-curvature="0"
       id="path812"
       style="fill:#89d280;stroke:none" />
    <path
       d="M 517.48954,177.34767 C 529.9706,179.2587 540.9609,185.8729 551.8918,191.7972 561.83969,197.77394 570.99962,205.14687 578.82234,213.717 582.97086,221.45373 587.66436,229.04253 589.45247,237.7459 591.64405,244.57574 592.94812,251.7453 591.8033,258.92932 590.82522,266.33406 590.85108,274.14583 587.01686,280.80257 584.24949,286.32474 581.24559,291.73082 578.5186,297.28489 573.41095,305.19873 566.78419,312.09081 560.6314,319.22271 554.02149,326.73682 545.66758,332.45219 537.64452,338.31274 531.05233,343.81251 525.48028,350.82818 518.30014,355.66499 515.61854,355.90567 513.72558,353.17612 511.12842,352.90346 508.56047,351.40941 506.50688,349.08595 503.81932,347.64146 500.68447,345.5504 502.89862,341.3491 503.21481,338.45013 504.54857,331.51106 508.77323,325.73704 511.91154,319.57287 517.39713,305.13976 519.09827,289.52301 524.97725,275.20993 526.07143,271.32649 526.95757,267.33272 528.91367,263.78671 529.59265,260.70558 531.43223,258.04619 532.47869,255.1099 533.69131,251.8803 535.10364,248.68572 535.22647,245.10798 536.07957,236.11861 533.87717,226.90591 529.64384,218.99697 523.52399,210.95728 514.42853,205.65484 509.34034,196.75409 507.03586,193.74846 505.29331,189.72883 507.02049,186.01693 508.50552,182.30367 511.68322,179.25103 515.15392,177.38889 516.15787,177.55096 516.50106,177.51811 517.48954,177.34769 z M 526.81826,189.1494 C 523.87425,189.87133 524.59584,193.59955 525.93897,195.4693 530.38728,203.74511 539.74318,207.84792 543.74089,216.45422 546.36665,222.04667 547.10088,228.33961 548.23722,234.37789 548.56273,242.2918 546.57318,250.20232 543.20878,257.32187 540.42427,267.3254 532.59029,274.71168 527.44125,283.46435 522.929,289.92733 524.19988,298.27338 522.65537,305.65535 521.86563,311.10329 519.79779,316.352 516.30799,320.61703 514.06932,327.49727 509.57453,334.1219 510.2354,341.59634 510.3123,343.12898 511.27483,344.37119 512.85953,344.3716 517.46349,347.03949 522.44299,343.45918 525.8428,340.52471 532.01092,334.97351 537.22025,328.71084 542.74873,322.50839 553.03971,311.09427 564.9897,300.7905 571.62084,286.72314 576.1808,277.98267 579.33271,268.4535 581.36173,258.84689 582.5682,253.12045 579.68208,247.69818 578.70843,242.14148 576.90953,234.83603 574.00304,227.89678 569.79682,221.67148 563.35057,210.20137 553.55424,201.25942 543.73086,192.72151 538.89661,189.17645 532.0186,191.93865 526.81826,189.1494 z"
       inkscape:connector-curvature="0"
       id="path814"
       style="fill:#99deba;stroke:none" />
    <path
       d="M 533.27555,163.40268 C 537.30981,163.21118 540.94037,165.16491 544.96736,165.21622 550.31879,166.369 555.77253,166.75047 561.13806,167.75792 565.71906,168.86894 570.60491,169.20457 574.73077,171.781 579.5193,174.00792 583.80336,177.19396 587.30449,181.10754 597.03712,189.96644 604.40055,201.25637 610.37831,212.91771 614.02756,220.1169 615.20648,228.19948 615.34555,236.19868 615.72464,245.61404 616.52246,255.06865 616.50273,264.4662 615.15032,270.74836 615.03358,277.54045 611.31255,283.02737 608.68622,288.4224 605.10512,293.32458 600.95342,297.53566 595.87072,304.6626 593.28391,313.38607 587.0561,319.74525 577.2614,330.72604 566.82206,341.30117 555.05701,350.24399 548.96777,355.74467 541.2146,360.27404 538.71616,368.57956 537.75723,372.38471 538.61156,376.76905 536.76523,380.36755 535.11322,380.84906 534.55452,378.05344 533.49037,377.19846 529.46834,371.56187 525.99684,365.60096 522.35311,359.71796 521.53092,358.41131 518.44561,357.29096 520.11367,355.51386 524.94687,351.06542 529.69593,346.60005 534.35443,341.9166 539.45216,336.81281 545.9212,333.6627 551.22622,328.78458 561.1505,320.96578 568.69547,310.70845 576.76401,300.97744 581.04115,295.12982 583.24636,288.10251 587.06338,281.96947 591.40681,274.14024 591.53425,264.86013 592.50399,256.09911 593.11863,246.26349 589.91834,236.71765 586.66495,227.57713 583.19269,220.07455 579.38063,212.49896 573.02221,207.0512 559.88642,194.39522 543.39419,185.52406 526.41983,178.96887 523.68418,177.69238 520.15463,178.03551 517.77806,176.13865 517.34287,174.51806 519.50843,173.44225 519.7015,171.83837 520.90301,169.29688 521.00298,166.41623 520.67697,163.73242 524.79671,163.33639 529.1014,163.4654 533.27555,163.40268 z"
       inkscape:connector-curvature="0"
       id="path816"
       style="fill:#728763;stroke:none" />
    <path
       d="M 523.53466,140.98078 C 532.55779,141.54182 541.85747,141.35387 550.5591,144.0583 568.34717,150.67796 585.27946,160.22918 598.81597,173.68014 605.98112,180.86898 613.31896,187.879 620.4683,195.03003 623.82639,199.1756 627.04677,203.62421 629.32427,208.45257 632.08076,214.22511 634.53415,220.13139 636.29439,226.30938 638.61625,233.90635 640.98531,241.65072 640.48419,249.69676 640.44707,260.38751 641.16029,271.57041 636.55563,281.52406 632.55482,292.02202 629.18104,302.99524 622.50373,312.15152 617.49498,319.24458 613.76796,327.38491 607.28705,333.36673 593.78008,346.8206 578.81425,358.78611 564.51783,371.34108 562.84633,371.26418 561.81242,369.06031 559.95651,369.01921 556.80984,368.06832 553.41054,367.37141 550.22936,368.70321 546.95796,369.07373 543.28223,369.8945 540.15874,368.62081 538.43116,367.28603 540.90903,365.18568 541.51889,363.88088 545.23482,358.23828 551.07108,354.6833 555.94475,350.18319 568.08141,341.15233 578.51139,330.00578 588.48948,318.70097 595.31944,311.87885 596.82205,301.47696 604.01719,294.96651 608.43011,289.92295 611.88331,284.05381 614.23894,277.77914 616.54961,269.99338 617.53933,261.79468 616.72538,253.6687 615.9587,241.30574 616.38593,228.54403 612.54906,216.65473 607.69848,205.07161 600.45677,194.44127 592.1193,185.06897 586.27013,179.06236 580.15105,172.69274 571.90936,170.0386 570.12403,169.08654 568.41889,168.01838 566.29015,168.23881 561.57969,167.41721 556.90329,166.48345 552.13907,166.04058 546.85901,164.80233 541.28796,164.68627 536.17446,162.99054 531.01713,161.91605 525.49914,164.63117 520.53958,162.5509 518.47995,161.15846 516.88145,159.26426 514.90662,157.90715 514.31495,156.4009 512.5101,157.84135 511.44442,156.71186 507.11884,154.47674 504.9521,149.83947 501.04406,147.13584 499.49315,145.56067 497.38743,144.09689 496.94987,141.80514 498.94475,141.29846 501.21438,142.98653 503.4209,142.90426 507.96458,143.61633 512.23623,141.83702 516.61025,141.15942 518.91059,140.94176 521.22636,140.93582 523.53466,140.98081 z"
       inkscape:connector-curvature="0"
       id="path818"
       style="fill:#9799b4;stroke:none" />
    <path
       d="M 554.87311,368.73069 C 558.2045,369.08929 562.92471,369.456 563.74845,373.49809 564.89207,378.38613 565.28429,383.56912 564.80635,388.55594 563.87965,389.71037 565.01458,391.37531 563.95453,392.36161 563.47449,395.98187 562.19842,399.568 560.23129,402.5971 553.26943,399.14241 547.83967,393.20595 542.21958,387.93768 539.80089,385.64858 536.71839,382.78517 537.90556,379.06235 538.66292,376.80712 538.22622,374.21209 539.03215,372.0555 540.15193,371.94422 539.92248,371.21195 539.93892,370.28319 540.74643,368.90358 542.2517,370.96277 543.40112,370.00841 547.03351,369.76994 550.6339,369.2831 554.19991,368.71695 554.42432,368.72095 554.64909,368.70795 554.87311,368.73065 z"
       inkscape:connector-curvature="0"
       id="path820"
       style="fill:#9ac497;stroke:none" />
    <path
       d="M 586.32148,357.27244 C 593.75997,363.795 599.86226,372.18161 603.46764,381.45292 604.77769,385.16097 606.13206,389.09399 606.50394,392.93865 600.9143,397.64089 593.7504,400.04668 587.87397,404.30073 583.53184,407.30709 578.11889,407.26977 573.09414,406.55564 569.1985,405.77774 564.7345,405.69 561.44031,403.32526 560.57966,401.40815 562.96568,399.67186 563.18515,397.77474 563.87681,395.51443 564.15182,393.13977 565.05365,390.96024 565.77986,385.19519 565.3782,379.18117 564.42166,373.55305 568.18652,369.36293 573.31829,366.52348 577.71803,363.02079 580.57198,361.22284 583.23874,358.49768 586.32148,357.27244 z"
       inkscape:connector-curvature="0"
       id="path822"
       style="fill:#e1d672;stroke:none" />
    <path
       d="M 620.80614,326.55224 C 634.85845,337.08981 648.91105,347.74891 662.64112,358.68755 662.12679,360.8981 659.64461,362.2961 658.63422,364.3618 652.7944,373.79574 643.328,380.04755 633.80654,385.36242 631.3167,386.60188 629.39893,389.27152 626.65892,389.94357 620.16109,390.16382 613.35715,390.24679 607.24584,392.30666 605.44686,385.32361 603.32829,378.15023 599.37177,372.02756 596.01719,366.20576 591.25575,361.42338 586.95347,356.40689 598.2371,347.35802 611.56791,340.00323 619.32234,327.47274 619.7255,327.08183 620.0986,326.23735 620.80614,326.55224 z"
       inkscape:connector-curvature="0"
       id="path824"
       style="fill:#939f6c;stroke:none" />
    <path
       d="M 537.20488,66.227372 C 546.80756,69.819625 555.9692,74.531758 565.33887,78.688969 576.11734,83.792237 586.14859,90.290074 596.43332,96.178195 598.68161,97.332454 595.50785,99.378584 595.0349,100.74352 585.63166,114.21078 576.18265,127.675 566.48249,140.91209 564.0293,140.82409 561.86786,138.69113 559.45942,138.02511 547.53776,132.95389 534.94354,129.32661 523.78154,122.55952 519.1166,119.91035 514.14779,117.61697 509.57593,114.90433 509.4193,112.34877 511.9406,110.24651 512.79473,107.91172 520.6839,94.01757 528.42428,80.008614 536.6828,66.351022 536.87654,66.595674 537.02043,66.117569 537.20488,66.227372 z"
       inkscape:connector-curvature="0"
       id="path3072"
       style="fill:#b478b6;stroke:none" />
    <path
       d="M 455.05993,46.663164 C 464.32089,47.804844 473.80911,47.78909 482.89496,49.987981 489.63628,51.305165 496.48681,52.460083 503.08771,54.574851 513.84561,57.938014 524.81553,60.993044 535.17152,65.389298 536.26563,67.422393 533.57066,69.416925 532.98887,71.290136 524.98853,85.335299 517.17725,99.534253 508.97142,113.43427 507.52606,115.4871 505.11771,112.5895 503.43683,112.29579 498.60448,110.02608 493.32825,108.57916 489.1313,105.05985 483.42191,101.02181 478.04705,96.090104 471.50541,93.677714 469.12306,86.164027 467.46378,78.352977 464.42947,71.027019 461.25719,62.546992 456.34095,54.802859 452.44954,46.731859 453.09394,46.057851 454.24317,46.761669 455.05993,46.663169 z"
       inkscape:connector-curvature="0"
       id="path3074"
       style="fill:#a39ccb;stroke:none" />
    <path
       d="M 430.00016,42.568969 C 437.17225,43.420725 444.38836,44.849639 451.36417,46.457081 460.07011,60.808721 467.25032,76.430055 470.39256,92.949552 469.51125,92.993452 466.33599,93.822792 466.82044,92.029045 468.49805,91.145055 466.14032,89.468974 465.82441,88.404821 455.07506,71.884673 442.27969,56.716094 427.11499,44.231377 426.09714,42.595969 429.11511,42.496122 430.00016,42.568969 z"
       inkscape:connector-curvature="0"
       id="path3076"
       style="fill:#abd9cd;stroke:none" />
    <path
       d="M 424.5046,42.926181 C 441.15565,56.006613 455.07872,72.364064 466.28462,90.270464 466.88239,90.924449 467.90674,93.481118 466.10602,92.96329 464.89422,92.850434 463.41616,93.622332 462.46521,92.235128 455.82776,85.490488 448.37371,79.528077 440.13328,74.791775 427.43914,66.811496 413.4403,60.743293 401.49192,51.609172 400.54648,51.060042 399.07612,49.24149 400.87367,48.724001 408.30302,45.320402 416.30376,42.923813 424.5046,42.926181 z"
       inkscape:connector-curvature="0"
       id="path3078"
       style="fill:#a36ed8;stroke:none" />
    <path
       d="M 398.7304,49.987981 C 412.81074,61.795899 430.39467,68.293416 445.40148,78.757258 451.47332,82.977746 457.62574,87.4294 462.23164,93.251808 462.65623,94.425981 461.52176,95.763087 462.76746,96.727752 463.82238,97.877683 462.3431,98.860198 461.26421,98.047461 437.13591,89.629697 413.35116,80.021585 389.08569,72.080148 388.2621,72.310793 387.11184,72.344229 387.12102,71.104685 386.26612,64.312855 387.70856,56.323089 393.89431,52.406029 395.44041,51.608436 397.01762,50.104376 398.7304,49.987981 z"
       inkscape:connector-curvature="0"
       id="path3080"
       style="fill:#cce198;stroke:none" />
    <path
       d="M 388.37126,71.956497 C 414.50807,81.229238 440.51035,90.963807 466.38079,100.97307 467.61555,101.39483 468.57681,103.43495 466.79296,103.85825 460.81789,106.82603 454.71745,109.91846 448.54921,112.25743 443.35807,108.3798 437.79861,104.84851 431.67631,102.63548 421.06539,98.10713 409.72025,95.506514 399.21126,90.792543 395.98602,88.521762 392.88581,85.855546 389.86881,83.414748 388.85312,79.785565 387.65327,75.995253 387.57441,72.231276 387.72374,71.941854 388.08736,71.863992 388.37126,71.956497 z"
       inkscape:connector-curvature="0"
       id="path3082"
       style="fill:#c68582;stroke:none" />
    <path
       d="M 468.51033,104.1605 C 471.39251,106.01615 472.55581,109.72814 474.51963,112.45169 476.32124,116.15196 479.05935,119.34956 481.15012,122.8042 476.95817,125.06552 472.26742,126.63441 467.87834,128.61576 463.99837,125.82167 460.83763,121.76757 457.00272,118.81098 454.78628,116.66888 451.96691,115.28549 449.85289,113.06332 450.62946,111.31218 453.3334,111.18704 454.83727,110.10266 459.37239,108.14002 463.82366,105.63633 468.51033,104.1605 z"
       inkscape:connector-curvature="0"
       id="path3084"
       style="fill:#98d8de;stroke:none" />
    <path
       d="M 481.61725,123.57358 C 484.35281,129.57473 488.35734,134.90577 493.39149,139.07107 496.29292,143.97174 501.16387,147.51355 505.11078,151.64217 505.91623,153.98472 508.67092,155.00508 509.89192,157.00035 509.08126,159.66755 506.11997,161.2368 504.45131,163.40268 502.82795,164.58826 501.65501,166.93025 499.72513,167.37323 494.67491,162.86015 490.93828,156.95019 486.59224,151.73742 480.56556,144.18353 473.75355,137.07017 468.30424,129.15158 472.31167,126.90511 476.94223,125.48883 481.1776,123.5461 L 481.61639,123.5735 481.61725,123.57355 z"
       inkscape:connector-curvature="0"
       id="path3086"
       style="fill:#d2a09a;stroke:none" />
    <path
       d="M 512.4611,157.65982 C 513.58593,157.73722 513.85131,158.9956 515.07149,159.00623 517.75304,160.78022 520.96094,163.52291 520.14758,167.16576 520.20578,169.90396 518.9643,172.32193 517.58571,174.54494 514.67008,177.12419 510.24968,174.96302 507.40518,173.40461 505.38939,171.82619 502.34186,171.00169 501.23641,168.58225 501.55329,165.75248 504.84597,164.33933 506.42658,162.22482 508.3218,160.77385 510.01186,158.0374 512.4611,157.65982 z"
       inkscape:connector-curvature="0"
       id="path3088"
       style="fill:#c176ba;stroke:none" />
    <path
       d="M 644.86978,279.11171 C 660.8357,279.99013 676.82299,281.28415 692.67668,283.2211 693.67076,284.76948 692.7622,286.90511 692.87098,288.65172 692.06876,295.38555 689.96262,301.95945 687.16298,308.11547 682.49334,316.11482 678.49593,324.53795 675.66594,333.41787 672.66452,341.86184 669.10527,350.2099 663.77493,357.46219 662.62828,358.88461 661.31195,356.58377 660.2579,356.11539 647.16139,346.03909 633.96441,336.04463 621.07804,325.7334 620.0715,324.36235 622.25507,323.3311 622.75872,322.19719 628.05433,314.58714 632.50182,306.38147 635.9418,297.77399 636.86579,294.2167 638.13389,290.77764 639.53631,287.36936 640.64762,284.74631 641.34629,281.91362 642.54792,279.38373 643.22759,278.97131 644.11269,279.13379 644.86978,279.11171 z"
       inkscape:connector-curvature="0"
       id="path5886"
       style="fill:#ba9676;stroke:none" />
    <path
       d="M 648.89174,250.20024 C 662.82051,251.4332 676.77549,252.49218 690.67542,253.97933 692.31143,254.18978 691.15075,256.06487 690.4034,256.66063 688.06127,258.94384 684.66402,260.33252 683.55441,263.67477 682.85416,265.68759 682.523,268.14952 683.36983,270.14488 686.42208,272.79529 691.53779,274.03993 692.40467,278.55796 692.55232,279.94297 692.89983,281.41754 692.62811,282.77422 689.5493,282.72962 686.36635,281.98995 683.23382,281.80273 670.07389,280.44711 656.86815,279.50267 643.67485,278.63568 641.90548,278.26214 643.49421,276.14019 643.50398,275.06906 645.45605,267.18048 646.35852,259.07158 647.27907,251.00657 647.42734,250.23415 648.19678,250.02593 648.89174,250.20024 z"
       inkscape:connector-curvature="0"
       id="path5888"
       style="fill:#9b7d71;stroke:none" />
    <path
       d="M 692.54067,216.49933 C 694.10219,223.64217 695.17258,231.12985 694.42536,238.4841 693.50968,243.34635 693.40188,248.40433 692.09379,253.16328 690.7308,254.22574 688.7174,253.08548 687.1392,253.25068 673.97791,252.05841 660.81248,250.91236 647.64823,249.75332 646.61387,248.42651 647.3476,246.14981 647.00705,244.45872 646.79815,238.90518 646.37,233.32149 644.91835,227.96286 645.11007,226.56474 647.21322,227.2457 648.12641,226.66092 662.81056,223.327 677.46113,219.84394 692.12294,216.4119 L 1432.4272,216.4756 2172.5407,216.4993 z"
       inkscape:connector-curvature="0"
       id="path5890"
       style="fill:#c1dfbe;stroke:none" />
    <path
       d="M 652.9817,143.75434 C 660.74809,153.98968 668.18282,164.52907 675.25205,175.26396 678.95009,180.97722 682.525,186.83718 684.76877,193.27106 688.15479,199.77723 690.45799,206.80886 692.10351,213.95403 692.388,214.97974 692.37646,216.53207 690.85897,216.37798 675.6204,219.98269 660.30077,223.51012 645.10293,227.12741 643.90748,225.73717 644.07253,223.55268 643.23768,221.91052 641.25349,217.16596 639.68011,212.17806 637.38932,207.55193 633.07489,199.61011 628.58496,191.58411 622.43282,184.92081 619.70521,181.66664 617.07726,178.25072 614.4525,175.00709 614.22068,173.79029 615.89374,174.36814 616.33718,173.53043 626.42506,165.05953 637.16298,157.20604 647.04591,148.48548 648.94041,146.95211 650.51482,144.73939 652.75825,143.70576 L 652.9817,143.75436 z"
       inkscape:connector-curvature="0"
       id="path5895"
       style="fill:#768e99;stroke:none" />
    <path
       d="M 598.83098,97.249221 C 607.10436,101.66519 614.44942,107.59785 621.78301,113.40192 625.22096,116.55721 628.90729,119.43166 632.36673,122.54676 638.91599,128.89409 645.63822,135.14793 651.66613,141.98907 653.15932,143.61886 649.89257,144.73295 649.16112,146.02714 638.43281,156.27148 625.83698,164.53393 614.9091,174.49221 613.51796,174.90118 612.68491,172.95318 611.646,172.3028 607.66392,168.63796 603.03033,165.77555 599.0387,162.10948 594.50553,158.3018 590.4277,153.85504 584.92876,151.3763 579.0709,148.06417 573.2698,144.71713 567.2382,141.73364 566.77365,140.36902 568.84216,139.1825 569.3675,137.87593 579.03433,124.3971 588.48081,110.74856 598.2578,97.356085 598.44657,97.321895 598.62365,97.112314 598.83098,97.249221 z"
       inkscape:connector-curvature="0"
       id="path5898"
       style="fill:#dad3b7;stroke:none" />
  </g>
</svg>
