<?xml version="1.0" encoding="UTF-8" standalone="no"?>
<!-- Created with Inkscape (http://www.inkscape.org/) -->

<svg
   xmlns:dc="http://purl.org/dc/elements/1.1/"
   xmlns:cc="http://creativecommons.org/ns#"
   xmlns:rdf="http://www.w3.org/1999/02/22-rdf-syntax-ns#"
   xmlns:svg="http://www.w3.org/2000/svg"
   xmlns="http://www.w3.org/2000/svg"
   xmlns:xlink="http://www.w3.org/1999/xlink"
   xmlns:inkscape="http://www.inkscape.org/namespaces/inkscape"
   version="1.1"
   width="740"
   height="520"
   id="svg2"
   style="display:inline;enable-background:new">
  <defs
     id="defs4">
    <filter
       color-interpolation-filters="sRGB"
       id="filter3050">
      <feBlend
         in2="BackgroundImage"
         mode="lighten"
         id="feBlend3052" />
    </filter>
  </defs>
  <metadata
     id="metadata7">
    <rdf:RDF>
      <cc:Work
         rdf:about="">
        <dc:format>image/svg+xml</dc:format>
        <dc:type
           rdf:resource="http://purl.org/dc/dcmitype/StillImage" />
        <dc:title />
      </cc:Work>
    </rdf:RDF>
  </metadata>
  <g
     id="g66"
     style="display:none">
    <image
       xlink:href="pngs/coronal-0893.png"
       id="image68"
       height="520"
       width="740"
       y="0"
       x="0" />
  </g>
  <g
     id="g74"
     style="display:inline">
    <path
       d="M 465.80733,91.612807 C 475.74551,81.990632 490.45932,81.145472 503.43567,81.16843 515.85685,84.547027 527.81469,89.478569 540.2623,92.882835 552.72198,97.962217 564.50969,104.65448 576.2992,111.02994 592.21612,123.16378 606.65594,137.20954 623.6732,147.89124 639.38181,159.78583 653.71377,174.56225 660.92515,193.2307 664.48321,206.42696 660.82755,220.92979 667.5618,233.38898 672.90894,247.26841 678.01987,262.41645 673.82767,277.32945 673.27845,291.66157 664.8517,302.31396 653.45718,310.04875 643.88015,321.90785 629.20849,323.42442 615.12781,324.04759 605.53025,330.78281 588.05646,339.08361 582.42794,322.70678 578.15052,304.19237 572.9311,285.55334 563.44873,268.9643 552.38097,240.54504 544.78425,210.54005 528.73231,184.32227 519.64775,167.21047 509.11776,150.89634 498.67616,134.62189 488.76728,121.64267 474.5215,111.70276 467.5166,96.680577 466.07628,95.75736 468.19062,90.643373 465.80733,91.612807 z"
       inkscape:connector-curvature="0"
       id="path76"
       style="fill:none;stroke:#e20000;stroke-opacity:1" />
    <path
       d="M 487.20405,82.553103 C 486.17436,83.280737 488.96177,83.505701 487.71428,83.107673 502.64823,100.97359 501.61983,113.51062 499.99716,130.63509 500.15475,130.48578 499.98116,130.17303 499.95316,130.03478"
       inkscape:connector-curvature="0"
       id="path2991"
       style="fill:none;stroke:#0000e9;stroke-width:1;stroke-miterlimit:4;stroke-opacity:1;stroke-dasharray:none" />
    <path
       d="M 497.31589,131.79336 C 504.20998,131.85766 511.15234,133.42299 517.10177,136.99488 523.61893,140.71975 530.37851,144.01393 537.19292,147.15691 541.63625,148.71143 552.17425,154.8297 565.54387,157.4468 568.06081,156.80432 597.26048,167.13125 598.06594,174.5087"
       inkscape:connector-curvature="0"
       id="path79"
       style="fill:none;stroke:#0000e9;stroke-width:1;stroke-miterlimit:4;stroke-opacity:1;stroke-dasharray:none" />
    <path
       d="M 537.76324,147.62058 C 560.26966,141.37251 584.28968,137.39483 613.3822,141.0259"
       inkscape:connector-curvature="0"
       id="path81"
       style="fill:none;stroke:#0000e9;stroke-width:1;stroke-miterlimit:4;stroke-opacity:1;stroke-dasharray:none" />
    <path
       d="M 551.13849,235.67615 C 560.2477,131.10463 632.95089,191.29953 663.0621,215.32593"
       inkscape:connector-curvature="0"
       id="path3001"
       style="fill:none;stroke:#0000e9;stroke-width:1;stroke-miterlimit:4;stroke-opacity:1;stroke-dasharray:none" />
    <path
       d="M 636.24375,159.05135 C 628.44364,162.95181 603.54732,180.8698 615.09757,183.1046 628.62882,181.7137 637.69094,178.19777 649.96166,184.08192 653.48413,185.64998 656.90723,187.49029 659.98474,189.82647"
       inkscape:connector-curvature="0"
       id="path3003"
       style="fill:none;stroke:#0000e9;stroke-width:1;stroke-miterlimit:4;stroke-opacity:1;stroke-dasharray:none" />
    <path
       d="M 576.56346,143.54145 C 595.06153,141.88761 610.47122,140.52438 610.80722,140.51204 611.45458,140.48824 608.46035,138.29137 607.78058,138.29137 607.56153,138.29137 607.2241,138.03317 607.03073,137.71758 606.83736,137.40199 605.93638,136.58648 605.02855,135.90534 604.12072,135.2242 602.61636,133.94915 601.68553,133.07189 600.75469,132.19463 599.0005,130.53713 597.78732,129.38856 596.57414,128.23999 595.44638,127.30025 595.2812,127.30025 595.11602,127.30025 594.34862,126.70764 593.57586,125.98335 592.80311,125.25905 591.90794,124.66553 591.58659,124.66441 590.896,124.66241 585.79601,120.31681 585.79601,119.73082 585.79601,119.05934 582.59086,116.22891 581.12765,115.60826 580.3736,115.28841 578.8898,114.23128 577.83032,113.25908 576.77084,112.28689 575.52352,111.36418 575.0585,111.20863 574.59348,111.05308 573.81427,110.55433 573.32693,110.1003 572.83959,109.64627 572.08248,109.2748 571.64446,109.2748 571.20645,109.2748 570.84807,109.08592 570.84807,108.85507 570.84807,108.62422 570.15563,108.30545 569.30931,108.14668 568.463,107.98791 567.77056,107.68218 567.77056,107.46729 567.77056,107.25239 567.50446,107.07657 567.17923,107.07657 566.854,107.07657 566.22982,106.68089 565.79215,106.19728 565.35449,105.71367 564.65561,105.31799 564.23909,105.31799 563.82256,105.31799 563.24388,105.03135 562.95312,104.68101 562.66237,104.33067 561.6984,103.80441 560.81098,103.51154 559.92355,103.21868 558.60396,102.61665 557.87854,102.1737 557.15313,101.73075 556.06501,101.14109 555.46049,100.86333 552.56267,99.531876 550.9192,98.708677 548.42617,97.339919 548.06346,97.14078 547.14787,96.698323 546.39153,96.356681 545.63518,96.01504 544.8816,95.517488 544.71691,95.251011 544.55222,94.984533 544.08293,94.765288 543.67404,94.763798 543.26515,94.762298 542.36393,94.465548 541.67133,94.10433 540.97872,93.743113 539.98408,93.447571 539.46102,93.447571 538.93795,93.447571 538.11974,93.175311 537.64278,92.842548 537.16582,92.509785 535.58853,91.998132 534.1377,91.705542 532.68688,91.412951 531.16225,90.996491 530.74965,90.780073 530.33706,90.563656 529.19948,90.258662 528.2217,90.102309 527.24392,89.945955 526.44392,89.67103 526.44392,89.491362 526.44392,89.311695 525.25687,89.030396 523.80604,88.866254 522.35522,88.702111 521.16817,88.379796 521.16817,88.149999 521.16817,87.920201 521.01979,87.764133 520.83844,87.80318 520.65709,87.84223 519.95177,87.644386 519.27106,87.363535 518.59036,87.082683 517.76121,86.852895 517.42852,86.852895 517.09582,86.852895 516.70936,86.668023 516.56971,86.442068 516.43006,86.216114 514.68729,85.407465 512.69687,84.645071 510.70645,83.882677 508.88998,83.078348 508.66027,82.857672 508.43056,82.636996 507.70033,82.456443 507.03755,82.456443 506.37477,82.456443 505.71022,82.258603 505.56077,82.016798 505.41133,81.774993 504.02645,81.577153 502.48326,81.577153 500.94007,81.577153 499.55518,81.774993 499.40574,82.016798 499.25433,82.261794 497.21494,82.456443 494.79948,82.456443 490.38759,82.456443 489.07408,82.671757 489.07408,83.394963 489.07408,83.858576 491.06735,87.925787 494.10606,93.662586 495.25739,95.836185 496.59903,98.70487 497.08748,100.03744 497.57593,101.37001 498.14898,102.64824 498.36092,102.87796 498.57286,103.10767 498.74627,103.81001 498.74627,104.4387 498.74627,105.06739 498.9715,105.807 499.24678,106.08228 499.82256,106.65807 500.41677,115.23139 500.54162,124.76475 500.63392,131.81064 500.53862,131.57001 503.14272,131.33641 503.50543,131.30391 504.19787,131.45205 504.68148,131.66569 505.61677,132.07886 510.8577,133.44276 511.89308,133.54244 512.23239,133.57514 513.81511,134.35066 515.41024,135.26591 517.00538,136.18115 520.92989,138.23513 524.1314,139.83031 527.33291,141.42548 531.16034,143.41344 532.6368,144.24798 534.11327,145.08253 535.68629,145.76534 536.1324,145.76534 536.5785,145.76534 537.06578,145.96318 537.21522,146.20499 537.66615,146.93461 541.55724,146.67121 576.56346,143.54145 L 576.56346,143.54145 z"
       inkscape:connector-curvature="0"
       id="path86"
       style="fill:none;stroke:none" />
    <path
       d="M 499.16054,124.99211 C 499.11334,112.53028 498.52932,107.70939 496.53727,103.33959 496.09634,102.37237 495.59624,101.08641 495.42594,100.4819 495.05565,99.167538 493.47688,95.955727 493.04876,95.645797 492.88174,95.524895 492.16642,94.238933 491.45915,92.788104 490.75187,91.337275 490.02481,90.084286 489.84346,90.003685 489.66211,89.923085 489.51372,89.607258 489.51372,89.301852 489.51372,88.288105 488.13982,85.973604 487.53805,85.973604 487.21227,85.973604 486.81536,85.380083 486.65603,84.654669 486.38014,83.398531 485.44263,82.893261 484.92921,83.723995 484.79723,83.937539 483.54905,84.253366 482.15548,84.425833 480.76191,84.5983 479.38308,84.935215 479.09141,85.174533 478.79975,85.413851 478.35461,85.482029 478.10221,85.326039 477.84981,85.170049 477.64331,85.229919 477.64331,85.459084 477.64331,85.688249 476.9082,86.013655 476.00973,86.182209 474.54286,86.457395 473.28472,87.294019 470.3272,89.960933 469.27213,90.912329 468.31969,91.027188 467.06292,90.354587 466.40793,90.004047 466.21253,90.042775 466.21253,90.523133 466.21253,90.866146 466.61115,91.251035 467.09836,91.378441 467.87701,91.582062 467.96633,91.90743 467.83661,94.067589 467.75541,95.419213 467.85141,96.525087 468.0499,96.525087 468.24837,96.525087 468.41076,96.815755 468.41076,97.171016 468.41076,98.112912 470.20417,101.40215 470.85361,101.65136 471.15903,101.76857 471.51951,102.29528 471.65468,102.82185 471.78985,103.34841 472.40123,104.31466 473.01329,104.96907 473.62536,105.62348 474.12615,106.35102 474.12615,106.58583 474.12615,106.82064 474.57401,107.37334 475.12139,107.81404 475.66877,108.25475 476.57524,109.20885 477.13576,109.93427 477.69628,110.65968 478.93006,112.0824 479.8775,113.09587 480.82494,114.10934 481.60011,115.148 481.60011,115.40401 481.60011,115.66002 481.91406,115.86948 482.29777,115.86948 482.68148,115.86948 483.20837,116.43363 483.46863,117.12315 483.7289,117.81266 484.5025,118.7524 485.18776,119.21146 485.87302,119.67052 486.43425,120.25546 486.43495,120.51133 486.43565,120.7672 487.24889,121.55856 488.24217,122.26991 490.39034,123.80835 491.26967,124.62953 492.13874,125.9088 492.49438,126.43229 493.03148,126.86061 493.3323,126.86061 493.63311,126.86061 494.11512,127.30575 494.40343,127.84981 494.69173,128.39387 495.39113,129.24099 495.95765,129.7323 496.52418,130.22361 496.98769,130.86659 496.98769,131.16114 496.98769,131.4557 497.48229,131.6967 498.0868,131.6967 L 499.18592,131.6967 499.16052,124.99211 z"
       inkscape:connector-curvature="0"
       id="path88"
       style="fill:none" />
    <path
       d="M 486.23162,82.582841 C 487.61088,82.872811 486.99075,84.802453 488.34741,85.220712 489.44845,86.22555 489.66561,87.888122 490.2159,89.053868 492.00136,92.162581 493.83091,95.219992 495.40921,98.437544 497.30797,103.13693 499.25664,107.94392 499.29732,113.15192 499.53443,119.04734 499.98611,125.03949 499.36602,130.90259 498.53481,132.3935 496.43726,131.55912 495.87634,130.24312 494.5484,129.20259 494.0864,127.42867 492.52405,126.80839 490.68712,124.76808 488.75965,122.58644 486.38275,121.39526 483.64943,117.02031 479.20515,113.82501 476.49074,109.48363 474.16251,107.6441 472.64463,105.13539 471.03639,102.69661 470.83858,101.37079 469.16962,100.68947 468.82443,99.261878 467.86338,98.238225 468.36142,96.485249 467.09332,95.950801 467.48184,94.923898 466.1697,93.6326 467.38184,92.873285 467.78785,91.317098 464.90653,91.350502 465.74691,89.493513 466.75308,88.011967 468.43619,90.924094 469.56633,89.273691 471.32803,87.786788 473.17273,86.183719 475.29545,85.440535 476.76874,84.554766 478.59274,84.619662 479.99416,83.668215 482.0448,83.222165 484.14255,82.732116 486.23163,82.582841 z"
       inkscape:connector-curvature="0"
       id="path90"
       style="fill:none;stroke:none" />
    <path
       d="M 547.31481,171.14386 C 546.41444,171.33967 545.33636,172.27921 546.24318,173.12226 545.68377,175.46707 542.58693,176.23228 540.58274,177.05159 535.76199,178.1337 530.7499,177.38442 525.85463,177.45002 524.4663,175.41162 523.33738,173.0084 521.78792,170.97899 521.20004,169.13125 519.47576,168.08067 518.91648,166.3215 516.92158,163.53526 515.48702,160.5542 513.54182,157.69896 512.05107,156.11258 511.83849,153.90099 510.32966,152.43146 509.73522,150.76776 508.55555,149.50489 507.48571,148.25483 507.21814,147.62955 506.45088,147.22238 506.34538,146.35886 503.95646,143.41596 502.80277,139.6292 500.41017,136.71415 499.46369,136.14799 499.79883,134.9965 498.7615,134.65331 497.88136,133.26384 499.30037,131.88734 500.76738,132.30396 504.28937,132.59861 507.9594,133.07752 511.12652,134.55714 515.78682,135.70283 519.27786,139.25023 523.75258,140.69843 524.82691,141.10858 525.6517,142.17179 526.98122,142.31962 530.28813,143.91813 533.19331,146.30995 536.84576,147.1832 540.83031,148.82888 545.39128,150.50224 547.93306,154.13508"
       inkscape:connector-curvature="0"
       id="path92"
       style="fill:none;stroke:none" />
    <path
       d="M 562.74979,194.87385 C 560.75818,199.7941 558.86501,204.62431 556.94579,209.54411 554.33967,214.94231 552.68626,220.76689 552.24708,226.70401 551.95483,227.74397 551.87663,231.26191 549.95268,230.07004 548.9377,228.75715 549.09257,226.8837 547.96054,225.68733 547.5983,223.01707 546.18096,220.62927 545.4738,218.04849 544.25992,214.90595 543.42619,211.5104 541.10482,208.96708 540.26447,207.63503 540.21255,206.03537 539.12642,204.9141 538.521,202.49044 537.28146,200.23564 536.6122,197.82482 533.91458,193.65686 531.73932,188.9712 529.23441,184.75912 528.04507,183.86029 528.20566,181.86517 527.20105,180.66492 526.21713,179.36358 527.22575,177.70724 528.83598,177.93088 534.4753,177.52688 540.87423,178.81137 545.70736,175.29301 546.84778,174.63603 547.09587,172.29776 548.99096,172.47653 575.30156,165.08287 568.01091,176.40864 562.74979,194.87385 z"
       inkscape:connector-curvature="0"
       id="path94"
       style="fill:none;stroke:none" />
    <path
       d="M 556.25884,156.718 C 566.42774,157.27275 576.48684,159.25579 586.44323,161.25184 590.2422,162.81161 594.27596,163.832 597.80531,166.01924 598.18414,167.06427 599.75355,166.437 600.11344,167.59922 602.12112,168.3545 603.29037,170.29127 605.21058,171.24003 606.45927,172.35901 604.56254,173.40658 603.49321,172.65514 595.20224,170.805 586.4751,171.46491 577.99385,171.16457 575.32467,170.80406 572.81017,172.2613 570.35496,172.46279 569.41253,171.61341 568.72767,169.98571 568.45899,169.02806 565.28236,169.98101 561.61899,169.34192 558.27847,169.59611 555.75853,169.26645 552.72937,170.2311 550.44728,168.98685 550.61139,166.21488 551.14377,163.1875 550.8302,160.30483 551.06093,158.95314 549.05672,156.10968 551.57349,156.57917 553.13527,156.62547 554.69705,156.67167 556.25884,156.718 z"
       inkscape:connector-curvature="0"
       id="path3023"
       style="fill:none;stroke:none" />
    <path
       d="M 612.97306,141.57772 C 615.34484,141.92898 617.19572,143.80042 619.37539,144.73767 622.01166,146.37843 623.83731,149.08369 626.75319,150.12332 629.32009,153.05878 633.54539,154.8883 634.84541,158.79258 634.36468,161.7846 630.50342,161.4802 628.40318,162.69981 622.53113,164.38811 617.53482,168.02909 611.75878,169.98532 609.95213,170.23351 608.19735,173.21983 606.51577,171.24003 602.02866,167.91614 597.28508,164.59005 591.85636,162.99668 583.822,159.22799 574.73343,158.86646 566.0959,157.26756 560.72258,156.27238 555.15548,156.29723 549.79832,155.98903 548.11928,153.88988 552.37759,152.26713 549.63669,151.38731 549.79778,148.8588 540.8309,148.09265 542.24515,147.16946 565.27584,145.1898 588.72465,143.05597 611.79152,141.56398 612.18532,141.57098 612.5797,141.55008 612.97306,141.57768 z"
       inkscape:connector-curvature="0"
       id="path3045"
       style="fill:none;stroke:none" />
    <path
       d="M 621.12024,177.14776 C 629.63422,176.97158 637.85065,179.75183 645.85027,182.31359 647.24701,182.54747 647.59387,184.09195 649.0377,183.94852 650.84843,185.70994 653.91521,185.77967 656.03081,187.38325 657.03513,188.43372 658.84424,188.48708 659.20449,190.19972 659.29787,191.37781 660.4912,192.15126 660.20743,193.46958 661.24964,195.11927 661.45684,197.20001 662.25453,198.99263 662.73242,203.93899 662.97294,208.99689 662.51557,213.94056 660.965,214.68977 659.51304,212.24388 658.0779,211.71486 641.51367,200.04094 626.06044,186.47605 607.25768,178.53539 605.93425,177.25785 608.53794,177.05085 609.37336,177.22064 613.28831,177.14454 617.20466,177.11142 621.12024,177.14774 z"
       inkscape:connector-curvature="0"
       id="path3047"
       style="fill:none;stroke:none" />
    <path
       d="M 561.10868,169.71501 C 564.50413,169.78651 568.27225,170.09174 570.71217,172.66887 573.01878,172.60827 575.2178,171.13069 577.6778,171.50107 586.31868,171.722 595.13699,171.21545 603.6306,172.99861 605.02696,173.1456 605.52729,174.31143 605.38918,175.48535 605.86902,176.2323 607.37723,177.91508 605.54031,177.91714 596.7376,175.57282 586.63747,175.11683 578.44718,179.73067 574.28527,181.64491 570.92852,184.94176 567.16754,187.5069 566.28792,188.02166 565.37998,186.32009 565.14792,187.89159 563.31804,193.84323 560.81167,199.60005 558.58072,205.32626 556.20355,211.81393 552.69589,218.13353 552.48064,225.20647 551.94025,226.84528 552.46324,229.56554 550.68084,230.3723 548.69032,229.91736 549.46242,227.00687 548.04297,225.92089 547.61301,223.18039 546.23521,220.70061 545.4738,218.04849 544.25992,214.90595 543.42618,211.5104 541.10482,208.96708 540.26447,207.63503 540.21255,206.03537 539.12642,204.9141 538.521,202.49044 537.28146,200.23564 536.6122,197.82482 533.91458,193.65686 531.73932,188.9712 529.23441,184.75912 528.04507,183.86029 528.20566,181.86517 527.20105,180.66492 526.21713,179.36358 527.22575,177.70724 528.83598,177.93088 534.47139,177.53951 540.79338,178.7807 545.67988,175.34796 546.94463,174.9058 547.00873,172.70878 548.14555,171.80889 549.55152,168.98393 553.38826,170.45012 555.95415,169.79974 557.67048,169.71734 559.39045,169.67427 561.10868,169.71504 z"
       inkscape:connector-curvature="0"
       id="path3053"
       style="fill:none;stroke:none" />
    <path
       d="M 560.54536,169.77774 C 563.3363,169.88467 566.56064,169.50601 568.83679,171.42641 570.52106,172.51048 572.67745,172.78604 574.49722,171.85232 579.47979,171.36354 584.52177,171.61936 589.52759,171.52945 594.86266,171.46645 600.24931,172.06686 605.36856,173.48038 606.20425,174.17162 604.74166,175.22497 605.60212,176.00834 606.03826,176.56894 607.46454,177.63636 606.3028,178.19969 603.93756,177.89676 601.71745,176.80454 599.29817,176.5955 593.69636,175.90702 587.82848,175.87248 582.48441,177.9419 576.54599,180.12573 571.23047,183.87516 566.7897,188.36649 566.15617,189.05679 565.2661,188.13549 565.77302,187.43911 566.06816,186.66348 565.29181,187.36121 565.29902,187.80319 564.72418,189.25193 564.49324,190.94367 563.42366,192.11721 563.78377,193.7199 562.5891,195.24509 562.20363,196.77196 560.77735,200.25306 559.27451,203.64878 558.0861,207.22314 556.41768,211.14914 554.51582,215.02237 553.59432,219.20358 552.57234,222.94913 552.74227,226.97372 551.38838,230.61364 550.65588,231.69563 549.54521,230.34849 549.43745,229.50078 549.36695,228.86074 549.26125,228.27534 548.83981,227.79029 548.57975,227.1567 548.82861,226.40939 548.17347,225.99736 547.82857,225.44029 548.31569,224.59801 547.56896,224.35556 547.10288,223.706 547.7038,222.69047 546.86828,222.32907 546.67501,221.74551 546.55644,221.18231 546.21568,220.65979 546.30118,220.00139 546.05925,219.5059 545.70734,218.97678 545.61814,218.2948 545.52781,217.66671 545.02726,217.16324 544.98156,216.33764 544.11537,215.86508 544.27162,214.95815 544.4227,214.2728 544.08397,213.87092 543.68772,213.41252 543.42773,212.23407 542.61526,211.26162 542.11461,210.17701 541.35308,209.29119 540.40526,208.35809 540.45908,207.10636 539.78915,206.83141 540.08725,205.94998 539.46987,205.71873 539.1332,205.18008 539.18297,204.51735 538.75545,204.01511 538.74945,203.39562 538.71945,202.83722 538.24711,202.37331 538.16891,201.45922 537.29573,200.86097 537.42965,199.88656 537.1586,199.22813 536.71425,198.62653 536.72896,197.86007 535.8028,197.00929 535.2595,195.78334 534.86734,194.6383 534.28737,194.15182 534.50562,193.32416 533.89188,192.85911 533.67479,191.76162 532.29716,191.41621 532.35312,190.26246 531.83464,189.77904 531.90732,188.97807 531.34331,188.54509 531.14094,187.58812 529.99047,187.01969 529.98316,185.95531 529.11438,185.80049 529.59282,184.68757 528.86344,184.40281 528.52686,183.24956 527.87317,182.15393 527.43459,181.05052 526.75025,180.53398 527.27609,179.56265 526.56217,179.03777 525.93675,178.39608 526.58247,177.49408 527.39337,177.76692 532.61075,178.2041 538.09311,178.5263 543.10382,176.72276 545.81727,175.0003 547.76178,172.20873 550.21432,170.1464 553.62612,169.81682 557.10601,169.77428 560.54536,169.77774 z"
       inkscape:connector-curvature="0"
       id="path3024"
       style="fill:none;stroke:none" />
    <path
       d="M 526.11728,178.03634 C 555.07256,167.21676 581.16275,163.95911 601.0384,177.10372"
       inkscape:connector-curvature="0"
       id="path6064"
       style="fill:none;stroke:#0000e9;stroke-width:1;stroke-linecap:round;stroke-miterlimit:4;stroke-opacity:1;stroke-dasharray:none;stroke-dashoffset:0" />
    <path
       d="M 591.00076,176.50319 C 598.41299,176.80459 605.81555,178.69713 612.42206,182.05038 615.2319,183.53112 618.35881,184.3907 621.0683,186.09177 635.50919,194.02117 648.7627,203.97197 661.44333,214.43007 664.18296,216.8577 663.21426,220.93638 664.16971,224.10903 665.39137,230.26563 668.6216,235.77753 670.39657,241.78321 673.26418,250.41957 675.72482,259.42888 674.93263,268.62903 674.81579,273.20677 673.60583,277.58781 673.10218,282.12772 671.57307,290.6462 666.90458,298.33828 660.49013,304.08989 656.89268,307.41436 652.9325,310.27766 649.48512,313.73806 641.86558,320.66968 631.31133,322.71595 621.35514,323.48527 618.40299,323.93972 615.05366,323.18228 612.67464,325.37396 606.51181,329.14641 599.3706,333.01105 591.89452,331.6692 587.04357,330.90532 583.79817,326.51561 582.57825,322.02808 579.74496,311.73124 577.38223,301.3047 573.70827,291.25531 570.57978,281.72269 565.32535,273.09695 561.7104,263.75249 558.16706,254.16797 554.74364,244.52065 551.40292,234.87017 552.99763,219.82459 555.41708,204.22044 563.62181,191.20543 568.35885,183.60384 576.23455,177.72895 585.29187,176.78442 587.18354,176.53809 589.09403,176.45584 591.00076,176.50319 z"
       inkscape:connector-curvature="0"
       id="path6066"
       style="fill:#9681a3;stroke:none" />
    <path
       d="M 571.26984,168.77015 C 580.13464,168.90711 589.30289,170.56797 596.9754,175.11396 598.03466,176.07992 596.35678,176.83189 595.48903,176.43518 586.81533,175.43867 577.40838,176.75052 570.64459,182.62114 560.78567,191.01809 556.51589,203.95411 553.79727,216.28877 552.71103,221.14088 552.18234,226.16339 551.37377,231.06193 550.50217,232.12503 549.51505,230.69942 549.54738,229.77957 543.87971,213.98805 537.41648,198.45549 528.8376,184.02953 527.89064,182.14467 526.48149,180.40164 525.85279,178.41702 530.28208,176.5297 535.08267,175.22918 539.71273,173.74295 549.93088,170.64237 560.5426,168.63093 571.26984,168.77015 z"
       inkscape:connector-curvature="0"
       id="path6068"
       style="fill:#7786bc;stroke:none" />
    <path
       d="M 486.18695,82.63805 C 486.92991,82.771036 487.15669,83.550068 487.87734,83.823265 495.09503,91.999356 500.20042,102.39688 500.56497,113.44392 500.90138,119.49005 500.29689,125.60151 499.7625,131.57649 498.16709,132.24565 496.0883,131.62009 495.1697,130.0872 486.70481,120.43247 476.76943,111.88451 469.96279,100.88556 468.37158,98.151907 466.65853,95.265411 466.97492,91.965131 466.67088,89.98325 469.1877,89.368363 470.41932,88.26066 475.04671,85.331583 480.34593,83.41013 485.74007,82.628335 485.889,82.632535 486.03834,82.620935 486.18695,82.638035 z"
       inkscape:connector-curvature="0"
       id="path6072"
       style="fill:#a36ed8;stroke:none" />
    <path
       d="M 501.29358,81.365401 C 506.54319,81.670196 511.4321,83.97092 516.44676,85.387476 527.53116,89.402993 539.109,92.130714 549.71129,97.368994 558.61813,101.70473 567.48302,106.25606 575.99127,111.32608 585.32961,117.93054 593.78621,125.68634 602.74226,132.79196 605.31376,135.11272 608.48657,136.90869 610.67338,139.57694 610.61368,141.17721 608.42034,140.13511 607.47098,140.2299 591.76688,138.88851 575.91536,139.59869 560.39277,142.32777 552.91278,143.49795 545.54508,145.41301 538.22955,147.28084 529.71729,143.76517 521.66286,139.04556 513.4469,134.99152 509.2801,132.97061 504.72542,132.39153 500.22495,131.57188 499.17357,131.05311 500.44195,130.06569 500.23495,129.25974 501.08468,120.87646 501.43694,112.21704 499.50634,103.97192 497.48809,96.182168 492.89817,89.381845 488.04278,83.03636 487.59572,81.629971 489.8374,82.095439 490.63665,81.870575 494.18099,81.596836 497.73723,81.342646 501.29387,81.365401 z"
       inkscape:connector-curvature="0"
       id="path6074"
       style="fill:#a6a5bc;stroke:none" />
    <path
       d="M 637.47672,181.04004 C 644.94099,181.419 651.79289,184.86086 658.01397,188.7245 660.88244,191.13975 661.14059,195.32074 661.76392,198.78911 662.25413,203.69317 662.88144,208.63913 662.77426,213.56544 662.06417,215.00398 660.66184,212.82925 659.84037,212.51624 646.93224,202.3443 633.84541,192.31278 619.26248,184.58246 618.50315,184.36575 617.45677,183.10548 618.76587,182.83729 624.91496,181.72827 631.22579,181.16524 637.47672,181.04004 z"
       inkscape:connector-curvature="0"
       id="path6078"
       style="fill:#9b7d71;stroke:none" />
    <path
       d="M 637.0007,159.25928 C 644.9688,167.41538 652.62522,176.19821 657.64481,186.4998 657.77837,188.07744 655.82298,187.01798 655.18211,186.543 649.00747,183.13679 642.26479,180.37513 635.07718,180.73573 628.56156,180.82723 622.13507,182.13992 615.68626,182.8276 614.3031,182.26752 611.7723,181.68476 612.53864,179.62169 614.19599,175.43608 617.98926,172.59864 621.20431,169.6348 626.02827,165.68582 631.13753,161.91069 636.69826,159.14373 L 636.81611,159.13303 637.0007,159.25932 z"
       inkscape:connector-curvature="0"
       id="path6080"
       style="fill:#c1dfbe;stroke:none" />
    <path
       d="M 499.05635,131.89392 C 505.00454,132.31015 510.9848,133.65048 516.19442,136.61585 523.31495,140.51933 530.54334,144.25195 537.95471,147.59317 544.04134,150.08374 549.92919,153.13205 556.2284,155.03962 559.96436,156.24693 563.78359,157.30437 567.68709,157.81807 573.56757,159.35193 579.26266,161.59412 584.77006,164.15609 588.8798,166.20034 593.11533,168.30672 596.35356,171.63577 596.92927,172.41286 597.81587,173.18364 597.8615,174.20221 597.44363,175.10894 596.45748,174.19051 595.84566,174.00791 586.36142,169.27625 575.56525,167.95352 565.05981,168.65954 551.77385,169.50111 538.89905,173.27709 526.45716,177.82586 525.82042,178.31486 525.08872,177.81056 524.90697,177.11499 517.00811,163.12842 508.37451,149.54966 499.67609,136.06496 498.93672,134.87977 498.08769,133.74438 497.27849,132.62883 497.03478,131.69327 498.5031,131.92683 499.05635,131.89392 z"
       inkscape:connector-curvature="0"
       id="path5899"
       style="fill:#cce198;stroke:none" />
    <path
       d="M 592.80491,139.79212 C 599.78492,139.76112 606.76459,140.30287 613.6769,141.17827 618.55927,144.79281 623.83787,147.89847 628.48994,151.81223 630.99361,153.91206 633.57263,155.96505 635.85152,158.30382 636.30979,159.15893 634.98453,159.50976 634.48868,159.90797 628.45821,163.45437 622.79535,167.63237 617.62637,172.33058 615.49898,174.45557 613.23349,176.66397 612.14722,179.54054 611.95008,180.09297 612.20702,181.21591 611.25346,181.03177 608.06724,179.76778 604.78587,178.71997 601.52886,177.69957 601.06826,177.31828 600.82341,176.71052 600.22221,176.48035 599.45954,175.88929 598.38736,175.57518 597.85664,174.73653 597.79484,174.28546 598.25734,174.03112 597.90034,173.5756 596.6529,170.93357 593.99396,169.26278 591.65445,167.69605 584.59049,163.35746 576.75315,160.30271 568.8485,157.91847 567.00737,157.34603 565.03647,157.417 563.17904,156.83847 556.40062,155.24067 549.90865,152.68205 543.55695,149.83974 542.35705,149.25131 541.05755,148.82747 539.96081,148.05462 539.42988,147.16289 540.76333,146.99471 541.33061,146.81598 557.41766,142.419 574.04271,139.74957 590.75019,139.79023 591.43509,139.78523 592.11998,139.78986 592.80489,139.79223 z"
       inkscape:connector-curvature="0"
       id="path5928"
       style="fill:#dad3b7;stroke:none" />
  </g>
</svg>
