<?xml version="1.0" encoding="UTF-8" standalone="no"?>
<!-- Created with Inkscape (http://www.inkscape.org/) -->

<svg
   xmlns:dc="http://purl.org/dc/elements/1.1/"
   xmlns:cc="http://creativecommons.org/ns#"
   xmlns:rdf="http://www.w3.org/1999/02/22-rdf-syntax-ns#"
   xmlns:svg="http://www.w3.org/2000/svg"
   xmlns="http://www.w3.org/2000/svg"
   xmlns:xlink="http://www.w3.org/1999/xlink"
   xmlns:inkscape="http://www.inkscape.org/namespaces/inkscape"
   version="1.1"
   width="740"
   height="520"
   id="svg2"
   style="display:inline;enable-background:new">
  <defs
     id="defs4">
    <filter
       color-interpolation-filters="sRGB"
       id="filter3050">
      <feBlend
         in2="BackgroundImage"
         mode="lighten"
         id="feBlend3052" />
    </filter>
  </defs>
  <metadata
     id="metadata7">
    <rdf:RDF>
      <cc:Work
         rdf:about="">
        <dc:format>image/svg+xml</dc:format>
        <dc:type
           rdf:resource="http://purl.org/dc/dcmitype/StillImage" />
        <dc:title />
      </cc:Work>
    </rdf:RDF>
  </metadata>
  <g
     id="g139"
     style="display:none">
    <image
       xlink:href="pngs/coronal-0877.png"
       id="image141"
       height="520"
       width="740"
       y="0"
       x="0" />
  </g>
  <g
     id="g147"
     style="display:inline">
    <path
       d="M 667.255,315.44356 C 676.86958,304.97568 678.47947,289.22066 682.48568,276.02625 685.71221,258.40638 671.29508,244.05861 672.37467,227.15028 676.80084,212.70477 671.5124,198.65148 663.61567,186.58168 640.36858,146.3849 602.26527,116.59354 560.28889,97.777653 533.58914,83.824302 505.72288,70.536066 475.29914,67.693702 462.93075,67.672852 438.75361,77.036753 442.96541,90.906063 453.22995,106.18549 469.77241,115.77127 480.87239,130.45592 489.7436,141.26796 501.15129,149.89051 507.47899,162.5995 516.64677,177.1148 524.643,192.44079 529.12602,209.08411 537.12302,230.23263 540.84696,252.65457 548.26788,274.01022 553.18688,295.38176 564.04648,314.83932 569.72557,335.89273 570.67745,352.0665 586.02935,361.29529 600.63773,355.09448 620.32259,352.00831 639.54383,344.604 656.13078,333.62839 662.56262,328.12953 667.10714,320.20551 667.87676,311.71305"
       inkscape:connector-curvature="0"
       id="path149"
       style="fill:none;stroke:#e20000;stroke-opacity:1" />
    <path
       d="M 469.22696,117.72639 C 496.79226,113.97166 545.59409,146.8602 544.49202,166.28178 544.07984,173.54545 532.99016,177.04227 519.58888,183.01036"
       inkscape:connector-curvature="0"
       id="path6258"
       style="fill:none;stroke:#0000e9;stroke-width:1;stroke-linecap:round;stroke-miterlimit:4;stroke-opacity:1;stroke-dasharray:none;stroke-dashoffset:0" />
    <path
       d="M 489.4339,118.96989 C 498.84057,100.68429 486.8414,83.773479 472.64659,68.607973"
       inkscape:connector-curvature="0"
       id="path6260"
       style="fill:none;stroke:#0000e9;stroke-width:1;stroke-linecap:round;stroke-miterlimit:4;stroke-opacity:1;stroke-dasharray:none;stroke-dashoffset:0" />
    <path
       d="M 520.83238,134.5137 577.10095,105.9131"
       inkscape:connector-curvature="0"
       id="path6262"
       style="fill:none;stroke:#0000e9;stroke-width:1;stroke-linecap:round;stroke-miterlimit:4;stroke-opacity:1;stroke-dasharray:none;stroke-dashoffset:0" />
    <path
       d="M 542.28283,254.82272 C 544.96368,253.95538 553.41576,239.11681 559.92096,221.84237 568.50573,199.04571 568.53641,180.23139 544.14809,166.84481 549.35883,165.38012 544.56713,157.33107 548.53721,157.25601 566.34509,156.91935 579.80761,167.93998 579.8691,177.4168 579.9075,183.34334 572.48731,187.11173 565.90941,188.29525"
       inkscape:connector-curvature="0"
       id="path6264"
       style="fill:none;stroke:#0000e9;stroke-width:1;stroke-linecap:round;stroke-miterlimit:4;stroke-opacity:1;stroke-dasharray:none;stroke-dashoffset:0" />
    <path
       d="M 565.28766,159.69466 622.48885,137.0007"
       inkscape:connector-curvature="0"
       id="path6266"
       style="fill:none;stroke:#0000e9;stroke-width:1;stroke-linecap:round;stroke-miterlimit:4;stroke-opacity:1;stroke-dasharray:none;stroke-dashoffset:0" />
    <path
       d="M 576.16832,167.15568 C 576.68645,167.15568 577.20457,167.15568 577.7227,167.15568"
       inkscape:connector-curvature="0"
       id="path6268"
       style="fill:none;stroke:#0000e9;stroke-width:1;stroke-linecap:round;stroke-miterlimit:4;stroke-opacity:1;stroke-dasharray:none;stroke-dashoffset:0" />
    <path
       d="M 653.88733,171.81882 C 625.01809,163.93618 598.92392,162.39659 575.85744,167.77743"
       inkscape:connector-curvature="0"
       id="path6270"
       style="fill:none;stroke:#0000e9;stroke-width:1;stroke-linecap:round;stroke-miterlimit:4;stroke-opacity:1;stroke-dasharray:none;stroke-dashoffset:0" />
    <path
       d="M 579.27708,175.86021 C 614.34876,180.85669 644.12744,197.49778 675.33778,210.9892"
       inkscape:connector-curvature="0"
       id="path6272"
       style="fill:none;stroke:#0000e9;stroke-width:1;stroke-linecap:round;stroke-miterlimit:4;stroke-opacity:1;stroke-dasharray:none;stroke-dashoffset:0" />
    <path
       d="M 573.05956,186.11912 C 609.97021,195.28571 641.30339,220.0692 674.40515,239.90068"
       inkscape:connector-curvature="0"
       id="path6274"
       style="fill:none;stroke:#0000e9;stroke-width:1;stroke-linecap:round;stroke-miterlimit:4;stroke-opacity:1;stroke-dasharray:none;stroke-dashoffset:0" />
    <path
       d="M 576.9239,187.35471 C 604.70566,195.18031 628.98135,211.44279 653.12641,226.76542 660.0475,231.27081 667.1897,235.52376 674.05323,240.05791 676.75094,249.29467 681.55684,257.99297 682.55375,267.6773 682.95926,272.00288 682.54705,276.35217 681.10917,280.45998 678.12481,291.22111 676.18351,302.68019 669.73011,312.03543 669.26418,312.80093 668.2722,312.85065 667.84543,312.10343 667.26494,312.09543 667.79613,313.33175 667.45683,313.69667 665.66669,322.99077 660.02704,331.54985 651.66858,336.17351 636.50081,345.46018 619.52349,351.53123 602.05443,354.74346 597.99461,355.7018 593.96935,357.32149 589.70972,356.67896 581.02279,356.26369 573.219,349.76349 570.94925,341.40349 569.84701,336.86116 569.13274,332.2603 567.45724,327.87412 561.25742,309.72474 552.9692,292.25837 548.24387,273.64557 546.46338,267.49359 544.36756,261.43103 542.79554,255.22282 544.27358,252.92099 546.33159,250.83374 547.62383,248.32526 553.88962,237.42114 559.01605,225.86813 562.74018,213.86659 565.20438,205.79428 566.1117,197.00728 564.11969,188.72449 563.91429,187.56931 565.35815,187.37416 565.81979,188.21932 568.53699,188.34802 570.9715,186.64863 573.56087,186.41804 574.68188,186.73026 575.80289,187.04248 576.9239,187.3547 z"
       inkscape:connector-curvature="0"
       id="path6279"
       style="fill:#9681a3;stroke:none" />
    <path
       d="M 545.21454,167.78894 C 549.1669,169.84535 552.68614,172.80539 555.89119,175.89115 563.00274,182.71594 565.93814,193.02801 564.66372,202.68478 563.07324,215.41385 557.73633,227.28308 552.33138,238.79828 549.73135,243.76205 547.41473,249.05353 543.64073,253.25071 542.32196,254.2755 542.07121,251.92524 541.78519,251.10373 537.68255,236.81874 534.21201,222.3431 529.14563,208.34486 526.52188,199.91757 523.46069,191.64873 519.63527,183.70191 519.93249,182.36734 522.04221,182.47511 523.08168,181.71646 529.57764,178.60345 536.77317,176.35988 542.13493,171.49031 543.47649,170.56779 543.65248,168.67527 544.93281,167.79866 545.02511,167.77646 545.12122,167.77276 545.21454,167.78866 z"
       inkscape:connector-curvature="0"
       id="path6281"
       style="fill:#7786bc;stroke:none" />
    <path
       d="M 475.00513,117.7379 C 485.95575,118.05671 496.38148,122.17678 506.10245,126.89903 519.43046,133.88641 532.25494,142.9225 540.83313,155.49962 542.68871,158.66168 544.51872,162.29026 544.11676,166.0597 543.77491,166.65191 543.62023,166.90278 543.97104,167.51693 543.53987,170.47286 540.72181,172.40358 538.3947,173.93846 532.46127,177.42946 526.0602,180.10609 519.71299,182.73042 518.25787,181.72324 517.78658,179.61192 516.76271,178.16285 511.98494,169.7454 507.37142,161.15458 501.70788,153.30908 494.64993,144.19201 485.82829,136.55156 478.63515,127.47231 475.99612,124.23549 472.74491,121.42098 470.17683,118.16535 471.25243,117.20415 473.53448,117.94931 475.00513,117.7379 z"
       inkscape:connector-curvature="0"
       id="path6283"
       style="fill:#cce198;stroke:none" />
    <path
       d="M 577.1862,106.3132 C 592.50817,114.6393 607.19687,124.2189 620.28139,135.72014 621.1664,136.15408 621.39167,137.51167 620.17453,137.62425 601.73041,145.12859 583.12604,152.37071 564.68315,159.80332 560.74405,158.85049 556.9147,157.48903 552.80186,157.32602 551.02187,157.37682 549.01265,156.79931 547.3421,157.48146 546.08349,159.11967 547.01216,161.47507 546.57462,163.37839 546.76999,164.32514 545.67771,166.03221 544.83566,164.77733 544.0879,162.0625 543.57186,159.26631 542.04749,156.84028 537.30237,148.73584 530.08646,142.32434 522.70517,136.65276 521.11499,135.99331 519.9111,134.39622 522.41282,133.91359 540.52723,124.73401 558.6194,115.51051 576.71989,106.30349 L 577.03069,106.30949 577.1862,106.31249 z"
       inkscape:connector-curvature="0"
       id="path6289"
       style="fill:#768e99;stroke:none" />
    <path
       d="M 622.51581,137.47853 C 633.45184,147.24103 643.7254,157.92428 652.27248,169.8485 652.82963,171.4101 650.54996,170.8671 649.77576,170.58683 637.29496,167.53926 624.54422,165.25231 611.67455,164.73106 602.23991,164.49232 592.73368,164.39863 583.42315,166.17627 580.15372,166.53745 576.13673,168.08985 573.39514,165.45076 571.19696,163.50729 568.5264,162.11567 566.06267,160.54165 565.63947,159.20415 567.91032,159.24319 568.71127,158.63678 586.42581,151.43343 604.23434,144.46448 622.00093,137.39109 L 622.30742,137.44319 622.51581,137.47859 z"
       inkscape:connector-curvature="0"
       id="path6291"
       style="fill:#c1dfbe;stroke:none" />
    <path
       d="M 606.21425,164.93277 C 622.42406,164.98187 638.55644,167.88158 654.1231,172.14069 661.59864,183.51303 669.87413,194.9304 673.00403,208.38741 673.49878,209.64204 671.96633,209.68105 671.30216,209.00789 649.68748,199.43547 628.43243,188.84144 605.85306,181.76097 597.60856,179.05085 588.96344,177.56991 580.5184,175.726 578.99282,174.4624 579.07523,172.10135 577.8371,170.5674 577.01451,169.47334 575.59272,167.48466 578.02168,167.4975 587.26657,165.46355 596.75546,164.75388 606.21425,164.93277 z"
       inkscape:connector-curvature="0"
       id="path6293"
       style="fill:#a76986;stroke:none" />
    <path
       d="M 580.92643,176.27975 C 607.10836,180.3504 631.52713,191.31806 655.46305,202.26381 661.36328,204.9216 667.23345,207.65141 673.1789,210.20409 673.98405,212.96698 673.80775,216.11825 673.69378,219.04463 673.32767,223.47562 671.78288,227.77282 672.39199,232.27629 672.36221,234.24788 673.39801,236.2333 673.08175,238.15379 671.90165,238.87784 670.79145,237.05645 669.68414,236.7611 645.11968,221.7718 621.66768,204.57092 595.04214,193.43622 588.44403,190.63316 581.6641,188.31292 574.81577,186.31521 573.79898,185.13138 576.12233,184.67289 576.62274,183.85735 578.75128,182.06869 580.04449,179.52753 580.01323,176.76549 580.12404,176.38216 580.56035,176.21037 580.92643,176.27975 z"
       inkscape:connector-curvature="0"
       id="path6295"
       style="fill:#ba9676;stroke:none" />
    <path
       d="M 551.17948,157.53003 C 560.65627,157.92292 570.42028,161.72715 576.41357,169.25002 577.77934,171.16942 579.45487,173.44344 579.17775,175.84258 580.26785,177.58403 579.27635,180.01815 578.1674,181.56464 574.86953,185.50942 569.70449,187.85877 564.60544,188.09304 562.97532,187.50644 562.99815,185.15803 562.099,183.89621 558.80383,176.71136 552.42178,171.81328 545.98846,167.5602 545.14489,167.16664 545.35152,166.41126 545.96256,166.06941 547.48375,163.73227 546.41471,160.70089 547.31293,158.20036 548.21204,157.11188 549.97651,157.65834 551.17945,157.53003 z"
       inkscape:connector-curvature="0"
       id="path6297"
       style="fill:#b394dd;stroke:none" />
    <path
       d="M 471.04149,68.289174 C 473.55411,68.826073 474.69312,71.619276 476.50043,73.207023 483.70908,81.682575 490.91188,91.172691 492.39279,102.52221 493.10716,108.37949 491.76629,114.52292 488.79057,119.52543 482.57837,117.82902 476.1178,117.13948 469.67184,117.32433 467.72007,116.94858 466.56238,114.74974 464.92783,113.65799 457.18419,106.48106 449.09559,99.426349 443.04321,90.701395 442.7047,87.327971 442.80764,83.543244 445.26792,80.908799 450.15064,74.541364 457.96621,71.500857 465.436,69.289807 467.28592,68.897049 469.13865,68.285924 471.04149,68.289174 z"
       inkscape:connector-curvature="0"
       id="path5948"
       style="fill:#a36ed8;stroke:none" />
    <path
       d="M 475.44233,68.007443 C 496.81537,69.764289 517.19382,77.323901 536.5274,86.218621 549.20771,92.323812 561.9247,98.445869 574.38397,105.00441 575.33175,105.24079 575.63882,106.47236 574.53407,106.73094 556.64232,116.30593 538.45151,125.31421 520.36392,134.51549 518.52864,134.18594 517.03516,132.52321 515.33161,131.7176 507.31003,126.91295 498.87681,122.5646 489.83006,119.93346 488.98381,118.85458 490.63923,117.42754 490.83069,116.19323 494.29029,107.92908 493.01071,98.349259 489.01401,90.497382 485.19513,82.397457 479.16652,75.671226 473.35363,68.988645 472.9455,67.726567 474.75868,68.023605 475.44233,68.007443 z"
       inkscape:connector-curvature="0"
       id="path5950"
       style="fill:#a6a5bc;stroke:none" />
  </g>
</svg>
